<svg width="246" height="46" viewBox="0 0 246 46" fill="none" xmlns="http://www.w3.org/2000/svg">
<path d="M172.453 8.23051C173.435 7.04766 173.923 5.52735 173.814 3.98987C172.307 4.13454 170.914 4.8596 169.927 6.01337C169.437 6.56548 169.061 7.21028 168.822 7.91009C168.583 8.60989 168.484 9.35065 168.533 10.0891C170.024 10.2193 171.513 9.33881 172.453 8.22996" fill="white"/>
<path d="M173.797 10.3804C171.632 10.2507 169.793 11.6161 168.757 11.6161C167.72 11.6161 166.138 10.446 164.424 10.4775C163.31 10.5059 162.223 10.827 161.27 11.4089C160.318 11.9908 159.533 12.8133 158.994 13.7946C156.669 17.8279 158.381 23.8107 160.643 27.0964C161.74 28.7216 163.066 30.5112 164.811 30.4466C166.46 30.3815 167.106 29.3736 169.11 29.3736C171.114 29.3736 171.694 30.4466 173.439 30.4141C175.249 30.3815 176.38 28.7883 177.479 27.1593C178.258 26.0072 178.868 24.7475 179.289 23.4195C178.249 22.9627 177.363 22.2128 176.738 21.2604C176.113 20.3081 175.776 19.194 175.767 18.0529C175.735 14.7038 178.481 13.1106 178.61 13.0118C178.062 12.2306 177.343 11.5868 176.508 11.1303C175.673 10.6737 174.745 10.4168 173.795 10.3793" fill="white"/>
<path d="M195.385 5.85059C200.091 5.85059 203.368 9.11368 203.368 13.8641C203.368 18.6315 200.023 21.9123 195.267 21.9123H190.057V30.2468H186.294V5.85059H195.385ZM190.056 18.7336H194.376C197.654 18.7336 199.519 16.9584 199.519 13.879C199.519 10.7996 197.654 9.04417 194.393 9.04417H190.056V18.7336Z" fill="white"/>
<path d="M204.302 25.1914C204.302 22.0635 206.672 20.2711 211.042 20.0008L215.731 19.7128V18.3607C215.731 16.383 214.437 15.3006 212.135 15.3006C210.234 15.3006 208.857 16.2815 208.57 17.7864H205.175C205.275 14.6254 208.233 12.325 212.234 12.325C216.536 12.325 219.343 14.5906 219.343 18.1069V30.2436H215.864V27.3197H215.78C215.22 28.2932 214.409 29.0963 213.432 29.6439C212.456 30.1914 211.35 30.4631 210.233 30.43C206.737 30.43 204.3 28.3337 204.3 25.1892L204.302 25.1914ZM215.729 23.617V22.2488L211.545 22.5197C209.191 22.6714 207.966 23.5508 207.966 25.0888C207.966 26.5783 209.242 27.541 211.242 27.541C213.797 27.541 215.73 25.9009 215.73 23.6186" fill="white"/>
<path d="M222.544 36.7719V33.8481C222.779 33.8812 223.351 33.9143 223.652 33.9143C225.317 33.9143 226.259 33.2048 226.829 31.3766L227.166 30.2948L220.795 12.5433H224.728L229.166 26.9473H229.25L233.687 12.5433H237.519L230.914 31.1896C229.4 35.4667 227.669 36.8717 224.003 36.8717C223.514 36.8728 223.026 36.8389 222.542 36.7702" fill="white"/>
<path d="M130.215 6.24573L130.923 40.0922" stroke="white" stroke-width="2"/>
<path d="M16.2059 34.3312C16.2767 34.6912 16.2767 34.8353 16.4183 34.8353C16.489 34.8353 17.8336 35.2673 17.9044 34.9073C18.329 31.1625 28.6613 27.2738 29.369 30.4424C30.289 29.0741 31.209 27.7059 31.6336 25.9776C31.6336 25.7615 31.7044 25.6895 31.7044 25.6895C30.7844 22.8089 13.6583 25.7615 16.2059 34.3312ZM31.8459 21.6567C31.7044 19.9284 31.209 18.2721 30.4306 16.7598C25.4059 10.7106 6.01518 16.9038 12.6675 32.5308C12.8798 33.0349 13.1629 33.2509 13.3044 33.1789C13.4459 33.1069 14.0121 33.0349 14.0121 32.6028C12.1721 20.4325 27.529 17.4799 31.8459 21.6567ZM26.3259 12.511C26.4675 12.583 27.3875 12.9431 27.1752 12.727C26.9629 12.439 26.609 12.2229 26.3967 12.0789C10.7567 3.14919 -1.41559 24.2492 10.4736 33.8991C10.8983 34.2591 11.2521 34.5472 11.3229 34.5472C11.4644 34.5472 14.1536 36.4196 12.1721 33.395C4.8121 21.7287 13.5875 6.31779 26.3259 12.511Z" fill="white" fill-opacity="0.5"/>
<path d="M30.4303 16.7597C29.3688 19.9283 19.3903 14.4553 17.9042 11.5027C17.7626 11.2147 17.6211 11.0706 17.5503 11.1426C17.4088 11.2147 17.338 11.2867 17.2672 11.6467C16.3472 16.0396 26.2549 24.1051 31.9165 22.0887C31.9165 22.0887 31.9165 21.9447 31.9165 21.7287C31.7041 19.9283 31.2088 18.272 30.4303 16.7597ZM14.2949 12.7269C14.3657 12.2949 14.4365 12.0788 14.2949 11.9348C14.1534 11.8628 13.9411 12.0788 13.5872 12.5109C7.43031 20.9365 20.8765 33.827 29.6518 30.5144C30.5718 29.0741 31.2795 27.4898 31.6334 25.7614C26.8211 29.5062 12.738 20.8645 14.2949 12.7269ZM12.6672 11.3587C13.0211 10.9986 13.4457 10.7106 13.3042 10.6385C13.2334 10.6385 12.8088 10.7826 12.3134 11.0706C2.68877 16.5437 4.95339 33.4669 17.4088 36.5635C17.7626 36.5635 18.1165 36.6355 18.5411 36.6355C20.0272 36.6355 21.5134 36.3475 22.858 35.9154C24.0611 35.4833 24.7688 35.1232 25.9011 34.4031C26.0426 34.3311 26.1842 34.2591 26.2549 34.115C15.3565 37.4997 2.75954 20.7205 12.6672 11.3587Z" fill="white"/>
<path fill-rule="evenodd" clip-rule="evenodd" d="M47.9106 17.552C49.9629 17.552 51.2368 18.6322 51.2368 20.5766C51.2368 22.5209 49.9629 23.6011 47.9106 23.6011H43.4521V13.8793H50.3875V15.6796H45.4337V17.552H47.9106ZM47.5568 21.7288C48.8306 21.7288 49.1845 21.2967 49.1845 20.4325C49.1845 19.5684 48.7598 19.1363 47.5568 19.1363H45.4337V21.6568H47.5568V21.7288ZM52.9352 23.5291V13.8793H54.9168V17.696H57.0398L58.8798 13.8793H60.9321L58.8091 18.5602L61.1445 23.5291H59.0921L57.1814 19.4963H54.9168V23.5291H52.9352ZM68.3629 20.5045H70.4152C70.0614 22.4489 68.646 23.8172 66.4521 23.8172C63.5506 23.8172 61.9229 21.8008 61.9229 18.8482C61.9229 15.8957 63.5506 13.8793 66.4521 13.8793C68.5044 13.8793 69.9906 15.0315 70.3444 16.8318H68.2921C68.0798 16.0397 67.5137 15.6076 66.5229 15.6076C64.8952 15.6076 64.046 17.0479 64.046 18.7762C64.046 20.5045 64.8952 21.9448 66.5229 21.9448C67.5137 21.8728 68.1506 21.2967 68.3629 20.5045ZM80.9598 17.552C83.0121 17.552 84.286 18.6322 84.286 20.5766C84.286 22.5209 83.0121 23.6011 80.9598 23.6011H76.5014V13.8793H83.4368V15.6796H78.4829V17.552H80.9598ZM80.5352 21.7288C81.8091 21.7288 82.1629 21.2967 82.1629 20.4325C82.1629 19.5684 81.7383 19.1363 80.5352 19.1363H78.4121V21.6568H80.5352V21.7288ZM90.0183 23.5291V22.953H89.7352C89.3106 23.4571 88.7444 23.7452 87.8244 23.7452C86.2675 23.7452 85.3475 22.737 85.3475 21.4407C85.3475 20.3605 86.126 19.1363 88.1075 19.1363H89.9475V18.9923C89.9475 18.3441 89.5229 17.912 88.6737 17.912C87.8952 17.912 87.6121 18.2001 87.5414 18.7042H85.7014C85.7721 17.3359 86.9752 16.5438 88.6029 16.5438C90.4429 16.5438 91.646 17.3359 91.646 19.1363V23.5291H90.0183ZM88.3906 22.1609C89.3106 22.1609 89.8768 21.5847 89.8768 20.7206V20.2885H88.4614C87.6121 20.2885 87.1875 20.6486 87.1875 21.2247C87.1875 21.8008 87.6121 22.1609 88.3906 22.1609ZM100.138 23.5291H98.2983V20.7206H95.4675V23.5291H93.6275V16.6158H95.4675V19.2083H98.2983V16.6158H100.138V23.5291ZM106.791 23.5291L105.375 20.7206H103.96V23.5291H102.12V16.6158H103.96V19.2083H105.446L106.791 16.6158H108.701L106.932 20.0004L108.772 23.6011L106.791 23.5291Z" fill="white"/>
<path d="M46.7075 32.8189V31.9547H43.4521V27.6339H44.3014V31.1626H46.0706V27.6339H46.9198V31.1626H47.486V32.8189H46.7075Z" fill="white"/>
<path d="M52.1567 31.9547V27.6339H53.006V30.4424L55.0583 27.6339H55.8367V31.9547H54.9875V29.1462L52.9352 31.9547H52.1567Z" fill="white"/>
<path d="M62.6304 32.0987V31.5947C61.215 31.5226 60.5781 30.6585 60.5781 29.7223C60.5781 29.2182 60.7197 28.7861 61.1443 28.426C61.4981 28.066 61.9935 27.8499 62.6304 27.8499V27.4899H63.4797V27.8499C64.1166 27.8499 64.612 28.066 64.9658 28.426C65.3197 28.7861 65.532 29.2182 65.532 29.7223C65.532 30.6585 64.8951 31.5947 63.4797 31.5947V32.0987H62.6304ZM62.6304 28.6421C61.9227 28.6421 61.4981 29.0742 61.4981 29.7223C61.4981 30.3704 61.9227 30.8025 62.6304 30.8025V28.6421ZM63.4797 30.8025C64.1874 30.8025 64.612 30.3704 64.612 29.7223C64.612 29.0742 64.1874 28.6421 63.4797 28.6421V30.8025Z" fill="white"/>
<path d="M70.2031 31.9547V27.6339H72.0431C72.4677 27.6339 72.8924 27.7779 73.1047 27.994C73.3877 28.21 73.5293 28.5701 73.5293 28.9302C73.5293 29.2902 73.3877 29.6503 73.1047 29.8663C72.8216 30.0824 72.4677 30.2264 72.0431 30.2264H71.0524V31.9547H70.2031ZM71.1231 29.5063H72.0431C72.4677 29.5063 72.68 29.2902 72.68 29.0022C72.68 28.6421 72.397 28.4981 72.0431 28.4981H71.1231V29.5063Z" fill="white"/>
<path d="M78.695 28.21C79.1196 27.7779 79.615 27.5619 80.252 27.5619C80.8889 27.5619 81.3843 27.7779 81.8089 28.21C82.2335 28.6421 82.4458 29.1462 82.4458 29.7943C82.4458 30.4424 82.2335 30.9465 81.8089 31.3786C81.3843 31.8107 80.8889 32.0267 80.252 32.0267C79.615 32.0267 79.1196 31.8107 78.695 31.3786C78.2704 30.9465 78.0581 30.4424 78.0581 29.7943C78.0581 29.1462 78.2704 28.6421 78.695 28.21ZM80.252 31.1626C80.6058 31.1626 80.9596 31.0186 81.172 30.7305C81.455 30.4424 81.5258 30.1544 81.5258 29.7223C81.5258 29.2902 81.3843 29.0022 81.172 28.7141C80.8889 28.4261 80.6058 28.282 80.252 28.282C79.8981 28.282 79.5443 28.4261 79.3319 28.7141C79.0489 29.0022 78.9781 29.2902 78.9781 29.7223C78.9781 30.1544 79.1196 30.4424 79.3319 30.7305C79.615 31.0906 79.8981 31.1626 80.252 31.1626Z" fill="white"/>
<path d="M87.1875 31.9547V27.6339H89.169C89.9475 27.6339 90.4429 27.994 90.4429 28.7141C90.4429 29.1462 90.2306 29.4343 89.8767 29.5783C90.089 29.6503 90.3014 29.7223 90.5137 29.9384C90.6552 30.1544 90.7967 30.3704 90.7967 30.7305C90.7967 31.0906 90.6552 31.3786 90.3721 31.5947C90.089 31.8107 89.7352 31.9547 89.3106 31.9547H87.1875ZM88.1075 29.2902H89.0983C89.4521 29.2902 89.6644 29.1462 89.6644 28.7861C89.6644 28.4981 89.4521 28.282 89.0983 28.282H88.1075V29.2902ZM88.1075 31.1626H89.169C89.5937 31.1626 89.8767 30.9465 89.8767 30.5865C89.8767 30.2264 89.5937 30.0104 89.169 30.0104H88.1075V31.1626Z" fill="white"/>
<path d="M95.9631 28.21C96.3877 27.7779 96.8831 27.5619 97.52 27.5619C98.1569 27.5619 98.6523 27.7779 99.0769 28.21C99.5016 28.6421 99.7139 29.1462 99.7139 29.7943C99.7139 30.4424 99.5016 30.9465 99.0769 31.3786C98.6523 31.8107 98.1569 32.0267 97.52 32.0267C96.8831 32.0267 96.3877 31.8107 95.9631 31.3786C95.5385 30.9465 95.3262 30.4424 95.3262 29.7943C95.3969 29.1462 95.6093 28.6421 95.9631 28.21ZM97.5908 31.1626C97.9446 31.1626 98.2985 31.0186 98.5108 30.7305C98.7939 30.4424 98.8646 30.1544 98.8646 29.7223C98.8646 29.2902 98.7231 29.0022 98.5108 28.7141C98.2277 28.4261 97.9446 28.282 97.5908 28.282C97.2369 28.282 96.8831 28.4261 96.6708 28.7141C96.3877 29.0022 96.3169 29.2902 96.3169 29.7223C96.3169 30.1544 96.4585 30.4424 96.6708 30.7305C96.8831 31.0906 97.1662 31.1626 97.5908 31.1626Z" fill="white"/>
<path d="M104.526 31.9547V27.6339H105.375V30.4424L107.427 27.6339H108.206V31.9547H107.357V29.1462L105.304 31.9547H104.526ZM105.87 26.3376C105.87 26.6257 106.012 26.7697 106.366 26.7697C106.72 26.7697 106.861 26.6257 106.861 26.3376H107.498C107.498 26.9858 107.003 27.4179 106.366 27.4179C105.729 27.4179 105.234 26.9858 105.234 26.3376H105.87Z" fill="white"/>
</svg>
