<svg width="424" height="512" viewBox="0 0 424 512" fill="none" xmlns="http://www.w3.org/2000/svg">
<g clip-path="url(#clip0)">
<path d="M342 65.7H71.2004C58.1004 65.7 47.4004 76.4 47.4004 89.5V487.3C47.4004 500.4 58.1004 511.1 71.2004 511.1H342C355.1 511.1 365.8 500.4 365.8 487.3V89.5C365.8 76.4 355.1 65.7 342 65.7Z" fill="#111110"/>
<path d="M342 65.7V65.2H71.2004C57.8004 65.2 46.9004 76.1 46.9004 89.5V487.3C46.9004 500.7 57.8004 511.6 71.2004 511.6H342C355.4 511.6 366.3 500.7 366.3 487.3V89.5C366.3 76.1 355.4 65.2 342 65.2V65.7V66.2C348.4 66.2 354.2 68.8 358.5 73C362.7 77.2 365.3 83 365.3 89.5V487.3C365.3 493.7 362.7 499.5 358.5 503.8C354.3 508 348.5 510.6 342 510.6H71.2004C64.8004 510.6 59.0004 508 54.7004 503.8C50.5004 499.6 47.9004 493.8 47.9004 487.3V89.5C47.9004 83.1 50.5004 77.3 54.7004 73C58.9004 68.8 64.7004 66.2 71.2004 66.2H342V65.7Z" fill="#777777"/>
<path d="M342 65.7V65.4H71.1996C57.8996 65.4 47.0996 76.2 47.0996 89.5V487.3C47.0996 500.6 57.8996 511.4 71.1996 511.4H342C355.3 511.4 366.1 500.6 366.1 487.3V89.5C366.1 76.2 355.3 65.4 342 65.4V65.7V66C348.5 66 354.4 68.6 358.6 72.9C362.8 77.1 365.5 83 365.5 89.5V487.3C365.5 493.8 362.9 499.7 358.6 503.9C354.4 508.1 348.5 510.8 342 510.8H71.1996C64.6996 510.8 58.7996 508.2 54.5996 503.9C50.3996 499.7 47.6996 493.8 47.6996 487.3V89.5C47.6996 83 50.2996 77.1 54.5996 72.9C58.7996 68.7 64.6996 66 71.1996 66H342V65.7Z" fill="#999999"/>
<path d="M265.5 315.9C200 390.9 133.6 439.6 83.4996 469.5C70.2996 477.4 58.1996 484 47.5996 489.4L47.6996 490.4C98.5996 464.4 183.1 411.6 266.1 316.5C309.7 266.5 341.8 214.8 365.2 168V165.8C341.9 213 309.6 265.3 265.5 315.9Z" fill="#777777"/>
<path d="M345.7 80.3H67.0996C63.9996 80.3 61.5996 82.8 61.5996 85.8V490.6C61.5996 493.7 64.0996 496.1 67.0996 496.1H345.8C348.9 496.1 351.3 493.6 351.3 490.6V85.8C351.3 82.8 348.8 80.3 345.7 80.3Z" fill="white"/>
<path d="M299 408.6H111.6C110.7 408.6 110 409.3 110 410.2V422.2C110 423.1 110.7 423.8 111.6 423.8H299.1C300 423.8 300.7 423.1 300.7 422.2V410.2C300.6 409.3 299.9 408.6 299 408.6Z" fill="#39A8E0"/>
<path d="M299 386.8H111.6C110.7 386.8 110 387.5 110 388.4V400.4C110 401.3 110.7 402 111.6 402H299.1C300 402 300.7 401.3 300.7 400.4V388.4C300.6 387.5 299.9 386.8 299 386.8Z" fill="#010202"/>
<path d="M118.6 339H115.8V338.4H122.2V339H119.4V346.4H118.6V339Z" fill="#010202"/>
<path d="M123.2 348.5C123.1 348.5 122.9 348.5 122.9 348.5L122.7 348.4V347.8L123 347.9C123.1 347.9 123.1 347.9 123.3 347.9C123.5 347.9 123.6 347.9 123.7 347.8C123.8 347.7 123.9 347.7 124 347.6L124.2 347.3C124.3 347.2 124.3 347 124.4 346.9L124.7 346.3L122.4 340.6H123.2L125.1 345.6L126.9 340.6H127.6L125.1 347.2C125 347.5 124.9 347.7 124.8 347.8C124.7 347.9 124.6 348.1 124.5 348.2C124.4 348.3 124.2 348.3 124.1 348.4C123.7 348.5 123.5 348.5 123.2 348.5Z" fill="#010202"/>
<path d="M131.5 345.8C131.4 346 131.2 346.2 130.9 346.4C130.6 346.6 130.3 346.6 130.1 346.6C129.8 346.6 129.5 346.5 129.3 346.4C129 346.3 128.8 346.1 128.6 345.8C128.4 345.5 128.2 345.2 128.1 344.8C128 344.4 127.9 344 127.9 343.5C127.9 342.5 128.1 341.7 128.5 341.2C128.9 340.7 129.5 340.4 130.2 340.4C130.5 340.4 130.8 340.5 131 340.6C131.3 340.7 131.5 340.9 131.6 341.2V338.4H132.3V341.2C132.4 340.9 132.6 340.7 132.9 340.6C133.2 340.5 133.4 340.4 133.7 340.4C134.4 340.4 134.9 340.7 135.4 341.2C135.8 341.7 136 342.5 136 343.5C136 344 135.9 344.4 135.8 344.8C135.7 345.2 135.5 345.5 135.3 345.8C135.1 346.1 134.8 346.3 134.6 346.4C134.3 346.5 134 346.6 133.8 346.6C133.5 346.6 133.2 346.5 133 346.4C132.7 346.3 132.5 346.1 132.4 345.8V348.5H131.7V345.8H131.5ZM130.2 345.9C130.6 345.9 130.8 345.8 131.1 345.6C131.4 345.3 131.5 345.1 131.5 344.7V342.3C131.5 342.1 131.4 342 131.4 341.8C131.3 341.7 131.3 341.5 131.1 341.4C131 341.3 130.8 341.2 130.7 341.1C130.6 341 130.4 341 130.2 341C129.9 341 129.7 341.1 129.6 341.1C129.4 341.2 129.2 341.4 129 341.5C128.9 341.7 128.7 342 128.6 342.3C128.5 342.6 128.5 343 128.5 343.4C128.5 343.9 128.6 344.2 128.6 344.5C128.7 344.8 128.8 345.1 128.9 345.3C129 345.5 129.2 345.6 129.4 345.8C129.7 345.9 129.9 345.9 130.2 345.9ZM133.4 345.9C133.7 345.9 133.9 345.8 134.1 345.8C134.3 345.7 134.5 345.5 134.6 345.3C134.7 345.1 134.9 344.8 134.9 344.5C135 344.2 135 343.9 135 343.4C135 342.9 134.9 342.6 134.9 342.3C134.8 342 134.7 341.7 134.5 341.5C134.4 341.3 134.2 341.2 133.9 341.1C133.7 341 133.4 341 133.3 341C133.2 341 133 341 132.8 341.1C132.7 341.2 132.5 341.2 132.4 341.4C132.3 341.5 132.2 341.7 132.1 341.8C132 341.9 132 342.1 132 342.3V344.7C132 345.1 132.1 345.4 132.4 345.6C132.7 345.8 133.1 345.9 133.4 345.9Z" fill="#010202"/>
<path d="M136.9 346.4H136.8H136.6H136.5H136.4V345.8C136.5 345.8 136.5 345.9 136.7 345.9C136.9 345.9 136.9 345.9 137 345.9C137.1 345.9 137.1 345.9 137.3 345.8C137.4 345.8 137.5 345.7 137.6 345.6C137.7 345.5 137.8 345.3 137.9 345.1C138 344.9 138 344.6 138.1 344.2C138.2 343.8 138.2 343.3 138.2 342.7C138.3 342.1 138.3 341.4 138.3 340.6H142.2V346.4H141.5V341.3H139C139 342.1 139 342.8 138.9 343.4C138.8 344 138.8 344.5 138.7 344.9C138.6 345.3 138.5 345.6 138.4 345.8C138.3 346 138.1 346.2 138 346.3C137.9 346.4 137.7 346.5 137.5 346.5C137.2 346.4 137 346.4 136.9 346.4Z" fill="#010202"/>
<path d="M143.2 340.6H143.9V345.5L147.1 340.6H148V346.4H147.3V341.4L144.1 346.4H143.2V340.6Z" fill="#010202"/>
<path d="M153.3 338H152.7V349.2H153.3V338Z" fill="#010202"/>
<path d="M162.7 340.6H163.3V345.8C163.3 346.2 163.2 346.6 163.2 346.9C163.1 347.3 163 347.5 162.8 347.9C162.6 348.2 162.3 348.4 162 348.5C161.7 348.6 161.2 348.8 160.6 348.8C160.1 348.8 159.8 348.7 159.5 348.6C159.2 348.5 158.9 348.3 158.7 348.2C158.5 348 158.4 347.9 158.2 347.7C158.1 347.5 158.1 347.3 158 347.1H158.7C158.8 347.3 158.8 347.5 159 347.6C159.1 347.7 159.3 347.9 159.4 347.9C159.5 347.9 159.7 348 159.9 348.1C160.1 348.1 160.3 348.2 160.5 348.2C160.9 348.2 161.3 348.1 161.6 347.9C161.9 347.8 162.1 347.5 162.2 347.3C162.3 347 162.5 346.8 162.5 346.5C162.5 346.2 162.6 345.9 162.6 345.5C162.4 345.9 162.1 346.1 161.7 346.3C161.3 346.5 160.9 346.6 160.5 346.6C160 346.6 159.7 346.5 159.3 346.3C159 346.1 158.7 345.9 158.5 345.7C158.3 345.4 158.1 345.1 158 344.7C157.9 344.3 157.9 343.9 157.9 343.5C157.9 343 158 342.7 158 342.3C158.1 341.9 158.3 341.6 158.5 341.3C158.7 341 159 340.8 159.3 340.7C159.6 340.6 160 340.4 160.5 340.4C160.7 340.4 160.9 340.4 161.1 340.5C161.3 340.6 161.5 340.6 161.7 340.7C161.9 340.8 162 340.9 162.2 341.1C162.3 341.2 162.5 341.4 162.6 341.6L162.7 340.6ZM162.7 343.5C162.7 343.2 162.6 342.8 162.6 342.5C162.5 342.2 162.4 341.9 162.2 341.7C162 341.5 161.8 341.3 161.6 341.2C161.3 341.1 161.1 341 160.8 341C160.5 341 160.3 341.1 160 341.1C159.7 341.2 159.5 341.4 159.4 341.6C159.2 341.8 159.1 342.1 158.9 342.3C158.7 342.5 158.8 342.9 158.8 343.3C158.8 343.7 158.8 344 158.9 344.3C159 344.6 159.1 344.9 159.3 345.1C159.5 345.4 159.7 345.6 159.9 345.7C160.2 345.8 160.5 345.9 160.8 345.9C161.1 345.9 161.4 345.8 161.6 345.7C161.9 345.6 162.1 345.4 162.2 345.2C162.4 345 162.5 344.8 162.6 344.4C162.6 344.1 162.7 343.8 162.7 343.5Z" fill="#010202"/>
<path d="M165.7 346.4H165.1V340.6H165.7V341.7C165.9 341.2 166.2 340.9 166.4 340.7C166.7 340.5 167.1 340.4 167.6 340.4V341.1C167.2 341.1 166.9 341.2 166.6 341.3C166.3 341.4 166.1 341.6 166 341.8C165.9 342 165.7 342.3 165.7 342.6C165.6 342.9 165.6 343.2 165.6 343.5L165.7 346.4Z" fill="#010202"/>
<path d="M171.4 343C171.5 343 171.7 342.9 171.9 342.9C172.1 342.9 172.2 342.8 172.4 342.8C172.6 342.8 172.6 342.7 172.6 342.5C172.6 342.4 172.7 342.2 172.7 342.2C172.7 341.9 172.6 341.6 172.4 341.4C172.2 341.2 171.8 341.1 171.3 341.1C171 341.1 170.8 341.1 170.7 341.2C170.5 341.3 170.3 341.3 170.2 341.4C170.1 341.5 169.9 341.7 169.8 341.8C169.7 342 169.7 342.2 169.6 342.4H168.9C168.9 342.1 169 341.8 169.2 341.5C169.3 341.2 169.5 341.1 169.7 340.9C169.9 340.8 170.1 340.6 170.4 340.6C170.7 340.5 171 340.5 171.3 340.5C171.6 340.5 171.9 340.5 172.1 340.6C172.4 340.7 172.6 340.8 172.7 340.9C172.9 341 173 341.2 173.2 341.5C173.3 341.8 173.4 342 173.4 342.3V345.5C173.4 345.8 173.5 345.9 173.5 346C173.6 346.1 173.8 346.1 174.1 345.9V346.4C174 346.4 174 346.5 173.8 346.5C173.7 346.5 173.6 346.6 173.5 346.6C173.4 346.6 173.3 346.6 173.2 346.5C173.1 346.5 173 346.4 172.9 346.4L172.7 346.2L172.6 345.9C172.6 345.8 172.6 345.7 172.6 345.6C172.3 345.9 172 346.2 171.6 346.3C171.2 346.5 170.8 346.6 170.4 346.6C170.1 346.6 169.9 346.5 169.7 346.5C169.5 346.5 169.2 346.3 169.1 346.2C168.9 346.1 168.8 345.9 168.6 345.7C168.5 345.5 168.5 345.2 168.5 345C168.5 344 169.1 343.5 170.5 343.3L171.4 343ZM172.6 343.3C172.3 343.4 172 343.5 171.8 343.6C171.5 343.7 171.2 343.7 170.9 343.7C170.4 343.8 170 343.8 169.7 344C169.4 344.2 169.2 344.5 169.2 344.9C169.2 345.1 169.3 345.2 169.3 345.4C169.4 345.5 169.5 345.7 169.6 345.7C169.7 345.8 169.9 345.8 170 345.9C170.1 346 170.3 346 170.5 346C170.8 346 171 345.9 171.3 345.9C171.6 345.8 171.8 345.7 172 345.6C172.3 345.5 172.4 345.3 172.5 345.1C172.6 344.9 172.7 344.6 172.7 344.3L172.6 343.3Z" fill="#010202"/>
<path d="M179.1 342.4C179 341.9 178.8 341.6 178.5 341.4C178.2 341.1 177.9 341 177.4 341C177.1 341 176.8 341.1 176.5 341.2C176.2 341.3 176.1 341.5 175.9 341.8C175.8 342.1 175.6 342.3 175.6 342.6C175.5 342.9 175.5 343.2 175.5 343.5C175.5 343.8 175.6 344.1 175.6 344.4C175.7 344.7 175.8 345 175.9 345.2C176 345.5 176.3 345.6 176.5 345.8C176.7 346 177 346 177.4 346C177.9 346 178.3 345.9 178.6 345.6C178.9 345.3 179.1 345 179.2 344.4H179.9C179.8 344.7 179.8 345 179.6 345.3C179.5 345.6 179.3 345.8 179.1 346C178.9 346.2 178.6 346.3 178.4 346.5C178.1 346.6 177.8 346.6 177.4 346.6C176.9 346.6 176.6 346.5 176.2 346.3C175.9 346.2 175.6 345.9 175.4 345.7C175.2 345.4 175 345.1 174.9 344.7C174.8 344.3 174.8 343.9 174.8 343.5C174.8 343.1 174.9 342.7 175 342.3C175.1 341.9 175.3 341.6 175.5 341.3C175.7 341 176 340.8 176.3 340.6C176.6 340.4 177 340.3 177.5 340.3C178.1 340.3 178.7 340.4 179.1 340.7C179.5 341 179.7 341.5 179.9 342.2H179.1V342.4Z" fill="#010202"/>
<path d="M181.2 339.3V338.3H181.9V339.3H181.2ZM181.3 346.4V340.6H181.9V346.4H181.3Z" fill="#010202"/>
<path d="M186.3 343C186.4 343 186.6 342.9 186.8 342.9C187 342.9 187.1 342.8 187.3 342.8C187.4 342.7 187.5 342.7 187.5 342.5C187.5 342.4 187.6 342.2 187.6 342.2C187.6 341.9 187.5 341.6 187.3 341.4C187.1 341.2 186.7 341.1 186.2 341.1C185.9 341.1 185.7 341.1 185.6 341.2C185.4 341.3 185.2 341.3 185.1 341.4C185 341.5 184.8 341.7 184.7 341.8C184.6 342 184.6 342.2 184.5 342.4H183.8C183.8 342.1 183.9 341.8 184.1 341.5C184.2 341.2 184.4 341.1 184.6 340.9C184.8 340.8 185.1 340.6 185.3 340.6C185.6 340.5 185.9 340.5 186.2 340.5C186.5 340.5 186.8 340.5 187 340.6C187.3 340.7 187.4 340.8 187.6 340.9C187.8 341 187.9 341.2 188.1 341.5C188.2 341.8 188.3 342 188.3 342.3V345.5C188.3 345.8 188.4 345.9 188.4 346C188.5 346.1 188.7 346.1 189 345.9V346.4C188.9 346.4 188.9 346.5 188.7 346.5C188.6 346.5 188.5 346.6 188.4 346.6C188.3 346.6 188.2 346.6 188.1 346.5C188 346.5 187.9 346.4 187.8 346.4L187.6 346.2L187.5 345.9C187.5 345.8 187.5 345.7 187.5 345.6C187.2 345.9 186.9 346.2 186.5 346.3C186.1 346.5 185.7 346.6 185.3 346.6C185 346.6 184.8 346.5 184.6 346.5C184.4 346.4 184.2 346.3 184 346.2C183.8 346.1 183.7 345.9 183.5 345.7C183.4 345.5 183.4 345.2 183.4 345C183.4 344 184 343.5 185.4 343.3L186.3 343ZM187.5 343.3C187.2 343.4 186.9 343.5 186.7 343.6C186.4 343.7 186.1 343.7 185.8 343.7C185.3 343.8 184.9 343.8 184.6 344C184.3 344.2 184.1 344.5 184.1 344.9C184.1 345.1 184.2 345.2 184.2 345.4C184.3 345.5 184.4 345.7 184.5 345.7C184.6 345.8 184.8 345.8 184.9 345.9C185 346 185.2 346 185.3 346C185.6 346 185.8 345.9 186.1 345.9C186.4 345.8 186.6 345.7 186.8 345.6C187.1 345.5 187.2 345.3 187.3 345.1C187.4 344.9 187.5 344.6 187.5 344.3V343.3Z" fill="#010202"/>
<path d="M116.3 365.7H118.6V366.1H116.8V367.1H117.9C118.2 367.1 118.5 367.2 118.6 367.4C118.8 367.6 118.9 367.8 118.9 368.1C118.9 368.4 118.8 368.6 118.6 368.8C118.4 369 118.2 369.1 117.9 369.1H116.4L116.3 365.7ZM117.6 368.5C118.1 368.5 118.3 368.3 118.3 367.9C118.3 367.5 118 367.3 117.6 367.3H116.6V368.5H117.6Z" fill="#010202"/>
<path d="M120.3 368.9C120.1 368.9 120 368.9 119.8 368.8C119.6 368.7 119.5 368.7 119.5 368.5C119.4 368.4 119.3 368.2 119.3 368.1C119.3 368 119.2 367.8 119.2 367.6C119.2 367.4 119.2 367.3 119.3 367.1C119.4 367 119.4 366.8 119.6 366.7C119.7 366.6 119.8 366.5 119.9 366.4C120 366.3 120.2 366.3 120.4 366.3C120.6 366.3 120.8 366.4 120.9 366.4C121 366.5 121.2 366.6 121.2 366.7C121.3 366.8 121.3 367 121.4 367.2C121.4 367.3 121.5 367.5 121.5 367.7H119.8C119.8 367.8 119.8 367.9 119.9 368L120 368.3C120.1 368.4 120.1 368.4 120.3 368.5C120.4 368.6 120.5 368.6 120.6 368.6C120.8 368.6 120.9 368.5 121 368.5C121.1 368.4 121.2 368.3 121.2 368.2H121.6C121.5 368.5 121.4 368.6 121.3 368.8C120.7 368.9 120.5 368.9 120.3 368.9ZM120.9 367.5L120.8 367.2L120.7 367L120.5 366.9L120.2 366.8C120.1 366.8 120 366.8 119.9 366.9L119.7 367L119.6 367.2L119.5 367.5H120.9Z" fill="#010202"/>
<path d="M122.6 368.9C122.4 368.9 122.3 368.9 122.1 368.8C122 368.7 121.8 368.7 121.8 368.5C121.7 368.4 121.6 368.2 121.6 368.1C121.6 368 121.5 367.8 121.5 367.6C121.5 367.4 121.5 367.3 121.6 367.1C121.7 367 121.7 366.8 121.8 366.7C121.9 366.6 122 366.5 122.1 366.4C122.2 366.3 122.4 366.3 122.6 366.3C122.7 366.3 122.9 366.3 123 366.4C123.1 366.4 123.2 366.5 123.3 366.5C123.4 366.6 123.5 366.6 123.5 366.8C123.6 366.9 123.6 367 123.6 367.2H123.2C123.2 367.1 123.1 366.9 123 366.9C122.9 366.8 122.7 366.8 122.6 366.8C122.5 366.8 122.3 366.8 122.3 366.9L122.1 367.1C122.1 367.2 122 367.3 122 367.4C122 367.5 121.9 367.6 121.9 367.7C121.9 367.8 121.9 367.9 122 368C122.1 368.1 122.1 368.2 122.1 368.3L122.3 368.5C122.4 368.6 122.5 368.6 122.6 368.6C122.8 368.6 122.9 368.5 123.1 368.5C123.3 368.5 123.3 368.2 123.3 368H123.7C123.6 368.3 123.6 368.5 123.4 368.6C123.2 368.9 123 368.9 122.6 368.9Z" fill="#010202"/>
<path d="M124.1 366.5H126V368.9H125.7V366.9H124.5V368.9H124.1V366.5Z" fill="#010202"/>
<path d="M126.6 368.9H126.5H126.4V368.6H126.5H126.6C126.7 368.6 126.8 368.5 126.9 368.5C127 368.4 127 368.3 127 368.1C127 367.9 127.1 367.7 127.1 367.5C127.1 367.3 127.1 366.9 127.1 366.6H128.8V368.9H128.3V366.9H127.4C127.4 367.2 127.4 367.4 127.4 367.7C127.4 368 127.3 368.2 127.3 368.3C127.2 368.5 127.2 368.6 127.1 368.7C126.9 368.9 126.8 368.9 126.6 368.9Z" fill="#010202"/>
<path d="M129.8 368.9C129.7 368.9 129.6 368.9 129.5 368.8C129.4 368.7 129.3 368.7 129.2 368.7L129 368.5C128.9 368.4 128.9 368.3 128.9 368.2C128.9 368.1 128.9 367.9 129 367.9L129.2 367.7C129.3 367.6 129.3 367.6 129.5 367.6C129.6 367.6 129.7 367.5 129.8 367.5C129.9 367.5 130 367.4 130.1 367.4L130.4 367.3L130.6 367.2C130.7 367.1 130.7 367.1 130.7 367L130.6 366.8L130.5 366.7L130.3 366.6H130.1C129.9 366.6 129.8 366.6 129.7 366.7C129.6 366.8 129.5 366.9 129.5 367H129.1C129.1 366.9 129.2 366.7 129.2 366.6C129.3 366.5 129.3 366.4 129.4 366.3C129.5 366.2 129.6 366.2 129.7 366.2C129.8 366.2 130 366.1 130.1 366.1C130.2 366.1 130.3 366.1 130.4 366.1C130.5 366.1 130.6 366.2 130.7 366.2L130.9 366.4C131 366.5 131 366.6 131 366.7V367.9V368.1L131.1 368.2H131.2V368.5C131.1 368.6 131.1 368.6 130.9 368.6C130.8 368.6 130.7 368.6 130.6 368.5C130.5 368.4 130.5 368.4 130.5 368.2C130.4 368.3 130.2 368.4 130.1 368.5C130.1 368.7 130 368.9 129.8 368.9ZM129.9 368.5C130 368.5 130.2 368.5 130.2 368.4L130.4 368.3L130.5 368.1L130.6 367.9V367.5L130.4 367.6L130.1 367.7L129.8 367.8L129.5 367.9L129.3 368C129.2 368.1 129.2 368.1 129.2 368.3L129.3 368.5L129.4 368.6L129.5 368.7L129.9 368.5Z" fill="#010202"/>
<path d="M132.2 366.9H131.3V366.5H133.4V366.9H132.5V368.9H132.2V366.9Z" fill="#010202"/>
<path d="M133.7 366.5H134.1V367.5H135.3V366.5H135.7V368.9H135.3V367.8H134.1V368.9H133.7V366.5Z" fill="#010202"/>
<path d="M136.9 368.9C136.8 368.9 136.7 368.9 136.6 368.8C136.5 368.7 136.4 368.7 136.3 368.7L136.1 368.5C136 368.4 136 368.3 136 368.2C136 368.1 136 367.9 136.1 367.9L136.3 367.7C136.4 367.6 136.4 367.6 136.6 367.6C136.7 367.6 136.8 367.5 136.9 367.5C137 367.5 137.1 367.4 137.2 367.4L137.5 367.3L137.7 367.2C137.8 367.1 137.8 367.1 137.8 367L137.7 366.8L137.6 366.7L137.4 366.6H137.2C137 366.6 136.9 366.6 136.8 366.7C136.7 366.8 136.6 366.9 136.6 367H136.2C136.2 366.9 136.3 366.7 136.3 366.6C136.4 366.5 136.4 366.4 136.5 366.3C136.6 366.2 136.7 366.2 136.8 366.2C136.9 366.2 137.1 366.1 137.2 366.1C137.3 366.1 137.4 366.1 137.5 366.1C137.6 366.1 137.7 366.2 137.8 366.2L138 366.4C138.1 366.5 138.1 366.6 138.1 366.7V367.9V368.1L138.2 368.2H138.3V368.5C138.2 368.6 138.2 368.6 138 368.6C137.9 368.6 137.8 368.6 137.7 368.5C137.6 368.4 137.6 368.4 137.6 368.2C137.5 368.3 137.3 368.4 137.2 368.5C137.2 368.7 137 368.9 136.9 368.9ZM137 368.5C137.1 368.5 137.3 368.5 137.3 368.4L137.5 368.3L137.6 368.1L137.7 367.9V367.5L137.5 367.6L137.2 367.7L136.9 367.8L136.6 367.9L136.4 368C136.3 368.1 136.3 368.1 136.3 368.3L136.4 368.5L136.5 368.6L136.6 368.7L137 368.5Z" fill="#010202"/>
<path d="M139.2 368C139 368 138.9 367.9 138.8 367.7C138.7 367.6 138.7 367.4 138.7 367.2C138.7 367 138.8 366.8 138.9 366.7C139 366.6 139.2 366.5 139.4 366.5H140.6V368.8H140.2V368H139.7L139 368.9H138.5L139.2 368ZM140.1 367.6V366.8H139.4C139.2 366.8 139.1 366.9 139 366.9C138.9 367 138.9 367.1 138.9 367.2C138.9 367.3 139 367.4 139 367.5C139.1 367.6 139.2 367.6 139.4 367.6H140.1Z" fill="#010202"/>
<path d="M142.1 368.5H142.4C142.5 368.4 142.5 368.4 142.5 368.2C142.5 368 142.6 367.9 142.6 367.8C142.6 367.7 142.7 367.5 142.7 367.3C142.7 367.1 142.7 367 142.7 366.8V366.3H144.4V368.3H144.7V369.3H144.3V368.6H142.4V369.3H142V368.3H142.1V368.5ZM144 368.5V366.8H143V367C143 367.1 143 367.3 143 367.5C143 367.7 142.9 367.8 142.9 367.9C142.9 368 142.8 368.2 142.8 368.2C142.8 368.3 142.7 368.4 142.7 368.5H144Z" fill="#010202"/>
<path d="M146.1 368.9C145.9 368.9 145.8 368.9 145.6 368.8C145.5 368.7 145.3 368.7 145.2 368.5C145.1 368.4 145 368.2 145 368.1C145 368 144.9 367.8 144.9 367.6C144.9 367.4 144.9 367.3 145 367.1C145.1 367 145.1 366.8 145.2 366.7C145.3 366.6 145.4 366.5 145.6 366.4C145.8 366.3 145.9 366.3 146.1 366.3C146.3 366.3 146.4 366.3 146.6 366.4C146.7 366.5 146.9 366.5 147 366.7C147.1 366.8 147.2 367 147.2 367.1C147.3 367.2 147.3 367.4 147.3 367.6C147.3 367.8 147.3 367.9 147.2 368.1C147.1 368.2 147.1 368.4 147 368.5C146.9 368.6 146.8 368.7 146.6 368.8C146.4 368.9 146.2 368.9 146.1 368.9ZM146.1 368.5C146.2 368.5 146.3 368.5 146.4 368.4C146.5 368.3 146.6 368.3 146.7 368.2C146.8 368.1 146.8 368 146.8 367.9C146.8 367.8 146.9 367.6 146.9 367.5C146.9 367.4 146.9 367.2 146.8 367.1C146.7 367 146.7 366.9 146.7 366.8C146.6 366.7 146.6 366.7 146.4 366.6C146.3 366.5 146.2 366.5 146.1 366.5L145.8 366.6L145.5 366.8L145.4 367.1C145.4 367.2 145.3 367.4 145.3 367.5C145.3 367.6 145.3 367.8 145.4 367.9C145.5 368 145.5 368.1 145.5 368.2C145.6 368.3 145.6 368.3 145.8 368.4L146.1 368.5Z" fill="#010202"/>
<path d="M148.6 368.9C148.4 368.9 148.3 368.9 148.1 368.8C148 368.7 147.8 368.7 147.8 368.5C147.7 368.4 147.6 368.2 147.6 368.1C147.6 368 147.5 367.8 147.5 367.6C147.5 367.4 147.5 367.3 147.6 367.1C147.7 367 147.7 366.8 147.8 366.7C147.9 366.6 148 366.5 148.1 366.4C148.2 366.3 148.4 366.3 148.6 366.3C148.7 366.3 148.9 366.3 149 366.4C149.1 366.4 149.2 366.5 149.3 366.5C149.4 366.6 149.5 366.6 149.5 366.8C149.6 366.9 149.6 367 149.6 367.2H149.2C149.2 367.1 149.1 366.9 149 366.9C148.9 366.8 148.7 366.8 148.6 366.8C148.5 366.8 148.3 366.8 148.3 366.9L148.1 367.1C148.1 367.2 148 367.3 148 367.4C148 367.5 147.9 367.6 147.9 367.7C147.9 367.8 147.9 367.9 148 368C148.1 368.1 148.1 368.2 148.1 368.3L148.3 368.5C148.4 368.6 148.5 368.6 148.6 368.6C148.8 368.6 148.9 368.5 149.1 368.5C149.2 368.4 149.3 368.2 149.3 368H149.7C149.6 368.3 149.6 368.5 149.4 368.6C149.2 368.9 148.9 368.9 148.6 368.9Z" fill="#010202"/>
<path d="M150.7 366.9H149.8V366.5H151.9V366.9H151.1V368.9H150.7V366.9Z" fill="#010202"/>
<path d="M152.9 368.9C152.8 368.9 152.7 368.9 152.6 368.8C152.5 368.7 152.4 368.7 152.3 368.7L152.1 368.5C152 368.4 152 368.3 152 368.2C152 368.1 152 367.9 152.1 367.9L152.3 367.7C152.4 367.6 152.4 367.6 152.6 367.6C152.7 367.6 152.8 367.5 152.9 367.5C153 367.5 153.1 367.4 153.2 367.4L153.5 367.3L153.7 367.2C153.8 367.1 153.8 367.1 153.8 367L153.7 366.8L153.6 366.7L153.4 366.6H153.2C153 366.6 152.9 366.6 152.8 366.7C152.7 366.8 152.6 366.9 152.6 367H152.2C152.2 366.9 152.3 366.7 152.3 366.6C152.4 366.5 152.4 366.4 152.5 366.3C152.6 366.2 152.7 366.2 152.8 366.2C152.9 366.2 153.1 366.1 153.2 366.1C153.3 366.1 153.4 366.1 153.5 366.1C153.6 366.1 153.7 366.2 153.8 366.2L154 366.4C154.1 366.5 154.1 366.6 154.1 366.7V367.9V368.1L154.2 368.2H154.3V368.5C154.2 368.6 154.2 368.6 154 368.6C153.9 368.6 153.8 368.6 153.7 368.5C153.6 368.4 153.6 368.4 153.6 368.2C153.5 368.3 153.3 368.4 153.2 368.5C153.1 368.7 153 368.9 152.9 368.9ZM152.9 368.5C153 368.5 153.2 368.5 153.2 368.4L153.4 368.3L153.5 368.1L153.6 367.9V367.5L153.4 367.6L153.1 367.7L152.8 367.8L152.5 367.9L152.3 368C152.2 368.1 152.2 368.1 152.2 368.3L152.3 368.5L152.4 368.6L152.5 368.7L152.9 368.5Z" fill="#010202"/>
<path d="M154.7 366.5H155.8C155.9 366.5 156 366.5 156.1 366.5C156.2 366.5 156.3 366.6 156.4 366.6L156.6 366.8C156.7 366.9 156.7 367 156.7 367.1C156.7 367.2 156.7 367.4 156.6 367.4C156.5 367.5 156.5 367.5 156.3 367.6C156.4 367.6 156.6 367.7 156.6 367.8C156.7 367.9 156.7 368.1 156.7 368.2C156.7 368.3 156.7 368.4 156.6 368.5L156.5 368.7C156.4 368.8 156.4 368.8 156.2 368.8L155.9 368.9H154.6L154.7 366.5ZM155.7 367.5C155.9 367.5 156 367.5 156 367.4C156.1 367.3 156.1 367.3 156.1 367.1C156.1 366.9 156.1 366.9 156 366.9C155.9 366.8 155.8 366.8 155.7 366.8H155.1V367.4L155.7 367.5ZM155.8 368.5C155.9 368.5 156 368.4 156.1 368.4L156.2 368.1C156.2 368 156.1 367.9 156.1 367.8C156 367.7 155.9 367.7 155.8 367.7H155V368.5H155.8Z" fill="#010202"/>
<path d="M157.1 366.5H157.5V367.6L158.5 366.5H159L158 367.5L159.2 368.9H158.7L157.7 367.8L157.5 368V368.9H157.1V366.5Z" fill="#010202"/>
<path d="M160.1 368.9C160 368.9 159.9 368.9 159.8 368.8C159.7 368.7 159.6 368.7 159.5 368.7L159.3 368.5C159.2 368.4 159.2 368.3 159.2 368.2C159.2 368.1 159.2 367.9 159.3 367.9L159.5 367.7C159.6 367.6 159.6 367.6 159.8 367.6C159.9 367.6 160 367.5 160.1 367.5C160.2 367.5 160.3 367.4 160.4 367.4L160.7 367.3L160.9 367.2C161 367.1 161 367.1 161 367L160.9 366.8L160.8 366.7L160.6 366.6H160.4C160.2 366.6 160.1 366.6 160 366.7C159.9 366.8 159.8 366.9 159.8 367H159.4C159.4 366.9 159.5 366.7 159.5 366.6C159.6 366.5 159.6 366.4 159.7 366.3C159.8 366.2 159.9 366.2 160 366.2C160.1 366.2 160.3 366.1 160.4 366.1C160.5 366.1 160.6 366.1 160.7 366.1C160.8 366.1 160.9 366.2 161 366.2L161.2 366.4C161.3 366.5 161.3 366.6 161.3 366.7V367.9V368.1L161.4 368.2H161.5V368.5C161.4 368.6 161.4 368.6 161.2 368.6C161.1 368.6 161 368.6 160.9 368.5C160.8 368.4 160.8 368.4 160.8 368.2C160.7 368.3 160.5 368.4 160.4 368.5C160.4 368.7 160.3 368.9 160.1 368.9ZM160.2 368.5C160.3 368.5 160.5 368.5 160.5 368.4L160.7 368.3L160.8 368.1L160.9 367.9V367.5L160.7 367.6L160.4 367.7L160.1 367.8L159.8 367.9L159.6 368C159.5 368.1 159.5 368.1 159.5 368.3L159.6 368.5L159.7 368.6L159.8 368.7L160.2 368.5Z" fill="#010202"/>
<path d="M117.3 356.5L117 358.1C117.1 358 117.3 357.8 117.5 357.8C117.7 357.7 117.9 357.7 118.1 357.7C118.4 357.7 118.6 357.8 118.8 357.8C119.1 357.9 119.2 358 119.4 358.1C119.5 358.2 119.7 358.4 119.8 358.7C119.9 359 119.9 359.2 119.9 359.5C119.9 359.8 119.8 360 119.8 360.2C119.7 360.4 119.6 360.6 119.4 360.8C119.3 361 119 361.1 118.8 361.2C118.5 361.3 118.3 361.3 118 361.3C117.7 361.3 117.5 361.2 117.4 361.2C117.3 361.2 117 361 116.8 360.9C116.6 360.8 116.5 360.6 116.4 360.4C116.3 360.2 116.3 360 116.3 359.8H116.9C116.9 359.9 117 360.1 117 360.2C117.1 360.3 117.1 360.5 117.3 360.5C117.4 360.6 117.5 360.6 117.7 360.7C117.8 360.8 118 360.8 118.2 360.8C118.3 360.8 118.5 360.8 118.7 360.7C118.8 360.6 119 360.6 119.1 360.4C119.2 360.3 119.3 360.1 119.4 360C119.5 359.8 119.5 359.7 119.5 359.4C119.5 359.2 119.5 359.1 119.4 358.9C119.3 358.7 119.3 358.6 119.1 358.5C119 358.4 118.8 358.3 118.7 358.2C118.6 358.1 118.4 358.1 118.2 358.1C118 358.1 117.8 358.2 117.6 358.2C117.4 358.3 117.3 358.4 117.1 358.6H116.5L117 355.8H119.7V356.4L117.3 356.5Z" fill="#010202"/>
<path d="M121.7 360.4V361.2C121.7 361.5 121.6 361.7 121.5 362C121.4 362.2 121.2 362.4 120.9 362.5V362L121.1 361.9L121.2 361.7L121.3 361.5V361.3H120.8V360.5L121.7 360.4Z" fill="#010202"/>
<path d="M123.7 356.5L123.4 358.1C123.5 358 123.7 357.8 123.9 357.8C124.1 357.7 124.3 357.7 124.5 357.7C124.8 357.7 125 357.8 125.2 357.8C125.5 357.9 125.6 358 125.8 358.1C125.9 358.2 126.1 358.4 126.2 358.7C126.3 359 126.3 359.2 126.3 359.5C126.3 359.8 126.2 360 126.2 360.2C126.1 360.4 126 360.6 125.8 360.8C125.7 361 125.4 361.1 125.2 361.2C124.9 361.3 124.7 361.3 124.4 361.3C124.1 361.3 123.9 361.2 123.8 361.2C123.7 361.2 123.4 361 123.2 360.9C123 360.8 122.9 360.6 122.8 360.4C122.7 360.2 122.7 360 122.7 359.8H123.3C123.3 359.9 123.4 360.1 123.4 360.2C123.5 360.3 123.5 360.5 123.7 360.5C123.8 360.6 123.9 360.6 124.1 360.7C124.2 360.8 124.4 360.8 124.6 360.8C124.7 360.8 124.9 360.8 125.1 360.7C125.2 360.6 125.4 360.6 125.5 360.4C125.6 360.3 125.7 360.1 125.8 360C125.9 359.8 125.9 359.7 125.9 359.4C125.9 359.2 125.9 359.1 125.8 358.9C125.7 358.7 125.7 358.6 125.5 358.5C125.4 358.4 125.2 358.3 125.1 358.2C125 358.1 124.8 358.1 124.6 358.1C124.4 358.1 124.2 358.2 124 358.2C123.8 358.3 123.7 358.4 123.5 358.6H122.9L123.4 355.8H126.1V356.4L123.7 356.5Z" fill="#010202"/>
<path d="M126.9 358C126.9 357.8 127 357.5 127 357.4C127.1 357.2 127.1 357 127.2 356.8C127.3 356.6 127.4 356.5 127.5 356.3C127.6 356.2 127.8 356 128 356C128.2 355.9 128.5 355.9 128.7 355.9C129 355.9 129.2 356 129.4 356C129.6 356.1 129.8 356.2 129.9 356.3C130 356.4 130.2 356.6 130.2 356.8C130.3 357 130.3 357.2 130.4 357.4C130.5 357.6 130.5 357.8 130.5 358C130.5 358.2 130.5 358.5 130.5 358.6C130.5 358.8 130.5 359 130.5 359.2C130.5 359.4 130.4 359.7 130.4 359.8C130.3 360 130.3 360.2 130.2 360.4C130.1 360.6 130 360.7 129.9 360.9C129.8 361 129.6 361.2 129.4 361.2C129.2 361.3 128.9 361.3 128.7 361.3C128.4 361.3 128.2 361.2 128 361.2C127.8 361.1 127.6 361 127.5 360.9C127.4 360.8 127.2 360.6 127.2 360.4C127.1 360.2 127.1 360 127 359.8C126.9 359.6 126.9 359.4 126.9 359.2C126.9 359 126.9 358.7 126.9 358.6C126.9 358.4 126.9 358.2 126.9 358ZM127.7 359.3C127.7 359.6 127.8 359.8 127.8 360C127.9 360.2 128 360.4 128.1 360.6C128.2 360.7 128.5 360.9 128.7 360.9C129 360.9 129.2 360.8 129.3 360.6C129.4 360.4 129.6 360.3 129.6 360C129.7 359.8 129.7 359.5 129.7 359.3C129.7 359.1 129.7 358.8 129.7 358.6C129.7 358.5 129.7 358.3 129.7 358.1C129.7 357.9 129.7 357.8 129.6 357.6C129.6 357.4 129.5 357.3 129.5 357.1C129.5 356.9 129.4 356.8 129.3 356.7C129.2 356.6 129.1 356.5 129 356.4C128.9 356.3 128.7 356.3 128.5 356.3C128.3 356.3 128.2 356.4 128 356.4C127.9 356.5 127.7 356.6 127.7 356.7C127.6 356.8 127.6 357 127.5 357.1C127.4 357.2 127.4 357.4 127.4 357.6C127.4 357.8 127.3 357.9 127.3 358.1C127.3 358.3 127.3 358.4 127.3 358.6C127.7 358.8 127.7 359 127.7 359.3Z" fill="#010202"/>
<path d="M132.1 360.4C132.3 360.6 132.6 360.7 132.9 360.8V358.7C132.6 358.6 132.4 358.6 132.2 358.5C132 358.4 131.8 358.3 131.7 358.2C131.6 358.1 131.4 357.9 131.4 357.8C131.3 357.7 131.3 357.5 131.3 357.2C131.3 356.9 131.4 356.7 131.4 356.6C131.5 356.4 131.6 356.2 131.7 356.1C131.8 356 132 355.8 132.2 355.8C132.4 355.7 132.6 355.7 132.8 355.7V355.2H133.3V355.7C133.7 355.8 134.1 355.9 134.3 356.2C134.6 356.5 134.8 356.8 134.8 357.3H134.2C134.1 356.8 133.8 356.5 133.4 356.4V358.3L133.9 358.4C134 358.4 134.1 358.5 134.3 358.5C134.4 358.6 134.6 358.6 134.7 358.8C134.8 358.9 135 359.1 135 359.3C135 359.5 135.1 359.7 135.1 359.9C135.1 360.2 135 360.4 135 360.5C134.9 360.7 134.8 360.9 134.7 361C134.6 361.1 134.4 361.3 134.2 361.3C134 361.4 133.7 361.4 133.5 361.4V362H133V361.4C132.5 361.3 132.1 361.1 131.8 360.9C131.5 360.6 131.3 360.2 131.3 359.6H131.9C131.8 360 131.9 360.2 132.1 360.4ZM132.2 356.5C132 356.6 131.9 356.9 131.9 357.1C131.9 357.2 131.9 357.4 132 357.4L132.2 357.7L132.5 357.9C132.6 358 132.8 358 132.9 358V356.2C132.6 356.3 132.4 356.4 132.2 356.5ZM133.7 360.8C133.8 360.7 134 360.7 134 360.6C134.1 360.5 134.1 360.4 134.2 360.3C134.3 360.2 134.3 360 134.3 359.8C134.3 359.7 134.3 359.5 134.2 359.4C134.1 359.3 134.1 359.2 134 359.1C133.9 359 133.8 359 133.7 358.9C133.6 358.8 133.4 358.8 133.3 358.8V360.7C133.4 360.8 133.6 360.8 133.7 360.8Z" fill="#010202"/>
<path d="M119.4 441H116.3V436.9H116.8V440.5H118.9V436.9H119.4V440.5H119.9V442H119.4V441Z" fill="#010202"/>
<path d="M120.4 438H121.8C121.9 438 122.1 438 122.2 438C122.3 438 122.5 438.1 122.5 438.1L122.8 438.3C122.9 438.4 122.9 438.5 122.9 438.7C122.9 438.9 122.8 439 122.8 439.1C122.7 439.2 122.6 439.3 122.5 439.4C122.7 439.5 122.8 439.5 122.9 439.7C123 439.8 123 440 123 440.2C123 440.3 123 440.5 122.9 440.5C122.8 440.6 122.8 440.7 122.7 440.8C122.6 440.9 122.5 440.9 122.4 441C122.3 441.1 122.1 441.1 122 441.1H120.4V438.1V438ZM121.7 439.2C121.9 439.2 122.1 439.1 122.2 439.1C122.3 439 122.3 438.9 122.3 438.8C122.3 438.7 122.2 438.6 122.2 438.5C122.1 438.4 121.9 438.4 121.7 438.4H120.9V439.2H121.7ZM121.9 440.6C122.1 440.6 122.2 440.5 122.3 440.5C122.4 440.4 122.4 440.3 122.4 440.1C122.4 440 122.3 439.8 122.3 439.8C122.3 439.8 122 439.7 121.8 439.7H120.8V440.7H121.9V440.6Z" fill="#010202"/>
<path d="M124.8 441C124.5 441 124.3 440.9 124.2 440.9C124 440.8 123.9 440.7 123.7 440.6C123.6 440.5 123.5 440.3 123.4 440.1C123.3 439.9 123.3 439.7 123.3 439.5C123.3 439.3 123.4 439 123.4 438.9C123.5 438.7 123.6 438.5 123.7 438.4C123.8 438.3 124 438.1 124.2 438.1C124.4 438 124.6 438 124.8 438C125.1 438 125.3 438.1 125.4 438.2C125.6 438.3 125.7 438.5 125.9 438.7C126 438.9 126.1 439.1 126.1 439.3C126.2 439.5 126.2 439.7 126.2 439.9H123.9C123.9 440 123.9 440.2 124 440.3C124.1 440.4 124.1 440.5 124.2 440.6C124.3 440.7 124.4 440.8 124.5 440.8C124.6 440.9 124.8 440.9 125 440.9C125.2 440.9 125.4 440.8 125.5 440.8C125.6 440.7 125.7 440.5 125.8 440.4H126.3C126.2 440.7 126.1 441 125.8 441.2C125.5 441 125.1 441 124.8 441ZM125.5 439.2C125.5 439.1 125.4 438.9 125.4 438.9C125.3 438.8 125.3 438.7 125.2 438.6L124.9 438.4C124.8 438.3 124.7 438.3 124.6 438.3C124.5 438.3 124.3 438.3 124.3 438.4C124.2 438.5 124.1 438.5 124 438.6L123.8 438.9C123.7 439 123.7 439.1 123.7 439.2H125.5Z" fill="#010202"/>
<path d="M127.3 438.4H126.2V438H128.9V438.4H127.8V441H127.3V438.4Z" fill="#010202"/>
<path d="M117 468.4H115.8V468H118.5V468.4H117.4V471.3H117V468.4Z" fill="#010202"/>
<path d="M119.9 471.4C119.7 471.4 119.5 471.4 119.4 471.3C119.3 471.2 119.1 471.2 119 471C118.9 470.9 118.8 470.7 118.8 470.6C118.8 470.5 118.7 470.3 118.7 470.1C118.7 469.9 118.7 469.7 118.8 469.6C118.9 469.5 118.9 469.3 119.1 469.2C119.2 469.1 119.3 469 119.5 468.9C119.7 468.8 119.8 468.8 120 468.8C120.2 468.8 120.4 468.9 120.5 468.9C120.6 469 120.8 469.1 120.8 469.2C120.8 469.3 120.9 469.5 121 469.7C121.1 469.9 121.1 470 121.1 470.2H119.2C119.2 470.3 119.2 470.4 119.3 470.5C119.3 470.6 119.4 470.7 119.4 470.8C119.5 470.9 119.5 470.9 119.7 471C119.8 471.1 119.9 471.1 120 471.1C120.2 471.1 120.3 471 120.5 471C120.7 471 120.7 470.8 120.7 470.6H121.1C121 470.9 120.9 471.1 120.7 471.2C120.5 471.3 120.2 471.4 119.9 471.4ZM120.6 469.9L120.5 469.6L120.4 469.4L120.2 469.3L119.9 469.2C119.8 469.2 119.7 469.2 119.6 469.3L119.4 469.4L119.3 469.6L119.2 469.9H120.6Z" fill="#010202"/>
<path d="M122.1 470.1L121.2 468.9H121.7L122.3 469.8L123 468.9H123.4L122.6 470.1L123.5 471.3H123L122.3 470.4L121.7 471.3H121.2L122.1 470.1Z" fill="#010202"/>
<path d="M123.9 468.9H124.3V469.9H125.5V468.9H125.9V471.3H125.5V470.3H124.3V471.3H123.9V468.9Z" fill="#010202"/>
<path d="M126.6 468.9H126.9V470.9L128.1 468.9H128.6V471.3H128.2V469.4L127.1 471.3H126.6V468.9Z" fill="#010202"/>
<path d="M130.7 470.4C130.6 470.4 130.5 470.5 130.4 470.5C130.3 470.5 130.1 470.6 130 470.6C129.7 470.6 129.5 470.5 129.4 470.4C129.3 470.3 129.2 470.1 129.2 469.8V469H129.6V469.8C129.6 470 129.7 470.1 129.7 470.2C129.8 470.3 129.9 470.3 130.1 470.3C130.2 470.3 130.4 470.3 130.5 470.2C130.6 470.2 130.7 470.1 130.8 470.1V468.9H131.2V471.3H130.8V470.4H130.7Z" fill="#010202"/>
<path d="M132.8 471.4C132.6 471.4 132.4 471.4 132.3 471.3C132.2 471.2 132 471.2 131.9 471C131.8 470.9 131.7 470.7 131.7 470.6C131.7 470.5 131.6 470.3 131.6 470.1C131.6 469.9 131.6 469.7 131.7 469.6C131.8 469.5 131.8 469.3 132 469.2C132.1 469.1 132.2 469 132.4 468.9C132.6 468.8 132.7 468.8 132.9 468.8C133.1 468.8 133.3 468.9 133.4 468.9C133.5 469 133.7 469.1 133.7 469.2C133.7 469.3 133.8 469.5 133.9 469.7C134 469.9 134 470 134 470.2H132C132 470.3 132 470.4 132.1 470.5C132.1 470.6 132.2 470.7 132.2 470.8C132.3 470.9 132.3 470.9 132.5 471C132.6 471.1 132.7 471.1 132.8 471.1C133 471.1 133.1 471 133.3 471C133.5 471 133.5 470.8 133.5 470.6H133.9C133.8 470.9 133.7 471.1 133.5 471.2C133.3 471.3 133.1 471.4 132.8 471.4ZM133.4 469.9L133.3 469.6L133.2 469.4L133 469.3L132.7 469.2C132.6 469.2 132.5 469.2 132.4 469.3L132.2 469.4L132.1 469.6L132 469.9H133.4Z" fill="#010202"/>
<path d="M135.3 471.4C135.1 471.4 135 471.4 134.8 471.3C134.7 471.2 134.5 471.2 134.4 471C134.3 470.9 134.2 470.7 134.2 470.6C134.1 470.5 134.1 470.3 134.1 470.1C134.1 469.9 134.1 469.7 134.2 469.6C134.3 469.5 134.3 469.3 134.4 469.2C134.5 469.1 134.6 469 134.8 468.9C135 468.8 135.1 468.8 135.3 468.8C135.4 468.8 135.6 468.8 135.7 468.9C135.8 469 136 469 136 469C136.1 469.1 136.2 469.1 136.3 469.3C136.4 469.5 136.4 469.6 136.4 469.7H136C136 469.6 135.9 469.4 135.8 469.3C135.7 469.2 135.5 469.2 135.4 469.2C135.3 469.2 135.1 469.2 135 469.3C134.9 469.4 134.8 469.4 134.7 469.5C134.6 469.6 134.6 469.7 134.6 469.8C134.6 469.9 134.5 470.1 134.5 470.2C134.5 470.3 134.5 470.4 134.6 470.5C134.7 470.6 134.7 470.7 134.7 470.8L134.9 471C135 471.1 135.1 471.1 135.2 471.1C135.4 471.1 135.6 471 135.7 471C135.8 470.9 135.9 470.7 135.9 470.5H136.3C136.2 470.8 136.2 471 136 471.2C135.8 471.3 135.6 471.4 135.3 471.4Z" fill="#010202"/>
<path d="M136.9 468.9H137.2V470.1L138.4 468.9H138.9L137.8 470L139 471.3H138.5L137.5 470.2L137.2 470.4V471.3H136.9V468.9Z" fill="#010202"/>
<path d="M139.4 468.9H139.8V470.9L140.9 468.9H141.4V471.3H141V469.4L139.9 471.3H139.4V468.9Z" fill="#010202"/>
<path d="M143.1 471.4C142.9 471.4 142.7 471.4 142.6 471.3C142.5 471.2 142.3 471.2 142.2 471C142.1 470.9 142 470.7 142 470.6C142 470.5 141.9 470.3 141.9 470.1C141.9 469.9 141.9 469.7 142 469.6C142.1 469.5 142.1 469.3 142.3 469.2C142.4 469.1 142.5 469 142.7 468.9C142.9 468.8 143 468.8 143.2 468.8C143.4 468.8 143.6 468.9 143.7 468.9C143.8 469 144 469.1 144 469.2C144 469.3 144.1 469.5 144.2 469.7C144.3 469.9 144.3 470 144.3 470.2H142.4C142.4 470.3 142.4 470.4 142.5 470.5C142.5 470.6 142.6 470.7 142.6 470.8C142.7 470.9 142.7 470.9 142.9 471C143 471.1 143.1 471.1 143.2 471.1C143.4 471.1 143.5 471 143.7 471C143.9 471 143.9 470.8 143.9 470.6H144.3C144.2 470.9 144.1 471.1 143.9 471.2C143.6 471.3 143.4 471.4 143.1 471.4ZM143.7 469.9L143.6 469.6L143.5 469.4L143.3 469.3L143 469.2C142.9 469.2 142.8 469.2 142.7 469.3L142.5 469.4L142.4 469.6L142.3 469.9H143.7Z" fill="#010202"/>
<path d="M146.8 469.6L145.7 468H146.2L147.1 469.3L148 468H148.4L147.3 469.6L148.5 471.3H148L147.1 470L146.1 471.3H145.6L146.8 469.6Z" fill="#010202"/>
<path d="M149.5 471.4C149.4 471.4 149.3 471.4 149.2 471.3C149.1 471.3 149 471.2 148.9 471.2L148.7 471C148.6 470.9 148.6 470.8 148.6 470.7C148.6 470.6 148.6 470.4 148.7 470.4L148.9 470.2L149.2 470.1C149.3 470.1 149.4 470 149.5 470C149.6 470 149.7 469.9 149.8 469.9C149.9 469.9 150 469.9 150.1 469.8L150.3 469.7L150.4 469.5L150.3 469.3L150.2 469.2L150 469.1H149.8C149.6 469.1 149.5 469.2 149.3 469.2C149.2 469.3 149.1 469.4 149.1 469.6H148.7C148.7 469.5 148.8 469.3 148.8 469.2C148.8 469.1 148.9 469 149.1 468.9C149.2 468.8 149.3 468.8 149.4 468.8C149.5 468.8 149.7 468.7 149.8 468.7C149.9 468.7 150 468.7 150.1 468.7C150.2 468.7 150.3 468.8 150.4 468.8L150.6 469C150.7 469.1 150.7 469.2 150.7 469.3V470.6V470.8L150.8 470.9H150.9V471.2C150.8 471.3 150.7 471.3 150.6 471.3C150.5 471.3 150.4 471.3 150.3 471.2C150.2 471.1 150.2 471.1 150.2 470.9C150.1 471 149.9 471.2 149.8 471.2C149.8 471.4 149.7 471.4 149.5 471.4ZM149.6 471.1C149.7 471.1 149.9 471.1 149.9 471L150.2 470.9L150.3 470.7L150.4 470.5V470.1L150.2 470.2L149.9 470.3L149.6 470.4L149.3 470.5L149.1 470.6C149 470.7 149 470.7 149 470.9L149.1 471.1L149.2 471.2L149.3 471.3L149.6 471.1Z" fill="#010202"/>
<path d="M151.4 468.9H151.8V469.2C151.9 469.1 152 468.9 152.1 468.9C152.2 468.8 152.4 468.8 152.6 468.8C152.8 468.8 153 468.9 153.1 468.9C153.2 469 153.4 469.1 153.4 469.2C153.5 469.3 153.6 469.5 153.6 469.6C153.7 469.7 153.7 469.9 153.7 470.1C153.7 470.3 153.7 470.4 153.6 470.6C153.5 470.8 153.5 470.9 153.4 471C153.3 471.1 153.2 471.2 153.1 471.3C153 471.4 152.8 471.4 152.6 471.4H152.4L152.2 471.3L152 471.2L151.8 471V472.3H151.4V468.9ZM152.6 471.1C152.7 471.1 152.9 471.1 152.9 471L153.2 470.8C153.3 470.7 153.3 470.6 153.3 470.5C153.3 470.4 153.4 470.2 153.4 470.2C153.4 470.1 153.4 469.9 153.3 469.9C153.2 469.8 153.2 469.7 153.2 469.6C153.1 469.5 153.1 469.5 152.9 469.4C152.7 469.3 152.7 469.3 152.6 469.3C152.5 469.3 152.3 469.3 152.3 469.4L152 469.6C151.9 469.7 151.9 469.8 151.9 469.9C151.9 470 151.8 470.1 151.8 470.2C151.8 470.3 151.8 470.5 151.9 470.5C151.9 470.6 152 470.7 152 470.8C152.1 470.9 152.1 470.9 152.3 471C152.3 471 152.4 471.1 152.6 471.1Z" fill="#010202"/>
<path d="M154.9 471.4C154.8 471.4 154.7 471.4 154.6 471.3C154.5 471.3 154.4 471.2 154.3 471.2L154.1 471C154 470.9 154 470.8 154 470.7C154 470.6 154 470.4 154.1 470.4L154.3 470.2L154.6 470.1C154.7 470.1 154.8 470 154.9 470C155 470 155.1 469.9 155.2 469.9C155.3 469.9 155.4 469.9 155.5 469.8L155.7 469.7L155.8 469.5L155.7 469.3L155.6 469.2L155.4 469.1H155.2C155 469.1 154.9 469.2 154.7 469.2C154.6 469.3 154.5 469.4 154.5 469.6H154.1C154.1 469.5 154.2 469.3 154.2 469.2C154.2 469.1 154.3 469 154.5 468.9C154.6 468.8 154.7 468.8 154.8 468.8C154.9 468.8 155.1 468.7 155.2 468.7C155.3 468.7 155.4 468.7 155.5 468.7C155.6 468.7 155.7 468.8 155.8 468.8L156 469C156.1 469.1 156.1 469.2 156.1 469.3V470.6V470.8L156.2 470.9H156.3V471.2C156.2 471.3 156.1 471.3 156 471.3C155.9 471.3 155.8 471.3 155.7 471.2C155.6 471.1 155.6 471.1 155.6 470.9C155.5 471 155.3 471.2 155.2 471.2C155.2 471.4 155.1 471.4 154.9 471.4ZM155 471.1C155.1 471.1 155.3 471.1 155.3 471L155.6 470.9L155.7 470.7L155.8 470.5V470.1L155.6 470.2L155.3 470.3L155 470.4L154.7 470.5L154.5 470.6C154.4 470.7 154.4 470.7 154.4 470.9L154.5 471.1L154.6 471.2L154.7 471.3L155 471.1Z" fill="#010202"/>
<path d="M156.7 468.9H157.2V470.1L158.3 468.9H158.9L157.8 470L159 471.3H158.5L157.4 470.2L157.2 470.4V471.3H156.7V468.9Z" fill="#010202"/>
<path d="M159.9 469.3H159V468.9H161.2V469.3H160.3V471.3H159.9V469.3Z" fill="#010202"/>
<path d="M162.5 471.4C162.3 471.4 162.1 471.4 162 471.3C161.9 471.2 161.7 471.2 161.6 471C161.5 470.9 161.4 470.7 161.4 470.6C161.4 470.5 161.3 470.3 161.3 470.1C161.3 469.9 161.3 469.7 161.4 469.6C161.5 469.5 161.5 469.3 161.7 469.2C161.8 469.1 161.9 469 162.1 468.9C162.3 468.8 162.4 468.8 162.6 468.8C162.8 468.8 163 468.9 163.1 468.9C163.2 469 163.4 469.1 163.4 469.2C163.5 469.3 163.5 469.5 163.6 469.7C163.7 469.9 163.7 470 163.7 470.2H161.8C161.8 470.3 161.8 470.4 161.9 470.5C161.9 470.6 162 470.7 162 470.8C162.1 470.9 162.1 470.9 162.3 471C162.4 471.1 162.5 471.1 162.6 471.1C162.8 471.1 162.9 471 163.1 471C163.2 470.9 163.3 470.8 163.3 470.6H163.7C163.6 470.9 163.5 471.1 163.3 471.2C163 471.3 162.8 471.4 162.5 471.4ZM163.2 469.9L163.1 469.6L163 469.4L162.8 469.3L162.5 469.2C162.4 469.2 162.3 469.2 162.2 469.3L162 469.4L161.9 469.6L161.8 469.9H163.2Z" fill="#010202"/>
<path d="M164.1 468.9H164.5V469.2C164.6 469.1 164.7 468.9 164.8 468.9C164.9 468.8 165.1 468.8 165.3 468.8C165.5 468.8 165.7 468.9 165.8 468.9C165.9 469 166.1 469.1 166.1 469.2C166.2 469.3 166.3 469.5 166.3 469.6C166.4 469.7 166.4 469.9 166.4 470.1C166.4 470.3 166.4 470.4 166.3 470.6C166.2 470.8 166.2 470.9 166.1 471C166 471.1 165.9 471.2 165.8 471.3C165.7 471.4 165.5 471.4 165.3 471.4H165L164.8 471.3L164.6 471.2L164.4 471V472.3H164V468.9H164.1ZM165.2 471.1C165.3 471.1 165.5 471.1 165.5 471L165.8 470.8C165.9 470.7 165.9 470.6 165.9 470.5C165.9 470.4 166 470.2 166 470.2C166 470.1 166 469.9 165.9 469.9C165.8 469.8 165.8 469.7 165.8 469.6C165.7 469.5 165.7 469.5 165.5 469.4C165.4 469.3 165.3 469.3 165.2 469.3C165.1 469.3 164.9 469.3 164.9 469.4L164.6 469.6C164.5 469.7 164.5 469.8 164.5 469.9C164.5 470 164.4 470.1 164.4 470.2C164.4 470.3 164.4 470.5 164.5 470.5C164.5 470.6 164.6 470.7 164.6 470.8C164.7 470.9 164.7 470.9 164.9 471C165 471 165.1 471.1 165.2 471.1Z" fill="#010202"/>
<path d="M166.8 468.9H167.3V470.9L168.4 468.9H169V471.3H168.5V469.4L167.3 471.3H166.8V468.9Z" fill="#010202"/>
<path d="M170.6 471.4C170.4 471.4 170.3 471.4 170.1 471.3C170 471.2 169.8 471.2 169.7 471C169.6 470.9 169.5 470.7 169.5 470.6C169.4 470.5 169.4 470.3 169.4 470.1C169.4 469.9 169.4 469.7 169.5 469.6C169.6 469.5 169.6 469.3 169.7 469.2C169.8 469.1 169.9 469 170.1 468.9C170.3 468.8 170.4 468.8 170.6 468.8C170.7 468.8 170.9 468.8 171 468.9C171.1 469 171.3 469 171.3 469C171.4 469.1 171.5 469.1 171.6 469.3C171.7 469.4 171.7 469.6 171.7 469.7H171.2C171.2 469.6 171.1 469.4 171 469.3C170.9 469.2 170.7 469.2 170.6 469.2C170.5 469.2 170.3 469.2 170.2 469.3C170.1 469.4 170 469.4 169.9 469.5C169.8 469.6 169.8 469.7 169.8 469.8C169.8 469.9 169.7 470.1 169.7 470.2C169.7 470.3 169.7 470.4 169.8 470.5C169.9 470.6 169.9 470.7 169.9 470.8L170.1 471C170.2 471.1 170.3 471.1 170.4 471.1C170.6 471.1 170.8 471 170.9 471C171 470.9 171.1 470.7 171.1 470.5H171.5C171.4 470.8 171.4 471 171.2 471.2C171 471.3 170.9 471.4 170.6 471.4Z" fill="#010202"/>
<path d="M172.7 469.3H171.8V468.9H174V469.3H173.1V471.3H172.7V469.3Z" fill="#010202"/>
<path d="M174.3 468.9H174.7V470.9L175.8 468.9H176.4V471.3H176V469.4L174.8 471.3H174.3V468.9Z" fill="#010202"/>
<path d="M177 468.9H177.4V470.1L178.5 468.9H179.1L178 470L179.2 471.3H178.7L177.6 470.2L177.4 470.4V471.3H177V468.9Z" fill="#010202"/>
<path d="M179.5 468.9H179.9V470.9L181 468.9H181.6V471.3H181.2V469.4L180 471.3H179.5V468.9Z" fill="#010202"/>
<path d="M116.3 475.4H119.5V479.5H119V475.8H116.8V479.5H116.3V475.4Z" fill="#010202"/>
<path d="M120.3 476.5H120.8V476.9C120.9 476.7 121 476.6 121.2 476.5C121.4 476.4 121.6 476.4 121.8 476.4C122.1 476.4 122.3 476.5 122.4 476.5C122.5 476.5 122.7 476.7 122.9 476.8C123 476.9 123.1 477.1 123.2 477.3C123.3 477.5 123.3 477.7 123.3 477.9C123.3 478.1 123.3 478.3 123.2 478.5C123.1 478.7 123.1 478.8 122.9 479C122.8 479.1 122.6 479.3 122.4 479.3C122.2 479.4 122 479.4 121.8 479.4C121.7 479.4 121.7 479.4 121.5 479.4L121.2 479.3L120.9 479.2L120.7 479V480.5H120.2V476.5H120.3ZM121.7 479.1C121.9 479.1 122 479 122.2 479C122.3 478.9 122.4 478.9 122.5 478.7C122.6 478.6 122.6 478.4 122.6 478.3C122.6 478.2 122.7 478 122.7 477.8C122.7 477.7 122.7 477.5 122.6 477.4C122.5 477.3 122.5 477.1 122.4 477C122.3 476.9 122.2 476.8 122.1 476.7C122 476.6 121.8 476.6 121.7 476.6C121.5 476.6 121.4 476.7 121.2 476.7C121.1 476.8 121 476.8 120.9 477C120.8 477.1 120.8 477.3 120.8 477.4C120.7 477.5 120.7 477.7 120.7 477.8C120.7 477.9 120.7 478.1 120.8 478.2C120.9 478.4 120.9 478.5 121 478.6C121.1 478.7 121.2 478.8 121.3 478.9C121.4 479.1 121.6 479.1 121.7 479.1Z" fill="#010202"/>
<path d="M125 479.6C124.7 479.6 124.5 479.5 124.4 479.5C124.2 479.4 124.1 479.3 123.9 479.2C123.8 479.1 123.7 478.9 123.6 478.7C123.5 478.5 123.5 478.3 123.5 478.1C123.5 477.8 123.5 477.6 123.6 477.5C123.7 477.4 123.7 477.1 123.9 477C124 476.9 124.2 476.7 124.4 476.7C124.6 476.6 124.8 476.6 125 476.6C125.3 476.6 125.5 476.7 125.6 476.7C125.7 476.7 125.9 476.9 126.1 477C126.2 477.1 126.3 477.3 126.4 477.5C126.5 477.7 126.5 477.9 126.5 478.1C126.5 478.4 126.5 478.5 126.4 478.7C126.3 478.9 126.3 479.1 126.1 479.2C126 479.3 125.8 479.5 125.6 479.5C125.5 479.5 125.3 479.6 125 479.6ZM125 479.1C125.1 479.1 125.3 479.1 125.4 479C125.5 478.9 125.6 478.9 125.7 478.8C125.8 478.7 125.8 478.6 125.9 478.5C126 478.4 126 478.2 126 478C126 477.8 126 477.7 125.9 477.5C125.8 477.4 125.8 477.2 125.7 477.1C125.6 477 125.5 476.9 125.4 476.9C125.3 476.8 125.1 476.8 125 476.8C124.9 476.8 124.7 476.8 124.6 476.9C124.5 477 124.4 477 124.3 477.1C124.2 477.2 124.2 477.3 124.1 477.5C124 477.6 124 477.8 124 478C124 478.2 124 478.3 124.1 478.5C124.2 478.6 124.2 478.8 124.3 478.8C124.4 478.9 124.5 479 124.6 479C124.8 479.1 124.9 479.1 125 479.1Z" fill="#010202"/>
<path d="M126.7 479.1H127C127.1 479 127.1 478.9 127.1 478.8C127.2 478.7 127.2 478.5 127.2 478.3C127.3 478.2 127.3 478 127.3 477.8C127.3 477.6 127.4 477.4 127.4 477.2V476.6H129.6V479.2H130V480.6H129.5V479.7H127.1V480.6H126.6V479.1H126.7ZM129.1 479.1V477H127.9V477.3C127.9 477.5 127.9 477.7 127.9 477.9C127.9 478.1 127.8 478.3 127.8 478.4C127.8 478.5 127.7 478.7 127.7 478.9C127.6 479 127.6 479.2 127.6 479.2H129.1V479.1Z" fill="#010202"/>
<path d="M131.3 479.6C131.2 479.6 131 479.6 130.9 479.5C130.8 479.5 130.7 479.4 130.6 479.4C130.5 479.3 130.4 479.3 130.4 479.1C130.4 479 130.3 478.8 130.3 478.7C130.3 478.5 130.3 478.4 130.4 478.3C130.5 478.2 130.5 478.1 130.7 478C130.8 477.9 130.9 477.9 131 477.9C131.1 477.8 131.3 477.8 131.4 477.8C131.5 477.8 131.7 477.7 131.8 477.7C131.9 477.7 132.1 477.6 132.1 477.6L132.3 477.5L132.4 477.3C132.4 477.2 132.4 477.1 132.3 477L132.2 476.9L132 477C131.9 477 131.9 477 131.7 477C131.5 477 131.3 477.1 131.2 477.1C131.1 477.2 131 477.4 130.9 477.6H130.4C130.4 477.4 130.5 477.3 130.5 477.1C130.6 477 130.7 476.8 130.8 476.8C130.9 476.7 131.1 476.7 131.2 476.6C131.3 476.5 131.5 476.5 131.7 476.5C131.8 476.5 132 476.5 132.1 476.5C132.2 476.5 132.4 476.6 132.5 476.6C132.6 476.6 132.7 476.7 132.8 476.9C132.9 477 132.9 477.2 132.9 477.4V478.9C132.9 479 132.9 479.1 132.9 479.2L133 479.3H133.1V479.7C133 479.8 132.9 479.8 132.8 479.8C132.7 479.8 132.5 479.7 132.5 479.7C132.4 479.6 132.4 479.5 132.4 479.4C132.3 479.6 132.1 479.7 131.9 479.7C131.7 479.5 131.5 479.6 131.3 479.6ZM131.4 479.1C131.6 479.1 131.7 479.1 131.8 479C131.9 478.9 132 478.9 132.1 478.8L132.3 478.6L132.4 478.4V478C132.3 478.1 132.3 478.1 132.1 478.1C132 478.1 131.9 478.2 131.8 478.2C131.7 478.2 131.6 478.2 131.5 478.3C131.4 478.3 131.3 478.4 131.2 478.4C131.1 478.5 131.1 478.5 131 478.6C130.9 478.7 130.9 478.8 130.9 478.9L131 479.1L131.1 479.2L131.3 479.3L131.4 479.1Z" fill="#010202"/>
<path d="M134.9 479.6C134.6 479.6 134.4 479.5 134.3 479.5C134.1 479.4 134 479.3 133.8 479.2C133.7 479.1 133.6 478.9 133.5 478.7C133.4 478.5 133.4 478.3 133.4 478.1C133.4 477.9 133.5 477.6 133.5 477.5C133.5 477.4 133.7 477.1 133.8 477C133.9 476.9 134.1 476.7 134.3 476.7C134.5 476.6 134.7 476.6 134.9 476.6C135.2 476.6 135.4 476.7 135.5 476.8C135.7 476.9 135.8 477.1 136 477.3C136.1 477.5 136.2 477.7 136.2 477.9C136.3 478.1 136.3 478.3 136.3 478.5H134C134 478.6 134 478.8 134.1 478.9C134.2 479 134.2 479.1 134.3 479.2C134.4 479.3 134.5 479.4 134.6 479.4C134.7 479.5 134.9 479.5 135.1 479.5C135.3 479.5 135.5 479.4 135.6 479.4C135.7 479.3 135.8 479.1 135.9 478.9H136.4C136.3 479.2 136.2 479.5 135.9 479.7C135.6 479.5 135.2 479.6 134.9 479.6ZM135.6 477.7C135.6 477.6 135.5 477.4 135.5 477.4C135.4 477.3 135.4 477.2 135.3 477.1L135 476.9C134.9 476.8 134.8 476.8 134.7 476.8C134.6 476.8 134.4 476.8 134.4 476.9C134.3 477 134.2 477 134.1 477.1L133.9 477.4C133.8 477.5 133.8 477.6 133.8 477.7H135.6Z" fill="#010202"/>
<path d="M137.4 476.9H136.3V476.5H139V476.9H137.9V479.5H137.4V476.9Z" fill="#010202"/>
<path d="M140.6 479.6C140.3 479.6 140.1 479.5 140 479.5C139.8 479.4 139.7 479.3 139.5 479.2C139.4 479.1 139.3 478.9 139.2 478.7C139.1 478.5 139.1 478.3 139.1 478.1C139.1 477.9 139.1 477.6 139.2 477.5C139.3 477.3 139.3 477.1 139.5 477C139.6 476.9 139.8 476.7 140 476.7C140.2 476.6 140.4 476.6 140.6 476.6C140.8 476.6 140.9 476.6 141.1 476.7C141.2 476.8 141.4 476.8 141.5 476.9C141.6 477 141.7 477.1 141.8 477.2C141.9 477.3 141.9 477.5 141.9 477.7H141.4C141.3 477.5 141.3 477.4 141.1 477.2C141 477.1 140.8 477.1 140.6 477.1C140.4 477.1 140.3 477.2 140.1 477.2C140 477.3 139.9 477.3 139.8 477.5C139.7 477.6 139.7 477.8 139.7 477.9C139.7 478 139.6 478.2 139.6 478.4C139.6 478.5 139.6 478.7 139.7 478.8C139.8 478.9 139.8 479.1 139.8 479.1C139.9 479.2 139.9 479.3 140.1 479.4C140.2 479.5 140.4 479.5 140.5 479.5C140.8 479.5 141 479.4 141.1 479.3C141.2 479.2 141.3 479 141.4 478.8H141.9C141.8 479.2 141.7 479.4 141.5 479.6C141.3 479.5 141 479.6 140.6 479.6Z" fill="#010202"/>
<path d="M143.1 478.4C142.9 478.4 142.7 478.3 142.6 478.1C142.5 477.9 142.4 477.7 142.4 477.5C142.4 477.2 142.5 477 142.7 476.9C142.9 476.8 143.1 476.6 143.4 476.6H144.9V479.6H144.4V478.5H143.8L142.9 479.7H142.3L143.1 478.4ZM144.3 477.9V476.9H143.5C143.3 476.9 143.1 477 143 477C142.9 477.1 142.9 477.2 142.9 477.4C142.9 477.5 143 477.7 143 477.8C143.1 477.9 143.3 477.9 143.5 477.9H144.3Z" fill="#010202"/>
<path d="M145.7 477.1V476.5H146.3V477.1H145.7ZM146.3 478.9V479.5H145.7V478.9H146.3Z" fill="#010202"/>
<path d="M148.5 479.1H148.9C149 479 149 478.8 149.1 478.6C149.2 478.4 149.2 478.1 149.3 477.9C149.4 477.6 149.4 477.4 149.4 477.1C149.4 476.8 149.5 476.5 149.5 476.3V475.5H152.1V479.2H152.6V480.7H152V479.7H149V480.7H148.5V479.1ZM151.5 479.1V475.9H149.9V476.5C149.9 476.8 149.9 477 149.8 477.3C149.7 477.6 149.7 477.8 149.7 478C149.6 478.3 149.6 478.5 149.6 478.6C149.5 478.8 149.5 478.9 149.4 479.1H151.5Z" fill="#010202"/>
<path d="M153.8 479.6C153.7 479.6 153.5 479.6 153.4 479.5C153.3 479.5 153.2 479.4 153.1 479.4C153 479.3 152.9 479.3 152.9 479.1C152.9 479 152.8 478.8 152.8 478.7C152.8 478.5 152.8 478.4 152.9 478.3C153 478.2 153 478.1 153.2 478C153.3 477.9 153.4 477.9 153.5 477.9C153.6 477.8 153.8 477.8 153.9 477.8C154 477.8 154.2 477.7 154.3 477.7C154.4 477.7 154.6 477.6 154.6 477.6L154.8 477.5L154.9 477.3C154.9 477.2 154.9 477.1 154.8 477L154.7 476.9L154.5 476.8C154.4 476.8 154.4 476.8 154.2 476.8C154 476.8 153.8 476.9 153.7 476.9C153.6 477 153.5 477.2 153.4 477.4H152.9C152.9 477.2 153 477.1 153 476.9C153.1 476.8 153.2 476.6 153.3 476.6C153.4 476.5 153.6 476.5 153.7 476.4C153.8 476.3 154 476.3 154.2 476.3C154.3 476.3 154.5 476.3 154.6 476.3C154.7 476.3 154.9 476.4 155 476.4C155.1 476.5 155.2 476.5 155.3 476.7C155.4 476.8 155.4 477 155.4 477.2V478.7C155.4 478.8 155.4 478.9 155.4 479L155.5 479.1H155.6V479.5C155.5 479.6 155.4 479.6 155.3 479.6C155.2 479.6 155 479.5 155 479.5C154.9 479.4 154.9 479.3 154.9 479.2C154.8 479.4 154.6 479.5 154.4 479.5C154.2 479.5 154 479.6 153.8 479.6ZM154 479.1C154.2 479.1 154.3 479.1 154.4 479C154.5 478.9 154.6 478.9 154.7 478.8L154.9 478.6L155 478.4V478C154.9 478.1 154.9 478.1 154.7 478.1C154.6 478.1 154.5 478.2 154.4 478.2C154.3 478.2 154.2 478.2 154.1 478.3C154 478.3 153.9 478.4 153.8 478.4C153.7 478.5 153.7 478.5 153.6 478.6C153.5 478.7 153.5 478.8 153.5 478.9L153.6 479.1L153.7 479.2L153.9 479.3C153.8 479.1 153.8 479.1 154 479.1Z" fill="#010202"/>
<path d="M156.1 476.5H156.8L157.7 478.9H157.8L158.7 476.5H159.4V479.5H158.9V477.1L158 479.5H157.5L156.6 477.1V479.5H156.1V476.5Z" fill="#010202"/>
<path d="M160.1 476.5H160.6V477.7H161.5C161.8 477.7 162 477.8 162.2 478C162.4 478.1 162.5 478.4 162.5 478.6C162.5 478.8 162.4 479.1 162.2 479.3C162 479.5 161.8 479.6 161.5 479.6H160.1V476.5ZM161.4 479.1C161.8 479.1 162 478.9 162 478.6C162 478.3 161.8 478.1 161.4 478.1H160.6V479.1H161.4ZM163 476.5H163.5V479.5H163V476.5Z" fill="#010202"/>
<path d="M167.5 479.5C167.3 479.6 167.1 479.6 166.9 479.6C166.6 479.6 166.4 479.5 166.3 479.5C166.2 479.4 166 479.3 165.9 479.2C165.8 479.1 165.8 478.9 165.7 478.8C165.7 478.7 165.6 478.5 165.6 478.5C165.6 478.3 165.6 478.2 165.7 478.1C165.8 478 165.8 477.8 165.9 477.8C166 477.7 166.1 477.6 166.2 477.5C166.3 477.4 166.5 477.4 166.6 477.3C166.5 477.2 166.5 477.2 166.4 477L166.3 476.8C166.2 476.7 166.2 476.7 166.2 476.5C166.1 476.4 166.1 476.3 166.1 476.2C166.1 476.1 166.1 476 166.2 475.9C166.3 475.8 166.3 475.7 166.4 475.6C166.5 475.5 166.6 475.5 166.7 475.4C166.8 475.3 167 475.3 167.1 475.3C167.2 475.3 167.4 475.3 167.5 475.4C167.6 475.5 167.8 475.5 167.8 475.5C167.8 475.5 168 475.6 168 475.8C168.1 475.9 168.1 476.1 168.1 476.2C168.1 476.3 168.1 476.5 168 476.5C167.9 476.6 167.9 476.7 167.8 476.8C167.7 476.9 167.7 477 167.5 477.1C167.4 477.2 167.3 477.2 167.2 477.3L168 478.2C168.1 478 168.1 477.7 168.1 477.6H168.6C168.6 477.7 168.6 477.9 168.5 477.9L168.4 478.2L168.3 478.4C168.3 478.5 168.2 478.5 168.2 478.7L169 479.6H168.4L168.1 479.1C167.9 479.2 167.8 479.3 167.5 479.5ZM166.6 477.6L166.3 477.8C166.2 477.9 166.2 477.9 166.2 478.1C166.1 478.2 166.1 478.3 166.1 478.4C166.1 478.5 166.1 478.6 166.2 478.7L166.4 478.9C166.5 479 166.5 479 166.7 479C166.8 479.1 166.9 479.1 167 479.1C167.2 479.1 167.4 479 167.5 479C167.6 478.9 167.8 478.8 167.9 478.6L166.9 477.4C166.8 477.6 166.6 477.6 166.6 477.6ZM167.2 476.8L167.4 476.7L167.5 476.5C167.6 476.4 167.6 476.4 167.6 476.2C167.6 476.1 167.5 476 167.5 475.9C167.4 475.8 167.3 475.8 167.2 475.8C167.1 475.8 167 475.9 166.9 475.9C166.8 476 166.8 476.1 166.8 476.2L166.9 476.4L167 476.6L167.1 476.8L167.2 477V476.8Z" fill="#010202"/>
<path d="M171.1 475.4H173.8V475.8H171.7V479.5H171.1V475.4Z" fill="#010202"/>
<path d="M174.2 479.5H174.1H174V479H174.1H174.2C174.3 479 174.4 478.9 174.5 478.9C174.6 478.8 174.6 478.6 174.6 478.4C174.7 478.2 174.7 477.9 174.7 477.6C174.7 477.3 174.7 476.9 174.7 476.4H176.8V479.4H176.3V476.8H175.1C175.1 477.1 175.1 477.5 175 477.8C175 478.1 174.9 478.4 174.9 478.6C174.8 478.9 174.8 479 174.6 479.2C174.6 479.5 174.4 479.5 174.2 479.5Z" fill="#010202"/>
<path d="M178.3 479.6C178.2 479.6 178 479.6 177.9 479.5C177.8 479.5 177.7 479.4 177.6 479.4C177.5 479.3 177.4 479.3 177.4 479.1C177.4 479 177.3 478.8 177.3 478.7C177.3 478.5 177.3 478.4 177.4 478.3C177.5 478.2 177.5 478.1 177.7 478C177.8 477.9 177.9 477.9 178 477.9C178.1 477.8 178.3 477.8 178.4 477.8C178.5 477.8 178.7 477.7 178.8 477.7C178.9 477.7 179.1 477.6 179.1 477.6L179.3 477.5L179.4 477.3C179.4 477.2 179.4 477.1 179.3 477L179.2 476.9L179 477C178.9 477 178.9 477 178.7 477C178.5 477 178.3 477.1 178.2 477.1C178.1 477.2 178 477.4 177.9 477.6H177.4C177.4 477.4 177.5 477.3 177.5 477.1C177.6 477 177.7 476.8 177.8 476.8C177.9 476.7 178.1 476.7 178.2 476.6C178.3 476.5 178.5 476.5 178.6 476.5C178.7 476.5 178.9 476.5 179 476.5C179.1 476.5 179.3 476.6 179.4 476.6C179.5 476.7 179.6 476.7 179.7 476.9C179.8 477 179.8 477.2 179.8 477.4V478.9C179.8 479 179.8 479.1 179.8 479.2L179.9 479.3H180V479.7C179.9 479.8 179.8 479.8 179.7 479.8C179.6 479.8 179.4 479.7 179.4 479.7C179.3 479.6 179.3 479.5 179.3 479.4C179.2 479.6 179 479.7 178.8 479.7C178.7 479.5 178.5 479.6 178.3 479.6ZM178.4 479.1C178.6 479.1 178.7 479.1 178.8 479C178.9 478.9 179 478.9 179.1 478.8L179.3 478.6L179.4 478.4V478C179.3 478.1 179.3 478.1 179.1 478.1C179 478.1 178.9 478.2 178.8 478.2C178.7 478.2 178.6 478.2 178.5 478.3C178.4 478.3 178.3 478.4 178.2 478.4C178.1 478.5 178.1 478.5 178 478.6C177.9 478.7 177.9 478.8 177.9 478.9L178 479.1L178.1 479.2L178.3 479.3L178.4 479.1Z" fill="#010202"/>
<path d="M180.6 476.5H182C182.1 476.5 182.3 476.5 182.4 476.5C182.5 476.5 182.7 476.6 182.7 476.6L183 476.8C183.1 476.9 183.1 477 183.1 477.2C183.1 477.4 183 477.5 183 477.6C182.9 477.7 182.8 477.8 182.7 477.9C182.9 478 183 478 183.1 478.2C183.2 478.3 183.2 478.5 183.2 478.7C183.2 478.8 183.2 479 183.1 479C183 479.1 183 479.2 182.9 479.3C182.8 479.4 182.7 479.4 182.6 479.5C182.5 479.6 182.3 479.6 182.2 479.6H180.6V476.6V476.5ZM181.9 477.7C182.1 477.7 182.3 477.6 182.4 477.6C182.5 477.5 182.5 477.4 182.5 477.3C182.5 477.2 182.4 477.1 182.4 477C182.3 476.9 182.1 476.9 181.9 476.9H181.1V477.7H181.9ZM182.1 479.1C182.3 479.1 182.4 479 182.5 479C182.6 478.9 182.6 478.8 182.6 478.6C182.6 478.5 182.5 478.3 182.5 478.3C182.4 478.2 182.2 478.2 182 478.2H181V479.2H182.1V479.1Z" fill="#010202"/>
<path d="M183.8 476.5H184.2V477.7H185.7V476.5H186.2V479.5H185.7V478.1H184.2V479.5H183.8V476.5Z" fill="#010202"/>
<path d="M187.8 479.6C187.7 479.6 187.5 479.6 187.4 479.5C187.3 479.5 187.2 479.4 187.1 479.4C187 479.3 186.9 479.3 186.9 479.1C186.9 479 186.8 478.8 186.8 478.7C186.8 478.5 186.8 478.4 186.9 478.3C187 478.2 187 478.1 187.2 478C187.3 477.9 187.4 477.9 187.5 477.9C187.6 477.8 187.8 477.8 187.9 477.8C188 477.8 188.2 477.7 188.3 477.7C188.4 477.7 188.6 477.6 188.6 477.6L188.8 477.5L188.9 477.3C188.9 477.2 188.9 477.1 188.8 477L188.7 476.9L188.5 476.8C188.4 476.8 188.4 476.8 188.2 476.8C188 476.8 187.8 476.9 187.7 476.9C187.6 477 187.5 477.2 187.4 477.4H186.9C186.9 477.2 187 477.1 187 476.9C187.1 476.8 187.2 476.6 187.3 476.6C187.4 476.5 187.6 476.5 187.7 476.4C187.8 476.3 188 476.3 188.1 476.3C188.2 476.3 188.4 476.3 188.5 476.3C188.6 476.3 188.8 476.4 188.9 476.4C189 476.5 189.1 476.5 189.2 476.7C189.3 476.8 189.3 477 189.3 477.2V478.7C189.3 478.8 189.3 478.9 189.3 479L189.4 479.1H189.5V479.5C189.4 479.6 189.3 479.6 189.2 479.6C189.1 479.6 188.9 479.5 188.9 479.5C188.8 479.4 188.8 479.3 188.8 479.2C188.7 479.4 188.5 479.5 188.3 479.5C188.2 479.5 188 479.6 187.8 479.6ZM187.9 479.1C188.1 479.1 188.2 479.1 188.3 479C188.4 478.9 188.5 478.9 188.6 478.8L188.8 478.6L188.9 478.4V478C188.8 478.1 188.8 478.1 188.6 478.1C188.5 478.1 188.4 478.2 188.3 478.2C188.2 478.2 188.1 478.2 188 478.3C187.9 478.3 187.8 478.4 187.7 478.4C187.6 478.5 187.6 478.5 187.5 478.6C187.4 478.7 187.4 478.8 187.4 478.9L187.5 479.1L187.6 479.2L187.8 479.3L187.9 479.1Z" fill="#010202"/>
<path d="M190.7 478.4C190.5 478.4 190.3 478.3 190.2 478.1C190.1 477.9 190 477.7 190 477.5C190 477.2 190.1 477 190.3 476.9C190.5 476.8 190.7 476.6 191 476.6H192.5V479.6H192V478.5H191.4L190.5 479.7H189.9L190.7 478.4ZM191.9 477.9V476.9H191.1C190.9 476.9 190.7 477 190.7 477C190.6 477.1 190.6 477.2 190.6 477.4C190.6 477.5 190.7 477.7 190.7 477.8C190.8 477.9 191 477.9 191.1 477.9H191.9Z" fill="#010202"/>
<path d="M118.1 449.5C117.8 449.5 117.5 449.4 117.3 449.3C117 449.2 116.8 449 116.7 448.8C116.5 448.6 116.4 448.3 116.3 448.1C116.2 447.8 116.2 447.6 116.2 447.3C116.2 447 116.3 446.7 116.3 446.5C116.3 446.3 116.5 446 116.7 445.8C116.9 445.6 117.1 445.4 117.3 445.3C117.6 445.2 117.8 445.1 118.1 445.1C118.4 445.1 118.7 445.2 118.9 445.3C119.2 445.4 119.4 445.6 119.5 445.8C119.7 446 119.8 446.3 119.9 446.5C120 446.8 120 447 120 447.3C120 447.6 119.9 447.9 119.9 448.1C119.8 448.4 119.7 448.6 119.5 448.8C119.3 449 119.1 449.2 118.9 449.3C118.8 449.5 118.5 449.5 118.1 449.5ZM118.1 449C118.4 449 118.6 448.9 118.7 448.9C118.9 448.8 119 448.6 119.2 448.5C119.3 448.4 119.4 448.2 119.5 448C119.6 447.8 119.6 447.6 119.6 447.4C119.6 447.2 119.6 447 119.5 446.8C119.4 446.6 119.4 446.4 119.2 446.3C119.1 446.2 118.9 446 118.7 445.9C118.5 445.8 118.3 445.8 118.1 445.8C117.8 445.8 117.6 445.9 117.5 445.9C117.3 446 117.2 446.2 117 446.3C116.9 446.4 116.8 446.6 116.7 446.8C116.6 447 116.6 447.2 116.6 447.4C116.6 447.6 116.6 447.8 116.7 448C116.8 448.2 116.8 448.4 117 448.5C117.1 448.6 117.3 448.8 117.5 448.9C117.7 449 117.9 449 118.1 449Z" fill="#010202"/>
<path d="M120.7 446.4H121.2V446.8C121.3 446.6 121.4 446.5 121.6 446.4C121.8 446.3 122 446.3 122.2 446.3C122.5 446.3 122.7 446.4 122.8 446.4C122.9 446.4 123.1 446.6 123.3 446.7C123.4 446.8 123.5 447 123.6 447.2C123.7 447.4 123.7 447.6 123.7 447.8C123.7 448 123.7 448.2 123.6 448.4C123.5 448.6 123.5 448.7 123.3 448.9C123.2 449 123 449.2 122.8 449.2C122.6 449.3 122.4 449.3 122.2 449.3C122.1 449.3 122.1 449.3 121.9 449.3L121.6 449.2L121.3 449.1L121.1 448.9V450.4H120.6V446.4H120.7ZM122.1 449C122.3 449 122.4 448.9 122.6 448.9C122.7 448.8 122.8 448.8 122.9 448.6C123 448.4 123 448.3 123 448.2C123 448.1 123.1 447.9 123.1 447.7C123.1 447.6 123.1 447.4 123 447.3C122.9 447.2 122.9 447 122.8 446.9C122.7 446.8 122.6 446.7 122.5 446.6C122.4 446.5 122.2 446.5 122.1 446.5C121.9 446.5 121.8 446.6 121.6 446.6C121.5 446.7 121.4 446.7 121.3 446.9C121.2 447 121.2 447.2 121.2 447.3C121.1 447.4 121.1 447.6 121.1 447.7C121.1 447.8 121.1 448 121.2 448.2C121.3 448.4 121.3 448.5 121.4 448.6C121.5 448.7 121.6 448.8 121.7 448.9C121.9 449 122 449 122.1 449Z" fill="#010202"/>
<path d="M125 449.5C124.9 449.5 124.7 449.5 124.6 449.4C124.5 449.4 124.4 449.3 124.3 449.3C124.2 449.2 124.1 449.2 124.1 449C124.1 448.9 124 448.7 124 448.6C124 448.4 124 448.3 124.1 448.2C124.2 448.1 124.2 448 124.4 447.9C124.5 447.8 124.6 447.8 124.7 447.8C124.8 447.7 125 447.7 125.1 447.7C125.2 447.7 125.4 447.6 125.5 447.6C125.6 447.6 125.8 447.5 125.8 447.5L126 447.4L126.1 447.2C126.1 447.1 126.1 447 126 446.9L125.9 446.8L125.7 446.7C125.6 446.7 125.6 446.7 125.4 446.7C125.2 446.7 125 446.8 124.9 446.8C124.8 446.9 124.7 447.1 124.6 447.3H124.1C124.1 447.1 124.2 447 124.2 446.8C124.2 446.6 124.4 446.5 124.5 446.5C124.6 446.4 124.8 446.4 124.9 446.3C125 446.2 125.2 446.2 125.4 446.2C125.5 446.2 125.7 446.2 125.8 446.2C125.9 446.2 126.1 446.3 126.2 446.3C126.3 446.3 126.4 446.4 126.5 446.6C126.6 446.7 126.6 446.9 126.6 447.1V448.6C126.6 448.7 126.6 448.8 126.6 448.9L126.7 449H126.8V449.4C126.7 449.5 126.6 449.5 126.5 449.5C126.4 449.5 126.2 449.4 126.2 449.4C126.1 449.3 126.1 449.2 126.1 449.1C126 449.3 125.8 449.4 125.6 449.4C125.4 449.4 125.2 449.5 125 449.5ZM125.1 449C125.3 449 125.4 449 125.5 448.9C125.6 448.8 125.7 448.8 125.8 448.7L126 448.5L126.1 448.3V447.8C126 447.9 126 447.9 125.8 447.9C125.7 447.9 125.6 448 125.5 448C125.4 448 125.3 448 125.2 448.1C125.1 448.1 125 448.2 124.9 448.2C124.8 448.3 124.8 448.3 124.7 448.4C124.6 448.5 124.6 448.6 124.6 448.7L124.7 448.9L124.8 449L125 449.1L125.1 449Z" fill="#010202"/>
<path d="M127.3 446.4H127.7V447.6H129.3V446.4H129.8V449.4H129.3V448.1H127.7V449.4H127.3V446.4Z" fill="#010202"/>
<path d="M131.6 447.8L130.3 446.4H130.9L132.2 447.8V446.4H132.6V447.8L133.9 446.4H134.5L133.2 447.8L134.7 449.4H134L132.8 448.1L132.6 448.2V449.4H132.2V448.2L132 448.1L130.7 449.4H130.1L131.6 447.8Z" fill="#010202"/>
<path d="M136.3 449.5C136 449.5 135.8 449.4 135.7 449.4C135.5 449.3 135.4 449.2 135.2 449.1C135.1 449 135 448.8 134.9 448.6C134.8 448.4 134.8 448.2 134.8 448C134.8 447.8 134.9 447.5 134.9 447.4C135 447.2 135.1 447 135.2 446.9C135.3 446.8 135.5 446.6 135.7 446.6C135.9 446.5 136.1 446.5 136.3 446.5C136.6 446.5 136.8 446.6 136.9 446.7C137.1 446.8 137.2 447 137.4 447.2C137.5 447.4 137.6 447.6 137.6 447.8C137.7 448 137.7 448.2 137.7 448.4H135.4C135.4 448.5 135.4 448.7 135.5 448.8C135.6 448.9 135.6 449 135.7 449.1C135.8 449.2 135.9 449.3 136 449.3C136.1 449.4 136.3 449.4 136.5 449.4C136.7 449.4 136.9 449.3 137 449.3C137.1 449.2 137.2 449 137.3 448.8H137.8C137.7 449.1 137.6 449.4 137.3 449.6C137 449.4 136.7 449.5 136.3 449.5ZM137.1 447.6C137.1 447.5 137 447.3 137 447.3C136.9 447.2 136.9 447.1 136.8 447L136.5 446.8C136.4 446.7 136.3 446.7 136.2 446.7C136.1 446.7 135.9 446.7 135.9 446.8C135.8 446.9 135.7 446.9 135.6 447L135.4 447.3C135.3 447.4 135.3 447.5 135.3 447.6H137.1Z" fill="#010202"/>
<path d="M138.1 446.4H139.5C139.6 446.4 139.8 446.4 139.9 446.4C140 446.4 140.2 446.5 140.2 446.5L140.5 446.7C140.6 446.8 140.6 446.9 140.6 447.1C140.6 447.3 140.5 447.4 140.5 447.5C140.4 447.6 140.3 447.7 140.2 447.8C140.4 447.9 140.5 447.9 140.6 448.1C140.7 448.2 140.7 448.4 140.7 448.6C140.7 448.7 140.7 448.9 140.6 448.9C140.5 449 140.5 449.1 140.4 449.2C140.3 449.3 140.2 449.3 140.1 449.4C140 449.5 139.8 449.5 139.7 449.5H138V446.5H138.1V446.4ZM139.4 447.7C139.6 447.7 139.8 447.6 139.9 447.6C140 447.5 140 447.4 140 447.3C140 447.2 139.9 447.1 139.9 447C139.8 446.9 139.6 446.9 139.4 446.9H138.6V447.7H139.4ZM139.7 449C139.9 449 140 448.9 140.1 448.9C140.2 448.8 140.2 448.7 140.2 448.5C140.2 448.4 140.1 448.2 140.1 448.2C140 448.1 139.8 448.1 139.6 448.1H138.6V449.1H139.7V449Z" fill="#010202"/>
<path d="M141.2 446.4H141.7V447.6H142.6C142.9 447.6 143.1 447.7 143.3 447.9C143.5 448 143.6 448.3 143.6 448.5C143.6 448.7 143.5 449 143.3 449.2C143.1 449.4 142.9 449.5 142.6 449.5H141.2V446.4ZM142.5 449C142.9 449 143.1 448.8 143.1 448.5C143.1 448.2 142.9 448 142.5 448H141.7V449H142.5ZM144.1 446.4H144.6V449.4H144.1V446.4Z" fill="#010202"/>
<path d="M145.3 446.4H145.8V448.8L147.2 446.4H147.8V449.4H147.3V447L145.9 449.4H145.3V446.4ZM146.6 446C146.5 446 146.4 446 146.3 445.9C146.2 445.8 146.1 445.8 146 445.8C145.9 445.7 145.9 445.7 145.8 445.5C145.7 445.4 145.7 445.3 145.7 445.2H146.1C146.1 445.5 146.2 445.6 146.5 445.6C146.6 445.6 146.8 445.5 146.8 445.5C146.9 445.4 146.9 445.3 146.9 445.2H147.3C147.3 445.3 147.3 445.4 147.2 445.5L147 445.8C146.9 445.9 146.9 445.9 146.7 445.9C146.8 445.9 146.8 446 146.6 446Z" fill="#010202"/>
<path d="M199.7 391.6C199.9 391.3 200 391 200 390.6C199.7 390.7 199.4 390.8 199.1 391.1C199 391.2 198.9 391.4 198.8 391.6C198.7 391.8 198.7 391.9 198.7 392.1C199.1 392.1 199.5 391.9 199.7 391.6Z" fill="white"/>
<path d="M200 392.2C199.5 392.2 199.1 392.5 198.8 392.5C198.5 392.5 198.2 392.2 197.8 392.2C197.5 392.2 197.3 392.3 197.1 392.4C196.9 392.5 196.7 392.7 196.6 392.9C196.1 393.8 196.5 395.2 197 395.9C197.3 396.3 197.6 396.7 198 396.7C198.4 396.7 198.5 396.4 199 396.4C199.5 396.4 199.6 396.7 200 396.7C200.4 396.7 200.6 396.3 200.9 395.9C201.1 395.6 201.2 395.3 201.3 395.1C201 395 200.8 394.8 200.7 394.6C200.6 394.4 200.5 394.1 200.5 393.9C200.5 393.1 201.1 392.7 201.1 392.7C201 392.5 200.8 392.4 200.6 392.2C200.4 392.2 200.2 392.2 200 392.2Z" fill="white"/>
<path d="M205 391.1C206.1 391.1 206.8 391.9 206.8 393C206.8 394.1 206 394.9 204.9 394.9H203.7V396.8H202.9V391.2L205 391.1ZM203.8 394.1H204.8C205.6 394.1 206 393.7 206 393C206 392.3 205.5 391.9 204.8 391.9H203.8V394.1Z" fill="white"/>
<path d="M207 395.6C207 394.9 207.5 394.4 208.5 394.4L209.6 394.3V394C209.6 393.5 209.3 393.3 208.8 393.3C208.3 393.3 208 393.5 208 393.9H207.2C207.2 393.2 207.9 392.7 208.8 392.7C209.8 392.7 210.4 393.2 210.4 394.1V396.9H209.6V396.3C209.5 396.5 209.3 396.7 209.1 396.8C208.9 396.9 208.6 397 208.4 397C207.6 396.7 207 396.3 207 395.6ZM209.6 395.2V394.9L208.6 395C208.1 395.1 207.8 395.3 207.8 395.6C207.8 395.9 208.1 396.2 208.6 396.2C209.2 396.1 209.6 395.7 209.6 395.2Z" fill="white"/>
<path d="M211.2 398.2V397.6H211.5C211.9 397.6 212.1 397.4 212.2 397L212.3 396.7L210.8 392.6H211.7L212.7 395.9L213.7 392.6H214.6L213.1 396.8C212.8 397.8 212.3 398.1 211.5 398.1C211.4 398.2 211.3 398.2 211.2 398.2Z" fill="white"/>
<path d="M168.6 412.5H170.3L171.9 417.6C172 417.7 172.1 417.8 172.2 417.8H178.2C178.3 417.8 178.5 417.7 178.5 417.5L179 414.6C179 414.4 178.9 414.3 178.7 414.2C178.5 414.2 178.4 414.3 178.3 414.5L177.8 417.1H172.3L170.7 412C170.6 411.9 170.5 411.8 170.4 411.8H168.5C168.3 411.8 168.2 411.9 168.2 412.1C168.2 412.4 168.4 412.5 168.6 412.5Z" fill="white"/>
<path d="M173.7 419.7C173.7 420.1 173.4 420.4 173 420.4C172.6 420.4 172.3 420.1 172.3 419.7C172.3 419.3 172.6 419 173 419C173.4 419 173.7 419.3 173.7 419.7Z" fill="white"/>
<path d="M178.2 419.7C178.2 420.1 177.9 420.4 177.5 420.4C177.1 420.4 176.8 420.1 176.8 419.7C176.8 419.3 177.1 419 177.5 419C177.9 419 178.2 419.3 178.2 419.7Z" fill="white"/>
<path d="M184.9 417H185.3C185.4 416.9 185.4 416.7 185.5 416.5C185.6 416.3 185.6 416 185.7 415.8C185.8 415.5 185.8 415.3 185.8 415C185.8 414.7 185.9 414.4 185.9 414.1V413.3H188.7V417.1H189.2V418.6H188.7V417.6H185.5V418.6H185V417H184.9ZM188.1 417V413.7H186.5V414.3C186.5 414.6 186.5 414.8 186.4 415.1C186.3 415.4 186.3 415.6 186.3 415.9C186.2 416.2 186.2 416.4 186.2 416.5C186.1 416.7 186.1 416.9 186 417H188.1Z" fill="white"/>
<path d="M191 417.6C190.7 417.6 190.6 417.5 190.4 417.5C190.2 417.5 190.1 417.3 189.9 417.2C189.8 417.1 189.7 416.9 189.6 416.7C189.5 416.5 189.5 416.3 189.5 416.1C189.5 415.9 189.5 415.6 189.6 415.5C189.7 415.3 189.7 415.1 189.9 415C190 414.9 190.2 414.7 190.4 414.7C190.6 414.6 190.8 414.6 191 414.6C191.2 414.6 191.5 414.7 191.6 414.7C191.8 414.8 191.9 414.9 192.1 415C192.2 415.1 192.3 415.3 192.4 415.5C192.5 415.7 192.5 415.9 192.5 416.1C192.5 416.3 192.5 416.6 192.4 416.7C192.3 416.9 192.3 417.1 192.1 417.2C192 417.3 191.8 417.5 191.6 417.5C191.4 417.6 191.1 417.6 191 417.6ZM191 417.2C191.1 417.2 191.3 417.2 191.4 417.1C191.5 417 191.6 417 191.7 416.9C191.8 416.8 191.8 416.7 191.9 416.5C192 416.4 192 416.2 192 416C192 415.8 192 415.7 191.9 415.5C191.8 415.4 191.8 415.2 191.7 415.1C191.6 415 191.5 414.9 191.4 414.8C191.3 414.7 191.1 414.7 191 414.7C190.9 414.7 190.7 414.7 190.6 414.8C190.5 414.9 190.4 414.9 190.3 415.1C190.2 415.2 190.2 415.3 190.1 415.5C190 415.6 190 415.8 190 416C190 416.2 190 416.3 190.1 416.5C190.2 416.6 190.2 416.8 190.3 416.9C190.4 417 190.5 417.1 190.6 417.1C190.7 417.1 190.8 417.2 191 417.2Z" fill="white"/>
<path d="M194.4 417.6C194 417.6 193.7 417.5 193.4 417.3C193.1 417.1 193 416.8 192.9 416.3C192.9 416.1 192.8 416 192.8 415.7C192.8 415.6 192.8 415.4 192.8 415.2C192.8 415.1 192.8 414.9 192.9 414.7C193 414.5 193 414.4 193 414.2C193.1 414.1 193.1 413.9 193.2 413.8C193.3 413.6 193.5 413.4 193.7 413.3C193.9 413.2 194.2 413.1 194.4 413.1C194.6 413.1 194.8 413 194.9 413C195 413 195.1 412.9 195.1 412.9H195.6C195.6 413 195.5 413.2 195.5 413.3C195.4 413.4 195.4 413.4 195.2 413.5C195.1 413.6 194.9 413.6 194.8 413.6C194.7 413.6 194.5 413.6 194.3 413.7C194.1 413.7 194 413.8 193.8 413.8C193.7 413.9 193.5 413.9 193.5 414.1C193.4 414.2 193.3 414.4 193.3 414.5C193.2 414.6 193.2 414.8 193.2 415C193.3 414.8 193.4 414.6 193.6 414.5C193.8 414.4 194 414.3 194.2 414.3C194.6 414.3 195 414.4 195.2 414.7C195.5 415 195.6 415.3 195.6 415.9C195.6 416.2 195.5 416.4 195.5 416.6C195.4 416.8 195.3 417 195.2 417.1C195.1 417.2 194.9 417.4 194.7 417.4C194.7 417.6 194.7 417.6 194.4 417.6ZM194.4 417.2C194.5 417.2 194.7 417.2 194.7 417.1C194.8 417 194.9 417 195 416.9C195.1 416.8 195.1 416.7 195.2 416.6C195.3 416.5 195.3 416.3 195.3 416.1C195.3 415.7 195.2 415.5 195 415.3C194.8 415.1 194.6 415 194.3 415C194 415 193.8 415.1 193.6 415.3C193.4 415.5 193.3 415.8 193.3 416.1C193.3 416.4 193.4 416.7 193.6 416.9C193.8 417.1 194.2 417.2 194.4 417.2Z" fill="white"/>
<path d="M197.4 417.6C197.3 417.6 197.1 417.6 197 417.5C196.9 417.5 196.7 417.4 196.7 417.4C196.6 417.3 196.5 417.3 196.5 417.1C196.4 417 196.4 416.8 196.4 416.7C196.4 416.5 196.4 416.4 196.5 416.2C196.6 416.1 196.6 416 196.8 415.9C196.9 415.8 197 415.8 197.1 415.8C197.2 415.7 197.4 415.7 197.5 415.7C197.6 415.7 197.8 415.6 197.9 415.6C198 415.6 198.2 415.5 198.2 415.5L198.5 415.4L198.6 415.2C198.6 415.1 198.6 415 198.5 414.9L198.4 414.8L198.2 414.7H197.9C197.7 414.7 197.5 414.8 197.4 414.8C197.3 414.9 197.2 415.1 197.1 415.3H196.6C196.6 415.1 196.7 415 196.7 414.8C196.8 414.7 196.9 414.5 197 414.5C197.1 414.4 197.3 414.4 197.4 414.3C197.5 414.2 197.7 414.2 197.9 414.2C198 414.2 198.2 414.2 198.3 414.2C198.4 414.2 198.6 414.3 198.7 414.3C198.8 414.4 198.9 414.4 199 414.6C199.1 414.7 199.1 414.9 199.1 415.1V416.7C199.1 416.8 199.1 416.9 199.1 417L199.2 417.1H199.3V417.5C199.2 417.6 199.1 417.6 198.9 417.6C198.8 417.6 198.6 417.5 198.6 417.5C198.5 417.4 198.5 417.3 198.5 417.1C198.4 417.3 198.2 417.4 198 417.5C197.8 417.6 197.6 417.6 197.4 417.6ZM197.5 417.2C197.7 417.2 197.8 417.2 198 417.1C198.1 417 198.2 417 198.3 416.9C198.4 416.8 198.4 416.8 198.5 416.6C198.6 416.5 198.6 416.5 198.6 416.3V416C198.5 416.1 198.5 416.1 198.3 416.1C198.2 416.1 198.1 416.2 198 416.2C197.9 416.2 197.7 416.2 197.7 416.3C197.6 416.4 197.5 416.4 197.4 416.4L197.2 416.6C197.1 416.7 197.1 416.8 197.1 416.9L197.2 417.1L197.3 417.2H197.5C197.3 417.2 197.4 417.2 197.5 417.2Z" fill="white"/>
<path d="M199.8 414.5H201.2C201.3 414.5 201.5 414.5 201.6 414.5C201.7 414.5 201.9 414.6 201.9 414.6C202 414.7 202.1 414.7 202.2 414.9C202.3 415 202.3 415.2 202.3 415.3C202.3 415.5 202.2 415.6 202.2 415.7C202.1 415.8 202 415.9 201.9 416C202.1 416.1 202.2 416.1 202.4 416.3C202.5 416.4 202.5 416.6 202.5 416.8C202.5 416.9 202.5 417.1 202.4 417.2C202.3 417.3 202.3 417.4 202.2 417.5C202.1 417.6 202 417.6 201.9 417.7C201.8 417.8 201.6 417.8 201.5 417.8H199.8V414.5ZM201.2 415.7C201.4 415.7 201.6 415.6 201.7 415.6C201.8 415.5 201.8 415.4 201.8 415.3C201.8 415.2 201.7 415.1 201.7 415C201.6 414.9 201.4 414.9 201.2 414.9H200.4V415.7H201.2ZM201.4 417.1C201.6 417.1 201.7 417 201.8 417C201.9 416.9 201.9 416.8 201.9 416.6C201.9 416.5 201.8 416.3 201.8 416.3C201.7 416.2 201.5 416.2 201.3 416.2H200.3V417.2H201.4V417.1Z" fill="white"/>
<path d="M203.1 414.5H203.6V417L205 414.5H205.7V417.6H205.2V415.1L203.8 417.6H203.1V414.5Z" fill="white"/>
<path d="M207.3 414.9H206.2V414.5H208.9V414.9H207.8V417.6H207.3V414.9Z" fill="white"/>
<path d="M209.4 414.5H209.9V415.7H211C211.3 415.7 211.5 415.8 211.7 416C211.9 416.2 212 416.4 212 416.7C212 417 211.9 417.2 211.7 417.4C211.5 417.6 211.3 417.7 211 417.7H209.4V414.5ZM210.9 417.1C211.4 417.1 211.5 416.9 211.5 416.6C211.5 416.3 211.3 416.1 210.9 416.1H209.9V417.1H210.9Z" fill="white"/>
<path d="M214.2 414.5H215.6C215.7 414.5 215.9 414.5 216 414.5C216.1 414.5 216.3 414.6 216.3 414.6C216.4 414.7 216.5 414.7 216.6 414.9C216.7 415 216.7 415.2 216.7 415.3C216.7 415.5 216.6 415.6 216.6 415.7C216.5 415.8 216.4 415.9 216.3 416C216.5 416.1 216.6 416.1 216.8 416.3C216.9 416.4 216.9 416.6 216.9 416.8C216.9 416.9 216.9 417.1 216.8 417.2C216.7 417.3 216.7 417.4 216.6 417.5C216.5 417.6 216.4 417.6 216.3 417.7C216.2 417.8 216 417.8 215.9 417.8H214.2V414.5ZM215.6 415.7C215.8 415.7 216 415.6 216 415.6C216.1 415.5 216.1 415.4 216.1 415.3C216.1 415.2 216 415.1 216 415C215.9 414.9 215.7 414.9 215.6 414.9H214.8V415.7H215.6ZM215.8 417.1C216 417.1 216.1 417 216.2 417C216.3 416.9 216.3 416.8 216.3 416.6C216.3 416.5 216.2 416.3 216.2 416.3C216.1 416.2 215.9 416.2 215.7 416.2H214.7V417.2H215.8V417.1Z" fill="white"/>
<path d="M219.1 414.5H219.6V416L221 414.5H221.7L220.3 415.8L221.8 417.6H221.2L219.9 416.1L219.6 416.4V417.6H219.1V414.5Z" fill="white"/>
<path d="M223.4 417.6C223.1 417.6 222.9 417.5 222.8 417.5C222.6 417.4 222.5 417.3 222.3 417.2C222.2 417.1 222.1 416.9 222 416.7C221.9 416.5 221.9 416.3 221.9 416.1C221.9 415.9 221.9 415.6 222 415.5C222.1 415.3 222.1 415.1 222.3 415C222.5 414.9 222.6 414.7 222.8 414.7C223 414.6 223.2 414.6 223.4 414.6C223.7 414.6 223.9 414.7 224 414.7C224.2 414.8 224.3 414.9 224.5 415C224.7 415.1 224.7 415.3 224.8 415.5C224.9 415.7 224.9 415.9 224.9 416.1C224.9 416.3 224.9 416.6 224.8 416.7C224.7 416.9 224.7 417.1 224.5 417.2C224.4 417.3 224.2 417.5 224 417.5C223.9 417.6 223.7 417.6 223.4 417.6ZM223.4 417.2C223.5 417.2 223.7 417.2 223.8 417.1C223.9 417 224 417 224.1 416.9C224.2 416.8 224.2 416.7 224.3 416.5C224.4 416.4 224.4 416.2 224.4 416C224.4 415.8 224.4 415.7 224.3 415.5C224.2 415.4 224.2 415.2 224.1 415.1C224 415 223.9 414.9 223.8 414.8C223.7 414.7 223.5 414.7 223.4 414.7C223.3 414.7 223.1 414.7 223 414.8C222.9 414.9 222.8 414.9 222.7 415.1C222.6 415.2 222.6 415.3 222.5 415.5C222.4 415.6 222.4 415.8 222.4 416C222.4 416.2 222.4 416.3 222.5 416.5C222.6 416.6 222.6 416.8 222.7 416.9C222.8 417 222.9 417.1 223 417.1C223.2 417.1 223.3 417.2 223.4 417.2Z" fill="white"/>
<path d="M225.6 414.5H226.1V414.9C226.2 414.7 226.3 414.6 226.5 414.5C226.7 414.4 226.9 414.4 227.1 414.4C227.4 414.4 227.6 414.5 227.7 414.5C227.9 414.6 228 414.7 228.2 414.9C228.3 415 228.4 415.2 228.5 415.4C228.6 415.6 228.6 415.8 228.6 416C228.6 416.2 228.6 416.5 228.5 416.6C228.4 416.8 228.4 417 228.2 417.1C228.1 417.2 227.9 417.4 227.7 417.4C227.5 417.5 227.3 417.5 227.1 417.5H226.8L226.5 417.4L226.2 417.3C226.1 417.2 226.1 417.2 226 417V418.6H225.5V414.5H225.6ZM227 417.2C227.2 417.2 227.3 417.1 227.5 417.1C227.6 417 227.7 417 227.8 416.8C227.9 416.7 227.9 416.5 227.9 416.4C227.9 416.3 228 416.1 228 415.9C228 415.8 228 415.6 227.9 415.4C227.8 415.3 227.8 415.1 227.7 415C227.6 414.9 227.5 414.8 227.4 414.7C227.3 414.6 227.1 414.6 226.9 414.6C226.7 414.6 226.6 414.7 226.5 414.7C226.4 414.8 226.3 414.8 226.2 415C226.1 415.1 226.1 415.3 226 415.4C225.9 415.5 225.9 415.7 225.9 415.9C225.9 416 225.9 416.2 226 416.4C226.1 416.5 226.1 416.7 226.2 416.8C226.3 416.9 226.4 417 226.5 417.1C226.7 417.1 226.9 417.2 227 417.2Z" fill="white"/>
<path d="M230.3 417.6C229.9 417.6 229.6 417.5 229.3 417.3C229 417.1 228.9 416.8 228.9 416.5H229.4C229.4 416.8 229.5 416.9 229.7 417C229.8 417.1 230 417.1 230.3 417.1C230.6 417.1 230.8 417 230.9 417C231 416.9 231.1 416.7 231.1 416.6C231.1 416.5 231 416.3 231 416.2C230.9 416.1 230.7 416.1 230.5 416.1H230.1V415.7H230.4C230.6 415.7 230.7 415.6 230.9 415.6C231 415.5 231.1 415.4 231.1 415.2C231.1 415.1 231 415 230.9 414.9C230.8 414.8 230.6 414.8 230.4 414.8H230.1L229.8 414.9L229.6 415.1C229.5 415.2 229.5 415.2 229.5 415.4H229C229 415.2 229.1 415.1 229.1 414.9C229.2 414.8 229.3 414.7 229.4 414.6C229.5 414.5 229.7 414.5 229.8 414.5C229.9 414.5 230.1 414.4 230.3 414.4C230.4 414.4 230.6 414.4 230.8 414.5C230.9 414.5 231.1 414.6 231.2 414.6C231.3 414.7 231.4 414.7 231.5 414.9C231.6 415 231.6 415.2 231.6 415.3C231.6 415.5 231.5 415.6 231.5 415.8C231.4 415.9 231.3 416 231.2 416L231.4 416.1L231.6 416.2C231.7 416.3 231.7 416.3 231.7 416.5C231.7 416.7 231.8 416.7 231.8 416.8C231.8 417 231.7 417.1 231.7 417.3C231.6 417.4 231.5 417.5 231.4 417.6C231.3 417.7 231.1 417.7 231 417.8C230.6 417.6 230.5 417.6 230.3 417.6Z" fill="white"/>
<path d="M232.3 414.5H232.8V417L234.2 414.5H234.9V417.6H234.4V415.1L233 417.6H232.3V414.5Z" fill="white"/>
<path d="M235.7 414.5H236.2V415.7H237.8V414.5H238.3V417.6H237.8V416.2H236.2V417.6H235.7V414.5Z" fill="white"/>
<path d="M239.5 418.8H239.3L239.1 418.7V418.2L239.2 418.3H239.3C239.4 418.3 239.5 418.3 239.6 418.2L239.8 418L240 417.5L238.8 414.4H239.4L240.3 416.9L241.1 414.4H241.6L240.2 417.9C240.1 418 240.1 418.2 240 418.3C239.9 418.4 239.9 418.5 239.8 418.6C239.7 418.7 239.7 418.7 239.5 418.7C239.5 418.7 239.6 418.8 239.5 418.8Z" fill="white"/>
<path d="M351.3 80.3H61.5V97.5H351.3V80.3Z" fill="#111110"/>
<path d="M71.4996 92.6V91.4H84.1996V92.6H71.4996ZM71.4996 89.4V88.2H84.1996V89.4H71.4996ZM71.4996 86.2V85H84.1996V86.2H71.4996ZM345.7 80.3H67.0996C63.9996 80.3 61.5996 82.8 61.5996 85.8V97.5H351.4V85.8C351.3 82.8 348.8 80.3 345.7 80.3ZM345.7 80.3H67.0996C63.9996 80.3 61.5996 82.8 61.5996 85.8V97.5H351.4V85.8C351.3 82.8 348.8 80.3 345.7 80.3ZM345.7 80.3H67.0996C63.9996 80.3 61.5996 82.8 61.5996 85.8V97.5H351.4V85.8C351.3 82.8 348.8 80.3 345.7 80.3Z" fill="#C1BEC0"/>
<path d="M274.7 85.9H276.2L277.7 90.5C277.8 90.6 277.8 90.7 278 90.7H283.4C283.5 90.7 283.7 90.6 283.7 90.4L284.2 87.8C284.2 87.7 284.1 87.5 283.9 87.5C283.8 87.5 283.6 87.6 283.6 87.8L283.2 90.1H278.2L276.7 85.5C276.6 85.4 276.6 85.3 276.4 85.3H274.7C274.6 85.3 274.4 85.4 274.4 85.6C274.5 85.8 274.5 85.9 274.7 85.9Z" fill="#010202"/>
<path d="M278.6 92.9C278.931 92.9 279.2 92.6313 279.2 92.3C279.2 91.9686 278.931 91.7 278.6 91.7C278.269 91.7 278 91.9686 278 92.3C278 92.6313 278.269 92.9 278.6 92.9Z" fill="#010202"/>
<path d="M283.2 92.3C283.2 92.6 282.9 92.9 282.6 92.9C282.3 92.9 282 92.6 282 92.3C282 92 282.3 91.7 282.6 91.7C282.9 91.7 283.2 92 283.2 92.3Z" fill="#010202"/>
<path d="M299.4 92.5V92.2H293.7V86.8H299.1V92.5H299.4V92.2V92.5H299.7V86.3H293.1V92.8H299.7V92.5H299.4Z" fill="#010202"/>
<path d="M296.1 84.3V89.5H296.7V84.3" fill="#010202"/>
<path d="M295.6 85.5L296.4 84.7L297.2 85.4C297.3 85.5 297.5 85.5 297.6 85.4C297.7 85.3 297.7 85.1 297.6 85L296.6 84.1C296.5 84 296.3 84 296.2 84.1L295.2 85.1C295.1 85.2 295.1 85.4 295.2 85.5C295.3 85.6 295.5 85.6 295.6 85.5Z" fill="#010202"/>
<path d="M310.1 86.5V91.6C310.1 91.7 310.2 91.9 310.4 91.9C310.6 91.9 310.7 91.8 310.7 91.6V86.5C310.7 86.4 310.6 86.2 310.4 86.2C310.2 86.2 310.1 86.4 310.1 86.5Z" fill="#010202"/>
<path d="M307.7 89.4H312.8C312.9 89.4 313.1 89.3 313.1 89.1C313.1 89 313 88.8 312.8 88.8H307.7C307.6 88.8 307.4 88.9 307.4 89.1C307.4 89.3 307.5 89.4 307.7 89.4Z" fill="#010202"/>
<path d="M318 91C317.7 91 317.5 90.9 317.2 90.9C317 90.8 316.8 90.6 316.7 90.5C316.6 90.4 316.4 90.1 316.4 89.9C316.3 89.6 316.3 89.4 316.3 89.1C316.3 88.8 316.4 88.6 316.4 88.3C316.5 88 316.6 87.8 316.7 87.7C316.8 87.5 317 87.4 317.2 87.3C317.4 87.2 317.7 87.2 318 87.2C318.2 87.2 318.4 87.2 318.6 87.3C318.8 87.4 318.9 87.4 319.1 87.6C319.2 87.7 319.4 87.8 319.4 88C319.5 88.1 319.5 88.3 319.6 88.5H319C318.9 88.2 318.8 88 318.6 87.9C318.4 87.8 318.2 87.7 318 87.7C317.8 87.7 317.6 87.8 317.4 87.8C317.3 87.9 317.1 88 317 88.1C316.9 88.2 316.8 88.4 316.8 88.6C316.7 88.8 316.7 89 316.7 89.2C316.7 89.4 316.7 89.6 316.8 89.8C316.9 90 316.9 90.1 317 90.3C317.1 90.4 317.3 90.6 317.4 90.6C317.5 90.6 317.7 90.7 318 90.7C318.1 90.7 318.3 90.7 318.5 90.6C318.6 90.5 318.8 90.5 318.8 90.4C318.9 90.3 319 90.2 319 90.1C319.1 90 319.1 89.8 319.1 89.6H319.6C319.5 90.1 319.4 90.4 319.1 90.7C318.8 91 318.5 91 318 91Z" fill="#010202"/>
<path d="M321.3 91C321.1 91 320.9 90.9 320.7 90.9C320.6 90.8 320.4 90.7 320.3 90.6C320.2 90.5 320.1 90.3 320 90.1C319.9 89.9 319.9 89.8 319.9 89.5C319.9 89.3 319.9 89.1 320 88.9C320.1 88.7 320.1 88.6 320.3 88.4C320.4 88.3 320.6 88.2 320.7 88.1C320.8 88 321 88 321.3 88C321.5 88 321.7 88.1 321.9 88.1C322.1 88.2 322.2 88.3 322.3 88.4C322.4 88.5 322.5 88.7 322.6 88.9C322.7 89.1 322.7 89.2 322.7 89.5C322.7 89.7 322.7 89.9 322.6 90.1C322.5 90.3 322.5 90.4 322.3 90.6C322.2 90.7 322 90.8 321.9 90.9C321.7 90.9 321.5 91 321.3 91ZM321.3 90.6C321.4 90.6 321.5 90.6 321.6 90.5C321.7 90.4 321.8 90.4 321.9 90.3C322 90.2 322 90.1 322.1 90C322.2 89.9 322.2 89.7 322.2 89.5C322.2 89.3 322.2 89.2 322.1 89C322 88.9 322 88.7 321.9 88.7L321.6 88.5C321.5 88.4 321.4 88.4 321.3 88.4C321.2 88.4 321.1 88.4 321 88.5C320.9 88.6 320.8 88.6 320.7 88.7C320.6 88.8 320.6 88.9 320.5 89C320.4 89.1 320.4 89.3 320.4 89.5C320.4 89.7 320.4 89.8 320.5 90C320.6 90.1 320.6 90.3 320.7 90.3L321 90.5C321.1 90.5 321.2 90.6 321.3 90.6Z" fill="#010202"/>
<path d="M323.9 89.5L322.9 88.2H323.5L324.1 89.2L324.8 88.2H325.3L324.4 89.4L325.4 90.9H324.9L324.1 89.8L323.3 90.9H322.8L323.9 89.5Z" fill="#010202"/>
<path d="M325.8 88.2H326.3V88.6C326.4 88.5 326.5 88.3 326.6 88.3C326.7 88.3 326.9 88.2 327.1 88.2C327.3 88.2 327.5 88.3 327.6 88.3C327.7 88.4 327.9 88.5 328 88.6C328.1 88.7 328.2 88.9 328.3 89.1C328.4 89.3 328.4 89.4 328.4 89.6C328.4 89.8 328.4 90 328.3 90.1C328.2 90.3 328.2 90.4 328 90.6C327.9 90.7 327.7 90.8 327.6 90.9C327.5 91 327.3 91 327.1 91H326.9C326.8 91 326.8 90.9 326.6 90.9L326.4 90.8L326.2 90.6V92H325.7V88.2H325.8ZM327.1 90.6C327.2 90.6 327.4 90.6 327.5 90.5C327.6 90.4 327.7 90.4 327.8 90.2C327.9 90.1 327.9 90 327.9 89.9C327.9 89.8 328 89.6 328 89.5C328 89.4 328 89.2 327.9 89.1C327.8 89 327.8 88.9 327.8 88.8C327.7 88.7 327.7 88.6 327.5 88.6C327.4 88.5 327.2 88.5 327.1 88.5C327 88.5 326.8 88.5 326.7 88.6C326.6 88.7 326.5 88.7 326.4 88.9C326.3 89 326.3 89.1 326.3 89.2C326.3 89.3 326.2 89.5 326.2 89.6C326.2 89.7 326.2 89.9 326.3 90C326.3 90.1 326.4 90.3 326.4 90.3C326.4 90.3 326.5 90.5 326.7 90.5C326.8 90.5 326.9 90.6 327.1 90.6Z" fill="#010202"/>
<path d="M329.6 91C329.5 91 329.3 91 329.3 90.9C329.2 90.9 329.1 90.8 329 90.8C328.9 90.7 328.9 90.7 328.8 90.5C328.7 90.4 328.7 90.3 328.7 90.2C328.7 90.1 328.7 89.9 328.8 89.8L329 89.5L329.3 89.4C329.4 89.4 329.5 89.3 329.6 89.3C329.7 89.3 329.9 89.2 329.9 89.2C330 89.2 330.1 89.2 330.2 89.1L330.4 89L330.5 88.8L330.4 88.5L330.3 88.4L330.1 88.3H329.9C329.7 88.3 329.6 88.4 329.4 88.4C329.3 88.5 329.2 88.6 329.2 88.8H328.7C328.7 88.6 328.8 88.5 328.8 88.4C328.9 88.3 328.9 88.2 329.1 88.1C329.2 88 329.3 88 329.4 88C329.5 88 329.7 87.9 329.9 87.9C330 87.9 330.2 87.9 330.3 87.9C330.4 87.9 330.6 88 330.6 88L330.9 88.2C331 88.3 331 88.4 331 88.6V90C331 90.1 331 90.2 331 90.3L331.1 90.4H331.2V90.7C331.1 90.8 331 90.8 330.9 90.8C330.8 90.8 330.7 90.8 330.6 90.7C330.5 90.6 330.5 90.5 330.5 90.4C330.4 90.5 330.2 90.7 330 90.7C330 90.9 329.8 91 329.6 91ZM329.7 90.6C329.8 90.6 330 90.6 330.1 90.5C330.2 90.4 330.3 90.4 330.4 90.4L330.5 90.2L330.6 90V89.5L330.4 89.6L330.1 89.7C330 89.7 329.9 89.7 329.8 89.8C329.7 89.8 329.6 89.9 329.5 89.9L329.3 90C329.2 90.1 329.2 90.1 329.2 90.3L329.3 90.5L329.4 90.6H329.7Z" fill="#010202"/>
<path d="M331.6 88.2H332.1V89.3H333.4V88.2H333.8V90.9H333.4V89.7H332.1V90.9H331.6V88.2Z" fill="#010202"/>
<path d="M334.5 88.2H335V90.4L336.2 88.2H336.8V90.9H336.3V88.7L335.1 90.9H334.5V88.2Z" fill="#010202"/>
<path d="M338.1 88.6H337.1V88.2H339.5V88.6H338.5V90.9H338.1V88.6Z" fill="#010202"/>
<path d="M339.9 88.2H340.4V89.2H341.4C341.7 89.2 341.9 89.3 342 89.4C342.1 89.5 342.3 89.7 342.3 90C342.3 90.3 342.2 90.5 342 90.6C341.8 90.7 341.6 90.9 341.4 90.9H340V88.2H339.9ZM341.1 90.5C341.5 90.5 341.7 90.4 341.7 90C341.7 89.6 341.5 89.5 341.1 89.5H340.3V90.4H341.1V90.5Z" fill="#010202"/>
<path d="M84.2 85H71.5V86.2H84.2V85Z" fill="#5B585A"/>
<path d="M84.2 88.2H71.5V89.4H84.2V88.2Z" fill="#5B585A"/>
<path d="M84.2 91.4H71.5V92.6H84.2V91.4Z" fill="#5B585A"/>
<path d="M189.692 240.665C193.628 250.094 197.564 263.537 212.905 266.847C228.145 270.058 241.568 265.543 241.568 265.543C241.568 265.543 243.688 264.54 245 263.637C244.697 263.537 244.596 263.537 244.596 263.537C244.596 263.537 241.669 262.734 233.595 262.935C225.521 263.136 211.492 263.136 203.62 250.696C195.748 238.257 185.857 213.178 177.783 199.936C169.709 186.694 149.22 158.505 149.22 158.505C149.22 158.505 148.716 157 147 157C150.432 161.615 161.029 175.96 168.497 191.208C177.48 209.566 185.756 231.134 189.692 240.665Z" fill="#EC6632"/>
<path d="M126.6 189.6C125.4 196.7 125.1 200 127.5 208.6C130.4 219.2 134.3 233.2 134.5 258.1C134.7 283.1 134.3 296.3 134.3 296.3H138.9C138.9 296.3 138.5 260.6 138 246.8C137.5 233 136.2 224.5 139.7 222.2C143.2 219.9 151.7 220.9 156.4 226.6C161.2 232.3 165.7 235.4 174.8 259.3C180.3 273.6 184.1 284.8 189.3 291.6C180.6 274.5 171.3 248.5 164.6 228.1C158.1 208.9 139.7 196.3 126.6 189.6Z" fill="#EC6632"/>
<path d="M241.7 265.2C241.2 265.3 228.2 269.6 213.4 266.5C198.3 263.3 194.3 249.9 190.4 240.4C186.5 231 178.3 209.5 169.2 191.1C161.7 175.9 151.3 161.6 147.9 157C147.1 157 146 157.4 144.5 158.5C139.9 161.8 129.2 173 127.4 184.3C127.1 186.4 126.8 188.1 126.5 189.7C139.6 196.5 158.1 208.9 164.5 228.3C171.2 248.7 180.5 274.7 189.2 291.8C192.7 296.3 196.8 298.9 202.4 299.1C216.4 299.7 243.9 300.1 264.3 295.4C284.7 290.7 289.1 287.4 289.1 287.4C289.1 287.4 290.1 286.4 290 284.9C282.3 283.9 272.3 280.7 259.8 275.6C252.6 272.6 246.5 269 241.7 265.2Z" fill="#F0834E"/>
<path d="M286.4 280.5C280.8 277.6 249 264.9 245.1 263.3C243.7 264.2 241.7 265.2 241.7 265.2C246.6 269 252.6 272.6 259.8 275.5C272.3 280.5 282.3 283.7 290 284.8C290 283.5 289.2 281.9 286.4 280.5Z" fill="#F7B499"/>
<path d="M345.7 80.3V79.8H67.0996C63.6996 79.8 61.0996 82.5 61.0996 85.8V490.6C61.0996 494 63.7996 496.6 67.0996 496.6H345.8C349.2 496.6 351.8 493.9 351.8 490.6V85.8C351.8 82.5 349.1 79.8 345.7 79.8V80.3V80.8C347.1 80.8 348.4 81.4 349.3 82.3C350.2 83.2 350.8 84.5 350.8 85.8V490.6C350.8 492 350.2 493.2 349.3 494.1C348.4 495 347.1 495.6 345.7 495.6H67.0996C65.6996 495.6 64.4996 495 63.5996 494.1C62.6996 493.2 62.0996 491.9 62.0996 490.5V85.8C62.0996 84.4 62.6996 83.2 63.5996 82.3C64.4996 81.4 65.7996 80.8 67.1996 80.8H345.8V80.3H345.7Z" fill="#777777"/>
</g>
<defs>
<clipPath id="clip0">
<rect width="423.6" height="511.5" fill="white"/>
</clipPath>
</defs>
</svg>
