<svg width="265" height="80" viewBox="0 0 265 80" fill="none" xmlns="http://www.w3.org/2000/svg">
<path d="M90.9504 58.5107L90.9071 58.5021C89.9071 58.2686 88.9423 57.8995 88.0386 57.4046C86.4038 56.5655 85.0714 55.2209 84.2319 53.5632C83.3685 51.6573 82.3976 49.8038 81.324 48.0121C80.4013 46.482 79.1911 45.1527 77.7628 44.1005C76.411 43.1325 73.7222 40.8422 71.3958 38.8146C70.2306 37.7976 69.1505 36.8422 68.3655 36.1424C67.5805 35.4426 67.085 34.9976 67.0834 34.9968L67.0649 34.9811L67.0463 34.966L66.9456 35.1041L67.0479 34.9676L66.9472 35.1057L67.0494 34.9692C66.8508 34.806 66.6722 34.619 66.5175 34.4122C66.2313 34.0581 66.0662 33.6185 66.0475 33.1602C66.0678 32.6485 66.2734 32.1625 66.6244 31.7961C66.8325 31.5408 67.0951 31.3374 67.3922 31.2015C67.6893 31.0655 68.013 31.0007 68.3385 31.0118C68.9603 31.0339 69.5713 31.1842 70.1346 31.4537C70.3396 31.5468 70.5399 31.6505 70.7346 31.7645L70.8971 31.8639L70.9374 31.8899L70.9467 31.8955L70.9691 31.9113L84.9156 39.7022L85.449 38.7112L71.525 30.9329L71.258 31.4292L71.5676 30.9613C70.6037 30.3164 69.4891 29.9439 68.3376 29.8821C67.8524 29.8718 67.3712 29.9723 66.9291 30.1763C66.487 30.3802 66.0954 30.6825 65.7828 31.0608C65.2592 31.632 64.9591 32.3788 64.939 33.1602C64.9581 33.8855 65.2154 34.5833 65.6698 35.142C65.8791 35.4162 66.1209 35.663 66.3897 35.8765L66.7203 35.4221L66.3534 35.8458C66.3534 35.8458 68.3415 37.6343 70.6788 39.6753C73.0161 41.7163 75.6941 43.9995 77.1271 45.0291C78.4398 45.9982 79.5512 47.2225 80.3973 48.6315C81.4462 50.3854 82.3954 52.1993 83.2402 54.0642C84.2395 56.0381 85.8504 57.6206 87.8227 58.566C88.7514 59.0469 89.7371 59.4038 90.7553 59.6279L90.9559 58.517L90.9504 58.5107Z" fill="black"/>
<path d="M77.5254 34.1367L78.381 28.5044V28.4255C78.3767 27.992 78.2747 27.5652 78.0829 27.1782C77.8993 26.821 77.6341 26.514 77.3098 26.2829C76.9856 26.0518 76.6116 25.9035 76.2193 25.8504C74.4123 25.5293 63.9096 24.0358 63.9019 24.0358L63.8245 24.5952L63.9289 24.0429C63.7983 24.0193 63.6659 24.0082 63.5333 24.0098C63.1094 24.0036 62.6921 24.1166 62.3271 24.3364C62.0614 24.5116 61.8361 24.7433 61.6666 25.0157C61.4971 25.2881 61.3876 25.5947 61.3455 25.9143C61.0358 27.6642 59.6422 36.3285 59.6422 36.3285L60.1903 36.4199L59.6484 36.3111C59.5998 36.5953 59.5757 36.8833 59.5764 37.1718C59.5665 37.674 59.6596 38.1727 59.8497 38.6361C59.9725 38.9276 60.1609 39.1855 60.3998 39.389C60.6387 39.5924 60.9214 39.7356 61.2247 39.8069C61.6761 39.9158 62.6035 40.0712 63.7872 40.2558C67.3222 40.8081 73.0002 41.5679 73.0002 41.5679L73.1443 40.4483C73.1396 40.4483 70.6219 40.1091 67.8975 39.7209C66.5357 39.5276 65.1235 39.321 63.949 39.1387C62.7746 38.9565 61.8394 38.7963 61.4779 38.7079C61.3388 38.678 61.2092 38.6131 61.101 38.5192C60.9928 38.4252 60.9094 38.3051 60.8585 38.1699C60.7346 37.8527 60.6753 37.5131 60.6843 37.1718C60.6848 37.0136 60.6941 36.8556 60.7122 36.6985L60.73 36.5644L60.7369 36.5257V36.5083C60.7369 36.5036 61.0853 34.3411 61.4716 31.9569C61.858 29.5727 62.2846 26.9691 62.4379 26.1131C62.4512 25.9498 62.5003 25.7917 62.5816 25.6503C62.663 25.509 62.7744 25.3881 62.9078 25.2965C63.0988 25.1875 63.3153 25.1329 63.5342 25.1387L63.689 25.1466L63.7246 25.1514H63.7401H63.7525C63.7579 25.1514 66.3847 25.5254 69.233 25.9403C72.0813 26.3553 75.1664 26.8082 76.0328 26.966C76.2564 26.9873 76.4712 27.0654 76.6576 27.1932C76.8439 27.321 76.996 27.4943 77.0997 27.6973C77.2107 27.9249 77.271 28.1746 77.2762 28.4287V28.4453L77.8305 28.4602L77.2831 28.3735L76.4315 33.9703L77.5285 34.1446L77.5254 34.1367Z" fill="black"/>
<path d="M68.9634 40.7822C68.7839 41.2695 68.6949 41.7867 68.701 42.3073C68.7004 43.0483 68.8782 43.7781 69.2189 44.4327C69.7219 45.3547 70.4547 46.1251 71.3433 46.6662C72.7964 47.6356 74.3052 48.5156 75.8615 49.3013C76.8997 49.872 78.0444 50.2132 79.2208 50.3025C80.9806 50.3104 81.6819 49.6169 81.7756 49.4946L80.9286 48.7656L81.0882 48.9037L80.9434 48.7459L80.9286 48.7624L81.0882 48.9005L80.9434 48.7427C80.4393 49.0903 79.8289 49.2408 79.2246 49.1664C78.2132 49.0734 77.2314 48.7697 76.34 48.2741C74.8251 47.5088 73.3567 46.6514 71.9426 45.7068C71.2165 45.2714 70.6163 44.6481 70.2029 43.9001C69.9473 43.4077 69.8143 42.8588 69.8158 42.3017C69.8157 42.0288 69.8475 41.7568 69.9103 41.4915L69.9714 41.2737L69.9892 41.2232V41.2153L69.8298 41.1491L69.9846 41.2177L69.825 41.1514L69.9799 41.22L68.9595 40.7791L68.9634 40.7822Z" fill="black"/>
<path d="M71.7143 46.1928C71.4975 46.5096 71.3079 46.8448 71.1475 47.1948C70.7963 47.914 70.6029 48.7026 70.5808 49.5056C70.5741 50.1024 70.7218 50.6904 71.009 51.2106C71.3738 51.8316 71.8997 52.338 72.5288 52.674C73.9359 53.4778 75.4072 54.159 76.9269 54.7103C78.036 55.1468 79.2046 55.4063 80.3914 55.4795C80.6118 55.4814 80.8317 55.4587 81.0472 55.4117C81.8093 55.1783 82.4862 54.7195 82.992 54.0934C83.2655 53.7842 83.5115 53.4507 83.7268 53.0969L82.7744 52.5194L82.7668 52.5304C82.5698 52.8473 82.3446 53.145 82.094 53.4196C81.7506 53.834 81.3007 54.1427 80.7948 54.3111C80.6624 54.3392 80.5275 54.3521 80.3923 54.3497C79.3308 54.2732 78.2868 54.0338 77.2955 53.6397C75.8356 53.1108 74.4222 52.4567 73.0707 51.6847C72.6179 51.4491 72.2383 51.0899 71.9744 50.6472C71.7825 50.2978 71.6849 49.9028 71.6918 49.5024C71.7146 48.8668 71.8714 48.2436 72.1517 47.6753C72.2485 47.4673 72.3563 47.2647 72.4745 47.0686L72.579 46.9036L72.6054 46.8642L72.6123 46.8547L71.7166 46.1904L71.7143 46.1928Z" fill="black"/>
<path d="M77.8685 31.4586L84.0745 31.0002L84.1411 30.9773L84.0458 30.6854L84.131 30.9805H84.1411L84.0458 30.6886L84.131 30.9836C84.2378 30.9568 84.3477 30.9451 84.4577 30.9489C85.012 30.9576 86.2384 31.1588 87.7868 33.1375C88.9233 34.6049 92.5048 39.7552 95.7812 44.5134C97.4225 46.8944 98.9886 49.1808 100.148 50.8723C101.307 52.5638 102.051 53.6589 102.052 53.6604L102.963 53.0167C102.963 53.0167 99.9711 48.6285 96.6916 43.8648C93.4121 39.1011 89.8446 33.9698 88.6609 32.4392C86.9731 30.2436 85.3481 29.8112 84.4632 29.8199C84.2376 29.8147 84.0124 29.8448 83.7958 29.9091L83.9708 30.4448L83.9297 29.8823L77.7935 30.3367L77.8709 31.4641L77.8685 31.4586Z" fill="black"/>
<path d="M78.3694 54.0179C71.3722 61.9784 58.7705 67.4017 44.365 67.3938C33.2204 67.3938 23.152 64.1591 15.9256 58.9954C12.5098 56.6318 9.61498 53.5686 7.4257 50.0013C5.44167 46.7416 4.37842 42.9874 4.35291 39.1517C4.37851 35.3165 5.44176 31.5628 7.4257 28.3036C10.4048 23.2662 15.4441 18.9072 21.849 15.8185C28.9099 12.5182 36.5972 10.8428 44.365 10.9112C52.7434 10.8332 61.0189 12.7953 68.503 16.6342C75.1014 20.1356 79.8922 24.9301 81.9926 29.9557C82.1082 30.2313 82.3264 30.4488 82.5994 30.5605C82.8723 30.6722 83.1776 30.6689 83.4481 30.5513C83.582 30.493 83.7032 30.4083 83.8049 30.3021C83.9066 30.196 83.9869 30.0705 84.0411 29.9328C84.0952 29.795 84.1222 29.6478 84.1205 29.4994C84.1188 29.3511 84.0883 29.2045 84.0311 29.0681C81.6419 23.3877 76.4571 18.3179 69.528 14.6303C61.728 10.6229 53.1014 8.57282 44.3665 8.65083C32.8023 8.65083 22.3128 11.9912 14.6544 17.4587C10.9853 20.0026 7.87729 23.2986 5.52895 27.1359C3.33608 30.7474 2.16252 34.9049 2.13721 39.1517C2.16246 43.3988 3.33602 47.5565 5.52895 51.1682C8.79143 56.6743 14.1806 61.2833 20.9014 64.5283C28.2586 67.9726 36.2704 69.7222 44.3665 69.6525C59.3086 69.6446 72.4654 64.0865 80.0208 55.5303C80.2171 55.3074 80.3185 55.014 80.3027 54.7148C80.2868 54.4157 80.1551 54.1352 79.9364 53.935C79.8281 53.8359 79.7016 53.7594 79.5643 53.7101C79.427 53.6607 79.2816 53.6394 79.1362 53.6474C78.9908 53.6554 78.8483 53.6925 78.717 53.7566C78.5857 53.8207 78.4682 53.9106 78.371 54.021L78.3694 54.0179Z" fill="black"/>
<path d="M25.1081 32.9352C25.6245 33.25 26.0627 33.6819 26.3885 34.1975C26.8665 34.9783 27.1908 35.8465 27.3432 36.7537C27.4474 37.3055 27.5024 37.8659 27.5073 38.4278H28.2815L27.5073 38.4208V38.4278H28.2815L27.5073 38.4208V38.5359L29.1687 38.4571L27.5057 38.4499C27.476 39.312 27.3387 40.1668 27.097 40.9935C26.9115 41.6506 26.6287 42.275 26.2585 42.8452C25.9092 43.3853 25.4292 43.8247 24.8649 44.1209C24.4709 44.3228 24.1717 44.676 24.0331 45.1026C23.8944 45.5293 23.9277 45.9946 24.1256 46.3963C24.2236 46.5951 24.359 46.7724 24.5242 46.9179C24.6894 47.0634 24.8811 47.1742 25.0884 47.2442C25.2957 47.3142 25.5144 47.3418 25.7322 47.3256C25.95 47.3094 26.1625 47.2496 26.3576 47.1497C27.4226 46.5962 28.3314 45.7748 28.9976 44.7631C29.7901 43.5328 30.3303 42.1518 30.5855 40.7032C30.7317 39.9651 30.8133 39.2153 30.8293 38.4626V38.3758L29.4257 38.4436L30.8309 38.4492V38.3758L29.4273 38.4436L30.8324 38.4492V38.4287C30.8234 37.2444 30.6535 36.0672 30.3277 34.9304C30.0665 34.0086 29.6728 33.1312 29.1594 32.3269C28.5552 31.3824 27.7467 30.5916 26.7958 30.0153C26.4159 29.7874 25.9627 29.7225 25.5359 29.8349C25.1091 29.9474 24.7436 30.2279 24.5197 30.6149C24.2957 31.0021 24.2317 31.4641 24.3419 31.8994C24.4521 32.3346 24.7274 32.7075 25.1072 32.9359L25.1081 32.9352Z" fill="black"/>
<path d="M32.6012 29.2249C33.774 30.4779 34.6358 31.9984 35.115 33.6596C35.4441 34.8665 35.6005 36.1154 35.5795 37.3677C35.5795 37.7622 35.5695 38.1172 35.5687 38.4525C35.5974 39.8603 35.4656 41.2666 35.1761 42.6434C34.7681 44.5513 33.8652 46.3127 32.5617 47.744C32.2595 48.0713 32.0973 48.5075 32.1106 48.9566C32.124 49.4058 32.3119 49.8312 32.633 50.1392C32.7921 50.2919 32.9791 50.4111 33.1835 50.4901C33.3878 50.569 33.6054 50.6062 33.8238 50.5994C34.0423 50.5925 34.2572 50.5419 34.4565 50.4504C34.6557 50.3588 34.8353 50.2282 34.985 50.0659C36.691 48.1987 37.876 45.9005 38.417 43.4095C38.7634 41.7868 38.9243 40.1287 38.8962 38.4683C38.8962 38.1992 38.9071 37.8221 38.9071 37.3748C38.9291 35.8022 38.7288 34.2345 38.3124 32.72C37.688 30.5488 36.5655 28.5603 35.0376 26.9188C34.8887 26.7561 34.7097 26.6248 34.511 26.5325C34.3123 26.4402 34.0976 26.3887 33.8793 26.3809C33.6611 26.3731 33.4435 26.4093 33.2389 26.4872C33.0344 26.5652 32.8468 26.6834 32.6871 26.8352C32.5274 26.987 32.3985 27.1694 32.308 27.3719C32.2174 27.5744 32.1669 27.7931 32.1593 28.0155C32.1517 28.2379 32.187 28.4597 32.2635 28.6682C32.34 28.8766 32.4561 29.0677 32.6051 29.2305L32.6012 29.2249Z" fill="black"/>
<path d="M40.1368 24.4664C41.8679 26.0994 43.121 28.1894 43.757 30.5042C44.2624 32.3954 44.501 34.3504 44.4654 36.3101C44.4654 37.129 44.4391 37.8414 44.4368 38.4521C44.4705 40.788 44.2477 43.1205 43.7725 45.4059C43.4595 46.8659 42.9619 48.2783 42.2922 49.6079C41.6242 50.9364 40.695 52.1105 39.5624 53.0572C39.2184 53.3383 38.9981 53.7472 38.9499 54.1938C38.9017 54.6405 39.0296 55.0884 39.3054 55.439C39.4419 55.6128 39.6107 55.7574 39.8022 55.8646C39.9936 55.9718 40.2039 56.0395 40.4211 56.0638C40.6382 56.0882 40.858 56.0687 41.0677 56.0064C41.2774 55.9441 41.4731 55.8403 41.6434 55.701C43.1308 54.4646 44.3526 52.9296 45.2326 51.1913C46.3832 48.8644 47.1312 46.3526 47.4437 43.7665C47.6699 42.0075 47.7765 40.2347 47.7627 38.4608C47.7627 37.9487 47.7913 37.1984 47.7913 36.3093C47.8271 34.0283 47.5438 31.7538 46.9498 29.5543C46.143 26.6515 44.5675 24.0311 42.3959 21.9804C42.2358 21.8291 42.048 21.7114 41.8431 21.6341C41.6383 21.5569 41.4205 21.5215 41.2023 21.5301C40.9841 21.5386 40.7696 21.591 40.5713 21.6841C40.3729 21.7772 40.1945 21.9092 40.0463 22.0727C39.8979 22.236 39.7824 22.4275 39.7066 22.6363C39.6309 22.8451 39.5962 23.067 39.6047 23.2894C39.6131 23.5119 39.6644 23.7304 39.7557 23.9326C39.847 24.1348 39.9765 24.3168 40.1368 24.4679V24.4664Z" fill="black"/>
<path d="M47.6999 20.2565C49.7768 22.7095 51.1862 25.6746 51.7876 28.8561C52.327 31.453 52.5866 34.1022 52.5617 36.7566C52.5617 37.488 52.547 38.0615 52.5463 38.4868C52.5037 41.3988 52.2068 44.3013 51.659 47.1597C51.2826 49.1875 50.7023 51.1703 49.9272 53.0769C49.2682 54.7764 48.2622 56.3139 46.976 57.5873C46.6484 57.8885 46.4516 58.31 46.429 58.759C46.4063 59.208 46.5596 59.6479 46.8552 59.9818C47.1508 60.3156 47.5644 60.5161 48.005 60.5392C48.4457 60.5622 48.8773 60.406 49.2049 60.1048C50.8483 58.5059 52.1365 56.5668 52.983 54.4181C54.2193 51.3022 55.0415 48.032 55.4278 44.6943C55.7001 42.6365 55.8491 40.5638 55.8738 38.4876C55.8738 38.1381 55.8893 37.525 55.8893 36.7519C55.9147 33.8484 55.629 30.9508 55.0376 28.1105C54.3094 24.3476 52.6237 20.8458 50.1494 17.9559C49.8502 17.6257 49.4346 17.43 48.9939 17.4118C48.5531 17.3936 48.1234 17.5544 47.7989 17.8589C47.4749 18.1638 47.2828 18.5873 47.265 19.0364C47.2471 19.4855 47.405 19.9235 47.7037 20.2541L47.6999 20.2565Z" fill="black"/>
<path d="M224.718 8.92847H148.381C148.115 8.92847 147.852 8.92848 147.587 8.93987C147.009 8.94713 146.432 8.999 145.861 9.09506C145.29 9.19418 144.737 9.38006 144.22 9.64652C143.703 9.91453 143.231 10.2637 142.82 10.6812C142.41 11.0989 142.068 11.5801 141.805 12.107C141.544 12.6339 141.361 13.1979 141.264 13.78C141.17 14.3616 141.119 14.9495 141.112 15.5389C141.105 15.809 141.102 16.078 141.101 16.347C141.101 16.6671 141.101 16.9874 141.101 17.3082V60.4618C141.101 60.7836 141.101 61.1023 141.101 61.4241C141.101 61.692 141.101 61.9621 141.112 62.2321C141.119 62.8215 141.17 63.4095 141.264 63.9911C141.362 64.5735 141.544 65.1377 141.805 65.6651C142.067 66.1915 142.41 66.6722 142.82 67.0889C143.23 67.5068 143.703 67.856 144.22 68.1235C144.737 68.3901 145.29 68.5759 145.861 68.675C146.432 68.7703 147.009 68.8222 147.587 68.8302C147.852 68.8364 148.115 68.8395 148.381 68.8405C148.694 68.8405 149.008 68.8405 149.323 68.8405H224.718C225.032 68.8405 225.346 68.8405 225.66 68.8405C225.923 68.8405 226.188 68.8405 226.454 68.8302C227.032 68.822 227.609 68.7701 228.18 68.675C228.751 68.5756 229.303 68.3898 229.82 68.1235C230.337 67.8562 230.809 67.507 231.219 67.0889C231.628 66.6714 231.971 66.1909 232.234 65.6651C232.496 65.1379 232.678 64.5736 232.775 63.9911C232.87 63.4095 232.921 62.8215 232.928 62.2321C232.935 61.9621 232.938 61.6931 232.939 61.4241C232.939 61.1023 232.939 60.7836 232.939 60.4618V17.3113C232.939 16.9895 232.939 16.6698 232.939 16.3501C232.939 16.0821 232.939 15.8121 232.928 15.542C232.921 14.9527 232.87 14.3647 232.775 13.7831C232.679 13.2008 232.496 12.6368 232.234 12.1101C231.971 11.5838 231.628 11.1028 231.219 10.6843C230.809 10.2665 230.337 9.91734 229.82 9.64965C229.303 9.38344 228.751 9.19753 228.18 9.09815C227.609 9.00235 227.032 8.95048 226.454 8.94296C226.188 8.93572 225.923 8.93263 225.66 8.93159L224.718 8.92847Z" fill="black"/>
<path d="M224.718 10.9309H225.646C225.898 10.9309 226.154 10.9308 226.401 10.9422C226.881 10.9474 227.36 10.9885 227.834 11.0654C228.217 11.1309 228.588 11.2547 228.935 11.4327C229.267 11.6043 229.57 11.8289 229.833 12.0979C230.099 12.368 230.32 12.6791 230.49 13.0198C230.665 13.3725 230.785 13.7504 230.848 14.1404C230.924 14.6233 230.964 15.1113 230.968 15.6003C230.976 15.8538 230.979 16.1083 230.98 16.369C230.98 16.6794 230.98 16.9991 230.98 17.3147V60.4684C230.98 60.784 230.98 61.0984 230.98 61.4192C230.98 61.6737 230.98 61.9293 230.968 62.1838C230.964 62.6739 230.923 63.163 230.847 63.6468C230.785 64.0358 230.664 64.4128 230.489 64.7643C230.32 65.1039 230.099 65.414 229.834 65.6831C229.57 65.953 229.265 66.1786 228.932 66.3514C228.587 66.5284 228.218 66.6512 227.837 66.7156C227.365 66.7923 226.888 66.8338 226.41 66.8398C226.157 66.846 225.902 66.8501 225.645 66.8501C225.341 66.8501 225.028 66.8501 224.719 66.8501H149.312C149.007 66.8501 148.703 66.8501 148.392 66.8501C148.139 66.8501 147.884 66.8501 147.642 66.8398C147.161 66.834 146.682 66.7929 146.208 66.7167C145.825 66.6513 145.454 66.5274 145.107 66.3494C144.774 66.1771 144.471 65.9514 144.208 65.681C143.943 65.4128 143.723 65.1034 143.554 64.7643C143.38 64.4109 143.258 64.0328 143.194 63.6427C143.119 63.1605 143.078 62.6732 143.073 62.1849C143.067 61.9283 143.064 61.6737 143.062 61.4192V16.3639C143.062 16.1073 143.063 15.8527 143.073 15.5962C143.078 15.106 143.12 14.617 143.197 14.1331C143.26 13.7435 143.38 13.3657 143.554 13.0126C143.724 12.6741 143.944 12.3648 144.208 12.0959C144.472 11.8267 144.776 11.6015 145.109 11.4285C145.456 11.2513 145.827 11.1278 146.209 11.0622C146.684 10.9854 147.164 10.9443 147.645 10.9391C147.894 10.9319 148.146 10.9288 148.395 10.9277H224.721" fill="#F2F2F2"/>
<path d="M165.242 29.1525C166.085 28.1239 166.503 26.8025 166.41 25.4661C165.117 25.5916 163.921 26.2219 163.074 27.225C162.653 27.7048 162.331 28.2652 162.125 28.8736C161.92 29.4819 161.836 30.1258 161.878 30.7677C162.523 30.7796 163.162 30.64 163.745 30.3597C164.329 30.0795 164.841 29.6661 165.242 29.1515" fill="black"/>
<path d="M166.395 31.0242C164.537 30.9114 162.956 32.0982 162.069 32.0982C161.182 32.0982 159.822 31.08 158.354 31.108C157.398 31.1328 156.465 31.412 155.648 31.9179C154.83 32.4237 154.157 33.1386 153.695 33.9916C151.698 37.497 153.168 42.7003 155.11 45.556C156.052 46.9693 157.189 48.5244 158.686 48.4696C160.101 48.4137 160.655 47.5384 162.375 47.5384C164.095 47.5384 164.592 48.4696 166.09 48.4437C167.643 48.4158 168.613 47.0304 169.556 45.6149C170.225 44.6135 170.747 43.5185 171.107 42.3641C170.215 41.967 169.455 41.3153 168.919 40.4875C168.383 39.6598 168.094 38.6916 168.086 37.6998C168.098 36.8194 168.327 35.9563 168.753 35.1903C169.179 34.4242 169.787 33.7799 170.522 33.317C170.053 32.6375 169.436 32.0775 168.719 31.6804C168.003 31.2833 167.206 31.0598 166.391 31.0273" fill="black"/>
<path d="M184.92 27.0831C185.83 27.0364 186.74 27.1845 187.591 27.5179C188.442 27.8514 189.216 28.3627 189.861 29.0191C190.506 29.6754 191.009 30.4622 191.338 31.3288C191.667 32.1953 191.814 33.1225 191.77 34.0505C191.808 34.9871 191.654 35.9215 191.317 36.7937C190.98 37.666 190.468 38.4569 189.814 39.1155C189.159 39.7742 188.377 40.2862 187.517 40.6187C186.657 40.9511 185.738 41.0966 184.819 41.0459H180.352V48.2885H177.121V27.0831H184.92ZM180.351 38.2823H184.058C186.87 38.2823 188.47 36.7396 188.47 34.065C188.47 31.3904 186.869 29.8612 184.072 29.8612H180.351V38.2823Z" fill="black"/>
<path d="M192.573 43.8992C192.573 41.179 194.604 39.6208 198.361 39.386L202.384 39.1366V37.9602C202.384 36.2416 201.274 35.3001 199.299 35.3001C198.619 35.2237 197.935 35.4004 197.373 35.7974C196.811 36.1944 196.409 36.785 196.241 37.4604H193.327C193.414 34.7114 195.953 32.7124 199.385 32.7124C203.079 32.7124 205.487 34.6782 205.487 37.7388V48.2923H202.502V45.7502H202.429C201.949 46.5963 201.253 47.2943 200.415 47.7704C199.577 48.2465 198.629 48.4829 197.67 48.4547C194.664 48.4547 192.573 46.6317 192.573 43.8992ZM202.38 42.5313V41.3404L198.79 41.5764C196.771 41.7078 195.718 42.4723 195.718 43.8112C195.718 45.1045 196.814 45.9416 198.53 45.9416C200.726 45.9416 202.38 44.5158 202.38 42.5323V42.5313Z" fill="black"/>
<path d="M208.227 53.9674V51.4242C208.543 51.4604 208.86 51.4801 209.178 51.4832C209.821 51.5301 210.458 51.3297 210.962 50.9214C211.467 50.5132 211.803 49.9269 211.904 49.2783L212.193 48.3378L206.726 32.9048H210.101L213.909 45.4242H213.981L217.789 32.9048H221.079L215.409 49.1169C214.111 52.8344 212.626 54.0553 209.482 54.0553C209.062 54.0566 208.642 54.0272 208.227 53.9674Z" fill="black"/>
</svg>
