<svg xmlns="http://www.w3.org/2000/svg" xmlns:xlink="http://www.w3.org/1999/xlink" width="683" height="683" viewBox="0 0 683 683">
    <defs>
        <path id="a" d="M0 .493h74.545v55.043H0z"/>
        <path id="c" d="M1.314 11.824A1.427 1.427 0 0 0 .05 13.145c-.052.855.672 1.56 1.54 1.498L120.944 6.08 120.708.68 1.314 11.824z"/>
        <linearGradient id="d" x1="0%" y1="49.999%" y2="49.999%">
            <stop offset="0%" stop-color="#A3B1DD"/>
            <stop offset="100%" stop-color="#FF7E59"/>
        </linearGradient>
        <path id="f" d="M.343.811H13.88v262.152H.343z"/>
        <path id="h" d="M.34 36.965c0 14.457 5.89 27.536 15.398 36.98l36.856-36.84-37-36.982C6.17 9.556.342 22.58.342 36.965"/>
        <linearGradient id="i" x1="61.125%" x2="27.316%" y1="74.029%" y2="26.567%">
            <stop offset="0%" stop-color="#FFF"/>
            <stop offset="100%" stop-color="#E8EDFB"/>
        </linearGradient>
        <path id="k" d="M.34 36.965c0 14.457 5.89 27.536 15.398 36.98l36.856-36.84-37-36.982C6.17 9.556.342 22.58.342 36.965"/>
        <path id="m" d="M.765.488h71.368V13.54H.765z"/>
        <path id="o" d="M.343 5.194c-.705 4.238 3.526 7.347 7.333 8.053 45.258 8.397 161.014 28.321 172.505 51.35.696 1.395.475 2.12.167 2.644-2.343 3.982-15.205 6.274-23.59 6.628-1.634.07-2.98.704-2.98 2.118 0 .988 1.058 1.696 2.272 1.698l.126-.002c2.68 0 8.25-.354 12.554-1.118 8.949-1.59 13.818-3.545 16.216-6.796.744-1.009 1.475-2.345 1.493-4.087v-.133c-.011-1.051-.282-2.248-.96-3.607-6.48-12.986-39.05-27.292-96.805-42.52C46.187 8.218 9.074.891 8.663.812A11.86 11.86 0 0 0 6.389.578C2.764.578.774 2.598.343 5.194"/>
    </defs>
    <g fill="none" fill-rule="evenodd">
        <path fill="#B3BEE2" d="M217.242 500.008H90.872c-.987 0-1.681-.772-1.787-1.784 0 0 .861-4.881 1.124-12.88.212-6.417.493-9.122.879-10.77.907-3.87 2.304-6.012 5.55-7.227 2.53-.947 106.271-35.538 106.271-35.538l14.333 68.199z"/>
        <g transform="translate(89 444.471)">
            <mask id="b" fill="#fff">
                <use xlink:href="#a"/>
            </mask>
            <path fill="#A4B1DD" d="M74.545.493C45.437 10.213 8.635 22.52 7.217 23.05c-3.246 1.215-4.216 2.982-5.27 6.876-.442 1.634-1.019 4.35-1.51 9.928C-.26 47.749.085 53.753.085 53.753c.105 1.012.8 1.783 1.787 1.783H67.79c-.466-24.908.312-39.776 1.361-46.588.867-5.627 3.39-7.613 5.393-8.455" mask="url(#b)"/>
        </g>
        <g transform="translate(98 476)">
            <mask id="e" fill="#fff">
                <use xlink:href="#c"/>
            </mask>
            <path fill="url(#d)" d="M1.314 11.824A1.427 1.427 0 0 0 .05 13.145c-.052.855.672 1.56 1.54 1.498L120.944 6.08 120.708.68 1.314 11.824z" mask="url(#e)"/>
        </g>
        <path fill="#B3BEE2" d="M173.75 445.635L90.508 471.43s.5-1.209 1.507-2.162c.952-.899 2.063-1.35 2.688-1.578 1.072-.393 81.055-27.24 81.055-27.24l-2.01 5.186z"/>
        <path fill="#95A4D7" d="M193.634 444.894l-26.237 7.383a1.757 1.757 0 0 0-1.282 1.514c-.613 6.172-.648 13.24-.398 20.048a1.176 1.176 0 0 0 1.343 1.117l25.94-3.704.634-26.358zM146.517 458.152l-51.284 14.407c-.394.11-.78.531-.928.914-.905 2.331-1.562 8.097-1.405 11.361.018.382.361.66.739.604l51.617-7.208c.465-.066.777-.474.782-.944.053-5.875.634-13.708 1.202-18.514a.572.572 0 0 0-.723-.62"/>
        <g transform="translate(180.538 110)">
            <mask id="g" fill="#fff">
                <use xlink:href="#f"/>
            </mask>
            <path fill="#8697D1" d="M12.725 242.356L1.992 262.498c-.43.805-1.65.5-1.65-.413V7.585A6.772 6.772 0 0 1 7.113.812c3.739 0 6.77 3.034 6.77 6.775v230.142a9.844 9.844 0 0 1-1.157 4.628" mask="url(#g)"/>
        </g>
        <path fill="#B3BEE2" d="M197.084 263.244h-18.867a1.426 1.426 0 0 1-1.425-1.426V122.4c0-.788.638-1.426 1.425-1.426h18.867c.787 0 1.426.638 1.426 1.426v139.418c0 .787-.639 1.426-1.426 1.426"/>
        <path fill="#D2D8EE" d="M254.214 192.109c0 36.792-29.801 66.619-66.564 66.619-36.762 0-66.563-29.827-66.563-66.62 0-36.791 29.801-66.618 66.563-66.618 36.763 0 66.564 29.827 66.564 66.619"/>
        <path fill="#8697D1" d="M242.933 192.109c0 30.557-24.751 55.327-55.282 55.327-30.532 0-55.283-24.77-55.283-55.327s24.751-55.327 55.283-55.327c30.53 0 55.282 24.77 55.282 55.327"/>
        <path fill="#FFF" d="M240.112 192.109c0 28.998-23.488 52.504-52.462 52.504-28.974 0-52.461-23.506-52.461-52.504 0-28.998 23.487-52.505 52.461-52.505s52.462 23.507 52.462 52.505"/>
        <g transform="translate(136 155)">
            <mask id="j" fill="#fff">
                <use xlink:href="#h"/>
            </mask>
            <path fill="url(#i)" d="M.34 36.965c0 14.457 5.89 27.536 15.398 36.98l36.856-36.84-37-36.982C6.17 9.556.342 22.58.342 36.965" mask="url(#j)"/>
        </g>
        <g transform="translate(136 155)">
            <mask id="l" fill="#fff">
                <use xlink:href="#k"/>
            </mask>
            <path d="M.34 36.965c0 14.457 5.89 27.536 15.398 36.98l36.856-36.84-37-36.982C6.17 9.556.342 22.58.342 36.965" mask="url(#l)"/>
        </g>
        <g>
            <path fill="#8697D1" d="M188.323 160.236a.995.995 0 0 0-.994.951l-1.65 33.11h5.287l-1.65-33.11a.995.995 0 0 0-.993-.95"/>
            <path fill="#FF7E59" d="M159.847 163.587a.996.996 0 0 0-.03 1.376l25.226 27.572 3.738-3.74-27.56-25.238a.994.994 0 0 0-1.374.03"/>
            <path fill="#FFF" d="M193.398 191.97a5.077 5.077 0 0 1-5.075 5.078 5.077 5.077 0 0 1 0-10.155 5.077 5.077 0 0 1 5.075 5.077"/>
            <path fill="#D2D8EE" d="M192.164 191.97a3.843 3.843 0 0 1-7.683 0 3.843 3.843 0 1 1 7.683 0"/>
            <path fill="#E9EEFB" d="M191.213 148.97a2.89 2.89 0 1 1-2.89-2.89 2.89 2.89 0 0 1 2.89 2.89M191.213 234.97a2.89 2.89 0 1 1-2.89-2.892 2.89 2.89 0 0 1 2.89 2.892M145.343 189.08a2.89 2.89 0 1 1 0 5.78 2.89 2.89 0 0 1 0-5.78M231.303 189.08a2.89 2.89 0 1 1-.001 5.78 2.89 2.89 0 0 1 0-5.78M169.336 153.286a2.89 2.89 0 1 1-5.006 2.892 2.892 2.892 0 0 1 1.058-3.95 2.889 2.889 0 0 1 3.948 1.058M212.316 227.763a2.89 2.89 0 1 1-5.006 2.892 2.892 2.892 0 0 1 1.058-3.95 2.889 2.889 0 0 1 3.948 1.058M149.656 210.966a2.89 2.89 0 1 1 2.89 5.008 2.891 2.891 0 0 1-2.89-5.008M224.1 167.967a2.89 2.89 0 1 1 2.89 5.008 2.891 2.891 0 0 1-2.89-5.008M152.546 167.967a2.891 2.891 0 1 1-2.893 5.007 2.891 2.891 0 0 1 2.893-5.007M226.99 210.966a2.891 2.891 0 1 1-2.893 5.007 2.891 2.891 0 0 1 2.893-5.007M164.33 227.763a2.889 2.889 0 0 1 3.948-1.058 2.892 2.892 0 0 1 1.058 3.95 2.89 2.89 0 1 1-5.006-2.892M207.31 153.286a2.889 2.889 0 0 1 3.948-1.058 2.892 2.892 0 0 1 1.058 3.95 2.89 2.89 0 1 1-5.006-2.892M553.166 500.002c13.252-39.21 4.793-100.421-.282-120.73-3.701-14.813-8.541-25.481-14.098-36.67-21.992-44.287-50.75-101.832-71.051-130.322-14.346-20.135-31.014-19.182-45.112-19.182h-78.945c-27.632 0-40.602 16.362-48.496 27.644-7.895 11.283-99.246 158.53-107.705 173.762-8.458 15.232-17.763 32.157-14.944 56.416 3.713 31.942 32.424 46.825 42.857 49.082h337.776z"/>
            <path fill="#FF7E59" d="M392.247 422.712h-34.808c-11.204 0-19.414-10.55-16.67-21.417l1.217-4.816h56.887l-6.626 26.233zM229.885 402.02l2.204-5.541h-45.75c-4.404 7.964-8.884 16.449-11.643 26.233h24.7c13.44 0 25.52-8.2 30.49-20.692"/>
            <path fill="#2469BD" d="M362.99 396.479v17.488h37.528l1.738-17.488z"/>
            <path fill="#D2D8EE" d="M390.692 471.23H179.05c8.955 16.1 24.458 24.958 33.342 27.926h165.613l12.687-27.926z"/>
            <path fill="#2469BD" d="M229.885 402.02l2.204-5.541H193.07v17.488h28.622a32.766 32.766 0 0 0 8.193-11.947"/>
            <path fill="#FFF" d="M376.962 396.479a12.401 12.401 0 0 0-1.638 4.056 12.381 12.381 0 0 0-1.638-4.056h-21.125a12.396 12.396 0 0 0-1.909 6.611c0 6.89 5.582 12.476 12.468 12.476 6.01 0 11.025-4.256 12.204-9.918 1.179 5.662 6.195 9.918 12.204 9.918 6.887 0 12.468-5.586 12.468-12.476 0-2.43-.706-4.693-1.909-6.611h-21.125z"/>
            <path fill="#FF7E59" d="M232.089 396.479h-.143c.03.047.055.097.085.145l.058-.145z"/>
            <path fill="#FFF" d="M229.885 402.02l2.146-5.396c-.03-.048-.055-.098-.085-.145h-21.125a12.407 12.407 0 0 0-1.638 4.056 12.389 12.389 0 0 0-1.638-4.056H186.42a12.4 12.4 0 0 0-1.91 6.612c0 6.89 5.583 12.475 12.47 12.475 6.009 0 11.024-4.255 12.203-9.918a12.472 12.472 0 0 0 10.763 9.824 32.783 32.783 0 0 0 9.94-13.452"/>
            <path fill="#D2D8EE" d="M553.166 500.002c13.252-39.21 4.793-100.421-.282-120.73-3.701-14.813-8.541-25.481-14.098-36.67-21.992-44.287-50.75-101.832-71.051-130.322-6.527-9.16-13.534-13.947-20.562-16.453-7.988 32.808-51.805 212.69-55.846 228.013-8.036 30.465-25.376 63.468-72.32 63.468H192.27c8.717 7.53 18.064 11.6 23.12 12.694h337.776z"/>
            <path fill="#C3CBE7" d="M526.883 318.725c-8.834-17.612-18.234-36.04-27.43-53.142 15.086 65.17 30.311 177.439 13.608 234.419h24.681c14.578-56.416.48-138.219-10.86-181.277"/>
            <path fill="#B3BEE2" d="M552.884 379.271c-3.701-14.812-8.541-25.48-14.098-36.67a6551.66 6551.66 0 0 0-11.903-23.877c12.429 51.435 24.31 124.298 10.86 181.278h15.423c13.252-39.21 4.793-100.421-.282-120.73"/>
            <path fill="#FFF" d="M295.234 220.742c-7.47 10.677-89.658 143.079-105.645 170.197 0 0 129.312-190.295 131.293-193.292-12.766 5.665-20.35 15.523-25.648 23.095M396.895 419.397l79.084-194.673c-2.878-4.57-5.65-8.755-8.279-12.444-6.54-9.178-13.562-13.966-20.603-16.469L392.12 420.773l4.776-1.376zM151.433 145.99c-5.782-.019-8.853-2.788-8.834-8.888a4.08 4.08 0 0 1-.228-.001c-.02 6.1-3.157 8.85-8.89 8.83a.664.664 0 0 0 .004.229c5.727.02 8.848 3.088 8.83 8.888.071.006.16.02.228 0 .018-5.8 3.107-8.846 8.88-8.83 0 0 .008-.117.01-.229"/>
            <path fill="#535785" d="M237.1 321.022h179.603c9.093 0 23.05-6.982 27.173-17.136 0 0 11.1-27.397 14.695-36.389 4.149-10.373-9.937-28.137-21.885-28.137H292.503c-3.806 0-18.044 13.963-26.714 27.926a47922.362 47922.362 0 0 1-23.473 37.728c-6.943 11.142-6.203 16.008-5.216 16.008"/>
            <path fill="#4771DD" d="M443.875 303.886s11.102-27.397 14.697-36.389c4.147-10.373-9.939-28.137-21.886-28.137h-.32l-19.988 81.662h.324c9.093 0 23.05-6.982 27.173-17.136"/>
            <path fill="#FF7E59" d="M292.503 239.36c-3.806 0-18.044 13.963-26.714 27.926a47922.362 47922.362 0 0 1-23.473 37.728c-6.935 11.13-6.204 15.996-5.218 16.007 18.596-27.37 39.298-57.843 55.475-81.661h-.07z"/>
            <path fill="#42426C" d="M338.831 321.022l1.658-6.635c1.298-5.191-2.627-10.22-7.975-10.22h-36.52c-4.91 0-9.19 3.344-10.381 8.11l-2.185 8.745h55.403zM416.368 321.022l1.658-6.635c1.296-5.191-2.628-10.22-7.976-10.22h-36.52c-4.91 0-9.19 3.344-10.38 8.11l-2.185 8.745h55.403z"/>
            <path fill="#B3BEE2" d="M232.089 396.479h-.143c.03.047.055.097.085.145l.058-.145z"/>
            <path fill="#D2D8EE" d="M231.946 396.479h-21.125a12.408 12.408 0 0 0-1.61 3.948h21.307l1.513-3.803c-.03-.048-.055-.098-.085-.145M207.545 396.479H186.42a12.484 12.484 0 0 0-1.62 3.948h24.356a12.408 12.408 0 0 0-1.61-3.948M373.722 396.479h-21.126a12.523 12.523 0 0 0-1.62 3.948h24.355a12.407 12.407 0 0 0-1.61-3.948M376.997 396.479a12.407 12.407 0 0 0-1.61 3.948h24.357a12.523 12.523 0 0 0-1.621-3.948h-21.126z"/>
            <path fill="#E86A46" d="M391.62 422.712l6.467-26.233 3.023 1.82c2.495 1.502 2.646 4.7 1.424 7.347l-5.478 13.586a5.985 5.985 0 0 1-5.436 3.48"/>
            <path fill="#535785" d="M407.38 229.205h-78.686c-.92 0-1.495-.998-1.032-1.794l8.632-14.853a3.108 3.108 0 0 1 2.687-1.547h74.821c.808 0 1.382.785 1.138 1.555l-4.598 14.47a3.107 3.107 0 0 1-2.962 2.169"/>
            <path fill="#42426C" d="M327.662 227.411a1.194 1.194 0 0 0 1.032 1.794h3.494c.141-.776 3.666-15.303 3.952-16.384l-8.478 14.59zM371.374 225.367c.051.165.048.23.098.254.025.011.697.214.716.044.212-1.816 5.173-3.7 5.509-2.14.44-.661.9-1.323 1.078-2.138.006-.114.044-.152.044-.152-.442-1.42-8.697-.002-7.445 4.132m7.527-6.1v-.002a6.425 6.425 0 0 0-.675-2.355c-2.429-2.915-11.763.087-8.57 7.623.098.231.229.36.292.32.065-.044.357-.07.325-.296-.848-5.897 6.548-7.305 8.628-5.29m-2.65-4.436c.052.021.501.225.395.1a1.389 1.389 0 0 0-.39-.328c-7.506-4.294-13.388 5.908-7.66 10.541.218.178.37.303.42.306.069.005 1.345.918.409-.559-3.552-5.586.664-13.052 6.826-10.06"/>
            <path fill="#42426C" d="M378.199 216.936c-.511 1.53-5.266-1.105-5.986-2.558-.074-.157-.14-.193-.166-.183-.052.016-.09.074-.124.244-.443 2.15 4.288 6.043 6.977 5.043a.674.674 0 0 0-.014-.184 6.591 6.591 0 0 0-.688-2.362m-7.712-1.95c.043-.227.069-.32.013-.373-.055-.054-.178.082-.328.287-2.948 4.09 3.489 10.304 7.677 8.693a6.621 6.621 0 0 0 .938-2.293v-.003c-2.297 1.788-9.025-2.4-8.3-6.312m-.777-.684c.182-.167.359-.327.293-.337-.05-.008-.23.077-.475.218-4.586 2.634-3.505 10.825 2.468 12.304v.005c.173.017.35.028.523.028.699 0 1.395-.118 2.055-.35a7.094 7.094 0 0 0 1.459-.731c.06-.04.122-.082.18-.125-5.209 1.638-11.21-6.486-6.503-11.012"/>
            <path fill="#535785" d="M328.452 500.002H227.443l-8.41-9.007c-1.303-1.394-.314-3.673 1.595-3.673h93.168c3.364 0 6.528 1.602 8.518 4.315l6.138 8.365z"/>
            <g transform="translate(408.747 486.497)">
                <mask id="n" fill="#fff">
                    <use xlink:href="#m"/>
                </mask>
                <path fill="#42426C" d="M64.877 5.307L13.5.524C6.636-.037.765 5.918.765 13.541h71.368c0-4.253-2.761-7.813-7.256-8.234" mask="url(#n)"/>
            </g>
        </g>
        <g transform="translate(408 400)">
            <mask id="p" fill="#fff">
                <use xlink:href="#o"/>
            </mask>
            <path d="M.343 5.194c-.705 4.238 3.526 7.347 7.333 8.053 45.258 8.397 161.014 28.321 172.505 51.35.696 1.395.475 2.12.167 2.644-2.343 3.982-15.205 6.274-23.59 6.628-1.634.07-2.98.704-2.98 2.118 0 .988 1.058 1.696 2.272 1.698l.126-.002c2.68 0 8.25-.354 12.554-1.118 8.949-1.59 13.818-3.545 16.216-6.796.744-1.009 1.475-2.345 1.493-4.087v-.133c-.011-1.051-.282-2.248-.96-3.607-6.48-12.986-39.05-27.292-96.805-42.52C46.187 8.218 9.074.891 8.663.812A11.86 11.86 0 0 0 6.389.578C2.764.578.774 2.598.343 5.194" mask="url(#p)"/>
        </g>
    </g>
</svg>
