<svg xmlns="http://www.w3.org/2000/svg" xmlns:xlink="http://www.w3.org/1999/xlink" width="683" height="683" viewBox="0 0 683 683">
    <defs>
        <path id="a" d="M0 466h489V0H0z"/>
    </defs>
    <g fill="none" fill-rule="evenodd" transform="translate(97 109)">
        <path fill="#8697D1" d="M52.594 40.207S48.3 32.981 50.76 25.9c2.24-6.449 5.493-11.604 14.458-11.89 6.313-.202 10.182 3.023 15.68 7.053 5.498 4.03 8.145 8.868 6.72 14.309-1.756 6.703-5.702 7.523-5.702 7.523L59.381 48l-6.787-7.793z"/>
        <mask id="b" fill="#fff">
            <use xlink:href="#a"/>
        </mask>
        <path fill="#8697D1" d="M200 19h2V6h-2zM207 23h2V10h-2z" mask="url(#b)"/>
        <path fill="#C3CBE8" d="M211.542 29.6L211 65s59.667-27.63 63.108-29.768C277.55 33.094 293 18 293 18s-21.509-.095-35.955 2.212c-12.595 2.011-17.059 7.62-33.112 8.649-7.313.47-12.391.738-12.391.738" mask="url(#b)"/>
        <path fill="#A4B1DD" d="M212 36.038V74s16.184-2.423 25.086-5.923c8.901-3.5 12.503-7.155 16.79-11.106 5.26-4.846 9.509-8.48 14.769-11.105 9.231-4.608 11.936-1.212 18.005 1.413C290.363 48.885 294 18 294 18s-15.914.269-29.67 3.769c-8.559 2.177-16.32 9.02-30.212 11.577C223.37 35.326 212 36.038 212 36.038" mask="url(#b)"/>
        <path fill="#E1E5F3" d="M174.814 2.109v10.623c0 1.056-.762 2.02-1.815 2.125a2.024 2.024 0 0 1-2.234-2.01V2.528a.838.838 0 0 0-.9-.836l-15.057 1.102a.837.837 0 0 0-.778.835v10.18c0 1.057-.762 2.02-1.816 2.125a2.024 2.024 0 0 1-2.233-2.01V4.049a.838.838 0 0 0-.9-.836l-13.338.976a.8.8 0 0 0-.743.798v34.42L193 58V0l-17.408 1.273a.839.839 0 0 0-.778.836" mask="url(#b)"/>
        <path fill="#B3BEE2" d="M200.271 4.477v11.837c0 .74.152 1.415.516 1.684.418.31.88-.079.88-.855V5.524c0-.245.143-.353.311-.241l5.192 3.438c.152.1.269.282.269.502v11.393c0 .622.196 1.415.56 1.684.418.309.836-.158.836-.867V10.27c0-.28.142-.353.31-.241l4.6 3.045c.144.096.255.31.255.615V71l-20-12.838V0l6.003 3.974c.151.101.268.266.268.503" mask="url(#b)"/>
        <path fill="#7582B8" d="M168 39h-9V25.982c0-2.75 2.014-4.982 4.5-4.982 2.485 0 4.5 2.231 4.5 4.982V39z" mask="url(#b)"/>
        <path fill="#8697D1" d="M45.708 94s-25.115-2.838-24.703-21.287c.226-10.136 8.569-12.976 8.44-18.043-.206-8.109 2.814-10.763 6.176-12.569 2.264-1.216 3.294-5.676 11.322-6.082 7.208-.364 13.38 4.46 16.057 12.164l-2.059 40.343L45.708 94z" mask="url(#b)"/>
        <path fill="#D2D8EE" d="M105 42.234l-9.908 15.698s-34.01 1.382-33.073-8.298c.938-9.682 42.981-7.4 42.981-7.4" mask="url(#b)"/>
        <path fill="#C3CBE8" d="M59 53.22c.526-4.318.402-4.779 1.426-6.67 1.9-3.51 6.497-6.23 17.754-6.776 8.316-.404 20.532.222 30.246-.527C126.621 37.843 143.042 37 152.692 37c.975.046 2.07.457 2.07 1.405 0 2.106.238 4.072.238 4.072s-22.54 1.123-46.846 2.95c-7.8.585-19.553.877-27.02.983-9.98.14-17.246 2.808-18.332 6.6-.498 1.739-2.478.773-3.802.21" mask="url(#b)"/>
        <path fill="#B3BEE2" d="M98.942 54.078c-4.66-1.081-5.023-5.92-1.96-8.186.205-.152 8.067-3.295 21.693-4.182 14.51-.945 19.664-2.906 35.285-3.514 11.72-.456 16.101-1.42 17.335-1.149 1.233.27 1.507.811 1.644 2.433.137 1.622 0 28.52 0 28.52s-69.337-12.841-73.997-13.922" mask="url(#b)"/>
        <path fill="#C3CBE8" d="M403 191h16v-9.72c-5.053-12.42-16-17.28-16-17.28v27z" mask="url(#b)"/>
        <path fill="#95A4D7" d="M303.659 141.681s-6.661-7.439 1.104-15.825c6.35-6.858 17.946-2.902 20.154-.791C327.8 127.818 326.85 143 326.85 143l-23.191-1.319z" mask="url(#b)"/>
        <path fill="#8697D1" d="M155.072 69.186s-5.843-7.908-3.53-14.764c1.9-5.637 5.16-5.1 7.875-8.053C162.134 43.416 164.69 41 170.553 41c4.888 0 8.69 4.027 10.863 7.785 2.429 4.201 5.815 5.598 10.32 3.49 5.16-2.417 9.996-4.23 14.123-3.76 7.062.806 11.482 4.583 14.666 9.128 2.444 3.49 2.173 6.443 3.531 10.47 1.357 4.026 1.594 8.785-1.63 12.347-4.617 5.1-9.777 6.71-15.209 7.516-5.432.805-52.145-18.79-52.145-18.79" mask="url(#b)"/>
        <path fill="#C3CBE8" d="M93.52 50L88 92.497s46.082 12.708 57.526 14.798c11.445 2.092 17.401 3.218 24.811 6.613 16.929 7.756 11.124 11.553 22.185 19.669 9.164 6.724 27.587 14.333 49.653 17.435 27.044 3.801 42.91 6.89 57.245 13.578 14.334 6.688 42.627 24.41 42.627 24.41l20.953-.15-.35-48.882s-35.642 1.069-61.788-2.005c-14.904-1.75-25.623-5.792-39.281-13.027-13.658-7.235-38.015-26.344-48.69-34.96-10.674-8.614-34.446-22.024-51.08-26.794-17.902-5.133-35.584-6.46-50.178-8.09C94.52 53.181 93.52 50 93.52 50" mask="url(#b)"/>
        <path fill="#95A4D7" d="M388 141h45v-23h-45z" mask="url(#b)"/>
        <path fill="#8697D1" d="M330 140h3v-24h-3zM341 138h3v-25h-3z" mask="url(#b)"/>
        <path fill="#A4B1DD" d="M426.291 116.33s-5.917-10.15-1.883-17.008c4.034-6.857 9.952-4.114 14.255-3.84 4.303.275 5.648-3.017 5.648-6.309 0-3.292.48-9.283 5.38-12.893 4.841-3.566 12.573-2.388 15.061-.274 3.227 2.743 4.841 6.31 4.304 12.344-.538 6.035-.538 9.326 2.69 11.247 2.077 1.236 5.916 2.469 6.992 7.132 1.257 5.447-2.42 9.052-2.42 9.052V138h-47.606l-2.42-21.67z" mask="url(#b)"/>
        <path fill="#B3BEE2" d="M281 144s-23.414-6.89-60.554-36.716c-18.288-14.687-32.513-26.654-56.626-35.357C143.49 64.59 116 62 116 62s39.015 32.637 78.03 52.627C233.044 134.617 281 144 281 144" mask="url(#b)"/>
        <path fill="#F0F2F9" d="M416.67 189.588h-8.838a.713.713 0 0 1-.712-.712V162.33a13.17 13.17 0 0 1 4.775-10.158 13.17 13.17 0 0 1 4.774 10.158v27.257zM483.13 110H449.73a2.097 2.097 0 0 0-2.097 2.097v20.386c0 1.15-.933 2.084-2.085 2.084h-3.14a2.085 2.085 0 0 1-2.086-2.084v-20.386a2.097 2.097 0 0 0-2.097-2.097h-36.827a2.097 2.097 0 0 0-2.097 2.097v20.386c0 1.15-.934 2.084-2.085 2.084h-3.141a2.085 2.085 0 0 1-2.085-2.084v-20.386a2.097 2.097 0 0 0-2.098-2.097H353v134l111.997-34.515L485 244V111.87a1.87 1.87 0 0 0-1.87-1.87z" mask="url(#b)"/>
        <path fill="#E1E5F3" d="M373.234 213.724L395.688 186l7.569 2.613c2.108.7 4.314 1.056 6.535 1.056h19.113a17.17 17.17 0 0 0 6.506-1.28L441 186l-4.002 26.094-137.024 27.18L239.194 401 224 301.518l27.676-65.506 31.746-15.493 89.812-6.795z" mask="url(#b)"/>
        <path fill="#D2D8EE" d="M58.963 49.524L53 92.313s35.146 11.568 46.754 12.143c10.872.54 16.723 1.066 24.056 4.588 16.854 8.096 22.727 19.16 37.92 24.556 27.726 9.85 26.095 12.953 40.774 15.112 26.987 3.97 43.22 5.263 61.568 15.787C277.758 172.349 306.07 190 306.07 190H327v-48.574s-35.61.81-61.705-2.428c-14.874-1.846-25.552-5.937-39.142-13.223-13.592-7.286-37.785-26.446-48.386-35.081-10.601-8.635-34.25-22.128-50.831-26.985-17.844-5.228-35.463-6.962-49.608-8.5-11.213-1.22-16.446-4.656-17.424-6.056-.244-.348-.882-.05-.941.371" mask="url(#b)"/>
        <path fill="#95A4D7" d="M291.559 194.632c-3.728-1.098-12.776-5.868-10.058-17.605 3.333-14.388 14.39-13.251 17.124-12.804 4.893.8 11.96 5.602 10.058 17.071-1.904 11.47-11.689 14.938-17.124 13.338" mask="url(#b)"/>
        <path fill="#C3CBE8" d="M331.392 116.26v22.937c0 .272.205.404.46.337l.689-.185a.605.605 0 0 0 .458-.607v-22.873c0-.31.206-.57.46-.638l8.091-2.166c.254-.068.461.093.461.39v23.716c0 .394.205.404.458.336l.69-.184c.253-.068.458-.256.458-.582v-23.715c0-.298.207-.57.46-.638L353 110v110.995L324 221V118.432a.87.87 0 0 1 .646-.842l6.286-1.683c.253-.068.46.092.46.354" mask="url(#b)"/>
        <path fill="#A4B1DD" d="M308.467 213s-11.735-8.328-11.462-22.298c.235-12.062 8.586-13.366 13.1-12.625 3.274.536 8.186 2.148 8.459-3.762.149-3.22 1.365-8.059 6.277-9.133 5.062-1.108 8.523 2.829 12.008 12.357 2.456 6.716 3.001 9.94 6.822 10.746 3.821.806 5.736-3.999 14.465-5.373 6.822-1.075 12.418 2.432 12.826 8.06.546 7.521-4.913 12.625-4.913 12.625L308.467 213z" mask="url(#b)"/>
        <path fill="#B3BEE2" d="M150 201.332s4.993-23.85 30.306-27.012c22.935-2.865 34.292 14.24 36.45 22.51 2.457 9.413.82 14.733 7.781 22.51 5.63 6.287 15.154 9.413 17.201 25.374 2.048 15.962-8.6 30.286-8.6 30.286h-75.766L150 201.332z" mask="url(#b)"/>
        <path fill="#C3CBE8" d="M198.64 380.196s27.452-72.071 35.138-92.584c11.93-31.836 20.395-54.281 44.06-57.795 28.001-4.158 81.2-6.614 101.433-14.276 8.754-3.315 21.154-8.801 21.627-20.147 0-2.647.102-19.287.102-22.6 0-2.443-4.69-2.341-4.69 0 0 1.901-.2 3.397-.306 4.887-.816 11.402-12.502 15.272-21.38 18.596-20.041 7.502-73.826 9.908-101.561 13.98-23.44 3.442-36.041 25.287-47.858 56.465-7.614 20.09-33.582 90.806-33.582 90.806L187 414.537l5.03 9.463 6.61-43.804z" mask="url(#b)"/>
        <path fill="#B3BEE2" d="M442.275 225c0-.816-.275-27.743-.275-27.743s2.755-12.784 13.227-12.24c10.472.544 12.125 10.336 9.92 18.767L442.275 225z" mask="url(#b)"/>
        <path fill="#D2D8EE" d="M240.707 373.155s27.21-70.777 34.83-90.922c11.824-31.265 18.798-52.221 42.31-55.262 40-5.171 81.848-7.992 101.902-15.516 8.884-3.333 19.353-8.575 19.353-20.28v-18.376c0-2.347 4.694-2.45 4.694 0 0 5.99.204 48.388.204 57.984 0 9.596-12.279 4.9-10.102 28.583-16.326 3.267-21.768-10.888-34.556-13.338-7.03-1.347-13.634 1.244-23.673 16.605-9.252 14.155-14.693 12.522-27.482 14.155-13.234 1.69-21.5 6.182-29.115 25.045-5.714 14.155-2.449 17.422-5.986 26.133-4.412 10.866-8.369 10.387-5.714 22.867 2.72 12.795 2.993 27.767-2.993 42.739-5.816 14.548-24.49 44.373-58.23 63.428L232 430.322l8.707-57.167z" mask="url(#b)"/>
        <path fill="#535785" d="M194.983 194.992c0-.766-.343-1.489-.941-1.985a15.727 15.727 0 0 0-2.258-1.56c-1.201-.682-2.452-1.147-3.272-1.412-.444-.143-.903.165-.922.62-.04.998-.242 2.645-1.051 3.96-.178.29-.363.557-.552.804a4.154 4.154 0 0 1-3.309 1.622H86.305c-1.306 0-2.531-.6-3.31-1.622a9.56 9.56 0 0 1-.55-.804c-.81-1.315-1.011-2.962-1.053-3.96-.018-.455-.477-.763-.92-.62-.821.265-2.073.73-3.274 1.412a15.666 15.666 0 0 0-2.257 1.56 2.575 2.575 0 0 0-.941 1.985V201h121l-.017-6.008z" mask="url(#b)"/>
        <path fill="#646D9F" d="M132.84 195h-1.68c-.814 0-1.493-.573-1.565-1.32l-.589-6.104c-.082-.846.642-1.576 1.564-1.576h2.859c.923 0 1.646.73 1.565 1.576l-.589 6.104c-.072.747-.751 1.32-1.564 1.32" mask="url(#b)"/>
        <path fill="#42426C" d="M221 303h7v-15h-7z" mask="url(#b)"/>
        <path fill="#535785" d="M258.602 274.161a130.468 130.468 0 0 0-2.22-.492c-.942-.182-1.796-.045-2.604.456-.449.279-1.043.676-1.591 1.05a1.819 1.819 0 0 1-1.47.268c-10.453-2.578-26.292-7.41-40.935-15.443.378 1.13-4.963 28.412-4.777 30h24.972c16.359 0 25.768-4.566 29.97-8.863h.008c.873-.75 1.03-3.2 1.03-3.2.143-1.957-.702-3.395-2.383-3.776" mask="url(#b)"/>
        <path fill="#C3CBE8" d="M39.4 368S-4.155 360.663.323 320.31c2.75-24.789 30.53-29.756 33.379-36.685 7.632-18.56-1.785-21.245 2.442-34.647 2.442-7.744 10.391-13.68 20.353-14.266 6.92-.408 15.875-4.891 17.503-16.712 0 11.005-10.583 148.777-10.583 148.777L39.4 368z" mask="url(#b)"/>
        <path fill="#8697D1" d="M190 201h6.258L201 258h-6.258z" mask="url(#b)"/>
        <path fill="#535785" d="M195.361 258H70l4.916-57H197z" mask="url(#b)"/>
        <path fill="#E86A46" d="M191.367 258H73l4.898-57H193z" mask="url(#b)"/>
        <path fill="#535785" d="M46 303h175v-15H46z" mask="url(#b)"/>
        <path fill="#FFF" d="M231.466 301H35.239c-.895 0-1.629.709-1.657 1.602L29 450.618c6.397 2.516 13.052 5.113 19.204 8.382h6.921c5.342-5.412 11.923-9.652 19.746-8.943 19.566 2.439 36.686 8.13 57.067 6.504 3.956-.438 8.147.55 12.067 2.439H155.5c1.93 0 3.604-1.25 4.246-3.066 2.406-6.798 7.628-7.156 13.687-11.8.505-.387 1.22-.024 1.227.61.048 5.053-3.661 8.994-4.405 13.443.724-1.445 1.771-2.49 3.212-2.989a3.772 3.772 0 0 0 1.016-.522c2.877-2.138 10.65-2.688 13.096 4.324h15.525c7.298-10.63 20.887-16.885 32.897-11.524L231.466 301z" mask="url(#b)"/>
        <path fill="#A4B1DD" d="M235.979 459H244l-5.75-156.407c-.033-.889-.778-1.593-1.686-1.593H231l4.979 158z" mask="url(#b)"/>
        <path fill="#8697D1" d="M80.446 351h-18.89c-.86 0-1.556-.725-1.556-1.62V321h22v28.38c0 .895-.696 1.62-1.554 1.62" mask="url(#b)"/>
        <path fill="#C3CBE8" d="M80.434 351H61.566c-.865 0-1.566-.792-1.566-1.768V346h22v3.232c0 .976-.7 1.768-1.566 1.768" mask="url(#b)"/>
        <path fill="#8697D1" d="M142.446 351h-18.89c-.86 0-1.556-.725-1.556-1.62V321h22v28.38c0 .895-.696 1.62-1.554 1.62" mask="url(#b)"/>
        <path fill="#C3CBE8" d="M142.434 351h-18.868c-.865 0-1.566-.792-1.566-1.768V346h22v3.232c0 .976-.7 1.768-1.566 1.768" mask="url(#b)"/>
        <path fill="#8697D1" d="M204.446 351h-18.89c-.86 0-1.556-.725-1.556-1.62V321h22v28.38c0 .895-.696 1.62-1.554 1.62" mask="url(#b)"/>
        <path fill="#C3CBE8" d="M204.434 351h-18.868c-.865 0-1.566-.792-1.566-1.768V346h22v3.232c0 .976-.7 1.768-1.566 1.768" mask="url(#b)"/>
        <path fill="#8697D1" d="M80.446 415h-18.89c-.86 0-1.556-.725-1.556-1.62V385h22v28.38c0 .895-.696 1.62-1.554 1.62" mask="url(#b)"/>
        <path fill="#C3CBE8" d="M80.434 415H61.566c-.865 0-1.566-.79-1.566-1.768V410h22v3.232c0 .977-.7 1.768-1.566 1.768" mask="url(#b)"/>
        <path fill="#8697D1" d="M142.446 415h-18.89c-.86 0-1.556-.725-1.556-1.62V385h22v28.38c0 .895-.696 1.62-1.554 1.62" mask="url(#b)"/>
        <path fill="#C3CBE8" d="M142.434 415h-18.868c-.865 0-1.566-.79-1.566-1.768V410h22v3.232c0 .977-.7 1.768-1.566 1.768" mask="url(#b)"/>
        <path fill="#8697D1" d="M204.446 415h-18.89c-.86 0-1.556-.725-1.556-1.62V385h22v28.38c0 .895-.696 1.62-1.554 1.62" mask="url(#b)"/>
        <path fill="#C3CBE8" d="M204.434 415h-18.868c-.865 0-1.566-.79-1.566-1.768V410h22v3.232c0 .977-.7 1.768-1.566 1.768M250.922 271.042c-10.98-2.104-40.46-8.757-65.147-24.77-32.266-20.929-53.727-53.05-53.727-53.05L132 193l-.048.255s-20.576 31.098-53.671 52.9c-25.65 16.896-54.223 22.783-65.203 24.887-2.03.388-2.774 2.867-1.319 4.326C16.52 280.136 27.18 288 45.713 288h172.574c18.533 0 29.193-7.864 33.954-12.632 1.455-1.46.71-3.938-1.319-4.326" mask="url(#b)"/>
        <path fill="#FFF" d="M92 255l40.205-40L172 253.915z" mask="url(#b)"/>
        <path fill="#FF7E59" d="M131.501 215.002V215h-.001l-.001.002c-.044.044-20.618 21.11-21.499 21.903 1.903 1.729 6.326 1.53 10.954-1.458 1.95-1.26 3.946-3.32 5.912-5.403a.144.144 0 0 0 .01.01v.002c.142.164 1.741 2.337 4.624 2.337 2.883 0 4.482-2.173 4.624-2.337l.01-.012c1.966 2.084 3.962 4.143 5.912 5.403 4.628 2.988 9.051 3.187 10.954 1.458-.881-.793-21.455-21.859-21.499-21.903" mask="url(#b)"/>
        <path fill="#8697D1" d="M132.014 212h-.028c-3.332 4.992-28.401 34.773-56.986 51h6.403c24.642-14.326 46.344-39.78 50.54-45.138h.115c4.195 5.359 27.03 31.763 50.54 45.138H189c-27.588-15.548-53.654-46.008-56.986-51" mask="url(#b)"/>
        <path fill="#646D9F" d="M82.285 250.502C119.575 224.388 134 199.09 134 199.09l-1.653-6.09s-21.142 31.898-53.873 53.558c-23.918 15.829-54.38 22.957-65.39 25.077-2.035.392-2.782 2.889-1.322 4.358.276.279 44.709-7.414 70.523-25.49" mask="url(#b)"/>
        <path fill="#646D9F" d="M181.715 250.502C144.425 224.388 130 199.09 130 199.09l1.653-6.09s21.142 31.898 53.873 53.558c23.918 15.829 54.38 22.957 65.39 25.077 2.035.392 2.782 2.889 1.322 4.358-.276.279-44.71-7.414-70.523-25.49" mask="url(#b)"/>
        <path fill="#FF7E59" d="M250.922 271.124c-9.579-1.826-33.488-7.233-55.681-19.124H68.807c-22.193 11.891-46.15 17.298-55.73 19.124-2.028.387-2.773 2.854-1.318 4.305C16.52 280.175 27.18 288 45.713 288c13.127 0 159.215-.268 172.343-.268 18.533 0 29.424-7.557 34.185-12.303 1.455-1.451.71-3.918-1.319-4.305" mask="url(#b)"/>
        <path fill="#E86A46" d="M54 321h158v-5H54zM54 386h158v-5H54z" mask="url(#b)"/>
        <path fill="#646D9F" d="M242.356 269.532c.574.141 1.174.03 1.664-.306a55.273 55.273 0 0 1 1.801-1.192c.916-.569 1.882-.725 2.95-.518.293.058 1.362.298 2.514.559 1.903.433 2.859 2.064 2.697 4.287 0 0-.177 2.78-1.164 3.632-.243.21-28.25-5.392-52.567-17.285a5.883 5.883 0 0 1-2.797-2.911A43.432 43.432 0 0 1 196 252c16.58 9.12 34.518 14.605 46.356 17.532M22.645 269.532a2.062 2.062 0 0 1-1.665-.306 54.377 54.377 0 0 0-1.801-1.192c-.916-.569-1.882-.725-2.95-.518-.293.058-1.36.298-2.513.559-1.903.433-2.86 2.064-2.699 4.287 0 0 .179 2.78 1.166 3.632.243.21 28.25-5.392 52.567-17.285a5.89 5.89 0 0 0 2.797-2.911A43.426 43.426 0 0 0 69 252c-16.58 9.12-34.518 14.605-46.355 17.532" mask="url(#b)"/>
        <path fill="#646D9F" d="M250.922 272.055l-.013-.002a2.656 2.656 0 0 0-2.363.695c-5.299 5.018-15.402 11.681-31.71 11.681H47.16c-16.315 0-26.42-6.67-31.716-11.687a2.647 2.647 0 0 0-2.357-.69l-.004.001c-2.032.413-2.782 3.039-1.323 4.584C16.523 281.684 27.18 290 45.71 290h172.577c18.533 0 29.193-8.321 33.954-13.367 1.455-1.544.71-4.167-1.319-4.578" mask="url(#b)"/>
        <path fill="#D2D8EE" d="M65.102 460.826s-14.9 2.779-26.951-3.747C28.759 451.994 21 450.924 21 447.712c0-2.207 3.812-5.62 6.262-6.423 7.35-2.409 14.428-2.142 14.428-2.142s.544-8.832 5.716-9.902c5.356-1.109 10.89 1.606 15.246 6.958 4.068 5 6.533 9.1 8.712 8.298 2.35-.867 4.355-12.58 13.884-14.453 9.527-1.874 14.058.669 18.239 6.423 5.445 7.494-1.726 15.344.817 16.594 3.811 1.874 6.737-3.458 11.705-5.085 4.9-1.606 11.47-1.637 14.565 1.204 1.021.937 1.226 1.74 1.09 2.744-.154 1.135.136 2.208 2.368 1.62 3.14-.828 8.006-.921 10.835.052 5.444 1.873 4.303 5.136 3.267 6.156-1.362 1.338-4.084 1.873-9.257 1.606-5.341-.277-8.22-2.319-14.7-1.338-3.54.535-5.99 2.141-11.978 3.211-3.314.592-8.44 1.606-11.162-.535-1.916-1.507-1.089-3.212-2.722-3.88-2.765-1.133-4.6 3.237-8.712 2.274-5.717-1.338-6.262-5.754-10.345-7.092-4.602-1.51-4.625 5.145-14.156 6.824M188.78 448.808c1.433-.75 2.025-2.478 1.557-4.04-.614-2.049-.604-5.106 1.974-9.062 5.072-7.784 11.936-12.516 21.1-12.7 10.143-.205 27.537 5.086 32.257 17.001 4.057 10.242 2.637 16.797-2.84 19.255-5.478 2.458-7.507-.41-10.753-.41-3.246 0-5.68 2.868-8.52 0-1.994-2.012.202-5.53-2.233-6.76-3.084-1.557-3.989 5.054-6.423 8.536-1.335 1.908-6.051 5.372-15.149 4.097-7.304-1.024-14.54-3.824-14.743-9.15-.134-3.55 1.623-5.644 3.772-6.767" mask="url(#b)"/>
        <path fill="#C3CBE8" d="M487.909 253.51c.54-5.93-1.35-12.13-4.859-17.252-3.509-5.122-4.588-11.86-4.859-16.173-.432-6.918-4.048-16.174-13.495-16.983-9.448-.808-13.227 3.235-16.736 10.243-3.362 6.717-5.128 9.435-9.177 11.592-4.05 2.156-10.258 2.089-15.657 7.547-4.085 4.131-7.422 15.23-3.103 23.857 2.834 5.66 9.717 10.513 15.588 11.726 9.592 1.982 9.92-2.426 31.784 2.426 14.757 3.275 19.89-10.116 20.514-16.983" mask="url(#b)"/>
        <path fill="#8697D1" d="M459.924 171h-12.847c-.594 0-1.077-.468-1.077-1.046v-12.66c0-4.028 3.358-7.294 7.5-7.294 4.143 0 7.5 3.266 7.5 7.293v12.66c0 .579-.482 1.047-1.076 1.047M390.924 171h-12.847c-.594 0-1.077-.468-1.077-1.046v-12.66c0-4.028 3.358-7.294 7.5-7.294 4.143 0 7.5 3.266 7.5 7.293v12.66c0 .579-.482 1.047-1.076 1.047M343.468 172.312l-3.061.68c-.206.045-.407-.096-.407-.289v-14.862c0-3.867.655-5.524 2-5.813 1.219-.253 2 1.205 2 5.074v14.597c0 .29-.22.543-.532.613M420.182 149c-3.111 0-5.962 1.158-8.182 3.082 2.831 2.454 4.636 6.154 4.636 10.295V190h15.672c.382 0 .692-.323.692-.722v-26.901c0-7.388-5.738-13.377-12.818-13.377M290.35 55.125c-2.706-1.421-5.739-5.48-7.378-12.054-1.34-5.375-1.64-12.054 1.366-17.533 3.007-5.48 8.198-5.205 9.565-9.315 1.366-4.109 1.942-7.804 6.558-11.506 4.1-3.287 12.57-1.918 15.303 4.657 2.217 5.335 1.367 8.219.82 13.424-.546 5.205 3.389 5.952 2.186 14.794-.82 6.027-6.831 12.875-13.39 16.711-5.069 2.964-9.291 3.836-15.03.822" mask="url(#b)"/>
        <path fill="#C3CBE8" d="M94.014 51.2c.135-.865.397-2.82 1.08-4.012.912-1.589 4.08-1.946 5.634-2.188-2.94 1.141-3.775 3.137-3.775 4.54 0 2.629 2.331 3.562 6.047 4.358-2.702.415-9.341-.423-8.986-2.698" mask="url(#b)"/>
        <path fill="#D2D8EE" d="M58.004 50.207a9.737 9.737 0 0 1 .673-2.95c.637-1.6 1.862-1.539 1.83-.566a10.3 10.3 0 0 0 .04 1.288c.182 2.008 1.572 3.085 2.36 3.507.905.484-5.077 1.295-4.903-1.279" mask="url(#b)"/>
        <path fill="#A4B1DD" d="M270.854 203.966s-13.77-.082-17.138-12.553c-2.212-8.187 1.382-11.736 1.658-16.92.276-5.185-1.105-6.823 1.106-12.554 1.463-3.791 6.91-9.824 15.203-7.368 6.697 1.984 6.984 6.605 11.332 8.187 5.252 1.91 8.845 5.731 9.675 13.1.829 7.368.829 17.192-11.056 25.106-5.37 3.576-10.78 3.002-10.78 3.002" mask="url(#b)"/>
        <path fill="#95A4D7" d="M94.77 95.08c-5.053-3.223-8.476-.824-11.705-2.471-3.23-1.647-1.203-5.63-2.019-11.118-1.009-6.795-6.65-9.766-10.696-9.471-8.477.618-10.966 8.579-13.927 12.147-2.96 3.569-5.112 1.373-8.88 3.294-3.768 1.922-5.853 6.315-3.633 13.177 2.06 6.365 6.783 8.424 10.495 8.99 3.982.608 6.164.147 9.604-.213.303-.032 4.12-.747 8.3-.156 3.365.475 7.036 2.395 10.756 4.35 6.66 3.5 13.724-.068 16.146-5.559 2.422-5.49-1.21-10.912-4.44-12.97" mask="url(#b)"/>
    </g>
</svg>
