<svg xmlns="http://www.w3.org/2000/svg" xmlns:xlink="http://www.w3.org/1999/xlink" width="683" height="683" viewBox="0 0 683 683">
    <defs>
        <path id="a" d="M.352.217h123.982v55.314H.352z"/>
        <path id="c" d="M0 .504h123.876V273.47H0z"/>
        <path id="e" d="M0 .64h20.857v161.812H0z"/>
        <path id="g" d="M.412.281H86.18V11H.412z"/>
    </defs>
    <g fill="none" fill-rule="evenodd">
        <path fill="#F0F2F9" d="M235.894 214.19s-22.994-23.862-2.17-53.8c11.843-17.025 33.406-15.185 49.024-20.391 15.618-5.207 21.258-18.223 36.876-30.805 10.08-8.12 29.76-19.872 54.23-12.582 20.39 6.074 21.692-3.037 30.369-9.545s16.92-15.62 43.818-16.054c26.897-.433 42.48 9.68 53.795 27.334 10.846 16.921 8.243 25.598 14.75 32.974 6.103 6.917 33.642 10.559 45.12 26.032 9.978 13.45 11.28 25.165 6.942 42.52C564.309 217.227 543.05 222 532.639 222H249.776s-9.11-1.735-13.882-7.81"/>
        <g transform="translate(146 68)">
            <mask id="b" fill="#fff">
                <use xlink:href="#a"/>
            </mask>
            <path fill="#F0F2F9" d="M11.479 55.53c5.43-.034 59.068-.187 59.068-.187s9.78-.321 16-4.424c6.218-4.103 12.074-3.908 17.294-4.165 5.22-.257 16.456-2.9 18.645-7.712 2.329-5.12 3.693-11.225-3.727-18.227-5.05-4.766-14.108-4.42-18.72-9.315C95.428 6.605 89.31 1.301 79.782.553 70.253-.196 57.877-.25 46.359 6.479c-5.87 3.43-12.654 8.2-17.044 16.027-3.744 6.675-5.742 9.291-11.635 10.173-5.645.844-12.048 1.232-15.915 8.305-2.082 3.81-1.435 7.759-.754 9.457 1.402 3.494 5.038 5.124 10.468 5.09" mask="url(#b)"/>
        </g>
        <path fill="#7784BB" d="M476 256h-6v-19l5.538 10.994c.303.603.462 1.266.462 1.94V256z"/>
        <path fill="#D2D8EE" d="M469 255h-14v-19h12.777c.676 0 1.223.538 1.223 1.201V255z"/>
        <path fill="#7784BB" d="M477 265.654L553.524 255l5.844 11.54c.415.819.632 1.722.632 2.638v25.98a2.764 2.764 0 0 1-2.77 2.76h-43.677c-1.791 0-3.56.382-5.19 1.12l-19 8.962L477 265.654z"/>
        <path fill="#D2D8EE" d="M471 254h80.225a2.78 2.78 0 0 1 2.775 2.783v26.916a2.773 2.773 0 0 1-2.77 2.777h-44.159c-1.806 0-3.59.391-5.232 1.148L490.955 293 471 254z"/>
        <path fill="#FF7E59" d="M545.943 279h-8.885c-.584 0-1.058-.44-1.058-.983v-17.034c0-.544.474-.983 1.058-.983h8.885c.583 0 1.057.44 1.057.983v17.034c0 .543-.474.983-1.057.983M533.943 279h-8.885c-.584 0-1.058-.44-1.058-.983v-17.034c0-.544.474-.983 1.058-.983h8.885c.584 0 1.057.44 1.057.983v17.034c0 .543-.473.983-1.057.983M521.943 279h-8.885c-.584 0-1.058-.44-1.058-.983v-17.034c0-.544.474-.983 1.058-.983h8.885c.584 0 1.057.44 1.057.983v17.034c0 .543-.473.983-1.057.983M510.942 279h-8.885c-.584 0-1.057-.44-1.057-.983v-17.034c0-.544.473-.983 1.057-.983h8.885c.584 0 1.058.44 1.058.983v17.034c0 .543-.474.983-1.058.983M498.942 279h-8.885c-.584 0-1.057-.44-1.057-.983v-17.034c0-.544.473-.983 1.057-.983h8.885c.584 0 1.058.44 1.058.983v17.034c0 .543-.474.983-1.058.983M486.942 279h-8.885c-.583 0-1.057-.44-1.057-.983v-17.034c0-.544.474-.983 1.057-.983h8.885c.584 0 1.058.44 1.058.983v17.034c0 .543-.474.983-1.058.983"/>
        <path fill="#D8DDEA" d="M572.304 549.19s6.6-4.416 13.479-2.857c6.304 1.429 7.826 3.572 13.478 3.334 4.857-.205 7.391 0 10.435.952C612.739 551.571 621 553 621 553h-50l1.304-3.81z"/>
        <path fill="#FFF" d="M586 557.5c0 .828-21.266 1.5-47.5 1.5-26.233 0-47.5-.672-47.5-1.5s21.267-1.5 47.5-1.5c26.234 0 47.5.672 47.5 1.5"/>
        <path fill="#97BEF7" d="M115 348.286V177.14a3.992 3.992 0 0 1 3.878-3.985L422 164v215l-307-30.714z"/>
        <path fill="#BCC5E5" d="M170.099 223c-18.367.55-36.733 1.228-55.099 2.074V276c18.673-.514 37.339-.963 56-1.361-.302-17.203-.646-34.429-.901-51.639"/>
        <path fill="#D7DCF0" d="M115 348.507L169.967 354c.49-6.36.87-12.716 1.033-19.07 0-3.972-.02-7.95-.04-11.93-18.654.09-37.307.263-55.96.54v24.967z"/>
        <path fill="#C9D1EB" d="M115 276.33V324c19-.277 38-.45 57-.538-.088-16.112-.332-32.276-.625-48.462A9339.8 9339.8 0 0 0 115 276.33"/>
        <path fill="#D8E7FC" d="M169.648 171l-50.738 1.539a4.033 4.033 0 0 0-3.91 4.032V225c18.333-.844 36.667-1.52 55-2.068-.258-17.341-.421-34.665-.352-51.932M223 170l-52.984 1.63c-.068 17.08.091 34.216.343 51.37a4713.74 4713.74 0 0 1 52.24-1.273c.071-17.257.192-34.503.401-51.727"/>
        <path fill="#FFEDA6" d="M223 222c-17.666.34-35.333.755-53 1.291.252 17.234.591 34.483.89 51.709 17.353-.375 34.7-.707 52.045-1.004-.012-17.339-.005-34.674.065-51.996"/>
        <path fill="#97BEF7" d="M171.98 323.084c.021 4.051.041 8.102.041 12.146-.162 6.47-.537 12.94-1.021 19.415L223 360c-.02-12.324-.047-24.654-.074-36.982a7209.907 7209.907 0 0 0-50.945.066"/>
        <path fill="#C3CBE8" d="M171 274.971c.286 16.042.526 32.061.613 48.029 17.128-.081 34.258-.1 51.387-.064-.036-16.312-.07-32.625-.082-48.936-17.302.288-34.607.61-51.918.971"/>
        <path fill="#D7DCF0" d="M274 169l-50.6 1.549c-.21 17.132-.33 34.285-.4 51.451 16.809-.321 33.617-.573 50.425-.789.145-17.404.335-34.807.575-52.211"/>
        <path fill="#97BEF7" d="M222.075 359.824L273 365c-.12-13.922-.195-27.846-.239-41.767-16.92-.112-33.84-.197-50.761-.233.026 12.277.055 24.553.075 36.824"/>
        <path fill="#D7DCF0" d="M272.985 273c-16.992.232-33.987.483-50.985.765.012 16.335.046 32.673.082 49.008 16.973.035 33.946.118 50.918.227-.054-16.667-.06-33.333-.015-50"/>
        <path fill="#D8E7FC" d="M274 221c-17.31.222-34.62.48-51.93.808-.071 17.387-.077 34.789-.065 52.192 17.245-.292 34.486-.552 51.726-.793.046-17.402.123-34.805.269-52.207"/>
        <path fill="#97BEF7" d="M274.236 364.903L323.62 370c.155-15.536.277-31.07.379-46.605-16.667-.147-33.333-.284-50-.395.043 13.968.117 27.935.236 41.903"/>
        <path fill="#D7DCF0" d="M323.99 221c-16.909.185-33.817.37-50.725.586-.143 17.138-.22 34.276-.265 51.414 16.983-.237 33.963-.454 50.942-.662.048-17.113.074-34.225.048-51.338"/>
        <path fill="#BCC5E5" d="M273.03 272.649c-.045 16.656-.04 33.312.015 49.968 17.233.108 34.465.24 51.697.383.119-17 .207-34 .258-51-17.321.204-34.644.417-51.97.649"/>
        <path fill="#C9D1EB" d="M273.586 168.543c-.244 17.82-.438 35.638-.586 53.457 17-.22 34-.407 51-.595-.027-18.134-.094-36.27-.212-54.405l-50.202 1.543z"/>
        <path fill="#E4E8F5" d="M421 220c-16.667.318-33.332.568-50 .781.26 16.74.579 33.48.86 50.219 16.38-.194 32.76-.391 49.14-.6V220z"/>
        <path fill="#BED6FA" d="M372 374.084L421 379v-54.639a20853.11 20853.11 0 0 1-48.773-.361c.095 16.694.052 33.39-.227 50.084"/>
        <path fill="#D7DCF0" d="M372 270.612c.29 17.675.537 35.349.635 53.023 16.122.139 32.243.266 48.365.365v-54c-16.334.213-32.666.414-49 .612"/>
        <path fill="#FFF" d="M371 165.582c.017 18.473.227 36.946.504 55.418 16.833-.222 33.664-.482 50.496-.812V164l-51 1.582z"/>
        <path fill="#D8E7FC" d="M324 167.422c.118 18.193.187 36.386.214 54.578 15.595-.17 31.19-.347 46.786-.55-.28-18.483-.493-36.967-.51-55.45L324 167.422z"/>
        <path fill="#C9D1EB" d="M371.114 221c-15.688.197-31.377.366-47.065.53.026 16.824 0 33.647-.049 50.47 16-.19 32.001-.373 48-.558-.29-16.815-.619-33.628-.886-50.442"/>
        <path fill="#AEBAE0" d="M324 369.241L372.723 374c.284-16.53.327-33.06.23-49.591-16.188-.133-32.376-.275-48.565-.409-.104 15.08-.23 30.16-.388 45.241"/>
        <path fill="#C3CBE8" d="M324.258 271.567c-.05 17.338-.14 34.678-.258 52.016 16.334.137 32.667.281 49 .417-.101-17.667-.357-35.334-.657-53-16.027.188-32.056.374-48.085.567"/>
        <path fill="#7784BB" d="M553 509V397.757a9.96 9.96 0 0 0-1.321-4.957l-46.786-81.558-13.387-.042v-23.416L421 165v214.494L553 509z"/>
        <path fill="#A1AEDB" d="M434.629 188.45L421 165v59.25A1800.388 1800.388 0 0 0 435 247c-.195-19.517-.337-39.034-.371-58.55"/>
        <path fill="#93A3D6" d="M421 223v48.867c4.971 6.74 9.976 13.447 15 20.133-.21-15.415-.401-30.83-.559-46.244A1765.795 1765.795 0 0 1 421 223"/>
        <path fill="#8697D1" d="M422 273v46.256A1340.723 1340.723 0 0 0 437 338c-.203-14.974-.411-29.947-.608-44.92A2853.35 2853.35 0 0 1 422 273"/>
        <path fill="#8697D1" d="M421 318v61.51L437 395c-.2-19.354-.455-38.708-.72-58.063A1351.351 1351.351 0 0 1 421 318"/>
        <path fill="#83ABF1" d="M453 220.684L435 188c.032 19.49.166 38.979.351 58.468A2110.164 2110.164 0 0 0 452.567 275c.019-18.086.116-36.186.433-54.316"/>
        <path fill="#A1AEDB" d="M452.961 274.447A2109.055 2109.055 0 0 1 436 246c.143 15.343.315 30.685.505 46.028A3899.505 3899.505 0 0 0 453 316c-.022-13.846-.053-27.696-.039-41.553"/>
        <path fill="#7784BB" d="M436 292c.19 14.903.393 29.806.59 44.71A1798.186 1798.186 0 0 0 452.952 357c.064-13.699.053-27.394.03-41.093A3887.06 3887.06 0 0 1 436 292"/>
        <path fill="#8697D1" d="M437.67 394.841L452.304 410c.428-17.508.618-34.997.696-52.482A1818.283 1818.283 0 0 1 437 337c.247 19.28.483 38.56.67 57.841M453.004 275c-.016 13.94.02 27.874.043 41.802 4.887 6.41 9.783 12.811 14.691 19.198.134-12.935.24-25.866.262-38.788A2524.221 2524.221 0 0 1 453.004 275"/>
        <path fill="#93A3D6" d="M467.378 243.328L453.471 220c-.346 18.258-.452 36.486-.471 54.698 4.958 7.46 9.958 14.894 14.996 22.302.03-17.913-.11-35.809-.618-53.672"/>
        <path fill="#7E8EC6" d="M453 357.896A2790.493 2790.493 0 0 0 466.628 374c.102-12.686.246-25.375.372-38.06A6171.209 6171.209 0 0 1 453.031 317c.023 13.634.034 27.263-.031 40.896"/>
        <path fill="#658EE7" d="M452.76 358c-.086 17.302-.292 34.61-.76 51.934L466.98 424c-.176-16.591-.116-33.198.02-49.808A2836.157 2836.157 0 0 1 452.76 358"/>
        <path fill="#8697D1" d="M479.182 265.393L467 244c.479 17.655.611 35.342.584 53.046A3062.336 3062.336 0 0 0 480 316c-.12-16.882-.347-33.757-.818-50.607"/>
        <path fill="#6F98EA" d="M467.251 297c-.02 12.83-.123 25.668-.251 38.51 4.33 5.837 8.664 11.664 13 17.49-.02-12.344-.053-24.691-.142-37.035A3086.325 3086.325 0 0 1 467.25 297"/>
        <path fill="#658EE7" d="M467.39 336c-.133 12.768-.284 25.538-.39 38.308 4.657 5.242 9.326 10.47 14 15.692-.052-12.16-.066-24.332-.086-36.507-4.512-5.827-9.02-11.656-13.524-17.493"/>
        <path fill="#7784BB" d="M467.124 374c-.131 16.76-.189 33.516-.019 50.257L481 438c-.314-16.032-.448-32.099-.514-48.183A5579.476 5579.476 0 0 1 467.124 374"/>
        <path fill="#8697D1" d="M492.073 287.18L479 265c.49 16.945.726 33.917.851 50.894 4.363 6.383 8.747 12.75 13.149 19.106-.28-15.919-.582-31.852-.927-47.82M479 316c.093 12.374.127 24.752.148 37.126 4.62 5.959 9.237 11.917 13.852 17.874-.189-11.974-.396-23.957-.613-35.945A3749.12 3749.12 0 0 1 479 316"/>
        <path fill="#658EE7" d="M480 354c.02 12.084.033 24.163.085 36.232 4.637 5.26 9.278 10.514 13.915 15.768-.158-11.432-.328-22.865-.506-34.3-4.496-5.9-8.994-11.8-13.494-17.7"/>
        <path fill="#7E8EC6" d="M479 390c.07 15.908.211 31.798.545 47.654L494 451c-.188-15.063-.39-30.113-.605-45.16-4.796-5.278-9.598-10.557-14.395-15.84"/>
        <path fill="#6F7BAF" d="M517.795 332.772L505 312c.127 14.2.199 28.401.23 42.603A7093.708 7093.708 0 0 0 518 372c-.144-13.09-.226-26.167-.205-39.228M505 355c.025 11.07.026 22.14 0 33.211A5885.698 5885.698 0 0 1 518 405c-.193-10.888-.351-21.77-.469-32.647A7070.87 7070.87 0 0 1 505 355"/>
        <path fill="#5B84E4" d="M505.125 388c-.023 10.727-.061 21.453-.125 32.18A3399.347 3399.347 0 0 1 518 436a8470.56 8470.56 0 0 1-.56-30.703A6030.22 6030.22 0 0 0 505.126 388"/>
        <path fill="#517BE0" d="M504.375 420c-.09 13.993-.214 27.986-.375 41.979L519 476c-.31-13.513-.622-27.034-.913-40.554A3387.546 3387.546 0 0 0 504.375 420"/>
        <path fill="#6871A4" d="M517 372c.115 11 .268 22.007.457 33.019 4.195 5.649 8.376 11.31 12.543 16.981-.175-10.716-.369-21.438-.525-32.15-4.163-5.947-8.322-11.896-12.475-17.85"/>
        <path fill="#6F7BAF" d="M529.708 354.073L517.004 333c-.022 13.08.059 26.176.2 39.282 4.259 5.911 8.526 11.816 12.796 17.718-.18-11.995-.31-23.979-.292-35.927"/>
        <path fill="#6871A4" d="M518 405c.173 10.113.368 20.228.578 30.344A2180.97 2180.97 0 0 1 531 450a3549.64 3549.64 0 0 0-.368-27.902A3912.8 3912.8 0 0 0 518 405"/>
        <path fill="#6F7BAF" d="M518 436c.297 13.402.615 26.806.932 40.201L530.828 487c.213-12.174.207-24.4.097-36.647A2183.934 2183.934 0 0 0 518 436"/>
        <path fill="#6871A4" d="M530 390c.16 10.764.36 21.536.54 32.304 4.171 5.55 8.325 11.117 12.46 16.696-.081-10.423-.188-20.842-.278-31.253-4.241-5.914-8.483-11.83-12.722-17.747"/>
        <path fill="#517BE0" d="M542.83 375.475L530.001 354c-.02 12.069.111 24.173.292 36.29 4.233 5.905 8.47 11.807 12.706 17.71a3950.414 3950.414 0 0 1-.17-32.525"/>
        <path fill="#6F7BAF" d="M531 422c.148 9.242.281 18.478.358 27.7 3.907 4.747 7.79 9.511 11.642 14.3-.004-8.465-.053-16.928-.116-25.39A3103.626 3103.626 0 0 0 531 422"/>
        <path fill="#6F7BAF" d="M531 486.584L542.732 498c.209-11.507.273-23.02.268-34.534-3.94-4.844-7.912-9.664-11.907-14.466.105 12.562.11 25.099-.093 37.584"/>
        <path fill="#7784BB" d="M553 397.731a9.692 9.692 0 0 0-1.384-4.979L541 375c.004 10.833.078 21.68.172 32.535 3.944 5.488 7.888 10.977 11.828 16.465v-26.269z"/>
        <path fill="#6F7BAF" d="M541 407c.092 10.42.2 20.847.283 31.278A2563.432 2563.432 0 0 1 553 454v-30.493c-3.998-5.502-7.999-11.005-12-16.507"/>
        <path fill="#7784BB" d="M542.117 464.316c3.656 4.538 7.286 9.098 10.883 13.684v-23.417A2509.993 2509.993 0 0 0 542 439c.063 8.437.112 16.876.117 25.316"/>
        <path fill="#517BE0" d="M542 498.808L553 510v-32.006c-3.55-4.69-7.133-9.353-10.742-13.994.005 11.605-.057 23.208-.258 34.808"/>
        <g transform="translate(102 276)">
            <mask id="d" fill="#fff">
                <use xlink:href="#c"/>
            </mask>
            <path fill="#6871A4" d="M101.375.504C39.559 24.784 1.126 75.594.265 102.786c-3.922 123.966 36.854 170.49 36.854 170.49l86.757.193C95.795 191.945 91.114 92.131 101.375.504" mask="url(#d)"/>
        </g>
        <path fill="#8697D1" d="M121.342 499.175c4.789 6.485 12.189 9.08 20.895 3.891 1.935-1.154 8.878 49.368 1.306 46.842-5.463-1.822-11.75-12.414-14.51-17.44-6.095-11.097-13.35-31.132-17.702-49.724-3.715-15.869-6.662-35.456-6.301-51.744 0 0 5.655 53.74 16.312 68.175"/>
        <path fill="#37375F" d="M558.544 502.519a20030.413 20030.413 0 0 0-74.59-73.885c-31.96-31.489-63.681-65.144-103.424-93.19-71.963-50.785-129.284-57.08-152.527-60.53-11.733-1.742-16.98-.866-23.265 1.545-.475.182-.944.37-1.417.556-10.951 90.871-5.737 213.02 22.553 273.308 115.636.257 306.874.677 318.048.677C560 551 560 537.5 560 537.5v-31.468c0-1.32-.522-2.583-1.456-3.513"/>
        <path fill="#8697D1" d="M162.094 499.225c-30.544-14.656-37.167 25.097-34.586 30.305 6.603 13.318 11.896 19.267 11.896 19.267s35.702.086 89.596.203c-2.814-4.323-33.744-34.257-66.906-49.775"/>
        <path fill="#42426C" d="M558.545 501.749a19094.841 19094.841 0 0 0-47.578-47.02c-13.073-6.578-27.839-11.779-61.715-44.717-20.034-19.48-36.77-28.605-71.515-44.207-36.343-16.32-65.978-49.198-96.126-62.987-13.898-6.357-56.75-12.714-71.226 51.43-11.11 49.226-5.072 149.09 18.53 195.089 115.998.256 304.009.663 315.016.663C560 550 560 536.565 560 536.565v-31.32c0-1.314-.522-2.57-1.455-3.496"/>
        <path fill="#4A4B77" d="M369.445 513.582c14.176-16.094 20.5-41.54 22.245-67.422 2.697-40.013-11.11-97.456-84.527-69.98-57.995 21.703-95.079 105.256-77.971 166.647 8.619.595 22.493 1.54 31.666 2.173 9.092-39.937 68.183-21.2 108.587-31.418"/>
        <path fill="#646D9F" d="M222 549.402c94.12.205 206.819.459 275 .598-20.642-34.869-49.098-18.757-94.975-45.226-71.597-41.309-135.732-4.028-180.025 44.628"/>
        <path fill="#37375F" d="M272.512 345.645c-4.3 5.141-9.807 7.678-12.298 5.664-2.492-2.013-1.025-7.813 3.275-12.954 4.3-5.142 9.806-7.677 12.297-5.664 2.491 2.013 1.025 7.813-3.274 12.954M162.649 349.612c3.707 4.55 8.66 6.623 11.063 4.63 2.403-1.995 1.347-7.301-2.36-11.852-3.707-4.553-8.66-6.626-11.064-4.631-2.403 1.994-1.346 7.3 2.36 11.853"/>
        <path fill="#FFF" d="M453.548 549.435c-4.788 0-7.4-1.152-20.892-.864-3.916.084-7.4-2.16-13.057-.864-5.659 1.296-9.14-3.023-13.929-3.887-4.787-.864-5.658-.432-14.363.864-5.785.86-11.956.005-15.444-.666-1.062-.204-1.435-1.546-.607-2.238 2.158-1.808 5.031-5.502 1.253-7.03-11.752-4.75-35.256 4.319-39.173 5.183-3.917.864-6.211-.936-2.176-7.342 4.352-6.91 3.364-26.073-26.116-23.323-50.924 4.75-72.252 34.984-84.003 34.984-10.157 0-21.806-18.157-47.878-28.505-20.312-8.062-30.052-2.38-33.66 4.175-3.062 5.565-.787 12.785.322 15.609.186.477-.214.919-.728.876-1.734-.145-5.869-.145-8.698 2.554-2.964 2.828-.435 7.774 2.503 9.394-8.596.756-9.902 3.455-9.902 3.455s3.877-.089 18.323-.089c7.216 0 13.449 2.81 28.535 3.745 5.142.32 21.044.15 28.44.447 8.053.324 10.556 2.7 21.437 3.023 16.538.493 31.774-2.03 42.655-2.16 36.126-.431 57.456-4.925 69.64-5.182 20.457-.432 33.95 1.296 44.831 1.296 20.027 0 36.996-1.728 61.37-1.728 24.375 0 40.769-1.007 40.769-1.007s-24.664-.72-29.452-.72"/>
        <g transform="translate(102 334)">
            <mask id="f" fill="#fff">
                <use xlink:href="#e"/>
            </mask>
            <path fill="#FF7E59" d="M20.857.64C7.867 17.305.62 33.625.257 45.472c-1.58 51.69 4.337 89.931 11.784 116.98C2.01 108.505 3.504 51.74 20.857.64" mask="url(#f)"/>
        </g>
        <path fill="#D2D8EE" d="M536.502 462c-.58 0-1.05.398-1.05.89L535 511h3l-.448-48.11c0-.492-.47-.89-1.05-.89"/>
        <path fill="#FFF" d="M547 532h-23l1.353-18.341c.209-2.824 3.493-4.659 10.112-4.659 6.618 0 9.975 1.835 10.183 4.659L547 532z"/>
        <path fill="#D2D8EE" d="M509 539.067l3.004-5.477c1.522-2.775 4.274-4.486 7.254-4.508 0 0 26.13-.285 32.342.207 6.212.49 8.708 3.207 9.944 4.649L567 540l-58-.933z"/>
        <path fill="#2B2B51" d="M581.824 552.504c-1.586 7.03-16.583 5.31-59.264 5.31-23.36 0-33.31-.143-34.462-7.891-1.774-11.91 21.052-15.767 34.246-15.91 30.279-.33 62.32 5.904 59.48 18.49"/>
        <path fill="#4771DD" d="M536.648 522h-6.296c-.748 0-1.352-.565-1.352-1.262v-6.476c0-.697.604-1.262 1.352-1.262h6.296c.747 0 1.352.565 1.352 1.262v6.476c0 .697-.605 1.262-1.352 1.262"/>
        <path fill="#D2D8EE" d="M537.85 472.441c1.762 1.94 1.467 5.105-.66 7.07-2.126 1.966-5.278 1.988-7.04.048-1.762-1.94-1.467-5.106.66-7.07 2.126-1.967 5.28-1.987 7.04-.048M543.15 507h-14.3c-.47 0-.85-.447-.85-1 0-.552.38-1 .85-1h14.3c.47 0 .85.448.85 1 0 .553-.38 1-.85 1M544.114 493h-10.228c-.489 0-.886-.447-.886-1 0-.552.397-1 .886-1h10.228c.49 0 .886.448.886 1 0 .553-.396 1-.886 1M538.124 486h-4.248c-.483 0-.876-.447-.876-1 0-.552.393-1 .876-1h4.248c.484 0 .876.448.876 1 0 .553-.392 1-.876 1"/>
        <g transform="translate(495 549)">
            <mask id="h" fill="#fff">
                <use xlink:href="#g"/>
            </mask>
            <path fill="#FFF" d="M24.726 4.738c.672.62 1.682.617 2.324-.038 1.73-1.763 5.309-4.718 9.612-4.394 6.09.458 8.367 3.277 11.455 5.347 1.595 1.07 2.63 1.5 5.51.916 3.77-.763 7.54-1.91 12.76.153 5.22 2.063 19.792 2.98 19.792 2.98s-30.229 1.395-40.527.687c-6.67-.458-8.265.611-19.865.611-4.93 0-8.703-1.28-16.095-1.07-5.365.154-9.28-.305-9.28-.305s4.06-.611 4.133-1.452c.167-1.938 1.522-2.979 4.567-2.979 2.175 0 2.84-3.378 5.873-4.125 3.98-.98 7.847 1.922 9.741 3.669" mask="url(#h)"/>
        </g>
    </g>
</svg>
