<svg xmlns="http://www.w3.org/2000/svg" xmlns:xlink="http://www.w3.org/1999/xlink" width="683" height="683" viewBox="0 0 683 683">
    <defs>
        <path id="a" d="M.428.675H483.22v476.388H.428z"/>
        <path id="c" d="M.63 5.207c.098.168 31.9 16.08 24.857 92.764-4.794 52.202-18.663 102.52-3.314 124.921 18.642 27.21 55.786-1.419 64.007-16.079.503-.898.622-1.994-.07-2.405-.397-.237-1.172-.378-2.226 1.024-17.32 23.047-47.936 34.57-58.397 13.75-10.772-21.439-2.07-48.65 5.386-122.035C38.815 18.982 4.77 1.373 4.358.673L.63 5.207z"/>
        <linearGradient id="d" x1="-15.384%" x2="69.436%" y1="4.016%" y2="100.061%">
            <stop offset="0%" stop-color="#E1E4F2"/>
            <stop offset="100%" stop-color="#B3BDE2"/>
        </linearGradient>
    </defs>
    <g fill="none" fill-rule="evenodd">
        <g transform="translate(98.5 108)">
            <mask id="b" fill="#fff">
                <use xlink:href="#a"/>
            </mask>
            <path fill="#F0F2F9" d="M102.225 251.079c-10.83-2.577-36.272-11.657-46.23-41.224 0 0-48.756-14.47-54.953-62.01-5.466-41.92 27.189-63.822 34.707-73.999C49.797 54.83 47.731 43.255 63.846 24.238 74.453 11.721 89.05.675 108.469.675c14.617 0 18.047 10.789 15.701 16.949-3.305 8.681-10.234 7.397-11.642 4.552-.842-1.703-2.6-3.075-6.125-2.898-8.263.413-10.33 9.921-5.784 14.469 5.784 5.787 14.048 3.72 20.246 0 4.934-2.963 39.665-27.285 73.546-22.324 33.882 4.96 48.87 15.683 69.415 44.647 18.18 25.63 44.684 28.784 60.738 23.564 16.528-5.374 33.352-24.718 20.66-35.966-8.451-7.488-16.336-4.956-21.432-1.556-3.049 2.035-6.99-.593-6.252-4.185.798-3.88 3.082-8.086 8.677-10.795 12.809-6.2 23.965.414 29.336-2.894 5.371-3.307 7.389-14.077 25.617-19.016 10.328-2.799 17.966-1.673 22.916.047 2.508.872 2.439 4.408-.091 5.208-3.053.966-6.239 2.457-7.537 4.667-4.132 7.027 7.147 7.394 12.396 10.335 10.33 5.787 28.722 20.014 28.096 62.01-.413 27.697-10.743 43.82-19.833 53.328-9.09 9.508-21.485 10.335-31.402 16.123-20.394 11.901-19.42 20.256-29.749 23.977-10.33 3.72-19.833-.827-19.833-.827s-9.503 12.402-29.749 14.056c-19.835 1.62-23.551-11.576-49.169-8.268-16.88 2.178-27.683 11.575-27.683 11.575s11.57.827 19.42 8.268c7.85 7.44 4.958 19.843 4.958 19.843s6.02 5.949 11.982 1.24c6.673-5.27 13.346-5.764 20.273-3.761 2.262.654 4.687-.165 6.202-1.97 4.446-5.294 14.76-15.73 30.682-21.14 17.692-6.012 54.603-14.178 89.248 8.819 42.971 28.525 40.354 70.14 47.791 88.743 5.292 13.235 20.285 35.725 22.725 60.632 2.755 28.111-8.814 46.3-24.24 58.427-21.19 16.659-43.345 5.71-59.223 19.43-15.15 13.09-37.186 15.296-69.001 7.028-25.182-6.544-39.77-6.779-56.193 3.72-14.875 9.509-25.159 34.382-61.151 29.765-32.229-4.134-34.294-28.11-47.93-31.418-13.635-3.307-51.119-.386-54.54-38.86-3.443-38.721 32.14-57.474 45.45-63.25 23.24-10.086 47.239-4.793 60.295-.334 3.07 1.049 5.862-2.2 4.364-5.076-4.247-8.155-8.848-20.461-5.573-31.382 6.197-20.67 23.138-33.072 15.7-37.62-7.437-4.547-20.875 18.587-40.078 28.525-23.965 12.402-32.642 4.547-45.037 10.335-8.9 4.155-35.947 5.788-45.037-15.296-6.798-15.767-.371-29.497 3.676-36.002 1.214-1.95.164-4.509-2.07-5.04" mask="url(#b)"/>
        </g>
        <path fill="#D2D8EE" d="M428.642 359.298s-43.957-17.461-45.622-18.155c-.593-.247-.502-.594-.241-1a8.85 8.85 0 0 1 .623-.83.293.293 0 0 1 .302-.096l51.824 13.225-6.886 6.856zM342.39 432.16c-3.406.662-12.877 4.175-18.903 11.988-4.041 5.239-3.851 12.464.775 16.743 5.246 4.852 12.382 3.243 16.475.413 5.681-3.927 11.404-9.795 14.15-15.015 1.911-3.635 2.343-10.202-1.005-12.722-3.41-2.568-7.97-2.093-11.492-1.408"/>
        <path fill="#E1E5F3" d="M343.251 453.174c-.386-6.242-6.474-11.093-12.465-11.162-6.591-.076-10.811 5.098-10.122 11.644.537 5.115 4.933 9.923 10.464 10.3 9.644.655 12.416-6.045 12.123-10.782"/>
        <path fill="#8697D1" d="M339.237 455.215c.22 4.892-3.65 8.677-8.642 8.454-4.993-.222-9.22-4.369-9.439-9.26-.22-4.892 3.65-8.676 8.642-8.454 4.993.222 9.22 4.369 9.439 9.26"/>
        <path fill="#E1E5F3" d="M334.492 450.305c.845 1.155.695 2.704-.336 3.46-1.032.755-2.554.431-3.4-.724-.845-1.156-.693-2.705.338-3.46 1.031-.756 2.552-.432 3.398.724"/>
        <path fill="#D2D8EE" d="M439.866 442.563c-3.074 2-8.06 5.505-11.465 13.677-2.69 6.456-.574 12.048 4.27 15.502 5.722 4.081 13.045 2.575 17.353-2.273 4.407-4.961 7.334-12.92 6.921-19.947-.241-4.098-1.446-6.683-4.476-8.268-3.998-2.09-9.623-.63-12.603 1.309"/>
        <path fill="#E1E5F3" d="M452.193 464.611c1.24-7.441-4.028-12.402-10.64-13.745-5.408-1.1-10.657 1.05-12.704 4.754-.724 1.343-1.166 2.626-1.45 4.235-1.047 5.943 2.93 11.99 9.335 13.816 4.025 1.149 9.985-.034 13.29-4.202 1.087-1.371 1.823-2.778 2.17-4.858"/>
        <path fill="#8697D1" d="M448.61 466.564c-.52 5.214-5.592 8.352-11.188 7.246-5.597-1.107-9.778-5.995-9.08-11.252.692-5.193 5.452-8.396 11.077-7.437 6.37 1.084 9.712 6.228 9.191 11.443"/>
        <path fill="#E1E5F3" d="M442.652 462.409c-.843 1.21-2.589 1.448-3.9.534-1.31-.915-1.688-2.636-.844-3.846.843-1.21 2.59-1.45 3.899-.534 1.31.914 1.689 2.636.845 3.846"/>
        <path fill="#D2D8EE" d="M355.405 445.181c-3.925-1.963-1.962-6.51-5.99-8.578-24.465-11.495-104.66-48.741-106.292-49.504-1.162-.543-1.964-1.519-2.182-2.756-.13-.737-2.082-18.51-2.662-24.653-.062-.655.402-1.46.918-2.321.246-.41.542-.348.62-.035.689 2.756 5.165 21.961 5.44 23.012.365 1.393 1.19 2.005 2.686 2.48 1.515.484 100.955 31.97 107.22 33.349 4.473.983 22.106 3.72 22.106 3.72s-19.075 22.496-21.864 25.286"/>
        <path fill="#C3CBE8" d="M355.405 445.181c.576-.576 1.854-2.001 3.508-3.887-3.157-1.66-6.316-3.235-9.474-4.675 3.992 2.073 2.05 6.604 5.966 8.562"/>
        <path fill="#E1E5F3" d="M335.16 506.571c-3.863-3.38-4.442-11.162-1.344-28.731 1.808-10.25 7.352-21.403 13.016-29.041 4.751-6.408 54.483-65.703 75.406-85.057 10.949-10.129 18.706-13.22 21.244-14.263 2.514-1.033 3.701.242 4.166 1.964 3.1 11.472 1.653 35.656-7.644 49.918-16.994 26.072-47.492 66.059-60.53 82.577-20.315 25.734-41.01 25.527-44.315 22.633"/>
        <path fill="#F0F2F9" d="M340.014 484.248c1.935-11.226 8.902-23.647 14.965-32.01 5.087-7.018 57.404-72.187 79.802-93.382 4.092-3.873 6.128-7.355 9.295-9.582-.19.055-.386.12-.594.205-2.538 1.044-10.295 4.134-21.244 14.263-20.923 19.354-70.655 78.649-75.406 85.057-5.664 7.638-11.208 18.79-13.016 29.041-3.098 17.57-2.52 25.35 1.343 28.731.334.293 1.925.188 2.583.414.253-4.096.309-11.352 2.272-22.737"/>
        <path fill="#D2D8EE" d="M339.188 495.823c-4.087-1.154-7.076 1.033-7.23 3.358.722 5.117 2.214 6.78 3.718 7.7 1.859 1.137 4.58 1.19 8.608.724.93-.31 2.754-2.997 1.308-6.615-1.12-2.802-3.979-4.483-6.404-5.167M397.653 460.374s-1.756-2.377 7.438-15.193c4.243-5.914 13.976-16.734 17.456-19.636.62-.517 1.238-.863 2.79-.93 9.606-.414 17.766-.104 26.03-.517 9.92-.497 145.517-17.64 146.474-17.776 1.446-.207 3.202-1.137 4.235-2.997.809-1.459 8.053-18.001 9.244-20.8.224-.525.453-.207.465.104.035.862-.034 2.61-.447 3.85-.822 2.466-7.667 19.617-8.884 21.635-1.205 1.997-2.65 2.805-5.027 3.272-54.127 10.645-168.269 33.279-183.866 36.38-1.708.339-3.409 3.926-7.747 7.234-4.608 3.512-8.16 5.374-8.16 5.374"/>
        <path fill="#C3CBE8" d="M397.653 460.374s3.553-1.862 8.16-5.374c3.695-2.816 5.81-6.382 7.516-7.157-3.673.679-7.8 1.378-11.44 2.015-5.446 8.6-4.236 10.516-4.236 10.516"/>
        <path fill="#D2D8EE" d="M427.196 364.155c1.136-2.17 3.355-6.158 5.165-12.609 1.81-6.45 10.674-60.287 10.674-60.287.315-2.435.864-3.526 2.066-4.823l1.801-1.918c.113-.122.317-.036.31.131l-3.074 65.663c-.136.9-.553 1.993-1.035 2.681 0 0-6.817 8.268-11.569 12.402-.881.768-2.789 2.274-4.545 1.86-.91-.213-.719-1.331.207-3.1M447.24 354.054s-.831 4.52-.745 5.656c.037.478.21 1.029.74.931l64.215-11.713c.918-.23 1.635-.67 2.101-1.137.531-.531 1.101-1.067 1.427-1.467.078-.096-.037-.235-.16-.22l-66.963 7.51a.735.735 0 0 0-.615.44"/>
        <path fill="#C3CBE8" d="M339.842 484.351c1.377.758 3.403 1.12 5.475.93 3.374-.31 8.616-1.007 13.35-2.234.855-.222 1.701-.87 2.213-1.59.686-.966 1.46-2.068 1.808-3.058.213-.61.285-1.282-.181-1.727-.566-.54-1.324-.861-1.944-1.24-.638-.39-1.193-.616-1.928-.471-4.338.857-9.348 1.818-12.458 2.12-1.411.139-2.686-.033-3.89-.653-1.828-.941-5.785-3.135-7.231-3.962-.826 3.1-1.187 5.052-1.653 7.786.775.568 4.339 2.943 6.44 4.099"/>
        <path fill="#E1E5F3" d="M451.574 433.813l2.272 5.969 136.557-27-2.187-3.038a1.629 1.629 0 0 0-1.617-.652l-135.025 24.72zM341.357 424.925l-5.165 5.503-89.842-41.831 2.865-2.63a1.947 1.947 0 0 1 2.076-.332l90.066 39.29z"/>
        <path fill="#C3CBE8" d="M442.346 447.524c-1.811-.313-.585-5.236.654-8.337 1.263-3.16 2.567-4.53 3.89-4.479 1.791.07 3.237 4.341 2.411 6.408-1.384 3.463-4.958 6.753-6.955 6.408M335.056 438.705c-.736-.225-1.258-1.639 2.066-5.926 3.099-3.995 5.433-6.3 6.955-6.062 2.203.343 1.644 6.881.62 7.991-1.653 1.792-7.162 4.754-9.641 3.997M363.03 448.024c-.752 1.254-2.422 1.823-3.73 1.272-1.306-.551-1.755-2.015-1.002-3.27.754-1.253 2.423-1.823 3.73-1.272 1.307.552 1.755 2.015 1.003 3.27"/>
        <g transform="translate(274.5 242)">
            <mask id="e" fill="#fff">
                <use xlink:href="#c"/>
            </mask>
            <path fill="url(#d)" d="M.63 5.207c.098.168 31.9 16.08 24.857 92.764-4.794 52.202-18.663 102.52-3.314 124.921 18.642 27.21 55.786-1.419 64.007-16.079.503-.898.622-1.994-.07-2.405-.397-.237-1.172-.378-2.226 1.024-17.32 23.047-47.936 34.57-58.397 13.75-10.772-21.439-2.07-48.65 5.386-122.035C38.815 18.982 4.77 1.373 4.358.673L.63 5.207z" mask="url(#e)"/>
        </g>
        <g>
            <path fill="#D2D8EE" d="M261.513 295.207l10.107-3.092a.846.846 0 0 1 1.076 1.041l-2.528 10.148-8.655-8.097z"/>
            <path fill="#E1E5F3" d="M268.577 296.839c7.145 6.694.257 23.512-9.705 31.64-9.96 8.13-19.125 5.447-24.42-1.037-5.296-6.484-6.723-14.653 3.275-22.736 11.329-9.161 25.085-13.27 30.85-7.867"/>
            <path fill="#FFF" d="M256.886 318.057c2.447 8.174-1.307 14.962-9.482 15.397-6.729.36-13.477-4.291-16.29-11.473-2.812-7.182 1.865-14.745 8.565-15.47 7.492-.81 14.931 3.943 17.207 11.546"/>
            <path fill="#FF7E59" d="M251.693 320.936c2.304 5.88-.27 11.182-5.749 11.84-5.478.66-11.786-3.572-14.089-9.453-2.303-5.88.271-11.181 5.75-11.84 5.478-.66 11.785 3.573 14.088 9.453"/>
            <path fill="#E1E5F3" d="M247.903 318.712c.604 1.542-.071 2.933-1.508 3.106-1.437.173-3.091-.938-3.696-2.48-.604-1.542.072-2.932 1.508-3.106 1.438-.172 3.092.937 3.696 2.48M161.068 276.56c6.035 6.372-.84 19.497-13.185 28.502-10.99 8.015-18.595 3.039-22.317-2.126-4.432-6.149-4.726-14.408 5.298-20.974 12.966-8.494 25.132-10.76 30.204-5.403"/>
            <path fill="#FFF" d="M144.515 292.632c4.289 9.124.163 14.747-5.05 16.307-5.009 1.498-11.502-1.28-15.17-8.084-3.595-6.67-1.16-14.511 5.223-16.33 5.976-1.703 12.209 2.176 14.997 8.107"/>
            <path fill="#FF7E59" d="M139.447 295.02c3.701 6.519 1.568 11.709-2.682 13.052-3.984 1.26-9.407-1.23-12.339-6.669-2.873-5.331-2.034-11.207 3.06-12.685 4.326-1.256 9.374 1.747 11.961 6.303"/>
            <path fill="#E1E5F3" d="M285.648 189.912l-37.067-25.544c-.568-.362-.671-1.188.155-1.48l1.758-.537a.931.931 0 0 1 .636.032l44.017 18.446-9.5 9.083zM161.749 281.15s-83.942-67.5-88.382-71.421c-1.588-1.402-1.807-2.736-1.858-4.903-.086-3.63.514-23.187.584-25.51.018-.567.212-1.194.655-1.618.739-.705 1.996-1.823 2.61-2.264.191-.137.457.022.479.256.295 3.302 2.032 22.402 3.037 25.92.33 1.154 1.032 2.132 1.927 2.752 3.265 2.259 82.6 42.11 92.511 46.651 4.542 2.08 21.476 6.605 21.476 6.605l-33.04 23.533z"/>
            <path fill="#F0F2F9" d="M315.59 185.268c.904-3.648-2.581-6.296-5.472-5.058-12.76 5.467-28.258 11.997-52.554 28.28-36.344 24.358-114.263 76.789-133.261 92.477-18.998 15.688-29.735 32.477-34.141 53.395-2.87 13.628 5.335 14.002 18 13.176 4.954-.323 19.279-1.825 38.719-15.103 16.52-11.284 127.611-93.198 143.172-113.12 18.516-23.703 22.75-42.797 25.537-54.047"/>
            <path fill="#FFF" d="M96.814 360.218c4.746-22.939 16.313-41.351 36.777-58.556 20.465-17.205 104.4-74.705 143.548-101.418 13.292-9.068 24.136-15.376 33.393-20.176-.138.042-.277.083-.414.142-12.76 5.467-28.258 11.997-52.554 28.28-36.344 24.358-114.263 76.789-133.26 92.477-18.998 15.688-29.736 32.477-34.141 53.395-1.814 8.607.795 11.924 6.15 12.995-.244-1.9-.098-4.244.501-7.139"/>
            <path fill="#E1E5F3" d="M89.86 355.952c-1.634 9.393 3.642 11.265 8.63 11.692 2.685-.21 4.87-3.941 2.548-8.535-3.304-6.537-10.256-5.573-11.177-3.157M275.873 198.995c3.008-3.346 9.562-10.748 12.666-19.817 3.58-10.459 17.065-59.27 21.89-71.422.901-2.274 2.42-4.25 3.835-5.432l5.387-3.513-10.462 80.367c-.229 1.71-1.188 3.355-2.478 4.541l-19.824 14.312c-3.015 2.285-8.602 4.954-10.95 4.198-.386-.124-.942-.509-.975-.912-.052-.614-.156-1.136.911-2.322M305.988 192.131l6.918-6.76 77.845-3.283a.255.255 0 0 1 .224.398c-.565.83-2.022 2.645-4.194 3.04l-80.173 8.515c-1.524.165-1.864-1.014-.62-1.91M217.503 292.297c4.288-4.286 17.621-12.936 29.736-19.816 3.122-1.773 6.636-1.305 10.738-.826 6.195.723 12.7 1.445 22.715 2.477 6.216.641 160.346-5.676 162.721-5.78 2.063-.089 3.582-.555 5.37-1.651 3.2-1.961 8.362-12.179 15.796-25.183.41-.717-.103 3.302-1.342 5.78-1.218 2.434-10.256 21.536-14.661 26.49-2.4 2.7-4.543 3.166-9.155 3.647-5.21.544-193.524 20.539-208.014 22.156-3.497.39-15.35 10.149-30.733 13.245 0 0 6.56-5.715 8.776-8.67 2.478-3.302 2.788-6.605 8.053-11.869"/>
            <path fill="#D2D8EE" d="M209.45 304.167c-2.216 2.954-8.776 8.67-8.776 8.67 14.917-3.003 26.512-12.268 30.391-13.184l-20.05 2.004c-.46.857-.946 1.683-1.565 2.51"/>
            <path fill="#FF7E59" d="M277.904 198.685s21.25-16.35 32.953-32.72l1.852-13.993c-3.585 7.063-14.67 26.993-34.805 46.713"/>
            <path fill="#2474CD" d="M312.723 152.021l2.727-21.107c-15.557 42.837-37.511 67.72-37.511 67.72 19.565-17.598 31.806-39.374 34.784-46.613M104.48 343.49c4.542.103 10.979-.31 17.65-1.433a6.194 6.194 0 0 0 3.22-1.604s1.844-1.607 2.567-2.571c.424-.565.45-1.368-.25-1.944l-2.182-1.796c-.745-.613-1.397-.874-2.352-.732-2.753.41-10.668 1.41-15.212 1.41-1.342 0-2.374-.654-2.89-1.307-.517-.654-1.853-2.22-4.13-6.399a69.954 69.954 0 0 0-3.959 7.156c1.291 3.444 4.543 7.878 4.543 7.878.62.826 1.762 1.314 2.994 1.342"/>
            <path fill="#D2D8EE" d="M263.209 296.288c-.71 1.656-12.511 8.751-16.107 7.706-2.502-.726 1.184-5.017 5.92-9.082 3.63-3.117 8.13-6.193 9.569-6.193s1.444 5.643.618 7.57M155.14 274.958c-1.445 1.858-13.215 7.225-15.005 6.193-1.61-.93.648-3.3 1.928-4.542 4.818-4.679 12.73-9.992 13.904-9.908 1.927.138.732 6.254-.826 8.257"/>
            <path fill="#FFF" d="M147.57 269.728l7.158-4.679-71.727-55.896a3.203 3.203 0 0 0-3.592-.128l-3.908 2.492 72.068 58.211zM268.302 288.995l.413 6.605 165.2-17.614-.463-3.391a2.213 2.213 0 0 0-2.367-1.805l-162.783 16.205z"/>
            <path fill="#D2D8EE" d="M159.381 325.084c.105.322.107.451.197.499.043.02 1.23.416 1.244.084.182-3.555 8.585-7.237 9.326-4.188.697-1.294 1.426-2.588 1.65-4.183-.002-.223.06-.296.06-.296-.912-2.779-15.07-.005-12.477 8.084m12.417-11.933v-.005a14.39 14.39 0 0 0-1.412-4.608c-4.505-5.705-20.371.172-14.067 14.915.195.45.434.706.54.623.107-.083.611-.135.532-.577-2.073-11.538 10.597-14.292 14.407-10.349m-5.048-8.68c.094.042.894.441.696.197a2.762 2.762 0 0 0-.71-.644c-13.446-8.4-22.59 11.56-12.192 20.625.396.348.673.592.76.597.12.01 2.425 1.797.652-1.09-6.728-10.931-.188-25.54 10.794-19.685"/>
            <path fill="#D2D8EE" d="M170.342 308.588c-.728 2.994-9.237-2.161-10.634-5.004-.144-.307-.261-.38-.306-.358-.09.03-.148.145-.19.478-.547 4.207 8.051 11.824 12.607 9.866a1.604 1.604 0 0 0-.043-.358 14.823 14.823 0 0 0-1.434-4.624m-13.562-3.817c.05-.442.086-.624-.016-.728-.102-.105-.302.161-.541.562-4.687 8.002 7.103 20.16 14.195 17.009a13.303 13.303 0 0 0 1.39-4.488v-.005c-3.799 3.499-15.883-4.696-15.028-12.35m-1.419-1.336c.299-.329.588-.641.473-.662-.088-.015-.39.151-.8.427-7.676 5.155-4.963 21.18 5.537 24.073v.01c.304.032.611.054.912.054 1.212 0 2.404-.23 3.523-.682.982-.427 1.531-.756 2.455-1.433.1-.078.201-.16.298-.243-8.857 3.205-20.09-12.69-12.398-21.545"/>
        </g>
    </g>
</svg>
