<svg xmlns="http://www.w3.org/2000/svg" xmlns:xlink="http://www.w3.org/1999/xlink" width="683" height="683" viewBox="0 0 683 683">
    <defs>
        <path id="a" d="M.46.065h145.377v149.172H.461z"/>
        <path id="c" d="M.282 3.123l20.355 112.2 12.237.556L25.248.01z"/>
        <linearGradient id="d" x1="78.675%" x2="43.772%" y1="98.705%" y2="14.54%">
            <stop offset="0%" stop-color="#646D9E"/>
            <stop offset="100%" stop-color="#525685"/>
        </linearGradient>
        <path id="f" d="M24.42.376C11.092 1.596.189 11.304.189 24.783c0 1.042.202 3.142.66 5.652L5.02 52.8c1.154 6.188 6.52 10.672 12.772 10.672 9.246 0 16.788-7.34 17.199-16.552 8.085-3.796 13.66-12.278 13.66-24.848C48.65 11.65 41.116.259 26.959.259c-.825 0-1.67.038-2.538.117"/>
        <linearGradient id="g" x1="-21.416%" x2="66.732%" y1="94.172%" y2="31.824%">
            <stop offset="0%" stop-color="#A3B1DD"/>
            <stop offset="100%" stop-color="#8597D1"/>
        </linearGradient>
        <path id="i" d="M.214.26h35.098v52.62H.214z"/>
        <path id="k" d="M.488 3.215l19.926 106.74 11.582-1.477L24.425.163z"/>
        <path id="m" d="M0 .331h113.398v68.715H0z"/>
    </defs>
    <g fill="none" fill-rule="evenodd">
        <g transform="translate(339.96 214.469)">
            <mask id="b" fill="#fff">
                <use xlink:href="#a"/>
            </mask>
            <path fill="#C3CBE8" d="M96.286 149.237s31.4-65.48 47.643-120.135C149.879 9.078 141.214.887 127.687.42c-15.7-.541-52.515-.541-69.84.541-3.82.239-12.924 2.726-17.324 12.988-9.744 22.728-9.142 36.122-5.955 45.997C21.575 97.827.461 143.825.461 143.825l95.825 5.412z" mask="url(#b)"/>
        </g>
        <path fill="#B3BEE2" d="M402.139 393.378c0 8.07-14.798 19.211-32.89 19.482-18.162.271-32.889-8.165-32.889-16.235s65.779-11.316 65.779-3.247"/>
        <path fill="#C3CBE8" d="M335.548 399.962s12.452 3.788 33.927 2.525c23.217-1.364 43.492-8.117 53.237-13.348l13.715-27.057-83.013-6.855-58.353 12.748.74 2.54c2.921 10.023 11.029 16.601 18.768 20.924 12.272 6.855 20.98 8.523 20.98 8.523"/>
        <path fill="#D2D8EE" d="M371.526 291.743s-3.759 10.562-11.615 29.933c-8.121 20.022-15.533 35.614-15.533 35.614l70.754 2.266a19.503 19.503 0 0 0 18.756-12.3l21.848-54.261c2.556-6.604-2.263-13.73-9.346-13.821l-55.872-.07a20.195 20.195 0 0 0-18.992 12.64"/>
        <path fill="#7582B8" d="M323.954 224.45l.27 42.029h-11.189c-6.926 0-12.541-9.409-12.541-21.015s5.615-21.014 12.541-21.014h10.919z"/>
        <path fill="#E9EEFB" d="M301.305 240.91c1.354-6.223 5.139-15.085 12.57-15.085h9.289l.79-1.375h-10.918c-6.927 0-13.084 9.661-12.475 22.886.135-1.037.228-4.054.744-6.426"/>
        <path fill="#646D9F" d="M336.947 245.464c0 11.606-5.817 21.015-12.993 21.015-7.177 0-12.994-9.409-12.994-21.015s5.817-21.014 12.994-21.014c7.176 0 12.993 9.408 12.993 21.014"/>
        <path fill="#E86A46" d="M336.766 245.464c0 10.939-5.332 19.806-11.91 19.806s-11.91-8.867-11.91-19.806c0-10.937 5.332-19.805 11.91-19.805s11.91 8.868 11.91 19.805"/>
        <path fill="#42426C" d="M329.525 229.994l-.076 30.947h-2.247c-5.14 0-9.307-6.93-9.307-15.477s4.167-15.476 9.307-15.476c.59 0 2.323.006 2.323.006"/>
        <path fill="#525785" d="M284.734 311.135l-18.885-17.909s33.89-42.329 34.825-43.387c1.353-1.533 3.654-2.886 10.376-3.427.194 5.89 1.473 9.87 3.096 12.796 2.913 5.248 6.83 6.685 6.83 6.685l-36.242 45.242z"/>
        <path fill="#42426C" d="M312.538 255.528l-3.157 4.017c-1.15 1.489-1.76 3.202-.767 5.141.866 1.69 3.09 1.962 4.399.541 0 0 2.335-2.626 2.944-3.336-2.378-2.824-3.419-6.363-3.419-6.363"/>
        <path fill="#646D9F" d="M311.05 246.411c-6.722.542-9.023 1.894-10.376 3.427-.934 1.059-34.826 43.389-34.826 43.389l4.869 4.233s40.337-50.94 40.333-51.049"/>
        <path fill="#646D9F" d="M311.05 246.411c-6.722.542-9.023 1.894-10.376 3.427-.934 1.059-34.826 43.389-34.826 43.389l4.869 4.233s40.337-50.94 40.333-51.049"/>
        <path fill="#E9EEFB" d="M300.132 252.32c.542-.813.869-1.805.598-2.549-.274.31-10.395 12.896-10.395 12.896l.594 1.287s9.205-11.603 9.203-11.635"/>
        <path fill="#42426C" d="M347.165 358.557l-4.32 1.883-8.044-18.435 4.32-1.884z"/>
        <path fill="#535785" d="M394.153 313.018c-.135 10.958-1.91 15.814-6.36 15.017-4.453-.798-3.844-25.745.607-24.947 4.452.797 5.848 2.31 5.753 9.93"/>
        <path fill="#42426C" d="M402.996 349.951c-10.106.18-52.515 0-62.08 0 0-17.135 13.898-31.025 31.04-31.025 17.143 0 31.04 13.89 31.04 31.025"/>
        <path fill="#E86A46" d="M350.233 354.138l-4.32 1.883-8.044-18.436 4.32-1.883z"/>
        <path fill="#535785" d="M371.144 331.079h-11.29a5.07 5.07 0 0 1-4.786-3.394l-.707-2.018 31.4-6.02 4.264 5.14c-3.654-1.217-13.399 3.992-15.231 5.18-.942.612-2.138 1.112-3.65 1.112"/>
        <path fill="#535785" d="M338.21 334.98l10.828 24.892L404.8 339.49s-2.888-4.149-4.873-7.035c-1.284-1.867-2.527-2.165-4.872-1.984-3.857.296-13.648 5.614-18.49 8.545a11.468 11.468 0 0 1-6.216 1.656l-16.034-.382a6.049 6.049 0 0 1-5.013-2.887l-2.826-5.173 1.557-2.03-.657-.172a3.524 3.524 0 0 0-2.927.534l-6.24 4.418z"/>
        <path fill="#7582B8" d="M338.154 226.941c-3.373.395-7.118.8-9.486 2.064-2.512 1.339-5.527 3.111-7.692 7.981-2.533 5.696-1.69 11.028-1.2 14.116a5.455 5.455 0 0 0 1.832 3.278c2.495 2.151 2.662 4.935 3.406 8.213.744 3.277 5.978 27.38 10.1 39.937.9 2.743 2.062 4.422 4.103 5.761l5.095 3.344a15.303 15.303 0 0 0 8.398 2.51h33.492c3.622 0 7.13-1.269 9.911-3.586 0 0 7.786-9.582 9.46-11.805l12.943-38.182-.27-29.403s-2.33-3.834-9.204-4.475c-5.685-.53-11.91-1.342-36.003-1.342-23.55 0-31.282 1.168-34.885 1.59"/>
        <path fill="#E9EEFB" d="M335.54 228.255c3.155-.355 12.262-1.898 37.738-1.72 24.158.17 31.703 1.015 31.703 1.015s2.809 0 4.05-.867c-5.68-.58-11.91-1.342-36.003-1.342-23.55 0-31.279 1.195-34.885 1.589-3.508.384-7.264.89-9.486 2.063a23.09 23.09 0 0 0-2.515 1.512c2.131-.824 6.242-1.894 9.397-2.25"/>
        <path fill="#42426C" d="M387.939 319.545c1.42-.947 2.65-1.031 2.65-1.031l3.564-8.066-4.692-7.622-3.654 4.487s.514 13.31 2.132 12.232M333.247 231.32c-4.633 4.768-.902 10.447 2.99 10.447.845-1.08 10.816-14.93 10.816-14.93s-8.866-.6-13.806 4.483M405.765 231.32c-1.051 4.768-11.553 10.447-15.444 10.447.442-1.08 6.983-14.93 6.983-14.93s9.581-.6 8.46 4.483"/>
        <path fill="#7582B8" d="M403.013 233.589c.8 9.081-17.657 18.955-35.184 18.955-18.898 0-32.28-5.109-33.08-14.19-.8-9.08 13.834-17.509 32.684-18.825 18.85-1.316 34.78 4.979 35.58 14.06"/>
        <path fill="#646D9F" d="M400.072 231.481c.726 8.245-12.668 15.905-29.916 17.11-17.248 1.203-31.82-4.505-32.546-12.75-.726-8.244 12.668-15.904 29.917-17.109 17.248-1.204 31.819 4.504 32.545 12.749"/>
        <path fill="#8697D1" d="M397.13 229.373c.653 7.409-11.502 14.3-27.148 15.393-15.645 1.092-28.858-4.029-29.51-11.438-.653-7.409 11.502-14.3 27.147-15.393 15.647-1.092 28.86 4.03 29.512 11.438"/>
        <path fill="#646D9F" d="M394.189 227.265c.579 6.573-10.336 12.696-24.38 13.677-14.044.98-25.897-3.553-26.477-10.127-.578-6.573 10.337-12.696 24.38-13.677 14.044-.98 25.898 3.554 26.477 10.127"/>
        <path fill="#95A4D7" d="M390.706 225.157c.505 5.737-9.17 11.092-21.612 11.96-12.44.87-22.936-3.078-23.441-8.815-.505-5.737 9.17-11.092 21.612-11.96 12.44-.869 22.936 3.078 23.441 8.815"/>
        <path fill="#525785" d="M387.765 223.049c.432 4.901-8.005 9.488-18.844 10.244-10.838.757-19.975-2.603-20.407-7.504-.431-4.902 8.005-9.488 18.844-10.245 10.839-.756 19.975 2.604 20.407 7.505"/>
        <path fill="#42426C" d="M379.487 225.656c.25 2.834-4.629 5.486-10.896 5.923-6.267.438-11.55-1.505-11.8-4.339-.249-2.834 4.63-5.486 10.896-5.923 6.267-.438 11.55 1.505 11.8 4.339M384.296 216.102c0 1.04-1.132 2.002-2.527 2.148-1.395.147-2.527-.578-2.527-1.618s1.132-2.002 2.527-2.148c1.395-.146 2.527.578 2.527 1.618M358.557 216.97l-1.09-.467a1.885 1.885 0 0 0-2.474.991l-.835 1.905c-.257.681.068 2.063 1.117 3.28 1.114 1.294 2.504 1.05 2.843.238l1.431-3.475a1.883 1.883 0 0 0-.992-2.472"/>
        <path fill="#42426C" d="M374.348 191.811l6.307 24.547 1.974-.653-6.274-24.423z"/>
        <path fill="#95A4D7" d="M376.154 182.23h-18.2l1.15 44.373s.156 3.455 8.927 3.033c7.49-.36 9.274-3.427 9.274-3.427l-1.15-43.98z"/>
        <path fill="#42426C" d="M357.953 182.23l.871 33.595c.816 1.906 2.981 3.169 6.05 3.169 7.579 0 12.18-5.184 12.18-8.84l-.9-27.925h-18.2z"/>
        <path fill="#535785" d="M329.227 341.767a39.935 39.935 0 0 1-7.206 1.668l-45.476 6.161v.008c-7.954 1.3-14.009 8.217-13.971 16.53.041 9.21 7.544 16.643 16.758 16.602 0 0 65.027.049 65.375.047 2.13-.01 8.842-2.347 8.842-2.347s-13.958-32.277-17.476-40.466a.515.515 0 0 0-.639-.284l-6.207 2.081z"/>
        <path fill="#E86A46" d="M285.414 348.408c-.862.1-8.87 1.146-8.87 1.146l.001.007c-7.954 1.3-14.009 8.217-13.971 16.53.04 9.21 7.544 16.643 16.758 16.601h8.555c7.45-.033 12.045-9.493 10.596-19.314-1.108-7.518-5.668-15.826-13.07-14.97"/>
        <path fill="#42426C" d="M288.016 366.769c-.04-8.761-5.326-15.747-12.36-17.041-7.625 1.565-13.344 8.326-13.308 16.405.04 9.008 7.22 16.311 16.154 16.59 5.624-1.79 9.547-8.357 9.514-15.954"/>
        <path fill="#E9EEFB" d="M324.968 343.695c2.833-.243 6.52-1.433 8.15-2.018l3.197-1.128c-.09-.202.003-.01-.24-.574a.52.52 0 0 0-.64-.29l-6.208 2.082a39.915 39.915 0 0 1-7.206 1.668l-15.223 2.063 1.203.033c.589.015 1.177-.01 1.762-.078l15.205-1.758z"/>
        <path fill="#646D9F" d="M394.515 336.017c-.972 0-1.926.068-2.864.188l-15.403 5.897a43.02 43.02 0 0 1-8.228 1.912l-45.6 5.97v.009c-8.438 1.34-14.889 8.644-14.889 17.455 0 9.763 7.919 17.678 17.686 17.678 0 0 68.928.36 69.298.36 12.358 0 22.377-13.306 22.377-25.659s-10.02-23.81-22.377-23.81"/>
        <path fill="#FF7E59" d="M331.826 348.767c-.913.102-9.406 1.173-9.406 1.173v.008c-8.438 1.34-14.889 8.643-14.889 17.455 0 9.763 7.918 17.678 17.686 17.678l9.068.04c7.897 0 12.813-10.006 11.324-20.424-1.14-7.974-5.934-16.8-13.783-15.93M405.072 361.676c0 4.085-2.182 7.396-4.873 7.396-2.691 0-4.872-3.311-4.872-7.396 0-4.084 2.18-7.396 4.872-7.396 2.691 0 4.873 3.312 4.873 7.396"/>
        <path fill="#42426C" d="M334.6 368.243c0-9.286-5.57-16.717-13.019-18.122-8.09 1.624-14.185 8.762-14.185 17.327 0 9.548 7.575 17.324 17.045 17.661 5.97-1.87 10.16-8.812 10.16-16.866M401.442 361.676c0 2.533-1.253 4.585-2.8 4.585-1.545 0-2.798-2.052-2.798-4.585 0-2.532 1.253-4.585 2.799-4.585s2.799 2.053 2.799 4.585"/>
        <path fill="#C3CBE8" d="M360.948 385.487s14.031-.677 19.851-2.706c5.82-2.03 12.317-6.63 22.197-10.823 9.88-4.194 19.49-6.675 19.49-6.675s-2.166 13.53-13.535 18.445c-11.402 4.93-29.595 5.547-48.003 1.759"/>
        <path fill="#E1E5F3" d="M458.579 334.98c-.362-5.787-12.994-2.345-36.454-1.083-22.731 1.224-37.437-.626-36.814 5.773.587 6.036 17.158 6.972 37.356 5.411 3.872-.3 7.413-.64 10.647-.948 2.12-.202 2.32.693 1.917 1.895-1.21 3.617-3.353 9.75-6.068 15.829-4.512 10.1-7.399 14.971-10.106 16.234-2.707 1.263-8.73.609-10.286 6.426-1.805 6.743 5.043 8.193 7.94 7.824 2.482-.315 9.204-2.164 13.715-8.117 2.57-3.39 10.07-15.765 19.966-42.088a1.827 1.827 0 0 1 1.164-1.102c4.874-1.505 7.187-3.434 7.023-6.055"/>
        <path fill="#535785" d="M283.382 521.518s-.002 3.307 0 3.497c.003.217.168.434.455.566l3.965 1.83c8.28 3.814 25.86 3.358 33.326-1.462l14.684-9.254c3.951-2.525 3.49-4.574 3.49-7.776 0 0-15.272-1.627-15.463-1.588l-40.457 14.187z"/>
        <path fill="#7582B8" d="M324.21 484.666l-2.36 14.019c-.24-.042-2.233-.406-3.317-.592-2.478-.423-4.02-3.84-3.426-7.73.593-3.89 3.102-6.81 5.575-6.357 1.582.29 3.528.66 3.528.66"/>
        <path fill="#646D9F" d="M327.58 492.385c-.594 3.89-3.09 6.736-5.576 6.357-2.486-.379-4.02-3.84-3.426-7.73.593-3.89 3.09-6.736 5.575-6.357 2.487.379 4.02 3.84 3.427 7.73M283.78 521.02c-.593.282-.482.83.057 1.078l3.965 1.83c8.281 3.815 25.86 3.358 33.325-1.462l14.685-9.254c4.232-2.71 4-4.405 2.548-7.392 0 0-14.33-2.011-14.521-1.972L283.78 521.02z"/>
        <g transform="translate(303 386)">
            <mask id="e" fill="#fff">
                <use xlink:href="#c"/>
            </mask>
            <path fill="url(#d)" d="M.282 3.123l20.355 112.2 12.237.556L25.248.01z" mask="url(#e)"/>
        </g>
        <g>
            <path fill="#7582B8" d="M322.55 484.205a15.86 15.86 0 0 1 .106 3.905l-.106 1.096-18.189-99.755 2.235 4.104a35.965 35.965 0 0 1 3.946 11.623l12.007 79.027z"/>
            <path fill="#646D9F" d="M331.01 386.192c-.072.654-1.088 2.186-11.976 3.593-12.656 1.636-16.052.512-16.195-.13-.136-.61-.641-2.902-.641-2.902l28.72-3.55s.16 2.378.093 2.99"/>
            <path fill="#42426C" d="M330.921 383.203c.132 1.064-4.156 2.744-12.09 3.702-10.956 1.324-16.501.913-16.633-.152-.132-1.064 6.19-2.722 14.122-3.702 7.932-.98 14.469-.912 14.601.152"/>
            <path fill="#FF7E59" d="M311.726 429.643l2.11 11.517c1.244.36 4.155 1.07 9.7.385 5.48-.677 8.533-2.021 9.398-2.78l-.764-11.61-20.444 2.488z"/>
            <path fill="#7582B8" d="M311.175 426.638l.55 3.005c1.43.384 4.515.852 10.467.078 5.683-.739 8.51-1.793 9.977-2.566l-.2-3.042c-.97.553-4.96 1.91-10.156 2.553-5.225.646-9.662.272-10.638-.028"/>
            <path fill="#646D9F" d="M306.9 513.743s5.114-1.799 10.57-7.787c4.536-4.979 6.52-9.656 6.52-9.656s2.267 5.364 8.185 4.47c2.878-.436 4.23-6.253 4.23-6.253l2.904 14.073-32.41 5.153z"/>
            <path fill="#7582B8" d="M338.958 487.863l-2.373 14.073c-.241-.042-2.245-.407-3.336-.594-2.492-.426-4.042-3.854-3.445-7.76.597-3.905 3.12-6.837 5.607-6.382 1.59.292 3.547.663 3.547.663"/>
            <path fill="#646D9F" d="M342.346 495.61c-.596 3.906-3.107 6.764-5.606 6.383-2.5-.38-4.043-3.855-3.446-7.76s3.108-6.762 5.607-6.382c2.5.38 4.043 3.855 3.445 7.76"/>
            <path fill="#FF7E59" d="M340.937 495.396c-.41 2.69-2.14 4.657-3.86 4.395-1.722-.262-2.784-2.654-2.373-5.343.41-2.69 2.14-4.657 3.86-4.395 1.722.262 2.784 2.654 2.373 5.343"/>
            <path fill="#646D9F" d="M339.27 495.061c-.284 1.864-1.553 3.215-2.833 3.02-1.28-.194-2.087-1.863-1.802-3.725.285-1.863 1.553-3.215 2.833-3.02 1.28.195 2.087 1.862 1.803 3.725M319.964 385.264h-10.751c-6.239 0-11.84-7.5-11.84-16.75s5.601-16.75 11.84-16.75h11.024l-.273 33.5z"/>
            <path fill="#646D9F" d="M331.85 368.514c0 9.25-5.057 16.75-11.296 16.75-6.239 0-11.296-7.5-11.296-16.75s5.057-16.75 11.296-16.75c6.239 0 11.296 7.5 11.296 16.75"/>
            <path fill="#7582B8" d="M331.892 368.514c0 8.55-4.632 15.482-10.346 15.482s-10.346-6.932-10.346-15.482c0-8.551 4.632-15.483 10.346-15.483s10.346 6.932 10.346 15.483"/>
            <path fill="#FF7E59" d="M328.32 368.514c0 5.218-2.826 9.448-6.313 9.448-3.487 0-6.313-4.23-6.313-9.448s2.826-9.448 6.313-9.448c3.487 0 6.313 4.23 6.313 9.448"/>
            <path fill="#535785" d="M324.813 368.514c0 3.644-1.974 6.598-4.409 6.598-2.435 0-4.409-2.954-4.409-6.598 0-3.645 1.974-6.599 4.41-6.599 2.434 0 4.408 2.954 4.408 6.599"/>
            <path fill="#42426C" d="M305.901 368.52c0-8.71 4.94-15.875 10.718-16.75h-3.958c-6.239 0-11.84 7.499-11.84 16.75 0 9.25 5.601 16.75 11.84 16.75h3.957c-5.778-.876-10.717-8.041-10.717-16.75M388.647 219.64c.272 1.03-1.013 2.597-2.416 3.254-1.403.656-2.358.122-2.665-.877-.227-.736-1.26-5.354-1.26-5.354s1.464.157 2.564-.068c1.1-.224 2.407-1.128 2.407-1.128s1.064 3.234 1.37 4.173"/>
            <path fill="#42426C" d="M383.667 222.252l-1.711.436a2.397 2.397 0 0 0-1.735 2.915l1.409 5.516.17-.043c2.34-.81 4.332-1.82 5.844-2.957l-1.056-4.135a2.403 2.403 0 0 0-2.92-1.732M356.414 223.86l10.128-23.348 1.858.956-10.075 23.231z"/>
            <path fill="#42426C" d="M358.746 223.079l-1.447-.617a2.5 2.5 0 0 0-3.28 1.311l-1.744 4.072c.874 1.234 2.825 2.649 5.592 3.61l2.194-5.103a2.491 2.491 0 0 0-1.315-3.273"/>
        </g>
        <g transform="translate(337 153)">
            <mask id="h" fill="#fff">
                <use xlink:href="#f"/>
            </mask>
            <path fill="url(#g)" d="M24.42.376C11.092 1.596.189 11.304.189 24.783c0 1.042.202 3.142.66 5.652L5.02 52.8c1.154 6.188 6.52 10.672 12.772 10.672 9.246 0 16.788-7.34 17.199-16.552 8.085-3.796 13.66-12.278 13.66-24.848C48.65 11.65 41.116.259 26.959.259c-.825 0-1.67.038-2.538.117" mask="url(#h)"/>
        </g>
        <g>
            <path fill="#E9EEFB" d="M363.434 199.462h-21.769l-1.563-19.193h26.163z"/>
            <path fill="#646D9F" d="M372.518 194.392c0 .854-.024 5.08-.024 6.745 5.618-2.558 9.968-7.13 12.3-13.753-1.716 2.828-3.931 5.363-6.619 7.167-1.988 1.335-4.435 1.131-5.657-.159"/>
            <path fill="#FF7E59" d="M386.131 180.812c0 7.696-4.549 13.606-9.514 14.667-5.935 1.267-12.119-6.18-11.507-12.63.634-6.691 3.9-12.165 8.608-13.715 7.973-2.625 12.413 5.322 12.413 11.678"/>
            <g transform="translate(337.465 154)">
                <mask id="j" fill="#fff">
                    <use xlink:href="#i"/>
                </mask>
                <path fill="#E9EEFB" d="M3.045 30.004c-.204-3.26-.119-4.776-.02-5.856C4.297 10.171 16.18 1.078 30.226 1.078c1.498 0 3.738.272 5.085.563C32.252.513 28.702.01 24.678.377 11.222 1.599.214 11.32.214 24.82c0 1.043.068 2.58.666 5.661L5.09 52.88c-.21-1.42-2.045-22.876-2.045-22.876" mask="url(#j)"/>
            </g>
            <path fill="#FF7E59" d="M365.212 182.035c-.375 3.79-3.16 29.74-3.686 34.433 6.593-2.468 11.286-8.82 11.286-16.27v-22.6l-2.27.002c-2.525.003-5.082 1.923-5.33 4.435"/>
            <path fill="#42426C" d="M380.366 182.928c0 4.131-1.987 7.48-4.44 7.48-2.452 0-4.44-3.349-4.44-7.48s1.988-7.48 4.44-7.48c2.453 0 4.44 3.349 4.44 7.48"/>
            <path fill="#FF7E59" d="M377.102 182.928c0 1.832-.882 3.316-1.968 3.316-1.087 0-1.968-1.484-1.968-3.316 0-1.831.88-3.315 1.968-3.315 1.086 0 1.968 1.484 1.968 3.315"/>
            <path fill="#42426C" d="M373.537 199.97l6.333 24.64 1.982-.655-6.3-24.516z"/>
            <path fill="#42426C" d="M375.894 198.737c.203.35-.308.956-1.095 1.412-.786.455-1.55.587-1.752.237-.203-.35.13-1.008 1.017-1.504.956-.533 1.627-.495 1.83-.145"/>
            <path fill="#7582B8" d="M404.389 255.047l-68.681.035V242.77l55.633-.03s6.388-.615 13.048-6.658v18.965z"/>
            <path fill="#42426C" d="M396.234 312.99l-51.239-.137-6.479-26.354c-1.036-4.184 2.133-8.229 6.446-8.229h32.734a12.627 12.627 0 0 1 12.26 9.587l6.278 25.132z"/>
            <path fill="#646D9F" d="M392.383 291.08h-45.35v-1.81h44.909zM395.543 303.845h-45.338v-1.81h44.897z"/>
            <path fill="#42426C" d="M344.888 283.766a7.546 7.546 0 0 1 .715-5.473h-.64c-4.314 0-7.483 4.045-6.446 8.229l6.478 26.343s3.41 2.353 7.622 2.535c-.407-1.426-7.729-31.634-7.729-31.634"/>
            <path fill="#646D9F" d="M348.344 284.59c-1.694 1.569-2.557 3.986-1.945 6.458l5.913 23.865h3.543l-7.511-30.324z"/>
            <path fill="#42426C" d="M425.332 229.926l.168 31.922h-6.963c-4.311 0-7.805-7.147-7.805-15.961 0-8.815 3.494-15.961 7.805-15.961h6.795z"/>
            <path fill="#7582B8" d="M436.645 225.4l.272 42.187h-11.235c-6.956 0-12.595-9.444-12.595-21.094s5.639-21.094 12.595-21.094h10.963z"/>
            <path fill="#E9EEFB" d="M426.361 226.622h10.291l.004-1.211h-10.963c-4.153 0-7.836 3.368-10.13 8.56 2.9-4.202 6.663-7.35 10.798-7.35"/>
            <path fill="#7582B8" d="M449.692 246.493c0 11.65-5.841 21.094-13.047 21.094s-13.048-9.444-13.048-21.094 5.842-21.094 13.048-21.094 13.047 9.444 13.047 21.094"/>
            <path fill="#646D9F" d="M449.511 246.493c0 10.98-5.355 19.88-11.96 19.88s-11.96-8.9-11.96-19.88c0-10.979 5.355-19.88 11.96-19.88s11.96 8.901 11.96 19.88"/>
            <path fill="#FF7E59" d="M444.904 246.493c0 5.88-2.846 10.646-6.356 10.646s-6.357-4.766-6.357-10.646c0-5.88 2.846-10.645 6.357-10.645 3.51 0 6.356 4.766 6.356 10.645"/>
            <path fill="#42426C" d="M440.044 246.493c0 3.48-1.684 6.3-3.761 6.3-2.078 0-3.762-2.82-3.762-6.3 0-3.479 1.684-6.3 3.762-6.3 2.077 0 3.761 2.821 3.761 6.3"/>
            <path fill="#7582B8" d="M390.435 316.067c0 7.05-5.72 12.765-12.776 12.765s-12.776-5.715-12.776-12.765c0-7.05 5.72-12.765 12.776-12.765s12.776 5.715 12.776 12.765"/>
            <path fill="#42426C" d="M368.1 307.648l5.3 1.765c1.224.441 2.518.168 3.466-.452 1.903-1.245 3.466-3.01 6.501-2.807 3.395.227 4.984 2.897 4.984 2.897l5.64-4.73-12.3-4.278-13.772 6.518.181 1.087z"/>
            <path fill="#646D9F" d="M367.92 306.584l45.348-56.379s3.262.226 6.75.86c2.288.416 4.327 1.856 5.346 4.775 1.954 5.596 4.712 9.62 8.698 11.068 2.957 1.074 5.437.136 5.437.136s-1.667 2.57-3.896 3.463c-2.094.839-3.662 1.442-4.727 1.842a6.799 6.799 0 0 0-2.889 2.082l-36.533 45.393s4.281-8.238-.408-13.535c-3.375-3.812-8.698-2.92-11.484-.78-.721.553-1.898 1.413-2.707 2.016-.957.713-2.172 1.273-3.307.904l-5.629-1.845z"/>
            <path fill="#42426C" d="M398.003 304.75c0 1.275-.569 2.31-1.27 2.31-.703 0-1.272-1.035-1.272-2.31 0-1.274.57-2.308 1.271-2.308.702 0 1.27 1.034 1.27 2.309M388.388 322.252c-.52.92-1.402 1.476-2.042 1.216-.64-.26-.743-1.21-.274-2.157.546-1.102 1.435-1.566 2.075-1.306.64.26.782 1.29.24 2.247"/>
            <path fill="#7582B8" d="M384.84 302.91a3.538 3.538 0 0 1-.295-4.768c7.757-9.6 33.993-42.253 34.5-42.844 1.472-1.72 3.6-2.343 5.028-.95-.636.778-32.573 40.917-38.876 48.797-.028.035-.079.034-.11.003a59.227 59.227 0 0 1-.248-.239"/>
            <path stroke="#42426C" stroke-linecap="round" stroke-width="4" d="M387.445 321.952s11.779-4.889 9.423-17.02M387.626 321.861s16.219-.18 9.242-16.93"/>
            <path fill="#646D9F" d="M317.858 322.36l6.433 8.917s44.304-2.716 47.75-2.716c2.703 0 4.485-5.423 2.447-11.398-2.142-6.279-6.816-8.527-9.514-7.876-2.628.634-47.116 13.072-47.116 13.072"/>
            <path fill="#E9EEFB" d="M368.108 309.624c-1.146-.446-2.24-.55-3.123-.338-1.258.304-30.331 8.388-41.305 11.444 10.156-2.351 38.967-9.87 44.428-11.106"/>
            <path fill="#95A4D7" d="M324.472 326.026l1.224 3.485 37.434-8.463c.536-.12.395-.918-.15-.849l-38.508 5.827z"/>
            <path fill="#42426C" d="M313.13 327.323l10.952 3.953c1.566 0 2.612-1.61 1.976-3.038l-2.279-5.116-10.65 4.201z"/>
            <path fill="#C3CBE8" d="M301.568 316.822l5.44-4.695c1.608-1.374 4.066-1.652 5.643-.262l10.571 10.285c1.16 1.204.511 3.087-.708 3.622l-13.11 5.505-7.836-14.455z"/>
            <path fill="#95A4D7" d="M377.37 269.896h-32.65a10.604 10.604 0 0 1-10.342-8.252l-1.955-10.488a2.298 2.298 0 0 1 2.243-2.806h52.664c1.43 0 2.514 1.29 2.266 2.697l-1.783 10.094a10.603 10.603 0 0 1-10.444 8.755"/>
            <path fill="#535785" d="M362.045 338.836h1.638c.376 0 .72-.21.892-.543l2.755-6.156h-2.99l-2.696 6.042a.45.45 0 0 0 .401.657"/>
            <path fill="#42426C" d="M246.459 523.046l3.49 1.598c.814.303 1.804.409 2.694.145l37.429-13.583c1.394-.639 2.254-1.897 2.235-3.279-.015-1.126 0-2.784 0-2.784l-13.138-3.372-22.698 6.382c-7.475 2.082-13.195 3.427-13.115 6.767.022.951.028 2.05.022 2.83-.015 2.364 1.378 4.547 3.081 5.296"/>
            <path fill="#646D9F" d="M278.845 480.996l-2.21 13.022c-.24-.042-2.24-.403-3.326-.587-2.486-.422-4.066-3.617-3.514-7.231.551-3.614 3.031-6.305 5.512-5.856 1.586.287 3.538.652 3.538.652"/>
            <path fill="#535785" d="M281.977 488.167c-.552 3.614-3.001 6.238-5.47 5.862-2.47-.376-4.024-3.61-3.472-7.225.55-3.614 3-6.239 5.47-5.862 2.469.376 4.023 3.61 3.472 7.225M249.197 521.442c.828.314 1.835.424 2.74.15l38.095-13.54c2.575-1.204 3.359-4.529.257-6.887l-11.354-2.911c-7.153 1.357-12.518 2.55-16.095 3.575-1.557.447-3.892 1.464-7.006 3.053-7.608 2.162-11.39 4.37-12.818 7.52-1.472 3.243.322 6.346 2.628 7.38l3.553 1.66z"/>
        </g>
        <g transform="translate(258 384)">
            <mask id="l" fill="#fff">
                <use xlink:href="#k"/>
            </mask>
            <path fill="#535785" d="M.488 3.215l19.926 106.74 11.582-1.477L24.425.163z" mask="url(#l)"/>
        </g>
        <g>
            <path fill="#646D9F" d="M283.679 383.123c0 .628-1.626 1.98-11.923 3.43-11.25 1.585-14.751.571-14.886-.042-.135-.61-.55-2.8-.55-2.8l27.188-3.492s.17 2.09.17 2.904"/>
            <path fill="#42426C" d="M283.51 380.219c.13 1.015-4.526 2.533-12.024 3.585-9.632 1.352-15.037.923-15.166-.093-.13-1.016 5.853-2.62 13.362-3.585 7.508-.964 13.7-.923 13.829.093"/>
            <path fill="#535785" d="M257.405 504.976c2.26-.666 7.65-4.482 11.859-8.176 5.018-4.405 7.364-8.64 7.364-8.64s1.26 4.181 6.916 3.795c2.75-.188 4.513-5.166 4.513-5.166l4.19 14.992c-.34 5.03-30.945 1.084-32.529 1.27l-2.313 1.925z"/>
            <path fill="#646D9F" d="M291.417 480.97l-2.275 13.523c-.244-.043-2.275-.412-3.38-.6-2.524-.433-4.123-3.746-3.554-7.5.57-3.753 3.095-6.552 5.615-6.092 1.612.295 3.594.67 3.594.67"/>
            <path fill="#535785" d="M294.648 488.417c-.57 3.753-3.083 6.48-5.614 6.092-2.531-.389-4.122-3.746-3.553-7.499.57-3.753 3.082-6.48 5.614-6.092 2.53.389 4.122 3.746 3.553 7.499"/>
            <path fill="#FF7E59" d="M293.22 488.198c-.392 2.584-2.122 4.462-3.865 4.195-1.743-.268-2.838-2.58-2.447-5.164.392-2.584 2.123-4.462 3.866-4.195 1.743.268 2.838 2.58 2.446 5.164"/>
            <path fill="#535785" d="M291.532 487.86c-.271 1.791-1.542 3.081-2.839 2.882-1.296-.2-2.127-1.811-1.855-3.602.271-1.79 1.542-3.08 2.839-2.882 1.296.2 2.127 1.812 1.855 3.602"/>
            <path fill="#646D9F" d="M275.85 475.59c.194 1.29.23 2.598.105 3.896l-.105 1.095-17.353-93.569 1.83 3.475c1.952 3.613 2.69 6.734 3.324 10.797l12.198 74.307z"/>
            <path fill="#E86A46" d="M265.496 424.628l2.04 10.99c1.179.338 3.938 1.005 9.186.332 5.189-.666 8.076-1.96 8.892-2.687l-.765-11.084-19.353 2.449z"/>
            <path fill="#646D9F" d="M264.964 421.761l.532 2.867c1.355.361 4.278.797 9.913.037 5.379-.725 8.053-1.742 9.44-2.486l-.2-2.904c-.918.532-4.69 1.843-9.61 2.475-4.947.635-9.15.294-10.075.011"/>
            <path fill="#535785" d="M273.545 382.13h-10.18c-5.906 0-11.21-7.159-11.21-15.989 0-8.83 5.304-15.988 11.21-15.988h10.438l-.258 31.976z"/>
            <path fill="#535785" d="M284.798 366.141c0 8.83-4.789 15.988-10.695 15.988-5.907 0-10.695-7.158-10.695-15.988 0-8.83 4.788-15.988 10.695-15.988 5.906 0 10.695 7.159 10.695 15.988"/>
            <path fill="#646D9F" d="M284.838 366.141c0 8.162-4.386 14.779-9.796 14.779-5.41 0-9.795-6.617-9.795-14.779 0-8.162 4.385-14.778 9.795-14.778s9.796 6.616 9.796 14.778"/>
            <path fill="#E86A46" d="M281.456 366.141c0 4.98-2.676 9.018-5.977 9.018s-5.978-4.037-5.978-9.018c0-4.98 2.677-9.018 5.978-9.018 3.3 0 5.977 4.038 5.977 9.018"/>
            <path fill="#42426C" d="M278.136 366.141c0 3.478-1.869 6.298-4.175 6.298-2.305 0-4.174-2.82-4.174-6.298s1.869-6.298 4.174-6.298c2.306 0 4.175 2.82 4.175 6.298"/>
            <path fill="#42426C" d="M260.23 366.147c0-8.314 4.676-15.152 10.147-15.988h-3.747c-5.907 0-11.21 7.158-11.21 15.988 0 8.83 5.303 15.987 11.21 15.987h3.747c-5.471-.835-10.147-7.674-10.147-15.987"/>
            <path fill="#E9EEFB" d="M369.842 304.899l-1.47-.498 29.276-36.634.036.265a3.882 3.882 0 0 1-.808 2.939l-27.034 33.928z"/>
            <g transform="translate(197 260)">
                <mask id="n" fill="#fff">
                    <use xlink:href="#m"/>
                </mask>
                <path fill="#B3BEE2" d="M113.398 69.046H22.063a5.44 5.44 0 0 1-5.266-4.12s-2.912-9.433-7.761-28.408C4.25 17.798.119 5.808.119 5.808-.46 3.51 1.065.33 4.747.33h86.58c4.998 0 7.633 3.162 8.352 6.777l13.719 61.938z" mask="url(#n)"/>
            </g>
            <path fill="#E1E5F3" d="M308.781 329.046h-91.335a5.44 5.44 0 0 1-5.266-4.12s-2.911-9.433-7.761-28.408c-4.785-18.72-7.3-30.71-7.3-30.71-.58-2.297 1.146-4.528 3.5-4.528h87.266c3.4 0 6.348 2.36 7.11 5.693l13.786 62.073z"/>
            <path fill="#D2D8EE" d="M340.215 334.106h-117.74c-2.777 0-5.029-2.266-5.029-5.06h127.799c0 2.794-2.252 5.06-5.03 5.06"/>
            <path fill="#C3CBE8" d="M250.91 303.027c.078.198.081.278.145.306.03.013.854.256.858.052.064-2.182 5.792-4.442 6.355-2.57.458-.795.939-1.588 1.066-2.567-.006-.137.035-.182.035-.182-.675-1.706-10.386-.004-8.459 4.961m8.352-7.324v-.003a8.349 8.349 0 0 0-1.053-2.829c-3.203-3.5-14.037.106-9.437 9.155.142.277.31.433.382.383.072-.051.42-.083.357-.354-1.628-7.082 7.057-8.773 9.751-6.352m-3.63-5.328c.067.025.625.271.485.12a1.913 1.913 0 0 0-.501-.394c-9.412-5.157-15.37 7.094-8.047 12.658.279.214.473.364.534.367.083.006 1.702 1.104.43-.67-4.825-6.709-.57-15.675 7.1-12.081"/>
            <path fill="#C3CBE8" d="M258.18 292.902c-.45 1.838-6.404-1.326-7.416-3.071-.104-.188-.186-.233-.217-.22-.061.019-.1.09-.123.294-.304 2.582 5.753 7.257 8.86 6.055a.873.873 0 0 0-.036-.22 8.624 8.624 0 0 0-1.068-2.838m-9.414-2.342c.027-.272.049-.384-.023-.448-.072-.064-.206.1-.363.346-3.092 4.911 5.243 12.373 10.076 10.44.47-.84.768-1.774.881-2.755v-.003c-2.558 2.147-11.028-2.883-10.57-7.58m-1-.82c.2-.202.394-.394.313-.407-.06-.01-.265.093-.543.262-5.202 3.164-3.056 13 4.23 14.776l.001.006c.21.02.422.033.63.033a7.07 7.07 0 0 0 2.416-.419c.669-.262 1.042-.463 1.667-.879.068-.048.136-.099.2-.15-6.048 1.968-14.063-7.788-8.915-13.223"/>
        </g>
    </g>
</svg>
