<svg xmlns="http://www.w3.org/2000/svg" xmlns:xlink="http://www.w3.org/1999/xlink" width="683" height="683" viewBox="0 0 683 683">
    <defs>
        <path id="a" d="M.178.196h517.673v329.652H.178z"/>
        <path id="c" d="M0 330h652.679V.196H0z"/>
        <path id="e" d="M.179 9.015c0 4.788.56 8.667 1.252 8.667.69 0 1.251-3.88 1.251-8.667S2.121.348 1.431.348C.739.348.179 4.228.179 9.015"/>
        <path id="g" d="M.136 10.825c0 5.862 1.008 10.615 2.252 10.615 1.243 0 2.252-4.753 2.252-10.615S3.63.211 2.388.211C1.144.211.136 4.963.136 10.825"/>
        <path id="i" d="M.504 13.32C.504 20.433 2.11 26.2 4.092 26.2c1.981 0 3.587-5.767 3.587-12.882C7.679 6.204 6.073.435 4.092.435 2.11.435.504 6.204.504 13.32"/>
        <path id="k" d="M.504 13.32C.504 20.433 2.11 26.2 4.092 26.2c1.981 0 3.587-5.767 3.587-12.882C7.679 6.204 6.073.435 4.092.435 2.11.435.504 6.204.504 13.32"/>
        <path id="m" d="M.721 16.5c0 9.015 2.17 16.323 4.847 16.323 2.675 0 4.845-7.308 4.845-16.323S8.243.177 5.568.177C2.891.177.721 7.485.721 16.5"/>
        <path id="o" d="M.721 16.5c0 9.015 2.17 16.323 4.847 16.323 2.675 0 4.845-7.308 4.845-16.323S8.243.177 5.568.177C2.891.177.721 7.485.721 16.5"/>
        <path id="q" d="M.785 3.906v49.03h6.98V.736c-2.427.716-4.699 1.617-6.98 3.17"/>
        <path id="s" d="M168.922 3.086c-3.782 5.252-10.709 14.778-14.927 20.296-2.26 2.956-4.173 2.782-6.953 2.435-10.548-1.319-25.294-3.44-30.963-3.984l.021-.015s-33.678-3.085-47.108-.87c-14.891 2.46-19.487 5.468-24.117 10.562C38.846 38.142.678 114.306.678 114.306l96.127-3.303s12.807-1.596 15.993-13.908c3.824-14.776 11.38-51.096 33.027-44.33 11.124 3.475 17.109 20.334 18.078 33.9 1.043 14.603.175 25.903-.87 30.424 0 0 60.84 3.302 65.534 3.476 2.78.103 6.38-1.013 8.17-5.041 4.867-10.953 6.718-31.42 12.689-34.075 6.258-2.782 10.43 11.648 10.87 23.813 3.348-1.953 5.834-5.194 5.79-9.068-.177-15.24-1.19-19.96-8.49-34.042-2.184-4.213-18.86-30.25-18.86-30.25-2.26-3.738-5.28-7.499-10.69-9.91-5.178-2.31-12.599-5.483-24.423-10.431-12.256-5.13-18.991-8.04-24.597-10.3a11.297 11.297 0 0 0-4.17-.812c-2.339 0-4.6.785-5.934 2.637"/>
        <linearGradient id="t" x1="80.731%" x2="58.19%" y1="-10.978%" y2="54.469%">
            <stop offset="0%" stop-color="#2374CD"/>
            <stop offset="100%" stop-color="#7582B8"/>
        </linearGradient>
    </defs>
    <g fill="none" fill-rule="evenodd">
        <g transform="translate(29.5 169)">
            <g transform="translate(57.19)">
                <mask id="b" fill="#fff">
                    <use xlink:href="#a"/>
                </mask>
                <path fill="#FFF" d="M24.635 308.334c-10.542-9.985-35.353-36.088-19.063-68.706 12.478-24.985 35.7-26.72 42.979-28.455 7.278-1.735 11.801-5.74 9.358-17.697-3.12-15.268 2.773-29.148 26.689-32.618 9.487-1.377 10.136-8.911 9.358-14.921-2.427-18.738-4.199-53.563 28.421-94.385C147.333 20.322 182.644.196 234.677.196c38.819 0 65.161 19.432 74.172 28.453 5.029 5.035 11.421 11.8 25.65 11.8 19.41 0 38.126 3.469 51.296 15.961 13.541 12.842 17.33 29.148 13.171 52.745-2.34 13.27 0 25.677 22.183 35.394 9.383 4.109 40.726 17.408 54.07 27.065 28.768 20.82 42.632 48.581 42.632 82.24v75.994H55.483s-15.597-7.07-30.848-21.514" mask="url(#b)"/>
            </g>
            <path fill="#FF7E59" d="M509.663 275.065s7.897-35.026 20.796-35.026c8.665 0 7.972 15.594 12.131 16.635 2.41.603 7.037-8.66 14.21-17.35 6.986-8.46 16.421-16.329 25.996-17.697 14.085-2.015 8.752 17.891 12.131 22.207 3.037 3.88 12.64.606 18.37 7.982 4.852 6.246 3.12 19.432 7.28 21.514 3.352 1.678 7.624-5.552 13.17-3.47 5.08 1.907 4.876 12.12 2.079 21.168-4.506 14.574-11.09 25.677-23.222 38.864h-108.14l5.199-54.827z"/>
            <path fill="#2B2B51" d="M516.795 304.57s-3.714-.446-7.186-.019c-2.202.272-4.019 5.679-4.019 12.682 0 7.004 1.799 12.68 4.019 12.68h7.064c2.22 0 4.02-5.676 4.02-12.68 0-6.874-1.735-12.457-3.898-12.662"/>
            <mask id="d" fill="#fff">
                <use xlink:href="#c"/>
            </mask>
            <path fill="#2B2B51" d="M216.436 320.717h132.056v-13.533H216.436z" mask="url(#d)"/>
            <path fill="#2B2B51" d="M311.95 298.142c-.068 0-2.868.063-4.614.213-7.51.65-12.548 6.885-12.548 15.642 0 8.758 5.009 15.857 12.548 15.857h4.613c7.539 0 12.182-7.099 12.182-15.857 0-8.757-4.643-15.855-12.182-15.855" mask="url(#d)"/>
            <path fill="#212135" d="M414.693 321.672h70.448v-18.738h-70.448z" mask="url(#d)"/>
            <path fill="#212135" d="M453.415 293.998h-7.164c-5.518 0-9.992 8.002-9.992 17.871 0 9.869 4.474 17.871 9.992 17.871h7.164c5.519 0 9.992-8.002 9.992-17.87 0-9.87-4.473-17.872-9.992-17.872" mask="url(#d)"/>
            <path fill="#26263F" d="M145.712 317.941c0-6.563-4.934-11.884-11.018-11.884h-2.655c-6.086 0-11.019 5.32-11.019 11.884 0 6.565 4.933 11.885 11.019 11.885.835 0 2.92-.014 2.92-.014 5.962-.154 10.753-5.404 10.753-11.87" mask="url(#d)"/>
            <path fill="#535785" d="M73.116 288.923s17.93-6.84 24.717-8.74c10.463-2.928 20.277-4.945 20.277-4.945l-17.613 12.644-27.38 1.041z" mask="url(#d)"/>
            <path fill="#8697D1" d="M70.517 289.834s17.048-6.658 23.222-8.328c9.019-2.44 26.775-6.008 26.775-6.008l-22.616 13.295-27.381 1.041z" mask="url(#d)"/>
            <path fill="#C5CBD8" d="M114.384 276.779c-5.698 1.149-16.507 3.62-20.645 4.727-6.239 1.67-23.223 8.328-23.223 8.328l6.39-.347c5.482-2.428 26.993-9.585 37.478-12.708" mask="url(#d)"/>
            <path fill="#212135" d="M651.055 329.87h-5.725c-1.044 0-1.89-4.363-1.89-9.745 0-5.382.851-9.642 1.89-9.745.36-.035.084-.137 2.768-.137 2.515 0 3.01.143 3.01.143l-.053 19.484z" mask="url(#d)"/>
            <path fill="#212135" d="M652.678 320.125c0 5.382-.696 9.745-1.553 9.745-.858 0-1.554-4.363-1.554-9.745 0-5.382.696-9.744 1.554-9.744.857 0 1.553 4.362 1.553 9.744" mask="url(#d)"/>
            <path fill="#535785" d="M652.669 320.125c0 4.706-.583 8.523-1.3 8.523-.72 0-1.303-3.817-1.303-8.523 0-4.706.584-8.522 1.302-8.522.718 0 1.3 3.816 1.3 8.522" mask="url(#d)"/>
        </g>
        <g transform="translate(678.5 480)">
            <mask id="f" fill="#fff">
                <use xlink:href="#e"/>
            </mask>
            <path fill="#2B2B51" d="M1.266 9.015c0 3.262-.36 5.907-.804 5.907-.445 0-.445-11.814 0-11.814.444 0 .804 2.645.804 5.907" mask="url(#f)"/>
        </g>
        <path fill="#212135" d="M648.301 498.87h-5.72c-1.043 0-1.887-4.396-1.887-9.818 0-5.423.85-9.714 1.887-9.818.36-.036.085-.138 2.766-.138 2.513 0 3.006.143 3.006.143l-.052 19.63z"/>
        <path fill="#212135" d="M649.922 489.051c0 5.422-.695 9.818-1.552 9.818-.857 0-1.552-4.396-1.552-9.818s.695-9.816 1.552-9.816c.857 0 1.552 4.394 1.552 9.816"/>
        <path fill="#8697D1" d="M675.657 470.05l-7.027-9.835s-3.817-3.144-8.491-3.276c-4.674-.13-26.035 0-26.035 0V469l41.553 1.05z"/>
        <path fill="#C5CBD8" d="M662.64 457.237a14.253 14.253 0 0 0-2.5-.297c-4.675-.131-26.037 0-26.037 0v9.901c9.593-3.32 19.34-5.867 29.196-7.957-.219-.548-.427-1.101-.659-1.647"/>
        <path fill="#3C3C65" d="M660.994 457.398l2.518 8.915c.35 1.136-.516 1.398-.991 1.398l1.514 25.237 11.813-.056a2.104 2.104 0 0 0 2.086-2.05c.116-3.862.548-11.602 1.732-11.602.355 0 .721 1.025.783 1.333.046-.543-.031-2.512-.702-4.428-.704-2.012-2.039-4.019-3.563-6.339l-6.172-8.283-.779-.417 4.887 7.349c.52.742.347 1.197-.692 1.197l-3.555-.013a2.087 2.087 0 0 1-1.837-1.12l-4.699-9.777c-.292-.606.179-.77.73-.656-.308-.23-1.411-.77-1.411-.77l-1.662.082z"/>
        <path fill="#3C3C65" d="M669.908 462.109c-.49-.685-1.217-1.714-3.098-2.907-1.904-1.206-4.388-1.405-4.388-1.405s-.876 1.437-1.093.781c-.216-.655-.736-1.158-1.774-1.223-14.338-.906-32.042.098-32.042.098l.163-.317s10.132-1.282 19.738-1.048c13.505.327 14.844.86 15.972 1.113 1.948.438 4.926 1.965 6.626 4.321-.074.099-.02.513-.104.587"/>
        <path fill="#212135" d="M668.775 487.297c0 6.391-1.042 11.572-2.327 11.572-1.287 0-2.327-5.181-2.327-11.572 0-6.392 1.04-11.572 2.327-11.572 1.285 0 2.327 5.18 2.327 11.572"/>
        <path fill="#212135" d="M666.44 498.87h-7.053c-1.285 0-2.327-5.182-2.327-11.573s1.048-11.45 2.327-11.572c.444-.042.105-.165 3.411-.165 3.098 0 3.706.171 3.706.171l-.064 23.138z"/>
        <path fill="#535785" d="M668.761 487.297c0 5.589-.873 10.12-1.95 10.12-1.076 0-1.948-4.531-1.948-10.12 0-5.59.872-10.12 1.948-10.12 1.077 0 1.95 4.53 1.95 10.12"/>
        <g transform="translate(665.5 476)">
            <mask id="h" fill="#fff">
                <use xlink:href="#g"/>
            </mask>
            <path fill="#2B2B51" d="M2.094 10.825c0 3.995-.648 7.234-1.447 7.234-.8 0-.8-14.467 0-14.467.799 0 1.447 3.238 1.447 7.233" mask="url(#h)"/>
        </g>
        <path fill="#212135" d="M630.633 498.873h-6.587c-1.2 0-2.513-4.69-2.513-10.476 0-5.785 1.32-10.365 2.513-10.475.414-.038.098-.148 3.185-.148 2.893 0 3.46.154 3.46.154l-.058 20.945z"/>
        <path fill="#212135" d="M633.203 488.397c0 5.786-1.09 10.476-2.433 10.476-1.344 0-2.434-4.69-2.434-10.476 0-5.785 1.09-10.475 2.434-10.475 1.343 0 2.433 4.69 2.433 10.475"/>
        <path fill="#3C3C65" d="M616.983 492.978h41.08s4.813.088 5.2-4.75c.347-4.327 1.408-11.918 3.228-11.833l-.715-7.761h-48.533l-.26 24.344z"/>
        <path fill="#535785" d="M652.776 473.3c2.186-.905 6.54-2.687 8.784-3.603.311-.126.21-.575-.126-.575h-16.75l2.199 9.012s1.78-3.132 5.893-4.835"/>
        <path fill="#B6BAC7" d="M649.591 477.455c1.872-1.018 7.705-1.858 9.993-2.176.475-.066.863.138.863.607v2.141c0 1.018-.846 2.99-3.836 2.99h-8.97s.01-2.507 1.95-3.562"/>
        <path fill="#2B2B51" d="M658.236 487.411c0 .895-.74 1.62-1.654 1.62-1.552 0-2.83-.506-2.83-1.62 0-1.05 1.32-1.62 2.83-1.62.914 0 1.654.726 1.654 1.62"/>
        <path fill="#B6BAC7" d="M657.586 487.411c0 .58-.48 1.05-1.072 1.05-.593 0-1.073-.47-1.073-1.05 0-.579.48-1.05 1.073-1.05.592 0 1.072.471 1.072 1.05"/>
        <path fill="#3C3C65" d="M666.73 469.397l2.166-2.46c.52-.763 1.693-1.272 2.702-1.272h2.509c.52 0 .943.414.943.924v1.935a.97.97 0 0 1-.98.958h-3.413c-.764 0-1.524.12-2.25.358l-1.244.406-.433-.85z"/>
        <path fill="#A4B1DD" d="M546.436 458.434s8.658-8.282 18.85-12.787c4.03-1.781 16.011-2.198 27.625-2.418 11.29-.212 23.434.713 26.325 2.079 5.027 2.374 16.554 14.589 16.554 14.589l-89.354-1.463z"/>
        <path fill="#D8DDEA" d="M592.911 443.23c-7.513.142-15.164.368-20.732.992-8.602 4.24-16.945 8.907-24.842 14.227l9.778.16c14.025-6.169 28.559-11.12 43.343-15.358-2.485-.057-5.035-.069-7.547-.021"/>
        <path fill="#535785" d="M620.666 445.87c-3.867-2.703-8.623-3.022-22.034-3.085-11.644-.056-28.392.907-33.578 2.842 16.37-1.237 33.17-1.62 50.02-.85.929.044 1.88.262 3.35.711 1.04.319 2.665 1.241 4.778 2.895-.098-.191-2.666-2.481-2.536-2.513"/>
        <path fill="#000" d="M644.929 470.388s-4.064-.502-7.863-.021c-2.41.304-4.396 6.39-4.396 14.274 0 7.883 1.968 14.274 4.396 14.274h7.73c2.428 0 4.398-6.39 4.398-14.274 0-7.739-1.9-14.022-4.265-14.253"/>
        <path fill="#535785" d="M649.167 484.572c0 6.975-1.67 12.627-3.732 12.627-2.06 0-3.731-5.652-3.731-12.627 0-6.974 1.671-12.627 3.731-12.627 2.062 0 3.732 5.653 3.732 12.627"/>
        <g>
            <g transform="translate(641.5 471)">
                <mask id="j" fill="#fff">
                    <use xlink:href="#i"/>
                </mask>
                <path fill="#2B2B51" d="M6.095 13.319c0 6.326-1.43 11.454-3.19 11.454-1.762 0-3.19-5.128-3.19-11.454 0-6.328 1.428-11.455 3.19-11.455 1.76 0 3.19 5.127 3.19 11.455" mask="url(#j)"/>
            </g>
            <g transform="translate(641.5 471)">
                <mask id="l" fill="#fff">
                    <use xlink:href="#k"/>
                </mask>
                <path fill="#3C3C65" d="M6.157 13.319c0 2.98-.673 5.397-1.503 5.397-.83 0-1.503-2.417-1.503-5.397 0-2.982.673-5.398 1.503-5.398.83 0 1.503 2.416 1.503 5.398" mask="url(#l)"/>
            </g>
        </g>
        <g>
            <path fill="#535785" d="M615.005 491.955l20.87 1.019s3.912-.51 4.173-4.329c.47-6.879.527-10.267 2.087-14.514 1.239-3.373 2.676-3.51 3.62-3.151 1.337.51 2.087 3.278 2.38 4.297-.098-1.655-.327-3.47-.327-3.47-.357-3.119-1.499-5.697-3.162-7.224-2.824-2.595-7.25-5.698-9.554-5.73-4.566-.064-10.566.094-13.834-.098-1.363-.08-2.472-1.087-2.659-2.408 0 0-1.6-8.293-1.866-9.589-.294-1.432.315-1.782 1.793-1.273-1.521-.764-4.717-2.143-8.543-.955 2.152.085 3.522.67 3.456 2.96-.061 2.164-.39 10.345-.39 10.345l1.956 34.12z"/>
            <path fill="#000" d="M575.305 471.38s-3.934-.486-7.61-.021c-2.333.294-4.256 6.168-4.256 13.778s1.906 13.778 4.257 13.778h7.48c2.35 0 4.256-6.169 4.256-13.778 0-7.469-1.838-13.535-4.127-13.757"/>
            <path fill="#2B2B51" d="M528.787 491.7l88.826-11.712v12.858h-51.13z"/>
            <path fill="#000" d="M613.353 463.634s-5.305-.622-10.262-.027c-3.146.377-5.739 7.903-5.739 17.654 0 9.75 2.57 17.654 5.74 17.654h10.087c3.169 0 5.739-7.904 5.739-17.654 0-9.57-2.478-17.343-5.565-17.627"/>
            <path fill="#535785" d="M618.67 481.176c0 8.625-2.264 15.617-5.057 15.617-2.792 0-5.056-6.992-5.056-15.617 0-8.626 2.264-15.618 5.056-15.618 2.793 0 5.057 6.992 5.057 15.618"/>
        </g>
        <g>
            <g transform="translate(608.5 464)">
                <mask id="n" fill="#fff">
                    <use xlink:href="#m"/>
                </mask>
                <path fill="#2B2B51" d="M8.325 16.5c0 7.766-1.869 14.06-4.175 14.06-2.305 0-4.175-6.294-4.175-14.06 0-7.765 1.87-14.06 4.175-14.06 2.306 0 4.175 6.295 4.175 14.06" mask="url(#n)"/>
            </g>
            <g transform="translate(608.5 464)">
                <mask id="p" fill="#fff">
                    <use xlink:href="#o"/>
                </mask>
                <path fill="#3C3C65" d="M8.332 16.5c0 3.748-.902 6.787-2.015 6.787S4.302 20.248 4.302 16.5c0-3.748.902-6.786 2.015-6.786s2.015 3.038 2.015 6.786" mask="url(#p)"/>
            </g>
        </g>
        <g>
            <path fill="#535785" d="M541.86 491.044l45.555-.26s17.962 1.042 19.784-14.072c.781-4.17 1.562-10.228 4.166-13.355 1.715-2.062 3.612-1.01 4.083-.506.472.506-.179-5.423-.179-5.423s-2.193-3.723-8.156-4.256c-4.86-.435-10.066 1.91-10.066 1.91l-57.53 1.043 2.343 34.92z"/>
            <path fill="#646D9F" d="M597.047 455.083c-6.031 2.78-16.15 8.744-16.15 8.744a20.407 20.407 0 0 1-9.713 2.461l-30.322.217.347-10.64s53.539-.782 55.838-.782"/>
            <path fill="#3C3C65" d="M541.86 470.892s18.266-.304 31.068 0c1.86.044 3.883.838 5.222 2.308l.56.614c1.346 1.478.766 3.68-.947 4.674 0 0-3.19 1.612-5.917 2.728-2.49 1.02-5.044 1.615-7.58 1.664-13.6.26-21.539.173-21.539.173l-.867-12.16z"/>
            <path fill="#C5CBD8" d="M583.558 467.195c-.594-.423-.415-1.315.242-1.633 3.702-1.793 11.685-5.267 16.545-6.657 3.593-1.028 6.073-.174 5.206 2.085-1.302 3.385-3.472 5.212-7.116 5.906-1.708.325-6.198.764-10.239 1.042-1.6.11-3.746-.11-4.638-.743"/>
            <path fill="#3C3C65" d="M597.804 477.83c-1.178.064-2.666.172-3.816.12-1.431-.065-2.929-1.043-2.802-2.558.154-1.85 1.794-2.485 3.181-2.425 1.388.058 2.522.215 3.948.504 1.563.32 2.16 1.252 2.06 2.355-.12 1.298-1.395 1.942-2.571 2.005"/>
            <path fill="#C5CBD8" d="M599.976 475.637a1.725 1.725 0 1 1-3.45 0 1.726 1.726 0 1 1 3.45 0"/>
            <path fill="#535785" d="M632.45 457.167c3.168-.26-3.283-5.971-6.898-9.12-3.17-2.763-6.54-5.278-6.54-5.278 1.301.39 3.13 1.543 4.912 2.9 5.972 4.542 13.386 12.194 13.386 12.194"/>
            <path fill="#535785" d="M621.17 457.514l3.637-7a2.653 2.653 0 0 1 2.368-1.538l7.78-.12a1.707 1.707 0 0 1 1.729 1.805l-.115 2.01a2.49 2.49 0 0 1-2.363 2.346l-6.65.322a6.309 6.309 0 0 0-3.394 1.19l-1.083 1.334-1.909-.349z"/>
            <path fill="#2B2B51" d="M384.584 315.535l-37.312 19.118-37.312-19.118 37.312-21.263z"/>
            <path fill="#FF7E59" d="M347.272 246.912L309.961 270.2v45.334l37.311-21.262z"/>
            <path fill="#E86A46" d="M347.272 246.912l37.27 23.331v45.335l-37.27-21.306z"/>
            <path fill="#42426C" d="M375.809 312.83l-28.536 14.622-28.537-14.621 28.537-16.263z"/>
            <path fill="#646D9F" d="M350.906 407.938h-7.267v-91.904c0-1.8 1.456-3.258 3.254-3.258h.76a3.256 3.256 0 0 1 3.253 3.258v91.904z"/>
        </g>
        <g transform="translate(343.5 342)">
            <mask id="r" fill="#fff">
                <use xlink:href="#q"/>
            </mask>
            <path d="M.785 3.906v49.03h6.98V.736c-2.427.716-4.699 1.617-6.98 3.17" mask="url(#r)"/>
        </g>
        <g>
            <path fill="#42426C" d="M320.135 288.319l-5.89 3.575v-8.04l5.89-3.575zM326.025 292.783l-5.89 3.575v-8.04l5.89-3.575zM331.914 281.166l-5.89 3.577v-8.04l5.89-3.577zM343.693 274.015l-5.89 3.576v-8.04l5.89-3.576z"/>
            <path fill="#42426C" d="M337.803 285.631l-5.89 3.577v-8.041l5.89-3.576z"/>
            <path fill="#2B2B51" d="M375.538 288.319l5.89 3.575v-8.04l-5.89-3.575zM369.648 292.783l5.89 3.575v-8.04l-5.89-3.575zM363.758 281.166l5.89 3.577v-8.04l-5.89-3.577zM351.98 274.015l5.89 3.576v-8.04l-5.89-3.576zM357.869 285.631l5.89 3.577v-8.041l-5.89-3.576z"/>
            <path fill="#212135" d="M126.067 490.034h31.922v-30.221h-31.922zM101.573 468.55c-.077 0-1.152 0-3.091.075-8.31.327-15.1 6.68-15.057 15.01.045 8.552 6.797 15.088 15.057 15.088h3.091c8.315 0 15.055-6.755 15.055-15.087 0-8.331-6.74-15.086-15.055-15.086"/>
            <path fill="#212135" d="M134.072 461.102c-.097 0-2.335 0-4.765.095-10.412.408-18.867 8.369-18.867 18.81 0 10.442 8.447 18.906 18.867 18.906h4.765c10.42 0 18.867-8.464 18.867-18.906 0-10.441-8.447-18.905-18.867-18.905"/>
            <path fill="#42426C" d="M151.415 480.007c0 9.597-7.765 17.379-17.343 17.379s-17.343-7.782-17.343-17.379c0-9.597 7.765-17.377 17.343-17.377s17.343 7.78 17.343 17.377"/>
            <path fill="#2B2B51" d="M146.745 480.007c0 6.855-5.546 12.413-12.387 12.413-6.842 0-12.387-5.558-12.387-12.413s5.545-12.412 12.387-12.412c6.841 0 12.387 5.557 12.387 12.412"/>
            <path fill="#42426C" d="M137.407 480.007a3.053 3.053 0 0 1-3.05 3.056 3.053 3.053 0 0 1-3.049-3.056 3.053 3.053 0 0 1 3.05-3.055 3.053 3.053 0 0 1 3.05 3.055"/>
            <path fill="#8697D1" d="M123.971 450.407s12.898-6.78 18.997-9.645l10.322-2.608-9.281 11.474-20.038.78z"/>
            <path fill="#C5CBD8" d="M146.227 439.591a26.8 26.8 0 0 0-6.474 2.31c-6.547 3.335-16.664 8.56-16.664 8.56l7.56.123c4.36-1.432 28.252-13.63 32.183-14.777l-16.605 3.784z"/>
            <path fill="#212135" d="M226.737 465.398c-.078 0-1.887 0-3.851.085-8.416.363-15.251 7.418-15.251 16.672 0 9.255 6.828 16.758 15.25 16.758h3.852c8.423 0 15.25-7.503 15.25-16.758 0-9.254-6.827-16.757-15.25-16.757"/>
            <path fill="#42426C" d="M240.755 482.155c0 8.508-6.276 15.404-14.017 15.404-7.743 0-14.019-6.896-14.019-15.404 0-8.506 6.276-15.403 14.019-15.403 7.741 0 14.017 6.897 14.017 15.403"/>
            <path fill="#2B2B51" d="M236.84 482.155c0 6.06-4.47 10.972-9.983 10.972-5.515 0-9.985-4.911-9.985-10.972 0-6.059 4.47-10.97 9.985-10.97 5.513 0 9.983 4.911 9.983 10.97"/>
            <path fill="#42426C" d="M210.183 489.393l-58.863.64s3.144-4.105 2.477-11.649c-.705-7.969-4.791-18.046-18.39-18.046-20.027 0-22.338 17.076-22.329 25.034a3.993 3.993 0 0 1-3.998 3.994H62.795s-2.668-.574-2.668-3.438c0-2.865-.19-16.423 5.146-23.68 3.604-4.903 16.58-10.122 61.748-12.414 47.587-2.413 86.141 0 86.141 0l-.452 23.49s.205.802-1.12 5.489c-.849 3.007-.269 6.167.342 8.235.345 1.165-.536 2.331-1.749 2.345"/>
            <path fill="#535785" d="M112.727 460.72c5.895-4.698 14.198-8.69 32.637-8.69 5.707 0 3.573-3.341 3.573-3.341s-14.615.692-21.917 1.145c-46.12 2.865-56.602 5.539-61.747 12.414-4.664 6.23-5.11 17.24-5.145 21.962-.006.741 0 1.328 0 1.717 6.05-.07 29.063-.144 31.779-.215 2.715-.07 5.383-.835 6.503-4.225 2.015-6.099 5.93-14.083 14.317-20.767"/>
            <path fill="#C5CBD8" d="M82.58 464.25l18.879-.854a4.1 4.1 0 0 0 3.307-1.95l1.958-3.21c.61-.94.238-1.574-.836-1.553l-15.057.93a9.198 9.198 0 0 0-6.467 3.256l-2.177 2.582a.486.486 0 0 0 .393.8"/>
            <path fill="#42426C" d="M93.669 482.155h-14.63a2.285 2.285 0 0 1-2.284-2.287l.138-1.49a2.651 2.651 0 0 1 2.65-2.655l14.126-.299c1.855 0 2.812 1.507 2.812 3.365 0 1.86-.957 3.366-2.812 3.366"/>
            <path fill="#C5CBD8" d="M95.358 478.861c0 1.306-.799 2.364-1.784 2.364-.987 0-1.785-1.058-1.785-2.364 0-1.305.798-2.363 1.785-2.363.985 0 1.784 1.058 1.784 2.363"/>
            <path fill="#42426C" d="M62.497 467.702l8.108-.434a5.76 5.76 0 0 0 4.378-2.411l2.486-3.47c.811-1.002.43-1.813-.775-1.754l-9.677.657s-1.197.95-2.554 3.062c-1.065 1.657-1.966 4.35-1.966 4.35M60.103 485.247l8.47-.107c.97 0 1.757-.788 1.757-1.761l.517-5.173a2.063 2.063 0 0 0-2.062-2.065l-8.134.142s-.332 2.613-.453 4.476c-.12 1.863-.095 4.488-.095 4.488"/>
            <path fill="#000" d="M190.967 448.997c-.107 0-4.211.098-6.954.335-11.798 1.022-21.442 10.826-21.442 24.594s9.6 24.928 21.442 24.928h6.954c11.842 0 21.442-11.16 21.442-24.928s-9.6-24.929-21.442-24.929"/>
            <path fill="#2B2B51" d="M205.69 473.882c0 9.251-6.443 16.75-14.39 16.75-7.947 0-14.389-7.499-14.389-16.75 0-9.25 6.442-16.75 14.39-16.75 7.946 0 14.389 7.5 14.389 16.75"/>
            <path fill="#2B2B51" d="M145.743 473.184s17.696 10.778 29.537 11.126c3.938.116 121.747 1.391 121.747 1.391l71.48-.348-149.898-18.775-72.866 6.606zM220.691 462.405h54.13v-25.207h-54.13z"/>
            <path fill="#000" d="M247.174 444.131c-.118 0-4.623.109-7.633.37-9.44.816-17.622 6.756-21.365 15.769-1.391 3.351 2.88 5.379 2.19 9.415-.418 2.445-1.785 4.497-2.984 6.326a3.736 3.736 0 0 0-.471 2.983c3.17 12.256 12.08 19.86 22.63 19.86h7.633c12.997 0 23.533-12.25 23.533-27.362 0-15.11-10.536-27.36-23.533-27.36"/>
            <path fill="#2B2B51" d="M268.662 471.446c0 13.523-9.419 24.487-21.036 24.487-11.618 0-21.036-10.964-21.036-24.487 0-13.524 9.418-24.487 21.036-24.487 11.617 0 21.036 10.963 21.036 24.487"/>
            <path fill="#42426C" d="M264.774 471.446c0 10.8-7.522 19.557-16.8 19.557-9.28 0-16.803-8.756-16.803-19.557 0-10.801 7.523-19.558 16.802-19.558 9.28 0 16.801 8.757 16.801 19.558"/>
            <path fill="#2B2B51" d="M262.476 471.446c0 9.602-6.688 17.386-14.937 17.386-8.249 0-14.937-7.784-14.937-17.386 0-9.603 6.688-17.387 14.937-17.387 8.25 0 14.937 7.784 14.937 17.387"/>
            <path fill="#42426C" d="M262.476 471.446c0-3.882-1.106-7.453-2.951-10.346-1.193.856-4.642 3.112-7.004 4.646-.838.546-1.905-.227-1.658-1.197.753-2.954 1.883-7.482 2.21-9.244-1.713-.796-3.577-1.246-5.534-1.246-1.349 0-2.651.22-3.894.61-.034 1.425-.102 6.032-.145 9.038-.016 1.176-1.32 1.866-2.298 1.217-2.04-1.355-4.843-3.214-5.688-3.77-1.672 2.19-2.91 6.225-2.917 10.097.908.268 3.85 1.133 6.125 1.781 1.328.378 1.818 2.002.924 3.054-1.683 1.981-3.914 4.613-4.4 5.208 2.019 3.395 5.044 5.92 8.579 6.975.352-1.092 1.517-5.214 2.304-8.022.295-1.05 1.687-1.259 2.273-.339 1.693 2.651 4.277 6.686 4.906 7.573 3.134-1.53 5.727-4.263 7.346-7.71-1.266-.826-4.755-3.168-7.087-4.736-.817-.55-.558-1.813.41-1.992 3.294-.61 8.499-1.577 8.499-1.597"/>
            <path fill="#2B2B51" d="M250.885 471.793c0 2.933-2.04 5.31-4.56 5.31-2.519 0-4.561-2.377-4.561-5.31 0-2.932 2.042-5.31 4.561-5.31 2.52 0 4.56 2.378 4.56 5.31"/>
            <path fill="#000" d="M382.331 453.867c-.096 0-4.062.088-6.538.303-10.646.922-17.786 9.767-17.786 22.19 0 12.424 7.1 22.494 17.786 22.494h6.538c10.686 0 17.265-10.07 17.265-22.494 0-12.423-6.58-22.493-17.265-22.493"/>
            <path fill="#2B2B51" d="M397.834 476.322c0 10.955-6.031 19.837-13.471 19.837s-13.471-8.882-13.471-19.837c0-10.956 6.031-19.837 13.47-19.837 7.44 0 13.472 8.881 13.472 19.837"/>
            <path fill="#42426C" d="M395.239 476.322c0 8.88-4.586 16.078-10.243 16.078-5.658 0-10.244-7.199-10.244-16.078 0-8.88 4.586-16.078 10.244-16.078 5.657 0 10.243 7.198 10.243 16.078"/>
            <path fill="#2B2B51" d="M393.838 476.322c0 7.894-4.078 14.293-9.108 14.293-5.028 0-9.106-6.4-9.106-14.293 0-7.894 4.078-14.294 9.106-14.294 5.03 0 9.108 6.4 9.108 14.294"/>
            <path fill="#42426C" d="M393.838 476.322c0-3.191-.674-6.127-1.8-8.504-1.146 1.107-5.47 5.342-5.47 5.342s1.23-7.88 1.536-10.107c-1.044-.655-2.18-1.025-3.373-1.025-.822 0-1.617.181-2.374.501-.033 1.787-.138 9.862-.138 9.862s-3.98-3.787-4.82-4.53c-1.02 1.8-1.774 5.118-1.778 8.3.939.375 5.447 2.161 5.487 2.09 0 0-3.384 5.359-3.871 6.168 1.229 2.79 3.075 4.866 5.23 5.733.197-.825.812-3.757 1.285-6.019.187-.903 1.414-1.05 1.81-.215 1.01 2.14 2.34 4.926 2.686 5.587 1.911-1.259 3.491-3.506 4.479-6.339-1.2-1.056-5.681-5.128-5.681-5.128s6.792-1.692 6.792-1.716"/>
            <path fill="#8697D1" d="M385.63 476.322c0 1.42-.734 2.572-1.64 2.572-.904 0-1.638-1.152-1.638-2.572 0-1.42.734-2.574 1.639-2.574s1.638 1.153 1.638 2.574"/>
            <path fill="#7582B8" d="M239.862 418.38s8.277-5.894 11.667-7.128c11.646-4.238 32.097-8.996 32.097-8.996l-4.121 19.752-39.643-3.628z"/>
            <path fill="#A4B1DD" d="M233.356 423.008s10.039-5.98 13.098-7.105c10.41-3.825 32.986-11.17 32.986-11.17l-4.36 19.623-41.724-1.348z"/>
            <path fill="#D8DDEA" d="M279.548 404.559s-21.6 5.346-31.228 8.431c-3.104.995-14.964 10.018-14.964 10.018l5.682.152c9.195-5.998 22.207-11.995 39.73-17.428l.78-1.173z"/>
            <path fill="#7582B8" d="M189.355 471.633a7.241 7.241 0 0 1 5.175 1.808c.967.853 2.333 1.655 4.041 1.655 3.644 0 17.696-.782 17.696-.782s3.644-.261 4.164-4.955c.52-4.694 5.987-29.996 26.805-30.249 14.887-.18 20.255 12.525 22.069 23.085.817 4.76 1.526 12.032-.21 19.507l36.781 1.913-13.36-63.802s-50.485-.782-59.073-.782c-8.588 0-15.564.123-29.927 1.826-24.202 2.868-46.843 8.605-50.226 9.909-3.383 1.304-5.9 3.606-6.766 7.301-3.123 13.3-2.603 25.686-2.603 29.076 0 3.39 45.434 4.49 45.434 4.49"/>
            <path fill="#7582B8" d="M233.443 419.032c-8.588 0-15.564.123-29.927 1.825-24.202 2.868-46.843 8.605-50.226 9.909-3.383 1.304-5.898 3.606-6.766 7.301a85.616 85.616 0 0 0-.706 3.334c38.876-15.165 80.024-20.046 121.292-21.965-13.944-.2-29.277-.404-33.667-.404"/>
            <path fill="#646D9F" d="M251.747 430.244c-16.45-1.289-26.885 8.056-31.792 13.618a8.472 8.472 0 0 1-6.36 2.87c-21.625.017-53.864 3.265-69.413 6.851-.313 5.552-.26 11.784-.26 13.56 0 3.39.524 6.749 4.424 6.563 7.287-.348 41.008-2.073 41.008-2.073a7.24 7.24 0 0 1 5.176 1.808c.968.852 2.332 1.655 4.042 1.655 3.643 0 17.696-.782 17.696-.782s3.643-.26 4.164-4.955c.52-4.693 5.986-29.997 26.804-30.248 14.888-.18 20.255 12.525 22.07 23.085.816 4.76 1.524 12.031-.21 19.506l91.093 3.195a2.821 2.821 0 0 0 2.915-2.95c-.236-5.238-.15-11.892-.15-11.892s-80.544-11.363-81.887-14.951c-3.123-9.388-16.02-23.816-29.32-24.86"/>
            <path fill="#D8DDEA" d="M185.436 435.858c-.881.058-1.763-.333-1.044-1.66 1.394-2.573 4.21-7.173 7.153-8.647 3.389-1.699 10.93-2.673 22.12-3.52 8.06-.611 13.272-.653 17.892-.457 1.755.074 1.595 1.402 1.04 2.02-2.316 2.58-7.61 7.617-14.248 8.997-6.896 1.434-26.694 2.862-32.913 3.267"/>
            <path fill="#535785" d="M166.021 452.36l-1.672 10.336a3.971 3.971 0 0 1-3.447 2.947l-13.337 1.109c-.883.088-1.599-.619-1.605-1.506-.022-2.732.044-6.447.266-10.259.067-1.148.94-2.083 2.07-2.285 4.223-.753 11.802-1.9 15.785-2.51 1.7-.26 2.258.957 1.94 2.169"/>
            <path fill="#646D9F" d="M167.262 439.4l-18.138 3.53c-1.234.157-1.624-.43-1.42-1.46l.641-3.272c.716-2.738 2.25-4.463 4.628-5.2 9.945-3.08 20.152-4.462 20.152-4.462 1.114-.247 1.364.648 1.006 1.342l-3.694 7.143a4.555 4.555 0 0 1-3.175 2.38"/>
            <path fill="#535785" d="M175.734 454.05c.117-.822.923-1.487 2.278-1.706 2.017-.325 5.511-.68 10.93-1.043 6.018-.402 14.183-.782 20.082-.58.798.026 1.297.883.998 1.623l-2.135 5.708a4.128 4.128 0 0 1-3.613 2.576l-11.168.257c-1.612.024-3.17-.812-3.839-2.282l-.24-.555a4.058 4.058 0 0 0-3.87-2.38l-8.128.534a1.307 1.307 0 0 1-1.389-1.491l.094-.661z"/>
            <path fill="#2B2B51" d="M292.517 471.185s4.165 7.408 15.094 7.562c24.462.347 139.313 2.608 139.313 2.608l63.412.26v-2.868l-120.23-12.777-97.59 5.215z"/>
            <path fill="#2474CD" d="M455.556 360.098l5.992-6.447a5.871 5.871 0 0 1 6.685-1.37l29.752 13.797c2.137.95 3.827 2.65 4.856 5.262l2.03 4.665-5.725-2.217-1.28-2.888c-.694-1.608-1.991-3.327-3.403-3.924l-23.979-10.466a3.662 3.662 0 0 0-4.053.822l-3.198 3.288-7.677-.522z"/>
            <path fill="#2B2B51" d="M546.9 474.705s2.992-36.898-8.98-37.941c-11.97-1.043-12.62 27.38-12.62 27.38l20.081 10.517 1.518.044z"/>
            <path fill="#000" d="M546.29 473.286c-.533-14.197-5.692-25.707-11.523-25.707-.037 0-.074.005-.11.006-.806 0-11.57.739-17.894 1.26-6.777.56-11.81 11.184-11.19 25.382.62 14.198 6.635 24.767 13.436 24.767 2.946 0 17.524.006 17.524.006v-.016c.053.002.105.01.16.01 5.832 0 10.13-11.51 9.596-25.708"/>
            <path fill="#2B2B51" d="M545.986 473.286c.437 12.74-3.095 23.065-7.887 23.065-4.794 0-9.034-10.326-9.472-23.065-.437-12.738 3.095-23.064 7.889-23.064 4.793 0 9.033 10.326 9.47 23.064"/>
            <path fill="#42426C" d="M470.454 356.48c-1.27-.52-2.457-.103-2.457-.103s24.95 11.245 27.462 12.307c1.539.652 2.19 1.782 2.797 3.216l.862 1.872 2.239.93-.813-1.858c-1.028-2.614-2.322-4.223-4.46-5.173 0 0-24.35-10.666-25.63-11.19"/>
            <path fill="#2474CD" d="M387.808 379.36l5.992-8.022c1.709-2.288 4.027-3.504 7.756-2.895l28.399 5.05c2.138.388 3.827 1.643 4.856 3.986l2.312 4.819-5.726-.71-1.561-3.242c-.694-1.425-1.852-2.463-3.264-2.689l-22.847-3.738c-1.391-.222-3.99.455-5.044 1.814l-3.196 4.13-7.677 1.497z"/>
            <path fill="#D2D8EE" d="M459.427 359.446s-65.244 14.56-71.49 17.689c-5.058 2.534-10.106 6.171-10.106 6.171l61.2 3.651 20.396-27.51z"/>
            <path fill="#FFF" d="M388.37 377.048c-5.057 2.535-10.495 6.345-10.495 6.345l14.473 1.474c17.048-7.807 34.409-14.764 52.005-21.06-15.906 1.767-51.554 11.022-55.982 13.241"/>
            <path fill="#95A4D7" d="M387.417 376.7c-5.058 2.535-13.662 8.345-13.662 8.345l.87.626 16.883-10.498s-3.152 1.057-4.09 1.528"/>
            <path fill="#95A4D7" d="M460.355 358.721s-23.926 4.159-42.49 8.853c-18.22 4.606-28.353 8.032-30.882 9.3-2.434 1.22-3.296 2.086-4.51 3.39 2.168-1.13 4.517-1.865 7.113-2.781 6.16-2.174 12.231-4.086 28.366-8.084 12.14-3.008 22.766-4.971 33.05-6.302 2.224-.288 3.123.717 1.756 2.412l7.597-6.788z"/>
            <path fill="#8697D1" d="M327.996 387.131s10.746-5.338 19.258-7.823c15.332-4.476 54.043.609 54.043.609l-73.3 7.214z"/>
            <path fill="#2B2B51" d="M455.426 473.698H412.92l-5.553-65.01 39.73 1.913z"/>
            <path fill="#000" d="M450.773 461.102c-1.123-20.884-12.03-38.211-24.343-37.812-5.356.175-13.943 1.478-22.531 2.782-12.627 1.917-23.127 17.015-21.963 37.55 1.165 20.537 12.462 35.29 25.231 35.29 4.886 0 16.509-.005 23.449-.005 12.318 0 21.277-16.989 20.157-37.805"/>
        </g>
        <g transform="translate(286.5 358)">
            <mask id="u" fill="#fff">
                <use xlink:href="#s"/>
            </mask>
            <path fill="url(#t)" d="M168.922 3.086c-3.782 5.252-10.709 14.778-14.927 20.296-2.26 2.956-4.173 2.782-6.953 2.435-10.548-1.319-25.294-3.44-30.963-3.984l.021-.015s-33.678-3.085-47.108-.87c-14.891 2.46-19.487 5.468-24.117 10.562C38.846 38.142.678 114.306.678 114.306l96.127-3.303s12.807-1.596 15.993-13.908c3.824-14.776 11.38-51.096 33.027-44.33 11.124 3.475 17.109 20.334 18.078 33.9 1.043 14.603.175 25.903-.87 30.424 0 0 60.84 3.302 65.534 3.476 2.78.103 6.38-1.013 8.17-5.041 4.867-10.953 6.718-31.42 12.689-34.075 6.258-2.782 10.43 11.648 10.87 23.813 3.348-1.953 5.834-5.194 5.79-9.068-.177-15.24-1.19-19.96-8.49-34.042-2.184-4.213-18.86-30.25-18.86-30.25-2.26-3.738-5.28-7.499-10.69-9.91-5.178-2.31-12.599-5.483-24.423-10.431-12.256-5.13-18.991-8.04-24.597-10.3a11.297 11.297 0 0 0-4.17-.812c-2.339 0-4.6.785-5.934 2.637" mask="url(#u)"/>
        </g>
        <g>
            <path fill="#2B2B51" d="M449.861 461.051c1.014 18.677-7.176 33.816-18.293 33.816-11.118 0-20.952-15.139-21.966-33.816-1.014-18.675 7.176-33.816 18.293-33.816 11.118 0 20.951 15.14 21.966 33.816"/>
            <path fill="#000" d="M340.192 465.753c-2.09-23.905-13.243-33.511-24.007-33.162-4.682.153-8.928 1.22-16.814 2.897-10.92 2.324-21.812 14.255-20.794 32.266 1.018 18.01 12.337 31.159 23.501 31.159 4.269 0 11.699-.005 17.766-.005 10.767 0 22.14-12.649 20.348-33.155"/>
            <path fill="#2B2B51" d="M334.01 465.243c.634 13.12-5.603 24.086-13.93 24.493-8.326.406-15.59-9.9-16.224-23.023-.633-13.12 5.604-24.086 13.93-24.493 8.327-.406 15.592 9.901 16.225 23.023"/>
            <path fill="#535785" d="M443.89 461.053c.717 14.378-5.074 26.035-12.934 26.035-7.861 0-14.813-11.657-15.53-26.035-.717-14.38 5.074-26.037 12.934-26.037 7.86 0 14.814 11.657 15.53 26.037"/>
            <path fill="#535785" d="M445.69 461.053c.756 15.148-5.345 27.428-13.625 27.428-8.282 0-15.607-12.28-16.361-27.428-.757-15.15 5.345-27.43 13.625-27.43 8.281 0 15.606 12.28 16.362 27.43"/>
            <path fill="#42426C" d="M429.065 450.354l6.03-12.438c-2.072-1.919-4.378-3.01-6.768-3.01a7.95 7.95 0 0 0-3.364.76l1.463 14.23c.143 1.387 2.029 1.715 2.639.458M435.572 459.017l8.072-.444c-.468-4.635-1.575-8.917-3.133-12.53l-7.054 8.95c-1.328 1.687-.038 4.142 2.115 4.024M433.38 469.264l7.908 8.71c1.255-3.044 2.11-6.686 2.443-10.69l-8.806-1c-1.652-.188-2.658 1.754-1.545 2.98M419.223 477.136l2.196-5.604c1.286-2.916.491-6.818-2.203-7.109l-3.552-.336c.55 4.89 1.81 9.365 3.559 13.05M415.553 454.376l3.575 2.056c1.924 1.247 3.026-1.85 2.475-3.856l-2.762-10.36c-1.686 3.274-2.847 7.456-3.288 12.16M425.712 474.336l-.88 10.446c1.892 1.547 3.956 2.416 6.087 2.416 1.674 0 3.253-.536 4.695-1.515l-6.117-11.6c-1.102-2.369-3.642-1.454-3.785.253"/>
            <path fill="#646D9F" d="M430.494 461.85c.225 3.877-1.329 7.034-3.47 7.051-2.143.017-4.06-3.113-4.286-6.992-.224-3.878 1.329-7.036 3.472-7.051 2.14-.017 4.059 3.113 4.284 6.991"/>
            <path fill="#535785" d="M544.46 473.3c.33 10.566-2.353 19.131-5.995 19.131-3.641 0-6.864-8.565-7.196-19.132-.333-10.565 2.35-19.13 5.993-19.13 3.642 0 6.865 8.565 7.197 19.13"/>
            <path fill="#42426C" d="M536.93 467.798l2.869-10.636c-.912-1.339-1.926-2.1-2.977-2.1-.517 0-1.011.185-1.48.53l.428 11.885c.062.967.893 1.197 1.16.32M538.749 472.954l4.81-1.383c-.205-3.234-.693-6.22-1.378-8.74l-4.363 7.316c-.584 1.177-.017 2.89.93 2.807M537.753 478.111l4.77 6.99c.551-2.121.926-4.662 1.074-7.454l-5.164-1.615c-.726-.13-1.17 1.224-.68 2.08M532.861 484.465l.563-2.394c.566-2.034-.157-6.347-1.342-6.55l-.714-.108c.242 3.41.725 6.481 1.493 9.052M531.303 468.711l1.039.957c.845.871 1.775-.892 1.45-2.698l-1.143-6.808c-.741 2.283-1.152 5.268-1.346 8.55M535.46 480.92l-.175 8.932c.832 1.078 1.739 1.685 2.676 1.685.737 0 1.43-.374 2.066-1.057l-2.901-9.736c-.485-1.652-1.602-1.015-1.666.175"/>
            <path fill="#646D9F" d="M536.616 473.856c.1 2.705-.584 4.907-1.527 4.918-.941.012-1.785-2.172-1.884-4.877-.1-2.705.584-4.907 1.528-4.918.94-.012 1.784 2.172 1.883 4.877M346.103 446.081c-.192 7.833.154 16.557 1.066 24.335l36.767-1.27s12.755-1.598 15.929-13.926c.632-2.46 1.369-5.519 2.257-8.875-10.309-.35-29.528-2.178-56.019-.264M451.218 455.04c.148 9.577-.535 16.802-1.314 20.2 0 0 60.6 3.306 65.275 3.48 2.768.104 6.356-1.014 8.137-5.047 1.073-2.427 1.998-5.32 2.854-8.382-24.864-3.702-49.906-6.836-74.952-10.25"/>
            <path fill="#95A4D7" d="M463.411 358.594c-2.888-.465-5.997.172-7.655 2.485-3.768 5.258-10.654 14.809-14.856 20.334-2.251 2.96-4.156 2.786-6.926 2.438 6.252.72 10.995 2.089 14.891-3.656 1.823-2.69 10.781-16.115 12.141-18.047 1.45-2.058 3.513-3.071 6.752-2.089-.978-.393-2.58-1.204-4.347-1.465"/>
            <path fill="#FFF" d="M277.408 403.129s-3.08-.179-4.935 3.394c-1.558 3.003-3.246 7.05-3.766 9.139-.994 4 .78 6.006.78 6.006s4.934-3.264 6.493-8.225c1.558-4.962 1.428-10.314 1.428-10.314"/>
            <path fill="#95A4D7" d="M371.166 406.262c5.454-.914 17.011-2.742 17.011-2.742-16.015-.157-30.14-17.022-41.684-6.658-5.88 5.278-11.022 10.526-15.453 15.792-.741.882-1.878.996-2.753.564.53-5.28 1.19-10.68 1.628-13.179 1.514-8.66 6.438-15.058 17.519-19.235 0 0-13.956 3.499-19.941 6.51-1.252.63-2.56 1.14-3.926 1.454l-32.23 7.376c-1.581.363-3.26.413-4.883.413-1.558 0-3.116-.522-6.405.174-2.9.615-3.875 1.894-4.204 2.987-.392 1.25-1.23 4.325-1.23 4.325s.611-.471 1.604-.734a.42.42 0 0 1 .519.478c-.074.41-.186.99-.314 1.626a25.653 25.653 0 0 1-1.051 3.743c-.968 2.66-2.052 5.633-2.424 6.637-1.285 3.467-6.931 6.171-9.046 11.488-2.116 5.319-3.873 15.399-.932 25.783 2.534 8.945 14.96 19.662 24.35 19.39 2.864-.083 6.897-.254 9.456-.368l.066.02 56.872-1.935.094.02 14.284-.523s-11.882-18.452-11.515-35.511c.174-8.05.345-9.968 1.602-16.145 1.498-7.362 7.532-10.836 12.986-11.75"/>
            <path fill="#7582B8" d="M263.068 453.392c2.74 8.877 14.978 19.331 24.252 19.062a690.3 690.3 0 0 0 9.456-.368l.067.02 56.872-1.935c.031.006.06.014.093.02l14.285-.523s-5.433-8.769-7.965-17.19c-.893-2.966 1.948-7.18 5.584-7.18-1.904-2.61-6.536-7.659-9.22-10.053-.26 7.312-5.32 10.395-9.87 10.837-33.157 3.22-79.156 6.908-83.554 7.31"/>
            <path fill="#646D9F" d="M323.962 448.17c-10.141.703-36.303 3.454-47.138 4.048-2.786.152-3.468 2.384-2.292 4.15l.019.027c5.324 7.964 22.53 15.798 22.53 15.798l60.255-2.09s-13.7-6.527-25.085-18.8c-2.55-2.748-4.523-3.394-8.289-3.133"/>
            <path fill="#FFF" d="M339.662 410.226c-1.128-.805-1.738-2.149-1.703-3.538.063-2.399.093-4.734.44-7.868.479-4.338.692-7.833 5.714-10.792 4.021-2.37 10.388-6.093 25.365-5.527 9.74.369 15.71.81 17.66.914 2.468.13 5.714 1.175 5.844 5.483.103 3.396.39 7.703.52 9.792.073 1.173-.26 4.83-5.455 4.83-3.063 0-12.136-.12-19.063-.22-4.697-.067-9.337 1.355-13.048 4.249-2.271 1.77-5.28 3.51-8.707 3.98-3.862.529-6.2-.329-7.567-1.303"/>
            <path fill="#8697D1" d="M372.508 424.061c-3.435-2.138-11.298 5.673-11.298 2.524 0-3.15 3.275-5.7 7.315-5.7 2.328 0 4.402.847 5.742 2.166.986.973-.396 1.859-1.759 1.01"/>
            <path fill="#42426C" d="M374.737 427.804c0 2.836-2.985 5.135-6.666 5.135-3.682 0-6.666-2.299-6.666-5.135 0-2.837 2.984-5.136 6.666-5.136 3.681 0 6.666 2.299 6.666 5.136"/>
            <path fill="#C3CBE8" d="M373.33 427.804c0 1.85-1.493 3.35-3.333 3.35s-3.332-1.5-3.332-3.35 1.492-3.35 3.332-3.35c1.84 0 3.333 1.5 3.333 3.35"/>
            <path fill="#7582B8" d="M283.257 406.134l-1.777 8.605c-.431 2.166 1.42 4.101 3.59 3.751l27.183-4.525c3.87-.623 6.615-3.717 7.593-7.526.978-3.81 2.276-8.663 2.276-8.663s-1.345 1.426-2.531 2.698c-.975 1.044-1.965 1.478-3.507 1.763l-29.37 5.461c-1.09.238-1.72.238-2.748-.761l-.709-.803zM275.434 434.926c0-.769.017-3.002.017-3.002a4.398 4.398 0 0 1 3.735-4.08l37.646-5.389c2.282-.339 4.297 1.518 4.162 3.833 0 0-.02 2.2-.02 2.772 0 .572-.694 1.547-1.535 1.66l-42.507 5.614c-.83.11-1.498-.64-1.498-1.408"/>
            <path fill="#42426C" d="M278.345 454.004c1.609 2.621 4.062 4.807 7.405 7.107 1.136.781 2.45 1.25 3.822 1.138 7.979-.651 33.499-2.28 41.598-2.981.906-.079 1.321-1.155.724-1.846-2.545-2.947-5.512-5.86-6.893-7.293-1.04-1.082-2.358-1.88-3.725-1.735l-41.92 3.693c-.921.098-1.497 1.124-1.01 1.917"/>
            <path fill="#646D9F" d="M552.023 444.964l-6.37-1.93 1.06 19.2c.043.778.09 1.515.108 2.517.13 6.527-.086 9.922-.086 9.922l.433-.115a1.871 1.871 0 0 0 1.384-1.677l.682-9.48c2.596 0 4.701-2.115 4.701-4.724l-.026-11.192a2.623 2.623 0 0 0-1.886-2.521"/>
            <path fill="#B3BEE2" d="M482.325 371.186c-.411-1.039-.956-1.636-1.992-2.046l-9.132-3.567a5.582 5.582 0 0 0-6.902 2.476s-7.816 13.93-9.682 18.096c-1.184 2.644.852 5.245 3.554 6.017 0 0 29.038 7.863 35.625 9.705.41.114.602-.365.444-.761l-11.915-29.92zM503.921 378.484l-14.497-5.73c-.477-.19-.892.178-.692.652l12.533 29.701c.28.664.838 1.168 1.526 1.376a8134.73 8134.73 0 0 0 18.934 5.65c.433.13.797-.337.577-.734l-16.02-28.842a4.648 4.648 0 0 0-2.361-2.073M538.185 413.573l-14.695-23.63c-2.857-4.374-6.059-5.93-9.782-7.573 0 0-.668-.268-1.269-.512-.304-.124-.55.165-.29.556.65 1.132 16.947 29.135 16.947 29.135.348.6.918 1.044 1.58 1.24 2.54.753 6.514 1.96 6.514 1.96 1.053.3 1.515-.306.995-1.176"/>
            <path fill="#646D9F" d="M456.375 391.325l3.619-3.218a5.257 5.257 0 0 0 1.683-3.858l.26-3.62c.173-2.088 1.212-3.655 3.81-3.916 3.153-.318 10.905-.85 13.937-.957 2.424-.088 4.069 1.48 3.81 3.742l-.17 6.358a2.61 2.61 0 0 1-2.326 2.495l-15.078 1.244c-1.517.16-2.773.657-4.157 1.306l-4.046 2.436c-1.264.593-2.367-1.064-1.342-2.012"/>
            <path fill="#8697D1" d="M479.684 375.756c-3.032.108-10.784.64-13.937.957-2.597.26-3.636 1.827-3.81 3.916l-.26 3.62c0 .009-.003.016-.003.025 5.712-4.919 12.615-6.843 19.72-8.264a4.502 4.502 0 0 0-1.71-.254M414.106 399.778c-14.934 4.612-18.938 22.497-14.674 24.806 3.376 1.827 5.583-9.009 17.53-16.19 10.342-6.215 14.588-3.481 16.233-6.005 1.738-2.666-8.84-5.777-19.09-2.61"/>
            <path fill="#7582B8" d="M533.793 436.246c-2.338 2.263-3.464 4.874-5.454 3.83-1.086-.57-1.646-4.265 1.558-7.311 2.969-2.824 7.092-1.72 8.137-.436.78.958-1.297 1.067-4.241 3.917"/>
            <path fill="#646D9F" d="M493.145 413.136l.621 2.303c.149.517.597 1 1.163 1.14l4.624 1.172c.297.073.563-.217.47-.5l-.687-2.416c-.194-.637-.653-1.046-1.292-1.226l-4.227-1.146a.546.546 0 0 0-.672.673M526.563 421.363l.79 2.123c.206.488.507.848.986.967l3.453.857c.25.063.529-.117.399-.423l-.88-2.146c-.164-.54-.555-.886-1.096-1.04l-3.132-.86c-.346-.099-.614.174-.52.522"/>
        </g>
    </g>
</svg>
