<?xml version="1.0" encoding="UTF-8"?>
<svg width="683px" height="683px" viewBox="0 0 683 683" version="1.1" xmlns="http://www.w3.org/2000/svg" xmlns:xlink="http://www.w3.org/1999/xlink">
    <!-- Generator: sketchtool 51.3 (57544) - http://www.bohemiancoding.com/sketch -->
    <title>52FECCC4-B004-4CCD-8675-806B6B3078BE</title>
    <desc>Created with sketchtool.</desc>
    <defs>
        <polygon id="path-1" points="-2.53144727e-13 1 151 1 151 110 -2.53144727e-13 110"></polygon>
        <polygon id="path-3" points="1 1 152 1 152 126 1 126"></polygon>
        <polygon id="path-5" points="1 1.63091762e-13 100 1.63091762e-13 100 191 1 191"></polygon>
        <polygon id="path-7" points="1 2.82594694e-13 51 2.82594694e-13 51 31 1 31"></polygon>
        <path d="M19.2284234,3.01536573e-13 C17.4650391,3.01536573e-13 15.6631452,0.216493942 13.8648335,0.667448128 C3.18064143,3.34622379 -1.13512737,14.3667536 1.99937996,24.2482198 C4.00009121,30.5570868 7.31013094,36.5748998 11.3339428,41 C22.3091963,36.9036831 31.849741,29.856401 39,20.8175544 C38.7805845,18.4073749 38.3856366,16.0061787 37.8214252,13.6921189 C35.7741442,5.28748275 27.952205,0.000898315112 19.2302145,3.01536573e-13 C19.2293189,3.01536573e-13 19.2293189,3.01536573e-13 19.2284234,3.01536573e-13" id="path-9"></path>
        <radialGradient cx="-31.151776%" cy="-45.8445834%" fx="-31.151776%" fy="-45.8445834%" r="167.330842%" gradientTransform="translate(-0.311518,-0.458446),scale(1.000000,0.926829),translate(0.311518,0.458446)" id="radialGradient-11">
            <stop stop-color="#FFE8E8" offset="0%"></stop>
            <stop stop-color="#FDACAC" offset="100%"></stop>
        </radialGradient>
        <path d="M1.75970349e-13,18.1708708 C7.76540884,29.6895041 18.8253656,38.7595367 31.810119,44 C34.9948777,38.8933208 37.3605739,32.6397952 38.4889631,26.4091536 C41.2999156,10.8928407 41.9560369,2.92740693 24.2573178,0.444480006 C22.1530245,0.149626933 20.2229997,3.54438701e-13 18.4498167,3.54438701e-13 C7.44126924,3.54438701e-13 2.52340933,5.76591787 1.75970349e-13,18.1708708" id="path-12"></path>
        <radialGradient cx="144.146573%" cy="-48.6652383%" fx="144.146573%" fy="-48.6652383%" r="174.2686%" gradientTransform="translate(1.441466,-0.486652),scale(1.000000,0.909091),translate(-1.441466,0.486652)" id="radialGradient-14">
            <stop stop-color="#FFE8E8" offset="0%"></stop>
            <stop stop-color="#FDACAC" offset="100%"></stop>
        </radialGradient>
    </defs>
    <g id="Symbols" stroke="none" stroke-width="1" fill="none" fill-rule="evenodd">
        <g id="Иллюстрация-/-Кредитная-карта">
            <g>
                <rect id="Rectangle-8-Copy-6" fill-rule="nonzero" x="0" y="0" width="683" height="683"></rect>
                <g id="Group-187" transform="translate(73.000000, 35.000000)">
                    <g id="Group-115" transform="translate(0.000000, 0.000000)">
                        <path d="M372,218 C372,218 373.634099,213.646505 373.400656,209.873766 C373.26526,207.689182 376.591352,209.946034 376.9798,212.848074 C377.369183,215.750984 372,218 372,218" id="Fill-1" fill="#E09595"></path>
                        <path d="M316.808835,196.272928 C316.808835,196.272928 335.272752,178.650488 340.840942,173.65717 C340.840942,173.65717 324.135493,160.440341 307.722829,151.335707 L308.016493,139 C308.016493,139 324.721942,144.87444 339.375259,151.042294 C354.082208,157.231295 363.114581,162.790293 365.752283,166.314781 C368.039171,169.36875 366.782746,173.418386 365.166713,176.888244 C363.114581,181.293854 351.391752,199.797415 320.911341,223 L296,205.671855 L316.808835,196.272928 Z" id="Fill-3" fill="#E09595"></path>
                        <path d="M304.45314,162 L328,187.146616 C328,187.146616 307.985125,197.672984 299.744121,183.929933 C291.502235,170.186883 304.45314,162 304.45314,162" id="Fill-5" fill="#2B2B51"></path>
                        <path d="M252.930738,119.787832 C268.131419,112.156646 299.629882,111.178424 308.765374,135.636608 C315.781208,154.420049 300.252537,165.206021 302.041574,172.0298 C303.503499,177.606808 327.766006,182.59565 328.935896,189.053146 C329.96547,194.740215 318.412145,206.9561 307.30345,209.30436 L261.115585,214 C261.115585,214 234.265113,198.439143 230.714224,170.268825 C227.790375,147.082946 233.582823,129.50049 252.930738,119.787832" id="Fill-7" fill="#E9EEFB"></path>
                        <path d="M266.596871,138.450024 C273.688653,149.984714 281.666908,158.857552 292.304581,166.843106 C295.441809,169.041796 298.803313,170.67706 302.266762,172 C301.234022,165.100481 316.083327,154.299575 309.147564,135.788173 C303.432474,120.533102 289.056545,115.103812 275.28785,115 C265.442684,118.974144 258.407636,126.469918 266.596871,138.450024" id="Fill-9" fill="#E9EEFB"></path>
                        <path d="M328.935795,189.051374 C327.766779,182.5943 303.503347,177.604222 302.04142,172.027698 C302.001956,171.877124 301.981785,171.722148 301.958107,171.568051 C298.531742,170.255151 295.20623,168.632297 292.102595,166.450294 C281.578823,158.525343 273.39396,151.187719 266.378112,139.740568 C260.53128,131.22829 265.528318,118.944616 275.268068,115.001512 C266.882376,114.938113 258.722945,116.873562 252.930486,119.781138 C233.582532,129.495367 227.79095,147.078192 230.713927,170.266598 C234.2657,198.438918 261.116226,214 261.116226,214 L307.303306,209.304026 C318.412023,206.955599 329.966247,194.739727 328.935795,189.051374" id="Fill-11" fill="#DBDFE4"></path>
                        <polygon id="Fill-13" fill="#EE854F" points="381 210.222222 394.246154 199 395 200.777778 382.4 211"></polygon>
                        <polygon id="Fill-15" fill="#2B2B51" points="399 182 410.626868 272.119663 503.509003 287 516 266.866421 491.63574 189.966026"></polygon>
                        <polygon id="Fill-17" fill="#42426C" points="402 179.026623 413.712026 269 517 266.355498 496.228691 171"></polygon>
                        <g id="Group-21" transform="translate(386.000000, 154.000000)">
                            <mask id="mask-2" fill="white">
                                <use xlink:href="#path-1"></use>
                            </mask>
                            <g id="Clip-20"></g>
                            <polygon id="Fill-19" fill="#24478D" mask="url(#mask-2)" points="-2.53144727e-13 24.9475794 34.8764214 110 144.887909 91.3240895 151 65.7218729 98.4548141 1"></polygon>
                        </g>
                        <g id="Group-24" transform="translate(385.000000, 132.000000)">
                            <mask id="mask-4" fill="white">
                                <use xlink:href="#path-3"></use>
                            </mask>
                            <g id="Clip-23"></g>
                            <polygon id="Fill-22" fill="#2474CD" mask="url(#mask-4)" points="1 40.9113494 35.8408221 126 152 87.9227094 108.429231 1"></polygon>
                        </g>
                        <path d="M405,200 C405,201.104941 404.104941,202 403,202 C401.895059,202 401,201.104941 401,200 C401,198.895059 401.895059,198 403,198 C404.104941,198 405,198.895059 405,200" id="Fill-25" fill="#3F3848"></path>
                        <path d="M414,222 C414,223.104941 413.104941,224 412,224 C410.895059,224 410,223.104941 410,222 C410,220.895059 410.895059,220 412,220 C413.104941,220 414,220.895059 414,222" id="Fill-27" fill="#3F3848"></path>
                        <polygon id="Fill-29" fill="#2B2B51" points="396 181.541195 459.518138 150 493.418489 197.089871 497 212.205335 429.319353 240"></polygon>
                        <path d="M394,179.543564 L453.552178,136 C453.552178,136 460.824079,146.415268 473.110659,165.018708 C484.386229,182.092236 493,197.298332 493,197.298332 L427.368597,238 L394,179.543564 Z" id="Fill-31" fill="#42426C"></path>
                        <polygon id="Fill-33" fill="#3F3848" points="381 210.588836 401.136974 199 402 200.782898 382.007151 212"></polygon>
                        <polygon id="Fill-35" fill="#3F3848" points="381 210.683341 396.466667 205 397 206.143655 381.99584 212"></polygon>
                        <path d="M411,194.5 C411,195.328 410.328857,196 409.5,196 C408.671143,196 408,195.328 408,194.5 C408,193.672 408.671143,193 409.5,193 C410.328857,193 411,193.672 411,194.5" id="Fill-37" fill="#24478D"></path>
                        <path d="M421,212.5 C421,213.328 420.328857,214 419.5,214 C418.671143,214 418,213.328 418,212.5 C418,211.672 418.671143,211 419.5,211 C420.328857,211 421,211.672 421,212.5" id="Fill-39" fill="#24478D"></path>
                        <path d="M408.341463,194 C408.341463,194 386.829268,204.990654 380.682927,209.700935 C374.536585,214.411215 373,218 373,218 L377.390244,217.327103 C377.390244,217.327103 380.260585,211.294355 384.579707,208.859364 C397.310537,201.682692 409,195.794393 409,195.794393 L408.341463,194 Z" id="Fill-41" fill="#24478D"></path>
                        <path d="M87.0081708,250 C87.0081708,250 84.1165494,253.01177 85.2730245,255.120822 C87.2667077,258.754284 92.2136099,262.650699 97.419049,266.566091 C104.455935,271.860409 122,266.8679 122,266.8679 L87.0081708,250 Z" id="Fill-43" fill="#E09595"></path>
                        <path d="M100.739905,243.005839 C99.6434558,242.343891 96.7926874,237.710253 97.0119772,233.738564 C97.2312671,229.766875 99.4969701,230.06078 100.59342,231.384677 C101.689869,232.708573 104.029253,236.607006 106.222152,237.930903 C108.415051,239.254799 111.119334,241.608687 115.066551,241.388037 C119.013769,241.167388 122.668893,243.005839 124.423212,244.771034 C126.177531,246.536229 127.27398,249.404671 128.589719,249.62532 C129.905459,249.84597 140.065597,252.125719 144.889975,251.68442 C149.714352,251.243122 157.755273,249.993364 163.89539,250.655312 C163.89539,250.655312 166.672477,243.594531 169.742535,240.064141 C172.812593,236.533751 172.734526,233.578814 173.105564,231.090772 C173.544144,228.149074 173.982724,225.94258 174.566912,223 L181,223.809342 L177.052782,271.46961 L154.465925,275 L100.739905,243.005839 Z" id="Fill-45" fill="#E09595"></path>
                        <path d="M3.78968854,486.379589 C2.21969423,484.412295 -2.30311387,490.364003 1.45700062,497.946671 C5.23198414,505.5587 17.2514057,527.127749 19.8980925,532.091807 C23.396687,538.653902 27.6964597,540.618526 33.2364842,537.652904 C36.7963042,535.746115 40.9989909,530.868366 43.8958272,528.499783 C45.9477529,526.821667 48.125628,525.38201 50,523.898754 L36.7350788,508.030497 C34.4023908,509.810048 31.663866,512.068298 28.5711084,509.810048 C20.1928491,503.691951 7.57954108,491.1301 3.78968854,486.379589" id="Fill-47" fill="#E9EEFB"></path>
                        <path d="M36.8585416,508 C34.6083691,509.746039 31.9518311,511.973652 29.0102308,509.954093 C28.6272596,516.669215 39.0965839,527.766921 43.5371439,529 C46.4614152,526.683606 48.0860103,525.487296 50,523.993253 L36.8585416,508 Z" id="Fill-49" fill="#FFAEAE"></path>
                        <path d="M157.815938,582 C157.815938,582 155.388598,586.847222 145.385307,589.196802 C135.381134,591.547264 114.785812,597.275799 114.050548,600.801051 C112.955156,606.04927 129.864451,609.100375 145.16464,607.631227 C160.463946,606.162078 173.119657,605.520482 174.73406,603.44499 C177.051949,600.462626 176.246072,595.154478 177.713068,592.098085 C178.665468,590.112486 179,589.637459 179,589.637459 L157.815938,582 Z" id="Fill-51" fill="#E9EEFB"></path>
                        <path d="M152.749865,590.121896 C156.447404,594.145496 168.579984,594.872422 177.593568,593.066038 C178.464048,591.184957 179,589.894162 179,589.894162 L157.703876,582 C157.703876,582 156.671014,584.089685 153.240563,586.224916 C151.788877,587.161358 151.592775,588.862984 152.749865,590.121896" id="Fill-53" fill="#FFAEAE"></path>
                        <path d="M37,508.159584 L52.1864273,527 C52.1864273,527 74.5783689,512.220156 99.7915357,488.731013 C108.268354,480.834182 114.611729,471.056312 123.818386,461.725299 C147.63233,437.591481 172.10164,409.690286 187.990745,383.346026 L195,331.536208 L163.166592,323 C163.166592,323 153.23623,338.896104 127.244159,379.813558 C101.251213,420.731013 93.6584374,437.510234 79.6399272,457.821922 C65.621417,478.13361 37,508.159584 37,508.159584" id="Fill-55" fill="#2B2B51"></path>
                        <path d="M162.841562,323 C162.841562,323 171.165371,348.077108 174.232038,355.157787 C177.455543,362.600465 182.993943,368.139326 182.993943,368.139326 C182.993943,368.139326 177.7368,424.194404 176.568838,446.616258 C175.4,469.038997 175.177448,480.609711 172.771429,501.787135 C170.727276,519.783565 157,582.329855 157,582.329855 L178.028571,590 C178.028571,590 197.59741,548.10628 203.146324,530.994935 C208.620762,514.114597 208.695238,496.77136 211.032038,486.150342 C213.368838,475.529324 224.759314,442.781185 234.689181,409.442695 C244.653219,375.990914 249,338.046442 249,338.046442 L162.841562,323 Z" id="Fill-57" fill="#42426C"></path>
                        <path d="M210.039101,145.181177 C210.039101,145.181177 209.627732,138.30027 211.473596,128.526753 C212.466708,123.267461 213.682277,117.78202 221.294371,113.406289 C227.584081,109.790525 244.757417,105.873229 251.9705,109.352251 C259.694706,113.077583 261.901621,118.446443 260.687818,124.363147 C259.612608,129.606661 257.011979,138.415975 256.273986,140.908003 C255.170528,144.633334 253.515342,151.317018 251.529117,150.988312 C249.542893,150.659607 210.039101,145.181177 210.039101,145.181177" id="Fill-59" fill="#303030"></path>
                        <path d="M131.585635,259.54447 C130.876719,258.871272 130.800193,257.686517 131.417446,256.912293 L138.00372,248.639213 C138.620973,247.864989 139.70495,247.782332 140.414706,248.45553 C141.123622,249.129646 141.199307,250.313483 140.582895,251.087707 L133.995781,259.360787 C133.379369,260.135011 132.294551,260.217668 131.585635,259.54447" id="Fill-61" fill="#42426C"></path>
                        <path d="M207,189.015979 C207,189.015979 212.916241,177.790058 213.206304,159 C213.206304,159 231.825215,163.217488 245,166.823347 C242.386819,174.53573 242.931232,183.134931 242.931232,183.134931 L207.489536,201 L207,189.015979 Z" id="Fill-63" fill="#E09595"></path>
                        <path d="M173.968431,225.027018 L177.179687,225.322282 C177.179687,225.322282 177.762915,237.145258 177.762915,242.760594 C177.762915,248.375931 175.428252,259.312228 175.719866,272.020995 C176.01148,284.729763 173.968431,293.596551 171.049664,300.986132 C168.130022,308.374827 162,323.743631 162,323.743631 C162,323.743631 176.677025,329.489309 192.650112,332.610419 C225.927376,339.113321 252.49139,340 252.49139,340 C252.49139,340 263.875717,282.365877 262.415896,246.012046 C261.123337,213.821171 263,186.604565 263,186.604565 C263,186.604565 248.98852,182.466435 241.107063,183.05785 C211.186424,195.249684 207.756238,194.214929 207.756238,194.214929 L206.661592,185.717886 C206.661592,185.717886 194.109933,186.604565 187.979911,191.037959 C183.106543,194.562507 179.827856,199.234418 177.762915,206.998178 C175.719866,214.682136 173.968431,225.027018 173.968431,225.027018" id="Fill-65" fill="#FFFFFF"></path>
                        <path d="M188,287 C188,287 235.706913,300.082025 246.697681,304.947292 C250.186814,306.491961 254.54823,329 254.54823,329 C254.54823,329 258.364469,305.940294 260,292.479604 C249.750672,292.258937 188,287 188,287" id="Fill-67" fill="#DBDFE4"></path>
                        <path d="M156.177756,278.444621 C154.218364,282.468693 149.346008,284.146047 145.35146,282.171295 L109.521577,264.461694 C105.527029,262.487819 103.862851,257.579452 105.822244,253.555379 C107.782507,249.531307 112.653992,247.853953 116.64854,249.828705 L152.478423,267.538306 C156.472971,269.513058 158.137149,274.420548 156.177756,278.444621" id="Fill-69" fill="#2B2B51"></path>
                        <path d="M233.76724,238.09 L232.111058,236 C232.111058,236 226.369628,261.52 223.498912,262.18 C214.105048,264.33952 197,269 197,269 L238,268.48696 L233.76724,238.09 Z" id="Fill-71" fill="#DBDFE4"></path>
                        <path d="M208,194.551705 C208,194.551705 208.218622,197.170959 208.801904,200.517493 C209.384313,203.8649 210.247431,206.310411 210.247431,206.310411 C210.332256,206.7941 210.81235,207.102299 211.286322,206.968717 C214.278816,206.129682 224.003109,203.272949 226.582845,200.88157 C229.643549,198.044044 240.064809,184.657034 244,183.565678 C244,183.565678 243.781378,181.964441 243.635339,180.873085 C243.55751,180.29161 242.68827,180 242.68827,180 C242.68827,180 235.618918,185.093577 224.906454,189.24073 C214.19399,193.387883 208,194.551705 208,194.551705" id="Fill-73" fill="#E9EEFB"></path>
                        <path d="M252.492182,148.632869 C249.688087,164.280592 239.221204,180.075658 227.566602,177.775854 C215.558119,175.405928 210.995921,157.475266 213.800016,141.827543 C216.604981,126.17982 222.640089,120.229265 238.290853,122.448296 C255.95187,124.952252 255.297147,132.985146 252.492182,148.632869" id="Fill-75" fill="#FFAEAE"></path>
                        <path d="M213.455202,146.839179 C213.987516,151.790244 214.592893,156.783633 212.802855,156.988344 C209.976022,157.312253 207.681503,150.818515 207.149189,145.86745 C206.616875,140.916385 207.546685,139.198369 209.338463,139.008342 C211.12937,138.818316 212.922887,141.888114 213.455202,146.839179" id="Fill-77" fill="#FFAEAE"></path>
                        <path d="M233.344695,237.865407 C233.344695,237.865407 233.14138,246.376107 233.344695,253.294522 C233.564734,260.788664 235.105004,265.637814 235.105004,265.637814 C235.105004,265.637814 214.86145,267.401141 202.319248,268.503221 C189.777046,269.605301 178.114998,267.401141 174.814419,266.299062 C171.513839,265.196982 171.144174,263.236162 166.452951,261.670327 C162.492255,260.347832 157.871444,259.245752 155.891096,258.584504 C153.910749,257.923257 149.509976,258.80492 144.00901,257.041593 C142.020741,256.40415 137.407851,255.057849 137.187813,255.719097 C136.557622,257.612029 136.789983,259.659252 141.588585,261.890743 C147.749667,264.75615 153.69071,267.401141 153.69071,267.401141 C153.69071,267.401141 127.94619,272.91154 125.085688,273.352371 C123.227682,273.638912 123.810344,276.962784 126.40592,277.540274 C130.366615,278.421938 131.906885,278.86277 131.906885,278.86277 C131.906885,278.86277 136.307658,284.814 139.608238,286.356911 C142.908817,287.899823 145.407576,288.139635 147.969706,288.781486 C150.610169,289.442734 152.370478,289.66315 158.091483,289.222318 C165.167045,288.67745 176.134651,286.136495 181.195539,286.577327 C186.256428,287.018159 199.220224,290.26709 210.387625,292.087725 C223.00288,294.144647 233.71172,295.602037 245.006743,295.907974 C255.861689,296.20245 258.94223,295.907974 262.902925,293.262983 C266.863621,290.617992 268.477824,286.797743 268.697863,281.948593 C268.917901,277.099442 270.751263,266.739894 269.65107,253.514938 C268.550877,240.289982 267.230645,235 267.230645,235 L233.344695,237.865407 Z" id="Fill-79" fill="#FFAEAE"></path>
                        <path d="M231,232.845948 L231.608246,237.034468 C231.712072,237.635019 232.26927,238.053275 232.884437,237.994497 L254,235.969662 L251.693338,231 L231,232.845948 Z" id="Fill-81" fill="#E9EEFB"></path>
                        <path d="M293.642376,43.4322045 L286.370036,58.1070084 C285.533774,59.7957651 283.493748,60.4821516 281.81424,59.6404065 L256.882624,47.1485225 C255.203116,46.3067773 254.520489,44.256395 255.357624,42.5676384 L262.629964,27.8928345 C263.466226,26.2049556 265.506252,25.5176913 267.184887,26.3594364 L292.117376,38.8513204 C293.796884,39.6930656 294.479511,41.7443256 293.642376,43.4322045" id="Fill-83" fill="#EE854F"></path>
                        <path d="M269.594714,24.2562081 C266.534592,24.2562081 264.054625,21.7877529 264.054625,18.7437919 L263.544898,4.94049246e-15 L262.901357,4.94049246e-15 L262.39163,18.7437919 C262.39163,21.7877529 259.911664,24.2562081 256.851542,24.2562081 L243,24.7668928 L243,25.3993359 L256.851542,25.9100206 C259.911664,25.9100206 262.39163,28.3784758 262.39163,31.4233128 L262.897836,43 L263.54842,43 L264.054625,31.4233128 C264.054625,28.3784758 266.534592,25.9100206 269.594714,25.9100206 L284,25.4159791 L284,24.7502495 L269.594714,24.2562081 Z" id="Fill-85" fill="#FFFFFF"></path>
                        <path d="M109.470955,248.979374 C108.529733,248.831102 107.875822,247.911463 108.019904,246.936222 L109.555358,236.52188 C109.69944,235.547521 110.587803,234.871472 111.529025,235.020626 C112.4711,235.168898 113.124158,236.088538 112.980076,237.063779 L111.444622,247.477238 C111.30054,248.452479 110.412177,249.128529 109.470955,248.979374" id="Fill-87" fill="#42426C"></path>
                        <path d="M255.391331,144.079648 C255.391331,144.079648 251.843239,150.265988 253.912663,160.281673 C255.197073,166.497177 258.052399,168.235539 257.165376,170.298242 C256.278353,172.36006 252.138618,172.791337 252.138618,179.724456 C252.138618,183.848978 255.095952,186.500266 254.504308,189.741025 C253.912663,192.980899 244.284917,201.068213 245.042435,216.548204 C245.634079,228.626591 252.434883,240.115508 265.443961,243.65056 C278.453925,247.185611 277.862281,222.734544 277.862281,222.734544 L274.610455,147.908993 L287.324154,139.071364 C287.324154,139.071364 291.167624,129.939442 280.523349,128.171917 C272.627959,126.861296 264.853203,133.474494 264.853203,133.474494 L255.391331,144.079648 Z" id="Fill-89" fill="#3F3848"></path>
                        <path d="M282.31917,135 C282.31917,135 292.01116,139.442598 294.066743,155.731827 C296.364626,173.942924 302.334892,177.009205 306.989691,181.498894 C313.744127,188.015296 316.676395,189.656392 314.038411,196.307849 C312.276231,200.750447 300.822061,207.265961 291.423473,205.785687 C291.423473,205.785687 281.43808,191.272609 282.024886,177.648939 C282.612573,164.025268 282.31917,135 282.31917,135" id="Fill-91" fill="#3F3848"></path>
                        <path d="M273.496653,260 C273.496653,260 255.57065,233.966427 256.00787,196.681055 L266.06392,183.664269 L265.84531,171.971223 L288.362118,168 C288.362118,168 287.391491,183.039463 291.204045,190.944844 C295.584985,200.028355 312.552603,207.693698 317,214.330935 L273.496653,260 Z" id="Fill-93" fill="#E09595"></path>
                        <path d="M404.885686,404.578379 C404.885686,404.578379 388.846929,402.221071 372.808172,415.484241 C359.880407,426.174356 338.105212,456.746846 334.022254,461.167902 C329.94017,465.588959 327.023396,469.42113 321.482926,470.305342 C317.124387,471.000332 310.109782,468.536919 308.651395,474.431072 C307.193883,480.326108 306.172925,502.725833 307.922639,513.336369 C309.672354,523.946905 311.422068,529.547499 314.921497,528.95773 C318.420926,528.367961 318.559153,522.590525 321.191598,511.567946 C323.23264,503.02116 325.565884,492.410624 331.981212,485.631376 C338.39654,478.852128 357.295205,454.783896 413.634257,429.631622 C425.518317,424.326354 435.655288,419.566644 438.713788,413.715818 C446.87883,398.094457 430.548746,381 430.548746,381 L404.885686,404.578379 Z" id="Fill-95" fill="#E09595"></path>
                        <path d="M321.560236,471.000092 C317.178432,471.700054 310.126383,469.219017 308.660211,475.155339 C307.194918,481.092552 306.16851,503.652535 307.927565,514.338983 C309.686619,525.025431 311.555614,531.556632 315.073723,530.962644 C318.591832,530.368655 319.353503,520.691186 322,509.589747 C321.413355,510.740322 316.942718,508.182698 316.942718,498.346713 C316.942718,479.311477 321.760769,470.968033 321.560236,471.000092" id="Fill-97" fill="#E9EEFB"></path>
                        <g id="Group-101" transform="translate(326.000000, 419.000000)">
                            <mask id="mask-6" fill="white">
                                <use xlink:href="#path-5"></use>
                            </mask>
                            <g id="Clip-100"></g>
                            <path d="M1,8.42013983 C1,8.42013983 10.2101372,25.0388368 13.9380498,33.0158114 C17.1379146,39.8636009 19.6395633,52.0719173 19.2009854,58.7193961 C18.7624074,65.366875 19.6816668,77.1701383 27.7532556,93.0647033 C36.3055258,109.904983 47.9278418,138.045977 50.1207316,143.807125 C52.3136214,149.568273 53.6293553,154.664674 53.6293553,158.209996 C53.6293553,161.755318 50.7785985,166.18697 50.7785985,169.732292 C50.7785985,173.277614 51.3969935,176.501198 57.3572679,178.81718 C63.0587814,181.033006 67.883139,184.135163 74.9003864,187.680485 C81.9176337,191.225807 87.6191472,191.44739 92.0049268,190.561059 C96.3907064,189.674729 101.311551,187.242638 99.6800411,184.356746 C97.9257293,181.254589 84.1105235,171.726536 78.628299,166.630135 C74.2381336,162.54947 69.6172763,157.471682 67.444561,149.789856 C65.2516712,142.034464 52.7179903,81.7276498 50.3400206,69.7985275 C48.1866028,58.9950449 44.9349858,47.2724376 43.1034842,37.8906292 C41.9947591,32.212796 41.5088148,25.1336742 39.8141495,17.7266102 C38.4957842,11.9663482 35.8669479,1.63091762e-13 35.8669479,1.63091762e-13 L1,8.42013983 Z" id="Fill-99" fill="#FFAEAE" mask="url(#mask-6)"></path>
                        </g>
                        <g id="Group-104" transform="translate(376.000000, 579.000000)">
                            <mask id="mask-8" fill="white">
                                <use xlink:href="#path-7"></use>
                            </mask>
                            <g id="Clip-103"></g>
                            <path d="M50.6746737,24.3206885 C49.2645334,21.8536897 40.1836548,15.3402814 33.6954148,10.1910303 C35.91426,11.95912 34.5856102,18.454812 22.0369555,13.8786842 C9.48918659,9.30167062 3.59352445,-0.0862120965 3.58378102,0.00059791541 C3.28882076,2.65804726 1,6.05426752 1,9.6179071 C1,13.1824325 1.62889425,16.4227491 7.6831086,18.7515605 C13.4742503,20.9802747 18.3751966,24.0983486 25.5038458,27.6619881 C32.6316092,31.2273994 38.4236366,31.4497393 42.8781566,30.5586079 C47.3344481,29.6674766 52.3328287,27.2217374 50.6746737,24.3206885" id="Fill-102" fill="#E9EEFB" mask="url(#mask-8)"></path>
                        </g>
                        <path d="M295.588285,202.075451 C292.510403,200.751064 277.966967,217.074571 272.724014,234.302193 C267.887341,250.194833 270.965224,254.609455 270.965224,254.609455 C270.965224,254.609455 283.276755,274.475255 286.354637,280.655726 C289.43252,286.836197 292.120831,292.878932 292.510403,298.755677 C293.389798,311.999544 287.683403,321.890063 287.234032,334.955579 C286.794335,347.757984 290.751613,361.00185 300.424958,379.543264 C310.098304,398.084677 304.746306,404.205109 305.261631,416.62609 C305.701329,427.221183 308.779211,431.635806 308.779211,431.635806 C308.779211,431.635806 332.08318,439.582126 365.93989,426.338259 C399.796599,413.094392 420.075449,406.543093 438.929679,392.345668 C449.48242,384.399348 453,376.89449 453,376.89449 C453,376.89449 443.577282,357.648503 413.427223,338.928739 C380.010211,318.180015 345.565186,303.756561 337.359551,290.367895 C333.84197,284.628886 326.666986,263.416626 328.5656,251.960682 C330.500269,240.291069 334.840963,230.640705 328.125902,221.94125 C321.392375,213.217957 302.874074,205.210715 295.588285,202.075451" id="Fill-105" fill="#42426C"></path>
                        <path d="M347,359 C355.191153,368.783229 369.819028,384.79215 402,403.173058 C402,403.173058 386.494471,404.062443 375.670353,412.659233 C364.90416,421.209775 362.797788,426 362.797788,426 C362.797788,426 351.388275,369.968779 347,359" id="Fill-107" fill="#2B2B51"></path>
                        <path d="M294,230 C294.225352,230.662338 300.309859,239.935065 310,240.155844 L295.577465,247 L294,230 Z" id="Fill-109" fill="#2B2B51"></path>
                        <path d="M272.891964,178.24087 C266.714331,176.917037 256,180.90095 256,193.906081 C256,203.072716 260.679732,227.600426 273.257006,248.58491 C285.835157,269.57028 287.297079,268.683587 289.345175,268.978856 C291.392393,269.275011 305.823834,266.530696 327.077873,256.269881 C346.821727,246.737928 358.887415,242.304461 365.322156,241.417768 C371.756897,240.531075 376.071588,239.201035 381.775367,233.215855 C384.944037,229.890755 386.16289,227.304271 386.16289,227.304271 C386.16289,227.304271 387.259771,225.900635 387.698524,228.782388 C388.01267,230.848384 386.842079,232.223645 388.137276,232.550835 C389.892285,232.994182 391.917566,229.93509 392.597632,225.235615 C393.196967,221.099191 393.401426,219.793978 391.208542,217.255375 C387.698524,213.19166 384.554425,211.639947 383.530377,211.1966 C382.506329,210.753253 380.386278,208.979867 376.583173,212.52664 C372.780945,216.073413 369.563136,219.989051 367.515918,223.240555 C365.468699,226.49206 363.128395,229.447408 358.374952,230.851044 C350.816127,233.084624 333.293238,235.210915 320.642254,237.649321 C312.551662,239.209015 300.020896,241.048017 297.096173,241.639441 C294.17145,242.230866 296.94963,234.693973 289.929593,216.368682 C287.805154,210.821529 285.761446,206.615056 284.299523,199.816778 C282.836723,193.019387 282.544514,180.309525 272.891964,178.24087" id="Fill-111" fill="#FFAEAE"></path>
                        <path d="M289.661331,145.353184 C292.988443,159.100009 290.251122,176.030366 279.903767,178.642718 C269.556413,181.25507 259.215997,169.132424 254.967771,155.646658 C251.932084,146.010214 256.112658,135.262951 266.460013,132.650598 C276.807367,130.038246 287.276149,135.49773 289.661331,145.353184" id="Fill-113" fill="#FFAEAE"></path>
                    </g>
                    <g id="Group-118" transform="translate(254.000000, 132.000000)">
                        <mask id="mask-10" fill="white">
                            <use xlink:href="#path-9"></use>
                        </mask>
                        <g id="Clip-117"></g>
                        <path d="M19.2284234,3.01536573e-13 C17.4650391,3.01536573e-13 15.6631452,0.216493942 13.8648335,0.667448128 C3.18064143,3.34622379 -1.13512737,14.3667536 1.99937996,24.2482198 C4.00009121,30.5570868 7.31013094,36.5748998 11.3339428,41 C22.3091963,36.9036831 31.849741,29.856401 39,20.8175544 C38.7805845,18.4073749 38.3856366,16.0061787 37.8214252,13.6921189 C35.7741442,5.28748275 27.952205,0.000898315112 19.2302145,3.01536573e-13 C19.2293189,3.01536573e-13 19.2293189,3.01536573e-13 19.2284234,3.01536573e-13" id="Fill-116" fill="url(#radialGradient-11)" mask="url(#mask-10)"></path>
                    </g>
                    <g id="Group-181" transform="translate(5.000000, 97.000000)">
                        <path d="M285,49.5527146 C281.497696,44.2179306 273.775116,40.8996949 263.329495,43.5510826 C252.883874,46.2024703 249.32028,55.5543466 249.976962,60 C246.912446,50.2195626 251.132722,39.3117076 261.578343,36.6603199 C272.023964,34.0089322 282.592166,39.5499946 285,49.5527146" id="Fill-119" fill="#FFAEAE"></path>
                        <path d="M309,120 C309,120 312.955732,124.103812 312.390385,129.08607 C311.825886,134.069208 309.565347,137 309.565347,137 C309.565347,137 314.650925,136.120674 315.780771,131.724047 C316.911464,127.327419 313.521079,123.517302 309,120" id="Fill-121" fill="#2B2B51"></path>
                        <path d="M286.829828,207.921441 C286.829828,207.921441 321.528915,209.177936 338,201.640743 L334.975469,198.49729 C333.677109,197.149463 332.541263,195.651778 331.589893,194.036159 L329.801352,191 C329.801352,191 327.010492,192.319452 313.403179,193.733784 C298.469395,195.285559 285,194.768596 285,194.768596 L285.804667,198.462708 C286.200852,200.419718 286.459997,202.639199 286.599672,204.630792 L286.829828,207.921441 Z" id="Fill-123" fill="#2B2B51"></path>
                        <path d="M300.445968,321.41996 C300.88732,332.141437 303.976778,336.608719 303.976778,336.608719 C303.976778,336.608719 311.41796,339.164898 324,338.991567 C316.175726,322.04806 307.955118,305.024141 298,289 C304.31397,303.911788 299.979019,310.066809 300.445968,321.41996" id="Fill-125" fill="#2B2B51"></path>
                        <path d="M437.41319,294 C445.266362,287.200918 448,281.393882 448,281.393882 C448,281.393882 438.590771,262.206105 408.483871,243.54296 C386.98095,230.213273 365.065305,219.503222 350,210 C380.95957,236.262379 413.580573,261.405954 437.41319,294" id="Fill-127" fill="#2B2B51"></path>
                        <path d="M221.739393,245.523601 L223.50003,245 C223.50003,245 224.989931,250.928773 227.791796,258.947473 C229.707383,264.429619 233.11287,270.359287 234,271.851325 L232.968989,272.517238 C231.474831,273.484781 229.518378,272.95044 228.66275,271.33936 C227.097928,268.392875 224.942254,263.959721 223.641358,260.40192 C222.113997,256.223854 220.802884,251.405831 220.082623,248.590022 C219.742926,247.261777 220.481065,245.898624 221.739393,245.523601" id="Fill-129" fill="#2B2B51"></path>
                        <path d="M204,87 C204,87 203.149918,90.3813455 203.007955,92.7552797 C202.866841,95.1292139 203.291882,97.7189602 203.291882,97.7189602 C203.291882,97.7189602 200.176332,100.797305 197.269903,103.257564 C195.99478,104.336625 194.588745,105.663439 193.869576,105.919824 C193.206512,106.155491 192.879231,105.861986 193.040746,105.166208 C193.577148,102.857017 195.641146,95.2008635 201.591718,88.7264976 C202.33554,87.915907 203.220475,87.0716496 204,87" id="Fill-131" fill="#E9EEFB"></path>
                        <path d="M169.668759,128.762457 L172.993986,129 L174,125.270897 L169.900773,125 L169.025615,127.923734 C168.907752,128.315843 169.209371,128.710393 169.668759,128.762457" id="Fill-133" fill="#E9EEFB"></path>
                        <path d="M212.357129,126 L212.004854,129.867027 C211.954276,130.356066 212.304776,130.792578 212.78394,130.838765 L224.667213,131.994345 C225.340705,132.05955 225.938773,131.553305 226,130.865028 L225.740896,126.905627 L212.357129,126 Z" id="Fill-135" fill="#E9EEFB"></path>
                        <path d="M121.162132,166.45394 C119.164621,170.46978 114.200571,172.143703 110.130121,170.172991 L77.6073388,154.430061 C73.5377759,152.460225 71.8410895,147.561899 73.8377132,143.54606 C75.8352243,139.53022 80.800162,137.856297 84.8706122,139.827009 L117.392507,155.569939 C121.462957,157.539775 123.158756,162.438101 121.162132,166.45394" id="Fill-137" fill="#42426C"></path>
                        <path d="M118.336176,165.37733 C116.754301,168.577649 112.822037,169.911188 109.597615,168.341138 L76.6499534,152.295908 C73.4255319,150.725858 72.0819496,146.822988 73.6638243,143.62267 C75.2456989,140.422351 79.1779632,139.088812 82.4023848,140.658862 L115.350047,156.704092 C118.574468,158.274142 119.91805,162.177012 118.336176,165.37733" id="Fill-139" fill="#E9EEFB"></path>
                        <path d="M83,146.5 C83,148.432848 81.4328485,150 79.5,150 C77.5671515,150 76,148.432848 76,146.5 C76,144.567152 77.5671515,143 79.5,143 C81.4328485,143 83,144.567152 83,146.5" id="Fill-141" fill="#42426C"></path>
                        <path d="M80.860141,147.197423 C80.5220667,147.901901 79.6729701,148.199444 78.9742253,147.85902 L40.7970357,128.701603 C40.0974218,128.361179 39.8019328,127.507054 40.140007,126.802577 C40.4780813,126.098099 41.3263088,125.800556 42.0259227,126.14098 L80.2031123,145.298397 C80.9018571,145.638821 81.1982152,146.492946 80.860141,147.197423" id="Fill-143" fill="#42426C"></path>
                        <path d="M44.8710968,129.204633 C44.559835,129.902782 43.7788798,130.197653 43.1347518,129.860286 L40.7334747,128.678202 C40.0893467,128.339968 39.8180928,127.493517 40.1285545,126.795367 C40.4398163,126.097218 41.2207715,125.802347 41.8648995,126.139714 L44.2661766,127.322665 C44.9103046,127.660032 45.1823587,128.506483 44.8710968,129.204633" id="Fill-145" fill="#2B2B51"></path>
                        <polygon id="Fill-147" fill="#3F3848" points="400 126.029619 380 133 381.573034 130.472168 399.17573 124"></polygon>
                        <path d="M26,69.6047012 C26,69.6047012 32.6583738,71.4065603 36.1706375,70.9150548 C39.1341099,70.5012072 41,66 41,66 L26,69.6047012 Z" id="Fill-149" fill="#E9EEFB"></path>
                        <path d="M79,51.3129485 C79.4357171,51.4239016 112.332357,63.8506475 137.059302,66.957334 C139.546375,67.2697779 141.198614,65.8478032 140.980756,63.2958821 C140.556367,58.3207456 137.27716,48.8719805 125.186011,44.7667162 C113.879153,40.9277394 110.153772,39.3300149 104.053732,37 L79,51.3129485 Z" id="Fill-151" fill="#E9EEFB"></path>
                        <path d="M3.95045108e-13,56.9288724 C3.95045108e-13,56.9288724 10.2607486,71 20.6674889,71 C31.0751086,71 65.0806033,61.3724799 85.7480921,49.9675168 C106.415581,38.561665 125.763868,21.9727893 127.522804,17.9735425 C129.281739,13.9742958 126.063767,9.59645361 119.754466,9.08632746 C108.761121,8.19760596 98.2075098,14.27024 86.7744309,22.7130943 C75.3413519,31.1559487 66.106942,36.6366942 54.8207341,43.893994 C43.8133175,50.9726608 33.1269065,57.9660104 26.6777705,57.6691774 C20.2277551,57.3732331 15.3906832,54.1142914 12.8991515,52.7812091 C10.4076197,51.4481268 7.820226,51.2988216 5.12993458,52.9296256 C2.19866903,54.7070686 3.95045108e-13,56.9288724 3.95045108e-13,56.9288724" id="Fill-153" fill="#FFFFFF"></path>
                        <path d="M98.8917771,21.880822 C102.37768,23.0651444 114.306242,15.1620702 123,9.73605185 C122.059047,9.40990769 121.00997,9.18306441 119.853662,9.08831862 C112.208087,8.46518286 104.77072,11.1873022 97.1135287,15.7414772 C96.9937874,18.1420075 96.5460977,21.083682 98.8917771,21.880822" id="Fill-155" fill="#E9EEFB"></path>
                        <path d="M20.2511791,65.0642815 C17.5867689,66.0866652 15.7656401,66.335903 13.5228705,65.4881553 C9.21765013,63.8604797 7.39293284,61.6732907 7.09329883,60.4016692 C6.79456192,59.1300477 7.09329883,58 9.78462227,58 C12.4759457,58 22.4939487,59.6954954 24.4379813,59.8362215 C26.3811168,59.9777953 27.8999203,61.1409052 26.3811168,62.0971646 C24.1383473,63.5103599 23.0232423,64.0003581 20.2511791,65.0642815" id="Fill-157" fill="#E9EEFB"></path>
                        <path d="M62.915513,42.7476842 C62.915513,42.7476842 30.8865623,26.1204113 11.7862603,6.22771908 C11.7862603,6.22771908 8.51663271,2.33077158 15.3124156,0.883333935 C22.0799893,-0.557868591 39.7751184,-1.49224526 56.4511887,8.60329827 C62.676616,12.3719805 68.1730106,16.2439876 72.9059926,19.2920686 C80.3990728,24.1162669 84.3659976,26.6405981 85.8355228,27.6052596 C85.8355228,27.6052596 86.4164569,28.4086989 85.3947534,29.460652 C83.1477109,31.77388 76.8455897,36.976639 65.2665771,42.5250015 C64.5252029,42.8795124 63.6498348,43.2669803 62.915513,42.7476842" id="Fill-159" fill="#E9EEFB"></path>
                        <polygon id="Fill-161" fill="#24478D" points="383.184249 133.456045 414.557093 115 415 117.259887 383 135"></polygon>
                        <polygon id="Fill-163" fill="#24478D" points="382 130.692308 413.56389 115 414 117.179487 382.43611 132"></polygon>
                        <polygon id="Fill-165" fill="#3F3848" points="407 127.26067 380 133 381.536585 130.704268 407 125"></polygon>
                        <polygon id="Fill-167" fill="#EE854F" points="379 133.973203 407 146 405.721658 142.471545 380.439862 132"></polygon>
                        <polygon id="Fill-169" fill="#EE854F" points="380 133.704 402 139 401.626192 136.333333 381.158178 132"></polygon>
                        <path d="M338.12834,243.427394 L339.772894,227.319458 C339.817974,226.885698 340.446494,226.897113 340.475969,227.332629 L341.809298,247.287328 C342.212417,253.313425 342.136995,259.190254 344.42394,264.768543 L348,270 L343.015189,265.317328 L339.211128,253.606696 C338.146545,250.328035 337.778103,246.859714 338.12834,243.427394" id="Fill-171" fill="#2B2B51"></path>
                        <path d="M375,231 C375,231 409.393701,260.773414 423.210268,304 C423.210268,304 425.561386,302.529414 427.362205,301.426695 C429.163024,300.323976 431,298.890441 431,298.890441 C431,298.890441 422.401575,278.196375 410.055118,263.640483 C397.708661,249.084592 375,231 375,231" id="Fill-173" fill="#2B2B51"></path>
                        <path d="M297.685075,284.137177 C297.685075,284.137177 305.298174,293.51846 319.665409,310.185038 C334.032645,326.851615 345,335.851567 345,335.851567 C345,335.851567 341.088602,336.740451 338.675784,337.14756 C336.262966,337.555558 332.424392,338 332.424392,338 C332.424392,338 325.039413,328.073831 315.717161,314.185016 C306.394909,300.296202 297.06827,284.614508 297.06827,284.614508 C296.805054,284.204732 297.365705,283.772734 297.685075,284.137177" id="Fill-175" fill="#2B2B51"></path>
                        <path d="M349,288 C349,288 356.206897,311.862364 368,322.025964 L353.29531,333 L349,288 Z" id="Fill-177" fill="#42426C"></path>
                        <path d="M192.840327,142.585605 C192.625099,143.314029 191.872715,143.006531 192.018632,142.248864 C193.660198,133.687665 197.095629,119.44263 197.762287,115.932547 C198.198214,113.645367 200.095134,110.850415 201.418418,110.052871 C201.776827,109.835761 202.11426,110.324922 201.962871,110.835351 L192.840327,142.585605 Z" id="Fill-179" fill="#E9EEFB"></path>
                    </g>
                    <g id="Group-184" transform="translate(213.000000, 122.000000)">
                        <mask id="mask-13" fill="white">
                            <use xlink:href="#path-12"></use>
                        </mask>
                        <g id="Clip-183"></g>
                        <path d="M1.75970349e-13,18.1708708 C7.76540884,29.6895041 18.8253656,38.7595367 31.810119,44 C34.9948777,38.8933208 37.3605739,32.6397952 38.4889631,26.4091536 C41.2999156,10.8928407 41.9560369,2.92740693 24.2573178,0.444480006 C22.1530245,0.149626933 20.2229997,3.54438701e-13 18.4498167,3.54438701e-13 C7.44126924,3.54438701e-13 2.52340933,5.76591787 1.75970349e-13,18.1708708" id="Fill-182" fill="url(#radialGradient-14)" mask="url(#mask-13)"></path>
                    </g>
                    <path d="M218,129 C218,129 216.754717,136.888889 215.735849,139.666667 C215.107321,141.381333 212.792453,144 212.792453,144 L212,137.777778 L218,129 Z" id="Fill-185" fill="#303030"></path>
                </g>
            </g>
        </g>
    </g>
</svg>