<?xml version="1.0" encoding="UTF-8"?>
<svg width="612px" height="691px" viewBox="0 0 612 691" version="1.1" xmlns="http://www.w3.org/2000/svg" xmlns:xlink="http://www.w3.org/1999/xlink">
    <!-- Generator: Sketch 51.3 (57544) - http://www.bohemiancoding.com/sketch -->
    <title>Кредитная Карта БКС Платинум</title>
    <desc>Created with Sketch.</desc>
    <defs>
        <polygon id="path-1" points="0.0356 0.7036 171.958 0.7036 171.958 123.9566 0.0356 123.9566"></polygon>
        <polygon id="path-3" points="0.8559 0.6418 172.958 0.6418 172.958 141.9268 0.8559 141.9268"></polygon>
        <polygon id="path-5" points="0.9994 0.5048 113.864169 0.5048 113.864169 216 0.9994 216"></polygon>
        <polygon id="path-7" points="0.5825 0.00412501207 57.0307822 0.00412501207 57.0307822 35 0.5825 35"></polygon>
        <path d="M21.238,0.262 C19.269,0.262 17.257,0.503 15.249,1.005 C3.319,3.987 -1.5,16.255 2,27.255 C4.234,34.278 7.93,40.977 12.423,45.903 C24.678,41.343 35.331,33.498 43.315,23.436 C43.07,20.753 42.629,18.08 41.999,15.504 C39.713,6.148 30.979,0.263 21.24,0.262 C21.239,0.262 21.239,0.262 21.238,0.262" id="path-9"></path>
        <radialGradient cx="-31.151776%" cy="-45.8445834%" fx="-31.151776%" fy="-45.8445834%" r="167.330842%" gradientTransform="translate(-0.311518,-0.458446),scale(1.000000,0.929667),translate(0.311518,0.458446)" id="radialGradient-11">
            <stop stop-color="#FFE8E8" offset="0%"></stop>
            <stop stop-color="#FDACAC" offset="100%"></stop>
        </radialGradient>
        <path d="M0.494,20.978 C9.406,34.065 22.099,44.37 37.001,50.324 C40.656,44.522 43.371,37.417 44.666,30.338 C47.892,12.709 48.645,3.659 28.333,0.838 C25.918,0.503 23.703,0.333 21.668,0.333 C9.034,0.333 3.39,6.884 0.494,20.978" id="path-12"></path>
        <radialGradient cx="144.146573%" cy="-48.6652383%" fx="144.146573%" fy="-48.6652383%" r="174.2686%" gradientTransform="translate(1.441466,-0.486652),scale(1.000000,0.918288),translate(-1.441466,0.486652)" id="radialGradient-14">
            <stop stop-color="#FFE8E8" offset="0%"></stop>
            <stop stop-color="#FDACAC" offset="100%"></stop>
        </radialGradient>
    </defs>
    <g id="Частным" stroke="none" stroke-width="1" fill="none" fill-rule="evenodd">
        <g id="-Мобильный-банк.png-БКС-Платинум.png-Доходный-фунт.png-Кредит-Онлайн.png-Рефенансирование.png-Цифровой-Signature.png-Цифровой-Visa-Platinum.png-More-Signature.png-more-visa-platinum.png" transform="translate(-2643.000000, -9158.000000)">
            <g id="Кредитная-Карта-БКС-Платинум" transform="translate(2565.000000, 9120.000000)">
                <rect id="Rectangle-8-Copy-6" fill-rule="nonzero" x="0" y="0" width="767" height="767"></rect>
                <g id="Group-187" transform="translate(78.000000, 38.000000)">
                    <g id="Group-115" transform="translate(0.000000, 0.473000)">
                        <path d="M424.4994,247.0883 C424.4994,247.0883 426.2494,242.0883 425.9994,237.7553 C425.8544,235.2463 429.4164,237.8383 429.8324,241.1713 C430.2494,244.5053 424.4994,247.0883 424.4994,247.0883" id="Fill-1" fill="#E09595"></path>
                        <path d="M360.6664,221.8383 C360.6664,221.8383 381.6664,201.8383 387.9994,196.1713 C387.9994,196.1713 368.9994,181.1713 350.3324,170.8383 L350.6664,156.8383 C350.6664,156.8383 369.6664,163.5053 386.3324,170.5053 C403.0594,177.5293 413.3324,183.8383 416.3324,187.8383 C418.9334,191.3043 417.5044,195.9003 415.6664,199.8383 C413.3324,204.8383 399.9994,225.8383 365.3324,252.1713 L336.9994,232.5053 L360.6664,221.8383 Z" id="Fill-3" fill="#E09595"></path>
                        <path d="M346.9994,182.8383 L373.6664,211.5053 C373.6664,211.5053 350.9994,223.5053 341.6664,207.8383 C332.3324,192.1713 346.9994,182.8383 346.9994,182.8383" id="Fill-5" fill="#2B2B51"></path>
                        <path d="M288.3329,135.5048 C305.6659,126.8378 341.5829,125.7268 351.9999,153.5048 C359.9999,174.8378 342.2929,187.0878 344.3329,194.8378 C345.9999,201.1718 373.6659,206.8378 374.9999,214.1718 C376.1739,220.6308 362.9999,234.5048 350.3329,237.1718 L297.6659,242.5048 C297.6659,242.5048 267.0489,224.8318 262.9999,192.8378 C259.6659,166.5048 266.2709,146.5358 288.3329,135.5048" id="Fill-7" fill="#E9EEFB"></path>
                        <path d="M303.9994,156.5048 C311.9994,169.5048 320.9994,179.5048 332.9994,188.5048 C336.5384,190.9828 340.3304,192.8258 344.2374,194.3168 C343.0724,186.5408 359.8234,174.3678 351.9994,153.5048 C345.5524,136.3118 329.3354,130.1928 313.8034,130.0758 C302.6974,134.5548 294.7614,143.0028 303.9994,156.5048" id="Fill-9" fill="#E9EEFB"></path>
                        <path d="M374.9994,214.1713 C373.6664,206.8383 345.9994,201.1713 344.3324,194.8383 C344.2874,194.6673 344.2644,194.4913 344.2374,194.3163 C340.3304,192.8253 336.5384,190.9823 332.9994,188.5043 C320.9994,179.5043 311.6664,171.1713 303.6664,158.1713 C296.9994,148.5043 302.6974,134.5543 313.8034,130.0763 C304.2414,130.0043 294.9374,132.2023 288.3324,135.5043 C266.2704,146.5363 259.6664,166.5043 262.9994,192.8383 C267.0494,224.8323 297.6664,242.5043 297.6664,242.5043 L350.3324,237.1713 C362.9994,234.5043 376.1744,220.6313 374.9994,214.1713" id="Fill-11" fill="#DBDFE4"></path>
                        <polygon id="Fill-13" fill="#EE854F" points="434.4994 238.1298 449.8744 225.5048 450.7494 227.5048 436.1244 239.0048"></polygon>
                        <polygon id="Fill-15" fill="#2B2B51" points="454.7592 205.2972 468.0662 306.7522 574.3702 323.5042 588.6662 300.8382 560.7812 214.2652"></polygon>
                        <polygon id="Fill-17" fill="#42426C" points="458.0053 202.3641 471.3123 303.8201 588.6663 300.8381 565.0663 193.3131"></polygon>
                        <g id="Group-21" transform="translate(440.000000, 174.000000)">
                            <mask id="mask-2" fill="white">
                                <use xlink:href="#path-1"></use>
                            </mask>
                            <g id="Clip-20"></g>
                            <polygon id="Fill-19" fill="#24478D" mask="url(#mask-2)" points="0.0356 27.7826 39.7446 123.9566 164.9996 102.8386 171.9586 73.8886 112.1326 0.7036"></polygon>
                        </g>
                        <g id="Group-24" transform="translate(439.000000, 149.000000)">
                            <mask id="mask-4" fill="white">
                                <use xlink:href="#path-3"></use>
                            </mask>
                            <g id="Clip-23"></g>
                            <polygon id="Fill-22" fill="#2474CD" mask="url(#mask-4)" points="0.8559 45.7528 40.5659 141.9268 172.9589 98.8888 123.2989 0.6418"></polygon>
                        </g>
                        <path d="M460.7494,226.3798 C460.7494,227.5538 459.7984,228.5048 458.6244,228.5048 C457.4504,228.5048 456.4994,227.5538 456.4994,226.3798 C456.4994,225.2058 457.4504,224.2548 458.6244,224.2548 C459.7984,224.2548 460.7494,225.2058 460.7494,226.3798" id="Fill-25" fill="#3F3848"></path>
                        <path d="M471.2494,251.3798 C471.2494,252.5538 470.2984,253.5048 469.1244,253.5048 C467.9504,253.5048 466.9994,252.5538 466.9994,251.3798 C466.9994,250.2058 467.9504,249.2548 469.1244,249.2548 C470.2984,249.2548 471.2494,250.2058 471.2494,251.3798" id="Fill-27" fill="#3F3848"></path>
                        <polygon id="Fill-29" fill="#2B2B51" points="450.9945 205.142 523.4775 169.539 562.1625 222.693 566.2495 239.755 489.0165 271.129"></polygon>
                        <path d="M449.3568,202.6508 L517.2138,153.4978 C517.2138,153.4978 525.4998,165.2548 539.4998,186.2548 C552.3478,205.5278 562.1628,222.6928 562.1628,222.6928 L487.3788,268.6378 L449.3568,202.6508 Z" id="Fill-31" fill="#42426C"></path>
                        <polygon id="Fill-33" fill="#3F3848" points="434.2494 238.5883 457.5824 225.5883 458.5824 227.5883 435.4164 240.1713"></polygon>
                        <polygon id="Fill-35" fill="#3F3848" points="434.2494 238.5883 452.3744 231.7553 452.9994 233.1303 435.4164 240.1713"></polygon>
                        <path d="M467.9994,220.0673 C467.9994,221.0333 467.2164,221.8173 466.2494,221.8173 C465.2824,221.8173 464.4994,221.0333 464.4994,220.0673 C464.4994,219.1013 465.2824,218.3173 466.2494,218.3173 C467.2164,218.3173 467.9994,219.1013 467.9994,220.0673" id="Fill-37" fill="#24478D"></path>
                        <path d="M479.4994,240.2548 C479.4994,241.2208 478.7164,242.0048 477.7494,242.0048 C476.7824,242.0048 475.9994,241.2208 475.9994,240.2548 C475.9994,239.2888 476.7824,238.5048 477.7494,238.5048 C478.7164,238.5048 479.4994,239.2888 479.4994,240.2548" id="Fill-39" fill="#24478D"></path>
                        <path d="M465.7494,219.0048 C465.7494,219.0048 441.2494,231.2548 434.2494,236.5048 C427.2494,241.7548 425.4994,245.7548 425.4994,245.7548 L430.4994,245.0048 C430.4994,245.0048 433.7684,238.2808 438.6874,235.5668 C453.1864,227.5678 466.4994,221.0048 466.4994,221.0048 L465.7494,219.0048 Z" id="Fill-41" fill="#24478D"></path>
                        <path d="M98.6659,283.1713 C98.6659,283.1713 95.3329,286.5043 96.6659,288.8383 C98.9639,292.8593 104.6659,297.1713 110.6659,301.5043 C118.7769,307.3633 138.9989,301.8383 138.9989,301.8383 L98.6659,283.1713 Z" id="Fill-43" fill="#E09595"></path>
                        <path d="M114.9994,275.0048 C113.7494,274.2548 110.4994,269.0048 110.7494,264.5048 C110.9994,260.0048 113.5824,260.3378 114.8324,261.8378 C116.0824,263.3378 118.7494,267.7548 121.2494,269.2548 C123.7494,270.7548 126.8324,273.4218 131.3324,273.1718 C135.8324,272.9218 139.9994,275.0048 141.9994,277.0048 C143.9994,279.0048 145.2494,282.2548 146.7494,282.5048 C148.2494,282.7548 159.8324,285.3378 165.3324,284.8378 C170.8324,284.3378 179.9994,282.9218 186.9994,283.6718 C186.9994,283.6718 190.1654,275.6718 193.6654,271.6718 C197.1654,267.6718 197.0764,264.3238 197.4994,261.5048 C197.9994,258.1718 198.4994,255.6718 199.1654,252.3378 L206.4994,253.2548 L201.9994,307.2548 L176.2494,311.2548 L114.9994,275.0048 Z" id="Fill-45" fill="#E09595"></path>
                        <path d="M4.3329,550.5048 C2.5379,548.2938 -2.6331,554.9828 1.6659,563.5048 C5.9819,572.0598 19.7239,596.3008 22.7499,601.8798 C26.7499,609.2548 31.6659,611.4628 37.9999,608.1298 C42.0699,605.9868 46.8749,600.5048 50.1869,597.8428 C52.5329,595.9568 55.0229,594.3388 57.1659,592.6718 L41.9999,574.8378 C39.3329,576.8378 36.2019,579.3758 32.6659,576.8378 C23.0869,569.9618 8.6659,555.8438 4.3329,550.5048" id="Fill-47" fill="#E9EEFB"></path>
                        <path d="M41.9994,574.8378 C39.4024,576.7848 36.3364,579.2688 32.9414,577.0168 C32.4994,584.5048 44.5824,596.8798 49.7074,598.2548 C53.0824,595.6718 54.9574,594.3378 57.1664,592.6718 L41.9994,574.8378 Z" id="Fill-49" fill="#FFAEAE"></path>
                        <path d="M179.3329,658.1718 C179.3329,658.1718 176.5829,663.6718 165.2499,666.3378 C153.9159,669.0048 130.5829,675.5048 129.7499,679.5048 C128.5089,685.4598 147.6659,688.9218 164.9999,687.2548 C182.3329,685.5878 196.6709,684.8598 198.4999,682.5048 C201.1259,679.1208 200.2129,673.0978 201.8749,669.6298 C202.9539,667.3768 203.3329,666.8378 203.3329,666.8378 L179.3329,658.1718 Z" id="Fill-51" fill="#E9EEFB"></path>
                        <path d="M173.7494,667.0878 C177.9164,671.5048 191.5894,672.3028 201.7474,670.3198 C202.7284,668.2548 203.3324,666.8378 203.3324,666.8378 L179.3324,658.1718 C179.3324,658.1718 178.1684,660.4658 174.3024,662.8098 C172.6664,663.8378 172.4454,665.7058 173.7494,667.0878" id="Fill-53" fill="#FFAEAE"></path>
                        <path d="M41.9994,574.8378 L59.3324,596.1718 C59.3324,596.1718 84.8894,579.4358 113.6664,552.8378 C123.3414,543.8958 130.5814,532.8238 141.0894,522.2578 C168.2694,494.9298 196.1974,463.3358 214.3324,433.5048 L222.3324,374.8378 L185.9994,365.1718 C185.9994,365.1718 174.6654,383.1718 144.9994,429.5048 C115.3324,475.8378 106.6664,494.8378 90.6664,517.8378 C74.6664,540.8378 41.9994,574.8378 41.9994,574.8378" id="Fill-55" fill="#2B2B51"></path>
                        <path d="M185.9994,365.1718 C185.9994,365.1718 195.4994,393.5048 198.9994,401.5048 C202.6784,409.9138 208.9994,416.1718 208.9994,416.1718 C208.9994,416.1718 202.9994,479.5048 201.6664,504.8378 C200.3324,530.1718 200.0784,543.2448 197.3324,567.1718 C194.9994,587.5048 179.3324,658.1718 179.3324,658.1718 L203.3324,666.8378 C203.3324,666.8378 225.6664,619.5048 231.9994,600.1718 C238.2474,581.0998 238.3324,561.5048 240.9994,549.5048 C243.6664,537.5048 256.6664,500.5048 267.9994,462.8378 C279.3714,425.0428 284.3324,382.1718 284.3324,382.1718 L185.9994,365.1718 Z" id="Fill-57" fill="#42426C"></path>
                        <path d="M239.3744,164.7548 C239.3744,164.7548 238.9084,156.9048 240.9994,145.7548 C242.1244,139.7548 243.5014,133.4968 252.1244,128.5048 C259.2494,124.3798 278.7034,119.9108 286.8744,123.8798 C295.6244,128.1298 298.1244,134.2548 296.7494,141.0048 C295.5314,146.9868 292.5854,157.0368 291.7494,159.8798 C290.4994,164.1298 288.6244,171.7548 286.3744,171.3798 C284.1244,171.0048 239.3744,164.7548 239.3744,164.7548" id="Fill-59" fill="#303030"></path>
                        <path d="M150.3266,292.9686 C149.4836,292.2356 149.3926,290.9456 150.1266,290.1026 L157.9586,281.0946 C158.6926,280.2516 159.9816,280.1616 160.8256,280.8946 C161.6686,281.6286 161.7586,282.9176 161.0256,283.7606 L153.1926,292.7686 C152.4596,293.6116 151.1696,293.7016 150.3266,292.9686" id="Fill-61" fill="#42426C"></path>
                        <path d="M235.7494,213.1923 C235.7494,213.1923 242.5414,200.5463 242.8744,179.3793 C242.8744,179.3793 264.2494,184.1303 279.3744,188.1923 C276.3744,196.8803 276.9994,206.5673 276.9994,206.5673 L236.3114,226.6923 L235.7494,213.1923 Z" id="Fill-63" fill="#E09595"></path>
                        <path d="M198.6659,254.5048 L202.3329,254.8378 C202.3329,254.8378 202.9989,268.1718 202.9989,274.5048 C202.9989,280.8378 200.3329,293.1718 200.6659,307.5048 C200.9989,321.8378 198.6659,331.8378 195.3329,340.1718 C191.9989,348.5048 184.9989,365.8378 184.9989,365.8378 C184.9989,365.8378 201.7589,372.3178 219.9989,375.8378 C257.9989,383.1718 288.3329,384.1718 288.3329,384.1718 C288.3329,384.1718 301.3329,319.1718 299.6659,278.1718 C298.1899,241.8668 300.3329,211.1718 300.3329,211.1718 C300.3329,211.1718 284.3329,206.5048 275.3329,207.1718 C241.1659,220.9218 237.2489,219.7548 237.2489,219.7548 L235.9989,210.1718 C235.9989,210.1718 221.6659,211.1718 214.6659,216.1718 C209.1009,220.1468 205.3569,225.4158 202.9989,234.1718 C200.6659,242.8378 198.6659,254.5048 198.6659,254.5048" id="Fill-65" fill="#FFFFFF"></path>
                        <path d="M214.3329,324.1713 C214.3329,324.1713 269.0249,338.9923 281.6249,344.5043 C285.6249,346.2543 290.6249,371.7543 290.6249,371.7543 C290.6249,371.7543 294.9999,345.6293 296.8749,330.3793 C285.1249,330.1293 214.3329,324.1713 214.3329,324.1713" id="Fill-67" fill="#DBDFE4"></path>
                        <path d="M178.8124,314.6122 C176.5624,319.1992 170.9674,321.1112 166.3804,318.8602 L125.2364,298.6732 C120.6494,296.4232 118.7384,290.8282 120.9884,286.2412 C123.2394,281.6542 128.8334,279.7422 133.4204,281.9932 L174.5644,302.1802 C179.1514,304.4312 181.0624,310.0252 178.8124,314.6122" id="Fill-69" fill="#2B2B51"></path>
                        <path d="M265.8744,269.6298 L263.9994,267.2548 C263.9994,267.2548 257.4994,296.2548 254.2494,297.0048 C243.6144,299.4588 224.2494,304.7548 224.2494,304.7548 L270.6664,304.1718 L265.8744,269.6298 Z" id="Fill-71" fill="#DBDFE4"></path>
                        <path d="M237.2494,219.7548 C237.2494,219.7548 237.4994,222.7548 238.1664,226.5878 C238.8324,230.4218 239.8194,233.2228 239.8194,233.2228 C239.9164,233.7768 240.4654,234.1298 241.0074,233.9768 C244.4294,233.0158 255.5494,229.7438 258.4994,227.0048 C261.9994,223.7548 273.9164,208.4218 278.4164,207.1718 C278.4164,207.1718 278.1664,205.3378 277.9994,204.0878 C277.9104,203.4218 276.9164,203.0878 276.9164,203.0878 C276.9164,203.0878 268.8324,208.9218 256.5824,213.6718 C244.3324,218.4218 237.2494,219.7548 237.2494,219.7548" id="Fill-73" fill="#E9EEFB"></path>
                        <path d="M287.6659,168.3383 C284.4409,185.9673 272.4029,203.7623 258.9989,201.1713 C245.1879,198.5013 239.9409,178.3003 243.1659,160.6713 C246.3919,143.0423 253.3329,136.3383 271.3329,138.8383 C291.6449,141.6593 290.8919,150.7093 287.6659,168.3383" id="Fill-75" fill="#FFAEAE"></path>
                        <path d="M243.4994,166.0048 C244.1114,171.7368 244.8074,177.5178 242.7494,177.7548 C239.4994,178.1298 236.8614,170.6118 236.2494,164.8798 C235.6374,159.1478 236.7064,157.1588 238.7664,156.9388 C240.8254,156.7188 242.8874,160.2728 243.4994,166.0048" id="Fill-77" fill="#FFAEAE"></path>
                        <path d="M265.7494,269.0048 C265.7494,269.0048 265.5184,278.6578 265.7494,286.5048 C265.9994,295.0048 267.7494,300.5048 267.7494,300.5048 C267.7494,300.5048 244.7494,302.5048 230.4994,303.7548 C216.2494,305.0048 202.9994,302.5048 199.2494,301.2548 C195.4994,300.0048 195.0794,297.7808 189.7494,296.0048 C185.2494,294.5048 179.9994,293.2548 177.7494,292.5048 C175.4994,291.7548 170.4994,292.7548 164.2494,290.7548 C161.9904,290.0318 156.7494,288.5048 156.4994,289.2548 C155.7834,291.4018 156.0474,293.7238 161.4994,296.2548 C168.4994,299.5048 175.2494,302.5048 175.2494,302.5048 C175.2494,302.5048 145.9994,308.7548 142.7494,309.2548 C140.6384,309.5798 141.3004,313.3498 144.2494,314.0048 C148.7494,315.0048 150.4994,315.5048 150.4994,315.5048 C150.4994,315.5048 155.4994,322.2548 159.2494,324.0048 C162.9994,325.7548 165.8384,326.0268 168.7494,326.7548 C171.7494,327.5048 173.7494,327.7548 180.2494,327.2548 C188.2884,326.6368 200.7494,323.7548 206.4994,324.2548 C212.2494,324.7548 226.9784,328.4398 239.6664,330.5048 C253.9994,332.8378 266.1664,334.4908 278.9994,334.8378 C291.3324,335.1718 294.8324,334.8378 299.3324,331.8378 C303.8324,328.8378 305.6664,324.5048 305.9164,319.0048 C306.1664,313.5048 308.2494,301.7548 306.9994,286.7548 C305.7494,271.7548 304.2494,265.7548 304.2494,265.7548 L265.7494,269.0048 Z" id="Fill-79" fill="#FFAEAE"></path>
                        <path d="M263.2494,263.5048 L263.9524,268.4218 C264.0724,269.1268 264.7164,269.6178 265.4274,269.5488 L289.8324,267.1718 L287.1664,261.3378 L263.2494,263.5048 Z" id="Fill-81" fill="#E9EEFB"></path>
                        <path d="M334.3275,48.7802 L325.9965,65.4992 C325.0385,67.4232 322.7015,68.2052 320.7775,67.2462 L292.2165,53.0142 C290.2925,52.0552 289.5105,49.7192 290.4695,47.7952 L298.8005,31.0762 C299.7585,29.1532 302.0955,28.3702 304.0185,29.3292 L332.5805,43.5612 C334.5045,44.5202 335.2865,46.8572 334.3275,48.7802" id="Fill-83" fill="#EE854F"></path>
                        <path d="M307.6361,28.1068 C304.1601,28.1068 301.3431,25.2888 301.3431,21.8138 L300.7641,0.4158 L300.0331,0.4158 L299.4541,21.8138 C299.4541,25.2888 296.6371,28.1068 293.1611,28.1068 L277.4271,28.6898 L277.4271,29.4118 L293.1611,29.9948 C296.6371,29.9948 299.4541,32.8128 299.4541,36.2888 L300.0291,49.5048 L300.7681,49.5048 L301.3431,36.2888 C301.3431,32.8128 304.1601,29.9948 307.6361,29.9948 L323.9991,29.4308 L323.9991,28.6708 L307.6361,28.1068 Z" id="Fill-85" fill="#FFFFFF"></path>
                        <path d="M124.7021,281.5067 C123.5981,281.3387 122.8311,280.2967 123.0001,279.1917 L124.8011,267.3917 C124.9701,266.2877 126.0121,265.5217 127.1161,265.6907 C128.2211,265.8587 128.9871,266.9007 128.8181,268.0057 L127.0171,279.8047 C126.8481,280.9097 125.8061,281.6757 124.7021,281.5067" id="Fill-87" fill="#42426C"></path>
                        <path d="M290.9994,163.1713 C290.9994,163.1713 286.9994,170.1713 289.3324,181.5043 C290.7804,188.5373 293.9994,190.5043 292.9994,192.8383 C291.9994,195.1713 287.3324,195.6593 287.3324,203.5043 C287.3324,208.1713 290.6664,211.1713 289.9994,214.8383 C289.3324,218.5043 278.4784,227.6553 279.3324,245.1713 C279.9994,258.8383 287.6664,271.8383 302.3324,275.8383 C316.9994,279.8383 316.3324,252.1713 316.3324,252.1713 L312.6664,167.5043 L326.9994,157.5043 C326.9994,157.5043 331.3324,147.1713 319.3324,145.1713 C310.4314,143.6883 301.6664,151.1713 301.6664,151.1713 L290.9994,163.1713 Z" id="Fill-89" fill="#3F3848"></path>
                        <path d="M321.6664,152.5048 C321.6664,152.5048 332.6664,157.5048 334.9994,175.8378 C337.6074,196.3338 344.3834,199.7848 349.6664,204.8378 C357.3324,212.1718 360.6604,214.0188 357.6664,221.5048 C355.6664,226.5048 342.6664,233.8378 331.9994,232.1718 C331.9994,232.1718 320.6664,215.8378 321.3324,200.5048 C321.9994,185.1718 321.6664,152.5048 321.6664,152.5048" id="Fill-91" fill="#3F3848"></path>
                        <path d="M312.2494,294.2548 C312.2494,294.2548 291.7494,264.7548 292.2494,222.5048 L303.7494,207.7548 L303.4994,194.5048 L329.2494,190.0048 C329.2494,190.0048 328.1394,207.0468 332.4994,216.0048 C337.5094,226.2978 356.9134,234.9838 361.9994,242.5048 L312.2494,294.2548 Z" id="Fill-93" fill="#E09595"></path>
                        <path d="M461.3324,457.8378 C461.3324,457.8378 442.9994,455.1718 424.6664,470.1718 C409.8894,482.2618 384.9994,516.8378 380.3324,521.8378 C375.6664,526.8378 372.3324,531.1718 365.9994,532.1718 C361.0174,532.9578 352.9994,530.1718 351.3324,536.8378 C349.6664,543.5048 348.4994,568.8378 350.4994,580.8378 C352.4994,592.8378 354.4994,599.1718 358.4994,598.5048 C362.4994,597.8378 362.6574,591.3038 365.6664,578.8378 C367.9994,569.1718 370.6664,557.1718 377.9994,549.5048 C385.3324,541.8378 406.9344,514.6178 471.3324,486.1718 C484.9164,480.1718 496.5034,474.7888 499.9994,468.1718 C509.3324,450.5048 490.6664,431.1718 490.6664,431.1718 L461.3324,457.8378 Z" id="Fill-95" fill="#E09595"></path>
                        <path d="M365.9994,532.1718 C361.0174,532.9578 352.9994,530.1718 351.3324,536.8378 C349.6664,543.5048 348.4994,568.8378 350.4994,580.8378 C352.4994,592.8378 354.6244,600.1718 358.6244,599.5048 C362.6244,598.8378 363.4904,587.9708 366.4994,575.5048 C365.8324,576.7968 360.7494,573.9248 360.7494,562.8798 C360.7494,541.5048 366.2274,532.1358 365.9994,532.1718" id="Fill-97" fill="#E9EEFB"></path>
                        <g id="Group-101" transform="translate(371.000000, 474.000000)">
                            <mask id="mask-6" fill="white">
                                <use xlink:href="#path-5"></use>
                            </mask>
                            <g id="Clip-100"></g>
                            <path d="M0.9994,10.0048 C0.9994,10.0048 11.4994,28.7548 15.7494,37.7548 C19.3974,45.4808 22.2494,59.2548 21.7494,66.7548 C21.2494,74.2548 22.2974,87.5718 31.4994,105.5048 C41.2494,124.5048 54.4994,156.2548 56.9994,162.7548 C59.4994,169.2548 60.9994,175.0048 60.9994,179.0048 C60.9994,183.0048 57.7494,188.0048 57.7494,192.0048 C57.7494,196.0048 58.4544,199.6418 65.2494,202.2548 C71.7494,204.7548 77.2494,208.2548 85.2494,212.2548 C93.2494,216.2548 99.7494,216.5048 104.7494,215.5048 C109.7494,214.5048 115.3594,211.7608 113.4994,208.5048 C111.4994,205.0048 95.7494,194.2548 89.4994,188.5048 C84.4944,183.9008 79.2264,178.1718 76.7494,169.5048 C74.2494,160.7548 59.9604,92.7138 57.2494,79.2548 C54.7944,67.0658 51.0874,53.8398 48.9994,43.2548 C47.7354,36.8488 47.1814,28.8618 45.2494,20.5048 C43.7464,14.0058 40.7494,0.5048 40.7494,0.5048 L0.9994,10.0048 Z" id="Fill-99" fill="#FFAEAE" mask="url(#mask-6)"></path>
                        </g>
                        <g id="Group-104" transform="translate(428.000000, 655.000000)">
                            <mask id="mask-8" fill="white">
                                <use xlink:href="#path-7"></use>
                            </mask>
                            <g id="Clip-103"></g>
                            <path d="M56.6635,27.4598 C55.0715,24.6748 44.8195,17.3218 37.4945,11.5088 C39.9995,13.5048 38.4995,20.8378 24.3325,15.6718 C10.1665,10.5048 3.5105,-0.0932 3.4995,0.0048 C3.1665,3.0048 0.5825,6.8388 0.5825,10.8618 C0.5825,14.8858 1.2925,18.5438 8.1275,21.1728 C14.6655,23.6888 20.1985,27.2088 28.2465,31.2318 C36.2935,35.2568 42.8325,35.5078 47.8615,34.5018 C52.8925,33.4958 58.5355,30.7348 56.6635,27.4598" id="Fill-102" fill="#E9EEFB" mask="url(#mask-8)"></path>
                        </g>
                        <path d="M336.4994,229.0048 C332.9994,227.5048 316.4614,245.9928 310.4994,265.5048 C304.9994,283.5048 308.4994,288.5048 308.4994,288.5048 C308.4994,288.5048 322.4994,311.0048 325.9994,318.0048 C329.4994,325.0048 332.5564,331.8488 332.9994,338.5048 C333.9994,353.5048 327.5104,364.7068 326.9994,379.5048 C326.4994,394.0048 330.9994,409.0048 341.9994,430.0048 C352.9994,451.0048 346.9134,457.9368 347.4994,472.0048 C347.9994,484.0048 351.4994,489.0048 351.4994,489.0048 C351.4994,489.0048 377.9994,498.0048 416.4994,483.0048 C454.9994,468.0048 478.0594,460.5848 499.4994,444.5048 C511.4994,435.5048 515.4994,427.0048 515.4994,427.0048 C515.4994,427.0048 504.7844,405.2068 470.4994,384.0048 C432.4994,360.5048 393.3304,344.1688 383.9994,329.0048 C379.9994,322.5048 371.8404,298.4798 373.9994,285.5048 C376.1994,272.2878 381.1354,261.3578 373.4994,251.5048 C365.8424,241.6248 344.7844,232.5558 336.4994,229.0048" id="Fill-105" fill="#42426C"></path>
                        <path d="M394.9994,405.5048 C404.3324,416.5048 420.9994,434.5048 457.6664,455.1718 C457.6664,455.1718 439.9994,456.1718 427.6664,465.8378 C415.3994,475.4518 412.9994,480.8378 412.9994,480.8378 C412.9994,480.8378 399.9994,417.8378 394.9994,405.5048" id="Fill-107" fill="#2B2B51"></path>
                        <path d="M334.4994,259.7548 C334.7494,260.5048 341.4994,271.0048 352.2494,271.2548 L336.2494,279.0048 L334.4994,259.7548 Z" id="Fill-109" fill="#2B2B51"></path>
                        <path d="M310.9164,201.5048 C303.8764,200.0118 291.6664,204.5048 291.6664,219.1718 C291.6664,229.5098 296.9994,257.1718 311.3324,280.8378 C325.6664,304.5048 327.3324,303.5048 329.6664,303.8378 C331.9994,304.1718 348.4454,301.0768 372.6664,289.5048 C395.1664,278.7548 408.9164,273.7548 416.2494,272.7548 C423.5824,271.7548 428.4994,270.2548 434.9994,263.5048 C438.6104,259.7548 439.9994,256.8378 439.9994,256.8378 C439.9994,256.8378 441.2494,255.2548 441.7494,258.5048 C442.1074,260.8348 440.7734,262.3858 442.2494,262.7548 C444.2494,263.2548 446.5574,259.8048 447.3324,254.5048 C448.0154,249.8398 448.2484,248.3678 445.7494,245.5048 C441.7494,240.9218 438.1664,239.1718 436.9994,238.6718 C435.8324,238.1718 433.4164,236.1718 429.0824,240.1718 C424.7494,244.1718 421.0824,248.5878 418.7494,252.2548 C416.4164,255.9218 413.7494,259.2548 408.3324,260.8378 C399.7184,263.3568 379.7494,265.7548 365.3324,268.5048 C356.1124,270.2638 341.8324,272.3378 338.4994,273.0048 C335.1664,273.6718 338.3324,265.1718 330.3324,244.5048 C327.9114,238.2488 325.5824,233.5048 323.9164,225.8378 C322.2494,218.1718 321.9164,203.8378 310.9164,201.5048" id="Fill-111" fill="#FFAEAE"></path>
                        <path d="M330.9994,164.5048 C334.8354,180.1968 331.6794,199.5228 319.7494,202.5048 C307.8194,205.4868 295.8974,191.6488 290.9994,176.2548 C287.4994,165.2548 292.3194,152.9868 304.2494,150.0048 C316.1794,147.0228 328.2494,153.2548 330.9994,164.5048" id="Fill-113" fill="#FFAEAE"></path>
                    </g>
                    <g id="Group-118" transform="translate(289.000000, 149.473000)">
                        <mask id="mask-10" fill="white">
                            <use xlink:href="#path-9"></use>
                        </mask>
                        <g id="Clip-117"></g>
                        <path d="M21.238,0.262 C19.269,0.262 17.257,0.503 15.249,1.005 C3.319,3.987 -1.5,16.255 2,27.255 C4.234,34.278 7.93,40.977 12.423,45.903 C24.678,41.343 35.331,33.498 43.315,23.436 C43.07,20.753 42.629,18.08 41.999,15.504 C39.713,6.148 30.979,0.263 21.24,0.262 C21.239,0.262 21.239,0.262 21.238,0.262" id="Fill-116" fill="url(#radialGradient-11)" mask="url(#mask-10)"></path>
                    </g>
                    <g id="Group-181" transform="translate(6.000000, 109.473000)">
                        <path d="M324.9994,55.5048 C320.9994,49.5048 312.1794,45.7728 300.2494,48.7548 C288.3194,51.7368 284.2494,62.2548 284.9994,67.2548 C281.4994,56.2548 286.3194,43.9868 298.2494,41.0048 C310.1794,38.0228 322.2494,44.2548 324.9994,55.5048" id="Fill-119" fill="#FFAEAE"></path>
                        <path d="M352.3324,135.8383 C352.3324,135.8383 356.9994,140.5053 356.3324,146.1713 C355.6664,151.8383 352.9994,155.1713 352.9994,155.1713 C352.9994,155.1713 358.9994,154.1713 360.3324,149.1713 C361.6664,144.1713 357.6664,139.8383 352.3324,135.8383" id="Fill-121" fill="#2B2B51"></path>
                        <path d="M326.9994,235.0048 C326.9994,235.0048 366.4994,236.4218 385.2494,227.9218 L381.8064,224.3768 C380.3284,222.8568 379.0354,221.1678 377.9524,219.3458 L375.9164,215.9218 C375.9164,215.9218 372.7394,217.4098 357.2494,219.0048 C340.2494,220.7548 324.9164,220.1718 324.9164,220.1718 L325.8324,224.3378 C326.2834,226.5448 326.5784,229.0478 326.7374,231.2938 L326.9994,235.0048 Z" id="Fill-123" fill="#2B2B51"></path>
                        <path d="M341.4994,363.0048 C341.9994,375.0048 345.4994,380.0048 345.4994,380.0048 C345.4994,380.0048 353.9294,382.8658 368.1834,382.6718 C359.3194,363.7078 350.0064,344.6538 338.7284,326.7188 C345.8814,343.4088 340.9704,350.2978 341.4994,363.0048" id="Fill-125" fill="#2B2B51"></path>
                        <path d="M497.4438,332.326 C506.3868,324.602 509.4998,318.005 509.4998,318.005 C509.4998,318.005 498.7848,296.207 464.4998,275.005 C440.0128,259.862 415.0558,247.695 397.8998,236.899 C433.1558,266.734 470.3038,295.298 497.4438,332.326" id="Fill-127" fill="#2B2B51"></path>
                        <path d="M252.265,277.7567 L254.333,277.1717 C254.333,277.1717 256.083,283.7957 259.374,292.7547 C261.624,298.8797 265.624,305.5047 266.666,307.1717 L265.455,307.9157 C263.7,308.9967 261.402,308.3997 260.397,306.5997 C258.559,303.3077 256.027,298.3547 254.499,294.3797 C252.705,289.7117 251.165,284.3287 250.319,281.1827 C249.92,279.6987 250.787,278.1757 252.265,277.7567" id="Fill-129" fill="#2B2B51"></path>
                        <path d="M232.0829,98.3383 C232.0829,98.3383 231.0829,102.2553 230.9159,105.0053 C230.7499,107.7553 231.2499,110.7553 231.2499,110.7553 C231.2499,110.7553 227.5849,114.3213 224.1659,117.1713 C222.6659,118.4213 221.0119,119.9583 220.1659,120.2553 C219.3859,120.5283 219.0009,120.1883 219.1909,119.3823 C219.8219,116.7073 222.2499,107.8383 229.2499,100.3383 C230.1249,99.3993 231.1659,98.4213 232.0829,98.3383" id="Fill-131" fill="#E9EEFB"></path>
                        <path d="M192.7494,145.8798 L196.3324,146.1718 L197.4164,141.5878 L192.9994,141.2548 L192.0564,144.8488 C191.9294,145.3308 192.2544,145.8158 192.7494,145.8798" id="Fill-133" fill="#E9EEFB"></path>
                        <path d="M241.2494,142.2548 L240.8524,146.5248 C240.7954,147.0648 241.1904,147.5468 241.7304,147.5978 L255.1224,148.8738 C255.8814,148.9458 256.5554,148.3868 256.6244,147.6268 L256.3324,143.2548 L241.2494,142.2548 Z" id="Fill-135" fill="#E9EEFB"></path>
                        <path d="M137.6518,188.3241 C135.4008,192.9111 129.8068,194.8231 125.2198,192.5721 L88.5698,174.5901 C83.9838,172.3401 82.0718,166.7451 84.3218,162.1581 C86.5728,157.5711 92.1678,155.6591 96.7548,157.9101 L133.4038,175.8921 C137.9908,178.1421 139.9018,183.7371 137.6518,188.3241" id="Fill-137" fill="#42426C"></path>
                        <path d="M135.2245,187.0165 C133.4255,190.6835 128.9535,192.2115 125.2865,190.4125 L87.8165,172.0275 C84.1495,170.2285 82.6215,165.7565 84.4205,162.0895 C86.2195,158.4225 90.6915,156.8945 94.3585,158.6935 L131.8285,177.0785 C135.4955,178.8775 137.0235,183.3495 135.2245,187.0165" id="Fill-139" fill="#E9EEFB"></path>
                        <path d="M95.1659,165.3383 C95.1659,167.6163 93.3189,169.4633 91.0409,169.4633 C88.7629,169.4633 86.9159,167.6163 86.9159,165.3383 C86.9159,163.0603 88.7629,161.2133 91.0409,161.2133 C93.3189,161.2133 95.1659,163.0603 95.1659,165.3383" id="Fill-141" fill="#42426C"></path>
                        <path d="M92.8432,166.2406 C92.4542,167.0456 91.4772,167.3856 90.6732,166.9966 L46.7452,145.1056 C45.9402,144.7166 45.6002,143.7406 45.9892,142.9356 C46.3782,142.1306 47.3542,141.7906 48.1592,142.1796 L92.0872,164.0706 C92.8912,164.4596 93.2322,165.4356 92.8432,166.2406" id="Fill-143" fill="#42426C"></path>
                        <path d="M51.9159,145.7133 C51.5269,146.5183 50.5509,146.8583 49.7459,146.4693 L46.7449,145.1063 C45.9399,144.7163 45.6009,143.7403 45.9889,142.9353 C46.3779,142.1303 47.3539,141.7903 48.1589,142.1793 L51.1599,143.5433 C51.9649,143.9323 52.3049,144.9083 51.9159,145.7133" id="Fill-145" fill="#2B2B51"></path>
                        <polygon id="Fill-147" fill="#3F3848" points="454.7494 142.6713 432.4994 150.2543 434.2494 147.5043 453.8324 140.4633"></polygon>
                        <path d="M29.1659,78.1713 C29.1659,78.1713 36.7489,80.0043 40.7489,79.5043 C44.1239,79.0833 46.2489,74.5043 46.2489,74.5043 L29.1659,78.1713 Z" id="Fill-149" fill="#E9EEFB"></path>
                        <path d="M89.6244,58.0048 C90.1244,58.1298 127.8744,72.1298 156.2494,75.6298 C159.1034,75.9818 160.9994,74.3798 160.7494,71.5048 C160.2624,65.8998 156.4994,55.2548 142.6244,50.6298 C129.6494,46.3048 125.3744,44.5048 118.3744,41.8798 L89.6244,58.0048 Z" id="Fill-151" fill="#E9EEFB"></path>
                        <path d="M0.1659,63.6713 C0.1659,63.6713 11.8329,79.5043 23.6659,79.5043 C35.4999,79.5043 74.1659,68.6713 97.6659,55.8383 C121.1659,43.0043 143.1659,24.3383 145.1659,19.8383 C147.1659,15.3383 143.5069,10.4123 136.3329,9.8383 C123.8329,8.8383 111.8329,15.6713 98.8329,25.1713 C85.8329,34.6713 75.3329,40.8383 62.4999,49.0043 C49.9839,56.9693 37.8329,64.8383 30.4999,64.5043 C23.1659,64.1713 17.6659,60.5043 14.8329,59.0043 C11.9999,57.5043 9.0579,57.3363 5.9989,59.1713 C2.6659,61.1713 0.1659,63.6713 0.1659,63.6713" id="Fill-153" fill="#FFFFFF"></path>
                        <path d="M112.8744,23.8798 C116.7754,25.1798 130.1244,16.5048 139.8534,10.5488 C138.8004,10.1908 137.6264,9.9418 136.3324,9.8378 C127.7764,9.1538 119.4534,12.1418 110.8844,17.1408 C110.7504,19.7758 110.2494,23.0048 112.8744,23.8798" id="Fill-155" fill="#E9EEFB"></path>
                        <path d="M22.6659,74.0048 C19.6959,75.2108 17.6659,75.5048 15.1659,74.5048 C10.3669,72.5848 8.3329,70.0048 7.9989,68.5048 C7.6659,67.0048 7.9989,65.6718 10.9989,65.6718 C13.9989,65.6718 25.1659,67.6718 27.3329,67.8378 C29.4989,68.0048 31.1919,69.3768 29.4989,70.5048 C26.9989,72.1718 25.7559,72.7498 22.6659,74.0048" id="Fill-157" fill="#E9EEFB"></path>
                        <path d="M71.3329,48.5048 C71.3329,48.5048 34.9999,29.8378 13.3329,7.5048 C13.3329,7.5048 9.6239,3.1298 17.3329,1.5048 C25.0099,-0.1132 45.0829,-1.1622 63.9999,10.1718 C71.0619,14.4028 77.2969,18.7498 82.6659,22.1718 C91.1659,27.5878 95.6659,30.4218 97.3329,31.5048 C97.3329,31.5048 97.9919,32.4068 96.8329,33.5878 C94.2839,36.1848 87.1349,42.0258 73.9999,48.2548 C73.1589,48.6528 72.1659,49.0878 71.3329,48.5048" id="Fill-159" fill="#E9EEFB"></path>
                        <polygon id="Fill-161" fill="#24478D" points="435.8324 150.4213 471.2494 130.0043 471.7494 132.5043 435.6244 152.1293"></polygon>
                        <polygon id="Fill-163" fill="#24478D" points="435.2494 148.0048 471.4374 130.0048 471.9374 132.5048 435.7494 149.5048"></polygon>
                        <polygon id="Fill-165" fill="#3F3848" points="463.2494 143.3798 432.4994 150.2548 434.2494 147.5048 463.2494 140.6718"></polygon>
                        <polygon id="Fill-167" fill="#EE854F" points="431.3324 151.6713 463.7494 164.8793 462.2694 161.0043 432.9994 149.5043"></polygon>
                        <polygon id="Fill-169" fill="#EE854F" points="432.1244 150.7133 456.6664 156.6713 456.2494 153.6713 433.4164 148.7963"></polygon>
                        <path d="M384.6127,275.0751 L386.5097,256.7301 C386.5617,256.2361 387.2867,256.2491 387.3207,256.7451 L388.8587,279.4711 C389.3237,286.3341 389.2367,293.0271 391.8747,299.3801 L395.9997,305.3381 L390.2497,300.0051 L385.8617,286.6681 C384.6337,282.9341 384.2087,278.9841 384.6127,275.0751" id="Fill-171" fill="#2B2B51"></path>
                        <path d="M427.2494,260.5048 C427.2494,260.5048 466.2494,294.2548 481.9164,343.2548 C481.9164,343.2548 484.5824,341.5878 486.6244,340.3378 C488.6664,339.0878 490.7494,337.4628 490.7494,337.4628 C490.7494,337.4628 480.9994,314.0048 466.9994,297.5048 C452.9994,281.0048 427.2494,260.5048 427.2494,260.5048" id="Fill-173" fill="#2B2B51"></path>
                        <path d="M338.4477,321.451 C338.4477,321.451 347.1247,332.005 363.4997,350.755 C379.8747,369.505 392.3747,379.63 392.3747,379.63 C392.3747,379.63 387.9167,380.63 385.1667,381.088 C382.4167,381.547 378.0417,382.047 378.0417,382.047 C378.0417,382.047 369.6247,370.88 358.9997,355.255 C348.3747,339.63 337.7447,321.988 337.7447,321.988 C337.4447,321.527 338.0837,321.041 338.4477,321.451" id="Fill-175" fill="#2B2B51"></path>
                        <path d="M396.7494,325.2548 C396.7494,325.2548 404.9994,352.2548 418.4994,363.7548 L401.6664,376.1718 L396.7494,325.2548 Z" id="Fill-177" fill="#42426C"></path>
                        <path d="M218.9994,161.2548 C218.7634,162.0768 217.9384,161.7298 218.0984,160.8748 C219.8984,151.2138 223.6654,135.1388 224.3964,131.1778 C224.8744,128.5968 226.9544,125.4428 228.4054,124.5428 C228.7984,124.2978 229.1684,124.8498 229.0024,125.4258 L218.9994,161.2548 Z" id="Fill-179" fill="#E9EEFB"></path>
                    </g>
                    <g id="Group-184" transform="translate(243.000000, 138.473000)">
                        <mask id="mask-13" fill="white">
                            <use xlink:href="#path-12"></use>
                        </mask>
                        <g id="Clip-183"></g>
                        <path d="M0.494,20.978 C9.406,34.065 22.099,44.37 37.001,50.324 C40.656,44.522 43.371,37.417 44.666,30.338 C47.892,12.709 48.645,3.659 28.333,0.838 C25.918,0.503 23.703,0.333 21.668,0.333 C9.034,0.333 3.39,6.884 0.494,20.978" id="Fill-182" fill="url(#radialGradient-14)" mask="url(#mask-13)"></path>
                    </g>
                    <path d="M248.6244,145.9778 C248.6244,145.9778 247.2494,154.8528 246.1244,157.9778 C245.4304,159.9068 242.8744,162.8528 242.8744,162.8528 L241.9994,155.8528 L248.6244,145.9778 Z" id="Fill-185" fill="#303030"></path>
                </g>
            </g>
        </g>
    </g>
</svg>