<svg xmlns="http://www.w3.org/2000/svg" xmlns:xlink="http://www.w3.org/1999/xlink" width="683" height="683" viewBox="0 0 683 683">
    <defs>
        <path id="a" d="M0 .921h139.19v100.423H0z"/>
        <path id="c" d="M.922.921h139.19v115.164H.922z"/>
        <path id="e" d="M0 0h91.257v175.97H0z"/>
        <path id="g" d="M0 0h50.09v28.56H0z"/>
        <path id="i" d="M17.75 0c-1.628 0-3.292.2-4.952.619C2.936 3.1-1.048 13.316 1.846 22.474 3.692 28.321 6.748 33.899 10.462 38 20.593 34.203 29.4 27.672 36 19.294a45.514 45.514 0 0 0-1.088-6.604C33.022 4.9 25.802 0 17.751 0h-.002"/>
        <radialGradient id="j" cx="-31.152%" cy="-45.845%" r="167.331%" fx="-31.152%" fy="-45.845%" gradientTransform="matrix(1 0 0 .92308 0 -.035)">
            <stop offset="0%" stop-color="#FFE8E8"/>
            <stop offset="100%" stop-color="#FDACAC"/>
        </radialGradient>
        <path id="l" d="M0 16.556a64.747 64.747 0 0 0 29.483 23.533c2.951-4.653 5.144-10.35 6.19-16.027C38.278 9.925 38.886 2.667 22.483.405 20.532.136 18.742 0 17.1 0 6.897 0 2.339 5.253 0 16.556"/>
        <radialGradient id="m" cx="144.147%" cy="-48.665%" r="174.269%" fx="144.147%" fy="-48.665%" gradientTransform="matrix(1 0 0 .92477 0 -.037)">
            <stop offset="0%" stop-color="#FFE8E8"/>
            <stop offset="100%" stop-color="#FDACAC"/>
        </radialGradient>
    </defs>
    <g fill="none" fill-rule="evenodd">
        <path fill-rule="nonzero" d="M0 0h683v683H0z"/>
        <path fill="#E09595" d="M436.905 240.846s1.506-4.011 1.291-7.487c-.125-2.013 2.941.067 3.3 2.74.358 2.675-4.591 4.747-4.591 4.747M386.03 220.828s17.02-16.235 22.153-20.836c0 0-15.399-12.176-30.528-20.565l.27-11.365s15.4 5.412 28.907 11.095c13.557 5.702 21.883 10.824 24.314 14.07 2.108 2.814.95 6.545-.54 9.742-1.891 4.06-12.697 21.107-40.794 42.483l-22.963-15.964 19.181-8.66z"/>
        <path fill="#2B2B51" d="M374.641 189.252l21.705 23.168s-18.45 9.698-26.046-2.963c-7.597-12.662 4.341-20.205 4.341-20.205"/>
        <path fill="#E9EEFB" d="M327.148 150.362c14.012-7.03 43.047-7.932 51.468 14.602 6.467 17.305-7.847 27.242-6.198 33.529 1.348 5.138 23.713 9.734 24.791 15.684.95 5.24-9.7 16.494-19.94 18.658l-42.576 4.326s-24.75-14.337-28.023-40.29c-2.696-21.362 2.644-37.56 20.478-46.51"/>
        <path fill="#E9EEFB" d="M339.746 167.556c6.537 10.627 13.891 18.801 23.697 26.158 2.892 2.026 5.99 3.533 9.183 4.752-.952-6.357 12.736-16.308 6.342-33.363-5.268-14.054-18.52-19.057-31.211-19.152-9.075 3.661-15.56 10.567-8.011 21.605"/>
        <path fill="#DBDFE4" d="M397.209 214.175c-1.078-5.949-23.443-10.546-24.79-15.684-.037-.139-.056-.281-.078-.423-3.158-1.21-6.224-2.705-9.084-4.715-9.701-7.302-17.246-14.062-23.713-24.608-5.39-7.843-.783-19.16 8.195-22.793-7.73-.058-15.251 1.725-20.59 4.404-17.835 8.95-23.174 25.149-20.48 46.513 3.274 25.955 28.025 40.292 28.025 40.292l42.574-4.327c10.24-2.163 20.89-13.418 19.941-18.659"/>
        <path fill="#EE854F" d="M445.201 233.68l12.21-10.339.695 1.638-11.614 9.418z"/>
        <path fill="#2B2B51" d="M461.793 207.679l10.718 83.028 85.617 13.71 11.514-18.55-22.458-70.85z"/>
        <path fill="#42426C" d="M464.559 204.94l10.796 82.893 95.21-2.437-19.147-87.852z"/>
        <g transform="translate(449.81 181.882)">
            <mask id="b" fill="#fff">
                <use xlink:href="#a"/>
            </mask>
            <path fill="#24478D" d="M0 22.984l32.149 78.36 101.407-17.206 5.634-23.588L90.754.921z" mask="url(#b)"/>
        </g>
        <g transform="translate(448.888 161.613)">
            <mask id="d" fill="#fff">
                <use xlink:href="#c"/>
            </mask>
            <path fill="#2474CD" d="M.922 37.692l32.116 78.393 107.074-35.08L99.949.92z" mask="url(#d)"/>
        </g>
        <path fill="#3F3848" d="M467.324 224.262a1.843 1.843 0 1 1-3.685 0 1.843 1.843 0 0 1 3.685 0M475.62 244.531a1.843 1.843 0 1 1-3.685 0 1.843 1.843 0 0 1 3.685 0"/>
        <path fill="#2B2B51" d="M459.028 207.256l58.55-29.06 31.25 43.385 3.3 13.926-62.387 25.608z"/>
        <path fill="#42426C" d="M457.184 205.416l54.895-40.118s6.703 9.596 18.029 26.736c10.393 15.73 18.333 29.74 18.333 29.74l-60.498 37.498-30.759-53.856z"/>
        <path fill="#3F3848" d="M445.201 234.018l18.562-10.677.796 1.643-18.43 10.334z"/>
        <path fill="#3F3848" d="M445.201 234.105l14.257-5.236.492 1.054-13.83 5.395z"/>
        <path fill="#24478D" d="M472.855 219.195a1.382 1.382 0 1 1-2.765 0 1.382 1.382 0 0 1 2.765 0M482.073 235.779a1.382 1.382 0 1 1-2.765-.001 1.382 1.382 0 0 1 2.765 0"/>
        <path fill="#24478D" d="M470.404 218.734s-19.83 10.126-25.495 14.466c-5.666 4.34-7.082 7.646-7.082 7.646l4.047-.62s2.646-5.558 6.627-7.801a616.808 616.808 0 0 1 22.51-12.037l-.607-1.654z"/>
        <path fill="#E09595" d="M174.203 270.328s-2.665 2.775-1.6 4.718c1.838 3.347 6.398 6.937 11.197 10.544 6.486 4.878 22.658.278 22.658.278l-32.255-15.54zM186.86 263.884c-1.01-.61-3.638-4.879-3.436-8.538.203-3.66 2.291-3.388 3.302-2.169 1.01 1.22 3.167 4.812 5.188 6.031 2.022 1.22 4.514 3.389 8.153 3.186 3.638-.204 7.008 1.49 8.625 3.116 1.617 1.627 2.628 4.27 3.84 4.473 1.213.203 10.579 2.303 15.026 1.897 4.447-.407 11.859-1.558 17.519-.948 0 0 2.56-6.506 5.39-9.758 2.83-3.253 2.758-5.975 3.1-8.267.404-2.71.808-4.744 1.347-7.455l5.93.746-3.639 43.91-20.82 3.253-49.524-29.477z"/>
        <path fill="#E9EEFB" d="M97.493 488.107c-1.447-1.812-5.616 3.671-2.15 10.657 3.48 7.013 14.56 26.885 16.999 31.458 3.225 6.046 7.188 7.856 12.295 5.124 3.281-1.757 7.155-6.25 9.826-8.433 1.891-1.546 3.899-2.873 5.626-4.24l-12.227-14.619c-2.15 1.64-4.675 3.72-7.526 1.64-7.722-5.637-19.35-17.21-22.843-21.587"/>
        <path fill="#FFAEAE" d="M127.976 508.026c-2.074 1.609-4.523 3.661-7.235 1.8-.353 6.187 9.298 16.412 13.391 17.548 2.696-2.134 4.193-3.237 5.957-4.613l-12.113-14.735z"/>
        <path fill="#E9EEFB" d="M239.473 576.203s-2.238 4.466-11.459 6.63c-9.221 2.166-28.206 7.444-28.884 10.692-1.01 4.835 14.577 7.646 28.681 6.293 14.103-1.354 25.769-1.945 27.257-3.857 2.136-2.748 1.393-7.638 2.746-10.454.878-1.83 1.186-2.267 1.186-2.267l-19.527-7.037z"/>
        <path fill="#FFAEAE" d="M234.803 583.686c3.408 3.707 14.592 4.377 22.9 2.713.803-1.734 1.297-2.923 1.297-2.923l-19.63-7.273s-.953 1.926-4.115 3.893c-1.338.862-1.519 2.43-.452 3.59"/>
        <path fill="#2B2B51" d="M128.106 508.173l13.999 17.358s20.64-13.617 43.882-35.258c7.813-7.275 13.66-16.283 22.147-24.88 21.952-22.235 44.507-47.94 59.154-72.212l6.46-47.733-29.343-7.864s-9.154 14.645-33.113 52.343c-23.96 37.697-30.959 53.156-43.88 71.87-12.923 18.713-39.306 46.376-39.306 46.376"/>
        <path fill="#42426C" d="M244.105 337.584s7.673 23.103 10.5 29.627c2.971 6.857 8.077 11.96 8.077 11.96s-4.846 51.644-5.923 72.302c-1.077 20.658-1.283 31.318-3.5 50.83-1.885 16.58-14.538 74.204-14.538 74.204l19.384 7.067s18.038-38.597 23.153-54.362c5.046-15.552 5.115-31.53 7.269-41.316 2.154-9.785 12.653-39.957 21.807-70.672 9.184-30.82 13.191-65.778 13.191-65.778l-79.42-13.862z"/>
        <path fill="#303030" d="M287.611 173.757s-.379-6.34 1.323-15.344c.915-4.845 2.036-9.9 9.052-13.93 5.798-3.332 21.628-6.94 28.277-3.736 7.12 3.433 9.155 8.38 8.036 13.83-.991 4.831-3.389 12.947-4.069 15.243-1.017 3.432-2.543 9.59-4.374 9.287-1.83-.303-38.245-5.35-38.245-5.35"/>
        <path fill="#42426C" d="M215.294 279.121c-.653-.62-.724-1.711-.155-2.425l6.071-7.622c.57-.713 1.568-.79 2.223-.17.653.622.723 1.713.155 2.426l-6.072 7.622c-.569.713-1.569.79-2.222.17"/>
        <path fill="#E09595" d="M284.81 214.143s5.454-10.343 5.721-27.654c0 0 17.163 3.885 29.307 7.207-2.409 7.106-1.907 15.028-1.907 15.028l-32.67 16.46-.45-11.041z"/>
        <path fill="#FFF" d="M254.362 247.32l2.96.272s.538 10.893.538 16.066c0 5.174-2.152 15.25-1.884 26.958.27 11.709-1.614 19.878-4.305 26.686-2.69 6.807-8.341 20.967-8.341 20.967s13.529 5.293 28.253 8.169c30.674 5.991 55.16 6.808 55.16 6.808s10.494-53.1 9.149-86.592c-1.192-29.658.538-54.733.538-54.733s-12.915-3.813-20.18-3.268c-27.581 11.233-30.743 10.28-30.743 10.28l-1.009-7.829s-11.57.817-17.22 4.901c-4.493 3.248-7.515 7.552-9.418 14.705-1.884 7.08-3.498 16.61-3.498 16.61"/>
        <path fill="#DBDFE4" d="M267.296 304.416s43.976 12.053 54.107 16.535c3.216 1.424 7.236 22.16 7.236 22.16s3.518-21.245 5.026-33.646c-9.448-.203-66.369-5.049-66.369-5.049"/>
        <path fill="#2B2B51" d="M237.963 296.534c-1.806 3.708-6.298 5.253-9.98 3.434l-33.027-16.316c-3.682-1.819-5.217-6.341-3.41-10.049 1.807-3.707 6.297-5.252 9.98-3.433l33.027 16.316c3.682 1.82 5.216 6.34 3.41 10.048"/>
        <path fill="#DBDFE4" d="M309.484 259.355l-1.527-1.925s-5.292 23.511-7.938 24.12c-8.66 1.989-24.427 6.283-24.427 6.283l37.793-.473-3.901-28.005z"/>
        <path fill="#E9EEFB" d="M285.732 219.243s.201 2.413.739 5.496c.537 3.084 1.332 5.337 1.332 5.337.079.446.521.73.958.607 2.759-.773 11.722-3.405 14.1-5.609 2.822-2.614 12.428-14.947 16.055-15.953 0 0-.201-1.475-.336-2.48-.072-.536-.873-.805-.873-.805s-6.516 4.693-16.391 8.514c-9.875 3.82-15.584 4.893-15.584 4.893"/>
        <path fill="#FFAEAE" d="M326.744 176.937c-2.585 14.417-12.233 28.969-22.976 26.85-11.07-2.184-15.275-18.703-12.69-33.12 2.586-14.416 8.149-19.898 22.576-17.854 16.28 2.307 15.676 9.708 13.09 24.124"/>
        <path fill="#FFAEAE" d="M290.76 175.285c.491 4.561 1.05 9.162-.6 9.35-2.607.299-4.722-5.684-5.212-10.246-.491-4.561.366-6.144 2.018-6.319 1.65-.175 3.304 2.653 3.794 7.215M309.094 259.148s-.187 7.841 0 14.215c.203 6.905 1.623 11.372 1.623 11.372s-18.66 1.625-30.222 2.64c-11.56 1.015-22.31-1.015-25.353-2.03-3.043-1.016-3.383-2.823-7.708-4.265-3.65-1.219-7.91-2.234-9.736-2.843-1.825-.61-5.882.203-10.952-1.422-1.833-.587-6.085-1.827-6.288-1.218-.58 1.744-.367 3.63 4.057 5.686a847.486 847.486 0 0 0 11.155 5.077s-23.73 5.077-26.368 5.483c-1.712.264-1.175 3.326 1.217 3.858 3.651.812 5.071 1.218 5.071 1.218s4.057 5.483 7.1 6.905c3.042 1.421 5.345 1.642 7.707 2.234 2.434.609 4.056.812 9.33.406 6.522-.502 16.632-2.843 21.297-2.437 4.665.406 16.615 3.4 26.909 5.077 11.628 1.895 21.5 3.238 31.911 3.52 10.006.27 12.846 0 16.497-2.437 3.65-2.437 5.139-5.957 5.341-10.425.203-4.467 1.893-14.011.879-26.196-1.014-12.184-2.231-17.058-2.231-17.058l-31.236 2.64z"/>
        <path fill="#E9EEFB" d="M306.933 254.524l.56 3.859c.096.553.61.938 1.177.884l19.464-1.865-2.126-4.579-19.075 1.7z"/>
        <path fill="#EE854F" d="M364.676 80.015l-6.704 13.52a3.124 3.124 0 0 1-4.2 1.412l-22.98-11.509a3.154 3.154 0 0 1-1.406-4.22l6.703-13.52a3.124 3.124 0 0 1 4.199-1.413l22.982 11.51a3.154 3.154 0 0 1 1.406 4.22"/>
        <path fill="#FFF" d="M342.51 62.348c-2.822 0-5.108-2.275-5.108-5.08L336.932 40h-.593l-.47 17.269c0 2.804-2.286 5.079-5.106 5.079l-12.769.47v.583l12.769.47c2.82 0 5.106 2.274 5.106 5.08l.467 10.665h.6l.466-10.665c0-2.806 2.286-5.08 5.107-5.08l13.279-.455v-.613l-13.279-.455z"/>
        <path fill="#42426C" d="M194.909 269.388c-.868-.137-1.47-.984-1.338-1.883l1.416-9.595c.133-.897.951-1.52 1.82-1.383.867.137 1.47.984 1.337 1.883l-1.416 9.594c-.133.898-.951 1.521-1.819 1.384"/>
        <path fill="#3F3848" d="M329.417 172.742s-3.271 5.7-1.363 14.927c1.184 5.727 3.816 7.328 2.998 9.229-.818 1.9-4.634 2.297-4.634 8.684 0 3.8 2.726 6.243 2.18 9.229-.544 2.985-9.42 10.435-8.72 24.697.544 11.128 6.813 21.713 18.805 24.97 11.992 3.257 11.447-19.27 11.447-19.27l-2.997-68.938 11.719-8.142s3.543-8.413-6.269-10.042c-7.278-1.207-14.445 4.886-14.445 4.886l-8.721 9.77z"/>
        <path fill="#3F3848" d="M354.238 164.377s8.934 4.093 10.83 19.1c2.117 16.779 7.62 19.604 11.911 23.74 6.226 6.004 8.93 7.516 6.498 13.644-1.625 4.093-12.183 10.096-20.846 8.732 0 0-9.205-13.371-8.664-25.923.542-12.552.271-39.293.271-39.293"/>
        <path fill="#E09595" d="M346.106 279.541s-16.524-23.985-16.121-58.336l9.27-11.993-.202-10.773 20.756-3.659s-.895 13.856 2.62 21.14c4.038 8.368 19.678 15.43 23.778 21.546l-40.101 42.075zM467.219 412.743s-14.785-2.172-29.569 10.047c-11.917 9.85-31.989 38.016-35.752 42.09-3.763 4.072-6.452 7.603-11.559 8.418-4.018.64-10.484-1.63-11.828 3.8-1.343 5.432-2.285 26.07-.672 35.845 1.613 9.775 3.226 14.935 6.452 14.392 3.225-.544 3.353-5.866 5.78-16.022 1.88-7.874 4.032-17.65 9.945-23.895 5.914-6.246 23.334-28.42 75.267-51.593 10.955-4.888 20.299-9.273 23.118-14.664 7.526-14.392-7.526-30.141-7.526-30.141l-23.656 21.723z"/>
        <path fill="#E9EEFB" d="M391.354 473.016c-4.6.668-12.005-1.697-13.544 3.962-1.538 5.66-2.616 27.167-.77 37.355 1.848 10.188 3.81 16.414 7.504 15.848 3.693-.566 4.493-9.792 7.272-20.376-.616 1.097-5.31-1.341-5.31-10.718 0-18.147 5.058-26.101 4.848-26.07"/>
        <g transform="translate(395.425 426.03)">
            <mask id="f" fill="#fff">
                <use xlink:href="#e"/>
            </mask>
            <path fill="#FFAEAE" d="M1.844 7.717s8.146 15.23 11.444 22.542c2.83 6.276 5.043 17.464 4.655 23.557-.388 6.092.425 16.91 7.565 31.477 7.565 15.434 17.845 41.224 19.785 46.504 1.94 5.28 3.104 9.951 3.104 13.2 0 3.25-2.522 7.311-2.522 10.56 0 3.25.547 6.204 5.819 8.327 5.043 2.03 9.31 4.874 15.518 8.123 6.207 3.25 11.25 3.452 15.13 2.64 3.879-.812 8.232-3.041 6.788-5.686-1.551-2.843-13.772-11.576-18.62-16.247-3.884-3.74-7.971-8.393-9.893-15.433-1.94-7.108-13.027-62.379-15.13-73.311-1.905-9.902-4.781-20.645-6.401-29.244-.98-5.203-1.41-11.691-2.91-18.48C35.01 10.967 32.685 0 32.685 0L1.844 7.717z" mask="url(#f)"/>
        </g>
        <g transform="translate(437.514 573.44)">
            <mask id="h" fill="#fff">
                <use xlink:href="#g"/>
            </mask>
            <path fill="#E9EEFB" d="M48.79 22.13c-1.298-2.346-9.654-8.54-15.625-13.438 2.042 1.681.82 7.86-10.728 3.507C10.89 7.846 5.465-1.082 5.456-.999c-.272 2.527-2.378 5.757-2.378 9.146 0 3.39.579 6.472 6.15 8.686 5.33 2.12 9.84 5.085 16.4 8.474 6.558 3.391 11.888 3.603 15.987 2.755 4.101-.847 8.7-3.173 7.175-5.932" mask="url(#h)"/>
        </g>
        <path fill="#42426C" d="M366.47 226.174c-2.838-1.22-16.243 13.82-21.076 29.691-4.459 14.642-1.622 18.71-1.622 18.71s11.349 18.302 14.186 23.996c2.837 5.694 5.315 11.262 5.674 16.676.811 12.202-4.449 21.314-4.863 33.351-.406 11.795 3.242 23.997 12.159 41.08 8.917 17.082 3.983 22.72 4.458 34.164.406 9.762 3.243 13.829 3.243 13.829s21.481 7.321 52.69-4.88c31.209-12.202 49.901-18.238 67.281-31.318 9.727-7.321 12.97-14.236 12.97-14.236s-8.686-17.731-36.478-34.978c-30.803-19.116-62.554-32.405-70.118-44.74-3.243-5.287-9.856-24.83-8.106-35.385 1.783-10.751 5.784-19.642-.406-27.657-6.206-8.037-23.276-15.414-29.992-18.303"/>
        <path fill="#2B2B51" d="M413.86 370.75c7.55 9.014 21.035 23.763 50.699 40.698 0 0-14.293.82-24.27 8.74-9.925 7.877-11.866 12.29-11.866 12.29s-10.518-51.622-14.563-61.727M365.006 251.902c.207.61 5.816 9.153 14.748 9.356l-13.294 6.306-1.454-15.662z"/>
        <path fill="#FFAEAE" d="M345.548 204.215c-5.694-1.22-15.57 2.451-15.57 14.433 0 8.445 4.313 31.043 15.907 50.376 11.594 19.334 12.942 18.517 14.83 18.79 1.887.272 15.19-2.256 34.781-11.71 18.2-8.782 29.322-12.866 35.253-13.683 5.932-.817 9.91-2.042 15.167-7.557 2.92-3.063 4.044-5.446 4.044-5.446s1.011-1.293 1.416 1.362c.29 1.903-.79 3.17.404 3.472 1.618.408 3.485-2.41 4.112-6.74.552-3.81.74-5.013-1.28-7.352-3.236-3.744-6.134-5.174-7.078-5.582-.944-.409-2.899-2.042-6.404 1.225-3.505 3.268-6.471 6.875-8.358 9.871-1.887 2.996-4.045 5.719-8.426 7.012-6.968 2.058-23.12 4.017-34.782 6.263-7.458 1.437-19.008 3.131-21.704 3.676-2.696.545-.135-6.399-6.606-23.282-1.959-5.11-3.843-8.986-5.19-15.25-1.349-6.262-1.618-17.972-10.516-19.878"/>
        <path fill="#FFAEAE" d="M361.006 173.916c3.067 12.665.544 28.263-8.994 30.67-9.538 2.406-19.07-8.762-22.986-21.187-2.798-8.878 1.056-18.78 10.594-21.186 9.538-2.407 19.188 2.623 21.386 11.703"/>
        <g transform="translate(328 162)">
            <mask id="k" fill="#fff">
                <use xlink:href="#i"/>
            </mask>
            <path fill="url(#j)" d="M17.75 0c-1.628 0-3.292.2-4.952.619C2.936 3.1-1.048 13.316 1.846 22.474 3.692 28.321 6.748 33.899 10.462 38 20.593 34.203 29.4 27.672 36 19.294a45.514 45.514 0 0 0-1.088-6.604C33.022 4.9 25.802 0 17.751 0h-.002" mask="url(#k)"/>
        </g>
        <g>
            <path fill="#FFAEAE" d="M361.734 175.606c-3.228-4.91-10.348-7.964-19.977-5.524-9.63 2.44-12.915 11.048-12.31 15.14-2.825-9.002 1.066-19.041 10.696-21.482 9.63-2.44 19.372 2.66 21.591 11.866"/>
            <path fill="#2B2B51" d="M383.86 240.442s3.646 3.777 3.125 8.363c-.52 4.586-2.604 7.283-2.604 7.283s4.688-.809 5.73-4.855c1.042-4.047-2.084-7.553-6.252-10.79M363.421 321.361s31.988 1.157 47.173-5.78l-2.788-2.893a22.032 22.032 0 0 1-3.122-4.106l-1.648-2.794s-2.573 1.214-15.117 2.516c-13.768 1.428-26.185.952-26.185.952l.742 3.4c.365 1.801.604 3.844.733 5.677l.212 3.028zM374.974 423.82c.406 9.868 3.255 13.98 3.255 13.98s6.86 2.352 18.459 2.192c-7.214-15.594-14.792-31.262-23.97-46.01 5.821 13.724 1.825 19.39 2.256 29.838M501.24 399.584c7.24-6.257 9.76-11.602 9.76-11.602s-8.674-17.66-36.429-34.836c-19.823-12.268-40.026-22.125-53.915-30.872 28.541 24.171 58.614 47.312 80.584 77.31M303.416 355.969l1.623-.482s1.374 5.456 3.957 12.836c1.765 5.046 4.905 10.503 5.723 11.876l-.95.613c-1.378.89-3.182.399-3.97-1.084-1.443-2.712-3.43-6.792-4.63-10.066-1.408-3.845-2.616-8.28-3.28-10.871-.313-1.223.367-2.477 1.527-2.822"/>
            <path fill="#E9EEFB" d="M287.063 210.07s-.784 3.113-.915 5.298c-.13 2.185.262 4.568.262 4.568s-2.872 2.833-5.552 5.098c-1.175.993-2.472 2.214-3.134 2.45-.612.217-.913-.053-.765-.694.495-2.125 2.398-9.172 7.883-15.13.686-.746 1.502-1.523 2.22-1.59M255.413 248.507l3.066.219.927-3.432-3.779-.25-.807 2.691c-.108.361.17.724.593.772M294.767 245.965l-.325 3.559a.809.809 0 0 0 .718.894l10.955 1.064c.621.06 1.172-.406 1.229-1.04l-.24-3.644-12.337-.833z"/>
            <path fill="#42426C" d="M210.696 283.197c-1.841 3.696-6.417 5.236-10.17 3.422l-29.982-14.489c-3.751-1.813-5.315-6.32-3.475-10.017 1.842-3.696 6.419-5.236 10.171-3.423l29.981 14.49c3.753 1.812 5.316 6.32 3.475 10.017"/>
            <path fill="#E9EEFB" d="M208.091 282.206c-1.458 2.945-5.083 4.172-8.056 2.727l-30.373-14.767c-2.973-1.445-4.211-5.037-2.753-7.982 1.458-2.946 5.083-4.173 8.056-2.728l30.373 14.767c2.973 1.445 4.211 5.037 2.753 7.983"/>
            <path fill="#42426C" d="M175.516 264.832a3.224 3.224 0 0 1-3.227 3.221 3.224 3.224 0 0 1-3.226-3.221 3.224 3.224 0 0 1 3.226-3.221 3.224 3.224 0 0 1 3.227 3.22"/>
            <path fill="#42426C" d="M173.543 265.474a1.302 1.302 0 0 1-1.739.609L136.61 248.45a1.315 1.315 0 0 1-.606-1.748 1.302 1.302 0 0 1 1.739-.609l35.194 17.632c.644.313.918 1.1.606 1.748"/>
            <path fill="#2B2B51" d="M140.366 248.914c-.287.643-1.007.914-1.601.603l-2.214-1.088c-.594-.31-.844-1.09-.557-1.732.286-.643 1.006-.914 1.6-.604l2.214 1.089c.594.31.844 1.09.558 1.732"/>
            <path fill="#3F3848" d="M467.75 245.992l-18.438 6.415 1.45-2.326 16.228-5.957z"/>
            <path fill="#E9EEFB" d="M122.969 194.061s6.138 1.658 9.376 1.206c2.732-.38 4.452-4.524 4.452-4.524l-13.828 3.318zM171.828 177.226c.402.102 30.728 11.54 53.524 14.398 2.292.288 3.815-1.02 3.615-3.37-.392-4.578-3.415-13.274-14.561-17.053-10.424-3.533-13.858-5.003-19.481-7.148l-23.097 13.173z"/>
            <path fill="#FFF" d="M99 182.395s9.46 12.95 19.053 12.95c9.594 0 40.943-8.86 59.996-19.357 19.053-10.498 36.89-25.765 38.511-29.446 1.622-3.68-1.345-7.71-7.161-8.18-10.135-.817-19.864 4.772-30.404 12.542s-19.053 12.815-29.457 19.494c-10.148 6.515-20 12.951-25.944 12.678-5.947-.272-10.406-3.272-12.703-4.499-2.296-1.227-4.682-1.364-7.162.137a27.551 27.551 0 0 0-4.729 3.68"/>
            <path fill="#E9EEFB" d="M190.166 150.138c3.213 1.09 14.21-6.184 22.225-11.177-.868-.3-1.835-.51-2.9-.597-7.05-.573-13.905 1.932-20.964 6.124-.11 2.21-.524 4.916 1.639 5.65M117.67 189.882c-2.457.941-4.136 1.17-6.204.39-3.968-1.498-5.65-3.51-5.927-4.681-.275-1.17 0-2.21 2.481-2.21s11.717 1.56 13.509 1.69c1.791.13 3.191 1.2 1.791 2.08-2.067 1.301-3.095 1.752-5.65 2.731M157 169.343s-29.526-15.303-47.135-33.611c0 0-3.014-3.587 3.251-4.919 6.239-1.326 22.552-2.186 37.925 7.105 5.739 3.469 10.806 7.032 15.17 9.838 6.907 4.44 10.564 6.763 11.919 7.65 0 0 .535.74-.407 1.708-2.071 2.13-7.881 6.918-18.555 12.024-.684.326-1.49.683-2.168.205"/>
            <path fill="#24478D" d="M452.248 252.827l28.922-16.986.408 2.08-29.5 16.327z"/>
            <path fill="#24478D" d="M451.156 250.283l29.098-14.442.402 2.006-29.098 13.64z"/>
            <path fill="#3F3848" d="M474.203 247.125l-24.89 5.282 1.416-2.113 23.474-5.25z"/>
            <path fill="#EE854F" d="M448.39 253.303l25.813 11.069-1.178-3.248-23.307-9.637z"/>
            <path fill="#EE854F" d="M449.313 253.055l20.28 4.874-.344-2.454-18.869-3.988z"/>
            <path fill="#2B2B51" d="M410.712 354.04l1.516-14.826c.042-.399.621-.388.648.012l1.23 18.366c.371 5.546.302 10.955 2.41 16.089l3.296 4.815-4.595-4.31-3.507-10.778a22.8 22.8 0 0 1-.998-9.369M442.703 341.602s31.707 27.402 44.444 67.186c0 0 2.167-1.354 3.828-2.369 1.66-1.015 3.353-2.334 3.353-2.334s-7.927-19.046-19.308-32.442c-11.382-13.397-32.317-30.041-32.317-30.041M372.428 389.507s7.019 8.634 20.264 23.973c13.244 15.34 23.355 23.622 23.355 23.622s-3.606.818-5.83 1.193c-2.225.376-5.763.785-5.763.785s-6.808-9.136-15.402-21.919c-8.594-12.782-17.192-27.215-17.192-27.215-.243-.377.274-.775.568-.44"/>
            <path fill="#42426C" d="M419.734 394.062s6.644 21.962 17.516 31.316l-13.556 10.1-3.96-41.416z"/>
            <path fill="#E9EEFB" d="M276.775 261.23c-.199.67-.892.387-.758-.31 1.513-7.88 4.68-20.99 5.295-24.221.402-2.105 2.15-4.677 3.37-5.411.331-.2.642.25.503.72l-8.41 29.221z"/>
        </g>
        <g transform="translate(290 153)">
            <mask id="n" fill="#fff">
                <use xlink:href="#l"/>
            </mask>
            <path fill="url(#m)" d="M0 16.556a64.747 64.747 0 0 0 29.483 23.533c2.951-4.653 5.144-10.35 6.19-16.027C38.278 9.925 38.886 2.667 22.483.405 20.532.136 18.742 0 17.1 0 6.897 0 2.339 5.253 0 16.556" mask="url(#n)"/>
        </g>
        <path fill="#303030" d="M295 159s-1.245 7.363-2.264 9.956c-.629 1.6-2.944 4.044-2.944 4.044l-.792-5.807 6-8.193z"/>
    </g>
</svg>
