<svg xmlns="http://www.w3.org/2000/svg" xmlns:xlink="http://www.w3.org/1999/xlink" width="683" height="683" viewBox="0 0 683 683">
    <defs>
        <path id="a" d="M0 593h515V0H0z"/>
        <path id="c" d="M1.161 40.11c-.204 22.09 9.11 39.964 23 40.847 16.32 1.038 31.609-16.95 35.991-46.578C65.141.66 47.17 2.454 30.862 1.246A84.283 84.283 0 0 0 24.644 1c-27.819.002-23.28 17.048-23.483 39.11"/>
        <radialGradient id="d" cx="3.161%" cy="240.525%" r="258.141%" fx="3.161%" fy="240.525%" gradientTransform="matrix(.15958 -.74039 .98719 .11968 -2.348 2.14)">
            <stop offset="0%" stop-color="#FFE8E8"/>
            <stop offset="100%" stop-color="#FDACAC"/>
        </radialGradient>
    </defs>
    <g fill="none" fill-rule="evenodd">
        <path fill-rule="nonzero" d="M0 0h683v683H0z"/>
        <path fill="#D8DDEA" d="M183 152h3V77h-3z"/>
        <g transform="translate(89 48)">
            <path fill="#D8DDEA" d="M100.343 94h-8.686a.66.66 0 0 1-.657-.664V40.664a.66.66 0 0 1 .657-.664h8.686a.66.66 0 0 1 .657.664v52.672a.66.66 0 0 1-.657.664"/>
            <mask id="b" fill="#fff">
                <use xlink:href="#a"/>
            </mask>
            <path fill="#D8DDEA" d="M126 179h3v-75h-3z" mask="url(#b)"/>
            <path fill="#D8DDEA" d="M132.343 168h-8.686a.66.66 0 0 1-.657-.664v-52.672a.66.66 0 0 1 .657-.664h8.686a.66.66 0 0 1 .657.664v52.672a.66.66 0 0 1-.657.664M158 117h3V42h-3z" mask="url(#b)"/>
            <path fill="#D8DDEA" d="M164.343 107h-8.686a.66.66 0 0 1-.657-.664V53.664a.66.66 0 0 1 .657-.664h8.686a.66.66 0 0 1 .657.664v52.672a.66.66 0 0 1-.657.664M190 139h3V64h-3z" mask="url(#b)"/>
            <path fill="#D8DDEA" d="M196.343 129h-8.686a.66.66 0 0 1-.657-.664V75.664a.66.66 0 0 1 .657-.664h8.686a.66.66 0 0 1 .657.664v52.672a.66.66 0 0 1-.657.664M223 119h3V44h-3z" mask="url(#b)"/>
            <path fill="#D8DDEA" d="M228.343 108h-8.686a.66.66 0 0 1-.657-.664V54.664a.66.66 0 0 1 .657-.664h8.686a.66.66 0 0 1 .657.664v52.672a.66.66 0 0 1-.657.664M255 124h3V49h-3z" mask="url(#b)"/>
            <path fill="#D8DDEA" d="M260.343 114h-8.686a.66.66 0 0 1-.657-.664V60.664a.66.66 0 0 1 .657-.664h8.686a.66.66 0 0 1 .657.664v52.672a.66.66 0 0 1-.657.664M287 90h3V15h-3z" mask="url(#b)"/>
            <path fill="#D8DDEA" d="M292.343 80h-8.686a.66.66 0 0 1-.657-.664V26.664a.66.66 0 0 1 .657-.664h8.686a.66.66 0 0 1 .657.664v52.672a.66.66 0 0 1-.657.664M319 76h3V1h-3z" mask="url(#b)"/>
            <path fill="#D8DDEA" d="M324.343 66h-8.686a.66.66 0 0 1-.657-.664V12.664a.66.66 0 0 1 .657-.664h8.686a.66.66 0 0 1 .657.664v52.672a.66.66 0 0 1-.657.664M351 93h3V18h-3z" mask="url(#b)"/>
            <path fill="#D8DDEA" d="M356.343 82h-8.686a.66.66 0 0 1-.657-.664V28.664a.66.66 0 0 1 .657-.664h8.686a.66.66 0 0 1 .657.664v52.672a.66.66 0 0 1-.657.664M383 88h3V13h-3z" mask="url(#b)"/>
            <path fill="#D8DDEA" d="M388.343 77h-8.686a.66.66 0 0 1-.657-.664V23.664a.66.66 0 0 1 .657-.664h8.686a.66.66 0 0 1 .657.664v52.672a.66.66 0 0 1-.657.664M415 76h3V1h-3z" mask="url(#b)"/>
            <path fill="#D8DDEA" d="M420.343 65h-8.686a.66.66 0 0 1-.657-.664V11.664a.66.66 0 0 1 .657-.664h8.686a.66.66 0 0 1 .657.664v52.672a.66.66 0 0 1-.657.664M447 105h3V30h-3z" mask="url(#b)"/>
            <path fill="#D8DDEA" d="M452.343 94h-8.686a.66.66 0 0 1-.657-.664V40.664a.66.66 0 0 1 .657-.664h8.686a.66.66 0 0 1 .657.664v52.672a.66.66 0 0 1-.657.664M479 75h3V0h-3z" mask="url(#b)"/>
            <path fill="#D8DDEA" d="M484.343 64h-8.686a.66.66 0 0 1-.657-.664V10.664a.66.66 0 0 1 .657-.664h8.686a.66.66 0 0 1 .657.664v52.672a.66.66 0 0 1-.657.664" mask="url(#b)"/>
            <path stroke="#E9EEFB" stroke-width="2" d="M515 63l-34.657 17.28-32.029 9.487-31.956-8.971-32.103 12.354-32.03 5-32.028-16.766-32.03 14.119-32.102 28.385-31.957-.074-32.029 20.517-32.103 12.207L128.02 178l-32.03-6.398L59 175.72" mask="url(#b)"/>
            <path stroke="#E9EEFB" stroke-width="2" d="M59 143l36.99-13.264 32.03-7.148 31.956-15.254 32.103-15.476 32.03-11.717 31.957-20.992 32.102-7.378 32.029-3.98 32.03 1.473 32.029-5.305h64.059l32.03-4.126L515 36" mask="url(#b)"/>
            <path fill="#E09595" d="M400.985 103.264c.318 2.778-4.657 1.389-4.657 1.389L394 96.748l4.022-.748s2.646 4.487 2.963 7.264M410 104l-5.693-.53L403 95l5.923 5.143z" mask="url(#b)"/>
            <path fill="#D8DDEA" d="M396.088 363L447 246.654 421.946 232 363 363z" mask="url(#b)"/>
            <path fill="#E09595" d="M103.11 510s-1.168 8.861-3.505 10.93c-2.338 2.067-20.012 10.928-32.429 13.882-12.492 2.972-17.528 4.135-25.416 4.43-7.888.296-14.245-1.469-15.41 1.256-1.17 2.732.51 7.901 6.353 9.674 1.805.546 6.623 3.46 12.27 4.134 12.636 1.508 31.782 1.165 47.328 4.431 22.495 4.727 29.14 6.173 35.935 4.727 5.55-1.182 6.135-5.022 5.258-10.339-.727-4.41 3.506-39.285 3.506-39.285L103.11 510z" mask="url(#b)"/>
            <path fill="#2B2B51" d="M134 541.86c-14.13 1.317-35.034.147-45.808-7.218-2.643-1.808 1.452-5.232-.7-7.642-6.316 2.835-13.964 4.932-20.262 6.406-12.492 2.925-16.944 3.634-25.416 4.36-7.864.674-14.245-.574-15.41 2.108-1.17 2.688.047 7.956 5.696 10.245 3.352 1.358 7.827 2.97 12.928 3.343 12.689.927 31.78 1.145 47.327 4.36 22.496 4.65 29.14 6.073 35.934 4.65 5.55-1.163 6.135-4.94 5.259-10.173-.221-1.316.016-5.397.452-10.44" mask="url(#b)"/>
            <path fill="#FFAEAE" d="M105.12 529s-9.594 8.542-13.68 10.613c-4.657 2.358-10.187 4.716-22.41 8.548-12.225 3.833-18.629 6.191-32.599 7.076-13.97.884-30.269 0-34.344 4.717-4.102 4.748-1.746 13.266 3.493 19.161 6.889 7.755 18.578 14.376 37.545 13.856 10.769-.294 11.642-.294 31.143-4.127 17.541-3.447 22.702-1.769 28.523-7.96 2.853-3.034 6.985-16.508 9.896-20.34 2.91-3.833 9.313-8.255 9.313-8.255L105.12 529z" mask="url(#b)"/>
            <path fill="#42426C" d="M79.894 551.348c-3.015-3.445-7.868-2.93-5.354-5.348-.77.244-4.6 1.574-5.427 1.831-12.24 3.81-19.379 4.543-33.366 5.422-13.988.88-29.577 1.612-33.657 6.301-4.107 4.72-1.749 13.188 3.497 19.048 6.897 7.709 14.424 12.895 33.657 14.214 10.76.737 15.59-.733 35.114-4.543 17.562-3.426 22.73-1.758 28.557-7.912 1.767-1.867 4.93-9.826 7.085-14.91-7.676 1.5-15.63 2.102-24.205 1.21-6.338-.66.51-7.986-5.9-15.313" mask="url(#b)"/>
            <path fill="#C5CBD8" d="M259.995 309.598c-.344-9.408-20.966-4.353-59.052-3.29-36.904 1.03-60.666-2.592-59.926 7.82.699 9.824 27.524 12.041 60.333 10.356 6.29-.323 12.047-.728 17.302-1.09 3.445-.239 3.731 1.222 3.028 3.156-2.116 5.82-5.846 15.687-10.503 25.438-7.739 16.208-12.625 23.991-17.067 25.927-4.441 1.936-14.177.621-16.946 9.999-3.209 10.87 7.833 13.51 12.544 13.033 4.035-.407 15.011-3.126 22.576-12.598 4.309-5.396 16.986-25.168 34.138-67.479a2.963 2.963 0 0 1 1.935-1.74c7.964-2.237 11.794-5.27 11.638-9.532" mask="url(#b)"/>
            <path fill="#5581EE" d="M330.318 139.624s-5.565 2.954-16.813 9.642c-19.863 11.812-38.952 11.694-51.233 22.882-12.28 11.188-22.322 42.407-27.201 50.722-7.603 12.954-18.422 19.873-28.071 36.213l6.15 29.064 30.353-2.68a9.27 9.27 0 0 0 5.35-2.31c4.739-4.212 15.504-14.407 22.19-25.628 0 0 1.746 17.894 2.916 31.437.559 6.471 1.534 12.117.584 13.838-1.398 2.535-1.989 4.671-1.989 4.671a5.823 5.823 0 0 0 1.188 6.342l.81.827L393.85 317l.38-4.208a73.877 73.877 0 0 1 3.73-17.425c2.403-6.967 13.36-36.5 14.74-38.934 2.34-4.122 15.644-20.168 21.491-38.42l53.81 37.16s0-26.497-15.204-54.761c-7.475-13.893-5.263-24.731-14.035-38.863-6.45-10.39-14.029-19.732-34.795-19.431-40.643.589-49.644-9.118-49.644-9.118l-44.004 6.624z" mask="url(#b)"/>
            <path fill="#D8DDEA" d="M293 260.41s29.989-.465 56.617-5.672C361.12 252.488 382.27 248 382.27 248c1.672.109.074 1.968-.837 2.63-5.334 3.877-16.484 10.674-39.689 14.721C309.497 270.974 293 260.41 293 260.41" mask="url(#b)" style="mix-blend-mode:multiply"/>
            <path fill="#E86A46" d="M332.725 308.5c.478.596 1.365.67 1.939.163l6.304-5.585a3.695 3.695 0 0 0 1.25-2.766L344 264.129c0-6.164-2.895-68.129-2.895-68.129L327 301.384l5.725 7.117z" mask="url(#b)"/>
            <path fill="#FF7E59" d="M331.605 196.18s-9.764 38.777-15.632 62.958c-4.98 20.52-4.035 25.802-3.292 41.583.103 2.206-3.681 6.177-3.681 8.18 0 2.211 1.321 2.875 3.743 4.644L334.908 319s-3.67-5.897-3.23-7.888c.789-3.561 2.422-6.413 2.422-8.183 0-10.793-.895-25.454-.586-32.88 1.003-24.189 6.531-55.144 7.486-75.049l-9.395 1.18z" mask="url(#b)"/>
            <path fill="#E86A46" d="M331 196.099s2.498-.607 5.066-.105c2.674.523 4.56 2.006 4.56 2.006l.374-6-9.578 2.398-.422 1.7z" mask="url(#b)"/>
            <path fill="#FF7E59" d="M332.98 180.373c-2.39.416-3.591 2.69-3.735 3.967-.507 4.504-.257 7.656 1.041 10.704.545 1.277 1.592.203 4.339-.237 4.866-.778 6.565 2.582 7.252.504 1.08-3.267 1.535-5.588 2.02-8.866.512-3.45-.953-5.536-3.092-6.003-2.327-.509-4.561-.638-7.825-.069" mask="url(#b)"/>
            <path fill="#E09595" d="M230 283l18.422 11.138s5.959 2.256 9.256 2.39c1.128.047 1.664 1.296 1.089 2.196-1.233 1.928-4.094 3.276-7.055 3.276h-19.738L230 283z" mask="url(#b)"/>
            <path fill="#D8DDEA" d="M260.991 225.415c-.158-.707-1.16-.732-1.323 2.344-.147 2.782.082 6.151-.589 6.151-1.176 0-3.834-5.649-5.025-7.874-.434-.812-1.507-1.511-1.738-.621-.665 2.556 1.636 8.754 4.558 13.328 3.087 4.832 4.375 5.932 6.801 9.008 1.623 2.056 8.786 7.25-1.654 16.623-6.083 5.46-15.183 9.74-22.021 13.035 0 0 6.176 5.456 7.243 6.591 3.684-2.751 8.997-7.975 13.601-13.146C268.05 262.763 271 257.408 271 257.408c-1.038-2.554-8.244-24.084-10.009-31.993M207.734 265.031c-4.494.335 13.117 11.969 13.117 11.969L232 274.171s-15.521-9.793-24.266-9.14" mask="url(#b)" style="mix-blend-mode:multiply"/>
            <path fill="#D8DDEA" d="M344 410.536c0 13.029-23.846 31.017-53 31.454-29.267.438-53-13.183-53-26.212s106-18.27 106-5.242" mask="url(#b)"/>
            <path fill="#5581EE" d="M206 265.062s11.1-1.49 18 10.128L211.7 288l-5.7-22.938z" mask="url(#b)"/>
            <path fill="#C5CBD8" d="M236.734 421.467s20.153 6.17 54.91 4.113c37.575-2.223 70.387-13.222 86.16-21.743L400 359.763 371.378 358 157 368.578l5.257 23.8 74.477 29.089z" mask="url(#b)"/>
            <path fill="#FFAEAE" d="M208 279.03s16.839-4.355 21.575-5.598c4.154-1.09 5.794-.109 8.855 2.835 1.202 1.156 8.118 6.707 8.966 9.05 2.405 6.652 6.11 12.638 7.452 14.984.435.76-.117 1.699-.995 1.699h-3.716c-2.892 0-4.131-.861-6.13-2.944l-6.014-8.505a10.726 10.726 0 0 0-3.443-3.167L242.257 302h-25.51L208 279.03z" mask="url(#b)"/>
            <path fill="#D8DDEA" d="M275 302.97l18.33 2.025c.741.075.9-.674.31-.907-1.527-.605-18.387-7.088-18.387-7.088s.225 2.389.112 3.66a17.381 17.381 0 0 1-.365 2.31" mask="url(#b)" style="mix-blend-mode:multiply"/>
            <path fill="#2B2B51" d="M266.302 315.365c-9.918.588-112.965-.882-133.969.882-21.003 1.764-25.67 9.407-29.171 12.935-3.501 3.528-11.085 12.935-4.668 47.624 6.335 34.236 6.701 86.225 2.783 132.795a2.4 2.4 0 0 0 1.603 2.477c5.578 1.915 13.718 5.521 45.06 8.922 6.198-41.286 24.941-98.775 22.316-121.044-.31-2.629-.438-3.969-2.079-7.496-1.025-2.205-2.735-5.071-3.063-8.599-.267-2.872 1.827-4.266 4.198-3.78 8.637 1.763 28.574 5.404 44.117 4.956C228.87 384.592 335 316.247 335 316.247S310.496 310 299.776 310c-7.001 0-11.815 1.102-17.503 2.425-8.51 1.98-12.826 3.031-15.971 2.94" mask="url(#b)"/>
            <path fill="#42426C" d="M338.595 315s-82.948 18.832-102.81 24.717c-19.861 5.886-30.96 9.417-42.058 33.546-14.732 32.026-41.666 97.33-90.069 155.281a2.821 2.821 0 0 0-.44 2.9c2.427 5.81 12.692 25.576 42.9 34.556 0 0 7.859-13.852 13.728-20.892 30.668-36.782 62.503-55.026 72.434-106.227 1.771-9.132 14.603-29.425 28.624-36.487 15.772-.589 49.068-.294 85.87-17.361 36.8-17.067 43.226-62.97 43.226-62.97L338.595 315z" mask="url(#b)"/>
            <path fill="#E09595" d="M329.989 140.28L322 152.576l10.407 23.13 12.607.293 28.217-17.348 1.393-25.033L381 111l-50.572.22z" mask="url(#b)"/>
            <path fill="#D8DDEA" d="M380.069 146c.442 0 7.74-.44 14.262-1.314 6.558-.879 13.669-2.044 13.669-2.044s-11.6.73-18.4-.657C382.534 140.544 378 136 378 136l2.069 10z" mask="url(#b)" style="mix-blend-mode:multiply"/>
            <path fill="#C5CBD8" d="M261 403.255s22.685-1.112 32.094-4.449c9.41-3.336 19.914-10.898 35.888-17.792C344.957 374.119 378 365 378 365s-15.537 26.244-39.39 35.363c-18.8 7.188-47.85 9.12-77.61 2.892" mask="url(#b)"/>
            <path fill="#D8DDEA" d="M272.092 269.372c6.828 11.418 7.324 8.757 6.718 7.205C278.204 275.026 271 258 271 258l1.092 11.372zM386.446 167.162l28.3-13.077c.586-.271 1.262.142 1.254.77-.027 2.127-1.077 6.346-8.445 8.59-7.782 2.37-17.728 4.325-18.933 4.477-2.236.284-3.286-.265-2.176-.76M375.883 147.008c3.662.15 17.162.375 17.162.375 1.244.009 2.563.615 1.652 1.497 0 0-19.101 20.072-22.261 21.944-3.16 1.872 11.848-11.683 13.07-18.947.517-3.083-13.286-5.019-9.623-4.869M306.806 159.498c-.453.372.124.786 1.346.235 3.467-1.562 8.467-4.177 11.446-7.047 5.202-5.013 10.351-13.174 7.667-11.451-3.445 2.036-6.885 3.81-9.89 5.615-8.023 4.82-14.335 7.655-14.375 7.489 0 0 12.303-4.538 12.765-3.382.299.748-5.106 5.37-8.96 8.54" mask="url(#b)" style="mix-blend-mode:multiply"/>
            <path fill="#638FFA" d="M360.47 211.493l-.377 1.712c-.569 2.584 1.552 4.98 4.235 4.784l27.156-1.992c3.712-.272 6.873-2.752 7.967-6.247L400 208l-39.53 3.493z" mask="url(#b)"/>
            <path fill="#D8DDEA" d="M286.914 173.002c-1.035-.038-1.264.495-.307.89 4.002 1.652 10.401 3.145 13.5 3.107 5.543-.065 6.893-2.823 6.893-2.823l-20.086-1.174z" mask="url(#b)" style="mix-blend-mode:multiply"/>
            <path fill="#638FFA" d="M339.414 175.465c-.661.334-.431.95 0 1.555l12.364 18.212a1.877 1.877 0 0 0 2.672.367c5.001-3.94 18.133-17.173 22.703-31.088 4.734-14.415 4.065-21.687 3.321-25.627a6.618 6.618 0 0 0-2.33-3.895l-2.284-1.863a.554.554 0 0 0-.899.35c-.538 3.654-1.39 13.01-10.191 22.226-8.475 8.874-14.665 14.366-25.356 19.763M336.765 174.781c.566.41-.006 1.057-.504 1.554l-16.022 17.09c-1.291 1.258-3.418.315-3.418-1.515L316 173.005c0-8.09 2.155-20.197 11.065-32.479 1.204-1.659 2.086-2.863 2.658-2.441 0 0-2.155 7.842-1.868 18.052.153 5.401 2.156 13.761 8.91 18.644" mask="url(#b)"/>
            <path fill="#D8DDEA" d="M430.556 193l-24.284 41.533c-1.138 1.947-2.084 4.877-.2 6.098 1.532.994 3.498-.209 4.893-1.392A136.885 136.885 0 0 0 433 215.514L430.556 193zM481.742 220.836c-1.322-3.951-5.01-13.408-8.824-20.469-7.514-13.914-5.292-24.769-14.112-38.923-3.093-4.963-7.617-11.011-11.806-13.444 0 0 4.594 7.778 3.859 29.156C450.745 180.467 485 256 485 256s-1.397-29.601-3.258-35.164M424.726 231.946c-12.635 12.73-52.334 41.673-50.676 42.118 2.2.591 6.246-1.452 14.08-4.434 9.901-3.768 15.915-6.945 15.841-5.394-.079 1.686-8.669 8.4-14.813 13.891-4.039 3.61-7.882 6.03-7.627 6.799.21.637 2.623-.586 5.06-1.478 11.514-4.212 14.667-1.995 6.894 13.965C387.719 309.251 382.778 315 382.778 315l11.293-2.808c.367-9.015 5.247-20.58 9.534-32.734 4.327-12.266 8.947-23.128 8.947-23.128s4.303-6.16 8.727-12.857c1.573-2.381 2.992-5.071 4.473-7.242 5.647-8.276 6.014-11.38-1.026-4.285" mask="url(#b)" style="mix-blend-mode:multiply"/>
            <path fill="#D8DDEA" d="M435.987 314.308c-.587-9.442-21.096-3.826-59.185-1.766-36.906 1.996-60.782-1.022-59.771 9.42.954 9.85 27.858 11.379 60.65 8.83 6.286-.489 12.038-1.045 17.288-1.547 3.441-.33 3.765 1.131 3.111 3.093-1.965 5.902-5.444 15.912-9.851 25.83-7.325 16.484-12.013 24.431-16.408 26.492-4.395 2.06-14.174.993-16.701 10.486-2.93 11.005 8.189 13.37 12.892 12.768 4.029-.515 14.943-3.533 22.267-13.247 4.173-5.533 16.349-25.726 32.416-68.68a2.975 2.975 0 0 1 1.891-1.8c7.913-2.455 11.667-5.602 11.4-9.88" mask="url(#b)"/>
            <path fill="#2B2B51" d="M130 555.726L177 526s-18.355 18.256-26.347 32.318c-1.719 3.026-5.5 4.403-8.764 3.31-6.623-2.216-11.889-5.902-11.889-5.902" mask="url(#b)"/>
            <path fill="#C5CBD8" d="M375.814 396.567c.664 2.062-.507 4.375-2.613 5.167-2.107.79-4.352-.24-5.015-2.301-.664-2.062.507-4.375 2.614-5.167 2.105-.79 4.351.24 5.014 2.301" mask="url(#b)"/>
            <path fill="#423748" d="M322.696 104.784s-2.416-2.204-2.855-8.155c-.779-10.552-1.113-13.032-.586-18.586.255-2.683.357-12.533 6.807-20.277 4.68-5.618 10.303-9.166 22.397-11.02 28.764-4.407 41.06 11.902 43.695 17.632 2.635 5.73 2.415 16.53-.44 27.77-2.854 11.24-9.66 17.852-9.66 17.852l-59.358-5.216z" mask="url(#b)"/>
        </g>
        <g transform="translate(410 115)">
            <mask id="e" fill="#fff">
                <use xlink:href="#c"/>
            </mask>
            <path fill="url(#d)" d="M1.161 40.11c-.204 22.09 9.11 39.964 23 40.847 16.32 1.038 31.609-16.95 35.991-46.578C65.141.66 47.17 2.454 30.862 1.246A84.283 84.283 0 0 0 24.644 1c-27.819.002-23.28 17.048-23.483 39.11" mask="url(#e)"/>
        </g>
        <path fill="#423748" d="M412 122.833s3.508 9.85 13.156 16.636c6.837 4.807 15.434 6.318 19.864 6.791.767.082 1.125-.915.483-1.34-1.83-1.21-4.276-2.953-5.875-4.576-4.239-4.305-5.263-6.566-5.263-6.566s11.257 4.815 25.686 2.728c.643-.093.823-.939.268-1.278-1.286-.785-3.088-1.998-4.575-3.42-2.3-2.201-3.837-4.16-3.837-4.16 2.412-.875 6.25-3.173 9.136-2.188 0 0 5.41 1.313 6.286 8.318.5 3.99 0 8.609 0 14.154 0 2.854 1.237 5.655 2.924 4.961L478 113.86s-17.542-15.76-38.372-10.944C418.798 107.73 412 122.833 412 122.833"/>
        <path fill="#FFAEAE" d="M476.087 152.812c-2.406 8.2-6.748 12.623-8.028 12.154-1.28-.468-1.668-3.03.372-9.04 2.04-6.008 3.295-14.345 7.015-12.72 1.25.548 2.429 3.512.641 9.606"/>
        <path fill="#2B2B51" d="M473.045 171.331l4.966 5.758c.87.861 1.722 1.008 2.447.861 1.228-.251 1.943-.608 2.547-.925L485 139.772 479.38 126c-.725.036-2.103.444-3.046.999-.419.247-.76.591-.836 1.063l-4.433 36.555c-.297 2.452.43 4.917 1.98 6.714"/>
        <path fill="#42426C" d="M476.045 170.235l5.394 6.227c.916 1.057 2.553.464 2.705-.98L488 138.82l-7.249-12.209c-.62-1.044-2.102-.68-2.252.554l-4.434 36.386c-.297 2.44.43 4.895 1.98 6.684"/>
        <path fill="#E09595" d="M483.442 133.04s-1.459-1.759-2.37-3.558c-.91-1.8-2.215-5.877.837-6.436 1.843-.337 2.635 1.23 4.324 3.081C487.92 127.978 498 137 498 137l-14.558-3.96z"/>
        <path fill="#FFAEAE" d="M499.77 192.78c-4.97-5.273-11.56-6.078-15.757-18.49.423-3.824 1.62-16.843 2.038-19.863-1.261-.471-2.638-.888-3.732-.971-1.435-.11-3.535.868-5.853 1.098-1.105.11-3.093.22-4.639-.659-1.432-.813-1.005-3.278 1.104-3.734 2.54-.55 5.138-1.655 8.174-2.856 1.643-.65 4.286-.886 5.964-.33 3.313 1.099 6.92 1.883 8.946 2.746l-7.18-4.283c-1.104-.66-2.478-.786-3.768-.414-2.195.633-5.331 1.523-7.386 2.061-2.099.55-3.777.96-5.744.66-2.98-.458-4.034-3.27-1.546-4.614 1.265-.683 3.127-.927 4.639-1.648 3.107-1.481 6.406-3.515 6.406-3.515s-2.343.569-4.418.66c-1.878.082-3.542-.363-4.528-1.209-1.168-1.002-.891-2.645.552-3.185l10.44-3.861a5.859 5.859 0 0 1 4.988.414l7.86 4.547a8.325 8.325 0 0 1 3.003 2.976l7.757 13.15a9.928 9.928 0 0 1 1.185 3.092l1.96 12.49a39.703 39.703 0 0 0 1.974 6.706L517 184.541s-12.26 13.51-17.23 8.238"/>
        <path fill="#E09595" d="M497 182s-7.2-1.338-9.416-18.285c-1.994 1.635-2.584 5.277-2.584 5.277s.923-9.403 1.452-13.992l6.733 5.022c.98.73 1.54 1.896 1.501 3.123 0 0-.345 8.932-.273 12.16C494.491 178.8 497 182 497 182"/>
        <path fill="#638FFA" d="M532.542 206.937c-4.639-13.228-4.319-18.342-4.469-19.85a2.067 2.067 0 0 0-1.135-1.658c-1.349-.67-3.903-1.757-7.008-2.213-4.04-.594-9.135.1-12.176 1.33-12.611 5.099-11.741 11.75-11.741 11.75s1.951 6.576 6.517 21.704c9.348-5.514 19.722-8.572 30.47-9.842a38.825 38.825 0 0 1-.458-1.221"/>
        <path fill="#D8DDEA" d="M527.867 194.835c.275 1.655.11 3.07-.37 3.16-.479.092-1.09-1.175-1.364-2.829-.275-1.655-.11-3.07.37-3.161.478-.092 1.09 1.176 1.364 2.83" style="mix-blend-mode:multiply"/>
        <path fill="#5581EE" d="M571.186 281.272c-6.13-18.476-32.768-58.654-38.206-73.39-.119-.324-8.443-2.532-19.595 1.576-6.568 2.42-11.41 6.92-11.385 7.001 3.503 11.438 10.071 72.732 20.58 96.926 14.887 34.272 25.836 32.114 30.652 31.234 4.817-.88 11.304-2.427 19.705-21.116 6.13-13.637 5.144-21.447-1.751-42.23"/>
        <path fill="#D8DDEA" d="M538.089 230.85l18.028 58.826c.157.512.903.385.883-.152-.253-6.344-1.792-20.353-5.886-33.52-3.263-10.498-7.627-19.916-11.167-25.927-1.332-2.26-2.243-.45-1.858.773M545.989 345c.107-1.722-.54-6.891-2.64-11.06-4.812-9.544-15.712-27.716-20.152-33.838-1.813-2.186 9.44 31.539 10.987 34.145.767 1.293 4.478 8.085 11.805 10.753M574.119 299.277c-.263 2.118-1.157 19.979-5.502 23.005-2.556 1.78-6.07-15.043-7.589-13.937-.993.723-.533 10.028-.796 19.832-.138 5.195-.867 12.975-1.232 14.823 8.881-4.63 16.203-23.873 16.73-26.86 1.065-8.532-1.348-18.98-1.611-16.863M502 216.84s6.405-6.387 15.089-8.514c10.86-2.66 15.79-.494 15.79-.494l1.121 2.85s-5.467-.38-13.631 5.017c-2.816 1.862-5.274 4.045-6.852 5.853-.575.659-1.459.722-.808-.715.88-1.945 2.616-4.79 4.38-6.962 2.405-2.965-.418-2.592-2.114-2.205-2.333.533-4.957 1.445-9.026 3.628-1.06.568-2.145 1.099-3.306 1.383l-.643.158z" style="mix-blend-mode:multiply"/>
        <path fill="#C5CBD8" d="M310 350H161.799c-4.033 0-7.551-2.766-8.544-6.716 0 0-4.725-15.375-12.594-46.302-7.764-30.512-14.467-50.056-14.467-50.056-.94-3.744 1.534-8.926 7.508-8.926h140.485c8.11 0 12.387 5.154 13.553 11.045L310 350z"/>
        <path fill="#E9EEFB" d="M308 349H159.281a8.85 8.85 0 0 1-8.573-6.688S145.966 327 138.068 296.2c-7.79-30.387-11.884-49.851-11.884-49.851-.944-3.728 1.865-7.349 5.699-7.349h142.093c5.534 0 10.335 3.832 11.576 9.242L308 349z"/>
        <path fill="#D8DDEA" d="M358.814 357H167.186c-4.52 0-8.186-3.582-8.186-8h208c0 4.418-3.665 8-8.186 8M214.406 307.274c.125.327.13.459.232.506.047.021 1.373.423 1.38.086.103-3.61 9.308-7.352 10.213-4.255.736-1.313 1.508-2.626 1.712-4.247-.009-.227.057-.3.057-.3-1.085-2.824-16.691-.007-13.594 8.21M228 294.876v-.005a13.937 13.937 0 0 0-1.723-4.685c-5.242-5.8-22.97.174-15.442 15.164.23.46.508.719.625.634.118-.084.685-.136.584-.585-2.664-11.732 11.548-14.533 15.955-10.523m-5.854-8.39c.111.043 1.054.446.817.2a3.218 3.218 0 0 0-.846-.65c-15.893-8.472-25.952 11.658-13.587 20.8.47.351.8.598.901.603.14.01 2.874 1.813.727-1.1-8.147-11.024-.962-25.757 11.988-19.852"/>
        <path fill="#C5CBD8" d="M226.135 290.535c-.762 3.088-10.83-2.229-12.541-5.162-.177-.316-.317-.39-.368-.37-.103.032-.168.15-.207.494-.514 4.34 9.728 12.196 14.981 10.177a1.457 1.457 0 0 0-.06-.37 14.421 14.421 0 0 0-1.806-4.77m-15.407-3.787c.044-.44.08-.62-.037-.724-.118-.104-.337.16-.595.559-5.051 7.956 8.569 20.043 16.466 16.911a11.852 11.852 0 0 0 1.439-4.462v-.004c-4.179 3.477-18.02-4.67-17.273-12.28m-1.57-1.073c.332-.334.657-.652.522-.673-.1-.016-.441.154-.904.434-8.659 5.246-5.087 21.555 7.044 24.5l.001.011c.349.032.702.054 1.048.054 1.389 0 2.75-.234 4.022-.694 1.114-.435 1.735-.769 2.774-1.458.114-.08.227-.164.336-.248-10.07 3.263-23.414-12.914-14.843-21.927"/>
    </g>
</svg>
