<svg xmlns="http://www.w3.org/2000/svg" xmlns:xlink="http://www.w3.org/1999/xlink" width="413" height="475" viewBox="0 0 413 475">
    <defs>
        <path id="a" d="M0 474.2h412.2V0H0z"/>
        <path id="c" d="M.93 32.074C.765 49.74 8.22 64.032 19.338 64.74c13.061.83 25.298-13.554 28.806-37.247C52.138.528 37.754 1.962 24.702.996A67.52 67.52 0 0 0 19.725.8C-2.541.8 1.092 14.432.929 32.074"/>
        <radialGradient id="d" cx="3.161%" cy="240.525%" r="257.914%" fx="3.161%" fy="240.525%" gradientTransform="scale(1 .75068) rotate(-80.809 .5 2.805)">
            <stop offset="0%" stop-color="#FFE8E8"/>
            <stop offset="100%" stop-color="#FDACAC"/>
        </radialGradient>
    </defs>
    <g fill="none" fill-rule="evenodd">
        <path fill="#D8DDEA" d="M75.236 83.965h2.402V23.99h-2.402z"/>
        <g transform="translate(0 .8)">
            <path fill="#D8DDEA" d="M80.313 75.168h-6.952a.528.528 0 0 1-.526-.53v-42.12c0-.294.236-.531.526-.531h6.952c.29 0 .526.237.526.53v42.12c0 .294-.236.531-.526.531"/>
            <mask id="b" fill="#fff">
                <use xlink:href="#a"/>
            </mask>
            <path fill="#D8DDEA" d="M100.849 143.14h2.401V83.165h-2.401z" mask="url(#b)"/>
            <path fill="#D8DDEA" d="M105.925 134.343h-6.951a.528.528 0 0 1-.526-.53v-42.12c0-.294.235-.531.526-.531h6.951c.29 0 .527.237.527.53v42.12c0 .294-.236.531-.527.531M126.461 93.56h2.401V33.587h-2.4z" mask="url(#b)"/>
            <path fill="#D8DDEA" d="M131.538 85.564h-6.952a.528.528 0 0 1-.526-.53V42.912c0-.294.235-.53.526-.53h6.952c.29 0 .526.236.526.53v42.12c0 .294-.236.531-.526.531M152.074 111.153h2.4V51.178h-2.4z" mask="url(#b)"/>
            <path fill="#D8DDEA" d="M157.15 103.157H150.2a.528.528 0 0 1-.527-.531v-42.12c0-.294.236-.531.527-.531h6.951c.29 0 .526.237.526.53v42.12c0 .294-.236.532-.526.532M178.486 95.16h2.402V35.185h-2.402z" mask="url(#b)"/>
            <path fill="#D8DDEA" d="M182.763 86.364h-6.952a.528.528 0 0 1-.526-.531v-42.12c0-.294.235-.531.526-.531h6.952c.29 0 .526.237.526.53v42.12c0 .294-.236.532-.526.532M204.099 99.158h2.401V39.184h-2.401z" mask="url(#b)"/>
            <path fill="#D8DDEA" d="M208.375 91.162h-6.952a.528.528 0 0 1-.526-.531V48.51c0-.294.236-.531.526-.531h6.952c.29 0 .526.237.526.53v42.12c0 .294-.236.532-.526.532M229.711 71.97h2.401V11.995h-2.4z" mask="url(#b)"/>
            <path fill="#D8DDEA" d="M233.987 63.973h-6.951a.529.529 0 0 1-.526-.53v-42.12c0-.294.236-.532.526-.532h6.951c.291 0 .527.238.527.531v42.12c0 .294-.236.531-.527.531M255.324 60.774h2.4V.8h-2.4z" mask="url(#b)"/>
            <path fill="#D8DDEA" d="M259.6 52.778h-6.952a.528.528 0 0 1-.526-.531v-42.12c0-.294.235-.531.526-.531h6.952c.29 0 .526.237.526.53v42.121c0 .293-.236.53-.526.53M280.936 74.369h2.401V14.394h-2.401z" mask="url(#b)"/>
            <path fill="#D8DDEA" d="M285.212 65.572h-6.951a.528.528 0 0 1-.527-.53v-42.12c0-.294.236-.531.527-.531h6.951c.29 0 .526.237.526.53v42.12c0 .294-.236.531-.526.531M306.548 70.37h2.402V10.396h-2.402z" mask="url(#b)"/>
            <path fill="#D8DDEA" d="M310.825 61.574h-6.952a.529.529 0 0 1-.526-.53v-42.12c0-.294.236-.532.526-.532h6.952c.29 0 .526.238.526.531v42.12c0 .294-.235.531-.526.531M332.16 60.774h2.402V.8h-2.401z" mask="url(#b)"/>
            <path fill="#D8DDEA" d="M336.437 51.978h-6.952a.528.528 0 0 1-.526-.53V9.327c0-.294.236-.532.526-.532h6.952c.29 0 .526.238.526.531v42.12c0 .294-.236.531-.526.531M357.773 83.965h2.401V23.99h-2.4z" mask="url(#b)"/>
            <path fill="#D8DDEA" d="M362.05 75.168h-6.952a.529.529 0 0 1-.526-.53v-42.12c0-.294.236-.531.526-.531h6.951c.29 0 .527.237.527.53v42.12c0 .294-.236.531-.527.531M383.386 59.975h2.4V0h-2.4z" mask="url(#b)"/>
            <path fill="#D8DDEA" d="M387.662 51.178h-6.952a.529.529 0 0 1-.526-.53V8.528c0-.294.236-.531.526-.531h6.952c.29 0 .526.237.526.53v42.12c0 .294-.235.531-.526.531" mask="url(#b)"/>
            <path stroke="#E9EEFB" stroke-width="1.6" d="M412.2 50.379l-27.74 13.818-25.635 7.586-25.577-7.173-25.695 9.879-25.636 3.998-25.636-13.407-25.636 11.29-25.694 22.698-25.578-.058-25.635 16.406-25.695 9.761-25.577 17.163-25.636-5.116-29.607 3.293" mask="url(#b)"/>
            <path stroke="#E9EEFB" stroke-width="1.6" d="M47.223 114.352l29.607-10.607 25.636-5.716 25.577-12.198 25.695-12.375 25.635-9.37L204.952 47.3l25.694-5.9 25.635-3.182 25.637 1.178 25.636-4.243h51.272l25.636-3.3 27.738-3.064" mask="url(#b)"/>
            <path fill="#E09595" d="M320.944 82.577c.254 2.22-3.728 1.11-3.728 1.11l-1.863-6.321 3.219-.598s2.118 3.587 2.372 5.809M328.159 83.165l-4.557-.423-1.046-6.774 4.74 4.113z" mask="url(#b)"/>
            <path fill="#D8DDEA" d="M317.024 290.278l40.75-93.038-20.054-11.718-47.18 104.756z" mask="url(#b)"/>
            <path fill="#E09595" d="M82.528 407.828s-.935 7.086-2.806 8.74c-1.87 1.653-16.017 8.74-25.955 11.101-9.999 2.377-14.03 3.307-20.343 3.543-6.314.237-11.401-1.175-12.334 1.004-.936 2.185.409 6.319 5.085 7.736 1.445.437 5.3 2.768 9.821 3.306 10.114 1.206 25.438.932 37.88 3.543 18.005 3.78 23.323 4.937 28.762 3.78 4.443-.945 4.91-4.015 4.21-8.267-.583-3.526 2.805-31.415 2.805-31.415l-27.125-3.07z" mask="url(#b)"/>
            <path fill="#2B2B51" d="M107.252 433.305c-11.31 1.054-28.04.118-36.664-5.771-2.116-1.446 1.162-4.184-.56-6.111-5.056 2.266-11.177 3.943-16.218 5.122-9.999 2.34-13.562 2.906-20.343 3.487-6.294.539-11.401-.46-12.334 1.685-.935 2.15.038 6.362 4.56 8.193 2.682 1.086 6.264 2.375 10.346 2.673 10.157.741 25.438.916 37.88 3.486 18.006 3.72 23.323 4.857 28.762 3.72 4.443-.93 4.91-3.952 4.209-8.136-.177-1.052.013-4.316.362-8.348" mask="url(#b)"/>
            <path fill="#FFAEAE" d="M84.136 423.022s-7.678 6.831-10.949 8.487c-3.727 1.885-8.153 3.771-17.937 6.836-9.784 3.065-14.91 4.95-26.091 5.657-11.182.708-24.227 0-27.488 3.773-3.284 3.796-1.398 10.608 2.795 15.322 5.514 6.201 14.87 11.496 30.051 11.08 8.62-.235 9.318-.235 24.926-3.3 14.04-2.756 18.17-1.415 22.83-6.365 2.283-2.427 5.59-13.201 7.92-16.266 2.33-3.065 7.454-6.6 7.454-6.6l-13.51-18.624z" mask="url(#b)"/>
            <path fill="#42426C" d="M63.946 440.893c-2.413-2.755-6.297-2.343-4.285-4.277-.616.196-3.682 1.259-4.344 1.465-9.796 3.047-15.51 3.632-26.706 4.335-11.195.703-23.673 1.289-26.938 5.039-3.288 3.774-1.4 10.546 2.798 15.232 5.521 6.164 11.546 10.311 26.939 11.366 8.613.59 12.478-.586 28.105-3.633 14.056-2.74 18.192-1.406 22.857-6.327 1.414-1.493 3.945-7.857 5.67-11.922-6.143 1.199-12.51 1.68-19.373.967-5.073-.528.408-6.386-4.723-12.245" mask="url(#b)"/>
            <path fill="#C5CBD8" d="M208.097 247.575c-.275-7.524-16.781-3.481-47.265-2.632-29.537.824-48.556-2.073-47.964 6.254.56 7.856 22.03 9.628 48.29 8.28 5.035-.257 9.642-.581 13.848-.871 2.758-.19 2.987.978 2.424 2.524-1.694 4.654-4.68 12.544-8.407 20.342-6.194 12.96-10.104 19.185-13.66 20.733-3.555 1.548-11.347.497-13.563 7.995-2.568 8.693 6.27 10.804 10.04 10.423 3.23-.326 12.015-2.5 18.07-10.075 3.448-4.315 13.595-20.126 27.323-53.96a2.371 2.371 0 0 1 1.549-1.39c6.374-1.79 9.44-4.216 9.315-7.623" mask="url(#b)"/>
            <path fill="#5581EE" d="M264.382 111.652s-4.454 2.362-13.457 7.71c-15.898 9.446-31.176 9.352-41.006 18.298-9.829 8.947-17.866 33.912-21.771 40.561-6.085 10.359-14.745 15.892-22.468 28.958l4.923 23.242 24.294-2.144a7.424 7.424 0 0 0 4.281-1.846c3.794-3.369 12.41-11.521 17.762-20.495 0 0 1.397 14.31 2.333 25.14.447 5.174 1.228 9.69.468 11.065-1.12 2.027-1.592 3.736-1.592 3.736a4.653 4.653 0 0 0 .95 5.07l.65.663 95.483 1.883.303-3.365a59.03 59.03 0 0 1 2.986-13.934c1.923-5.571 10.693-29.187 11.798-31.134 1.873-3.296 12.521-16.127 17.201-30.724l43.07 29.716s0-21.189-12.17-43.79c-5.983-11.11-4.213-19.776-11.233-31.077-5.163-8.309-11.229-15.78-27.85-15.539-32.53.471-39.734-7.29-39.734-7.29l-35.22 5.296z" mask="url(#b)"/>
            <path fill="#D8DDEA" d="M234.514 208.24s24.002-.371 45.315-4.535c9.207-1.8 26.135-5.389 26.135-5.389 1.338.087.06 1.574-.67 2.103-4.27 3.101-13.193 8.536-31.766 11.773-25.81 4.496-39.014-3.952-39.014-3.952" mask="url(#b)" style="mix-blend-mode:multiply"/>
            <path fill="#E86A46" d="M266.309 246.697a1.08 1.08 0 0 0 1.552.13l5.046-4.467c.637-.563 1-1.367 1-2.212l1.426-28.934c0-4.929-2.317-54.48-2.317-54.48l-11.29 84.272 4.583 5.69z" mask="url(#b)"/>
            <path fill="#FF7E59" d="M265.413 156.877s-7.816 31.01-12.512 50.346c-3.986 16.41-3.23 20.633-2.635 33.253.082 1.764-2.946 4.939-2.946 6.54 0 1.77 1.057 2.3 2.996 3.715l17.74 4.362s-2.937-4.716-2.585-6.308c.631-2.848 1.939-5.129 1.939-6.544 0-8.63-.717-20.355-.47-26.293.803-19.343 5.228-44.096 5.992-60.014l-7.52.943z" mask="url(#b)"/>
            <path fill="#E86A46" d="M264.928 156.813s2-.485 4.055-.084c2.14.419 3.65 1.604 3.65 1.604l.3-4.798-7.667 1.918-.338 1.36z" mask="url(#b)"/>
            <path fill="#FF7E59" d="M266.513 144.238c-1.913.332-2.874 2.15-2.99 3.172-.405 3.601-.205 6.122.834 8.56.436 1.021 1.274.162 3.473-.19 3.894-.622 5.254 2.065 5.804.403.865-2.613 1.228-4.468 1.618-7.09.409-2.758-.764-4.427-2.476-4.8-1.863-.407-3.65-.51-6.263-.055" mask="url(#b)"/>
            <path fill="#E09595" d="M184.09 226.305l14.744 8.906s4.77 1.805 7.409 1.912c.902.037 1.33 1.036.87 1.756-.986 1.541-3.276 2.62-5.646 2.62H185.67l-1.58-15.194z" mask="url(#b)"/>
            <path fill="#D8DDEA" d="M208.894 180.256c-.126-.565-.928-.585-1.059 1.874-.118 2.225.066 4.92-.471 4.92-.941 0-3.07-4.518-4.022-6.297-.348-.65-1.207-1.209-1.392-.497-.532 2.044 1.31 7 3.649 10.658 2.47 3.864 3.501 4.744 5.443 7.203 1.3 1.645 7.032 5.798-1.324 13.293-4.869 4.367-12.152 7.789-17.625 10.424 0 0 4.943 4.362 5.797 5.27 2.949-2.2 7.202-6.377 10.886-10.512 5.768-6.47 8.129-10.753 8.129-10.753-.831-2.042-6.598-19.258-8.01-25.583M166.268 211.936c-3.598.268 10.498 9.57 10.498 9.57l8.924-2.261s-12.423-7.831-19.422-7.31" mask="url(#b)" style="mix-blend-mode:multiply"/>
            <path fill="#D8DDEA" d="M275.333 328.29c0 10.42-19.086 24.804-42.42 25.153-23.425.35-42.42-10.542-42.42-20.96 0-10.42 84.84-14.611 84.84-4.192" mask="url(#b)"/>
            <path fill="#5581EE" d="M164.88 211.96s8.884-1.19 14.407 8.1l-9.845 10.243-4.562-18.343z" mask="url(#b)"/>
            <path fill="#C5CBD8" d="M189.48 337.032s16.13 4.934 43.948 3.289c30.074-1.778 56.338-10.574 68.961-17.387l17.766-35.245-22.909-1.41-171.585 8.46 4.208 19.031 59.61 23.262z" mask="url(#b)"/>
            <path fill="#FFAEAE" d="M166.48 223.13s13.478-3.482 17.269-4.476c3.325-.872 4.638-.087 7.088 2.267.962.924 6.497 5.363 7.175 7.237 1.925 5.319 4.89 10.106 5.965 11.982a.909.909 0 0 1-.796 1.358h-2.975c-2.314 0-3.306-.688-4.906-2.354l-4.813-6.8a8.582 8.582 0 0 0-2.756-2.534l6.169 11.688H173.48l-7-18.368z" mask="url(#b)"/>
            <path fill="#D8DDEA" d="M220.107 242.275l14.67 1.618c.594.06.722-.539.25-.725-1.223-.484-14.718-5.668-14.718-5.668s.18 1.91.09 2.927c-.09 1.017-.292 1.848-.292 1.848" mask="url(#b)" style="mix-blend-mode:multiply"/>
            <path fill="#2B2B51" d="M213.145 252.186c-7.939.47-90.416-.706-107.227.705-16.81 1.41-20.547 7.523-23.349 10.344-2.802 2.82-8.872 10.343-3.735 38.083 5.07 27.377 5.363 68.951 2.227 106.191a1.92 1.92 0 0 0 1.283 1.981c4.464 1.531 10.98 4.415 36.065 7.135 4.961-33.016 19.963-78.987 17.862-96.795-.248-2.102-.35-3.173-1.664-5.994-.821-1.763-2.189-4.055-2.452-6.876-.213-2.297 1.462-3.412 3.36-3.024 6.913 1.41 22.87 4.322 35.31 3.964 12.36-.356 97.305-55.01 97.305-55.01s-19.613-4.994-28.193-4.994c-5.604 0-9.456.881-14.01 1.939-6.81 1.583-10.265 2.424-12.782 2.35" mask="url(#b)"/>
            <path fill="#42426C" d="M271.007 251.894s-66.39 15.06-82.287 19.766c-15.897 4.706-24.78 7.53-33.664 26.824-11.79 25.611-33.349 77.832-72.09 124.173a2.254 2.254 0 0 0-.351 2.319c1.942 4.647 10.158 20.452 34.336 27.633 0 0 6.29-11.077 10.988-16.706 24.546-29.413 50.027-44.002 57.975-84.946 1.418-7.302 11.688-23.53 22.91-29.177 12.624-.471 39.274-.235 68.73-13.884 29.454-13.647 34.597-50.355 34.597-50.355l-41.144-5.647z" mask="url(#b)"/>
            <path fill="#E09595" d="M264.119 112.176l-6.394 9.834 8.33 18.497 10.09.234 22.585-13.873 1.114-20.018 5.104-18.087-40.477.175z" mask="url(#b)"/>
            <path fill="#D8DDEA" d="M304.202 116.75c.354 0 6.195-.351 11.415-1.05a441.106 441.106 0 0 0 10.941-1.634s-9.285.583-14.726-.525c-5.657-1.153-9.285-4.787-9.285-4.787l1.655 7.997z" mask="url(#b)" style="mix-blend-mode:multiply"/>
            <path fill="#C5CBD8" d="M208.901 322.468s18.157-.89 25.688-3.557c7.531-2.668 15.939-8.715 28.724-14.228 12.786-5.514 39.234-12.806 39.234-12.806s-12.436 20.987-31.527 28.279c-15.047 5.747-38.299 7.292-62.119 2.312" mask="url(#b)"/>
            <path fill="#D8DDEA" d="M217.779 215.407c5.465 9.13 5.862 7.003 5.377 5.762-.485-1.241-6.251-14.856-6.251-14.856l.874 9.094zM309.307 133.674l22.65-10.458c.47-.217 1.01.114 1.004.617-.021 1.7-.862 5.073-6.76 6.868-6.228 1.895-14.189 3.458-15.153 3.58-1.79.227-2.63-.212-1.741-.607M300.852 117.557c2.931.12 13.737.3 13.737.3.995.007 2.05.491 1.322 1.197 0 0-15.289 16.051-17.818 17.548-2.528 1.497 9.483-9.343 10.46-15.152.415-2.465-10.632-4.013-7.701-3.893M245.563 127.545c-.362.298.1.628 1.078.188 2.775-1.25 6.777-3.34 9.161-5.636 4.164-4.008 8.285-10.535 6.137-9.157-2.757 1.629-5.51 3.047-7.916 4.49-6.422 3.855-11.474 6.122-11.506 5.989 0 0 9.848-3.628 10.218-2.704.239.598-4.087 4.294-7.172 6.83" mask="url(#b)" style="mix-blend-mode:multiply"/>
            <path fill="#638FFA" d="M288.516 169.124l-.302 1.369c-.455 2.066 1.242 3.982 3.39 3.825l21.735-1.593c2.97-.217 5.501-2.2 6.377-4.995l.439-1.4-31.639 2.794z" mask="url(#b)"/>
            <path fill="#D8DDEA" d="M229.642 138.343c-.828-.03-1.012.396-.245.713 3.203 1.32 8.325 2.514 10.805 2.484 4.437-.053 5.517-2.258 5.517-2.258l-16.077-.939z" mask="url(#b)" style="mix-blend-mode:multiply"/>
            <path fill="#638FFA" d="M271.663 140.313c-.53.267-.345.76 0 1.243l9.896 14.564a1.503 1.503 0 0 0 2.139.293c4.002-3.15 14.513-13.732 18.17-24.86 3.79-11.526 3.254-17.342 2.659-20.492a5.291 5.291 0 0 0-1.865-3.115l-1.828-1.49a.443.443 0 0 0-.72.28c-.43 2.922-1.113 10.403-8.157 17.773-6.783 7.097-11.737 11.489-20.294 15.804M269.542 139.766c.454.328-.004.845-.403 1.242l-12.823 13.667c-1.034 1.006-2.737.252-2.737-1.212l-.657-15.117c0-6.47 1.726-16.151 8.857-25.972.963-1.327 1.67-2.29 2.128-1.953 0 0-1.726 6.271-1.496 14.436.122 4.32 1.725 11.004 7.131 14.909" mask="url(#b)"/>
            <path fill="#D8DDEA" d="M344.612 154.335l-19.437 33.213c-.91 1.556-1.668 3.9-.16 4.876 1.226.795 2.8-.167 3.917-1.114a109.5 109.5 0 0 0 17.636-18.971l-1.956-18.004zM385.58 176.594c-1.058-3.159-4.01-10.721-7.062-16.368-6.015-11.126-4.236-19.807-11.295-31.125-2.476-3.969-6.097-8.805-9.45-10.75 0 0 3.677 6.219 3.089 23.314-.091 2.648 27.326 63.049 27.326 63.049s-1.118-23.671-2.608-28.12M339.945 185.478c-10.112 10.18-41.887 33.325-40.56 33.68 1.761.474 5-1.16 11.27-3.545 7.924-3.013 12.738-5.554 12.679-4.313-.064 1.348-6.939 6.717-11.857 11.108-3.232 2.887-6.308 4.822-6.105 5.437.17.51 2.1-.469 4.05-1.182 9.216-3.368 11.74-1.596 5.519 11.167-4.615 9.466-8.57 14.064-8.57 14.064l9.039-2.246c.293-7.209 4.199-16.456 7.63-26.176 3.463-9.809 7.161-18.495 7.161-18.495s3.445-4.925 6.985-10.28c1.26-1.905 2.395-4.056 3.58-5.792 4.52-6.617 4.814-9.1-.82-3.427" mask="url(#b)" style="mix-blend-mode:multiply"/>
            <path fill="#D8DDEA" d="M348.958 251.34c-.47-7.55-16.884-3.06-47.37-1.412-29.54 1.597-48.65-.817-47.84 7.533.763 7.877 22.297 9.1 48.543 7.061 5.032-.39 9.635-.836 13.837-1.237 2.755-.263 3.013.905 2.49 2.473-1.572 4.72-4.357 12.724-7.884 20.655-5.863 13.182-9.616 19.538-13.133 21.185-3.518 1.648-11.345.795-13.367 8.386-2.345 8.8 6.554 10.691 10.318 10.21 3.225-.412 11.96-2.825 17.823-10.593 3.34-4.425 13.085-20.572 25.945-54.92a2.38 2.38 0 0 1 1.514-1.44c6.333-1.964 9.338-4.48 9.124-7.9" mask="url(#b)"/>
            <path fill="#2B2B51" d="M104.05 444.394l37.619-23.771s-14.692 14.598-21.088 25.843c-1.376 2.42-4.402 3.521-7.014 2.647-5.302-1.771-9.517-4.719-9.517-4.719" mask="url(#b)"/>
            <path fill="#C5CBD8" d="M300.797 317.12c.531 1.649-.406 3.499-2.092 4.132-1.686.632-3.483-.191-4.014-1.84-.531-1.649.406-3.499 2.092-4.132 1.686-.632 3.483.191 4.014 1.84" mask="url(#b)"/>
            <path fill="#423748" d="M258.282 83.792s-1.934-1.763-2.285-6.521c-.624-8.439-.89-10.422-.469-14.863.204-2.145.286-10.022 5.448-16.214 3.746-4.493 8.246-7.33 17.926-8.813 23.022-3.524 32.864 9.518 34.973 14.1 2.109 4.582 1.933 13.218-.352 22.206-2.284 8.989-7.732 14.276-7.732 14.276l-47.51-4.171z" mask="url(#b)"/>
        </g>
        <g transform="translate(256.924 54.377)">
            <mask id="e" fill="#fff">
                <use xlink:href="#c"/>
            </mask>
            <path fill="url(#d)" d="M.93 32.074C.765 49.74 8.22 64.032 19.338 64.74c13.061.83 25.298-13.554 28.806-37.247C52.138.528 37.754 1.962 24.702.996A67.52 67.52 0 0 0 19.725.8C-2.541.8 1.092 14.432.929 32.074" mask="url(#e)"/>
        </g>
        <path fill="#423748" d="M258.525 60.641s2.808 7.877 10.53 13.303c5.472 3.844 12.353 5.053 15.9 5.43.613.066.9-.731.385-1.07-1.463-.969-3.422-2.362-4.702-3.66-3.393-3.443-4.212-5.251-4.212-5.251s9.01 3.85 20.558 2.181c.516-.074.66-.75.215-1.021-1.029-.628-2.472-1.598-3.662-2.735-1.84-1.76-3.07-3.326-3.07-3.326 1.93-.7 5.001-2.538 7.312-1.75 0 0 4.33 1.05 5.031 6.65.4 3.192 0 6.885 0 11.32 0 2.282.99 4.521 2.34 3.967l6.2-31.214s-14.04-12.603-30.712-8.752c-16.672 3.85-22.113 15.928-22.113 15.928"/>
        <path fill="#FFAEAE" d="M309.82 84.614c-1.926 6.557-5.401 10.094-6.426 9.72-1.025-.375-1.335-2.425.298-7.23 1.633-4.804 2.637-11.471 5.615-10.171 1 .437 1.944 2.808.513 7.681"/>
        <path fill="#2B2B51" d="M307.385 99.423l3.975 4.605c.696.688 1.378.806 1.958.688a7.001 7.001 0 0 0 2.039-.74l1.596-29.79-4.498-11.013c-.58.03-1.683.355-2.437.8-.336.197-.61.472-.67.85L305.8 94.053c-.238 1.96.344 3.932 1.585 5.37"/>
        <path fill="#42426C" d="M309.786 98.546l4.318 4.98c.732.846 2.043.371 2.165-.783l3.086-29.318-5.802-9.763c-.496-.835-1.683-.543-1.803.443l-3.548 29.097c-.239 1.951.344 3.914 1.584 5.344"/>
        <path fill="#E09595" d="M315.707 68.803s-1.168-1.406-1.897-2.845c-.729-1.44-1.773-4.7.67-5.147 1.475-.27 2.109.984 3.46 2.464 1.35 1.48 9.419 8.695 9.419 8.695l-11.652-3.167z"/>
        <path fill="#FFAEAE" d="M328.775 116.574c-3.978-4.216-9.252-4.86-12.611-14.785.338-3.058 1.296-13.468 1.63-15.884-1.009-.376-2.11-.71-2.986-.776-1.15-.088-2.83.694-4.685.878-.884.088-2.475.176-3.713-.527-1.146-.65-.804-2.621.884-2.986 2.033-.44 4.112-1.323 6.542-2.284 1.315-.52 3.43-.708 4.773-.263 2.652.878 5.54 1.505 7.16 2.196l-5.745-3.426c-.884-.527-1.985-.628-3.017-.331a286.813 286.813 0 0 1-5.912 1.648c-1.68.44-3.022.769-4.597.527-2.386-.365-3.229-2.614-1.237-3.689 1.012-.546 2.503-.741 3.713-1.317 2.487-1.185 5.127-2.81 5.127-2.81s-1.876.454-3.536.526c-1.503.066-2.835-.29-3.625-.966-.934-.801-.713-2.115.442-2.547l8.356-3.088a4.693 4.693 0 0 1 3.993.331l6.29 3.636a6.66 6.66 0 0 1 2.404 2.38l6.209 10.516c.452.765.773 1.602.948 2.472l1.569 9.988c.368 1.83.897 3.625 1.58 5.363l3.835 8.63s-9.813 10.804-13.79 6.588"/>
        <path fill="#E09595" d="M326.558 107.955s-5.763-1.07-7.536-14.623c-1.596 1.308-2.069 4.22-2.069 4.22s.739-7.519 1.163-11.188l5.389 4.015a2.993 2.993 0 0 1 1.201 2.498s-.276 7.142-.218 9.724c.062 2.794 2.07 5.354 2.07 5.354"/>
        <path fill="#638FFA" d="M355.005 127.895c-3.712-10.577-3.456-14.667-3.576-15.873a1.653 1.653 0 0 0-.909-1.325c-1.08-.536-3.123-1.405-5.609-1.77-3.234-.475-7.312.08-9.745 1.063-10.094 4.078-9.398 9.396-9.398 9.396s1.562 5.259 5.216 17.356c7.483-4.409 15.785-6.855 24.388-7.87a31.027 31.027 0 0 1-.367-.977"/>
        <path fill="#D8DDEA" d="M351.264 118.218c.22 1.324.087 2.455-.296 2.527-.384.074-.873-.94-1.092-2.262-.22-1.324-.088-2.455.296-2.528.383-.073.872.94 1.092 2.263" style="mix-blend-mode:multiply"/>
        <path fill="#5581EE" d="M385.935 187.339c-4.906-14.775-26.226-46.904-30.579-58.688-.095-.258-6.758-2.024-15.683 1.26-5.258 1.935-9.132 5.534-9.113 5.6 2.804 9.146 8.061 58.16 16.473 77.508 11.914 27.405 20.678 25.68 24.533 24.976 3.855-.704 9.047-1.94 15.771-16.885 4.907-10.906 4.118-17.151-1.402-33.771"/>
        <path fill="#D8DDEA" d="M359.445 147.018l14.43 47.041c.125.41.723.308.706-.121-.202-5.074-1.434-16.276-4.71-26.805-2.612-8.395-6.105-15.926-8.938-20.733-1.066-1.807-1.796-.36-1.488.618M365.768 238.3c.086-1.378-.431-5.51-2.113-8.844-3.851-7.633-12.575-22.164-16.129-27.06-1.452-1.748 7.556 25.22 8.794 27.305.613 1.034 3.584 6.466 9.448 8.599M388.283 201.737c-.21 1.693-.926 15.976-4.403 18.396-2.046 1.423-4.859-12.03-6.074-11.145-.795.578-.427 8.019-.637 15.859-.112 4.154-.695 10.375-.987 11.853 7.108-3.702 12.97-19.09 13.39-21.479.853-6.822-1.079-15.178-1.29-13.484M330.56 135.814s5.126-5.107 12.077-6.808c8.693-2.127 12.639-.395 12.639-.395l.896 2.28s-4.375-.305-10.91 4.011c-2.253 1.49-4.22 3.235-5.484 4.681-.46.527-1.167.577-.647-.572.705-1.556 2.094-3.83 3.506-5.567 1.925-2.371-.334-2.073-1.692-1.763-1.867.425-3.967 1.155-7.224 2.9-.848.455-1.717.88-2.646 1.107l-.515.126z" style="mix-blend-mode:multiply"/>
        <path fill="#C5CBD8" d="M176.886 242.298H58.267c-3.227 0-6.043-2.212-6.838-5.37 0 0-3.782-12.295-10.08-37.026-6.214-24.4-11.58-40.029-11.58-40.029-.752-2.993 1.228-7.137 6.01-7.137h112.442c6.492 0 9.914 4.121 10.848 8.832l17.817 80.73z"/>
        <path fill="#E9EEFB" d="M175.285 241.498H56.252a7.083 7.083 0 0 1-6.862-5.348s-3.795-12.244-10.116-36.874c-6.236-24.3-9.512-39.864-9.512-39.864-.756-2.98 1.492-5.877 4.561-5.877h113.73a9.512 9.512 0 0 1 9.265 7.39l17.967 80.573z"/>
        <path fill="#D8DDEA" d="M215.956 247.896H62.58c-3.618 0-6.552-2.865-6.552-6.398h166.48c0 3.533-2.933 6.398-6.55 6.398M100.373 208.131c.1.262.105.368.186.406.038.016 1.099.337 1.104.068.083-2.887 7.45-5.879 8.175-3.402.589-1.05 1.207-2.1 1.37-3.397-.007-.181.046-.24.046-.24-.869-2.258-13.36-.005-10.88 6.565m10.88-9.913v-.005a11.138 11.138 0 0 0-1.38-3.746c-4.195-4.638-18.383.139-12.36 12.126.186.368.408.575.501.507.095-.067.549-.109.467-.468-2.132-9.382 9.244-11.62 12.771-8.414m-4.685-6.71c.088.034.843.357.654.16a2.575 2.575 0 0 0-.678-.52c-12.72-6.775-20.772 9.323-10.874 16.634.376.28.64.478.72.482.113.008 2.301 1.45.583-.88-6.521-8.816-.77-20.597 9.595-15.875"/>
        <path fill="#C5CBD8" d="M109.76 194.746c-.609 2.47-8.668-1.782-10.037-4.128-.141-.253-.253-.312-.294-.296-.083.026-.135.12-.166.395-.411 3.47 7.787 9.753 11.99 8.139a1.164 1.164 0 0 0-.047-.297 11.526 11.526 0 0 0-1.446-3.813m-12.33-3.03c.034-.35.063-.496-.031-.578-.094-.083-.27.128-.476.447-4.043 6.362 6.858 16.028 13.18 13.523a9.472 9.472 0 0 0 1.15-3.568v-.004c-3.344 2.781-14.422-3.734-13.824-9.82m-1.257-.857c.266-.267.526-.522.418-.538-.08-.013-.353.123-.724.347-6.93 4.195-4.07 17.237 5.638 19.592l.001.008c.28.026.562.043.839.043a9.463 9.463 0 0 0 3.219-.554c.892-.348 1.389-.615 2.22-1.166.092-.064.182-.131.27-.199-8.06 2.61-18.74-10.327-11.88-17.534"/>
    </g>
</svg>
