<svg xmlns="http://www.w3.org/2000/svg" xmlns:xlink="http://www.w3.org/1999/xlink" width="631" height="460" viewBox="0 0 631 460">
    <defs>
        <linearGradient id="b" x1="8.052%" x2="94.842%" y1="90.01%" y2="16.816%">
            <stop offset="0%" stop-color="#3E6CD5"/>
            <stop offset="100%" stop-color="#578AFF"/>
        </linearGradient>
        <path id="a" d="M404.324.209H20C9.076.209.22 9.015.22 19.879v213.576c0 10.865 8.856 19.672 19.78 19.672h384.324c10.924 0 19.78-8.807 19.78-19.672V19.879c0-10.864-8.856-19.67-19.78-19.67"/>
        <path id="d" d="M0 .552h78.22V60.68H0z"/>
        <path id="f" d="M.518.552h78.22v68.955H.519z"/>
        <path id="h" d="M0 0h51.284v105.363H0z"/>
        <path id="j" d="M0 0h28.149v17.1H0z"/>
        <path id="l" d="M9.975 0c-.915 0-1.85.12-2.783.37C1.65 1.857-.588 7.973 1.037 13.456c1.038 3.501 2.755 6.841 4.842 9.297 5.694-2.274 10.643-6.184 14.352-11.2a28.894 28.894 0 0 0-.611-3.955C18.558 2.934 14.5 0 9.976 0h-.001"/>
        <radialGradient id="m" cx="-31.152%" cy="-45.845%" r="167.331%" fx="-31.152%" fy="-45.845%" gradientTransform="matrix(1 0 0 .86637 0 -.061)">
            <stop offset="0%" stop-color="#FFE8E8"/>
            <stop offset="100%" stop-color="#FDACAC"/>
        </radialGradient>
        <path id="o" d="M0 9.913c4.045 6.284 9.805 11.232 16.568 14.09 1.66-2.785 2.891-6.197 3.479-9.596 1.464-8.465 1.806-12.81-7.413-14.165A20.928 20.928 0 0 0 9.61 0C3.876 0 1.314 3.145 0 9.913"/>
        <radialGradient id="p" cx="144.147%" cy="-48.665%" r="174.269%" fx="144.147%" fy="-48.665%" gradientTransform="matrix(1 0 0 .86796 0 -.064)">
            <stop offset="0%" stop-color="#FFE8E8"/>
            <stop offset="100%" stop-color="#FDACAC"/>
        </radialGradient>
        <linearGradient id="r" x1="82.996%" x2="50%" y1="10.568%" y2="100%">
            <stop offset="0%" stop-color="#DFE4E8"/>
            <stop offset="100%" stop-color="#D2D3D3"/>
        </linearGradient>
    </defs>
    <g fill="none" fill-rule="evenodd">
        <path fill="#FFF" d="M-100-6736h3768V6244H-100z"/>
        <path fill="#ECECEC" d="M508.316 100H122.684C110.156 100 100 110.121 100 122.608v214.783C100 349.877 110.156 360 122.684 360h385.632C520.844 360 531 349.877 531 337.39V122.609C531 110.121 520.844 100 508.316 100"/>
        <g transform="translate(102.83 102.826)">
            <mask id="c" fill="#fff">
                <use xlink:href="#a"/>
            </mask>
            <use fill="url(#b)" xlink:href="#a"/>
            <g mask="url(#c)">
                <path fill-rule="nonzero" d="M58-75h425v425H58z"/>
                <path fill="#E09595" d="M344.702 85.258s.847-2.402.726-4.483c-.07-1.205 1.653.04 1.854 1.64.201 1.602-2.58 2.843-2.58 2.843M316.112 73.272s9.565-9.721 12.45-12.476c0 0-8.654-7.29-17.156-12.313l.152-6.805s8.653 3.24 16.244 6.643c7.618 3.414 12.297 6.48 13.664 8.425 1.184 1.685.534 3.919-.304 5.833-1.063 2.43-7.135 12.637-22.925 25.437l-12.904-9.559 10.78-5.185z"/>
                <path fill="#2B2B51" d="M309.712 54.366l12.197 13.872s-10.368 5.806-14.637-1.775c-4.269-7.581 2.44-12.097 2.44-12.097"/>
                <path fill="#E9EEFB" d="M283.022 31.08c7.875-4.21 24.191-4.75 28.924 8.743 3.634 10.361-4.41 16.311-3.483 20.076.757 3.076 13.325 5.828 13.931 9.39.534 3.138-5.451 9.876-11.206 11.172l-23.926 2.59s-13.909-8.584-15.748-24.124c-1.515-12.79 1.486-22.49 11.508-27.847"/>
                <path fill="#E9EEFB" d="M290.102 41.375c3.673 6.363 7.806 11.257 13.317 15.662 1.625 1.213 3.366 2.115 5.16 2.845-.535-3.806 7.157-9.764 3.565-19.976-2.961-8.415-10.408-11.41-17.54-11.467-5.1 2.192-8.745 6.327-4.502 12.936"/>
                <path fill="#DBDFE4" d="M322.394 69.288c-.605-3.562-13.174-6.314-13.932-9.39-.02-.084-.03-.17-.043-.254-1.775-.724-3.497-1.62-5.105-2.823-5.452-4.372-9.691-8.42-13.326-14.734-3.028-4.696-.44-11.472 4.605-13.647-4.344-.035-8.57 1.032-11.57 2.636-10.023 5.359-13.024 15.058-11.51 27.85 1.84 15.541 15.75 24.125 15.75 24.125l23.925-2.59c5.755-1.296 11.74-8.035 11.206-11.173"/>
                <path fill="#EE854F" d="M349.364 80.967l6.862-6.19.39.98-6.526 5.64z"/>
                <path fill="#2B2B51" d="M358.689 65.399l6.023 49.713 48.114 8.209 6.47-11.107-12.62-42.421z"/>
                <path fill="#42426C" d="M360.243 63.758l6.067 49.633 53.505-1.458-10.76-52.602z"/>
                <g transform="translate(351.954 49.953)">
                    <mask id="e" fill="#fff">
                        <use xlink:href="#d"/>
                    </mask>
                    <path fill="#24478D" d="M0 13.762L18.067 60.68l56.987-10.302 3.166-14.123L51.001.552z" mask="url(#e)"/>
                </g>
                <g transform="translate(351.436 37.817)">
                    <mask id="g" fill="#fff">
                        <use xlink:href="#f"/>
                    </mask>
                    <path fill="#2474CD" d="M.518 22.568l18.048 46.939L78.74 48.502 56.169.552z" mask="url(#g)"/>
                </g>
                <path fill="#3F3848" d="M361.797 75.328c0 .61-.464 1.103-1.036 1.103-.573 0-1.036-.493-1.036-1.103s.463-1.103 1.036-1.103c.572 0 1.036.494 1.036 1.103M366.459 87.464c0 .61-.464 1.103-1.036 1.103-.573 0-1.036-.493-1.036-1.103s.463-1.103 1.036-1.103c.572 0 1.036.494 1.036 1.103"/>
                <path fill="#2B2B51" d="M357.135 65.145l32.903-17.399 17.56 25.977 1.856 8.338-35.06 15.333z"/>
                <path fill="#42426C" d="M356.099 64.044l30.849-24.02s3.766 5.745 10.131 16.007c5.841 9.418 10.303 17.807 10.303 17.807L373.384 96.29l-17.285-32.246z"/>
                <path fill="#3F3848" d="M349.364 81.17l10.432-6.394.447.984-10.357 6.188z"/>
                <path fill="#3F3848" d="M349.364 81.221l8.012-3.135.277.631-7.773 3.23z"/>
                <path fill="#24478D" d="M364.905 72.294c0 .457-.348.828-.777.828-.43 0-.777-.371-.777-.828 0-.457.347-.827.777-.827.43 0 .777.37.777.827M370.085 82.224c0 .456-.348.827-.777.827-.43 0-.777-.37-.777-.827 0-.457.348-.828.777-.828.43 0 .777.37.777.828"/>
                <path fill="#24478D" d="M363.528 72.018s-11.144 6.063-14.328 8.662c-3.184 2.598-3.98 4.578-3.98 4.578l2.274-.372s1.487-3.327 3.725-4.67c6.594-3.96 12.65-7.208 12.65-7.208l-.341-.99z"/>
                <path fill="#E09595" d="M197.072 102.91s-1.498 1.662-.9 2.825c1.034 2.004 3.596 4.154 6.293 6.314 3.645 2.92 12.733.166 12.733.166l-18.126-9.305zM204.185 99.052c-.568-.365-2.045-2.921-1.931-5.112.113-2.191 1.287-2.03 1.855-1.299.568.73 1.78 2.881 2.916 3.611 1.136.73 2.537 2.03 4.581 1.907 2.045-.121 3.939.893 4.847 1.867.909.973 1.477 2.556 2.159 2.677.681.122 5.944 1.38 8.443 1.136 2.5-.243 6.665-.933 9.846-.567 0 0 1.438-3.895 3.028-5.843 1.59-1.947 1.55-3.577 1.743-4.95.227-1.623.454-2.84.757-4.463l3.332.446-2.045 26.292-11.7 1.947-27.831-17.65z"/>
                <path fill="#E9EEFB" d="M153.963 233.307c-.813-1.086-3.156 2.198-1.208 6.38 1.955 4.2 8.182 16.098 9.553 18.836 1.812 3.62 4.04 4.704 6.909 3.068 1.844-1.052 4.021-3.742 5.522-5.05 1.063-.925 2.19-1.719 3.162-2.537l-6.872-8.754c-1.208.982-2.627 2.228-4.229.982-4.34-3.375-10.874-10.305-12.837-12.925"/>
                <path fill="#FFAEAE" d="M171.093 245.233c-1.165.964-2.541 2.192-4.065 1.078-.199 3.705 5.225 9.827 7.525 10.507 1.515-1.278 2.356-1.938 3.348-2.762l-6.808-8.823z"/>
                <path fill="#E9EEFB" d="M233.751 286.055s-1.257 2.674-6.439 3.97c-5.182 1.296-15.851 4.457-16.232 6.401-.567 2.895 8.192 4.579 16.118 3.768 7.925-.81 14.48-1.164 15.317-2.31 1.2-1.644.783-4.573 1.543-6.259.494-1.095.667-1.357.667-1.357l-10.974-4.213z"/>
                <path fill="#FFAEAE" d="M231.127 290.535c1.915 2.22 8.2 2.62 12.87 1.624.45-1.037.728-1.75.728-1.75l-11.032-4.354s-.535 1.153-2.312 2.33c-.752.517-.853 1.456-.254 2.15"/>
                <path fill="#2B2B51" d="M171.167 245.321l7.866 10.394s11.6-8.154 24.66-21.111c4.392-4.356 7.678-9.75 12.447-14.898 12.336-13.313 25.011-28.704 33.242-43.237l3.631-28.58-16.49-4.71s-5.144 8.77-18.608 31.342c-13.465 22.571-17.398 31.827-24.66 43.032-7.262 11.205-22.088 27.768-22.088 27.768"/>
                <path fill="#42426C" d="M236.355 143.18s4.311 13.833 5.9 17.74c1.67 4.105 4.539 7.16 4.539 7.16s-2.723 30.923-3.328 43.292c-.606 12.369-.721 18.752-1.968 30.434-1.058 9.928-8.17 44.43-8.17 44.43l10.894 4.232s10.137-23.11 13.011-32.55c2.836-9.312 2.875-18.879 4.085-24.738 1.21-5.859 7.111-23.924 12.255-42.315 5.161-18.453 7.413-39.385 7.413-39.385l-44.631-8.3z"/>
                <path fill="#303030" d="M260.804 45.088s-.213-3.796.743-9.187c.514-2.902 1.144-5.928 5.087-8.341 3.258-1.995 12.154-4.156 15.89-2.237 4.002 2.055 5.145 5.017 4.517 8.28-.557 2.893-1.905 7.753-2.287 9.128-.571 2.055-1.429 5.742-2.458 5.56-1.029-.181-21.492-3.203-21.492-3.203"/>
                <path fill="#42426C" d="M220.164 108.175c-.368-.371-.407-1.025-.088-1.452l3.412-4.564c.32-.427.881-.472 1.25-.1.366.371.406 1.024.086 1.451l-3.412 4.564c-.32.427-.881.473-1.248.101"/>
                <path fill="#E09595" d="M259.23 69.269s3.064-6.193 3.214-16.558c0 0 9.645 2.326 16.47 4.316-1.354 4.254-1.072 8.998-1.072 8.998l-18.359 9.855-.254-6.611z"/>
                <path fill="#FFF" d="M242.119 89.134l1.663.163s.302 6.522.302 9.62c0 3.097-1.21 9.13-1.058 16.14.15 7.012-.907 11.903-2.42 15.98-1.512 4.075-4.687 12.553-4.687 12.553s7.603 3.17 15.877 4.891c17.238 3.588 30.999 4.077 30.999 4.077s5.897-31.794 5.14-51.848c-.669-17.758.303-32.771.303-32.771s-7.258-2.283-11.34-1.957c-15.5 6.726-17.277 6.155-17.277 6.155l-.567-4.687s-6.502.489-9.677 2.934c-2.525 1.945-4.223 4.522-5.293 8.805-1.058 4.238-1.965 9.945-1.965 9.945"/>
                <path fill="#DBDFE4" d="M249.387 123.32s24.713 7.217 30.406 9.901c1.808.852 4.067 13.269 4.067 13.269s1.977-12.72 2.824-20.146c-5.309-.122-37.297-3.023-37.297-3.023"/>
                <path fill="#2B2B51" d="M232.903 118.601c-1.015 2.22-3.54 3.146-5.609 2.056l-18.56-9.77c-2.07-1.088-2.931-3.796-1.916-6.016 1.015-2.22 3.539-3.145 5.608-2.055l18.56 9.769c2.07 1.09 2.932 3.797 1.917 6.016"/>
                <path fill="#DBDFE4" d="M273.095 96.34l-.858-1.153s-2.974 14.078-4.46 14.442c-4.867 1.191-13.728 3.762-13.728 3.762l21.239-.283-2.193-16.768z"/>
                <path fill="#E9EEFB" d="M259.747 72.323s.114 1.445.416 3.29c.302 1.847.749 3.196.749 3.196.044.267.292.437.538.363 1.55-.462 6.587-2.038 7.924-3.358 1.585-1.565 6.984-8.95 9.022-9.552l-.189-1.485c-.04-.32-.49-.482-.49-.482s-3.663 2.81-9.212 5.098c-5.549 2.288-8.758 2.93-8.758 2.93"/>
                <path fill="#FFAEAE" d="M282.795 46.992c-1.452 8.632-6.874 17.345-12.912 16.076-6.22-1.307-8.584-11.198-7.131-19.83 1.453-8.632 4.58-11.915 12.687-10.69 9.148 1.38 8.81 5.812 7.356 14.444"/>
                <path fill="#FFAEAE" d="M262.573 46.002c.276 2.732.59 5.486-.338 5.6-1.464.178-2.653-3.404-2.928-6.136-.276-2.73.206-3.679 1.134-3.783.928-.105 1.857 1.588 2.132 4.32M272.876 96.216s-.105 4.695 0 8.512c.114 4.134.912 6.809.912 6.809s-10.486.972-16.983 1.58c-6.497.608-12.538-.608-14.248-1.216-1.71-.608-1.901-1.69-4.332-2.553-2.051-.73-4.445-1.338-5.47-1.702-1.027-.365-3.306.121-6.156-.851-1.03-.352-3.42-1.095-3.533-.73-.327 1.044-.207 2.174 2.28 3.405 3.19 1.58 6.268 3.04 6.268 3.04s-13.336 3.04-14.818 3.282c-.962.158-.66 1.992.684 2.31 2.052.487 2.85.73 2.85.73s2.28 3.283 3.99 4.134c1.71.851 3.004.984 4.33 1.338 1.369.364 2.28.486 5.244.243 3.665-.3 9.347-1.702 11.968-1.46 2.622.244 9.337 2.036 15.122 3.04 6.535 1.135 12.083 1.94 17.934 2.108 5.623.162 7.218 0 9.27-1.46 2.052-1.458 2.888-3.566 3.002-6.24.114-2.676 1.064-8.39.494-15.686-.57-7.295-1.254-10.213-1.254-10.213l-17.554 1.58z"/>
                <path fill="#E9EEFB" d="M271.662 93.447l.315 2.31a.616.616 0 0 0 .661.53l10.938-1.117-1.195-2.741-10.72 1.018z"/>
                <path fill="#EE854F" d="M304.112-11.041l-3.768 8.095c-.433.932-1.49 1.31-2.36.846L285.07-8.99c-.87-.464-1.223-1.595-.79-2.527l3.768-8.095c.433-.931 1.49-1.31 2.36-.846l12.915 6.891c.87.464 1.223 1.596.79 2.527"/>
                <path fill="#FFF" d="M291.655-21.62c-1.586 0-2.87-1.361-2.87-3.04L288.52-35h-.334l-.264 10.34c0 1.679-1.284 3.04-2.87 3.04l-7.175.282v.35l7.175.281c1.586 0 2.87 1.362 2.87 3.041l.262 6.387h.337l.263-6.387c0-1.68 1.284-3.041 2.87-3.041l7.462-.273v-.367l-7.462-.272z"/>
                <path fill="#42426C" d="M208.708 102.347c-.488-.082-.827-.589-.752-1.127l.795-5.745c.075-.537.535-.91 1.023-.828.488.082.826.589.752 1.127l-.796 5.744c-.074.538-.535.911-1.022.83"/>
                <path fill="#3F3848" d="M284.297 44.48s-1.838 3.413-.766 8.938c.665 3.429 2.144 4.388 1.685 5.525-.46 1.138-2.604 1.376-2.604 5.2 0 2.276 1.532 3.738 1.225 5.526-.306 1.787-5.293 6.248-4.901 14.788.307 6.663 3.83 13 10.568 14.95 6.74 1.95 6.433-11.538 6.433-11.538l-1.684-41.276 6.586-4.876s1.99-5.037-3.523-6.012c-4.09-.723-8.118 2.925-8.118 2.925l-4.901 5.85z"/>
                <path fill="#3F3848" d="M298.246 39.471s5.02 2.451 6.085 11.437c1.19 10.046 4.283 11.737 6.695 14.214 3.499 3.595 5.018 4.5 3.651 8.17-.913 2.45-6.846 6.044-11.715 5.228 0 0-5.172-8.006-4.868-15.522.304-7.515.152-23.527.152-23.527"/>
                <path fill="#E09595" d="M293.676 108.427s-9.286-14.362-9.06-34.93l5.21-7.18-.114-6.45 11.664-2.191s-.502 8.296 1.473 12.657c2.269 5.01 11.058 9.24 13.362 12.9l-22.535 25.194zM361.737 188.182s-8.308-1.3-16.616 6.016c-6.697 5.897-17.977 22.762-20.092 25.2-2.115 2.44-3.625 4.554-6.496 5.042-2.257.383-5.891-.976-6.646 2.275-.755 3.252-1.284 15.609-.378 21.462s1.813 8.943 3.626 8.618c1.812-.326 1.884-3.513 3.248-9.593 1.057-4.715 2.266-10.568 5.589-14.308 3.323-3.74 13.113-17.017 42.297-30.892 6.157-2.926 11.408-5.552 12.992-8.78 4.23-8.617-4.23-18.047-4.23-18.047l-13.294 13.007z"/>
                <path fill="#E9EEFB" d="M319.104 224.271c-2.586.4-6.746-1.017-7.611 2.372-.865 3.39-1.47 16.267-.433 22.367 1.038 6.1 2.14 9.828 4.217 9.489 2.075-.34 2.525-5.863 4.086-12.2-.346.656-2.984-.804-2.984-6.418 0-10.866 2.843-15.628 2.725-15.61"/>
                <g transform="translate(321.391 196.137)">
                    <mask id="i" fill="#fff">
                        <use xlink:href="#h"/>
                    </mask>
                    <path fill="#FFAEAE" d="M1.036 4.62s4.578 9.12 6.431 13.498c1.591 3.757 2.835 10.457 2.616 14.104-.218 3.648.24 10.125 4.252 18.847 4.25 9.242 10.028 24.684 11.118 27.846 1.09 3.161 1.744 5.958 1.744 7.903 0 1.946-1.417 4.378-1.417 6.323 0 1.946.308 3.714 3.27 4.985 2.835 1.216 5.233 2.919 8.72 4.864 3.49 1.946 6.323 2.067 8.503 1.58 2.18-.486 4.627-1.82 3.816-3.404-.872-1.702-7.74-6.93-10.465-9.727-2.182-2.24-4.48-5.026-5.56-9.241-1.09-4.256-7.32-37.35-8.502-43.896-1.07-5.928-2.686-12.361-3.597-17.51-.551-3.115-.793-7-1.635-11.064C19.675 6.567 18.368 0 18.368 0L1.036 4.62z" mask="url(#i)"/>
                </g>
                <g transform="translate(345.044 284.4)">
                    <mask id="k" fill="#fff">
                        <use xlink:href="#j"/>
                    </mask>
                    <path fill="#E9EEFB" d="M27.418 13.25c-.729-1.404-5.425-5.113-8.78-8.046 1.147 1.007.46 4.706-6.03 2.1C6.12 4.698 3.072-.648 3.067-.598 2.913.915 1.73 2.849 1.73 4.878c0 2.03.325 3.875 3.456 5.201 2.995 1.27 5.53 3.045 9.216 5.074 3.686 2.03 6.681 2.157 8.985 1.65 2.304-.508 4.889-1.9 4.031-3.553" mask="url(#k)"/>
                </g>
                <path fill="#42426C" d="M305.12 76.473c-1.595-.73-9.129 8.274-11.844 17.778-2.506 8.767-.912 11.202-.912 11.202s6.378 10.959 7.972 14.368c1.595 3.41 2.987 6.743 3.19 9.985.455 7.306-2.501 12.762-2.734 19.97-.228 7.061 1.822 14.367 6.833 24.595 5.011 10.229 2.239 13.605 2.506 20.457.227 5.845 1.822 8.28 1.822 8.28s12.072 4.383 29.61-2.922c17.538-7.306 28.043-10.92 37.81-18.752 5.466-4.384 7.288-8.524 7.288-8.524s-4.88-10.617-20.499-20.943c-17.31-11.446-35.154-19.403-39.404-26.788-1.822-3.166-5.54-14.868-4.556-21.187 1.003-6.438 3.251-11.761-.227-16.56-3.488-4.812-13.081-9.23-16.855-10.959"/>
                <path fill="#2B2B51" d="M331.752 163.039c4.243 5.397 11.82 14.228 28.49 24.368 0 0-8.031.49-13.639 5.233-5.577 4.716-6.668 7.359-6.668 7.359s-5.91-30.91-8.183-36.96M304.297 91.877c.117.366 3.268 5.48 8.288 5.603l-7.471 3.775-.817-9.378z"/>
                <path fill="#FFAEAE" d="M293.363 63.325c-3.2-.73-8.75 1.467-8.75 8.641 0 5.057 2.423 18.588 8.939 30.164 6.515 11.576 7.273 11.087 8.334 11.25 1.06.163 8.536-1.35 19.546-7.011 10.227-5.258 16.478-7.704 19.81-8.193 3.334-.49 5.57-1.223 8.524-4.525 1.641-1.834 2.273-3.26 2.273-3.26s.568-.775.795.815c.163 1.14-.443 1.898.228 2.078.909.245 1.958-1.442 2.31-4.035.31-2.282.416-3.002-.72-4.402-1.818-2.242-3.446-3.098-3.977-3.342-.53-.245-1.629-1.223-3.599.733-1.97 1.957-3.636 4.117-4.697 5.91-1.06 1.794-2.272 3.425-4.735 4.199-3.915 1.232-12.993 2.405-19.546 3.75-4.191.86-10.682 1.875-12.197 2.201-1.515.326-.076-3.831-3.713-13.94-1.1-3.06-2.159-5.38-2.916-9.13-.758-3.75-.91-10.762-5.91-11.903"/>
                <path fill="#FFAEAE" d="M302.05 45.183c1.723 7.583.305 16.922-5.055 18.364-5.36 1.44-10.717-5.247-12.917-12.686-1.573-5.316.593-11.244 5.953-12.686 5.36-1.44 10.783 1.571 12.018 7.008"/>
                <g transform="translate(283.5 38.048)">
                    <mask id="n" fill="#fff">
                        <use xlink:href="#l"/>
                    </mask>
                    <path fill="url(#m)" d="M9.975 0c-.915 0-1.85.12-2.783.37C1.65 1.857-.588 7.973 1.037 13.456c1.038 3.501 2.755 6.841 4.842 9.297 5.694-2.274 10.643-6.184 14.352-11.2a28.894 28.894 0 0 0-.611-3.955C18.558 2.934 14.5 0 9.976 0h-.001" mask="url(#n)"/>
                </g>
                <g>
                    <path fill="#FFAEAE" d="M302.459 46.195c-1.815-2.94-5.816-4.768-11.227-3.307-5.412 1.46-7.258 6.614-6.918 9.064-1.587-5.39.6-11.4 6.01-12.862 5.412-1.46 10.887 1.593 12.135 7.105"/>
                    <path fill="#2B2B51" d="M314.892 85.016s2.05 2.262 1.757 5.007c-.293 2.746-1.464 4.361-1.464 4.361s2.635-.484 3.22-2.907c.586-2.423-1.17-4.523-3.513-6.46M303.407 133.467s17.976.692 26.509-3.461l-1.567-1.733a13.144 13.144 0 0 1-1.754-2.458l-.926-1.673s-1.446.727-8.496 1.506c-7.736.856-14.714.57-14.714.57l.416 2.036a29.14 29.14 0 0 1 .412 3.4l.12 1.813zM309.899 194.815c.228 5.908 1.829 8.37 1.829 8.37s3.855 1.408 10.373 1.313c-4.053-9.337-8.312-18.719-13.47-27.549 3.271 8.217 1.026 11.61 1.268 17.866M380.857 180.303c4.068-3.747 5.484-6.947 5.484-6.947s-4.874-10.574-20.472-20.858c-11.14-7.346-22.493-13.248-30.298-18.485 16.039 14.473 32.939 28.329 45.286 46.29M269.685 154.188l.913-.288s.771 3.267 2.223 7.686c.992 3.02 2.757 6.288 3.216 7.11l-.534.367c-.774.534-1.788.24-2.23-.649-.812-1.623-1.928-4.066-2.602-6.027-.792-2.302-1.47-4.957-1.844-6.51-.176-.731.206-1.482.858-1.689"/>
                    <path fill="#E9EEFB" d="M260.495 66.83s-.44 1.864-.514 3.172c-.073 1.309.147 2.736.147 2.736s-1.614 1.696-3.12 3.052c-.66.595-1.388 1.326-1.761 1.467-.344.13-.513-.032-.43-.415.279-1.273 1.348-5.492 4.43-9.06.386-.446.844-.912 1.248-.951M242.71 89.845l1.722.13.521-2.054-2.123-.15-.454 1.612c-.06.216.095.433.333.462M264.825 88.323l-.183 2.13c-.026.27.156.51.404.536l6.156.637c.35.036.659-.243.69-.623l-.134-2.181-6.933-.5z"/>
                    <path fill="#42426C" d="M217.58 110.615c-1.035 2.213-3.607 3.136-5.716 2.05l-16.848-8.676c-2.109-1.085-2.988-3.784-1.953-5.997 1.034-2.213 3.607-3.136 5.715-2.05l16.849 8.676c2.109 1.085 2.987 3.784 1.953 5.997"/>
                    <path fill="#E9EEFB" d="M216.116 110.022c-.82 1.764-2.857 2.499-4.527 1.633l-17.07-8.842c-1.67-.865-2.366-3.016-1.546-4.78.82-1.763 2.856-2.498 4.527-1.632l17.069 8.842c1.67.865 2.366 3.015 1.547 4.78"/>
                    <path fill="#42426C" d="M197.81 99.62c0 1.065-.813 1.928-1.814 1.928-1.001 0-1.813-.863-1.813-1.929 0-1.065.812-1.928 1.813-1.928s1.813.863 1.813 1.928"/>
                    <path fill="#42426C" d="M196.7 100.004c-.174.388-.614.552-.976.364l-19.779-10.557c-.362-.187-.515-.658-.34-1.046s.615-.552.977-.365l19.778 10.557c.362.188.516.658.34 1.047"/>
                    <path fill="#2B2B51" d="M178.056 90.088c-.161.385-.566.548-.9.362l-1.244-.652c-.333-.186-.474-.652-.313-1.037.161-.385.566-.547.9-.362l1.244.652c.333.186.474.653.313 1.037"/>
                    <path fill="#3F3848" d="M362.036 88.339l-10.361 3.841.815-1.393 9.12-3.567z"/>
                    <path fill="#E9EEFB" d="M168.28 57.245s3.449.993 5.269.722c1.535-.228 2.502-2.709 2.502-2.709l-7.771 1.987zM195.737 47.165c.226.061 17.268 6.909 30.079 8.621 1.288.172 2.144-.611 2.031-2.018-.22-2.741-1.919-7.948-8.183-10.21-5.857-2.116-7.787-2.996-10.947-4.28l-12.98 7.887z"/>
                    <path fill="#FFF" d="M154.81 50.26s5.316 7.754 10.707 7.754c5.392 0 23.009-5.306 33.716-11.59 10.707-6.286 20.73-15.427 21.642-17.631.911-2.204-.756-4.617-4.024-4.898-5.696-.49-11.163 2.857-17.086 7.51-5.923 4.652-10.707 7.672-16.554 11.672-5.703 3.9-11.24 7.754-14.58 7.59-3.342-.162-5.848-1.958-7.139-2.693-1.29-.735-2.63-.817-4.025.082-1.518.98-2.657 2.204-2.657 2.204"/>
                    <path fill="#E9EEFB" d="M206.042 30.946c1.806.652 7.986-3.703 12.49-6.693a6.272 6.272 0 0 0-1.63-.357c-3.961-.343-7.814 1.157-11.781 3.667-.062 1.322-.294 2.944.921 3.383M165.301 54.743c-1.38.563-2.324.7-3.485.233-2.23-.897-3.176-2.102-3.331-2.803-.155-.7 0-1.323 1.394-1.323s6.584.934 7.591 1.012c1.007.078 1.794.719 1.007 1.246-1.162.779-1.74 1.049-3.176 1.635M187.404 42.445s-16.593-9.163-26.488-20.125c0 0-1.694-2.148 1.827-2.945 3.506-.794 12.673-1.31 21.312 4.254 3.225 2.077 6.073 4.21 8.525 5.89 3.882 2.659 5.937 4.05 6.698 4.581 0 0 .301.443-.228 1.023-1.164 1.275-4.43 4.142-10.428 7.2-.384.195-.837.408-1.218.122"/>
                    <path fill="#24478D" d="M353.324 92.431l16.254-10.17.23 1.245-16.579 9.776z"/>
                    <path fill="#24478D" d="M352.71 90.908l16.353-8.647.226 1.2-16.352 8.168z"/>
                    <path fill="#3F3848" d="M365.663 89.017l-13.988 3.163.796-1.265 13.192-3.144z"/>
                    <path fill="#EE854F" d="M351.157 92.716l14.506 6.628-.663-1.945-13.097-5.77z"/>
                    <path fill="#EE854F" d="M351.675 92.568l11.397 2.918-.193-1.47-10.604-2.387z"/>
                    <path fill="#2B2B51" d="M329.983 153.033l.851-8.877a.182.182 0 0 1 .365.008l.69 10.996c.21 3.32.17 6.56 1.355 9.633l1.853 2.883-2.583-2.58-1.97-6.454a14.498 14.498 0 0 1-.561-5.61M347.96 145.586s17.819 16.407 24.977 40.228c0 0 1.218-.81 2.15-1.418.933-.608 1.885-1.398 1.885-1.398s-4.454-11.404-10.85-19.425c-6.397-8.021-18.161-17.987-18.161-17.987M308.468 174.27s3.944 5.169 11.388 14.353c7.443 9.185 13.125 14.144 13.125 14.144s-2.027.49-3.277.715c-1.25.224-3.238.47-3.238.47s-3.826-5.47-8.656-13.124c-4.83-7.654-9.661-16.296-9.661-16.296-.137-.226.154-.464.32-.263"/>
                    <path fill="#42426C" d="M335.053 176.997s3.733 13.15 9.843 18.75l-7.618 6.048-2.225-24.798z"/>
                    <path fill="#E9EEFB" d="M254.714 97.462c-.112.402-.502.232-.426-.185.85-4.718 2.63-12.568 2.976-14.502.226-1.26 1.208-2.8 1.894-3.24.185-.12.36.15.282.43l-4.726 17.497z"/>
                </g>
                <g transform="translate(262.146 32.66)">
                    <mask id="q" fill="#fff">
                        <use xlink:href="#o"/>
                    </mask>
                    <path fill="url(#p)" d="M0 9.913c4.045 6.284 9.805 11.232 16.568 14.09 1.66-2.785 2.891-6.197 3.479-9.596 1.464-8.465 1.806-12.81-7.413-14.165A20.928 20.928 0 0 0 9.61 0C3.876 0 1.314 3.145 0 9.913" mask="url(#q)"/>
                </g>
                <path fill="#303030" d="M264.956 36.252s-.7 4.409-1.273 5.96c-.353.96-1.654 2.423-1.654 2.423l-.445-3.478 3.372-4.905z"/>
            </g>
            <g mask="url(#c)">
                <g fill="#FFF" fill-rule="nonzero">
                    <path d="M60.097 27.178c.138.051 1.308.539 1.031.241a3.613 3.613 0 0 0-1.018-.785C40.562 16.397 25.244 40.721 40.16 51.768c.568.424.963.722 1.094.728.18.013 3.504 2.19 1.067-1.33-9.252-13.32 1.73-31.123 17.776-23.988m7.074 10.4v-.006a14.738 14.738 0 0 0-1.773-5.727c-6.374-7.088-30.883.213-22.5 18.535.259.561.601.878.769.775.167-.104.935-.168.851-.717-2.227-14.338 17.194-17.76 22.653-12.86M47.51 52.303c.134.393.127.55.26.608.064.025 1.84.506 1.89.101.56-4.331 13.662-8.82 14.547-5.104 1.165-1.576 2.38-3.153 2.85-5.097.014-.272.113-.36.113-.36-1.166-3.389-22.966-.007-19.66 9.852" opacity=".4"/>
                    <path d="M43.098 25.983c.477-.4.941-.782.768-.808-.131-.019-.602.185-1.246.522-12.041 6.294-9.204 25.865 6.478 29.4v.013c.457.038.92.064 1.377.064 1.834 0 3.661-.28 5.391-.833 1.523-.521 2.38-.922 3.834-1.749.16-.095.318-.197.47-.298-13.674 3.916-29.432-15.496-17.072-26.311m1.912 2.104c.113-.538.183-.759.036-.885-.148-.127-.479.196-.88.683-7.868 9.724 9.317 24.497 20.5 20.67A14.868 14.868 0 0 0 67.17 43.1v-.007c-6.137 4.252-24.096-5.706-22.16-15.007m20.356 4.628c-1.313 3.65-13.528-2.634-15.377-6.1-.19-.374-.359-.462-.427-.437-.135.038-.23.178-.318.584-1.137 5.128 11.017 14.413 17.923 12.027.007-.146 0-.292-.034-.438a14.937 14.937 0 0 0-1.767-5.636"/>
                </g>
                <text font-family="OpenSans-Bold, Open Sans" font-size="14" font-weight="bold" transform="translate(33.952 23.493)">
                    <tspan x="49.219" y="24.681" fill="#FFF">БКС Банк</tspan>
                </text>
            </g>
        </g>
        <path fill="#DFDFDA" d="M271.27 261.448c0 .575.477 1.308 1.325 1.308.849 0 1.326-.733 1.326-1.308h7.798v3.61c0 1.15.052 1.124-.823 1.882l-3.66 3.112c-.662.576-.69.653-.69 1.517v6.303c0 .836.372 1.307 1.327 1.307s1.326-.47 1.326-1.307v-5.074c0-.915.053-.967.743-1.569l3.713-3.164c.742-.628.715-.733.715-1.648v-7.584h-11.775c-.848 0-1.325.732-1.325 1.308v1.307zm16.464 43.859h5.348V294.94h-5.348v10.367zm7.167-10.367c0-.985-.82-1.793-1.82-1.793h-5.347c-1 0-1.819.808-1.819 1.793v10.367c0 1.005.783 1.794 1.82 1.794h5.347c1.036 0 1.819-.79 1.819-1.794V294.94zm3.724 39.184l-5.595-12.77h-3.041v14.161h1.625v-12.769h.402l5.68 12.77h2.977v-14.161h-1.604v12.769h-.444zm2.204-28.817h5.347V294.94h-5.347v10.367zm7.165-10.367c0-.985-.818-1.793-1.818-1.793h-5.347c-1 0-1.82.808-1.82 1.793v10.367c0 1.005.783 1.794 1.82 1.794h5.347c1.036 0 1.818-.79 1.818-1.794V294.94zm-42.48 33.762v-5.956h3.78c2.049 0 2.999.963 2.999 2.907 0 1.779-.782 3.049-2.978 3.049h-3.8zm3.78-7.347h-5.406v14.16h1.626v-5.422h4.14l2.639 5.422h1.795l-2.809-5.75c1.838-.572 2.683-2.025 2.683-4.112 0-2.988-1.605-4.298-4.667-4.298zm-31.612 12.769v-11.378h3.591c3.04 0 3.738 2.416 3.738 5.484 0 3.07-.698 5.894-3.738 5.894h-3.59zm-1.625-12.77v14.161h5.216c4.307 0 5.406-3.233 5.406-7.285 0-4.01-1.162-6.875-5.406-6.875h-5.216zm23.777 14.161v-1.391h-7.264v-5.116h5.997v-1.37h-5.997v-4.892h7.264v-1.391h-8.89v14.16h8.89zm49.645-12.81h1.098l2.218 7.756h-5.533l2.217-7.755zm-5.237 12.81h1.606l1.056-3.643h6.25l1.055 3.643h1.605l-4.012-14.16h-3.547l-4.013 14.16zm-49.415-58.951h7.797v-4.027h-7.797v4.027zm10.449-4.89c0-1.203-.265-1.752-1.592-1.752h-8.857v-8.474c.769 0 1.326-.522 1.326-1.307 0-.68-.557-1.308-1.246-1.308h-1.591c-.929 0-1.141.706-1.141 1.308v17.39c0 1.204.478 1.648 1.724 1.648h9.654c1.193 0 1.723-.418 1.723-1.647v-5.858zm180.493 4.89h7.797v-4.027h-7.797v4.027zm0-6.642v-8.474c.769 0 1.326-.522 1.326-1.307 0-.68-.557-1.308-1.247-1.308h-1.59c-.929 0-1.142.706-1.142 1.308v17.39c0 1.204.479 1.648 1.725 1.648h9.652c1.194 0 1.724-.418 1.724-1.647v-5.858c0-1.203-.264-1.752-1.591-1.752h-8.857zm-48.16-7.559c0-.654-.318-1.307-1.326-1.307-1.006 0-1.325.653-1.325 1.307v7.559h-5.145v-9.78c0-.656-.319-1.31-1.326-1.31-1.008 0-1.327.654-1.327 1.31v12.395h7.798v5.335c0 .836.37 1.307 1.325 1.307s1.327-.47 1.327-1.307v-5.335c.688 0 1.325-.367 1.325-1.308 0-.941-.637-1.307-1.325-1.307v-7.559zm-75.29 58.992h-2.935v14.16h1.625v-12.481h.296l4.245 11.97h1.815l4.245-11.97h.295v12.481h1.626v-14.16h-2.936l-4.138 11.972-4.138-11.972zm-76.774-43.065c.557-.654.637-1.229.637-2.04v-5.597c0-.915-.08-1.542-.823-2.222-.636-.602-1.272-.732-2.121-.732h-4.88v-6.25h6.498c.689 0 1.326-.368 1.326-1.308 0-.942-.637-1.308-1.326-1.308h-9.15v11.48h7.825v6.251h-6.127c-.424 0-1.034-.365-1.406-.523l-.795-.34c-.292-.13-.53-.21-.849-.21-.69 0-1.273.628-1.273 1.308 0 .916.796 1.151 1.512 1.465l1.007.444c.664.288 1.061.47 1.75.47h5.888c.954 0 1.644-.103 2.307-.888zm216.666-16.842c0 .575.477 1.308 1.326 1.308.848 0 1.327-.733 1.327-1.308h7.795v3.61c0 1.15.053 1.124-.821 1.882l-3.66 3.112c-.663.576-.69.653-.69 1.517v6.303c0 .836.372 1.307 1.327 1.307.954 0 1.325-.47 1.325-1.307v-5.074c0-.915.054-.967.744-1.569l3.711-3.164c.744-.628.717-.733.717-1.648v-7.584h-11.775c-.849 0-1.326.732-1.326 1.308v1.307zm-25.087-1.307c0-.942-.637-1.308-1.326-1.308h-9.15v11.48h7.823v6.251h-6.125c-.425 0-1.036-.365-1.406-.523l-.796-.34c-.291-.13-.53-.21-.848-.21-.69 0-1.273.628-1.273 1.308 0 .916.796 1.151 1.511 1.465l1.009.444c.662.288 1.06.47 1.75.47h5.888c.954 0 1.643-.103 2.306-.888.557-.654.637-1.229.637-2.04v-5.597c0-.915-.08-1.542-.822-2.222-.637-.602-1.274-.732-2.121-.732H429.3v-6.25h6.498c.689 0 1.326-.368 1.326-1.308zm-110.107 45.166h5.347V294.94h-5.347v10.367zm0-12.16c-1 0-1.819.808-1.819 1.793v10.367c0 1.005.782 1.794 1.82 1.794h5.346c1.036 0 1.819-.79 1.819-1.794V294.94c0-.985-.819-1.793-1.82-1.793h-5.346zm13.095 12.16h5.346V294.94h-5.346v10.367zm5.346 1.794c1.036 0 1.819-.79 1.819-1.794V294.94c0-.985-.818-1.793-1.82-1.793h-5.345c-1.002 0-1.82.808-1.82 1.793v10.367c0 1.005.782 1.794 1.82 1.794h5.346zm1.821 28.414v-1.391h-7.264v-5.116h5.997v-1.37h-5.997v-4.892h7.264v-1.391h-8.89v14.16h8.89zm20.788-76.682c-.691 0-1.327.366-1.327 1.308 0 .94.636 1.307 1.327 1.307h9.122v4.34c0 1.466-.584 1.91-1.327 1.91h-5.197c-.69 0-1.327.367-1.327 1.308 0 .941.637 1.308 1.327 1.308h5.197c.743 0 1.327.445 1.327 1.908v4.342h-9.122c-.691 0-1.327.366-1.327 1.308 0 .942.636 1.307 1.327 1.307h9.122c1.512 0 2.653-1.123 2.653-2.615v-5.022c0-1.045-.213-1.804-1.036-2.536.823-.732 1.036-1.491 1.036-2.537v-5.02c0-1.491-1.141-2.616-2.653-2.616h-9.122zm-19.095 0c-.69 0-1.326.366-1.326 1.308 0 .94.636 1.307 1.326 1.307h9.122v6.25h-7.452c-1.989 0-2.996.994-2.996 2.955v8.526h11.775c.688 0 1.325-.365 1.325-1.307s-.637-1.308-1.325-1.308H350.3v-6.25h7.477c.877 0 1.485-.131 2.148-.732.743-.68.822-1.386.822-2.328v-5.362c0-.94-.079-1.647-.822-2.327-.663-.601-1.271-.732-2.148-.732h-8.804zm134.985 17.731h7.797v-6.25h-7.797v6.25zm2.652-8.865h2.494v-6.25h-2.494v6.25zm5.145 0v-7.558c0-.68-.425-1.308-1.327-1.308h-5.144c-.901 0-1.326.628-1.326 1.308v7.558c-.821 0-1.458.287-1.936.732-.476.444-.716 1.098-.716 1.91v6.223c0 1.595 1.008 2.615 2.652 2.615h7.797c1.643 0 2.652-1.02 2.652-2.615v-6.224c0-.811-.239-1.465-.716-1.909-.478-.445-1.113-.732-1.936-.732zm-267.08 53.656v14.16h8.047v-1.412h-6.42v-12.748h-1.627zm-58.26 7.347v-5.956h3.78c2.048 0 2.998.963 2.998 2.907 0 1.779-.78 3.049-2.978 3.049h-3.8zm3.78-7.347h-5.406v14.16h1.626v-5.422h4.138l2.64 5.422h1.795l-2.809-5.75c1.838-.572 2.683-2.025 2.683-4.112 0-2.988-1.605-4.298-4.667-4.298zm18.706-49.813c0-1.045-.213-1.804-1.034-2.536.821-.732 1.034-1.491 1.034-2.537v-5.02c0-1.491-1.141-2.616-2.653-2.616h-9.122c-.69 0-1.326.366-1.326 1.308 0 .94.636 1.307 1.326 1.307h9.122v4.34c0 1.466-.583 1.91-1.325 1.91h-5.199c-.69 0-1.325.367-1.325 1.308 0 .941.636 1.308 1.325 1.308h5.199c.742 0 1.325.445 1.325 1.908v4.342h-9.122c-.69 0-1.326.366-1.326 1.308 0 .942.636 1.307 1.326 1.307h9.122c1.512 0 2.653-1.123 2.653-2.615v-5.022zm104.116 5.022h7.796v-6.25h-7.796v6.25zm2.652-8.865h2.493v-6.25h-2.493v6.25zm5.144 11.48c1.645 0 2.652-1.02 2.652-2.615v-6.224c0-.811-.239-1.465-.716-1.909-.477-.445-1.114-.732-1.936-.732v-7.558c0-.68-.424-1.308-1.325-1.308h-5.146c-.901 0-1.325.628-1.325 1.308v7.558c-.823 0-1.459.287-1.936.732-.478.444-.717 1.098-.717 1.91v6.223c0 1.595 1.008 2.615 2.653 2.615h7.796zm-153.868 43.753l.064-1.33c-.929-.185-2.534-.45-4.034-.45-4.392 0-5.343 2.537-5.343 7.324 0 4.666.972 7.244 5.343 7.244 1.394 0 2.998-.225 4.034-.43l-.064-1.35c-1.014.184-2.576.368-3.758.368-3.337 0-3.865-1.882-3.865-5.832 0-4.03.571-5.913 3.823-5.913 1.14 0 2.85.205 3.8.369zm21.536-46.368h-9.124v-6.25h7.48c.875 0 1.485-.131 2.147-.732.742-.68.822-1.386.822-2.328v-5.362c0-.94-.08-1.647-.822-2.327-.662-.601-1.272-.732-2.148-.732h-8.805c-.689 0-1.326.366-1.326 1.308 0 .94.637 1.307 1.326 1.307h9.124v6.25H159.7c-1.99 0-2.997.994-2.997 2.955v8.526h11.776c.69 0 1.325-.365 1.325-1.307s-.636-1.308-1.325-1.308zm145.425 29.908l6.982-11.782c.11-.198.201-.413.201-.7 0-.465-.418-.843-.89-.843-.455 0-.674.323-.891.682l-6.803 11.496c-.182.286-.4.592-.4.932 0 .466.456.844.909.844.456 0 .674-.253.892-.629zm-159.02 16.234h1.097l2.217 7.755h-5.532l2.217-7.755zm-5.238 12.81h1.606l1.054-3.644h6.252l1.055 3.643h1.605l-4.011-14.16h-3.549l-4.012 14.16zm57.02-73.153c0-.654-.318-1.307-1.325-1.307-1.008 0-1.327.653-1.327 1.307v7.559h-5.144v-9.78c0-.656-.318-1.31-1.327-1.31-1.007 0-1.325.654-1.325 1.31v12.395h7.796v5.335c0 .836.372 1.307 1.327 1.307s1.326-.47 1.326-1.307v-5.335c.689 0 1.326-.367 1.326-1.308 0-.941-.637-1.307-1.326-1.307v-7.559zm121.884 15.51c0 .94.637 1.306 1.326 1.306h10.45c.69 0 1.326-.365 1.326-1.307v-6.59c0-.76-.346-1.308-1.326-1.308-.982 0-1.326.548-1.326 1.307v5.283h-2.573v-17.731h-6.55c-.69 0-1.327.366-1.327 1.308 0 .94.637 1.307 1.326 1.307h3.899v15.116h-3.899c-.689 0-1.326.366-1.326 1.308zm-177.84-6.592c0-.759-.345-1.307-1.326-1.307-.981 0-1.326.548-1.326 1.307v5.283h-2.573v-17.731h-6.55c-.69 0-1.325.366-1.325 1.308 0 .94.636 1.307 1.326 1.307h3.898v15.116h-3.898c-.69 0-1.326.366-1.326 1.308 0 .942.636 1.307 1.326 1.307h10.448c.69 0 1.326-.365 1.326-1.307v-6.59zm59.837 57.216c0-3.847.738-5.954 4.097-5.954 3.336 0 4.096 2.127 4.096 5.954 0 3.99-.696 5.831-4.096 5.831-3.38 0-4.097-1.964-4.097-5.83zm-1.668 0c0 4.748 1.224 7.223 5.765 7.223 4.54 0 5.786-2.353 5.786-7.223 0-4.706-1.268-7.345-5.786-7.345-4.52 0-5.765 2.68-5.765 7.345zm-13.304-.798v-6.344h-1.626v14.16h1.626v-6.404h7.433v6.404h1.606v-14.16h-1.606v6.344h-7.433zm-14.887 6.425v-11.378h3.59c3.04 0 3.738 2.416 3.738 5.484 0 3.07-.698 5.894-3.739 5.894h-3.59zm-1.626-12.77v14.161h5.215c4.308 0 5.407-3.233 5.407-7.285 0-4.01-1.162-6.875-5.407-6.875h-5.215z"/>
        <path fill="#C7C6C1" d="M213.01 337.743c-5.453 0-6.204-3.747-6.204-7.796 0-3.917.736-7.92 6.203-7.92 5.486 0 6.226 4.003 6.226 7.92 0 4.68-1.059 7.796-6.226 7.796zm.289-15.55c-4.508 0-5.75 2.724-5.75 7.465 0 4.824 1.22 7.34 5.75 7.34 4.528 0 5.77-2.391 5.77-7.34 0-4.784-1.263-7.466-5.77-7.466zm-71.777 15.55c-4.8 0-5.512-3.397-5.512-8.087 0-4.879.696-7.63 5.512-7.63 1.571 0 3.251.292 4.112.466l.383.078-.106 2.26-.507-.09c-1.014-.177-2.66-.368-3.713-.368-2.637 0-3.36 1.194-3.36 5.555 0 4.037.515 5.47 3.402 5.47 1.156 0 2.712-.19 3.667-.367l.511-.094.105 2.286-.382.077c-1.069.215-2.711.444-4.112.444zm.289-15.55c-4.381 0-5.33 2.578-5.33 7.443 0 4.742.97 7.362 5.33 7.362 1.39 0 2.99-.229 4.023-.437l-.064-1.372c-1.011.187-2.57.374-3.748.374-3.329 0-3.855-1.913-3.855-5.927 0-4.096.57-6.01 3.813-6.01 1.137 0 2.843.209 3.79.375l.064-1.351c-.926-.188-2.528-.458-4.023-.458zm203.95 15.344h-9.775v-15.304h9.774v2.327h-7.246v4.058h5.982v2.305h-5.982v4.286h7.246v2.328zm-9.033-15.138v14.391h8.868v-1.414h-7.246v-5.199h5.981v-1.394h-5.981v-4.97h7.246v-1.414h-8.868zm-4.679 15.138h-2.53v-11.304l-3.752 10.783h-2.458l-3.751-10.783v11.304h-2.53v-15.304h3.707l3.803 11.21 3.803-11.21h3.708v15.304zm-2.083-13.432h.294v12.685h1.622v-14.391h-2.928l-4.127 12.166-4.128-12.166h-2.928v14.391h1.622v-12.685h.295l4.234 12.166h1.81l4.234-12.166zm-15.446 13.432h-2.541l-1.053-3.703h-5.55l-1.053 3.703h-2.54l4.255-15.304h4.226l4.256 15.304zm-9.197-4.45h6.234l1.053 3.703h1.601l-4.003-14.391h-3.537l-4.003 14.391h1.602l1.053-3.702zm-6.049 4.45h-3.72l-5.317-12.176v12.176h-2.53v-15.304h3.786l5.272 12.257v-12.257h2.51v15.304zm-9.201-13.724h.4l5.665 12.977h2.97v-14.391h-1.6v12.977h-.442l-5.582-12.977h-3.033v14.391h1.622v-12.977zm-17.049 13.724h-2.798l-2.633-5.512h-3.388v5.512h-2.53v-15.304h5.845c3.391 0 5.109 1.623 5.109 4.824 0 2.19-.863 3.71-2.504 4.431l2.899 6.049zm-8.985-6.257h4.128l2.633 5.51h1.791l-2.802-5.844c1.833-.582 2.676-2.058 2.676-4.18 0-3.035-1.601-4.367-4.655-4.367h-5.393v14.391h1.622v-5.51zm-5.5 6.257h-9.776v-15.304h9.775v2.327h-7.246v4.058h5.982v2.305h-5.982v4.286h7.246v2.328zm-9.033-15.138v14.391h8.868v-1.414h-7.247v-5.199h5.982v-1.394h-5.982v-4.97h7.247v-1.414h-8.868zm-9.935 15.138h-5.657v-15.304h5.657c5.239 0 5.845 4.25 5.845 7.444 0 1.943 0 7.86-5.845 7.86zm-4.915-15.138v14.391h5.203c4.296 0 5.392-3.286 5.392-7.404 0-4.075-1.159-6.987-5.392-6.987h-5.203zm-3.163 15.138h-8.932v-15.304h2.53v12.956h6.402v2.348zm-8.19-15.138v14.391h8.026v-1.436h-6.403V322.4h-1.623zm-19.844 15.138h-2.508v-6.51h-6.508v6.51h-2.528v-15.304h2.528v6.448h6.508v-6.448h2.508v15.304zm-9.18-7.256h7.414v6.509h1.601v-14.391h-1.601v6.447h-7.414V322.4h-1.622v14.391h1.622v-6.51zm-11.558 7.256h-5.656v-15.304h5.656c5.24 0 5.846 4.25 5.846 7.444 0 1.943 0 7.86-5.846 7.86zm-4.914-15.138v14.391h5.203c4.296 0 5.392-3.286 5.392-7.404 0-4.075-1.158-6.987-5.392-6.987h-5.203zm-3.63 15.138h-2.8l-2.632-5.512h-3.39v5.512h-2.529v-15.304h5.846c3.39 0 5.109 1.623 5.109 4.824 0 2.19-.864 3.71-2.505 4.431l2.9 6.049zm-8.986-6.257h4.128l2.632 5.51h1.791l-2.802-5.844c1.833-.582 2.676-2.058 2.676-4.18 0-3.035-1.601-4.367-4.655-4.367h-5.392v14.391h1.622v-5.51zm-4.873 6.257h-2.541l-1.052-3.703h-5.551l-1.053 3.703h-2.54l4.255-15.304h4.227l4.255 15.304zm-9.198-4.45h6.236l1.052 3.703h1.601l-4.001-14.391h-3.54l-4.001 14.391h1.6l1.053-3.702zm62.179 2.497c-3.37 0-4.087-1.997-4.087-5.926 0-3.91.737-6.052 4.087-6.052 3.327 0 4.086 2.162 4.086 6.052 0 4.055-.695 5.926-4.086 5.926zm-.29-11.232c-2.715 0-3.632 1.412-3.632 5.595 0 4.192.849 5.471 3.632 5.471 2.818 0 3.634-1.227 3.634-5.471 0-4.183-.917-5.595-3.634-5.595zm26.85 11.024h-3.581v-11.563h3.581c3.033 0 3.728 2.455 3.728 5.573 0 3.12-.695 5.99-3.728 5.99zm-3.416-10.816v10.65h3.128c2.233 0 3.273-1.759 3.273-5.533 0-3.587-.979-5.117-3.273-5.117h-3.128zm-53.433 10.816h-3.581v-11.563h3.58c3.034 0 3.73 2.455 3.73 5.573 0 3.12-.696 5.99-3.73 5.99zm-3.416-10.816v10.65h3.127c2.234 0 3.275-1.759 3.275-5.533 0-3.587-.98-5.117-3.275-5.117h-3.127zm131.605 7.093h-5.519l2.212-7.881h1.095l2.212 7.88zm-3.252-7.135l-1.957 6.97h4.32l-1.955-6.97h-.408zm-150.95 7.135h-5.519l2.212-7.881h1.095l2.211 7.88zm-3.252-7.135l-1.955 6.97h4.319l-1.956-6.97h-.408zm114.085 5.347h-3.791v-6.052h3.77c2.044 0 2.991.978 2.991 2.954 0 1.808-.78 3.098-2.97 3.098zm-3.625-5.305v5.14h3.337c1.716 0 2.516-.84 2.516-2.643 0-1.75-.759-2.497-2.538-2.497h-3.315zm-95.223 5.305h-3.791v-6.052h3.77c2.043 0 2.99.978 2.99 2.954 0 1.808-.778 3.098-2.97 3.098zm-3.626-5.305v5.14h3.337c1.717 0 2.516-.84 2.516-2.643 0-1.75-.759-2.497-2.537-2.497h-3.316zm177.996-15.762h-5.334c-1.272 0-2.268-1.001-2.268-2.278v-10.536a2.275 2.275 0 0 1 2.268-2.278h5.334c.114 0 .227.009.338.025h-5.243c-1 0-1.816.821-1.816 1.823v10.535c0 .108.009.212.026.314v.117c0 .779.585 1.367 1.36 1.367h.115c.101.017.207.026.315.026h5.332c1.034 0 1.815-.802 1.815-1.824v-10.445c.016.112.024.225.024.34v10.536a2.248 2.248 0 0 1-2.266 2.278zm-13.062 0h-5.333c-1.272 0-2.268-1.001-2.268-2.278v-10.536a2.275 2.275 0 0 1 2.268-2.278h5.333c.116 0 .229.009.339.025h-5.244c-.998 0-1.814.821-1.814 1.823v10.535a2 2 0 0 0 .025.314v.117c0 .779.584 1.367 1.36 1.367h.115c.101.017.207.026.314.026h5.333c1.034 0 1.814-.802 1.814-1.824v-10.446c.017.112.025.225.025.34v10.537a2.248 2.248 0 0 1-2.267 2.278zm-19.3 0c-.726 0-1.362-.613-1.362-1.313 0-.446.233-.814.418-1.109l.05-.079 6.777-11.671c.208-.347.55-.92 1.281-.92.104 0 .204.012.3.035-.367.056-.564.355-.76.684l-6.785 11.683c-.182.29-.399.601-.399.948 0 .096.02.189.053.277a.501.501 0 0 0-.027.152c0 .217.249.402.453.402a.456.456 0 0 0 .153-.02c.09.03.182.046.275.046.454 0 .672-.257.89-.639l6.964-11.974c.09-.165.168-.344.193-.565.021.092.032.188.032.285a1.9 1.9 0 0 1-.254.928l-6.972 11.986c-.159.278-.492.864-1.28.864zm-6.822 0h-5.333c-1.272 0-2.268-1.001-2.268-2.278v-10.536a2.275 2.275 0 0 1 2.268-2.278h5.333c.116 0 .229.009.339.025h-5.244c-.997 0-1.814.821-1.814 1.823v10.535c0 .108.009.212.026.314v.117c0 .779.584 1.367 1.36 1.367h.114c.101.017.207.026.314.026h5.334c1.034 0 1.813-.802 1.813-1.824v-10.45c.018.113.026.228.026.345v10.536a2.249 2.249 0 0 1-2.268 2.278zm-13.06 0h-5.334c-1.272 0-2.268-1.001-2.268-2.278v-10.536a2.275 2.275 0 0 1 2.268-2.278h5.333c.116 0 .229.009.339.025h-5.244c-.997 0-1.814.821-1.814 1.823v10.535c0 .109.009.215.026.317v.114c0 .779.584 1.367 1.36 1.367h.114c.102.017.207.026.314.026h5.334c1.034 0 1.814-.802 1.814-1.824v-10.445c.017.112.025.225.025.34v10.536a2.249 2.249 0 0 1-2.268 2.278zm47.339-2.709h5.332v-10.535h-5.332v10.535zm.024-.024h4.426v-9.625h-4.426v9.625zm-13.086.024h5.333v-10.535h-5.333v10.535zm.025-.024h4.426v-9.625h-4.426v9.625zm-26.147.024h5.334v-10.535h-5.334v10.535zm.026-.024h4.426v-9.625h-4.426v9.625zm-13.087.024h5.334v-10.535h-5.334v10.535zm.026-.024h4.426v-9.625h-4.426v9.625zm203.047-25.642h-7.777c-1.883 0-3.1-1.222-3.1-3.114v-6.326c0-.954.297-1.739.858-2.27.5-.476 1.1-.758 1.788-.843v-7.252c0-1.05.73-1.785 1.776-1.785h5.132c.113 0 .223.008.33.026h-5.033c-.9 0-1.323.638-1.323 1.33v7.68c-.82 0-1.455.292-1.932.745-.475.45-.714 1.115-.714 1.94v6.325c0 .149.009.293.026.431 0 1.378.819 2.2 2.19 2.201.137.016.282.025.43.025h7.777c1.64 0 2.645-1.037 2.645-2.657v-6.325-.042c.016.152.025.309.025.471v6.326c0 1.892-1.216 3.114-3.098 3.114zm-22.882 0c-1.145 0-1.776-.634-1.776-1.785v-6.405c0-1.023.086-1.216.842-1.884l3.654-3.166c.665-.587.665-.587.663-1.378v-3.403h-6.935c-.198.703-.836 1.33-1.71 1.33-1.065 0-1.779-.923-1.779-1.784v-1.33c0-.862.714-1.785 1.778-1.785h12.199v8.255c0 .952-.032 1.204-.874 1.93l-3.702 3.214c-.582.519-.582.519-.582 1.25v5.156c0 1.151-.631 1.785-1.778 1.785zm.072-.913c.109.017.228.026.357.026.952 0 1.322-.478 1.322-1.328v-5.156c0-.93.054-.984.742-1.595l3.702-3.216c.742-.638.715-.745.715-1.674v-7.708h-11.745c-.847 0-1.323.744-1.323 1.33v1.328c0 .078.008.16.025.241v.19c0 .304.255.872.87.872a.93.93 0 0 0 .125-.009c.095.023.196.035.303.035.846 0 1.323-.745 1.323-1.329h7.776v3.668c0 1.17.053 1.142-.82 1.913l-3.65 3.162c-.661.586-.688.665-.688 1.542v6.406c0 .126.009.245.026.354v.076c0 .653.22.873.868.873l.072-.001zm-14.356.913h-9.629c-1.502 0-2.173-.658-2.173-2.13v-17.675c0-1.118.595-1.785 1.59-1.785h1.59c.094 0 .188.01.28.026h-1.44c-.926 0-1.138.717-1.138 1.33v17.673c0 .161.009.309.026.444.002.945.258 1.2 1.232 1.205.14.017.294.025.462.025h9.628c1.191 0 1.72-.424 1.72-1.674v-5.953l-.001-.151c.019.182.027.376.027.58v5.955c0 1.453-.69 2.13-2.174 2.13zm-20.262 0h-5.873c-.76 0-1.224-.205-1.864-.49l-1.071-.48-.208-.091c-.662-.285-1.569-.675-1.569-1.814 0-.95.805-1.785 1.723-1.785.126 0 .242.01.354.03-.654.044-1.195.66-1.195 1.325 0 .113.012.217.034.311a.872.872 0 0 0-.01.12c0 .488.296.664 1.02.975l.22.097 1.069.479c.598.265.928.411 1.497.411h.018c.127.016.261.025.411.025h5.873c.952 0 1.64-.105 2.3-.903.556-.665.636-1.249.636-2.074v-5.687c0-.105-.001-.207-.004-.304.024.235.03.479.03.734v5.688c0 .959-.119 1.62-.742 2.366-.818.985-1.72 1.067-2.65 1.067zm-37.8 0c-1.146 0-1.777-.634-1.777-1.785v-4.966h-7.776v-13.054c0-1.102.68-1.785 1.775-1.785.126 0 .246.01.36.027-.951.03-1.254.68-1.254 1.328v12.598h7.778v5.422c0 .126.008.245.025.354v.076c0 .653.219.873.87.873l.07-.001c.109.017.227.026.357.026.953 0 1.323-.478 1.323-1.328v-5.422c.669 0 1.288-.352 1.321-1.253.018.113.027.231.027.355 0 .924-.506 1.567-1.323 1.738v5.012c0 1.151-.631 1.785-1.776 1.785zm-19.047 0h-9.098c-1.08 0-1.777-.7-1.777-1.785 0-1.084.698-1.784 1.777-1.784h8.646v-3.956c0-1.484-.61-1.484-.87-1.484h-5.185c-1.08 0-1.775-.701-1.775-1.786s.696-1.785 1.775-1.785h5.185c.26 0 .87 0 .87-1.483v-3.958h-8.646c-1.08 0-1.777-.7-1.777-1.784s.698-1.785 1.777-1.785H375c.142 0 .281.008.417.026h-9.087c-.689 0-1.323.372-1.323 1.33 0 .117.01.228.028.33a1.464 1.464 0 0 0-.003.099c0 .579.293.874.87.874h.127c.098.016.199.025.301.025h9.1v4.411c0 1.489-.583 1.941-1.324 1.941h-5.184c-.688 0-1.323.372-1.323 1.329 0 .119.01.23.029.33a1.521 1.521 0 0 0-.003.1c0 .58.291.874.868.874h.128c.098.017.199.024.301.024h5.075c.582.096 1.288.497 1.432 1.848v4.505h-9.099c-.689 0-1.323.372-1.323 1.33 0 .118.01.228.028.33a1.487 1.487 0 0 0-.003.099c0 .579.293.873.87.873h.127c.098.017.199.025.301.025h9.1c1.507 0 2.645-1.141 2.645-2.657v-5.104c0-.067 0-.133-.003-.199.022.212.028.423.028.63v5.103c0 1.775-1.333 3.114-3.1 3.114zm-17.722 0H345.08v-9.12c0-2.232 1.222-3.46 3.441-3.46h6.98v-5.44h-8.645c-1.08 0-1.776-.701-1.776-1.785s.697-1.785 1.776-1.785h8.782c.214 0 .416.007.61.028a9.973 9.973 0 0 0-.182-.002h-8.782c-.688 0-1.322.372-1.322 1.33 0 .117.01.228.028.328a1.52 1.52 0 0 0-.003.1c0 .58.291.875.869.875h.128c.097.016.198.025.3.025h9.1v6.352h-7.434c-1.984 0-2.988 1.01-2.988 3.003v8.664h11.745c.668 0 1.288-.352 1.32-1.252.017.113.027.23.027.354 0 1.084-.697 1.785-1.776 1.785zm-19.046 0h-10.421c-1.08 0-1.777-.7-1.777-1.785 0-1.084.698-1.784 1.777-1.784h3.434v-14.452h-3.434c-1.08 0-1.777-.7-1.777-1.784s.698-1.785 1.777-1.785h6.986v18.02h1.66v-4.912c0-1.135.647-1.786 1.775-1.786.13 0 .255.01.373.026-.936.022-1.267.573-1.267 1.329v5.369h-2.566v-18.02h-6.534c-.687 0-1.322.372-1.322 1.33 0 .12.01.23.029.333a1.414 1.414 0 0 0-.003.096c0 .579.292.874.869.874h.127c.098.016.199.025.3.025h3.889v15.362h-3.889c-.687 0-1.322.372-1.322 1.33 0 .12.01.23.029.334a1.36 1.36 0 0 0-.003.095c0 .579.292.873.869.873h.127c.098.017.199.025.3.025h10.423c.688 0 1.323-.371 1.323-1.328v-6.637a2.7 2.7 0 0 1 .025.37v6.697c0 1.084-.698 1.785-1.777 1.785zm-39.413 0h-7.777c-1.883 0-3.1-1.222-3.1-3.114v-6.326c0-.954.297-1.739.857-2.27.5-.476 1.1-.758 1.79-.843v-7.252c0-1.05.73-1.785 1.775-1.785h5.132c.113 0 .223.008.329.026h-5.032c-.9 0-1.323.638-1.323 1.33v7.68c-.82 0-1.455.292-1.93.745-.478.45-.716 1.115-.716 1.94v6.325c0 .149.01.293.026.431 0 1.378.819 2.2 2.19 2.201.137.016.282.025.43.025h7.777c1.64 0 2.645-1.037 2.645-2.657v-6.325-.047c.017.154.026.313.026.476v6.326c0 1.892-1.217 3.114-3.1 3.114zm-22.881 0c-1.146 0-1.777-.634-1.777-1.785v-6.405c0-1.023.086-1.216.842-1.884l3.654-3.166c.665-.587.665-.587.663-1.378v-3.403h-6.935c-.198.703-.836 1.33-1.71 1.33-1.064 0-1.778-.923-1.778-1.784v-1.33c0-.862.714-1.785 1.777-1.785h12.199v8.255c0 .952-.031 1.204-.874 1.93l-3.702 3.214c-.582.519-.582.519-.582 1.25v5.156c0 1.151-.631 1.785-1.777 1.785zm.071-.913c.109.017.227.026.357.026.952 0 1.323-.478 1.323-1.328v-5.156c0-.93.053-.984.74-1.595l3.704-3.216c.74-.638.714-.745.714-1.674v-7.708h-11.745c-.847 0-1.323.744-1.323 1.33v1.328c0 .078.009.16.025.24v.19c0 .305.255.873.87.873a.93.93 0 0 0 .125-.009c.095.023.196.035.303.035.846 0 1.322-.745 1.322-1.329h7.778v3.668c0 1.17.052 1.142-.82 1.913l-3.65 3.162c-.662.586-.689.665-.689 1.542v6.406c0 .127.009.245.026.354v.076c0 .653.22.873.869.873l.071-.001zm-14.355.913h-9.63c-1.502 0-2.172-.658-2.172-2.13v-17.675c0-1.118.595-1.785 1.59-1.785h1.588c.095 0 .189.01.28.026h-1.438c-.927 0-1.139.717-1.139 1.33v17.673c0 .161.009.307.026.443.002.946.259 1.2 1.232 1.206.141.017.294.025.462.025h9.63c1.19 0 1.718-.424 1.718-1.674v-5.953l-.001-.145c.02.18.027.372.027.575v5.954c0 1.453-.69 2.13-2.173 2.13zm-20.262 0h-5.873c-.762 0-1.224-.205-1.866-.49l-1.071-.48-.207-.091c-.662-.285-1.569-.675-1.569-1.814 0-.95.806-1.785 1.723-1.785.126 0 .243.01.353.03-.654.044-1.194.66-1.194 1.325 0 .113.012.217.034.311a.872.872 0 0 0-.009.12c0 .488.295.664 1.02.975l.22.097 1.068.479c.598.265.928.411 1.498.411h.017c.127.016.263.025.411.025h5.872c.952 0 1.64-.105 2.301-.903.556-.665.636-1.249.636-2.074v-5.687c0-.105-.001-.207-.005-.304.025.235.03.479.03.734v5.688c0 .96-.118 1.622-.741 2.366-.817.985-1.719 1.067-2.648 1.067zm-37.8 0c-1.147 0-1.778-.634-1.778-1.785v-4.966h-7.776v-13.054c0-1.102.68-1.785 1.775-1.785.126 0 .246.01.361.027-.95.029-1.255.678-1.255 1.328v12.598h7.777v5.422c0 .128.009.247.026.357v.073c0 .653.22.873.87.873l.07-.001c.11.017.228.026.358.026.952 0 1.322-.478 1.322-1.328v-5.422c.669 0 1.288-.352 1.321-1.253.018.113.026.231.026.355 0 .924-.505 1.567-1.322 1.738v5.012c0 1.151-.63 1.785-1.776 1.785zm-19.046 0h-9.1c-1.08 0-1.777-.7-1.777-1.785 0-1.084.698-1.784 1.777-1.784h8.646v-3.956c0-1.484-.609-1.484-.87-1.484h-5.183c-1.08 0-1.777-.701-1.777-1.786s.697-1.785 1.777-1.785h5.184c.26 0 .869 0 .869-1.483v-3.958h-8.646c-1.08 0-1.777-.7-1.777-1.784s.698-1.785 1.777-1.785h9.1c.141 0 .281.008.417.026h-9.089c-.688 0-1.322.372-1.322 1.33 0 .118.01.228.028.33a1.487 1.487 0 0 0-.003.099c0 .579.293.874.869.874h.127c.098.016.2.025.301.025h9.1v4.411c0 1.489-.582 1.941-1.323 1.941h-5.185c-.688 0-1.322.372-1.322 1.329 0 .119.01.228.028.33a1.52 1.52 0 0 0-.003.1c0 .58.293.874.87.874h.126c.098.017.199.024.301.024h5.077c.58.096 1.285.496 1.43 1.844v4.509h-9.099c-.688 0-1.322.372-1.322 1.33 0 .118.01.229.028.33a1.512 1.512 0 0 0-.003.099c0 .579.293.873.869.873h.127c.098.017.2.025.301.025h9.1c1.507 0 2.646-1.141 2.646-2.657v-5.104c0-.067-.002-.134-.004-.2.022.212.028.423.028.632v5.102c0 1.775-1.332 3.114-3.098 3.114zm-17.724 0h-12.198v-9.12c0-2.232 1.223-3.46 3.443-3.46h6.98v-5.44H156.4c-1.08 0-1.777-.701-1.777-1.785s.697-1.785 1.777-1.785h8.781c.214 0 .416.007.611.028a9.854 9.854 0 0 0-.182-.002h-8.783c-.687 0-1.322.372-1.322 1.33 0 .117.01.228.029.328a1.52 1.52 0 0 0-.003.1c0 .58.292.875.869.875h.127c.098.016.199.025.3.025h9.1v6.352h-7.433c-1.984 0-2.99 1.01-2.99 3.003v8.664h11.746c.67 0 1.288-.352 1.321-1.252.018.113.026.23.026.354 0 1.084-.697 1.785-1.776 1.785zm-19.045 0h-10.422c-1.08 0-1.777-.7-1.777-1.785 0-1.084.698-1.784 1.777-1.784h3.435v-14.452h-3.435c-1.08 0-1.777-.7-1.777-1.784s.698-1.785 1.777-1.785h6.987v18.02h1.659v-4.912c0-1.135.647-1.786 1.776-1.786.13 0 .256.01.373.026-.937.022-1.267.573-1.267 1.329v5.369h-2.567v-18.02h-6.533c-.688 0-1.322.372-1.322 1.33 0 .117.01.228.028.33a1.464 1.464 0 0 0-.003.099c0 .579.293.874.869.874h.127c.098.016.199.025.301.025h3.889v15.362h-3.889c-.688 0-1.322.372-1.322 1.33 0 .118.01.228.028.33a1.487 1.487 0 0 0-.003.099c0 .579.293.873.869.873h.127c.098.017.199.025.301.025h10.422c.688 0 1.322-.371 1.322-1.328v-6.643c.017.12.027.244.027.376v6.697c0 1.084-.698 1.785-1.777 1.785zm334.15-3.544h7.776v-6.353h-7.777v6.353zm.025-.025h6.868v-5.44h-6.868v5.44zm-38.117.025h7.777v-4.093h-7.777v4.093zm.026-.025h6.868v-3.182h-6.868v3.182zm-11.295.025h-6.11a1 1 0 0 1-.212-.025h5.44v-5.44h-7.803v-12.581h9.579c.12 0 .235.008.345.026h-9.042v11.667h7.803v6.353zm-74.943 0h-9.015v-6.353h7.458c.874 0 1.482-.133 2.143-.743.74-.691.82-1.409.82-2.366v-5.449c0-.116-.002-.23-.005-.338.025.25.03.506.03.769v5.449c0 .984-.072 1.866-.965 2.7-.78.72-1.516.866-2.45.866h-7.007v5.44h8.646c.12 0 .235.008.345.025zm-66.153 0h7.777v-6.353h-7.777v6.353zm.025-.025h6.87v-5.44h-6.87v5.44zm-38.116.025h7.777v-4.093h-7.777v4.093zm.025-.025h6.87v-3.182h-6.87v3.182zm-11.293.025H236a1 1 0 0 1-.212-.025h5.44v-5.44h-7.803v-12.581h9.58c.12 0 .235.008.344.026h-9.042v11.667h7.804v6.353zm-74.945 0h-9.015v-6.353h7.46c.873 0 1.482-.133 2.142-.743.74-.691.82-1.409.82-2.366v-5.449c0-.116 0-.227-.004-.335.025.249.03.504.03.766v5.449c0 .984-.073 1.866-.965 2.7-.781.72-1.517.866-2.452.866h-7.006v5.44h8.646c.12 0 .234.008.344.025zm285.547-6.75h-8.878v-8.612c.732 0 1.272-.485 1.32-1.224.019.105.028.215.028.325 0 .875-.535 1.547-1.322 1.734v7.75h8.38c.171 0 .327.009.472.026zm-190.457 0h-8.877v-8.612c.732 0 1.272-.485 1.32-1.223.019.105.028.214.028.324 0 .875-.535 1.547-1.323 1.734v7.75h8.382c.17 0 .326.009.47.026zm-56.889 0h-.025v-7.609c.016.114.025.233.025.357v7.251zm190.456 0h-.025v-7.607c.016.113.025.232.025.355v7.251zm-2.67 0h-5.132v-9.865c.017.113.026.23.026.354v9.484h4.223v-7.225c0-1.101.68-1.785 1.777-1.785.125 0 .245.01.359.027-.95.03-1.253.678-1.253 1.327v7.682zm-190.457 0h-5.13v-9.865c.015.113.024.23.024.354v9.484h4.224v-7.225c0-1.101.681-1.785 1.777-1.785.125 0 .246.01.359.027-.951.03-1.254.678-1.254 1.327v7.682zm-15.801-.618a3.628 3.628 0 0 0-.307-.313c.82-.745 1.032-1.516 1.032-2.578v-5.091c.016.136.024.276.024.419v5.102c0 .805-.1 1.651-.75 2.46zm190.455-.002a3.618 3.618 0 0 0-.307-.311c.82-.745 1.032-1.516 1.032-2.578v-5.09c.017.135.025.275.025.418v5.102c0 .805-.101 1.651-.75 2.46zm-135.352-1.638a9.614 9.614 0 0 0-.179-.002h-4.867v-6.352h6.481c.67 0 1.288-.354 1.322-1.254.017.114.026.232.026.355 0 1.084-.697 1.784-1.776 1.784h-6.027v5.441h4.414c.209 0 .411.008.606.028zm190.456 0a9.497 9.497 0 0 0-.178-.002h-4.868v-6.352h6.481c.67 0 1.29-.354 1.322-1.254.017.113.026.232.026.355 0 1.084-.697 1.784-1.777 1.784h-6.026v5.441h4.413c.21 0 .412.008.607.028zm-133.18-.002h-.027v-7.584c.016.107.026.218.026.333v7.251zm190.454 0h-.025v-7.581c.016.106.025.216.025.33v7.251zm-5.157 0h2.487v-6.352h-2.487v6.352zm.026-.026h1.58v-5.44h-1.58v5.44zm-190.48.026h2.486v-6.352h-2.487v6.352zm.024-.026h1.579v-5.44h-1.58v5.44z"/>
        <path fill="#B4B4B0" d="M214.645 335.72c-4.54 0-5.765-2.475-5.765-7.223 0-4.665 1.246-7.345 5.765-7.345 4.518 0 5.786 2.639 5.786 7.345 0 4.87-1.246 7.223-5.786 7.223zm-.29-13.834c-3.821 0-5.31 1.932-5.31 6.896 0 5.001 1.39 6.775 5.31 6.775 3.936 0 5.33-1.774 5.33-6.775 0-4.964-1.494-6.896-5.33-6.896zm-71.38 13.834c-4.372 0-5.344-2.578-5.344-7.244 0-4.787.951-7.324 5.343-7.324 1.5 0 3.105.265 4.034.45l-.064 1.33c-.95-.164-2.66-.369-3.8-.369-3.252 0-3.823 1.882-3.823 5.913 0 3.95.528 5.832 3.865 5.832 1.182 0 2.744-.184 3.758-.368l.064 1.35c-1.036.205-2.64.43-4.034.43zm-.29-13.834c-3.7 0-4.887 1.67-4.887 6.877 0 5.079 1.233 6.794 4.887 6.794 1.181 0 2.548-.17 3.56-.35l-.021-.454c-.999.155-2.293.289-3.327.289-4.003 0-4.32-2.722-4.32-6.28 0-3.604.315-6.362 4.277-6.362.942 0 2.328.14 3.37.294l.021-.44c-.888-.162-2.269-.368-3.56-.368zm204.594 13.63h-8.89v-14.161h8.89v1.391h-7.264v4.891h5.997v1.371h-5.997v5.116h7.264v1.391zm-8.725-13.427v13.264h7.98v-.496h-7.263v-6.011h5.996v-.475h-5.996v-5.786h7.263v-.496h-7.98zm-5.023 13.426h-1.626v-12.481h-.295l-4.245 11.97h-1.815l-4.245-11.97h-.296v12.481h-1.625v-14.16h2.935l4.138 11.972 4.138-11.972h2.936v14.16zm-2.533-12.645h1.073v12.483h.716v-13.264h-2.155l-4.41 12.753h.53l4.246-11.972zm-11.45-.78v13.263h.717V322.87h1.073l4.245 11.972h.53l-4.41-12.753h-2.154zm-3.734 13.425h-1.605l-1.056-3.643h-6.25l-1.055 3.643h-1.606l4.013-14.16h3.547l4.012 14.16zm-9.543-3.806h6.936l1.056 3.644h.663l-3.758-13.264h-2.858l-3.758 13.264h.663l1.056-3.644zm-5.598 3.806h-2.977l-5.68-12.769h-.402v12.77h-1.625v-14.161h3.04l5.596 12.769h.444v-12.77h1.604v14.161zm-9.802-12.93h1.153l5.68 12.768h2.225v-13.264h-.695v12.768h-1.197l-5.596-12.768h-2.287v13.264h.717v-12.768zm-16.783 12.93h-1.795l-2.64-5.422h-4.139v5.422h-1.626v-14.16h5.407c3.062 0 4.667 1.31 4.667 4.298 0 2.087-.845 3.54-2.683 4.112l2.81 5.75zm-9.318-5.586h4.88l2.64 5.424h.785l-2.722-5.573.5-.156c1.591-.497 2.364-1.703 2.364-3.686 0-2.661-1.3-3.849-4.212-3.849h-4.951v13.264h.716v-5.424zm-4.936 5.586h-8.89v-14.16h8.89v1.391h-7.264v4.891h5.997v1.371h-5.997v5.116h7.264v1.391zm-8.725-13.426v13.264h7.98v-.496h-7.263v-6.011h5.997v-.475h-5.997v-5.786h7.264v-.496h-7.98zm-9.836 13.426h-5.216v-14.16h5.216c4.244 0 5.406 2.866 5.406 6.875 0 4.052-1.1 7.285-5.406 7.285zm-5.05-13.426v13.264h4.76c3.424 0 4.95-2.108 4.95-6.836 0-4.505-1.48-6.428-4.95-6.428h-4.76zm-3.502 13.426h-8.047v-14.16h1.627v12.748h6.42v1.412zm-7.88-13.426v13.264h7.135v-.516h-6.42V322.09h-.715zm-20.226 13.426h-1.606v-6.404h-7.433v6.404h-1.626v-14.16h1.626v6.344h7.433v-6.344h1.606v14.16zm-9.783-6.567h8.342v6.405h.696v-13.264h-.696v6.345h-8.342v-6.345h-.716v13.264h.716v-6.405zm-10.554 6.567h-5.215v-14.16h5.215c4.245 0 5.407 2.866 5.407 6.875 0 4.052-1.1 7.285-5.407 7.285zm-5.049-13.426v13.264h4.76c3.424 0 4.952-2.108 4.952-6.836 0-4.505-1.481-6.428-4.952-6.428h-4.76zm-4.242 13.426h-1.795l-2.64-5.422h-4.138v5.422h-1.626v-14.16h5.406c3.062 0 4.667 1.31 4.667 4.298 0 2.087-.845 3.54-2.683 4.112l2.81 5.75zm-9.318-5.586h4.881l2.639 5.424h.785l-2.722-5.573.5-.157c1.591-.496 2.364-1.702 2.364-3.685 0-2.661-1.299-3.849-4.211-3.849h-4.951v13.264h.715v-5.424zm-4.45 5.586h-1.605l-1.055-3.643h-6.252l-1.054 3.643h-1.606l4.012-14.16h3.549l4.011 14.16zm-9.543-3.806h6.936l1.056 3.644h.663l-3.758-13.264h-2.858l-3.758 13.264h.663l1.056-3.644zm62.679 3.354c-3.79 0-4.552-2.404-4.552-6.281 0-3.843.775-6.403 4.552-6.403 3.777 0 4.551 2.56 4.551 6.403 0 4.073-.724 6.281-4.551 6.281zm.29-12.52c-3.359 0-4.097 2.107-4.097 5.954 0 3.867.718 5.831 4.097 5.831 3.4 0 4.096-1.84 4.096-5.83 0-3.828-.76-5.955-4.096-5.955zm26.339 12.314h-4.045v-12.272h4.045c3.757 0 4.192 3.384 4.192 5.932 0 4.207-1.411 6.34-4.192 6.34zm-3.302-12.11v11.377h3.591c3.04 0 3.738-2.824 3.738-5.894 0-3.068-.698-5.484-3.738-5.484h-3.59zm-53.693 12.11h-4.044v-12.272h4.044c3.758 0 4.193 3.384 4.193 5.932 0 4.207-1.41 6.34-4.193 6.34zm-3.3-12.11v11.377h3.59c3.04 0 3.738-2.824 3.738-5.894 0-3.068-.698-5.484-3.739-5.484h-3.59zm132.417 8.448h-6.734l2.474-8.652h1.786l2.474 8.652zm-3.627-8.49l-2.217 7.756h5.533l-2.218-7.755h-1.098zm-150.968 8.49h-6.735l2.475-8.652h1.786l2.474 8.652zm-3.627-8.49l-2.217 7.756h5.532l-2.217-7.755h-1.098zm114.142 6.73h-4.256v-6.85h4.235c2.291 0 3.454 1.127 3.454 3.353 0 2.255-1.219 3.497-3.433 3.497zm-3.512-6.689v5.956h3.801c2.196 0 2.978-1.27 2.978-3.05 0-1.943-.95-2.906-2.998-2.906h-3.78zm-95.589 6.69h-4.256v-6.851h4.236c2.29 0 3.453 1.127 3.453 3.353 0 2.255-1.219 3.497-3.433 3.497zm-3.51-6.69v5.956h3.8c2.196 0 2.977-1.27 2.977-3.05 0-1.943-.95-2.906-2.998-2.906h-3.78zm179.043-15.645h-5.346c-.108 0-.214-.009-.316-.026h5.233c.776 0 1.363-.578 1.363-1.345v-10.367c0-.74-.611-1.343-1.363-1.343h-5.347c-.752 0-1.365.602-1.365 1.343v10.252a1.815 1.815 0 0 1-.025-.308V294.94c0-.985.818-1.793 1.82-1.793h5.256c.982.145 1.761.913 1.909 1.882v10.278c0 1.005-.783 1.794-1.82 1.794zm-13.094 0h-5.347c-.108 0-.213-.009-.315-.026h5.233c.776 0 1.363-.578 1.363-1.345v-10.367c0-.74-.612-1.343-1.363-1.343h-5.347c-.753 0-1.365.602-1.365 1.343v10.252a1.933 1.933 0 0 1-.025-.308V294.94c0-.985.819-1.793 1.82-1.793h5.256c.982.145 1.76.913 1.909 1.88v10.28c0 1.005-.783 1.794-1.82 1.794zm-19.351 0a.903.903 0 0 1-.275-.045c.103-.036.197-.132.342-.382l6.986-11.788a.931.931 0 0 0 .14-.471c0-.211-.206-.395-.438-.395-.177 0-.274.09-.502.463l-6.859 11.585c-.099.156-.202.316-.25.462a.752.752 0 0 1-.053-.273c0-.34.218-.646.4-.932l6.803-11.496c.195-.324.393-.617.762-.673.497.114.896.5 1.012.979a1.455 1.455 0 0 1-.194.555l-6.982 11.782c-.218.376-.436.629-.892.629zm-6.837 0h-5.347c-.108 0-.214-.009-.316-.026h5.233c.778 0 1.364-.578 1.364-1.345v-10.367c0-.74-.612-1.343-1.364-1.343H300.4c-.751 0-1.364.602-1.364 1.343v10.252a1.815 1.815 0 0 1-.025-.308V294.94c0-.985.819-1.793 1.819-1.793h5.256c.982.145 1.76.91 1.909 1.878v10.282c0 1.005-.782 1.794-1.818 1.794zm-13.094 0h-5.348c-.108 0-.212-.009-.315-.026h5.233c.777 0 1.363-.578 1.363-1.345v-10.367c0-.74-.61-1.343-1.363-1.343h-5.347c-.752 0-1.364.602-1.364 1.343v10.256a1.853 1.853 0 0 1-.026-.312V294.94c0-.985.82-1.793 1.82-1.793h5.256a2.265 2.265 0 0 1 1.91 1.882v10.278c0 1.005-.783 1.794-1.82 1.794zm46.144-.921h6.258v-11.264h-6.258v11.264zm.886-.873h5.346V294.94h-5.346v10.367zm-13.98.873h6.257v-11.264h-6.257v11.264zm.885-.873h5.347V294.94h-5.347v10.367zm-27.073.873h6.257v-11.264h-6.257v11.264zm.885-.873h5.347V294.94h-5.347v10.367zm-13.979.873h6.256v-11.264h-6.256v11.264zm.884-.873h5.348V294.94h-5.348v10.367zm204.02-26.128h-7.797c-.149 0-.293-.009-.431-.025H491.325c1.375 0 2.196-.81 2.196-2.166v-6.225c0-.695-.192-1.228-.573-1.582-.435-.405-.981-.611-1.623-.611h-.456v-8.006c0-.203-.062-.86-.87-.86h-5.146c-.808 0-.87.657-.87.86v8.006h-.455c-.644 0-1.19.206-1.624.61-.381.355-.573.888-.573 1.583v6.226a3.377 3.377 0 0 1-.026-.425v-6.224c0-.811.24-1.465.716-1.909.478-.445 1.115-.732 1.936-.732v-7.558c0-.68.425-1.308 1.326-1.308h5.046c.763.119 1.304.653 1.425 1.406v7.46h.025a3.12 3.12 0 0 1 1.793.828c.468.436.75 1.042.834 1.773v6.264c0 1.595-1.009 2.615-2.652 2.615zm-22.939 0c-.13 0-.25-.009-.358-.026.596-.016.8-.24.8-.858v-5.073c0-1.055.112-1.222.896-1.906l3.716-3.168c.56-.471.56-.471.559-1.217v-7.226h-11.32c-.616 0-.872.56-.872.859v1.122a1.138 1.138 0 0 1-.025-.238v-1.307c0-.576.477-1.308 1.326-1.308h11.775v7.584c0 .915.027 1.02-.717 1.648l-3.711 3.164c-.69.602-.744.654-.744 1.57v5.073c0 .836-.37 1.307-1.325 1.307zm-14.322 0h-9.652c-.169 0-.323-.008-.464-.025h9.688c.996 0 1.27-.257 1.27-1.199v-5.858c0-1.096-.182-1.304-1.138-1.304h-9.312v-9.369h.455c.528 0 .87-.339.87-.86 0-.45-.376-.86-.79-.86h-1.593c-.223 0-.685 0-.685.86v17.404a3.395 3.395 0 0 1-.026-.436v-17.39c0-.603.213-1.31 1.142-1.31h1.442c.693.125 1.259.701 1.392 1.412-.048.728-.589 1.204-1.323 1.204v8.474H454.669c1.073.129 1.45.725 1.547 1.603l.001.15v5.857c0 1.23-.53 1.647-1.724 1.647zm-20.312 0h-5.888a3.29 3.29 0 0 1-.413-.025h5.87c.93 0 1.432-.105 1.958-.728.455-.533.532-.972.532-1.752v-5.597c0-.866-.067-1.335-.677-1.894-.543-.513-1.076-.613-1.813-.613h-5.334v-7.146h6.951c.58 0 .873-.29.873-.86 0-.57-.293-.86-.873-.86h-8.693v10.585h7.823v7.148h-6.581c-.423 0-.903-.233-1.287-.42-.109-.054-.21-.104-.298-.141l-.797-.34c-.251-.114-.43-.172-.668-.172-.39 0-.75.34-.81.742a1.35 1.35 0 0 1-.033-.307c0-.654.542-1.26 1.198-1.304.24.04.454.118.683.22l.788.338c.098.042.213.098.34.159.267.13.673.328.884.328h.217c.074.015.146.024.213.024h6.125v-6.25h-7.823v-11.481h9.066c.77.116 1.289.625 1.409 1.382-.033.885-.654 1.233-1.325 1.233H429.3v6.25h4.88c.061 0 .12.002.179.003.66.07 1.248.281 1.828.83.654.598.867 1.181.933 1.823.003.096.004.196.004.3v5.596c0 .811-.08 1.386-.637 2.04-.663.785-1.352.889-2.306.889zm-37.898 0c-.13 0-.249-.009-.358-.026.596-.016.8-.24.8-.858v-5.783h.455c.578 0 .871-.29.871-.86 0-.57-.293-.86-.871-.86h-.456v-8.005c0-.77-.496-.86-.87-.86s-.871.09-.871.86v8.006h-6.055v-10.23c0-.769-.498-.858-.872-.858-.373 0-.87.089-.87.859v11.948h7.797v5.709a2.212 2.212 0 0 1-.025-.349v-5.335h-7.798V260.14c0-.639.304-1.277 1.257-1.307.774.116 1.28.617 1.396 1.382v9.706h5.145v-7.559c0-.639.304-1.278 1.256-1.306.774.116 1.279.617 1.396 1.38v7.485h.024v.019c.71.146 1.186.642 1.3 1.363-.033.887-.654 1.233-1.324 1.233v5.335c0 .836-.372 1.307-1.327 1.307zm-19.094 0h-9.122c-.103 0-.204-.008-.303-.025h8.994c1.253 0 2.197-.931 2.197-2.166v-5.021c0-1.047-.228-1.624-.883-2.204l-.373-.333.373-.333c.655-.582.883-1.158.883-2.204v-5.02c0-1.237-.944-2.168-2.197-2.168h-9.121c-.544 0-.836.256-.87.76a1.803 1.803 0 0 1-.027-.324c0-.942.636-1.308 1.327-1.308h9.11c1.423.172 2.49 1.224 2.665 2.628v5.008c0 1.046-.213 1.805-1.036 2.537.115.101.216.204.308.307-.031.04-.065.079-.1.117.559.626.76 1.278.824 1.916.003.065.004.13.004.196v5.022c0 1.492-1.141 2.615-2.653 2.615zm-17.768 0h-11.775v-8.526c0-1.96 1.007-2.954 2.996-2.954h7.452v-6.25h-9.122c-.103 0-.204-.01-.301-.025h9.45v7.146h-7.909c-1.733 0-2.541.797-2.541 2.507v8.077h11.32c.578 0 .872-.29.872-.859 0-.57-.294-.858-.871-.858h-9.579v-7.148h7.934c.772 0 1.268-.095 1.84-.614.578-.528.676-1.044.676-1.997v-5.362c0-.954-.098-1.468-.677-1.998-.571-.519-1.067-.613-1.839-.613h-8.805c-.544 0-.835.255-.868.76a1.782 1.782 0 0 1-.028-.324c0-.942.636-1.308 1.326-1.308h8.804c.063 0 .124 0 .184.002.662.067 1.24.277 1.843.823.657.601.87 1.228.939 1.901.003.108.004.22.004.333v5.362c0 .942-.079 1.648-.822 2.328-.663.6-1.271.732-2.148.732h-7.477v6.25h9.038c.77.116 1.288.625 1.408 1.383-.033.886-.654 1.232-1.324 1.232zm-19.094 0h-10.45c-.101 0-.203-.008-.301-.025h10.32c.578 0 .872-.29.872-.859v-6.59c0-.618-.244-.86-.871-.86-.626 0-.871.242-.871.86v5.732h-3.48v-17.732h-6.097c-.546 0-.837.257-.868.764-.02-.1-.03-.21-.03-.328 0-.942.637-1.308 1.326-1.308h6.551v17.731h2.573v-5.283c0-.744.331-1.286 1.27-1.307.783.113 1.269.593 1.382 1.367v6.531c0 .942-.637 1.307-1.326 1.307zm-39.515 0h-7.796c-.15 0-.294-.009-.432-.025H300.383c1.376 0 2.197-.81 2.197-2.166v-6.225c0-.695-.192-1.228-.573-1.582-.434-.405-.98-.611-1.624-.611h-.455v-8.006c0-.203-.062-.86-.87-.86h-5.146c-.809 0-.871.657-.871.86v8.006h-.455c-.643 0-1.19.206-1.624.61-.38.355-.573.888-.573 1.583v6.226a3.377 3.377 0 0 1-.026-.425v-6.224c0-.811.239-1.465.717-1.909.477-.445 1.113-.732 1.936-.732v-7.558c0-.68.424-1.308 1.325-1.308h5.045c.763.119 1.304.652 1.426 1.403v7.463h.026c.69.084 1.292.362 1.794.83.465.433.749 1.037.832 1.765V276.564c0 1.595-1.007 2.615-2.652 2.615zm-22.939 0c-.13 0-.249-.009-.358-.026.596-.016.8-.24.8-.858v-5.073c0-1.055.112-1.222.895-1.906l3.717-3.168c.56-.471.56-.471.56-1.217v-7.226h-11.32c-.617 0-.873.56-.873.859v1.12a1.196 1.196 0 0 1-.024-.236v-1.307c0-.576.477-1.308 1.325-1.308h11.775v7.584c0 .915.027 1.02-.715 1.648l-3.713 3.164c-.69.602-.743.654-.743 1.57v5.073c0 .836-.371 1.307-1.326 1.307zm-14.32 0h-9.654c-.169 0-.322-.008-.463-.025h9.687c.996 0 1.268-.257 1.268-1.199v-5.858c0-1.096-.18-1.304-1.135-1.304h-9.313v-9.369h.455c.529 0 .87-.339.87-.86 0-.45-.377-.86-.79-.86h-1.592c-.222 0-.685 0-.685.86v17.403a3.378 3.378 0 0 1-.026-.435v-17.39c0-.603.212-1.31 1.14-1.31h1.442c.694.125 1.26.701 1.393 1.413-.048.727-.589 1.203-1.323 1.203v8.474h8.899c1.077.129 1.452.727 1.549 1.61v6c0 1.23-.53 1.647-1.722 1.647zm-20.315 0h-5.887c-.149 0-.285-.009-.412-.025h5.87c.928 0 1.43-.105 1.958-.728.454-.533.53-.972.53-1.752v-5.597c0-.866-.066-1.336-.676-1.894-.543-.513-1.075-.613-1.812-.613h-5.335v-7.146h6.953c.577 0 .87-.29.87-.86 0-.57-.293-.86-.87-.86h-8.695v10.585h7.823v7.148h-6.58c-.424 0-.903-.233-1.288-.42-.109-.054-.21-.104-.298-.14l-.796-.34c-.253-.115-.43-.173-.669-.173-.39 0-.749.34-.81.742a1.35 1.35 0 0 1-.033-.307c0-.654.541-1.26 1.197-1.304.241.04.455.118.683.22l.788.338c.1.042.216.098.341.159.268.13.673.328.884.328h.217c.075.015.146.024.213.024h6.127v-6.25h-7.824v-11.481h9.065c.77.116 1.29.625 1.409 1.382-.034.885-.654 1.233-1.325 1.233h-6.498v6.25h4.88l.18.003c.659.07 1.247.281 1.827.83.654.598.867 1.181.933 1.823.003.096.004.196.004.3v5.596c0 .811-.08 1.386-.637 2.04-.663.785-1.353.889-2.307.889zm-37.896 0c-.13 0-.25-.009-.358-.026.596-.016.8-.24.8-.858v-5.783h.454c.578 0 .871-.29.871-.86 0-.57-.293-.86-.87-.86h-.455v-8.005c0-.77-.498-.86-.872-.86s-.87.09-.87.86v8.006h-6.056v-10.23c0-.769-.497-.858-.871-.858s-.87.089-.87.859v11.948h7.796v5.712a2.24 2.24 0 0 1-.026-.352v-5.335h-7.796V260.14c0-.64.304-1.279 1.257-1.307.773.116 1.28.617 1.395 1.382v9.706h5.144v-7.559c0-.639.304-1.278 1.257-1.306.773.116 1.278.615 1.396 1.378v7.487h.025v.019c.709.146 1.185.642 1.3 1.363-.034.887-.655 1.233-1.325 1.233v5.335c0 .836-.371 1.307-1.326 1.307zm-19.095 0h-9.122c-.103 0-.204-.008-.302-.025h8.996c1.252 0 2.197-.931 2.197-2.166v-5.021c0-1.047-.232-1.624-.885-2.204l-.374-.333.374-.333c.653-.582.885-1.158.885-2.204v-5.02c0-1.237-.945-2.168-2.197-2.168h-9.124c-.544 0-.835.256-.868.76a1.794 1.794 0 0 1-.028-.324c0-.942.636-1.308 1.326-1.308h9.112c1.423.172 2.488 1.224 2.663 2.627v5.01c0 1.045-.213 1.804-1.034 2.536.113.101.216.204.307.308a3.16 3.16 0 0 1-.099.116c.557.625.758 1.276.823 1.915.002.065.003.131.003.197v5.022c0 1.492-1.141 2.615-2.653 2.615zm-17.767 0h-11.776v-8.526c0-1.96 1.008-2.954 2.997-2.954h7.453v-6.25h-9.124c-.101 0-.203-.01-.301-.025h9.45v7.146h-7.907c-1.734 0-2.542.797-2.542 2.507v8.077h11.32c.579 0 .871-.29.871-.859 0-.57-.292-.858-.871-.858h-9.578v-7.148h7.934c.772 0 1.267-.095 1.84-.614.577-.528.675-1.044.675-1.997v-5.362c0-.954-.098-1.468-.677-1.998-.57-.519-1.066-.613-1.838-.613h-8.804c-.544 0-.836.255-.868.76a1.687 1.687 0 0 1-.03-.324c0-.942.637-1.308 1.326-1.308h8.805c.063 0 .123 0 .183.002.664.067 1.241.277 1.844.823.657.602.871 1.23.939 1.904.003.107.004.217.004.33v5.362c0 .942-.08 1.648-.822 2.328-.662.6-1.272.732-2.148.732h-7.479v6.25h9.038c.771.116 1.29.625 1.41 1.383-.033.886-.653 1.232-1.324 1.232zm-19.095 0h-10.448c-.103 0-.204-.008-.303-.025h10.322c.578 0 .871-.29.871-.859v-6.59c0-.618-.245-.86-.87-.86-.628 0-.872.242-.872.86v5.732h-3.483v-17.732h-6.095c-.544 0-.836.256-.868.76a1.803 1.803 0 0 1-.028-.324c0-.942.636-1.308 1.326-1.308h6.55v17.731h2.572v-5.283c0-.744.332-1.286 1.27-1.307.782.113 1.268.59 1.382 1.362v6.536c0 .942-.636 1.307-1.326 1.307zm127.187-.958a2.198 2.198 0 0 1-.025-.349v-6.303c0-.864.027-.941.69-1.517l3.66-3.112c.874-.758.822-.732.822-1.882v-3.61h-7.798c0 .575-.477 1.308-1.326 1.308-.107 0-.208-.012-.303-.034.525-.07.745-.572.745-.85v-.448h8.707v4.241c.003 1.109-.06 1.242-.977 2.035l-3.663 3.115c-.532.461-.532.461-.532 1.178v6.228zm190.942 0a2.208 2.208 0 0 1-.026-.349v-6.303c0-.864.027-.941.69-1.517l3.66-3.112c.874-.758.821-.732.821-1.882v-3.61h-7.795c0 .575-.479 1.308-1.327 1.308-.107 0-.208-.012-.303-.034.524-.07.744-.572.744-.85v-.448h8.707v4.241c.004 1.109-.06 1.242-.976 2.035l-3.664 3.115c-.53.461-.53.461-.53 1.178v6.228zm-138.933-.02c-.02-.1-.03-.21-.03-.329 0-.942.637-1.308 1.326-1.308h3.899v-15.116h-3.899c-.101 0-.203-.008-.301-.024h4.224v16.013h-4.351c-.546 0-.837.257-.868.764zm-152.754-.004a1.786 1.786 0 0 1-.028-.325c0-.942.636-1.308 1.326-1.308h9.122v-4.342-.094c.017.16.026.332.026.52v4.789h-9.578c-.544 0-.835.256-.868.76zm190.94 0a1.794 1.794 0 0 1-.027-.325c0-.942.636-1.308 1.327-1.308h9.122v-4.342-.09c.016.159.025.33.025.515v4.79h-9.577c-.544 0-.836.256-.87.76zm-229.128 0a1.794 1.794 0 0 1-.028-.325c0-.942.636-1.308 1.326-1.308h3.898v-15.116h-3.898c-.103 0-.204-.008-.303-.024h4.227v16.013h-4.354c-.544 0-.836.256-.868.76zm345.434-.76h8.706v-7.148h-8.706v7.148zm.884-.873h7.797v-6.25h-7.797v6.25zm-39.072.873h8.706v-4.925h-8.706v4.925zm.884-.873h7.797v-4.027h-7.797v4.027zm-153.638.873h8.707v-7.148h-8.707v7.148zm.885-.873h7.796v-6.25h-7.796v6.25zm-39.073.873h8.707v-4.925h-8.707v4.925zm.884-.873h7.797v-4.027h-7.797v4.027zm120.926-6.25h-5.088c-.102 0-.204-.008-.302-.025h5.07c.098 0 .207.006.32.025zm-190.94 0h-5.09c-.102 0-.204-.008-.302-.025h5.071c.098 0 .207.006.32.025zm184.555-.983a1.69 1.69 0 0 1-.03-.325c0-.94.637-1.307 1.327-1.307h5.197c.743 0 1.327-.445 1.327-1.91v-4.34h-9.122c-.103 0-.204-.01-.303-.025h9.45v4.79c0 2.05-1.115 2.356-1.781 2.356h-5.199c-.543 0-.834.256-.866.76zm-190.942 0a1.794 1.794 0 0 1-.028-.325c0-.94.636-1.307 1.325-1.307h5.199c.742 0 1.325-.445 1.325-1.91v-4.34h-9.122c-.103 0-.204-.01-.302-.025h9.45v4.79c0 2.05-1.116 2.356-1.781 2.356h-5.197c-.544 0-.836.255-.87.76zm307.299-.761h3.403v-7.146h-3.403v7.146zm.884-.871h2.494v-6.25h-2.494v6.25zm-191.826.87h3.403v-7.145h-3.403v7.146zm.885-.87h2.493v-6.25h-2.493v6.25z"/>
        <path fill="#C8C8C3" d="M279.27 299.476v4.063c0 .907-.523 1.259-1.45 1.259-.875 0-1.39-.352-1.39-1.26v-4.062h-.66v4.046c0 1.336.746 1.848 2.05 1.848 1.356 0 2.102-.521 2.102-1.848v-4.046h-.652zm-6.538 3.015h-1.543v-2.443h1.536c.832 0 1.218.394 1.218 1.191 0 .73-.318 1.252-1.21 1.252zm1.889-1.252c0-1.226-.652-1.763-1.896-1.763h-2.197v5.81h.661v-2.225h1.68l1.074 2.225h.73l-1.142-2.359c.746-.235 1.09-.832 1.09-1.688zm-6.203.84h-3.02v-2.603h-.661v5.81h.66v-2.628h3.021v2.628h.651v-5.81h-.65v2.603zm-8.811-2.023h1.827v5.23h.652v-5.23h1.81v-.58h-4.289v.58zm16.742-8.28h1.415c1.198 0 1.473.993 1.473 2.254 0 1.26-.275 2.42-1.473 2.42h-1.415v-4.673zm3.545 2.254c0-1.647-.458-2.824-2.13-2.824h-2.056v5.817h2.056c1.698 0 2.13-1.329 2.13-2.993zm-6.234 2.993h.641v-5.817h-.641v5.817zm-.816-.58h-2.53v-5.237h-.641v5.817h3.17v-.58zm-6.576-4.682h.432l.874 3.185h-2.18l.874-3.185zm-1.015 3.765h2.464l.416 1.497h.633l-1.582-5.817h-1.4l-1.581 5.817h.634l.416-1.497zm-3.205.924h-.466l-1.324-5.244h-.666l1.507 5.817h1.431l1.508-5.817h-.666l-1.324 5.244zM163.956 292.485v-2.754h-1.01v2.754h-3.132l2.503-6.19h-1.101l-2.464 6.298v.803h4.194v1.723h1.01v-1.723h1.1v-.911h-1.1zm-8.1-2.032c.249-.16 1.284-.627 1.284-2.006 0-1.564-.72-2.3-2.766-2.3-1.31 0-2.542.375-2.542.375l.091.816s1.219-.268 2.412-.268c1.284 0 1.77.415 1.77 1.418 0 1.017-.918 1.604-1.574 1.604h-1.743v.883h1.743c.984.04 1.783.44 1.783 1.658 0 1.136-.59 1.697-1.874 1.711-1.233 0-2.647-.294-2.647-.294l-.093.842s1.482.36 2.844.36c1.954 0 2.805-.881 2.805-2.66 0-1.43-.616-1.818-1.494-2.139zm-7.904 1.376c1.219-1.202 1.809-1.978 1.809-3.3 0-1.658-.918-2.368-2.74-2.368-1.259 0-2.503.361-2.503.361l.078.857s1.285-.295 2.242-.295c1.245 0 1.887.375 1.887 1.55 0 1.044-.668 1.766-1.743 2.902l-2.53 2.714v.869h5.53v-.895h-4.337l2.307-2.395zm-10.341-3.662l.458.776 2.228-1.498v7.674h1.01v-8.823h-.943l-2.753 1.871z"/>
        <path fill="#AEB7C8" d="M141.806 178.91c-3.44 0-6.228 2.89-6.228 6.457v42.73c0 3.566 2.788 6.456 6.228 6.456h47.519c3.44 0 6.227-2.89 6.227-6.456v-42.73c0-3.567-2.787-6.456-6.227-6.456h-47.52z"/>
        <path fill="url(#r)" d="M42.66 33.713h18.908V22.63H42.661v11.083zm13.374-31.79H42.661v8.347h18.907V7.567c0-3.118-2.478-5.645-5.534-5.645zM42.661 44.27h18.907v-9.84H42.661v9.84zm-.703-42.348H21.863V44.27h20.095V21.913h19.61V10.988h-19.61V1.922zM2.61 33.713h18.548V22.63H2.611v11.083zm0-11.8h18.548V10.988H2.611v10.925zm0 27.983c0 3.118 2.477 5.645 5.533 5.645h47.89c3.056 0 5.534-2.527 5.534-5.645v-4.908H2.611v4.908zM21.159 1.922H8.144c-3.056 0-5.533 2.527-5.533 5.645v2.703h18.548V1.922zM2.611 44.27h18.548v-9.84H2.611v9.84z" transform="translate(135 178)"/>
    </g>
</svg>
