<svg xmlns="http://www.w3.org/2000/svg" xmlns:xlink="http://www.w3.org/1999/xlink" width="631" height="460" viewBox="0 0 631 460">
    <defs>
        <linearGradient id="b" x1="8.052%" x2="94.842%" y1="90.01%" y2="16.816%">
            <stop offset="0%" stop-color="#3E6CD5"/>
            <stop offset="100%" stop-color="#578AFF"/>
        </linearGradient>
        <path id="a" d="M404.324.209H20C9.076.209.22 9.015.22 19.879v213.576c0 10.865 8.856 19.672 19.78 19.672h384.324c10.924 0 19.78-8.807 19.78-19.672V19.879c0-10.864-8.856-19.67-19.78-19.67"/>
        <path id="d" d="M33.947 8.375C28.605 15.737 3.527 56.99.923 61.493-.534 64.014.49 66.601 3.7 66.601l35.393-.628L46.676.153c-3.872.988-9.11 3.234-12.73 8.222z"/>
        <path id="f" d="M33.947 8.375C28.605 15.737 3.527 56.99.923 61.493-.534 64.014.49 66.601 3.7 66.601l35.393-.628L46.676.153c-3.872.988-9.11 3.234-12.73 8.222z"/>
        <path id="h" d="M33.947 8.375C28.605 15.737 3.527 56.99.923 61.493-.534 64.014.49 66.601 3.7 66.601l35.393-.628L46.676.153c-3.872.988-9.11 3.234-12.73 8.222z"/>
        <path id="j" d="M33.947 8.375C28.605 15.737 3.527 56.99.923 61.493-.534 64.014.49 66.601 3.7 66.601l35.393-.628L46.676.153c-3.872.988-9.11 3.234-12.73 8.222z"/>
        <path id="l" d="M33.947 8.375C28.605 15.737 3.527 56.99.923 61.493-.534 64.014.49 66.601 3.7 66.601l35.393-.628L46.676.153c-3.872.988-9.11 3.234-12.73 8.222"/>
        <path id="n" d="M33.947 8.375C28.605 15.737 3.527 56.99.923 61.493-.534 64.014.49 66.601 3.7 66.601l35.393-.628L46.676.153c-3.872.988-9.11 3.234-12.73 8.222"/>
        <path id="p" d="M79.133.46c-10.78.723-66.086 4.322-71.084 4.711L.45 71.684l81.914-1.467a1.86 1.86 0 0 0 1.819-1.953L81.077 2.21A1.83 1.83 0 0 0 79.133.46z"/>
        <path id="r" d="M79.133.46c-10.78.723-66.086 4.322-71.084 4.711L.45 71.684l81.914-1.467a1.86 1.86 0 0 0 1.819-1.953L81.077 2.21A1.83 1.83 0 0 0 79.133.46z"/>
        <path id="t" d="M79.133.46c-10.78.723-66.086 4.322-71.084 4.711L.45 71.684l81.914-1.467a1.86 1.86 0 0 0 1.819-1.953L81.077 2.21A1.83 1.83 0 0 0 79.133.46z"/>
        <path id="v" d="M79.133.46c-10.78.723-66.086 4.322-71.084 4.711L.45 71.684l81.914-1.467a1.86 1.86 0 0 0 1.819-1.953L81.077 2.21A1.83 1.83 0 0 0 79.133.46z"/>
        <path id="x" d="M79.133.46c-10.78.723-66.086 4.322-71.084 4.711L.45 71.684l81.914-1.467a1.86 1.86 0 0 0 1.819-1.953L81.077 2.21A1.83 1.83 0 0 0 79.133.46"/>
        <path id="z" d="M79.133.46c-10.78.723-66.086 4.322-71.084 4.711L.45 71.684l81.914-1.467a1.86 1.86 0 0 0 1.819-1.953L81.077 2.21A1.83 1.83 0 0 0 79.133.46"/>
        <path id="B" d="M0 282.884h231.152V.41H0z"/>
        <path id="D" d="M2.73 34.464c2.828 9.929 8.902 15.179 18.796 15.735 7.493.422 9.513-17.882 11.362-27.332C35.732 8.324 23.684.845 13.162.309c-.293-.015-.58-.022-.861-.022C-4.863.287.606 27.778 2.73 34.464"/>
        <radialGradient id="E" cx="166.768%" cy="18.939%" r="150.873%" fx="166.768%" fy="18.939%" gradientTransform="scale(-1 -.66336) rotate(-37.553 -.698 4.857)">
            <stop offset="0%" stop-color="#FFE8E8"/>
            <stop offset="100%" stop-color="#FDACAC"/>
        </radialGradient>
        <path id="G" d="M.445.41h51.822v38.747H.445z"/>
        <path id="I" d="M.512 7.464l11.644 46.178s20.93.792 36.493-5.88C59.945 42.92 74.021 33.581 77.67 25.28L70.198.374.512 7.464z"/>
        <path id="K" d="M.512 7.464l11.644 46.178s20.93.792 36.493-5.88C59.945 42.92 74.021 33.581 77.67 25.28L70.198.374.512 7.464z"/>
        <path id="M" d="M.512 7.464l11.644 46.178s20.93.792 36.493-5.88C59.945 42.92 74.021 33.581 77.67 25.28L70.198.374.512 7.464z"/>
        <linearGradient id="O" x1="82.996%" x2="50%" y1="10.568%" y2="100%">
            <stop offset="0%" stop-color="#DFE4E8"/>
            <stop offset="100%" stop-color="#D2D3D3"/>
        </linearGradient>
    </defs>
    <g fill="none" fill-rule="evenodd">
        <path fill="#FFF" d="M-1952-6736h3768V6244h-3768z"/>
        <path fill="#ECECEC" d="M508.316 100H122.684C110.156 100 100 110.121 100 122.608v214.783C100 349.877 110.156 360 122.684 360h385.632C520.844 360 531 349.877 531 337.39V122.609C531 110.121 520.844 100 508.316 100"/>
        <g transform="translate(102.83 102.826)">
            <mask id="c" fill="#fff">
                <use xlink:href="#a"/>
            </mask>
            <use fill="url(#b)" xlink:href="#a"/>
            <g mask="url(#c)">
                <path d="M102-18h405v405H102z"/>
                <path fill="#C5CBD8" d="M371.601 134.154l-3.137-66.208a3.347 3.347 0 0 0-3.566-3.182c-14.143.94-67.748 4.51-72.561 4.885-3.156.247-12.141 1.82-17.604 9.358-5.598 7.724-24.823 39.572-33.46 53.965-1.863 3.103.417 7.038 4.037 6.975l122.857-2.132a3.497 3.497 0 0 0 3.434-3.66"/>
                <path fill="#E9EEFB" d="M288.904 71.855c-3.872.988-9.107 3.236-12.725 8.228-5.34 7.368-30.41 48.658-33.012 53.164-1.457 2.522-.434 5.111 2.775 5.111l35.381-.628 7.581-65.875zM366.573 68.192a1.838 1.838 0 0 0-1.957-1.749c-10.858.722-66.564 4.321-71.599 4.71l-7.653 66.505 82.505-1.465a1.867 1.867 0 0 0 1.833-1.954l-3.129-66.047z"/>
                <g transform="translate(242.534 71.539)">
                    <mask id="e" fill="#fff">
                        <use xlink:href="#d"/>
                    </mask>
                    <path fill="#D8E7FC" d="M15.237 36.647L-4.02 67.64l95.598-1.732 37.302-.52-1.453-33.805-14.845.022z" mask="url(#e)"/>
                </g>
                <g transform="translate(242.534 71.539)">
                    <mask id="g" fill="#fff">
                        <use xlink:href="#f"/>
                    </mask>
                    <path fill="#D2D8EE" d="M13.155 38.379s6.623-.041 17.697-.866c11.624-.866 13.337-2.078 30.016-2.078 11.797 0 23.17-1.675 31.23-1.904 9.75-.279 19.723-1.226 23.277-1.589.239-.024.254-.365.018-.408-1.91-.346-5.573-.894-9.069-.774-3.787.13-10.583-2.077-14.226-1.731-3.644.346-3.644-1.212-7.461-1.039-2.26.102-3.297 1.385-6.94 1.385-2.194 0-3.817-1.558-6.593-1.212-2.776.347-4.164 1.558-7.634.174-3.47-1.386-2.082-3.29-8.675-3.81-6.593-.52-9.369-2.943-15.094-2.77-8.756.265-13.186 3.809-13.186 3.809l-13.36 12.813z" mask="url(#g)"/>
                </g>
                <g transform="translate(242.534 71.539)">
                    <mask id="i" fill="#fff">
                        <use xlink:href="#h"/>
                    </mask>
                    <path fill="#CBDFFB" d="M13.039 39.487s6.575-.791 17.665-1.364c11.642-.601 13.493.386 30.039-1.71 11.704-1.481 23.197-1.248 31.222-2.032 9.854-.963 20.025-1.27 23.45-1.352.214-.005.263.295.06.36-1.806.575-5.47 1.625-9.047 1.953-3.773.347-10.238 3.39-13.896 3.505-3.658.114-3.46 1.66-7.27 1.967-2.255.183-3.706-.12-7.348-.012-7.707.232-4.302 2.114-7.938 2.468-5.335.52-6.996-.12-9.499.39-3.662.744 4.438 3.846-6.246 4.155-11.622.336-7.06 4.28-12.761 4.827-8.72.837-13.562-2.123-13.562-2.123l-14.87-11.032z" mask="url(#i)"/>
                </g>
                <g transform="translate(242.534 71.539)">
                    <mask id="k" fill="#fff">
                        <use xlink:href="#j"/>
                    </mask>
                    <path fill="#FFEDA6" d="M69.976 66.384s-6.766-3.506-7.027-10.129c-.209-5.326 2.993-8.57 8.328-9.869 5.336-1.298 3.514-4.545 3.254-7.142-.365-3.638 2.082-8.7 7.026-8.96 4.685-.246 4.155-3.546 9.76-4.804 5.205-1.17 10.02.13 13.923 4.934 3.904 4.805 6.902 6.787 10.28 7.012 3.903.26 8.198-2.467 11.711 1.429l1.171 26.36-58.426 1.17z" mask="url(#k)"/>
                </g>
                <g transform="translate(242.534 71.539)">
                    <mask id="m" fill="#fff">
                        <use xlink:href="#l"/>
                    </mask>
                    <path fill="#FFF" d="M74.198 8.338h51.537s-.39-14.284-.456-16.556c-5.154-.842-8.486 1.515-9.948 2.9a2.049 2.049 0 0 1-2.024.486c-1.821-.574-5.56-1.305-9.759.445-3.202 1.334-4.886 3.364-5.726 4.865-.467.835-1.542 1.071-2.363.577-1.51-.911-4.14-1.793-8.046-.768-3.497.919-5.562 3.266-6.472 4.561-.329.469-.923.69-1.475.535-1.305-.367-3.733-.523-5.553 2.44a.338.338 0 0 0 .285.515" mask="url(#m)"/>
                </g>
                <g transform="translate(242.534 71.539)">
                    <mask id="o" fill="#fff">
                        <use xlink:href="#n"/>
                    </mask>
                    <path fill="#FFF" d="M93.8 18.143H30.205L31.423-1.68s6.08-4.45 17.025 0C53.52.383 56.13 3.648 57.42 5.993c.691 1.254 2.297 1.627 3.516.873 2.333-1.443 6.46-2.888 12.646-1.264 5.26 1.381 8.44 4.838 9.927 6.891.605.834 1.648 1.25 2.646.995 2.02-.517 5.532-.616 8.253 3.533a.726.726 0 0 1-.608 1.122" mask="url(#o)"/>
                </g>
                <g>
                    <g transform="translate(285.821 66.202)">
                        <mask id="q" fill="#fff">
                            <use xlink:href="#p"/>
                        </mask>
                        <path fill="#D8E7FC" d="M-27.237 42.402L-46.35 73.424l94.878-1.733 37.021-.52-1.442-33.839-14.734.023z" mask="url(#q)"/>
                    </g>
                    <g transform="translate(285.821 66.202)">
                        <mask id="s" fill="#fff">
                            <use xlink:href="#r"/>
                        </mask>
                        <path fill="#D2D8EE" d="M-29.303 44.135s6.572-.041 17.563-.867c11.537-.866 13.237-2.08 29.79-2.08 11.709 0 22.995-1.676 30.995-1.906 9.676-.278 19.575-1.227 23.102-1.59.236-.024.251-.366.017-.408-1.896-.347-5.531-.895-9-.775-3.758.13-10.503-2.08-14.12-1.733-3.615.347-3.615-1.213-7.404-1.04-2.243.103-3.272 1.387-6.888 1.387-2.177 0-3.788-1.56-6.543-1.214-2.755.347-4.133 1.56-7.576.174-3.444-1.387-2.066-3.293-8.61-3.813-6.543-.52-9.298-2.946-14.98-2.773-8.69.265-13.087 3.813-13.087 3.813l-13.26 12.825z" mask="url(#s)"/>
                    </g>
                    <g transform="translate(285.821 66.202)">
                        <mask id="u" fill="#fff">
                            <use xlink:href="#t"/>
                        </mask>
                        <path fill="#CBDFFB" d="M-29.419 45.244s6.526-.792 17.532-1.365c11.554-.602 13.392.386 29.813-1.711 11.616-1.483 23.022-1.25 30.987-2.035 9.78-.964 19.874-1.272 23.274-1.353.212-.005.26.296.058.36-1.792.576-5.428 1.627-8.978 1.955-3.745.347-10.16 3.394-13.79 3.508-3.631.115-3.436 1.662-7.216 1.97-2.238.182-3.679-.121-7.293-.012-7.649.231-4.27 2.115-7.878 2.47-5.295.52-6.944-.12-9.428.39-3.634.745 4.405 3.85-6.199 4.159-11.534.337-7.007 4.284-12.665 4.832-8.654.838-13.46-2.125-13.46-2.125l-14.757-11.043z" mask="url(#u)"/>
                    </g>
                    <g transform="translate(285.821 66.202)">
                        <mask id="w" fill="#fff">
                            <use xlink:href="#v"/>
                        </mask>
                        <path fill="#C3CBE8" d="M24.938 72.167s-6.964-3.64-7.232-10.515c-.216-5.529 3.08-8.897 8.572-10.245 5.49-1.347 3.616-4.718 3.348-7.414-.375-3.777 2.143-9.032 7.232-9.301 4.823-.256 4.277-3.681 10.046-4.988 5.357-1.213 10.312.135 14.33 5.123 4.019 4.987 7.105 7.045 10.582 7.279 4.018.27 8.438-2.561 12.054 1.483l1.205 27.365-60.137 1.213z" mask="url(#w)"/>
                    </g>
                    <g transform="translate(285.821 66.202)">
                        <mask id="y" fill="#fff">
                            <use xlink:href="#x"/>
                        </mask>
                        <path fill="#FFF" d="M31.28 14.066h51.148s-.387-14.298-.452-16.573C76.861-3.35 73.553-.99 72.103.397a2.021 2.021 0 0 1-2.009.486c-1.807-.575-5.519-1.307-9.685.445-3.178 1.335-4.85 3.367-5.683 4.87-.464.836-1.53 1.072-2.346.577-1.499-.912-4.107-1.795-7.985-.768-3.47.92-5.52 3.268-6.423 4.565-.326.47-.916.69-1.464.536-1.295-.368-3.705-.524-5.511 2.442a.338.338 0 0 0 .282.516" mask="url(#y)"/>
                    </g>
                    <g transform="translate(285.821 66.202)">
                        <mask id="A" fill="#fff">
                            <use xlink:href="#z"/>
                        </mask>
                        <path fill="#FFF" d="M50.733 23.88H-12.38l1.208-19.842s6.034-4.454 16.897 0c5.034 2.065 7.624 5.332 8.904 7.68.685 1.255 2.279 1.628 3.489.874 2.315-1.444 6.412-2.891 12.55-1.265 5.22 1.382 8.377 4.842 9.853 6.898.6.834 1.635 1.25 2.626.995 2.005-.518 5.49-.616 8.19 3.537.312.48-.032 1.122-.603 1.122" mask="url(#A)"/>
                    </g>
                </g>
                <g transform="translate(189.167 54.936)">
                    <path fill="#C5CBD8" d="M97.641 89.112l81.5-1.255a4.517 4.517 0 0 1 4.592 4.271l1.573 31.402c.172 3.219-2.705 5.759-5.884 5.195l-76.931-13.602c-6.827-1.212-11.568-7.469-10.878-14.357l.797-6.844a5.348 5.348 0 0 1 5.231-4.81"/>
                    <path fill="#D8DDEA" d="M183.877 95l-.144-2.872a4.517 4.517 0 0 0-4.593-4.271l-81.499 1.255a5.348 5.348 0 0 0-5.231 4.81l-.29 2.49L183.877 95zM177.928 104.463a2.95 2.95 0 0 1-2.952 2.946 2.95 2.95 0 0 1-2.952-2.946 2.95 2.95 0 0 1 2.952-2.947 2.95 2.95 0 0 1 2.952 2.947M138.794 104.934a2.028 2.028 0 0 0-1.927-2.02l-19.026-.011h-.008c-1.239-.062-2.439.569-3.003 1.671-1.338 2.614.528 5.216 3.003 5.216a3.43 3.43 0 0 0 2.353-.93c.506-.474 1.172-.738 1.863-.798l14.818-1.106a2.029 2.029 0 0 0 1.927-2.022"/>
                    <mask id="C" fill="#fff">
                        <use xlink:href="#B"/>
                    </mask>
                    <path fill="#E09595" d="M145.027 121.883h9.028v-3.033h-9.028z" mask="url(#C)"/>
                    <path fill="#C5CBD8" d="M86.084 196.764s20.911.793 36.46-5.894c11.285-4.853 25.348-14.213 28.994-22.533l-7.466-24.96-66.67 15.6 8.682 37.787z" mask="url(#C)"/>
                    <path stroke="#C5CBD8" stroke-width="6" d="M22.544 27.739s-5.691 3.917-4.11 10.219c1.875 7.466 5.755 20.83 5.755 20.83M44.94 27.739s-5.69 3.917-4.109 10.219c1.874 7.466 5.755 20.83 5.755 20.83" mask="url(#C)"/>
                    <path fill="#D8DDEA" d="M31.22 51.768h45.054l-8.073-34.58s-36.112-3.423-39.585-3.77c-2.073-.207-6.337-.347-10.07.52-2.284.53 9.776 37.637 12.674 37.83" mask="url(#C)"/>
                    <path fill="#C5CBD8" d="M28.614 13.418c-2.073-.207-6.336-.347-10.068.52-2.284.53 9.776 37.637 12.675 37.83h34.636c-12.17-12.599-24.885-25.785-37.243-38.35" mask="url(#C)"/>
                    <path fill="#C5CBD8" d="M36.255 44.315c-1.358-4.632-4.479-15.922-6.882-24.186-1.312-4.508-5.184-8.011-12.772-5.786-2.25.66-4.26 1.285-9.233 2.88-3.738 1.199-5.382 4.373-4.6 7.18.783 2.807 4.238 4.51 7.764 3.424l3.043-.877a5.83 5.83 0 0 1 7.315 3.932l4.6 16.726c.815 2.784 3.691 4.803 6.946 3.9 3.125-.866 4.861-3.64 3.82-7.193M49.971 55.495l-32.987.607S-4.892 54.715 1.011 78.289c2.634 10.52 10.182 29.457 15.278 48.967 2.088 7.992 3.78 15.73 5.112 22.514 2.758 8.145 6.662 15.842 11.57 22.927l52.07-4.534-35.07-112.668z" mask="url(#C)"/>
                    <path fill="#C5CBD8" d="M33.998 112.35C27.621 89.491 21.954 72.36 19.241 65.288c-3.125-8.147-23.786-8.84-18.23 13 2.673 10.51 10.182 29.457 15.278 48.967 2.088 7.992 3.78 15.731 5.112 22.514 1.356 6.91 5.913 18.09 11.579 22.94l12.65-1.08c-.868-6.365-4.86-35.014-11.632-59.28" mask="url(#C)"/>
                    <path fill="#D8DDEA" d="M84.087 65.809l-10.677 2.34 17.448 72.28 15.105-4.68z" mask="url(#C)"/>
                    <path fill="#23478D" d="M110.26 111.96c-2.052-.444-3.516-1.33-4.037-3.12L97.5 89.468s-7.552 24.57 5.47 36.53c4.047 1.427 11.92 1.73 19.278 1.639.366-3.684.831-8.542 1.935-12.153-4.793-1.247-9.104-2.486-13.922-3.526" mask="url(#C)"/>
                    <path fill="#2474CD" d="M78.792 66.849s9.923 18.78 11.111 22.187c3.364 9.64.154 20.157.955 26.953.553 4.687 8.49 11.528 11.396 15.25a75.638 75.638 0 0 0 3.101 3.73l7.9-2.34-8.041-6.362c-2.81-1.958-3.856-5.174-4.025-8.11-.334-5.772.84-15.935.52-22.015-.694-13.173-.694-11.44-11.502-26.173-1.539-2.098-1.692-4.16-5.599-7.8-3.153-2.938-8.29-7.042-8.29-7.042l2.474 11.722z" mask="url(#C)"/>
                    <path fill="#245EAD" d="M105.214 126.267c-2.81-1.957-3.682-5.694-3.852-8.631-.2-3.47.333-8.07.173-12.827-3.69 4.186-6.748 8.437-10.245 12.784 1.796 4.538 8.376 10.33 10.964 13.647a75.638 75.638 0 0 0 3.101 3.73l7.9-2.34-8.041-6.363z" mask="url(#C)"/>
                    <path fill="#42426C" d="M192.512 229.308s2.777 1.7 5.154 5.828c1.706 2.964 2.644 6.142 2.688 6.25.044.11.146.397.545.324a.409.409 0 0 0 .356-.484c-.017-.1-.488-2.791-.604-5.403-.034-.79-.03-1.53-.006-2.177.056-1.494 2.587-.135 2.587-.135l-10.72-4.203z" mask="url(#C)"/>
                    <path fill="#E09595" d="M224.294 233.608c-5.729-2.34-14.941-11.927-21.776-20.62-2.954-3.759-4.128-5.793-8.296-16.626-2.886-7.502-6.944-24.785-14.759-45.948-1.706-4.619-2.954-11.805-3.953-16.932-.778-3.999-1.335-5.308-3.376-8.836-2.72-4.7-11.267-4.458-11.267-4.458l-.182 20.791s-7.719 13.348 2.572 34.29c6.77 13.781 16.927 20.281 26.563 38.481 1.67 3.155 1.108 6.74.435 10.054-.695 4.593 9.685 3.306 21.442 14.907 3.54 3.493 16.143-3.655 12.597-5.103" mask="url(#C)"/>
                    <path fill="#42426C" d="M231.053 235.77c-.69-1.494-5.399-1.712-6.737-2.197-5.448-.249-9.58-1.265-22.261-8.276-8.785-4.858-10.032-5.05-11.326-4.701-.838 3.468-.807 6.026.723 7.712 3.178 3.504 12.845 3.485 17.064 9.587 1.537 2.222 3.78 3.368 7.425 3.265 2.036-.057 5.769-.4 8.765-.99 3.846-.755 7.056-2.863 6.347-4.4" mask="url(#C)"/>
                    <path fill="#FFAEAE" d="M132.96 144.33s25.954-2.349 30.587-.517c3.867 1.528 6.123 4.746 8.783 12.71 2.658 7.964 1.933 9.411 3.141 17.375 1.21 7.964 5.279 23.753 8.703 39.82 2.417 11.342 4.109 19.306 5.076 23.408 1.33 5.648 3.797 9.783 6.285 13.756 3.626 5.792 8.425 12.75 10.555 15.204 3.143 3.62 6.003 6.154 8.38 8.527 2.299 2.296-7.01 8.124-11.603 7.32-5.89-1.031-9.825-1.984-12.53-7.159-2.9-5.55-2.477-8.507-8.037-13.092-6.727-5.549-6.345-9.11-5.378-12.972.967-3.86 2.301-5.453.726-8.929-9.443-20.83-16.214-26.55-21.683-39.03-5.684-12.972-1.823-27.3-9.202-26.478-4.861.174-15.636-7.376-13.803-29.943" mask="url(#C)"/>
                    <path fill="#535785" d="M215.275 274.613c-1.92-1.52-5.237-4.083-7.412-6.556 1.45 1.81 3.495 4.81 2.175 5.751-1.692 1.207-12.81-.241-18.129-5.792-9.84-10.271-13.537-14.238-14.376-21.477a46.672 46.672 0 0 0-.61 2.171c-.968 3.861-1.294 8.259 5.62 13.575 5.257 4.042 5.437 8.315 7.835 12.73 2.578 4.746 3.979 5.849 9.83 7.08 4.593.964 9.75 1.044 14.1.24 5.286-.977 5.64-4.022.967-7.722" mask="url(#C)"/>
                    <path fill="#E09595" d="M134.35 159.583c2.604-2.934 8.973-8.573 14.049-12.418 3.44-2.604 9.85-4.205 15.47-3.183 2.134.388-.79-23.45-.79-23.45s-2.361-.857-11.52.48c-5.958.871-14.475 2.805-14.475 2.805s-3.429 1.596-4.47 19.2c-.252 4.24.064 12.081 1.736 16.566" mask="url(#C)"/>
                    <path fill="#535785" d="M178.735 258.605s2.347 2.443 3.877 6.365c.893 2.286 2.176 7.099 2.176 7.099s.085.488.61.427c.393-.045.528-.347.483-.724-.029-.241-.432-3.722-.368-5.717.064-1.993.232-3.227.232-3.227l-7.01-4.223z" mask="url(#C)"/>
                    <path fill="#423748" d="M130.92 75.169l9.754-15.44c.49-.68 1.243-1.23 2.119-1.256l6.732-.195c.239.007.418.041.604.138l.552.362c.184.13.228.303.13.498l-8.366 15.69-11.524.203z" mask="url(#C)"/>
                    <path fill="#42426C" d="M60.041 145.37s21.396-10.638 76.832-22.425c.324-.069.665.01.925.215l.345.272-.464.104a.762.762 0 0 0-.584.593c-.608 3.044-1.843 11.604-.488 26.614.916 10.16 5.902 15.254 10.243 23.574-13.021-.867-14.584-2.947-27.432.866-20.17 5.988-35.556 6.528-47.57 2.947-17.45-5.2-11.807-32.76-11.807-32.76" mask="url(#C)"/>
                    <path fill="#2474CD" d="M60.215 156.637s-2.024-13.345-2.17-26.088c-.261-22.62-9.723-19.586-22.137-51.22-2.673-6.811-3.119-18.013 9.375-23.574 7.206-3.207 12.761-5.807 12.761-5.807s2.504 8.148 10.678 17.94c7.812 9.36 16.214 15.801 18.924 26.175 3.126 11.96-1.975 20.124-1.736 27.906 0 0 5.475 8.546 7.987 12.307 4.166 6.24 1.91 12.48-5.209 14.56l-28.473 7.8z" mask="url(#C)"/>
                    <path fill="#245EAD" d="M40.983 90.846c9.832 19.771 16.838 20.284 17.061 39.703.147 12.743 2.17 26.088 2.17 26.088l17.189-4.68c2.951-14.04 7.21-15.546 5.382-23.574-3.92-19.081-28.383-26.368-41.802-37.537" mask="url(#C)"/>
                    <path fill="#FFF" d="M76.708 63.209c0 .114 1.35 4.636 3.883 8.813 1.996 3.293 4.799 6.657 6.361 7.697.351.234 1.014.371.366-.634-2.189-3.396-4.663-8.206-5.965-13.146-1.421-5.39-1.432-9.49-2.995-14.084-4.427 3.727-1.65 11.354-1.65 11.354" mask="url(#C)"/>
                    <path fill="#245EAD" d="M71.587 87.649l7.88 12.97a6.915 6.915 0 0 0 5.118 3.278l3.409.392-8.855 8.84-7.552-25.48z" mask="url(#C)"/>
                    <path fill="#D8DDEA" d="M78.01 64.769s.757-2.681.608-6.847c-.13-3.64-.694-6.327-.694-6.327s-2.3 3.207-1.172 12.134c.077.607 1.259 1.04 1.259 1.04" mask="url(#C)"/>
                    <path fill="#E09595" d="M114.774 81.669l5.265-4.784a13.215 13.215 0 0 0 1.655-1.835c1.006-1.334 2.22-2.634 4.148-3.824 2.388-1.474 3.528-1.612 5.374-2.746 2.092-1.285 3.654-2.151 4.566-3.755.036-.065.07-.126.1-.185.208-.397.728-.558 1.08-.281.72.565 1.082 1.838.382 3.76-.291.8-1.171 2.167-2.3 3.163-1.012.894-2.951 2.384-2.951 2.384l5.693-1.161a5.862 5.862 0 0 0 2.017-1.117l2.707-2.23c1.051-.892 1.418-1.097 2.17-2.253l1.876-2.925a2.432 2.432 0 0 1 2.627-1.031l.922.273-.087 8.494c0 1.386-.71 2.589-1.837 3.663l-4.119 3.932a9.036 9.036 0 0 1-4.803 2.384l-10.17 1.208a3.56 3.56 0 0 0-1.837.781l-3.537 2.895-8.94-4.81zM58.09 50.907c2.483-2.125 4.266-9.657 2.82-12.832-2.01-4.413-7.437-18.536-1.902-15.83C65.41 25.375 83.4 49.702 81.36 50.494c-4.79 1.86-4.276 8.244-4.01 16.48.163 5.051-24.126-11.903-19.26-16.067" mask="url(#C)"/>
                </g>
                <g transform="translate(249.65 56.122)">
                    <mask id="F" fill="#fff">
                        <use xlink:href="#D"/>
                    </mask>
                    <path fill="url(#E)" d="M2.73 34.464c2.828 9.929 8.902 15.179 18.796 15.735 7.493.422 9.513-17.882 11.362-27.332C35.732 8.324 23.684.845 13.162.309c-.293-.015-.58-.022-.861-.022C-4.863.287.606 27.778 2.73 34.464" mask="url(#F)"/>
                </g>
                <g>
                    <g transform="translate(231.778 54.936)">
                        <mask id="H" fill="#fff">
                            <use xlink:href="#G"/>
                        </mask>
                        <path fill="#423748" d="M22.756 27.38s5.126 2.677 10.104 2.417c4.911-.256 8.5-2.569 11.486-6.37 2.552-3.25 3.701-5.98 4.467-7.41.475-.888 1.22-1.405 1.531.26.51 2.73.255 5.894.255 5.894s1.81-2.898 1.66-7.323c-.128-3.77-2.616-5.335-3.485-6.397-.87-1.063-3.41-5.412-9.15-6.993C34.852.143 26.897-1.02 17.385 5.12c-.64.413-1.137.543-2.146.585-2.184.09-6.77.333-9.88 2.947-4.108 3.454-4.442 9.084-2.825 12.707.896 2.008 1.825 3.338 3.2 4.419.359.282.477.79.277 1.204-.609 1.265-.605 4.074 1.391 6.243 1.776 1.93 3.955 1.888 5.165 1.665.641-.118 1.339-.041 1.83.193 2.067.991 3.233 2.817 3.956 4.074-.213-2.6-2.723-8.233.752-13.194l3.651 1.417z" mask="url(#H)"/>
                    </g>
                    <path fill="#FFAEAE" d="M256.423 83.71c.749 3.28.534 6.482-1.587 7.103-2.122.62-5.486-2.453-6.42-6.438-.838-3.572.921-6.77 3.603-6.84 3.108-.082 3.717 3.168 4.404 6.176"/>
                    <path fill="#FFF" d="M246.158 103.626c1.371-1.95 1.676-2.037 2.037-2.124l.423-.086s-.174.477-.305.867c-.064.191-.08.456-.022.65.414 1.365 1.677 4.116 5.987 8.45 4.658 4.682 9.621 6.933 12.234 8.406 0 0 .077 3.25-.022 8.146-.087 4.334 0 6.5 0 6.5-.174 1.083-.766 1.595-1.698.563-4.658-5.156-7.807-8.842-12.234-14.17-8.337-10.03-8.174-13.862-8.067-15.087.056-.642 1.287-1.574 1.667-2.115"/>
                    <path fill="#2474CD" d="M247.943 122.562c13.322 19.76 20.637 40.56 20.637 40.56s11.494-7.02 19.592-13.78c2.361-1.971 12.274-11.283 15.02-13.953.501-.487.798-.648 1.48-.802l.725-.146s-.49.455-.817.796c-.202.212-.206.571.017.764 2.874 2.486 6.279 3.628 7.793 3.992.553.132 1.295 0 1.829-.433l1.11-.89 3.23 2.783c.536.544.438 1.064-.51 1.747l-13.68 9.002s-8.099 8.58-13.323 15.08c-8.784 10.927-18.896 22.359-24.295 22.359-5.224 0-14.628-10.66-21.682-20.02-7.844-10.41-16.186-20.935-21.682-36.66-1.393-3.986-1.045-15.599 6.27-19.239 9.912-4.932 16.886 6.764 18.286 8.84"/>
                    <path fill="#23478D" d="M310.703 140.567c2.482 1.073 5.192 1.593 6.106 1.69.915.098 1.012-.487 0-1.3l-2.09-1.755-.5.358c-.534.433-1.276.565-1.829.433-1.514-.364-4.92-1.506-7.794-3.992.719 1.024 2.289 2.916 6.107 4.566"/>
                </g>
                <g>
                    <g transform="translate(262.695 197.842)">
                        <mask id="J" fill="#fff">
                            <use xlink:href="#I"/>
                        </mask>
                        <path fill="#D8DDEA" d="M43.61 13.086l5.265 34.471a5.202 5.202 0 0 1-3.289 5.653L24.82 61.172 17.89 13.95l25.72-.864z" mask="url(#J)"/>
                    </g>
                    <g transform="translate(262.695 197.842)">
                        <mask id="L" fill="#fff">
                            <use xlink:href="#K"/>
                        </mask>
                        <path fill="#C5CBD8" d="M44.913 14.123l-29.369.987 4.412 30.063C28.198 34.77 36.61 24.489 44.915 14.138l-.002-.015z" mask="url(#L)"/>
                    </g>
                    <g transform="translate(262.695 197.842)">
                        <mask id="N" fill="#fff">
                            <use xlink:href="#M"/>
                        </mask>
                        <path fill="#C5CBD8" d="M-2.963 18.793L3.293 60.82l21.375-.346L17.89 13.95z" mask="url(#N)"/>
                    </g>
                </g>
                <g>
                    <path fill="#C5CBD8" d="M259.707 208.967l45.912-5.751a3.186 3.186 0 0 1 3.481 2.742l.6 3.458c.32 1.576-.904 3.245-2.573 3.557l-22.366 5.35c-1.637.305-3.29.52-4.95.64l-18.834 1.378-1.27-11.374zM313.589 144.108c.122.223-.11.585-.518.81-.408.226-.84.228-.962.005-.123-.222.109-.585.518-.81.409-.225.84-.227.962-.005M310.782 145.907c.128.22-.094.588-.496.824-.402.237-.833.25-.961.031-.13-.219.093-.588.495-.824s.833-.25.962-.03"/>
                    <path fill="#FFAEAE" d="M321.204 178.766s-.036-6.07 1.628-6.505c1.664-.434 12.1-2.784 12.1-2.784a6.392 6.392 0 0 1 2.326-.032c2.05.35 6.352 1.085 9.378 2.023 1.81.562 4.26 2.058 8.433 3.194.325.088.417.526.176.76-.589.577-1.492.892-3.057.688-1.53-.2-4.865-.796-4.865-.796l2.912 1.733a.274.274 0 0 1 .06.448c-.49.432-2.045.878-4.094.11-1.089-.408-2.722-1.02-4.18-1.572-.428-.162-.852-.326-1.299-.428l-2.113-.484a6.807 6.807 0 0 0-2.062-.151l-2.942.19s1.36.68 1.913.882c.749.272 1.92.667 3.2.934 1.537.32 3.263 1.023 2.448 2.193-1.083 1.554-3.685 1.14-6.056.34-1.647-.555-2.653-.68-4.352-.177-1.738.515-6.56.98-9.554-.566"/>
                    <path fill="#23478D" d="M323.22 171.495c-.44 0-7.023-.211-12.224-1.338-1.102 3.61-3.316 11.598-3.316 11.598l13.491-2.957s.073-3.174 1.7-6.146c.164-.298.455-.506.786-.582l.392-.088s-.196-.487-.83-.487"/>
                    <path fill="#E86A46" d="M260.054 210.18l-.038-.001c-.717-.02-1.231-.62-1.262-1.336-.066-1.522.791-4.888.65-8.93-.368-10.469-4.662-15.759-10.187-16.068-8.253-.461-10.774 9.024-11.725 14.834-.665 4.06-.325 5.653-.728 8.567a1.3 1.3 0 1 1-2.575-.37c.312-2.22 1.36-4.294 1.938-8.391 1.365-9.681 5.73-16.579 13.228-16.003 7.044.542 11.017 6.78 11.414 17.432.153 4.113.715 7.147.585 9.003-.05.703-.598 1.262-1.3 1.262"/>
                    <path fill="#FF7E59" d="M207.973 244.484c-.236 1.416.71 2.29 1.56 2.729 8.369 4.306 44.432 9.648 54.682 8.966 7.152-.477 12.622-2.54 14.76-4.159.962-.728 1.096-1.557 1.058-2.763-.149-4.773-2.294-24.005-4.635-31.281-1.951-6.066-5.982-12.475-14.564-15.073-6.246-1.892-20.546-2.6-26.268-2.08-6.96.633-13.795 3.62-17.425 11.175-3.12 6.497-8.192 26.638-9.168 32.486"/>
                    <path fill="#E86A46" d="M279.628 243.92a2.687 2.687 0 0 1-.654.694c-2.137 1.618-7.607 3.681-14.76 4.158-10.249.682-46.312-4.659-54.68-8.966a3.827 3.827 0 0 1-.529-.335c-.475 2.093-.836 3.842-1.031 5.013-.237 1.416.709 2.29 1.56 2.729 8.368 4.307 44.431 9.648 54.68 8.966 7.153-.477 12.623-2.54 14.76-4.159.962-.728 1.097-1.557 1.06-2.763-.036-1.108-.179-3.001-.406-5.337M257.974 210.18l-.038-.001c-.718-.02-1.232-.62-1.263-1.336-.065-1.522.792-4.888.65-8.93-.368-10.469-3.78-15.805-9.306-16.114-8.253-.461-11.654 9.07-12.605 14.88-.666 4.06-.325 5.653-.73 8.567a1.3 1.3 0 1 1-2.573-.37c.312-2.22 1.36-4.294 1.937-8.391 1.366-9.681 6.61-16.625 14.11-16.048 7.043.541 10.136 6.826 10.532 17.477.153 4.113.716 7.147.585 9.003-.05.703-.598 1.262-1.3 1.262"/>
                    <path fill="#D8DDEA" d="M214.02 243.72v9.41c0 .74.455 1.406 1.147 1.674l38.847 15.083a1.89 1.89 0 0 0 1.62-.121l20.165-11.515c.556-.317.9-.908.9-1.548v-9.588l-40.92-13.72-21.759 10.325z"/>
                    <path fill="#C5CBD8" d="M214.02 243.726v9.426c0 .741.455 1.406 1.147 1.674l38.804 15.066c.557.216 1.183.17 1.702-.127l20.193-11.53c.515-.294.832-.84.832-1.433v-9.698l-20.877 11.425a2.408 2.408 0 0 1-2.002.142l-39.799-14.945z"/>
                    <path fill="#97BEF7" d="M262.48 254.88h-18.725l-10.343-3.868h36.134zM229.104 236.571h16.148l8.67 2.907h-30.957z"/>
                    <path fill="#6F98EA" d="M243.799 265.935l-.043-11.056-10.344-3.867.049 10.906z"/>
                    <path fill="#97BEF7" d="M239.088 246.888l-9.888-.61 2.289-1.426-2.08-1.462 7.054.585z"/>
                    <path fill="#6F98EA" d="M262.48 265.87l.007-10.991 7.049-3.855.01 10.807zM243.647 247.386l-9.384 1.646 1.344-1.863-3.728-.736 7.369-.996z"/>
                    <path fill="#B1CEF9" d="M247.57 245.523s-3.858-5.847-5.418-15.246c-.152-.911.69-1.975 1.656-2.09 1.378-.163 2.694.227 4.325.184 2.141-.056 3.815-.607 5.561-.337 1.019.156 1.642.927 1.678 1.81.433 10.698-4.941 15.68-4.941 15.68h-2.861z"/>
                    <path fill="#6F98EA" d="M254.072 245.956s11.2-.076 10.793-7.97c-.39-2.598-2.47-5.197-2.47-5.197s1.544 3.947-2.097 7.845c-2.095 2.242-5.576 4.24-5.576 4.24l-.65 1.082z"/>
                    <path fill="#A4C6F8" d="M247.57 241.885l.52-3.249s3.75-7.754 10.273-9.225c3.514-.793 5.061.602 5.81 3.23.215.755.366 1.4.562 1.794 2.6 5.24-1.56 8.36-1.56 8.36s.838-.994 1.213-2.253c.54-1.81-.303-3.465-2.124-4.115-3.061-1.093-9.363.26-14.694 5.458"/>
                    <path fill="#6F98EA" d="M238.077 233.266s-2.104 3.432.52 6.887c1.778 2.339 5.245 4.894 5.245 4.894l.347 2.252s-1.966.012-4.746-.866c-2.688-.85-6.156-2.55-8.085-4.765-5.166-5.932-.896-8.635-.896-8.635s2.1-1.116 4.884-.85c1.82.173 2.731 1.083 2.731 1.083"/>
                    <path fill="#A4C6F8" d="M246.183 246.476l1.371-3.865s.19-7.786-5.099-12.378c-2.474-2.148-5.006-2.215-7.784-.439-.755.483-1.319.873-2.445 1.37-3.318 1.467-3.487 4.297-3.438 4.98.122-1.796 1.466-3.508 4.651-2.662 4.075 1.083 9.894 6.118 12.744 12.994"/>
                    <path fill="#97BEF7" d="M249.044 248.122s1.715-3.888 1.43-7.45c-.173-2.166-1.118-3.786-3.506-4.433-2.822-.764-4.703.09-6.68-.158-2.08-.26-2.297-.823-4.604-.757-1.592.045-3.906 1.47-3.569 4.023.394 2.982 3.092 6.353 8.2 8.063 1.425.477 2.918.716 4.42.734 1.9.023 4.309-.022 4.309-.022"/>
                    <path fill="#6F98EA" d="M250.517 240.672c-.173-2.166-2.037-3.942-3.64-3.942-.78 0-1.973.434-2.363 1.971-.482 1.903.195 3.614 1.56 5.87 1.496 2.468 2.97 3.551 2.97 3.551s1.758-3.888 1.473-7.45"/>
                    <path fill="#97BEF7" d="M247.873 248.122s-1.603-3.032-1.307-5.005c.155-1.035.787-2.445 2.651-2.575 1.072-.075 2.735.504 4.291.347 2.318-.234 3.463-.816 4.942-.78 1.777.044 2.891 1.17 2.625 2.716-.358 2.081-2.609 3.43-5.61 4.568-.88.334-1.846.634-2.822.714-1.063.088-4.77.015-4.77.015"/>
                    <path fill="#6F98EA" d="M247.342 246.27s-1.246-3.205.228-4.58c.488-.455 1.236-.26 1.43.487.138.527-.034 1.32-.487 1.982-.846 1.235-1.17 2.111-1.17 2.111"/>
                </g>
            </g>
            <g mask="url(#c)">
                <g fill="#FFF" fill-rule="nonzero">
                    <path d="M60.097 27.178c.138.051 1.308.539 1.031.241a3.613 3.613 0 0 0-1.018-.785C40.562 16.397 25.244 40.721 40.16 51.768c.568.424.963.722 1.094.728.18.013 3.504 2.19 1.067-1.33-9.252-13.32 1.73-31.123 17.776-23.988m7.074 10.4v-.006a14.738 14.738 0 0 0-1.773-5.727c-6.374-7.088-30.883.213-22.5 18.535.259.561.601.878.769.775.167-.104.935-.168.851-.717-2.227-14.338 17.194-17.76 22.653-12.86M47.51 52.303c.134.393.127.55.26.608.064.025 1.84.506 1.89.101.56-4.331 13.662-8.82 14.547-5.104 1.165-1.576 2.38-3.153 2.85-5.097.014-.272.113-.36.113-.36-1.166-3.389-22.966-.007-19.66 9.852" opacity=".4"/>
                    <path d="M43.098 25.983c.477-.4.941-.782.768-.808-.131-.019-.602.185-1.246.522-12.041 6.294-9.204 25.865 6.478 29.4v.013c.457.038.92.064 1.377.064 1.834 0 3.661-.28 5.391-.833 1.523-.521 2.38-.922 3.834-1.749.16-.095.318-.197.47-.298-13.674 3.916-29.432-15.496-17.072-26.311m1.912 2.104c.113-.538.183-.759.036-.885-.148-.127-.479.196-.88.683-7.868 9.724 9.317 24.497 20.5 20.67A14.868 14.868 0 0 0 67.17 43.1v-.007c-6.137 4.252-24.096-5.706-22.16-15.007m20.356 4.628c-1.313 3.65-13.528-2.634-15.377-6.1-.19-.374-.359-.462-.427-.437-.135.038-.23.178-.318.584-1.137 5.128 11.017 14.413 17.923 12.027.007-.146 0-.292-.034-.438a14.937 14.937 0 0 0-1.767-5.636"/>
                </g>
                <text font-family="OpenSans-Bold, Open Sans" font-size="14" font-weight="bold" transform="translate(33.952 23.493)">
                    <tspan x="49.219" y="24.681" fill="#FFF">БКС Банк</tspan>
                </text>
            </g>
        </g>
        <path fill="#DFDFDA" d="M271.27 261.448c0 .575.477 1.308 1.325 1.308.849 0 1.326-.733 1.326-1.308h7.798v3.61c0 1.15.052 1.124-.823 1.882l-3.66 3.112c-.662.576-.69.653-.69 1.517v6.303c0 .836.372 1.307 1.327 1.307s1.326-.47 1.326-1.307v-5.074c0-.915.053-.967.743-1.569l3.713-3.164c.742-.628.715-.733.715-1.648v-7.584h-11.775c-.848 0-1.325.732-1.325 1.308v1.307zm16.464 43.859h5.348V294.94h-5.348v10.367zm7.167-10.367c0-.985-.82-1.793-1.82-1.793h-5.347c-1 0-1.819.808-1.819 1.793v10.367c0 1.005.783 1.794 1.82 1.794h5.347c1.036 0 1.819-.79 1.819-1.794V294.94zm3.724 39.184l-5.595-12.77h-3.041v14.161h1.625v-12.769h.402l5.68 12.77h2.977v-14.161h-1.604v12.769h-.444zm2.204-28.817h5.347V294.94h-5.347v10.367zm7.165-10.367c0-.985-.818-1.793-1.818-1.793h-5.347c-1 0-1.82.808-1.82 1.793v10.367c0 1.005.783 1.794 1.82 1.794h5.347c1.036 0 1.818-.79 1.818-1.794V294.94zm-42.48 33.762v-5.956h3.78c2.049 0 2.999.963 2.999 2.907 0 1.779-.782 3.049-2.978 3.049h-3.8zm3.78-7.347h-5.406v14.16h1.626v-5.422h4.14l2.639 5.422h1.795l-2.809-5.75c1.838-.572 2.683-2.025 2.683-4.112 0-2.988-1.605-4.298-4.667-4.298zm-31.612 12.769v-11.378h3.591c3.04 0 3.738 2.416 3.738 5.484 0 3.07-.698 5.894-3.738 5.894h-3.59zm-1.625-12.77v14.161h5.216c4.307 0 5.406-3.233 5.406-7.285 0-4.01-1.162-6.875-5.406-6.875h-5.216zm23.777 14.161v-1.391h-7.264v-5.116h5.997v-1.37h-5.997v-4.892h7.264v-1.391h-8.89v14.16h8.89zm49.645-12.81h1.098l2.218 7.756h-5.533l2.217-7.755zm-5.237 12.81h1.606l1.056-3.643h6.25l1.055 3.643h1.605l-4.012-14.16h-3.547l-4.013 14.16zm-49.415-58.951h7.797v-4.027h-7.797v4.027zm10.449-4.89c0-1.203-.265-1.752-1.592-1.752h-8.857v-8.474c.769 0 1.326-.522 1.326-1.307 0-.68-.557-1.308-1.246-1.308h-1.591c-.929 0-1.141.706-1.141 1.308v17.39c0 1.204.478 1.648 1.724 1.648h9.654c1.193 0 1.723-.418 1.723-1.647v-5.858zm180.493 4.89h7.797v-4.027h-7.797v4.027zm0-6.642v-8.474c.769 0 1.326-.522 1.326-1.307 0-.68-.557-1.308-1.247-1.308h-1.59c-.929 0-1.142.706-1.142 1.308v17.39c0 1.204.479 1.648 1.725 1.648h9.652c1.194 0 1.724-.418 1.724-1.647v-5.858c0-1.203-.264-1.752-1.591-1.752h-8.857zm-48.16-7.559c0-.654-.318-1.307-1.326-1.307-1.006 0-1.325.653-1.325 1.307v7.559h-5.145v-9.78c0-.656-.319-1.31-1.326-1.31-1.008 0-1.327.654-1.327 1.31v12.395h7.798v5.335c0 .836.37 1.307 1.325 1.307s1.327-.47 1.327-1.307v-5.335c.688 0 1.325-.367 1.325-1.308 0-.941-.637-1.307-1.325-1.307v-7.559zm-75.29 58.992h-2.935v14.16h1.625v-12.481h.296l4.245 11.97h1.815l4.245-11.97h.295v12.481h1.626v-14.16h-2.936l-4.138 11.972-4.138-11.972zm-76.774-43.065c.557-.654.637-1.229.637-2.04v-5.597c0-.915-.08-1.542-.823-2.222-.636-.602-1.272-.732-2.121-.732h-4.88v-6.25h6.498c.689 0 1.326-.368 1.326-1.308 0-.942-.637-1.308-1.326-1.308h-9.15v11.48h7.825v6.251h-6.127c-.424 0-1.034-.365-1.406-.523l-.795-.34c-.292-.13-.53-.21-.849-.21-.69 0-1.273.628-1.273 1.308 0 .916.796 1.151 1.512 1.465l1.007.444c.664.288 1.061.47 1.75.47h5.888c.954 0 1.644-.103 2.307-.888zm216.666-16.842c0 .575.477 1.308 1.326 1.308.848 0 1.327-.733 1.327-1.308h7.795v3.61c0 1.15.053 1.124-.821 1.882l-3.66 3.112c-.663.576-.69.653-.69 1.517v6.303c0 .836.372 1.307 1.327 1.307.954 0 1.325-.47 1.325-1.307v-5.074c0-.915.054-.967.744-1.569l3.711-3.164c.744-.628.717-.733.717-1.648v-7.584h-11.775c-.849 0-1.326.732-1.326 1.308v1.307zm-25.087-1.307c0-.942-.637-1.308-1.326-1.308h-9.15v11.48h7.823v6.251h-6.125c-.425 0-1.036-.365-1.406-.523l-.796-.34c-.291-.13-.53-.21-.848-.21-.69 0-1.273.628-1.273 1.308 0 .916.796 1.151 1.511 1.465l1.009.444c.662.288 1.06.47 1.75.47h5.888c.954 0 1.643-.103 2.306-.888.557-.654.637-1.229.637-2.04v-5.597c0-.915-.08-1.542-.822-2.222-.637-.602-1.274-.732-2.121-.732H429.3v-6.25h6.498c.689 0 1.326-.368 1.326-1.308zm-110.107 45.166h5.347V294.94h-5.347v10.367zm0-12.16c-1 0-1.819.808-1.819 1.793v10.367c0 1.005.782 1.794 1.82 1.794h5.346c1.036 0 1.819-.79 1.819-1.794V294.94c0-.985-.819-1.793-1.82-1.793h-5.346zm13.095 12.16h5.346V294.94h-5.346v10.367zm5.346 1.794c1.036 0 1.819-.79 1.819-1.794V294.94c0-.985-.818-1.793-1.82-1.793h-5.345c-1.002 0-1.82.808-1.82 1.793v10.367c0 1.005.782 1.794 1.82 1.794h5.346zm1.821 28.414v-1.391h-7.264v-5.116h5.997v-1.37h-5.997v-4.892h7.264v-1.391h-8.89v14.16h8.89zm20.788-76.682c-.691 0-1.327.366-1.327 1.308 0 .94.636 1.307 1.327 1.307h9.122v4.34c0 1.466-.584 1.91-1.327 1.91h-5.197c-.69 0-1.327.367-1.327 1.308 0 .941.637 1.308 1.327 1.308h5.197c.743 0 1.327.445 1.327 1.908v4.342h-9.122c-.691 0-1.327.366-1.327 1.308 0 .942.636 1.307 1.327 1.307h9.122c1.512 0 2.653-1.123 2.653-2.615v-5.022c0-1.045-.213-1.804-1.036-2.536.823-.732 1.036-1.491 1.036-2.537v-5.02c0-1.491-1.141-2.616-2.653-2.616h-9.122zm-19.095 0c-.69 0-1.326.366-1.326 1.308 0 .94.636 1.307 1.326 1.307h9.122v6.25h-7.452c-1.989 0-2.996.994-2.996 2.955v8.526h11.775c.688 0 1.325-.365 1.325-1.307s-.637-1.308-1.325-1.308H350.3v-6.25h7.477c.877 0 1.485-.131 2.148-.732.743-.68.822-1.386.822-2.328v-5.362c0-.94-.079-1.647-.822-2.327-.663-.601-1.271-.732-2.148-.732h-8.804zm134.985 17.731h7.797v-6.25h-7.797v6.25zm2.652-8.865h2.494v-6.25h-2.494v6.25zm5.145 0v-7.558c0-.68-.425-1.308-1.327-1.308h-5.144c-.901 0-1.326.628-1.326 1.308v7.558c-.821 0-1.458.287-1.936.732-.476.444-.716 1.098-.716 1.91v6.223c0 1.595 1.008 2.615 2.652 2.615h7.797c1.643 0 2.652-1.02 2.652-2.615v-6.224c0-.811-.239-1.465-.716-1.909-.478-.445-1.113-.732-1.936-.732zm-267.08 53.656v14.16h8.047v-1.412h-6.42v-12.748h-1.627zm-58.26 7.347v-5.956h3.78c2.048 0 2.998.963 2.998 2.907 0 1.779-.78 3.049-2.978 3.049h-3.8zm3.78-7.347h-5.406v14.16h1.626v-5.422h4.138l2.64 5.422h1.795l-2.809-5.75c1.838-.572 2.683-2.025 2.683-4.112 0-2.988-1.605-4.298-4.667-4.298zm18.706-49.813c0-1.045-.213-1.804-1.034-2.536.821-.732 1.034-1.491 1.034-2.537v-5.02c0-1.491-1.141-2.616-2.653-2.616h-9.122c-.69 0-1.326.366-1.326 1.308 0 .94.636 1.307 1.326 1.307h9.122v4.34c0 1.466-.583 1.91-1.325 1.91h-5.199c-.69 0-1.325.367-1.325 1.308 0 .941.636 1.308 1.325 1.308h5.199c.742 0 1.325.445 1.325 1.908v4.342h-9.122c-.69 0-1.326.366-1.326 1.308 0 .942.636 1.307 1.326 1.307h9.122c1.512 0 2.653-1.123 2.653-2.615v-5.022zm104.116 5.022h7.796v-6.25h-7.796v6.25zm2.652-8.865h2.493v-6.25h-2.493v6.25zm5.144 11.48c1.645 0 2.652-1.02 2.652-2.615v-6.224c0-.811-.239-1.465-.716-1.909-.477-.445-1.114-.732-1.936-.732v-7.558c0-.68-.424-1.308-1.325-1.308h-5.146c-.901 0-1.325.628-1.325 1.308v7.558c-.823 0-1.459.287-1.936.732-.478.444-.717 1.098-.717 1.91v6.223c0 1.595 1.008 2.615 2.653 2.615h7.796zm-153.868 43.753l.064-1.33c-.929-.185-2.534-.45-4.034-.45-4.392 0-5.343 2.537-5.343 7.324 0 4.666.972 7.244 5.343 7.244 1.394 0 2.998-.225 4.034-.43l-.064-1.35c-1.014.184-2.576.368-3.758.368-3.337 0-3.865-1.882-3.865-5.832 0-4.03.571-5.913 3.823-5.913 1.14 0 2.85.205 3.8.369zm21.536-46.368h-9.124v-6.25h7.48c.875 0 1.485-.131 2.147-.732.742-.68.822-1.386.822-2.328v-5.362c0-.94-.08-1.647-.822-2.327-.662-.601-1.272-.732-2.148-.732h-8.805c-.689 0-1.326.366-1.326 1.308 0 .94.637 1.307 1.326 1.307h9.124v6.25H159.7c-1.99 0-2.997.994-2.997 2.955v8.526h11.776c.69 0 1.325-.365 1.325-1.307s-.636-1.308-1.325-1.308zm145.425 29.908l6.982-11.782c.11-.198.201-.413.201-.7 0-.465-.418-.843-.89-.843-.455 0-.674.323-.891.682l-6.803 11.496c-.182.286-.4.592-.4.932 0 .466.456.844.909.844.456 0 .674-.253.892-.629zm-159.02 16.234h1.097l2.217 7.755h-5.532l2.217-7.755zm-5.238 12.81h1.606l1.054-3.644h6.252l1.055 3.643h1.605l-4.011-14.16h-3.549l-4.012 14.16zm57.02-73.153c0-.654-.318-1.307-1.325-1.307-1.008 0-1.327.653-1.327 1.307v7.559h-5.144v-9.78c0-.656-.318-1.31-1.327-1.31-1.007 0-1.325.654-1.325 1.31v12.395h7.796v5.335c0 .836.372 1.307 1.327 1.307s1.326-.47 1.326-1.307v-5.335c.689 0 1.326-.367 1.326-1.308 0-.941-.637-1.307-1.326-1.307v-7.559zm121.884 15.51c0 .94.637 1.306 1.326 1.306h10.45c.69 0 1.326-.365 1.326-1.307v-6.59c0-.76-.346-1.308-1.326-1.308-.982 0-1.326.548-1.326 1.307v5.283h-2.573v-17.731h-6.55c-.69 0-1.327.366-1.327 1.308 0 .94.637 1.307 1.326 1.307h3.899v15.116h-3.899c-.689 0-1.326.366-1.326 1.308zm-177.84-6.592c0-.759-.345-1.307-1.326-1.307-.981 0-1.326.548-1.326 1.307v5.283h-2.573v-17.731h-6.55c-.69 0-1.325.366-1.325 1.308 0 .94.636 1.307 1.326 1.307h3.898v15.116h-3.898c-.69 0-1.326.366-1.326 1.308 0 .942.636 1.307 1.326 1.307h10.448c.69 0 1.326-.365 1.326-1.307v-6.59zm59.837 57.216c0-3.847.738-5.954 4.097-5.954 3.336 0 4.096 2.127 4.096 5.954 0 3.99-.696 5.831-4.096 5.831-3.38 0-4.097-1.964-4.097-5.83zm-1.668 0c0 4.748 1.224 7.223 5.765 7.223 4.54 0 5.786-2.353 5.786-7.223 0-4.706-1.268-7.345-5.786-7.345-4.52 0-5.765 2.68-5.765 7.345zm-13.304-.798v-6.344h-1.626v14.16h1.626v-6.404h7.433v6.404h1.606v-14.16h-1.606v6.344h-7.433zm-14.887 6.425v-11.378h3.59c3.04 0 3.738 2.416 3.738 5.484 0 3.07-.698 5.894-3.739 5.894h-3.59zm-1.626-12.77v14.161h5.215c4.308 0 5.407-3.233 5.407-7.285 0-4.01-1.162-6.875-5.407-6.875h-5.215z"/>
        <path fill="#C7C6C1" d="M213.01 337.743c-5.453 0-6.204-3.747-6.204-7.796 0-3.917.736-7.92 6.203-7.92 5.486 0 6.226 4.003 6.226 7.92 0 4.68-1.059 7.796-6.226 7.796zm.289-15.55c-4.508 0-5.75 2.724-5.75 7.465 0 4.824 1.22 7.34 5.75 7.34 4.528 0 5.77-2.391 5.77-7.34 0-4.784-1.263-7.466-5.77-7.466zm-71.777 15.55c-4.8 0-5.512-3.397-5.512-8.087 0-4.879.696-7.63 5.512-7.63 1.571 0 3.251.292 4.112.466l.383.078-.106 2.26-.507-.09c-1.014-.177-2.66-.368-3.713-.368-2.637 0-3.36 1.194-3.36 5.555 0 4.037.515 5.47 3.402 5.47 1.156 0 2.712-.19 3.667-.367l.511-.094.105 2.286-.382.077c-1.069.215-2.711.444-4.112.444zm.289-15.55c-4.381 0-5.33 2.578-5.33 7.443 0 4.742.97 7.362 5.33 7.362 1.39 0 2.99-.229 4.023-.437l-.064-1.372c-1.011.187-2.57.374-3.748.374-3.329 0-3.855-1.913-3.855-5.927 0-4.096.57-6.01 3.813-6.01 1.137 0 2.843.209 3.79.375l.064-1.351c-.926-.188-2.528-.458-4.023-.458zm203.95 15.344h-9.775v-15.304h9.774v2.327h-7.246v4.058h5.982v2.305h-5.982v4.286h7.246v2.328zm-9.033-15.138v14.391h8.868v-1.414h-7.246v-5.199h5.981v-1.394h-5.981v-4.97h7.246v-1.414h-8.868zm-4.679 15.138h-2.53v-11.304l-3.752 10.783h-2.458l-3.751-10.783v11.304h-2.53v-15.304h3.707l3.803 11.21 3.803-11.21h3.708v15.304zm-2.083-13.432h.294v12.685h1.622v-14.391h-2.928l-4.127 12.166-4.128-12.166h-2.928v14.391h1.622v-12.685h.295l4.234 12.166h1.81l4.234-12.166zm-15.446 13.432h-2.541l-1.053-3.703h-5.55l-1.053 3.703h-2.54l4.255-15.304h4.226l4.256 15.304zm-9.197-4.45h6.234l1.053 3.703h1.601l-4.003-14.391h-3.537l-4.003 14.391h1.602l1.053-3.702zm-6.049 4.45h-3.72l-5.317-12.176v12.176h-2.53v-15.304h3.786l5.272 12.257v-12.257h2.51v15.304zm-9.201-13.724h.4l5.665 12.977h2.97v-14.391h-1.6v12.977h-.442l-5.582-12.977h-3.033v14.391h1.622v-12.977zm-17.049 13.724h-2.798l-2.633-5.512h-3.388v5.512h-2.53v-15.304h5.845c3.391 0 5.109 1.623 5.109 4.824 0 2.19-.863 3.71-2.504 4.431l2.899 6.049zm-8.985-6.257h4.128l2.633 5.51h1.791l-2.802-5.844c1.833-.582 2.676-2.058 2.676-4.18 0-3.035-1.601-4.367-4.655-4.367h-5.393v14.391h1.622v-5.51zm-5.5 6.257h-9.776v-15.304h9.775v2.327h-7.246v4.058h5.982v2.305h-5.982v4.286h7.246v2.328zm-9.033-15.138v14.391h8.868v-1.414h-7.247v-5.199h5.982v-1.394h-5.982v-4.97h7.247v-1.414h-8.868zm-9.935 15.138h-5.657v-15.304h5.657c5.239 0 5.845 4.25 5.845 7.444 0 1.943 0 7.86-5.845 7.86zm-4.915-15.138v14.391h5.203c4.296 0 5.392-3.286 5.392-7.404 0-4.075-1.159-6.987-5.392-6.987h-5.203zm-3.163 15.138h-8.932v-15.304h2.53v12.956h6.402v2.348zm-8.19-15.138v14.391h8.026v-1.436h-6.403V322.4h-1.623zm-19.844 15.138h-2.508v-6.51h-6.508v6.51h-2.528v-15.304h2.528v6.448h6.508v-6.448h2.508v15.304zm-9.18-7.256h7.414v6.509h1.601v-14.391h-1.601v6.447h-7.414V322.4h-1.622v14.391h1.622v-6.51zm-11.558 7.256h-5.656v-15.304h5.656c5.24 0 5.846 4.25 5.846 7.444 0 1.943 0 7.86-5.846 7.86zm-4.914-15.138v14.391h5.203c4.296 0 5.392-3.286 5.392-7.404 0-4.075-1.158-6.987-5.392-6.987h-5.203zm-3.63 15.138h-2.8l-2.632-5.512h-3.39v5.512h-2.529v-15.304h5.846c3.39 0 5.109 1.623 5.109 4.824 0 2.19-.864 3.71-2.505 4.431l2.9 6.049zm-8.986-6.257h4.128l2.632 5.51h1.791l-2.802-5.844c1.833-.582 2.676-2.058 2.676-4.18 0-3.035-1.601-4.367-4.655-4.367h-5.392v14.391h1.622v-5.51zm-4.873 6.257h-2.541l-1.052-3.703h-5.551l-1.053 3.703h-2.54l4.255-15.304h4.227l4.255 15.304zm-9.198-4.45h6.236l1.052 3.703h1.601l-4.001-14.391h-3.54l-4.001 14.391h1.6l1.053-3.702zm62.179 2.497c-3.37 0-4.087-1.997-4.087-5.926 0-3.91.737-6.052 4.087-6.052 3.327 0 4.086 2.162 4.086 6.052 0 4.055-.695 5.926-4.086 5.926zm-.29-11.232c-2.715 0-3.632 1.412-3.632 5.595 0 4.192.849 5.471 3.632 5.471 2.818 0 3.634-1.227 3.634-5.471 0-4.183-.917-5.595-3.634-5.595zm26.85 11.024h-3.581v-11.563h3.581c3.033 0 3.728 2.455 3.728 5.573 0 3.12-.695 5.99-3.728 5.99zm-3.416-10.816v10.65h3.128c2.233 0 3.273-1.759 3.273-5.533 0-3.587-.979-5.117-3.273-5.117h-3.128zm-53.433 10.816h-3.581v-11.563h3.58c3.034 0 3.73 2.455 3.73 5.573 0 3.12-.696 5.99-3.73 5.99zm-3.416-10.816v10.65h3.127c2.234 0 3.275-1.759 3.275-5.533 0-3.587-.98-5.117-3.275-5.117h-3.127zm131.605 7.093h-5.519l2.212-7.881h1.095l2.212 7.88zm-3.252-7.135l-1.957 6.97h4.32l-1.955-6.97h-.408zm-150.95 7.135h-5.519l2.212-7.881h1.095l2.211 7.88zm-3.252-7.135l-1.955 6.97h4.319l-1.956-6.97h-.408zm114.085 5.347h-3.791v-6.052h3.77c2.044 0 2.991.978 2.991 2.954 0 1.808-.78 3.098-2.97 3.098zm-3.625-5.305v5.14h3.337c1.716 0 2.516-.84 2.516-2.643 0-1.75-.759-2.497-2.538-2.497h-3.315zm-95.223 5.305h-3.791v-6.052h3.77c2.043 0 2.99.978 2.99 2.954 0 1.808-.778 3.098-2.97 3.098zm-3.626-5.305v5.14h3.337c1.717 0 2.516-.84 2.516-2.643 0-1.75-.759-2.497-2.537-2.497h-3.316zm177.996-15.762h-5.334c-1.272 0-2.268-1.001-2.268-2.278v-10.536a2.275 2.275 0 0 1 2.268-2.278h5.334c.114 0 .227.009.338.025h-5.243c-1 0-1.816.821-1.816 1.823v10.535c0 .108.009.212.026.314v.117c0 .779.585 1.367 1.36 1.367h.115c.101.017.207.026.315.026h5.332c1.034 0 1.815-.802 1.815-1.824v-10.445c.016.112.024.225.024.34v10.536a2.248 2.248 0 0 1-2.266 2.278zm-13.062 0h-5.333c-1.272 0-2.268-1.001-2.268-2.278v-10.536a2.275 2.275 0 0 1 2.268-2.278h5.333c.116 0 .229.009.339.025h-5.244c-.998 0-1.814.821-1.814 1.823v10.535a2 2 0 0 0 .025.314v.117c0 .779.584 1.367 1.36 1.367h.115c.101.017.207.026.314.026h5.333c1.034 0 1.814-.802 1.814-1.824v-10.446c.017.112.025.225.025.34v10.537a2.248 2.248 0 0 1-2.267 2.278zm-19.3 0c-.726 0-1.362-.613-1.362-1.313 0-.446.233-.814.418-1.109l.05-.079 6.777-11.671c.208-.347.55-.92 1.281-.92.104 0 .204.012.3.035-.367.056-.564.355-.76.684l-6.785 11.683c-.182.29-.399.601-.399.948 0 .096.02.189.053.277a.501.501 0 0 0-.027.152c0 .217.249.402.453.402a.456.456 0 0 0 .153-.02c.09.03.182.046.275.046.454 0 .672-.257.89-.639l6.964-11.974c.09-.165.168-.344.193-.565.021.092.032.188.032.285a1.9 1.9 0 0 1-.254.928l-6.972 11.986c-.159.278-.492.864-1.28.864zm-6.822 0h-5.333c-1.272 0-2.268-1.001-2.268-2.278v-10.536a2.275 2.275 0 0 1 2.268-2.278h5.333c.116 0 .229.009.339.025h-5.244c-.997 0-1.814.821-1.814 1.823v10.535c0 .108.009.212.026.314v.117c0 .779.584 1.367 1.36 1.367h.114c.101.017.207.026.314.026h5.334c1.034 0 1.813-.802 1.813-1.824v-10.45c.018.113.026.228.026.345v10.536a2.249 2.249 0 0 1-2.268 2.278zm-13.06 0h-5.334c-1.272 0-2.268-1.001-2.268-2.278v-10.536a2.275 2.275 0 0 1 2.268-2.278h5.333c.116 0 .229.009.339.025h-5.244c-.997 0-1.814.821-1.814 1.823v10.535c0 .109.009.215.026.317v.114c0 .779.584 1.367 1.36 1.367h.114c.102.017.207.026.314.026h5.334c1.034 0 1.814-.802 1.814-1.824v-10.445c.017.112.025.225.025.34v10.536a2.249 2.249 0 0 1-2.268 2.278zm47.339-2.709h5.332v-10.535h-5.332v10.535zm.024-.024h4.426v-9.625h-4.426v9.625zm-13.086.024h5.333v-10.535h-5.333v10.535zm.025-.024h4.426v-9.625h-4.426v9.625zm-26.147.024h5.334v-10.535h-5.334v10.535zm.026-.024h4.426v-9.625h-4.426v9.625zm-13.087.024h5.334v-10.535h-5.334v10.535zm.026-.024h4.426v-9.625h-4.426v9.625zm203.047-25.642h-7.777c-1.883 0-3.1-1.222-3.1-3.114v-6.326c0-.954.297-1.739.858-2.27.5-.476 1.1-.758 1.788-.843v-7.252c0-1.05.73-1.785 1.776-1.785h5.132c.113 0 .223.008.33.026h-5.033c-.9 0-1.323.638-1.323 1.33v7.68c-.82 0-1.455.292-1.932.745-.475.45-.714 1.115-.714 1.94v6.325c0 .149.009.293.026.431 0 1.378.819 2.2 2.19 2.201.137.016.282.025.43.025h7.777c1.64 0 2.645-1.037 2.645-2.657v-6.325-.042c.016.152.025.309.025.471v6.326c0 1.892-1.216 3.114-3.098 3.114zm-22.882 0c-1.145 0-1.776-.634-1.776-1.785v-6.405c0-1.023.086-1.216.842-1.884l3.654-3.166c.665-.587.665-.587.663-1.378v-3.403h-6.935c-.198.703-.836 1.33-1.71 1.33-1.065 0-1.779-.923-1.779-1.784v-1.33c0-.862.714-1.785 1.778-1.785h12.199v8.255c0 .952-.032 1.204-.874 1.93l-3.702 3.214c-.582.519-.582.519-.582 1.25v5.156c0 1.151-.631 1.785-1.778 1.785zm.072-.913c.109.017.228.026.357.026.952 0 1.322-.478 1.322-1.328v-5.156c0-.93.054-.984.742-1.595l3.702-3.216c.742-.638.715-.745.715-1.674v-7.708h-11.745c-.847 0-1.323.744-1.323 1.33v1.328c0 .078.008.16.025.241v.19c0 .304.255.872.87.872a.93.93 0 0 0 .125-.009c.095.023.196.035.303.035.846 0 1.323-.745 1.323-1.329h7.776v3.668c0 1.17.053 1.142-.82 1.913l-3.65 3.162c-.661.586-.688.665-.688 1.542v6.406c0 .126.009.245.026.354v.076c0 .653.22.873.868.873l.072-.001zm-14.356.913h-9.629c-1.502 0-2.173-.658-2.173-2.13v-17.675c0-1.118.595-1.785 1.59-1.785h1.59c.094 0 .188.01.28.026h-1.44c-.926 0-1.138.717-1.138 1.33v17.673c0 .161.009.309.026.444.002.945.258 1.2 1.232 1.205.14.017.294.025.462.025h9.628c1.191 0 1.72-.424 1.72-1.674v-5.953l-.001-.151c.019.182.027.376.027.58v5.955c0 1.453-.69 2.13-2.174 2.13zm-20.262 0h-5.873c-.76 0-1.224-.205-1.864-.49l-1.071-.48-.208-.091c-.662-.285-1.569-.675-1.569-1.814 0-.95.805-1.785 1.723-1.785.126 0 .242.01.354.03-.654.044-1.195.66-1.195 1.325 0 .113.012.217.034.311a.872.872 0 0 0-.01.12c0 .488.296.664 1.02.975l.22.097 1.069.479c.598.265.928.411 1.497.411h.018c.127.016.261.025.411.025h5.873c.952 0 1.64-.105 2.3-.903.556-.665.636-1.249.636-2.074v-5.687c0-.105-.001-.207-.004-.304.024.235.03.479.03.734v5.688c0 .959-.119 1.62-.742 2.366-.818.985-1.72 1.067-2.65 1.067zm-37.8 0c-1.146 0-1.777-.634-1.777-1.785v-4.966h-7.776v-13.054c0-1.102.68-1.785 1.775-1.785.126 0 .246.01.36.027-.951.03-1.254.68-1.254 1.328v12.598h7.778v5.422c0 .126.008.245.025.354v.076c0 .653.219.873.87.873l.07-.001c.109.017.227.026.357.026.953 0 1.323-.478 1.323-1.328v-5.422c.669 0 1.288-.352 1.321-1.253.018.113.027.231.027.355 0 .924-.506 1.567-1.323 1.738v5.012c0 1.151-.631 1.785-1.776 1.785zm-19.047 0h-9.098c-1.08 0-1.777-.7-1.777-1.785 0-1.084.698-1.784 1.777-1.784h8.646v-3.956c0-1.484-.61-1.484-.87-1.484h-5.185c-1.08 0-1.775-.701-1.775-1.786s.696-1.785 1.775-1.785h5.185c.26 0 .87 0 .87-1.483v-3.958h-8.646c-1.08 0-1.777-.7-1.777-1.784s.698-1.785 1.777-1.785H375c.142 0 .281.008.417.026h-9.087c-.689 0-1.323.372-1.323 1.33 0 .117.01.228.028.33a1.464 1.464 0 0 0-.003.099c0 .579.293.874.87.874h.127c.098.016.199.025.301.025h9.1v4.411c0 1.489-.583 1.941-1.324 1.941h-5.184c-.688 0-1.323.372-1.323 1.329 0 .119.01.23.029.33a1.521 1.521 0 0 0-.003.1c0 .58.291.874.868.874h.128c.098.017.199.024.301.024h5.075c.582.096 1.288.497 1.432 1.848v4.505h-9.099c-.689 0-1.323.372-1.323 1.33 0 .118.01.228.028.33a1.487 1.487 0 0 0-.003.099c0 .579.293.873.87.873h.127c.098.017.199.025.301.025h9.1c1.507 0 2.645-1.141 2.645-2.657v-5.104c0-.067 0-.133-.003-.199.022.212.028.423.028.63v5.103c0 1.775-1.333 3.114-3.1 3.114zm-17.722 0H345.08v-9.12c0-2.232 1.222-3.46 3.441-3.46h6.98v-5.44h-8.645c-1.08 0-1.776-.701-1.776-1.785s.697-1.785 1.776-1.785h8.782c.214 0 .416.007.61.028a9.973 9.973 0 0 0-.182-.002h-8.782c-.688 0-1.322.372-1.322 1.33 0 .117.01.228.028.328a1.52 1.52 0 0 0-.003.1c0 .58.291.875.869.875h.128c.097.016.198.025.3.025h9.1v6.352h-7.434c-1.984 0-2.988 1.01-2.988 3.003v8.664h11.745c.668 0 1.288-.352 1.32-1.252.017.113.027.23.027.354 0 1.084-.697 1.785-1.776 1.785zm-19.046 0h-10.421c-1.08 0-1.777-.7-1.777-1.785 0-1.084.698-1.784 1.777-1.784h3.434v-14.452h-3.434c-1.08 0-1.777-.7-1.777-1.784s.698-1.785 1.777-1.785h6.986v18.02h1.66v-4.912c0-1.135.647-1.786 1.775-1.786.13 0 .255.01.373.026-.936.022-1.267.573-1.267 1.329v5.369h-2.566v-18.02h-6.534c-.687 0-1.322.372-1.322 1.33 0 .12.01.23.029.333a1.414 1.414 0 0 0-.003.096c0 .579.292.874.869.874h.127c.098.016.199.025.3.025h3.889v15.362h-3.889c-.687 0-1.322.372-1.322 1.33 0 .12.01.23.029.334a1.36 1.36 0 0 0-.003.095c0 .579.292.873.869.873h.127c.098.017.199.025.3.025h10.423c.688 0 1.323-.371 1.323-1.328v-6.637a2.7 2.7 0 0 1 .025.37v6.697c0 1.084-.698 1.785-1.777 1.785zm-39.413 0h-7.777c-1.883 0-3.1-1.222-3.1-3.114v-6.326c0-.954.297-1.739.857-2.27.5-.476 1.1-.758 1.79-.843v-7.252c0-1.05.73-1.785 1.775-1.785h5.132c.113 0 .223.008.329.026h-5.032c-.9 0-1.323.638-1.323 1.33v7.68c-.82 0-1.455.292-1.93.745-.478.45-.716 1.115-.716 1.94v6.325c0 .149.01.293.026.431 0 1.378.819 2.2 2.19 2.201.137.016.282.025.43.025h7.777c1.64 0 2.645-1.037 2.645-2.657v-6.325-.047c.017.154.026.313.026.476v6.326c0 1.892-1.217 3.114-3.1 3.114zm-22.881 0c-1.146 0-1.777-.634-1.777-1.785v-6.405c0-1.023.086-1.216.842-1.884l3.654-3.166c.665-.587.665-.587.663-1.378v-3.403h-6.935c-.198.703-.836 1.33-1.71 1.33-1.064 0-1.778-.923-1.778-1.784v-1.33c0-.862.714-1.785 1.777-1.785h12.199v8.255c0 .952-.031 1.204-.874 1.93l-3.702 3.214c-.582.519-.582.519-.582 1.25v5.156c0 1.151-.631 1.785-1.777 1.785zm.071-.913c.109.017.227.026.357.026.952 0 1.323-.478 1.323-1.328v-5.156c0-.93.053-.984.74-1.595l3.704-3.216c.74-.638.714-.745.714-1.674v-7.708h-11.745c-.847 0-1.323.744-1.323 1.33v1.328c0 .078.009.16.025.24v.19c0 .305.255.873.87.873a.93.93 0 0 0 .125-.009c.095.023.196.035.303.035.846 0 1.322-.745 1.322-1.329h7.778v3.668c0 1.17.052 1.142-.82 1.913l-3.65 3.162c-.662.586-.689.665-.689 1.542v6.406c0 .127.009.245.026.354v.076c0 .653.22.873.869.873l.071-.001zm-14.355.913h-9.63c-1.502 0-2.172-.658-2.172-2.13v-17.675c0-1.118.595-1.785 1.59-1.785h1.588c.095 0 .189.01.28.026h-1.438c-.927 0-1.139.717-1.139 1.33v17.673c0 .161.009.307.026.443.002.946.259 1.2 1.232 1.206.141.017.294.025.462.025h9.63c1.19 0 1.718-.424 1.718-1.674v-5.953l-.001-.145c.02.18.027.372.027.575v5.954c0 1.453-.69 2.13-2.173 2.13zm-20.262 0h-5.873c-.762 0-1.224-.205-1.866-.49l-1.071-.48-.207-.091c-.662-.285-1.569-.675-1.569-1.814 0-.95.806-1.785 1.723-1.785.126 0 .243.01.353.03-.654.044-1.194.66-1.194 1.325 0 .113.012.217.034.311a.872.872 0 0 0-.009.12c0 .488.295.664 1.02.975l.22.097 1.068.479c.598.265.928.411 1.498.411h.017c.127.016.263.025.411.025h5.872c.952 0 1.64-.105 2.301-.903.556-.665.636-1.249.636-2.074v-5.687c0-.105-.001-.207-.005-.304.025.235.03.479.03.734v5.688c0 .96-.118 1.622-.741 2.366-.817.985-1.719 1.067-2.648 1.067zm-37.8 0c-1.147 0-1.778-.634-1.778-1.785v-4.966h-7.776v-13.054c0-1.102.68-1.785 1.775-1.785.126 0 .246.01.361.027-.95.029-1.255.678-1.255 1.328v12.598h7.777v5.422c0 .128.009.247.026.357v.073c0 .653.22.873.87.873l.07-.001c.11.017.228.026.358.026.952 0 1.322-.478 1.322-1.328v-5.422c.669 0 1.288-.352 1.321-1.253.018.113.026.231.026.355 0 .924-.505 1.567-1.322 1.738v5.012c0 1.151-.63 1.785-1.776 1.785zm-19.046 0h-9.1c-1.08 0-1.777-.7-1.777-1.785 0-1.084.698-1.784 1.777-1.784h8.646v-3.956c0-1.484-.609-1.484-.87-1.484h-5.183c-1.08 0-1.777-.701-1.777-1.786s.697-1.785 1.777-1.785h5.184c.26 0 .869 0 .869-1.483v-3.958h-8.646c-1.08 0-1.777-.7-1.777-1.784s.698-1.785 1.777-1.785h9.1c.141 0 .281.008.417.026h-9.089c-.688 0-1.322.372-1.322 1.33 0 .118.01.228.028.33a1.487 1.487 0 0 0-.003.099c0 .579.293.874.869.874h.127c.098.016.2.025.301.025h9.1v4.411c0 1.489-.582 1.941-1.323 1.941h-5.185c-.688 0-1.322.372-1.322 1.329 0 .119.01.228.028.33a1.52 1.52 0 0 0-.003.1c0 .58.293.874.87.874h.126c.098.017.199.024.301.024h5.077c.58.096 1.285.496 1.43 1.844v4.509h-9.099c-.688 0-1.322.372-1.322 1.33 0 .118.01.229.028.33a1.512 1.512 0 0 0-.003.099c0 .579.293.873.869.873h.127c.098.017.2.025.301.025h9.1c1.507 0 2.646-1.141 2.646-2.657v-5.104c0-.067-.002-.134-.004-.2.022.212.028.423.028.632v5.102c0 1.775-1.332 3.114-3.098 3.114zm-17.724 0h-12.198v-9.12c0-2.232 1.223-3.46 3.443-3.46h6.98v-5.44H156.4c-1.08 0-1.777-.701-1.777-1.785s.697-1.785 1.777-1.785h8.781c.214 0 .416.007.611.028a9.854 9.854 0 0 0-.182-.002h-8.783c-.687 0-1.322.372-1.322 1.33 0 .117.01.228.029.328a1.52 1.52 0 0 0-.003.1c0 .58.292.875.869.875h.127c.098.016.199.025.3.025h9.1v6.352h-7.433c-1.984 0-2.99 1.01-2.99 3.003v8.664h11.746c.67 0 1.288-.352 1.321-1.252.018.113.026.23.026.354 0 1.084-.697 1.785-1.776 1.785zm-19.045 0h-10.422c-1.08 0-1.777-.7-1.777-1.785 0-1.084.698-1.784 1.777-1.784h3.435v-14.452h-3.435c-1.08 0-1.777-.7-1.777-1.784s.698-1.785 1.777-1.785h6.987v18.02h1.659v-4.912c0-1.135.647-1.786 1.776-1.786.13 0 .256.01.373.026-.937.022-1.267.573-1.267 1.329v5.369h-2.567v-18.02h-6.533c-.688 0-1.322.372-1.322 1.33 0 .117.01.228.028.33a1.464 1.464 0 0 0-.003.099c0 .579.293.874.869.874h.127c.098.016.199.025.301.025h3.889v15.362h-3.889c-.688 0-1.322.372-1.322 1.33 0 .118.01.228.028.33a1.487 1.487 0 0 0-.003.099c0 .579.293.873.869.873h.127c.098.017.199.025.301.025h10.422c.688 0 1.322-.371 1.322-1.328v-6.643c.017.12.027.244.027.376v6.697c0 1.084-.698 1.785-1.777 1.785zm334.15-3.544h7.776v-6.353h-7.777v6.353zm.025-.025h6.868v-5.44h-6.868v5.44zm-38.117.025h7.777v-4.093h-7.777v4.093zm.026-.025h6.868v-3.182h-6.868v3.182zm-11.295.025h-6.11a1 1 0 0 1-.212-.025h5.44v-5.44h-7.803v-12.581h9.579c.12 0 .235.008.345.026h-9.042v11.667h7.803v6.353zm-74.943 0h-9.015v-6.353h7.458c.874 0 1.482-.133 2.143-.743.74-.691.82-1.409.82-2.366v-5.449c0-.116-.002-.23-.005-.338.025.25.03.506.03.769v5.449c0 .984-.072 1.866-.965 2.7-.78.72-1.516.866-2.45.866h-7.007v5.44h8.646c.12 0 .235.008.345.025zm-66.153 0h7.777v-6.353h-7.777v6.353zm.025-.025h6.87v-5.44h-6.87v5.44zm-38.116.025h7.777v-4.093h-7.777v4.093zm.025-.025h6.87v-3.182h-6.87v3.182zm-11.293.025H236a1 1 0 0 1-.212-.025h5.44v-5.44h-7.803v-12.581h9.58c.12 0 .235.008.344.026h-9.042v11.667h7.804v6.353zm-74.945 0h-9.015v-6.353h7.46c.873 0 1.482-.133 2.142-.743.74-.691.82-1.409.82-2.366v-5.449c0-.116 0-.227-.004-.335.025.249.03.504.03.766v5.449c0 .984-.073 1.866-.965 2.7-.781.72-1.517.866-2.452.866h-7.006v5.44h8.646c.12 0 .234.008.344.025zm285.547-6.75h-8.878v-8.612c.732 0 1.272-.485 1.32-1.224.019.105.028.215.028.325 0 .875-.535 1.547-1.322 1.734v7.75h8.38c.171 0 .327.009.472.026zm-190.457 0h-8.877v-8.612c.732 0 1.272-.485 1.32-1.223.019.105.028.214.028.324 0 .875-.535 1.547-1.323 1.734v7.75h8.382c.17 0 .326.009.47.026zm-56.889 0h-.025v-7.609c.016.114.025.233.025.357v7.251zm190.456 0h-.025v-7.607c.016.113.025.232.025.355v7.251zm-2.67 0h-5.132v-9.865c.017.113.026.23.026.354v9.484h4.223v-7.225c0-1.101.68-1.785 1.777-1.785.125 0 .245.01.359.027-.95.03-1.253.678-1.253 1.327v7.682zm-190.457 0h-5.13v-9.865c.015.113.024.23.024.354v9.484h4.224v-7.225c0-1.101.681-1.785 1.777-1.785.125 0 .246.01.359.027-.951.03-1.254.678-1.254 1.327v7.682zm-15.801-.618a3.628 3.628 0 0 0-.307-.313c.82-.745 1.032-1.516 1.032-2.578v-5.091c.016.136.024.276.024.419v5.102c0 .805-.1 1.651-.75 2.46zm190.455-.002a3.618 3.618 0 0 0-.307-.311c.82-.745 1.032-1.516 1.032-2.578v-5.09c.017.135.025.275.025.418v5.102c0 .805-.101 1.651-.75 2.46zm-135.352-1.638a9.614 9.614 0 0 0-.179-.002h-4.867v-6.352h6.481c.67 0 1.288-.354 1.322-1.254.017.114.026.232.026.355 0 1.084-.697 1.784-1.776 1.784h-6.027v5.441h4.414c.209 0 .411.008.606.028zm190.456 0a9.497 9.497 0 0 0-.178-.002h-4.868v-6.352h6.481c.67 0 1.29-.354 1.322-1.254.017.113.026.232.026.355 0 1.084-.697 1.784-1.777 1.784h-6.026v5.441h4.413c.21 0 .412.008.607.028zm-133.18-.002h-.027v-7.584c.016.107.026.218.026.333v7.251zm190.454 0h-.025v-7.581c.016.106.025.216.025.33v7.251zm-5.157 0h2.487v-6.352h-2.487v6.352zm.026-.026h1.58v-5.44h-1.58v5.44zm-190.48.026h2.486v-6.352h-2.487v6.352zm.024-.026h1.579v-5.44h-1.58v5.44z"/>
        <path fill="#B4B4B0" d="M214.645 335.72c-4.54 0-5.765-2.475-5.765-7.223 0-4.665 1.246-7.345 5.765-7.345 4.518 0 5.786 2.639 5.786 7.345 0 4.87-1.246 7.223-5.786 7.223zm-.29-13.834c-3.821 0-5.31 1.932-5.31 6.896 0 5.001 1.39 6.775 5.31 6.775 3.936 0 5.33-1.774 5.33-6.775 0-4.964-1.494-6.896-5.33-6.896zm-71.38 13.834c-4.372 0-5.344-2.578-5.344-7.244 0-4.787.951-7.324 5.343-7.324 1.5 0 3.105.265 4.034.45l-.064 1.33c-.95-.164-2.66-.369-3.8-.369-3.252 0-3.823 1.882-3.823 5.913 0 3.95.528 5.832 3.865 5.832 1.182 0 2.744-.184 3.758-.368l.064 1.35c-1.036.205-2.64.43-4.034.43zm-.29-13.834c-3.7 0-4.887 1.67-4.887 6.877 0 5.079 1.233 6.794 4.887 6.794 1.181 0 2.548-.17 3.56-.35l-.021-.454c-.999.155-2.293.289-3.327.289-4.003 0-4.32-2.722-4.32-6.28 0-3.604.315-6.362 4.277-6.362.942 0 2.328.14 3.37.294l.021-.44c-.888-.162-2.269-.368-3.56-.368zm204.594 13.63h-8.89v-14.161h8.89v1.391h-7.264v4.891h5.997v1.371h-5.997v5.116h7.264v1.391zm-8.725-13.427v13.264h7.98v-.496h-7.263v-6.011h5.996v-.475h-5.996v-5.786h7.263v-.496h-7.98zm-5.023 13.426h-1.626v-12.481h-.295l-4.245 11.97h-1.815l-4.245-11.97h-.296v12.481h-1.625v-14.16h2.935l4.138 11.972 4.138-11.972h2.936v14.16zm-2.533-12.645h1.073v12.483h.716v-13.264h-2.155l-4.41 12.753h.53l4.246-11.972zm-11.45-.78v13.263h.717V322.87h1.073l4.245 11.972h.53l-4.41-12.753h-2.154zm-3.734 13.425h-1.605l-1.056-3.643h-6.25l-1.055 3.643h-1.606l4.013-14.16h3.547l4.012 14.16zm-9.543-3.806h6.936l1.056 3.644h.663l-3.758-13.264h-2.858l-3.758 13.264h.663l1.056-3.644zm-5.598 3.806h-2.977l-5.68-12.769h-.402v12.77h-1.625v-14.161h3.04l5.596 12.769h.444v-12.77h1.604v14.161zm-9.802-12.93h1.153l5.68 12.768h2.225v-13.264h-.695v12.768h-1.197l-5.596-12.768h-2.287v13.264h.717v-12.768zm-16.783 12.93h-1.795l-2.64-5.422h-4.139v5.422h-1.626v-14.16h5.407c3.062 0 4.667 1.31 4.667 4.298 0 2.087-.845 3.54-2.683 4.112l2.81 5.75zm-9.318-5.586h4.88l2.64 5.424h.785l-2.722-5.573.5-.156c1.591-.497 2.364-1.703 2.364-3.686 0-2.661-1.3-3.849-4.212-3.849h-4.951v13.264h.716v-5.424zm-4.936 5.586h-8.89v-14.16h8.89v1.391h-7.264v4.891h5.997v1.371h-5.997v5.116h7.264v1.391zm-8.725-13.426v13.264h7.98v-.496h-7.263v-6.011h5.997v-.475h-5.997v-5.786h7.264v-.496h-7.98zm-9.836 13.426h-5.216v-14.16h5.216c4.244 0 5.406 2.866 5.406 6.875 0 4.052-1.1 7.285-5.406 7.285zm-5.05-13.426v13.264h4.76c3.424 0 4.95-2.108 4.95-6.836 0-4.505-1.48-6.428-4.95-6.428h-4.76zm-3.502 13.426h-8.047v-14.16h1.627v12.748h6.42v1.412zm-7.88-13.426v13.264h7.135v-.516h-6.42V322.09h-.715zm-20.226 13.426h-1.606v-6.404h-7.433v6.404h-1.626v-14.16h1.626v6.344h7.433v-6.344h1.606v14.16zm-9.783-6.567h8.342v6.405h.696v-13.264h-.696v6.345h-8.342v-6.345h-.716v13.264h.716v-6.405zm-10.554 6.567h-5.215v-14.16h5.215c4.245 0 5.407 2.866 5.407 6.875 0 4.052-1.1 7.285-5.407 7.285zm-5.049-13.426v13.264h4.76c3.424 0 4.952-2.108 4.952-6.836 0-4.505-1.481-6.428-4.952-6.428h-4.76zm-4.242 13.426h-1.795l-2.64-5.422h-4.138v5.422h-1.626v-14.16h5.406c3.062 0 4.667 1.31 4.667 4.298 0 2.087-.845 3.54-2.683 4.112l2.81 5.75zm-9.318-5.586h4.881l2.639 5.424h.785l-2.722-5.573.5-.157c1.591-.496 2.364-1.702 2.364-3.685 0-2.661-1.299-3.849-4.211-3.849h-4.951v13.264h.715v-5.424zm-4.45 5.586h-1.605l-1.055-3.643h-6.252l-1.054 3.643h-1.606l4.012-14.16h3.549l4.011 14.16zm-9.543-3.806h6.936l1.056 3.644h.663l-3.758-13.264h-2.858l-3.758 13.264h.663l1.056-3.644zm62.679 3.354c-3.79 0-4.552-2.404-4.552-6.281 0-3.843.775-6.403 4.552-6.403 3.777 0 4.551 2.56 4.551 6.403 0 4.073-.724 6.281-4.551 6.281zm.29-12.52c-3.359 0-4.097 2.107-4.097 5.954 0 3.867.718 5.831 4.097 5.831 3.4 0 4.096-1.84 4.096-5.83 0-3.828-.76-5.955-4.096-5.955zm26.339 12.314h-4.045v-12.272h4.045c3.757 0 4.192 3.384 4.192 5.932 0 4.207-1.411 6.34-4.192 6.34zm-3.302-12.11v11.377h3.591c3.04 0 3.738-2.824 3.738-5.894 0-3.068-.698-5.484-3.738-5.484h-3.59zm-53.693 12.11h-4.044v-12.272h4.044c3.758 0 4.193 3.384 4.193 5.932 0 4.207-1.41 6.34-4.193 6.34zm-3.3-12.11v11.377h3.59c3.04 0 3.738-2.824 3.738-5.894 0-3.068-.698-5.484-3.739-5.484h-3.59zm132.417 8.448h-6.734l2.474-8.652h1.786l2.474 8.652zm-3.627-8.49l-2.217 7.756h5.533l-2.218-7.755h-1.098zm-150.968 8.49h-6.735l2.475-8.652h1.786l2.474 8.652zm-3.627-8.49l-2.217 7.756h5.532l-2.217-7.755h-1.098zm114.142 6.73h-4.256v-6.85h4.235c2.291 0 3.454 1.127 3.454 3.353 0 2.255-1.219 3.497-3.433 3.497zm-3.512-6.689v5.956h3.801c2.196 0 2.978-1.27 2.978-3.05 0-1.943-.95-2.906-2.998-2.906h-3.78zm-95.589 6.69h-4.256v-6.851h4.236c2.29 0 3.453 1.127 3.453 3.353 0 2.255-1.219 3.497-3.433 3.497zm-3.51-6.69v5.956h3.8c2.196 0 2.977-1.27 2.977-3.05 0-1.943-.95-2.906-2.998-2.906h-3.78zm179.043-15.645h-5.346c-.108 0-.214-.009-.316-.026h5.233c.776 0 1.363-.578 1.363-1.345v-10.367c0-.74-.611-1.343-1.363-1.343h-5.347c-.752 0-1.365.602-1.365 1.343v10.252a1.815 1.815 0 0 1-.025-.308V294.94c0-.985.818-1.793 1.82-1.793h5.256c.982.145 1.761.913 1.909 1.882v10.278c0 1.005-.783 1.794-1.82 1.794zm-13.094 0h-5.347c-.108 0-.213-.009-.315-.026h5.233c.776 0 1.363-.578 1.363-1.345v-10.367c0-.74-.612-1.343-1.363-1.343h-5.347c-.753 0-1.365.602-1.365 1.343v10.252a1.933 1.933 0 0 1-.025-.308V294.94c0-.985.819-1.793 1.82-1.793h5.256c.982.145 1.76.913 1.909 1.88v10.28c0 1.005-.783 1.794-1.82 1.794zm-19.351 0a.903.903 0 0 1-.275-.045c.103-.036.197-.132.342-.382l6.986-11.788a.931.931 0 0 0 .14-.471c0-.211-.206-.395-.438-.395-.177 0-.274.09-.502.463l-6.859 11.585c-.099.156-.202.316-.25.462a.752.752 0 0 1-.053-.273c0-.34.218-.646.4-.932l6.803-11.496c.195-.324.393-.617.762-.673.497.114.896.5 1.012.979a1.455 1.455 0 0 1-.194.555l-6.982 11.782c-.218.376-.436.629-.892.629zm-6.837 0h-5.347c-.108 0-.214-.009-.316-.026h5.233c.778 0 1.364-.578 1.364-1.345v-10.367c0-.74-.612-1.343-1.364-1.343H300.4c-.751 0-1.364.602-1.364 1.343v10.252a1.815 1.815 0 0 1-.025-.308V294.94c0-.985.819-1.793 1.819-1.793h5.256c.982.145 1.76.91 1.909 1.878v10.282c0 1.005-.782 1.794-1.818 1.794zm-13.094 0h-5.348c-.108 0-.212-.009-.315-.026h5.233c.777 0 1.363-.578 1.363-1.345v-10.367c0-.74-.61-1.343-1.363-1.343h-5.347c-.752 0-1.364.602-1.364 1.343v10.256a1.853 1.853 0 0 1-.026-.312V294.94c0-.985.82-1.793 1.82-1.793h5.256a2.265 2.265 0 0 1 1.91 1.882v10.278c0 1.005-.783 1.794-1.82 1.794zm46.144-.921h6.258v-11.264h-6.258v11.264zm.886-.873h5.346V294.94h-5.346v10.367zm-13.98.873h6.257v-11.264h-6.257v11.264zm.885-.873h5.347V294.94h-5.347v10.367zm-27.073.873h6.257v-11.264h-6.257v11.264zm.885-.873h5.347V294.94h-5.347v10.367zm-13.979.873h6.256v-11.264h-6.256v11.264zm.884-.873h5.348V294.94h-5.348v10.367zm204.02-26.128h-7.797c-.149 0-.293-.009-.431-.025H491.325c1.375 0 2.196-.81 2.196-2.166v-6.225c0-.695-.192-1.228-.573-1.582-.435-.405-.981-.611-1.623-.611h-.456v-8.006c0-.203-.062-.86-.87-.86h-5.146c-.808 0-.87.657-.87.86v8.006h-.455c-.644 0-1.19.206-1.624.61-.381.355-.573.888-.573 1.583v6.226a3.377 3.377 0 0 1-.026-.425v-6.224c0-.811.24-1.465.716-1.909.478-.445 1.115-.732 1.936-.732v-7.558c0-.68.425-1.308 1.326-1.308h5.046c.763.119 1.304.653 1.425 1.406v7.46h.025a3.12 3.12 0 0 1 1.793.828c.468.436.75 1.042.834 1.773v6.264c0 1.595-1.009 2.615-2.652 2.615zm-22.939 0c-.13 0-.25-.009-.358-.026.596-.016.8-.24.8-.858v-5.073c0-1.055.112-1.222.896-1.906l3.716-3.168c.56-.471.56-.471.559-1.217v-7.226h-11.32c-.616 0-.872.56-.872.859v1.122a1.138 1.138 0 0 1-.025-.238v-1.307c0-.576.477-1.308 1.326-1.308h11.775v7.584c0 .915.027 1.02-.717 1.648l-3.711 3.164c-.69.602-.744.654-.744 1.57v5.073c0 .836-.37 1.307-1.325 1.307zm-14.322 0h-9.652c-.169 0-.323-.008-.464-.025h9.688c.996 0 1.27-.257 1.27-1.199v-5.858c0-1.096-.182-1.304-1.138-1.304h-9.312v-9.369h.455c.528 0 .87-.339.87-.86 0-.45-.376-.86-.79-.86h-1.593c-.223 0-.685 0-.685.86v17.404a3.395 3.395 0 0 1-.026-.436v-17.39c0-.603.213-1.31 1.142-1.31h1.442c.693.125 1.259.701 1.392 1.412-.048.728-.589 1.204-1.323 1.204v8.474H454.669c1.073.129 1.45.725 1.547 1.603l.001.15v5.857c0 1.23-.53 1.647-1.724 1.647zm-20.312 0h-5.888a3.29 3.29 0 0 1-.413-.025h5.87c.93 0 1.432-.105 1.958-.728.455-.533.532-.972.532-1.752v-5.597c0-.866-.067-1.335-.677-1.894-.543-.513-1.076-.613-1.813-.613h-5.334v-7.146h6.951c.58 0 .873-.29.873-.86 0-.57-.293-.86-.873-.86h-8.693v10.585h7.823v7.148h-6.581c-.423 0-.903-.233-1.287-.42-.109-.054-.21-.104-.298-.141l-.797-.34c-.251-.114-.43-.172-.668-.172-.39 0-.75.34-.81.742a1.35 1.35 0 0 1-.033-.307c0-.654.542-1.26 1.198-1.304.24.04.454.118.683.22l.788.338c.098.042.213.098.34.159.267.13.673.328.884.328h.217c.074.015.146.024.213.024h6.125v-6.25h-7.823v-11.481h9.066c.77.116 1.289.625 1.409 1.382-.033.885-.654 1.233-1.325 1.233H429.3v6.25h4.88c.061 0 .12.002.179.003.66.07 1.248.281 1.828.83.654.598.867 1.181.933 1.823.003.096.004.196.004.3v5.596c0 .811-.08 1.386-.637 2.04-.663.785-1.352.889-2.306.889zm-37.898 0c-.13 0-.249-.009-.358-.026.596-.016.8-.24.8-.858v-5.783h.455c.578 0 .871-.29.871-.86 0-.57-.293-.86-.871-.86h-.456v-8.005c0-.77-.496-.86-.87-.86s-.871.09-.871.86v8.006h-6.055v-10.23c0-.769-.498-.858-.872-.858-.373 0-.87.089-.87.859v11.948h7.797v5.709a2.212 2.212 0 0 1-.025-.349v-5.335h-7.798V260.14c0-.639.304-1.277 1.257-1.307.774.116 1.28.617 1.396 1.382v9.706h5.145v-7.559c0-.639.304-1.278 1.256-1.306.774.116 1.279.617 1.396 1.38v7.485h.024v.019c.71.146 1.186.642 1.3 1.363-.033.887-.654 1.233-1.324 1.233v5.335c0 .836-.372 1.307-1.327 1.307zm-19.094 0h-9.122c-.103 0-.204-.008-.303-.025h8.994c1.253 0 2.197-.931 2.197-2.166v-5.021c0-1.047-.228-1.624-.883-2.204l-.373-.333.373-.333c.655-.582.883-1.158.883-2.204v-5.02c0-1.237-.944-2.168-2.197-2.168h-9.121c-.544 0-.836.256-.87.76a1.803 1.803 0 0 1-.027-.324c0-.942.636-1.308 1.327-1.308h9.11c1.423.172 2.49 1.224 2.665 2.628v5.008c0 1.046-.213 1.805-1.036 2.537.115.101.216.204.308.307-.031.04-.065.079-.1.117.559.626.76 1.278.824 1.916.003.065.004.13.004.196v5.022c0 1.492-1.141 2.615-2.653 2.615zm-17.768 0h-11.775v-8.526c0-1.96 1.007-2.954 2.996-2.954h7.452v-6.25h-9.122c-.103 0-.204-.01-.301-.025h9.45v7.146h-7.909c-1.733 0-2.541.797-2.541 2.507v8.077h11.32c.578 0 .872-.29.872-.859 0-.57-.294-.858-.871-.858h-9.579v-7.148h7.934c.772 0 1.268-.095 1.84-.614.578-.528.676-1.044.676-1.997v-5.362c0-.954-.098-1.468-.677-1.998-.571-.519-1.067-.613-1.839-.613h-8.805c-.544 0-.835.255-.868.76a1.782 1.782 0 0 1-.028-.324c0-.942.636-1.308 1.326-1.308h8.804c.063 0 .124 0 .184.002.662.067 1.24.277 1.843.823.657.601.87 1.228.939 1.901.003.108.004.22.004.333v5.362c0 .942-.079 1.648-.822 2.328-.663.6-1.271.732-2.148.732h-7.477v6.25h9.038c.77.116 1.288.625 1.408 1.383-.033.886-.654 1.232-1.324 1.232zm-19.094 0h-10.45c-.101 0-.203-.008-.301-.025h10.32c.578 0 .872-.29.872-.859v-6.59c0-.618-.244-.86-.871-.86-.626 0-.871.242-.871.86v5.732h-3.48v-17.732h-6.097c-.546 0-.837.257-.868.764-.02-.1-.03-.21-.03-.328 0-.942.637-1.308 1.326-1.308h6.551v17.731h2.573v-5.283c0-.744.331-1.286 1.27-1.307.783.113 1.269.593 1.382 1.367v6.531c0 .942-.637 1.307-1.326 1.307zm-39.515 0h-7.796c-.15 0-.294-.009-.432-.025H300.383c1.376 0 2.197-.81 2.197-2.166v-6.225c0-.695-.192-1.228-.573-1.582-.434-.405-.98-.611-1.624-.611h-.455v-8.006c0-.203-.062-.86-.87-.86h-5.146c-.809 0-.871.657-.871.86v8.006h-.455c-.643 0-1.19.206-1.624.61-.38.355-.573.888-.573 1.583v6.226a3.377 3.377 0 0 1-.026-.425v-6.224c0-.811.239-1.465.717-1.909.477-.445 1.113-.732 1.936-.732v-7.558c0-.68.424-1.308 1.325-1.308h5.045c.763.119 1.304.652 1.426 1.403v7.463h.026c.69.084 1.292.362 1.794.83.465.433.749 1.037.832 1.765V276.564c0 1.595-1.007 2.615-2.652 2.615zm-22.939 0c-.13 0-.249-.009-.358-.026.596-.016.8-.24.8-.858v-5.073c0-1.055.112-1.222.895-1.906l3.717-3.168c.56-.471.56-.471.56-1.217v-7.226h-11.32c-.617 0-.873.56-.873.859v1.12a1.196 1.196 0 0 1-.024-.236v-1.307c0-.576.477-1.308 1.325-1.308h11.775v7.584c0 .915.027 1.02-.715 1.648l-3.713 3.164c-.69.602-.743.654-.743 1.57v5.073c0 .836-.371 1.307-1.326 1.307zm-14.32 0h-9.654c-.169 0-.322-.008-.463-.025h9.687c.996 0 1.268-.257 1.268-1.199v-5.858c0-1.096-.18-1.304-1.135-1.304h-9.313v-9.369h.455c.529 0 .87-.339.87-.86 0-.45-.377-.86-.79-.86h-1.592c-.222 0-.685 0-.685.86v17.403a3.378 3.378 0 0 1-.026-.435v-17.39c0-.603.212-1.31 1.14-1.31h1.442c.694.125 1.26.701 1.393 1.413-.048.727-.589 1.203-1.323 1.203v8.474h8.899c1.077.129 1.452.727 1.549 1.61v6c0 1.23-.53 1.647-1.722 1.647zm-20.315 0h-5.887c-.149 0-.285-.009-.412-.025h5.87c.928 0 1.43-.105 1.958-.728.454-.533.53-.972.53-1.752v-5.597c0-.866-.066-1.336-.676-1.894-.543-.513-1.075-.613-1.812-.613h-5.335v-7.146h6.953c.577 0 .87-.29.87-.86 0-.57-.293-.86-.87-.86h-8.695v10.585h7.823v7.148h-6.58c-.424 0-.903-.233-1.288-.42-.109-.054-.21-.104-.298-.14l-.796-.34c-.253-.115-.43-.173-.669-.173-.39 0-.749.34-.81.742a1.35 1.35 0 0 1-.033-.307c0-.654.541-1.26 1.197-1.304.241.04.455.118.683.22l.788.338c.1.042.216.098.341.159.268.13.673.328.884.328h.217c.075.015.146.024.213.024h6.127v-6.25h-7.824v-11.481h9.065c.77.116 1.29.625 1.409 1.382-.034.885-.654 1.233-1.325 1.233h-6.498v6.25h4.88l.18.003c.659.07 1.247.281 1.827.83.654.598.867 1.181.933 1.823.003.096.004.196.004.3v5.596c0 .811-.08 1.386-.637 2.04-.663.785-1.353.889-2.307.889zm-37.896 0c-.13 0-.25-.009-.358-.026.596-.016.8-.24.8-.858v-5.783h.454c.578 0 .871-.29.871-.86 0-.57-.293-.86-.87-.86h-.455v-8.005c0-.77-.498-.86-.872-.86s-.87.09-.87.86v8.006h-6.056v-10.23c0-.769-.497-.858-.871-.858s-.87.089-.87.859v11.948h7.796v5.712a2.24 2.24 0 0 1-.026-.352v-5.335h-7.796V260.14c0-.64.304-1.279 1.257-1.307.773.116 1.28.617 1.395 1.382v9.706h5.144v-7.559c0-.639.304-1.278 1.257-1.306.773.116 1.278.615 1.396 1.378v7.487h.025v.019c.709.146 1.185.642 1.3 1.363-.034.887-.655 1.233-1.325 1.233v5.335c0 .836-.371 1.307-1.326 1.307zm-19.095 0h-9.122c-.103 0-.204-.008-.302-.025h8.996c1.252 0 2.197-.931 2.197-2.166v-5.021c0-1.047-.232-1.624-.885-2.204l-.374-.333.374-.333c.653-.582.885-1.158.885-2.204v-5.02c0-1.237-.945-2.168-2.197-2.168h-9.124c-.544 0-.835.256-.868.76a1.794 1.794 0 0 1-.028-.324c0-.942.636-1.308 1.326-1.308h9.112c1.423.172 2.488 1.224 2.663 2.627v5.01c0 1.045-.213 1.804-1.034 2.536.113.101.216.204.307.308a3.16 3.16 0 0 1-.099.116c.557.625.758 1.276.823 1.915.002.065.003.131.003.197v5.022c0 1.492-1.141 2.615-2.653 2.615zm-17.767 0h-11.776v-8.526c0-1.96 1.008-2.954 2.997-2.954h7.453v-6.25h-9.124c-.101 0-.203-.01-.301-.025h9.45v7.146h-7.907c-1.734 0-2.542.797-2.542 2.507v8.077h11.32c.579 0 .871-.29.871-.859 0-.57-.292-.858-.871-.858h-9.578v-7.148h7.934c.772 0 1.267-.095 1.84-.614.577-.528.675-1.044.675-1.997v-5.362c0-.954-.098-1.468-.677-1.998-.57-.519-1.066-.613-1.838-.613h-8.804c-.544 0-.836.255-.868.76a1.687 1.687 0 0 1-.03-.324c0-.942.637-1.308 1.326-1.308h8.805c.063 0 .123 0 .183.002.664.067 1.241.277 1.844.823.657.602.871 1.23.939 1.904.003.107.004.217.004.33v5.362c0 .942-.08 1.648-.822 2.328-.662.6-1.272.732-2.148.732h-7.479v6.25h9.038c.771.116 1.29.625 1.41 1.383-.033.886-.653 1.232-1.324 1.232zm-19.095 0h-10.448c-.103 0-.204-.008-.303-.025h10.322c.578 0 .871-.29.871-.859v-6.59c0-.618-.245-.86-.87-.86-.628 0-.872.242-.872.86v5.732h-3.483v-17.732h-6.095c-.544 0-.836.256-.868.76a1.803 1.803 0 0 1-.028-.324c0-.942.636-1.308 1.326-1.308h6.55v17.731h2.572v-5.283c0-.744.332-1.286 1.27-1.307.782.113 1.268.59 1.382 1.362v6.536c0 .942-.636 1.307-1.326 1.307zm127.187-.958a2.198 2.198 0 0 1-.025-.349v-6.303c0-.864.027-.941.69-1.517l3.66-3.112c.874-.758.822-.732.822-1.882v-3.61h-7.798c0 .575-.477 1.308-1.326 1.308-.107 0-.208-.012-.303-.034.525-.07.745-.572.745-.85v-.448h8.707v4.241c.003 1.109-.06 1.242-.977 2.035l-3.663 3.115c-.532.461-.532.461-.532 1.178v6.228zm190.942 0a2.208 2.208 0 0 1-.026-.349v-6.303c0-.864.027-.941.69-1.517l3.66-3.112c.874-.758.821-.732.821-1.882v-3.61h-7.795c0 .575-.479 1.308-1.327 1.308-.107 0-.208-.012-.303-.034.524-.07.744-.572.744-.85v-.448h8.707v4.241c.004 1.109-.06 1.242-.976 2.035l-3.664 3.115c-.53.461-.53.461-.53 1.178v6.228zm-138.933-.02c-.02-.1-.03-.21-.03-.329 0-.942.637-1.308 1.326-1.308h3.899v-15.116h-3.899c-.101 0-.203-.008-.301-.024h4.224v16.013h-4.351c-.546 0-.837.257-.868.764zm-152.754-.004a1.786 1.786 0 0 1-.028-.325c0-.942.636-1.308 1.326-1.308h9.122v-4.342-.094c.017.16.026.332.026.52v4.789h-9.578c-.544 0-.835.256-.868.76zm190.94 0a1.794 1.794 0 0 1-.027-.325c0-.942.636-1.308 1.327-1.308h9.122v-4.342-.09c.016.159.025.33.025.515v4.79h-9.577c-.544 0-.836.256-.87.76zm-229.128 0a1.794 1.794 0 0 1-.028-.325c0-.942.636-1.308 1.326-1.308h3.898v-15.116h-3.898c-.103 0-.204-.008-.303-.024h4.227v16.013h-4.354c-.544 0-.836.256-.868.76zm345.434-.76h8.706v-7.148h-8.706v7.148zm.884-.873h7.797v-6.25h-7.797v6.25zm-39.072.873h8.706v-4.925h-8.706v4.925zm.884-.873h7.797v-4.027h-7.797v4.027zm-153.638.873h8.707v-7.148h-8.707v7.148zm.885-.873h7.796v-6.25h-7.796v6.25zm-39.073.873h8.707v-4.925h-8.707v4.925zm.884-.873h7.797v-4.027h-7.797v4.027zm120.926-6.25h-5.088c-.102 0-.204-.008-.302-.025h5.07c.098 0 .207.006.32.025zm-190.94 0h-5.09c-.102 0-.204-.008-.302-.025h5.071c.098 0 .207.006.32.025zm184.555-.983a1.69 1.69 0 0 1-.03-.325c0-.94.637-1.307 1.327-1.307h5.197c.743 0 1.327-.445 1.327-1.91v-4.34h-9.122c-.103 0-.204-.01-.303-.025h9.45v4.79c0 2.05-1.115 2.356-1.781 2.356h-5.199c-.543 0-.834.256-.866.76zm-190.942 0a1.794 1.794 0 0 1-.028-.325c0-.94.636-1.307 1.325-1.307h5.199c.742 0 1.325-.445 1.325-1.91v-4.34h-9.122c-.103 0-.204-.01-.302-.025h9.45v4.79c0 2.05-1.116 2.356-1.781 2.356h-5.197c-.544 0-.836.255-.87.76zm307.299-.761h3.403v-7.146h-3.403v7.146zm.884-.871h2.494v-6.25h-2.494v6.25zm-191.826.87h3.403v-7.145h-3.403v7.146zm.885-.87h2.493v-6.25h-2.493v6.25z"/>
        <path fill="#C8C8C3" d="M279.27 299.476v4.063c0 .907-.523 1.259-1.45 1.259-.875 0-1.39-.352-1.39-1.26v-4.062h-.66v4.046c0 1.336.746 1.848 2.05 1.848 1.356 0 2.102-.521 2.102-1.848v-4.046h-.652zm-6.538 3.015h-1.543v-2.443h1.536c.832 0 1.218.394 1.218 1.191 0 .73-.318 1.252-1.21 1.252zm1.889-1.252c0-1.226-.652-1.763-1.896-1.763h-2.197v5.81h.661v-2.225h1.68l1.074 2.225h.73l-1.142-2.359c.746-.235 1.09-.832 1.09-1.688zm-6.203.84h-3.02v-2.603h-.661v5.81h.66v-2.628h3.021v2.628h.651v-5.81h-.65v2.603zm-8.811-2.023h1.827v5.23h.652v-5.23h1.81v-.58h-4.289v.58zm16.742-8.28h1.415c1.198 0 1.473.993 1.473 2.254 0 1.26-.275 2.42-1.473 2.42h-1.415v-4.673zm3.545 2.254c0-1.647-.458-2.824-2.13-2.824h-2.056v5.817h2.056c1.698 0 2.13-1.329 2.13-2.993zm-6.234 2.993h.641v-5.817h-.641v5.817zm-.816-.58h-2.53v-5.237h-.641v5.817h3.17v-.58zm-6.576-4.682h.432l.874 3.185h-2.18l.874-3.185zm-1.015 3.765h2.464l.416 1.497h.633l-1.582-5.817h-1.4l-1.581 5.817h.634l.416-1.497zm-3.205.924h-.466l-1.324-5.244h-.666l1.507 5.817h1.431l1.508-5.817h-.666l-1.324 5.244zM163.956 292.485v-2.754h-1.01v2.754h-3.132l2.503-6.19h-1.101l-2.464 6.298v.803h4.194v1.723h1.01v-1.723h1.1v-.911h-1.1zm-8.1-2.032c.249-.16 1.284-.627 1.284-2.006 0-1.564-.72-2.3-2.766-2.3-1.31 0-2.542.375-2.542.375l.091.816s1.219-.268 2.412-.268c1.284 0 1.77.415 1.77 1.418 0 1.017-.918 1.604-1.574 1.604h-1.743v.883h1.743c.984.04 1.783.44 1.783 1.658 0 1.136-.59 1.697-1.874 1.711-1.233 0-2.647-.294-2.647-.294l-.093.842s1.482.36 2.844.36c1.954 0 2.805-.881 2.805-2.66 0-1.43-.616-1.818-1.494-2.139zm-7.904 1.376c1.219-1.202 1.809-1.978 1.809-3.3 0-1.658-.918-2.368-2.74-2.368-1.259 0-2.503.361-2.503.361l.078.857s1.285-.295 2.242-.295c1.245 0 1.887.375 1.887 1.55 0 1.044-.668 1.766-1.743 2.902l-2.53 2.714v.869h5.53v-.895h-4.337l2.307-2.395zm-10.341-3.662l.458.776 2.228-1.498v7.674h1.01v-8.823h-.943l-2.753 1.871z"/>
        <path fill="#AEB7C8" d="M141.806 178.91c-3.44 0-6.228 2.89-6.228 6.457v42.73c0 3.566 2.788 6.456 6.228 6.456h47.519c3.44 0 6.227-2.89 6.227-6.456v-42.73c0-3.567-2.787-6.456-6.227-6.456h-47.52z"/>
        <path fill="url(#O)" d="M42.66 33.713h18.908V22.63H42.661v11.083zm13.374-31.79H42.661v8.347h18.907V7.567c0-3.118-2.478-5.645-5.534-5.645zM42.661 44.27h18.907v-9.84H42.661v9.84zm-.703-42.348H21.863V44.27h20.095V21.913h19.61V10.988h-19.61V1.922zM2.61 33.713h18.548V22.63H2.611v11.083zm0-11.8h18.548V10.988H2.611v10.925zm0 27.983c0 3.118 2.477 5.645 5.533 5.645h47.89c3.056 0 5.534-2.527 5.534-5.645v-4.908H2.611v4.908zM21.159 1.922H8.144c-3.056 0-5.533 2.527-5.533 5.645v2.703h18.548V1.922zM2.611 44.27h18.548v-9.84H2.611v9.84z" transform="translate(135 178)"/>
    </g>
</svg>
