<svg xmlns="http://www.w3.org/2000/svg" xmlns:xlink="http://www.w3.org/1999/xlink" width="631" height="460" viewBox="0 0 631 460">
    <defs>
        <linearGradient id="b" x1="8.052%" x2="94.842%" y1="90.01%" y2="16.816%">
            <stop offset="0%" stop-color="#3E6CD5"/>
            <stop offset="100%" stop-color="#578AFF"/>
        </linearGradient>
        <path id="a" d="M404.324.209H20C9.076.209.22 9.015.22 19.879v213.576c0 10.865 8.856 19.672 19.78 19.672h384.324c10.924 0 19.78-8.807 19.78-19.672V19.879c0-10.864-8.856-19.67-19.78-19.67"/>
        <path id="d" d="M0 .606h119.027v116.343H0z"/>
        <path id="f" d="M2.464 2.856s3.09 5.295 2.398 8.34C4.352 13.445.62 14.902.62 14.902s1.014 17.209 6.455 16.591c10.883-1.235 15.863-19.59 15.863-19.59-2.583-1.414-6.64-11.297-6.64-11.297L2.464 2.856z"/>
        <path id="h" d="M21.469 17.297c9.02 8.91 13.629 15.028 14.974 18.345C38.427 40.534 35 48.92 31.03 56.26c-1.393 2.575-3.608 6.29-.721 7.163 2.178.659 7.519-.127 11.907-4.717 4.51-4.718 10.824-15.026 10.463-19.743-.36-4.718-3.066-3.67-5.412-6.29-2.345-2.62-5.337-7.775-6.855-11.531-1.623-4.02-6.315-14.851-6.315-14.851L0 0s12.448 8.386 21.469 17.297"/>
        <path id="j" d="M.62 6.034s8.352 4.584 10.96 8.833c4.672 7.609 1.348 16.092.81 18.366-.54 2.273-1.259 4.897.538 5.772s7.636.525 10.87-4.023c3.235-4.548 2.067-10.844 1.887-12.943-.18-2.1.54-10.145.18-12.07-.36-1.923-.987-3.802-2.875-4.372-1.398-.422-2.512-.29-3.521-.159-.871.114-1.666.228-2.498-.016C15.174 4.897 10.861 0 10.861 0L.62 6.034z"/>
        <path id="l" d="M3.57 1.763C-1.284 5.188-.016 15.179 6.4 24.078c6.417 8.899 15.553 13.336 20.406 9.91 4.853-3.424 3.586-13.415-2.831-22.314C19.029 4.814 12.467.605 7.497.606c-1.478 0-2.815.372-3.927 1.157"/>
        <path id="n" d="M3.57 1.763C-1.284 5.188-.016 15.179 6.4 24.078c6.417 8.899 15.553 13.336 20.406 9.91 4.853-3.424 3.586-13.415-2.831-22.314C19.029 4.814 12.467.605 7.497.606c-1.478 0-2.815.372-3.927 1.157"/>
        <path id="p" d="M3.57 1.763C-1.284 5.188-.016 15.179 6.4 24.078c6.417 8.899 15.553 13.336 20.406 9.91 4.853-3.424 3.586-13.415-2.831-22.314C19.029 4.814 12.467.605 7.497.606c-1.478 0-2.815.372-3.927 1.157"/>
        <path id="r" d="M3.57 1.763C-1.284 5.188-.016 15.179 6.4 24.078c6.417 8.899 15.553 13.336 20.406 9.91 4.853-3.424 3.586-13.415-2.831-22.314C19.029 4.814 12.467.605 7.497.606c-1.478 0-2.815.372-3.927 1.157"/>
        <path id="t" d="M3.57 1.763C-1.284 5.188-.016 15.179 6.4 24.078c6.417 8.899 15.553 13.336 20.406 9.91 4.853-3.424 3.586-13.415-2.831-22.314C19.029 4.814 12.467.605 7.497.606c-1.478 0-2.815.372-3.927 1.157"/>
        <path id="v" d="M3.57 1.763C-1.284 5.188-.016 15.179 6.4 24.078c6.417 8.899 15.553 13.336 20.406 9.91 4.853-3.424 3.586-13.415-2.831-22.314C19.029 4.814 12.467.605 7.497.606c-1.478 0-2.815.372-3.927 1.157"/>
        <path id="x" d="M3.57 1.763C-1.284 5.188-.016 15.179 6.4 24.078c6.417 8.899 15.553 13.336 20.406 9.91 4.853-3.424 3.586-13.415-2.831-22.314C19.029 4.814 12.467.605 7.497.606c-1.478 0-2.815.372-3.927 1.157"/>
        <path id="z" d="M3.57 1.763C-1.284 5.188-.016 15.179 6.4 24.078c6.417 8.899 15.553 13.336 20.406 9.91 4.853-3.424 3.586-13.415-2.831-22.314C19.029 4.814 12.467.605 7.497.606c-1.478 0-2.815.372-3.927 1.157"/>
        <path id="B" d="M3.57 1.763C-1.284 5.188-.016 15.179 6.4 24.078c6.417 8.899 15.553 13.336 20.406 9.91 4.853-3.424 3.586-13.415-2.831-22.314C19.029 4.814 12.467.605 7.497.606c-1.478 0-2.815.372-3.927 1.157"/>
        <path id="D" d="M.678.737L0 5.582s1.356 20.165 10.713 21.605c9.357 1.44 15.324-16.891 15.324-16.891L25.63.606.678.736z"/>
        <radialGradient id="E" cx="-140.104%" cy="-9.004%" r="212.154%" fx="-140.104%" fy="-9.004%" gradientTransform="scale(1 .97657) rotate(15.772 -1.393 -.091)">
            <stop offset="0%" stop-color="#FFE8E8"/>
            <stop offset="100%" stop-color="#FDACAC"/>
        </radialGradient>
        <path id="G" d="M1.904 11.231C-1.313 21.394-.79 33.503 6.08 35.947c6.871 2.444 17.181-6.443 20.705-15.864 3.524-9.422-1.868-16.175-8.739-18.619C16.46.9 14.907.606 13.42.606c-4.954 0-9.182 3.257-11.515 10.625"/>
        <radialGradient id="H" cx="-97.24%" cy="31.007%" r="167.851%" fx="-97.24%" fy="31.007%" gradientTransform="scale(1 .7803) rotate(15.26 -1.298 .354)">
            <stop offset="0%" stop-color="#FFE8E8"/>
            <stop offset="100%" stop-color="#FDACAC"/>
        </radialGradient>
        <linearGradient id="J" x1="82.996%" x2="50%" y1="10.568%" y2="100%">
            <stop offset="0%" stop-color="#DFE4E8"/>
            <stop offset="100%" stop-color="#D2D3D3"/>
        </linearGradient>
    </defs>
    <g fill="none" fill-rule="evenodd">
        <path fill="#FFF" d="M-1489-6736h3768V6244h-3768z"/>
        <path fill="#ECECEC" d="M508.316 100H122.684C110.156 100 100 110.121 100 122.608v214.783C100 349.877 110.156 360 122.684 360h385.632C520.844 360 531 349.877 531 337.39V122.609C531 110.121 520.844 100 508.316 100"/>
        <g transform="translate(102.83 102.826)">
            <mask id="c" fill="#fff">
                <use xlink:href="#a"/>
            </mask>
            <use fill="url(#b)" xlink:href="#a"/>
            <g mask="url(#c)">
                <path d="M24-97h458v458H24z"/>
                <path fill="#E9EEFB" d="M197.451 81.958c0 11.211-9.437 20.3-21.078 20.3-11.64 0-21.077-9.089-21.077-20.3s9.437-20.3 21.077-20.3c11.641 0 21.078 9.089 21.078 20.3"/>
                <path fill="#FFF" d="M198.413 81.688c-14.193 0-21.755-6.538-21.755-20.991v-3.28h-.56v3.28c0 14.453-7.682 20.99-21.756 20.99h-3.386v.541h3.398c14.06.005 21.746 7.249 21.746 20.99v3.281h.56v-3.28c0-13.742 7.558-20.981 21.733-20.99h3.398v-.541h-3.378z"/>
                <path fill="#FF7E59" d="M182.868 73.004l5.007 8.633a2.056 2.056 0 0 1-.783 2.827l-14.965 8.43a2.119 2.119 0 0 1-2.868-.77l-5.007-8.634a2.056 2.056 0 0 1 .782-2.827l14.965-8.43a2.12 2.12 0 0 1 2.869.77"/>
                <path fill="#E09595" d="M216.197 129.42s-2.238 1.598-1.03 2.747c1.229 1.167 4.007-.61 5.595-1.217 2.126-.81 6.446-2.161 6.446-2.161l-8.147-1.081-2.864 1.711zM230.927 130.737l-4.09 1.802-.87 4.74 1.306 1.942z"/>
                <path fill="#E86A46" d="M241.866 141.039c-.214 0-.43-.025-.648-.078l-15.455-3.742-.045.185c-.345 1.427-1.802 2.307-3.253 1.968-1.451-.34-2.348-1.772-2.003-3.199l.676-2.788a2.66 2.66 0 0 1 1.22-1.653 2.738 2.738 0 0 1 2.054-.311l18.098 4.382c1.449.35 2.334 1.79 1.977 3.214-.303 1.21-1.407 2.022-2.62 2.022"/>
                <path fill="#E09595" d="M245.186 134.103l-3.237 1.452c-.49.22-1.041.271-1.565.146l-6.056-1.445c-1.817-.416-3.347.374-4.135 1.107l-.261.243c-.84.781-1.15 1.685-.719 2.735 0 0-.045 1.101-1.111 1.443-.544.175-1.11-.21-1.12-.768a4.361 4.361 0 0 0-.146-.98c-.18-.7-.629-1.53-.629-1.53-.41-.799-.298-1.596.377-2.202l3.975-3.567 14.627 3.366z"/>
                <path fill="#E09595" d="M245.007 134.373s28.08-7.254 36.135-12.429l-10.395-11.81s-11.34 7.255-21.6 13.624c-5.097 3.164-15.12 8.138-15.12 8.138l10.98 2.477zM228.402 139.4l6.923 1.004c.555.091 1.485-.019 1.885-.595l.992-1.44c.381-.548.069-1.276-.619-1.44l-5.18-1.278a2.358 2.358 0 0 0-2.044.459l-1.377 1.146c-.31.257-.738.358-1.145.268l-.63-.137.035.92c.034.593.41.936 1.16 1.092"/>
                <path fill="#C5CBD8" d="M295.4 103.83s-4.197 6.599-6.207 10.007c-2.036 3.453-6.118 6.6-6.118 6.6l-8.752-10.489 14.647-16.78 6.43 10.662z"/>
                <path fill="#5581EE" d="M271.223 111.551s2.247 2.666 4.944 5.42c1.654 1.69 3.333 3.558 4.64 4.726.773.691 1.94.746 2.775.125.76-.565 1.375-1.436 2.292-2.229.546-.471 1.571-1.313 2.157-1.836.707-.63.736-1.704.067-2.373l-6.539-7.067-10.336 3.234z"/>
                <path fill="#E09595" d="M265.251 222.236l.091 5.4c0 1.573-1.523 2.567-3.113 2.269-2.203-.414-6.595-1.286-9.814-2.122-5.387-1.398-8.338-3.072-9.246-2.011-.823.961-.5 2.807.59 4.398 1.09 1.591 4.676 4.612 16.835 10.01 5.475 2.432 10.3 4.666 12.677 5.504 2.12.747 4.542-.869 4.77-3.05.407-3.867.932-12.089.387-17.834l-13.177-2.564z"/>
                <path fill="#2B2B51" d="M264.889 229.52c-.58.7-1.58 1.051-2.608.857-2.21-.417-6.613-1.297-9.84-2.139-5.401-1.41-8.36-3.098-9.271-2.028-.825.969-.502 2.83.592 4.435 1.093 1.604 4.688 4.65 16.879 10.094 5.49 2.451 10.328 4.704 12.71 5.549 2.126.754 4.554-.876 4.784-3.075.191-1.828.407-4.625.527-7.674-5.222-.692-10.307-2.145-13.773-6.018M309.38 136.19c-9.258 2.811-25.018 5.338-39.756 10.014-16.61 5.27-23.69 9.31-24.78 14.58-1.089 5.27 1.09 9.836 5.265 17.741 4.074 7.713 8.5 18.014 11.255 27.755 3.54 12.516 3.495 20.552 3.495 20.552s8.759 1.669 18.834.352c0 0-2.269-33.376-5.809-41.632-3.73-8.697-7.715-14.58-7.715-14.58l50.649-7.378s-8.714-24.593-11.437-27.403"/>
                <path stroke="#E9EEFB" stroke-linecap="round" stroke-width="2" d="M198.69 170.73s4.862-17.166 5.132-17.968c.27-.801.997-1.709 2.363-1.336 1.958.535 6.144 1.603 6.144 1.603"/>
                <path stroke="#E9EEFB" stroke-linecap="round" stroke-width="3" d="M196.211 170.73h10.539"/>
                <path stroke="#E9EEFB" stroke-width="3" d="M198.69 160.43h2.48"/>
                <path fill="#23478D" d="M263.72 245.589l-8.06-3.622c-1.553-.698-2.227-2.48-1.506-3.983l.288-.599 13.681 6.149-.287.599c-.721 1.502-2.564 2.153-4.116 1.456"/>
                <path fill="#E9EEFB" d="M418.767 274.483l-47.115-30.432 32.452 44.84zM317.718 237.723l53.934 6.934-17.006-51.506-27.282 17.855z"/>
                <path fill="#D8DDEA" d="M371.652 249.504c-2.739 0-4.96-2.17-4.96-4.847 0-2.678 2.221-4.848 4.96-4.848s4.96 2.17 4.96 4.848c0 2.677-2.221 4.847-4.96 4.847m.31-12.725c-4.622 0-8.37 3.663-8.37 8.181 0 4.518 3.748 8.18 8.37 8.18 4.622 0 8.37-3.662 8.37-8.18s-3.748-8.18-8.37-8.18"/>
                <path fill="#C5CBD8" d="M289.716 254.352c-.154 0-.312-.027-.466-.082l-29.548-10.699a1.308 1.308 0 0 1-.794-1.69c.257-.682 1.03-1.03 1.727-.778l29.548 10.698a1.309 1.309 0 0 1 .794 1.69c-.2.532-.714.861-1.26.861"/>
                <path fill="#E9EEFB" d="M128.66 213.753l45.854 31.089-49.247 24.053s-8.26-12.73-6.225-28.693c2.036-15.962 9.619-26.449 9.619-26.449M218.461 278.59l-43.947-33.915s47.615-2.653 55.515-3.048c2.406 22.147-11.568 36.963-11.568 36.963"/>
                <g transform="translate(115 185.88)">
                    <mask id="e" fill="#fff">
                        <use xlink:href="#d"/>
                    </mask>
                    <path fill="#2B2B3D" d="M56.136 59.927c-.821-1.655-.113-3.648 1.581-4.451 1.694-.802 3.733-.11 4.554 1.546.821 1.656.113 3.649-1.581 4.451-1.695.803-3.734.11-4.554-1.546M12.072 80.795C-.54 55.352 10.338 24.733 36.368 12.405c26.03-12.327 57.356-1.694 69.968 23.75 12.611 25.442 1.733 56.062-24.297 68.389-26.03 12.327-57.356 1.694-69.967-23.749M113.06 33.42C98.732 4.513 63.143-7.566 33.57 6.44 3.999 20.443-8.36 55.229 5.968 84.136c14.328 28.906 49.917 40.985 79.49 26.98 29.572-14.004 41.93-48.79 27.603-77.697" mask="url(#e)"/>
                </g>
                <path fill="#C5CBD8" d="M128.838 266.752c-12.387-24.841-1.703-54.735 23.866-66.771 25.567-12.035 56.337-1.654 68.724 23.187 12.388 24.84 1.704 54.735-23.865 66.77-25.568 12.036-56.337 1.655-68.725-23.186m94.264-44.376c-12.836-25.745-44.717-36.504-71.21-24.03-26.491 12.472-37.563 43.454-24.727 69.198 12.835 25.745 44.716 36.503 71.21 24.03 26.491-12.473 37.562-43.454 24.727-69.198"/>
                <path fill="#E86A46" d="M138.315 262.155c-1.43-2.946-4.05-9.878-2.244-10.752 1.806-.873 5.66 5.537 7.104 8.513 1.444 2.975 3.975 9.876 2.23 10.72-1.747.845-5.675-5.566-7.09-8.481"/>
                <path fill="#2474CD" d="M174.857 183.467v-.003c-1.536-.003-6.383-.177-13.982 1.196l.006.024c.531 2.162 2.646 3.613 4.908 3.318a61.358 61.358 0 0 1 9.457-.486v-.003c32.033.837 57.737 26.409 57.737 57.835 0 2.38-.147 4.726-.434 7.03-.064.516.187 1.398.795 1.859.608.46 1.959.724 3.022.72.5-3.13.76-6.34.76-9.61 0-33.782-27.767-61.24-62.269-61.88"/>
                <path fill="#2B2B3D" d="M371.962 247.687c-1.883 0-3.41-1.493-3.41-3.333s1.527-3.333 3.41-3.333c1.883 0 3.41 1.492 3.41 3.333 0 1.84-1.527 3.333-3.41 3.333m-.31 47.87c-29.102 0-52.694-22.925-52.694-51.203 0-28.279 23.592-51.203 52.694-51.203 29.102 0 52.694 22.924 52.694 51.203 0 28.278-23.592 51.203-52.694 51.203m.31-109.072c-33.04 0-59.823 26.045-59.823 58.172 0 32.127 26.784 58.171 59.823 58.171 33.04 0 59.823-26.044 59.823-58.171 0-32.127-26.784-58.172-59.823-58.172"/>
                <path fill="#C5CBD8" d="M372.272 294.951c-28.418 0-51.454-22.382-51.454-49.991 0-27.61 23.036-49.992 51.454-49.992s51.454 22.383 51.454 49.992c0 27.61-23.036 49.991-51.454 49.991m0-101.8c-29.445 0-53.314 23.195-53.314 51.809 0 28.613 23.87 51.809 53.314 51.809 29.445 0 53.314-23.196 53.314-51.81 0-28.613-23.87-51.808-53.314-51.808"/>
                <path fill="#E86A46" d="M371.928 284.044c-3.322 0-10.815-.682-10.815-2.727s7.56-2.727 10.917-2.727c3.356 0 10.78.75 10.78 2.727 0 1.977-7.594 2.727-10.882 2.727"/>
                <path stroke="#E9EEFB" stroke-linecap="round" stroke-width="3" d="M164.595 179.214l10.538 65.443"/>
                <path stroke="#E9EEFB" stroke-linecap="round" stroke-width="2" d="M234.647 241.021l-60.133 3.636"/>
                <path fill="#2474CD" d="M317.312 224.675c8.15-21.609 29.553-37.018 54.653-37.018 25.342 0 46.822 15.74 54.885 37.643.69 1.874 3.027 1.928 4.505 1.677a.5.5 0 0 0 .408-.638c-7.832-24.828-31.64-42.884-59.798-42.884-28.168 0-51.984 18.07-59.807 42.912a.445.445 0 0 0 .371.57c1.846.244 4.224-.779 4.783-2.262"/>
                <path fill="#23478D" d="M290.128 256.17c-.205 0-.414-.029-.62-.089-1.146-.334-1.798-1.511-1.456-2.63l28.526-93.33c.342-1.118 1.55-1.755 2.693-1.42 1.146.333 1.798 1.51 1.456 2.63L292.2 254.66c-.28.916-1.14 1.509-2.073 1.509"/>
                <path stroke="#E9EEFB" stroke-linecap="round" stroke-width="3" d="M371.652 244.657l20.458-63.02"/>
                <path stroke="#E9EEFB" stroke-linecap="round" stroke-width="2" d="M371.652 244.657l53.314-26.662"/>
                <path fill="#23478D" d="M288.887 254.352a2.197 2.197 0 0 1-1.552-.634l-80.584-80.002a2.072 2.072 0 0 1 .032-2.988 2.217 2.217 0 0 1 3.073.031l80.584 80.001c.84.834.826 2.172-.032 2.988a2.198 2.198 0 0 1-1.52.604M371.963 247.08a2.19 2.19 0 0 1-1.559-.644l-60.135-60.604a2.08 2.08 0 0 1 .05-2.993 2.208 2.208 0 0 1 3.068.049l60.134 60.604c.833.84.811 2.18-.05 2.993a2.19 2.19 0 0 1-1.508.596M300.67 221.025c-.119 0-.239-.01-.36-.03-.146-.024-14.618-2.377-18.515-3.033-7-1.177-14.597-4.958-19.357-9.634l-50.729-50.372a2.068 2.068 0 0 1 .033-2.985 2.216 2.216 0 0 1 3.07.032l50.72 50.364c5.054 4.964 12.32 7.649 17.003 8.436 3.886.654 18.346 3.006 18.491 3.03 1.183.191 1.981 1.28 1.783 2.429-.177 1.031-1.097 1.763-2.138 1.763"/>
                <path fill="#D8DDEA" d="M290.131 265.26c-6.676 0-12.089-5.155-12.089-11.514 0-6.358 5.413-11.513 12.09-11.513 6.675 0 12.088 5.155 12.088 11.513 0 6.359-5.413 11.513-12.089 11.513m0-25.45c-8.046 0-14.568 6.24-14.568 13.937 0 7.697 6.522 13.937 14.568 13.937s14.568-6.24 14.568-13.937c0-7.697-6.522-13.937-14.568-13.937"/>
                <path fill="#D8DDEA" d="M297.57 258.594c-2.225 0-4.03-1.764-4.03-3.939 0-2.176 1.805-3.939 4.03-3.939 2.226 0 4.03 1.763 4.03 3.939 0 2.175-1.804 3.939-4.03 3.939m-5.58 6.06c-2.225 0-4.029-1.764-4.029-3.94 0-2.175 1.804-3.938 4.03-3.938 2.225 0 4.03 1.763 4.03 3.938 0 2.176-1.805 3.94-4.03 3.94m-8.68-3.03c-2.224 0-4.029-1.763-4.029-3.94 0-2.175 1.805-3.938 4.03-3.938 2.225 0 4.03 1.763 4.03 3.939s-1.805 3.938-4.03 3.938m1.24-16.36c2.225 0 4.03 1.763 4.03 3.938 0 2.175-1.805 3.94-4.03 3.94-2.226 0-4.03-1.765-4.03-3.94s1.804-3.938 4.03-3.938m8.678-1.818c2.226 0 4.03 1.763 4.03 3.938 0 2.176-1.804 3.94-4.03 3.94-2.225 0-4.029-1.764-4.029-3.94 0-2.175 1.804-3.938 4.03-3.938m-3.1-1.212c-6.676 0-12.089 5.154-12.089 11.513s5.413 11.513 12.09 11.513c6.675 0 12.088-5.154 12.088-11.513s-5.413-11.513-12.089-11.513"/>
                <path stroke="#D8DDEA" stroke-linecap="round" stroke-width="3" d="M292.92 267.077l79.972-15.149"/>
                <path fill="#4FA372" d="M131.81 138.09c1.87.018 4.27-2.62 5.47-2.842 1.801-.334 4.171-.606 6.156.192 1.567.63 5.04 3.78 5.04 3.78s-3.36-4.717-4.936-5.095c-2.287-.55-5.66-.451-7.15.192-.728.314-1.864 1.438-2.901 2.297-.68.564-2.083 1.471-1.679 1.476"/>
                <path fill="#4F9E7C" d="M131.836 127.129c-.494.115.95.695 2.988.998 2.223.33 3.175.11 5.121.916 1.945.806 7.198 7.148 7.198 7.148l1.333-1.587s-4.732-5.318-6.115-6.006c-2.26-1.123-4.714-1.28-6.666-1.255-1.218.016-3.313-.341-3.86-.214"/>
                <path fill="#4FA372" d="M149.616 139.827s-5.809-5.652-8.08-6.015c-2.272-.364-5.708-.658-7.145.06-.755.377-4.177 3.283-4.49 2.861-.225-.301 1.348-1.272 1.979-2.074 1.799-2.29 2.458-2.23 5.09-2.59 1.9-.258 4.881-.08 6.356.35 1.924.562 6.39 4.482 6.39 4.482l-.1 2.926z"/>
                <path fill="#42426C" d="M193.692 147.098l-5.54-2.15 7.235-16.445c.384-.665 1-.959 1.654-.705l2.097.815c.654.254.942.936.717 1.624l-6.163 16.861z"/>
                <path fill="#2B2B51" d="M199.66 132.555l.813-2.248c.23-.707-.063-1.408-.729-1.67l-2.135-.836c-.666-.261-1.292.04-1.682.723l-.956 2.193 4.689 1.838z"/>
                <path fill="#E5A977" d="M166.11 133.193c3.95 8.815 8.78 18.77 3.805 20.909-5.225 2.245-9.862-10.118-13.945-18.875-2.92-6.262-3.445-12.297-.903-13.39 2.541-1.093 7.094 2.54 11.043 11.356"/>
                <path fill="#EFB881" d="M159.153 134.372c5.09 8.227 11.257 17.444 5.78 20.625-5.75 3.34-11.869-8.379-17.105-16.519-3.745-5.822-4.954-11.719-2.157-13.344 2.798-1.625 8.392 1.01 13.482 9.238"/>
                <path fill="#EFC6A0" d="M152.287 136.358c.63 1.155 3.36-.18 5.594-1.566.435-.27.811-.546 1.134-.821-.546-.947-1.1-1.82-1.654-2.628-.185.105-.378.218-.585.346-2.234 1.387-5.13 3.494-4.49 4.669"/>
                <path fill="#FFBE46" d="M180.093 143.765c0 5.522-4.58 9.999-10.229 9.999-5.65 0-10.229-4.477-10.229-9.999 0-5.521 4.58-9.998 10.229-9.998 5.65 0 10.229 4.477 10.229 9.998"/>
                <path fill="#E9EEFB" d="M185.262 179.82h-18.624c-5.474 0-10.18-3.78-11.227-9.014l-6.315-31.585h56.414l-9.02 31.585c-1.6 5.125-5.754 9.014-11.228 9.014"/>
                <path fill="#C5CBD8" d="M205.584 141.644h-56.561c-.642 0-1.167-.545-1.167-1.211 0-.667.525-1.212 1.167-1.212h56.56c.642 0 1.167.545 1.167 1.212 0 .666-.525 1.211-1.166 1.211"/>
                <path fill="#D8DDEA" d="M155.296 170.124l.106.606h41.324l.105-.606zM199.31 159.823h-46.494l.106.606h46.238zM150.956 150.128l.106.606h51.198l.15-.606z"/>
                <path fill="#AFAC74" d="M173.863 137.151c-.128.272-.636.333-1.133.137-.497-.195-.795-.574-.666-.846.13-.271.636-.332 1.133-.137.498.196.796.575.666.846"/>
                <path fill="#2474CD" d="M425.245 210.117h-5.326l-3.632-7.271h8.958c.53 0 .961.422.961.943v5.385c0 .52-.43.943-.96.943"/>
                <path fill="#E86A46" d="M424.761 202.846h-.415v7.271h.415c.456 0 .825-.422.825-.943v-5.385c0-.52-.37-.943-.825-.943"/>
                <path fill="#23478D" d="M174.815 246.475c-.53 0-1.062-.19-1.48-.572a2.07 2.07 0 0 1-.095-2.978l7.424-7.708a38.74 38.74 0 0 0 7.417-12.82l26.743-77.68c-.038-1.107-.926-2.745-2.236-4.089l-3.132-3.21a10.475 10.475 0 0 1-2.99-6.918c-.045-1.163.886-2.142 2.08-2.185 1.189-.047 2.196.864 2.24 2.027a6.32 6.32 0 0 0 1.803 4.172l3.131 3.21c.868.89 3.676 4.06 3.411 7.522a2.046 2.046 0 0 1-.106.515l-26.846 77.98a42.913 42.913 0 0 1-8.326 14.323l-7.462 7.746c-.425.441-1 .665-1.576.665"/>
                <path fill="#FF7E59" d="M208.365 133.767c-1.756 0-3.212-1.352-3.278-3.074l-.193-5.013c-.06-1.568.613-3.046 1.847-4.057a5.27 5.27 0 0 1 4.423-1.075l25.223 5.225c1.773.367 2.904 2.064 2.527 3.79-.378 1.724-2.122 2.822-3.894 2.458l-23.501-4.869.127 3.302c.068 1.762-1.345 3.245-3.156 3.31a3.296 3.296 0 0 1-.125.003"/>
                <path fill="#FF9E78" d="M238.91 129.497c-.358 1.642-1.862 2.715-3.36 2.396-1.498-.319-2.424-1.909-2.066-3.551.357-1.642 1.861-2.715 3.36-2.396 1.498.319 2.423 1.908 2.066 3.551"/>
                <path fill="#2474CD" d="M216.268 153.697l-4.255-1.3c-.716-.22-1.095-.91-.848-1.543l.44-1.122c.248-.633 1.03-.968 1.745-.75l4.255 1.302c.717.218 1.096.909.848 1.541l-.44 1.123c-.248.633-1.029.967-1.745.749"/>
                <path fill="#23478D" d="M216.977 147.098a2.167 2.167 0 0 1-1.483-.583 2.147 2.147 0 0 1-.099-3.047l4.21-4.465c.952-1.01 1.256-1.38 1.444-2.266.246-1.164 1.351-1.94 2.53-1.721a2.157 2.157 0 0 1 1.731 2.516c-.409 2.17-1.023 2.81-2.542 4.42l-4.21 4.465a2.167 2.167 0 0 1-1.581.681"/>
                <path fill="#2474CD" d="M355.447 243.026l-59.736 7.548c-.845.106-1.72-.135-2.309-.723a4.638 4.638 0 0 0-3.29-1.344c-1.746 0-3.259.94-4.018 2.316-.374.675-1.103 1.105-1.897 1.205l-3.982.504c-.19.024-.348-.14-.306-.317.388-1.632 2.485-8.195 11.175-8.287 8.841-.094 54.78-.917 64.35-1.09.124-.002.137.173.013.188m25.504.886c-.47-4.349-4.261-7.739-8.87-7.739-.027 0-.053.005-.079.005l-.005-.005h-82.569c-10.397 0-18.825 8.173-18.825 18.254 0 .91.138 2.093.244 2.864.06.44.478.748.932.69l109.157-14.068-.001-.001h.016"/>
                <path fill="#E9EEFB" d="M319.473 264.653c-.155 0-.312-.027-.466-.082l-29.548-10.698a1.309 1.309 0 0 1-.794-1.691 1.354 1.354 0 0 1 1.727-.778l29.547 10.698a1.309 1.309 0 0 1 .795 1.691c-.2.531-.715.86-1.26.86"/>
                <path fill="#2474CD" d="M324.939 263.28l-7.544 4.553c-1.453.877-3.366.45-4.274-.952l-.363-.56 12.805-7.727.362.56c.908 1.402.466 3.25-.986 4.126"/>
                <path fill="#423748" d="M375.004 85.819c-.844-2.685-3.038-4.764-5.552-5.527-1.735-.526-3.803-.601-4.905-2.15-.703-.987-.805-2.266-1.616-3.324-1.125-1.469-2.163-2.117-4.146-2.735-3.234-1.007-4.777-3.616-4.868-7.586 0 0-9.734-8.292-15.863-8.292-5.679 0-18.252 6.837-17.847 7.895.287 1.513 5.859 30.742 5.859 30.742s39.637.22 43.693.75c.018-.086.025-.165.04-.25a5.888 5.888 0 0 0 3.507-1.688c1.914-1.93 2.542-5.15 1.698-7.835"/>
                <g transform="translate(328.257 81.049)">
                    <mask id="g" fill="#fff">
                        <use xlink:href="#f"/>
                    </mask>
                    <path fill="#E09595" d="M2.464 2.856s3.09 5.295 2.398 8.34C4.352 13.445.62 14.902.62 14.902s1.014 17.209 6.455 16.591c10.883-1.235 15.863-19.59 15.863-19.59-2.583-1.414-6.64-11.297-6.64-11.297L2.464 2.856z" mask="url(#g)"/>
                </g>
                <g transform="translate(338.176 194.968)">
                    <mask id="i" fill="#fff">
                        <use xlink:href="#h"/>
                    </mask>
                    <path fill="#FFAEAE" d="M21.469 17.297c9.02 8.91 13.629 15.028 14.974 18.345C38.427 40.534 35 48.92 31.03 56.26c-1.393 2.575-3.608 6.29-.721 7.163 2.178.659 7.519-.127 11.907-4.717 4.51-4.718 10.824-15.026 10.463-19.743-.36-4.718-3.066-3.67-5.412-6.29-2.345-2.62-5.337-7.775-6.855-11.531-1.623-4.02-6.315-14.851-6.315-14.851L0 0s12.448 8.386 21.469 17.297" mask="url(#i)"/>
                </g>
                <path fill="#FFCFDF" d="M390.855 234.482c-.36-4.654-3.03-3.71-5.387-6.186-.212 2.278-.295 7.237-3.137 13.015-1.847 3.757-5.865 7.617-8.981 7.529-1.073-.03-1.824-.696-2.02-1.865a86.967 86.967 0 0 1-2.471 4.842c-1.416 2.581-3.666 6.303-.733 7.18 2.212.66 7.639-.129 12.098-4.729 4.582-4.727 10.998-15.058 10.63-19.786"/>
                <g transform="translate(371.032 198.604)">
                    <mask id="k" fill="#fff">
                        <use xlink:href="#j"/>
                    </mask>
                    <path fill="#FFAEAE" d="M.62 6.034s8.352 4.584 10.96 8.833c4.672 7.609 1.348 16.092.81 18.366-.54 2.273-1.259 4.897.538 5.772s7.636.525 10.87-4.023c3.235-4.548 2.067-10.844 1.887-12.943-.18-2.1.54-10.145.18-12.07-.36-1.923-.987-3.802-2.875-4.372-1.398-.422-2.512-.29-3.521-.159-.871.114-1.666.228-2.498-.016C15.174 4.897 10.861 0 10.861 0L.62 6.034z" mask="url(#k)"/>
                </g>
                <g>
                    <path fill="#FFCFDF" d="M396.717 220.408c-.18-2.127.54-10.282.18-12.232-.36-1.95-.988-3.854-2.876-4.432-2.502-.766-4.093.261-5.806-.126-.487.25-1.86.68-2.1 4.026-.241 3.345 1.078 9.927-1.46 19.091-.417 2.326-1.03 4.136-1.236 5.019-.54 2.304-1.259 4.963.539 5.85 1.797.886 7.637.532 10.872-4.078 3.235-4.609 2.067-10.99 1.887-13.118"/>
                    <path fill="#638FFA" d="M332.052 93.15c-.575.992-1.13 2.405-1.32 3.607-.355 2.25-.18 6.875.643 9.709.7 2.404 2.457 3.937 3.428 4.412.722.354 2.12-.882 6.766-6.178 5.479-6.244 6.528-10.535 8.57-15.004.542-.53 18.34-.473 17.322 11.474-1.083 12.71-.043 22.768 1.984 26.963 4.33 8.958 12.36 11.076 18.404 20.873 4.114 6.668 5.593 10.944 5.413 15.18-.174 4.073-1.804 7.15-1.804 7.15s2.977-1.765 9.201.088c6.225 1.854 10.104 4.766 11.909 5.649-3.79 3-3.248 5.119-8.66 6.884-5.2 1.695-7.128.353-12.18 5.472-2.192 2.221-2.597 6.681-3.789 8.605-1.762 2.846-6.233 6.814-11.637 7.811-5.164.953-12.27.97-18.765-.882-6.495-1.854-9.923-5.737-15.336-6.531-5.413-.795-18.945-1.59-22.734-4.237 0 0-1.894-12.18 1.624-17.74 4.871-7.698 22.463-19.858 25.981-24.272 1.648-2.066 2.887-4.765-4.15-9.708-3.781-2.657-14.524-13.68-14.524-13.68l-7.848-32.391s2.978.08 5.954-.706c1.908-.504 4.5-1.622 5.548-2.549"/>
                    <path fill="#5581EE" d="M349.208 110.74c-.592-1.09-1.113-2.82-1.113-4.194 0-.557.296-.695.45-.385.213.428.42.726.69.975.217.2.403.2.47-.205.19-1.134.545-2.29 1.042-3.381.346-.76 1.307-2.367 2.202-2.504.556 2.92-1.21 5.59-2.625 8.265l-1.116 1.43zM351.21 125.918c2.954-1.819 10.54-8.15 13.551-9.882.427-.245 1.478-.565 1.562.601.11 1.515.588 6.754-.777 9.933a29.94 29.94 0 0 1-1.126 2.512c-2.186 4.43-3.972 7.202-5.13 8.759-.133.178.064.249.34.039 2.175-1.66 5.01-5.298 6.348-7.387.478-.745 1.319-.657 1.57.767.257 1.472.652 3.156 1 4.21.239.723.82.596.887 0 .1-.882.137-1.864.205-2.829.04-.58.386-.783.955-.438.614.373 1.654.916 2.297 1.14-1.58-1.984-3.32-4.285-4.14-6.916-1.883-6.052-1.773-14.518-1.787-17.491-.118-.131-12.131.667-15.451 5.007-3.321 4.34-.305 11.975-.305 11.975M341.895 141.644c.913.307 4.209 3.016 6.937 5.345a10.568 10.568 0 0 0 9.145 2.284l6.725-1.486c.188-.041.167-.32-.025-.326-2.26-.075-6.949-.304-10.72-.971-5.17-.914-12.062-4.846-12.062-4.846M357.102 154.66s9.432-4.503 12.187-6.393c2.43-1.669 4.84-3.44 6.34-5.274.22-.268.418-.115.348.223-.422 2.024-2.594 7.599-14.09 14.331-15.166 8.88-25.908 18.783-26.811 19.849 0 0 .02-3.778 5.958-9.858 6.635-6.794 16.068-12.877 16.068-12.877"/>
                    <path fill="#C5CBD8" d="M335.636 120.11c-1.167-2.828-1.527-3.857-.224-8.923.445-1.735 1.944-4.77 2.916-6.228.124-.186-.158-.38-.31-.216-1.084 1.166-2.853 3.944-3.549 5.737-2.246 5.782-.85 10.054-.538 10.778.807 2.12 2.244 5.3 9.204 3.489-1.497-.514-6.36-1.878-7.499-4.638" opacity=".5" style="mix-blend-mode:multiply"/>
                    <path fill="#5581EE" d="M355.534 186.053s20.2-4.704 34.096-14.717c0 0-4.27 8.132-16.472 13.508-12.746 5.616-17.624 1.21-17.624 1.21M360.493 188.909c.405.131 8.496 3.22 13.35 16.36 0 0 4.181-.853 7.194-4.053.701-.744.74-1.868-.05-2.523l-3.457-3.827c-.504-.47-1.259-.481-1.16.453 0 0 .306 1.781.126 3.227-.141 1.131-.527 2.34-1.079 1.358-2.068-3.68-4.357-5.246-6.293-6.79-4.45-3.548-8.63-4.205-8.63-4.205"/>
                    <path fill="#EFC6A0" d="M322.093 174.879c-1.213.435-3.97-.664-5.308-3.083-1.98-3.577-1.94-5.688-.555-6.52 1.083.456 6.447 4.544 6.447 4.544s-.56 4.072-.584 5.059M344.374 131.343l-14.257 32.482 2.135 3.27s8.307-2.53 16.73-3.172c9.625-.734 15.85.05 15.85.05l-20.458-32.63z"/>
                    <path fill="#EFC6A0" d="M321.678 175.578s1.892-1.716 4.687-4.144c2.615-2.27 5.611-4.033 5.611-4.033l-2.141-3.336-13.977 1.492 5.82 10.02z"/>
                    <path fill="#4FA372" d="M330.773 167.654s-.927.418-1.965-1.24c-1.038-1.656-.292-2.434-.292-2.434l1.75-1.127s-.64.967.324 2.504c.964 1.539 2.006 1.481 2.006 1.481l-1.823.816zM371.652 162.137s-3.061 1.398-5.8.287c-2.74-1.11-4.119-4.309-4.119-4.309s3.062-1.397 5.8-.287c2.74 1.11 4.119 4.31 4.119 4.31"/>
                    <path fill="#5BAF93" d="M367.924 164.67s-2.984-.244-4.69-2.084c-1.708-1.841-1.492-4.58-1.492-4.58s2.983.243 4.691 2.084c1.706 1.84 1.49 4.58 1.49 4.58"/>
                    <path fill="#5BB57F" d="M356.308 129.525s1.682 3.272 1.705 5.548c.024 2.275-2.437 4.148-2.437 4.148s-2.498-1.818-2.522-4.093c-.023-2.276 3.254-5.603 3.254-5.603"/>
                    <path fill="#FF91BA" d="M368.992 162.32c-4.907 3.373-14.144-.997-20.632-9.763-6.488-8.765-7.77-18.605-2.862-21.979 4.906-3.374 13.19 1.695 19.679 10.46 6.488 8.765 8.722 17.908 3.815 21.281"/>
                    <path fill="#FFCFDF" d="M362.44 144.004c-2.703 2.054-6.599 1.578-8.7-1.064-2.102-2.641-1.615-6.448 1.088-8.502 2.703-2.055 6.597-1.579 8.699 1.063 2.102 2.642 1.614 6.448-1.088 8.503"/>
                    <path fill="#FFDEEB" d="M360.288 132.555c-1.34-.012-3.825 1.687-3.482 4.718.343 3.03 3.164 3.588 5.006 2.891 1.843-.697-.877-3.716-.66-4.616.178-.74 1.317-.246 2.755.369.239.102.359-.138.283-.387-.503-1.675-2.562-2.962-3.902-2.975"/>
                    <path fill="#FFC7D6" d="M362.587 135.883c.803-1.2 2.024 1.582 1.498 2.028-.525.447-2.379-.713-1.498-2.028"/>
                    <path fill="#FFDEEB" d="M360.289 140.592c1.622-.293 3.793-1.128 4.462-2.958.104-.282.513-.312.675-.057.52.82 1.122 2.263.055 3.555-1.249 1.51-3.452 1.339-5.325.386a.488.488 0 0 1 .133-.926"/>
                    <path fill="#FFC7D6" d="M356.588 137.691c-1.056-2.221-.133-4.055.977-4.537.521-.226 1.062-.143 1.509.025.28-.148.693-.263 1.073-.311-.08-.075-.28-.24-.396-.324-1.182-.856-2.644-.619-3.628-.328-1.236.365-3.352 1.802-3.655 4.783-.18 1.768.296 4.536 2.943 5.921 3.535 1.85 5.987-1.59 5.675-2.088-.312-.497-3.553-1.154-4.498-3.14"/>
                    <path fill="#FFC7D6" d="M365.45 140.433s.194 3.31-2.323 4.592c-2.63 1.341-4.496.83-5.42.367a.544.544 0 0 1-.115-.912c.702-.59 1.965-1.522 3.076-1.668 1.644-.217 3.455-.466 4.781-2.38"/>
                    <path fill="#FFDCE9" d="M369.138 153.635c-2.838 2.157-6.927 1.657-9.133-1.116-2.207-2.774-1.696-6.771 1.142-8.929 2.838-2.156 6.927-1.656 9.134 1.117 2.206 2.774 1.696 6.772-1.143 8.928"/>
                    <path fill="#FFDEEB" d="M366.78 142.25c-1.452-.012-4.144 1.687-3.772 4.718.371 3.03 3.427 3.588 5.423 2.891 1.996-.697-.949-3.715-.715-4.615.192-.741 1.427-.246 2.985.368.258.103.388-.138.307-.387-.546-1.674-2.776-2.962-4.228-2.974"/>
                    <path fill="#FFCFDF" d="M368.786 145.578c.804-1.2 2.025 1.582 1.499 2.029-.526.446-2.38-.714-1.499-2.029"/>
                    <path fill="#FFDEEB" d="M366.488 149.682c1.622-.293 3.793-1.128 4.463-2.958.103-.283.512-.313.675-.057.52.819 1.122 2.262.054 3.554-1.248 1.51-3.452 1.34-5.325.386a.488.488 0 0 1 .133-.925"/>
                    <path fill="#FFC7D6" d="M367.286 150.388c-.312-.523-3.554-1.214-4.5-3.306-1.055-2.338-.132-4.268.978-4.776.524-.24 1.067-.15 1.514.028.4-.148.887-.337 1.27-.348-.078-.077-.484-.236-.597-.322-1.183-.9-2.645-.65-3.63-.345-1.235.385-3.351 1.897-3.654 5.035-.18 1.861.296 4.775 2.943 6.233 3.536 1.948 5.988-1.675 5.676-2.199"/>
                    <path fill="#FFCFDF" d="M371.649 150.128s.194 3.31-2.322 4.592c-2.631 1.341-4.497.83-5.421.367a.544.544 0 0 1-.115-.912c.702-.59 1.965-1.522 3.076-1.668 1.645-.217 3.455-.466 4.782-2.38"/>
                    <path fill="#FFADD2" d="M361.819 148.245c-2.703 2.055-6.597 1.578-8.699-1.063-2.101-2.642-1.615-6.448 1.088-8.503 2.703-2.054 6.598-1.578 8.699 1.064 2.102 2.641 1.614 6.448-1.088 8.502"/>
                    <path fill="#F9C2D9" d="M359.668 137.403c-1.34-.013-3.825 1.686-3.482 4.717.343 3.03 3.163 3.589 5.006 2.892 1.843-.698-.876-3.716-.66-4.616.177-.74 1.317-.246 2.755.369.24.102.359-.138.284-.387-.504-1.675-2.563-2.962-3.903-2.975"/>
                    <path fill="#FFCFDF" d="M361.967 140.73c.804-1.2 2.024 1.582 1.499 2.029-.526.447-2.38-.714-1.5-2.029"/>
                    <path fill="#FFCFDF" d="M359.67 144.834c1.62-.293 3.792-1.128 4.461-2.958.103-.283.513-.312.675-.057.52.819 1.122 2.262.055 3.554-1.249 1.511-3.452 1.34-5.325.386a.488.488 0 0 1 .133-.925"/>
                    <path fill="#FFC7D6" d="M359.457 138.606s-1.309-1.127-2.512-.604c-1.11.482-2.034 2.315-.977 4.537.945 1.986 4.187 2.643 4.498 3.14.313.498-2.14 3.94-5.675 2.09-2.647-1.387-3.123-4.155-2.943-5.923.303-2.98 2.419-4.417 3.655-4.783.984-.29 2.446-.528 3.629.328 1.183.856.325 1.215.325 1.215"/>
                    <path fill="#F9C2D9" d="M364.83 145.28s.194 3.31-2.322 4.592c-2.631 1.342-4.497.83-5.421.367a.544.544 0 0 1-.115-.912c.703-.59 1.965-1.522 3.076-1.668 1.644-.217 3.454-.466 4.781-2.379"/>
                    <path fill="#4FA372" d="M349.334 142.326s-2.879 1.201-4.762-.012c-1.883-1.214-2.057-4.381-2.057-4.381s2.879-1.201 4.762.012c1.883 1.213 2.057 4.381 2.057 4.381"/>
                    <path fill="#5BB57F" d="M347.211 148.916s-2.355-2.442-2.21-5.287c.146-2.845 2.737-5.014 2.737-5.014s2.355 2.442 2.21 5.286c-.145 2.845-2.737 5.015-2.737 5.015"/>
                    <path fill="#FFADD2" d="M354.002 141.345c-3.03 2.334-7.3 1.919-9.535-.928-2.236-2.847-1.591-7.046 1.44-9.38 3.03-2.334 7.299-1.919 9.535.928 2.235 2.846 1.591 7.046-1.44 9.38"/>
                    <path fill="#F9C2D9" d="M351.684 129.526c-1.558.023-4.496 1.921-4.187 5.176.309 3.254 3.571 3.776 5.734 2.974 2.162-.802-.91-3.976-.631-4.952.228-.801 1.538-.301 3.19.32.275.105.422-.157.342-.423-.536-1.79-2.89-3.118-4.448-3.095"/>
                    <path fill="#F9C2D9" d="M353.933 132.865c.85-1.225 2.005 1.547 1.46 2.009-.547.461-2.393-.665-1.46-2.009M351.663 137.645c1.78-.33 4.176-1.208 4.96-3.034.121-.282.57-.322.74-.073.544.797 1.16 2.208-.043 3.512-1.407 1.525-3.81 1.41-5.83.514-.468-.209-.358-.82.173-.919"/>
                    <path fill="#FFCFDF" d="M352.408 138.618c-.324-.544-3.812-1.186-4.776-3.37-1.079-2.443-.026-4.507 1.189-5.074.529-.246 1.066-.196 1.522-.05.323-.228.75-.323 1.189-.378-1.272-1.032-3.137-.937-4.244-.576-1.348.44-3.68 2.096-4.094 5.42-.246 1.971.189 5.037 3.013 6.506 3.771 1.963 6.525-1.933 6.201-2.478"/>
                    <path fill="#FFCFDF" d="M356.773 138.009s.113 3.58-2.593 5.037c-2.832 1.524-4.798 1.02-5.767.544-.38-.187-.43-.697-.096-.985.762-.658 2.129-1.702 3.312-1.89 1.753-.28 3.682-.598 5.144-2.706"/>
                </g>
                <g>
                    <g transform="translate(342.515 128.92)">
                        <mask id="m" fill="#fff">
                            <use xlink:href="#l"/>
                        </mask>
                        <path fill="#4FA372" d="M17.391 26.662s2.286 1.607 2.439 3.782c.152 2.175-1.885 4.095-1.885 4.095s-2.286-1.607-2.438-3.782c-.154-2.175 1.884-4.095 1.884-4.095" mask="url(#m)"/>
                    </g>
                    <g transform="translate(342.515 128.92)">
                        <mask id="o" fill="#fff">
                            <use xlink:href="#n"/>
                        </mask>
                        <path fill="#4FA372" d="M14.575 23.026s1.846 2.124 1.5 4.299c-.346 2.176-2.753 3.579-2.753 3.579s-1.846-2.123-1.5-4.299c.346-2.175 2.753-3.579 2.753-3.579" mask="url(#o)"/>
                    </g>
                    <g transform="translate(342.515 128.92)">
                        <mask id="q" fill="#fff">
                            <use xlink:href="#p"/>
                        </mask>
                        <path fill="#5BB57F" d="M17.358 26.485s-2.768 2.557-6.355 1.881c-2.322-.438-4.804-3.504-4.804-3.504s3.371-2.152 5.709-1.796c3.208.488 5.45 3.42 5.45 3.42" mask="url(#q)"/>
                    </g>
                    <g transform="translate(342.515 128.92)">
                        <mask id="s" fill="#fff">
                            <use xlink:href="#r"/>
                        </mask>
                        <path fill="#FFCFDF" d="M25.503 32.593c-2.702 2.157-6.597 1.657-8.699-1.117-2.102-2.773-1.614-6.77 1.088-8.927 2.703-2.157 6.597-1.658 8.7 1.117 2.101 2.773 1.613 6.77-1.089 8.927" mask="url(#s)"/>
                    </g>
                    <g transform="translate(342.515 128.92)">
                        <mask id="u" fill="#fff">
                            <use xlink:href="#t"/>
                        </mask>
                        <path fill="#FFDEEB" d="M23.645 21.208c-1.453-.012-4.144 1.687-3.772 4.717.37 3.032 3.427 3.59 5.423 2.892 1.996-.697-.95-3.715-.715-4.616.192-.74 1.427-.246 2.984.37.26.102.389-.139.308-.388-.546-1.675-2.776-2.962-4.228-2.975" mask="url(#u)"/>
                    </g>
                    <g transform="translate(342.515 128.92)">
                        <mask id="w" fill="#fff">
                            <use xlink:href="#v"/>
                        </mask>
                        <path fill="#FFC7D6" d="M25.651 24.536c.804-1.2 2.024 1.582 1.499 2.029-.526.446-2.38-.714-1.499-2.029" mask="url(#w)"/>
                    </g>
                    <g transform="translate(342.515 128.92)">
                        <mask id="y" fill="#fff">
                            <use xlink:href="#x"/>
                        </mask>
                        <path fill="#F9C2D9" d="M23.353 28.64c1.622-.293 3.793-1.128 4.462-2.958.103-.283.513-.313.675-.057.52.819 1.122 2.261.055 3.553-1.249 1.512-3.452 1.34-5.325.387a.488.488 0 0 1 .133-.925" mask="url(#y)"/>
                    </g>
                    <g transform="translate(342.515 128.92)">
                        <mask id="A" fill="#fff">
                            <use xlink:href="#z"/>
                        </mask>
                        <path fill="#F9C2D9" d="M24.15 29.347c-.312-.524-3.553-1.216-4.498-3.306-1.056-2.34-.133-4.27.978-4.776.494-.227 1.005-.158 1.437 0 .34-.076.724-.205 1.124-.302a2.58 2.58 0 0 0-.375-.34c-1.184-.902-2.645-.651-3.629-.346-1.236.385-3.352 1.897-3.655 5.035-.18 1.86.296 4.774 2.944 6.233 3.535 1.948 5.987-1.675 5.675-2.198" mask="url(#A)"/>
                    </g>
                    <g transform="translate(342.515 128.92)">
                        <mask id="C" fill="#fff">
                            <use xlink:href="#B"/>
                        </mask>
                        <path fill="#FFCFDF" d="M28.513 29.086s.194 3.31-2.32 4.592c-2.632 1.341-4.498.83-5.422.367a.544.544 0 0 1-.115-.912c.702-.59 1.965-1.522 3.076-1.669 1.645-.216 3.455-.464 4.781-2.378" mask="url(#C)"/>
                    </g>
                </g>
                <g>
                    <path fill="#FFADD2" d="M357.12 154.114c-3.108 2.362-7.587 1.815-10.003-1.224-2.418-3.038-1.857-7.415 1.25-9.778 3.109-2.362 7.588-1.815 10.004 1.223 2.418 3.038 1.857 7.416-1.25 9.779"/>
                    <path fill="#FFDEEB" d="M354.674 141.645c-1.563-.015-4.462 1.945-4.062 5.442.4 3.498 3.69 4.141 5.84 3.337 2.15-.805-1.022-4.287-.77-5.326.208-.855 1.537-.284 3.214.426.279.118.419-.16.331-.447-.587-1.932-2.989-3.418-4.553-3.432"/>
                    <path fill="#FFCFDF" d="M354.751 150.08c1.783-.33 4.172-1.269 4.909-3.327.113-.319.563-.352.742-.064.572.92 1.234 2.544.06 3.998-1.373 1.7-3.797 1.507-5.857.435-.479-.25-.385-.943.146-1.041"/>
                    <path fill="#FFCFDF" d="M355.503 150.718c-.357-.576-4.062-1.337-5.141-3.637-1.207-2.572-.152-4.695 1.117-5.254.567-.25 1.154-.172 1.65.003.336-.227.678-.432 1.031-.565a3.755 3.755 0 0 0-.183-.144c-1.351-.991-3.021-.716-4.146-.38-1.413.423-3.832 2.087-4.178 5.538-.205 2.048.339 5.253 3.364 6.857 4.04 2.143 6.843-1.843 6.486-2.418"/>
                    <path fill="#FFDEEB" d="M359.87 150.128s.209 3.678-2.5 5.103c-2.834 1.49-4.843.922-5.839.407a.614.614 0 0 1-.123-1.013c.756-.655 2.115-1.691 3.312-1.854 1.771-.241 3.72-.517 5.15-2.643"/>
                    <path fill="#23478D" d="M310.279 170.73s23.905-5.414 25.006-5.68c1.102-.266 3.599-1.42 2.699-4.792-.9-3.373-1.799-7.1-1.799-7.1l-25.187 7.1-.72 10.472z"/>
                    <path fill="#FFAEAE" d="M310.418 244.71s2.038 3.405 1.51 5.151c-.746 2.467-3.203 6.324-6.637 10.058-6.367 6.924-9.609 8.325-9.864 9.895-.255 1.57 1.354 2.613 3.768 1.862 2.777-.863 8.069-2.54 13.41-5.682 5.004-2.943 15.05-9.152 16.526-10.603 1.475-1.45 2.492-3.477.482-5.81-1.41-1.635-5.032-6.397-7.323-9.772l-11.872 4.901z"/>
                    <path fill="#42426C" d="M329.613 249.74c-.647-.766-1.762-2.207-2.999-3.871-4.65 3.23-9.61 6.644-14.88 4.733-.92 2.517-3.26 6.152-6.443 9.683-6.367 7.062-9.609 8.491-9.864 10.093-.255 1.601 1.354 2.665 3.768 1.899 2.777-.88 8.069-2.592 13.41-5.796 5.004-3.002 15.05-9.335 16.526-10.816 1.475-1.48 2.492-3.546.482-5.925M309.324 135.062c-5.625 8.628-27.22 21.836-41.012 42.264-7.839 11.609 3.629 20.427 8.347 25.71 4.616 5.167 20.87 25.181 31.032 45.256 6.896-2.465 17.24-7.748 17.24-7.748s-15.467-36.36-20.234-41.91c-5.444-6.34-10.98-10.038-10.98-10.038s2.97-3.298 8.167-6.34c11.433-6.692 26.665-16.542 31.032-20.78 7.44-7.22 14.336-14.44 7.259-31.345l-30.85 4.93z"/>
                </g>
                <g transform="translate(323.917 60.447)">
                    <mask id="F" fill="#fff">
                        <use xlink:href="#D"/>
                    </mask>
                    <path fill="url(#E)" d="M.678.737L0 5.582s1.356 20.165 10.713 21.605c9.357 1.44 15.324-16.891 15.324-16.891L25.63.606.678.736z" mask="url(#F)"/>
                </g>
                <g>
                    <path fill="#423748" d="M354.33 60.751c-1.545-4.376-4.545-6.477-9.045-7.265-3.517-.616-4.754-2.718-8.454-1.97-5.408 1.094-5.983 3.86-9.044 4.859-1.478.48-3.4.878-5.273 3.02-2.181 2.494-1.636 5.251-1.636 5.251l7.09 22.978s.545-4.18-.477-9.191c-1.25-6.128-2.482-7.854-2.25-10.767.092-1.138.865-3.903 5.273-2.538 3.818 1.181 6.818 2.407 9.545 2.013 3.437-.497 4.408-2.714 5.363-2.188 1.61.886 2.181 2.713 1.363 5.602-.818 2.889-3 5.318-3.818 8.928-.564 2.49-.969 6.372 1.5 10.066 1.317 1.971 3.327 3.288 4.295 3.852 2.932 1.707 7.977 1.182 11.113-1.576 3.136-2.757 6.818-1.269 6.818-1.269s-3.75-8.84-6.136-14.093c-2.318-.853-3.55-1.801-4.364-3.02-2.961-4.442-.581-9.062-1.863-12.692M297.174 27.174c-.47 4.623-3.264 8.117-6.24 7.803-2.974-.313-5.768-4.345-4.533-8.937 1.205-4.484 3.804-7.086 6.779-6.773 2.975.313 4.466 3.284 3.994 7.907"/>
                    <path fill="#E09595" d="M292.92 57.912l.91 10.412 17.689-12.397s-1.956-3.265-.683-8.205l-17.915 10.19z"/>
                    <path fill="#638FFA" d="M290.45 72.566s-.273-3.275 2.31-6.157c2.734-2.635 11.202-8.751 18.48-12.487.552-.283 1.234-.13 1.587.367.956 1.351 2.972 4.347 4.271 6.224l-26.649 12.053z"/>
                    <path fill="#D8DDEA" d="M266.883 96.89s15.417-12.091 16.77-14.194c1.352-2.103 4.411-8.033 5.68-10.12 1.758-2.89 3.245-6.439 9.466-10.381 6.221-3.943 11.63-3.943 14.876-3.154 3.246.788 7.303 4.468 8.926 8.673 2.507 6.498 4.868 10.777 5.68 17.873.811 7.097 2.163 17.348 3.245 22.604 1.082 5.257 5.41 18.662 5.41 18.662l-23.802 6.308s-8.968-7.578-11.9-10.25c-2.99-2.726-5.012-12.445-6.221-14.72-1.779-3.342-3.517-6.045-3.517-6.045s-4.868 5.783-8.114 7.36c-3.245 1.577-8.655 3.154-8.655 3.154l-7.844-15.77z"/>
                </g>
                <g transform="translate(284.861 22.877)">
                    <mask id="I" fill="#fff">
                        <use xlink:href="#G"/>
                    </mask>
                    <path fill="url(#H)" d="M1.904 11.231C-1.313 21.394-.79 33.503 6.08 35.947c6.871 2.444 17.181-6.443 20.705-15.864 3.524-9.422-1.868-16.175-8.739-18.619C16.46.9 14.907.606 13.42.606c-4.954 0-9.182 3.257-11.515 10.625" mask="url(#I)"/>
                </g>
                <g>
                    <path fill="#423748" d="M290.193 27.858c.163.082.337.135.52.148.964.072 1.864.684 8.136.436 3.52-.14 6.9-.355 9.23.621 2.99 1.253 4.117 2.732 3.942 6.21-.09 1.774-1.537 3.426-2.33 4.436-1.254 1.596-2.081 2.921-2.248 4.753-.074.815.567 1.525 1.393 1.564l.088.004c.78.037 1.394.674 1.394 1.448 0 1.153 1.296 1.851 2.265 1.213a13.487 13.487 0 0 0 3.112-2.861c2.553-3.194 2.255-5.247 3.226-7.718.627-1.597 2.06-2.839 1.881-5.323-.221-3.064-1.075-5.145-3.763-6.654-2.34-1.312-4.122-2.705-4.66-4.169-.537-1.464-.85-3.105-5.017-5.5-4.167-2.395-7.93-1.375-10.081-.31-2.15 1.064-5.04.069-7.527 2.794-2.106 2.307-1.992 5.37-1.478 6.786.45 1.246 1.413 1.87 1.917 2.122"/>
                    <path fill="#FFAEAE" d="M312.232 47.154c-1.65 1.628-3.722 2.252-4.63 1.395-.908-.858-.307-2.873 1.343-4.501 1.65-1.629 3.722-2.253 4.63-1.396.908.858.307 2.873-1.343 4.502M263.728 98.016s-6.312 2.462-15.87 7.21c-9.558 4.748-18.034 9.671-20.379 9.847-4.76.357-6.853-.176-9.558.528-2.705.703-6.492 3.869-6.492 3.869s-2.525 1.846-2.164 4.484c.207 1.513.902 2.813 1.972 4.736.563 1.011 1.823 1.452 2.998 1.343l6.414.098c1.28-.118 2.215-1.147 2.322-2.397.053-.625.459-2.355 1.352-2.989 1.984-1.407 3.787-.967 3.787-.967l4.419.879c1.387-.25 2.615-.791 3.787-2.374 0 0 .45-.791 1.352-.88 2.538-.247 22.633-3.516 34.175-7.56l-8.115-15.827z"/>
                    <path fill="#638FFA" d="M263.423 97.022c-.728.415-1.058 1.263-.783 2.037.695 1.958 2.005 5.74 3.508 8.86 1.35 2.805 2.974 5.475 3.921 6.966.531.834 1.474 1.325 2.484 1.309.97-.016 2.12-.663 3.437-1.088 1.048-.339 2.198-.214 3.046-.575 1.263-.535 1.83-1.968 1.27-3.19l-8.182-17.858c-.458-1-1.805-1.234-2.604-.46-.944.915-2.158 1.96-3.237 2.484a49.909 49.909 0 0 0-2.86 1.515"/>
                    <path fill="#C5CBD8" d="M307.456 128.515l-5.856-5.132s6.126 2.667 12.62 3.62c2.407.353 2.205-.462 1.908-.662-3.266-2.197-5.063-3.687-6.016-5.011-.436-.605.204-1.17 1.385-.64 1.18.53 5.993 2.693 12.589 3.391 3.975.42 6.867-.717 7.704-1.051.836-.334 1.251-1.207 1.407-2.031.53-2.78.496-4.653.409-6.622.136.662 3.95 13.013 3.95 13.013l-25.333 5.165-4.767-4.04zM292.3 102.792s13.422-11.914 20.034-17.991c.427-.393.684.266.015 1.169-6.023 8.13-16.493 22.953-16.493 22.953l-3.555-6.13zM327.574 94.487c-.536 4.171-.674 5.512-1.385 9.605-.668 3.843-.444 6.658.106 5.927 1.175-1.565 1.553-5.46 3.037-5.827.778-.193 1.554 2.963 2.024 4.24-.11-.863-.908-5.125-1.53-9.368-.813-5.553-1.499-11.377-1.705-12.561 0 0-.011 3.813-.547 7.984"/>
                    <path fill="#5581EE" d="M336.653 192.386c-3.18-2.6-3.88-5.566-3.992-7.803-.063-1.236.202-2.735.298-3.438.03-.222-.2-.118-.434.303-.812 1.468-1.145 2.207-1.624 4.336-.214.948-.135 2.534.113 3.604.136.59-.237 1.138-.835 1.003a.334.334 0 0 0-.022-.005c-7.087-1.597-8.72-3.525-10.32-5.259a.15.15 0 0 0-.26.1c-.005 1.793.16 3.425.43 4.758.219 1.079 1.47 1.967 2.707 1.801 11.435-1.534 16.06 5.47 17.051 5.603.944.126-.702-2.984-3.112-5.003"/>
                    <path fill="#2B2B51" d="M312.08 141.039l-.462.482a.353.353 0 0 0 .111.568l11.557 5.398a2.31 2.31 0 0 0 2.512-.366l1.219-1.309-14.937-4.773z"/>
                    <path fill="#638FFA" d="M349.954 108.074s3.042-4.815 9.008-2.11c5.38 2.44 4.254 8.413 4.254 8.413s1.158-2.297 2.017-2.763c5.034-2.73 2.9-5.299 4.239-6.782 1.466-1.625 2.4-1.522 2.77-4.987.334-3.117-2.28-4.442-3.046-6.368-.836-2.106-3.29-3.73-7.078-3.256-2.566.322-4.464 2.311-5.734 4.086-2.16 3.017-1.7 5.166-2.27 6.746-.451 1.254-4.16 7.021-4.16 7.021"/>
                    <path fill="#FFAEAE" d="M360.237 105.437c-4.345-2.512-7.128-.926-7.613-.15-.688 1.1-1.42 2.25-2.095 3.39-2.38 4.012-6.887 8.726-9.233 11.503-.266.315-.716.699-1.041.97l.007.013c-2.402 1.304-6.666 2.478-10.915 4.306-9.583 4.124-19.688 6.215-19.688 6.215l2.535 5.113c11.314-.882 26.115-3.659 31.817-5.774.514-.19.974-.37 1.415-.562 2.209-.96 3.817-2.19 8.837-6.777a88.394 88.394 0 0 0 9.47-10.082c1.287-1.6-.062-6.18-3.496-8.165"/>
                    <path fill="#FFDEEB" d="M349.985 109.418s-.169-.664.285-1.505c.606-1.122 1.739-3.66 5.2-4.29 3.227-.588 5.56.606 7.023 1.97 2.003 1.866 2.392 4.527 2.335 5.609-.072 1.372-.792 2.792-1.707 3.814-.634.707-1.084.56-1.084.56s.706-.85 1.1-1.619c.678-1.324.633-5.869-3.7-7.774-4.004-1.76-7.069-.459-8.209 1.292-.635.975-1.243 1.943-1.243 1.943"/>
                    <path fill="#E09595" d="M304.484 138.615c-2.776.006-1.372-2.732-.571-6.34.806-3.632 1.703-4.65 3.003-4.562 1.758.12 3.048.177 5.155 2.215 1.192 1.153 2.855 2.575 3.406 3.677.687 1.373.762 3.41-2.539 4.037-2.085.396-5.469.966-8.454.973M333.216 95.592c.726.249 4.34 2.424 4.34 2.424s-3.556-.56-4.34-2.424M341.895 98.016s5.002-3.996 5.499-4.23c.496-.236-1.29 3.334-5.499 4.23"/>
                </g>
            </g>
            <g mask="url(#c)">
                <g fill="#FFF" fill-rule="nonzero">
                    <path d="M60.097 27.178c.138.051 1.308.539 1.031.241a3.613 3.613 0 0 0-1.018-.785C40.562 16.397 25.244 40.721 40.16 51.768c.568.424.963.722 1.094.728.18.013 3.504 2.19 1.067-1.33-9.252-13.32 1.73-31.123 17.776-23.988m7.074 10.4v-.006a14.738 14.738 0 0 0-1.773-5.727c-6.374-7.088-30.883.213-22.5 18.535.259.561.601.878.769.775.167-.104.935-.168.851-.717-2.227-14.338 17.194-17.76 22.653-12.86M47.51 52.303c.134.393.127.55.26.608.064.025 1.84.506 1.89.101.56-4.331 13.662-8.82 14.547-5.104 1.165-1.576 2.38-3.153 2.85-5.097.014-.272.113-.36.113-.36-1.166-3.389-22.966-.007-19.66 9.852" opacity=".4"/>
                    <path d="M43.098 25.983c.477-.4.941-.782.768-.808-.131-.019-.602.185-1.246.522-12.041 6.294-9.204 25.865 6.478 29.4v.013c.457.038.92.064 1.377.064 1.834 0 3.661-.28 5.391-.833 1.523-.521 2.38-.922 3.834-1.749.16-.095.318-.197.47-.298-13.674 3.916-29.432-15.496-17.072-26.311m1.912 2.104c.113-.538.183-.759.036-.885-.148-.127-.479.196-.88.683-7.868 9.724 9.317 24.497 20.5 20.67A14.868 14.868 0 0 0 67.17 43.1v-.007c-6.137 4.252-24.096-5.706-22.16-15.007m20.356 4.628c-1.313 3.65-13.528-2.634-15.377-6.1-.19-.374-.359-.462-.427-.437-.135.038-.23.178-.318.584-1.137 5.128 11.017 14.413 17.923 12.027.007-.146 0-.292-.034-.438a14.937 14.937 0 0 0-1.767-5.636"/>
                </g>
                <text font-family="OpenSans-Bold, Open Sans" font-size="14" font-weight="bold" transform="translate(33.952 23.493)">
                    <tspan x="49.219" y="24.681" fill="#FFF">БКС Банк</tspan>
                </text>
            </g>
        </g>
        <path fill="#DFDFDA" d="M271.27 261.448c0 .575.477 1.308 1.325 1.308.849 0 1.326-.733 1.326-1.308h7.798v3.61c0 1.15.052 1.124-.823 1.882l-3.66 3.112c-.662.576-.69.653-.69 1.517v6.303c0 .836.372 1.307 1.327 1.307s1.326-.47 1.326-1.307v-5.074c0-.915.053-.967.743-1.569l3.713-3.164c.742-.628.715-.733.715-1.648v-7.584h-11.775c-.848 0-1.325.732-1.325 1.308v1.307zm16.464 43.859h5.348V294.94h-5.348v10.367zm7.167-10.367c0-.985-.82-1.793-1.82-1.793h-5.347c-1 0-1.819.808-1.819 1.793v10.367c0 1.005.783 1.794 1.82 1.794h5.347c1.036 0 1.819-.79 1.819-1.794V294.94zm3.724 39.184l-5.595-12.77h-3.041v14.161h1.625v-12.769h.402l5.68 12.77h2.977v-14.161h-1.604v12.769h-.444zm2.204-28.817h5.347V294.94h-5.347v10.367zm7.165-10.367c0-.985-.818-1.793-1.818-1.793h-5.347c-1 0-1.82.808-1.82 1.793v10.367c0 1.005.783 1.794 1.82 1.794h5.347c1.036 0 1.818-.79 1.818-1.794V294.94zm-42.48 33.762v-5.956h3.78c2.049 0 2.999.963 2.999 2.907 0 1.779-.782 3.049-2.978 3.049h-3.8zm3.78-7.347h-5.406v14.16h1.626v-5.422h4.14l2.639 5.422h1.795l-2.809-5.75c1.838-.572 2.683-2.025 2.683-4.112 0-2.988-1.605-4.298-4.667-4.298zm-31.612 12.769v-11.378h3.591c3.04 0 3.738 2.416 3.738 5.484 0 3.07-.698 5.894-3.738 5.894h-3.59zm-1.625-12.77v14.161h5.216c4.307 0 5.406-3.233 5.406-7.285 0-4.01-1.162-6.875-5.406-6.875h-5.216zm23.777 14.161v-1.391h-7.264v-5.116h5.997v-1.37h-5.997v-4.892h7.264v-1.391h-8.89v14.16h8.89zm49.645-12.81h1.098l2.218 7.756h-5.533l2.217-7.755zm-5.237 12.81h1.606l1.056-3.643h6.25l1.055 3.643h1.605l-4.012-14.16h-3.547l-4.013 14.16zm-49.415-58.951h7.797v-4.027h-7.797v4.027zm10.449-4.89c0-1.203-.265-1.752-1.592-1.752h-8.857v-8.474c.769 0 1.326-.522 1.326-1.307 0-.68-.557-1.308-1.246-1.308h-1.591c-.929 0-1.141.706-1.141 1.308v17.39c0 1.204.478 1.648 1.724 1.648h9.654c1.193 0 1.723-.418 1.723-1.647v-5.858zm180.493 4.89h7.797v-4.027h-7.797v4.027zm0-6.642v-8.474c.769 0 1.326-.522 1.326-1.307 0-.68-.557-1.308-1.247-1.308h-1.59c-.929 0-1.142.706-1.142 1.308v17.39c0 1.204.479 1.648 1.725 1.648h9.652c1.194 0 1.724-.418 1.724-1.647v-5.858c0-1.203-.264-1.752-1.591-1.752h-8.857zm-48.16-7.559c0-.654-.318-1.307-1.326-1.307-1.006 0-1.325.653-1.325 1.307v7.559h-5.145v-9.78c0-.656-.319-1.31-1.326-1.31-1.008 0-1.327.654-1.327 1.31v12.395h7.798v5.335c0 .836.37 1.307 1.325 1.307s1.327-.47 1.327-1.307v-5.335c.688 0 1.325-.367 1.325-1.308 0-.941-.637-1.307-1.325-1.307v-7.559zm-75.29 58.992h-2.935v14.16h1.625v-12.481h.296l4.245 11.97h1.815l4.245-11.97h.295v12.481h1.626v-14.16h-2.936l-4.138 11.972-4.138-11.972zm-76.774-43.065c.557-.654.637-1.229.637-2.04v-5.597c0-.915-.08-1.542-.823-2.222-.636-.602-1.272-.732-2.121-.732h-4.88v-6.25h6.498c.689 0 1.326-.368 1.326-1.308 0-.942-.637-1.308-1.326-1.308h-9.15v11.48h7.825v6.251h-6.127c-.424 0-1.034-.365-1.406-.523l-.795-.34c-.292-.13-.53-.21-.849-.21-.69 0-1.273.628-1.273 1.308 0 .916.796 1.151 1.512 1.465l1.007.444c.664.288 1.061.47 1.75.47h5.888c.954 0 1.644-.103 2.307-.888zm216.666-16.842c0 .575.477 1.308 1.326 1.308.848 0 1.327-.733 1.327-1.308h7.795v3.61c0 1.15.053 1.124-.821 1.882l-3.66 3.112c-.663.576-.69.653-.69 1.517v6.303c0 .836.372 1.307 1.327 1.307.954 0 1.325-.47 1.325-1.307v-5.074c0-.915.054-.967.744-1.569l3.711-3.164c.744-.628.717-.733.717-1.648v-7.584h-11.775c-.849 0-1.326.732-1.326 1.308v1.307zm-25.087-1.307c0-.942-.637-1.308-1.326-1.308h-9.15v11.48h7.823v6.251h-6.125c-.425 0-1.036-.365-1.406-.523l-.796-.34c-.291-.13-.53-.21-.848-.21-.69 0-1.273.628-1.273 1.308 0 .916.796 1.151 1.511 1.465l1.009.444c.662.288 1.06.47 1.75.47h5.888c.954 0 1.643-.103 2.306-.888.557-.654.637-1.229.637-2.04v-5.597c0-.915-.08-1.542-.822-2.222-.637-.602-1.274-.732-2.121-.732H429.3v-6.25h6.498c.689 0 1.326-.368 1.326-1.308zm-110.107 45.166h5.347V294.94h-5.347v10.367zm0-12.16c-1 0-1.819.808-1.819 1.793v10.367c0 1.005.782 1.794 1.82 1.794h5.346c1.036 0 1.819-.79 1.819-1.794V294.94c0-.985-.819-1.793-1.82-1.793h-5.346zm13.095 12.16h5.346V294.94h-5.346v10.367zm5.346 1.794c1.036 0 1.819-.79 1.819-1.794V294.94c0-.985-.818-1.793-1.82-1.793h-5.345c-1.002 0-1.82.808-1.82 1.793v10.367c0 1.005.782 1.794 1.82 1.794h5.346zm1.821 28.414v-1.391h-7.264v-5.116h5.997v-1.37h-5.997v-4.892h7.264v-1.391h-8.89v14.16h8.89zm20.788-76.682c-.691 0-1.327.366-1.327 1.308 0 .94.636 1.307 1.327 1.307h9.122v4.34c0 1.466-.584 1.91-1.327 1.91h-5.197c-.69 0-1.327.367-1.327 1.308 0 .941.637 1.308 1.327 1.308h5.197c.743 0 1.327.445 1.327 1.908v4.342h-9.122c-.691 0-1.327.366-1.327 1.308 0 .942.636 1.307 1.327 1.307h9.122c1.512 0 2.653-1.123 2.653-2.615v-5.022c0-1.045-.213-1.804-1.036-2.536.823-.732 1.036-1.491 1.036-2.537v-5.02c0-1.491-1.141-2.616-2.653-2.616h-9.122zm-19.095 0c-.69 0-1.326.366-1.326 1.308 0 .94.636 1.307 1.326 1.307h9.122v6.25h-7.452c-1.989 0-2.996.994-2.996 2.955v8.526h11.775c.688 0 1.325-.365 1.325-1.307s-.637-1.308-1.325-1.308H350.3v-6.25h7.477c.877 0 1.485-.131 2.148-.732.743-.68.822-1.386.822-2.328v-5.362c0-.94-.079-1.647-.822-2.327-.663-.601-1.271-.732-2.148-.732h-8.804zm134.985 17.731h7.797v-6.25h-7.797v6.25zm2.652-8.865h2.494v-6.25h-2.494v6.25zm5.145 0v-7.558c0-.68-.425-1.308-1.327-1.308h-5.144c-.901 0-1.326.628-1.326 1.308v7.558c-.821 0-1.458.287-1.936.732-.476.444-.716 1.098-.716 1.91v6.223c0 1.595 1.008 2.615 2.652 2.615h7.797c1.643 0 2.652-1.02 2.652-2.615v-6.224c0-.811-.239-1.465-.716-1.909-.478-.445-1.113-.732-1.936-.732zm-267.08 53.656v14.16h8.047v-1.412h-6.42v-12.748h-1.627zm-58.26 7.347v-5.956h3.78c2.048 0 2.998.963 2.998 2.907 0 1.779-.78 3.049-2.978 3.049h-3.8zm3.78-7.347h-5.406v14.16h1.626v-5.422h4.138l2.64 5.422h1.795l-2.809-5.75c1.838-.572 2.683-2.025 2.683-4.112 0-2.988-1.605-4.298-4.667-4.298zm18.706-49.813c0-1.045-.213-1.804-1.034-2.536.821-.732 1.034-1.491 1.034-2.537v-5.02c0-1.491-1.141-2.616-2.653-2.616h-9.122c-.69 0-1.326.366-1.326 1.308 0 .94.636 1.307 1.326 1.307h9.122v4.34c0 1.466-.583 1.91-1.325 1.91h-5.199c-.69 0-1.325.367-1.325 1.308 0 .941.636 1.308 1.325 1.308h5.199c.742 0 1.325.445 1.325 1.908v4.342h-9.122c-.69 0-1.326.366-1.326 1.308 0 .942.636 1.307 1.326 1.307h9.122c1.512 0 2.653-1.123 2.653-2.615v-5.022zm104.116 5.022h7.796v-6.25h-7.796v6.25zm2.652-8.865h2.493v-6.25h-2.493v6.25zm5.144 11.48c1.645 0 2.652-1.02 2.652-2.615v-6.224c0-.811-.239-1.465-.716-1.909-.477-.445-1.114-.732-1.936-.732v-7.558c0-.68-.424-1.308-1.325-1.308h-5.146c-.901 0-1.325.628-1.325 1.308v7.558c-.823 0-1.459.287-1.936.732-.478.444-.717 1.098-.717 1.91v6.223c0 1.595 1.008 2.615 2.653 2.615h7.796zm-153.868 43.753l.064-1.33c-.929-.185-2.534-.45-4.034-.45-4.392 0-5.343 2.537-5.343 7.324 0 4.666.972 7.244 5.343 7.244 1.394 0 2.998-.225 4.034-.43l-.064-1.35c-1.014.184-2.576.368-3.758.368-3.337 0-3.865-1.882-3.865-5.832 0-4.03.571-5.913 3.823-5.913 1.14 0 2.85.205 3.8.369zm21.536-46.368h-9.124v-6.25h7.48c.875 0 1.485-.131 2.147-.732.742-.68.822-1.386.822-2.328v-5.362c0-.94-.08-1.647-.822-2.327-.662-.601-1.272-.732-2.148-.732h-8.805c-.689 0-1.326.366-1.326 1.308 0 .94.637 1.307 1.326 1.307h9.124v6.25H159.7c-1.99 0-2.997.994-2.997 2.955v8.526h11.776c.69 0 1.325-.365 1.325-1.307s-.636-1.308-1.325-1.308zm145.425 29.908l6.982-11.782c.11-.198.201-.413.201-.7 0-.465-.418-.843-.89-.843-.455 0-.674.323-.891.682l-6.803 11.496c-.182.286-.4.592-.4.932 0 .466.456.844.909.844.456 0 .674-.253.892-.629zm-159.02 16.234h1.097l2.217 7.755h-5.532l2.217-7.755zm-5.238 12.81h1.606l1.054-3.644h6.252l1.055 3.643h1.605l-4.011-14.16h-3.549l-4.012 14.16zm57.02-73.153c0-.654-.318-1.307-1.325-1.307-1.008 0-1.327.653-1.327 1.307v7.559h-5.144v-9.78c0-.656-.318-1.31-1.327-1.31-1.007 0-1.325.654-1.325 1.31v12.395h7.796v5.335c0 .836.372 1.307 1.327 1.307s1.326-.47 1.326-1.307v-5.335c.689 0 1.326-.367 1.326-1.308 0-.941-.637-1.307-1.326-1.307v-7.559zm121.884 15.51c0 .94.637 1.306 1.326 1.306h10.45c.69 0 1.326-.365 1.326-1.307v-6.59c0-.76-.346-1.308-1.326-1.308-.982 0-1.326.548-1.326 1.307v5.283h-2.573v-17.731h-6.55c-.69 0-1.327.366-1.327 1.308 0 .94.637 1.307 1.326 1.307h3.899v15.116h-3.899c-.689 0-1.326.366-1.326 1.308zm-177.84-6.592c0-.759-.345-1.307-1.326-1.307-.981 0-1.326.548-1.326 1.307v5.283h-2.573v-17.731h-6.55c-.69 0-1.325.366-1.325 1.308 0 .94.636 1.307 1.326 1.307h3.898v15.116h-3.898c-.69 0-1.326.366-1.326 1.308 0 .942.636 1.307 1.326 1.307h10.448c.69 0 1.326-.365 1.326-1.307v-6.59zm59.837 57.216c0-3.847.738-5.954 4.097-5.954 3.336 0 4.096 2.127 4.096 5.954 0 3.99-.696 5.831-4.096 5.831-3.38 0-4.097-1.964-4.097-5.83zm-1.668 0c0 4.748 1.224 7.223 5.765 7.223 4.54 0 5.786-2.353 5.786-7.223 0-4.706-1.268-7.345-5.786-7.345-4.52 0-5.765 2.68-5.765 7.345zm-13.304-.798v-6.344h-1.626v14.16h1.626v-6.404h7.433v6.404h1.606v-14.16h-1.606v6.344h-7.433zm-14.887 6.425v-11.378h3.59c3.04 0 3.738 2.416 3.738 5.484 0 3.07-.698 5.894-3.739 5.894h-3.59zm-1.626-12.77v14.161h5.215c4.308 0 5.407-3.233 5.407-7.285 0-4.01-1.162-6.875-5.407-6.875h-5.215z"/>
        <path fill="#C7C6C1" d="M213.01 337.743c-5.453 0-6.204-3.747-6.204-7.796 0-3.917.736-7.92 6.203-7.92 5.486 0 6.226 4.003 6.226 7.92 0 4.68-1.059 7.796-6.226 7.796zm.289-15.55c-4.508 0-5.75 2.724-5.75 7.465 0 4.824 1.22 7.34 5.75 7.34 4.528 0 5.77-2.391 5.77-7.34 0-4.784-1.263-7.466-5.77-7.466zm-71.777 15.55c-4.8 0-5.512-3.397-5.512-8.087 0-4.879.696-7.63 5.512-7.63 1.571 0 3.251.292 4.112.466l.383.078-.106 2.26-.507-.09c-1.014-.177-2.66-.368-3.713-.368-2.637 0-3.36 1.194-3.36 5.555 0 4.037.515 5.47 3.402 5.47 1.156 0 2.712-.19 3.667-.367l.511-.094.105 2.286-.382.077c-1.069.215-2.711.444-4.112.444zm.289-15.55c-4.381 0-5.33 2.578-5.33 7.443 0 4.742.97 7.362 5.33 7.362 1.39 0 2.99-.229 4.023-.437l-.064-1.372c-1.011.187-2.57.374-3.748.374-3.329 0-3.855-1.913-3.855-5.927 0-4.096.57-6.01 3.813-6.01 1.137 0 2.843.209 3.79.375l.064-1.351c-.926-.188-2.528-.458-4.023-.458zm203.95 15.344h-9.775v-15.304h9.774v2.327h-7.246v4.058h5.982v2.305h-5.982v4.286h7.246v2.328zm-9.033-15.138v14.391h8.868v-1.414h-7.246v-5.199h5.981v-1.394h-5.981v-4.97h7.246v-1.414h-8.868zm-4.679 15.138h-2.53v-11.304l-3.752 10.783h-2.458l-3.751-10.783v11.304h-2.53v-15.304h3.707l3.803 11.21 3.803-11.21h3.708v15.304zm-2.083-13.432h.294v12.685h1.622v-14.391h-2.928l-4.127 12.166-4.128-12.166h-2.928v14.391h1.622v-12.685h.295l4.234 12.166h1.81l4.234-12.166zm-15.446 13.432h-2.541l-1.053-3.703h-5.55l-1.053 3.703h-2.54l4.255-15.304h4.226l4.256 15.304zm-9.197-4.45h6.234l1.053 3.703h1.601l-4.003-14.391h-3.537l-4.003 14.391h1.602l1.053-3.702zm-6.049 4.45h-3.72l-5.317-12.176v12.176h-2.53v-15.304h3.786l5.272 12.257v-12.257h2.51v15.304zm-9.201-13.724h.4l5.665 12.977h2.97v-14.391h-1.6v12.977h-.442l-5.582-12.977h-3.033v14.391h1.622v-12.977zm-17.049 13.724h-2.798l-2.633-5.512h-3.388v5.512h-2.53v-15.304h5.845c3.391 0 5.109 1.623 5.109 4.824 0 2.19-.863 3.71-2.504 4.431l2.899 6.049zm-8.985-6.257h4.128l2.633 5.51h1.791l-2.802-5.844c1.833-.582 2.676-2.058 2.676-4.18 0-3.035-1.601-4.367-4.655-4.367h-5.393v14.391h1.622v-5.51zm-5.5 6.257h-9.776v-15.304h9.775v2.327h-7.246v4.058h5.982v2.305h-5.982v4.286h7.246v2.328zm-9.033-15.138v14.391h8.868v-1.414h-7.247v-5.199h5.982v-1.394h-5.982v-4.97h7.247v-1.414h-8.868zm-9.935 15.138h-5.657v-15.304h5.657c5.239 0 5.845 4.25 5.845 7.444 0 1.943 0 7.86-5.845 7.86zm-4.915-15.138v14.391h5.203c4.296 0 5.392-3.286 5.392-7.404 0-4.075-1.159-6.987-5.392-6.987h-5.203zm-3.163 15.138h-8.932v-15.304h2.53v12.956h6.402v2.348zm-8.19-15.138v14.391h8.026v-1.436h-6.403V322.4h-1.623zm-19.844 15.138h-2.508v-6.51h-6.508v6.51h-2.528v-15.304h2.528v6.448h6.508v-6.448h2.508v15.304zm-9.18-7.256h7.414v6.509h1.601v-14.391h-1.601v6.447h-7.414V322.4h-1.622v14.391h1.622v-6.51zm-11.558 7.256h-5.656v-15.304h5.656c5.24 0 5.846 4.25 5.846 7.444 0 1.943 0 7.86-5.846 7.86zm-4.914-15.138v14.391h5.203c4.296 0 5.392-3.286 5.392-7.404 0-4.075-1.158-6.987-5.392-6.987h-5.203zm-3.63 15.138h-2.8l-2.632-5.512h-3.39v5.512h-2.529v-15.304h5.846c3.39 0 5.109 1.623 5.109 4.824 0 2.19-.864 3.71-2.505 4.431l2.9 6.049zm-8.986-6.257h4.128l2.632 5.51h1.791l-2.802-5.844c1.833-.582 2.676-2.058 2.676-4.18 0-3.035-1.601-4.367-4.655-4.367h-5.392v14.391h1.622v-5.51zm-4.873 6.257h-2.541l-1.052-3.703h-5.551l-1.053 3.703h-2.54l4.255-15.304h4.227l4.255 15.304zm-9.198-4.45h6.236l1.052 3.703h1.601l-4.001-14.391h-3.54l-4.001 14.391h1.6l1.053-3.702zm62.179 2.497c-3.37 0-4.087-1.997-4.087-5.926 0-3.91.737-6.052 4.087-6.052 3.327 0 4.086 2.162 4.086 6.052 0 4.055-.695 5.926-4.086 5.926zm-.29-11.232c-2.715 0-3.632 1.412-3.632 5.595 0 4.192.849 5.471 3.632 5.471 2.818 0 3.634-1.227 3.634-5.471 0-4.183-.917-5.595-3.634-5.595zm26.85 11.024h-3.581v-11.563h3.581c3.033 0 3.728 2.455 3.728 5.573 0 3.12-.695 5.99-3.728 5.99zm-3.416-10.816v10.65h3.128c2.233 0 3.273-1.759 3.273-5.533 0-3.587-.979-5.117-3.273-5.117h-3.128zm-53.433 10.816h-3.581v-11.563h3.58c3.034 0 3.73 2.455 3.73 5.573 0 3.12-.696 5.99-3.73 5.99zm-3.416-10.816v10.65h3.127c2.234 0 3.275-1.759 3.275-5.533 0-3.587-.98-5.117-3.275-5.117h-3.127zm131.605 7.093h-5.519l2.212-7.881h1.095l2.212 7.88zm-3.252-7.135l-1.957 6.97h4.32l-1.955-6.97h-.408zm-150.95 7.135h-5.519l2.212-7.881h1.095l2.211 7.88zm-3.252-7.135l-1.955 6.97h4.319l-1.956-6.97h-.408zm114.085 5.347h-3.791v-6.052h3.77c2.044 0 2.991.978 2.991 2.954 0 1.808-.78 3.098-2.97 3.098zm-3.625-5.305v5.14h3.337c1.716 0 2.516-.84 2.516-2.643 0-1.75-.759-2.497-2.538-2.497h-3.315zm-95.223 5.305h-3.791v-6.052h3.77c2.043 0 2.99.978 2.99 2.954 0 1.808-.778 3.098-2.97 3.098zm-3.626-5.305v5.14h3.337c1.717 0 2.516-.84 2.516-2.643 0-1.75-.759-2.497-2.537-2.497h-3.316zm177.996-15.762h-5.334c-1.272 0-2.268-1.001-2.268-2.278v-10.536a2.275 2.275 0 0 1 2.268-2.278h5.334c.114 0 .227.009.338.025h-5.243c-1 0-1.816.821-1.816 1.823v10.535c0 .108.009.212.026.314v.117c0 .779.585 1.367 1.36 1.367h.115c.101.017.207.026.315.026h5.332c1.034 0 1.815-.802 1.815-1.824v-10.445c.016.112.024.225.024.34v10.536a2.248 2.248 0 0 1-2.266 2.278zm-13.062 0h-5.333c-1.272 0-2.268-1.001-2.268-2.278v-10.536a2.275 2.275 0 0 1 2.268-2.278h5.333c.116 0 .229.009.339.025h-5.244c-.998 0-1.814.821-1.814 1.823v10.535a2 2 0 0 0 .025.314v.117c0 .779.584 1.367 1.36 1.367h.115c.101.017.207.026.314.026h5.333c1.034 0 1.814-.802 1.814-1.824v-10.446c.017.112.025.225.025.34v10.537a2.248 2.248 0 0 1-2.267 2.278zm-19.3 0c-.726 0-1.362-.613-1.362-1.313 0-.446.233-.814.418-1.109l.05-.079 6.777-11.671c.208-.347.55-.92 1.281-.92.104 0 .204.012.3.035-.367.056-.564.355-.76.684l-6.785 11.683c-.182.29-.399.601-.399.948 0 .096.02.189.053.277a.501.501 0 0 0-.027.152c0 .217.249.402.453.402a.456.456 0 0 0 .153-.02c.09.03.182.046.275.046.454 0 .672-.257.89-.639l6.964-11.974c.09-.165.168-.344.193-.565.021.092.032.188.032.285a1.9 1.9 0 0 1-.254.928l-6.972 11.986c-.159.278-.492.864-1.28.864zm-6.822 0h-5.333c-1.272 0-2.268-1.001-2.268-2.278v-10.536a2.275 2.275 0 0 1 2.268-2.278h5.333c.116 0 .229.009.339.025h-5.244c-.997 0-1.814.821-1.814 1.823v10.535c0 .108.009.212.026.314v.117c0 .779.584 1.367 1.36 1.367h.114c.101.017.207.026.314.026h5.334c1.034 0 1.813-.802 1.813-1.824v-10.45c.018.113.026.228.026.345v10.536a2.249 2.249 0 0 1-2.268 2.278zm-13.06 0h-5.334c-1.272 0-2.268-1.001-2.268-2.278v-10.536a2.275 2.275 0 0 1 2.268-2.278h5.333c.116 0 .229.009.339.025h-5.244c-.997 0-1.814.821-1.814 1.823v10.535c0 .109.009.215.026.317v.114c0 .779.584 1.367 1.36 1.367h.114c.102.017.207.026.314.026h5.334c1.034 0 1.814-.802 1.814-1.824v-10.445c.017.112.025.225.025.34v10.536a2.249 2.249 0 0 1-2.268 2.278zm47.339-2.709h5.332v-10.535h-5.332v10.535zm.024-.024h4.426v-9.625h-4.426v9.625zm-13.086.024h5.333v-10.535h-5.333v10.535zm.025-.024h4.426v-9.625h-4.426v9.625zm-26.147.024h5.334v-10.535h-5.334v10.535zm.026-.024h4.426v-9.625h-4.426v9.625zm-13.087.024h5.334v-10.535h-5.334v10.535zm.026-.024h4.426v-9.625h-4.426v9.625zm203.047-25.642h-7.777c-1.883 0-3.1-1.222-3.1-3.114v-6.326c0-.954.297-1.739.858-2.27.5-.476 1.1-.758 1.788-.843v-7.252c0-1.05.73-1.785 1.776-1.785h5.132c.113 0 .223.008.33.026h-5.033c-.9 0-1.323.638-1.323 1.33v7.68c-.82 0-1.455.292-1.932.745-.475.45-.714 1.115-.714 1.94v6.325c0 .149.009.293.026.431 0 1.378.819 2.2 2.19 2.201.137.016.282.025.43.025h7.777c1.64 0 2.645-1.037 2.645-2.657v-6.325-.042c.016.152.025.309.025.471v6.326c0 1.892-1.216 3.114-3.098 3.114zm-22.882 0c-1.145 0-1.776-.634-1.776-1.785v-6.405c0-1.023.086-1.216.842-1.884l3.654-3.166c.665-.587.665-.587.663-1.378v-3.403h-6.935c-.198.703-.836 1.33-1.71 1.33-1.065 0-1.779-.923-1.779-1.784v-1.33c0-.862.714-1.785 1.778-1.785h12.199v8.255c0 .952-.032 1.204-.874 1.93l-3.702 3.214c-.582.519-.582.519-.582 1.25v5.156c0 1.151-.631 1.785-1.778 1.785zm.072-.913c.109.017.228.026.357.026.952 0 1.322-.478 1.322-1.328v-5.156c0-.93.054-.984.742-1.595l3.702-3.216c.742-.638.715-.745.715-1.674v-7.708h-11.745c-.847 0-1.323.744-1.323 1.33v1.328c0 .078.008.16.025.241v.19c0 .304.255.872.87.872a.93.93 0 0 0 .125-.009c.095.023.196.035.303.035.846 0 1.323-.745 1.323-1.329h7.776v3.668c0 1.17.053 1.142-.82 1.913l-3.65 3.162c-.661.586-.688.665-.688 1.542v6.406c0 .126.009.245.026.354v.076c0 .653.22.873.868.873l.072-.001zm-14.356.913h-9.629c-1.502 0-2.173-.658-2.173-2.13v-17.675c0-1.118.595-1.785 1.59-1.785h1.59c.094 0 .188.01.28.026h-1.44c-.926 0-1.138.717-1.138 1.33v17.673c0 .161.009.309.026.444.002.945.258 1.2 1.232 1.205.14.017.294.025.462.025h9.628c1.191 0 1.72-.424 1.72-1.674v-5.953l-.001-.151c.019.182.027.376.027.58v5.955c0 1.453-.69 2.13-2.174 2.13zm-20.262 0h-5.873c-.76 0-1.224-.205-1.864-.49l-1.071-.48-.208-.091c-.662-.285-1.569-.675-1.569-1.814 0-.95.805-1.785 1.723-1.785.126 0 .242.01.354.03-.654.044-1.195.66-1.195 1.325 0 .113.012.217.034.311a.872.872 0 0 0-.01.12c0 .488.296.664 1.02.975l.22.097 1.069.479c.598.265.928.411 1.497.411h.018c.127.016.261.025.411.025h5.873c.952 0 1.64-.105 2.3-.903.556-.665.636-1.249.636-2.074v-5.687c0-.105-.001-.207-.004-.304.024.235.03.479.03.734v5.688c0 .959-.119 1.62-.742 2.366-.818.985-1.72 1.067-2.65 1.067zm-37.8 0c-1.146 0-1.777-.634-1.777-1.785v-4.966h-7.776v-13.054c0-1.102.68-1.785 1.775-1.785.126 0 .246.01.36.027-.951.03-1.254.68-1.254 1.328v12.598h7.778v5.422c0 .126.008.245.025.354v.076c0 .653.219.873.87.873l.07-.001c.109.017.227.026.357.026.953 0 1.323-.478 1.323-1.328v-5.422c.669 0 1.288-.352 1.321-1.253.018.113.027.231.027.355 0 .924-.506 1.567-1.323 1.738v5.012c0 1.151-.631 1.785-1.776 1.785zm-19.047 0h-9.098c-1.08 0-1.777-.7-1.777-1.785 0-1.084.698-1.784 1.777-1.784h8.646v-3.956c0-1.484-.61-1.484-.87-1.484h-5.185c-1.08 0-1.775-.701-1.775-1.786s.696-1.785 1.775-1.785h5.185c.26 0 .87 0 .87-1.483v-3.958h-8.646c-1.08 0-1.777-.7-1.777-1.784s.698-1.785 1.777-1.785H375c.142 0 .281.008.417.026h-9.087c-.689 0-1.323.372-1.323 1.33 0 .117.01.228.028.33a1.464 1.464 0 0 0-.003.099c0 .579.293.874.87.874h.127c.098.016.199.025.301.025h9.1v4.411c0 1.489-.583 1.941-1.324 1.941h-5.184c-.688 0-1.323.372-1.323 1.329 0 .119.01.23.029.33a1.521 1.521 0 0 0-.003.1c0 .58.291.874.868.874h.128c.098.017.199.024.301.024h5.075c.582.096 1.288.497 1.432 1.848v4.505h-9.099c-.689 0-1.323.372-1.323 1.33 0 .118.01.228.028.33a1.487 1.487 0 0 0-.003.099c0 .579.293.873.87.873h.127c.098.017.199.025.301.025h9.1c1.507 0 2.645-1.141 2.645-2.657v-5.104c0-.067 0-.133-.003-.199.022.212.028.423.028.63v5.103c0 1.775-1.333 3.114-3.1 3.114zm-17.722 0H345.08v-9.12c0-2.232 1.222-3.46 3.441-3.46h6.98v-5.44h-8.645c-1.08 0-1.776-.701-1.776-1.785s.697-1.785 1.776-1.785h8.782c.214 0 .416.007.61.028a9.973 9.973 0 0 0-.182-.002h-8.782c-.688 0-1.322.372-1.322 1.33 0 .117.01.228.028.328a1.52 1.52 0 0 0-.003.1c0 .58.291.875.869.875h.128c.097.016.198.025.3.025h9.1v6.352h-7.434c-1.984 0-2.988 1.01-2.988 3.003v8.664h11.745c.668 0 1.288-.352 1.32-1.252.017.113.027.23.027.354 0 1.084-.697 1.785-1.776 1.785zm-19.046 0h-10.421c-1.08 0-1.777-.7-1.777-1.785 0-1.084.698-1.784 1.777-1.784h3.434v-14.452h-3.434c-1.08 0-1.777-.7-1.777-1.784s.698-1.785 1.777-1.785h6.986v18.02h1.66v-4.912c0-1.135.647-1.786 1.775-1.786.13 0 .255.01.373.026-.936.022-1.267.573-1.267 1.329v5.369h-2.566v-18.02h-6.534c-.687 0-1.322.372-1.322 1.33 0 .12.01.23.029.333a1.414 1.414 0 0 0-.003.096c0 .579.292.874.869.874h.127c.098.016.199.025.3.025h3.889v15.362h-3.889c-.687 0-1.322.372-1.322 1.33 0 .12.01.23.029.334a1.36 1.36 0 0 0-.003.095c0 .579.292.873.869.873h.127c.098.017.199.025.3.025h10.423c.688 0 1.323-.371 1.323-1.328v-6.637a2.7 2.7 0 0 1 .025.37v6.697c0 1.084-.698 1.785-1.777 1.785zm-39.413 0h-7.777c-1.883 0-3.1-1.222-3.1-3.114v-6.326c0-.954.297-1.739.857-2.27.5-.476 1.1-.758 1.79-.843v-7.252c0-1.05.73-1.785 1.775-1.785h5.132c.113 0 .223.008.329.026h-5.032c-.9 0-1.323.638-1.323 1.33v7.68c-.82 0-1.455.292-1.93.745-.478.45-.716 1.115-.716 1.94v6.325c0 .149.01.293.026.431 0 1.378.819 2.2 2.19 2.201.137.016.282.025.43.025h7.777c1.64 0 2.645-1.037 2.645-2.657v-6.325-.047c.017.154.026.313.026.476v6.326c0 1.892-1.217 3.114-3.1 3.114zm-22.881 0c-1.146 0-1.777-.634-1.777-1.785v-6.405c0-1.023.086-1.216.842-1.884l3.654-3.166c.665-.587.665-.587.663-1.378v-3.403h-6.935c-.198.703-.836 1.33-1.71 1.33-1.064 0-1.778-.923-1.778-1.784v-1.33c0-.862.714-1.785 1.777-1.785h12.199v8.255c0 .952-.031 1.204-.874 1.93l-3.702 3.214c-.582.519-.582.519-.582 1.25v5.156c0 1.151-.631 1.785-1.777 1.785zm.071-.913c.109.017.227.026.357.026.952 0 1.323-.478 1.323-1.328v-5.156c0-.93.053-.984.74-1.595l3.704-3.216c.74-.638.714-.745.714-1.674v-7.708h-11.745c-.847 0-1.323.744-1.323 1.33v1.328c0 .078.009.16.025.24v.19c0 .305.255.873.87.873a.93.93 0 0 0 .125-.009c.095.023.196.035.303.035.846 0 1.322-.745 1.322-1.329h7.778v3.668c0 1.17.052 1.142-.82 1.913l-3.65 3.162c-.662.586-.689.665-.689 1.542v6.406c0 .127.009.245.026.354v.076c0 .653.22.873.869.873l.071-.001zm-14.355.913h-9.63c-1.502 0-2.172-.658-2.172-2.13v-17.675c0-1.118.595-1.785 1.59-1.785h1.588c.095 0 .189.01.28.026h-1.438c-.927 0-1.139.717-1.139 1.33v17.673c0 .161.009.307.026.443.002.946.259 1.2 1.232 1.206.141.017.294.025.462.025h9.63c1.19 0 1.718-.424 1.718-1.674v-5.953l-.001-.145c.02.18.027.372.027.575v5.954c0 1.453-.69 2.13-2.173 2.13zm-20.262 0h-5.873c-.762 0-1.224-.205-1.866-.49l-1.071-.48-.207-.091c-.662-.285-1.569-.675-1.569-1.814 0-.95.806-1.785 1.723-1.785.126 0 .243.01.353.03-.654.044-1.194.66-1.194 1.325 0 .113.012.217.034.311a.872.872 0 0 0-.009.12c0 .488.295.664 1.02.975l.22.097 1.068.479c.598.265.928.411 1.498.411h.017c.127.016.263.025.411.025h5.872c.952 0 1.64-.105 2.301-.903.556-.665.636-1.249.636-2.074v-5.687c0-.105-.001-.207-.005-.304.025.235.03.479.03.734v5.688c0 .96-.118 1.622-.741 2.366-.817.985-1.719 1.067-2.648 1.067zm-37.8 0c-1.147 0-1.778-.634-1.778-1.785v-4.966h-7.776v-13.054c0-1.102.68-1.785 1.775-1.785.126 0 .246.01.361.027-.95.029-1.255.678-1.255 1.328v12.598h7.777v5.422c0 .128.009.247.026.357v.073c0 .653.22.873.87.873l.07-.001c.11.017.228.026.358.026.952 0 1.322-.478 1.322-1.328v-5.422c.669 0 1.288-.352 1.321-1.253.018.113.026.231.026.355 0 .924-.505 1.567-1.322 1.738v5.012c0 1.151-.63 1.785-1.776 1.785zm-19.046 0h-9.1c-1.08 0-1.777-.7-1.777-1.785 0-1.084.698-1.784 1.777-1.784h8.646v-3.956c0-1.484-.609-1.484-.87-1.484h-5.183c-1.08 0-1.777-.701-1.777-1.786s.697-1.785 1.777-1.785h5.184c.26 0 .869 0 .869-1.483v-3.958h-8.646c-1.08 0-1.777-.7-1.777-1.784s.698-1.785 1.777-1.785h9.1c.141 0 .281.008.417.026h-9.089c-.688 0-1.322.372-1.322 1.33 0 .118.01.228.028.33a1.487 1.487 0 0 0-.003.099c0 .579.293.874.869.874h.127c.098.016.2.025.301.025h9.1v4.411c0 1.489-.582 1.941-1.323 1.941h-5.185c-.688 0-1.322.372-1.322 1.329 0 .119.01.228.028.33a1.52 1.52 0 0 0-.003.1c0 .58.293.874.87.874h.126c.098.017.199.024.301.024h5.077c.58.096 1.285.496 1.43 1.844v4.509h-9.099c-.688 0-1.322.372-1.322 1.33 0 .118.01.229.028.33a1.512 1.512 0 0 0-.003.099c0 .579.293.873.869.873h.127c.098.017.2.025.301.025h9.1c1.507 0 2.646-1.141 2.646-2.657v-5.104c0-.067-.002-.134-.004-.2.022.212.028.423.028.632v5.102c0 1.775-1.332 3.114-3.098 3.114zm-17.724 0h-12.198v-9.12c0-2.232 1.223-3.46 3.443-3.46h6.98v-5.44H156.4c-1.08 0-1.777-.701-1.777-1.785s.697-1.785 1.777-1.785h8.781c.214 0 .416.007.611.028a9.854 9.854 0 0 0-.182-.002h-8.783c-.687 0-1.322.372-1.322 1.33 0 .117.01.228.029.328a1.52 1.52 0 0 0-.003.1c0 .58.292.875.869.875h.127c.098.016.199.025.3.025h9.1v6.352h-7.433c-1.984 0-2.99 1.01-2.99 3.003v8.664h11.746c.67 0 1.288-.352 1.321-1.252.018.113.026.23.026.354 0 1.084-.697 1.785-1.776 1.785zm-19.045 0h-10.422c-1.08 0-1.777-.7-1.777-1.785 0-1.084.698-1.784 1.777-1.784h3.435v-14.452h-3.435c-1.08 0-1.777-.7-1.777-1.784s.698-1.785 1.777-1.785h6.987v18.02h1.659v-4.912c0-1.135.647-1.786 1.776-1.786.13 0 .256.01.373.026-.937.022-1.267.573-1.267 1.329v5.369h-2.567v-18.02h-6.533c-.688 0-1.322.372-1.322 1.33 0 .117.01.228.028.33a1.464 1.464 0 0 0-.003.099c0 .579.293.874.869.874h.127c.098.016.199.025.301.025h3.889v15.362h-3.889c-.688 0-1.322.372-1.322 1.33 0 .118.01.228.028.33a1.487 1.487 0 0 0-.003.099c0 .579.293.873.869.873h.127c.098.017.199.025.301.025h10.422c.688 0 1.322-.371 1.322-1.328v-6.643c.017.12.027.244.027.376v6.697c0 1.084-.698 1.785-1.777 1.785zm334.15-3.544h7.776v-6.353h-7.777v6.353zm.025-.025h6.868v-5.44h-6.868v5.44zm-38.117.025h7.777v-4.093h-7.777v4.093zm.026-.025h6.868v-3.182h-6.868v3.182zm-11.295.025h-6.11a1 1 0 0 1-.212-.025h5.44v-5.44h-7.803v-12.581h9.579c.12 0 .235.008.345.026h-9.042v11.667h7.803v6.353zm-74.943 0h-9.015v-6.353h7.458c.874 0 1.482-.133 2.143-.743.74-.691.82-1.409.82-2.366v-5.449c0-.116-.002-.23-.005-.338.025.25.03.506.03.769v5.449c0 .984-.072 1.866-.965 2.7-.78.72-1.516.866-2.45.866h-7.007v5.44h8.646c.12 0 .235.008.345.025zm-66.153 0h7.777v-6.353h-7.777v6.353zm.025-.025h6.87v-5.44h-6.87v5.44zm-38.116.025h7.777v-4.093h-7.777v4.093zm.025-.025h6.87v-3.182h-6.87v3.182zm-11.293.025H236a1 1 0 0 1-.212-.025h5.44v-5.44h-7.803v-12.581h9.58c.12 0 .235.008.344.026h-9.042v11.667h7.804v6.353zm-74.945 0h-9.015v-6.353h7.46c.873 0 1.482-.133 2.142-.743.74-.691.82-1.409.82-2.366v-5.449c0-.116 0-.227-.004-.335.025.249.03.504.03.766v5.449c0 .984-.073 1.866-.965 2.7-.781.72-1.517.866-2.452.866h-7.006v5.44h8.646c.12 0 .234.008.344.025zm285.547-6.75h-8.878v-8.612c.732 0 1.272-.485 1.32-1.224.019.105.028.215.028.325 0 .875-.535 1.547-1.322 1.734v7.75h8.38c.171 0 .327.009.472.026zm-190.457 0h-8.877v-8.612c.732 0 1.272-.485 1.32-1.223.019.105.028.214.028.324 0 .875-.535 1.547-1.323 1.734v7.75h8.382c.17 0 .326.009.47.026zm-56.889 0h-.025v-7.609c.016.114.025.233.025.357v7.251zm190.456 0h-.025v-7.607c.016.113.025.232.025.355v7.251zm-2.67 0h-5.132v-9.865c.017.113.026.23.026.354v9.484h4.223v-7.225c0-1.101.68-1.785 1.777-1.785.125 0 .245.01.359.027-.95.03-1.253.678-1.253 1.327v7.682zm-190.457 0h-5.13v-9.865c.015.113.024.23.024.354v9.484h4.224v-7.225c0-1.101.681-1.785 1.777-1.785.125 0 .246.01.359.027-.951.03-1.254.678-1.254 1.327v7.682zm-15.801-.618a3.628 3.628 0 0 0-.307-.313c.82-.745 1.032-1.516 1.032-2.578v-5.091c.016.136.024.276.024.419v5.102c0 .805-.1 1.651-.75 2.46zm190.455-.002a3.618 3.618 0 0 0-.307-.311c.82-.745 1.032-1.516 1.032-2.578v-5.09c.017.135.025.275.025.418v5.102c0 .805-.101 1.651-.75 2.46zm-135.352-1.638a9.614 9.614 0 0 0-.179-.002h-4.867v-6.352h6.481c.67 0 1.288-.354 1.322-1.254.017.114.026.232.026.355 0 1.084-.697 1.784-1.776 1.784h-6.027v5.441h4.414c.209 0 .411.008.606.028zm190.456 0a9.497 9.497 0 0 0-.178-.002h-4.868v-6.352h6.481c.67 0 1.29-.354 1.322-1.254.017.113.026.232.026.355 0 1.084-.697 1.784-1.777 1.784h-6.026v5.441h4.413c.21 0 .412.008.607.028zm-133.18-.002h-.027v-7.584c.016.107.026.218.026.333v7.251zm190.454 0h-.025v-7.581c.016.106.025.216.025.33v7.251zm-5.157 0h2.487v-6.352h-2.487v6.352zm.026-.026h1.58v-5.44h-1.58v5.44zm-190.48.026h2.486v-6.352h-2.487v6.352zm.024-.026h1.579v-5.44h-1.58v5.44z"/>
        <path fill="#B4B4B0" d="M214.645 335.72c-4.54 0-5.765-2.475-5.765-7.223 0-4.665 1.246-7.345 5.765-7.345 4.518 0 5.786 2.639 5.786 7.345 0 4.87-1.246 7.223-5.786 7.223zm-.29-13.834c-3.821 0-5.31 1.932-5.31 6.896 0 5.001 1.39 6.775 5.31 6.775 3.936 0 5.33-1.774 5.33-6.775 0-4.964-1.494-6.896-5.33-6.896zm-71.38 13.834c-4.372 0-5.344-2.578-5.344-7.244 0-4.787.951-7.324 5.343-7.324 1.5 0 3.105.265 4.034.45l-.064 1.33c-.95-.164-2.66-.369-3.8-.369-3.252 0-3.823 1.882-3.823 5.913 0 3.95.528 5.832 3.865 5.832 1.182 0 2.744-.184 3.758-.368l.064 1.35c-1.036.205-2.64.43-4.034.43zm-.29-13.834c-3.7 0-4.887 1.67-4.887 6.877 0 5.079 1.233 6.794 4.887 6.794 1.181 0 2.548-.17 3.56-.35l-.021-.454c-.999.155-2.293.289-3.327.289-4.003 0-4.32-2.722-4.32-6.28 0-3.604.315-6.362 4.277-6.362.942 0 2.328.14 3.37.294l.021-.44c-.888-.162-2.269-.368-3.56-.368zm204.594 13.63h-8.89v-14.161h8.89v1.391h-7.264v4.891h5.997v1.371h-5.997v5.116h7.264v1.391zm-8.725-13.427v13.264h7.98v-.496h-7.263v-6.011h5.996v-.475h-5.996v-5.786h7.263v-.496h-7.98zm-5.023 13.426h-1.626v-12.481h-.295l-4.245 11.97h-1.815l-4.245-11.97h-.296v12.481h-1.625v-14.16h2.935l4.138 11.972 4.138-11.972h2.936v14.16zm-2.533-12.645h1.073v12.483h.716v-13.264h-2.155l-4.41 12.753h.53l4.246-11.972zm-11.45-.78v13.263h.717V322.87h1.073l4.245 11.972h.53l-4.41-12.753h-2.154zm-3.734 13.425h-1.605l-1.056-3.643h-6.25l-1.055 3.643h-1.606l4.013-14.16h3.547l4.012 14.16zm-9.543-3.806h6.936l1.056 3.644h.663l-3.758-13.264h-2.858l-3.758 13.264h.663l1.056-3.644zm-5.598 3.806h-2.977l-5.68-12.769h-.402v12.77h-1.625v-14.161h3.04l5.596 12.769h.444v-12.77h1.604v14.161zm-9.802-12.93h1.153l5.68 12.768h2.225v-13.264h-.695v12.768h-1.197l-5.596-12.768h-2.287v13.264h.717v-12.768zm-16.783 12.93h-1.795l-2.64-5.422h-4.139v5.422h-1.626v-14.16h5.407c3.062 0 4.667 1.31 4.667 4.298 0 2.087-.845 3.54-2.683 4.112l2.81 5.75zm-9.318-5.586h4.88l2.64 5.424h.785l-2.722-5.573.5-.156c1.591-.497 2.364-1.703 2.364-3.686 0-2.661-1.3-3.849-4.212-3.849h-4.951v13.264h.716v-5.424zm-4.936 5.586h-8.89v-14.16h8.89v1.391h-7.264v4.891h5.997v1.371h-5.997v5.116h7.264v1.391zm-8.725-13.426v13.264h7.98v-.496h-7.263v-6.011h5.997v-.475h-5.997v-5.786h7.264v-.496h-7.98zm-9.836 13.426h-5.216v-14.16h5.216c4.244 0 5.406 2.866 5.406 6.875 0 4.052-1.1 7.285-5.406 7.285zm-5.05-13.426v13.264h4.76c3.424 0 4.95-2.108 4.95-6.836 0-4.505-1.48-6.428-4.95-6.428h-4.76zm-3.502 13.426h-8.047v-14.16h1.627v12.748h6.42v1.412zm-7.88-13.426v13.264h7.135v-.516h-6.42V322.09h-.715zm-20.226 13.426h-1.606v-6.404h-7.433v6.404h-1.626v-14.16h1.626v6.344h7.433v-6.344h1.606v14.16zm-9.783-6.567h8.342v6.405h.696v-13.264h-.696v6.345h-8.342v-6.345h-.716v13.264h.716v-6.405zm-10.554 6.567h-5.215v-14.16h5.215c4.245 0 5.407 2.866 5.407 6.875 0 4.052-1.1 7.285-5.407 7.285zm-5.049-13.426v13.264h4.76c3.424 0 4.952-2.108 4.952-6.836 0-4.505-1.481-6.428-4.952-6.428h-4.76zm-4.242 13.426h-1.795l-2.64-5.422h-4.138v5.422h-1.626v-14.16h5.406c3.062 0 4.667 1.31 4.667 4.298 0 2.087-.845 3.54-2.683 4.112l2.81 5.75zm-9.318-5.586h4.881l2.639 5.424h.785l-2.722-5.573.5-.157c1.591-.496 2.364-1.702 2.364-3.685 0-2.661-1.299-3.849-4.211-3.849h-4.951v13.264h.715v-5.424zm-4.45 5.586h-1.605l-1.055-3.643h-6.252l-1.054 3.643h-1.606l4.012-14.16h3.549l4.011 14.16zm-9.543-3.806h6.936l1.056 3.644h.663l-3.758-13.264h-2.858l-3.758 13.264h.663l1.056-3.644zm62.679 3.354c-3.79 0-4.552-2.404-4.552-6.281 0-3.843.775-6.403 4.552-6.403 3.777 0 4.551 2.56 4.551 6.403 0 4.073-.724 6.281-4.551 6.281zm.29-12.52c-3.359 0-4.097 2.107-4.097 5.954 0 3.867.718 5.831 4.097 5.831 3.4 0 4.096-1.84 4.096-5.83 0-3.828-.76-5.955-4.096-5.955zm26.339 12.314h-4.045v-12.272h4.045c3.757 0 4.192 3.384 4.192 5.932 0 4.207-1.411 6.34-4.192 6.34zm-3.302-12.11v11.377h3.591c3.04 0 3.738-2.824 3.738-5.894 0-3.068-.698-5.484-3.738-5.484h-3.59zm-53.693 12.11h-4.044v-12.272h4.044c3.758 0 4.193 3.384 4.193 5.932 0 4.207-1.41 6.34-4.193 6.34zm-3.3-12.11v11.377h3.59c3.04 0 3.738-2.824 3.738-5.894 0-3.068-.698-5.484-3.739-5.484h-3.59zm132.417 8.448h-6.734l2.474-8.652h1.786l2.474 8.652zm-3.627-8.49l-2.217 7.756h5.533l-2.218-7.755h-1.098zm-150.968 8.49h-6.735l2.475-8.652h1.786l2.474 8.652zm-3.627-8.49l-2.217 7.756h5.532l-2.217-7.755h-1.098zm114.142 6.73h-4.256v-6.85h4.235c2.291 0 3.454 1.127 3.454 3.353 0 2.255-1.219 3.497-3.433 3.497zm-3.512-6.689v5.956h3.801c2.196 0 2.978-1.27 2.978-3.05 0-1.943-.95-2.906-2.998-2.906h-3.78zm-95.589 6.69h-4.256v-6.851h4.236c2.29 0 3.453 1.127 3.453 3.353 0 2.255-1.219 3.497-3.433 3.497zm-3.51-6.69v5.956h3.8c2.196 0 2.977-1.27 2.977-3.05 0-1.943-.95-2.906-2.998-2.906h-3.78zm179.043-15.645h-5.346c-.108 0-.214-.009-.316-.026h5.233c.776 0 1.363-.578 1.363-1.345v-10.367c0-.74-.611-1.343-1.363-1.343h-5.347c-.752 0-1.365.602-1.365 1.343v10.252a1.815 1.815 0 0 1-.025-.308V294.94c0-.985.818-1.793 1.82-1.793h5.256c.982.145 1.761.913 1.909 1.882v10.278c0 1.005-.783 1.794-1.82 1.794zm-13.094 0h-5.347c-.108 0-.213-.009-.315-.026h5.233c.776 0 1.363-.578 1.363-1.345v-10.367c0-.74-.612-1.343-1.363-1.343h-5.347c-.753 0-1.365.602-1.365 1.343v10.252a1.933 1.933 0 0 1-.025-.308V294.94c0-.985.819-1.793 1.82-1.793h5.256c.982.145 1.76.913 1.909 1.88v10.28c0 1.005-.783 1.794-1.82 1.794zm-19.351 0a.903.903 0 0 1-.275-.045c.103-.036.197-.132.342-.382l6.986-11.788a.931.931 0 0 0 .14-.471c0-.211-.206-.395-.438-.395-.177 0-.274.09-.502.463l-6.859 11.585c-.099.156-.202.316-.25.462a.752.752 0 0 1-.053-.273c0-.34.218-.646.4-.932l6.803-11.496c.195-.324.393-.617.762-.673.497.114.896.5 1.012.979a1.455 1.455 0 0 1-.194.555l-6.982 11.782c-.218.376-.436.629-.892.629zm-6.837 0h-5.347c-.108 0-.214-.009-.316-.026h5.233c.778 0 1.364-.578 1.364-1.345v-10.367c0-.74-.612-1.343-1.364-1.343H300.4c-.751 0-1.364.602-1.364 1.343v10.252a1.815 1.815 0 0 1-.025-.308V294.94c0-.985.819-1.793 1.819-1.793h5.256c.982.145 1.76.91 1.909 1.878v10.282c0 1.005-.782 1.794-1.818 1.794zm-13.094 0h-5.348c-.108 0-.212-.009-.315-.026h5.233c.777 0 1.363-.578 1.363-1.345v-10.367c0-.74-.61-1.343-1.363-1.343h-5.347c-.752 0-1.364.602-1.364 1.343v10.256a1.853 1.853 0 0 1-.026-.312V294.94c0-.985.82-1.793 1.82-1.793h5.256a2.265 2.265 0 0 1 1.91 1.882v10.278c0 1.005-.783 1.794-1.82 1.794zm46.144-.921h6.258v-11.264h-6.258v11.264zm.886-.873h5.346V294.94h-5.346v10.367zm-13.98.873h6.257v-11.264h-6.257v11.264zm.885-.873h5.347V294.94h-5.347v10.367zm-27.073.873h6.257v-11.264h-6.257v11.264zm.885-.873h5.347V294.94h-5.347v10.367zm-13.979.873h6.256v-11.264h-6.256v11.264zm.884-.873h5.348V294.94h-5.348v10.367zm204.02-26.128h-7.797c-.149 0-.293-.009-.431-.025H491.325c1.375 0 2.196-.81 2.196-2.166v-6.225c0-.695-.192-1.228-.573-1.582-.435-.405-.981-.611-1.623-.611h-.456v-8.006c0-.203-.062-.86-.87-.86h-5.146c-.808 0-.87.657-.87.86v8.006h-.455c-.644 0-1.19.206-1.624.61-.381.355-.573.888-.573 1.583v6.226a3.377 3.377 0 0 1-.026-.425v-6.224c0-.811.24-1.465.716-1.909.478-.445 1.115-.732 1.936-.732v-7.558c0-.68.425-1.308 1.326-1.308h5.046c.763.119 1.304.653 1.425 1.406v7.46h.025a3.12 3.12 0 0 1 1.793.828c.468.436.75 1.042.834 1.773v6.264c0 1.595-1.009 2.615-2.652 2.615zm-22.939 0c-.13 0-.25-.009-.358-.026.596-.016.8-.24.8-.858v-5.073c0-1.055.112-1.222.896-1.906l3.716-3.168c.56-.471.56-.471.559-1.217v-7.226h-11.32c-.616 0-.872.56-.872.859v1.122a1.138 1.138 0 0 1-.025-.238v-1.307c0-.576.477-1.308 1.326-1.308h11.775v7.584c0 .915.027 1.02-.717 1.648l-3.711 3.164c-.69.602-.744.654-.744 1.57v5.073c0 .836-.37 1.307-1.325 1.307zm-14.322 0h-9.652c-.169 0-.323-.008-.464-.025h9.688c.996 0 1.27-.257 1.27-1.199v-5.858c0-1.096-.182-1.304-1.138-1.304h-9.312v-9.369h.455c.528 0 .87-.339.87-.86 0-.45-.376-.86-.79-.86h-1.593c-.223 0-.685 0-.685.86v17.404a3.395 3.395 0 0 1-.026-.436v-17.39c0-.603.213-1.31 1.142-1.31h1.442c.693.125 1.259.701 1.392 1.412-.048.728-.589 1.204-1.323 1.204v8.474H454.669c1.073.129 1.45.725 1.547 1.603l.001.15v5.857c0 1.23-.53 1.647-1.724 1.647zm-20.312 0h-5.888a3.29 3.29 0 0 1-.413-.025h5.87c.93 0 1.432-.105 1.958-.728.455-.533.532-.972.532-1.752v-5.597c0-.866-.067-1.335-.677-1.894-.543-.513-1.076-.613-1.813-.613h-5.334v-7.146h6.951c.58 0 .873-.29.873-.86 0-.57-.293-.86-.873-.86h-8.693v10.585h7.823v7.148h-6.581c-.423 0-.903-.233-1.287-.42-.109-.054-.21-.104-.298-.141l-.797-.34c-.251-.114-.43-.172-.668-.172-.39 0-.75.34-.81.742a1.35 1.35 0 0 1-.033-.307c0-.654.542-1.26 1.198-1.304.24.04.454.118.683.22l.788.338c.098.042.213.098.34.159.267.13.673.328.884.328h.217c.074.015.146.024.213.024h6.125v-6.25h-7.823v-11.481h9.066c.77.116 1.289.625 1.409 1.382-.033.885-.654 1.233-1.325 1.233H429.3v6.25h4.88c.061 0 .12.002.179.003.66.07 1.248.281 1.828.83.654.598.867 1.181.933 1.823.003.096.004.196.004.3v5.596c0 .811-.08 1.386-.637 2.04-.663.785-1.352.889-2.306.889zm-37.898 0c-.13 0-.249-.009-.358-.026.596-.016.8-.24.8-.858v-5.783h.455c.578 0 .871-.29.871-.86 0-.57-.293-.86-.871-.86h-.456v-8.005c0-.77-.496-.86-.87-.86s-.871.09-.871.86v8.006h-6.055v-10.23c0-.769-.498-.858-.872-.858-.373 0-.87.089-.87.859v11.948h7.797v5.709a2.212 2.212 0 0 1-.025-.349v-5.335h-7.798V260.14c0-.639.304-1.277 1.257-1.307.774.116 1.28.617 1.396 1.382v9.706h5.145v-7.559c0-.639.304-1.278 1.256-1.306.774.116 1.279.617 1.396 1.38v7.485h.024v.019c.71.146 1.186.642 1.3 1.363-.033.887-.654 1.233-1.324 1.233v5.335c0 .836-.372 1.307-1.327 1.307zm-19.094 0h-9.122c-.103 0-.204-.008-.303-.025h8.994c1.253 0 2.197-.931 2.197-2.166v-5.021c0-1.047-.228-1.624-.883-2.204l-.373-.333.373-.333c.655-.582.883-1.158.883-2.204v-5.02c0-1.237-.944-2.168-2.197-2.168h-9.121c-.544 0-.836.256-.87.76a1.803 1.803 0 0 1-.027-.324c0-.942.636-1.308 1.327-1.308h9.11c1.423.172 2.49 1.224 2.665 2.628v5.008c0 1.046-.213 1.805-1.036 2.537.115.101.216.204.308.307-.031.04-.065.079-.1.117.559.626.76 1.278.824 1.916.003.065.004.13.004.196v5.022c0 1.492-1.141 2.615-2.653 2.615zm-17.768 0h-11.775v-8.526c0-1.96 1.007-2.954 2.996-2.954h7.452v-6.25h-9.122c-.103 0-.204-.01-.301-.025h9.45v7.146h-7.909c-1.733 0-2.541.797-2.541 2.507v8.077h11.32c.578 0 .872-.29.872-.859 0-.57-.294-.858-.871-.858h-9.579v-7.148h7.934c.772 0 1.268-.095 1.84-.614.578-.528.676-1.044.676-1.997v-5.362c0-.954-.098-1.468-.677-1.998-.571-.519-1.067-.613-1.839-.613h-8.805c-.544 0-.835.255-.868.76a1.782 1.782 0 0 1-.028-.324c0-.942.636-1.308 1.326-1.308h8.804c.063 0 .124 0 .184.002.662.067 1.24.277 1.843.823.657.601.87 1.228.939 1.901.003.108.004.22.004.333v5.362c0 .942-.079 1.648-.822 2.328-.663.6-1.271.732-2.148.732h-7.477v6.25h9.038c.77.116 1.288.625 1.408 1.383-.033.886-.654 1.232-1.324 1.232zm-19.094 0h-10.45c-.101 0-.203-.008-.301-.025h10.32c.578 0 .872-.29.872-.859v-6.59c0-.618-.244-.86-.871-.86-.626 0-.871.242-.871.86v5.732h-3.48v-17.732h-6.097c-.546 0-.837.257-.868.764-.02-.1-.03-.21-.03-.328 0-.942.637-1.308 1.326-1.308h6.551v17.731h2.573v-5.283c0-.744.331-1.286 1.27-1.307.783.113 1.269.593 1.382 1.367v6.531c0 .942-.637 1.307-1.326 1.307zm-39.515 0h-7.796c-.15 0-.294-.009-.432-.025H300.383c1.376 0 2.197-.81 2.197-2.166v-6.225c0-.695-.192-1.228-.573-1.582-.434-.405-.98-.611-1.624-.611h-.455v-8.006c0-.203-.062-.86-.87-.86h-5.146c-.809 0-.871.657-.871.86v8.006h-.455c-.643 0-1.19.206-1.624.61-.38.355-.573.888-.573 1.583v6.226a3.377 3.377 0 0 1-.026-.425v-6.224c0-.811.239-1.465.717-1.909.477-.445 1.113-.732 1.936-.732v-7.558c0-.68.424-1.308 1.325-1.308h5.045c.763.119 1.304.652 1.426 1.403v7.463h.026c.69.084 1.292.362 1.794.83.465.433.749 1.037.832 1.765V276.564c0 1.595-1.007 2.615-2.652 2.615zm-22.939 0c-.13 0-.249-.009-.358-.026.596-.016.8-.24.8-.858v-5.073c0-1.055.112-1.222.895-1.906l3.717-3.168c.56-.471.56-.471.56-1.217v-7.226h-11.32c-.617 0-.873.56-.873.859v1.12a1.196 1.196 0 0 1-.024-.236v-1.307c0-.576.477-1.308 1.325-1.308h11.775v7.584c0 .915.027 1.02-.715 1.648l-3.713 3.164c-.69.602-.743.654-.743 1.57v5.073c0 .836-.371 1.307-1.326 1.307zm-14.32 0h-9.654c-.169 0-.322-.008-.463-.025h9.687c.996 0 1.268-.257 1.268-1.199v-5.858c0-1.096-.18-1.304-1.135-1.304h-9.313v-9.369h.455c.529 0 .87-.339.87-.86 0-.45-.377-.86-.79-.86h-1.592c-.222 0-.685 0-.685.86v17.403a3.378 3.378 0 0 1-.026-.435v-17.39c0-.603.212-1.31 1.14-1.31h1.442c.694.125 1.26.701 1.393 1.413-.048.727-.589 1.203-1.323 1.203v8.474h8.899c1.077.129 1.452.727 1.549 1.61v6c0 1.23-.53 1.647-1.722 1.647zm-20.315 0h-5.887c-.149 0-.285-.009-.412-.025h5.87c.928 0 1.43-.105 1.958-.728.454-.533.53-.972.53-1.752v-5.597c0-.866-.066-1.336-.676-1.894-.543-.513-1.075-.613-1.812-.613h-5.335v-7.146h6.953c.577 0 .87-.29.87-.86 0-.57-.293-.86-.87-.86h-8.695v10.585h7.823v7.148h-6.58c-.424 0-.903-.233-1.288-.42-.109-.054-.21-.104-.298-.14l-.796-.34c-.253-.115-.43-.173-.669-.173-.39 0-.749.34-.81.742a1.35 1.35 0 0 1-.033-.307c0-.654.541-1.26 1.197-1.304.241.04.455.118.683.22l.788.338c.1.042.216.098.341.159.268.13.673.328.884.328h.217c.075.015.146.024.213.024h6.127v-6.25h-7.824v-11.481h9.065c.77.116 1.29.625 1.409 1.382-.034.885-.654 1.233-1.325 1.233h-6.498v6.25h4.88l.18.003c.659.07 1.247.281 1.827.83.654.598.867 1.181.933 1.823.003.096.004.196.004.3v5.596c0 .811-.08 1.386-.637 2.04-.663.785-1.353.889-2.307.889zm-37.896 0c-.13 0-.25-.009-.358-.026.596-.016.8-.24.8-.858v-5.783h.454c.578 0 .871-.29.871-.86 0-.57-.293-.86-.87-.86h-.455v-8.005c0-.77-.498-.86-.872-.86s-.87.09-.87.86v8.006h-6.056v-10.23c0-.769-.497-.858-.871-.858s-.87.089-.87.859v11.948h7.796v5.712a2.24 2.24 0 0 1-.026-.352v-5.335h-7.796V260.14c0-.64.304-1.279 1.257-1.307.773.116 1.28.617 1.395 1.382v9.706h5.144v-7.559c0-.639.304-1.278 1.257-1.306.773.116 1.278.615 1.396 1.378v7.487h.025v.019c.709.146 1.185.642 1.3 1.363-.034.887-.655 1.233-1.325 1.233v5.335c0 .836-.371 1.307-1.326 1.307zm-19.095 0h-9.122c-.103 0-.204-.008-.302-.025h8.996c1.252 0 2.197-.931 2.197-2.166v-5.021c0-1.047-.232-1.624-.885-2.204l-.374-.333.374-.333c.653-.582.885-1.158.885-2.204v-5.02c0-1.237-.945-2.168-2.197-2.168h-9.124c-.544 0-.835.256-.868.76a1.794 1.794 0 0 1-.028-.324c0-.942.636-1.308 1.326-1.308h9.112c1.423.172 2.488 1.224 2.663 2.627v5.01c0 1.045-.213 1.804-1.034 2.536.113.101.216.204.307.308a3.16 3.16 0 0 1-.099.116c.557.625.758 1.276.823 1.915.002.065.003.131.003.197v5.022c0 1.492-1.141 2.615-2.653 2.615zm-17.767 0h-11.776v-8.526c0-1.96 1.008-2.954 2.997-2.954h7.453v-6.25h-9.124c-.101 0-.203-.01-.301-.025h9.45v7.146h-7.907c-1.734 0-2.542.797-2.542 2.507v8.077h11.32c.579 0 .871-.29.871-.859 0-.57-.292-.858-.871-.858h-9.578v-7.148h7.934c.772 0 1.267-.095 1.84-.614.577-.528.675-1.044.675-1.997v-5.362c0-.954-.098-1.468-.677-1.998-.57-.519-1.066-.613-1.838-.613h-8.804c-.544 0-.836.255-.868.76a1.687 1.687 0 0 1-.03-.324c0-.942.637-1.308 1.326-1.308h8.805c.063 0 .123 0 .183.002.664.067 1.241.277 1.844.823.657.602.871 1.23.939 1.904.003.107.004.217.004.33v5.362c0 .942-.08 1.648-.822 2.328-.662.6-1.272.732-2.148.732h-7.479v6.25h9.038c.771.116 1.29.625 1.41 1.383-.033.886-.653 1.232-1.324 1.232zm-19.095 0h-10.448c-.103 0-.204-.008-.303-.025h10.322c.578 0 .871-.29.871-.859v-6.59c0-.618-.245-.86-.87-.86-.628 0-.872.242-.872.86v5.732h-3.483v-17.732h-6.095c-.544 0-.836.256-.868.76a1.803 1.803 0 0 1-.028-.324c0-.942.636-1.308 1.326-1.308h6.55v17.731h2.572v-5.283c0-.744.332-1.286 1.27-1.307.782.113 1.268.59 1.382 1.362v6.536c0 .942-.636 1.307-1.326 1.307zm127.187-.958a2.198 2.198 0 0 1-.025-.349v-6.303c0-.864.027-.941.69-1.517l3.66-3.112c.874-.758.822-.732.822-1.882v-3.61h-7.798c0 .575-.477 1.308-1.326 1.308-.107 0-.208-.012-.303-.034.525-.07.745-.572.745-.85v-.448h8.707v4.241c.003 1.109-.06 1.242-.977 2.035l-3.663 3.115c-.532.461-.532.461-.532 1.178v6.228zm190.942 0a2.208 2.208 0 0 1-.026-.349v-6.303c0-.864.027-.941.69-1.517l3.66-3.112c.874-.758.821-.732.821-1.882v-3.61h-7.795c0 .575-.479 1.308-1.327 1.308-.107 0-.208-.012-.303-.034.524-.07.744-.572.744-.85v-.448h8.707v4.241c.004 1.109-.06 1.242-.976 2.035l-3.664 3.115c-.53.461-.53.461-.53 1.178v6.228zm-138.933-.02c-.02-.1-.03-.21-.03-.329 0-.942.637-1.308 1.326-1.308h3.899v-15.116h-3.899c-.101 0-.203-.008-.301-.024h4.224v16.013h-4.351c-.546 0-.837.257-.868.764zm-152.754-.004a1.786 1.786 0 0 1-.028-.325c0-.942.636-1.308 1.326-1.308h9.122v-4.342-.094c.017.16.026.332.026.52v4.789h-9.578c-.544 0-.835.256-.868.76zm190.94 0a1.794 1.794 0 0 1-.027-.325c0-.942.636-1.308 1.327-1.308h9.122v-4.342-.09c.016.159.025.33.025.515v4.79h-9.577c-.544 0-.836.256-.87.76zm-229.128 0a1.794 1.794 0 0 1-.028-.325c0-.942.636-1.308 1.326-1.308h3.898v-15.116h-3.898c-.103 0-.204-.008-.303-.024h4.227v16.013h-4.354c-.544 0-.836.256-.868.76zm345.434-.76h8.706v-7.148h-8.706v7.148zm.884-.873h7.797v-6.25h-7.797v6.25zm-39.072.873h8.706v-4.925h-8.706v4.925zm.884-.873h7.797v-4.027h-7.797v4.027zm-153.638.873h8.707v-7.148h-8.707v7.148zm.885-.873h7.796v-6.25h-7.796v6.25zm-39.073.873h8.707v-4.925h-8.707v4.925zm.884-.873h7.797v-4.027h-7.797v4.027zm120.926-6.25h-5.088c-.102 0-.204-.008-.302-.025h5.07c.098 0 .207.006.32.025zm-190.94 0h-5.09c-.102 0-.204-.008-.302-.025h5.071c.098 0 .207.006.32.025zm184.555-.983a1.69 1.69 0 0 1-.03-.325c0-.94.637-1.307 1.327-1.307h5.197c.743 0 1.327-.445 1.327-1.91v-4.34h-9.122c-.103 0-.204-.01-.303-.025h9.45v4.79c0 2.05-1.115 2.356-1.781 2.356h-5.199c-.543 0-.834.256-.866.76zm-190.942 0a1.794 1.794 0 0 1-.028-.325c0-.94.636-1.307 1.325-1.307h5.199c.742 0 1.325-.445 1.325-1.91v-4.34h-9.122c-.103 0-.204-.01-.302-.025h9.45v4.79c0 2.05-1.116 2.356-1.781 2.356h-5.197c-.544 0-.836.255-.87.76zm307.299-.761h3.403v-7.146h-3.403v7.146zm.884-.871h2.494v-6.25h-2.494v6.25zm-191.826.87h3.403v-7.145h-3.403v7.146zm.885-.87h2.493v-6.25h-2.493v6.25z"/>
        <path fill="#C8C8C3" d="M279.27 299.476v4.063c0 .907-.523 1.259-1.45 1.259-.875 0-1.39-.352-1.39-1.26v-4.062h-.66v4.046c0 1.336.746 1.848 2.05 1.848 1.356 0 2.102-.521 2.102-1.848v-4.046h-.652zm-6.538 3.015h-1.543v-2.443h1.536c.832 0 1.218.394 1.218 1.191 0 .73-.318 1.252-1.21 1.252zm1.889-1.252c0-1.226-.652-1.763-1.896-1.763h-2.197v5.81h.661v-2.225h1.68l1.074 2.225h.73l-1.142-2.359c.746-.235 1.09-.832 1.09-1.688zm-6.203.84h-3.02v-2.603h-.661v5.81h.66v-2.628h3.021v2.628h.651v-5.81h-.65v2.603zm-8.811-2.023h1.827v5.23h.652v-5.23h1.81v-.58h-4.289v.58zm16.742-8.28h1.415c1.198 0 1.473.993 1.473 2.254 0 1.26-.275 2.42-1.473 2.42h-1.415v-4.673zm3.545 2.254c0-1.647-.458-2.824-2.13-2.824h-2.056v5.817h2.056c1.698 0 2.13-1.329 2.13-2.993zm-6.234 2.993h.641v-5.817h-.641v5.817zm-.816-.58h-2.53v-5.237h-.641v5.817h3.17v-.58zm-6.576-4.682h.432l.874 3.185h-2.18l.874-3.185zm-1.015 3.765h2.464l.416 1.497h.633l-1.582-5.817h-1.4l-1.581 5.817h.634l.416-1.497zm-3.205.924h-.466l-1.324-5.244h-.666l1.507 5.817h1.431l1.508-5.817h-.666l-1.324 5.244zM163.956 292.485v-2.754h-1.01v2.754h-3.132l2.503-6.19h-1.101l-2.464 6.298v.803h4.194v1.723h1.01v-1.723h1.1v-.911h-1.1zm-8.1-2.032c.249-.16 1.284-.627 1.284-2.006 0-1.564-.72-2.3-2.766-2.3-1.31 0-2.542.375-2.542.375l.091.816s1.219-.268 2.412-.268c1.284 0 1.77.415 1.77 1.418 0 1.017-.918 1.604-1.574 1.604h-1.743v.883h1.743c.984.04 1.783.44 1.783 1.658 0 1.136-.59 1.697-1.874 1.711-1.233 0-2.647-.294-2.647-.294l-.093.842s1.482.36 2.844.36c1.954 0 2.805-.881 2.805-2.66 0-1.43-.616-1.818-1.494-2.139zm-7.904 1.376c1.219-1.202 1.809-1.978 1.809-3.3 0-1.658-.918-2.368-2.74-2.368-1.259 0-2.503.361-2.503.361l.078.857s1.285-.295 2.242-.295c1.245 0 1.887.375 1.887 1.55 0 1.044-.668 1.766-1.743 2.902l-2.53 2.714v.869h5.53v-.895h-4.337l2.307-2.395zm-10.341-3.662l.458.776 2.228-1.498v7.674h1.01v-8.823h-.943l-2.753 1.871z"/>
        <path fill="#AEB7C8" d="M141.806 178.91c-3.44 0-6.228 2.89-6.228 6.457v42.73c0 3.566 2.788 6.456 6.228 6.456h47.519c3.44 0 6.227-2.89 6.227-6.456v-42.73c0-3.567-2.787-6.456-6.227-6.456h-47.52z"/>
        <path fill="url(#J)" d="M42.66 33.713h18.908V22.63H42.661v11.083zm13.374-31.79H42.661v8.347h18.907V7.567c0-3.118-2.478-5.645-5.534-5.645zM42.661 44.27h18.907v-9.84H42.661v9.84zm-.703-42.348H21.863V44.27h20.095V21.913h19.61V10.988h-19.61V1.922zM2.61 33.713h18.548V22.63H2.611v11.083zm0-11.8h18.548V10.988H2.611v10.925zm0 27.983c0 3.118 2.477 5.645 5.533 5.645h47.89c3.056 0 5.534-2.527 5.534-5.645v-4.908H2.611v4.908zM21.159 1.922H8.144c-3.056 0-5.533 2.527-5.533 5.645v2.703h18.548V1.922zM2.611 44.27h18.548v-9.84H2.611v9.84z" transform="translate(135 178)"/>
    </g>
</svg>
