<svg xmlns="http://www.w3.org/2000/svg" xmlns:xlink="http://www.w3.org/1999/xlink" width="55" height="56" viewBox="0 0 55 56">
    <defs>
        <path id="a" d="M.14 15.398c0 6.022 2.434 11.47 6.362 15.405L21.73 15.457 6.443.05A21.736 21.736 0 0 0 .141 15.398"/>
        <linearGradient id="b" x1="55.484%" x2="38.819%" y1="74.029%" y2="26.567%">
            <stop offset="0%" stop-color="#FFF"/>
            <stop offset="100%" stop-color="#E8EDFB"/>
        </linearGradient>
        <path id="d" d="M.14 15.398c0 6.022 2.434 11.47 6.362 15.405L21.73 15.457 6.443.05A21.736 21.736 0 0 0 .141 15.398"/>
    </defs>
    <g fill="none" fill-rule="evenodd">
        <path fill="#D2D8EE" d="M54.678 27.941c0 15.283-12.234 27.673-27.325 27.673C12.263 55.614.03 43.224.03 27.94.03 12.66 12.263.27 27.353.27c15.091 0 27.325 12.39 27.325 27.672"/>
        <path fill="#8697D1" d="M50.046 27.941c0 12.693-10.16 22.982-22.692 22.982-12.533 0-22.694-10.289-22.694-22.982C4.66 15.25 14.82 4.96 27.354 4.96c12.532 0 22.692 10.289 22.692 22.981"/>
        <path fill="#FFF" d="M48.889 27.941c0 12.045-9.642 21.81-21.536 21.81-11.893 0-21.535-9.765-21.535-21.81 0-12.045 9.642-21.809 21.535-21.809 11.894 0 21.536 9.764 21.536 21.81"/>
        <g transform="translate(6.111 12.33)">
            <mask id="c" fill="#fff">
                <use xlink:href="#a"/>
            </mask>
            <path fill="url(#b)" d="M.14 15.398c0 6.022 2.434 11.47 6.362 15.405L21.73 15.457 6.443.05A21.736 21.736 0 0 0 .141 15.398" mask="url(#c)"/>
        </g>
        <g transform="translate(6.111 12.33)">
            <mask id="e" fill="#fff">
                <use xlink:href="#d"/>
            </mask>
            <path d="M.14 15.398c0 6.022 2.434 11.47 6.362 15.405L21.73 15.457 6.443.05A21.736 21.736 0 0 0 .141 15.398" mask="url(#e)"/>
        </g>
        <path fill="#8697D1" d="M27.425 14.811c-.22 0-.4.175-.41.396l-.681 13.784h2.182l-.68-13.784a.412.412 0 0 0-.41-.396"/>
        <path fill="#FF7E59" d="M15.668 16.206a.417.417 0 0 0-.012.573L26.07 28.257l1.543-1.557-11.378-10.506a.408.408 0 0 0-.568.012"/>
        <path fill="#FFF" d="M29.52 28.022a2.105 2.105 0 0 1-2.095 2.114 2.105 2.105 0 0 1-2.095-2.114c0-1.167.938-2.113 2.095-2.113 1.157 0 2.096.946 2.096 2.113"/>
        <path fill="#D2D8EE" d="M29.011 28.022c0 .884-.71 1.6-1.586 1.6a1.593 1.593 0 0 1-1.586-1.6c0-.883.71-1.6 1.586-1.6.876 0 1.586.717 1.586 1.6"/>
        <path fill="#E9EEFB" d="M28.618 10.121c0 .665-.534 1.204-1.193 1.204a1.198 1.198 0 0 1-1.193-1.204c0-.665.534-1.204 1.193-1.204.66 0 1.193.54 1.193 1.204M28.618 45.924c0 .664-.534 1.203-1.193 1.203a1.198 1.198 0 0 1-1.193-1.203c0-.665.534-1.204 1.193-1.204.66 0 1.193.539 1.193 1.204M9.68 26.819c.659 0 1.193.538 1.193 1.204 0 .664-.534 1.203-1.193 1.203a1.198 1.198 0 0 1-1.194-1.203c0-.666.535-1.204 1.194-1.204M45.17 26.819c.66 0 1.194.538 1.194 1.204 0 .664-.534 1.203-1.193 1.203a1.198 1.198 0 0 1-1.194-1.203c0-.666.535-1.204 1.194-1.204M19.586 11.918a1.21 1.21 0 0 1-.437 1.644c-.57.332-1.3.135-1.63-.44a1.21 1.21 0 0 1 .437-1.645c.57-.332 1.3-.135 1.63.44M37.331 42.923a1.21 1.21 0 0 1-.436 1.645c-.571.332-1.301.135-1.63-.44a1.21 1.21 0 0 1 .436-1.645c.571-.333 1.3-.135 1.63.44M11.46 35.93c.571-.332 1.3-.134 1.63.44a1.21 1.21 0 0 1-.436 1.645c-.57.333-1.3.135-1.63-.44a1.21 1.21 0 0 1 .436-1.644M42.196 18.03c.571-.333 1.301-.136 1.63.44a1.21 1.21 0 0 1-.436 1.644c-.57.332-1.3.135-1.63-.44a1.21 1.21 0 0 1 .436-1.645M12.654 18.03a1.21 1.21 0 0 1 .436 1.644c-.33.575-1.059.772-1.63.44a1.21 1.21 0 0 1-.436-1.644 1.188 1.188 0 0 1 1.63-.44M43.39 35.93a1.21 1.21 0 0 1 .436 1.645c-.329.575-1.059.773-1.63.44a1.21 1.21 0 0 1-.436-1.644 1.188 1.188 0 0 1 1.63-.44M17.519 42.923a1.187 1.187 0 0 1 1.63-.44 1.21 1.21 0 0 1 .437 1.644c-.33.576-1.06.773-1.63.44a1.21 1.21 0 0 1-.437-1.644M35.264 11.918a1.187 1.187 0 0 1 1.63-.44 1.21 1.21 0 0 1 .437 1.643c-.33.576-1.059.773-1.63.44a1.21 1.21 0 0 1-.437-1.643"/>
        <path fill="#FFF" d="M12.194 8.88c-2.387-.008-3.655-1.16-3.647-3.7h-.095c-.008 2.54-1.303 3.684-3.67 3.676a.278.278 0 0 0 .002.095c2.364.008 3.653 1.286 3.645 3.7.03.003.066.008.094 0 .008-2.414 1.283-3.682 3.667-3.676l.004-.095"/>
    </g>
</svg>
