<svg xmlns="http://www.w3.org/2000/svg" xmlns:xlink="http://www.w3.org/1999/xlink" width="390" height="478" viewBox="0 0 390 478">
    <defs>
        <path id="a" d="M57.249 14.123C48.24 26.538 5.947 96.111 1.557 103.703c-2.457 4.251-.731 8.614 4.682 8.614l59.688-1.06L78.716.26c-6.531 1.665-15.364 5.453-21.467 13.864z"/>
        <path id="c" d="M57.249 14.123C48.24 26.538 5.947 96.111 1.557 103.703c-2.457 4.251-.731 8.614 4.682 8.614l59.688-1.06L78.716.26c-6.531 1.665-15.364 5.453-21.467 13.864z"/>
        <path id="e" d="M57.249 14.123C48.24 26.538 5.947 96.111 1.557 103.703c-2.457 4.251-.731 8.614 4.682 8.614l59.688-1.06L78.716.26c-6.531 1.665-15.364 5.453-21.467 13.864z"/>
        <path id="g" d="M57.249 14.123C48.24 26.538 5.947 96.111 1.557 103.703c-2.457 4.251-.731 8.614 4.682 8.614l59.688-1.06L78.716.26c-6.531 1.665-15.364 5.453-21.467 13.864z"/>
        <path id="i" d="M57.249 14.123C48.24 26.538 5.947 96.111 1.557 103.703c-2.457 4.251-.731 8.614 4.682 8.614l59.688-1.06L78.716.26c-6.531 1.665-15.364 5.453-21.467 13.864"/>
        <path id="k" d="M57.249 14.123C48.24 26.538 5.947 96.111 1.557 103.703c-2.457 4.251-.731 8.614 4.682 8.614l59.688-1.06L78.716.26c-6.531 1.665-15.364 5.453-21.467 13.864"/>
        <path id="m" d="M133.452.777C115.272 1.995 22.003 8.065 13.575 8.72L.76 120.889l138.14-2.473c1.762-.03 3.151-1.522 3.068-3.294L136.729 3.727c-.078-1.665-1.438-2.957-3.07-2.957-.068 0-.137.002-.207.007z"/>
        <path id="o" d="M133.452.777C115.272 1.995 22.003 8.065 13.575 8.72L.76 120.889l138.14-2.473c1.762-.03 3.151-1.522 3.068-3.294L136.729 3.727c-.078-1.665-1.438-2.957-3.07-2.957-.068 0-.137.002-.207.007z"/>
        <path id="q" d="M133.452.777C115.272 1.995 22.003 8.065 13.575 8.72L.76 120.889l138.14-2.473c1.762-.03 3.151-1.522 3.068-3.294L136.729 3.727c-.078-1.665-1.438-2.957-3.07-2.957-.068 0-.137.002-.207.007z"/>
        <path id="s" d="M133.452.777C115.272 1.995 22.003 8.065 13.575 8.72L.76 120.889l138.14-2.473c1.762-.03 3.151-1.522 3.068-3.294L136.729 3.727c-.078-1.665-1.438-2.957-3.07-2.957-.068 0-.137.002-.207.007z"/>
        <path id="u" d="M133.452.777C115.272 1.995 22.003 8.065 13.575 8.72L.76 120.889l138.14-2.473c1.762-.03 3.151-1.522 3.068-3.294L136.729 3.727c-.078-1.665-1.438-2.957-3.07-2.957-.068 0-.137.002-.207.007"/>
        <path id="w" d="M133.452.777C115.272 1.995 22.003 8.065 13.575 8.72L.76 120.889l138.14-2.473c1.762-.03 3.151-1.522 3.068-3.294L136.729 3.727c-.078-1.665-1.438-2.957-3.07-2.957-.068 0-.137.002-.207.007"/>
        <path id="y" d="M0 477.06h389.82V.693H0z"/>
        <path id="A" d="M4.604 58.12C9.373 74.866 19.616 83.72 36.302 84.658c12.637.711 16.044-30.157 19.16-46.094C60.26 14.037 39.943 1.426 22.198.522a28.033 28.033 0 0 0-1.453-.039C-8.202.484 1.022 46.846 4.604 58.121"/>
        <radialGradient id="B" cx="166.768%" cy="18.939%" r="150.873%" fx="166.768%" fy="18.939%" gradientTransform="scale(-1 -.66336) rotate(-37.553 -.698 4.857)">
            <stop offset="0%" stop-color="#FFE8E8"/>
            <stop offset="100%" stop-color="#FDACAC"/>
        </radialGradient>
        <path id="D" d="M.75.692h87.395v65.343H.75z"/>
        <path id="F" d="M.863 12.588L20.5 90.464s35.3 1.335 61.544-9.917c19.05-8.166 42.788-23.916 48.942-37.916L118.383.63.863 12.588z"/>
        <path id="H" d="M.863 12.588L20.5 90.464s35.3 1.335 61.544-9.917c19.05-8.166 42.788-23.916 48.942-37.916L118.383.63.863 12.588z"/>
        <path id="J" d="M.863 12.588L20.5 90.464s35.3 1.335 61.544-9.917c19.05-8.166 42.788-23.916 48.942-37.916L118.383.63.863 12.588z"/>
    </defs>
    <g fill="none" fill-rule="evenodd">
        <path fill="#C5CBD8" d="M307.661 133.596l-5.29-111.655a5.645 5.645 0 0 0-6.014-5.367c-23.85 1.587-114.251 7.607-122.369 8.24-5.322.415-20.475 3.068-29.688 15.78-9.441 13.026-41.862 66.736-56.429 91.008-3.14 5.233.705 11.87 6.81 11.763l207.189-3.596a5.898 5.898 0 0 0 5.791-6.173"/>
        <path fill="#E9EEFB" d="M168.199 28.533c-6.53 1.666-15.359 5.458-21.46 13.876-9.005 12.426-51.285 82.058-55.672 89.656-2.457 4.254-.732 8.621 4.68 8.621l59.667-1.06 12.785-111.093zM299.181 22.357a3.1 3.1 0 0 0-3.3-2.95c-18.312 1.217-112.256 7.287-120.746 7.943l-12.907 112.155 139.139-2.472a3.149 3.149 0 0 0 3.091-3.294l-5.277-111.382z"/>
        <g transform="translate(90 28)">
            <mask id="b" fill="#fff">
                <use xlink:href="#a"/>
            </mask>
            <path fill="#D8E7FC" d="M25.696 61.803L-6.78 114.069l161.218-2.92 62.907-.877-2.45-57.01-25.036.037z" mask="url(#b)"/>
        </g>
        <g transform="translate(90 28)">
            <mask id="d" fill="#fff">
                <use xlink:href="#c"/>
            </mask>
            <path fill="#D2D8EE" d="M22.185 64.723s11.168-.07 29.845-1.46c19.603-1.46 22.491-3.505 50.619-3.505 19.895 0 39.074-2.824 52.666-3.21 16.443-.47 33.263-2.068 39.256-2.68.402-.04.428-.616.03-.688-3.222-.583-9.4-1.508-15.293-1.305-6.387.22-17.848-3.504-23.993-2.92-6.144.584-6.144-2.044-12.582-1.752-3.81.173-5.559 2.336-11.703 2.336-3.701 0-6.437-2.628-11.12-2.044-4.68.584-7.021 2.628-12.873.292-5.852-2.336-3.51-5.548-14.63-6.424-11.118-.876-15.8-4.963-25.455-4.671-14.766.446-22.237 6.423-22.237 6.423l-22.53 21.608z" mask="url(#d)"/>
        </g>
        <g transform="translate(90 28)">
            <mask id="f" fill="#fff">
                <use xlink:href="#e"/>
            </mask>
            <path fill="#CBDFFB" d="M21.989 66.591s11.088-1.334 29.79-2.3c19.633-1.014 22.756.65 50.66-2.882 19.737-2.5 39.12-2.106 52.652-3.429 16.619-1.624 33.77-2.142 39.548-2.279.36-.009.443.498.1.606-3.046.97-9.224 2.741-15.257 3.295-6.363.584-17.264 5.717-23.433 5.91-6.17.193-5.838 2.8-12.261 3.318-3.803.308-6.25-.204-12.393-.02-12.996.39-7.255 3.564-13.386 4.16-8.997.877-11.798-.2-16.02.658-6.175 1.256 7.486 6.486-10.533 7.008-19.6.567-11.906 7.218-21.521 8.14-14.705 1.412-22.87-3.58-22.87-3.58L21.989 66.592z" mask="url(#f)"/>
        </g>
        <g transform="translate(90 28)">
            <mask id="h" fill="#fff">
                <use xlink:href="#g"/>
            </mask>
            <path fill="#FFEDA6" d="M118.01 111.952s-11.412-5.913-11.85-17.082c-.354-8.982 5.046-14.453 14.044-16.643 8.997-2.19 5.925-7.665 5.486-12.045-.615-6.136 3.51-14.672 11.85-15.11 7.9-.415 7.006-5.98 16.458-8.103 8.778-1.97 16.897.22 23.48 8.322 6.584 8.103 11.64 11.446 17.337 11.825 6.583.438 13.825-4.16 19.75 2.41l1.975 44.455-98.53 1.97z" mask="url(#h)"/>
        </g>
        <g transform="translate(90 28)">
            <mask id="j" fill="#fff">
                <use xlink:href="#i"/>
            </mask>
            <path fill="#FFF" d="M125.128 14.062h86.913s-.658-24.089-.768-27.921c-8.692-1.42-14.312 2.556-16.776 4.892-.913.866-2.212 1.197-3.413.819-3.072-.968-9.379-2.201-16.458.749-5.4 2.25-8.241 5.674-9.657 8.204-.788 1.41-2.601 1.807-3.985.973-2.548-1.536-6.98-3.023-13.569-1.293-5.897 1.548-9.38 5.506-10.914 7.692a2.301 2.301 0 0 1-2.489.902c-2.2-.62-6.295-.883-9.364 4.114a.57.57 0 0 0 .48.87" mask="url(#j)"/>
        </g>
        <g transform="translate(90 28)">
            <mask id="l" fill="#fff">
                <use xlink:href="#k"/>
            </mask>
            <path fill="#FFF" d="M158.185 30.596H50.94l2.052-33.429s10.254-7.504 28.712 0c8.554 3.479 12.954 8.984 15.13 12.94 1.164 2.115 3.872 2.743 5.928 1.472 3.935-2.433 10.896-4.87 21.326-2.131 8.87 2.329 14.233 8.157 16.742 11.621 1.02 1.405 2.778 2.107 4.462 1.677 3.407-.872 9.329-1.038 13.917 5.959.53.81-.054 1.891-1.024 1.891" mask="url(#l)"/>
        </g>
        <g>
            <g transform="translate(163 19)">
                <mask id="n" fill="#fff">
                    <use xlink:href="#m"/>
                </mask>
                <path fill="#D8E7FC" d="M-45.933 71.507l-32.233 52.317L81.84 120.9l62.432-.877-2.43-57.065-24.848.038z" mask="url(#n)"/>
            </g>
            <g transform="translate(163 19)">
                <mask id="p" fill="#fff">
                    <use xlink:href="#o"/>
                </mask>
                <path fill="#D2D8EE" d="M-49.417 74.43s11.083-.07 29.62-1.462c19.455-1.46 22.321-3.507 50.237-3.507 19.746 0 38.78-2.827 52.27-3.215 16.318-.47 33.012-2.069 38.96-2.682.399-.04.424-.616.03-.688-3.198-.584-9.329-1.509-15.179-1.306-6.338.22-17.713-3.508-23.811-2.923-6.098.585-6.098-2.045-12.488-1.754-3.781.173-5.517 2.339-11.615 2.339-3.673 0-6.388-2.63-11.035-2.047-4.646.585-6.97 2.63-12.776.293-5.808-2.338-3.485-5.553-14.52-6.43C9.24 50.17 4.595 46.08-4.988 46.372c-14.655.447-22.07 6.43-22.07 6.43l-22.36 21.628z" mask="url(#p)"/>
            </g>
            <g transform="translate(163 19)">
                <mask id="r" fill="#fff">
                    <use xlink:href="#q"/>
                </mask>
                <path fill="#CBDFFB" d="M-49.612 76.3s11.004-1.335 29.566-2.302c19.485-1.015 22.584.651 50.277-2.885 19.589-2.502 38.825-2.108 52.256-3.432 16.494-1.625 33.516-2.145 39.25-2.281.358-.01.44.498.099.606-3.022.971-9.154 2.744-15.142 3.298-6.315.585-17.134 5.723-23.257 5.916-6.122.193-5.793 2.802-12.168 3.321-3.774.308-6.204-.204-12.3-.02-12.898.39-7.2 3.568-13.284 4.165-8.93.877-11.71-.202-15.9.658-6.129 1.257 7.43 6.492-10.453 7.014-19.452.568-11.817 7.225-21.36 8.15-14.593 1.412-22.698-3.584-22.698-3.584L-49.612 76.3z" mask="url(#r)"/>
            </g>
            <g transform="translate(163 19)">
                <mask id="t" fill="#fff">
                    <use xlink:href="#s"/>
                </mask>
                <path fill="#C3CBE8" d="M42.056 121.704s-11.745-6.137-12.197-17.732c-.363-9.324 5.196-15.004 14.456-17.278 9.26-2.273 6.098-7.956 5.646-12.503-.631-6.37 3.615-15.231 12.197-15.686 8.134-.43 7.213-6.208 16.941-8.412 9.036-2.045 17.392.227 24.169 8.64 6.776 8.41 11.98 11.881 17.844 12.275 6.776.455 14.23-4.32 20.329 2.5l2.032 46.15-101.417 2.046z" mask="url(#t)"/>
            </g>
            <g transform="translate(163 19)">
                <mask id="v" fill="#fff">
                    <use xlink:href="#u"/>
                </mask>
                <path fill="#FFF" d="M52.75 23.72h86.259s-.654-24.112-.763-27.948c-8.627-1.421-14.204 2.559-16.65 4.897-.906.867-2.195 1.199-3.387.82-3.049-.969-9.308-2.203-16.334.75-5.36 2.252-8.18 5.679-9.584 8.212-.783 1.41-2.582 1.809-3.956.974-2.528-1.538-6.927-3.027-13.466-1.295-5.852 1.55-9.31 5.512-10.832 7.7-.55.79-1.546 1.164-2.47.902-2.183-.62-6.248-.883-9.293 4.119-.231.378.035.87.476.87" mask="url(#v)"/>
            </g>
            <g transform="translate(163 19)">
                <mask id="x" fill="#fff">
                    <use xlink:href="#w"/>
                </mask>
                <path fill="#FFF" d="M85.558 40.27H-20.88l2.036-33.46s10.177-7.512 28.496 0c8.49 3.481 12.857 8.992 15.015 12.951 1.156 2.117 3.844 2.746 5.884 1.474 3.906-2.435 10.814-4.875 21.166-2.133 8.803 2.331 14.126 8.165 16.616 11.632 1.011 1.407 2.757 2.109 4.428 1.678 3.38-.872 9.259-1.039 13.812 5.965.526.811-.054 1.893-1.016 1.893" mask="url(#x)"/>
            </g>
        </g>
        <g>
            <path fill="#C5CBD8" d="M164.664 150.28l137.442-2.117c4.104-.072 7.527 3.112 7.745 7.203l2.653 52.957c.29 5.429-4.561 9.712-9.924 8.76l-129.737-22.938c-11.514-2.044-19.508-12.595-18.345-24.212l1.344-11.541c.455-4.546 4.247-8.032 8.822-8.112"/>
            <path fill="#D8DDEA" d="M310.094 160.208l-.243-4.841c-.218-4.091-3.641-7.275-7.745-7.204l-137.442 2.117c-4.575.08-8.367 3.566-8.822 8.112l-.49 4.2 154.742-2.384zM300.061 176.168a4.974 4.974 0 0 1-4.978 4.97 4.974 4.974 0 0 1-4.978-4.97 4.974 4.974 0 0 1 4.978-4.97 4.974 4.974 0 0 1 4.978 4.97M234.064 176.963c0-1.83-1.44-3.311-3.249-3.408l-32.085-.018h-.014c-2.09-.104-4.113.96-5.065 2.819-2.257 4.407.89 8.795 5.065 8.795 1.536 0 2.93-.596 3.968-1.568.853-.798 1.976-1.244 3.141-1.346l24.99-1.865c1.809-.097 3.25-1.58 3.25-3.409"/>
            <mask id="z" fill="#fff">
                <use xlink:href="#y"/>
            </mask>
            <path fill="#E09595" d="M244.577 205.546H259.8v-5.116h-15.224z" mask="url(#z)"/>
            <path fill="#C5CBD8" d="M145.173 331.826s35.266 1.338 61.487-9.939c19.032-8.184 42.748-23.97 48.897-38l-12.591-42.094-112.432 26.308 14.64 63.725z" mask="url(#z)"/>
            <path stroke="#C5CBD8" stroke-width="6" d="M38.019 46.78s-9.598 6.605-6.93 17.232c3.16 12.593 9.704 35.13 9.704 35.13M75.79 46.78s-9.599 6.605-6.931 17.232c3.16 12.593 9.704 35.13 9.704 35.13" mask="url(#z)"/>
            <path fill="#D8DDEA" d="M52.65 87.303h75.98l-13.614-58.317s-60.901-5.773-66.757-6.358c-3.496-.349-10.687-.585-16.982.877-3.853.895 16.486 63.473 21.374 63.798" mask="url(#z)"/>
            <path fill="#C5CBD8" d="M48.255 22.628c-3.496-.348-10.685-.584-16.979.877-3.852.895 16.488 63.473 21.375 63.798h58.412C90.54 66.055 69.097 43.818 48.255 22.628" mask="url(#z)"/>
            <path fill="#C5CBD8" d="M61.142 74.734c-2.29-7.812-7.554-26.85-11.607-40.788-2.212-7.603-8.743-13.51-21.538-9.757-3.796 1.113-7.184 2.166-15.572 4.855-6.304 2.023-9.075 7.376-7.756 12.11 1.32 4.733 7.146 7.604 13.092 5.773l5.133-1.477c5.244-1.616 10.798 1.368 12.335 6.63l7.76 28.207c1.372 4.695 6.223 8.1 11.711 6.577 5.27-1.46 8.198-6.138 6.442-12.13M84.272 93.588l-55.63 1.023S-8.25 92.273 1.705 132.027c4.442 17.741 17.171 49.678 25.765 82.58 3.52 13.478 6.376 26.529 8.622 37.968 4.65 13.735 11.234 26.716 19.511 38.664l87.813-7.646L84.272 93.588z" mask="url(#z)"/>
            <path fill="#C5CBD8" d="M57.336 189.468c-10.756-38.546-20.313-67.437-24.887-79.364-5.27-13.74-40.113-14.908-30.744 21.924 4.508 17.723 17.172 49.676 25.766 82.58 3.52 13.477 6.375 26.528 8.62 37.967 2.287 11.653 9.972 30.507 19.527 38.686l21.334-1.82c-1.464-10.735-8.197-59.048-19.616-99.973" mask="url(#z)"/>
            <path fill="#D8DDEA" d="M141.806 110.98l-18.007 3.947 29.426 121.896 25.473-7.892z" mask="url(#z)"/>
            <path fill="#23478D" d="M185.945 188.81c-3.461-.747-5.93-2.242-6.808-5.261l-14.713-32.667s-12.736 41.436 9.223 61.606c6.826 2.405 20.105 2.917 32.513 2.763.617-6.213 1.402-14.405 3.263-20.494-8.083-2.103-15.353-4.193-23.478-5.947" mask="url(#z)"/>
            <path fill="#2474CD" d="M132.876 112.735s16.735 31.672 18.739 37.417c5.672 16.257.26 33.993 1.61 45.455.932 7.904 14.319 19.44 19.219 25.718 2.854 3.658 5.23 6.29 5.23 6.29l13.322-3.946-13.561-10.73c-4.74-3.301-6.502-8.725-6.789-13.678-.563-9.733 1.419-26.872.879-37.125-1.171-22.216-1.171-19.293-19.397-44.14-2.596-3.537-2.855-7.015-9.443-13.154-5.318-4.954-13.981-11.875-13.981-11.875l4.172 19.768z" mask="url(#z)"/>
            <path fill="#245EAD" d="M177.435 212.94c-4.74-3.302-6.209-9.603-6.496-14.557-.338-5.85.562-13.608.292-21.63-6.222 7.059-11.38 14.228-17.277 21.558 3.028 7.653 14.124 17.42 18.49 23.014 2.854 3.658 5.23 6.29 5.23 6.29l13.32-3.946-13.56-10.73z" mask="url(#z)"/>
            <path fill="#42426C" d="M324.656 386.709s4.684 2.868 8.692 9.829c2.878 4.998 4.459 10.358 4.533 10.542.074.183.245.667.92.545.574-.104.642-.581.6-.817-.03-.168-.823-4.707-1.019-9.112a45.862 45.862 0 0 1-.01-3.67c.094-2.52 4.363-.229 4.363-.229l-18.08-7.088z" mask="url(#z)"/>
            <path fill="#E09595" d="M378.255 393.962c-9.662-3.946-25.198-20.115-36.724-34.775-4.983-6.338-6.962-9.77-13.99-28.038-4.867-12.652-11.71-41.798-24.891-77.489-2.877-7.788-4.982-19.906-6.666-28.554-1.313-6.743-2.252-8.95-5.695-14.9-4.586-7.927-19-7.52-19-7.52l-.306 35.064s-13.018 22.51 4.336 57.829c11.42 23.239 28.548 34.2 44.798 64.894 2.817 5.32 1.868 11.365.732 16.955-1.172 7.746 16.334 5.575 36.16 25.14 5.97 5.89 27.225-6.165 21.246-8.606" mask="url(#z)"/>
            <path fill="#42426C" d="M389.652 397.607c-1.163-2.519-9.104-2.887-11.36-3.705-9.189-.42-16.159-2.133-37.543-13.957-14.815-8.192-16.917-8.517-19.1-7.928-1.412 5.85-1.361 10.162 1.22 13.006 5.359 5.91 21.66 5.877 28.776 16.169 2.592 3.747 6.374 5.679 12.522 5.505 3.434-.096 9.729-.676 14.781-1.669 6.486-1.273 11.9-4.828 10.704-7.421" mask="url(#z)"/>
            <path fill="#FFAEAE" d="M224.227 243.4s43.768-3.96 51.582-.871c6.522 2.576 10.326 8.004 14.811 21.433 4.483 13.432 3.26 15.873 5.299 29.303 2.038 13.431 8.901 40.057 14.676 67.153 4.076 19.127 6.929 32.558 8.56 39.477 2.244 9.523 6.404 16.497 10.599 23.198 6.115 9.767 14.207 21.502 17.8 25.64 5.3 6.104 10.123 10.378 14.131 14.38 3.878 3.871-11.82 13.7-19.566 12.344-9.933-1.739-16.568-3.346-21.13-12.073-4.891-9.36-4.178-14.347-13.554-22.079-11.345-9.357-10.7-15.364-9.07-21.875 1.631-6.512 3.88-9.196 1.223-15.058-15.924-35.13-27.343-44.776-36.566-65.822-9.585-21.875-3.074-46.04-15.518-44.652-8.198.293-26.369-12.439-23.277-50.498" mask="url(#z)"/>
            <path fill="#535785" d="M363.044 463.112c-3.238-2.564-8.832-6.885-12.5-11.055 2.446 3.051 5.894 8.112 3.668 9.699-2.854 2.034-21.604-.407-30.573-9.768-16.596-17.322-22.829-24.011-24.245-36.22a78.711 78.711 0 0 0-1.03 3.662c-1.63 6.511-2.18 13.927 9.479 22.893 8.866 6.816 9.17 14.023 13.214 21.467 4.348 8.004 6.71 9.864 16.578 11.94 7.745 1.627 16.441 1.762 23.78.406 8.912-1.648 9.511-6.783 1.63-13.024" mask="url(#z)"/>
            <path fill="#E09595" d="M226.57 269.124c4.392-4.948 15.132-14.458 23.693-20.942 5.8-4.392 16.612-7.09 26.09-5.368 3.598.654-1.334-39.545-1.334-39.545s-3.981-1.447-19.426.809c-10.049 1.468-24.412 4.73-24.412 4.73s-5.782 2.692-7.539 32.377c-.423 7.153.108 20.375 2.928 27.939" mask="url(#z)"/>
            <path fill="#535785" d="M301.422 436.116s3.958 4.12 6.539 10.734c1.505 3.855 3.669 11.972 3.669 11.972s.144.823 1.028.721c.663-.076.892-.585.816-1.221-.05-.407-.729-6.278-.62-9.64.108-3.363.39-5.444.39-5.444l-11.822-7.122z" mask="url(#z)"/>
            <path fill="#423748" d="M220.787 126.766l16.449-26.037c.826-1.148 2.095-2.076 3.572-2.118l11.354-.33c.402.011.705.07 1.018.233l.931.61c.31.219.384.512.22.84l-14.11 26.46-19.434.342z" mask="url(#z)"/>
            <path fill="#42426C" d="M101.255 245.154s36.082-17.94 129.57-37.816a1.892 1.892 0 0 1 1.56.36l.582.46-.782.176c-.498.112-.886.5-.985 1-1.026 5.132-3.108 19.57-.824 44.882 1.546 17.135 9.955 25.724 17.275 39.756-21.96-1.462-24.594-4.97-46.261 1.46-34.016 10.098-59.963 11.009-80.225 4.97-29.426-8.77-19.91-55.248-19.91-55.248" mask="url(#z)"/>
            <path fill="#2474CD" d="M101.547 264.155s-3.412-22.505-3.66-43.994c-.44-38.147-16.396-33.031-37.331-86.38-4.507-11.486-5.26-30.377 15.81-39.754 12.152-5.408 21.52-9.793 21.52-9.793s4.224 13.74 18.008 30.255c13.175 15.785 27.344 26.646 31.915 44.14 5.27 20.17-3.331 33.939-2.929 47.063 0 0 9.234 14.411 13.47 20.754 7.026 10.524 3.22 21.047-8.785 24.555l-48.018 13.154z" mask="url(#z)"/>
            <path fill="#245EAD" d="M69.115 153.204c16.58 33.343 28.395 34.208 28.772 66.957.248 21.489 3.66 43.994 3.66 43.994l28.987-7.892c4.977-23.678 12.158-26.217 9.076-39.755-6.612-32.179-47.865-44.469-70.495-63.304" mask="url(#z)"/>
            <path fill="#FFF" d="M129.363 106.596c0 .193 2.276 7.82 6.547 14.864 3.367 5.553 8.093 11.225 10.728 12.98.592.394 1.71.626.617-1.069-3.692-5.728-7.864-13.84-10.06-22.17-2.396-9.089-2.415-16.005-5.05-23.751-7.467 6.284-2.782 19.146-2.782 19.146" mask="url(#z)"/>
            <path fill="#245EAD" d="M120.725 147.813l13.29 21.874a11.66 11.66 0 0 0 8.63 5.526l5.749.662-14.932 14.908-12.737-42.97z" mask="url(#z)"/>
            <path fill="#D8DDEA" d="M131.559 109.227s1.276-4.52 1.025-11.547c-.22-6.138-1.172-10.669-1.172-10.669s-3.879 5.408-1.976 20.462c.13 1.025 2.123 1.754 2.123 1.754" mask="url(#z)"/>
            <path fill="#E09595" d="M193.558 137.728l8.877-8.068a22.285 22.285 0 0 0 2.792-3.095c1.696-2.25 3.744-4.442 6.996-6.449 4.026-2.485 5.95-2.718 9.062-4.63 3.528-2.166 6.163-3.628 7.7-6.332.062-.11.12-.214.17-.313.35-.67 1.227-.94 1.822-.473 1.212.953 1.824 3.1.643 6.34-.492 1.35-1.976 3.654-3.88 5.334-1.706 1.509-4.976 4.02-4.976 4.02l9.601-1.957a9.885 9.885 0 0 0 3.402-1.883l4.564-3.76c1.774-1.505 2.391-1.851 3.66-3.8l3.164-4.933a4.1 4.1 0 0 1 4.43-1.74l1.556.46-.147 14.325c0 2.338-1.199 4.366-3.098 6.179l-6.946 6.63a15.238 15.238 0 0 1-8.102 4.02l-17.15 2.038a6.004 6.004 0 0 0-3.098 1.317l-5.964 4.882-15.078-8.112zM97.963 85.851c4.188-3.584 7.195-16.286 4.756-21.641-3.39-7.441-12.542-31.259-3.206-26.695 10.794 5.277 41.135 46.304 37.694 47.64-8.077 3.135-7.211 13.902-6.762 27.79.275 8.52-40.688-20.072-32.482-27.094" mask="url(#z)"/>
        </g>
        <g transform="translate(102 2)">
            <mask id="C" fill="#fff">
                <use xlink:href="#A"/>
            </mask>
            <path fill="url(#B)" d="M4.604 58.12C9.373 74.866 19.616 83.72 36.302 84.658c12.637.711 16.044-30.157 19.16-46.094C60.26 14.037 39.943 1.426 22.198.522a28.033 28.033 0 0 0-1.453-.039C-8.202.484 1.022 46.846 4.604 58.121" mask="url(#C)"/>
        </g>
        <g>
            <g transform="translate(71.86)">
                <mask id="E" fill="#fff">
                    <use xlink:href="#D"/>
                </mask>
                <path fill="#423748" d="M38.377 46.175s8.644 4.514 17.038 4.076c8.283-.433 14.336-4.332 19.37-10.743 4.305-5.48 6.242-10.084 7.534-12.496.801-1.498 2.057-2.37 2.583.439.86 4.604.43 9.938.43 9.938s3.05-4.887 2.798-12.35c-.215-6.358-4.411-8.995-5.877-10.787-1.466-1.792-5.751-9.128-15.43-11.794C58.774.242 45.36-1.72 29.318 8.635c-1.079.696-1.918.915-3.62.985-3.683.153-11.418.562-16.662 4.97-6.926 5.825-7.49 15.32-4.764 21.43 1.511 3.387 3.079 5.63 5.396 7.452.606.476.805 1.331.469 2.031-1.027 2.133-1.02 6.87 2.345 10.528 2.995 3.255 6.67 3.184 8.71 2.808 1.082-.199 2.258-.069 3.085.326 3.488 1.671 5.453 4.75 6.672 6.87-.358-4.384-4.59-13.885 1.27-22.25l6.157 2.39z" mask="url(#E)"/>
            </g>
            <path fill="#FFAEAE" d="M113.422 48.527c1.263 5.53.901 10.93-2.677 11.977-3.577 1.047-9.251-4.137-10.827-10.857-1.412-6.024 1.554-11.418 6.077-11.536 5.24-.138 6.269 5.343 7.427 10.416"/>
            <path fill="#FFF" d="M96.11 82.112c2.314-3.288 2.827-3.435 3.437-3.582l.712-.145s-.294.804-.514 1.462c-.108.323-.136.77-.037 1.096.698 2.302 2.828 6.942 10.096 14.25 7.855 7.897 16.226 11.692 20.632 14.177 0 0 .13 5.48-.036 13.738-.147 7.308 0 10.962 0 10.962-.295 1.827-1.293 2.69-2.864.95-7.856-8.696-13.167-14.913-20.632-23.896-14.06-16.917-13.785-23.38-13.605-25.445.095-1.082 2.17-2.655 2.812-3.567"/>
            <path fill="#2474CD" d="M99.12 114.047c22.468 33.323 34.804 68.4 34.804 68.4s19.383-11.839 33.04-23.239c3.982-3.323 20.7-19.026 25.331-23.53.844-.822 1.346-1.092 2.496-1.352l1.222-.247s-.827.767-1.378 1.343c-.341.358-.347.963.029 1.288 4.846 4.193 10.588 6.118 13.142 6.732.933.224 2.184 0 3.084-.73l1.872-1.5 5.448 4.693c.903.917.738 1.794-.86 2.945l-23.072 15.181s-13.657 14.47-22.468 25.431c-14.813 18.429-31.866 37.708-40.97 37.708-8.811 0-24.67-17.977-36.565-33.762-13.23-17.556-27.298-35.306-36.565-61.823-2.35-6.723-1.762-26.307 10.573-32.446C85 90.821 96.76 110.546 99.121 114.047"/>
            <path fill="#23478D" d="M204.96 144.41c4.186 1.81 8.757 2.686 10.299 2.85 1.542.165 1.706-.821 0-2.192l-3.525-2.96-.844.604c-.9.73-2.151.954-3.084.73-2.554-.614-8.296-2.54-13.143-6.732 1.211 1.727 3.859 4.918 10.298 7.7"/>
        </g>
        <g>
            <g transform="translate(124 241)">
                <mask id="G" fill="#fff">
                    <use xlink:href="#F"/>
                </mask>
                <path fill="#D8DDEA" d="M73.544 22.068l8.88 58.134c.633 4.08-1.676 8.048-5.546 9.532l-35.021 13.427L30.17 23.526l43.374-1.458z" mask="url(#G)"/>
            </g>
            <g transform="translate(124 241)">
                <mask id="I" fill="#fff">
                    <use xlink:href="#H"/>
                </mask>
                <path fill="#C5CBD8" d="M75.742 23.818l-49.528 1.664 7.44 50.698c13.9-17.54 28.086-34.88 42.091-52.338l-.003-.024z" mask="url(#I)"/>
            </g>
            <g transform="translate(124 241)">
                <mask id="K" fill="#fff">
                    <use xlink:href="#J"/>
                </mask>
                <path fill="#C5CBD8" d="M-4.997 31.693l10.55 70.875 36.047-.584-11.43-78.458z" mask="url(#K)"/>
            </g>
        </g>
        <g>
            <path fill="#C5CBD8" d="M118.96 259.761l77.426-9.698a5.373 5.373 0 0 1 5.872 4.624l1.012 5.831c.54 2.658-1.525 5.473-4.339 6l-37.72 9.02c-2.76.516-5.547.877-8.348 1.082l-31.76 2.322-2.143-19.181zM209.828 150.382c.206.376-.184.987-.874 1.367-.688.38-1.415.383-1.623.007-.206-.374.185-.986.874-1.366.69-.38 1.416-.383 1.623-.008M205.093 153.416c.218.37-.157.992-.835 1.39-.679.399-1.405.421-1.622.052-.217-.369.157-.991.835-1.389.68-.399 1.406-.422 1.622-.053"/>
            <path fill="#FFAEAE" d="M222.67 208.83s-.06-10.236 2.745-10.97c2.806-.733 20.405-4.695 20.405-4.695a10.78 10.78 0 0 1 3.924-.054c3.458.59 10.712 1.83 15.814 3.412 3.054.948 7.184 3.47 14.223 5.386.547.149.703.887.297 1.283-.993.971-2.516 1.502-5.156 1.159-2.579-.337-8.204-1.342-8.204-1.342l4.91 2.922a.462.462 0 0 1 .102.756c-.828.728-3.45 1.481-6.905.186-1.836-.689-4.59-1.72-7.05-2.651-.72-.274-1.436-.55-2.189-.722l-3.564-.817a11.479 11.479 0 0 0-3.477-.254l-4.962.321s2.293 1.147 3.227 1.486c1.262.458 3.238 1.125 5.396 1.576 2.593.539 5.503 1.724 4.128 3.698-1.827 2.62-6.213 1.922-10.213.573-2.777-.936-4.474-1.146-7.338-.299-2.932.87-11.064 1.654-16.113-.954"/>
            <path fill="#23478D" d="M226.069 196.567c-.741 0-11.842-.356-20.614-2.255-1.859 6.087-5.592 19.558-5.592 19.558l22.751-4.985s.124-5.354 2.868-10.366a2.021 2.021 0 0 1 1.325-.981l.66-.15s-.329-.82-1.398-.82"/>
            <path fill="#E86A46" d="M119.546 261.806h-.064c-1.21-.035-2.077-1.045-2.129-2.254-.11-2.567 1.334-8.244 1.096-15.058-.62-17.656-7.862-26.577-17.18-27.099-13.918-.777-18.169 15.219-19.772 25.017-1.122 6.848-.548 9.533-1.23 14.448a2.193 2.193 0 1 1-4.341-.626c.527-3.741 2.294-7.24 3.268-14.15 2.303-16.326 9.662-27.958 22.308-26.987 11.88.913 18.58 11.435 19.25 29.397.257 6.937 1.205 12.053.985 15.183-.084 1.186-1.009 2.129-2.191 2.129"/>
            <path fill="#FF7E59" d="M31.716 319.658c-.399 2.388 1.196 3.863 2.631 4.602 14.112 7.263 74.93 16.271 92.215 15.12 12.062-.804 21.287-4.284 24.89-7.012 1.624-1.23 1.85-2.626 1.787-4.66-.251-8.05-3.87-40.482-7.817-52.754-3.29-10.23-10.088-21.037-24.562-25.42-10.533-3.19-34.649-4.382-44.298-3.506-11.738 1.067-23.265 6.104-29.386 18.846-5.263 10.957-13.816 44.923-15.46 54.784"/>
            <path fill="#E86A46" d="M152.555 318.708c-.265.412-.614.8-1.102 1.169-3.605 2.729-12.83 6.209-24.89 7.012-17.286 1.151-78.104-7.856-92.215-15.12a6.455 6.455 0 0 1-.893-.565c-.8 3.53-1.41 6.48-1.739 8.454-.398 2.388 1.196 3.863 2.632 4.602 14.11 7.264 74.93 16.271 92.214 15.12 12.062-.804 21.286-4.284 24.89-7.012 1.624-1.23 1.85-2.626 1.787-4.66-.059-1.869-.3-5.062-.684-9M116.037 261.806h-.064c-1.21-.035-2.077-1.045-2.129-2.254-.11-2.567 1.334-8.244 1.096-15.058-.62-17.656-6.376-26.655-15.694-27.176-13.918-.778-19.654 15.296-21.258 25.094-1.122 6.848-.548 9.533-1.229 14.448a2.193 2.193 0 1 1-4.341-.626c.526-3.741 2.293-7.24 3.267-14.15 2.303-16.326 11.148-28.036 23.794-27.064 11.878.914 17.094 11.512 17.763 29.474.258 6.937 1.207 12.053.986 15.183-.084 1.186-1.008 2.129-2.19 2.129"/>
            <path fill="#D8DDEA" d="M41.913 318.37v15.87c0 1.248.768 2.37 1.933 2.823l65.513 25.435a3.188 3.188 0 0 0 2.731-.204l34.008-19.419a3.005 3.005 0 0 0 1.517-2.61v-16.17L78.609 300.96 41.913 318.37z"/>
            <path fill="#C5CBD8" d="M41.913 318.38v15.896c0 1.25.768 2.371 1.933 2.823l65.44 25.408c.94.364 1.995.286 2.87-.214l34.055-19.445a2.781 2.781 0 0 0 1.404-2.417v-16.354l-35.209 19.267a4.062 4.062 0 0 1-3.376.24L41.913 318.38z"/>
            <path fill="#97BEF7" d="M123.638 337.189H92.06l-17.443-6.522h60.937zM67.35 306.314h27.234l14.62 4.902H56.999z"/>
            <path fill="#6F98EA" d="M92.132 355.833l-.072-18.645-17.444-6.521.082 18.391z"/>
            <path fill="#97BEF7" d="M84.188 323.713l-16.675-1.03 3.86-2.405-3.51-2.464 11.897.986z"/>
            <path fill="#6F98EA" d="M123.638 355.724l.01-18.536 11.887-6.5.018 18.224zM91.877 324.552l-15.827 2.776 2.267-3.141-6.287-1.242 12.427-1.68z"/>
            <path fill="#B1CEF9" d="M98.492 321.41s-6.506-9.86-9.138-25.71c-.255-1.537 1.164-3.33 2.794-3.524 2.324-.276 4.543.382 7.294.309 3.61-.095 6.433-1.023 9.378-.569 1.718.264 2.77 1.564 2.83 3.052.73 18.043-8.333 26.443-8.333 26.443h-4.825z"/>
            <path fill="#6F98EA" d="M109.457 322.141s18.887-.128 18.202-13.44c-.658-4.383-4.167-8.765-4.167-8.765s2.604 6.656-3.536 13.23c-3.532 3.78-9.403 7.15-9.403 7.15l-1.096 1.825z"/>
            <path fill="#A4C6F8" d="M98.492 315.275l.877-5.478s6.326-13.077 17.325-15.559c5.925-1.337 8.535 1.016 9.798 5.448.362 1.273.618 2.36.947 3.026 4.386 8.838-2.631 14.097-2.631 14.097s1.415-1.675 2.046-3.798c.91-3.054-.511-5.844-3.581-6.94-5.163-1.843-15.79.439-24.781 9.204"/>
            <path fill="#6F98EA" d="M82.483 300.74s-3.548 5.788.877 11.614c2.998 3.944 8.845 8.253 8.845 8.253l.585 3.8s-3.316.02-8.004-1.462c-4.532-1.432-10.382-4.301-13.633-8.035-8.713-10.005-1.513-14.563-1.513-14.563s3.541-1.881 8.238-1.434c3.07.292 4.605 1.826 4.605 1.826"/>
            <path fill="#A4C6F8" d="M96.153 323.018l2.312-6.518s.32-13.131-8.599-20.874c-4.173-3.624-8.442-3.736-13.127-.741-1.273.814-2.224 1.472-4.124 2.311-5.595 2.473-5.88 7.246-5.798 8.396.206-3.027 2.473-5.915 7.845-4.488 6.87 1.827 16.684 10.318 21.491 21.914"/>
            <path fill="#97BEF7" d="M100.978 325.794s2.893-6.557 2.412-12.564c-.292-3.652-1.886-6.385-5.913-7.476-4.76-1.29-7.931.15-11.265-.267-3.509-.439-3.875-1.388-7.765-1.276-2.685.076-6.587 2.477-6.018 6.785.664 5.028 5.213 10.712 13.828 13.596a24.395 24.395 0 0 0 7.454 1.238c3.204.04 7.267-.036 7.267-.036"/>
            <path fill="#6F98EA" d="M103.463 313.23c-.292-3.652-3.436-6.648-6.14-6.648-1.317 0-3.327.731-3.985 3.324-.813 3.208.329 6.095 2.632 9.898 2.522 4.164 5.008 5.99 5.008 5.99s2.965-6.557 2.485-12.564"/>
            <path fill="#97BEF7" d="M99.004 325.794s-2.705-5.113-2.205-8.441c.262-1.746 1.328-4.123 4.47-4.342 1.808-.127 4.613.848 7.237.584 3.908-.394 5.84-1.376 8.334-1.315 2.997.074 4.876 1.972 4.427 4.58-.603 3.51-4.4 5.784-9.46 7.704-1.484.563-3.114 1.068-4.76 1.204-1.793.148-8.043.026-8.043.026"/>
            <path fill="#6F98EA" d="M98.108 322.67s-2.102-5.406.384-7.724c.822-.767 2.084-.438 2.413.822.231.888-.058 2.225-.823 3.342-1.426 2.082-1.974 3.56-1.974 3.56"/>
        </g>
    </g>
</svg>
