<svg xmlns="http://www.w3.org/2000/svg" xmlns:xlink="http://www.w3.org/1999/xlink" width="683" height="683" viewBox="0 0 683 683">
    <defs>
        <path id="a" d="M134.408 90.455c-22.397 0-57.591 3.232-87.986 26.653-67.068 51.68-41.727 135.818-41.727 135.818C102.28 252.388 139.607 310 139.607 310l188.77-16.69c44.26-66.228 138.378-63.133 138.378-63.133 31.595-89.648-34.794-131.645-63.59-140.53-29.474-9.094-68.789-6.46-83.987-1.614C299.182 38.766 243.99 0 217.595 0c-22.397 4.845-60.79 40.381-83.187 90.455z"/>
        <path id="c" d="M134.408 90.455c-22.397 0-57.591 3.232-87.986 26.653-67.068 51.68-41.727 135.818-41.727 135.818C102.28 252.388 139.607 310 139.607 310l188.77-16.69c44.26-66.228 138.378-63.133 138.378-63.133 31.595-89.648-34.794-131.645-63.59-140.53-29.474-9.094-68.789-6.46-83.987-1.614C299.182 38.766 243.99 0 217.595 0c-22.397 4.845-60.79 40.381-83.187 90.455z"/>
        <path id="e" d="M26.197 0C17.327 10 8.631 21.828.913 35.08V173H94V0H26.197z"/>
        <path id="g" d="M26.197 0C17.327 10 8.631 21.828.913 35.08V173H94V0H26.197z"/>
        <path id="i" d="M26.197 0C17.327 10 8.631 21.828.913 35.08V173H94V0H26.197z"/>
        <path id="k" d="M26.197 0C17.327 10 8.631 21.828.913 35.08V173H94V0H26.197z"/>
        <path id="m" d="M26.197 0C17.327 10 8.631 21.828.913 35.08V173H94V0H26.197z"/>
        <path id="o" d="M26.197 0C17.327 10 8.631 21.828.913 35.08V173H94V0H26.197z"/>
        <path id="q" d="M26.197 0C17.327 10 8.631 21.828.913 35.08V173H94V0H26.197z"/>
        <path id="s" d="M26.197 0C17.327 10 8.631 21.828.913 35.08V173H94V0H26.197z"/>
        <path id="u" d="M0 24.879v84.212h86.084V0C64.074.024 29.948 3.147 0 24.879z"/>
        <path id="w" d="M0 24.879v84.212h86.084V0C64.074.024 29.948 3.147 0 24.879z"/>
        <path id="y" d="M0 24.879v84.212h86.084V0C64.074.024 29.948 3.147 0 24.879z"/>
        <path id="A" d="M0 24.879v84.212h86.084V0C64.074.024 29.948 3.147 0 24.879z"/>
        <path id="C" d="M0 24.879v84.212h86.084V0C64.074.024 29.948 3.147 0 24.879z"/>
        <path id="E" d="M0 24.879v84.212h86.084V0C64.074.024 29.948 3.147 0 24.879z"/>
        <path id="G" d="M0 24.879v84.212h86.084V0C64.074.024 29.948 3.147 0 24.879z"/>
        <path id="I" d="M0 24.879v84.212h86.084V0C64.074.024 29.948 3.147 0 24.879z"/>
        <path id="K" d="M.93 85h39.094V.914C10.868 26.928 2.254 59.219.93 85z"/>
        <path id="M" d="M.93 85h39.094V.914C10.868 26.928 2.254 59.219.93 85z"/>
        <path id="O" d="M.93 85h39.094V.914C10.868 26.928 2.254 59.219.93 85z"/>
        <path id="Q" d="M.93 85h39.094V.914C10.868 26.928 2.254 59.219.93 85z"/>
        <path id="S" d="M.93 85h39.094V.914C10.868 26.928 2.254 59.219.93 85z"/>
        <path id="U" d="M.93 85h39.094V.914C10.868 26.928 2.254 59.219.93 85z"/>
        <path id="W" d="M.93 85h39.094V.914C10.868 26.928 2.254 59.219.93 85z"/>
        <path id="Y" d="M.93 85h39.094V.914C10.868 26.928 2.254 59.219.93 85z"/>
        <path id="aa" d="M134.408 90.455c-22.397 0-57.591 3.232-87.986 26.653-67.068 51.68-41.727 135.818-41.727 135.818C102.28 252.388 139.607 310 139.607 310l188.77-16.69c44.26-66.228 138.378-63.133 138.378-63.133 31.595-89.648-34.794-131.645-63.59-140.53-29.474-9.094-68.789-6.46-83.987-1.614C299.182 38.766 243.99 0 217.595 0c-22.397 4.845-60.79 40.381-83.187 90.455"/>
        <path id="ac" d="M134.408 90.455c-22.397 0-57.591 3.232-87.986 26.653-67.068 51.68-41.727 135.818-41.727 135.818C102.28 252.388 139.607 310 139.607 310l188.77-16.69c44.26-66.228 138.378-63.133 138.378-63.133 31.595-89.648-34.794-131.645-63.59-140.53-29.474-9.094-68.789-6.46-83.987-1.614C299.182 38.766 243.99 0 217.595 0c-22.397 4.845-60.79 40.381-83.187 90.455"/>
        <path id="ae" d="M134.408 90.455c-22.397 0-57.591 3.232-87.986 26.653-67.068 51.68-41.727 135.818-41.727 135.818C102.28 252.388 139.607 310 139.607 310l188.77-16.69c44.26-66.228 138.378-63.133 138.378-63.133 31.595-89.648-34.794-131.645-63.59-140.53-29.474-9.094-68.789-6.46-83.987-1.614C299.182 38.766 243.99 0 217.595 0c-22.397 4.845-60.79 40.381-83.187 90.455"/>
        <path id="ag" d="M134.408 90.455c-22.397 0-57.591 3.232-87.986 26.653-67.068 51.68-41.727 135.818-41.727 135.818C102.28 252.388 139.607 310 139.607 310l188.77-16.69c44.26-66.228 138.378-63.133 138.378-63.133 31.595-89.648-34.794-131.645-63.59-140.53-29.474-9.094-68.789-6.46-83.987-1.614C299.182 38.766 243.99 0 217.595 0c-22.397 4.845-60.79 40.381-83.187 90.455"/>
        <path id="ai" d="M134.408 90.455c-22.397 0-57.591 3.232-87.986 26.653-67.068 51.68-41.727 135.818-41.727 135.818C102.28 252.388 139.607 310 139.607 310l188.77-16.69c44.26-66.228 138.378-63.133 138.378-63.133 31.595-89.648-34.794-131.645-63.59-140.53-29.474-9.094-68.789-6.46-83.987-1.614C299.182 38.766 243.99 0 217.595 0c-22.397 4.845-60.79 40.381-83.187 90.455"/>
        <path id="ak" d="M134.408 90.455c-22.397 0-57.591 3.232-87.986 26.653-67.068 51.68-41.727 135.818-41.727 135.818C102.28 252.388 139.607 310 139.607 310l188.77-16.69c44.26-66.228 138.378-63.133 138.378-63.133 31.595-89.648-34.794-131.645-63.59-140.53-29.474-9.094-68.789-6.46-83.987-1.614C299.182 38.766 243.99 0 217.595 0c-22.397 4.845-60.79 40.381-83.187 90.455"/>
        <path id="am" d="M134.408 90.455c-22.397 0-57.591 3.232-87.986 26.653-67.068 51.68-41.727 135.818-41.727 135.818C102.28 252.388 139.607 310 139.607 310l188.77-16.69c44.26-66.228 138.378-63.133 138.378-63.133 31.595-89.648-34.794-131.645-63.59-140.53-29.474-9.094-68.789-6.46-83.987-1.614C299.182 38.766 243.99 0 217.595 0c-22.397 4.845-60.79 40.381-83.187 90.455"/>
        <path id="ao" d="M134.408 90.455c-22.397 0-57.591 3.232-87.986 26.653-67.068 51.68-41.727 135.818-41.727 135.818C102.28 252.388 139.607 310 139.607 310l188.77-16.69c44.26-66.228 138.378-63.133 138.378-63.133 31.595-89.648-34.794-131.645-63.59-140.53-29.474-9.094-68.789-6.46-83.987-1.614C299.182 38.766 243.99 0 217.595 0c-22.397 4.845-60.79 40.381-83.187 90.455"/>
        <path id="aq" d="M134.408 90.455c-22.397 0-57.591 3.232-87.986 26.653-67.068 51.68-41.727 135.818-41.727 135.818C102.28 252.388 139.607 310 139.607 310l188.77-16.69c44.26-66.228 138.378-63.133 138.378-63.133 31.595-89.648-34.794-131.645-63.59-140.53-29.474-9.094-68.789-6.46-83.987-1.614C299.182 38.766 243.99 0 217.595 0c-22.397 4.845-60.79 40.381-83.187 90.455"/>
        <path id="as" d="M134.408 90.455c-22.397 0-57.591 3.232-87.986 26.653-67.068 51.68-41.727 135.818-41.727 135.818C102.28 252.388 139.607 310 139.607 310l188.77-16.69c44.26-66.228 138.378-63.133 138.378-63.133 31.595-89.648-34.794-131.645-63.59-140.53-29.474-9.094-68.789-6.46-83.987-1.614C299.182 38.766 243.99 0 217.595 0c-22.397 4.845-60.79 40.381-83.187 90.455z"/>
        <path id="au" d="M134.408 90.455c-22.397 0-57.591 3.232-87.986 26.653-67.068 51.68-41.727 135.818-41.727 135.818C102.28 252.388 139.607 310 139.607 310l188.77-16.69c44.26-66.228 138.378-63.133 138.378-63.133 31.595-89.648-34.794-131.645-63.59-140.53-29.474-9.094-68.789-6.46-83.987-1.614C299.182 38.766 243.99 0 217.595 0c-22.397 4.845-60.79 40.381-83.187 90.455"/>
        <path id="aw" d="M134.408 90.455c-22.397 0-57.591 3.232-87.986 26.653-67.068 51.68-41.727 135.818-41.727 135.818C102.28 252.388 139.607 310 139.607 310l188.77-16.69c44.26-66.228 138.378-63.133 138.378-63.133 31.595-89.648-34.794-131.645-63.59-140.53-29.474-9.094-68.789-6.46-83.987-1.614C299.182 38.766 243.99 0 217.595 0c-22.397 4.845-60.79 40.381-83.187 90.455"/>
        <path id="ay" d="M134.408 90.455c-22.397 0-57.591 3.232-87.986 26.653-67.068 51.68-41.727 135.818-41.727 135.818C102.28 252.388 139.607 310 139.607 310l188.77-16.69c44.26-66.228 138.378-63.133 138.378-63.133 31.595-89.648-34.794-131.645-63.59-140.53-29.474-9.094-68.789-6.46-83.987-1.614C299.182 38.766 243.99 0 217.595 0c-22.397 4.845-60.79 40.381-83.187 90.455"/>
        <path id="aA" d="M134.408 90.455c-22.397 0-57.591 3.232-87.986 26.653-67.068 51.68-41.727 135.818-41.727 135.818C102.28 252.388 139.607 310 139.607 310l188.77-16.69c44.26-66.228 138.378-63.133 138.378-63.133 31.595-89.648-34.794-131.645-63.59-140.53-29.474-9.094-68.789-6.46-83.987-1.614C299.182 38.766 243.99 0 217.595 0c-22.397 4.845-60.79 40.381-83.187 90.455"/>
        <path id="aC" d="M134.408 90.455c-22.397 0-57.591 3.232-87.986 26.653-67.068 51.68-41.727 135.818-41.727 135.818C102.28 252.388 139.607 310 139.607 310l188.77-16.69c44.26-66.228 138.378-63.133 138.378-63.133 31.595-89.648-34.794-131.645-63.59-140.53-29.474-9.094-68.789-6.46-83.987-1.614C299.182 38.766 243.99 0 217.595 0c-22.397 4.845-60.79 40.381-83.187 90.455"/>
        <path id="aE" d="M134.408 90.455c-22.397 0-57.591 3.232-87.986 26.653-67.068 51.68-41.727 135.818-41.727 135.818C102.28 252.388 139.607 310 139.607 310l188.77-16.69c44.26-66.228 138.378-63.133 138.378-63.133 31.595-89.648-34.794-131.645-63.59-140.53-29.474-9.094-68.789-6.46-83.987-1.614C299.182 38.766 243.99 0 217.595 0c-22.397 4.845-60.79 40.381-83.187 90.455"/>
        <path id="aG" d="M134.408 90.455c-22.397 0-57.591 3.232-87.986 26.653-67.068 51.68-41.727 135.818-41.727 135.818C102.28 252.388 139.607 310 139.607 310l188.77-16.69c44.26-66.228 138.378-63.133 138.378-63.133 31.595-89.648-34.794-131.645-63.59-140.53-29.474-9.094-68.789-6.46-83.987-1.614C299.182 38.766 243.99 0 217.595 0c-22.397 4.845-60.79 40.381-83.187 90.455"/>
        <path id="aI" d="M134.408 90.455c-22.397 0-57.591 3.232-87.986 26.653-67.068 51.68-41.727 135.818-41.727 135.818C102.28 252.388 139.607 310 139.607 310l188.77-16.69c44.26-66.228 138.378-63.133 138.378-63.133 31.595-89.648-34.794-131.645-63.59-140.53-29.474-9.094-68.789-6.46-83.987-1.614C299.182 38.766 243.99 0 217.595 0c-22.397 4.845-60.79 40.381-83.187 90.455"/>
        <path id="aK" d="M134.408 90.455c-22.397 0-57.591 3.232-87.986 26.653-67.068 51.68-41.727 135.818-41.727 135.818C102.28 252.388 139.607 310 139.607 310l188.77-16.69c44.26-66.228 138.378-63.133 138.378-63.133 31.595-89.648-34.794-131.645-63.59-140.53-29.474-9.094-68.789-6.46-83.987-1.614C299.182 38.766 243.99 0 217.595 0c-22.397 4.845-60.79 40.381-83.187 90.455"/>
        <path id="aM" d="M134.408 90.455c-22.397 0-57.591 3.232-87.986 26.653-67.068 51.68-41.727 135.818-41.727 135.818C102.28 252.388 139.607 310 139.607 310l188.77-16.69c44.26-66.228 138.378-63.133 138.378-63.133 31.595-89.648-34.794-131.645-63.59-140.53-29.474-9.094-68.789-6.46-83.987-1.614C299.182 38.766 243.99 0 217.595 0c-22.397 4.845-60.79 40.381-83.187 90.455"/>
        <path id="aO" d="M134.408 90.455c-22.397 0-57.591 3.232-87.986 26.653-67.068 51.68-41.727 135.818-41.727 135.818C102.28 252.388 139.607 310 139.607 310l188.77-16.69c44.26-66.228 138.378-63.133 138.378-63.133 31.595-89.648-34.794-131.645-63.59-140.53-29.474-9.094-68.789-6.46-83.987-1.614C299.182 38.766 243.99 0 217.595 0c-22.397 4.845-60.79 40.381-83.187 90.455"/>
        <path id="aQ" d="M134.408 90.455c-22.397 0-57.591 3.232-87.986 26.653-67.068 51.68-41.727 135.818-41.727 135.818C102.28 252.388 139.607 310 139.607 310l188.77-16.69c44.26-66.228 138.378-63.133 138.378-63.133 31.595-89.648-34.794-131.645-63.59-140.53-29.474-9.094-68.789-6.46-83.987-1.614C299.182 38.766 243.99 0 217.595 0c-22.397 4.845-60.79 40.381-83.187 90.455"/>
        <path id="aS" d="M134.408 90.455c-22.397 0-57.591 3.232-87.986 26.653-67.068 51.68-41.727 135.818-41.727 135.818C102.28 252.388 139.607 310 139.607 310l188.77-16.69c44.26-66.228 138.378-63.133 138.378-63.133 31.595-89.648-34.794-131.645-63.59-140.53-29.474-9.094-68.789-6.46-83.987-1.614C299.182 38.766 243.99 0 217.595 0c-22.397 4.845-60.79 40.381-83.187 90.455"/>
        <path id="aU" d="M134.408 90.455c-22.397 0-57.591 3.232-87.986 26.653-67.068 51.68-41.727 135.818-41.727 135.818C102.28 252.388 139.607 310 139.607 310l188.77-16.69c44.26-66.228 138.378-63.133 138.378-63.133 31.595-89.648-34.794-131.645-63.59-140.53-29.474-9.094-68.789-6.46-83.987-1.614C299.182 38.766 243.99 0 217.595 0c-22.397 4.845-60.79 40.381-83.187 90.455"/>
        <path id="aW" d="M134.408 90.455c-22.397 0-57.591 3.232-87.986 26.653-67.068 51.68-41.727 135.818-41.727 135.818C102.28 252.388 139.607 310 139.607 310l188.77-16.69c44.26-66.228 138.378-63.133 138.378-63.133 31.595-89.648-34.794-131.645-63.59-140.53-29.474-9.094-68.789-6.46-83.987-1.614C299.182 38.766 243.99 0 217.595 0c-22.397 4.845-60.79 40.381-83.187 90.455z"/>
        <path id="aY" d="M134.408 90.455c-22.397 0-57.591 3.232-87.986 26.653-67.068 51.68-41.727 135.818-41.727 135.818C102.28 252.388 139.607 310 139.607 310l188.77-16.69c44.26-66.228 138.378-63.133 138.378-63.133 31.595-89.648-34.794-131.645-63.59-140.53-29.474-9.094-68.789-6.46-83.987-1.614C299.182 38.766 243.99 0 217.595 0c-22.397 4.845-60.79 40.381-83.187 90.455"/>
        <path id="ba" d="M134.408 90.455c-22.397 0-57.591 3.232-87.986 26.653-67.068 51.68-41.727 135.818-41.727 135.818C102.28 252.388 139.607 310 139.607 310l188.77-16.69c44.26-66.228 138.378-63.133 138.378-63.133 31.595-89.648-34.794-131.645-63.59-140.53-29.474-9.094-68.789-6.46-83.987-1.614C299.182 38.766 243.99 0 217.595 0c-22.397 4.845-60.79 40.381-83.187 90.455z"/>
        <path id="bc" d="M134.408 90.455c-22.397 0-57.591 3.232-87.986 26.653-67.068 51.68-41.727 135.818-41.727 135.818C102.28 252.388 139.607 310 139.607 310l188.77-16.69c44.26-66.228 138.378-63.133 138.378-63.133 31.595-89.648-34.794-131.645-63.59-140.53-29.474-9.094-68.789-6.46-83.987-1.614C299.182 38.766 243.99 0 217.595 0c-22.397 4.845-60.79 40.381-83.187 90.455"/>
        <path id="be" d="M134.408 90.455c-22.397 0-57.591 3.232-87.986 26.653-67.068 51.68-41.727 135.818-41.727 135.818C102.28 252.388 139.607 310 139.607 310l188.77-16.69c44.26-66.228 138.378-63.133 138.378-63.133 31.595-89.648-34.794-131.645-63.59-140.53-29.474-9.094-68.789-6.46-83.987-1.614C299.182 38.766 243.99 0 217.595 0c-22.397 4.845-60.79 40.381-83.187 90.455"/>
        <path id="bg" d="M134.408 90.455c-22.397 0-57.591 3.232-87.986 26.653-67.068 51.68-41.727 135.818-41.727 135.818C102.28 252.388 139.607 310 139.607 310l188.77-16.69c44.26-66.228 138.378-63.133 138.378-63.133 31.595-89.648-34.794-131.645-63.59-140.53-29.474-9.094-68.789-6.46-83.987-1.614C299.182 38.766 243.99 0 217.595 0c-22.397 4.845-60.79 40.381-83.187 90.455"/>
        <path id="bi" d="M134.408 90.455c-22.397 0-57.591 3.232-87.986 26.653-67.068 51.68-41.727 135.818-41.727 135.818C102.28 252.388 139.607 310 139.607 310l188.77-16.69c44.26-66.228 138.378-63.133 138.378-63.133 31.595-89.648-34.794-131.645-63.59-140.53-29.474-9.094-68.789-6.46-83.987-1.614C299.182 38.766 243.99 0 217.595 0c-22.397 4.845-60.79 40.381-83.187 90.455z"/>
        <path id="bk" d="M134.408 90.455c-22.397 0-57.591 3.232-87.986 26.653-67.068 51.68-41.727 135.818-41.727 135.818C102.28 252.388 139.607 310 139.607 310l188.77-16.69c44.26-66.228 138.378-63.133 138.378-63.133 31.595-89.648-34.794-131.645-63.59-140.53-29.474-9.094-68.789-6.46-83.987-1.614C299.182 38.766 243.99 0 217.595 0c-22.397 4.845-60.79 40.381-83.187 90.455z"/>
        <path id="bm" d="M134.408 90.455c-22.397 0-57.591 3.232-87.986 26.653-67.068 51.68-41.727 135.818-41.727 135.818C102.28 252.388 139.607 310 139.607 310l188.77-16.69c44.26-66.228 138.378-63.133 138.378-63.133 31.595-89.648-34.794-131.645-63.59-140.53-29.474-9.094-68.789-6.46-83.987-1.614C299.182 38.766 243.99 0 217.595 0c-22.397 4.845-60.79 40.381-83.187 90.455z"/>
        <path id="bo" d="M134.408 90.455c-22.397 0-57.591 3.232-87.986 26.653-67.068 51.68-41.727 135.818-41.727 135.818C102.28 252.388 139.607 310 139.607 310l188.77-16.69c44.26-66.228 138.378-63.133 138.378-63.133 31.595-89.648-34.794-131.645-63.59-140.53-29.474-9.094-68.789-6.46-83.987-1.614C299.182 38.766 243.99 0 217.595 0c-22.397 4.845-60.79 40.381-83.187 90.455"/>
        <path id="bq" d="M134.408 90.455c-22.397 0-57.591 3.232-87.986 26.653-67.068 51.68-41.727 135.818-41.727 135.818C102.28 252.388 139.607 310 139.607 310l188.77-16.69c44.26-66.228 138.378-63.133 138.378-63.133 31.595-89.648-34.794-131.645-63.59-140.53-29.474-9.094-68.789-6.46-83.987-1.614C299.182 38.766 243.99 0 217.595 0c-22.397 4.845-60.79 40.381-83.187 90.455z"/>
        <path id="bs" d="M134.408 90.455c-22.397 0-57.591 3.232-87.986 26.653-67.068 51.68-41.727 135.818-41.727 135.818C102.28 252.388 139.607 310 139.607 310l188.77-16.69c44.26-66.228 138.378-63.133 138.378-63.133 31.595-89.648-34.794-131.645-63.59-140.53-29.474-9.094-68.789-6.46-83.987-1.614C299.182 38.766 243.99 0 217.595 0c-22.397 4.845-60.79 40.381-83.187 90.455z"/>
        <path id="bu" d="M134.408 90.455c-22.397 0-57.591 3.232-87.986 26.653-67.068 51.68-41.727 135.818-41.727 135.818C102.28 252.388 139.607 310 139.607 310l188.77-16.69c44.26-66.228 138.378-63.133 138.378-63.133 31.595-89.648-34.794-131.645-63.59-140.53-29.474-9.094-68.789-6.46-83.987-1.614C299.182 38.766 243.99 0 217.595 0c-22.397 4.845-60.79 40.381-83.187 90.455z"/>
        <path id="bw" d="M134.408 90.455c-22.397 0-57.591 3.232-87.986 26.653-67.068 51.68-41.727 135.818-41.727 135.818C102.28 252.388 139.607 310 139.607 310l188.77-16.69c44.26-66.228 138.378-63.133 138.378-63.133 31.595-89.648-34.794-131.645-63.59-140.53-29.474-9.094-68.789-6.46-83.987-1.614C299.182 38.766 243.99 0 217.595 0c-22.397 4.845-60.79 40.381-83.187 90.455z"/>
        <path id="by" d="M134.408 90.455c-22.397 0-57.591 3.232-87.986 26.653-67.068 51.68-41.727 135.818-41.727 135.818C102.28 252.388 139.607 310 139.607 310l188.77-16.69c44.26-66.228 138.378-63.133 138.378-63.133 31.595-89.648-34.794-131.645-63.59-140.53-29.474-9.094-68.789-6.46-83.987-1.614C299.182 38.766 243.99 0 217.595 0c-22.397 4.845-60.79 40.381-83.187 90.455"/>
        <path id="bA" d="M134.408 90.455c-22.397 0-57.591 3.232-87.986 26.653-67.068 51.68-41.727 135.818-41.727 135.818C102.28 252.388 139.607 310 139.607 310l188.77-16.69c44.26-66.228 138.378-63.133 138.378-63.133 31.595-89.648-34.794-131.645-63.59-140.53-29.474-9.094-68.789-6.46-83.987-1.614C299.182 38.766 243.99 0 217.595 0c-22.397 4.845-60.79 40.381-83.187 90.455"/>
        <path id="bC" d="M134.408 90.455c-22.397 0-57.591 3.232-87.986 26.653-67.068 51.68-41.727 135.818-41.727 135.818C102.28 252.388 139.607 310 139.607 310l188.77-16.69c44.26-66.228 138.378-63.133 138.378-63.133 31.595-89.648-34.794-131.645-63.59-140.53-29.474-9.094-68.789-6.46-83.987-1.614C299.182 38.766 243.99 0 217.595 0c-22.397 4.845-60.79 40.381-83.187 90.455"/>
        <path id="bE" d="M134.408 90.455c-22.397 0-57.591 3.232-87.986 26.653-67.068 51.68-41.727 135.818-41.727 135.818C102.28 252.388 139.607 310 139.607 310l188.77-16.69c44.26-66.228 138.378-63.133 138.378-63.133 31.595-89.648-34.794-131.645-63.59-140.53-29.474-9.094-68.789-6.46-83.987-1.614C299.182 38.766 243.99 0 217.595 0c-22.397 4.845-60.79 40.381-83.187 90.455"/>
        <path id="bG" d="M134.408 90.455c-22.397 0-57.591 3.232-87.986 26.653-67.068 51.68-41.727 135.818-41.727 135.818C102.28 252.388 139.607 310 139.607 310l188.77-16.69c44.26-66.228 138.378-63.133 138.378-63.133 31.595-89.648-34.794-131.645-63.59-140.53-29.474-9.094-68.789-6.46-83.987-1.614C299.182 38.766 243.99 0 217.595 0c-22.397 4.845-60.79 40.381-83.187 90.455"/>
        <path id="bI" d="M134.408 90.455c-22.397 0-57.591 3.232-87.986 26.653-67.068 51.68-41.727 135.818-41.727 135.818C102.28 252.388 139.607 310 139.607 310l188.77-16.69c44.26-66.228 138.378-63.133 138.378-63.133 31.595-89.648-34.794-131.645-63.59-140.53-29.474-9.094-68.789-6.46-83.987-1.614C299.182 38.766 243.99 0 217.595 0c-22.397 4.845-60.79 40.381-83.187 90.455"/>
        <path id="bK" d="M134.408 90.455c-22.397 0-57.591 3.232-87.986 26.653-67.068 51.68-41.727 135.818-41.727 135.818C102.28 252.388 139.607 310 139.607 310l188.77-16.69c44.26-66.228 138.378-63.133 138.378-63.133 31.595-89.648-34.794-131.645-63.59-140.53-29.474-9.094-68.789-6.46-83.987-1.614C299.182 38.766 243.99 0 217.595 0c-22.397 4.845-60.79 40.381-83.187 90.455z"/>
        <path id="bM" d="M0 0v88.092c47.419-40.422 116.084-38.18 116.084-38.18A161.64 161.64 0 0 0 120 37.3V6.24C120 2.793 117.212 0 113.775 0H0z"/>
        <linearGradient id="bN" x1="0%" y1="50.766%" y2="50.766%">
            <stop offset="0%" stop-color="#E1E4F2"/>
            <stop offset="100%" stop-color="#FFF"/>
        </linearGradient>
        <path id="bP" d="M134.408 90.455c-22.397 0-57.591 3.232-87.986 26.653-67.068 51.68-41.727 135.818-41.727 135.818C102.28 252.388 139.607 310 139.607 310l188.77-16.69c44.26-66.228 138.378-63.133 138.378-63.133 31.595-89.648-34.794-131.645-63.59-140.53-29.474-9.094-68.789-6.46-83.987-1.614C299.182 38.766 243.99 0 217.595 0c-22.397 4.845-60.79 40.381-83.187 90.455z"/>
        <path id="bR" d="M134.408 90.455c-22.397 0-57.591 3.232-87.986 26.653-67.068 51.68-41.727 135.818-41.727 135.818C102.28 252.388 139.607 310 139.607 310l188.77-16.69c44.26-66.228 138.378-63.133 138.378-63.133 31.595-89.648-34.794-131.645-63.59-140.53-29.474-9.094-68.789-6.46-83.987-1.614C299.182 38.766 243.99 0 217.595 0c-22.397 4.845-60.79 40.381-83.187 90.455"/>
        <path id="bT" d="M134.408 90.455c-22.397 0-57.591 3.232-87.986 26.653-67.068 51.68-41.727 135.818-41.727 135.818C102.28 252.388 139.607 310 139.607 310l188.77-16.69c44.26-66.228 138.378-63.133 138.378-63.133 31.595-89.648-34.794-131.645-63.59-140.53-29.474-9.094-68.789-6.46-83.987-1.614C299.182 38.766 243.99 0 217.595 0c-22.397 4.845-60.79 40.381-83.187 90.455"/>
        <path id="bV" d="M134.408 90.455c-22.397 0-57.591 3.232-87.986 26.653-67.068 51.68-41.727 135.818-41.727 135.818C102.28 252.388 139.607 310 139.607 310l188.77-16.69c44.26-66.228 138.378-63.133 138.378-63.133 31.595-89.648-34.794-131.645-63.59-140.53-29.474-9.094-68.789-6.46-83.987-1.614C299.182 38.766 243.99 0 217.595 0c-22.397 4.845-60.79 40.381-83.187 90.455"/>
        <path id="bX" d="M134.408 90.455c-22.397 0-57.591 3.232-87.986 26.653-67.068 51.68-41.727 135.818-41.727 135.818C102.28 252.388 139.607 310 139.607 310l188.77-16.69c44.26-66.228 138.378-63.133 138.378-63.133 31.595-89.648-34.794-131.645-63.59-140.53-29.474-9.094-68.789-6.46-83.987-1.614C299.182 38.766 243.99 0 217.595 0c-22.397 4.845-60.79 40.381-83.187 90.455"/>
        <path id="bZ" d="M134.408 90.455c-22.397 0-57.591 3.232-87.986 26.653-67.068 51.68-41.727 135.818-41.727 135.818C102.28 252.388 139.607 310 139.607 310l188.77-16.69c44.26-66.228 138.378-63.133 138.378-63.133 31.595-89.648-34.794-131.645-63.59-140.53-29.474-9.094-68.789-6.46-83.987-1.614C299.182 38.766 243.99 0 217.595 0c-22.397 4.845-60.79 40.381-83.187 90.455"/>
        <path id="cb" d="M134.408 90.455c-22.397 0-57.591 3.232-87.986 26.653-67.068 51.68-41.727 135.818-41.727 135.818C102.28 252.388 139.607 310 139.607 310l188.77-16.69c44.26-66.228 138.378-63.133 138.378-63.133 31.595-89.648-34.794-131.645-63.59-140.53-29.474-9.094-68.789-6.46-83.987-1.614C299.182 38.766 243.99 0 217.595 0c-22.397 4.845-60.79 40.381-83.187 90.455"/>
        <path id="cd" d="M134.408 90.455c-22.397 0-57.591 3.232-87.986 26.653-67.068 51.68-41.727 135.818-41.727 135.818C102.28 252.388 139.607 310 139.607 310l188.77-16.69c44.26-66.228 138.378-63.133 138.378-63.133 31.595-89.648-34.794-131.645-63.59-140.53-29.474-9.094-68.789-6.46-83.987-1.614C299.182 38.766 243.99 0 217.595 0c-22.397 4.845-60.79 40.381-83.187 90.455"/>
        <path id="cf" d="M134.408 90.455c-22.397 0-57.591 3.232-87.986 26.653-67.068 51.68-41.727 135.818-41.727 135.818C102.28 252.388 139.607 310 139.607 310l188.77-16.69c44.26-66.228 138.378-63.133 138.378-63.133 31.595-89.648-34.794-131.645-63.59-140.53-29.474-9.094-68.789-6.46-83.987-1.614C299.182 38.766 243.99 0 217.595 0c-22.397 4.845-60.79 40.381-83.187 90.455"/>
        <path id="ch" d="M134.408 90.455c-22.397 0-57.591 3.232-87.986 26.653-67.068 51.68-41.727 135.818-41.727 135.818C102.28 252.388 139.607 310 139.607 310l188.77-16.69c44.26-66.228 138.378-63.133 138.378-63.133 31.595-89.648-34.794-131.645-63.59-140.53-29.474-9.094-68.789-6.46-83.987-1.614C299.182 38.766 243.99 0 217.595 0c-22.397 4.845-60.79 40.381-83.187 90.455z"/>
        <path id="cj" d="M134.408 90.455c-22.397 0-57.591 3.232-87.986 26.653-67.068 51.68-41.727 135.818-41.727 135.818C102.28 252.388 139.607 310 139.607 310l188.77-16.69c44.26-66.228 138.378-63.133 138.378-63.133 31.595-89.648-34.794-131.645-63.59-140.53-29.474-9.094-68.789-6.46-83.987-1.614C299.182 38.766 243.99 0 217.595 0c-22.397 4.845-60.79 40.381-83.187 90.455"/>
        <path id="cl" d="M134.408 90.455c-22.397 0-57.591 3.232-87.986 26.653-67.068 51.68-41.727 135.818-41.727 135.818C102.28 252.388 139.607 310 139.607 310l188.77-16.69c44.26-66.228 138.378-63.133 138.378-63.133 31.595-89.648-34.794-131.645-63.59-140.53-29.474-9.094-68.789-6.46-83.987-1.614C299.182 38.766 243.99 0 217.595 0c-22.397 4.845-60.79 40.381-83.187 90.455"/>
        <path id="cn" d="M134.408 90.455c-22.397 0-57.591 3.232-87.986 26.653-67.068 51.68-41.727 135.818-41.727 135.818C102.28 252.388 139.607 310 139.607 310l188.77-16.69c44.26-66.228 138.378-63.133 138.378-63.133 31.595-89.648-34.794-131.645-63.59-140.53-29.474-9.094-68.789-6.46-83.987-1.614C299.182 38.766 243.99 0 217.595 0c-22.397 4.845-60.79 40.381-83.187 90.455z"/>
        <path id="cp" d="M7.14 0C3.7 0 .91 2.817.91 6.29v104.8h99.811c6.017-8.59 12.894-15.977 20.279-22.314V0H7.14z"/>
        <linearGradient id="cq" x1="0%" x2="99.999%" y1="50%" y2="50%">
            <stop offset="0%" stop-color="#FFF"/>
            <stop offset="100%" stop-color="#E1E4F2"/>
        </linearGradient>
        <path id="cs" d="M134.408 90.455c-22.397 0-57.591 3.232-87.986 26.653-67.068 51.68-41.727 135.818-41.727 135.818C102.28 252.388 139.607 310 139.607 310l188.77-16.69c44.26-66.228 138.378-63.133 138.378-63.133 31.595-89.648-34.794-131.645-63.59-140.53-29.474-9.094-68.789-6.46-83.987-1.614C299.182 38.766 243.99 0 217.595 0c-22.397 4.845-60.79 40.381-83.187 90.455z"/>
        <path id="cu" d="M134.408 90.455c-22.397 0-57.591 3.232-87.986 26.653-67.068 51.68-41.727 135.818-41.727 135.818C102.28 252.388 139.607 310 139.607 310l188.77-16.69c44.26-66.228 138.378-63.133 138.378-63.133 31.595-89.648-34.794-131.645-63.59-140.53-29.474-9.094-68.789-6.46-83.987-1.614C299.182 38.766 243.99 0 217.595 0c-22.397 4.845-60.79 40.381-83.187 90.455"/>
        <path id="cw" d="M134.408 90.455c-22.397 0-57.591 3.232-87.986 26.653-67.068 51.68-41.727 135.818-41.727 135.818C102.28 252.388 139.607 310 139.607 310l188.77-16.69c44.26-66.228 138.378-63.133 138.378-63.133 31.595-89.648-34.794-131.645-63.59-140.53-29.474-9.094-68.789-6.46-83.987-1.614C299.182 38.766 243.99 0 217.595 0c-22.397 4.845-60.79 40.381-83.187 90.455z"/>
        <path id="cy" d="M134.408 90.455c-22.397 0-57.591 3.232-87.986 26.653-67.068 51.68-41.727 135.818-41.727 135.818C102.28 252.388 139.607 310 139.607 310l188.77-16.69c44.26-66.228 138.378-63.133 138.378-63.133 31.595-89.648-34.794-131.645-63.59-140.53-29.474-9.094-68.789-6.46-83.987-1.614C299.182 38.766 243.99 0 217.595 0c-22.397 4.845-60.79 40.381-83.187 90.455z"/>
        <path id="cA" d="M134.408 90.455c-22.397 0-57.591 3.232-87.986 26.653-67.068 51.68-41.727 135.818-41.727 135.818C102.28 252.388 139.607 310 139.607 310l188.77-16.69c44.26-66.228 138.378-63.133 138.378-63.133 31.595-89.648-34.794-131.645-63.59-140.53-29.474-9.094-68.789-6.46-83.987-1.614C299.182 38.766 243.99 0 217.595 0c-22.397 4.845-60.79 40.381-83.187 90.455"/>
        <path id="cC" d="M.011 20.435a92.699 92.699 0 0 0 .006 3.238 55.927 55.927 0 0 0 27.076 7.413c.124-6.659-2.677-15.24-3.89-18.019C20.04 5.832 16.218.57 13.846.043c-.13-.029-.27-.043-.418-.043C9.615 0 .176 9.407.01 20.435"/>
        <radialGradient id="cD" cx="103.135%" cy="-80.275%" r="207.16%" fx="103.135%" fy="-80.275%" gradientTransform="matrix(1 0 0 .87168 0 -.103)">
            <stop offset="0%" stop-color="#FFE8E8"/>
            <stop offset="100%" stop-color="#FDACAC"/>
        </radialGradient>
        <path id="cF" d="M6.458 10.425s.929 3.973 1.221 7.37c.356 4.15-6.766 5.91-6.766 5.91l11.598 30.742 1.155.467c1.094.096 2.195.157 3.307.183L39.1 32.27 42 20.65C35.25 18.493 34.59 0 34.59 0L6.457 10.425z"/>
        <radialGradient id="cG" cx="42.055%" cy="10.847%" r="122.161%" fx="42.055%" fy="10.847%" gradientTransform="matrix(1 0 0 .74572 0 .028)">
            <stop offset="0%" stop-color="#DF9595"/>
            <stop offset="100%" stop-color="#FDACAC"/>
        </radialGradient>
        <path id="cI" d="M8.24 2.65S4.43 9.184 2.167 21.727c-3.49 19.347-2.52 27.207 1.163 28.82.462.202 1.007.384 1.619.54 12.13-8.191 20.154-22.403 20.154-38.562 0-3.98-.486-7.84-1.4-11.522C21.157.374 18.506 0 16.095 0c-3.45 0-6.407.766-7.856 2.65"/>
        <radialGradient id="cJ" cx="-76.047%" cy="24.516%" r="176.048%" fx="-76.047%" fy="24.516%" gradientTransform="matrix(1 0 0 .49138 0 .125)">
            <stop offset="0%" stop-color="#FFE8E8"/>
            <stop offset="100%" stop-color="#FDACAC"/>
        </radialGradient>
    </defs>
    <g fill="none" fill-rule="evenodd">
        <path fill-rule="nonzero" d="M0 0h683v683H0z"/>
        <g transform="translate(104 56)">
            <mask id="b" fill="#fff">
                <use xlink:href="#a"/>
            </mask>
            <path fill="#E1E5F3" d="M-13.678 78.73v174.74h354.72V37.618L220.387-7.294z" mask="url(#b)"/>
            <mask id="d" fill="#fff">
                <use xlink:href="#c"/>
            </mask>
            <path fill="#C3CBE8" d="M341.954 186h143.165V37.382H341.954z" mask="url(#d)"/>
            <path fill="#F0F2F9" d="M-12.766 165.941v87.53h135.87z" mask="url(#d)"/>
            <path fill="#FFF" d="M275.101 104.853h35.24l27.966 47.993-.05 26.772h-91.138v-28.745z" mask="url(#d)"/>
            <path fill="#D8DDEA" d="M290.889 182.353h3.647v-66.559h-3.647z" mask="url(#d)"/>
            <path fill="#C3CBE8" d="M299.468 91.176h-14.423a6.506 6.506 0 0 0-5.57 3.178l-13.937 23.199c-.498.827.088 1.888 1.042 1.888h51.354c.953 0 1.54-1.061 1.042-1.888L305.04 94.354a6.506 6.506 0 0 0-5.571-3.178" mask="url(#d)"/>
            <path fill="#FFF" d="M90.276 192.191l-95.698-61.809-15.551 35.398 94.496 60.018 16.753.32z" mask="url(#d)"/>
        </g>
        <g transform="translate(249 91)">
            <mask id="f" fill="#fff">
                <use xlink:href="#e"/>
            </mask>
            <path fill="#FFF" d="M100.388 157.521L-163.359-11.396v-10.457l263.747 168.917z" mask="url(#f)"/>
        </g>
        <g transform="translate(249 91)">
            <mask id="h" fill="#fff">
                <use xlink:href="#g"/>
            </mask>
            <path fill="#FFF" d="M100.388 136.579L-163.359-32.338v-10.457l263.747 168.917z" mask="url(#h)"/>
        </g>
        <g transform="translate(249 91)">
            <mask id="j" fill="#fff">
                <use xlink:href="#i"/>
            </mask>
            <path fill="#FFF" d="M100.388 178.463L-163.359 9.546V-.91l263.747 168.917z" mask="url(#j)"/>
        </g>
        <g transform="translate(249 91)">
            <mask id="l" fill="#fff">
                <use xlink:href="#k"/>
            </mask>
            <path fill="#FFF" d="M100.388 199.405L-163.359 30.488V20.032l263.747 168.917z" mask="url(#l)"/>
        </g>
        <g transform="translate(249 91)">
            <mask id="n" fill="#fff">
                <use xlink:href="#m"/>
            </mask>
            <path fill="#FFF" d="M100.388 220.347L-163.359 51.43V40.974L100.388 209.89z" mask="url(#n)"/>
        </g>
        <g transform="translate(249 91)">
            <mask id="p" fill="#fff">
                <use xlink:href="#o"/>
            </mask>
            <path fill="#FFF" d="M100.388 241.29L-163.359 72.372V61.916l263.747 168.917z" mask="url(#p)"/>
        </g>
        <g transform="translate(249 91)">
            <mask id="r" fill="#fff">
                <use xlink:href="#q"/>
            </mask>
            <path fill="#FFF" d="M100.388 262.232L-163.359 93.315V82.858l263.747 168.917z" mask="url(#r)"/>
        </g>
        <g transform="translate(249 91)">
            <mask id="t" fill="#fff">
                <use xlink:href="#s"/>
            </mask>
            <path fill="#FFF" d="M100.388 283.174l-263.747-168.917V103.8l263.747 168.917z" mask="url(#t)"/>
        </g>
        <g transform="translate(153 147)">
            <mask id="v" fill="#fff">
                <use xlink:href="#u"/>
            </mask>
            <path fill="#FFF" d="M100.737 40l-264.663-168.65v-10.44L100.737 29.56z" mask="url(#v)"/>
        </g>
        <g transform="translate(153 147)">
            <mask id="x" fill="#fff">
                <use xlink:href="#w"/>
            </mask>
            <path fill="#FFF" d="M100.737 19.09l-264.663-168.65V-160L100.737 8.65z" mask="url(#x)"/>
        </g>
        <g transform="translate(153 147)">
            <mask id="z" fill="#fff">
                <use xlink:href="#y"/>
            </mask>
            <path fill="#FFF" d="M100.737 60.91l-264.663-168.652v-10.44l264.663 168.65z" mask="url(#z)"/>
        </g>
        <g transform="translate(153 147)">
            <mask id="B" fill="#fff">
                <use xlink:href="#A"/>
            </mask>
            <path fill="#FFF" d="M100.737 82.727l-264.663-168.65v-10.44l264.663 168.65z" mask="url(#B)"/>
        </g>
        <g transform="translate(153 147)">
            <mask id="D" fill="#fff">
                <use xlink:href="#C"/>
            </mask>
            <path fill="#FFF" d="M100.737 103.636l-264.663-168.65v-10.44l264.663 168.65z" mask="url(#D)"/>
        </g>
        <g transform="translate(153 147)">
            <mask id="F" fill="#fff">
                <use xlink:href="#E"/>
            </mask>
            <path fill="#FFF" d="M100.737 124.545l-264.663-168.65v-10.44l264.663 168.65z" mask="url(#F)"/>
        </g>
        <g transform="translate(153 147)">
            <mask id="H" fill="#fff">
                <use xlink:href="#G"/>
            </mask>
            <path fill="#FFF" d="M100.737 145.455L-163.926-23.196v-10.44l264.663 168.65z" mask="url(#H)"/>
        </g>
        <g transform="translate(153 147)">
            <mask id="J" fill="#fff">
                <use xlink:href="#I"/>
            </mask>
            <path fill="#FFF" d="M100.737 166.364L-163.926-2.287v-10.44l264.663 168.65z" mask="url(#J)"/>
        </g>
        <g>
            <g transform="translate(104 180)">
                <mask id="L" fill="#fff">
                    <use xlink:href="#K"/>
                </mask>
                <path fill="#FFF" d="M53.986-75.86l-268.067-170.418v-10.55L53.986-86.41z" mask="url(#L)"/>
            </g>
            <g transform="translate(104 180)">
                <mask id="N" fill="#fff">
                    <use xlink:href="#M"/>
                </mask>
                <path fill="#FFF" d="M53.986-54.839l-268.067-170.418v-10.55L53.986-65.387z" mask="url(#N)"/>
            </g>
            <g transform="translate(104 180)">
                <mask id="P" fill="#fff">
                    <use xlink:href="#O"/>
                </mask>
                <path fill="#FFF" d="M53.986-33.817l-268.067-170.418v-10.55L53.986-44.367z" mask="url(#P)"/>
            </g>
            <g transform="translate(104 180)">
                <mask id="R" fill="#fff">
                    <use xlink:href="#Q"/>
                </mask>
                <path fill="#FFF" d="M53.986-12.796l-268.067-170.418v-10.55L53.986-23.344z" mask="url(#R)"/>
            </g>
            <g transform="translate(104 180)">
                <mask id="T" fill="#fff">
                    <use xlink:href="#S"/>
                </mask>
                <path fill="#FFF" d="M53.986 8.226l-268.067-170.418v-10.55L53.986-2.324z" mask="url(#T)"/>
            </g>
            <g transform="translate(104 180)">
                <mask id="V" fill="#fff">
                    <use xlink:href="#U"/>
                </mask>
                <path fill="#FFF" d="M53.986 30.161l-268.067-170.418v-10.55L53.986 19.613z" mask="url(#V)"/>
            </g>
            <g transform="translate(104 180)">
                <mask id="X" fill="#fff">
                    <use xlink:href="#W"/>
                </mask>
                <path fill="#FFF" d="M53.986 51.183l-268.067-170.418v-10.55L53.986 40.633z" mask="url(#X)"/>
            </g>
            <g transform="translate(104 180)">
                <mask id="Z" fill="#fff">
                    <use xlink:href="#Y"/>
                </mask>
                <path fill="#FFF" d="M53.986 72.204L-214.081-98.214v-10.55L53.986 61.656z" mask="url(#Z)"/>
            </g>
        </g>
        <g transform="translate(104 56)">
            <mask id="ab" fill="#fff">
                <use xlink:href="#aa"/>
            </mask>
            <path fill="#D2D8EE" d="M427.236 73.484l-3.458.366a.484.484 0 0 1-.533-.38l-4.685-24.227a.472.472 0 0 1 .426-.55l3.457-.367a.485.485 0 0 1 .533.38l4.686 24.228a.472.472 0 0 1-.426.55" mask="url(#ab)"/>
            <mask id="ad" fill="#fff">
                <use xlink:href="#ac"/>
            </mask>
            <path fill="#D2D8EE" d="M433.706 74.285l-2.319.471a.432.432 0 0 1-.51-.348l-5.023-26.917a.438.438 0 0 1 .34-.51l2.32-.473a.433.433 0 0 1 .51.349l5.022 26.917a.438.438 0 0 1-.34.511" mask="url(#ad)"/>
            <mask id="af" fill="#fff">
                <use xlink:href="#ae"/>
            </mask>
            <path fill="#D2D8EE" d="M440.954 73.744l-3.95 1.004a.529.529 0 0 1-.644-.372l-6.85-26.227a.517.517 0 0 1 .38-.629l3.95-1.003a.528.528 0 0 1 .643.372l6.85 26.227a.516.516 0 0 1-.38.628" mask="url(#af)"/>
            <mask id="ah" fill="#fff">
                <use xlink:href="#ag"/>
            </mask>
            <path fill="#D2D8EE" d="M446.406 73.755l-3.907.992a.553.553 0 0 1-.673-.39l-6.843-26.19a.539.539 0 0 1 .395-.657l3.908-.992c.296-.076.598.1.674.389l6.843 26.19a.54.54 0 0 1-.397.658" mask="url(#ah)"/>
            <mask id="aj" fill="#fff">
                <use xlink:href="#ai"/>
            </mask>
            <path fill="#D2D8EE" d="M430.047 73.55l-2.323.3a.412.412 0 0 1-.452-.347l-4.154-23.461a.427.427 0 0 1 .352-.504l2.322-.3a.413.413 0 0 1 .453.347l4.154 23.462a.426.426 0 0 1-.352.504" mask="url(#aj)"/>
            <mask id="al" fill="#fff">
                <use xlink:href="#ak"/>
            </mask>
            <path fill="#E1E5F3" d="M358.78 145.151l-3.984.722a.603.603 0 0 1-.66-.36l-9.402-21.836a.545.545 0 0 1 .396-.753l4.075-.738c.275-.05.546.1.659.36l9.364 21.75a.617.617 0 0 1-.448.855" mask="url(#al)"/>
            <mask id="an" fill="#fff">
                <use xlink:href="#am"/>
            </mask>
            <path fill="#D2D8EE" d="M369.05 145.033l-2.29.827a.38.38 0 0 1-.46-.174l-14.26-24.81a.408.408 0 0 1 .205-.586l2.29-.827a.381.381 0 0 1 .459.174l14.262 24.811a.407.407 0 0 1-.206.585" mask="url(#an)"/>
            <mask id="ap" fill="#fff">
                <use xlink:href="#ao"/>
            </mask>
            <path fill="#F0F2F9" d="M361.756 145.294l-1.57.566a.379.379 0 0 1-.477-.218l-9.548-22.774 1.83-.66a.53.53 0 0 1 .669.306l9.323 22.238a.409.409 0 0 1-.227.542" mask="url(#ap)"/>
            <mask id="ar" fill="#fff">
                <use xlink:href="#aq"/>
            </mask>
            <path fill="#E1E5F3" d="M377.111 144.333l-3.838 1.505a.648.648 0 0 1-.763-.225l-14.966-21.097a.472.472 0 0 1 .216-.715l4.03-1.58a.647.647 0 0 1 .762.225l14.848 20.93a.633.633 0 0 1-.289.957" mask="url(#ar)"/>
            <mask id="at" fill="#fff">
                <use xlink:href="#as"/>
            </mask>
            <path fill="#D2D8EE" d="M393.931 143.541l-4.875 2.341-12.45-16.166 4.087-1.963a1.08 1.08 0 0 1 1.318.31l11.92 15.478z" mask="url(#at)"/>
            <mask id="av" fill="#fff">
                <use xlink:href="#au"/>
            </mask>
            <path fill="#E1E5F3" d="M381.845 144.299l-2.431 1.508a.502.502 0 0 1-.671-.132l-13.9-19.395a.486.486 0 0 1 .14-.697l2.43-1.507a.502.502 0 0 1 .672.131l13.9 19.395c.165.23.1.548-.14.697" mask="url(#av)"/>
            <mask id="ax" fill="#fff">
                <use xlink:href="#aw"/>
            </mask>
            <path fill="#F0F2F9" d="M386.252 144.536l-1.707 1.191a.856.856 0 0 1-1.187-.202l-13.87-18.888a.92.92 0 0 1 .207-1.291l1.706-1.191a.857.857 0 0 1 1.187.202l13.87 18.889c.303.412.209 1-.206 1.29" mask="url(#ax)"/>
            <mask id="az" fill="#fff">
                <use xlink:href="#ay"/>
            </mask>
            <path fill="#D2D8EE" d="M452.623 109.612l3.736.693c.507.095 1.008-.185 1.216-.677l9.306-22.165-4.487-.832a.785.785 0 0 0-.865.483l-9.204 21.917c-.104.248.042.534.298.581" mask="url(#az)"/>
            <mask id="aB" fill="#fff">
                <use xlink:href="#aA"/>
            </mask>
            <path fill="#D2D8EE" d="M442.476 109.475l2.375.81c.333.113.7-.027.88-.337l13.8-23.721a.402.402 0 0 0-.21-.582l-2.41-.82a.586.586 0 0 0-.694.265l-13.912 23.913a.327.327 0 0 0 .171.472" mask="url(#aB)"/>
            <mask id="aD" fill="#fff">
                <use xlink:href="#aC"/>
            </mask>
            <path fill="#D2D8EE" d="M449.79 109.711l1.661.593a.344.344 0 0 0 .431-.195l9.499-22.396a.363.363 0 0 0-.205-.483l-1.662-.593a.345.345 0 0 0-.43.196l-9.5 22.395a.363.363 0 0 0 .206.483" mask="url(#aD)"/>
            <mask id="aF" fill="#fff">
                <use xlink:href="#aE"/>
            </mask>
            <path fill="#E1E5F3" d="M434.34 108.794l3.72 1.453a1.1 1.1 0 0 0 1.296-.38l13.774-19.22c.15-.21.06-.502-.18-.596L448.98 88.5a.84.84 0 0 0-.99.29l-13.852 19.33a.445.445 0 0 0 .204.675" mask="url(#aF)"/>
            <mask id="aH" fill="#fff">
                <use xlink:href="#aG"/>
            </mask>
            <path fill="#D2D8EE" d="M418.881 108.619l3.716 1.639a.771.771 0 0 0 .937-.253l11.432-15.94-4.335-1.91a.77.77 0 0 0-.937.252l-11.04 15.394a.545.545 0 0 0 .227.818" mask="url(#aH)"/>
            <mask id="aJ" fill="#fff">
                <use xlink:href="#aI"/>
            </mask>
            <path fill="#E1E5F3" d="M429.726 108.744l2.394 1.503c.223.14.517.082.669-.133l14.03-19.815-2.836-1.782a.496.496 0 0 0-.668.134l-13.73 19.39a.493.493 0 0 0 .141.703" mask="url(#aJ)"/>
            <mask id="aL" fill="#fff">
                <use xlink:href="#aK"/>
            </mask>
            <path fill="#D2D8EE" d="M425.144 108.697l2.473 1.558a.446.446 0 0 0 .603-.12l14.04-19.89-2.705-1.704a.654.654 0 0 0-.882.177l-13.656 19.343a.446.446 0 0 0 .127.636" mask="url(#aL)"/>
            <mask id="aN" fill="#fff">
                <use xlink:href="#aM"/>
            </mask>
            <path fill="#D2D8EE" d="M359.421 183.265h-4.842c-.426 0-.77-.362-.77-.807v-23.003c0-.446.344-.808.77-.808h4.842c.426 0 .77.362.77.808v23.003c0 .445-.344.807-.77.807" mask="url(#aN)"/>
            <mask id="aP" fill="#fff">
                <use xlink:href="#aO"/>
            </mask>
            <path fill="#E1E5F3" d="M369.266 184.176h-3.56c-.527 0-.955-.442-.955-.988v-19.905c0-.547.428-.989.956-.989h3.56c.527 0 .955.442.955.989v19.905c0 .546-.428.988-.956.988" mask="url(#aP)"/>
            <mask id="aR" fill="#fff">
                <use xlink:href="#aQ"/>
            </mask>
            <path fill="#D2D8EE" d="M382.513 184.176h-4.521a.483.483 0 0 1-.475-.491v-20.9c0-.27.213-.49.475-.49h4.521c.263 0 .476.22.476.49v20.9a.483.483 0 0 1-.476.491" mask="url(#aR)"/>
            <mask id="aT" fill="#fff">
                <use xlink:href="#aS"/>
            </mask>
            <path fill="#D2D8EE" d="M376.144 183.265h-5.46a.475.475 0 0 1-.462-.487v-22.733c0-.268.208-.486.462-.486h5.46c.255 0 .461.218.461.486v22.733a.474.474 0 0 1-.461.487" mask="url(#aT)"/>
            <mask id="aV" fill="#fff">
                <use xlink:href="#aU"/>
            </mask>
            <path fill="#E1E5F3" d="M364.26 184.176h-3.579a.49.49 0 0 1-.49-.492v-25.457a.49.49 0 0 1 .49-.492h3.58c.27 0 .49.22.49.492v25.457c0 .272-.22.492-.49.492" mask="url(#aV)"/>
            <mask id="aX" fill="#fff">
                <use xlink:href="#aW"/>
            </mask>
            <path fill="#D2D8EE" d="M435.877 144.875l-4.106 1.007-12.236-21.298a.528.528 0 0 1 .32-.777l2.834-.695a.831.831 0 0 1 .917.401l12.271 21.362z" mask="url(#aX)"/>
            <mask id="aZ" fill="#fff">
                <use xlink:href="#aY"/>
            </mask>
            <path fill="#D2D8EE" d="M444.577 143.559l-4.274 1.381a.619.619 0 0 1-.718-.262l-14.587-24.029a.442.442 0 0 1 .25-.649l4.457-1.44a.617.617 0 0 1 .717.262l14.489 23.866a.592.592 0 0 1-.334.871" mask="url(#aZ)"/>
            <mask id="bb" fill="#fff">
                <use xlink:href="#ba"/>
            </mask>
            <path fill="#E1E5F3" d="M464.146 143.75l-7.209 2.132-14.578-24.229a.69.69 0 0 1 .351-1l5.39-2.06a.97.97 0 0 1 1.175.401l14.87 24.756z" mask="url(#bb)"/>
            <mask id="bd" fill="#fff">
                <use xlink:href="#bc"/>
            </mask>
            <path fill="#D2D8EE" d="M471.087 145.88l-5.657-.755a.314.314 0 0 1-.271-.312l-.102-19.36a.53.53 0 0 1 .528-.536l5.751-.005.105 20.653c0 .191-.166.34-.354.315" mask="url(#bd)"/>
            <mask id="bf" fill="#fff">
                <use xlink:href="#be"/>
            </mask>
            <path fill="#E1E5F3" d="M477.124 144.965l-5.046-.706a.64.64 0 0 1-.536-.64l-.101-20.789c-.002-.362.276-.655.621-.654l5.046.025c.339.001.613.29.615.646l.1 21.47c.002.395-.327.7-.699.648" mask="url(#bf)"/>
            <mask id="bh" fill="#fff">
                <use xlink:href="#bg"/>
            </mask>
            <path fill="#F0F2F9" d="M438.015 145.546l-.83.288a.876.876 0 0 1-1.044-.39l-12.118-20.752 1.858-.644a.876.876 0 0 1 1.044.39l11.565 19.806a.9.9 0 0 1-.475 1.302" mask="url(#bh)"/>
            <mask id="bj" fill="#fff">
                <use xlink:href="#bi"/>
            </mask>
            <path fill="#E1E5F3" d="M451.38 145.21l-5.895 1.584-13.255-23.522 4.943-1.956a.742.742 0 0 1 .92.339l13.286 23.556z" mask="url(#bj)"/>
            <mask id="bl" fill="#fff">
                <use xlink:href="#bk"/>
            </mask>
            <path fill="#F0F2F9" d="M455.939 145.17l-3.601.712-12.813-21.739 2.397-.977a1.05 1.05 0 0 1 1.301.441l12.716 21.564z" mask="url(#bl)"/>
            <mask id="bn" fill="#fff">
                <use xlink:href="#bm"/>
            </mask>
            <path fill="#D2D8EE" d="M382.989 53.329L379.347 52a.498.498 0 0 0-.601.22l-12.11 20.732a.438.438 0 0 0 .223.632l3.152 1.15a.499.499 0 0 0 .602-.22l12.376-21.186z" mask="url(#bn)"/>
            <mask id="bp" fill="#fff">
                <use xlink:href="#bo"/>
            </mask>
            <path fill="#D2D8EE" d="M394.52 48.887l-4.456-1.447a.569.569 0 0 0-.66.243l-14.56 24.103a.433.433 0 0 0 .242.635l4.282 1.39a.839.839 0 0 0 .978-.359l14.43-23.89a.458.458 0 0 0-.256-.675" mask="url(#bp)"/>
            <mask id="br" fill="#fff">
                <use xlink:href="#bq"/>
            </mask>
            <path fill="#D2D8EE" d="M413.992 50.147l-7.183-2.735-14.702 24.837 6.445 2.454a.94.94 0 0 0 1.142-.399l14.298-24.157z" mask="url(#br)"/>
            <mask id="bt" fill="#fff">
                <use xlink:href="#bs"/>
            </mask>
            <path fill="#D2D8EE" d="M387.548 51.838l-2.4-.763a.338.338 0 0 0-.392.144l-13.575 22.414c-.11.18-.02.414.184.48l2.003.636a.34.34 0 0 0 .392-.145l13.788-22.766z" mask="url(#bt)"/>
            <g>
                <mask id="bv" fill="#fff">
                    <use xlink:href="#bu"/>
                </mask>
                <path fill="#D2D8EE" d="M400.314 52.496l-5.515-1.41a.88.88 0 0 0-.974.403l-12.585 21.2a.538.538 0 0 0 .334.796l5.094 1.264a.538.538 0 0 0 .593-.248l13.053-22.005z" mask="url(#bv)"/>
            </g>
            <g>
                <mask id="bx" fill="#fff">
                    <use xlink:href="#bw"/>
                </mask>
                <path fill="#D2D8EE" d="M403.962 52.113l-2.633-.999a.85.85 0 0 0-1.026.347l-12.755 21.11 3.236 1.282 13.178-21.74z" mask="url(#bx)"/>
            </g>
            <g>
                <mask id="bz" fill="#fff">
                    <use xlink:href="#by"/>
                </mask>
                <path fill="#E1E5F3" d="M359.143 183.274l-1.855.88a.236.236 0 0 1-.307-.097l-12.26-21.438a.238.238 0 0 1 .105-.334l1.855-.88a.238.238 0 0 1 .307.096l12.26 21.439a.238.238 0 0 1-.105.334" mask="url(#bz)"/>
            </g>
            <g>
                <mask id="bB" fill="#fff">
                    <use xlink:href="#bA"/>
                </mask>
                <path fill="#D2D8EE" d="M404.61 144.654l2.66.312c.38.044.73-.223.8-.613l4.086-22.795c.077-.431-.215-.84-.636-.889l-2.66-.311a.735.735 0 0 0-.8.612l-4.086 22.796a.751.751 0 0 0 .636.888" mask="url(#bB)"/>
            </g>
            <g>
                <mask id="bD" fill="#fff">
                    <use xlink:href="#bC"/>
                </mask>
                <path fill="#E1E5F3" d="M397.038 146.325l2.265.46a.462.462 0 0 0 .544-.372l5.019-26.869a.47.47 0 0 0-.364-.547l-2.264-.458a.463.463 0 0 0-.545.372l-5.018 26.868a.467.467 0 0 0 .363.546" mask="url(#bD)"/>
            </g>
            <g>
                <mask id="bF" fill="#fff">
                    <use xlink:href="#bE"/>
                </mask>
                <path fill="#D2D8EE" d="M392.513 146.226l2.158.55a.547.547 0 0 0 .668-.377l6.782-25.753a.523.523 0 0 0-.388-.636l-2.16-.551a.546.546 0 0 0-.666.378l-6.783 25.753c-.073.279.1.562.39.636" mask="url(#bF)"/>
            </g>
            <g>
                <mask id="bH" fill="#fff">
                    <use xlink:href="#bG"/>
                </mask>
                <path fill="#D2D8EE" d="M475.49 154.5l2.249.489c.277.06.551-.115-.219-.612l5.775-27.255-1.915-.375a.51.51 0 0 0-.61.39l-5.671 26.765a.505.505 0 0 0 .39.597" mask="url(#bH)"/>
            </g>
            <g>
                <mask id="bJ" fill="#fff">
                    <use xlink:href="#bI"/>
                </mask>
                <path fill="#F0F2F9" d="M400.744 146.43l2.206.36a.492.492 0 0 0 .54-.416l4.111-23.31a.512.512 0 0 0-.422-.605l-2.151-.279a.494.494 0 0 0-.541.418l-4.165 23.227c-.05.29.142.569.422.604" mask="url(#bJ)"/>
            </g>
            <mask id="bL" fill="#fff">
                <use xlink:href="#bK"/>
            </mask>
            <path fill="#D2D8EE" d="M338.307 191.47h6.383V41.942h-6.383zM412.169 191.47h6.383V41.942h-6.383z" mask="url(#bL)"/>
            <path fill="#D2D8EE" d="M341.954 152.265h147.724v-6.383H341.954zM341.954 116.706h147.724v-6.382H341.954zM341.042 81.147h147.724v-6.382H341.042zM366.79 110.324h-6.813c-.386 0-.697-.35-.697-.779V108.5h8.207v1.045c0 .43-.312.779-.697.779" mask="url(#bL)"/>
            <path fill="#D2D8EE" d="M354.23 100.294a.433.433 0 0 0-.417.493c.675 4.877 4.7 8.625 9.57 8.625s8.894-3.748 9.57-8.625a.432.432 0 0 0-.418-.493H354.23zM409.372 109.412h-29.969c-.538 0-.974-.42-.974-.94v-4.502c0-.52.436-.94.974-.94h29.969c.537 0 .973.42.973.94v4.502c0 .52-.436.94-.973.94M408.663 99.382H379.2c-.426 0-.77-.325-.77-.726V95.55c0-.4.344-.726.77-.726h29.464c.425 0 .77.325.77.726v3.106c0 .4-.345.726-.77.726" mask="url(#bL)"/>
            <path fill="#E1E5F3" d="M411.693 103.03h-30.965a.463.463 0 0 1-.475-.452v-2.744c0-.25.212-.452.475-.452h30.965c.263 0 .476.202.476.452v2.744c0 .25-.213.451-.476.451" mask="url(#bL)"/>
            <path fill="#D2D8EE" d="M411.593 94.824H391.77a.578.578 0 0 1-.575-.582v-5.22c0-.32.258-.58.575-.58h19.823c.318 0 .576.26.576.58v5.22a.578.578 0 0 1-.576.582M365.092 73.853H345.26a.563.563 0 0 1-.57-.557v-5.269c0-.307.254-.556.57-.556h19.832c.315 0 .57.249.57.556v5.27a.564.564 0 0 1-.57.556M367.82 67.47h-17.992c-.32 0-.579-.245-.579-.548V63.46c0-.303.26-.548.58-.548h17.99c.32 0 .58.245.58.548v3.462c0 .303-.26.549-.58.549" mask="url(#bL)"/>
            <path fill="#D2D8EE" d="M366.207 62.912h-19.326a.36.36 0 0 1-.368-.35v-2.036a.36.36 0 0 1 .368-.35h19.326a.36.36 0 0 1 .368.35v2.036a.36.36 0 0 1-.368.35M482.799 110.324h-21.804a.496.496 0 0 1-.497-.497v-5.39c0-.274.222-.496.497-.496H482.8c.274 0 .496.222.496.496v5.39a.496.496 0 0 1-.496.497M408.08 88.441h-18.269c-.242 0-.44-.213-.44-.474v-3.61c0-.262.198-.475.44-.475h18.27c.243 0 .44.213.44.475v3.61c0 .261-.197.474-.44.474M486.535 103.941H462.73a.413.413 0 0 1-.408-.418v-4.635c0-.23.182-.417.408-.417h23.805c.225 0 .408.187.408.417v4.635c0 .23-.183.418-.408.418M347.411 109.78l-2.716-18.01a.517.517 0 0 1 .517-.59l3.377-.004c.34 0 .628.245.68.576l2.71 17.977a.518.518 0 0 1-.517.59l-3.41.005a.646.646 0 0 1-.64-.544M48.72 181.961c1.63 5.916-.692 11.704-5.19 12.928-4.496 1.223-9.463-2.581-11.094-8.497-1.63-5.916.694-11.704 5.19-12.928 4.497-1.223 9.463 2.581 11.094 8.497M51.977 213.353h-1.824v-95.837c0-.448.409-.81.912-.81.503 0 .912.362.912.81v95.837zM69.284 173.752c3.035 5.613 2.237 11.974-1.782 14.207-4.018 2.231-9.737-.51-12.77-6.123-3.036-5.613-2.238-11.974 1.78-14.206 4.02-2.232 9.737.508 12.772 6.122" mask="url(#bL)"/>
            <path fill="#D2D8EE" d="M56.221 163.885c1.204 5.723-1.148 11.078-5.256 11.961-4.106.883-8.41-3.04-9.616-8.76-1.204-5.723 1.15-11.078 5.256-11.962 4.107-.883 8.412 3.04 9.616 8.761M69.93 138.33c1.972 4.383 1.452 8.867-1.16 10.017-2.613 1.15-6.33-1.471-8.302-5.854-1.971-4.382-1.452-8.867 1.16-10.017 2.613-1.149 6.33 1.472 8.302 5.854" mask="url(#bL)"/>
            <path fill="#D2D8EE" d="M60.588 148.531c1.323 5.226-.03 10.112-3.023 10.915-2.993.804-6.492-2.78-7.816-8.007-1.323-5.225.03-10.111 3.023-10.915 2.993-.803 6.493 2.782 7.816 8.007" mask="url(#bL)"/>
            <path fill="#E1E5F3" d="M27.275 146.382c-3.253 1.852-9.292 3.272-10.5 1.244-1.308-2.198 1.024-6.123 5.5-9.038 4.475-2.915 8.806-3.524 10.603-1.712 2.215 2.231.092 6.263-5.603 9.506M56.153 176.649c2.585 6.002 1.18 12.4-3.142 14.292-4.32 1.891-9.92-1.44-12.505-7.443-2.585-6.002-1.18-12.4 3.142-14.292 4.32-1.891 9.92 1.44 12.505 7.443" mask="url(#bL)"/>
            <path fill="#D2D8EE" d="M49.756 139.905c-1.266 5.195-5.177 8.612-8.734 7.634-3.557-.98-5.415-5.984-4.15-11.18 1.267-5.194 5.177-8.612 8.734-7.633 3.558.979 5.415 5.984 4.15 11.179M29.761 166.18c-3.05 3.685-5.882 6.436-7.793 4.697-1.91-1.737-.987-6.135 2.062-9.82 3.049-3.687 7.07-5.265 8.98-3.526 1.91 1.738-.2 4.963-3.249 8.648M58.653 150.987c2.645 3.994 5.255 7.018 7.836 5.385 2.58-1.633 2.528-6.194-.117-10.189-2.645-3.994-6.881-5.91-9.462-4.276-2.58 1.633-.902 5.085 1.743 9.08" mask="url(#bL)"/>
            <path fill="#E1E5F3" d="M35.848 128.806c-5.14 1.736-10.28 2.476-11.112-.096-.833-2.571 2.958-7.48 8.098-9.218 5.14-1.737 9.981-1.06 10.814 1.513.831 2.572-2.66 6.065-7.8 7.8M35.524 184.183c-2.95 4.45-8.41 6.896-11.847 4.566-3.438-2.33-3.552-8.556-.602-13.006 2.95-4.45 7.847-5.441 11.285-3.11 3.438 2.33 4.114 7.1 1.164 11.55M41.831 144.526c-3.666 3.91-9.556 5.47-12.668 2.661-3.113-2.81-1.979-8.525 1.687-12.434 3.666-3.91 8.475-4.534 11.588-1.724 3.111 2.81 3.06 7.587-.607 11.497" mask="url(#bL)"/>
            <path fill="#D2D8EE" d="M74.842 164.322c1.985 4.759 2.18 9.3 1.117 9.783-1.064.484-2.985-3.27-4.97-8.03-1.984-4.759-3.28-8.72-2.216-9.203 1.063-.484 4.084 2.692 6.07 7.45" mask="url(#bL)"/>
            <path fill="#E1E5F3" d="M50.018 159.586c-3.88 4.376-10.231 4.851-14.185 1.06-3.955-3.791-4.014-10.413-.134-14.79 3.88-4.377 10.231-4.852 14.185-1.06 3.954 3.79 4.014 10.412.134 14.79M56.378 129.159c1.876 4.374 1.222 8.877-1.46 10.056-2.683 1.18-6.378-1.41-8.253-5.785-1.877-4.374-1.223-8.877 1.46-10.057 2.682-1.18 6.377 1.41 8.253 5.786" mask="url(#bL)"/>
            <path fill="#E1E5F3" d="M43.48 169.788c-3.225 4.875-8.974 6.696-12.843 4.068-3.869-2.628-4.39-8.71-1.166-13.585 3.224-4.875 8.974-6.696 12.843-4.068 3.868 2.628 4.39 8.71 1.165 13.585" mask="url(#bL)"/>
            <path fill="#E1E5F3" d="M26.989 164.794c-5.028 4.017-11 5.315-13.763 1.985-2.764-3.331-1.27-10.029 3.757-14.046 5.028-4.016 11.92-4.2 14.684-.87 2.763 3.331.35 8.914-4.678 12.93M66.706 162.174c3.62 5.46 3.432 11.982-.422 14.566-3.854 2.584-9.913.253-13.534-5.208-3.621-5.46-3.432-11.982.422-14.567 3.854-2.584 9.913-.251 13.534 5.21" mask="url(#bL)"/>
            <path fill="#8DB4F4" d="M118.544 253.47H242.56l-.313 26.442H118.544z" mask="url(#bL)"/>
            <path fill="#7582B8" d="M118.544 253.47H242.56l-.313 26.442H118.544z" mask="url(#bL)"/>
            <path fill="#8DB4F4" d="M20.973 253.47h113.985l-7.987 26.442H77.392z" mask="url(#bL)"/>
            <path fill="#7582B8" d="M144.989 279.912h124.015l-.312 26.44H144.989z" mask="url(#bL)"/>
            <path fill="#8DB4F4" d="M80.245 279.912h76.598l-8.028 26.44h-20.401z" mask="url(#bL)"/>
            <path fill="#D2D8EE" d="M251.163 148.618c-3.293 0-5.987 2.71-5.987 6.024v2.276H94.043v-2.276c0-3.313-2.694-6.024-5.987-6.024s-5.987 2.71-5.987 6.024V201.5h175.08v-46.858c0-3.313-2.694-6.024-5.986-6.024" mask="url(#bL)"/>
            <path fill="#F0F2F9" d="M64.743 194.002s2.538-6.602 9.602-11.39c2.14-1.45 1.578-7.423 6.53-12.88a6.784 6.784 0 0 1 4.464-2.205c14.416-1.185 21.016-.168 30.016-.372 8.601-.194 19.299-1.91 41.103-.896a2.325 2.325 0 0 1 2.209 2.327c.004 1.395-.112 3.654-.503 7.315-.691 6.47-7.802 18.305-7.802 18.305l-85.619-.204z" mask="url(#bL)"/>
            <path fill="#F0F2F9" d="M150.139 186.086c3.119-2.415 4.929-7.355 6.974-10.867 2.62-4.498 6.445-7.952 8.76-9.791a5.97 5.97 0 0 1 4.227-1.289c7.144.61 29.341 2.492 34.837 2.829 6.093.372 24.85-3.056 39.142-1.96a4.069 4.069 0 0 1 3.74 3.686c.347 3.764.498 10.126-1.435 15.983-2.99 9.057-7.373 14.088-7.373 14.088h-95.846s.996-8.05 6.974-12.679" mask="url(#bL)"/>
            <path fill="#D8DDEA" d="M57.432 253.47H30.108c-2.435 0-4.513-1.787-4.91-4.224l-3.313-20.393h43.77l-3.314 20.393c-.397 2.437-2.474 4.225-4.91 4.225M121.28 253.47h-2.863l-5.344-22.794h8.207z" mask="url(#bL)"/>
            <path fill="#D2D8EE" d="M121.28 253.47h2.863l5.344-22.794h-8.207z" mask="url(#bL)"/>
            <path fill="#E1E5F3" d="M92.1 253.47h-2.863l-5.344-22.794H92.1zM93.011 253.47h2.863l5.344-22.794h-8.207z" mask="url(#bL)"/>
            <path fill="#C3CBE8" d="M-12.766 226.118H233.44v-27.353H-12.766z" mask="url(#bL)"/>
            <path fill="#E1E5F3" d="M-12.766 226.118h134.958v-27.353H-12.766z" mask="url(#bL)"/>
            <path fill="#D2D8EE" d="M-12.766 231.588H233.44v-5.47H-12.766z" mask="url(#bL)"/>
            <path fill="#D8DDEA" d="M-12.766 231.588H121.28v-5.47H-12.766z" mask="url(#bL)"/>
            <path fill="#95A4D7" d="M299.288 174.256l.002-.001-.024-.016c-.372-.288-16.542-10.837-16.542-10.837a1.196 1.196 0 0 0-1.674.375 1.257 1.257 0 0 0 .367 1.714l11.02 7.22a3.69 3.69 0 0 1 1.653 3.09v5.64s8.653-.053 8.653-.08a8.973 8.973 0 0 0-3.455-7.105M307.621 180.53h-3.966v-23.631c0-4.071 2.967-8.281 7.932-8.281 5.503 0 7.955 4.744 8.482 7.251l-3.877.847c-.091-.404-1.016-4.059-4.605-4.059-2.736 0-3.966 2.48-3.966 4.242v23.63z" mask="url(#bL)"/>
            <path fill="#95A4D7" d="M322.738 160.148l-5.027 1.2a1.278 1.278 0 0 1-1.535-.943l-.631-2.636a1.277 1.277 0 0 1 .944-1.535l5.025-1.2a1.278 1.278 0 0 1 1.537.943l.63 2.636a1.277 1.277 0 0 1-.943 1.535" mask="url(#bL)"/>
            <path fill="#A4B1DD" d="M320.107 182.364s-.765-8.953 4.559-8.953h32.082c4.124 0 7.73-2.776 8.896-6.793 3.11-10.709 8.47-24.932 16.488-27.903 14.042-5.203 16.238 6.486 23.958 5.676 7.72-.811 13.043-1.893 25.82-2.163 12.778-.27 20.764 2.094 23.959 1.284 3.194-.811 10.182-8.717 19.765-6.284 7.648 1.942 9.565 8.72 10.316 13.378 4.791 29.731-9.318 81.894-9.318 81.894l-25.555-11.352-130.97-38.784z" mask="url(#bL)"/>
            <path fill="#FFF" d="M492.414 237.645l-120.368 32.237v-90.264H486.17c3.448 0 6.244 2.82 6.244 6.298v51.729z" mask="url(#bL)"/>
            <path fill="#83ABF1" d="M492.414 240.38l-120.368 32.238v-90.265H486.17c3.448 0 6.244 2.82 6.244 6.298v51.73z" mask="url(#bL)"/>
        </g>
        <g transform="translate(454 236)">
            <mask id="bO" fill="#fff">
                <use xlink:href="#bM"/>
            </mask>
            <path fill="url(#bN)" d="M0 0v88.092c47.419-40.422 116.084-38.18 116.084-38.18A161.64 161.64 0 0 0 120 37.3V6.24C120 2.793 117.212 0 113.775 0H0z" mask="url(#bO)"/>
        </g>
        <g>
            <g transform="translate(104 56)">
                <mask id="bQ" fill="#fff">
                    <use xlink:href="#bP"/>
                </mask>
                <path fill="#83ABF1" d="M470.529 240.38L350.16 272.618v-90.265h119.083c.71 0 1.285.58 1.285 1.295v56.732z" mask="url(#bQ)"/>
            </g>
            <g transform="translate(104 56)">
                <mask id="bS" fill="#fff">
                    <use xlink:href="#bR"/>
                </mask>
                <path fill="#7582B8" d="M370.222 194.206a5.47 5.47 0 1 1-10.941 0 5.47 5.47 0 0 1 10.941 0" mask="url(#bS)"/>
            </g>
            <g transform="translate(104 56)">
                <mask id="bU" fill="#fff">
                    <use xlink:href="#bT"/>
                </mask>
                <path fill="#83ABF1" d="M364.751 199.676c-.501 0-.912-.389-.912-.865v-8.299c0-.475.41-.865.912-.865.501 0 .912.39.912.865v8.3c0 .475-.41.864-.912.864" mask="url(#bU)"/>
            </g>
            <g transform="translate(104 56)">
                <mask id="bW" fill="#fff">
                    <use xlink:href="#bV"/>
                </mask>
                <path fill="#7582B8" d="M428.582 194.206a5.47 5.47 0 1 1-10.941 0 5.47 5.47 0 0 1 10.941 0" mask="url(#bW)"/>
            </g>
            <g transform="translate(104 56)">
                <mask id="bY" fill="#fff">
                    <use xlink:href="#bX"/>
                </mask>
                <path fill="#83ABF1" d="M423.112 199.676c-.502 0-.913-.389-.913-.865v-8.299c0-.475.411-.865.913-.865.5 0 .911.39.911.865v8.3c0 .475-.41.864-.911.864" mask="url(#bY)"/>
            </g>
            <g transform="translate(104 56)">
                <mask id="ca" fill="#fff">
                    <use xlink:href="#bZ"/>
                </mask>
                <path fill="#7582B8" d="M445.908 194.206a5.47 5.47 0 1 1-10.942 0 5.47 5.47 0 0 1 10.942 0" mask="url(#ca)"/>
            </g>
            <g transform="translate(104 56)">
                <mask id="cc" fill="#fff">
                    <use xlink:href="#cb"/>
                </mask>
                <path fill="#83ABF1" d="M440.437 199.676c-.501 0-.912-.389-.912-.865v-8.299c0-.475.411-.865.912-.865.501 0 .912.39.912.865v8.3c0 .475-.41.864-.912.864" mask="url(#cc)"/>
            </g>
            <g transform="translate(104 56)">
                <mask id="ce" fill="#fff">
                    <use xlink:href="#cd"/>
                </mask>
                <path fill="#7582B8" d="M462.322 194.206a5.47 5.47 0 1 1-10.942 0 5.47 5.47 0 0 1 10.942 0" mask="url(#ce)"/>
            </g>
            <g transform="translate(104 56)">
                <mask id="cg" fill="#fff">
                    <use xlink:href="#cf"/>
                </mask>
                <path fill="#83ABF1" d="M456.851 199.676c-.501 0-.912-.389-.912-.865v-8.299c0-.475.41-.865.912-.865.501 0 .911.39.911.865v8.3c0 .475-.41.864-.911.864" mask="url(#cg)"/>
            </g>
            <g transform="translate(104 56)">
                <mask id="ci" fill="#fff">
                    <use xlink:href="#ch"/>
                </mask>
                <path fill="#7582B8" d="M350.16 207.882H470.53v-.911H350.16z" mask="url(#ci)"/>
            </g>
            <g transform="translate(104 56)">
                <mask id="ck" fill="#fff">
                    <use xlink:href="#cj"/>
                </mask>
                <path fill="#7582B8" d="M407.172 198.765h-25.57c-.745 0-1.35-.588-1.35-1.313v-6.492c0-.725.605-1.313 1.35-1.313h25.57c.745 0 1.35.588 1.35 1.313v6.492c0 .725-.605 1.313-1.35 1.313" mask="url(#ck)"/>
            </g>
            <g transform="translate(104 56)">
                <mask id="cm" fill="#fff">
                    <use xlink:href="#cl"/>
                </mask>
                <path fill="#7582B8" d="M458.712 220.647h-96.735a.883.883 0 0 1-.874-.89v-1.866c0-.492.392-.891.874-.891h96.735c.482 0 .874.399.874.89v1.866c0 .492-.392.891-.874.891" mask="url(#cm)"/>
            </g>
            <g transform="translate(104 56)">
                <mask id="co" fill="#fff">
                    <use xlink:href="#cn"/>
                </mask>
                <path fill="#7582B8" d="M361.103 271.706v-36.298c0-2.613 2.08-4.732 4.644-4.732h89.196c2.565 0 4.643 2.119 4.643 4.732v10.275l-98.483 26.023z" mask="url(#co)"/>
            </g>
        </g>
        <g transform="translate(334 236)">
            <mask id="cr" fill="#fff">
                <use xlink:href="#cp"/>
            </mask>
            <path fill="url(#cq)" d="M7.14 0C3.7 0 .91 2.817.91 6.29v104.8h99.811c6.017-8.59 12.894-15.977 20.279-22.314V0H7.14z" mask="url(#cr)"/>
        </g>
        <g>
            <g transform="translate(104 56)">
                <mask id="ct" fill="#fff">
                    <use xlink:href="#cs"/>
                </mask>
                <path fill="#83ABF1" d="M350.16 293.588H229.794V188.652c0-3.479 2.795-6.3 6.244-6.3H350.16v111.236z" mask="url(#ct)"/>
            </g>
            <g transform="translate(104 56)">
                <mask id="cv" fill="#fff">
                    <use xlink:href="#cu"/>
                </mask>
                <path fill="#7582B8" d="M306.426 206.97H274.44a.884.884 0 0 1-.877-.89v-1.866c0-.491.393-.89.877-.89h31.986c.484 0 .877.399.877.89v1.866c0 .492-.393.89-.877.89" mask="url(#cv)"/>
            </g>
            <g transform="translate(104 56)">
                <mask id="cx" fill="#fff">
                    <use xlink:href="#cw"/>
                </mask>
                <path fill="#7582B8" d="M229.793 231.588h120.368v-.912H229.793z" mask="url(#cx)"/>
            </g>
            <g transform="translate(104 56)">
                <mask id="cz" fill="#fff">
                    <use xlink:href="#cy"/>
                </mask>
                <path fill="#B3BEE2" d="M-12.232 193.294h225.695c6.944 0 7.211 5.056 7.211 5.056l-92.104 33.18c-3.787 1.107-8.199 1.218-11.662.578L-12.766 206.6l.534-13.307z" mask="url(#cz)"/>
            </g>
            <g transform="translate(104 56)">
                <mask id="cB" fill="#fff">
                    <use xlink:href="#cA"/>
                </mask>
                <path fill="#C3CBE8" d="M122.192 193.294H-12.232l-.534 13.31 129.746 25.512c1.428.264 3.37.392 5.011.384 0-3.07.2-39.206.2-39.206" mask="url(#cB)"/>
            </g>
        </g>
        <g>
            <path fill="#535785" d="M440.028 318.067c-1.907.85-4.259.613-4.645-.272-.454-1.035.699-2.235 2.606-3.084 1.907-.85 3.87-.968 4.44.022.57.988-.494 2.485-2.4 3.334m-19.516 7.034c-1.4 1.808-4.083.367-4.632-2.638l-1.491-6.833c-.47-2.423 1.061-3.023 2.18-2.099l3.148 2.6c2.25 1.841 2.443 6.841.795 8.97m46.287-12.695c.65-3.834.392-7.258.166-9.035a1.025 1.025 0 0 0-1.372-.839c-3.464 1.287-13.577 4.767-16.023 2.545-2.162-1.963 6.393-7.743 11.186-10.731 1.396-.87 2.114-2.88 1.558-4.446-.86-2.429-2.424-5.16-4.667-6.065-2.407-.972-7.667-.922-9.717-.706-1.315.139-2.459.966-3.052 2.16-1.403 2.822-4.245 8.04-5.979 7.82-1.713-.215-1.415-5.27-1.117-8.06a1.043 1.043 0 0 0-1.454-1.074l-7.578 3.374a2.555 2.555 0 0 0-1.502 1.985c-.638 4.49-2.864 18.235-6.332 19.236-3.294.95-5.535-7.672-6.432-10.543-.22-.703-.947-.907-1.548-.494-6.55 4.49-9.057 13.813-9.057 13.813s6.915 23.128 3.191 22.993c-3.862-.14-10.263-14.601-10.263-14.601l-6.224 7.779s1.778 10.77 9.188 15.558c7.411 4.786 37.053 8.377 37.053 8.377l24.602-28.423s-11.264 2.992-10.967-.897c.24-3.145 10.554-6.486 14.496-7.65a2.625 2.625 0 0 0 1.844-2.076M339.29 319.367c-2.517-.389-4.463-1.458-4.347-2.387.115-.93 2.249-1.37 4.766-.982 2.516.389 4.461 1.457 4.346 2.388-.116.93-2.25 1.369-4.766.98m12.407-16.479a1.073 1.073 0 0 0-1.402 1.234c.571 2.828 1.395 7.927-.135 7.734-1.635-.205-5.33-6.465-6.914-9.276a2.582 2.582 0 0 0-2.362-1.322c-1.896.086-5.22.41-8.678 1.57-2.933.983-4.76 2.573-5.729 3.647a1.079 1.079 0 0 0 .338 1.694c2.297 1.1 6.986 3.538 6.183 4.75-.772 1.163-5.483 1.477-7.97 1.562a1.08 1.08 0 0 0-.958 1.483l2.263 5.69c.19.48.696.751 1.202.659 14.07-2.577 17.873 1.76 17.873 1.76l15.842-2.657 1.056-13.543c-3.154-2.24-8.004-4.085-10.609-4.985"/>
            <path fill="#646D9F" d="M455.758 336.612c-1.467 2.18-3.45 3.44-4.428 2.815-.98-.625-.584-2.899.883-5.079 1.466-2.18 3.448-3.44 4.427-2.815.98.625.584 2.899-.882 5.079m55.006-14.91c-.978-1.986-4.44-4.067-7.269-5.502a6.58 6.58 0 0 0-7.135.757c-4.575 3.702-12.658 9.978-13.889 9.145-1.368-.928 5.19-9.542 8.006-13.12.523-.663.103-1.647-.73-1.721l-7.508-.673a1.01 1.01 0 0 0-.64.145c-5.723 3.66-12.766 21.21-16.74 19.768-3.55-1.288.525-13.906 2.219-18.699.28-.792-.414-1.581-1.222-1.393l-7.645 1.775a1.05 1.05 0 0 0-.755.681c-1.028 2.986-6.137 17.173-10.785 18.223-2.402.541-1.696-7.433-1.186-11.492.111-.897-.863-1.516-1.61-1.025l-7.387 4.856c-.308.203-.49.551-.48.924.103 3.436.413 20.58-3.483 21.108-3.352.455-4.802-7.527-5.285-11.157a1.044 1.044 0 0 0-1.639-.725l-3.937 2.8c-.253.18-.414.463-.442.776l-.534 5.96 11.26 21.117 41.284-6.745s-9.73-7.529-5.774-11.146c2.612-2.388 22.234.744 25.954 1.364.378.063.754-.09.99-.398l2.56-3.344a1.07 1.07 0 0 0-.636-1.7c-1.648-.323-3.827-.967-3.461-2.081.397-1.213 5.595-2.287 8.787-2.837a5.955 5.955 0 0 0 3.989-2.64c2.325-3.584 6.379-10.45 5.123-13"/>
            <path fill="#535785" d="M250.243 353.278s.76-12.81-7.315-26.902c-.358-.624.086-1.41.809-1.392 2.955.077 9.403 1.988 12.748 16.315l-6.242 11.979zM237.139 362.807s-6.48-21.968-18.363-34.56c-14.77-15.655-32.534-22.77-32.534-22.77s3.194-2.237 8.982-1.22c4.296.755 8.583 2.236 12.774 2.236 5.788 0 13.964 1.108 19.56 5.896 9.98 8.539 8.583 19.517 12.375 23.786 3.792 4.27 6.52 8.584 7.185 13.214 1.198 8.336-2.395 14.841-2.395 14.841l-7.584-1.423z"/>
            <path fill="#535785" d="M212.856 358.548s-9.173-7.685-26.447-7.287c-14.047.323-21.231 1.917-23.425 2.5a.36.36 0 0 1-.422-.505c.898-1.826 3.757-6.588 9.72-8.023 7.432-1.789 8.437-.398 10.847-1.193s8.637-5.365 15.466-5.365c6.83 0 19.885 3.378 30.13 13.116 10.243 9.738 12.252 11.526 12.252 11.526l-28.12-4.77z"/>
            <path fill="#646D9F" d="M234.702 363.317s-6.494-3.584-10.079-7.023c-2.956-2.836-4.703-6.752-11.288-7.157-4.568-.281-11.826-.27-18.277-3.242-5.953-2.743-9.657-9.683-9.728-15.046a1.295 1.295 0 0 1 1.325-1.301c1.743.03 5.182.219 9.748 1.086 9.944 1.891 24.189-1.62 33.596 4.862 9.163 6.315 7.928 11.885 10.885 15.802 2.258 2.99 6.316 7.698 7.39 11.75l-13.572.27z"/>
            <path fill="#E09595" d="M307.57 319.554l-2.162-.959s.194 3.168.135 3.851c-.101 1.18-1.622 2.054-1.622 2.054l.305 2.31 3.344-7.256z"/>
            <path fill="#9294A5" d="M197.27 475.743s-3.657-4.878-6.406-14.294c-4.805-16.45-4.27-34.79-6.406-48.813-2.136-14.023-12.811-52.858-12.811-52.858s25.088-9.17 66.725 2.696l173.887 1.214s34.43-16.182 70.462-11.327c0 0-2.114 26.14-15.08 61.354-12.811 34.79-16.815 37.487-16.014 40.992.8 3.506 2.223 3.686 2.935 7.282 1.068 5.394-.266 8.36-.8 10.518-1.167 4.717 1.269 7.836 2.669 9.169 9.341 8.9 7.907 14.226 7.907 14.226l-69.495 2.495-197.574-22.654z"/>
            <path fill="#3F3848" d="M287.501 294.865s10.201.267 13.911 5.887c3.71 5.62 1.855 13.382 1.723 14.72-.238 2.4-.349 4.464 1.59 7.627 3.444 5.62 6.094 7.359 8.214 15.254.833 3.102-3.479 8.176-6.36 10.036-8.082 5.218-16.03 7.627-16.03 7.627l-3.048-61.15z"/>
            <path fill="#E09595" d="M299.963 339.598s-2.55 1.004-5.302 1.753c-.276.075-.418.16-.604 1.328-.335 2.11-.914 4.642-.436 4.73 1.476.272 8.556-2.314 14.328-5.445 0 0 2.886 10.55-4.765 17.628-7.65 7.08-21.475 11.027-21.475 11.027l-6.98-40.159 25.234 9.138z"/>
            <path fill="#FFAEAE" d="M364.82 340.5l6.607-1.79-1.38-8.25-13.216 5.269zM277.498 331.73s2.941 5.919 9.581 8.065c3.327 1.075 10.38.94 13.308-.538 7.192-3.632 1.491-22.104-.399-26.478-3.194-7.393-7.054-12.768-9.449-13.306-3.516-.79-13.8 9.129-13.973 20.832-.133 9.006.932 11.425.932 11.425M231.855 385.204s2.734-6.059 7.136-13.07c4.402-7.013 10.205-11.437 15.74-12.186 5.536-.75 13.34-.409 22.677 6.194 9.337 6.604 11.005 7.965 11.005 7.965s-9.337 17.428-31.414 19.13c-22.077 1.701-25.144-8.033-25.144-8.033M218.538 412.603s-4.394 8.968-6.552 19.347c-1.871 9.002-1.203 11.824.67 12.495 1.871.672 7.928-1.98 12.968-7.39 7.89-8.464 14.44-22.168 14.44-22.168l-21.526-2.284z"/>
            <path fill="#E09595" d="M293.75 431.77s11.918-1.854 16.317-3.01c4.577-1.205 12.735-2.008 25.47-18.868 4.181-5.536 10.348-17.463 10.348-17.463l-26.466-9.032s-9.75 16.258-14.128 23.484c-2.64 4.36-2.388 2.408-12.337 4.817-9.95 2.409-17.312 4.617-17.312 4.617l18.108 15.455z"/>
            <path fill="#E1E5F3" d="M318.517 384.62l21.665 9.137s2.14 7.523 5.081 14.24c2.942 6.718 3.745 30.63 3.745 30.63l75.69 15.048 20.862-51.857s2.675-23.377 1.07-34.93c-1.901-13.685-8.826-18.54-18.187-21.496-5.407-1.707-24.606-6.717-24.606-6.717s-11.969 21.495-25.944 33.049c0 0-7.488-9.942-12.838-30.631 0 0-19.792 5.912-24.338 8.598-4.547 2.687-11.288 6.727-15.513 17.196-4.012 9.942-6.687 17.734-6.687 17.734"/>
            <path fill="#FFAEAE" d="M419.44 398s-5.493 14.04-6.698 21.497c-1.206 7.456-2.679 8.06-5.894 8.06-3.215 0-13.864.202-23.91 2.217-10.047 2.016-16.481 1.91-22.103 1.613-3.818-.202-9.645-4.434-16.075-6.852-4.404-1.657-7.234 0-10.248 2.015-1.83 1.225-5.827 2.418-8.439 4.434-2.924 2.256-3.907 3.757-3.907 3.757l103.77 18.814s5.225 1.007 7.636-2.822c2.411-3.829 7.234-19.548 9.042-29.221a2204.85 2204.85 0 0 0 3.617-19.951l-12.793-3.292L419.44 398zM210.893 513s-9.905 7.81-16.194 9.953c-10.401 3.544-24.416 7.186-30.808 8.316-5.398.954-8.162 1.5-8.426 3.272-.323 2.172-.526 4.09 3.818 5.317 4.345 1.227 11.883 2.59 28.043 4.227 12.112 1.227 18.169 1.772 20.934 1.772 2.765 0 5.792-.954 7.11-4.636.838-2.346.262-6.271 2.5-8.589 2.239-2.317 3.95-3.408 3.95-3.408L210.893 513z"/>
            <path fill="#E1E5F3" d="M193.764 523.04c-.017.005-.033.012-.05.018-11.174 3.683-26.23 7.467-33.097 8.64-5.8.992-8.77 1.56-9.053 3.4-.347 2.258-.566 4.25 4.102 5.525 4.667 1.275 12.766 2.691 30.127 4.392 13.014 1.275 19.52 1.842 22.49 1.842 2.97 0 6.224-.992 7.638-4.817.843-2.277.36-5.982 2.25-8.424-9.732.326-18.072-3.399-24.407-10.576"/>
            <path fill="#FFAEAE" d="M245.547 578.714l-8.16 13.776s-8.293 8.54-16.32 14.143c-8.219 5.738-17.792 11.407-16.454 15.41 1.338 4.003 6.087 5.337 15.852 2.936 9.766-2.402 22.875-7.339 28.226-9.74 5.35-2.402 7.759-5.153 9.498-8.356 2.46-4.532-.417-9.168.134-12.458.267-1.601 4.548-7.739 4.548-7.739l-17.324-7.972z"/>
            <path fill="#E1E5F3" d="M243.79 596.575c-3.091-1.547-4.838-2.556-6.854-4.17 0 0-10.75 8.877-17.605 14.123-5.89 4.509-16.422 10.87-15.723 15.066.94 5.65 10.727 8.533 20.024 4.574 12.632-5.381 19.62-8.61 24.996-11.03 5.375-2.422 8.733-4.202 9.944-7.668 1.411-4.035.152-9.685-.302-12.207-3.356 2.894-9.799 3.655-14.48 1.312"/>
            <path fill="#FFAEAE" d="M342.723 350.54s9.45-4.777 22.319-9.175l-1.24-5.428s-6.636.961-10.79 1.237c-6.844.452-12.6.274-12.6.274l2.311 13.092z"/>
            <path fill="#E09595" d="M340.411 336.667l1.763 2.92 18.306-3.65z"/>
            <path fill="#D2D8EE" d="M419.43 393.033a242.2 242.2 0 0 0-.563 4.41.469.469 0 0 0 .452.529c1.707.044 7.421.242 13.607 1.01 6.17.768 11.587 2.198 13.217 2.653a.437.437 0 0 0 .55-.386l.448-4.612a.564.564 0 0 0-.38-.593c-1.437-.478-6.4-2.014-13.024-2.786-6.622-.77-12.129-.752-13.743-.725a.58.58 0 0 0-.565.5M340.411 393.437l-1.014-6.406-19.055-8.198-1.825 5.235z"/>
            <path fill="#FFAEAE" d="M300.507 316.014s-1.1-3.255 1.465-2.862c2.25.344 5.807 1.083 7.38 1.501 1.444.385 3.012.824 2.515 3.367-.392 2.004-1.465 6.391-2.086 8.867-.149.593.064 1.056.656 1.177 1.723.35 4.007.25 6.57.063 5.87-.426 11.135-2.503 20.903-4.768 9-2.088 17.59-3.071 23.583-3.601 12.037-1.065 8.554 13.506 8.554 13.506s-5.228 2.39-13.932 3.028c-11.48.844-15.619.597-23.628.127s-13.718-1.136-18.049-.719c-4.159.4-5.19 1.018-7.55.391-2.358-.628-3.786-1.168-4.922-3.454-1.137-2.286.85-9.46.85-9.46l-2.309-7.163z"/>
            <path fill="#3F3848" d="M392.409 318.7s2.478 7.739 3.469 7.998c2.15.564 3.568-1.039 4.36-4.155.794-3.117.1-3.948.1-3.948l-7.93.104z"/>
            <path fill="#2B5393" d="M342.866 349.765a1.434 1.434 0 0 1-.596.97c-2.2 1.54-10.999 7.835-13.093 11.358-2.4 4.037-3.437 9.79-2.866 14.599.4 3.364 2.399 9.822-2 17.223-3.053 5.14-8.728 7.13-9.727 8.745-1 1.615-2.2 7.67-7.597 13.119-3.803 3.84-6.197 4.036-7.796 9.082-1.959 6.178-.2 10.898 2.598 16.55l8.996 26.035-47.578 16.348-45.978-22.605s-3.436-12.905 15.992-28.255c4.598-3.633 17.784-7.014 19.191-12.917.866-3.633.4-8.611-.067-12.513-.169-1.416-1.4-3.162-3.598.269-2.2 3.43-3.731 6.19-8.729 8.208-5.459 2.204-15.793 4.238-22.59-1.01-6.796-5.247-2.862-11.631-.8-13.79 3.6-3.768 8.82-7.703 11.328-11.438 2.533-3.767 3.662-6.254 4.187-7.02.248-.36.769-.497 1.099-.211 1.511 1.311 4.436 2.586 8.975 2.993 5.177.465 12.52-.77 24.389-6.256 14.26-6.594 29.04-19.521 31.785-22.201 5.732-5.594 7.325-10.512 8.676-14.636a1.65 1.65 0 0 1 .716-.898c1.545-.936 6.25-3.583 10.999-4.245 5.797-.807 21.59-.202 21.59-.202s3.826 3.477 2.494 12.698"/>
            <path fill="#19437F" d="M239.93 388.673c6.044.567 13.946.342 27.802-6.345 16.647-8.034 30.683-20.888 33.935-24.108 7.44-7.366 8-13.691 9.552-18.633-1.508.703-2.264 1.08-3.322 1.714-.34.204-.595.518-.72.894-1.36 4.106-3.129 9.134-8.895 14.703-2.763 2.667-17.63 15.502-31.974 22.065-11.94 5.462-19.159 6.59-24.367 6.128-4.567-.406-7.508-1.674-9.029-2.98-.332-.285-.856-.148-1.105.211-.417.601-.49.86-1.777 3.169 1.886 1.426 5.118 2.735 9.9 3.182M300.422 404.722a7.034 7.034 0 0 0-2.268-.273c-4.583.224-9.375 1.98-12.5 3.824-3.086 1.821-5.18 4.241-11.969 4.644-5.186.307-9.375-1.434-12.467-4.405-.713-.686-4.33-4.832-8.961-8.847-1.611-1.397-2.24-.42-2.24-.42-2.132 2.917-3.061 6.91-4.059 8.96-4.415 9.07-17.739 9.831-28.7 6.899.183.159.373.319.574.476 6.783 5.327 17.094 3.262 22.541 1.024 4.987-2.048 6.516-4.848 8.71-8.331 2.194-3.483 3.422-1.711 3.59-.273.033.273.915 4.814.341 11.165.624 1.793 2.719 7.171 2.719 7.171l21.393.87s.35-1.177.399-2.663c-5.38-.28-10.323-1.28-10.323-1.28s4.555.24 9.143-1.605c6.287-2.527 8.777-6.146 11.968-8.741 2.321-1.888 7.19-5.119 12.01-6.072 1.091-.216 1.17-1.82.1-2.123M222.787 443.477s14.824-6.339 31.443-7.144c-16.885 5.5-18.713 10.915-18.713 10.915l43.774-.25-40.683 7.244-20.94 7.647s-2.559-7.781 5.119-18.412"/>
            <path fill="#E09595" d="M246.45 425.357c1.168-3.596 2.635-7.541 3.505-9.857.778-2.075 3.367-2.616 5.223-1.176 1.428 1.107 2.468 1.75 3.8 3.05.54.527 1.3 1.723 1.132 3.868-.13 1.66.162 3.735-1.428 3.735-3.244 0-9.117.519-12.232.38M127.854 489.463c-4.214 1.277-6.822 3.85-9.028 5.675-2.207 1.824-3.022 5.355.4 5.068 4.816-.406 15.62-.612 25.881-.811 10.433-.203 22.07-2.23 37.918-2.433 15.85-.202 39.925 2.433 61.793.811 21.868-1.621 28.087-3.243 28.087-3.243l-.602-21.689-87.271 9.527s-7.825 1.622-12.038-.81c-4.213-2.433-4.815-6.69-11.636-4.865-7.494 2.004-9.658 6.145-17.254 9.121-9.83 3.851-12.238 2.432-16.25 3.649"/>
            <path fill="#D2D8EE" d="M161.25 475.069c-7.798 2.22-10.05 6.81-17.954 10.105-10.23 4.266-12.735 2.694-16.91 4.041-4.386 1.416-7.099 4.267-9.395 6.288-2.297 2.02-3.144 5.933.417 5.613 5.01-.449 16.254-.676 26.932-.898 4.54-.093 9.308-.541 14.517-1.047.105-9.273 5.147-17.485 13.702-19.255-3.69-2.73-4.667-6.738-11.309-4.847z"/>
            <path fill="#FFAEAE" d="M163.954 493.297s-5.003.606-13.207 5.45c-8.205 4.845-13.407 8.074-18.41 14.13-5.003 6.056-8.568 11.274-4.602 14.13 2.801 2.019 15.808-1.21 25.013-7.872 9.205-6.661 18.21-15.14 20.61-17.158 2.402-2.019 4.473-3.154 9.005-5.047 5.803-2.422 8.605-3.633 21.412-6.66 10.415-2.464 24.813-3.029 36.619-5.653 11.806-2.624 22.812-5.652 22.812-5.652s5.903-7.872-.8-15.947c-5.55-6.683-15.209-9.487-24.013-8.074-8.805 1.413-26.214 6.661-39.821 15.947-13.607 9.285-24.013 17.36-34.618 22.406"/>
            <path fill="#E1E5F3" d="M155.265 506.814c-2.683-3.564 2.89-8.594 8.992-13.893-.04.018-5.278.687-13.738 5.718-8.46 5.03-13.826 8.384-18.985 14.673-5.159 6.288-8.835 11.706-4.746 14.672 2.889 2.097 16.302-1.257 25.794-8.174 7.08-5.16 14.042-11.366 18.152-15.057-5.77 3.109-13.507 4.667-15.469 2.06"/>
            <path fill="#42426C" d="M209.048 512.244l13.243 19.01s14.241-8.51 23.276-13.348c12.842-6.876 29.295-13.752 38.525-18.605l111.16-.81s12.562-.158 17.657-9.707c7.625-14.291 12.34-34.885 12.34-34.885s-77.16-15.327-101.027-18.91c-18.861-2.83-26.486 7.281-39.729 18.202-37.798 31.17-75.445 59.053-75.445 59.053"/>
            <path fill="#2B2B51" d="M242.801 578.652l22.46 10.102s8.022-13.335 15.241-22.63c7.22-9.293 23.93-28.69 29.144-35.155 5.214-6.466 14.84-18.386 16.578-31.317l56.15-1.414s-18.85-10.103-28.075-16.164c-9.224-6.061-25.891-17.764-34.09-19.396-10.83-2.156-19.653-.405-25.67 11.718l-51.738 104.256z"/>
            <path fill="#FFAEAE" d="M211.13 438.424s-2.154 7.066 6 6.017c10.399-1.337 25.163-5.365 31.863-6.819 9.867-2.14 22.532-5.75 26.798-5.215 3.463.435 22.778 8.287 22.778 8.287l2.616-1.764s-2.605-4.867-5.262-7.459c-4.8-4.68-6.14-7.108-15.599-7.487-3.333-.134-6.266-.535-10.399-.401-1.074.034-11.465.936-26.397.535-13.78-.371-19.732.802-19.732.802l-12.666 13.504z"/>
        </g>
        <g transform="translate(276 300)">
            <mask id="cE" fill="#fff">
                <use xlink:href="#cC"/>
            </mask>
            <path fill="url(#cD)" d="M.011 20.435a92.699 92.699 0 0 0 .006 3.238 55.927 55.927 0 0 0 27.076 7.413c.124-6.659-2.677-15.24-3.89-18.019C20.04 5.832 16.218.57 13.846.043c-.13-.029-.27-.043-.418-.043C9.615 0 .176 9.407.01 20.435" mask="url(#cE)"/>
        </g>
        <g>
            <path fill="#3F3848" d="M236.4 376.545s-3.505-3.434.267-10.485c2.286-4.273 5.233-7.653 9.458-11.803 2.637-2.591 8.52-6.252 9.19-17.055.671-10.802-.65-20.026 4.83-29.873 3.488-6.268 9.66-12.67 17.977-14.137 5.573-.984 8.854.8 11.538 2.268 2.685 1.467 3.085 3.733.134 9.335-2.951 5.6-9.928 12.002-10.733 20.672-.407 4.39-.402 8.402 2.818 17.737 3.22 9.336 4.435 19.473 1.878 25.006-3.421 7.402-10.666 8.602-17.91 5.401-4.562-2.016-7.394-6.633-12.376-8.702-3.974-1.65-9.144-.017-11.974 3.767-2.867 3.835-5.098 7.87-5.098 7.87"/>
            <path fill="#19437F" d="M328.072 362.91L333 352s-3.871 1.983-5.02 5.62c-1.151 3.635.092 5.29.092 5.29M287.255 402s12.381-5.107 18.952-7.217c.507-.163.402-.954-.128-.962-2.56-.037-6.433.227-9.895 1.767-4.77 2.126-8.93 6.412-8.93 6.412M305.618 356.545l9.056-10s1.898 5.265-9.056 10"/>
        </g>
        <g transform="translate(363 317)">
            <mask id="cH" fill="#fff">
                <use xlink:href="#cF"/>
            </mask>
            <path fill="url(#cG)" d="M6.458 10.425s.929 3.973 1.221 7.37c.356 4.15-6.766 5.91-6.766 5.91l11.598 30.742 1.155.467c1.094.096 2.195.157 3.307.183L39.1 32.27 42 20.65C35.25 18.493 34.59 0 34.59 0L6.457 10.425z" mask="url(#cH)"/>
        </g>
        <g>
            <path fill="#D2D8EE" d="M360.902 343.19s4.213 19.04 14.68 33.701l5.584.2s16.452-12.87 29.326-36.688c0 0-3.946-1.061-5.785-1.526-13.978 23.767-25.949 32.64-25.949 32.64s-7.34-9.57-12.84-30.252c-2.207.796-5.016 1.925-5.016 1.925"/>
            <path fill="#3F3848" d="M363.683 299.31s-.442-3.385.802-10.446c.802-4.554 2.161-9.168 3.741-13.124 3.208-8.035 11.394-11.16 19.379-6.697 12.696 7.098 21.784 7.5 25.258 19.285 2.54 8.612 1.871 16.338-8.82 28.123-2 2.206-2.95 3.152-3.542 5.14-.568-.219-36.818-22.282-36.818-22.282"/>
            <path fill="#FFAEAE" d="M368.995 283.49s-3.575 5.854-5.882 18.305c-3.56 19.205-2.572 27.008 1.186 28.608 3.659 1.559 12.378 1.882 18.982-.8 4.451-1.808 8.294-6.15 9.887-8.002 0 0 7.514-7.202 10.085-15.005 2.57-7.802-.142-15.604-8.898-21.606-6.13-4.2-21.406-6.501-25.36-1.5"/>
        </g>
        <g transform="translate(361 280)">
            <mask id="cK" fill="#fff">
                <use xlink:href="#cI"/>
            </mask>
            <path fill="url(#cJ)" d="M8.24 2.65S4.43 9.184 2.167 21.727c-3.49 19.347-2.52 27.207 1.163 28.82.462.202 1.007.384 1.619.54 12.13-8.191 20.154-22.403 20.154-38.562 0-3.98-.486-7.84-1.4-11.522C21.157.374 18.506 0 16.095 0c-3.45 0-6.407.766-7.856 2.65" mask="url(#cK)"/>
        </g>
        <g>
            <path fill="#3F3848" d="M369.366 282.465s.827 2.628 5.09 4.404c5.588 2.329 12.64 3.712 15.685 4.32 5.497 1.097 7.15 2.529 7.601 4.539.509 2.271-.172 3.358-1.33 6.885-1.065 3.24-2.263 8.64-.8 9.179.868-.911 1.92-2.295 5.39-3.105 3.47-.81 3.593 2.228 3.593 2.228l3.526-8.033s4-15.726-11.177-21.598c-15.18-5.872-25.67-1.958-25.67-1.958l-1.908 3.139z"/>
            <path fill="#FFAEAE" d="M404.004 314.622c-6.325 7.575-8.34 2.886-10.201 4.33-2.044-1.669.646-6.906 3.628-10.342 2.982-3.435 6.141-3.952 8.185-2.285 2.044 1.668 1.302 4.807-1.612 8.297"/>
            <path fill="#FFF" d="M415.897 148.009c-5.58-.023-8.544-2.698-8.52-8.584a3.263 3.263 0 0 1-.22-.001c-.023 5.886-3.054 8.536-8.588 8.514a.649.649 0 0 0 .003.22c5.529.025 8.538 2.987 8.516 8.584.07.006.153.019.22 0 .023-5.596 3.007-8.532 8.58-8.513 0 0 .006-.113.009-.22M235.335 249.153c-5.58-.023-8.543-2.698-8.519-8.584a3.943 3.943 0 0 1-.22-.001c-.024 5.886-3.055 8.536-8.589 8.514a.636.636 0 0 0 .004.22c5.528.025 8.538 2.987 8.515 8.584.07.006.154.019.22 0 .023-5.596 3.007-8.533 8.58-8.513 0 0 .007-.113.01-.22"/>
            <path fill="#B3BEE2" d="M505.31 199.712c3.56 2.706 8.261 10.926 8.799 19.968 16.12 0 41.845-.48 56.891-.617-1.008-6.165-3.762-13.734-9.538-17.125-1.34-.788-2.774-1.596-7.187-2.192-16.725-2.26-33.331-.335-43.189.993-3.56.48-5.777-1.027-5.777-1.027"/>
            <path fill="#FFF" d="M463.253 238.297c-5.581-.023-8.543-2.698-8.52-8.584a3.26 3.26 0 0 1-.219-.001c-.025 5.886-3.055 8.536-8.59 8.514a.649.649 0 0 0 .004.22c5.53.025 8.539 2.987 8.516 8.584.07.006.153.019.22 0 .023-5.596 3.006-8.532 8.58-8.513 0 0 .006-.113.009-.22"/>
            <path fill="#D2D8EE" d="M359.33 122.552c0 16.874-13.684 30.552-30.565 30.552-16.88 0-30.564-13.678-30.564-30.552S311.885 92 328.765 92c16.88 0 30.565 13.678 30.565 30.552"/>
            <path fill="#E1E5F3" d="M354.768 123.008c0 14.607-11.641 26.448-26.003 26.448-14.36 0-26.002-11.84-26.002-26.448 0-14.607 11.641-26.448 26.002-26.448 14.362 0 26.003 11.84 26.003 26.448"/>
            <path fill="#FFF" d="M346.557 142.92c-8.408 7.368-20.909 8.824-30.987 2.738-10.442-6.307-14.981-18.713-11.815-29.946 8.004 5.323 30.207 19.64 42.802 27.208"/>
            <path stroke="#C3CBE8" stroke-linecap="round" stroke-linejoin="round" stroke-width="3" d="M346.557 133.952l-18.248-11.656v-17.528"/>
            <path fill="#FFF" d="M352.943 108.793c-5.58-.023-8.543-2.698-8.52-8.584a3.263 3.263 0 0 1-.22-.001c-.023 5.886-3.054 8.536-8.588 8.514a.649.649 0 0 0 .004.22c5.528.025 8.538 2.987 8.515 8.584.07.006.153.019.22 0 .023-5.596 3.007-8.532 8.58-8.513 0 0 .007-.113.01-.22"/>
        </g>
    </g>
</svg>
