<svg xmlns="http://www.w3.org/2000/svg" xmlns:xlink="http://www.w3.org/1999/xlink" width="41" height="46" viewBox="0 0 41 46">
    <defs>
        <path id="a" d="M8.221 1.395C5.105 3.324-.427 3.88.103 6.621c.702 3.637 2.433 12.835 2.435 12.834l-.44 7.964c11.347-.786 22.838-.293 34.202 1.66.15-2.667.298-5.336.447-8.008 0 .008 2.379-7.918 3.323-11.106.574-1.944-3.724-7.104-9.455-8.187-1.825-.35-3.4.028-4.915.407-1.452.362-2.85.724-4.363.445C18.195 2.068 15.376.181 12.28.181c-1.29 0-2.629.328-4.058 1.214"/>
        <linearGradient id="b" x1="50%" x2="50%" y1="0%" y2="100%">
            <stop offset="0%" stop-color="#1D6FCB"/>
            <stop offset="100%" stop-color="#3D3D68"/>
        </linearGradient>
    </defs>
    <g fill="none" fill-rule="evenodd">
        <g transform="rotate(-3 270.063 13.155)">
            <mask id="c" fill="#fff">
                <use xlink:href="#a"/>
            </mask>
            <path fill="url(#b)" d="M8.221 1.395C5.105 3.324-.427 3.88.103 6.621c.702 3.637 2.433 12.835 2.435 12.834l-.44 7.964c11.347-.786 22.838-.293 34.202 1.66.15-2.667.298-5.336.447-8.008 0 .008 2.379-7.918 3.323-11.106.574-1.944-3.724-7.104-9.455-8.187-1.825-.35-3.4.028-4.915.407-1.452.362-2.85.724-4.363.445C18.195 2.068 15.376.181 12.28.181c-1.29 0-2.629.328-4.058 1.214" mask="url(#c)"/>
        </g>
        <path fill="#D2D8EE" d="M37.6 45.737c-11.47-1.449-22.992-1.31-34.283.218-1.068.146-1.93-.615-1.928-1.717v-.069c.003-1.1.87-2.11 1.94-2.238 11.305-1.378 22.82-1.488 34.286-.136 1.084.126 1.96 1.117 1.957 2.192v.068c-.005 1.076-.886 1.82-1.971 1.682"/>
        <path fill="#E86A46" d="M21.703 40.422a541.205 541.205 0 0 0-3.89-3.782 373.07 373.07 0 0 1 3.929-3.838 491.027 491.027 0 0 1 3.895 3.878 388.068 388.068 0 0 0-3.934 3.742"/>
        <path fill="#FFF" d="M23.175 36.626c-.004.78-.658 1.403-1.46 1.399-.802-.003-1.448-.633-1.444-1.414.004-.78.657-1.417 1.459-1.413.802.004 1.448.647 1.445 1.428"/>
        <path fill="#E86A46" d="M28.5 40.608a434.047 434.047 0 0 0-3.703-3.951 566.154 566.154 0 0 1 3.738-3.682 405.877 405.877 0 0 1 3.703 4.042 630.28 630.28 0 0 0-3.739 3.59"/>
        <path fill="#FFF" d="M29.898 36.865c-.004.783-.625 1.38-1.387 1.343-.763-.038-1.378-.695-1.374-1.476.004-.782.624-1.392 1.387-1.356.762.035 1.377.706 1.374 1.489"/>
        <path fill="#E86A46" d="M34.685 41.06a389.393 389.393 0 0 0-3.351-4.106c1.127-1.201 2.255-2.396 3.382-3.587a375.895 375.895 0 0 1 2.915 3.636c.24.303.238.752-.004 1.003-.98 1.016-1.96 2.033-2.942 3.055"/>
        <path fill="#FFF" d="M35.949 37.331c-.003.791-.564 1.375-1.255 1.311-.689-.063-1.246-.746-1.242-1.532.002-.787.564-1.381 1.254-1.322.69.059 1.246.753 1.243 1.543"/>
        <path fill="#E86A46" d="M5.949 33.401c1.054 1.214 2.108 2.427 3.164 3.64a301.56 301.56 0 0 0-3.195 4.17c-.92-1.042-1.838-2.085-2.756-3.13-.221-.251-.22-.7.003-.999a294.26 294.26 0 0 1 2.784-3.681"/>
        <path fill="#FFF" d="M4.755 37.416c.003-.803.533-1.504 1.184-1.56.65-.057 1.176.546 1.173 1.343-.004.798-.534 1.49-1.184 1.554-.651.063-1.175-.533-1.173-1.337"/>
        <path fill="#FF7E59" d="M37.773 33.222c-11.551-1.15-23.145-1.087-34.57-.007a.286.286 0 0 0-.253.28v.355c-.001.141.111.245.25.231 11.422-1.11 23.018-1.178 34.57-.006a.225.225 0 0 0 .255-.226l.001-.35a.285.285 0 0 0-.253-.277M37.745 40.958c-11.56-1.353-23.168-1.245-34.568.123a.296.296 0 0 0-.252.287v.356c0 .142.11.243.25.226 11.396-1.401 23.006-1.514 34.567-.14a.221.221 0 0 0 .255-.221l.001-.35a.291.291 0 0 0-.253-.281"/>
        <path fill="#FF7E59" d="M18.334 36.623c-.011 2.114-2.192 3.86-4.861 4.004-2.67.142-4.818-1.406-4.808-3.56.009-2.15 2.176-4.041 4.847-4.143 2.671-.106 4.833 1.587 4.822 3.7"/>
        <path fill="#2474CD" d="M17.159 36.646c-.008 1.579-1.659 2.896-3.682 3-2.022.105-3.65-1.062-3.643-2.662.007-1.6 1.65-3 3.673-3.081 2.023-.084 3.66 1.167 3.652 2.743"/>
        <path fill="#FF7E59" d="M20.023 10.428c-.493-.066-1.95-.033-3.533.386-2.722.687-11.218 2.64-10.544 9.487.067.685.262 1.504.262 1.504C6.929 25 7.65 28.185 8.37 31.36a.367.367 0 0 1 .022-.002c.027-.178.275-1.68 1.254-2.98 1.002-1.332 2.404-1.952 2.51-1.997-.126-.04-1.783-.545-3.36-1.75-1.64-1.253-2.568-2.806-2.568-2.806 0-.001 1.729.485 3.37 1.748a11.38 11.38 0 0 1 2.563 2.8c.017-.114.254-1.634 1.26-2.93.998-1.29 2.39-1.88 2.513-1.929l-.005-.024s-.126-.675-.224-1.54c-.52-4.555.073-5.597 2.104-7.519 1.001-.946 2-1.445 2.786-1.648.297-.077-.009-.28-.572-.355M40.632 20.932c1.59-7.614-13.275-10.091-16.368-10.372-1.131-.147-3.42-.371-3.487.017-.062.354 1.126.275 2.94.861 3.391 1.07 9.837 2.956 8.746 8.838a82.088 82.088 0 0 1-.297 1.504c.101.053 1.246.68 2.022 1.998.782 1.326.904 2.853.912 2.967.064-.11.918-1.565 2.318-2.747 1.455-1.23 2.947-1.683 2.947-1.682 0 0-.867 1.54-2.322 2.76-1.4 1.174-2.83 1.641-2.939 1.677.088.048 1.243.703 2.025 2.055.764 1.32.898 2.823.912 3l.018.003c.776-3.152 1.55-6.321 2.323-9.514 0 0 .121-.764.25-1.365"/>
        <path fill="#FF7E59" d="M23.9 7.682c-.007 1.759-1.475 3.167-3.275 3.16-1.8-.007-3.253-1.426-3.244-3.185.01-1.759 1.476-3.184 3.276-3.177 1.8.005 3.252 1.442 3.244 3.202"/>
        <path fill="#FF7E59" d="M21.094 11.597l-.966-.004a.684.684 0 0 1-.69-.679l.004-.942a.689.689 0 0 1 .698-.676l.966.003a.686.686 0 0 1 .691.682l-.005.942a.686.686 0 0 1-.698.674"/>
        <path fill="#42426C" d="M21.14 2.549l-.964-.004a.683.683 0 0 1-.69-.679l.004-.942a.688.688 0 0 1 .697-.676l.965.003c.383 0 .693.306.69.68 0 .314-.002.628-.004.943a.687.687 0 0 1-.697.675"/>
        <path fill="#FF7E59" d="M25.52 28.478c-.389.295-.764.794-.77 1.91 0 .155-.294-.6-.44-.82h-.002a2.298 2.298 0 0 1 1.157-3.323c.996-.392 2.188-.054 2.844.808.38.498.534 1.07.497 1.612-.017.236-.307.322-.475.145-.743-.785-1.905-1.02-2.811-.332"/>
        <path fill="#FF7E59" d="M22.528 28.424c.386.308.755.821.75 1.938 0 .154.3-.59.449-.805h.002c.73-1.195.227-2.78-1.125-3.362-.99-.427-2.184-.13-2.848.706a2.32 2.32 0 0 0-.51 1.59c.013.236.302.332.471.162.75-.756 1.912-.95 2.811-.23"/>
        <path fill="#FF7E59" d="M25.265 25.201c-.007 1.49-.634 2.203-1.242 2.192-.608-.01-1.227-.745-1.22-2.234.006-1.018.615-2.357.953-2.83.211-.298.36-.285.584.009.356.469.93 1.844.925 2.863"/>
        <path fill="#FF7E59" d="M24.743 32.453c-.496-.012-.993-.021-1.49-.028l.027-5.346c.496.007.993.016 1.49.027l-.027 5.347"/>
        <path fill="#2474CD" d="M25.042 27.711a1.001 1.001 0 0 1-1.038.985c-.57-.01-1.03-.466-1.027-1.021.003-.556.467-1 1.037-.99.57.01 1.03.47 1.028 1.026"/>
        <path fill="#E86A46" d="M6.828 28.934a5.165 5.165 0 0 0-.647-1.577c-.363-.571-.776-.874-1.11-.853l-.406.027s-.062.338-.098.425a8.256 8.256 0 0 0-.241-1.276c-.268-1.026-.892-2.385-1.178-2.844-.097-.155-.16-.214-.204-.213-.161.004-.399.023-.399.023s.39 2.084.658 3.112c.134.513.277.927.42 1.257a1.79 1.79 0 0 0-.235-.202c-.175-.12-.34-.17-.488-.155-.122.013-.406.03-.406.03s-.178.578-.213.95c-.046.502-.109 1.228-.026 1.9.087-.008.327-.023.397-.034.036-.006.065-.028.077-.095.141-.789.619-1.029 1.217-.345.229.26.494.687.758 1.57.21.806.422 1.611.633 2.416.226-.02.452-.038.678-.056l-.559-2.132c-.275-1.076-.24-1.589-.146-1.9.087-.288.227-.44.398-.476.27-.057.657.733.657.733s.378-.022.41-.027c.058-.01.088-.108.053-.258"/>
        <path fill="#FF7E59" d="M6.423 28.96a5.153 5.153 0 0 0-.647-1.577c-.521-.818-1.144-1.086-1.488-.635-.05.067-.09.149-.126.237a8.211 8.211 0 0 0-.241-1.278c-.268-1.026-.892-2.387-1.178-2.845-.179-.287-.25-.293-.266.018-.027.495.053 1.877.321 2.907.134.514.278.927.42 1.259a1.815 1.815 0 0 0-.234-.203c-.562-.386-1.026-.04-1.107.829-.047.502.03 1.077.19 1.625.069.238.226.325.258.147.141-.79.619-1.031 1.217-.349.228.261.494.688.757 1.571.21.807.422 1.613.633 2.418.226-.02.452-.039.679-.057l-.56-2.133c-.275-1.077-.24-1.59-.146-1.903.224-.745.806-.583 1.345.15.122.165.228.058.173-.18"/>
        <path fill="#2474CD" d="M4.487 28.248c.146.559.051.987-.206 1.048-.367.086-.95-.038-1.143-.721-.184-.65.233-1.247.613-1.306.26-.04.59.42.736.979"/>
        <path fill="#FF7E59" d="M38.006 31.806a176.74 176.74 0 0 0-8.138-.603 9.948 9.948 0 0 0 2.909-1.698 11.478 11.478 0 0 0 2.32-2.746c.008.117.13 1.638.912 2.982a6.18 6.18 0 0 0 1.997 2.065M33.068 24.732a5.896 5.896 0 0 0 2.024 2.02c-.108.034-1.54.506-2.94 1.696-1.339 1.135-2.18 2.518-2.309 2.737.773-3.118 1.545-6.241 2.315-9.376.02.229.163 1.664.91 2.923"/>
        <path fill="#2474CD" d="M35.863 23.919c-1.35-.092-2.618 1.117-3.002 2.668-.382 1.553.402 2.873 1.752 2.974 1.35.1 2.754-1.06 3.136-2.622.382-1.56-.537-2.929-1.886-3.02"/>
        <path fill="#FF7E59" d="M8.433 31.356c3.2-.203 6.41-.328 9.626-.371a12.094 12.094 0 0 1-3.328-1.791c-1.58-1.223-2.498-2.693-2.566-2.806-.017.116-.254 1.628-1.258 2.95-.942 1.243-2.233 1.9-2.474 2.018M14.684 24.426c-1.006 1.29-2.407 1.907-2.513 1.954.125.037 1.783.547 3.364 1.78a11.627 11.627 0 0 1 2.555 2.808l-2.15-9.424c-.035.227-.296 1.65-1.256 2.882"/>
        <path fill="#2474CD" d="M11.435 23.536c1.597-.055 3.022 1.186 3.378 2.745.355 1.56-.654 2.853-2.251 2.916-1.598.063-3.178-1.134-3.533-2.7-.355-1.567.809-2.908 2.406-2.961"/>
        <path fill="#FF7E59" d="M9.064 31.997a.925.925 0 0 1-.853.901.776.776 0 0 1-.844-.789.923.923 0 0 1 .852-.904.782.782 0 0 1 .845.792M19.085 31.645a.86.86 0 0 1-.857.842.823.823 0 0 1-.85-.82.863.863 0 0 1 .858-.847.827.827 0 0 1 .849.825M30.67 31.92a.797.797 0 0 1-.859.788c-.472-.025-.853-.416-.851-.877a.801.801 0 0 1 .859-.793c.472.024.853.42.851.881M38.432 32.53c-.002.469-.386.808-.858.762-.472-.047-.853-.46-.851-.927a.765.765 0 0 1 .857-.765.954.954 0 0 1 .852.93"/>
    </g>
</svg>
