<svg xmlns="http://www.w3.org/2000/svg" xmlns:xlink="http://www.w3.org/1999/xlink" width="683" height="683" viewBox="0 0 683 683">
    <defs>
        <path id="a" d="M0 1h192v192H0z"/>
        <path id="c" d="M3.975 4.714s4.983 8.738 3.867 13.762C7.02 22.187 1 24.593 1 24.593s1.636 28.4 10.413 27.38C28.967 49.933 37 19.642 37 19.642 32.834 17.311 26.29 1 26.29 1L3.974 4.714z"/>
        <path id="e" d="M34.631 28.545C49.181 43.25 56.615 53.346 58.785 58.82c3.201 8.073-2.328 21.913-8.73 34.023-2.248 4.25-5.82 10.38-1.164 11.822 3.513 1.087 12.128-.21 19.207-7.785 7.275-7.785 17.46-24.797 16.878-32.582-.581-7.785-4.947-6.055-8.73-10.38-3.783-4.325-8.61-12.831-11.058-19.03-2.619-6.632-10.186-24.508-10.186-24.508L0 0s20.08 13.84 34.631 28.545"/>
        <path id="g" d="M1 9.959s13.472 7.564 17.68 14.576c7.536 12.557 2.174 26.557 1.305 30.309-.87 3.752-2.03 8.082.87 9.525 2.897 1.444 12.317.866 17.534-6.639 5.217-7.504 3.333-17.896 3.043-21.36-.29-3.464.87-16.742.29-19.917-.58-3.175-1.593-6.275-4.638-7.217-2.255-.696-4.05-.479-5.68-.261-1.404.187-2.686.375-4.028-.027C24.476 8.082 17.52 0 17.52 0L1 9.959z"/>
        <path id="i" d="M5.759 2.909c-7.83 5.652-5.785 22.14 4.566 36.826C20.677 54.421 35.414 61.743 43.242 56.09c7.829-5.65 5.784-22.139-4.568-36.824C30.695 7.945 20.11.999 12.094 1c-2.384 0-4.542.614-6.335 1.909"/>
        <path id="k" d="M5.759 2.909c-7.83 5.652-5.785 22.14 4.566 36.826C20.677 54.421 35.414 61.743 43.242 56.09c7.829-5.65 5.784-22.139-4.568-36.824C30.695 7.945 20.11.999 12.094 1c-2.384 0-4.542.614-6.335 1.909"/>
        <path id="m" d="M5.759 2.909c-7.83 5.652-5.785 22.14 4.566 36.826C20.677 54.421 35.414 61.743 43.242 56.09c7.829-5.65 5.784-22.139-4.568-36.824C30.695 7.945 20.11.999 12.094 1c-2.384 0-4.542.614-6.335 1.909"/>
        <path id="o" d="M5.759 2.909c-7.83 5.652-5.785 22.14 4.566 36.826C20.677 54.421 35.414 61.743 43.242 56.09c7.829-5.65 5.784-22.139-4.568-36.824C30.695 7.945 20.11.999 12.094 1c-2.384 0-4.542.614-6.335 1.909"/>
        <path id="q" d="M5.759 2.909c-7.83 5.652-5.785 22.14 4.566 36.826C20.677 54.421 35.414 61.743 43.242 56.09c7.829-5.65 5.784-22.139-4.568-36.824C30.695 7.945 20.11.999 12.094 1c-2.384 0-4.542.614-6.335 1.909"/>
        <path id="s" d="M5.759 2.909c-7.83 5.652-5.785 22.14 4.566 36.826C20.677 54.421 35.414 61.743 43.242 56.09c7.829-5.65 5.784-22.139-4.568-36.824C30.695 7.945 20.11.999 12.094 1c-2.384 0-4.542.614-6.335 1.909"/>
        <path id="u" d="M5.759 2.909c-7.83 5.652-5.785 22.14 4.566 36.826C20.677 54.421 35.414 61.743 43.242 56.09c7.829-5.65 5.784-22.139-4.568-36.824C30.695 7.945 20.11.999 12.094 1c-2.384 0-4.542.614-6.335 1.909"/>
        <path id="w" d="M5.759 2.909c-7.83 5.652-5.785 22.14 4.566 36.826C20.677 54.421 35.414 61.743 43.242 56.09c7.829-5.65 5.784-22.139-4.568-36.824C30.695 7.945 20.11.999 12.094 1c-2.384 0-4.542.614-6.335 1.909"/>
        <path id="y" d="M5.759 2.909c-7.83 5.652-5.785 22.14 4.566 36.826C20.677 54.421 35.414 61.743 43.242 56.09c7.829-5.65 5.784-22.139-4.568-36.824C30.695 7.945 20.11.999 12.094 1c-2.384 0-4.542.614-6.335 1.909"/>
        <path id="A" d="M1.094 1.216L0 9.212S2.188 42.49 17.281 44.867C32.375 47.244 42 16.99 42 16.99L41.344 1l-40.25.216z"/>
        <radialGradient id="B" cx="-140.104%" cy="-9.004%" r="212.52%" fx="-140.104%" fy="-9.004%" gradientTransform="scale(1 .95455) rotate(16.117 -1.386 -.092)">
            <stop offset="0%" stop-color="#FFE8E8"/>
            <stop offset="100%" stop-color="#FDACAC"/>
        </radialGradient>
        <path id="D" d="M3.071 18.535c-5.19 16.77-4.344 36.755 6.739 40.788 11.083 4.034 27.714-10.632 33.399-26.181C48.893 17.593 40.195 6.45 29.112 2.417 26.55 1.485 24.045 1 21.645 1c-7.99 0-14.81 5.375-18.574 17.535"/>
        <radialGradient id="E" cx="-97.24%" cy="31.007%" r="168.122%" fx="-97.24%" fy="31.007%" gradientTransform="scale(1 .76271) rotate(15.595 -1.325 .358)">
            <stop offset="0%" stop-color="#FFE8E8"/>
            <stop offset="100%" stop-color="#FDACAC"/>
        </radialGradient>
    </defs>
    <g fill="none" fill-rule="evenodd">
        <path d="M0 0h683v683H0z"/>
        <path fill="#E9EEFB" d="M224 222.5c0 18.501-15.223 33.5-34 33.5s-34-14.999-34-33.5c0-18.501 15.223-33.5 34-33.5s34 14.999 34 33.5"/>
        <path fill="#FFF" d="M225.552 222.054c-22.895 0-35.094-10.79-35.094-34.64V182h-.902v5.413c0 23.851-12.392 34.641-35.093 34.641H149v.892h5.481c22.68.009 35.078 11.962 35.078 34.64V263h.903v-5.414c0-22.678 12.193-34.624 35.057-34.64H231v-.892h-5.448z"/>
        <path fill="#FF7E59" d="M200.476 207.723l8.077 14.248a3.435 3.435 0 0 1-1.262 4.665l-24.14 13.913a3.376 3.376 0 0 1-4.627-1.272l-8.076-14.248a3.434 3.434 0 0 1 1.26-4.666l24.141-13.912a3.377 3.377 0 0 1 4.627 1.272"/>
        <path fill="#E09595" d="M254.238 300.825s-3.61 2.638-1.66 4.534c1.981 1.926 6.463-1.007 9.025-2.007 3.43-1.338 10.397-3.568 10.397-3.568L258.86 298l-4.622 2.825zM278 303l-6.597 2.973-1.403 7.823 2.105 3.204z"/>
        <path fill="#E86A46" d="M295.645 320c-.345 0-.695-.041-1.046-.128l-24.93-6.176-.072.305a4.357 4.357 0 0 1-5.248 3.249c-2.34-.56-3.787-2.924-3.23-5.279l1.09-4.602a4.384 4.384 0 0 1 1.97-2.728 4.332 4.332 0 0 1 3.31-.513l29.195 7.232c2.336.579 3.764 2.953 3.189 5.304a4.364 4.364 0 0 1-4.228 3.336"/>
        <path fill="#E09595" d="M301 308.554l-5.22 2.397c-.79.362-1.681.447-2.526.24l-9.769-2.385c-2.93-.685-5.398.618-6.67 1.828l-.42.4c-1.357 1.29-1.856 2.782-1.16 4.515 0 0-.072 1.817-1.793 2.381-.877.288-1.789-.348-1.807-1.268a7.351 7.351 0 0 0-.235-1.617c-.29-1.154-1.014-2.525-1.014-2.525-.662-1.318-.481-2.634.608-3.634l6.412-5.886L301 308.554z"/>
        <path fill="#E09595" d="M300.711 309s45.295-11.971 58.289-20.511L342.232 269s-18.292 11.971-34.842 22.482c-8.222 5.221-24.39 13.43-24.39 13.43L300.711 309zM273.926 317.294l11.167 1.659c.896.15 2.396-.031 3.042-.982l1.6-2.376c.615-.905.11-2.107-.998-2.377l-8.358-2.11c-1.166-.285-2.405 0-3.296.758l-2.221 1.891c-.5.425-1.191.591-1.847.444l-1.015-.228.055 1.519c.055.979.66 1.545 1.871 1.802"/>
        <path fill="#C5CBD8" d="M382 258.596s-6.771 10.889-10.013 16.514c-3.283 5.698-9.869 10.89-9.869 10.89L348 268.692 371.627 241 382 258.596z"/>
        <path fill="#5581EE" d="M343 271.338s3.625 4.4 7.974 8.943c2.67 2.789 5.378 5.873 7.485 7.8a3.493 3.493 0 0 0 4.477.206c1.225-.932 2.219-2.37 3.697-3.678.88-.778 2.535-2.167 3.48-3.03a2.72 2.72 0 0 0 .107-3.916L359.673 266 343 271.338z"/>
        <path fill="#E09595" d="M333.367 454l.147 8.91c0 2.596-2.458 4.238-5.021 3.745-3.555-.683-10.64-2.123-15.832-3.501-8.689-2.308-13.449-5.07-14.915-3.32-1.327 1.587-.807 4.633.953 7.258 1.759 2.626 7.542 7.612 27.155 16.521 8.832 4.012 16.616 7.7 20.45 9.082 3.419 1.233 7.326-1.433 7.695-5.033.656-6.381 1.503-19.95.624-29.432L333.367 454z"/>
        <path fill="#2B2B51" d="M332.783 466.021c-.937 1.154-2.548 1.734-4.207 1.414-3.564-.69-10.668-2.14-15.874-3.53-8.711-2.328-13.484-5.112-14.954-3.347-1.33 1.598-.809 4.67.955 7.318 1.764 2.648 7.563 7.675 27.227 16.66 8.855 4.044 16.66 7.761 20.503 9.156 3.428 1.244 7.346-1.445 7.716-5.075.309-3.017.657-7.633.851-12.663-8.424-1.143-16.626-3.541-22.217-9.933M404.551 312c-14.934 4.638-40.356 8.807-64.13 16.524-26.794 8.697-38.215 15.364-39.972 24.061-1.757 8.697 1.757 16.233 8.492 29.279 6.572 12.728 13.711 29.728 18.156 45.803 5.71 20.655 5.637 33.917 5.637 33.917s14.129 2.754 30.381.58c0 0-3.66-55.08-9.37-68.704-6.016-14.353-12.446-24.061-12.446-24.061L423 357.223S408.944 316.638 404.551 312"/>
        <path stroke="#E9EEFB" stroke-linecap="round" stroke-width="2" d="M226 369s7.842-28.33 8.277-29.653c.436-1.323 1.608-2.82 3.812-2.204 3.159.881 9.911 2.645 9.911 2.645"/>
        <path stroke="#E9EEFB" stroke-linecap="round" stroke-width="3" d="M222 369h17"/>
        <path stroke="#E9EEFB" stroke-width="3" d="M226 352h4"/>
        <path fill="#23478D" d="M330.897 492.538l-13.003-5.977c-2.504-1.152-3.59-4.093-2.428-6.572l.465-.989L338 489.146l-.464.989c-1.163 2.479-4.135 3.555-6.639 2.403"/>
        <path fill="#E9EEFB" d="M581 540.222L505 490l52.347 74zM418 479.557L505 491l-27.433-85-44.007 29.466z"/>
        <path fill="#D8DDEA" d="M505 499a8 8 0 1 1 0-16 8 8 0 0 1 0 16m.5-21c-7.456 0-13.5 6.045-13.5 13.5 0 7.456 6.044 13.5 13.5 13.5s13.5-6.044 13.5-13.5c0-7.455-6.044-13.5-13.5-13.5"/>
        <path fill="#C5CBD8" d="M372.831 507c-.25 0-.504-.044-.752-.136l-47.663-17.655a2.172 2.172 0 0 1 1.505-4.074l47.662 17.655a2.174 2.174 0 0 1-.752 4.21"/>
        <path fill="#E9EEFB" d="M113.036 440L187 491.306 107.562 531s-13.325-21.01-10.041-47.351C100.805 457.307 113.036 440 113.036 440M257.891 547L187 491.03s76.808-4.378 89.55-5.03c3.882 36.549-18.659 61-18.659 61"/>
        <g transform="translate(91 394)">
            <mask id="b" fill="#fff">
                <use xlink:href="#a"/>
            </mask>
            <path fill="#2B2B3D" d="M90.551 98.897a5.5 5.5 0 1 1 9.9-4.794 5.5 5.5 0 0 1-9.9 4.794m-71.078 34.438C-.871 91.347 16.676 40.815 58.665 20.473c41.989-20.344 92.518-2.797 112.863 39.192 20.343 41.988 2.795 92.52-39.192 112.862-41.99 20.344-92.52 2.797-112.863-39.192m162.901-78.183c-23.112-47.704-80.52-67.638-128.222-44.526C6.448 33.737-13.486 91.146 9.625 138.848c23.113 47.704 80.52 67.638 128.223 44.526 47.703-23.111 67.639-80.52 44.526-128.222" mask="url(#b)"/>
        </g>
        <path fill="#C5CBD8" d="M113.322 527.463c-19.982-40.995-2.747-90.329 38.497-110.191 41.243-19.862 90.877-2.73 110.858 38.265 19.983 40.995 2.748 90.329-38.496 110.191-41.243 19.862-90.876 2.73-110.86-38.265m152.056-73.233c-20.705-42.486-72.132-60.242-114.866-39.657-42.734 20.584-60.593 71.713-39.888 114.198 20.705 42.486 72.131 60.24 114.866 39.656 42.734-20.584 60.593-71.712 39.888-114.197"/>
        <path fill="#E86A46" d="M128.609 519.877c-2.305-4.861-6.534-16.3-3.62-17.743 2.913-1.442 9.13 9.137 11.459 14.048 2.329 4.91 6.413 16.299 3.597 17.693-2.817 1.393-9.154-9.187-11.436-13.998"/>
        <path fill="#2474CD" d="M187.554 390.02v-.006c-2.478-.005-10.297-.292-22.554 1.974l.01.04c.857 3.568 4.269 5.961 7.916 5.475a96.76 96.76 0 0 1 15.254-.802v-.005c51.673 1.381 93.136 43.583 93.136 95.444 0 3.928-.238 7.8-.7 11.604-.103.85.3 2.305 1.282 3.066.98.76 3.16 1.195 4.875 1.19A102.617 102.617 0 0 0 288 492.14c0-55.75-44.792-101.063-100.446-102.12"/>
        <path fill="#2B2B3D" d="M505.5 496a5.5 5.5 0 1 1 0-11 5.5 5.5 0 0 1 0 11m-.5 79c-46.944 0-85-37.832-85-84.5s38.056-84.5 85-84.5 85 37.832 85 84.5-38.056 84.5-85 84.5m.5-180c-53.295 0-96.5 42.98-96.5 96s43.205 96 96.5 96 96.5-42.98 96.5-96-43.205-96-96.5-96"/>
        <path fill="#C5CBD8" d="M506 574c-45.84 0-83-36.936-83-82.5 0-45.563 37.16-82.5 83-82.5s83 36.937 83 82.5c0 45.564-37.16 82.5-83 82.5m0-168c-47.497 0-86 38.28-86 85.5s38.503 85.5 86 85.5 86-38.28 86-85.5-38.503-85.5-86-85.5"/>
        <path fill="#E86A46" d="M505.445 556c-5.36 0-17.445-1.125-17.445-4.5s12.195-4.5 17.609-4.5c5.415 0 17.391 1.238 17.391 4.5s-12.25 4.5-17.555 4.5"/>
        <path stroke="#E9EEFB" stroke-linecap="round" stroke-width="3" d="M171 383l17 108"/>
        <path stroke="#E9EEFB" stroke-linecap="round" stroke-width="2" d="M284 485l-97 6"/>
        <path fill="#2474CD" d="M417.346 458.025c13.147-35.661 47.671-61.091 88.16-61.091 40.878 0 75.527 25.974 88.533 62.121 1.112 3.093 4.882 3.182 7.267 2.768a.826.826 0 0 0 .658-1.053C589.33 419.798 550.927 390 505.505 390c-45.438 0-83.854 29.82-96.473 70.816a.735.735 0 0 0 .598.94c2.977.404 6.814-1.284 7.716-3.731"/>
        <path fill="#23478D" d="M373.495 510a3.487 3.487 0 0 1-3.348-4.487l46.014-154.02a3.493 3.493 0 0 1 4.345-2.346 3.487 3.487 0 0 1 2.347 4.34L376.84 507.509a3.493 3.493 0 0 1-3.344 2.491"/>
        <path stroke="#E9EEFB" stroke-linecap="round" stroke-width="3" d="M505 491l33-104"/>
        <path stroke="#E9EEFB" stroke-linecap="round" stroke-width="2" d="M505 491l86-44"/>
        <path fill="#23478D" d="M371.494 507c-.909 0-1.818-.35-2.504-1.047L239 373.927a3.474 3.474 0 0 1 .052-4.93 3.518 3.518 0 0 1 4.958.05l129.987 132.025a3.474 3.474 0 0 1-.05 4.931 3.503 3.503 0 0 1-2.454.997M505.501 495a3.491 3.491 0 0 1-2.514-1.064l-97.002-100.014a3.489 3.489 0 0 1 .08-4.939 3.504 3.504 0 0 1 4.948.08l97.002 100.015a3.489 3.489 0 0 1-.08 4.939 3.49 3.49 0 0 1-2.434.983M390.502 452c-.193 0-.386-.017-.583-.049-.235-.039-23.579-3.923-29.866-5.004-11.29-1.943-23.546-8.184-31.223-15.9L247 347.917a3.468 3.468 0 0 1 .052-4.925 3.517 3.517 0 0 1 4.953.053l81.816 83.114c8.152 8.193 19.871 12.623 27.425 13.923 6.27 1.079 29.595 4.96 29.83 4.999a3.484 3.484 0 0 1 2.875 4.01 3.498 3.498 0 0 1-3.45 2.908"/>
        <path fill="#D8DDEA" d="M373.5 525c-10.769 0-19.5-8.507-19.5-19s8.731-19 19.5-19c10.77 0 19.5 8.507 19.5 19s-8.73 19-19.5 19m0-42c-12.98 0-23.5 10.298-23.5 23s10.52 23 23.5 23c12.978 0 23.5-10.298 23.5-23s-10.522-23-23.5-23"/>
        <path fill="#D8DDEA" d="M385.5 514a6.5 6.5 0 1 1 0-13 6.5 6.5 0 0 1 0 13m-9 10a6.5 6.5 0 1 1 0-13 6.5 6.5 0 0 1 0 13m-14-5a6.5 6.5 0 1 1 0-13 6.5 6.5 0 0 1 0 13m2-27a6.5 6.5 0 1 1-.001 13 6.5 6.5 0 0 1 .001-13m14-3a6.5 6.5 0 1 1 .001 13 6.5 6.5 0 0 1-.001-13m-5-2c-10.769 0-19.5 8.506-19.5 19 0 10.493 8.731 19 19.5 19 10.77 0 19.5-8.507 19.5-19 0-10.494-8.73-19-19.5-19"/>
        <path stroke="#D8DDEA" stroke-linecap="round" stroke-width="3" d="M378 528l129-25"/>
        <path fill="#4FA372" d="M118.116 315.133c3.016.03 6.887-4.324 8.822-4.69 2.907-.55 6.73-.998 9.932.318C139.397 311.801 145 317 145 317s-5.42-7.785-7.963-8.41c-3.69-.906-9.13-.744-11.533.318-1.175.518-3.008 2.372-4.68 3.79-1.097.931-3.36 2.428-2.708 2.435"/>
        <path fill="#4F9E7C" d="M118.157 297.045c-.797.19 1.532 1.148 4.82 1.648 3.586.545 5.123.18 8.261 1.511C134.376 301.534 142.85 312 142.85 312l2.151-2.618s-7.634-8.778-9.865-9.912c-3.645-1.854-7.604-2.114-10.752-2.07-1.965.025-5.345-.564-6.226-.355"/>
        <path fill="#4FA372" d="M146.839 318s-9.37-9.327-13.035-9.926c-3.664-.6-9.207-1.087-11.525.099-1.218.622-6.737 5.418-7.244 4.722-.362-.497 2.177-2.1 3.193-3.423 2.902-3.778 3.966-3.68 8.212-4.273 3.064-.428 7.874-.134 10.252.576 3.103.928 10.308 7.398 10.308 7.398l-.161 4.827z"/>
        <path fill="#42426C" d="M217.936 330L209 326.45l11.671-27.138c.62-1.097 1.612-1.582 2.667-1.162l3.384 1.344c1.055.42 1.519 1.545 1.156 2.68L217.936 330z"/>
        <path fill="#2B2B51" d="M227.563 306l1.312-3.71c.37-1.167-.102-2.324-1.176-2.755l-3.444-1.381c-1.074-.431-2.085.067-2.714 1.194L220 302.967l7.563 3.033z"/>
        <path fill="#E5A977" d="M173.445 307.052c6.37 14.548 14.162 30.976 6.137 34.506-8.427 3.706-15.908-16.697-22.493-31.148-4.71-10.335-5.558-20.295-1.458-22.099 4.1-1.802 11.444 4.194 17.814 18.741"/>
        <path fill="#EFB881" d="M162.222 308.997c8.21 13.578 18.158 28.789 9.324 34.039-9.275 5.512-19.145-13.827-27.592-27.261-6.042-9.609-7.991-19.34-3.479-22.022 4.513-2.682 13.537 1.667 21.747 15.244"/>
        <path fill="#EFC6A0" d="M151.146 312.275c1.018 1.906 5.421-.296 9.024-2.584.702-.446 1.31-.901 1.83-1.355a65.579 65.579 0 0 0-2.668-4.336c-.3.173-.61.359-.944.57-3.603 2.289-8.277 5.767-7.242 7.705"/>
        <path fill="#FFBE46" d="M196 324.5c0 9.112-7.388 16.5-16.5 16.5s-16.5-7.388-16.5-16.5 7.388-16.5 16.5-16.5 16.5 7.388 16.5 16.5"/>
        <path fill="#E9EEFB" d="M204.339 384h-30.043c-8.83 0-16.421-6.236-18.11-14.875L146 317h91l-14.551 52.125c-2.58 8.458-9.281 14.875-18.11 14.875"/>
        <path fill="#C5CBD8" d="M237.119 321H145.88c-1.035 0-1.881-.9-1.881-2s.846-2 1.881-2h91.238c1.035 0 1.881.9 1.881 2s-.846 2-1.881 2"/>
        <path fill="#D8DDEA" d="M156 368l.171 1h66.659l.17-1zM227 351h-75l.17 1h74.586zM149 335l.171 1h82.586l.243-1z"/>
        <path fill="#AFAC74" d="M185.951 313.585c-.208.448-1.027.549-1.828.226-.801-.323-1.282-.948-1.075-1.396.21-.448 1.027-.549 1.829-.226.802.323 1.283.948 1.074 1.396"/>
        <path fill="#2474CD" d="M591.45 434h-8.59L577 422h14.45c.856 0 1.55.697 1.55 1.557v8.886c0 .86-.694 1.557-1.55 1.557"/>
        <path fill="#E86A46" d="M590.669 422H590v12h.669c.735 0 1.331-.697 1.331-1.557v-8.886c0-.86-.596-1.557-1.331-1.557"/>
        <path fill="#23478D" d="M187.486 494a3.48 3.48 0 0 1-2.54-5.859l11.975-12.719a64.299 64.299 0 0 0 11.964-21.155l43.139-128.198c-.061-1.825-1.494-4.529-3.608-6.746l-5.05-5.298a17.482 17.482 0 0 1-4.824-11.417 3.48 3.48 0 0 1 3.355-3.605 3.483 3.483 0 0 1 3.614 3.345 10.546 10.546 0 0 0 2.908 6.885l5.051 5.297c1.4 1.468 5.93 6.699 5.502 12.414-.021.289-.079.574-.171.849l-43.305 128.689a71.223 71.223 0 0 1-13.315 23.508 3.241 3.241 0 0 1-.116.13l-12.036 12.783a3.485 3.485 0 0 1-2.543 1.097"/>
        <path fill="#FF7E59" d="M241.604 308c-2.832 0-5.18-2.231-5.286-5.073l-.312-8.272a8.27 8.27 0 0 1 2.979-6.696 8.357 8.357 0 0 1 7.135-1.774l40.687 8.622c2.86.607 4.685 3.406 4.076 6.254-.61 2.846-3.423 4.658-6.28 4.057l-37.91-8.035.205 5.449c.11 2.908-2.17 5.356-5.092 5.464a5.195 5.195 0 0 1-.202.004"/>
        <path fill="#FF9E78" d="M290.876 300.953c-.576 2.71-3.003 4.48-5.42 3.954-2.416-.526-3.909-3.15-3.332-5.86.576-2.71 3.002-4.48 5.42-3.954 2.416.526 3.909 3.15 3.332 5.86"/>
        <path fill="#2474CD" d="M254.353 340.89l-6.863-2.146c-1.156-.362-1.767-1.5-1.368-2.545l.71-1.852c.4-1.044 1.66-1.598 2.815-1.237l6.863 2.147c1.156.36 1.767 1.5 1.368 2.544l-.71 1.853c-.4 1.044-1.66 1.596-2.815 1.236"/>
        <path fill="#23478D" d="M255.496 330a3.452 3.452 0 0 1-2.391-.962 3.601 3.601 0 0 1-.16-5.029l6.792-7.368c1.535-1.666 2.025-2.279 2.328-3.74.397-1.921 2.18-3.201 4.082-2.84 1.898.362 3.148 2.222 2.792 4.153-.66 3.58-1.651 4.637-4.1 7.293l-6.79 7.369a3.459 3.459 0 0 1-2.553 1.124"/>
        <path fill="#2474CD" d="M478.86 488.309l-96.358 12.456c-1.364.176-2.777-.222-3.725-1.192a7.397 7.397 0 0 0-5.308-2.218c-2.816 0-5.256 1.55-6.482 3.82-.602 1.115-1.778 1.825-3.059 1.99l-6.423.831c-.306.04-.562-.23-.494-.522.626-2.694 4.009-13.525 18.026-13.677 14.262-.155 88.365-1.514 103.802-1.797.2-.004.22.283.021.309M520 489.77c-.757-7.176-6.874-12.77-14.308-12.77-.043 0-.085.007-.127.008l-.008-.008h-133.19C355.594 477 342 490.487 342 507.124c0 1.5.223 3.454.393 4.727.097.726.771 1.234 1.503 1.137l176.08-23.216-.002-.001H520"/>
        <path fill="#E9EEFB" d="M420.831 524c-.25 0-.504-.044-.752-.136l-47.662-17.655a2.174 2.174 0 0 1-1.282-2.79 2.17 2.17 0 0 1 2.786-1.284l47.662 17.655a2.174 2.174 0 0 1-.752 4.21"/>
        <path fill="#2474CD" d="M429.648 521.734l-12.169 7.514c-2.344 1.447-5.43.742-6.894-1.571l-.585-.924L430.654 514l.585.924c1.464 2.315.752 5.363-1.591 6.81"/>
        <path fill="#423748" d="M510.407 228.872c-1.362-4.431-4.9-7.861-8.956-9.121-2.798-.87-6.135-.992-7.912-3.548-1.134-1.63-1.298-3.74-2.607-5.486-1.815-2.424-3.489-3.494-6.688-4.513-5.216-1.662-7.706-5.969-7.851-12.52 0 0-15.703-13.684-25.59-13.684-9.16 0-29.442 11.282-28.788 13.03.464 2.497 9.45 50.732 9.45 50.732s63.938.365 70.481 1.238c.03-.142.04-.273.066-.412a9.413 9.413 0 0 0 5.656-2.787c3.087-3.183 4.101-8.498 2.74-12.93"/>
        <g transform="translate(435 221)">
            <mask id="d" fill="#fff">
                <use xlink:href="#c"/>
            </mask>
            <path fill="#E09595" d="M3.975 4.714s4.983 8.738 3.867 13.762C7.02 22.187 1 24.593 1 24.593s1.636 28.4 10.413 27.38C28.967 49.933 37 19.642 37 19.642 32.834 17.311 26.29 1 26.29 1L3.974 4.714z" mask="url(#d)"/>
        </g>
        <g transform="translate(451 409)">
            <mask id="f" fill="#fff">
                <use xlink:href="#e"/>
            </mask>
            <path fill="#FFAEAE" d="M34.631 28.545C49.181 43.25 56.615 53.346 58.785 58.82c3.201 8.073-2.328 21.913-8.73 34.023-2.248 4.25-5.82 10.38-1.164 11.822 3.513 1.087 12.128-.21 19.207-7.785 7.275-7.785 17.46-24.797 16.878-32.582-.581-7.785-4.947-6.055-8.73-10.38-3.783-4.325-8.61-12.831-11.058-19.03-2.619-6.632-10.186-24.508-10.186-24.508L0 0s20.08 13.84 34.631 28.545" mask="url(#f)"/>
        </g>
        <path fill="#FFCFDF" d="M535.976 474.209c-.582-7.68-4.889-6.124-8.69-10.209-.341 3.759-.476 11.942-5.06 21.478-2.979 6.2-9.46 12.57-14.488 12.425-1.73-.049-2.941-1.147-3.259-3.077a144.807 144.807 0 0 1-3.985 7.99c-2.283 4.26-5.913 10.403-1.182 11.848 3.569 1.09 12.322-.21 19.515-7.802 7.391-7.802 17.74-24.851 17.149-32.653"/>
        <g transform="translate(504 415)">
            <mask id="h" fill="#fff">
                <use xlink:href="#g"/>
            </mask>
            <path fill="#FFAEAE" d="M1 9.959s13.472 7.564 17.68 14.576c7.536 12.557 2.174 26.557 1.305 30.309-.87 3.752-2.03 8.082.87 9.525 2.897 1.444 12.317.866 17.534-6.639 5.217-7.504 3.333-17.896 3.043-21.36-.29-3.464.87-16.742.29-19.917-.58-3.175-1.593-6.275-4.638-7.217-2.255-.696-4.05-.479-5.68-.261-1.404.187-2.686.375-4.028-.027C24.476 8.082 17.52 0 17.52 0L1 9.959z" mask="url(#h)"/>
        </g>
        <g>
            <path fill="#FFCFDF" d="M545.432 450.983c-.29-3.51.87-16.97.29-20.187-.58-3.218-1.593-6.36-4.638-7.314-4.037-1.263-6.603.431-9.367-.208-.785.412-3.001 1.124-3.388 6.645-.388 5.52 1.74 16.382-2.355 31.506-.672 3.838-1.66 6.825-1.993 8.281-.87 3.803-2.03 8.192.87 9.655 2.898 1.463 12.319.877 17.537-6.73 5.218-7.605 3.334-18.137 3.044-21.648"/>
            <path fill="#638FFA" d="M441.122 240.97c-.927 1.638-1.822 3.97-2.129 5.952-.573 3.715-.29 11.347 1.037 16.023 1.129 3.968 3.963 6.498 5.53 7.282 1.165.583 3.42-1.457 10.914-10.196 8.837-10.304 10.53-17.387 13.825-24.76.873-.875 29.582-.782 27.94 18.934-1.746 20.974-.07 37.574 3.201 44.498 6.985 14.783 19.937 18.278 29.687 34.446 6.636 11.003 9.023 18.061 8.731 25.052-.28 6.72-2.91 11.798-2.91 11.798s4.802-2.912 14.843.146c10.041 3.059 16.299 7.866 19.209 9.322-6.112 4.952-5.239 8.448-13.97 11.361-8.386 2.798-11.497.582-19.646 9.03-3.536 3.666-4.189 11.026-6.111 14.202-2.843 4.696-10.055 11.243-18.773 12.89-8.33 1.572-19.791 1.602-30.269-1.457-10.477-3.059-16.007-9.467-24.738-10.778-8.731-1.31-30.56-2.622-36.671-6.991 0 0-3.056-20.1 2.619-29.277 7.857-12.704 36.235-32.771 41.91-40.055 2.658-3.41 4.657-7.865-6.694-16.021-6.1-4.385-23.429-22.576-23.429-22.576l-12.66-53.455s4.804.131 9.604-1.166c3.078-.83 7.259-2.676 8.95-4.205"/>
            <path fill="#5581EE" d="M468.796 270c-.955-1.801-1.796-4.655-1.796-6.923 0-.918.478-1.147.726-.636.344.707.678 1.2 1.114 1.61.35.331.649.33.758-.338a22.912 22.912 0 0 1 1.68-5.58c.558-1.254 2.108-3.907 3.553-4.133.896 4.82-1.954 9.226-4.235 13.64l-1.8 2.36zM472.025 295.047c4.766-3.002 17.003-13.451 21.86-16.308.688-.405 2.383-.932 2.52.992.176 2.5.947 11.145-1.255 16.391-.627 1.577-.888 2.224-1.816 4.147-3.525 7.311-6.407 11.885-8.276 14.454-.213.294.104.41.549.064 3.51-2.739 8.081-8.743 10.24-12.19.771-1.23 2.128-1.085 2.532 1.266.416 2.43 1.053 5.208 1.614 6.946.385 1.194 1.323.985 1.43 0 .161-1.454.221-3.074.331-4.667.066-.958.623-1.292 1.54-.723.991.615 2.67 1.51 3.706 1.882-2.55-3.274-5.356-7.073-6.677-11.414-3.04-9.988-2.861-23.96-2.883-28.865-.19-.217-19.569 1.1-24.925 8.263-5.357 7.162-.49 19.762-.49 19.762M457 321c1.473.506 6.789 4.977 11.189 8.82 4.078 3.56 9.534 4.948 14.753 3.769l10.847-2.453c.304-.068.27-.527-.04-.536-3.647-.125-11.21-.503-17.292-1.604C468.117 327.488 457 321 457 321M481.53 342.48s15.214-7.433 19.658-10.552c3.92-2.753 7.808-5.676 10.229-8.702.354-.443.673-.19.56.368-.681 3.34-4.184 12.54-22.73 23.65C464.784 361.899 447.457 378.241 446 380c0 0 .032-6.235 9.61-16.268 10.703-11.212 25.92-21.251 25.92-21.251"/>
            <path fill="#C5CBD8" d="M446.903 285.46c-1.882-4.664-2.463-6.363-.362-14.724.72-2.862 3.137-7.871 4.705-10.277.2-.307-.255-.628-.5-.357-1.748 1.924-4.602 6.51-5.725 9.468-3.623 9.542-1.371 16.592-.868 17.786 1.302 3.499 3.619 8.747 14.847 5.758-2.415-.847-10.26-3.1-12.097-7.654" opacity=".5" style="mix-blend-mode:multiply"/>
            <path fill="#5581EE" d="M479 394.287s32.584-7.763 55-24.287c0 0-6.889 13.419-26.57 22.291-20.56 9.268-28.43 1.996-28.43 1.996M487 399c.653.217 13.704 5.313 21.535 27 0 0 6.744-1.41 11.603-6.69 1.132-1.228 1.193-3.082-.08-4.164l-5.577-6.315c-.812-.777-2.03-.795-1.872.747 0 0 .495 2.94.205 5.325-.228 1.868-.851 3.861-1.74 2.242-3.336-6.072-7.03-8.657-10.152-11.205C493.743 400.084 487 399 487 399"/>
            <path fill="#EFC6A0" d="M425.058 375.846c-1.958.718-6.405-1.095-8.564-5.087-3.193-5.904-3.128-9.388-.894-10.759 1.747.751 10.4 7.498 10.4 7.498s-.904 6.72-.942 8.348M460.999 304L438 357.604l3.445 5.396s13.399-4.175 26.987-5.234c15.526-1.212 25.568.081 25.568.081L460.999 304z"/>
            <path fill="#EFC6A0" d="M424.389 377s3.051-2.833 7.56-6.839c4.217-3.746 9.051-6.656 9.051-6.656L437.546 358 415 360.463 424.389 377z"/>
            <path fill="#4FA372" d="M439.058 363.922s-1.494.69-3.169-2.044c-1.674-2.735-.47-4.017-.47-4.017l2.823-1.861s-1.033 1.596.522 4.133c1.555 2.539 3.236 2.444 3.236 2.444l-2.942 1.345zM505 354.819s-4.938 2.306-9.357.474c-4.418-1.833-6.643-7.112-6.643-7.112s4.938-2.306 9.357-.474c4.418 1.833 6.643 7.112 6.643 7.112"/>
            <path fill="#5BAF93" d="M498.986 359s-4.813-.403-7.566-3.44c-2.754-3.039-2.406-7.56-2.406-7.56s4.813.402 7.567 3.44c2.753 3.038 2.405 7.56 2.405 7.56"/>
            <path fill="#5BB57F" d="M480.249 301s2.713 5.399 2.75 9.154c.039 3.756-3.931 6.846-3.931 6.846s-4.03-3-4.068-6.754c-.038-3.756 5.249-9.246 5.249-9.246"/>
            <path fill="#FF91BA" d="M500.709 355.12c-7.915 5.567-22.815-1.645-33.28-16.11-10.466-14.466-12.533-30.706-4.618-36.273 7.914-5.568 21.278 2.797 31.744 17.262 10.465 14.465 14.07 29.553 6.154 35.12"/>
            <path fill="#FFCFDF" d="M490.139 324.894c-4.36 3.39-10.643 2.604-14.032-1.756-3.39-4.359-2.605-10.641 1.754-14.032 4.36-3.39 10.643-2.604 14.032 1.756 3.39 4.359 2.605 10.641-1.754 14.032"/>
            <path fill="#FFDEEB" d="M486.669 306c-2.162-.02-6.17 2.783-5.617 7.785.553 5.001 5.104 5.922 8.076 4.772 2.972-1.151-1.415-6.132-1.066-7.618.287-1.222 2.125-.406 4.444.609.386.169.58-.228.458-.639-.812-2.764-4.133-4.888-6.295-4.909"/>
            <path fill="#FFC7D6" d="M490.377 311.491c1.296-1.979 3.266 2.611 2.418 3.348-.849.738-3.839-1.177-2.418-3.348"/>
            <path fill="#FFDEEB" d="M486.67 319.264c2.616-.484 6.12-1.862 7.198-4.882.168-.467.827-.515 1.088-.094.84 1.352 1.811 3.733.09 5.866-2.015 2.493-5.569 2.21-8.59.637-.702-.365-.565-1.383.214-1.527"/>
            <path fill="#FFC7D6" d="M480.7 314.476c-1.703-3.666-.215-6.692 1.576-7.487.841-.374 1.714-.236 2.434.04.453-.245 1.118-.433 1.73-.513a8.91 8.91 0 0 0-.637-.535c-1.907-1.413-4.265-1.02-5.853-.54-1.993.602-5.407 2.973-5.896 7.892-.29 2.918.478 7.486 4.748 9.773 5.703 3.054 9.658-2.626 9.155-3.447-.504-.82-5.733-1.905-7.257-5.183"/>
            <path fill="#FFC7D6" d="M494.994 319s.314 5.463-3.745 7.58c-4.243 2.212-7.253 1.369-8.743.604a.908.908 0 0 1-.186-1.505c1.133-.972 3.169-2.512 4.961-2.753 2.653-.357 5.573-.768 7.713-3.926"/>
            <path fill="#FFDCE9" d="M500.945 340.789c-4.578 3.559-11.174 2.734-14.733-1.843-3.56-4.577-2.735-11.174 1.843-14.735 4.577-3.559 11.174-2.734 14.733 1.843 3.56 4.578 2.735 11.175-1.843 14.735"/>
            <path fill="#FFDEEB" d="M497.14 322c-2.341-.021-6.683 2.783-6.084 7.785.6 5.001 5.529 5.922 8.749 4.772 3.22-1.15-1.531-6.132-1.154-7.618.31-1.222 2.301-.406 4.814.609.418.169.627-.228.496-.639-.88-2.763-4.478-4.888-6.82-4.909"/>
            <path fill="#FFCFDF" d="M500.377 327.491c1.296-1.979 3.266 2.612 2.417 3.348-.847.738-3.838-1.177-2.417-3.348"/>
            <path fill="#FFDEEB" d="M496.67 334.264c2.616-.484 6.119-1.862 7.199-4.882.166-.466.826-.515 1.088-.093.839 1.35 1.81 3.732.088 5.864-2.013 2.493-5.568 2.212-8.589.638-.701-.365-.566-1.383.214-1.527"/>
            <path fill="#FFC7D6" d="M497.957 335.43c-.503-.863-5.733-2.004-7.258-5.456-1.703-3.859-.214-7.044 1.578-7.882.844-.395 1.72-.247 2.442.046.644-.244 1.43-.555 2.049-.575-.126-.127-.782-.389-.964-.53-1.909-1.488-4.267-1.074-5.854-.57-1.993.634-5.408 3.131-5.896 8.308-.29 3.073.478 7.88 4.748 10.288 5.703 3.214 9.659-2.766 9.155-3.629"/>
            <path fill="#FFCFDF" d="M504.994 335s.314 5.463-3.745 7.579c-4.243 2.213-7.253 1.37-8.744.605a.908.908 0 0 1-.185-1.505c1.132-.973 3.169-2.512 4.962-2.753 2.652-.358 5.573-.768 7.712-3.926"/>
            <path fill="#FFADD2" d="M489.138 331.893c-4.359 3.391-10.64 2.605-14.032-1.754-3.39-4.36-2.605-10.642 1.755-14.032 4.36-3.39 10.643-2.605 14.033 1.755 3.39 4.359 2.604 10.642-1.756 14.031"/>
            <path fill="#F9C2D9" d="M485.669 314c-2.162-.02-6.17 2.783-5.617 7.784.553 5.002 5.103 5.923 8.076 4.773 2.972-1.151-1.414-6.132-1.066-7.618.287-1.221 2.125-.406 4.445.609.385.169.578-.228.457-.639-.813-2.764-4.133-4.888-6.295-4.909"/>
            <path fill="#FFCFDF" d="M489.377 319.492c1.297-1.98 3.266 2.61 2.418 3.347-.847.737-3.839-1.178-2.418-3.347"/>
            <path fill="#FFCFDF" d="M485.67 326.264c2.616-.484 6.118-1.862 7.198-4.882.167-.467.827-.515 1.089-.093.839 1.35 1.81 3.732.088 5.864-2.014 2.494-5.568 2.211-8.589.638-.702-.365-.565-1.383.215-1.527"/>
            <path fill="#FFC7D6" d="M485.329 315.985s-2.112-1.86-4.052-.997c-1.792.796-3.28 3.821-1.576 7.488 1.524 3.278 6.753 4.362 7.256 5.183.504.82-3.452 6.5-9.155 3.447-4.27-2.287-5.038-6.855-4.747-9.774.488-4.917 3.901-7.29 5.896-7.892 1.586-.479 3.944-.872 5.853.54 1.908 1.413.525 2.005.525 2.005"/>
            <path fill="#F9C2D9" d="M493.994 327s.314 5.462-3.745 7.578c-4.243 2.214-7.253 1.371-8.744.606a.908.908 0 0 1-.185-1.505c1.133-.974 3.169-2.512 4.961-2.753 2.653-.358 5.573-.769 7.713-3.926"/>
            <path fill="#4FA372" d="M469 322.125s-4.644 1.982-7.682-.02c-3.037-2.003-3.318-7.23-3.318-7.23s4.643-1.982 7.682.02c3.037 2.002 3.318 7.23 3.318 7.23"/>
            <path fill="#5BB57F" d="M465.575 333s-3.8-4.03-3.565-8.725c.235-4.695 4.414-8.275 4.414-8.275s3.8 4.03 3.566 8.725c-.235 4.695-4.415 8.275-4.415 8.275"/>
            <path fill="#FFADD2" d="M476.53 320.506c-4.89 3.852-11.775 3.166-15.38-1.531-3.608-4.698-2.568-11.63 2.321-15.48 4.888-3.853 11.774-3.167 15.38 1.53 3.607 4.698 2.567 11.63-2.322 15.48"/>
            <path fill="#F9C2D9" d="M472.79 301c-2.513.039-7.252 3.172-6.754 8.542.498 5.37 5.76 6.233 9.25 4.91 3.487-1.324-1.467-6.563-1.019-8.173.368-1.323 2.482-.498 5.147.53.444.17.68-.262.55-.7-.864-2.955-4.662-5.147-7.174-5.109"/>
            <path fill="#F9C2D9" d="M476.417 306.512c1.372-2.023 3.236 2.552 2.355 3.314-.88.762-3.859-1.096-2.355-3.314M472.756 314.4c2.87-.543 6.737-1.994 8.001-5.008.195-.465.919-.53 1.193-.12.878 1.315 1.873 3.644-.068 5.796-2.271 2.516-6.147 2.326-9.404.848-.757-.344-.579-1.354.278-1.516"/>
            <path fill="#FFCFDF" d="M473.958 316.006c-.522-.898-6.149-1.958-7.704-5.563-1.74-4.031-.043-7.437 1.918-8.373.852-.406 1.719-.323 2.455-.081.52-.377 1.211-.534 1.918-.624-2.053-1.704-5.06-1.548-6.845-.951-2.176.725-5.937 3.459-6.605 8.943-.396 3.254.305 8.314 4.86 10.739 6.083 3.238 10.526-3.192 10.003-4.09"/>
            <path fill="#FFCFDF" d="M480.999 315s.183 5.909-4.184 8.313c-4.566 2.515-7.739 1.684-9.3.898-.613-.31-.696-1.15-.157-1.626 1.23-1.086 3.434-2.809 5.344-3.12 2.826-.46 5.939-.986 8.297-4.465"/>
        </g>
        <g>
            <g transform="translate(458 300)">
                <mask id="j" fill="#fff">
                    <use xlink:href="#i"/>
                </mask>
                <path fill="#4FA372" d="M28.054 44s3.687 2.652 3.933 6.241c.246 3.59-3.04 6.759-3.04 6.759s-3.687-2.652-3.934-6.242c-.247-3.59 3.04-6.758 3.04-6.758" mask="url(#j)"/>
            </g>
            <g transform="translate(458 300)">
                <mask id="l" fill="#fff">
                    <use xlink:href="#k"/>
                </mask>
                <path fill="#4FA372" d="M23.51 38s2.978 3.504 2.42 7.094C25.373 48.684 21.49 51 21.49 51s-2.978-3.503-2.42-7.094c.558-3.59 4.44-5.906 4.44-5.906" mask="url(#l)"/>
            </g>
            <g transform="translate(458 300)">
                <mask id="n" fill="#fff">
                    <use xlink:href="#m"/>
                </mask>
                <path fill="#5BB57F" d="M28 43.708s-4.465 4.22-10.252 3.104C14.003 46.09 10 41.03 10 41.03s5.438-3.552 9.208-2.964C24.383 38.87 28 43.708 28 43.708" mask="url(#n)"/>
            </g>
            <g transform="translate(458 300)">
                <mask id="p" fill="#fff">
                    <use xlink:href="#o"/>
                </mask>
                <path fill="#FFCFDF" d="M41.138 53.788c-4.359 3.56-10.642 2.735-14.032-1.843-3.39-4.577-2.604-11.174 1.755-14.733 4.36-3.56 10.642-2.735 14.033 1.843 3.39 4.577 2.604 11.173-1.756 14.733" mask="url(#p)"/>
            </g>
            <g transform="translate(458 300)">
                <mask id="r" fill="#fff">
                    <use xlink:href="#q"/>
                </mask>
                <path fill="#FFDEEB" d="M38.141 35c-2.343-.021-6.684 2.783-6.085 7.784.599 5.003 5.53 5.923 8.749 4.773 3.22-1.151-1.532-6.132-1.154-7.618.31-1.222 2.301-.406 4.814.609.418.17.627-.228.496-.639-.88-2.764-4.477-4.888-6.82-4.909" mask="url(#r)"/>
            </g>
            <g transform="translate(458 300)">
                <mask id="t" fill="#fff">
                    <use xlink:href="#s"/>
                </mask>
                <path fill="#FFC7D6" d="M41.378 40.492c1.295-1.98 3.264 2.61 2.417 3.347-.848.737-3.84-1.177-2.417-3.347" mask="url(#t)"/>
            </g>
            <g transform="translate(458 300)">
                <mask id="v" fill="#fff">
                    <use xlink:href="#u"/>
                </mask>
                <path fill="#F9C2D9" d="M37.67 47.264c2.616-.483 6.118-1.861 7.198-4.882.167-.467.827-.515 1.09-.093.839 1.35 1.809 3.732.088 5.864-2.015 2.494-5.569 2.21-8.59.638-.701-.365-.566-1.383.214-1.527" mask="url(#v)"/>
            </g>
            <g transform="translate(458 300)">
                <mask id="x" fill="#fff">
                    <use xlink:href="#w"/>
                </mask>
                <path fill="#F9C2D9" d="M38.957 48.43c-.504-.863-5.733-2.005-7.256-5.455-1.705-3.86-.216-7.045 1.576-7.882.798-.374 1.622-.26 2.32 0 .547-.124 1.166-.339 1.812-.499a4.198 4.198 0 0 0-.606-.561c-1.908-1.488-4.265-1.074-5.853-.57-1.993.635-5.407 3.131-5.896 8.308-.289 3.072.478 7.88 4.749 10.288 5.702 3.214 9.657-2.765 9.154-3.629" mask="url(#x)"/>
            </g>
            <g transform="translate(458 300)">
                <mask id="z" fill="#fff">
                    <use xlink:href="#y"/>
                </mask>
                <path fill="#FFCFDF" d="M45.994 48s.313 5.463-3.744 7.579c-4.244 2.213-7.255 1.37-8.745.605a.908.908 0 0 1-.185-1.505c1.132-.972 3.169-2.511 4.96-2.754 2.654-.357 5.575-.767 7.714-3.925" mask="url(#z)"/>
            </g>
        </g>
        <g>
            <path fill="#FFADD2" d="M481.56 341.578c-5.014 3.898-12.24 2.995-16.137-2.02-3.9-5.012-2.995-12.237 2.018-16.136 5.013-3.898 12.238-2.995 16.136 2.018 3.9 5.014 2.995 12.239-2.018 16.138"/>
            <path fill="#FFDEEB" d="M477.614 321c-2.523-.024-7.199 3.211-6.554 8.982.647 5.772 5.954 6.834 9.423 5.507 3.466-1.328-1.65-7.075-1.243-8.79.334-1.41 2.478-.468 5.184.703.45.195.675-.264.534-.737-.947-3.189-4.822-5.64-7.344-5.665"/>
            <path fill="#FFCFDF" d="M477.737 334.922c2.877-.544 6.73-2.094 7.918-5.492.184-.525.91-.58 1.198-.106.923 1.52 1.99 4.199.097 6.598-2.216 2.805-6.126 2.488-9.448.718-.772-.411-.622-1.556.235-1.718"/>
            <path fill="#FFCFDF" d="M478.95 335.973c-.576-.95-6.551-2.205-8.293-6.001-1.947-4.245-.245-7.749 1.802-8.67.915-.412 1.862-.284 2.66.005.544-.375 1.095-.713 1.665-.934a6.08 6.08 0 0 0-.295-.237c-2.18-1.636-4.874-1.181-6.688-.626-2.279.697-6.18 3.444-6.739 9.138-.33 3.38.546 8.67 5.427 11.316 6.517 3.537 11.038-3.04 10.462-3.99"/>
            <path fill="#FFDEEB" d="M485.994 335s.337 6.07-4.033 8.42c-4.57 2.46-7.812 1.524-9.418.673a1.026 1.026 0 0 1-.198-1.672c1.22-1.08 3.412-2.79 5.342-3.06 2.857-.397 6.002-.853 8.307-4.361"/>
            <path fill="#23478D" d="M406 369s38.56-8.934 40.338-9.374c1.777-.44 5.804-2.343 4.353-7.909-1.45-5.566-2.902-11.717-2.902-11.717l-40.628 11.717L406 369z"/>
            <path fill="#FFAEAE" d="M406.225 491.088s3.287 5.619 2.435 8.5c-1.203 4.072-5.167 10.437-10.706 16.6-10.27 11.425-15.5 13.738-15.911 16.329-.412 2.591 2.185 4.311 6.078 3.072 4.48-1.424 13.016-4.192 21.632-9.377 8.071-4.856 24.276-15.102 26.657-17.498 2.38-2.393 4.02-5.737.777-9.587-2.274-2.699-8.116-10.557-11.813-16.127l-19.149 8.088z"/>
            <path fill="#42426C" d="M437.188 499.388c-1.044-1.264-2.843-3.641-4.837-6.388-7.502 5.332-15.503 10.966-24.003 7.81-1.484 4.155-5.26 10.154-10.394 15.98-10.27 11.655-15.5 14.014-15.911 16.657-.411 2.643 2.185 4.398 6.078 3.134 4.48-1.453 13.016-4.276 21.632-9.565 8.071-4.954 24.278-15.405 26.657-17.849 2.38-2.441 4.02-5.852.778-9.779M404.46 310.137c-9.074 14.24-43.909 36.035-66.156 69.747-12.644 19.159 5.854 33.71 13.465 42.429 7.446 8.528 33.664 41.557 50.057 74.687 11.124-4.069 27.81-12.787 27.81-12.787s-24.95-60.004-32.64-69.165c-8.782-10.462-17.71-16.565-17.71-16.565s4.79-5.443 13.172-10.462c18.442-11.043 43.014-27.3 50.057-34.293 12.002-11.915 23.127-23.83 11.71-51.728l-49.764 8.137z"/>
        </g>
        <g transform="translate(428 187)">
            <mask id="C" fill="#fff">
                <use xlink:href="#A"/>
            </mask>
            <path fill="url(#B)" d="M1.094 1.216L0 9.212S2.188 42.49 17.281 44.867C32.375 47.244 42 16.99 42 16.99L41.344 1l-40.25.216z" mask="url(#C)"/>
        </g>
        <g>
            <path fill="#423748" d="M477.058 187.502c-2.493-7.222-7.331-10.689-14.59-11.989-5.673-1.017-7.668-4.486-13.636-3.25-8.725 1.805-9.652 6.37-14.59 8.017-2.383.794-5.485 1.45-8.505 4.984-3.519 4.117-2.64 8.667-2.64 8.667l11.438 37.92s.879-6.899-.77-15.168c-2.016-10.112-4.005-12.961-3.629-17.768.147-1.879 1.395-6.442 8.505-4.19 6.159 1.95 10.997 3.973 15.396 3.323 5.546-.82 7.112-4.478 8.651-3.612 2.597 1.462 3.52 4.479 2.2 9.246-1.32 4.767-4.84 8.775-6.159 14.734-.91 4.11-1.563 10.514 2.42 16.612 2.124 3.253 5.366 5.426 6.928 6.356 4.729 2.817 12.867 1.95 17.926-2.6 5.058-4.55 10.997-2.095 10.997-2.095s-6.049-14.59-9.898-23.257c-3.739-1.408-5.727-2.972-7.038-4.983-4.777-7.331-.938-14.957-3.006-20.947M384.862 132.09c-.76 7.63-5.267 13.395-10.066 12.878-4.798-.517-9.304-7.17-7.313-14.75 1.944-7.398 6.137-11.693 10.935-11.176 4.8.516 7.204 5.42 6.444 13.048"/>
            <path fill="#E09595" d="M378 182.818L379.466 200 408 179.542s-3.154-5.388-1.1-13.542L378 182.818z"/>
            <path fill="#638FFA" d="M374.013 207s-.438-5.405 3.729-10.161c4.409-4.347 18.069-14.442 29.81-20.606.89-.467 1.99-.216 2.558.605 1.543 2.23 4.794 7.174 6.89 10.272L374.013 207z"/>
            <path fill="#D8DDEA" d="M336 247.141s24.869-19.953 27.05-23.423c2.182-3.47 7.116-13.256 9.162-16.7 2.836-4.77 5.236-10.627 15.27-17.133 10.035-6.506 18.761-6.506 23.997-5.205 5.235 1.301 11.78 7.374 14.397 14.314 4.045 10.723 7.854 17.784 9.163 29.496 1.308 11.711 3.49 28.628 5.235 37.303C442.02 274.468 449 296.59 449 296.59L410.606 307s-14.466-12.505-19.197-16.917c-4.822-4.497-8.083-20.537-10.034-24.29a157.376 157.376 0 0 0-5.672-9.977s-7.854 9.543-13.09 12.146c-5.235 2.602-13.96 5.205-13.96 5.205L336 247.14z"/>
        </g>
        <g transform="translate(365 125)">
            <mask id="F" fill="#fff">
                <use xlink:href="#D"/>
            </mask>
            <path fill="url(#E)" d="M3.071 18.535c-5.19 16.77-4.344 36.755 6.739 40.788 11.083 4.034 27.714-10.632 33.399-26.181C48.893 17.593 40.195 6.45 29.112 2.417 26.55 1.485 24.045 1 21.645 1c-7.99 0-14.81 5.375-18.574 17.535" mask="url(#F)"/>
        </g>
        <g>
            <path fill="#423748" d="M373.6 133.22c.264.135.544.221.839.244 1.555.118 3.007 1.13 13.124.72 5.678-.231 11.13-.586 14.887 1.024 4.826 2.068 6.643 4.508 6.36 10.248-.144 2.928-2.479 5.654-3.758 7.32-2.023 2.635-3.357 4.822-3.626 7.844a2.379 2.379 0 0 0 2.246 2.582l.143.007c1.259.06 2.25 1.112 2.25 2.389 0 1.902 2.09 3.056 3.653 2.002 1.507-1.013 3.3-2.524 5.018-4.722 4.12-5.27 3.638-8.659 5.204-12.737 1.012-2.635 3.324-4.685 3.035-8.784-.357-5.057-1.734-8.49-6.07-10.98-3.775-2.166-6.65-4.465-7.517-6.88-.867-2.417-1.373-5.125-8.094-9.078-6.72-3.952-12.791-2.27-16.26-.513-3.47 1.757-8.129.115-12.142 4.612-3.397 3.807-3.214 8.862-2.385 11.2.728 2.055 2.28 3.086 3.093 3.502"/>
            <path fill="#FFAEAE" d="M409.151 165.063c-2.66 2.687-6.004 3.717-7.468 2.302-1.465-1.415-.496-4.741 2.166-7.428 2.66-2.687 6.004-3.717 7.468-2.302 1.465 1.415.496 4.74-2.166 7.428M330.91 249s-10.182 4.063-25.6 11.899c-15.418 7.835-29.09 15.96-32.872 16.25-7.68.59-11.054-.29-15.418.871-4.363 1.161-10.472 6.385-10.472 6.385s-4.073 3.047-3.491 7.4c.333 2.497 1.455 4.643 3.18 7.816.91 1.67 2.942 2.397 4.837 2.217l10.346.162c2.066-.196 3.573-1.893 3.745-3.956.087-1.032.741-3.887 2.182-4.933 3.2-2.322 6.109-1.597 6.109-1.597l7.127 1.452c2.238-.414 4.218-1.306 6.11-3.918 0 0 .726-1.306 2.18-1.451 4.095-.409 36.51-5.804 55.127-12.479L330.91 249z"/>
            <path fill="#638FFA" d="M330.419 247.36a2.818 2.818 0 0 0-1.263 3.362c1.12 3.23 3.233 9.472 5.657 14.622 2.179 4.628 4.798 9.035 6.326 11.495a4.61 4.61 0 0 0 4.006 2.16c1.565-.026 3.419-1.093 5.544-1.795 1.691-.56 3.546-.354 4.915-.948a3.967 3.967 0 0 0 2.048-5.264l-13.199-29.473c-.739-1.65-2.912-2.036-4.2-.76-1.523 1.51-3.482 3.237-5.222 4.1a79.905 79.905 0 0 0-4.612 2.5"/>
            <path fill="#C5CBD8" d="M401.447 299.333l-9.447-8.47s9.882 4.401 20.359 5.975c3.88.582 3.555-.763 3.076-1.093-5.268-3.626-8.166-6.084-9.704-8.27-.703-.999.329-1.93 2.234-1.056 1.903.874 9.667 4.444 20.307 5.596 6.412.694 11.078-1.184 12.428-1.735 1.349-.55 2.017-1.991 2.27-3.352.853-4.588.799-7.677.659-10.928.22 1.093 6.371 21.475 6.371 21.475L409.136 306l-7.689-6.667zM377 256.883s21.649-19.663 32.315-29.692c.689-.647 1.103.44.024 1.93C399.624 242.537 382.735 267 382.735 267L377 256.883zM433.898 243.177c-.864 6.884-1.087 9.097-2.234 15.85-1.077 6.343-.715 10.988.17 9.782 1.898-2.583 2.507-9.012 4.9-9.617 1.256-.317 2.507 4.891 3.266 6.998-.179-1.424-1.465-8.457-2.468-15.46-1.312-9.164-2.419-18.776-2.751-20.73 0 0-.018 6.292-.883 13.177"/>
            <path fill="#5581EE" d="M448.543 404.739c-5.13-4.293-6.258-9.186-6.44-12.878-.1-2.04.328-4.513.483-5.673.048-.367-.324-.195-.7.5-1.31 2.421-1.848 3.64-2.62 7.154-.345 1.566-.219 4.183.181 5.95.22.972-.381 1.876-1.346 1.654a.53.53 0 0 0-.036-.01c-11.43-2.634-14.066-5.815-16.648-8.677-.147-.163-.416-.055-.417.165-.01 2.958.256 5.652.693 7.852.352 1.78 2.371 3.246 4.366 2.972 18.446-2.531 25.905 9.026 27.505 9.246 1.522.209-1.132-4.923-5.02-8.255"/>
            <path fill="#2B2B51" d="M408.905 320l-.745.796a.589.589 0 0 0 .18.937l18.641 8.91a3.662 3.662 0 0 0 4.053-.605l1.966-2.16L408.905 320z"/>
            <path fill="#638FFA" d="M470 265.6s4.906-7.947 14.53-3.482c8.68 4.026 6.862 13.882 6.862 13.882s1.868-3.79 3.254-4.558c8.12-4.506 4.677-8.746 6.838-11.194 2.364-2.681 3.87-2.51 4.469-8.23.538-5.143-3.68-7.33-4.915-10.509-1.348-3.476-5.307-6.155-11.418-5.372-4.139.53-7.2 3.814-9.248 6.743-3.484 4.979-2.742 8.525-3.66 11.132-.73 2.07-6.712 11.587-6.712 11.587"/>
            <path fill="#FFAEAE" d="M486.587 261.247c-7.009-4.146-11.499-1.527-12.281-.249-1.11 1.817-2.29 3.714-3.38 5.595-3.838 6.622-11.108 14.402-14.893 18.985-.43.52-1.155 1.153-1.68 1.6l.013.022c-3.874 2.151-10.754 4.089-17.607 7.106-15.46 6.806-31.759 10.256-31.759 10.256l4.089 8.438c18.252-1.455 42.125-6.037 51.324-9.529.828-.314 1.571-.61 2.283-.927 3.563-1.584 6.157-3.613 14.254-11.184 7.118-6.655 11.98-12.441 15.276-16.638 2.077-2.642-.1-10.198-5.64-13.475"/>
            <path fill="#FFDEEB" d="M470.05 267.817s-.273-1.096.46-2.484c.976-1.85 2.804-6.04 8.387-7.08 5.205-.97 8.968 1 11.33 3.252 3.23 3.079 3.856 7.47 3.765 9.256-.116 2.265-1.278 4.608-2.754 6.294-1.022 1.167-1.748.924-1.748.924s1.14-1.403 1.774-2.671c1.094-2.186 1.022-9.685-5.97-12.83-6.456-2.903-11.4-.757-13.24 2.133-1.023 1.608-2.004 3.206-2.004 3.206"/>
            <path fill="#E09595" d="M396.652 316c-4.478.01-2.213-4.508-.921-10.46 1.301-5.996 2.748-7.677 4.844-7.531 2.837.198 4.917.293 8.316 3.655 1.923 1.904 4.606 4.25 5.494 6.068 1.108 2.266 1.23 5.63-4.095 6.663-3.364.654-8.822 1.594-13.638 1.605M443 245c1.17.41 7 4 7 4s-5.736-.923-7-4M457 249s8.068-6.593 8.87-6.982c.8-.388-2.08 5.504-8.87 6.982"/>
        </g>
    </g>
</svg>
