<?xml version="1.0" encoding="UTF-8"?>
<svg width="683px" height="683px" viewBox="0 0 683 683" version="1.1" xmlns="http://www.w3.org/2000/svg" xmlns:xlink="http://www.w3.org/1999/xlink">
    <!-- Generator: sketchtool 51.3 (57544) - http://www.bohemiancoding.com/sketch -->
    <title>13AE373F-1EF0-49F9-AB93-594FDFF1696C</title>
    <desc>Created with sketchtool.</desc>
    <defs>
        <polygon id="path-1" points="0 1 192 1 192 193 0 193"></polygon>
        <path d="M3.97493368,4.71372116 C3.97493368,4.71372116 8.95814841,13.4518886 7.84243671,18.4763349 C7.0185952,22.1874346 1,24.5930521 1,24.5930521 C1,24.5930521 2.63607964,52.9920962 11.4127142,51.9732259 C28.9668758,49.9337376 37,19.6420064 37,19.6420064 C32.8343788,17.3106633 26.2891677,1 26.2891677,1 L3.97493368,4.71372116 Z" id="path-3"></path>
        <path d="M34.6310822,28.5449498 C49.1812528,43.2499239 56.6152323,53.3461862 58.7847495,58.8198966 C61.9862061,66.8929274 56.4572111,80.732903 50.054298,92.8428817 C47.8070797,97.0934842 44.234579,103.222863 48.8905288,104.664816 C52.4036625,105.752119 61.0188721,104.454621 68.0975222,96.8798296 C75.3726075,89.0948433 85.5584254,72.0829182 84.9761042,64.2979319 C84.3946562,56.5129456 80.0294304,58.2429426 76.2456527,53.9179502 C72.462748,49.5929578 67.6356813,41.0865627 65.1876627,34.8879836 C62.5694003,28.2560403 55.0018449,10.3799817 55.0018449,10.3799817 L6.09040596e-13,2.89213098e-14 C6.09040596e-13,2.89213098e-14 20.0800386,13.8399757 34.6310822,28.5449498" id="path-5"></path>
        <path d="M1,9.95852613 C1,9.95852613 14.4721096,17.5226762 18.6805135,24.5352105 C26.2156434,37.091613 20.8542759,51.0915688 19.984771,54.8437683 C19.115266,58.5959677 17.9553464,62.9257617 20.8542759,64.369315 C23.7523359,65.8128683 33.1716829,65.2352738 38.3887126,57.7300089 C43.6057423,50.22561 41.7223946,39.8341045 41.4319799,36.3702693 C41.1424348,32.9064342 42.3014849,19.627822 41.7223946,16.4532171 C41.1424348,13.2777462 40.1294615,10.1776137 37.0844552,9.23631649 C34.8289594,8.54008562 33.0334317,8.75744128 31.4048489,8.97479694 C29.9997289,9.16184404 28.7180786,9.3497571 27.375563,8.94795222 C24.4766335,8.08199342 17.5205939,1.48103751e-13 17.5205939,1.48103751e-13 L1,9.95852613 Z" id="path-7"></path>
        <path d="M5.75853696,2.90895449 C-2.07087557,8.56100877 -0.0256980641,25.0489541 10.3254044,39.7353181 C20.6765069,54.420802 35.4136108,61.7433015 43.2421538,56.0903671 C51.0706968,50.4391929 49.0255193,33.9512476 38.6744168,19.2657637 C30.695442,7.94493309 20.110431,0.999119892 12.093196,1 C9.70976425,1 7.55241502,1.61431546 5.75853696,2.90895449" id="path-9"></path>
        <path d="M5.75853696,2.90895449 C-2.07087557,8.56100877 -0.0256980641,25.0489541 10.3254044,39.7353181 C20.6765069,54.420802 35.4136108,61.7433015 43.2421538,56.0903671 C51.0706968,50.4391929 49.0255193,33.9512476 38.6744168,19.2657637 C30.695442,7.94493309 20.110431,0.999119892 12.093196,1 C9.70976425,1 7.55241502,1.61431546 5.75853696,2.90895449" id="path-11"></path>
        <path d="M5.75853696,2.90895449 C-2.07087557,8.56100877 -0.0256980641,25.0489541 10.3254044,39.7353181 C20.6765069,54.420802 35.4136108,61.7433015 43.2421538,56.0903671 C51.0706968,50.4391929 49.0255193,33.9512476 38.6744168,19.2657637 C30.695442,7.94493309 20.110431,0.999119892 12.093196,1 C9.70976425,1 7.55241502,1.61431546 5.75853696,2.90895449" id="path-13"></path>
        <path d="M5.75853696,2.90895449 C-2.07087557,8.56100877 -0.0256980641,25.0489541 10.3254044,39.7353181 C20.6765069,54.420802 35.4136108,61.7433015 43.2421538,56.0903671 C51.0706968,50.4391929 49.0255193,33.9512476 38.6744168,19.2657637 C30.695442,7.94493309 20.110431,0.999119892 12.093196,1 C9.70976425,1 7.55241502,1.61431546 5.75853696,2.90895449" id="path-15"></path>
        <path d="M5.75853696,2.90895449 C-2.07087557,8.56100877 -0.0256980641,25.0489541 10.3254044,39.7353181 C20.6765069,54.420802 35.4136108,61.7433015 43.2421538,56.0903671 C51.0706968,50.4391929 49.0255193,33.9512476 38.6744168,19.2657637 C30.695442,7.94493309 20.110431,0.999119892 12.093196,1 C9.70976425,1 7.55241502,1.61431546 5.75853696,2.90895449" id="path-17"></path>
        <path d="M5.75853696,2.90895449 C-2.07087557,8.56100877 -0.0256980641,25.0489541 10.3254044,39.7353181 C20.6765069,54.420802 35.4136108,61.7433015 43.2421538,56.0903671 C51.0706968,50.4391929 49.0255193,33.9512476 38.6744168,19.2657637 C30.695442,7.94493309 20.110431,0.999119892 12.093196,1 C9.70976425,1 7.55241502,1.61431546 5.75853696,2.90895449" id="path-19"></path>
        <path d="M5.75853696,2.90895449 C-2.07087557,8.56100877 -0.0256980641,25.0489541 10.3254044,39.7353181 C20.6765069,54.420802 35.4136108,61.7433015 43.2421538,56.0903671 C51.0706968,50.4391929 49.0255193,33.9512476 38.6744168,19.2657637 C30.695442,7.94493309 20.110431,0.999119892 12.093196,1 C9.70976425,1 7.55241502,1.61431546 5.75853696,2.90895449" id="path-21"></path>
        <path d="M5.75853696,2.90895449 C-2.07087557,8.56100877 -0.0256980641,25.0489541 10.3254044,39.7353181 C20.6765069,54.420802 35.4136108,61.7433015 43.2421538,56.0903671 C51.0706968,50.4391929 49.0255193,33.9512476 38.6744168,19.2657637 C30.695442,7.94493309 20.110431,0.999119892 12.093196,1 C9.70976425,1 7.55241502,1.61431546 5.75853696,2.90895449" id="path-23"></path>
        <path d="M5.75853696,2.90895449 C-2.07087557,8.56100877 -0.0256980641,25.0489541 10.3254044,39.7353181 C20.6765069,54.420802 35.4136108,61.7433015 43.2421538,56.0903671 C51.0706968,50.4391929 49.0255193,33.9512476 38.6744168,19.2657637 C30.695442,7.94493309 20.110431,0.999119892 12.093196,1 C9.70976425,1 7.55241502,1.61431546 5.75853696,2.90895449" id="path-25"></path>
        <path d="M1.09375,1.21609319 L9.43162215e-13,9.21154139 C9.43162215e-13,9.21154139 2.1875,42.4898933 17.28125,44.8669185 C32.375,47.2439436 42,16.9908964 42,16.9908964 L41.34375,1 L1.09375,1.21609319 Z" id="path-27"></path>
        <radialGradient cx="-140.103861%" cy="-9.00413096%" fx="-140.103861%" fy="-9.00413096%" r="212.519784%" gradientTransform="translate(-1.401039,-0.090041),scale(1.000000,0.954545),rotate(16.117404),translate(1.401039,0.090041)" id="radialGradient-29">
            <stop stop-color="#FFE8E8" offset="0%"></stop>
            <stop stop-color="#FDACAC" offset="100%"></stop>
        </radialGradient>
        <path d="M3.07114217,18.5349803 C-2.11822647,35.3057262 -1.27328414,55.2900645 9.80986093,59.3232831 C20.893006,63.3565017 37.5237961,48.6906458 43.2085056,33.1419823 C48.8932152,17.5933189 40.1948201,6.45003804 29.1116751,2.41681948 C26.5508232,1.48467863 24.0454911,1 21.6451261,1 C13.6554763,1 6.83434531,6.37473976 3.07114217,18.5349803" id="path-30"></path>
        <radialGradient cx="-97.2399292%" cy="31.0066014%" fx="-97.2399292%" fy="31.0066014%" r="168.122326%" gradientTransform="translate(-0.972399,0.310066),scale(1.000000,0.762712),rotate(15.595321),translate(0.972399,-0.310066)" id="radialGradient-32">
            <stop stop-color="#FFE8E8" offset="0%"></stop>
            <stop stop-color="#FDACAC" offset="100%"></stop>
        </radialGradient>
    </defs>
    <g id="Symbols" stroke="none" stroke-width="1" fill="none" fill-rule="evenodd">
        <g id="Иллюстрация-/-Цифровой-Platinum">
            <g>
                <rect id="Rectangle-8-Copy-6" fill-rule="nonzero" x="0" y="0" width="683" height="683"></rect>
                <g id="Group-334" transform="translate(91.000000, 111.000000)">
                    <g id="Group-140" transform="translate(0.000000, 69.000000)">
                        <path d="M133,42.5 C133,61.0013707 117.777314,76 98.9995603,76 C80.2226863,76 65,61.0013707 65,42.5 C65,23.9986293 80.2226863,9 98.9995603,9 C117.777314,9 133,23.9986293 133,42.5" id="Fill-1" fill="#E9EEFB"></path>
                        <path d="M134.551559,42.0541053 C111.657208,42.0541053 99.458432,31.2640623 99.458432,7.41325672 L99.458432,2 L98.555633,2 L98.555633,7.41325672 C98.555633,31.2640623 86.1643421,42.0541053 63.4625058,42.0541053 L58,42.0541053 L58,42.9458947 L63.4809661,42.9458947 C86.1608259,42.9545781 98.5591492,54.9082021 98.5591492,77.5858749 L98.5591492,83 L99.4619483,83 L99.4619483,77.5858749 C99.4619483,54.9082021 111.654571,42.9615249 134.519034,42.9458947 L140,42.9458947 L140,42.0541053 L134.551559,42.0541053 Z" id="Fill-3" fill="#FFFFFF"></path>
                        <path d="M109.476096,27.7231258 L117.552585,41.9710601 C118.481438,43.6104906 117.917678,45.6988757 116.290878,46.6363207 L92.1511595,60.5486374 C90.5243599,61.4860824 88.4531748,60.9158839 87.5243219,59.2773319 L79.4478328,45.028519 C78.5181086,43.3890884 79.0827396,41.3007034 80.7086679,40.3632584 L104.849258,26.4509417 C106.475186,25.5143753 108.546371,26.0836952 109.476096,27.7231258" id="Fill-5" fill="#FF7E59"></path>
                        <path d="M163.238498,120.824851 C163.238498,120.824851 159.628148,123.463282 161.577581,125.358706 C163.559071,127.285349 168.041035,124.351678 170.603023,123.351786 C174.032293,122.01384 181,119.783929 181,119.783929 L167.859088,118 L163.238498,120.824851 Z" id="Fill-7" fill="#E09595"></path>
                        <polygon id="Fill-9" fill="#E09595" points="187 123 180.403094 125.973481 179 133.796286 181.104641 137"></polygon>
                        <path d="M204.645163,140 C204.300061,140 203.949731,139.958798 203.5994,139.872012 L178.669282,133.696166 L178.59695,134.001233 C178.040082,136.356733 175.689729,137.808429 173.348963,137.250017 C171.008197,136.689852 169.56243,134.325585 170.119299,131.970962 L171.208635,127.368664 C171.477919,126.231677 172.186423,125.25073 173.178155,124.641473 C174.169887,124.033093 175.362057,123.847248 176.489738,124.127769 L205.683954,131.359952 C208.020363,131.938527 209.44783,134.313313 208.87266,136.66443 C208.383766,138.662265 206.603354,140 204.645163,140" id="Fill-11" fill="#E86A46"></path>
                        <path d="M210,128.553622 L204.779552,130.950932 C203.989233,131.312692 203.099039,131.398372 202.254006,131.191528 L192.485316,128.806335 C189.554188,128.120895 187.08683,129.42427 185.815371,130.634175 L185.394157,131.034016 C184.038456,132.324408 183.539079,133.815587 184.234733,135.549092 C184.234733,135.549092 184.162649,137.365682 182.442186,137.929958 C181.565019,138.218155 180.653112,137.582045 180.634874,136.662067 C180.622715,136.064903 180.513286,135.498896 180.399515,135.044532 C180.109442,133.890881 179.385996,132.520001 179.385996,132.520001 C178.724213,131.201914 178.904857,129.885557 179.993934,128.885957 L186.405939,123 L210,128.553622 Z" id="Fill-13" fill="#E09595"></path>
                        <path d="M209.711266,129 C209.711266,129 255.006395,117.028992 268,108.488909 L251.232092,89 C251.232092,89 232.939828,100.971008 216.389685,111.48188 C208.167748,116.703155 192,124.912147 192,124.912147 L209.711266,129 Z" id="Fill-15" fill="#E09595"></path>
                        <path d="M182.926158,137.294424 L194.093119,138.952964 C194.989293,139.103741 196.489372,138.921656 197.134653,137.970858 L198.735089,135.594688 C199.349558,134.69003 198.84513,133.487938 197.736797,133.217694 L189.378963,131.108473 C188.213408,130.823398 186.973906,131.108473 186.083014,131.866474 L183.861947,133.757358 C183.362801,134.182498 182.670863,134.348105 182.015018,134.200625 L181,133.973224 L181.055461,135.491699 C181.110041,136.470509 181.715707,137.037363 182.926158,137.294424" id="Fill-17" fill="#E09595"></path>
                        <path d="M291,78.5958654 C291,78.5958654 284.229044,89.485 280.987491,95.11 C277.703582,100.807692 271.118476,106 271.118476,106 L257,88.6923077 L280.627031,61 L291,78.5958654 Z" id="Fill-19" fill="#C5CBD8"></path>
                        <path d="M252,91.3376803 C252,91.3376803 255.624883,95.7371337 259.974394,100.281129 C262.643254,103.069844 265.352129,106.153703 267.459033,108.080357 C268.706472,109.221982 270.588941,109.311996 271.935549,108.287217 C273.161242,107.355049 274.15467,105.91655 275.632634,104.608744 C276.513845,103.830639 278.167529,102.44234 279.112243,101.579414 C280.253555,100.53819 280.299659,98.7673297 279.220111,97.6629223 L268.673416,86 L252,91.3376803 Z" id="Fill-21" fill="#5581EE"></path>
                        <path d="M242.367017,274 L242.513899,282.909509 C242.513899,285.506475 240.05649,287.147632 237.492657,286.654847 C233.938472,285.972126 226.852971,284.532285 221.6611,283.153714 C212.972213,280.845591 208.212192,278.084072 206.746014,279.834639 C205.418802,281.420652 205.939484,284.466639 207.698546,287.092489 C209.457608,289.718339 215.241403,294.703953 234.854064,303.613462 C243.686314,307.624886 251.470163,311.312455 255.303159,312.694527 C258.722775,313.927802 262.629651,311.261689 262.999054,307.661648 C263.655185,301.280832 264.502173,287.712189 263.622642,278.230245 L242.367017,274 Z" id="Fill-23" fill="#E09595"></path>
                        <path d="M241.782797,286.02096 C240.846277,287.17539 239.235147,287.755253 237.575514,287.434872 C234.011979,286.745568 226.907835,285.294587 221.702304,283.904505 C212.990557,281.57711 208.218012,278.792533 206.747976,280.557717 C205.417272,282.15609 205.939325,285.228392 207.703015,287.876168 C209.466705,290.523943 215.265717,295.551186 234.929979,304.535087 C243.785467,308.580005 251.589795,312.297482 255.432876,313.691977 C258.861489,314.935549 262.778645,312.247174 263.14902,308.617074 C263.457665,305.600376 263.805994,300.984421 264,295.953647 C255.575735,294.810691 247.373694,292.412689 241.782797,286.02096" id="Fill-25" fill="#2B2B51"></path>
                        <path d="M313.551498,132 C298.616996,136.637975 273.194961,140.807196 249.420991,148.52382 C222.626738,157.220567 211.206237,163.888364 209.449237,172.585111 C207.692237,181.281859 211.206237,188.81846 217.940819,201.863581 C224.512878,214.59214 231.652448,231.591673 236.09678,247.666741 C241.807031,268.321516 241.734115,281.584055 241.734115,281.584055 C241.734115,281.584055 255.863032,284.338315 272.115284,282.164128 C272.115284,282.164128 268.455453,227.084148 262.745202,213.459824 C256.729233,199.106712 250.299491,189.398533 250.299491,189.398533 L332,177.223087 C332,177.223087 317.943998,136.637975 313.551498,132" id="Fill-27" fill="#2B2B51"></path>
                        <path d="M135,189 C135,189 142.841584,160.670025 143.277228,159.347225 C143.712871,158.024424 144.884752,156.527014 147.089109,157.142558 C150.247525,158.024424 157,159.788158 157,159.788158" id="Stroke-29" stroke="#E9EEFB" stroke-width="2" stroke-linecap="round"></path>
                        <path d="M131,189 L148,189" id="Stroke-31" stroke="#E9EEFB" stroke-width="3" stroke-linecap="round"></path>
                        <path d="M135,172 L139,172" id="Stroke-33" stroke="#E9EEFB" stroke-width="3"></path>
                        <path d="M239.897375,312.538238 L226.894296,306.560728 C224.389992,305.409453 223.303432,302.467592 224.466486,299.988651 L224.930664,299 L247,309.146365 L246.535822,310.135016 C245.372768,312.613957 242.400809,313.689513 239.897375,312.538238" id="Fill-35" fill="#23478D"></path>
                        <polygon id="Fill-37" fill="#E9EEFB" points="490 360.222071 414 310 466.347476 384"></polygon>
                        <polygon id="Fill-39" fill="#E9EEFB" points="327 299.556601 414 311 386.567371 226 342.560247 255.466294"></polygon>
                        <path d="M414,319 C409.58209,319 406,315.41791 406,311 C406,306.581224 409.58209,303 414,303 C418.41791,303 422,306.581224 422,311 C422,315.41791 418.41791,319 414,319 M414.5,298 C407.043834,298 401,304.044514 401,311.500438 C401,318.956362 407.043834,325 414.5,325 C421.956166,325 428,318.956362 428,311.500438 C428,304.044514 421.956166,298 414.5,298" id="Fill-41" fill="#D8DDEA"></path>
                        <path d="M281.831384,327 C281.581607,327 281.327494,326.955698 281.079451,326.864487 L233.416273,309.20877 C232.293143,308.792677 231.71987,307.54353 232.135298,306.418602 C232.549859,305.293674 233.797009,304.720352 234.921006,305.134708 L282.583317,322.790425 C283.706446,323.206518 284.279719,324.455666 283.865159,325.580593 C283.541663,326.457081 282.712542,327 281.831384,327" id="Fill-43" fill="#C5CBD8"></path>
                        <path d="M22.0355317,260 L96,311.305713 L16.5620665,351 C16.5620665,351 3.23658697,329.990756 6.52066611,303.648651 C9.80474525,277.306545 22.0355317,260 22.0355317,260" id="Fill-45" fill="#E9EEFB"></path>
                        <path d="M166.891068,367 L96,311.030464 C96,311.030464 172.808006,306.651745 185.550764,306 C189.4317,342.548761 166.891068,367 166.891068,367" id="Fill-47" fill="#E9EEFB"></path>
                        <g id="Group-51" transform="translate(0.000000, 214.000000)">
                            <mask id="mask-2" fill="white">
                                <use xlink:href="#path-1"></use>
                            </mask>
                            <g id="Clip-50"></g>
                            <path d="M90.5513432,98.8974202 C89.22743,96.1650041 90.3694638,92.8759533 93.1027312,91.5511968 C95.8351527,90.2272861 99.1242099,91.3701636 100.448123,94.1025798 C101.772882,96.8349959 100.630849,100.124047 97.8975811,101.448803 C95.1643136,102.772714 91.8752564,101.629836 90.5513432,98.8974202 M19.4729292,133.335344 C-0.87122422,91.3466749 16.6763593,40.815871 58.6649711,20.4725608 C100.653583,0.129250514 151.183447,17.675987 171.5276,59.664656 C191.870883,101.653325 174.323299,152.184129 132.335559,172.527439 C90.3460759,192.870749 39.8162118,175.324013 19.4729292,133.335344 M182.374235,55.1516885 C159.261885,7.44782433 101.854888,-12.4860092 54.152128,10.6255807 C6.44849582,33.7371706 -13.4861133,91.1453198 9.6253642,138.848311 C32.7377142,186.552176 90.1447118,206.486009 137.848344,183.374419 C185.551104,160.262829 205.486585,102.85468 182.374235,55.1516885" id="Fill-49" fill="#2B2B3D" mask="url(#mask-2)"></path>
                        </g>
                        <path d="M22.3219494,347.46317 C2.34002792,306.468231 19.5754898,257.134184 60.8189631,237.271801 C102.061558,217.410291 151.695575,234.541892 171.677496,275.53683 C191.660297,316.531769 174.424835,365.865816 133.181361,385.728199 C91.937888,405.589709 42.3047497,388.458108 22.3219494,347.46317 M174.376992,274.229552 C153.671536,231.744007 102.244797,213.988489 59.5108411,234.572713 C16.7768849,255.156937 -1.08157115,306.285606 19.6230078,348.771151 C40.3275868,391.256696 91.7543253,409.011341 134.489159,388.427117 C177.223115,367.842893 195.081571,316.715097 174.376992,274.229552" id="Fill-52" fill="#C5CBD8"></path>
                        <path d="M37.6086341,339.877041 C35.3037135,335.016002 31.0754358,323.576292 33.9889591,322.133764 C36.9016191,320.692117 43.1188621,331.271247 45.4479542,336.181664 C47.7770463,341.091199 51.8611586,352.48065 49.0451843,353.874682 C46.2283468,355.267833 39.8911099,344.687821 37.6086341,339.877041" id="Fill-54" fill="#E86A46"></path>
                        <path d="M96.5544751,210.019525 L96.5544751,210.014309 C94.0760284,210.009093 86.2571088,209.722216 74,211.987677 L74.0095895,212.027666 C74.866541,215.596245 78.2786551,217.989496 81.9261475,217.502674 C82.5860786,217.415742 83.2477532,217.334025 83.9120432,217.260132 C88.3798727,216.762009 92.8093443,216.585536 97.1804071,216.700287 L97.1804071,216.69594 C148.852926,218.077298 190.316127,260.278675 190.316127,312.13999 C190.316127,316.0676 190.078133,319.939573 189.616094,323.743739 C189.513225,324.593939 189.916856,326.049189 190.897599,326.809848 C191.878342,327.570507 194.057771,328.00517 195.772546,327.999954 C196.580678,322.831817 197,317.534151 197,312.13999 C197,256.389315 152.208375,211.076624 96.5544751,210.019525" id="Fill-56" fill="#2474CD"></path>
                        <path d="M414.5,316 C411.462308,316 409,313.537692 409,310.5 C409,307.462308 411.462308,305 414.5,305 C417.537692,305 420,307.462308 420,310.5 C420,313.537692 417.537692,316 414.5,316 M414,395 C367.05634,395 329,357.167521 329,310.5 C329,263.832479 367.05634,226 414,226 C460.94366,226 499,263.832479 499,310.5 C499,357.167521 460.94366,395 414,395 M414.5,215 C361.204805,215 318,257.980945 318,311 C318,364.019055 361.204805,407 414.5,407 C467.795195,407 511,364.019055 511,311 C511,257.980945 467.795195,215 414.5,215" id="Fill-58" fill="#2B2B3D"></path>
                        <path d="M415,394 C369.160033,394 332,357.063823 332,311.5 C332,265.937051 369.160033,229 415,229 C460.839967,229 498,265.937051 498,311.5 C498,357.063823 460.839967,394 415,394 M415,226 C367.503429,226 329,264.279571 329,311.5 C329,358.720429 367.503429,397 415,397 C462.496571,397 501,358.720429 501,311.5 C501,264.279571 462.496571,226 415,226" id="Fill-60" fill="#C5CBD8"></path>
                        <path d="M414.445311,376 C409.085802,376 397,374.875 397,371.5 C397,368.125 409.19518,367 414.60894,367 C420.023576,367 432,368.2375 432,371.5 C432,374.7625 419.749694,376 414.445311,376" id="Fill-62" fill="#E86A46"></path>
                        <path d="M80,203 L97,311" id="Stroke-64" stroke="#E9EEFB" stroke-width="3" stroke-linecap="round"></path>
                        <path d="M193,305 L96,311" id="Stroke-66" stroke="#E9EEFB" stroke-width="2" stroke-linecap="round"></path>
                        <path d="M326.345827,278.024775 C339.493215,242.363943 374.017008,216.933521 414.505375,216.933521 C455.384103,216.933521 490.032777,242.908224 503.038692,279.05527 C504.151264,282.148487 507.921259,282.236889 510.306215,281.822611 C510.799624,281.736809 511.109643,281.244529 510.963803,280.77045 C498.330783,239.797674 459.92696,210 414.505375,210 C369.067198,210 330.651149,239.820207 318.032102,280.816384 C317.901108,281.242796 318.184927,281.696075 318.630306,281.756743 C321.607353,282.159754 325.443718,280.472308 326.345827,278.024775" id="Fill-68" fill="#2474CD"></path>
                        <path d="M282.4949,330 C282.164023,330 281.827035,329.952911 281.494413,329.853501 C279.646217,329.302387 278.595094,327.359534 279.146847,325.513476 L325.160539,171.492713 C325.712291,169.645782 327.660884,168.595002 329.505587,169.146989 C331.353783,169.698103 332.404906,171.640955 331.853153,173.487014 L285.839461,327.508649 C285.387234,329.021598 283.999123,330 282.4949,330" id="Fill-70" fill="#23478D"></path>
                        <path d="M414,311 L447,207" id="Stroke-72" stroke="#E9EEFB" stroke-width="3" stroke-linecap="round"></path>
                        <path d="M414,311 L500,267" id="Stroke-74" stroke="#E9EEFB" stroke-width="2" stroke-linecap="round"></path>
                        <path d="M280.494016,327 C279.585024,327 278.676032,326.650389 277.989687,325.952911 L148.001225,193.927342 C146.646065,192.551567 146.669732,190.343178 148.052942,188.996174 C149.437029,187.647427 151.656477,187.671839 153.010761,189.047613 L282.998346,321.072311 C284.353506,322.448086 284.330715,324.656475 282.947505,326.003479 C282.265542,326.668698 281.379341,327 280.494016,327" id="Fill-76" fill="#23478D"></path>
                        <path d="M414.501013,315 C413.586823,315 412.673509,314.644608 411.986774,313.936444 L314.984749,213.922051 C313.641022,212.536285 313.67689,210.325347 315.065232,208.983241 C316.4527,207.642009 318.66775,207.676937 320.013226,209.063576 L417.015251,309.077969 C418.358978,310.463735 418.32311,312.674673 416.934768,314.016779 C416.255906,314.673424 415.377584,315 414.501013,315" id="Fill-78" fill="#23478D"></path>
                        <path d="M299.50171,272 C299.309091,272 299.115597,271.983457 298.919476,271.951242 C298.683956,271.912062 275.340329,268.027988 269.053082,266.946611 C257.762128,265.004139 245.507206,258.763151 237.829602,251.046372 L155.999955,167.917952 C154.646372,166.543159 154.670011,164.338614 156.052488,162.993423 C157.434964,161.648233 159.651829,161.672612 161.004537,163.045664 L242.821051,246.160153 C250.973197,254.35319 262.692289,258.783177 270.246442,260.083092 C276.515303,261.161857 299.840543,265.042448 300.075188,265.081629 C301.982988,265.398554 303.270906,267.193882 302.951334,269.09108 C302.665033,270.793247 301.181869,272 299.50171,272" id="Fill-80" fill="#23478D"></path>
                        <path d="M282.500442,345 C271.731132,345 263,336.493411 263,326 C263,315.506589 271.731132,307 282.500442,307 C293.269751,307 302,315.506589 302,326 C302,336.493411 293.269751,345 282.500442,345 M282.5,303 C269.520847,303 259,313.297863 259,326 C259,338.702137 269.520847,349 282.5,349 C295.478271,349 306,338.702137 306,326 C306,313.297863 295.478271,303 282.5,303" id="Fill-82" fill="#D8DDEA"></path>
                        <path d="M294.500439,334 C290.909937,334 288,331.089866 288,327.5 C288,323.909257 290.909937,321 294.500439,321 C298.090063,321 301,323.909257 301,327.5 C301,331.089866 298.090063,334 294.500439,334 M285.499561,344 C281.909937,344 279,341.090063 279,337.499561 C279,333.909937 281.909937,331 285.499561,331 C289.090063,331 292,333.909937 292,337.499561 C292,341.090063 289.090063,344 285.499561,344 M271.499561,339 C267.910814,339 265,336.090743 265,332.5 C265,328.910134 267.910814,326 271.499561,326 C275.090063,326 278,328.910134 278,332.5 C278,336.090743 275.090063,339 271.499561,339 M273.500439,312 C277.089186,312 280,314.910618 280,318.499123 C280,322.089382 277.089186,325 273.500439,325 C269.909937,325 267,322.089382 267,318.499123 C267,314.910618 269.909937,312 273.500439,312 M287.499561,309 C291.090063,309 294,311.909937 294,315.499561 C294,319.090063 291.090063,322 287.499561,322 C283.909937,322 281,319.090063 281,315.499561 C281,311.909937 283.909937,309 287.499561,309 M282.500442,307 C271.731132,307 263,315.505729 263,326 C263,336.493411 271.731132,345 282.500442,345 C293.269751,345 302,336.493411 302,326 C302,315.505729 293.269751,307 282.500442,307" id="Fill-84" fill="#D8DDEA"></path>
                        <path d="M287,348 L416,323" id="Stroke-86" stroke="#D8DDEA" stroke-width="3" stroke-linecap="round"></path>
                        <path d="M27.1160688,135.133328 C30.1319837,135.163744 34.0032489,130.809045 35.9384464,130.443184 C38.8447233,129.893089 42.6681306,129.444671 45.8702561,130.761248 C48.3971507,131.801475 54,137 54,137 C54,137 48.5807508,129.215247 46.0373235,128.590416 C42.3479181,127.68402 36.9077855,127.845659 34.503581,128.907611 C33.3288883,129.426421 31.4963676,131.280058 29.8239532,132.698311 C28.7267031,133.62904 26.4634618,135.126376 27.1160688,135.133328" id="Fill-88" fill="#4FA372"></path>
                        <path d="M27.1571425,117.045045 C26.3604046,117.234304 28.6890603,118.19281 31.9771432,118.692558 C35.5633434,119.237659 37.0996581,118.873096 40.2382428,120.204014 C43.3759481,121.534061 51.8489834,132 51.8489834,132 L54,129.381771 C54,129.381771 46.3659138,120.604336 44.1348717,119.469654 C40.4897517,117.616311 36.5306852,117.356407 33.3833066,117.399143 C31.4178438,117.425307 28.038303,116.835726 27.1571425,117.045045" id="Fill-90" fill="#4F9E7C"></path>
                        <path d="M55.83881,138 C55.83881,138 46.4686483,128.673275 42.8044377,128.073543 C39.1402271,127.47381 33.5972277,126.987427 31.2789098,128.172511 C30.060736,128.795082 24.5415187,133.591249 24.0350473,132.895086 C23.6730303,132.397705 26.2115532,130.794754 27.2280193,129.47179 C30.1303207,125.694069 31.1943511,125.792192 35.4399028,125.199226 C38.5042751,124.771209 43.3135516,125.064731 45.6917652,125.775274 C48.7948936,126.70321 56,133.172536 56,133.172536 L55.83881,138 Z" id="Fill-92" fill="#4FA372"></path>
                        <path d="M126.935833,150 L118,146.450562 L129.671274,119.312004 C130.290199,118.215297 131.282879,117.730265 132.338137,118.149822 L135.721649,119.493784 C136.776907,119.913341 137.240672,121.03934 136.878061,122.173954 L126.935833,150 Z" id="Fill-94" fill="#42426C"></path>
                        <path d="M136.563125,126 L137.875416,122.290425 C138.24537,121.123268 137.773329,119.965853 136.69924,119.534589 L133.255348,118.154015 C132.181259,117.722751 131.169992,118.221316 130.540895,119.347738 L129,122.966986 L136.563125,126 Z" id="Fill-96" fill="#2B2B51"></path>
                        <path d="M82.445195,127.052202 C88.8156383,141.600251 96.6070664,158.027893 88.5818605,161.558031 C80.1545221,165.263889 72.6736346,144.861126 66.0886043,130.410117 C61.3790297,120.074978 60.5311492,110.114884 64.6309827,108.311349 C68.7308161,106.508689 76.0747517,112.505027 82.445195,127.052202" id="Fill-98" fill="#E5A977"></path>
                        <path d="M71.2220307,128.997488 C79.4321182,142.5749 89.3801714,157.785678 80.5462439,163.03597 C71.271235,168.548472 61.4005028,149.208545 52.9540591,135.77487 C46.9124751,126.16632 44.962755,116.434942 49.4754914,113.752737 C53.9882278,111.070532 63.0119433,115.420077 71.2220307,128.997488" id="Fill-100" fill="#EFB881"></path>
                        <path d="M60.1461836,132.275311 C61.1637289,134.181468 65.5670657,131.978879 69.1697959,129.69094 C69.8722637,129.244915 70.4791752,128.789714 71,128.336347 C70.1184718,126.773427 69.2266131,125.332566 68.3321719,124 C68.03259,124.172536 67.7218169,124.358838 67.3878003,124.56992 C63.7850702,126.858777 59.111421,130.337033 60.1461836,132.275311" id="Fill-102" fill="#EFC6A0"></path>
                        <path d="M105,144.5 C105,153.6124 97.6124,161 88.5,161 C79.3876,161 72,153.6124 72,144.5 C72,135.3876 79.3876,128 88.5,128 C97.6124,128 105,135.3876 105,144.5" id="Fill-104" fill="#FFBE46"></path>
                        <path d="M113.338638,204 L83.2959808,204 C74.4665803,204 66.8749544,197.763779 65.1858897,189.12513 L55,137 L146,137 L131.448729,189.12513 C128.869305,197.582792 122.168038,204 113.338638,204" id="Fill-106" fill="#E9EEFB"></path>
                        <path d="M146.118933,141 L54.881067,141 C53.8461305,141 53,140.100372 53,139 C53,137.899628 53.8461305,137 54.881067,137 L146.118933,137 C147.15387,137 148,137.899628 148,139 C148,140.100372 147.15387,141 146.118933,141" id="Fill-108" fill="#C5CBD8"></path>
                        <polygon id="Fill-110" fill="#D8DDEA" points="65 188 65.1711109 189 131.829767 189 132 188"></polygon>
                        <polygon id="Fill-112" fill="#D8DDEA" points="136 171 61 171 61.1709287 172 135.756317 172"></polygon>
                        <polygon id="Fill-114" fill="#D8DDEA" points="58 155 58.1709804 156 140.75712 156 141 155"></polygon>
                        <path d="M94.9512537,133.585158 C94.7434302,134.033234 93.924473,134.133984 93.1225971,133.810522 C92.3216702,133.487943 91.8405447,132.863112 92.0483681,132.415037 C92.2571405,131.966962 93.0751488,131.866211 93.8770247,132.18879 C94.6789006,132.512253 95.1600261,133.137083 94.9512537,133.585158" id="Fill-116" fill="#AFAC74"></path>
                        <path d="M500.450479,254 L491.859155,254 L486,242 L500.450479,242 C501.305915,242 502,242.697358 502,243.55683 L502,252.44317 C502,253.302642 501.305915,254 500.450479,254" id="Fill-118" fill="#2474CD"></path>
                        <path d="M499.66899,242 L499,242 L499,254 L499.66899,254 C500.403794,254 501,253.302642 501,252.44317 L501,243.55683 C501,242.697358 500.403794,242 499.66899,242" id="Fill-120" fill="#E86A46"></path>
                        <path d="M96.486228,314 C95.6310397,314 94.7732362,313.68785 94.100244,313.057464 C92.6958522,311.741913 92.6269838,309.541213 93.9450722,308.141321 L105.921195,295.422302 C111.236265,289.161915 115.262014,282.044203 117.885114,274.266541 L161.023741,146.069468 C160.962719,144.243521 159.529559,141.540252 157.416433,139.323031 L152.365504,134.025179 C149.414625,130.929765 147.701633,126.875295 147.542103,122.607798 C147.469748,120.688816 148.971776,119.074157 150.896603,119.002859 C152.814456,118.925473 154.439401,120.428836 154.510885,122.347818 C154.607649,124.920663 155.639803,127.365692 157.419048,129.232505 L162.469977,134.530357 C163.869138,135.99807 168.399631,141.228971 167.971601,146.944183 C167.950679,147.232856 167.893144,147.518052 167.800738,147.792813 L124.495606,276.482023 C121.578726,285.129182 117.099666,293.038138 111.181344,299.989776 C111.143859,300.03412 111.105502,300.076726 111.065401,300.119331 L99.0291274,312.902693 C98.3421872,313.631333 97.4155152,314 96.486228,314" id="Fill-122" fill="#23478D"></path>
                        <path d="M150.604416,128 C147.772169,128 145.424315,125.768884 145.317554,122.927286 L145.006095,114.65459 C144.908158,112.065969 145.994294,109.626674 147.984808,107.959486 C149.976204,106.293176 152.576401,105.647558 155.12013,106.185134 L195.806554,114.80743 C198.667035,115.413521 200.491673,118.212956 199.882872,121.060703 C199.273189,123.906693 196.460353,125.718816 193.602518,125.117996 L155.692756,117.083344 L155.898336,122.53201 C156.007744,125.440366 153.728711,127.887566 150.806467,127.996486 C150.738529,127.999122 150.671472,128 150.604416,128" id="Fill-124" fill="#FF7E59"></path>
                        <path d="M199.876203,120.953267 C199.299622,123.663217 196.873008,125.433751 194.456348,124.907376 C192.039689,124.381001 190.547217,121.757521 191.123797,119.046733 C191.700378,116.336783 194.126163,114.566249 196.543652,115.092624 C198.960311,115.618999 200.452783,118.242479 199.876203,120.953267" id="Fill-126" fill="#FF9E78"></path>
                        <path d="M163.352922,160.889541 L156.489778,158.743732 C155.334244,158.381987 154.722812,157.24331 155.122245,156.199181 L155.831943,154.34688 C156.231375,153.302751 157.492454,152.749444 158.647078,153.110368 L165.510222,155.256999 C166.665756,155.617922 167.277188,156.75742 166.877755,157.800727 L166.168057,159.653851 C165.768625,160.69798 164.508456,161.250464 163.352922,160.889541" id="Fill-128" fill="#2474CD"></path>
                        <path d="M164.496203,150 C163.639385,150 162.779945,149.681602 162.104982,149.037691 C160.696479,147.693838 160.624786,145.442818 161.945859,144.009138 L168.736577,136.640627 C170.271854,134.974819 170.762339,134.362037 171.064848,132.901675 C171.461782,130.979725 173.245361,129.699908 175.146972,130.060996 C177.045086,130.422974 178.29534,132.282667 177.939499,134.21351 C177.279399,137.793263 176.287939,138.850736 173.839014,141.507313 L167.048296,148.875824 C166.360219,149.622903 165.429085,150 164.496203,150" id="Fill-130" fill="#23478D"></path>
                        <path d="M387.860106,308.308994 L291.50179,320.765028 C290.138097,320.940837 288.725388,320.543132 287.776579,319.572765 C286.44177,318.206399 284.558158,317.35466 282.468854,317.35466 C279.653064,317.35466 277.212771,318.904517 275.987373,321.175535 C275.385177,322.290134 274.208795,323.000201 272.928254,323.164916 L266.504541,323.996171 C266.199067,324.03543 265.943484,323.766594 266.010881,323.473863 C266.636709,320.779536 270.019683,309.949316 284.037364,309.796549 C298.299249,309.642076 372.401707,308.283391 387.839099,308.000047 C388.039539,307.99578 388.05967,308.283391 387.860106,308.308994 M429,309.77017 C428.243241,302.594047 422.126252,297 414.692364,297 C414.648671,297 414.606726,297.006935 414.564781,297.007802 L414.556916,297 L281.366479,297 C264.595444,297 251,310.487088 251,327.124458 C251,328.624179 251.222833,330.578151 251.393235,331.850747 C251.490233,332.577202 252.163976,333.0852 252.896266,332.988108 L428.975532,309.771903 L428.973784,309.771036 C428.981649,309.771036 428.992135,309.77017 429,309.77017" id="Fill-132" fill="#2474CD"></path>
                        <path d="M329.831365,344 C329.581586,344 329.32747,343.955698 329.079426,343.864487 L281.416695,326.20877 C280.293556,325.792677 279.720278,324.54353 280.134842,323.418602 C280.551141,322.293674 281.798302,321.720352 282.920574,322.134708 L330.583305,339.790425 C331.706444,340.206518 332.279722,341.455666 331.865158,342.580593 C331.541659,343.457081 330.712531,344 329.831365,344" id="Fill-134" fill="#E9EEFB"></path>
                        <path d="M338.647693,341.733936 L326.479035,349.247835 C324.135094,350.695262 321.048991,349.990458 319.58468,347.676638 L319,346.752657 L339.654353,334 L340.239033,334.923981 C341.703344,337.238661 340.990765,340.287368 338.647693,341.733936" id="Fill-136" fill="#2474CD"></path>
                        <path d="M419.407201,48.8716288 C418.045436,44.4405848 414.507114,41.0105218 410.451479,39.7509978 C407.652925,38.8819087 404.31612,38.7587514 402.539108,36.2030181 C401.40503,34.5731486 401.241025,32.4637516 399.932474,30.7168389 C398.117078,28.2929976 396.443005,27.2230136 393.244034,26.20369 C388.02815,24.5423761 385.538414,20.2353629 385.392729,13.6844404 C385.392729,13.6844404 369.690118,5.84247928e-13 359.803579,5.84247928e-13 C350.643723,5.84247928e-13 330.361184,11.2824355 331.015459,13.0293481 C331.478686,15.5265598 340.465814,63.7623124 340.465814,63.7623124 C340.465814,63.7623124 404.403356,64.1265437 410.946111,65 C410.975772,64.8576266 410.98624,64.7274816 411.011539,64.5877286 C413.096496,64.3475281 415.129112,63.3884731 416.667968,61.8014029 C419.755276,58.6176546 420.768967,53.3026728 419.407201,48.8716288" id="Fill-138" fill="#423748"></path>
                    </g>
                    <g id="Group-143" transform="translate(344.000000, 110.000000)">
                        <mask id="mask-4" fill="white">
                            <use xlink:href="#path-3"></use>
                        </mask>
                        <g id="Clip-142"></g>
                        <path d="M3.97493368,4.71372116 C3.97493368,4.71372116 8.95814841,13.4518886 7.84243671,18.4763349 C7.0185952,22.1874346 1,24.5930521 1,24.5930521 C1,24.5930521 2.63607964,52.9920962 11.4127142,51.9732259 C28.9668758,49.9337376 37,19.6420064 37,19.6420064 C32.8343788,17.3106633 26.2891677,1 26.2891677,1 L3.97493368,4.71372116 Z" id="Fill-141" fill="#E09595" mask="url(#mask-4)"></path>
                    </g>
                    <g id="Group-146" transform="translate(360.000000, 298.000000)">
                        <mask id="mask-6" fill="white">
                            <use xlink:href="#path-5"></use>
                        </mask>
                        <g id="Clip-145"></g>
                        <path d="M34.6310822,28.5449498 C49.1812528,43.2499239 56.6152323,53.3461862 58.7847495,58.8198966 C61.9862061,66.8929274 56.4572111,80.732903 50.054298,92.8428817 C47.8070797,97.0934842 44.234579,103.222863 48.8905288,104.664816 C52.4036625,105.752119 61.0188721,104.454621 68.0975222,96.8798296 C75.3726075,89.0948433 85.5584254,72.0829182 84.9761042,64.2979319 C84.3946562,56.5129456 80.0294304,58.2429426 76.2456527,53.9179502 C72.462748,49.5929578 67.6356813,41.0865627 65.1876627,34.8879836 C62.5694003,28.2560403 55.0018449,10.3799817 55.0018449,10.3799817 L6.09040596e-13,2.89213098e-14 C6.09040596e-13,2.89213098e-14 20.0800386,13.8399757 34.6310822,28.5449498" id="Fill-144" fill="#FFAEAE" mask="url(#mask-6)"></path>
                    </g>
                    <path d="M443.976344,363.208583 C443.409364,355.528739 439.213195,357.08482 435.509676,353 C435.176921,356.758867 435.045547,364.942377 430.579717,374.478248 C427.676538,380.678298 421.361109,387.048259 416.46313,386.903487 C414.777748,386.854074 413.597116,385.755715 413.287697,383.826002 C412.083729,386.520319 410.766539,389.2077 409.404404,391.816194 C407.1797,396.076128 403.64299,402.218962 408.252294,403.66408 C411.730231,404.75377 420.259129,403.453424 427.266861,395.862004 C434.46906,388.059928 444.552831,371.010659 443.976344,363.208583" id="Fill-147" fill="#FFCFDF"></path>
                    <g id="Group-151" transform="translate(413.000000, 304.000000)">
                        <mask id="mask-8" fill="white">
                            <use xlink:href="#path-7"></use>
                        </mask>
                        <g id="Clip-150"></g>
                        <path d="M1,9.95852613 C1,9.95852613 14.4721096,17.5226762 18.6805135,24.5352105 C26.2156434,37.091613 20.8542759,51.0915688 19.984771,54.8437683 C19.115266,58.5959677 17.9553464,62.9257617 20.8542759,64.369315 C23.7523359,65.8128683 33.1716829,65.2352738 38.3887126,57.7300089 C43.6057423,50.22561 41.7223946,39.8341045 41.4319799,36.3702693 C41.1424348,32.9064342 42.3014849,19.627822 41.7223946,16.4532171 C41.1424348,13.2777462 40.1294615,10.1776137 37.0844552,9.23631649 C34.8289594,8.54008562 33.0334317,8.75744128 31.4048489,8.97479694 C29.9997289,9.16184404 28.7180786,9.3497571 27.375563,8.94795222 C24.4766335,8.08199342 17.5205939,1.48103751e-13 17.5205939,1.48103751e-13 L1,9.95852613 Z" id="Fill-149" fill="#FFAEAE" mask="url(#mask-8)"></path>
                    </g>
                    <g id="Group-238" transform="translate(322.000000, 124.000000)">
                        <path d="M132.431874,217.982804 C132.142275,214.472091 133.301541,201.01377 132.722343,197.796201 C132.142275,194.577755 131.129112,191.435666 128.083538,190.48163 C124.047412,189.21865 121.481024,190.913447 118.717221,190.274497 C117.931912,190.686129 115.716,191.397926 115.328998,196.918523 C114.941126,202.438242 117.068332,213.301268 112.973939,228.424544 C112.301686,232.262632 111.313744,235.250249 110.980662,236.706317 C110.110994,240.509298 108.950858,244.89769 111.850329,246.36078 C114.74893,247.823869 124.170035,247.238458 129.388039,239.631619 C134.606042,232.025658 132.722343,221.493518 132.431874,217.982804" id="Fill-152" fill="#FFCFDF"></path>
                        <path d="M28.1219026,5.96905116 C27.1946385,7.60764476 26.2996802,9.93925421 25.9932115,11.9221709 C25.4204382,15.6371904 25.7024592,23.2691039 27.03049,27.9445576 C28.1585741,31.9130129 30.9927543,34.4430014 32.5600227,35.2269046 C33.7247782,35.8098069 35.9800732,33.7700856 43.4741486,25.0309197 C52.311098,14.7265693 54.003224,7.64434926 57.29929,0.270241101 C58.1724201,-0.603675485 86.8809367,-0.511040327 85.2394522,19.2053918 C83.493192,40.1793898 85.1696018,56.7794354 88.440347,63.7026026 C95.4253875,78.4857756 108.377399,81.9814419 118.126769,98.1488988 C124.762558,109.152383 127.149695,116.210133 126.85807,123.201466 C126.578668,129.92101 123.947927,134.999339 123.947927,134.999339 C123.947927,134.999339 128.750143,132.086575 138.791139,135.145284 C148.832134,138.203992 155.089857,143.010533 158,144.467352 C151.88809,149.418963 152.76122,152.914629 144.029919,155.828267 C135.644378,158.625674 132.533415,156.410296 124.384492,164.858447 C120.848316,168.523654 120.195214,175.883779 118.272582,179.059592 C115.42967,183.75602 108.217616,190.303403 99.5002855,191.949862 C91.1706247,193.522038 79.7090463,193.551751 69.2314855,190.493043 C58.7539247,187.434335 53.224392,181.025904 44.4930914,179.715029 C35.7617907,178.404155 13.933539,177.09328 7.82162857,172.723697 C7.82162857,172.723697 4.76567333,152.623615 10.4410188,143.447491 C18.2983162,130.743366 46.6759165,110.675619 52.351262,103.392398 C55.0090699,99.9815019 57.0076646,95.527149 45.6569737,87.3708855 C39.556414,82.986446 22.2282747,64.7949983 22.2282747,64.7949983 L9.5678887,11.3401425 C9.5678887,11.3401425 14.3718503,11.47123 19.1723194,10.1743378 C22.2501029,9.3432431 26.4306497,7.49840519 28.1219026,5.96905116" id="Fill-154" fill="#638FFA"></path>
                        <path d="M55.7959576,35 C54.8406805,33.1986755 54,30.3453775 54,28.0769801 C54,27.1589404 54.4776385,26.9300662 54.7260839,27.4412185 C55.0698736,28.1481854 55.4044957,28.6406887 55.8399626,29.0518146 C56.1901698,29.3824106 56.4890377,29.3807152 56.5981336,28.7127417 C56.9034189,26.8410596 57.4764018,24.9337748 58.2785778,23.1324503 C58.8359756,21.8787285 60.3862381,19.2263311 61.8310717,19 C62.7267585,23.8207682 59.8774293,28.2261722 57.596499,32.640053 L55.7959576,35 Z" id="Fill-156" fill="#5581EE"></path>
                        <path d="M59.0245538,60.047273 C63.790611,57.04492 76.0284512,46.5957244 80.8843178,43.7392347 C81.5728558,43.3337695 83.2677866,42.8067515 83.4042615,44.7307579 C83.5812387,47.2304034 84.3516618,55.8762771 82.150453,61.1221466 C81.5226683,62.6988594 81.2620452,63.3456937 80.3340156,65.2688319 C76.8085596,72.58023 73.9267371,77.1540865 72.0583511,79.7231907 C71.8452741,80.0166538 72.1622482,80.1338654 72.6068923,79.78744 C76.1164996,77.0481619 80.6879699,71.0443242 82.847796,67.5974354 C83.618219,66.3671479 84.9750441,66.5121429 85.379186,68.8633205 C85.7947742,71.2926391 86.4322443,74.0709877 86.9931123,75.8091921 C87.3778836,77.0030137 88.3155985,76.7937694 88.423898,75.8091921 C88.584146,74.3549002 88.6440189,72.7347757 88.7540793,71.1424346 C88.8201156,70.1839043 89.3774616,69.8496342 90.2949254,70.4191957 C91.2854694,71.0339054 92.9636709,71.9299228 94,72.3006587 C91.4501198,69.0265485 88.6440189,65.2280249 87.3232936,60.8868552 C84.2838646,50.8986919 84.4617222,36.9279394 84.4397101,32.0215494 C84.2495257,31.8053591 64.8709643,33.1216018 59.5149832,40.2845318 C54.1581215,47.4474619 59.0245538,60.047273 59.0245538,60.047273" id="Fill-158" fill="#5581EE"></path>
                        <path d="M44,86 C45.472908,86.5060483 50.7887189,90.9771976 55.1890095,94.8191813 C59.2671564,98.3796247 64.7225336,99.7683154 69.9417892,98.5887431 L80.7893439,96.1363553 C81.0930543,96.0684597 81.0588211,95.6094857 80.7480884,95.5995277 C77.1018073,95.4745998 69.5397678,95.0971005 63.4567808,93.996287 C55.1179097,92.4881002 44,86 44,86" id="Fill-160" fill="#5581EE"></path>
                        <path d="M68.5298471,107.480587 C68.5298471,107.480587 83.7440689,100.047404 88.1875932,96.9283342 C92.1086583,94.1750757 95.9956499,91.2521017 98.4166106,88.2262433 C98.7713237,87.7830487 99.090216,88.0363028 98.9766379,88.5938134 C98.2960431,91.9336014 94.7925959,101.133407 76.2470414,112.244049 C51.7840685,126.899369 34.4564206,143.241291 33,145 C33,145 33.0323261,138.765377 42.6104536,128.731944 C53.3130043,117.520176 68.5298471,107.480587 68.5298471,107.480587" id="Fill-162" fill="#5581EE"></path>
                        <path d="M33.9033934,50.4604597 C32.0211972,45.7956273 31.4401223,44.096939 33.5411987,35.7364536 C34.2603766,32.8735253 36.6784819,27.8649315 38.246255,25.4586022 C38.445158,25.1515788 37.9908947,24.8314346 37.7450887,25.1017202 C35.9975212,27.0260839 33.1442612,31.6113177 32.0211972,34.5695894 C28.3983821,44.1118091 30.6497215,51.1619777 31.1526249,52.3559579 C32.4554833,55.8548009 34.7719657,61.1030654 46,58.1141788 C43.5845004,57.2665841 35.7395553,55.0142039 33.9033934,50.4604597" id="Fill-164" fill="#C5CBD8" style="mix-blend-mode: multiply;" opacity="0.5"></path>
                        <path d="M66,159.287362 C66,159.287362 98.584493,151.524279 121,135 C121,135 114.111332,148.419045 94.4294235,157.291141 C73.8692644,166.558932 66,159.287362 66,159.287362" id="Fill-166" fill="#5581EE"></path>
                        <path d="M74,164 C74.6525888,164.216867 87.7043655,169.313253 95.5354315,191 C95.5354315,191 102.278849,189.590361 107.138461,184.310072 C108.269615,183.081735 108.331393,181.227952 107.05841,180.146217 L101.480951,173.831036 C100.66913,173.053783 99.4509645,173.036434 99.6093261,174.577928 C99.6093261,174.577928 100.103553,177.517783 99.8138039,179.903325 C99.5858329,181.770988 98.9628281,183.764434 98.073567,182.144867 C94.7375329,176.072578 91.0447502,173.487518 87.9218951,170.939759 C80.7434179,165.084337 74,164 74,164" id="Fill-168" fill="#5581EE"></path>
                        <path d="M12.0576069,140.846449 C10.0999236,141.563813 5.65319833,139.7509 3.49438918,135.758762 C0.30096768,129.855349 0.365960307,126.371132 2.60030142,125 C4.34719784,125.751282 13,132.498403 13,132.498403 C13,132.498403 12.0962512,139.217541 12.0576069,140.846449" id="Fill-170" fill="#EFC6A0"></path>
                        <path d="M47.9985333,69 L25,122.603791 L28.4452801,128 C28.4452801,128 41.8436886,123.824787 55.4317054,122.765547 C70.9577469,121.554118 81,122.847294 81,122.847294 L47.9985333,69 Z" id="Fill-172" fill="#EFC6A0"></path>
                        <path d="M11.3885983,142 C11.3885983,142 14.4402414,139.167395 18.9488263,135.161307 C23.1661972,131.414816 28,128.505391 28,128.505391 L24.5455399,123 L2,125.462636 L11.3885983,142 Z" id="Fill-174" fill="#EFC6A0"></path>
                        <path d="M26.0583253,128.922396 C26.0583253,128.922396 24.5637384,129.61226 22.888982,126.87829 C21.2150447,124.143471 22.4189037,122.860595 22.4189037,122.860595 L25.2418304,121 C25.2418304,121 24.2091323,122.595524 25.7643216,125.133239 C27.3186921,127.671804 29,127.57665 29,127.57665 L26.0583253,128.922396 Z" id="Fill-176" fill="#4FA372"></path>
                        <path d="M92,119.818681 C92,119.818681 87.0616551,122.124906 82.6432699,120.292713 C78.2248847,118.459606 76,113.181319 76,113.181319 C76,113.181319 80.9383449,110.875094 85.3567301,112.707287 C89.7751153,114.540394 92,119.818681 92,119.818681" id="Fill-178" fill="#4FA372"></path>
                        <path d="M85.9858201,124 C85.9858201,124 81.173112,123.596667 78.4196178,120.559302 C75.6661235,117.521085 76.0141725,113 76.0141725,113 C76.0141725,113 80.8268805,113.402481 83.5812835,116.440698 C86.333869,119.478062 85.9858201,124 85.9858201,124" id="Fill-180" fill="#5BAF93"></path>
                        <path d="M67.2489145,66 C67.2489145,66 69.9618336,71.3987136 69.9997304,75.154417 C70.0376272,78.9101204 66.0675218,82 66.0675218,82 C66.0675218,82 62.0380996,79.0007146 62.0002028,75.2458908 C61.9623059,71.4901875 67.2489145,66 67.2489145,66" id="Fill-182" fill="#5BB57F"></path>
                        <path d="M87.7090341,120.119091 C79.7938966,125.687028 64.8937799,118.474629 54.4281798,104.009088 C43.9625798,89.5435467 41.8956589,73.3043796 49.8107965,67.7373091 C57.7250548,62.1693717 71.0892674,70.5338475 81.5548674,84.9985217 C92.0204675,99.4640628 95.6241717,114.55202 87.7090341,120.119091" id="Fill-184" fill="#FF91BA"></path>
                        <path d="M77.138826,89.8935359 C72.7796709,93.2839608 66.4962899,92.4980262 63.1066054,88.1381665 C59.7160553,83.7791724 60.5020189,77.4968891 64.861174,74.1064641 C69.2211947,70.7160392 75.5037101,71.5019738 78.8933946,75.8618335 C82.2839447,80.2208276 81.4979811,86.5031109 77.138826,89.8935359" id="Fill-186" fill="#FFCFDF"></path>
                        <path d="M73.6688786,71.0001151 C71.5065175,70.9792954 67.4987152,73.7830253 68.0518378,78.7849766 C68.6049604,83.7860605 73.1556895,84.7073356 76.1277677,83.5570429 C79.0998458,82.4058828 74.7130993,77.4247512 75.0623057,75.9387396 C75.3494876,74.7173127 77.1872821,75.532754 79.5059788,76.5477181 C79.8917202,76.7168788 80.0854406,76.3195681 79.9639405,75.909245 C79.1516745,73.1454196 75.8312396,71.0209349 73.6688786,71.0001151" id="Fill-188" fill="#FFDEEB"></path>
                        <path d="M77.3772544,76.4914438 C78.6728196,74.5120908 80.6427626,79.1022884 79.7945663,79.8390288 C78.94637,80.5766178 75.9563119,78.6617721 77.3772544,76.4914438" id="Fill-190" fill="#FFC7D6"></path>
                        <path d="M73.6700166,84.2639003 C76.286415,83.7801117 79.7891297,82.4022101 80.8682809,79.382115 C81.0357666,78.9153486 81.6948455,78.8669697 81.9564853,79.288045 C82.7966299,80.6399654 83.7671417,83.0212804 82.0452075,85.1535338 C80.0308523,87.6468369 76.4774393,87.363731 73.4563592,85.7914181 C72.7538245,85.4258889 72.8914344,84.408141 73.6700166,84.2639003" id="Fill-192" fill="#FFDEEB"></path>
                        <path d="M67.7004199,79.4757728 C65.996923,75.8096294 67.4853723,72.784071 69.2759546,71.9885058 C70.1174839,71.6148313 70.9901151,71.7525915 71.7099025,72.0289729 C72.163102,71.7844485 72.8277946,71.5958892 73.4409469,71.5158161 C73.312096,71.3926929 72.9895246,71.1188945 72.8029131,70.9811343 C70.8959207,69.5682313 68.5375061,69.9608479 66.9504192,70.4404256 C64.9572301,71.0431264 61.5431272,73.4143239 61.0543827,78.3332241 C60.7646904,81.2511574 61.5324637,85.8187691 65.8023138,88.1055884 C71.5046298,91.1595599 75.4599062,85.4795346 74.9569436,84.6590004 C74.4530924,83.8384662 69.2244143,82.7544656 67.7004199,79.4757728" id="Fill-194" fill="#FFC7D6"></path>
                        <path d="M81.9943658,84 C81.9943658,84 82.3083132,89.4631956 78.2491688,91.5795294 C74.0055582,93.7918618 70.9964525,92.9488192 69.5056459,92.1843209 C68.9203203,91.8849797 68.822766,91.1065179 69.3202928,90.6788876 C70.4528091,89.7066831 72.4890328,88.1672139 74.2813707,87.9263446 C76.9339599,87.5685315 79.8543799,87.1583554 81.9943658,84" id="Fill-196" fill="#FFC7D6"></path>
                        <path d="M87.9454362,105.788592 C83.3673953,109.347921 76.7713729,108.522864 73.21205,103.9457 C69.6518427,99.3685368 70.4768982,92.7716203 75.0549392,89.2114076 C79.6320958,85.6520793 86.2290025,86.4771361 89.7883254,91.0542996 C93.3476484,95.6323475 92.5234772,102.229264 87.9454362,105.788592" id="Fill-198" fill="#FFDCE9"></path>
                        <path d="M84.1406552,87.0001182 C81.7987365,86.9790172 77.4570072,89.7829202 78.0561444,94.7847049 C78.6552815,99.7864896 83.5845055,100.707338 86.8049796,99.5569105 C90.0245581,98.4064832 85.2735528,93.4249554 85.6505883,91.9394439 C85.960456,90.7172731 87.9522063,91.5334604 90.4651792,92.5479972 C90.8825154,92.7168053 91.092079,92.3201063 90.9613256,91.9090585 C90.0809791,89.1456695 86.4834695,87.0212193 84.1406552,87.0001182" id="Fill-200" fill="#FFDEEB"></path>
                        <path d="M87.3771498,92.4914314 C88.6731281,90.5120609 90.6429781,95.1025159 89.7943989,95.8391027 C88.946744,96.5765153 85.9563804,94.6615548 87.3771498,92.4914314" id="Fill-202" fill="#FFCFDF"></path>
                        <path d="M83.6700106,99.264052 C86.2862062,98.780277 89.7885609,97.4021721 90.8685123,94.3818471 C91.0349975,93.9155054 91.694772,93.8666921 91.9572725,94.2885788 C92.7958644,95.6396621 93.7674684,98.0210554 92.0453599,100.153152 C90.0316821,102.646119 86.4773558,102.36457 83.4559583,100.791212 C82.7547826,100.425984 82.8904372,99.407877 83.6700106,99.264052" id="Fill-204" fill="#FFDEEB"></path>
                        <path d="M84.9567633,100.430032 C84.4535184,99.5667108 79.2239221,98.4256105 77.6994878,94.9740908 C75.9960644,91.1151613 77.4850467,87.9299572 79.2766677,87.0922097 C80.1205973,86.6971456 80.9973847,86.8452947 81.7185295,87.1380654 C82.3627175,86.8937958 83.1495781,86.5825065 83.7678257,86.563106 C83.6415821,86.4361212 82.9861532,86.1742148 82.8037053,86.0322387 C80.8953523,84.5454573 78.5373646,84.9590401 76.9498086,85.4634522 C74.9567167,86.0974948 71.5420877,88.5939823 71.0544071,93.7712618 C70.7647387,96.8435905 71.5317116,101.651379 75.801511,104.058801 C81.504953,107.273106 85.4608729,101.293352 84.9567633,100.430032" id="Fill-206" fill="#FFC7D6"></path>
                        <path d="M91.9943985,100 C91.9943985,100 92.3076342,105.462996 88.2493766,107.57891 C84.0055937,109.791618 80.9957697,108.949329 79.5046642,108.184305 C78.9204753,107.884579 78.8229667,107.105971 79.3200018,106.678882 C80.4521375,105.705834 82.488601,104.167297 84.2817244,103.926157 C86.9343044,103.567844 89.8552489,103.157738 91.9943985,100" id="Fill-208" fill="#FFCFDF"></path>
                        <path d="M76.1379681,96.8934394 C71.7791323,100.284204 65.4971011,99.4976237 62.1064106,95.1386924 C58.716593,90.7788881 59.5014104,84.4967192 63.8611191,81.1068274 C68.2217008,77.7160625 74.503732,78.5017701 77.8935496,82.8615744 C81.2842402,87.2205056 80.4976768,93.5035476 76.1379681,96.8934394" id="Fill-210" fill="#FFADD2"></path>
                        <path d="M72.6690474,79.0001171 C70.5069726,78.9791191 66.4990361,81.7832287 67.0517663,86.7842555 C67.6053534,91.7861572 72.1548798,92.7074451 75.1276254,91.5569289 C78.0995142,90.4055379 73.7136645,85.4246342 74.0624416,83.9390248 C74.3486615,82.7176403 76.1868107,83.5330632 78.5065635,84.5479671 C78.8921892,84.7168262 79.0850021,84.3204887 78.9641727,83.9092776 C78.1509309,81.1454141 74.8311221,79.0211151 72.6690474,79.0001171" id="Fill-212" fill="#F9C2D9"></path>
                        <path d="M76.3771469,84.4916245 C77.673543,82.5118045 79.6425704,87.102282 78.7945951,87.8392578 C77.947578,88.5762336 74.9561894,86.6614661 76.3771469,84.4916245" id="Fill-214" fill="#FFCFDF"></path>
                        <path d="M72.6707767,91.2638333 C75.2857954,90.7804131 78.7883136,89.4015361 79.8684697,86.3817412 C80.0346476,85.9154892 80.6947937,85.8666954 80.9568434,86.2886715 C81.7959503,87.6395373 82.7674517,90.0213982 81.0454107,92.152965 C79.0311889,94.6468711 75.476626,94.3640477 72.4562063,92.790899 C71.7540592,92.425849 71.891019,91.407504 72.6707767,91.2638333" id="Fill-216" fill="#FFCFDF"></path>
                        <path d="M72.3289503,80.9850338 C72.3289503,80.9850338 70.2172008,79.1258511 68.2766501,79.9881437 C66.4848898,80.7835717 64.9960885,83.8089768 66.7009049,87.4761082 C68.224663,90.7542093 73.4538423,91.8379366 73.9566824,92.6585473 C74.4613153,93.4791581 70.5049222,99.1591738 64.8024816,96.1059808 C60.5314773,93.8186912 59.7642203,89.2510589 60.0546307,86.3324634 C60.5431296,81.4148775 63.9563477,79.0424875 65.9506782,78.4398379 C67.5371792,77.9613654 69.895419,77.5679933 71.8037019,78.9808331 C73.7119848,80.3928046 72.3289503,80.9850338 72.3289503,80.9850338" id="Fill-218" fill="#FFC7D6"></path>
                        <path d="M80.9943652,92 C80.9943652,92 81.3083201,97.4624981 77.2492673,99.5784899 C73.0059561,101.792184 69.9961031,100.948955 68.5050408,100.184065 C67.9209593,99.8847982 67.8225689,99.1058245 68.3198879,98.6789293 C69.4531668,97.7054322 71.4889544,96.1668491 73.2814493,95.9256754 C75.9344133,95.5683157 78.8539259,95.157264 80.9943652,92" id="Fill-220" fill="#F9C2D9"></path>
                        <path d="M56,87.125144 C56,87.125144 51.3556677,89.1069655 48.3183417,87.1049482 C45.2810158,85.1020529 45,79.874856 45,79.874856 C45,79.874856 49.6434909,77.8930345 52.6816583,79.8950518 C55.7189842,81.8970691 56,87.125144 56,87.125144" id="Fill-222" fill="#4FA372"></path>
                        <path d="M52.5750005,98 C52.5750005,98 48.7759154,93.9694056 49.0104268,89.2753497 C49.2449383,84.5804196 53.4241788,81 53.4241788,81 C53.4241788,81 57.2240868,85.0305944 56.9895753,89.7246503 C56.7550639,94.4195804 52.5750005,98 52.5750005,98" id="Fill-224" fill="#5BB57F"></path>
                        <path d="M63.5291956,85.5056961 C58.6409125,89.3578992 51.7547337,88.671963 48.1491361,83.974715 C44.5418005,79.276583 45.5820271,72.345623 50.4711792,68.4943039 C55.3594623,64.6421008 62.244772,65.328037 65.8512387,70.025285 C69.4577053,74.723417 68.4183477,81.654377 63.5291956,85.5056961" id="Fill-226" fill="#FFADD2"></path>
                        <path d="M59.7901455,66.0004908 C57.2771218,66.0386592 52.5378132,69.1719353 53.0364505,74.5423983 C53.5341861,79.9128613 58.7964777,80.7751194 62.2851354,79.451371 C65.7728914,78.1276226 60.8189794,72.889014 61.2671218,71.2790028 C61.6350133,69.9561218 63.7485862,70.781079 66.4139964,71.8081551 C66.8576304,71.9799128 67.0938744,71.5470488 66.964932,71.1081126 C66.1002066,68.1544013 62.3022676,65.9623225 59.7901455,66.0004908" id="Fill-228" fill="#F9C2D9"></path>
                        <path d="M63.4172954,71.5116696 C64.7892338,69.4889886 66.6527835,74.0644217 65.7724564,74.8262004 C64.8912498,75.587979 61.9134398,73.7295565 63.4172954,71.5116696" id="Fill-230" fill="#F9C2D9"></path>
                        <path d="M59.7555236,79.4001892 C62.6268335,78.8565365 66.4925794,77.4056992 67.7570757,74.3921686 C67.9521695,73.9266506 68.675642,73.8616754 68.9502184,74.272088 C69.8281401,75.5872177 70.8225761,77.9164531 68.8815743,80.0680349 C66.6109001,82.583971 62.7352189,82.3939804 59.4782376,80.9160016 C58.7213462,80.5722091 58.8992789,79.5622158 59.7555236,79.4001892" id="Fill-232" fill="#F9C2D9"></path>
                        <path d="M60.9582812,81.0060248 C60.4359106,80.1077266 54.8092331,79.0475569 53.2544124,75.4428018 C51.5134697,71.4120222 53.2113936,68.0056043 55.1718197,67.0699511 C56.0242934,66.6643828 56.8908141,66.7470974 57.6265226,66.9890154 C58.1471373,66.611908 58.8380712,66.4553729 59.5448079,66.3646536 C57.4921987,64.6614447 54.4852755,64.8170904 52.6995582,65.4138806 C50.5240383,66.138745 46.76297,68.8727734 46.0948624,74.3568394 C45.6989143,77.6111692 46.3995055,82.6709894 50.9551038,85.0955051 C57.0383069,88.3338256 61.4806518,81.904323 60.9582812,81.0060248" id="Fill-234" fill="#FFCFDF"></path>
                        <path d="M67.9989034,80 C67.9989034,80 68.182025,85.9086169 63.8154767,88.3133274 C59.2486122,90.8277818 56.0762232,89.9972393 54.5141011,89.2105943 C53.9019762,88.9015552 53.8194425,88.0604772 54.3584907,87.5846272 C55.5878989,86.4994786 57.7922363,84.7760588 59.7016878,84.4652638 C62.5284669,84.005217 65.640675,83.4793237 67.9989034,80" id="Fill-236" fill="#FFCFDF"></path>
                    </g>
                    <g id="Group-266" transform="translate(367.000000, 189.000000)">
                        <g id="Group-241">
                            <mask id="mask-10" fill="white">
                                <use xlink:href="#path-9"></use>
                            </mask>
                            <g id="Clip-240"></g>
                            <path d="M28.0535713,44 C28.0535713,44 31.7405802,46.6523409 31.986823,50.2413085 C32.2330658,53.831137 28.9465123,57 28.9465123,57 C28.9465123,57 25.2595033,54.3476591 25.0132606,50.7578306 C24.7661887,47.1680021 28.0535713,44 28.0535713,44" id="Fill-239" fill="#4FA372" mask="url(#mask-10)"></path>
                        </g>
                        <g id="Group-244">
                            <mask id="mask-12" fill="white">
                                <use xlink:href="#path-11"></use>
                            </mask>
                            <g id="Clip-243"></g>
                            <path d="M23.5099421,38 C23.5099421,38 26.4878287,41.5043176 25.9305055,45.0939153 C25.3723579,48.6843832 21.4900579,51 21.4900579,51 C21.4900579,51 18.5121713,47.4965526 19.0694945,43.9060847 C19.6276421,40.316487 23.5099421,38 23.5099421,38" id="Fill-242" fill="#4FA372" mask="url(#mask-12)"></path>
                        </g>
                        <g id="Group-247">
                            <mask id="mask-14" fill="white">
                                <use xlink:href="#path-13"></use>
                            </mask>
                            <g id="Clip-246"></g>
                            <path d="M28,43.7084644 C28,43.7084644 23.5348907,47.9271964 17.7484095,46.8124557 C14.0025845,46.0900345 10,41.0296301 10,41.0296301 C10,41.0296301 15.4375746,37.4780143 19.2084493,38.0656295 C24.383002,38.8710081 28,43.7084644 28,43.7084644" id="Fill-245" fill="#5BB57F" mask="url(#mask-14)"></path>
                        </g>
                        <g id="Group-250">
                            <mask id="mask-16" fill="white">
                                <use xlink:href="#path-15"></use>
                            </mask>
                            <g id="Clip-249"></g>
                            <path d="M41.1383828,53.788436 C36.7792264,57.3479804 30.4964108,56.5230331 27.1063349,51.9450685 C23.716259,47.3679995 24.5019308,40.7711085 28.8610873,37.211564 C33.2210969,33.6520196 39.5030594,34.4769669 42.8939883,39.0549315 C46.2840642,43.6320005 45.4975393,50.2279958 41.1383828,53.788436" id="Fill-248" fill="#FFCFDF" mask="url(#mask-16)"></path>
                        </g>
                        <g id="Group-253">
                            <mask id="mask-18" fill="white">
                                <use xlink:href="#path-17"></use>
                            </mask>
                            <g id="Clip-252"></g>
                            <path d="M38.1412907,35.0001213 C35.7981042,34.9787476 31.457358,37.7829715 32.0560816,42.7844073 C32.6548052,47.786698 37.5852035,48.7074752 40.8047037,47.5567175 C44.0242038,46.4059598 39.2725155,41.4250427 39.6508,39.939146 C39.9610477,38.7174278 41.9522573,39.5330465 44.4650821,40.5478678 C44.8832815,40.7171471 45.0919276,40.3204521 44.961297,39.9092229 C44.0804476,37.1451815 40.4835701,35.02064 38.1412907,35.0001213" id="Fill-251" fill="#FFDEEB" mask="url(#mask-18)"></path>
                        </g>
                        <g id="Group-256">
                            <mask id="mask-20" fill="white">
                                <use xlink:href="#path-19"></use>
                            </mask>
                            <g id="Clip-255"></g>
                            <path d="M41.3776742,40.4916713 C42.673344,38.511721 44.6421253,43.1023282 43.7948847,43.8392679 C42.9467078,44.5762076 39.9556206,42.6615028 41.3776742,40.4916713" id="Fill-254" fill="#FFC7D6" mask="url(#mask-20)"></path>
                        </g>
                        <g id="Group-259">
                            <mask id="mask-22" fill="white">
                                <use xlink:href="#path-21"></use>
                            </mask>
                            <g id="Clip-258"></g>
                            <path d="M37.670187,47.2638554 C40.2862146,46.7809114 43.7882298,45.402711 44.8678319,42.3823243 C45.0346795,41.9152724 45.694932,41.8667131 45.9572486,42.2887374 C46.79684,43.639568 47.7666974,46.0207381 46.0455797,48.1529316 C44.0309172,50.6471123 40.4771525,50.3637028 37.456051,48.7912653 C36.7547558,48.4257464 36.8903752,47.4077675 37.670187,47.2638554" id="Fill-257" fill="#F9C2D9" mask="url(#mask-22)"></path>
                        </g>
                        <g id="Group-262">
                            <mask id="mask-24" fill="white">
                                <use xlink:href="#path-23"></use>
                            </mask>
                            <g id="Clip-261"></g>
                            <path d="M38.9568403,48.4303141 C38.4532492,47.5665757 33.2237839,46.4250476 31.7007492,42.9745602 C29.9964217,39.1149804 31.4852997,35.9297776 33.2772083,35.0928357 C34.0750718,34.719472 34.8992096,34.8329103 35.5963549,35.0937289 C36.1437365,34.9686789 36.7629346,34.7543074 37.4092829,34.594422 C37.2603951,34.4220316 37.0650893,34.236243 36.8032219,34.0325901 C34.8948306,32.545388 32.5380241,32.9589463 30.9501794,33.4636125 C28.9568344,34.0977948 25.5429246,36.5943292 25.0542222,41.7714003 C24.7652047,44.8431648 25.531539,49.6513383 29.8028675,52.0585513 C35.5052706,55.2732302 39.4604314,49.2940525 38.9568403,48.4303141" id="Fill-260" fill="#F9C2D9" mask="url(#mask-24)"></path>
                        </g>
                        <g id="Group-265">
                            <mask id="mask-26" fill="white">
                                <use xlink:href="#path-25"></use>
                            </mask>
                            <g id="Clip-264"></g>
                            <path d="M45.9944122,48 C45.9944122,48 46.3073252,53.463154 42.2499443,55.5789221 C38.0055149,57.7918779 34.9952564,56.949011 33.5049862,56.1844102 C32.9202409,55.8842464 32.8232204,55.1058845 33.3196857,54.6792907 C34.4524659,53.7065534 36.4890229,52.1678911 38.2808434,51.9253519 C40.9344859,51.5675634 43.8547163,51.1581709 45.9944122,48" id="Fill-263" fill="#FFCFDF" mask="url(#mask-26)"></path>
                        </g>
                    </g>
                    <g id="Group-285" transform="translate(242.000000, 191.000000)">
                        <path d="M148.559144,39.5776287 C143.545917,43.4764988 136.320816,42.5728106 132.422819,37.5587132 C128.523052,32.5455009 129.427628,25.3213063 134.440856,21.4224362 C139.454083,17.5235661 146.679184,18.4272543 150.577181,23.4404666 C154.476948,28.4536788 153.572372,35.6787586 148.559144,39.5776287" id="Fill-267" fill="#FFADD2"></path>
                        <path d="M144.613604,19.0001329 C142.09106,18.9761028 137.415275,22.211266 138.060454,27.9820494 C138.706514,33.7537229 144.014257,34.8163872 147.482535,33.4885018 C150.949049,32.1606164 145.832569,26.413863 146.239772,24.6988261 C146.573819,23.2890603 148.718246,24.2306842 151.42412,25.4019289 C151.87363,25.5968397 152.099266,25.1384879 151.958243,24.6650059 C151.010747,21.476123 147.136147,19.024163 144.613604,19.0001329" id="Fill-269" fill="#FFDEEB"></path>
                        <path d="M144.737282,32.9219368 C147.614206,32.3779422 151.467814,30.8275127 152.655243,27.430011 C152.838537,26.9048367 153.56463,26.8501683 153.853297,27.3242592 C154.775967,28.8442178 155.843856,31.5229655 153.949814,33.9220982 C151.734344,36.7272104 147.824065,36.4099549 144.501744,34.639956 C143.729606,34.2285993 143.880137,33.0841494 144.737282,32.9219368" id="Fill-271" fill="#FFCFDF"></path>
                        <path d="M145.950578,33.9731739 C145.374421,33.0228846 139.398819,31.7676517 137.656801,27.9718131 C135.709786,23.7265374 137.412069,20.223232 139.459325,19.3013095 C140.374133,18.8899902 141.320548,19.017641 142.119763,19.3066283 C142.66341,18.931654 143.214282,18.5939113 143.784118,18.3731817 C143.692005,18.2951729 143.598989,18.2180506 143.488815,18.1356094 C141.308808,16.5000835 138.614956,16.9548395 136.800692,17.5097659 C134.522251,18.2065265 130.620093,20.9536782 130.061997,26.6483225 C129.731474,30.027523 130.608354,35.3170532 135.488534,37.9640345 C142.005977,41.5010256 146.526736,34.9234633 145.950578,33.9731739" id="Fill-273" fill="#FFCFDF"></path>
                        <path d="M152.993976,33 C152.993976,33 153.331133,39.0697471 148.960829,41.420912 C144.390949,43.8798493 141.149316,42.9435219 139.543361,42.0934124 C138.914057,41.7606109 138.809598,40.8949822 139.344633,40.4207832 C140.564174,39.3404717 142.756969,37.6307687 144.687342,37.3617686 C147.54426,36.9643036 150.689078,36.5082104 152.993976,33" id="Fill-275" fill="#FFDEEB"></path>
                        <path d="M73,67 C73,67 111.560639,58.0656344 113.337534,57.6262537 C115.115301,57.1868731 119.141828,55.2825975 117.690537,49.7174025 C116.240117,44.1513287 114.788825,38 114.788825,38 L74.1605105,49.7174025 L73,67 Z" id="Fill-277" fill="#23478D"></path>
                        <path d="M73.2253159,189.088261 C73.2253159,189.088261 76.5124024,194.706929 75.6602596,197.588695 C74.4567716,201.660419 70.4932148,208.024966 64.9538491,214.187738 C54.684435,225.613053 49.4544627,227.925709 49.0428122,230.516884 C48.6311616,233.108059 51.2277939,234.828324 55.1214313,233.589216 C59.6006439,232.164716 68.1369305,229.396772 76.7527504,224.211835 C84.8240729,219.356292 101.028771,209.109724 103.409528,206.714288 C105.790284,204.320577 107.429894,200.976624 104.187381,197.127371 C101.913252,194.42841 96.0714849,186.569518 92.3744958,181 L73.2253159,189.088261 Z" id="Fill-279" fill="#FFAEAE"></path>
                        <path d="M104.18762,197.388324 C103.144065,196.124381 101.345375,193.7469 99.3509093,191 C91.8485021,196.331959 83.8479154,201.965611 75.3482754,198.81059 C73.8642251,202.964804 70.0876755,208.964358 64.9538056,214.790636 C54.6843176,226.444951 49.4543077,228.803961 49.0426542,231.447071 C48.6318747,234.090182 51.2276516,235.844926 55.1213171,234.580983 C59.6005618,233.127931 68.1369098,230.304509 76.7527917,225.015648 C84.8241723,220.061905 101.030735,209.610842 103.409761,207.167394 C105.78966,204.725705 107.430156,201.314729 104.18762,197.388324" id="Fill-281" fill="#42426C"></path>
                        <path d="M71.4606365,8.13680606 C62.3862937,22.3764346 27.5511098,44.1722293 5.30390897,77.8842207 C-7.34027834,97.0427242 11.1579271,111.594469 18.7692044,120.312786 C26.2145038,128.841045 52.4328822,161.870392 68.8260649,195 C79.9501044,190.931161 96.6357246,182.212843 96.6357246,182.212843 C96.6357246,182.212843 71.6863315,122.209021 63.996017,113.047812 C55.2141116,102.585831 46.2855485,96.4830082 46.2855485,96.4830082 C46.2855485,96.4830082 51.0760778,91.0401624 59.4584065,86.0210268 C77.9004077,74.9775336 102.472179,58.7213581 109.515267,51.7283953 C121.517497,39.8130703 132.641536,27.8986171 121.22506,-6.57911225e-13 L71.4606365,8.13680606 Z" id="Fill-283" fill="#42426C"></path>
                    </g>
                    <g id="Group-288" transform="translate(337.000000, 76.000000)">
                        <mask id="mask-28" fill="white">
                            <use xlink:href="#path-27"></use>
                        </mask>
                        <g id="Clip-287"></g>
                        <path d="M1.09375,1.21609319 L9.43162215e-13,9.21154139 C9.43162215e-13,9.21154139 2.1875,42.4898933 17.28125,44.8669185 C32.375,47.2439436 42,16.9908964 42,16.9908964 L41.34375,1 L1.09375,1.21609319 Z" id="Fill-286" fill="url(#radialGradient-29)" mask="url(#mask-28)"></path>
                    </g>
                    <g id="Group-299" transform="translate(245.000000, 8.000000)">
                        <path d="M141.057831,68.502469 C138.56539,61.2800121 133.726552,57.8130941 126.468296,56.5129998 C120.795419,55.4963261 118.800058,52.026808 112.831572,53.2627642 C104.106708,55.0681618 103.180291,59.633226 98.242037,61.2800121 C95.8586896,62.0739363 92.7574346,62.7300505 89.7371202,66.2637067 C86.2179657,70.3806718 87.0977543,74.9310017 87.0977543,74.9310017 L98.5350066,112.850417 C98.5350066,112.850417 99.4139155,105.952117 97.7651915,97.682651 C95.748716,87.570518 93.7603937,84.7215781 94.1360634,79.9146963 C94.2829881,78.0364935 95.5305284,73.4731627 102.64098,75.7249259 C108.799501,77.6750673 113.638338,79.6980139 118.037281,79.0479668 C123.582589,78.2280407 125.148613,74.5695755 126.688243,75.436305 C129.285379,76.8984776 130.207398,79.9146963 128.887715,84.6817085 C127.568032,89.4487208 124.048877,93.4573447 122.729194,99.41611 C121.818613,103.526141 121.16581,109.930406 125.148613,116.027848 C127.273303,119.280683 130.515324,121.453574 132.076948,122.384442 C136.805812,125.201313 144.943857,124.334583 150.002642,119.784253 C155.061427,115.233923 161,117.689368 161,117.689368 C161,117.689368 154.951453,103.09971 151.102378,94.4324154 C147.363276,93.02398 145.374954,91.4595332 144.064069,89.4487208 C139.286816,82.1179227 143.126214,74.4924366 141.057831,68.502469" id="Fill-289" fill="#423748"></path>
                        <path d="M48.8616586,13.0903004 C48.1014231,20.7194611 43.5954089,26.4851926 38.7962097,25.9677211 C33.9978628,25.4511356 29.4918485,18.7975505 31.482779,11.2188965 C33.4268339,3.82011698 37.6200607,-0.474719462 42.4184076,0.0418659822 C47.2176068,0.558451426 49.621894,5.4611397 48.8616586,13.0903004" id="Fill-291" fill="#423748"></path>
                        <path d="M42,63.8178431 L43.4664202,81 L72,60.5416399 C72,60.5416399 68.8462283,55.1538145 70.8997447,47 L42,63.8178431 Z" id="Fill-293" fill="#E09595"></path>
                        <path d="M38.013267,88 C38.013267,88 37.5746269,82.5951899 41.7417081,77.838957 C46.1509187,73.4917601 59.8110498,63.3973043 71.5516915,57.2332265 C72.4412537,56.7662509 73.5413632,57.0170341 74.1098408,57.8377005 C75.6529768,60.0679413 78.9041774,65.0118292 81,68.1102988 L38.013267,88 Z" id="Fill-295" fill="#638FFA"></path>
                        <path d="M-8.73967565e-13,128.141263 C-8.73967565e-13,128.141263 24.8687259,108.188351 27.0501931,104.718279 C29.2316602,101.248207 34.166139,91.4617377 36.2123552,88.0185591 C39.0482625,83.2472105 41.4478764,77.3914645 51.4826255,70.88508 C61.5173745,64.3786956 70.2432432,64.3786956 75.4787645,65.6799725 C80.7142857,66.9812493 87.2586873,73.0538748 89.8764479,79.9940182 C93.920888,90.7165398 97.7297297,97.7781357 99.03861,109.489628 C100.34749,121.20112 102.528958,138.117719 104.274131,146.792899 C106.019305,155.468078 113,177.589785 113,177.589785 L74.6061776,188 C74.6061776,188 60.1395598,175.494729 55.4092664,171.0834 C50.5873514,166.586188 47.3256216,150.545781 45.3745174,146.792899 C42.5063243,141.276352 39.7027027,136.816442 39.7027027,136.816442 C39.7027027,136.816442 31.8494208,146.35914 26.6138996,148.961693 C21.3783784,151.564247 12.6525097,154.166801 12.6525097,154.166801 L-8.73967565e-13,128.141263 Z" id="Fill-297" fill="#D8DDEA"></path>
                    </g>
                    <g id="Group-302" transform="translate(274.000000, 14.000000)">
                        <mask id="mask-31" fill="white">
                            <use xlink:href="#path-30"></use>
                        </mask>
                        <g id="Clip-301"></g>
                        <path d="M3.07114217,18.5349803 C-2.11822647,35.3057262 -1.27328414,55.2900645 9.80986093,59.3232831 C20.893006,63.3565017 37.5237961,48.6906458 43.2085056,33.1419823 C48.8932152,17.5933189 40.1948201,6.45003804 29.1116751,2.41681948 C26.5508232,1.48467863 24.0454911,1 21.6451261,1 C13.6554763,1 6.83434531,6.37473976 3.07114217,18.5349803" id="Fill-300" fill="url(#radialGradient-32)" mask="url(#mask-31)"></path>
                    </g>
                    <g id="Group-333" transform="translate(151.000000, 1.000000)">
                        <path d="M131.600004,21.2201109 C131.863644,21.3553867 132.143762,21.4414713 132.438622,21.4643101 C133.994444,21.5820176 135.446197,22.5930722 145.563376,22.1837312 C151.241173,21.9527083 156.69262,21.597829 160.450355,23.2079621 C165.275658,25.275749 167.093385,27.7159836 166.810666,33.45642 C166.665838,36.3841744 164.331238,39.1098935 163.052064,40.7762451 C161.028802,43.4114875 159.694992,45.5978604 159.426149,48.6204834 C159.30647,49.9662139 160.340216,51.1380184 161.672291,51.2021426 L161.815385,51.2091699 C163.073745,51.2697805 164.064129,52.3212422 164.064129,53.597578 C164.064129,55.500223 166.154168,56.6535808 167.717796,55.6003623 C169.225052,54.5866723 171.018497,53.0758 172.736492,50.8780078 C176.855865,45.6075229 176.373681,42.2194795 177.93991,38.1410027 C178.951975,35.5057602 181.264027,33.45642 180.975237,29.3568612 C180.617936,24.2998309 179.240765,20.86611 174.904583,18.3766843 C171.129503,16.210515 168.255482,13.9117052 167.388246,11.4960663 C166.521009,9.08042741 166.015411,6.37227659 159.294329,2.41941293 C152.573248,-1.53345074 146.502593,0.149590768 143.033648,1.90641906 C139.564703,3.66324736 134.905042,2.02149132 130.89234,6.51809334 C127.495375,10.3251403 127.678362,15.3795353 128.50744,17.7178737 C129.235051,19.7733628 130.787404,20.8037426 131.600004,21.2201109" id="Fill-303" fill="#423748"></path>
                        <path d="M167.15122,53.0627784 C164.490674,55.7499472 161.146763,56.780252 159.68253,55.3654676 C158.218297,53.9498456 159.187387,50.6235528 161.84878,47.9372216 C164.509326,45.2500528 167.853237,44.219748 169.31747,45.6345324 C170.781703,47.0501544 169.812613,50.3756095 167.15122,53.0627784" id="Fill-305" fill="#FFAEAE"></path>
                        <path d="M88.9094389,137 C88.9094389,137 78.7276005,141.063127 63.3095377,148.898599 C47.8923475,156.73407 34.2196928,164.859454 30.4382661,165.149367 C22.7584702,165.738768 19.3837236,164.859454 15.0202032,166.019975 C10.6566829,167.181366 4.54775436,172.405013 4.54775436,172.405013 C4.54775436,172.405013 0.47484445,175.452141 1.05693807,179.805181 C1.39031102,182.302085 2.51173576,184.448133 4.23794441,187.620628 C5.14642935,189.290455 7.17895713,190.018283 9.07447038,189.838067 L19.4195045,190 C21.4860677,189.804113 22.9932276,188.107298 23.1651503,186.043957 C23.251548,185.012287 23.9060761,182.156693 25.3469105,181.111093 C28.5471163,178.789181 31.455839,179.514398 31.455839,179.514398 L38.5832132,180.965701 C40.8208264,180.552163 42.800992,179.659789 44.6921417,177.047966 C44.6921417,177.047966 45.4191042,175.742054 46.8739019,175.596662 C50.9677567,175.188347 83.382604,169.79319 102,163.118238 L88.9094389,137 Z" id="Fill-307" fill="#FFAEAE"></path>
                        <path d="M88.4186109,135.359335 C87.2433838,136.044161 86.7118785,137.444002 87.1555245,138.72223 C88.2768182,141.9523 90.3889213,148.194227 92.8133165,153.344227 C94.9915316,157.972413 97.6107831,162.378935 99.1391872,164.838791 C99.9951631,166.215344 101.515738,167.026096 103.14505,166.999359 C104.70999,166.973484 106.563734,165.905706 108.688886,165.203629 C110.37996,164.644728 112.234575,164.850004 113.603788,164.25574 C115.64108,163.371675 116.554469,161.007557 115.652389,158.99189 L102.453484,129.519334 C101.714074,127.868505 99.5410783,127.482966 98.2536349,128.759469 C96.7304501,130.26971 94.7714484,131.996439 93.03079,132.859804 C91.3031801,133.716268 89.6486413,134.642595 88.4186109,135.359335" id="Fill-309" fill="#638FFA"></path>
                        <path d="M159.44697,187.333236 L150,178.86273 C150,178.86273 159.88197,183.264106 170.358879,184.837899 C174.239606,185.420203 173.914455,184.075484 173.434636,183.744987 C168.167182,180.119142 165.268939,177.660527 163.731061,175.474703 C163.02803,174.476218 164.059727,173.544183 165.964939,174.418512 C167.868394,175.292842 175.631606,178.86273 186.27197,180.015097 C192.684485,180.709315 197.34997,178.831254 198.699788,178.280427 C200.048727,177.729599 200.717485,176.288704 200.969697,174.928247 C201.823,170.339765 201.768515,167.250758 201.628788,164 C201.848485,165.092912 208,185.475286 208,185.475286 L167.136364,194 L159.44697,187.333236 Z" id="Fill-311" fill="#C5CBD8"></path>
                        <path d="M135,144.882796 C135,144.882796 156.648905,125.22023 167.31542,115.191002 C168.003639,114.543501 168.418335,115.63088 167.339243,117.120309 C157.623882,130.53836 140.73516,155 140.73516,155 L135,144.882796 Z" id="Fill-313" fill="#C5CBD8"></path>
                        <path d="M193.898395,131.176537 C193.034289,138.060656 192.810971,140.273596 191.6643,147.027594 C190.586902,153.370126 190.948769,158.014928 191.834751,156.808669 C193.73159,154.226465 194.341386,147.796892 196.734083,147.192004 C197.990135,146.874613 199.240717,152.082981 200,154.189539 C199.821345,152.766117 198.535214,145.732535 197.531648,138.729725 C196.219995,129.565847 195.113429,119.954457 194.78073,118 C194.78073,118 194.7625,124.292418 193.898395,131.176537" id="Fill-315" fill="#C5CBD8"></path>
                        <path d="M206.54339,292.738796 C201.413379,288.446178 200.285213,283.553034 200.103589,279.860943 C200.003172,277.820739 200.431036,275.348191 200.585592,274.187643 C200.633617,273.82134 200.261637,273.993045 199.885291,274.687788 C198.575501,277.109265 198.037614,278.328809 197.265711,281.842151 C196.920799,283.407746 197.047412,286.024701 197.447335,287.791059 C197.66738,288.764052 197.065749,289.668363 196.100871,289.445588 C196.088646,289.442065 196.077294,289.439424 196.06507,289.436782 C184.634096,286.802216 181.998798,283.620836 179.416765,280.759091 C179.270069,280.596191 179.001125,280.703617 179.000252,280.923751 C178.990647,283.882355 179.256098,286.575918 179.692694,288.776379 C180.045465,290.555945 182.064288,292.022039 184.058661,291.748192 C202.504871,289.216648 209.963688,300.773695 211.564252,300.99383 C213.086228,301.202517 210.43172,296.070748 206.54339,292.738796" id="Fill-317" fill="#5581EE"></path>
                        <path d="M166.905378,208 L166.160282,208.796355 C165.885408,209.088494 165.976168,209.559494 166.340073,209.733244 L184.981315,218.642204 C186.328885,219.286102 187.940091,219.046769 189.034397,218.038336 L191,215.878382 L166.905378,208 Z" id="Fill-319" fill="#2B2B51"></path>
                        <path d="M228,153.599221 C228,153.599221 232.905985,145.652972 242.529972,150.118233 C251.209656,154.144086 249.392202,164 249.392202,164 C249.392202,164 251.259726,160.210548 252.645876,159.441585 C260.765127,154.935899 257.322592,150.696494 259.48351,148.248114 C261.848221,145.566849 263.353835,145.737339 263.952919,140.018009 C264.490513,134.875181 260.272332,132.688689 259.03815,129.509135 C257.689773,126.03342 253.730726,123.353912 247.620426,124.136937 C243.481303,124.667741 240.420882,127.950995 238.371524,130.880087 C234.887704,135.858576 235.62997,139.405474 234.711141,142.012041 C233.982051,144.081651 228,153.599221 228,153.599221" id="Fill-321" fill="#638FFA"></path>
                        <path d="M244.586857,149.247125 C237.578053,145.1011 233.088038,147.719642 232.305681,148.998364 C231.196537,150.814759 230.01643,152.71233 228.926561,154.593316 C225.088365,161.214738 217.817607,168.9953 214.032853,173.57775 C213.603564,174.097967 212.878152,174.730781 212.353368,175.177679 C212.357749,175.185535 212.361253,175.192518 212.365634,175.1995 C208.491517,177.351069 201.612376,179.288791 194.758642,182.306225 C179.299849,189.111817 163,192.562183 163,192.562183 L167.088761,201 C185.340562,199.544963 209.2143,194.962514 218.413355,191.471124 C219.24127,191.156899 219.984203,190.861003 220.695597,190.54416 C224.258698,188.959941 226.852831,186.931444 234.949752,179.360364 C242.068068,172.704902 246.930426,166.918796 250.226316,162.722145 C252.302674,160.080036 250.125564,152.523795 244.586857,149.247125" id="Fill-323" fill="#FFAEAE"></path>
                        <path d="M228.049692,155.816724 C228.049692,155.816724 227.776892,154.720923 228.509655,153.332967 C229.486084,151.482069 231.313579,147.293927 236.896706,146.25361 C242.101974,145.283514 245.86467,147.253181 248.226287,149.5046 C251.457509,152.583939 252.083448,156.97581 251.991631,158.760821 C251.875978,161.026111 250.714151,163.368558 249.23803,165.054739 C248.215693,166.222494 247.489992,165.978887 247.489992,165.978887 C247.489992,165.978887 248.629748,164.576193 249.263633,163.307873 C250.358364,161.12234 250.28597,153.622522 243.294701,150.478164 C236.837555,147.574812 231.893609,149.721333 230.054638,152.610813 C229.030535,154.21897 228.049692,155.816724 228.049692,155.816724" id="Fill-325" fill="#FFDEEB"></path>
                        <path d="M154.652369,203.999982 C150.174427,204.010509 152.438994,199.491598 153.730925,193.539198 C155.0324,187.543811 156.478773,185.862927 158.575015,186.008557 C161.412231,186.206824 163.491988,186.301571 166.890574,189.664216 C168.814154,191.567932 171.496928,193.9138 172.385402,195.732418 C173.493391,197.997576 173.614862,201.361099 168.290093,202.395422 C164.926214,203.049001 159.467827,203.988577 154.652369,203.999982" id="Fill-327" fill="#E09595"></path>
                        <path d="M201,133 C202.170138,133.410256 208,137 208,137 C208,137 202.264329,136.076923 201,133" id="Fill-329" fill="#E09595"></path>
                        <path d="M215,137 C215,137 223.068473,130.40665 223.869553,130.018336 C224.670632,129.630023 221.790408,135.522104 215,137" id="Fill-331" fill="#E09595"></path>
                    </g>
                </g>
            </g>
        </g>
    </g>
</svg>