<?xml version="1.0" encoding="UTF-8"?>
<svg width="584px" height="545px" viewBox="0 0 584 545" version="1.1" xmlns="http://www.w3.org/2000/svg" xmlns:xlink="http://www.w3.org/1999/xlink">
    <!-- Generator: Sketch 51.3 (57544) - http://www.bohemiancoding.com/sketch -->
    <title>Карта Цифровой Visa Platinum</title>
    <desc>Created with Sketch.</desc>
    <defs>
        <polygon id="path-1" points="0 0.950102429 220.050562 0.950102429 220.050562 220.999698 0 220.999698"></polygon>
        <path d="M4.025,4.975 C4.025,4.975 9.608,14.975 8.358,20.725 C7.435,24.972 0.692,27.725 0.692,27.725 C0.692,27.725 2.525,60.225 12.358,59.059 C32.025,56.725 41.025,22.059 41.025,22.059 C36.358,19.391 29.025,0.725 29.025,0.725 L4.025,4.975 Z" id="path-3"></path>
        <path d="M39.692,33.392 C56.358,50.392 64.873,62.064 67.358,68.392 C71.025,77.725 64.692,93.725 57.358,107.725 C54.784,112.639 50.692,119.725 56.025,121.392 C60.049,122.649 69.917,121.149 78.025,112.392 C86.358,103.392 98.025,83.725 97.358,74.725 C96.692,65.725 91.692,67.725 87.358,62.725 C83.025,57.725 77.496,47.891 74.692,40.725 C71.693,33.058 63.025,12.392 63.025,12.392 L0.025,0.392 C0.025,0.392 23.025,16.392 39.692,33.392" id="path-5"></path>
        <path d="M0.858,11.892 C0.858,11.892 16.352,20.627 21.192,28.725 C29.858,43.225 23.692,59.392 22.692,63.725 C21.692,68.058 20.358,73.058 23.692,74.725 C27.025,76.392 37.858,75.725 43.858,67.058 C49.858,58.392 47.692,46.392 47.358,42.392 C47.025,38.392 48.358,23.058 47.692,19.392 C47.025,15.725 45.86,12.145 42.358,11.058 C39.764,10.254 37.699,10.505 35.826,10.756 C34.21,10.972 32.736,11.189 31.192,10.725 C27.858,9.725 19.858,0.392 19.858,0.392 L0.858,11.892 Z" id="path-7"></path>
        <path d="M6.168,2.812 C-2.836,9.234 -0.484,27.968 11.42,44.655 C23.324,61.341 40.272,69.661 49.275,63.238 C58.278,56.817 55.926,38.083 44.022,21.397 C34.846,8.534 22.673,0.642 13.453,0.643 C10.712,0.643 8.231,1.341 6.168,2.812" id="path-9"></path>
        <path d="M6.168,2.812 C-2.836,9.234 -0.484,27.968 11.42,44.655 C23.324,61.341 40.272,69.661 49.275,63.238 C58.278,56.817 55.926,38.083 44.022,21.397 C34.846,8.534 22.673,0.642 13.453,0.643 C10.712,0.643 8.231,1.341 6.168,2.812" id="path-11"></path>
        <path d="M6.168,2.812 C-2.836,9.234 -0.484,27.968 11.42,44.655 C23.324,61.341 40.272,69.661 49.275,63.238 C58.278,56.817 55.926,38.083 44.022,21.397 C34.846,8.534 22.673,0.642 13.453,0.643 C10.712,0.643 8.231,1.341 6.168,2.812" id="path-13"></path>
        <path d="M6.168,2.812 C-2.836,9.234 -0.484,27.968 11.42,44.655 C23.324,61.341 40.272,69.661 49.275,63.238 C58.278,56.817 55.926,38.083 44.022,21.397 C34.846,8.534 22.673,0.642 13.453,0.643 C10.712,0.643 8.231,1.341 6.168,2.812" id="path-15"></path>
        <path d="M6.168,2.812 C-2.836,9.234 -0.484,27.968 11.42,44.655 C23.324,61.341 40.272,69.661 49.275,63.238 C58.278,56.817 55.926,38.083 44.022,21.397 C34.846,8.534 22.673,0.642 13.453,0.643 C10.712,0.643 8.231,1.341 6.168,2.812" id="path-17"></path>
        <path d="M6.168,2.812 C-2.836,9.234 -0.484,27.968 11.42,44.655 C23.324,61.341 40.272,69.661 49.275,63.238 C58.278,56.817 55.926,38.083 44.022,21.397 C34.846,8.534 22.673,0.642 13.453,0.643 C10.712,0.643 8.231,1.341 6.168,2.812" id="path-19"></path>
        <path d="M6.168,2.812 C-2.836,9.234 -0.484,27.968 11.42,44.655 C23.324,61.341 40.272,69.661 49.275,63.238 C58.278,56.817 55.926,38.083 44.022,21.397 C34.846,8.534 22.673,0.642 13.453,0.643 C10.712,0.643 8.231,1.341 6.168,2.812" id="path-21"></path>
        <path d="M6.168,2.812 C-2.836,9.234 -0.484,27.968 11.42,44.655 C23.324,61.341 40.272,69.661 49.275,63.238 C58.278,56.817 55.926,38.083 44.022,21.397 C34.846,8.534 22.673,0.642 13.453,0.643 C10.712,0.643 8.231,1.341 6.168,2.812" id="path-23"></path>
        <path d="M6.168,2.812 C-2.836,9.234 -0.484,27.968 11.42,44.655 C23.324,61.341 40.272,69.661 49.275,63.238 C58.278,56.817 55.926,38.083 44.022,21.397 C34.846,8.534 22.673,0.642 13.453,0.643 C10.712,0.643 8.231,1.341 6.168,2.812" id="path-25"></path>
        <path d="M1.525,1.225 L0.275,10.475 C0.275,10.475 2.775,48.975 20.025,51.725 C37.275,54.475 48.275,19.475 48.275,19.475 L47.525,0.975 L1.525,1.225 Z" id="path-27"></path>
        <radialGradient cx="-140.103861%" cy="-9.00413096%" fx="-140.103861%" fy="-9.00413096%" r="212.722287%" gradientTransform="translate(-1.401039,-0.090041),scale(1.000000,0.942952),rotate(16.305095),translate(1.401039,0.090041)" id="radialGradient-29">
            <stop stop-color="#FFE8E8" offset="0%"></stop>
            <stop stop-color="#FDACAC" offset="100%"></stop>
        </radialGradient>
        <path d="M4.007,20.848 C-1.975,40.225 -1.001,63.315 11.775,67.975 C24.551,72.635 43.722,55.69 50.275,37.725 C56.828,19.76 46.801,6.885 34.025,2.225 C31.073,1.148 28.185,0.588 25.418,0.588 C16.208,0.588 8.345,6.798 4.007,20.848" id="path-30"></path>
        <radialGradient cx="-97.2399292%" cy="31.0066014%" fx="-97.2399292%" fy="31.0066014%" r="168.150431%" gradientTransform="translate(-0.972399,0.310066),scale(1.000000,0.760954),rotate(15.629594),translate(0.972399,-0.310066)" id="radialGradient-32">
            <stop stop-color="#FFE8E8" offset="0%"></stop>
            <stop stop-color="#FDACAC" offset="100%"></stop>
        </radialGradient>
    </defs>
    <g id="Частным" stroke="none" stroke-width="1" fill="none" fill-rule="evenodd">
        <g id="-Мобильный-банк.png-БКС-Платинум.png-Доходный-фунт.png-Кредит-Онлайн.png-Рефенансирование.png-Цифровой-Signature.png-Цифровой-Visa-Platinum.png-More-Signature.png-more-visa-platinum.png" transform="translate(-3692.000000, -9232.000000)">
            <g id="Карта-Цифровой-Visa-Platinum" transform="translate(3601.000000, 9120.000000)">
                <rect id="Rectangle-8-Copy-6" fill-rule="nonzero" x="0" y="0" width="767" height="767"></rect>
                <g id="Group-334" transform="translate(91.000000, 111.000000)">
                    <g id="Group-140" transform="translate(0.000000, 78.696000)">
                        <path d="M151.051,49.2473 C151.051,70.6023 133.739,87.9143 112.384,87.9143 C91.03,87.9143 73.718,70.6023 73.718,49.2473 C73.718,27.8923 91.03,10.5803 112.384,10.5803 C133.739,10.5803 151.051,27.8923 151.051,49.2473" id="Fill-1" fill="#E9EEFB"></path>
                        <path d="M152.8191,48.7346 C126.7751,48.7346 112.8981,36.3086 112.8981,8.8416 L112.8981,2.6076 L111.8711,2.6076 L111.8711,8.8416 C111.8711,36.3086 97.7751,48.7346 71.9501,48.7346 L65.7361,48.7346 L65.7361,49.7616 L71.9711,49.7616 C97.7711,49.7716 111.8751,63.5376 111.8751,89.6536 L111.8751,95.8886 L112.9021,95.8886 L112.9021,89.6536 C112.9021,63.5376 126.7721,49.7796 152.7821,49.7616 L159.0171,49.7616 L159.0171,48.7346 L152.8191,48.7346 Z" id="Fill-3" fill="#FFFFFF"></path>
                        <path d="M124.9812,31.2903 L134.2502,47.5073 C135.3162,49.3733 134.6692,51.7503 132.8022,52.8173 L105.0982,68.6523 C103.2312,69.7193 100.8542,69.0703 99.7882,67.2053 L90.5192,50.9873 C89.4522,49.1213 90.1002,46.7443 91.9662,45.6773 L119.6712,29.8423 C121.5372,28.7763 123.9142,29.4243 124.9812,31.2903" id="Fill-5" fill="#FF7E59"></path>
                        <path d="M186.1916,138.8914 C186.1916,138.8914 182.0246,141.8494 184.2746,143.9744 C186.5616,146.1344 191.7346,142.8454 194.6916,141.7244 C198.6496,140.2244 206.6916,137.7244 206.6916,137.7244 L191.5246,135.7244 L186.1916,138.8914 Z" id="Fill-7" fill="#E09595"></path>
                        <polygon id="Fill-9" fill="#E09595" points="213.0251 140.7249 205.7751 144.2249 204.2331 153.4329 206.5461 157.2039"></polygon>
                        <path d="M234.279,160.9758 C233.883,160.9758 233.481,160.9288 233.079,160.8298 L204.472,153.7848 L204.389,154.1328 C203.75,156.8198 201.053,158.4758 198.367,157.8388 C195.681,157.1998 194.022,154.5028 194.661,151.8168 L195.911,146.5668 C196.22,145.2698 197.033,144.1508 198.171,143.4558 C199.309,142.7618 200.677,142.5498 201.971,142.8698 L235.471,151.1198 C238.152,151.7798 239.79,154.4888 239.13,157.1708 C238.569,159.4498 236.526,160.9758 234.279,160.9758" id="Fill-11" fill="#E86A46"></path>
                        <path d="M240.1916,147.1414 L234.1806,149.9114 C233.2706,150.3294 232.2456,150.4284 231.2726,150.1894 L220.0246,147.4334 C216.6496,146.6414 213.8086,148.1474 212.3446,149.5454 L211.8596,150.0074 C210.2986,151.4984 209.7236,153.2214 210.5246,155.2244 C210.5246,155.2244 210.4416,157.3234 208.4606,157.9754 C207.4506,158.3084 206.4006,157.5734 206.3796,156.5104 C206.3656,155.8204 206.2396,155.1664 206.1086,154.6414 C205.7746,153.3084 204.9416,151.7244 204.9416,151.7244 C204.1796,150.2014 204.3876,148.6804 205.6416,147.5254 L213.0246,140.7244 L240.1916,147.1414 Z" id="Fill-13" fill="#E09595"></path>
                        <path d="M239.3586,147.3914 C239.3586,147.3914 291.3586,133.7244 306.2756,123.9744 L287.0256,101.7244 C287.0256,101.7244 266.0256,115.3914 247.0256,127.3914 C237.5866,133.3524 219.0256,142.7244 219.0256,142.7244 L239.3586,147.3914 Z" id="Fill-15" fill="#E09595"></path>
                        <path d="M209.4416,158.4958 L222.1266,160.5088 C223.1446,160.6918 224.8486,160.4708 225.5816,159.3168 L227.3996,156.4328 C228.0976,155.3348 227.5246,153.8758 226.2656,153.5478 L216.7716,150.9878 C215.4476,150.6418 214.0396,150.9878 213.0276,151.9078 L210.5046,154.2028 C209.9376,154.7188 209.1516,154.9198 208.4066,154.7408 L207.2536,154.4648 L207.3166,156.3078 C207.3786,157.4958 208.0666,158.1838 209.4416,158.4958" id="Fill-17" fill="#E09595"></path>
                        <path d="M333.3582,90.3914 C333.3582,90.3914 325.5252,102.9744 321.7752,109.4744 C317.9762,116.0584 310.3582,122.0584 310.3582,122.0584 L294.0252,102.0584 L321.3582,70.0584 L333.3582,90.3914 Z" id="Fill-19" fill="#C5CBD8"></path>
                        <path d="M287.8582,104.6414 C287.8582,104.6414 292.0252,109.7244 297.0252,114.9744 C300.0932,118.1964 303.2072,121.7594 305.6292,123.9854 C307.0632,125.3044 309.2272,125.4084 310.7752,124.2244 C312.1842,123.1474 313.3262,121.4854 315.0252,119.9744 C316.0382,119.0754 317.9392,117.4714 319.0252,116.4744 C320.3372,115.2714 320.3902,113.2254 319.1492,111.9494 L307.0252,98.4744 L287.8582,104.6414 Z" id="Fill-21" fill="#5581EE"></path>
                        <path d="M276.3167,314.7669 L276.4837,324.9459 C276.4837,327.9129 273.6897,329.7879 270.7747,329.2249 C266.7337,328.4449 258.6777,326.7999 252.7747,325.2249 C242.8957,322.5879 237.4837,319.4329 235.8167,321.4329 C234.3077,323.2449 234.8997,326.7249 236.8997,329.7249 C238.8997,332.7249 245.4757,338.4209 267.7747,348.5999 C277.8167,353.1829 286.6667,357.3959 291.0247,358.9749 C294.9127,360.3839 299.3547,357.3379 299.7747,353.2249 C300.5207,345.9349 301.4837,330.4329 300.4837,319.5999 L276.3167,314.7669 Z" id="Fill-23" fill="#E09595"></path>
                        <path d="M275.5457,327.6233 C274.4837,328.9313 272.6567,329.5883 270.7747,329.2253 C266.7337,328.4443 258.6777,326.8003 252.7747,325.2253 C242.8957,322.5883 237.4837,319.4333 235.8167,321.4333 C234.3077,323.2443 234.8997,326.7253 236.8997,329.7253 C238.8997,332.7253 245.4757,338.4213 267.7747,348.6003 C277.8167,353.1833 286.6667,357.3953 291.0247,358.9753 C294.9127,360.3843 299.3547,357.3383 299.7747,353.2253 C300.1247,349.8073 300.5197,344.5773 300.7397,338.8773 C291.1867,337.5823 281.8857,334.8653 275.5457,327.6233" id="Fill-25" fill="#2B2B51"></path>
                        <path d="M357.5251,151.7249 C340.5251,157.0579 311.5871,161.8519 284.5251,170.7249 C254.0251,180.7249 241.0251,188.3919 239.0251,198.3919 C237.0251,208.3919 241.0251,217.0579 248.6911,232.0579 C256.1721,246.6939 264.2991,266.2409 269.3581,284.7249 C275.8581,308.4749 275.7751,323.7249 275.7751,323.7249 C275.7751,323.7249 291.8581,326.8919 310.3581,324.3919 C310.3581,324.3919 306.1921,261.0579 299.6921,245.3919 C292.8441,228.8879 285.5251,217.7249 285.5251,217.7249 L378.5251,203.7249 C378.5251,203.7249 362.5251,157.0579 357.5251,151.7249" id="Fill-27" fill="#2B2B51"></path>
                        <path d="M154.1501,216.4749 C154.1501,216.4749 163.1501,184.3499 163.6501,182.8499 C164.1501,181.3499 165.4951,179.6519 168.0251,180.3499 C171.6501,181.3499 179.4001,183.3499 179.4001,183.3499" id="Stroke-29" stroke="#E9EEFB" stroke-width="2" stroke-linecap="round"></path>
                        <path d="M149.9675,216.4749 L168.8585,216.4749" id="Stroke-31" stroke="#E9EEFB" stroke-width="3" stroke-linecap="round"></path>
                        <path d="M154.5925,197.2249 L159.1915,197.2249" id="Stroke-33" stroke="#E9EEFB" stroke-width="3"></path>
                        <path d="M274.0911,359.1477 L259.1321,352.2007 C256.2511,350.8627 255.0011,347.4437 256.3391,344.5627 L256.8731,343.4137 L282.2621,355.2057 L281.7281,356.3547 C280.3901,359.2357 276.9711,360.4857 274.0911,359.1477" id="Fill-35" fill="#23478D"></path>
                        <polygon id="Fill-37" fill="#E9EEFB" points="559.0251 413.7249 472.4811 355.8969 532.0911 441.1039"></polygon>
                        <polygon id="Fill-39" fill="#E9EEFB" points="373.2771 343.3499 473.2081 356.4569 441.6981 259.0999 391.1501 292.8499"></polygon>
                        <path d="M473.5251,366.221 C468.4191,366.221 464.2791,362.081 464.2791,356.975 C464.2791,351.868 468.4191,347.729 473.5251,347.729 C478.6311,347.729 482.7711,351.868 482.7711,356.975 C482.7711,362.081 478.6311,366.221 473.5251,366.221 M473.5251,341.575 C465.0201,341.575 458.1261,348.47 458.1261,356.975 C458.1261,365.48 465.0201,372.374 473.5251,372.374 C482.0301,372.374 488.9241,365.48 488.9241,356.975 C488.9241,348.47 482.0301,341.575 473.5251,341.575" id="Fill-41" fill="#D8DDEA"></path>
                        <path d="M322.8191,375.176 C322.5311,375.176 322.2381,375.125 321.9521,375.02 L266.9951,354.695 C265.7001,354.216 265.0391,352.778 265.5181,351.483 C265.9961,350.188 267.4341,349.528 268.7301,350.005 L323.6861,370.33 C324.9811,370.809 325.6421,372.247 325.1641,373.542 C324.7911,374.551 323.8351,375.176 322.8191,375.176" id="Fill-43" fill="#C5CBD8"></path>
                        <path d="M25.5251,297.9749 L109.9831,356.8919 L19.2751,402.4749 C19.2751,402.4749 4.0591,378.3489 7.8091,348.0989 C11.5591,317.8489 25.5251,297.9749 25.5251,297.9749" id="Fill-45" fill="#E9EEFB"></path>
                        <path d="M191.0251,421.4749 L110.1411,356.8099 C110.1411,356.8099 197.7761,351.7509 212.3151,350.9979 C216.7431,393.2249 191.0251,421.4749 191.0251,421.4749" id="Fill-47" fill="#E9EEFB"></path>
                        <g id="Group-51" transform="translate(0.000000, 246.000000)">
                            <mask id="mask-2" fill="white">
                                <use xlink:href="#path-1"></use>
                            </mask>
                            <g id="Clip-50"></g>
                            <path d="M104.1755,113.8089 C102.6105,110.5789 103.9605,106.6909 107.1915,105.1249 C110.4215,103.5599 114.3095,104.9109 115.8745,108.1409 C117.4405,111.3709 116.0905,115.2589 112.8595,116.8249 C109.6285,118.3899 105.7405,117.0389 104.1755,113.8089 M22.7315,153.2689 C-0.6275,105.0579 19.5205,47.0389 67.7315,23.6809 C115.9425,0.3229 173.9605,20.4699 197.3195,68.6809 C220.6775,116.8919 200.5295,174.9109 152.3195,198.2689 C104.1075,221.6269 46.0895,201.4799 22.7315,153.2689 M209.0185,63.0129 C182.5295,8.3399 116.7355,-14.5061 62.0635,11.9819 C7.3905,38.4699 -15.4565,104.2649 11.0315,158.9369 C37.5205,213.6099 103.3145,236.4559 157.9875,209.9679 C212.6595,183.4799 235.5075,117.6849 209.0185,63.0129" id="Fill-49" fill="#2B2B3D" mask="url(#mask-2)"></path>
                        </g>
                        <path d="M25.0544,398.1428 C2.3184,351.2148 21.9294,294.7408 68.8574,272.0038 C115.7844,249.2678 172.2594,268.8788 194.9954,315.8068 C217.7324,362.7348 198.1214,419.2088 151.1934,441.9458 C104.2654,464.6818 47.7914,445.0708 25.0544,398.1428 M198.2194,314.2458 C174.6194,265.5378 116.0034,245.1818 67.2954,268.7808 C18.5874,292.3798 -1.7676,350.9968 21.8314,399.7048 C45.4304,448.4128 104.0464,468.7678 152.7554,445.1688 C201.4634,421.5698 221.8184,362.9538 198.2194,314.2458" id="Fill-52" fill="#C5CBD8"></path>
                        <path d="M43.1775,389.2932 C40.5075,383.7802 35.6095,370.8062 38.9845,369.1702 C42.3585,367.5352 49.5605,379.5332 52.2585,385.1022 C54.9565,390.6702 59.6875,403.5872 56.4255,405.1682 C53.1625,406.7482 45.8215,394.7492 43.1775,389.2932" id="Fill-54" fill="#E86A46"></path>
                        <path d="M110.3054,241.5042 L110.3054,241.4982 C107.4624,241.4922 98.4934,241.1622 84.4334,243.7682 L84.4444,243.8142 C85.4274,247.9192 89.3414,250.6722 93.5254,250.1122 C94.2824,250.0122 95.0414,249.9182 95.8034,249.8332 C100.9284,249.2602 106.0094,249.0572 111.0234,249.1892 L111.0234,249.1842 C170.2964,250.7732 217.8584,299.3182 217.8584,358.9752 C217.8584,363.4932 217.5854,367.9472 217.0554,372.3232 C216.9374,373.3012 217.4004,374.9752 218.5254,375.8502 C219.6504,376.7252 222.1504,377.2252 224.1174,377.2192 C225.0444,371.2742 225.5254,365.1802 225.5254,358.9752 C225.5254,294.8442 174.1454,242.7202 110.3054,241.5042" id="Fill-56" fill="#2474CD"></path>
                        <path d="M473.5251,363.4749 C469.9351,363.4749 467.0251,360.5649 467.0251,356.9749 C467.0251,353.3849 469.9351,350.4749 473.5251,350.4749 C477.1151,350.4749 480.0251,353.3849 480.0251,356.9749 C480.0251,360.5649 477.1151,363.4749 473.5251,363.4749 M473.5251,453.9749 C419.9541,453.9749 376.5251,410.5459 376.5251,356.9749 C376.5251,303.4039 419.9541,259.9749 473.5251,259.9749 C527.0961,259.9749 570.5251,303.4039 570.5251,356.9749 C570.5251,410.5459 527.0961,453.9749 473.5251,453.9749 M473.5251,246.9749 C412.7741,246.9749 363.5251,296.2239 363.5251,356.9749 C363.5251,417.7259 412.7741,466.9749 473.5251,466.9749 C534.2761,466.9749 583.5251,417.7259 583.5251,356.9749 C583.5251,296.2239 534.2761,246.9749 473.5251,246.9749" id="Fill-58" fill="#2B2B3D"></path>
                        <path d="M473.5251,451.3928 C421.3791,451.3928 379.1071,409.1208 379.1071,356.9748 C379.1071,304.8298 421.3791,262.5568 473.5251,262.5568 C525.6711,262.5568 567.9431,304.8298 567.9431,356.9748 C567.9431,409.1208 525.6711,451.3928 473.5251,451.3928 M473.5251,258.9748 C419.4011,258.9748 375.5251,302.8508 375.5251,356.9748 C375.5251,411.0988 419.4011,454.9748 473.5251,454.9748 C527.6491,454.9748 571.5251,411.0988 571.5251,356.9748 C571.5251,302.8508 527.6491,258.9748 473.5251,258.9748" id="Fill-60" fill="#C5CBD8"></path>
                        <path d="M473.4626,431.2249 C467.3376,431.2249 453.5256,429.9749 453.5256,426.2249 C453.5256,422.4749 467.4626,421.2249 473.6496,421.2249 C479.8376,421.2249 493.5246,422.5999 493.5246,426.2249 C493.5246,429.8499 479.5246,431.2249 473.4626,431.2249" id="Fill-62" fill="#E86A46"></path>
                        <path d="M91.0251,232.4749 L109.9831,356.8919" id="Stroke-64" stroke="#E9EEFB" stroke-width="3" stroke-linecap="round"></path>
                        <path d="M220.2751,350.4749 L109.9831,356.9749" id="Stroke-66" stroke="#E9EEFB" stroke-width="2" stroke-linecap="round"></path>
                        <path d="M372.574,319.9632 C387.629,278.8172 427.162,249.4752 473.525,249.4752 C520.335,249.4752 560.011,279.4452 574.904,321.1522 C576.178,324.7212 580.495,324.8232 583.226,324.3452 C583.791,324.2462 584.146,323.6782 583.979,323.1312 C569.513,275.8562 525.537,241.4752 473.525,241.4752 C421.494,241.4752 377.504,275.8822 363.054,323.1842 C362.904,323.6762 363.229,324.1992 363.739,324.2692 C367.148,324.7342 371.541,322.7872 372.574,319.9632" id="Fill-68" fill="#2474CD"></path>
                        <path d="M322.821,378.3528 C322.442,378.3528 322.056,378.2988 321.675,378.1848 C319.558,377.5528 318.354,375.3248 318.986,373.2078 L371.692,196.5818 C372.324,194.4638 374.556,193.2588 376.669,193.8918 C378.786,194.5238 379.99,196.7518 379.358,198.8688 L326.652,375.4958 C326.134,377.2308 324.544,378.3528 322.821,378.3528" id="Fill-70" fill="#23478D"></path>
                        <path d="M473.5251,356.9749 L511.1691,238.0579" id="Stroke-72" stroke="#E9EEFB" stroke-width="3" stroke-linecap="round"></path>
                        <path d="M473.5251,356.9749 L571.5251,305.9379" id="Stroke-74" stroke="#E9EEFB" stroke-width="2" stroke-linecap="round"></path>
                        <path d="M320.7839,375.676 C319.7469,375.676 318.7099,375.275 317.9269,374.475 L169.6329,223.043 C168.0869,221.465 168.1139,218.932 169.6919,217.387 C171.2709,215.84 173.8029,215.868 175.3479,217.446 L323.6409,368.877 C325.1869,370.455 325.1609,372.988 323.5829,374.533 C322.8049,375.296 321.7939,375.676 320.7839,375.676" id="Fill-76" fill="#23478D"></path>
                        <path d="M473.5251,360.9749 C472.4801,360.9749 471.4361,360.5679 470.6511,359.7569 L359.7691,245.2189 C358.2331,243.6319 358.2741,241.0999 359.8611,239.5629 C361.4471,238.0269 363.9791,238.0669 365.5171,239.6549 L476.3991,354.1929 C477.9351,355.7799 477.8941,358.3119 476.3071,359.8489 C475.5311,360.6009 474.5271,360.9749 473.5251,360.9749" id="Fill-78" fill="#23478D"></path>
                        <path d="M342.6912,311.7737 C342.4712,311.7737 342.2502,311.7547 342.0262,311.7177 C341.7572,311.6727 315.0952,307.2117 307.9142,305.9697 C295.0182,303.7387 281.0212,296.5707 272.2522,287.7077 L178.7902,192.2317 C177.2442,190.6527 177.2712,188.1207 178.8502,186.5757 C180.4292,185.0307 182.9612,185.0587 184.5062,186.6357 L277.9532,282.0957 C287.2642,291.5057 300.6492,296.5937 309.2772,298.0867 C316.4372,299.3257 343.0782,303.7827 343.3462,303.8277 C345.5252,304.1917 346.9962,306.2537 346.6312,308.4327 C346.3042,310.3877 344.6102,311.7737 342.6912,311.7737" id="Fill-80" fill="#23478D"></path>
                        <path d="M322.8191,396.4329 C310.6241,396.4329 300.7371,386.5469 300.7371,374.3519 C300.7371,362.1569 310.6241,352.2709 322.8191,352.2709 C335.0141,352.2709 344.9001,362.1569 344.9001,374.3519 C344.9001,386.5469 335.0141,396.4329 322.8191,396.4329 M322.8191,347.7289 C308.1151,347.7289 296.1961,359.6489 296.1961,374.3519 C296.1961,389.0549 308.1151,400.9749 322.8191,400.9749 C337.5221,400.9749 349.4421,389.0549 349.4421,374.3519 C349.4421,359.6489 337.5221,347.7289 322.8191,347.7289" id="Fill-82" fill="#D8DDEA"></path>
                        <path d="M336.8152,383.1331 C332.7212,383.1331 329.4032,379.8151 329.4032,375.7221 C329.4032,371.6281 332.7212,368.3111 336.8152,368.3111 C340.9082,368.3111 344.2262,371.6281 344.2262,375.7221 C344.2262,379.8151 340.9082,383.1331 336.8152,383.1331 M325.8042,395.4921 C321.7112,395.4921 318.3932,392.1741 318.3932,388.0801 C318.3932,383.9871 321.7112,380.6691 325.8042,380.6691 C329.8982,380.6691 333.2162,383.9871 333.2162,388.0801 C333.2162,392.1741 329.8982,395.4921 325.8042,395.4921 M310.7202,388.8031 C306.6282,388.8031 303.3092,385.4861 303.3092,381.3921 C303.3092,377.2991 306.6282,373.9811 310.7202,373.9811 C314.8142,373.9811 318.1322,377.2991 318.1322,381.3921 C318.1322,385.4861 314.8142,388.8031 310.7202,388.8031 M312.3732,357.5761 C316.4652,357.5761 319.7842,360.8951 319.7842,364.9871 C319.7842,369.0811 316.4652,372.4001 312.3732,372.4001 C308.2792,372.4001 304.9612,369.0811 304.9612,364.9871 C304.9612,360.8951 308.2792,357.5761 312.3732,357.5761 M328.4742,354.0521 C332.5682,354.0521 335.8862,357.3701 335.8862,361.4631 C335.8862,365.5571 332.5682,368.8751 328.4742,368.8751 C324.3812,368.8751 321.0632,365.5571 321.0632,361.4631 C321.0632,357.3701 324.3812,354.0521 328.4742,354.0521 M322.8192,352.2711 C310.6242,352.2711 300.7372,362.1561 300.7372,374.3521 C300.7372,386.5471 310.6242,396.4331 322.8192,396.4331 C335.0142,396.4331 344.9002,386.5471 344.9002,374.3521 C344.9002,362.1561 335.0142,352.2711 322.8192,352.2711" id="Fill-84" fill="#D8DDEA"></path>
                        <path d="M327.6501,399.009 L475.2891,370.761" id="Stroke-86" stroke="#D8DDEA" stroke-width="3" stroke-linecap="round"></path>
                        <path d="M31.5349,155.6072 C35.0009,155.6422 39.4499,150.6312 41.6739,150.2102 C45.0139,149.5772 49.4079,149.0612 53.0879,150.5762 C55.9919,151.7732 62.4309,157.7552 62.4309,157.7552 C62.4309,157.7552 56.2029,148.7972 53.2799,148.0782 C49.0399,147.0352 42.7879,147.2212 40.0249,148.4432 C38.6749,149.0402 36.5689,151.1732 34.6469,152.8052 C33.3859,153.8762 30.7849,155.5992 31.5349,155.6072" id="Fill-88" fill="#4FA372"></path>
                        <path d="M31.2497,134.5198 C30.3437,134.7368 32.9917,135.8358 36.7307,136.4088 C40.8087,137.0338 42.5557,136.6158 46.1247,138.1418 C49.6927,139.6668 59.3277,151.6668 59.3277,151.6668 L61.7737,148.6648 C61.7737,148.6648 53.0927,138.6008 50.5557,137.2998 C46.4107,135.1748 41.9087,134.8768 38.3297,134.9258 C36.0947,134.9558 32.2517,134.2798 31.2497,134.5198" id="Fill-90" fill="#4F9E7C"></path>
                        <path d="M63.091,158.429 C63.091,158.429 52.453,147.403 48.293,146.694 C44.133,145.985 37.84,145.41 35.208,146.811 C33.825,147.547 27.559,153.217 26.984,152.394 C26.573,151.806 29.455,149.911 30.609,148.347 C33.904,143.881 35.112,143.997 39.932,143.296 C43.411,142.79 48.871,143.137 51.571,143.977 C55.094,145.074 63.274,152.722 63.274,152.722 L63.091,158.429 Z" id="Fill-92" fill="#4FA372"></path>
                        <path d="M145.6599,173.0164 L135.2359,168.8964 L148.8509,137.3954 C149.5729,136.1224 150.7309,135.5594 151.9619,136.0464 L155.9089,137.6064 C157.1399,138.0934 157.6809,139.4004 157.2579,140.7174 L145.6599,173.0164 Z" id="Fill-94" fill="#42426C"></path>
                        <path d="M155.7532,144.907 L157.2572,140.718 C157.6812,139.4 157.1402,138.093 155.9092,137.606 L151.9622,136.047 C150.7312,135.56 149.5722,136.123 148.8512,137.395 L147.0852,141.482 L155.7532,144.907 Z" id="Fill-96" fill="#2B2B51"></path>
                        <path d="M94.2805,146.1614 C101.5835,162.8024 110.5155,181.5934 101.3155,185.6314 C91.6545,189.8704 83.0785,166.5324 75.5295,150.0024 C70.1305,138.1804 69.1585,126.7874 73.8585,124.7244 C78.5585,122.6624 86.9775,129.5214 94.2805,146.1614" id="Fill-98" fill="#E5A977"></path>
                        <path d="M81.5251,147.4749 C90.8691,163.0609 102.1911,180.5219 92.1371,186.5489 C81.5811,192.8769 70.3471,170.6759 60.7341,155.2549 C53.8581,144.2249 51.6391,133.0539 56.7751,129.9749 C61.9111,126.8959 72.1811,131.8889 81.5251,147.4749" id="Fill-100" fill="#EFB881"></path>
                        <path d="M68.8435,151.6482 C70.0255,153.7252 75.1405,151.3252 79.3255,148.8322 C80.1415,148.3462 80.8465,147.8502 81.4515,147.3562 C80.4275,145.6532 79.3915,144.0832 78.3525,142.6312 C78.0045,142.8192 77.6435,143.0222 77.2555,143.2522 C73.0705,145.7462 67.6415,149.5362 68.8435,151.6482" id="Fill-102" fill="#EFC6A0"></path>
                        <path d="M119.7751,165.9749 C119.7751,176.3299 111.3801,184.7249 101.0251,184.7249 C90.6701,184.7249 82.2751,176.3299 82.2751,165.9749 C82.2751,155.6199 90.6701,147.2249 101.0251,147.2249 C111.3801,147.2249 119.7751,155.6199 119.7751,165.9749" id="Fill-104" fill="#FFBE46"></path>
                        <path d="M129.1086,234.2249 L94.6916,234.2249 C84.5766,234.2249 75.8796,227.0579 73.9446,217.1299 L62.2756,157.2249 L166.5256,157.2249 L149.8556,217.1299 C146.9006,226.8499 139.2236,234.2249 129.1086,234.2249" id="Fill-106" fill="#E9EEFB"></path>
                        <path d="M166.5251,161.5291 L62.1461,161.5291 C60.9621,161.5291 59.9941,160.5611 59.9941,159.3771 C59.9941,158.1931 60.9621,157.2251 62.1461,157.2251 L166.5251,157.2251 C167.7091,157.2251 168.6771,158.1931 168.6771,159.3771 C168.6771,160.5611 167.7091,161.5291 166.5251,161.5291" id="Fill-108" fill="#C5CBD8"></path>
                        <polygon id="Fill-110" fill="#D8DDEA" points="73.7243 215.9749 73.9193 216.9749 149.8843 216.9749 150.0783 215.9749"></polygon>
                        <polygon id="Fill-112" fill="#D8DDEA" points="155.5334 196.7249 69.9714 196.7249 70.1664 197.7249 155.2554 197.7249"></polygon>
                        <polygon id="Fill-114" fill="#D8DDEA" points="66.2302 177.4749 66.4252 178.4749 160.6132 178.4749 160.8902 177.4749"></polygon>
                        <path d="M108.5544,153.387 C108.3354,153.894 107.4724,154.008 106.6274,153.642 C105.7834,153.277 105.2764,152.57 105.4954,152.063 C105.7154,151.556 106.5774,151.442 107.4224,151.807 C108.2674,152.173 108.7744,152.88 108.5544,153.387" id="Fill-116" fill="#AFAC74"></path>
                        <path d="M571.0564,290.9749 L561.5254,290.9749 L555.0254,277.7249 L571.0564,277.7249 C572.0054,277.7249 572.7754,278.4949 572.7754,279.4439 L572.7754,289.2559 C572.7754,290.2049 572.0054,290.9749 571.0564,290.9749" id="Fill-118" fill="#2474CD"></path>
                        <path d="M571.2644,277.7249 L570.4004,277.7249 L570.4004,290.9749 L571.2644,290.9749 C572.2134,290.9749 572.9834,290.2049 572.9834,289.2559 L572.9834,279.4439 C572.9834,278.4949 572.2134,277.7249 571.2644,277.7249" id="Fill-120" fill="#E86A46"></path>
                        <path d="M109.9827,360.8919 C109.0017,360.8919 108.0177,360.5329 107.2457,359.8079 C105.6347,358.2949 105.5557,355.7639 107.0677,354.1539 L120.8057,339.5259 C126.9027,332.3259 131.5207,324.1399 134.5297,315.1949 L184.0147,167.7569 C183.9447,165.6569 182.3007,162.5479 179.8767,159.9979 L174.0827,153.9049 C170.6977,150.3449 168.7327,145.6819 168.5497,140.7739 C168.4667,138.5669 170.1897,136.7099 172.3977,136.6279 C174.5977,136.5389 176.4617,138.2679 176.5437,140.4749 C176.6547,143.4339 177.8387,146.2459 179.8797,148.3929 L185.6737,154.4859 C187.2787,156.1739 192.4757,162.1899 191.9847,168.7629 C191.9607,169.0949 191.8947,169.4229 191.7887,169.7389 L142.1127,317.7429 C138.7667,327.6879 133.6287,336.7839 126.8397,344.7789 C126.7967,344.8299 126.7527,344.8789 126.7067,344.9279 L112.8997,359.6299 C112.1117,360.4679 111.0487,360.8919 109.9827,360.8919" id="Fill-122" fill="#23478D"></path>
                        <path d="M172.5427,146.6248 C169.3327,146.6248 166.6717,144.0848 166.5507,140.8498 L166.1977,131.4318 C166.0867,128.4848 167.3177,125.7078 169.5737,123.8098 C171.8307,121.9128 174.7777,121.1778 177.6607,121.7898 L223.7737,131.6058 C227.0157,132.2958 229.0837,135.4828 228.3937,138.7248 C227.7027,141.9648 224.5147,144.0278 221.2757,143.3438 L178.3097,134.1968 L178.5427,140.3998 C178.6667,143.7108 176.0837,146.4968 172.7717,146.6208 C172.6947,146.6238 172.6187,146.6248 172.5427,146.6248" id="Fill-124" fill="#FF7E59"></path>
                        <path d="M228.446,138.7561 C227.751,141.9841 224.826,144.0931 221.913,143.4661 C219,142.8391 217.201,139.7141 217.896,136.4851 C218.591,133.2571 221.515,131.1481 224.429,131.7751 C227.342,132.4021 229.141,135.5271 228.446,138.7561" id="Fill-126" fill="#FF9E78"></path>
                        <path d="M186.7595,185.0466 L179.2165,182.4366 C177.9465,181.9966 177.2745,180.6116 177.7135,179.3416 L178.4935,177.0886 C178.9325,175.8186 180.3185,175.1456 181.5875,175.5846 L189.1305,178.1956 C190.4005,178.6346 191.0725,180.0206 190.6335,181.2896 L189.8535,183.5436 C189.4145,184.8136 188.0295,185.4856 186.7595,185.0466" id="Fill-128" fill="#2474CD"></path>
                        <path d="M188.0242,171.7249 C187.0442,171.7249 186.0612,171.3669 185.2892,170.6429 C183.6782,169.1319 183.5962,166.6009 185.1072,164.9889 L192.8742,156.7039 C194.6302,154.8309 195.1912,154.1419 195.5372,152.4999 C195.9912,150.3389 198.0312,148.8999 200.2062,149.3059 C202.3772,149.7129 203.8072,151.8039 203.4002,153.9749 C202.6452,157.9999 201.5112,159.1889 198.7102,162.1759 L190.9432,170.4609 C190.1562,171.3009 189.0912,171.7249 188.0242,171.7249" id="Fill-130" fill="#23478D"></path>
                        <path d="M443.1833,353.5012 L333.0953,368.0962 C331.5373,368.3022 329.9233,367.8362 328.8393,366.6992 C327.3143,365.0982 325.1623,364.1002 322.7753,364.1002 C319.5583,364.1002 316.7703,365.9162 315.3703,368.5772 C314.6823,369.8832 313.3383,370.7152 311.8753,370.9082 L304.5363,371.8822 C304.1873,371.9282 303.8953,371.6132 303.9723,371.2702 C304.6873,368.1132 308.5523,355.4232 324.5673,355.2442 C340.8613,355.0632 425.5223,353.4712 443.1593,353.1392 C443.3883,353.1342 443.4113,353.4712 443.1833,353.5012 M490.0533,355.2422 C489.1873,346.9642 482.1873,340.5112 473.6803,340.5112 C473.6303,340.5112 473.5823,340.5192 473.5343,340.5202 L473.5253,340.5112 L321.1083,340.5112 C301.9163,340.5112 286.3583,356.0692 286.3583,375.2612 C286.3583,376.9912 286.6133,379.2452 286.8083,380.7132 C286.9193,381.5512 287.6903,382.1372 288.5283,382.0252 L490.0253,355.2442 L490.0233,355.2432 C490.0323,355.2432 490.0443,355.2422 490.0533,355.2422" id="Fill-132" fill="#2474CD"></path>
                        <path d="M377.7751,395.2258 C377.4871,395.2258 377.1941,395.1748 376.9081,395.0698 L321.9521,374.7448 C320.6571,374.2658 319.9961,372.8278 320.4741,371.5328 C320.9541,370.2378 322.3921,369.5778 323.6861,370.0548 L378.6421,390.3798 C379.9371,390.8588 380.5981,392.2968 380.1201,393.5918 C379.7471,394.6008 378.7911,395.2258 377.7751,395.2258" id="Fill-134" fill="#E9EEFB"></path>
                        <path d="M387.4421,392.346 L373.4561,401.088 C370.7621,402.772 367.2151,401.952 365.5321,399.26 L364.8601,398.185 L388.5991,383.348 L389.2711,384.423 C390.9541,387.116 390.1351,390.663 387.4421,392.346" id="Fill-136" fill="#2474CD"></path>
                        <path d="M479.8494,56.01 C478.2884,50.937 474.2324,47.01 469.5834,45.568 C466.3754,44.573 462.5504,44.432 460.5134,41.506 C459.2134,39.64 459.0254,37.225 457.5254,35.225 C455.4444,32.45 453.5254,31.225 449.8584,30.058 C443.8794,28.156 441.0254,23.225 440.8584,15.725 C440.8584,15.725 422.8584,0.058 411.5254,0.058 C401.0254,0.058 377.7754,12.975 378.5254,14.975 C379.0564,17.834 389.3584,73.058 389.3584,73.058 C389.3584,73.058 462.6504,73.475 470.1504,74.475 C470.1844,74.312 470.1964,74.163 470.2254,74.003 C472.6154,73.728 474.9454,72.63 476.7094,70.813 C480.2484,67.168 481.4104,61.083 479.8494,56.01" id="Fill-138" fill="#423748"></path>
                    </g>
                    <g id="Group-143" transform="translate(393.000000, 125.696000)">
                        <mask id="mask-4" fill="white">
                            <use xlink:href="#path-3"></use>
                        </mask>
                        <g id="Clip-142"></g>
                        <path d="M4.025,4.975 C4.025,4.975 9.608,14.975 8.358,20.725 C7.435,24.972 0.692,27.725 0.692,27.725 C0.692,27.725 2.525,60.225 12.358,59.059 C32.025,56.725 41.025,22.059 41.025,22.059 C36.358,19.391 29.025,0.725 29.025,0.725 L4.025,4.975 Z" id="Fill-141" fill="#E09595" mask="url(#mask-4)"></path>
                    </g>
                    <g id="Group-146" transform="translate(411.000000, 341.696000)">
                        <mask id="mask-6" fill="white">
                            <use xlink:href="#path-5"></use>
                        </mask>
                        <g id="Clip-145"></g>
                        <path d="M39.692,33.392 C56.358,50.392 64.873,62.064 67.358,68.392 C71.025,77.725 64.692,93.725 57.358,107.725 C54.784,112.639 50.692,119.725 56.025,121.392 C60.049,122.649 69.917,121.149 78.025,112.392 C86.358,103.392 98.025,83.725 97.358,74.725 C96.692,65.725 91.692,67.725 87.358,62.725 C83.025,57.725 77.496,47.891 74.692,40.725 C71.693,33.058 63.025,12.392 63.025,12.392 L0.025,0.392 C0.025,0.392 23.025,16.392 39.692,33.392" id="Fill-144" fill="#FFAEAE" mask="url(#mask-6)"></path>
                    </g>
                    <path d="M508.3582,416.4209 C507.7022,407.5619 502.8472,409.3569 498.5622,404.6449 C498.1772,408.9809 498.0252,418.4209 492.8582,429.4209 C489.4992,436.5729 482.1922,443.9209 476.5252,443.7539 C474.5752,443.6969 473.2092,442.4299 472.8512,440.2039 C471.4582,443.3119 469.9342,446.4119 468.3582,449.4209 C465.7842,454.3349 461.6922,461.4209 467.0252,463.0879 C471.0492,464.3449 480.9172,462.8449 489.0252,454.0879 C497.3582,445.0879 509.0252,425.4209 508.3582,416.4209" id="Fill-147" fill="#FFCFDF"></path>
                    <g id="Group-151" transform="translate(472.000000, 348.696000)">
                        <mask id="mask-8" fill="white">
                            <use xlink:href="#path-7"></use>
                        </mask>
                        <g id="Clip-150"></g>
                        <path d="M0.858,11.892 C0.858,11.892 16.352,20.627 21.192,28.725 C29.858,43.225 23.692,59.392 22.692,63.725 C21.692,68.058 20.358,73.058 23.692,74.725 C27.025,76.392 37.858,75.725 43.858,67.058 C49.858,58.392 47.692,46.392 47.358,42.392 C47.025,38.392 48.358,23.058 47.692,19.392 C47.025,15.725 45.86,12.145 42.358,11.058 C39.764,10.254 37.699,10.505 35.826,10.756 C34.21,10.972 32.736,11.189 31.192,10.725 C27.858,9.725 19.858,0.392 19.858,0.392 L0.858,11.892 Z" id="Fill-149" fill="#FFAEAE" mask="url(#mask-8)"></path>
                    </g>
                    <g id="Group-238" transform="translate(368.000000, 141.696000)">
                        <path d="M151.3582,249.3919 C151.0252,245.3919 152.3582,230.0579 151.6922,226.3919 C151.0252,222.7249 149.8602,219.1449 146.3582,218.0579 C141.7172,216.6189 138.7662,218.5499 135.5882,217.8219 C134.6852,218.2909 132.1372,219.1019 131.6922,225.3919 C131.2462,231.6809 133.6922,244.0579 128.9842,261.2889 C128.2112,265.6619 127.0752,269.0659 126.6922,270.7249 C125.6922,275.0579 124.3582,280.0579 127.6922,281.7249 C131.0252,283.3919 141.8582,282.7249 147.8582,274.0579 C153.8582,265.3919 151.6922,253.3919 151.3582,249.3919" id="Fill-152" fill="#FFCFDF"></path>
                        <path d="M32.2751,6.9124 C31.2131,8.7874 30.1881,11.4554 29.8371,13.7244 C29.1811,17.9754 29.5041,26.7084 31.0251,32.0584 C32.3171,36.5994 35.5631,39.4944 37.3581,40.3914 C38.6921,41.0584 41.2751,38.7244 49.8581,28.7244 C59.9791,16.9334 61.9171,8.8294 65.6921,0.3914 C66.6921,-0.6086 99.5721,-0.5026 97.6921,22.0584 C95.6921,46.0584 97.6121,65.0534 101.3581,72.9754 C109.3581,89.8914 124.1921,93.8914 135.3581,112.3914 C142.9581,124.9824 145.6921,133.0584 145.3581,141.0584 C145.0381,148.7474 142.0251,154.5584 142.0251,154.5584 C142.0251,154.5584 147.5251,151.2254 159.0251,154.7254 C170.5251,158.2254 177.6921,163.7254 181.0251,165.3924 C174.0251,171.0584 175.0251,175.0584 165.0251,178.3924 C155.4211,181.5934 151.8581,179.0584 142.5251,188.7254 C138.4751,192.9194 137.7271,201.3414 135.5251,204.9754 C132.2691,210.3494 124.0091,217.8414 114.0251,219.7254 C104.4851,221.5244 91.3581,221.5584 79.3581,218.0584 C67.3581,214.5584 61.0251,207.2254 51.0251,205.7254 C41.0251,204.2254 16.0251,202.7254 9.0251,197.7254 C9.0251,197.7254 5.5251,174.7254 12.0251,164.2254 C21.0241,149.6884 53.5251,126.7254 60.0251,118.3914 C63.0691,114.4884 65.3581,109.3914 52.3581,100.0584 C45.3711,95.0414 25.5251,74.2254 25.5251,74.2254 L11.0251,13.0584 C11.0251,13.0584 16.5271,13.2084 22.0251,11.7244 C25.5501,10.7734 30.3381,8.6624 32.2751,6.9124" id="Fill-154" fill="#638FFA"></path>
                        <path d="M63.4421,40.3499 C62.4001,38.2249 61.4831,34.8589 61.4831,32.1829 C61.4831,31.0999 62.0041,30.8299 62.2751,31.4329 C62.6501,32.2669 63.0151,32.8479 63.4901,33.3329 C63.8721,33.7229 64.1981,33.7209 64.3171,32.9329 C64.6501,30.7249 65.2751,28.4749 66.1501,26.3499 C66.7581,24.8709 68.4491,21.7419 70.0251,21.4749 C71.0021,27.1619 67.8941,32.3589 65.4061,37.5659 L63.4421,40.3499 Z" id="Fill-156" fill="#5581EE"></path>
                        <path d="M67.8855,68.5706 C73.2985,65.1126 87.1975,53.0776 92.7125,49.7876 C93.4945,49.3206 95.4195,48.7136 95.5745,50.9296 C95.7755,53.8086 96.6505,63.7666 94.1505,69.8086 C93.4375,71.6246 93.1415,72.3696 92.0875,74.5846 C88.0835,83.0056 84.8105,88.2736 82.6885,91.2326 C82.4465,91.5706 82.8065,91.7056 83.3115,91.3066 C87.2975,88.1516 92.4895,81.2366 94.9425,77.2666 C95.8175,75.8496 97.3585,76.0166 97.8175,78.7246 C98.2895,81.5226 99.0135,84.7226 99.6505,86.7246 C100.0875,88.0996 101.1525,87.8586 101.2755,86.7246 C101.4575,85.0496 101.5255,83.1836 101.6505,81.3496 C101.7255,80.2456 102.3585,79.8606 103.4005,80.5166 C104.5255,81.2246 106.4315,82.2566 107.6085,82.6836 C104.7125,78.9126 101.5255,74.5376 100.0255,69.5376 C96.5735,58.0336 96.7755,41.9426 96.7505,36.2916 C96.5345,36.0426 74.5255,37.5586 68.4425,45.8086 C62.3585,54.0586 67.8855,68.5706 67.8855,68.5706" id="Fill-158" fill="#5581EE"></path>
                        <path d="M50.6921,99.0583 C52.3701,99.6173 58.4261,104.5563 63.4391,108.8003 C68.0851,112.7333 74.3001,114.2673 80.2461,112.9643 L92.6041,110.2553 C92.9501,110.1803 92.9111,109.6733 92.5571,109.6623 C88.4031,109.5243 79.7881,109.1073 72.8581,107.8913 C63.3581,106.2253 50.6921,99.0583 50.6921,99.0583" id="Fill-160" fill="#5581EE"></path>
                        <path d="M78.6921,123.0583 C78.6921,123.0583 96.1061,114.6053 101.1921,111.0583 C105.6801,107.9273 110.1291,104.6033 112.9001,101.1623 C113.3061,100.6583 113.6711,100.9463 113.5411,101.5803 C112.7621,105.3783 108.7521,115.8403 87.5251,128.4753 C59.5251,145.1413 39.6921,163.7253 38.0251,165.7253 C38.0251,165.7253 38.0621,158.6353 49.0251,147.2253 C61.2751,134.4753 78.6921,123.0583 78.6921,123.0583" id="Fill-162" fill="#5581EE"></path>
                        <path d="M38.6921,57.2249 C36.5251,51.8919 35.8561,49.9499 38.2751,40.3919 C39.1031,37.1189 41.8871,31.3929 43.6921,28.6419 C43.9211,28.2909 43.3981,27.9249 43.1151,28.2339 C41.1031,30.4339 37.8181,35.6759 36.5251,39.0579 C32.3541,49.9669 34.9461,58.0269 35.5251,59.3919 C37.0251,63.3919 39.6921,69.3919 52.6191,65.9749 C49.8381,65.0059 40.8061,62.4309 38.6921,57.2249" id="Fill-164" fill="#C5CBD8" style="mix-blend-mode: multiply;" opacity="0.5"></path>
                        <path d="M76.0251,181.7249 C76.0251,181.7249 113.2751,172.9749 138.9001,154.3499 C138.9001,154.3499 131.0251,169.4749 108.5251,179.4749 C85.0211,189.9209 76.0251,181.7249 76.0251,181.7249" id="Fill-166" fill="#5581EE"></path>
                        <path d="M84.2751,188.2249 C85.0251,188.4749 100.0251,194.3499 109.0251,219.3499 C109.0251,219.3499 116.7751,217.7249 122.3601,211.6379 C123.6601,210.2219 123.7311,208.0849 122.2681,206.8379 L115.8581,199.5579 C114.9251,198.6619 113.5251,198.6419 113.7071,200.4189 C113.7071,200.4189 114.2751,203.8079 113.9421,206.5579 C113.6801,208.7109 112.9641,211.0089 111.9421,209.1419 C108.1081,202.1419 103.8641,199.1619 100.2751,196.2249 C92.0251,189.4749 84.2751,188.2249 84.2751,188.2249" id="Fill-168" fill="#5581EE"></path>
                        <path d="M13.4421,162.1419 C11.2131,162.9879 6.1501,160.8499 3.6921,156.1419 C0.0561,149.1799 0.1301,145.0709 2.6741,143.4539 C4.6631,144.3399 14.5151,152.2969 14.5151,152.2969 C14.5151,152.2969 13.4861,160.2209 13.4421,162.1419" id="Fill-170" fill="#EFC6A0"></path>
                        <path d="M54.8533,79.0271 L28.5323,140.6651 L32.4753,146.8701 C32.4753,146.8701 47.8093,142.0691 63.3603,140.8511 C81.1293,139.4581 92.6223,140.9451 92.6223,140.9451 L54.8533,79.0271 Z" id="Fill-172" fill="#EFC6A0"></path>
                        <path d="M13.4421,162.1829 C13.4421,162.1829 16.9421,158.9749 22.1131,154.4379 C26.9501,150.1949 32.4941,146.8999 32.4941,146.8999 L28.5321,140.6649 L2.6741,143.4539 L13.4421,162.1829 Z" id="Fill-174" fill="#EFC6A0"></path>
                        <path d="M30.5681,147.9866 C30.5681,147.9866 28.7431,148.7986 26.6981,145.5806 C24.6541,142.3616 26.1241,140.8516 26.1241,140.8516 L29.5711,138.6616 C29.5711,138.6616 28.3101,140.5396 30.2091,143.5266 C32.1071,146.5146 34.1601,146.4026 34.1601,146.4026 L30.5681,147.9866 Z" id="Fill-176" fill="#4FA372"></path>
                        <path d="M105.9275,137.4338 C105.9275,137.4338 100.1055,139.9588 94.8965,137.9528 C89.6875,135.9458 87.0645,130.1668 87.0645,130.1668 C87.0645,130.1668 92.8865,127.6418 98.0955,129.6478 C103.3045,131.6548 105.9275,137.4338 105.9275,137.4338" id="Fill-178" fill="#4FA372"></path>
                        <path d="M98.2566,142.6965 C98.2566,142.6965 92.9606,142.2235 89.9306,138.6615 C86.9006,135.0985 87.2836,129.7965 87.2836,129.7965 C87.2836,129.7965 92.5796,130.2685 95.6106,133.8315 C98.6396,137.3935 98.2566,142.6965 98.2566,142.6965" id="Fill-180" fill="#5BAF93"></path>
                        <path d="M77.7097,75.4241 C77.7097,75.4241 81.0027,81.5621 81.0487,85.8321 C81.0947,90.1021 76.2757,93.6151 76.2757,93.6151 C76.2757,93.6151 71.3847,90.2051 71.3387,85.9361 C71.2927,81.6661 77.7097,75.4241 77.7097,75.4241" id="Fill-182" fill="#5BB57F"></path>
                        <path d="M100.2751,138.2385 C91.2721,144.6615 74.3241,136.3415 62.4201,119.6545 C50.5161,102.9675 48.1651,84.2345 57.1681,77.8125 C66.1701,71.3895 81.3711,81.0385 93.2751,97.7245 C105.1791,114.4115 109.2781,131.8165 100.2751,138.2385" id="Fill-184" fill="#FF91BA"></path>
                        <path d="M88.9714,102.8889 C83.9354,106.8059 76.6764,105.8979 72.7604,100.8609 C68.8434,95.8249 69.7514,88.5669 74.7874,84.6499 C79.8244,80.7329 87.0824,81.6409 90.9984,86.6779 C94.9154,91.7139 94.0074,98.9719 88.9714,102.8889" id="Fill-186" fill="#FFCFDF"></path>
                        <path d="M84.3494,81.8606 C81.8044,81.8366 77.0874,85.0686 77.7384,90.8346 C78.3894,96.5996 83.7454,97.6616 87.2434,96.3356 C90.7414,95.0086 85.5784,89.2666 85.9894,87.5536 C86.3274,86.1456 88.4904,87.0856 91.2194,88.2556 C91.6734,88.4506 91.9014,87.9926 91.7584,87.5196 C90.8024,84.3336 86.8944,81.8846 84.3494,81.8606" id="Fill-188" fill="#FFDEEB"></path>
                        <path d="M88.4138,87.759 C89.7778,85.427 91.8518,90.835 90.9588,91.703 C90.0658,92.572 86.9178,90.316 88.4138,87.759" id="Fill-190" fill="#FFC7D6"></path>
                        <path d="M84.7468,96.1873 C87.6368,95.6473 91.5058,94.1093 92.6978,90.7383 C92.8828,90.2173 93.6108,90.1633 93.8998,90.6333 C94.8278,92.1423 95.8998,94.8003 93.9978,97.1803 C91.7728,99.9633 87.8478,99.6473 84.5108,97.8923 C83.7348,97.4843 83.8868,96.3483 84.7468,96.1873" id="Fill-192" fill="#FFDEEB"></path>
                        <path d="M77.6902,91.22 C75.7732,86.962 77.4482,83.448 79.4632,82.524 C80.4102,82.09 81.3922,82.25 82.2022,82.571 C82.7122,82.287 83.4602,82.068 84.1502,81.975 C84.0052,81.832 83.6422,81.514 83.4322,81.354 C81.2862,79.713 78.6322,80.169 76.8462,80.726 C74.6032,81.426 70.7612,84.18 70.2112,89.893 C69.8852,93.282 70.7492,98.587 75.5542,101.243 C81.9712,104.79 86.4222,98.193 85.8562,97.24 C85.2892,96.287 79.4052,95.028 77.6902,91.22" id="Fill-194" fill="#FFC7D6"></path>
                        <path d="M93.9617,96.6853 C93.9617,96.6853 94.3157,102.9453 89.7387,105.3703 C84.9537,107.9053 81.5607,106.9393 79.8797,106.0633 C79.2197,105.7203 79.1097,104.8283 79.6707,104.3383 C80.9477,103.2243 83.2437,101.4603 85.2647,101.1843 C88.2557,100.7743 91.5487,100.3043 93.9617,96.6853" id="Fill-196" fill="#FFC7D6"></path>
                        <path d="M100.6023,121.0061 C95.4253,125.0311 87.9663,124.0981 83.9413,118.9221 C79.9153,113.7461 80.8483,106.2861 86.0253,102.2601 C91.2013,98.2351 98.6613,99.1681 102.6863,104.3441 C106.7113,109.5211 105.7793,116.9811 100.6023,121.0061" id="Fill-198" fill="#FFDCE9"></path>
                        <path d="M95.8513,99.3933 C93.2363,99.3683 88.3883,102.6903 89.0573,108.6163 C89.7263,114.5423 95.2303,115.6333 98.8263,114.2703 C102.4213,112.9073 97.1163,107.0053 97.5373,105.2453 C97.8833,103.7973 100.1073,104.7643 102.9133,105.9663 C103.3793,106.1663 103.6133,105.6963 103.4673,105.2093 C102.4843,101.9353 98.4673,99.4183 95.8513,99.3933" id="Fill-200" fill="#FFDEEB"></path>
                        <path d="M100.0291,105.4558 C101.4311,103.0588 103.5621,108.6178 102.6441,109.5098 C101.7271,110.4028 98.4921,108.0838 100.0291,105.4558" id="Fill-202" fill="#FFCFDF"></path>
                        <path d="M96.2605,114.1184 C99.2305,113.5634 103.2065,111.9824 104.4325,108.5174 C104.6215,107.9824 105.3705,107.9264 105.6685,108.4104 C106.6205,109.9604 107.7235,112.6924 105.7685,115.1384 C103.4825,117.9984 99.4475,117.6754 96.0175,115.8704 C95.2215,115.4514 95.3755,114.2834 96.2605,114.1184" id="Fill-204" fill="#FFDEEB"></path>
                        <path d="M97.4001,115.2 C96.8181,114.221 90.7701,112.927 89.0071,109.013 C87.0371,104.637 88.7591,101.025 90.8311,100.075 C91.8071,99.627 92.8211,99.795 93.6551,100.127 C94.4001,99.85 95.3101,99.497 96.0251,99.475 C95.8791,99.331 95.1211,99.034 94.9101,98.873 C92.7031,97.187 89.9761,97.656 88.1401,98.228 C85.8351,98.947 81.8861,101.778 81.3221,107.649 C80.9871,111.133 81.8741,116.585 86.8121,119.315 C93.4081,122.96 97.9831,116.179 97.4001,115.2" id="Fill-206" fill="#FFC7D6"></path>
                        <path d="M105.7312,114.6301 C105.7312,114.6301 106.0942,121.0641 101.3912,123.5561 C96.4732,126.1621 92.9852,125.1701 91.2572,124.2691 C90.5802,123.9161 90.4672,122.9991 91.0432,122.4961 C92.3552,121.3501 94.7152,119.5381 96.7932,119.2541 C99.8672,118.8321 103.2522,118.3491 105.7312,114.6301" id="Fill-208" fill="#FFCFDF"></path>
                        <path d="M87.407,111.2976 C82.414,115.1816 75.218,114.2806 71.334,109.2876 C67.451,104.2936 68.35,97.0976 73.344,93.2146 C78.339,89.3306 85.535,90.2306 89.418,95.2246 C93.302,100.2176 92.401,107.4146 87.407,111.2976" id="Fill-210" fill="#FFADD2"></path>
                        <path d="M82.825,90.448 C80.302,90.424 75.625,93.629 76.27,99.345 C76.916,105.062 82.225,106.115 85.694,104.8 C89.162,103.484 84.044,97.791 84.451,96.093 C84.785,94.697 86.93,95.629 89.637,96.789 C90.087,96.982 90.312,96.529 90.171,96.059 C89.222,92.9 85.348,90.472 82.825,90.448" id="Fill-212" fill="#F9C2D9"></path>
                        <path d="M86.8542,96.2966 C88.2072,93.9836 90.2622,99.3466 89.3772,100.2076 C88.4932,101.0686 85.3712,98.8316 86.8542,96.2966" id="Fill-214" fill="#FFCFDF"></path>
                        <path d="M83.2195,104.6531 C86.0835,104.1181 89.9195,102.5921 91.1025,99.2501 C91.2845,98.7341 92.0075,98.6801 92.2945,99.1471 C93.2135,100.6421 94.2775,103.2781 92.3915,105.6371 C90.1855,108.3971 86.2925,108.0841 82.9845,106.3431 C82.2155,105.9391 82.3655,104.8121 83.2195,104.6531" id="Fill-216" fill="#FFCFDF"></path>
                        <path d="M82.5017,92.2537 C82.5017,92.2537 80.1457,90.1127 77.9807,91.1057 C75.9817,92.0217 74.3207,95.5057 76.2227,99.7287 C77.9227,103.5037 83.7567,104.7517 84.3177,105.6967 C84.8807,106.6417 80.4667,113.1827 74.1047,109.6667 C69.3397,107.0327 68.4837,101.7727 68.8077,98.4117 C69.3527,92.7487 73.1607,90.0167 75.3857,89.3227 C77.1557,88.7717 79.7867,88.3187 81.9157,89.9457 C84.0447,91.5717 82.5017,92.2537 82.5017,92.2537" id="Fill-218" fill="#FFC7D6"></path>
                        <path d="M92.3552,105.1472 C92.3552,105.1472 92.7062,111.3532 88.1682,113.7572 C83.4242,116.2722 80.0592,115.3142 78.3922,114.4452 C77.7392,114.1052 77.6292,113.2202 78.1852,112.7352 C79.4522,111.6292 81.7282,109.8812 83.7322,109.6072 C86.6982,109.2012 89.9622,108.7342 92.3552,105.1472" id="Fill-220" fill="#F9C2D9"></path>
                        <path d="M64.8542,99.9138 C64.8542,99.9138 59.3342,102.1708 55.7242,99.8908 C52.1142,97.6098 51.7802,91.6568 51.7802,91.6568 C51.7802,91.6568 57.2992,89.3998 60.9102,91.6798 C64.5202,93.9598 64.8542,99.9138 64.8542,99.9138" id="Fill-222" fill="#4FA372"></path>
                        <path d="M60.4382,112.5925 C60.4382,112.5925 55.8212,107.9815 56.1062,102.6115 C56.3912,97.2405 61.4702,93.1445 61.4702,93.1445 C61.4702,93.1445 66.0882,97.7555 65.8032,103.1255 C65.5182,108.4965 60.4382,112.5925 60.4382,112.5925" id="Fill-224" fill="#5BB57F"></path>
                        <path d="M72.6462,97.9353 C67.0212,102.2933 59.0972,101.5173 54.9482,96.2033 C50.7972,90.8883 51.9942,83.0473 57.6202,78.6903 C63.2452,74.3323 71.1682,75.1083 75.3182,80.4223 C79.4682,85.7373 78.2722,93.5783 72.6462,97.9353" id="Fill-226" fill="#FFADD2"></path>
                        <path d="M68.1697,75.4202 C65.3827,75.4642 60.1267,79.0762 60.6797,85.2672 C61.2317,91.4582 67.0677,92.4522 70.9367,90.9262 C74.8047,89.4002 69.3107,83.3612 69.8077,81.5052 C70.2157,79.9802 72.5597,80.9312 75.5157,82.1152 C76.0077,82.3132 76.2697,81.8142 76.1267,81.3082 C75.1677,77.9032 70.9557,75.3762 68.1697,75.4202" id="Fill-228" fill="#F9C2D9"></path>
                        <path d="M72.4568,81.6589 C74.0168,79.1099 76.1358,84.8759 75.1348,85.8359 C74.1328,86.7959 70.7468,84.4539 72.4568,81.6589" id="Fill-230" fill="#F9C2D9"></path>
                        <path d="M68.2068,90.8362 C71.3858,90.1752 75.6658,88.4112 77.0658,84.7472 C77.2818,84.1812 78.0828,84.1022 78.3868,84.6012 C79.3588,86.2002 80.4598,89.0322 78.3108,91.6482 C75.7968,94.7072 71.5058,94.4762 67.8998,92.6792 C67.0618,92.2612 67.2588,91.0332 68.2068,90.8362" id="Fill-232" fill="#F9C2D9"></path>
                        <path d="M69.3914,91.9387 C68.7964,90.9287 62.3874,89.7367 60.6164,85.6837 C58.6334,81.1517 60.5674,77.3217 62.8004,76.2697 C63.7714,75.8137 64.7584,75.9067 65.5964,76.1787 C66.1894,75.7547 66.9764,75.5787 67.7814,75.4767 C65.4434,73.5617 62.0184,73.7367 59.9844,74.4077 C57.5064,75.2227 53.2224,78.2967 52.4614,84.4627 C52.0104,88.1217 52.8084,93.8107 57.9974,96.5367 C64.9264,100.1777 69.9864,92.9487 69.3914,91.9387" id="Fill-234" fill="#FFCFDF"></path>
                        <path d="M78.2849,91.1165 C78.2849,91.1165 78.4979,97.8465 73.4189,100.5855 C68.1069,103.4495 64.4169,102.5035 62.5999,101.6075 C61.8879,101.2555 61.7919,100.2975 62.4189,99.7555 C63.8489,98.5195 66.4129,96.5565 68.6339,96.2025 C71.9219,95.6785 75.5419,95.0795 78.2849,91.1165" id="Fill-236" fill="#FFCFDF"></path>
                    </g>
                    <g id="Group-266" transform="translate(419.000000, 216.696000)">
                        <g id="Group-241">
                            <mask id="mask-10" fill="white">
                                <use xlink:href="#path-9"></use>
                            </mask>
                            <g id="Clip-240"></g>
                            <path d="M32.6794,49.6267 C32.6794,49.6267 37.1264,52.7077 37.4234,56.8767 C37.7204,61.0467 33.7564,64.7277 33.7564,64.7277 C33.7564,64.7277 29.3094,61.6467 29.0124,57.4767 C28.7144,53.3067 32.6794,49.6267 32.6794,49.6267" id="Fill-239" fill="#4FA372" mask="url(#mask-10)"></path>
                        </g>
                        <g id="Group-244">
                            <mask id="mask-12" fill="white">
                                <use xlink:href="#path-11"></use>
                            </mask>
                            <g id="Clip-243"></g>
                            <path d="M27.7068,43.6897 C27.7068,43.6897 31.3188,47.7167 30.6428,51.8417 C29.9658,55.9677 25.2568,58.6287 25.2568,58.6287 C25.2568,58.6287 21.6448,54.6027 22.3208,50.4767 C22.9978,46.3517 27.7068,43.6897 27.7068,43.6897" id="Fill-242" fill="#4FA372" mask="url(#mask-12)"></path>
                        </g>
                        <g id="Group-247">
                            <mask id="mask-14" fill="white">
                                <use xlink:href="#path-13"></use>
                            </mask>
                            <g id="Clip-246"></g>
                            <path d="M31.6169,50.2083 C31.6169,50.2083 26.6259,55.0903 20.1579,53.8003 C15.9709,52.9643 11.4969,47.1083 11.4969,47.1083 C11.4969,47.1083 17.5749,42.9983 21.7899,43.6783 C27.5739,44.6103 31.6169,50.2083 31.6169,50.2083" id="Fill-245" fill="#5BB57F" mask="url(#mask-14)"></path>
                        </g>
                        <g id="Group-250">
                            <mask id="mask-16" fill="white">
                                <use xlink:href="#path-15"></use>
                            </mask>
                            <g id="Clip-249"></g>
                            <path d="M47.9187,60.9856 C42.8087,64.9596 35.4437,64.0386 31.4697,58.9276 C27.4957,53.8176 28.4167,46.4526 33.5267,42.4786 C38.6377,38.5046 46.0017,39.4256 49.9767,44.5366 C53.9507,49.6466 53.0287,57.0106 47.9187,60.9856" id="Fill-248" fill="#FFCFDF" mask="url(#mask-16)"></path>
                        </g>
                        <g id="Group-253">
                            <mask id="mask-18" fill="white">
                                <use xlink:href="#path-17"></use>
                            </mask>
                            <g id="Clip-252"></g>
                            <path d="M43.2292,39.6482 C40.6462,39.6232 35.8612,42.9032 36.5212,48.7532 C37.1812,54.6042 42.6162,55.6812 46.1652,54.3352 C49.7142,52.9892 44.4762,47.1632 44.8932,45.4252 C45.2352,43.9962 47.4302,44.9502 50.2002,46.1372 C50.6612,46.3352 50.8912,45.8712 50.7472,45.3902 C49.7762,42.1572 45.8112,39.6722 43.2292,39.6482" id="Fill-251" fill="#FFDEEB" mask="url(#mask-18)"></path>
                        </g>
                        <g id="Group-256">
                            <mask id="mask-20" fill="white">
                                <use xlink:href="#path-19"></use>
                            </mask>
                            <g id="Clip-255"></g>
                            <path d="M47.3533,45.6335 C48.7373,43.2665 50.8403,48.7545 49.9353,49.6355 C49.0293,50.5165 45.8343,48.2275 47.3533,45.6335" id="Fill-254" fill="#FFC7D6" mask="url(#mask-20)"></path>
                        </g>
                        <g id="Group-259">
                            <mask id="mask-22" fill="white">
                                <use xlink:href="#path-21"></use>
                            </mask>
                            <g id="Clip-258"></g>
                            <path d="M43.6326,54.1853 C46.5646,53.6383 50.4896,52.0773 51.6996,48.6563 C51.8866,48.1273 52.6266,48.0723 52.9206,48.5503 C53.8616,50.0803 54.9486,52.7773 53.0196,55.1923 C50.7616,58.0173 46.7786,57.6963 43.3926,55.9153 C42.6066,55.5013 42.7586,54.3483 43.6326,54.1853" id="Fill-257" fill="#F9C2D9" mask="url(#mask-22)"></path>
                        </g>
                        <g id="Group-262">
                            <mask id="mask-24" fill="white">
                                <use xlink:href="#path-23"></use>
                            </mask>
                            <g id="Clip-261"></g>
                            <path d="M44.7576,55.2532 C44.1826,54.2862 38.2116,53.0082 36.4726,49.1452 C34.5266,44.8242 36.2266,41.2582 38.2726,40.3212 C39.1836,39.9032 40.1246,40.0302 40.9206,40.3222 C41.5456,40.1822 42.2526,39.9422 42.9906,39.7632 C42.8206,39.5702 42.5976,39.3622 42.2986,39.1342 C40.1196,37.4692 37.4286,37.9322 35.6156,38.4972 C33.3396,39.2072 29.4416,42.0022 28.8836,47.7982 C28.5536,51.2372 29.4286,56.6202 34.3056,59.3152 C40.8166,62.9142 45.3326,56.2202 44.7576,55.2532" id="Fill-260" fill="#F9C2D9" mask="url(#mask-24)"></path>
                        </g>
                        <g id="Group-265">
                            <mask id="mask-26" fill="white">
                                <use xlink:href="#path-25"></use>
                            </mask>
                            <g id="Clip-264"></g>
                            <path d="M52.9822,54.6907 C52.9822,54.6907 53.3402,61.0427 48.6982,63.5027 C43.8422,66.0757 40.3982,65.0957 38.6932,64.2067 C38.0242,63.8577 37.9132,62.9527 38.4812,62.4567 C39.7772,61.3257 42.1072,59.5367 44.1572,59.2547 C47.1932,58.8387 50.5342,58.3627 52.9822,54.6907" id="Fill-263" fill="#FFCFDF" mask="url(#mask-26)"></path>
                        </g>
                    </g>
                    <g id="Group-285" transform="translate(277.000000, 218.696000)">
                        <path d="M169.782,44.9812 C164.118,49.3862 155.955,48.3652 151.551,42.7002 C147.145,37.0362 148.167,28.8742 153.831,24.4692 C159.495,20.0642 167.658,21.0852 172.062,26.7492 C176.468,32.4132 175.446,40.5762 169.782,44.9812" id="Fill-267" fill="#FFADD2"></path>
                        <path d="M164.5837,21.3313 C161.7217,21.3043 156.4167,24.9393 157.1487,31.4233 C157.8817,37.9083 163.9037,39.1023 167.8387,37.6103 C171.7717,36.1183 165.9667,29.6613 166.4287,27.7343 C166.8077,26.1503 169.2407,27.2083 172.3107,28.5243 C172.8207,28.7433 173.0767,28.2283 172.9167,27.6963 C171.8417,24.1133 167.4457,21.3583 164.5837,21.3313" id="Fill-269" fill="#FFDEEB"></path>
                        <path d="M165.031,37.4441 C168.28,36.8371 172.632,35.1071 173.973,31.3161 C174.18,30.7301 175,30.6691 175.326,31.1981 C176.368,32.8941 177.574,35.8831 175.435,38.5601 C172.933,41.6901 168.517,41.3361 164.765,39.3611 C163.893,38.9021 164.063,37.6251 165.031,37.4441" id="Fill-271" fill="#FFCFDF"></path>
                        <path d="M166.2781,38.6277 C165.6401,37.5557 159.0231,36.1397 157.0941,31.8577 C154.9381,27.0687 156.8231,23.1167 159.0901,22.0767 C160.1031,21.6127 161.1511,21.7567 162.0361,22.0827 C162.6381,21.6597 163.2481,21.2787 163.8791,21.0297 C163.7771,20.9417 163.6741,20.8547 163.5521,20.7617 C161.1381,18.9167 158.1551,19.4297 156.1461,20.0557 C153.6231,20.8417 149.3021,23.9407 148.6841,30.3647 C148.3181,34.1767 149.2891,40.1437 154.6931,43.1297 C161.9101,47.1197 166.9161,39.6997 166.2781,38.6277" id="Fill-273" fill="#FFCFDF"></path>
                        <path d="M175.3943,38.0042 C175.3943,38.0042 175.7913,45.0442 170.6453,47.7712 C165.2643,50.6232 161.4473,49.5372 159.5563,48.5512 C158.8153,48.1652 158.6923,47.1612 159.3223,46.6112 C160.7583,45.3582 163.3403,43.3752 165.6133,43.0632 C168.9773,42.6022 172.6803,42.0732 175.3943,38.0042" id="Fill-275" fill="#FFDEEB"></path>
                        <path d="M83.0251,76.3919 C83.0251,76.3919 127.3171,66.2249 129.3581,65.7249 C131.4001,65.2249 136.0251,63.0579 134.3581,56.7249 C132.6921,50.3909 131.0251,43.3909 131.0251,43.3909 L84.3581,56.7249 L83.0251,76.3919 Z" id="Fill-277" fill="#23478D"></path>
                        <path d="M83.989,217.8665 C83.989,217.8665 87.75,224.3825 86.775,227.7245 C85.398,232.4465 80.863,239.8275 74.525,246.9745 C62.775,260.2245 56.791,262.9065 56.32,265.9115 C55.849,268.9165 58.82,270.9115 63.275,269.4745 C68.4,267.8225 78.167,264.6125 88.025,258.5995 C97.26,252.9685 115.801,241.0855 118.525,238.3075 C121.249,235.5315 123.125,231.6535 119.415,227.1895 C116.813,224.0595 110.129,214.9455 105.899,208.4865 L83.989,217.8665 Z" id="Fill-279" fill="#FFAEAE"></path>
                        <path d="M119.4148,227.1897 C118.2208,225.7527 116.1628,223.0497 113.8808,219.9267 C105.2968,225.9887 96.1428,232.3937 86.4178,228.8067 C84.7198,233.5297 80.3988,240.3507 74.5248,246.9747 C62.7748,260.2247 56.7908,262.9067 56.3198,265.9117 C55.8498,268.9167 58.8198,270.9117 63.2748,269.4747 C68.3998,267.8227 78.1668,264.6127 88.0248,258.5997 C97.2598,252.9677 115.8028,241.0857 118.5248,238.3077 C121.2478,235.5317 123.1248,231.6537 119.4148,227.1897" id="Fill-281" fill="#42426C"></path>
                        <path d="M81.0251,9.3914 C70.6921,25.7244 31.0251,50.7244 5.6921,89.3924 C-8.7059,111.3674 12.3581,128.0584 21.0251,138.0584 C29.5031,147.8404 59.3581,185.7254 78.0251,223.7254 C90.6921,219.0584 109.6921,209.0584 109.6921,209.0584 C109.6921,209.0584 81.2821,140.2334 72.5251,129.7254 C62.5251,117.7254 52.3581,110.7254 52.3581,110.7254 C52.3581,110.7254 57.8131,104.4824 67.3581,98.7254 C88.3581,86.0584 116.3381,67.4124 124.3581,59.3914 C138.0251,45.7244 150.6921,32.0584 137.6921,0.0584 L81.0251,9.3914 Z" id="Fill-283" fill="#42426C"></path>
                    </g>
                    <g id="Group-288" transform="translate(385.000000, 87.696000)">
                        <mask id="mask-28" fill="white">
                            <use xlink:href="#path-27"></use>
                        </mask>
                        <g id="Clip-287"></g>
                        <path d="M1.525,1.225 L0.275,10.475 C0.275,10.475 2.775,48.975 20.025,51.725 C37.275,54.475 48.275,19.475 48.275,19.475 L47.525,0.975 L1.525,1.225 Z" id="Fill-286" fill="url(#radialGradient-29)" mask="url(#mask-28)"></path>
                    </g>
                    <g id="Group-299" transform="translate(280.000000, 8.696000)">
                        <path d="M160.3582,78.5583 C157.5252,70.2253 152.0252,66.2253 143.7752,64.7253 C137.3272,63.5523 135.0592,59.5493 128.2752,60.9753 C118.3582,63.0583 117.3052,68.3253 111.6922,70.2253 C108.9832,71.1413 105.4582,71.8983 102.0252,75.9753 C98.0252,80.7253 99.0252,85.9753 99.0252,85.9753 L112.0252,129.7253 C112.0252,129.7253 113.0242,121.7663 111.1502,112.2253 C108.8582,100.5583 106.5982,97.2713 107.0252,91.7253 C107.1922,89.5583 108.6102,84.2933 116.6922,86.8913 C123.6922,89.1413 129.1922,91.4753 134.1922,90.7253 C140.4952,89.7793 142.2752,85.5583 144.0252,86.5583 C146.9772,88.2453 148.0252,91.7253 146.5252,97.2253 C145.0252,102.7253 141.0252,107.3503 139.5252,114.2253 C138.4902,118.9673 137.7482,126.3563 142.2752,133.3913 C144.6902,137.1443 148.3752,139.6513 150.1502,140.7253 C155.5252,143.9753 164.7752,142.9753 170.5252,137.7253 C176.2752,132.4753 183.0252,135.3083 183.0252,135.3083 C183.0252,135.3083 176.1502,118.4753 171.7752,108.4753 C167.5252,106.8503 165.2652,105.0453 163.7752,102.7253 C158.3452,94.2673 162.7092,85.4693 160.3582,78.5583" id="Fill-289" fill="#423748"></path>
                        <path d="M56.7517,14.7839 C55.8597,23.3939 50.5727,29.9009 44.9417,29.3169 C39.3117,28.7339 34.0247,21.2249 36.3607,12.6719 C38.6417,4.3219 43.5617,-0.5251 49.1917,0.0579 C54.8227,0.6409 57.6437,6.1739 56.7517,14.7839" id="Fill-291" fill="#423748"></path>
                        <path d="M47.6921,73.7249 L49.3581,93.3919 L81.7751,69.9749 C81.7751,69.9749 78.1921,63.8079 80.5251,54.4749 L47.6921,73.7249 Z" id="Fill-293" fill="#E09595"></path>
                        <path d="M43.0251,101.2249 C43.0251,101.2249 42.5251,94.9749 47.2751,89.4749 C52.3011,84.4479 67.8721,72.7749 81.2551,65.6469 C82.2691,65.1069 83.5231,65.3969 84.1711,66.3459 C85.9301,68.9249 89.6361,74.6419 92.0251,78.2249 L43.0251,101.2249 Z" id="Fill-295" fill="#638FFA"></path>
                        <path d="M0.5251,147.2249 C0.5251,147.2249 29.0251,124.2249 31.5251,120.2249 C34.0251,116.2249 39.6801,104.9439 42.0251,100.9749 C45.2751,95.4749 48.0251,88.7249 59.5251,81.2249 C71.0251,73.7249 81.0251,73.7249 87.0251,75.2249 C93.0251,76.7249 100.5251,83.7249 103.5251,91.7249 C108.1601,104.0849 112.5251,112.2249 114.0251,125.7249 C115.5251,139.2249 118.0251,158.7249 120.0251,168.7249 C122.0251,178.7249 130.0251,204.2249 130.0251,204.2249 L86.0251,216.2249 C86.0251,216.2249 69.4461,201.8099 64.0251,196.7249 C58.4991,191.5409 54.7611,173.0509 52.5251,168.7249 C49.2381,162.3659 46.0251,157.2249 46.0251,157.2249 C46.0251,157.2249 37.0251,168.2249 31.0251,171.2249 C25.0251,174.2249 15.0251,177.2249 15.0251,177.2249 L0.5251,147.2249 Z" id="Fill-297" fill="#D8DDEA"></path>
                    </g>
                    <g id="Group-302" transform="translate(313.000000, 15.696000)">
                        <mask id="mask-31" fill="white">
                            <use xlink:href="#path-30"></use>
                        </mask>
                        <g id="Clip-301"></g>
                        <path d="M4.007,20.848 C-1.975,40.225 -1.001,63.315 11.775,67.975 C24.551,72.635 43.722,55.69 50.275,37.725 C56.828,19.76 46.801,6.885 34.025,2.225 C31.073,1.148 28.185,0.588 25.418,0.588 C16.208,0.588 8.345,6.798 4.007,20.848" id="Fill-300" fill="url(#radialGradient-32)" mask="url(#mask-31)"></path>
                    </g>
                    <g id="Group-333" transform="translate(172.000000, 0.696000)">
                        <path d="M150.0916,24.4617 C150.3956,24.6157 150.7186,24.7137 151.0586,24.7397 C152.8526,24.8737 154.5266,26.0247 166.1926,25.5587 C172.7396,25.2957 179.0256,24.8917 183.3586,26.7247 C188.9226,29.0787 191.0186,31.8567 190.6926,38.3917 C190.5256,41.7247 187.8336,44.8277 186.3586,46.7247 C184.0256,49.7247 182.4876,52.2137 182.1776,55.6547 C182.0396,57.1867 183.2316,58.5207 184.7676,58.5937 L184.9326,58.6017 C186.3836,58.6707 187.5256,59.8677 187.5256,61.3207 C187.5256,63.4867 189.9356,64.7997 191.7386,63.6007 C193.4766,62.4467 195.5446,60.7267 197.5256,58.2247 C202.2756,52.2247 201.7196,48.3677 203.5256,43.7247 C204.6926,40.7247 207.3586,38.3917 207.0256,33.7247 C206.6136,27.9677 205.0256,24.0587 200.0256,21.2247 C195.6726,18.7587 192.3586,16.1417 191.3586,13.3917 C190.3586,10.6417 189.7756,7.5587 182.0256,3.0587 C174.2756,-1.4413 167.2756,0.4747 163.2756,2.4747 C159.2756,4.4747 153.9026,2.6057 149.2756,7.7247 C145.3586,12.0587 145.5696,17.8127 146.5256,20.4747 C147.3646,22.8147 149.1546,23.9877 150.0916,24.4617" id="Fill-303" fill="#423748"></path>
                        <path d="M191.9021,61.5344 C188.7641,64.7424 184.8201,65.9724 183.0931,64.2834 C181.3661,62.5934 182.5091,58.6224 185.6481,55.4154 C188.7861,52.2074 192.7301,50.9774 194.4571,52.6664 C196.1841,54.3564 195.0411,58.3264 191.9021,61.5344" id="Fill-305" fill="#FFAEAE"></path>
                        <path d="M101.3586,157.3914 C101.3586,157.3914 89.6916,162.0584 72.0246,171.0584 C54.3586,180.0584 38.6916,189.3914 34.3586,189.7244 C25.5586,190.4014 21.6916,189.3914 16.6916,190.7244 C11.6916,192.0584 4.6916,198.0584 4.6916,198.0584 C4.6916,198.0584 0.0246,201.5584 0.6916,206.5584 C1.0736,209.4264 2.3586,211.8914 4.3366,215.5354 C5.3776,217.4534 7.7066,218.2894 9.8786,218.0824 L21.7326,218.2684 C24.1006,218.0434 25.8276,216.0944 26.0246,213.7244 C26.1236,212.5394 26.8736,209.2594 28.5246,208.0584 C32.1916,205.3914 35.5246,206.2244 35.5246,206.2244 L43.6916,207.8914 C46.2556,207.4164 48.5246,206.3914 50.6916,203.3914 C50.6916,203.3914 51.5246,201.8914 53.1916,201.7244 C57.8826,201.2554 95.0256,195.0584 116.3586,187.3914 L101.3586,157.3914 Z" id="Fill-307" fill="#FFAEAE"></path>
                        <path d="M101.2234,154.8728 C99.8724,155.6668 99.2614,157.2898 99.7714,158.7718 C101.0604,162.5168 103.4884,169.7538 106.2754,175.7248 C108.7794,181.0908 111.7904,186.1998 113.5474,189.0518 C114.5314,190.6478 116.2794,191.5878 118.1524,191.5568 C119.9514,191.5268 122.0824,190.2888 124.5254,189.4748 C126.4694,188.8268 128.6014,189.0648 130.1754,188.3758 C132.5174,187.3508 133.5674,184.6098 132.5304,182.2728 L117.3574,148.1018 C116.5074,146.1878 114.0094,145.7408 112.5294,147.2208 C110.7784,148.9718 108.5264,150.9738 106.5254,151.9748 C104.5394,152.9678 102.6374,154.0418 101.2234,154.8728" id="Fill-309" fill="#638FFA"></path>
                        <path d="M182.7751,214.4124 L172.0251,204.7244 C172.0251,204.7244 183.2701,209.7584 195.1921,211.5584 C199.6081,212.2244 199.2381,210.6864 198.6921,210.3084 C192.6981,206.1614 189.4001,203.3494 187.6501,200.8494 C186.8501,199.7074 188.0241,198.6414 190.1921,199.6414 C192.3581,200.6414 201.1921,204.7244 213.3001,206.0424 C220.5971,206.8364 225.9061,204.6884 227.4421,204.0584 C228.9771,203.4284 229.7381,201.7804 230.0251,200.2244 C230.9961,194.9764 230.9341,191.4434 230.7751,187.7254 C231.0251,188.9754 238.0251,212.2874 238.0251,212.2874 L191.5251,222.0374 L182.7751,214.4124 Z" id="Fill-311" fill="#C5CBD8"></path>
                        <path d="M154.0251,165.2249 C154.0251,165.2249 178.5611,142.8749 190.6501,131.4749 C191.4301,130.7389 191.9001,131.9749 190.6771,133.6679 C179.6661,148.9199 160.5251,176.7249 160.5251,176.7249 L154.0251,165.2249 Z" id="Fill-313" fill="#C5CBD8"></path>
                        <path d="M221.1638,149.8835 C220.2158,157.7135 219.9708,160.2305 218.7128,167.9125 C217.5308,175.1265 217.9278,180.4095 218.8998,179.0375 C220.9808,176.1005 221.6498,168.7875 224.2748,168.0995 C225.6528,167.7385 227.0248,173.6625 227.8578,176.0585 C227.6618,174.4395 226.2508,166.4395 225.1498,158.4745 C223.7108,148.0515 222.4968,137.1195 222.1318,134.8965 C222.1318,134.8965 222.1118,142.0535 221.1638,149.8835" id="Fill-315" fill="#C5CBD8"></path>
                        <path d="M236.4001,335.5999 C230.5251,330.7249 229.2331,325.1679 229.0251,320.9749 C228.9101,318.6579 229.4001,315.8499 229.5771,314.5319 C229.6321,314.1159 229.2061,314.3109 228.7751,315.0999 C227.2751,317.8499 226.6591,319.2349 225.7751,323.2249 C225.3801,325.0029 225.5251,327.9749 225.9831,329.9809 C226.2351,331.0859 225.5461,332.1129 224.4411,331.8599 C224.4271,331.8559 224.4141,331.8529 224.4001,331.8499 C211.3091,328.8579 208.2911,325.2449 205.3341,321.9949 C205.1661,321.8099 204.8581,321.9319 204.8571,322.1819 C204.8461,325.5419 205.1501,328.6009 205.6501,331.0999 C206.0541,333.1209 208.3661,334.7859 210.6501,334.4749 C231.7751,331.5999 240.3171,344.7249 242.1501,344.9749 C243.8931,345.2119 240.8531,339.3839 236.4001,335.5999" id="Fill-317" fill="#5581EE"></path>
                        <path d="M191.4421,237.8914 L190.5801,238.8264 C190.2621,239.1694 190.3671,239.7224 190.7881,239.9264 L212.3541,250.3864 C213.9131,251.1424 215.7771,250.8614 217.0431,249.6774 L219.3171,247.1414 L191.4421,237.8914 Z" id="Fill-319" fill="#2B2B51"></path>
                        <path d="M260.8855,176.0764 C260.8855,176.0764 266.4705,167.0344 277.4265,172.1154 C287.3075,176.6964 285.2385,187.9114 285.2385,187.9114 C285.2385,187.9114 287.3645,183.5994 288.9425,182.7244 C298.1855,177.5974 294.2665,172.7734 296.7265,169.9874 C299.4185,166.9364 301.1325,167.1304 301.8145,160.6224 C302.4265,154.7704 297.6245,152.2824 296.2195,148.6644 C294.6845,144.7094 290.1775,141.6604 283.2215,142.5514 C278.5095,143.1554 275.0255,146.8914 272.6925,150.2244 C268.7265,155.8894 269.5715,159.9254 268.5255,162.8914 C267.6955,165.2464 260.8855,176.0764 260.8855,176.0764" id="Fill-321" fill="#638FFA"></path>
                        <path d="M279.1501,171.0999 C271.1501,166.3499 266.0251,169.3499 265.1321,170.8149 C263.8661,172.8959 262.5191,175.0699 261.2751,177.2249 C256.8941,184.8109 248.5951,193.7249 244.2751,198.9749 C243.7851,199.5709 242.9571,200.2959 242.3581,200.8079 C242.3631,200.8169 242.3671,200.8249 242.3721,200.8329 C237.9501,203.2979 230.0981,205.5179 222.2751,208.9749 C204.6301,216.7719 186.0251,220.7249 186.0251,220.7249 L190.6921,230.3919 C211.5251,228.7249 238.7751,223.4749 249.2751,219.4749 C250.2201,219.1149 251.0681,218.7759 251.8801,218.4129 C255.9471,216.5979 258.9081,214.2739 268.1501,205.5999 C276.2751,197.9749 281.8251,191.3459 285.5871,186.5379 C287.9571,183.5109 285.4721,174.8539 279.1501,171.0999" id="Fill-323" fill="#FFAEAE"></path>
                        <path d="M260.3376,178.7561 C260.3376,178.7561 260.0286,177.4921 260.8586,175.8911 C261.9646,173.7561 264.0346,168.9251 270.3586,167.7251 C276.2546,166.6061 280.5166,168.8781 283.1916,171.4751 C286.8516,175.0271 287.5606,180.0931 287.4566,182.1521 C287.3256,184.7651 286.0096,187.4671 284.3376,189.4121 C283.1796,190.7591 282.3576,190.4781 282.3576,190.4781 C282.3576,190.4781 283.6486,188.8601 284.3666,187.3971 C285.6066,184.8761 285.5246,176.2251 277.6056,172.5981 C270.2916,169.2491 264.6916,171.7251 262.6086,175.0581 C261.4486,176.9131 260.3376,178.7561 260.3376,178.7561" id="Fill-325" fill="#FFDEEB"></path>
                        <path d="M176.8367,233.1492 C171.6757,233.1612 174.2857,228.0102 175.7747,221.2252 C177.2747,214.3912 178.9417,212.4752 181.3577,212.6412 C184.6277,212.8672 187.0247,212.9752 190.9417,216.8082 C193.1587,218.9782 196.2507,221.6522 197.2747,223.7252 C198.5517,226.3072 198.6917,230.1412 192.5547,231.3202 C188.6777,232.0652 182.3867,233.1362 176.8367,233.1492" id="Fill-327" fill="#E09595"></path>
                        <path d="M229.8582,152.2249 C231.1502,152.7249 237.5872,157.0999 237.5872,157.0999 C237.5872,157.0999 231.2542,155.9749 229.8582,152.2249" id="Fill-329" fill="#E09595"></path>
                        <path d="M245.7751,156.6624 C245.7751,156.6624 254.5881,149.2254 255.4631,148.7874 C256.3381,148.3494 253.1921,154.9954 245.7751,156.6624" id="Fill-331" fill="#E09595"></path>
                    </g>
                </g>
            </g>
        </g>
    </g>
</svg>