<?xml version="1.0" encoding="UTF-8"?>
<svg width="518px" height="564px" viewBox="0 0 518 564" version="1.1" xmlns="http://www.w3.org/2000/svg" xmlns:xlink="http://www.w3.org/1999/xlink">
    <!-- Generator: Sketch 51.3 (57544) - http://www.bohemiancoding.com/sketch -->
    <title>Карта Цифровой Signature</title>
    <desc>Created with Sketch.</desc>
    <defs>
        <path d="M29.577,0.983 L2.856,1.442 C2.856,1.442 -0.537,11.841 0.158,38.929 C0.758,62.321 6.155,78.815 8.555,80.015 C10.954,81.215 17.252,81.215 27.148,77.616 L28.065,89.5 L70.633,68.319 L68.234,57.522 L69.353,43.272 C71.148,20.433 53.08,0.979 30.268,0.977 C30.038,0.977 29.809,0.979 29.577,0.983" id="path-1"></path>
        <linearGradient x1="47.4448589%" y1="51.4614582%" x2="76.9499522%" y2="79.7600367%" id="linearGradient-3">
            <stop stop-color="#FDACAC" offset="0%"></stop>
            <stop stop-color="#DF9595" offset="100%"></stop>
        </linearGradient>
        <path d="M0.158,37.929 C0.758,61.321 6.155,77.815 8.555,79.015 C10.68,80.078 19.562,75.213 24.616,71.035 C26.05,69.133 27.368,67.139 28.561,65.064 C31.909,55.183 34.409,33.844 34.409,33.844 C34.409,33.844 26.358,12.128 15.377,4.563 L2.856,0.442 C2.856,0.442 -0.537,10.841 0.158,37.929" id="path-4"></path>
        <radialGradient cx="-62.6910836%" cy="45.6334587%" fx="-62.6910836%" fy="45.6334587%" r="167.901532%" gradientTransform="translate(-0.626911,0.456335),scale(1.000000,0.436285),translate(0.626911,-0.456335)" id="radialGradient-6">
            <stop stop-color="#FFE8E8" offset="0%"></stop>
            <stop stop-color="#FDACAC" offset="100%"></stop>
        </radialGradient>
        <polygon id="path-7" points="0 564 517.223 564 517.223 0.333 0 0.333"></polygon>
    </defs>
    <g id="Частным" stroke="none" stroke-width="1" fill="none" fill-rule="evenodd">
        <g id="-Мобильный-банк.png-БКС-Платинум.png-Доходный-фунт.png-Кредит-Онлайн.png-Рефенансирование.png-Цифровой-Signature.png-Цифровой-Visa-Platinum.png-More-Signature.png-more-visa-platinum.png" transform="translate(-5748.000000, -9222.000000)">
            <g id="Карта-Цифровой-Signature" transform="translate(5624.000000, 9120.000000)">
                <rect id="Rectangle-8-Copy-6" fill-rule="nonzero" x="0" y="0" width="767" height="767"></rect>
                <g id="Group-94" transform="translate(124.000000, 101.000000)">
                    <g id="Group-37" transform="translate(23.000000, 0.667000)">
                        <path d="M310.0556,220.333 L258.0556,220.333 C227.2556,220.333 202.0556,195.134 202.0556,164.333 L202.0556,56.333 C202.0556,25.533 227.2556,0.333 258.0556,0.333 L310.0556,0.333 C340.8566,0.333 366.0556,25.533 366.0556,56.333 L366.0556,164.333 C366.0556,195.134 340.8566,220.333 310.0556,220.333" id="Fill-1" fill="#DBDFE4"></path>
                        <path d="M313.3447,192.6934 L254.7667,192.6934 C234.9667,192.6934 218.7667,176.4934 218.7667,156.6934 L218.7667,45.2324 C218.7667,25.4314 234.9667,9.2324 254.7667,9.2324 L313.3447,9.2324 C333.1457,9.2324 349.3447,25.4314 349.3447,45.2324 L349.3447,156.6934 C349.3447,176.4934 333.1457,192.6934 313.3447,192.6934" id="Fill-3" fill="#94BDFF"></path>
                        <path d="M356.6181,31.3335 C348.2111,14.6235 330.8931,3.0835 311.0031,3.0835 L257.6151,3.0835 C237.7241,3.0835 220.4071,14.6235 211.9991,31.3335 L356.6181,31.3335 Z" id="Fill-5" fill="#C7CDD3"></path>
                        <path d="M295.4756,26.3335 L272.6366,26.3335 C271.0786,26.3335 269.8036,25.0585 269.8036,23.5005 C269.8036,21.9415 271.0786,20.6665 272.6366,20.6665 L295.4756,20.6665 C297.0336,20.6665 298.3086,21.9415 298.3086,23.5005 C298.3086,25.0585 297.0336,26.3335 295.4756,26.3335" id="Fill-7" fill="#DBDFE4"></path>
                        <path d="M281.5244,152.3584 C282.2324,151.6374 290.2084,143.9034 285.7224,133.2504 C281.7224,123.7504 271.4724,123.7504 263.8054,126.0004 C260.9944,126.8254 258.9214,126.4744 257.4724,123.3334 C253.4724,114.6664 244.3054,107.8334 234.6394,107.1664 C221.9684,106.2934 216.9724,109.6664 216.9724,109.6664 C216.9724,109.6664 210.8574,137.9494 215.4724,162.0004 C219.2324,181.5934 233.2994,197.8764 237.5834,197.8764 C255.1724,197.8764 269.9534,197.5074 277.7904,190.5024 C288.1414,181.2494 287.2164,172.0674 282.2184,164.6934 C281.4324,163.5334 276.4724,157.5004 281.5244,152.3584" id="Fill-9" fill="#FFFFFF"></path>
                        <path d="M317.9726,194.833 C313.9726,186.166 304.8056,179.333 295.1396,178.666 C282.4686,177.793 277.4726,181.166 277.4726,181.166 C277.4726,181.166 272.1566,190.619 271.4096,204.125 C270.9226,212.94 319.4216,197.975 317.9726,194.833" id="Fill-11" fill="#FFFFFF"></path>
                        <path d="M218.2226,31.375 L217.1396,96.667 C217.1396,96.667 233.2646,91.397 238.1396,88.667 C246.4726,84 246.2646,82.042 254.5976,80.375 C262.9306,78.708 279.7646,75.875 285.0976,72.875 C290.4306,69.875 279.0976,67.625 272.4726,66.667 C265.5836,65.67 260.9186,63.971 259.1396,63 C255.4726,61 264.1946,60.348 269.4726,59.333 C278.1396,57.667 278.8056,54 275.8056,52.333 C272.4836,50.487 269.1836,48.75 265.0786,46.719 C264.9176,46.434 263.8596,44.186 270.0976,43.25 C276.7646,42.25 285.4726,38.542 292.0976,37.625 C298.7226,36.708 306.1396,37.167 316.8056,34.5 L316.8056,31.375 L218.2226,31.375 Z" id="Fill-13" fill="#76A4FF"></path>
                        <path d="M350.4101,31.3125 L298.9721,31.3545 C298.9721,31.3545 296.2091,35.3345 296.9721,41.2505 C298.9721,56.7495 310.7621,56.8055 312.9721,59.2495 C315.4841,62.0265 318.4731,72.7505 334.2231,72.0005 C343.1131,71.5765 352.6301,61.3075 352.6301,61.3075 L350.4101,31.3125 Z" id="Fill-15" fill="#FFFFFF"></path>
                        <path d="M346.5976,31.3125 C348.3186,35.5055 349.3446,40.4385 349.3446,45.2315 L349.3446,156.6935 C349.3446,176.4935 333.1456,192.6935 313.3446,192.6935 L254.7666,192.6935 C234.9666,192.6935 218.7666,176.4935 218.7666,156.6935 L218.7666,45.2315 C218.7666,40.4385 220.0026,35.5255 221.7226,31.3335 L208.1066,31.3335 C204.4186,38.7875 202.0556,47.4935 202.0556,56.3335 L202.0556,164.3335 C202.0556,195.1335 227.2556,220.3335 258.0556,220.3335 L310.0556,220.3335 C340.8566,220.3335 366.0556,195.1335 366.0556,164.3335 L366.0556,56.3335 C366.0556,47.4935 363.8486,38.8285 360.1606,31.3745 L346.5976,31.3125 Z" id="Fill-17" fill="#E9EEFB"></path>
                        <path d="M342.1396,76.6665 C342.1396,76.6665 328.4726,91.3335 316.4726,94.9995 C304.4726,98.6665 289.3076,101.8905 284.4726,108.3335 C280.9946,112.9675 286.0096,117.4715 292.8056,121.6665 C297.6356,124.6485 296.4726,131.3335 307.1396,135.3335 C317.8056,139.3335 344.4726,142.3335 344.4726,142.3335 L342.1396,76.6665 Z" id="Fill-19" fill="#76A4FF"></path>
                        <path d="M152.3266,236.0625 C151.2846,236.0625 146.8896,235.9795 145.6396,235.9795 C142.9726,235.9795 137.8886,233.4795 122.5556,229.0625 C120.6716,228.5195 117.8886,228.2295 115.5556,229.8955 C114.0336,230.9835 108.1376,235.2715 104.4996,237.9185 C102.6036,239.2985 101.2796,241.3275 100.7796,243.6195 L98.4726,253.7295 L152.9726,253.7295 L152.3266,236.0625 Z" id="Fill-21" fill="#FFAEAE"></path>
                        <polygon id="Fill-23" fill="#FFFFFF" points="151.3462 233.9316 148.9292 233.9316 151.2012 253.7296 158.2012 253.7296"></polygon>
                        <path d="M128.8476,178.5625 L106.6806,178.5625 C106.6806,178.5625 105.8476,207.1235 105.8476,211.4795 C105.8476,217.4065 110.1796,222.3085 115.8476,223.2275 L115.8476,246.2295 L119.6806,246.2295 L119.6806,223.2275 C125.3486,222.3085 129.6806,217.4065 129.6806,211.4795 C129.6806,207.1235 128.8476,178.5625 128.8476,178.5625" id="Fill-25" fill="#E9EEFB"></path>
                        <path d="M105.8813,252.1855 C105.0503,252.4975 105.2733,253.7295 106.1613,253.7295 L117.4313,253.7295 L115.4723,249.6045 L105.8813,252.1855 Z" id="Fill-27" fill="#E9EEFB"></path>
                        <path d="M128.2978,211.6045 C128.2978,217.3985 123.6008,221.1455 117.8058,221.1455 C112.0118,221.1455 107.3138,217.3985 107.3138,211.6045 L128.2978,211.6045 Z" id="Fill-29" fill="#EFDAB9"></path>
                        <path d="M126.3891,244.6455 C126.3891,244.6455 120.0561,244.8955 115.3891,246.1455 C114.1491,246.4785 110.4721,247.6455 110.3061,250.3125 C110.1691,252.5005 112.8061,253.8125 114.6391,253.8125 C118.8891,253.8125 126.3891,253.6455 126.3891,253.6455 L126.3891,244.6455 Z" id="Fill-31" fill="#FFAEAE"></path>
                        <path d="M33.9311,443.792 C42.1671,448.316 50.4461,447.314 54.5981,442.125 C57.2641,438.792 59.7231,433.75 61.9731,431 C64.1261,428.368 66.9731,424.75 66.9731,424.75 L54.2231,394.75 C54.2231,394.75 47.5561,400.417 46.3061,401 C45.0561,401.583 42.2231,402.25 36.9731,400.75 C31.7231,399.25 15.8061,394.917 3.8061,389.667 C-10.5709,383.377 26.8241,439.888 33.9311,443.792" id="Fill-33" fill="#FFAEAE"></path>
                        <path d="M93.2226,506.75 L87.7236,518.524 C85.3716,522.847 81.9646,526.501 77.8016,529.127 C72.7746,532.297 58.1806,540.25 48.9726,543.5 C31.9726,549.5 13.0826,554.475 11.2226,555.25 C8.2226,556.5 8.5736,561.365 15.2226,562.75 C21.2226,564 23.9726,564 29.7226,564 L109.9726,564 C114.4726,564 118.0656,560.628 116.9726,553.25 C115.9726,546.5 115.2226,539.25 115.2226,539.25 C115.2226,539.25 114.7226,536 115.7226,534 C116.7226,532 121.9726,521.75 121.9726,521.75 L93.2226,506.75 Z" id="Fill-35" fill="#FFAEAE"></path>
                    </g>
                    <g id="Group-40" transform="translate(356.000000, 73.667000)">
                        <mask id="mask-2" fill="white">
                            <use xlink:href="#path-1"></use>
                        </mask>
                        <g id="Clip-39"></g>
                        <path d="M29.577,0.983 L2.856,1.442 C2.856,1.442 -0.537,11.841 0.158,38.929 C0.758,62.321 6.155,78.815 8.555,80.015 C10.954,81.215 17.252,81.215 27.148,77.616 L28.065,89.5 L70.633,68.319 L68.234,57.522 L69.353,43.272 C71.148,20.433 53.08,0.979 30.268,0.977 C30.038,0.977 29.809,0.979 29.577,0.983" id="Fill-38" fill="url(#linearGradient-3)" mask="url(#mask-2)"></path>
                    </g>
                    <g id="Group-43" transform="translate(356.000000, 74.667000)">
                        <mask id="mask-5" fill="white">
                            <use xlink:href="#path-4"></use>
                        </mask>
                        <g id="Clip-42"></g>
                        <path d="M0.158,37.929 C0.758,61.321 6.155,77.815 8.555,79.015 C10.68,80.078 19.562,75.213 24.616,71.035 C26.05,69.133 27.368,67.139 28.561,65.064 C31.909,55.183 34.409,33.844 34.409,33.844 C34.409,33.844 26.358,12.128 15.377,4.563 L2.856,0.442 C2.856,0.442 -0.537,10.841 0.158,37.929" id="Fill-41" fill="url(#radialGradient-6)" mask="url(#mask-5)"></path>
                    </g>
                    <g id="Group-93" transform="translate(0.000000, 0.667000)">
                        <path d="M369.2031,61.9185 C367.5681,62.7045 365.7751,63.0985 363.9621,63.0395 C361.6321,62.9645 358.2861,63.0045 356.1271,63.6795 C352.5281,64.8045 351.4911,68.9255 351.7351,73.1955 C352.1411,80.2975 356.9811,84.2975 356.9811,84.2975 L363.3811,82.2325 C363.9161,82.2015 364.3011,82.7365 364.0941,83.2315 C362.9951,85.8565 360.4201,92.5605 361.8551,94.5345 C362.5991,95.5575 363.6491,96.2725 364.6271,96.7595 C366.2681,97.5785 367.3211,99.2315 367.4431,101.0625 C367.8071,106.4945 368.7631,116.8955 370.8891,120.1665 L376.7011,119.9515 L388.9451,98.6935 C388.9451,98.6935 393.3451,97.2335 397.6191,106.2315 C401.8921,115.2285 404.8161,126.0245 409.3141,127.3735 C413.8131,128.7235 422.8101,129.3975 424.6091,129.3975 C426.4091,129.3975 427.9831,128.0485 429.3331,124.8995 C430.6821,121.7505 437.1361,105.0375 438.5551,88.6875 C439.0021,83.5335 438.4771,69.0475 430.4581,61.4715 C422.5421,53.9925 414.0381,49.3255 400.3171,51.1245 C389.5931,52.5315 375.0441,59.1125 369.2031,61.9185" id="Fill-44" fill="#423748"></path>
                        <path d="M378.0508,100.8325 C378.7258,97.9085 383.4478,93.6355 387.0468,95.8845 C390.6468,98.1335 393.5708,103.0825 393.3448,108.4795 C393.0728,114.9975 389.5218,121.5255 387.4968,123.3255 C385.4728,125.1245 381.6738,125.5015 379.8498,124.2245 C377.6008,122.6505 376.7008,119.9515 376.7008,119.9515 C376.7008,119.9515 377.3758,103.7565 378.0508,100.8325" id="Fill-46" fill="#FFAEAE"></path>
                        <path d="M63.5561,253.7295 L454.7231,253.7295 L454.7231,316.2295 L295.2771,491.1185 C278.3041,509.7355 249.0331,509.8345 231.9331,491.3335 L80.7231,327.7295 C80.7231,327.7295 63.7231,313.2295 63.7231,291.7295 C63.7231,274.7295 63.5561,253.7295 63.5561,253.7295" id="Fill-48" fill="#DBDFE4"></path>
                        <path d="M382.9726,167.5 C361.6396,175.833 350.9726,186.5 342.4726,191 C306.4406,210.076 300.4536,216.686 281.1396,218.667 C261.6396,220.667 248.1396,222.667 217.1396,228 C210.4966,229.143 194.3106,231.968 187.5606,231.944 L174.3836,232.899 C173.8426,232.897 173.4506,233.412 173.5966,233.932 L179.1516,253.729 L328.9726,253.729 L326.4726,265.896 L335.9726,265.896 C335.9726,265.896 370.3616,202 382.9726,167.5" id="Fill-50" fill="#1D57AA"></path>
                        <path d="M377.1396,163.8335 C376.1396,164.1665 368.4726,165.3335 366.4726,170.1665 C365.5666,172.3555 365.6866,177.0585 365.8376,179.6655 C365.9066,180.8405 365.5326,181.9965 364.7846,182.9055 C362.1886,186.0625 356.0306,194.0485 353.3056,201.8335 C344.8946,225.8645 332.8056,262.3335 332.8056,262.3335 L345.3056,261.8335 L377.4726,174.0005 L377.1396,163.8335 Z" id="Fill-52" fill="#E86A46"></path>
                        <path d="M363.4726,204 L375.8886,163.427 C376.8996,160.125 379.2326,157.387 382.3346,155.867 L425.1256,134.896 C426.2806,134.383 427.6356,134.799 428.3016,135.872 L433.1396,143.667 L363.4726,204 Z" id="Fill-54" fill="#FFFFFF"></path>
                        <path d="M471.7226,152 C466.2226,151.743 454.9726,152.379 448.4726,144.75 C441.9726,137.121 434.9726,118.995 441.9726,99.023 C448.9726,79.052 462.4306,70.937 473.7226,70.75 C487.2226,70.525 497.7226,78.379 498.7226,84.213 C499.5166,88.844 499.7226,95.208 500.2226,106.653 C500.7816,119.436 513.7226,137.589 513.7226,142.75 C513.7226,147.911 498.7226,150.186 490.7226,150.859 C483.1076,151.5 477.2226,152.257 471.7226,152" id="Fill-56" fill="#DBDFE4"></path>
                        <path d="M498.9726,150.5 C514.5726,154.957 482.1126,211.5 468.0976,211.5 C454.0826,211.5 442.7226,198.349 442.7226,182.125 C442.7226,165.902 458.3366,153.394 472.2226,151.5 C483.2226,150 497.2226,150 498.9726,150.5" id="Fill-58" fill="#DBDFE4"></path>
                        <path d="M72.4726,397.667 C66.4726,413 92.4726,441 103.8056,435.667 L116.4726,423.667 L164.4726,397 L209.8056,321.667 L180.4726,306.333 L72.4726,397.667 Z" id="Fill-60" fill="#2B2B51"></path>
                        <path d="M113.1391,509 L152.4721,529 C152.4721,529 166.4721,503.667 174.4721,490.333 C182.4721,477 211.0161,440.915 217.1391,427 C224.4721,410.333 230.4721,386 230.4721,386 L361.8061,412.333 L340.4721,377.667 L245.8061,314.333 C245.8061,314.333 205.8061,319 193.1391,325 C182.2781,330.145 176.2821,342.716 171.1391,359.667 C153.1391,419 113.1391,509 113.1391,509" id="Fill-62" fill="#42426C"></path>
                        <path d="M240.9726,330.5 C257.1396,341.667 266.4726,353 279.8056,369 C292.5376,384.279 307.3056,397.667 330.4726,405.667 C346.4136,411.172 405.1396,411 405.1396,411 L430.4726,377.333 C430.4726,377.333 395.1396,339.667 377.1396,333 C359.1396,326.333 253.1266,285.858 236.4726,282.25 C221.4726,279 211.1396,280.333 199.8056,289 C188.4726,297.667 177.8476,308.563 177.8476,308.563 L204.7226,321.25 C204.7226,321.25 224.3906,319.047 240.9726,330.5" id="Fill-64" fill="#2B2B51"></path>
                        <path d="M485.7226,148.5 C485.7226,148.5 468.2226,149.75 461.7226,141.25 C455.2226,132.75 451.2226,112 458.2226,89.75 C465.2226,67.5 478.6806,58.459 489.9726,58.25 C503.4726,58 513.9726,66.75 514.9726,73.25 C515.7666,78.41 515.9726,85.5 516.4726,98.25 C517.0316,112.491 517.2226,129.75 517.2226,135.5 C517.2226,141.25 514.9726,146.75 506.9726,147.5 C499.3576,148.214 485.7226,148.5 485.7226,148.5" id="Fill-66" fill="#E9EEFB"></path>
                        <path d="M432.8056,142.6665 C432.8056,142.6665 389.2196,168.4095 369.9726,182.9995 C354.4726,194.7495 349.7226,220.2495 349.7226,220.2495 L337.9726,267.4995 C337.9726,267.4995 354.8056,321.3335 355.8056,321.3335 C356.8056,321.3335 438.4726,378.9995 438.4726,378.9995 C438.4726,378.9995 454.2866,209.4825 454.4726,208.4995 C456.0696,200.0415 457.7226,180.7495 451.7226,169.7495 C447.0696,161.2185 432.8056,142.6665 432.8056,142.6665" id="Fill-68" fill="#2474CD"></path>
                        <path d="M399.4726,172 L372.3286,201.33 C364.4726,211 360.6286,220.127 354.3836,231.896 C348.1396,243.667 339.9726,261 339.9726,261 L364.4726,308 L372.8056,314.333 L405.7136,287.548 C407.0326,286.475 408.7826,288.201 407.7266,289.534 L382.8056,321 L387.4726,324.333 L415.4896,298.239 C418.3976,295.531 423.1136,296.536 424.6636,300.195 L434.4726,323.333 L451.4726,216.667 L399.4726,172 Z" id="Fill-70" fill="#1D57AA"></path>
                        <path d="M231.3061,260.75 C231.3061,260.75 221.0351,260.563 214.4101,261.625 C208.4791,262.576 201.4051,262.551 195.1601,271.125 C192.5711,274.68 190.6581,277.281 189.2561,279.173 C186.6571,282.68 185.1551,286.863 184.8901,291.22 C184.6671,294.893 184.7101,298.996 185.7231,301.063 L195.0561,292.75 C195.0561,292.75 202.7891,290.658 209.1391,288.167 C215.7231,285.583 222.5561,281.833 222.5561,281.833 L231.3061,260.75 Z" id="Fill-72" fill="#FFAEAE"></path>
                        <path d="M350.3144,318.6885 C349.6774,317.4175 375.2434,342.4875 385.2274,355.0685 C399.7324,373.3455 412.7144,397.4265 412.7144,397.4265 L431.8484,371.7745 C431.8484,371.7745 422.3474,357.4765 409.7004,343.2225 C397.0524,328.9675 371.0544,307.9315 371.0544,307.9315 L350.3144,318.6885 Z" id="Fill-74" fill="#C7CDD3"></path>
                        <path d="M221.2226,286.5 L226.7226,286.5 L235.9726,260.75 L231.3056,260.75 C231.3056,260.75 227.4126,263.39 224.4726,269.917 C220.3056,279.167 221.2226,286.5 221.2226,286.5" id="Fill-76" fill="#FFFFFF"></path>
                        <path d="M434.581,320.9873 C434.581,320.9873 398.508,316.5883 363.737,316.7453 C334.737,316.8763 301.679,319.2923 297.798,320.0133 C294.905,320.5513 288.363,321.8543 289.537,328.5183 C290.861,336.0303 298.488,338.6853 306.723,339.2503 C312.806,339.6673 335.286,338.5383 366.735,340.6953 C400.56,343.0133 434.171,351.1433 434.171,351.1433 C434.171,351.1433 437.909,343.2923 437.429,334.3473 C436.948,325.4033 434.581,320.9873 434.581,320.9873" id="Fill-78" fill="#E9EEFB"></path>
                        <path d="M267.2226,393.25 C267.2226,393.25 258.2226,403.75 260.2226,420 C262.2226,436.25 270.6916,448.997 291.2226,452.75 C314.4726,457 364.7226,461.25 420.9726,451.25 C448.4346,446.368 471.2226,424 479.2226,402 C485.4096,384.984 499.9286,337.304 509.7226,251.75 C518.2226,177.5 516.9726,158.25 514.7226,155.5 C513.3066,153.77 491.2226,144.25 476.2226,156 C461.2226,167.75 444.0516,217.625 437.1396,267 C432.4726,300.333 434.4136,327.529 433.4726,341.5 C431.9726,363.75 418.7226,379.5 418.7226,379.5 C418.7226,379.5 388.9726,374.25 369.4726,382.5 C349.9726,390.75 332.4726,403 321.2226,404 C311.4726,402.25 267.2226,393.25 267.2226,393.25" id="Fill-80" fill="#E9EEFB"></path>
                        <path d="M138.2226,539.25 C138.2226,539.25 111.1396,540.5 109.4726,539 C107.8056,537.5 111.7506,529.898 108.9726,529.25 C106.4726,528.667 103.2226,528.833 100.8436,529.099 C100.8296,529.107 100.8166,529.117 100.8016,529.127 C95.7746,532.297 81.1766,540.239 71.9726,543.5 C50.8056,551 36.0826,554.475 34.2226,555.25 C31.2226,556.5 31.5736,561.365 38.2226,562.75 C44.2226,564 46.9726,564 52.7226,564 L132.9726,564 C137.4726,564 141.0656,560.628 139.9726,553.25 C138.9726,546.5 138.2226,539.25 138.2226,539.25" id="Fill-82" fill="#2474CD"></path>
                        <path d="M50.2226,414.375 C59.5976,413 61.5976,409.25 63.2226,406.875 C64.2746,405.337 66.7226,401.562 66.7226,401.562 C66.7226,401.562 64.4106,402.062 59.9726,400.75 C54.7366,399.201 40.7026,393.489 28.8056,388.333 C18.8056,384 6.3896,375.833 1.8056,382 C-2.1584,387.334 0.6536,397.561 7.8056,406.333 C24.7226,427.083 35.4726,428.333 55.8056,443.667 C63.3086,449.325 73.4456,447.314 77.5976,442.125 C79.2626,440.043 82.2196,435.064 83.7226,432.625 C78.5976,436 67.2426,430.77 62.9726,428.25 C56.2156,424.263 51.0976,417.5 50.2226,414.375" id="Fill-84" fill="#1D57AA"></path>
                        <mask id="mask-8" fill="white">
                            <use xlink:href="#path-7"></use>
                        </mask>
                        <g id="Clip-87"></g>
                        <polygon id="Fill-86" fill="#FFFFFF" mask="url(#mask-8)" points="130.306 211.668 151.305 211.668 151.305 210.028 130.306 210.028"></polygon>
                        <path d="M203.7236,249 C199.5616,249 195.4656,247.976 191.7896,246.023 C187.1766,243.573 182.4726,240.5 182.4726,240.5 L209.4726,249 L203.7236,249 Z" id="Fill-88" fill="#23478D" mask="url(#mask-8)"></path>
                        <path d="M231.4726,253.6875 L263.6076,250.0005 C272.3046,249.0025 279.4126,242.6005 281.3126,234.0545 L282.1086,230.4745 C282.3946,229.1865 284.0316,228.7835 284.8826,229.7915 L290.1016,235.9655 C291.0746,237.1165 292.9396,236.2215 292.6526,234.7445 L290.9016,225.7405 C290.6566,224.4805 292.0746,223.5665 293.1206,224.3105 L305.5536,233.1495 C309.1276,235.6905 313.9346,235.6245 317.4346,232.9815 C323.6856,228.2635 333.3366,220.9685 338.2856,217.1875 C334.0356,233.6255 329.0356,253.7295 329.0356,253.7295 L231.4726,253.6875 Z" id="Fill-89" fill="#23478D" mask="url(#mask-8)"></path>
                        <path d="M225.1997,287.7021 C225.0557,280.1671 226.4727,267.0831 235.3057,260.4171 C235.3057,260.4171 265.4727,260.3331 278.4727,260.3331 C289.4927,260.3331 321.6397,260.3331 339.9727,261.0001 C339.9727,261.0001 362.6247,225.2861 377.4727,204.5001 C384.9727,194.0001 399.7207,154.6881 429.4727,161.6661 C456.4727,168.0001 457.1397,193.1671 446.4727,218.5001 C435.8057,243.8331 367.1397,313.0001 359.1397,317.6671 C354.6417,320.2901 348.4727,320.0001 344.1397,319.6671 C337.1277,319.1271 257.1387,290.0001 257.1387,290.0001 L227.4037,290.0001 C226.1477,290.0001 225.2237,288.9581 225.1997,287.7021" id="Fill-90" fill="#2474CD" mask="url(#mask-8)"></path>
                        <path d="M249.1391,283.667 L230.8061,277.333 C230.8061,277.333 233.4721,283 240.4721,284.667 C247.4721,286.333 249.1391,283.667 249.1391,283.667" id="Fill-91" fill="#23478D" mask="url(#mask-8)"></path>
                        <polygon id="Fill-92" fill="#E09595" mask="url(#mask-8)" points="142.7226 245.292 142.7226 240.125 150.0976 243.875"></polygon>
                    </g>
                </g>
            </g>
        </g>
    </g>
</svg>