<svg xmlns="http://www.w3.org/2000/svg" xmlns:xlink="http://www.w3.org/1999/xlink" width="683" height="683" viewBox="0 0 683 683">
    <defs>
        <path id="a" d="M7.435 10.248C2.331 16.273.712 24.594.712 24.594S11.925 17.477 14.16 12.78c2.236-4.697 2.828-10.523 0-11.815-.326-.149-.6-.22-.835-.22-1.798 0-1.373 4.174-5.89 9.503M20.044 17c-3.316 2.115-14.29 6.751-14.29 6.751s-3.637 13.79-1.68 18.565c1.055 2.578 9.457 3.687 9.245.844-.279-3.735-4.202-6.75-4.202-6.75l2.522-7.596s3.753-1.416 8.405-5.063c2.913-2.283 3.437-7.23 1.326-7.23-.363 0-.805.147-1.326.48"/>
        <radialGradient id="b" cx="109.171%" cy="5.923%" r="161.887%" fx="109.171%" fy="5.923%" gradientTransform="scale(-1 -.49769) rotate(-36.435 -.27 3.287)">
            <stop offset="0%" stop-color="#FDACAC"/>
            <stop offset="100%" stop-color="#DF9595"/>
        </radialGradient>
        <path id="d" d="M30.621.824c-6.415 6.622-9.861 5.954-13.819 9.938-2.38 2.393-5.337 5.383-6.354 10.316-1.5 7.278-.809 12.648-2.522 19.41C6.212 47.248.361 50.614.361 50.614l9.806 12.095s4.998-4.092 9.526-7.032c4.53-2.94 10.415-7.759 13.45-17.722 3.19-10.477 8.459-14.937 5.883-16.877-2.241-1.687-6.648 1.611-8.405 3.375-2.032 2.039-5.105 6.986-7.565 9.284-2.461 2.296-2.522-.844-2.522-.844l-.84-12.658c1.53-3.747 2.095-4.42 9.246-10.127 1.29-1.03 2.62-2.854 3.099-4.484.776-2.648.245-5.162-.739-5.162-.21 0-.438.114-.679.362"/>
        <radialGradient id="e" cx="142.22%" cy="-1.677%" r="136.21%" fx="142.22%" fy="-1.677%" gradientTransform="scale(-1 -.63219) rotate(-37.88 .063 4.15)">
            <stop offset="0%" stop-color="#FFE8E8"/>
            <stop offset="100%" stop-color="#FDACAC"/>
        </radialGradient>
        <path id="g" d="M.63.002H181.62V189.03H.63z"/>
        <path id="i" d="M.63.837h40.264v72.58H.629z"/>
        <path id="k" d="M.501 21.289l18.493 35.443s6.378 14.71 21.854 15.19c13.587.421 27.081-35.433 25.312-50.82L44.532.665.501 21.289z"/>
        <radialGradient id="l" cx="124.412%" cy="86.672%" r="83.074%" fx="124.412%" fy="86.672%" gradientTransform="matrix(-.89164 -.41815 .45274 -.82353 1.961 2.1)">
            <stop offset="0%" stop-color="#FFE8E8"/>
            <stop offset="100%" stop-color="#FDACAC"/>
        </radialGradient>
    </defs>
    <g fill="none" fill-rule="evenodd">
        <path d="M0 0h683v683H0z"/>
        <path fill="#423748" d="M348.148 183.405s-22.339 23.006-40.013 10.725c-6.674-4.638-12.107-11.65-7.7-24.867 3.886-11.658 13.764-13.1 11.646-21.072-2.116-7.972-10.652-10.451-9.626-21.1.578-6.002 4.012-16.145 10.815-19.391 21.18 20.2 56.568 50.954 56.568 50.954l-21.69 24.751z"/>
        <g transform="matrix(-1 0 0 1 217.29 143.906)">
            <mask id="c" fill="#fff">
                <use xlink:href="#a"/>
            </mask>
            <path fill="url(#b)" d="M7.435 10.248C2.331 16.273.712 24.594.712 24.594S11.925 17.477 14.16 12.78c2.236-4.697 2.828-10.523 0-11.815-.326-.149-.6-.22-.835-.22-1.798 0-1.373 4.174-5.89 9.503M20.044 17c-3.316 2.115-14.29 6.751-14.29 6.751s-3.637 13.79-1.68 18.565c1.055 2.578 9.457 3.687 9.245.844-.279-3.735-4.202-6.75-4.202-6.75l2.522-7.596s3.753-1.416 8.405-5.063c2.913-2.283 3.437-7.23 1.326-7.23-.363 0-.805.147-1.326.48" mask="url(#c)"/>
        </g>
        <g transform="matrix(-1 0 0 1 228.218 148.97)">
            <mask id="f" fill="#fff">
                <use xlink:href="#d"/>
            </mask>
            <path fill="url(#e)" d="M30.621.824c-6.415 6.622-9.861 5.954-13.819 9.938-2.38 2.393-5.337 5.383-6.354 10.316-1.5 7.278-.809 12.648-2.522 19.41C6.212 47.248.361 50.614.361 50.614l9.806 12.095s4.998-4.092 9.526-7.032c4.53-2.94 10.415-7.759 13.45-17.722 3.19-10.477 8.459-14.937 5.883-16.877-2.241-1.687-6.648 1.611-8.405 3.375-2.032 2.039-5.105 6.986-7.565 9.284-2.461 2.296-2.522-.844-2.522-.844l-.84-12.658c1.53-3.747 2.095-4.42 9.246-10.127 1.29-1.03 2.62-2.854 3.099-4.484.776-2.648.245-5.162-.739-5.162-.21 0-.438.114-.679.362" mask="url(#f)"/>
        </g>
        <path fill="#FFF" d="M330.61 237.877s-35.253 36.161-41.779 33.841c-21.582-7.675-37.654-26.395-70.922-60.135 3.01-4.742 5.604-8.52 8.719-12.921 32.302 21.525 41.21 24.618 61.397 35.942 13.07-16.659 21.577-26.235 29.686-36.303 8.99-11.162 6.14-15.68 15.285-20.267 7.82-3.922 14.752-5.09 14.752-5.09l-17.138 64.933z"/>
        <path fill="#D8DDEA" d="M323.994 244.52l-11.086-13.977 3.936 20.813z"/>
        <path fill="#FFF" d="M420.512 315.495s-9.498-22.754-5.262-43.826c4.235-21.071 23.508-60.564 7.925-75.676-15.513-15.046-27.42-17.809-41.461-23.871-19.468-8.407-25.985-10.651-40.034 4.536-39.31 42.492-30.4 54.008-23.115 64.275 6.608 9.314 17.232 15.19 17.776 31.2.756 22.196-7.122 48.665-7.122 48.665l91.293-5.303z"/>
        <path fill="#D8DDEA" d="M410.465 262.452c2.261-7.835-15.034-39.483-15.034-39.483l27.537 22.022c-2.995 9.915-6.255 19.397-7.718 26.678a50.287 50.287 0 0 0-.368 2.05l-37.199 4.766s31.192-10.53 32.782-16.033"/>
        <path fill="#E9EEFB" d="M358.036 209.182c10.775-2.14 19.977-22.826 19.977-22.826l-14.753-6.176-16.02 21.75s3.712 8.659 10.796 7.252m-21.75-2.215c5.272.979 10.402-5.328 10.402-5.328l2.318-34.159s-10.8 10.321-15.083 16.672c-4.283 6.35-2.908 21.836 2.364 22.815"/>
        <path fill="#E09595" d="M347.307 174.125c-5.487 15.753-2.405 25.317-1.074 27.427.215.34.663.785 1.296.43 9.824-5.511 16.074-20.345 16.074-20.345l-2.637-37.385-15.34 10.144s3.345 14.95 1.681 19.729M329.9 267.99s-5.778-1.333-12.066-3.449c-6.289-2.116-5.808 4-1.86 6.812 3.946 2.812 13.926-3.363 13.926-3.363"/>
        <path fill="#5858C4" d="M422.786 314.874l-7.09-18.288s-55.194-6.35-86.545 17.708l93.635.58z"/>
        <path fill="#FF7E59" d="M166.543 128.239l-19.513 5.136a4.222 4.222 0 0 0-2.999 5.152l8.742 33.468a4.2 4.2 0 0 0 5.131 3.01l19.514-5.136a4.222 4.222 0 0 0 2.999-5.152l-8.742-33.467a4.2 4.2 0 0 0-5.132-3.011"/>
        <path fill="#FFF" d="M136.027 135.87c4.641 0 8.405 3.778 8.405 8.439l.768 17.721h.987l.767-17.721c0-4.661 3.764-8.439 8.405-8.439l21.014-.781v-.97l-21.014-.78c-4.641 0-8.405-3.779-8.405-8.44l-.772-28.691h-.977l-.773 28.692c0 4.66-3.764 8.438-8.405 8.438l-21.854.756v1.02l21.854.756zM232.55 303.24c8.813 6.283 14.805 8.085 20.742 11.737 0 0-10.25 7.215-19.902 2.608-9.653-4.606-3.96-16.57-.84-14.346M525.057 47.544c-3.948-6.463 1.2-24.35 10.928-18.565 11.718 6.968-10.928 18.565-10.928 18.565m-68.084 28.692c3.496-1.42 4.528 2 9.246 5.063 4.72 3.064 9.536 4.084 9.246 5.907-.627 3.962-8.348 6.043-14.289 3.376-5.94-2.668-7.698-12.927-4.203-14.346m79.012 169.62c4.914-1.227 7.954-2.934 12.608-2.532 2.399.207 3.735 8.487-6.725 10.127-14.507 2.274-19.332-8.44-19.332-8.44s7.657 2.29 13.449.845"/>
        <path fill="#E1E5F3" d="M390.782 632.14s-11.952 5.006-22.695-4.219c-10.743-9.224-2.195-14.998 2.522-13.502 4.717 1.497 7.954 5.632 11.767 9.283 5.284 5.059 8.406 8.439 8.406 8.439"/>
        <path fill="#42426C" d="M391.657 312.24l-5.043.844-15.97-21.097h4.202l16.811 20.254zm-33.621-20.253l5.883 27.005-4.202.843-5.044-27.848h3.363z"/>
        <path fill="#E09595" d="M242.795 472.915c92.251 4.878 136.51 30.307 142.703 40.5 5.612 8.717 11.364 19.311 14.092 29.287 3.512 12.84 6.96 18.597 10.346 16.228 9.718-6.796 2.622-26.903 1.79-40.994-.819-13.85 2.676-25.466-2.93-31.33-9.54-9.98-14.557-.502-29.755-3.827-21.32-4.664-36.991-18.108-81.623-41.235-33.398-17.305-72.68-38.134-72.68-38.134s-26.526 26.16-25.29 44.488c1.197 17.772 17.765 23.663 43.347 25.017"/>
        <path fill="#D8DDEA" d="M393.547 482.649c5.533-1.037 9.598-1.954 15.249 3.956 5.606 5.865 2.111 17.48 2.929 31.33.833 14.092 7.929 34.199-1.788 40.995-3.387 2.37-6.835-3.387-10.347-16.228-1.25-4.572-3.14-9.273-5.357-13.865 6.775-10.163 1.522-28.095-.686-46.188"/>
        <g transform="matrix(-1 0 0 1 460.208 458.673)">
            <mask id="h" fill="#fff">
                <use xlink:href="#g"/>
            </mask>
            <path fill="#FFAEAE" d="M149.51 5.435s-34.369 9.828-57.44 43.854c-22.677 33.445-32.24 65.037-43.417 69.618-5.831 2.39-8.473.323-10.34-.81-2.392-1.452-6.572-2.646-12.122-.407-6.661 2.686-9.691 19.075-15.66 31.856-5.97 12.78-15.973 36.177-4.973 39.331 6.671 1.912 7.22-14.26 43.095-46.897 35.876-32.638 92.64-82.03 107.051-92.227 22.494-15.918 31.423-30.92 22.506-46.318-5.07-8.755-28.7 2-28.7 2" mask="url(#h)"/>
        </g>
        <g transform="matrix(-1 0 0 1 460.208 574.284)">
            <mask id="j" fill="#fff">
                <use xlink:href="#i"/>
            </mask>
            <path fill="#E9EEFB" d="M40.894 3.879c-1.057-.404-1.875-.966-2.58-1.393C35.92 1.034 31.74-.16 26.19 2.08c-6.66 2.686-9.69 19.075-15.659 31.855C4.561 46.716-5.441 70.11 5.558 73.266c5.022 1.44 6.576-7.369 22.335-25.73-2.985-6.175-2.494-13.389.537-20.084 3.521-7.78 8.96-17.196 12.464-23.573" mask="url(#j)"/>
        </g>
        <path fill="#42426C" d="M437.97 457.214s-38.638 8.665-57.152 18.172c-18.514 9.508-26.604 18.927-46.434 7.739-19.83-11.188-40.657-24.784-55.482-10.696 0 0-20.995-14.913-50.46-21.607-32.811-7.455-39.204 5.006-42.6-1.493-3.619-6.928-4.748-56.463 25.93-85.36 30.678-28.896 53.235-25.476 63.087-32.054 9.853-6.58 8.699-14.755 20.346-17.015s19.83 1.505 25.798 1.1c5.97-.403 13.587-4.403 22.015-6.846 14.284-4.14 39.764-11.525 85.359 2.732l9.594 145.328z"/>
        <path fill="#E86A46" d="M380.765 311.537l-5.043.844-12.608-21.097h4.202l13.45 20.253zm-30.26-20.253l2.522 27.004-4.203.844-1.68-27.848h3.362z"/>
        <path fill="#23478D" d="M374.741 289.456l31.788 17.05-4.419.71-31.571-17.76h4.202zm-23.325 0l25.854 22.733-3.58.71-25.636-23.443h3.362z"/>
        <path fill="#FFAEAE" d="M372.29 279.33s-11.301-.888-16.692-5.497c-5.392-4.608-13.865-11.34-20.956-9.218-7.462 2.235-14.519 3.043-18.177 6.607-3.657 3.563 3.11 10.402 11.118 17.712 6.347 5.794 11.554 7.502 28.528 7.129 7.639-.168 23.324-1.052 23.324-1.052l-7.145-15.682z"/>
        <path fill="#FFF" d="M420.27 193.324s22.623 18.16 51.118 80.766c0 0 6.388 11.911-5.968 17.62-8.81 4.071-35.317 5.277-87.205 3.512l-6.416-15.973s11.298-2.064 26.007-5.934c22.142-5.827 36.488-8.385 36.488-8.385l-43.321-45.13 29.298-26.476z"/>
        <path fill="#E9EEFB" d="M389.425 275.426c.577 1.055 10.638 20.464 10.638 20.464l-21.874-.66-6.39-15.97s10.323-2.172 17.626-3.834"/>
        <path fill="#2B2B51" d="M364.795 484.392c18.745-11.195 33.277-16.928 58.838-23.629l-21.854-32.911-15.13 5.063s-22.923 8.152-30.26 21.097c-8.962 15.811-1.9 36.535 8.406 30.38m-32.481-112.838l29.636 19.004-20.54-41.97-7.444-1.45c-40.304 55.185-50.25 110.083-50.25 110.083 2.954-6.146 32.137-57.042 48.598-85.667m-6.337-51.516s-8.88-6.371-41.588 19.856c-44.238 35.47-72.14 79.647-72.14 79.647 52.305-59.475 113.728-99.503 113.728-99.503"/>
        <path fill="#2474CD" d="M372.185 279.118l43.042 22.011-7.564.844-43.043-22.855h7.565zm-11.627 16.878l35.337 21.167-4.763 2.348-36.563-23.445 5.989-.07z"/>
        <path fill="#FF7E59" d="M382.306 307.037l-4.202.844-11.768-29.536h4.203l11.767 28.692zM357.16 296.03l2.248 24.456-3.579.71-2.101-25.13 3.432-.036z"/>
        <g transform="matrix(-1 0 0 1 377.834 91.585)">
            <mask id="m" fill="#fff">
                <use xlink:href="#k"/>
            </mask>
            <path fill="url(#l)" d="M.501 21.289l18.493 35.443s6.378 14.71 21.854 15.19c13.587.421 27.081-35.433 25.312-50.82L44.532.665.501 21.289z" mask="url(#m)"/>
        </g>
        <g>
            <path fill="#423748" d="M323.127 111.315c2.895-3.53 11.229-3.56 15.434 3.22 4.204 6.782 6.409 7.723 11.192 7.404 4.782-.318 7.19-6.03 11.619-3.653 4.428 2.377 5.98 11.129 1.924 15.769-10.746 12.286-4.373 14.772-9.947 22.78-7.22 10.376-.626 27.257 12.995 30.347 11.864 2.69 22.404.256 32.733-4.21a6.655 6.655 0 0 1 5.377.043 68.102 68.102 0 0 1 5.59 2.855c5.464 3.094 8.756 6.118 8.756 6.118s24.678-18.655 4.343-37.732c-12.545-11.768-27.244-2.928-27.244-2.928s.572-4.818-2.149-9.884c-2.802-5.216-9.276-6.667-9.53-7.97-.336-1.719 10.047-9.47 2.117-24.724-4.776-9.185-13.284-7.218-17.648-10.551-4.365-3.332-4.629-13.452-18.003-17.304-14.793-4.26-20.16 6.415-27.052 6.493-10.955.126-21.406 4.873-21.694 14.58-.354 11.974 9.697 16.482 9.697 16.482s5.426.258 11.49-7.135"/>
            <path fill="#23478D" d="M388.82 433.548l44.199 51.173s40.664-23.324 71.69-45.312c43.513-30.838 58.544-45.306 58.544-45.306l8.734-25.496-183.166 64.941z"/>
            <path fill="#2474CD" d="M572 368.641l-99.195-59.16-122.72 62.447 90.99 86.896s33.05-19.333 67.486-42.78C551.81 386.594 572 368.641 572 368.641"/>
            <path fill="#FFF" d="M373.03 415.802l-41.001 7.623-8.254-56.726 19.314-3.938z"/>
            <path fill="#D8DDEA" d="M331.955 422.722l4.421 34.21s34.654-7.53 66.746-18.862c29.839-10.537 57.28-24.934 57.28-24.934l2.187-30.412s-28.25 12.517-60.803 22.485c-32.762 10.031-69.831 17.513-69.831 17.513"/>
            <path fill="#2B2B51" d="M337.547 333.549l-10.312 5.713 46.95 84.286c.058.025 34.265-9.849 62.2-21.055 25.276-10.14 45.298-21.114 45.298-21.114l10.815-37.767s-26.793 11.936-54.57 21.789c-26.884 9.535-54.696 16.853-57.373 17.584l-51.553-63.782 8.545 14.346z"/>
            <path fill="#42426C" d="M421.212 293.116l71.325 50.51s-25.671 11.91-53.915 21.849c-27.727 9.758-58.034 17.552-58.034 17.552l-51.729-63.985 92.353-25.926z"/>
            <path fill="#2B2B51" d="M371.949 315.76l-9.01-19.904-3.852.14 9.21 20.886c-.228.264-.385.704-.385.963 0 1.274 1.27 2.307 2.837 2.307 1.567 0 2.837-1.033 2.837-2.307 0-.924-.673-1.716-1.637-2.085m23.701-6.354c0 1.274 1.27 2.307 2.837 2.307 1.567 0 2.837-1.033 2.837-2.307 0-1.128-.997-2.064-2.312-2.264l-33.062-29.64-5.463-.88 35.24 32.266c-.047.167-.077.339-.077.518"/>
            <path fill="#D8DDEA" d="M434.315 264.93l10.656-1.808-16.82-4.57zM369.236 262.757s-12.965-3.885-21.34-4.9c-8.374-1.014-10.716 2.119-10.716 2.119l32.056 2.78z"/>
            <path fill="#E9EEFB" d="M240.679 207.83l-10.896 15.874-11.944-12.096 8.721-13.01z"/>
        </g>
    </g>
</svg>
