<?xml version="1.0" encoding="UTF-8"?>
<svg width="683px" height="683px" viewBox="0 0 683 683" version="1.1" xmlns="http://www.w3.org/2000/svg" xmlns:xlink="http://www.w3.org/1999/xlink">
    <!-- Generator: sketchtool 51.3 (57544) - http://www.bohemiancoding.com/sketch -->
    <title>4E6BE64B-0A85-42C8-A21D-FC866389AF15</title>
    <desc>Created with sketchtool.</desc>
    <defs>
        <path d="M1.02318154e-12,21.1639784 C1.02318154e-12,32.8540757 11.7355346,41 21.2028188,41 C29.5486091,41 32.7831668,33.8230054 33.6087233,22.1612757 C34.5109709,9.41891892 34.5109709,1.44606549e-14 26.1660828,1.44606549e-14 C16.6978965,1.44606549e-14 1.02318154e-12,9.47476757 1.02318154e-12,21.1639784" id="path-1"></path>
        <radialGradient cx="154.577262%" cy="46.4859976%" fx="154.577262%" fy="46.4859976%" r="100.376913%" gradientTransform="translate(1.545773,0.464860),scale(1.000000,0.829268),rotate(168.006434),translate(-1.545773,-0.464860)" id="radialGradient-3">
            <stop stop-color="#FFE8E8" offset="0%"></stop>
            <stop stop-color="#FDACAC" offset="100%"></stop>
        </radialGradient>
        <polygon id="path-4" points="6.82620627e-13 1 381 1 381 250 6.82620627e-13 250"></polygon>
        <path d="M1.28934241,11.8806177 C0.109292429,22.4119945 2.36766394,38.7710951 11.2410383,39.9156358 C19.8649567,41.0272465 27.3097098,31.0521201 29.7432312,15.9959803 C31.1426608,7.33627474 26.6878394,1.42756092 19.6438079,0.3097202 C18.380606,0.109470071 17.0864433,4.94049246e-14 15.7975881,4.94049246e-14 C8.95878268,0.000890000575 2.27478145,3.07139198 1.28934241,11.8806177" id="path-6"></path>
        <radialGradient cx="-53.5822219%" cy="-11.4624534%" fx="-53.5822219%" fy="-11.4624534%" r="139.706458%" gradientTransform="translate(-0.535822,-0.114625),scale(1.000000,0.725000),rotate(48.124322),translate(0.535822,0.114625)" id="radialGradient-8">
            <stop stop-color="#FFE8E8" offset="0%"></stop>
            <stop stop-color="#FDACAC" offset="100%"></stop>
        </radialGradient>
    </defs>
    <g id="Symbols" stroke="none" stroke-width="1" fill="none" fill-rule="evenodd">
        <g id="Иллюстрация-/-Вклад-доходный">
            <g>
                <rect id="Rectangle-8-Copy-6" fill-rule="nonzero" x="0" y="0" width="683" height="683"></rect>
                <g id="Group-181" transform="translate(65.000000, 84.000000)">
                    <polygon id="Fill-1" fill="#FFFFFF" points="203.809355 271 142 219.441929 260 219"></polygon>
                    <path d="M92.3700055,223 C81.6782644,223 56.7308686,217.648299 52.2759765,199.363319 C47.8210844,181.07834 55.8398902,170.374938 63.858696,164.577261 C71.8775018,158.779585 78.55984,157.887635 86.5786458,149.860083 C94.5974516,141.832531 99.2635056,131.446663 111.526042,123.993527 C123.99974,116.41195 131.907173,116.708077 139.591862,116.41195 C151.174581,115.965975 154.293006,113.290124 156.074963,106.154523 C157.85692,99.0189209 160.937923,79.7822308 185.031761,71.3684644 C204.187798,64.6788379 224.828204,67.0576691 236.857303,86.6805737 C246.769438,102.851631 245.469501,115.52 262.398091,119.979751 C279.549426,124.498371 286.7022,110.601786 305.165055,115.22298 C319.42071,118.790781 325.360863,137.818755 325.360863,137.818755 L361,222.851044 C361,222.851044 103.061747,223 92.3700055,223" id="Fill-2" fill="#FFFFFF"></path>
                    <g id="Group-6" transform="translate(182.000000, 116.000000)">
                        <mask id="mask-2" fill="white">
                            <use xlink:href="#path-1"></use>
                        </mask>
                        <g id="Clip-5"></g>
                        <path d="M1.02318154e-12,21.1639784 C1.02318154e-12,32.8540757 11.7355346,41 21.2028188,41 C29.5486091,41 32.7831668,33.8230054 33.6087233,22.1612757 C34.5109709,9.41891892 34.5109709,1.44606549e-14 26.1660828,1.44606549e-14 C16.6978965,1.44606549e-14 1.02318154e-12,9.47476757 1.02318154e-12,21.1639784" id="Fill-4" fill="url(#radialGradient-3)" mask="url(#mask-2)"></path>
                    </g>
                    <g id="Group-102" transform="translate(0.000000, 10.000000)">
                        <path d="M213,115 C213,115 212.779311,122.105399 205.349155,124.87235 C201.111927,126.45013 197.993151,127.714689 197.993151,127.714689 C197.993151,127.714689 197.257815,140.57836 194.609548,139.979737 C182.726772,137.295355 175.18892,125.470973 175.18892,125.470973 C175.18892,125.470973 173.864786,122.927497 174.011323,120.683781 L213,115 Z" id="Fill-7" fill="#423748"></path>
                        <path d="M216.023251,114.600062 C216.023251,114.600062 208.867797,118.547512 193.408208,120.959842 C180.632137,122.953743 173.243565,121.467747 173.243565,121.467747 C172.554891,121.450203 172.25949,120.928262 172.192758,120.408076 C171.646445,116.135181 170.821637,96.8154859 192.110937,94.2049059 C209.253953,92.1031083 216.440549,106.711303 216.99487,113.27986 C217.049145,113.921101 216.669218,114.507955 216.023251,114.600062" id="Fill-9" fill="#FF7E59"></path>
                        <polygon id="Fill-11" fill="#FF7E59" points="193.911273 120 205.278607 137.818019 207 146.808796 204.442733 148 202.239314 139.23263 190 120.744391"></polygon>
                        <path d="M203.381621,125.29691 C203.948039,127.960437 204.634553,131.714814 202.861806,131.978475 C201.066653,132.24492 198.062482,130.009376 197.258562,126.849164 C196.455538,123.68988 197.623329,121.565743 199.379047,121.087626 C201.13387,120.608581 202.703173,122.105132 203.381621,125.29691" id="Fill-13" fill="#FFAEAE"></path>
                        <polygon id="Fill-15" fill="#FF7E59" points="203.372035 117.436714 201 136.79801 203.930505 140 207 117"></polygon>
                        <path d="M246.535281,159.064069 L245,161.349556 L250.955056,173.871235 C250.955056,173.871235 256.460674,175.571072 265,166.618598 L262.752809,152 L246.535281,159.064069 Z" id="Fill-17" fill="#E86A46"></path>
                        <path d="M185,203.746004 C185,203.746004 193.310751,210.503188 199.327684,209.970031 C209.407493,209.078464 226.381206,196.222964 234.542533,189.607539 C243.164581,182.616764 250.872305,176.573725 252.915305,174.753146 C254.958305,172.933458 253.726457,167.632203 252.395883,164.945912 C251.043963,162.215935 248.319666,158.891283 245.429048,159.002728 C244.214988,159.04909 238.684567,162.494104 232.62672,165.267768 C227.243944,167.73295 201.721116,178.155364 201.721116,178.155364 L185,203.746004 Z" id="Fill-19" fill="#245EAD"></path>
                        <path d="M100.890834,232.645543 C100.890834,232.645543 101.530095,240.546473 106.25938,247.461569 C109.539025,252.257926 110.274041,255.820653 110.413242,259.561651 C110.601208,264.628087 110.939014,271.419285 111.530396,278.401233 C112.395747,288.623239 112.815123,292.663731 112.070354,296.756812 C111.716588,298.699064 110.404376,300.18138 108.944096,301.502361 C104.510945,305.513438 100.579627,309.828465 97.3443138,319.403351 C92.024533,335.150839 87,353.274666 87,353.274666 L107.983875,361 C107.983875,361 127.194491,331.882257 133.991397,320.889232 C140.789191,309.896208 144.335711,306.033095 147.586984,289.988788 C150.920713,273.53446 155.371596,226.803632 154.975273,227.000621 L100.890834,232.645543 Z" id="Fill-21" fill="#2B2B51"></path>
                        <path d="M399.588392,196.984701 C401.754068,206.684766 395.04619,215.306652 387.143796,214.991628 C374.927024,214.503563 374.55357,211.385273 372.538884,204.791962 C370.23562,197.258905 375.602458,186.636841 383.17875,187.009545 C392.425758,187.463889 397.814932,189.042557 399.588392,196.984701" id="Fill-23" fill="#2474CD"></path>
                        <path d="M389.235576,211.829584 C386.225822,209.551764 385.247562,205.307184 386.583743,200.523852 C387.843163,196.014826 391.37418,192.147642 395.099777,192.959805 C399.239528,193.86161 399.709021,199.060884 400,201.629146 C399.492126,188.53594 391.300989,187.135721 382.603763,188.34769 C375.098121,189.392923 370.277337,197.778994 372.577496,205.388759 C374.590247,212.050104 376.569973,216.173667 386.689067,215.994381 C392.787122,215.885914 396.371693,212.812963 398.421932,208.284216 C395.723685,212.481286 391.971311,213.899432 389.235576,211.829584" id="Fill-25" fill="#245EAD"></path>
                        <path d="M345,112.045087 C345,112.045087 348.033826,110.876096 352.012085,111.010809 C357.718971,111.204902 370.81124,111.897079 378.270924,126.077408 C384.058378,137.078684 390.803694,166.255597 392.146491,174.379152 C393.560903,182.935208 393.788283,187.082954 388.267598,190.923164 C381.851715,194.468247 377.227123,192.400577 377.227123,192.400577 C377.227123,192.400577 370.06554,184.424143 361.411662,164.187041 C352.757785,143.950826 345.7457,131.395031 345.7457,131.395031 L345,112.045087 Z" id="Fill-27" fill="#42426C"></path>
                        <path d="M302.1196,155 C302.1196,155 287.16256,149.030299 273.402658,141.867016 C264.258107,137.107014 259.628397,131.601135 256.50184,114.856065 C254.013337,101.528777 251.359713,89.7603979 251.008827,87.465461 C250.951393,87.0884932 251.179334,86.7339107 251.54368,86.6201936 L262.948794,83.0439244 C263.433392,82.8934955 263.947605,83.1406288 264.125291,83.6143009 C264.589249,84.8526535 264.908725,87.1234142 266.97096,90.8286225 C269.741248,95.8044181 271.757716,100.230432 277.819683,114.133469 C278.735933,116.235893 280.245367,118.026714 282.376702,118.885412 C287.316914,120.875014 296.88145,125.065535 299.427387,124.854218 C303.017005,124.556046 304.512978,123.660636 309,124.556046 L302.1196,155 Z" id="Fill-29" fill="#245EAD"></path>
                        <path d="M299.188548,124.647435 C297.808855,128.676056 297.119009,146.696287 300.031999,156 L309,124.354716 C304.401025,123.475681 302.876925,124.487451 299.188548,124.647435" id="Fill-31" fill="#2474CD"></path>
                        <path d="M338.338616,124 L336,107.006378 C336,107.006378 340.944949,106.789435 343.474923,108.885977 C346.004897,110.983387 344.903668,115.522714 343.628561,117.491694 C341.098587,121.396677 338.338616,124 338.338616,124" id="Fill-33" fill="#42426C"></path>
                        <path d="M299.439622,143.206181 C298.377844,145.004686 297.866585,147.083454 298.029867,149.165793 C298.374275,153.566998 299.136257,158.15921 300.084718,162.554167 C301.720212,170.140913 304.01597,174.098516 310.34559,180.851612 C314.806838,185.611626 318.949554,188.541894 324.621585,192.45487 C328.933828,195.429767 331.461571,199 331.461571,199 L376,191.227602 C376,191.227602 373.327712,185.820484 369.865783,179.512775 C366.742909,173.822716 363.136436,164.636506 362.244186,157.793261 C361.351937,150.950909 359.430923,142.091376 354.809069,136.967198 C349.306565,130.868348 339.343705,127.446279 339.343705,127.446279 L309.007215,127 L299.439622,143.206181 Z" id="Fill-35" fill="#2474CD"></path>
                        <path d="M312.31569,136.85661 C312.31569,136.85661 310.681344,145.247104 314.849956,144.994404 C317.794821,144.81623 321,141.496866 321,141.496866 L318.577553,136 L312.31569,136.85661 Z" id="Fill-37" fill="#42426C"></path>
                        <path d="M320,188.180368 L334.545246,184.558575 C340.050906,183.18708 345.813206,183.128552 351.347481,184.38823 L376,190 L340.231537,171 L320,188.180368 Z" id="Fill-39" fill="#245EAD"></path>
                        <polygon id="Fill-41" fill="#245EAD" points="349 166.180776 354 161 352.642829 168"></polygon>
                        <path d="M298.000057,148.601555 C298.000057,148.601555 297.954026,152.768858 300.471567,164 C300.387472,162.043072 299.641239,155.610643 300.637102,148.87708 C301.792302,141.068796 307,133 307,133 L301.098297,137.856996 L298.000057,148.601555 Z" id="Fill-43" fill="#245EAD"></path>
                        <path d="M298.253924,149 C298.253924,149 297.184045,143.813549 299.436468,137.385925 C301.337372,131.96281 306.046819,128 306.046819,128 L308,132.564989 C308,132.564989 304.585764,134.634485 301.990836,138.847107 C299.091259,143.553218 298.479256,147.447658 298.253924,149" id="Fill-45" fill="#42426C"></path>
                        <path d="M376.627607,268 C376.627607,268 387.815538,271.406581 389.953329,273.492958 C392.091121,275.578458 390.29208,283 390.29208,283 L374,280.621705 L376.627607,268 Z" id="Fill-47" fill="#E86A46"></path>
                        <path d="M342,199 C342,199 350.391071,194.369097 362.261905,191.38419 C371.952381,188.946728 375.47619,190.470256 375.47619,190.470256 L379,196.867792 L342,199 Z" id="Fill-49" fill="#423748"></path>
                        <path d="M302.11625,109.113475 C302.11625,109.113475 302.744464,110.323574 302.411723,111.798752 C302.078983,113.273929 300.131342,115.335546 300.008894,117.964539 C299.89798,120.347518 300.785288,123.184397 304.889087,125 L305,109 L302.11625,109.113475 Z" id="Fill-51" fill="#423748"></path>
                        <polygon id="Fill-53" fill="#2B2B51" points="369 223.437362 352.18496 240 336 222"></polygon>
                        <path d="M92.7322581,360.535374 C93.6225806,359.197799 114.767742,327.987703 127.232258,318.624675 C139.696774,309.261646 146.521987,303.168544 169.522581,281.618419 C180.159265,271.65259 185.399703,263.784079 199.199703,253.083475 C212.999703,242.38287 222.051613,237.478427 231.4,229.007115 C240.748387,220.535804 247.277123,206.268332 261.522284,202.255605 C266.455561,200.86631 276.384439,205.495213 286.6,207.605907 C298.425265,210.049212 307.222542,222.53325 316.203226,229.452974 C327.7516,238.351418 327.332258,242.6058 338.683871,250.631253 C346.693213,256.293656 358.270968,263.561149 364.503226,269.35731 C370.735484,275.153471 392.103226,287.860438 393.883871,296.331749 C395.664516,304.803061 397,318.624675 397,318.624675 L269.23871,321.745684 L344.916129,405.121224 L175.754839,472 C175.754839,472 168.187097,471.108283 151.270968,471.554141 C134.354839,472 115.509381,467.095556 92.9548387,461.150479 C74.7869161,456.361959 85.9871742,442.317416 75.816129,436.33132 C54.2258065,423.624352 52,417.605263 52,417.605263 C52,417.605263 60.6993419,401.058562 68.2483871,389.293248 C75.7974323,377.527933 92.7322581,360.535374 92.7322581,360.535374" id="Fill-55" fill="#E9EEFB"></path>
                        <path d="M225.416114,443.63442 C225.416114,443.63442 216.177895,414.86172 211.138705,404.282258 C206.099515,393.704585 204,384.818267 204,375.086271 C204,365.354276 210.94243,368.652863 210.718624,363.238742 C210.299432,353.08346 226.256275,361.969779 240.533685,381.43377 C245.450314,388.135647 251.451338,389.473516 263.21004,403.436581 C267.962368,409.080691 272.028179,407.245259 276.227208,403.859867 C280.427125,400.474475 283.366801,397.512368 288.825183,400.052084 C294.283566,402.590904 296.383969,406.398687 302.6834,410.629756 C313.308862,417.768342 322,424.170429 322,424.170429 C322,424.170429 303.102593,449.557737 287.985911,449.981023 C272.867452,450.403414 225.416114,443.63442 225.416114,443.63442" id="Fill-57" fill="#D2D8EE"></path>
                        <path d="M212.121771,446.538248 C207.094534,435.900778 205,426.964223 205,417.177211 C205,407.390198 211.925962,410.707433 211.702687,405.262704 C211.284489,395.050013 227.203481,403.986568 241.447022,423.560593 C246.351989,430.300357 217.149007,457.176619 212.121771,446.538248" id="Fill-59" fill="#D2D8EE"></path>
                        <path d="M418.162992,449.725119 C418.162992,449.725119 430.147615,452.10587 439.912863,448.981525 C449.678111,445.857179 447.902611,443.625504 461.51448,444.071839 C476.450871,444.561022 475.946629,445.503682 485.188105,449.278784 C494.657732,453.146723 501.315856,455.67655 510.488975,455.973809 C517.129344,456.188943 521.417176,455.05793 524.147894,453.346681 C525.827517,452.293331 526.460482,450.152708 525.648191,448.337909 C524.120374,444.919876 520.493916,440.637737 516.851478,433.359798 C513.366172,426.397865 506.831446,411.76968 502.055352,404.348021 C489.034725,384.113869 464.325983,347.068061 464.325983,347.068061 L417.719117,331 L372,369.831148 L401.73962,445.708103 L418.162992,449.725119 Z" id="Fill-61" fill="#D2D8EE"></path>
                        <path d="M74.6750939,437 L55,420.503581 C55,420.503581 59.1113846,407.837209 62.6351768,399 C68.5084575,404.302326 64.0156224,411.18386 70.2703536,416.674419 C79.6674266,424.922186 74.6750939,437 74.6750939,437" id="Fill-63" fill="#C3CBE8"></path>
                        <path d="M363.939906,269.038584 C357.70773,263.267014 346.130128,256.030354 338.120891,250.391974 C326.769428,242.40057 327.659739,237.516934 315.640542,229.303546 C307.017882,223.411217 292.043743,225.178206 305.17939,236.407016 C313.526944,243.54334 314.972809,251.945858 322.095296,263.045031 C329.15279,274.042979 321.204985,279.471806 323.875918,285.243376 C326.54685,291.014946 319.424363,286.575276 314.527654,289.239078 C309.630944,291.902879 322.095296,308.329655 322.095296,308.329655 L396,314 C395.465813,309.271752 394.489142,301.436625 393.320164,295.898581 C391.539543,287.46321 370.172082,274.810154 363.939906,269.038584" id="Fill-65" fill="#D2D8EE"></path>
                        <path d="M346.11098,385.026646 C336.996141,376.556883 320.063501,365.939193 308.350142,357.665263 C291.748432,345.939337 293.049917,338.772751 275.471427,326.721031 C262.861351,318.075019 244.185096,317.520457 260.172092,337.14467 C265.778349,344.026408 258.661551,354.708189 271.70842,372.511159 C283.033024,387.962356 269.929221,406.93053 254.50979,402.182478 C266.964185,417.612311 284.911859,442.680672 284.911859,442.680672 L393,451 C392.219821,444.061293 390.791124,432.565915 389.081313,424.43975 C386.476565,412.062235 355.225818,393.495519 346.11098,385.026646" id="Fill-67" fill="#D2D8EE"></path>
                        <path d="M77.8380768,437.584594 C79.6218325,446.892761 47.9601694,442.903547 39.041391,435.368364 C24.2888398,422.904286 24.7713457,414.979047 14.5147506,410.546587 C6.75541346,407.193874 -1.5390504,403.897897 0.244705271,396.657916 C1.94194879,389.768986 9.13405164,384.838318 22.5416511,384.838318 C32.3523073,384.838318 37.6893043,380.397879 42.1629635,372.427429 C48.8395609,360.530706 60.2083277,360.463332 72.0408709,356.470572 C86.1352163,351.714542 93,360.01654 93,360.01654 C93,360.01654 90.0193443,366.194503 84.0812217,373.313921 C79.4559432,378.859815 72.8899386,385.126428 69.3652374,390.600516 C62.2302147,401.681667 61.8565179,408.567937 58.6627034,414.092555 C56.8753802,417.184639 55.8381263,420.297999 59.1461012,422.861734 C59.1461012,422.861734 77.493812,435.789448 77.8380768,437.584594" id="Fill-69" fill="#FFFFFF"></path>
                        <path d="M171.710041,434.328301 C155.686587,428.833691 149.145459,440.848678 146.26019,450.409691 C146.186504,450.652942 146.112819,450.891722 146.038246,451.129607 C145.097204,454.13626 142.569708,456.379176 139.482026,456.896979 C134.702244,457.69917 132.354967,455.778204 131.280759,455.398124 C125.14712,453.226752 120.195998,456.610801 115.12325,459.508349 C110.288427,462.270857 105.701292,462.457767 100,463.02565 C119.333968,468.08831 135.895414,471.950813 150.921009,471.552848 C167.788738,471.105695 175.334827,472 175.334827,472 L224,452.648136 C215.643372,444.42232 207.044382,438.454623 197.110177,433.766677 C184.952984,428.029711 183.768692,438.463567 171.710041,434.328301" id="Fill-71" fill="#D2D8EE"></path>
                        <path d="M476.991165,360.167841 C477.233268,364.79335 472.56452,376.29995 454.994628,376.29995 C445.090737,376.29995 435.659438,370.930323 425.766268,370.476526 C420.725878,370.245161 407.296753,370.038809 406.162174,377.630968 C404.66846,387.615385 420.749106,390.592754 425.190938,395.6667 C427.612862,398.433251 429.13963,402.721985 427.860325,405.737767 C427.264448,407.143821 427.801363,408.749082 429.064587,409.608437 C431.115762,411.003772 432.746161,412.86273 433.274142,415.309479 C436.233875,429.004665 418.663982,440.021737 407.64606,443 C404.072583,437.640199 360,360.518015 360,360.518015 L447.40367,317 L476.991165,360.167841 Z" id="Fill-73" fill="#C3CBE8"></path>
                        <g id="Group-77" transform="translate(170.000000, 255.000000)">
                            <mask id="mask-5" fill="white">
                                <use xlink:href="#path-4"></use>
                            </mask>
                            <g id="Clip-76"></g>
                            <path d="M86.0802663,66.529255 C84.7563095,63.0485187 83.1846676,49.4276282 103.23112,46.3182415 C123.277573,43.2088548 139.169509,48.8013089 148.892484,50.3160244 C156.020112,51.4265196 157.677285,45.0718216 164.706908,43.875152 C173.839181,42.3204586 181.357046,42.193418 195.222063,50.0939253 C207.695412,57.2010949 223.287097,52.5370149 223.287097,52.5370149 C223.287097,52.5370149 224.400789,45.8740434 220.391498,38.7668738 C216.382208,31.6597043 203.76007,22.0357083 203.76007,22.0357083 C203.76007,22.0357083 212.254421,23.6952324 220.614237,20.9989499 C228.187341,18.5558604 232.642108,13.4475822 240.660689,8.11720505 C248.67927,2.78682788 262.711787,-3.72866983 278.452262,6.04457673 C284.386012,9.72786736 291.134984,17.3289852 303.398958,19.9621915 C322.702355,24.1083366 328.372383,30.2480427 336.215446,39.65527 C346.461411,51.9444546 356.614716,49.7181337 367.547606,48.0950339 C381.505283,46.0224056 382.825676,58.1125894 379.426689,63.1977692 C375.862875,68.5281464 359.711671,74.7655761 344.085238,69.7123785 C322.10898,62.605209 316.046933,62.1876627 306.368506,64.6787257 C297.162284,67.0471899 294.720181,73.8238761 294.489424,78.8930648 C294.191845,85.4076741 302.050946,90.3293891 308.150413,88.7391599 C313.602157,87.317726 313.496134,81.6319903 308.373151,80.521495 C307.822542,80.4015616 307.301334,80.384682 306.826456,80.4273251 C305.817897,80.5188299 305.228086,79.3035039 305.974705,78.6212156 C307.434977,77.2859561 309.955485,76.1763493 314.164349,77.1900093 C320.623761,78.7447027 324.187575,84.5192779 321.737453,90.7380513 C319.228528,97.1060752 310.575588,95.1835859 310.155058,98.9557161 C309.93232,100.954608 313.718872,102.065103 314.164349,107.839678 C314.609825,113.614253 309.93232,116.501541 309.93232,116.501541 C309.93232,116.501541 299.066251,99.3821463 294.340634,95.1800323 C286.099315,87.8507637 283.426455,92.7369427 270.50763,87.6286646 C259.732439,83.3679165 238.206113,83.2844072 237.765091,92.2927446 C237.319614,101.398806 236.42866,106.729183 232.41937,111.615362 C227.959257,117.051458 217.273161,110.060669 212.372917,114.50265 C207.472673,118.944631 210.59101,127.384394 217.273161,133.603168 C223.955312,139.821941 234.342047,147.921449 239.769736,154.924676 C243.556288,159.810856 251.116919,170.328578 246.00641,176.024086 C242.219858,180.243968 237.319614,178.911374 236.42866,182.24286 C235.567999,185.461519 240.883428,187.129039 247.120102,190.238425 C253.356776,193.347812 262.711787,192.903614 264.493694,196.457199 C265.944166,199.350705 254.588964,196.538931 240.883428,205.785359 C231.843814,211.884199 233.180244,219.93751 221.282452,225.330075 C201.681476,234.214037 194.553848,224.441679 162.034048,236.435027 C151.099376,240.468346 140.230635,225.9253 121.941143,237.323424 C96.994446,252.870357 65.1856261,255.040709 43.9827159,238.656018 C26.163647,224.885877 28.3910306,228.439462 5.67171774,221.332292 C-8.71094374,216.833454 7.89910136,202.675972 15.4722057,192.015218 C31.6857765,169.191431 49.4041677,172.748569 68.4839357,166.695926 C88.0849115,160.477153 103.453858,171.582105 113.922561,169.583214 C122.160317,168.009864 127.939041,160.920462 133.078061,156.47937 C139.760211,150.704795 147.288768,148.720117 150.89713,147.595408 C158.024757,145.374417 156.911065,140.488238 150.228914,136.046257 C143.546764,131.604276 140.428427,127.384394 137.755566,121.609819 C135.082706,115.835244 130.024763,109.158946 122.609358,100.732509 C113.031608,89.8496551 107.463149,86.2960703 100.780998,82.2982874 C94.0988473,78.3005046 88.5303883,72.9701274 86.0802663,66.529255" id="Fill-75" fill="#FFFFFF" mask="url(#mask-5)"></path>
                        </g>
                        <path d="M512.262921,313.546628 C508.788592,309.195702 509.51178,303.486672 513.001249,300.398371 C510.824561,298.945683 508.650546,296.985267 506.473858,294.361862 C498.633686,284.913142 492.965748,278.746355 473.669466,274.581922 C461.822372,272.026333 455.127543,264.821784 449.336699,261 C449.561137,262.838168 449.775778,266.255734 451.255106,268.261657 C455.040262,273.392467 461.565872,271.667622 464.837138,279.861748 C470.180888,293.246469 458.602762,305.961953 441.012918,310.869684 C423.423073,315.777415 412.512917,309.531212 396.704322,318.677438 C397.594947,326.039034 397.594947,336.300653 385.794166,342.993013 C381.842462,345.234508 371.506759,343.890682 363.52854,353.70079 C353.731664,365.747038 365.30979,382.25486 375.99729,392.962637 C384.903541,402.778098 367.09104,411.701245 355.512914,415.270504 C359.96604,428.655225 351.950414,445.609204 339.481664,450.070778 C326.122288,454.532351 312.762913,442.039945 300.294162,451.855407 C295.841037,455.424666 292.278537,458.993925 289.606662,464.347813 C285.038646,473.500285 283.372287,486.413863 286.894709,496 C288.718709,495.032731 290.516881,494.004784 292.278537,492.901883 C310.561288,481.453486 321.426023,496.059785 332.356664,492.009569 C364.864477,479.96332 371.989478,489.778782 391.583228,480.855635 C403.477526,475.439285 402.140698,467.350452 411.176979,461.224711 C424.877464,451.9375 436.22848,454.761676 434.778543,451.855407 C432.997293,448.286148 423.64573,448.732306 417.411354,445.609204 C411.176979,442.486103 405.86351,440.811228 406.723854,437.578372 C407.614479,434.232192 412.512917,435.570664 416.298073,431.332169 C421.406698,425.611539 413.848854,415.047426 410.063698,410.139695 C404.63801,403.105578 394.255104,394.970345 387.575416,388.724142 C380.895728,382.477939 377.77854,374.000949 382.676978,369.539376 C387.575416,365.077802 398.257572,372.099427 402.716041,366.639353 C406.723854,361.731622 407.614479,356.377734 408.059792,347.231508 C408.49976,338.183437 429.128417,338.936551 439.899637,343.216092 C452.8137,348.346902 456.3762,342.769935 464.614481,350.131531 C469.338356,354.35218 480.200419,371.547084 480.200419,371.547084 C480.200419,371.547084 484.876201,368.647061 484.430888,362.847015 C483.985576,357.04697 480.200419,355.931577 480.423076,353.923868 C480.843451,350.1351 489.493201,352.066069 492.001201,345.669957 C494.45042,339.423755 490.88792,333.623709 484.430888,332.062158 C480.236935,331.047596 477.720029,332.153174 476.257622,333.488077 C475.506825,334.172483 476.082169,335.406554 477.093029,335.314645 C477.568622,335.27003 478.090529,335.287876 478.641826,335.408338 C483.76292,336.523732 483.868904,342.234546 478.419169,343.662249 C472.32195,345.259493 464.465747,340.316069 464.763216,333.772726 C464.807747,332.788502 464.937778,331.740925 465.180028,330.673717 C457.438715,326.017618 447.713981,326.654731 439.219199,330.17759 C438.00884,330.678178 436.734355,329.590447 437.087043,328.326929 C438.908371,321.797862 444.786496,317.661984 450.215746,315.331258 C462.833231,310.423527 474.132591,320.129234 474.214529,320.297881 C474.970669,319.998063 475.765107,319.721446 476.637919,319.49569 C486.312779,316.99364 492.372592,317.413028 514.340749,324.551545 C524.559781,327.872741 535.001468,326.338852 542,323.381721 C530.288281,323.740431 519.950796,322.789224 512.262921,313.546628" id="Fill-78" fill="#E9EEFB"></path>
                        <path d="M354.334436,262.743646 C351.949073,261.24812 348.356271,254.385926 354.036601,248.389469 C359.700832,242.408262 365.514428,243.753967 367.452591,245.399314 C369.38986,247.043765 377.824045,255.502861 379.867748,257.552817 C381.91145,259.60367 382.343445,263.063923 381.76298,266.032547 C380.519765,272.37799 380.569851,282.48064 377.290983,288.460949 C374.227666,294.047415 367.899791,295.339291 363.874994,292.647883 C359.850197,289.956474 359.791166,284.108044 361.191796,279.190842 C364.172829,268.723955 360.893066,267.229326 360.893066,267.229326 C360.893066,267.229326 356.719799,264.238275 354.334436,262.743646" id="Fill-80" fill="#FF7E59"></path>
                        <path d="M253.497179,86 C253.497179,86 251.518142,84.6842298 248.879427,81.1755092 C246.392877,77.8685401 246.020818,76.4676834 246.020818,73.0615929 C246.020818,68.2371021 245.800925,64.2897914 246.790444,63.0836687 C247.779962,61.877546 248.549587,61.7678985 249.978892,62.3161361 C251.408196,62.8643737 255.03643,65.8248567 257.345306,67.579217 C259.989299,69.5879595 260.6437,73.1712404 261.413326,76.5703134 C261.912043,78.7755443 262,82.6377685 262,82.6377685 L253.497179,86 Z" id="Fill-82" fill="#E86A46"></path>
                        <path d="M272,190 L261.291545,189.101083 C261.291545,189.101083 257.806854,188.5531 256.35548,185.113193 C255.195949,182.365771 257.184836,181.555056 257.880032,182.219392 C259.186791,183.47112 260.057964,183.783583 262.09041,184.330628 C264.122856,184.878611 267.934237,182.453974 271.34662,186.129401 C271.782207,188.357928 272,190 272,190" id="Fill-84" fill="#E86A46"></path>
                        <path d="M264.077685,207.991577 C262.91838,208.093887 261.893815,207.252281 261.788917,206.112645 L243.008545,3.26085984 C242.904551,2.11944379 243.761822,1.11058502 244.922031,1.00827571 C246.083144,0.90685604 247.107709,1.74935098 247.211702,2.89076703 L265.99117,205.735435 C266.096973,206.87863 265.239702,207.889268 264.077685,207.991577" id="Fill-86" fill="#B6BAC7"></path>
                        <path d="M412.465829,53.0939323 C408.920399,51.3806116 402.430371,48.1409434 397.092229,44.902174 C389.242334,40.1388549 382.427004,35.0141744 382.427004,35.0141744 C382.427004,35.0141744 390.792404,30.4081644 396.425628,26.4745383 C402.923656,21.9368454 406.835271,17.8351233 408.612874,15.762239 C409.051053,15.2516587 408.640427,14.46781 407.975603,14.5397227 C401.248265,15.2678391 376.839998,17.6400601 358.429364,15.9123569 C349.984861,15.1195191 343.924123,13.4709199 338.1718,11.6470334 C327.33731,8.21050403 317.601378,4.14833399 295.102257,4.00181182 C272.127627,3.851694 248.383295,13.0753999 244.158822,14.7950129 C243.938399,14.8849038 243.950842,15.1986231 244.17482,15.2759292 C246.534588,16.0975321 254.337376,19.7012585 256.217192,31.8679927 C258.378757,45.8586133 249.59562,53.4966436 247.688252,54.9735511 C247.610038,55.034677 247.66781,55.1587264 247.763801,55.1353548 C251.369668,54.2867846 276.669403,48.4978103 296.435459,48.4978103 C316.22107,48.4978103 342.445158,53.6647396 360.733137,55.71605 C362.16233,55.8769547 363.54886,56.0198813 364.873175,56.1385373 C388.357088,58.2338943 405.668275,55.9866217 412.218742,54.8809635 C413.120875,54.728149 413.292414,53.4930479 412.465829,53.0939323" id="Fill-88" fill="#FF7E59"></path>
                        <path d="M252.338422,18.6253919 C260.767848,25.5650635 261.298899,37.1411302 257.889749,47.9684285 C257.632759,48.7841158 258.678688,49.3728213 259.229507,48.7208141 C262.103114,45.3242274 264.283029,41.4302704 265.439481,37.0678811 C267.963546,27.5391712 261.621484,20.2486276 253.263943,17.0663622 C252.292595,16.6964996 251.534208,17.9634373 252.338422,18.6253919" id="Fill-90" fill="#E86A46"></path>
                        <path d="M255.767858,86 C255.767858,86 253.385111,84.1126182 252.947893,80.5072931 C252.834472,79.5812709 252.777762,78.7286419 252.792397,77.9820252 C252.814349,76.7878009 252.327738,75.6425053 251.392018,74.8904521 C250.599903,74.2543781 249.710832,73.4289317 249.174828,72.5781149 C247.925372,70.5983121 247.574134,68.0485798 248.603151,67.2557526 C249.632169,66.4629253 249.975175,67.5955356 252.719222,69.5209732 C255.463269,71.4464107 257.688691,72.1486291 259.693675,73.3709421 C262.666393,75.1831186 264,83.3569406 264,83.3569406 L255.767858,86 Z" id="Fill-92" fill="#FF7E59"></path>
                        <path d="M271.718168,188.32912 C271.718168,188.32912 267.87462,187.386657 265.014796,187.01533 C264.410509,186.936644 263.824666,187.166514 263.370572,187.574973 C262.969178,187.935691 262.436035,188.20004 261.781684,188.218606 C261.051796,188.239825 260.572231,187.999347 260.246372,187.681951 C259.863423,187.306203 259.301295,187.184196 258.789232,187.338031 C255.483219,188.333541 253.698463,189.792325 254.041888,191.865567 C254.261469,193.191735 255.798537,193.63379 256.457281,195.180986 C257.116024,196.728181 257.53235,198.461924 259.092254,200.817198 C260.848903,203.469533 263.703457,204.464159 267.216755,203.801075 C270.730053,203.137991 276,200.0436 276,200.0436 L271.718168,188.32912 Z" id="Fill-94" fill="#FF7E59"></path>
                        <path d="M314,137.517857 C314,137.517857 316.842774,137.964286 317.740398,140.047321 C318.795106,142.494643 317.890301,146 317.890301,146 L333,131.416964 L330.905844,121 L314,137.517857 Z" id="Fill-96" fill="#E09595"></path>
                        <path d="M318.62599,138.410405 C318.189577,138.473665 317.593991,138.283884 317.220547,138.049295 C316.338101,137.496647 315.713654,137.171561 315,137.202312 C315.16442,139.014012 316.476284,138.630058 317.241537,140.49711 C318.017286,142.388763 318.553401,143.791908 319.318654,145 L332,132.33304 L331.781356,126 C331.781356,128.526012 326.242669,137.312139 318.62599,138.410405" id="Fill-98" fill="#E86A46"></path>
                        <path d="M337.268438,112.355418 C337.23151,115.334883 343.00103,115.43444 341.847477,119.70905 C341.115077,122.424237 335.733299,130.881141 330.582758,135.830022 C329.758039,136.621952 328.036503,134.529448 328.109479,131.983507 C328.175422,129.691889 330.774431,127.081689 329.015967,126.270753 C328.079585,125.839038 325.856887,128.213017 327.725255,120.557999 C328.864739,115.886066 337.323829,107.776707 337.268438,112.355418" id="Fill-100" fill="#423748"></path>
                    </g>
                    <g id="Group-105" transform="translate(303.000000, 107.000000)">
                        <mask id="mask-7" fill="white">
                            <use xlink:href="#path-6"></use>
                        </mask>
                        <g id="Clip-104"></g>
                        <path d="M1.28934241,11.8806177 C0.109292429,22.4119945 2.36766394,38.7710951 11.2410383,39.9156358 C19.8649567,41.0272465 27.3097098,31.0521201 29.7432312,15.9959803 C31.1426608,7.33627474 26.6878394,1.42756092 19.6438079,0.3097202 C18.380606,0.109470071 17.0864433,4.94049246e-14 15.7975881,4.94049246e-14 C8.95878268,0.000890000575 2.27478145,3.07139198 1.28934241,11.8806177" id="Fill-103" fill="url(#radialGradient-8)" mask="url(#mask-7)"></path>
                    </g>
                    <g id="Group-180" transform="translate(76.000000, 0.000000)">
                        <path d="M230,119 C230,119 230.895753,122.512195 235.03861,124.268293 C237.134672,125.156878 239.405405,124.926829 241.30888,123.5 C242.254795,122.791415 243.326116,122.731707 243.772201,124.378049 C244.257699,126.171024 243.88417,135.755805 251.945946,137 L251.311753,130.963415 L259,126.902439 L256.53668,120.756098 L230,119 Z" id="Fill-106" fill="#423748"></path>
                        <polygon id="Fill-108" fill="#FF7E59" points="257.489936 122 253 132.421405 254.071504 135 260 122.151469"></polygon>
                        <path d="M258.408171,128.103705 C257.426428,130.808097 254.949561,133.422524 253.750518,132.942712 C252.552341,132.462901 252.997329,129.466806 253.64663,126.588846 C254.281213,123.773589 256.704405,122.626767 257.902582,123.10567 C259.101625,123.585481 259.389914,125.399314 258.408171,128.103705" id="Fill-110" fill="#FFAEAE"></path>
                        <path d="M250,122 L252.763902,137 C252.763902,137 253.443902,136.8121 253.72,136.341049 C254.572683,134.880275 254.908293,133.960688 255,133.500029 L253.018537,122.081395 L250,122 Z" id="Fill-112" fill="#FF7E59"></path>
                        <path d="M250.099719,164 C250.099719,164 249.258914,158.317363 252.460268,152.534005 C255.944887,146.238949 259.991541,144.103127 262.689311,142.866598 C265.387081,141.630069 274.042425,142.079716 274.042425,142.079716 C274.042425,142.079716 278.538708,143.485312 280,147.194898 C275.953345,146.745252 267.785398,146.389131 263.588568,148.93683 C259.391737,151.484529 250.099719,164 250.099719,164" id="Fill-114" fill="#42426C"></path>
                        <path d="M239,154.859519 C239,154.859519 241.434901,154.490909 251.158345,146.051065 C263.054525,135.725536 266.662884,129.736285 268.217019,125.622061 C269.601465,121.958164 268.002438,119.831771 266.196912,118.849402 C264.700238,118.035795 260.697735,117.183994 260.697735,117.183994 L260.623215,116 C260.623215,116 264.812466,116.233601 267.880334,117.517076 C270.798265,118.738375 273.234962,120.169293 275.810822,122.772659 C277.936871,124.921257 280.712048,128.805433 281.497645,131.728557 C284.08787,141.36927 275.962554,142.720249 273.042828,142.720249 C267.54365,142.720249 262.717841,142.387168 259.912138,144.496685 C258.30144,145.708213 255.535242,147.938528 253.440616,151.269344 C252.119018,153.369978 250.26052,157.486867 246.66922,159.596383 C243.077921,161.7059 239,154.859519 239,154.859519" id="Fill-116" fill="#2474CD"></path>
                        <path d="M225.843901,118.968123 C225.843901,118.968123 231.432484,120.354411 242.270052,121.59431 C253.10762,122.83421 262.010644,123 262.010644,123 C262.591276,122.973544 262.851127,122.531731 262.878904,122.090799 C263.103809,118.554529 264.610943,101.885556 245.966205,100.098902 C231.464741,98.7090857 225.357353,112.33475 225.002522,117.872849 C224.967577,118.413431 225.298214,118.901101 225.843901,118.968123" id="Fill-118" fill="#FF7E59"></path>
                        <path d="M265,183.777778 C265,183.777778 276.30094,192.555556 300,200 L290.637116,180.296 C290.637116,180.296 279.92163,178.777778 273.448276,176 L265,183.777778 Z" id="Fill-120" fill="#42426C"></path>
                        <path d="M196.345355,195.294127 C195.380334,195.695393 194.672176,198.20708 195.156471,201.22591 C195.751359,204.932496 198.724016,210.419417 200.656734,209.974556 C202.588559,209.529694 205.413164,208.046526 208.088823,207.453971 C210.764482,206.860525 237.03321,202.257989 246.662907,197.222157 C254.317967,193.218404 256.696628,191.735236 270.817865,179.130531 C274.116061,176.186438 285.385936,165.784688 281.000531,154.293027 C278.010036,146.456347 268.280448,145.610221 262.939833,148.583675 C256.547683,152.142566 254.48475,156.793148 251.048312,161.188379 C245.251051,168.60244 240.939672,174.756654 236.480241,178.093114 C233.289963,180.480241 226.122764,183.264184 219.683345,185.952037 C213.089629,188.70395 204.818275,192.624959 203.034503,193.366098 C201.377378,194.055633 197.391538,194.811898 196.345355,195.294127" id="Fill-122" fill="#2474CD"></path>
                        <path d="M337.604331,62.4497533 C334.28249,60.8621527 327.302733,57.4291895 321.629249,53.9962262 C313.817263,49.2699929 307.036498,44.1852115 307.036498,44.1852115 C307.036498,44.1852115 315.360557,39.6150625 320.965942,35.7120625 C327.967809,30.8359882 331.952956,26.4674109 333.490059,24.6131291 C333.77307,24.2706355 333.500672,23.7560032 333.061121,23.8041664 C327.369064,24.4338551 302.078501,27.0025572 283.157452,25.232115 C274.754681,24.44545 268.723011,22.8105782 263,21 C272.102339,33.2593088 279.177611,45.9690324 285.448956,64.7259087 C286.871971,64.8855606 288.250765,65.0282663 289.569418,65.1451066 C313.887131,67.3088813 331.552319,64.8061806 337.421258,63.7697807 C338.089871,63.6520485 338.216342,62.7422999 337.604331,62.4497533" id="Fill-124" fill="#E86A46"></path>
                        <path d="M236.119671,171 C236.119671,171 237.140846,163.012073 236.983525,161.245224 C236.826204,159.478374 233.777751,157.815769 233.097595,155.392535 C232.508818,153.294401 233.137161,147 233.137161,147 C233.137161,147 230.46741,153.533809 231.095753,159.423602 C231.724096,165.313395 236.119671,171 236.119671,171" id="Fill-126" fill="#245EAD"></path>
                        <path d="M243.07743,158.613062 C240.944126,159.545234 239.473214,158.61213 240.178482,157.720042 C241.546141,155.990863 246.523268,153.020032 248.601446,152.056167 C248.95933,151.891172 249.202586,152.087861 248.765075,152.670468 C247.023781,154.989711 243.951577,158.230872 243.07743,158.613062" id="Fill-128" fill="#245EAD"></path>
                        <path d="M304.131473,206.520428 C304.131473,206.520428 259.417623,198.503375 226.329374,219.288032 C220.252762,223.10504 219.760909,226.395595 220.069435,231.313612 C220.367229,236.065052 220.897535,239.101734 228.117928,243.636714 C241.829877,252.24703 252.85989,254.326119 277.899646,270.360226 C283.58367,273.999969 288.332281,270.656857 290.120835,269.171921 C291.909389,267.687875 294.59222,262.045651 291.3138,257.591732 C281.86487,244.75732 271.639707,236.510444 271.639707,236.510444 C271.639707,236.510444 289.0325,237.370941 295.188703,235.619661 C307.708581,232.056526 309.497135,224.039472 308.900652,218.100617 C308.278235,211.896308 304.131473,206.520428 304.131473,206.520428" id="Fill-130" fill="#42426C"></path>
                        <path d="M40,237.875895 C40,237.875895 41.1087184,258.5179 61.7308805,264.288783 C82.3530427,270.059666 102.309974,273.389021 102.309974,273.389021 C102.309974,273.389021 95.5725138,277.772229 92.7749956,286.484487 C90.7793025,292.699284 85.2357105,313.563246 85.2357105,313.563246 L110.957977,320 C110.957977,320 132.688858,288.704057 140.449887,277.162291 C145.188992,270.114711 146.248927,258.861489 136.901988,251.637232 C119.384237,238.097852 106.374979,232.770883 85.9745604,227 L40,237.875895 Z" id="Fill-132" fill="#42426C"></path>
                        <path d="M184.159852,159.643627 C182.799112,160.80806 182.554106,163.296126 180.625025,164.770772 C178.535643,166.369138 177.74962,168.098503 178.068401,170.355502 C178.386271,172.612501 179.254267,176.650718 180.160516,178.10717 C181.110483,179.634578 182.626971,180.284114 184.956805,179.884749 C187.286639,179.485385 188.515312,178.121725 189.724859,176.638892 C190.912546,175.183351 191.099261,173.593172 190.930762,171.304333 C190.78048,169.263846 190.932584,166.081669 190.990875,163.851052 C191.071026,160.804422 190.636573,160.076651 189.153785,159.577218 C187.948793,159.171486 185.520592,158.479194 184.159852,159.643627" id="Fill-134" fill="#FF7E59"></path>
                        <path d="M170,168.82577 C170.342496,167.056776 171.215683,164.175638 173.400879,161.964845 C175.653862,159.684769 178.590052,159.059413 181.040148,156.353734 C182.433322,154.815987 183.032691,152.97771 184.207345,153.000204 C185.617466,153.028098 186.86169,155.496231 185.217887,159.715362 C184.507921,161.539243 183.535732,162.94832 182.843604,163.811221 C182.368212,164.404185 181.780439,164.890074 181.119529,165.260788 L172.635615,170 C172.635615,170 172.025543,169.556402 171.281685,169.237875 C170.700155,168.988632 170.422769,168.937344 170,168.82577" id="Fill-136" fill="#E86A46"></path>
                        <path d="M187,222.043208 C187,222.043208 188.871604,221.476633 190.846381,220.622398 C194.530762,219.028467 197.181598,217.234312 200.236077,217.015726 C203.740357,216.764789 209.899092,219.570561 211.88835,221.606036 C213.811541,223.573311 216.054208,227.417805 215.999001,228.746809 C215.922978,230.56807 214.716572,231.442414 211.548964,231.514985 C209.902712,231.552582 208.871882,232.753931 203.96933,235.15838 C200.660537,236.781163 197.294727,238 193.900861,238 C190.506995,238 187.452515,237.344241 187.452515,237.344241 L187,222.043208 Z" id="Fill-138" fill="#FF7E59"></path>
                        <path d="M122.00948,203.713622 C122.00948,203.713622 118.23426,208.891578 105.798242,215.993181 C103.017904,217.581277 104.453375,219.090368 105.058299,221.911479 C105.946586,226.054377 103.133381,230.344632 98.0257306,230.566558 C92.9180804,230.788483 84.2572821,231.010408 75.8185556,234.117359 C66.4533457,237.565187 57.8342969,243.454191 48.2816585,245.657463 C42.507793,246.989014 34.0690665,247.654789 26.518627,246.101313 C17.0752478,244.158137 16.5253982,238.999711 19.8564744,231.676183 C22.5586435,225.733917 62.4942506,152.670853 62.4942506,152.670853 C62.4942506,152.670853 92.6960086,140.686898 112.682466,151.561227 C132.668924,162.435556 136,174.715115 136,174.715115 L122.00948,203.713622 Z" id="Fill-140" fill="#2474CD"></path>
                        <path d="M19.8606455,232.683466 C16.5220851,240.003513 17.0731701,245.159488 26.5377663,247.101741 C34.1051698,248.654478 42.5628562,247.989019 48.3496942,246.658101 C57.9237951,244.455876 66.5622088,238.569671 75.9484601,235.123481 C84.4061464,232.018007 93.0864034,231.796187 98.2055293,231.574367 C103.324655,231.352548 106.143291,227.064331 105.253008,222.923402 C104.647615,220.103631 103.208919,218.595258 105.995504,217.007917 C106.718413,216.597107 20.0315798,232.309034 19.8606455,232.683466" id="Fill-142" fill="#245EAD"></path>
                        <path d="M82.8140653,313.633544 C83.3344217,312.029295 84.5311529,310.74803 86.0913358,310.118965 C89.1079849,308.905323 94.8505218,308.493361 101.499028,309.828011 C107.421518,311.01674 111.206735,313.774127 112.999172,315.427314 C114.273026,316.600916 114.620521,318.477435 113.909574,320.06033 L105.709749,336.076133 C105.709749,336.076133 117.460763,337.142963 122.995867,337.855666 C131.638925,338.967875 133.260275,343.774395 132.968627,347.865543 C132.74701,350.979727 130.309224,355.20612 124.547185,356.54077 C119.972126,357.600482 89.0858232,364.835176 84.2129111,364.993555 C77.3427875,365.215996 71.5807483,359.654954 72.0239821,352.314377 C72.3980714,346.125159 80.3328426,321.277531 82.8140653,313.633544" id="Fill-144" fill="#FF7E59"></path>
                        <path d="M22,362.331766 C18.3164563,360.955591 11.2153192,358.44466 10.0781831,359.110142 C8.5319606,360.014331 0.8008483,385.783704 0.8008483,385.783704 C0.8008483,385.783704 -0.800154613,389.890528 0.525178924,392 C11.6800695,380.414632 16.4839618,370.412499 16.4839618,370.412499 C16.7507956,370.001997 18.858076,366.821966 22,362.331766" id="Fill-146" fill="#E86A46"></path>
                        <path d="M96.4047442,180 L93.6360465,195.951074 C92.953814,199.878982 96.0645116,203.439804 100.064233,203.309519 L113.084977,202.887854 L115,207.142354 L77,218 L96.4047442,180 Z" id="Fill-148" fill="#245EAD"></path>
                        <path d="M81,211.640032 C81,211.640032 97.5928889,209.583473 113.592889,204 L117,209.877015 C117,209.877015 85.296,230.445247 61,235 L81,211.640032 Z" id="Fill-150" fill="#42426C"></path>
                        <path d="M69,145.974569 C69,145.974569 78.7351002,138.852263 86.3096065,135.645878 C93.5592248,132.57691 99.5412473,130.064793 107.465496,134.074121 C116.046623,138.414866 121.224414,146.498188 129.213464,155.180575 C137.229143,163.891702 130.027459,170 130.027459,170 L69,145.974569 Z" id="Fill-152" fill="#2474CD"></path>
                        <polygon id="Fill-154" fill="#245EAD" points="102 168 121 161.81836 105.118078 152"></polygon>
                        <path d="M101,176 C101,176 115.878695,162.947652 127,165.231812 C120.193133,159.177263 117.812292,161.352655 107.546197,161.497101 C106.058953,164.542648 101,176 101,176" id="Fill-156" fill="#42426C"></path>
                        <path d="M110.249913,196.688802 C118.594241,211.213923 125.419635,224.686588 135.654607,231.711526 C143.082583,236.809771 145.237079,236.144782 154.596703,237.253096 C163.956327,238.36141 185.126905,239.691387 189.361021,238.583073 C193.595137,237.474759 194.709378,229.716561 193.595137,226.169956 C192.480896,222.623351 189.361021,220.406723 189.361021,220.406723 C189.361021,220.406723 185.126905,219.076746 179.555701,216.416792 C173.984496,213.756839 165.293416,209.10192 157.49373,206.441966 C155.493444,205.760131 153.364798,203.965549 151.922525,200.235407 C148.579802,191.590558 146.06964,187.065976 143.677142,181.172406 C138.99733,169.64594 130.751947,162.774393 118.940993,165.656009 C111.537976,167.462118 99.5532001,178.069126 110.249913,196.688802" id="Fill-158" fill="#2474CD"></path>
                        <path d="M32.92065,237.333792 C44.5154626,238.295376 59.4243514,239.3297 69.0013191,231.789604 C69.0013191,231.789604 88.1552545,202.072755 103.745667,170.581765 C113.160495,151.564756 105.081988,147.517942 97.5095021,143.969662 C92.5321515,141.637554 84.9623381,139.164403 69.1492053,140.273241 C50.6447219,141.571024 44.0254782,152.545856 40.195582,158.901713 C34.8511885,167.772414 22.5267447,190.540843 15.9939164,203.181592 C13.7150435,207.591218 7.08510917,221.144762 14.2121549,229.571928 C19.5841657,235.92335 24.9027235,236.668489 32.92065,237.333792" id="Fill-160" fill="#42426C"></path>
                        <path d="M107.248196,161.932031 C110.250698,150.256613 103.700353,146.971805 97.4900648,144.026185 C92.5034482,141.660871 84.9195425,139.152505 69.0769715,140.277131 C50.5371469,141.593393 43.9064731,152.724492 40.069447,159.170849 C38.3459538,162.066986 34.7463432,168.485452 32,173.491387 C42.0410662,173.491387 62.5319814,174.315513 76.0691237,173.865663 C85.5800216,173.549868 106.583254,164.518671 107.248196,161.932031" id="Fill-162" fill="#3C3C65"></path>
                        <path d="M42.6587599,216.383366 C31.7887839,214.907142 21.6254859,214.80796 11.5220456,215.189635 C10.5294801,220.100936 10.7099466,225.4621 14.2192147,229.593224 C19.6055125,235.933815 24.9399932,236.677683 32.9805771,237.341851 C44.1534151,238.263716 58.3825683,239.230745 68,232.627144 C62.7325242,222.797458 53.5287358,217.85959 42.6587599,216.383366" id="Fill-164" fill="#3C3C65"></path>
                        <path d="M271.511955,237 C271.511955,237 266.654088,231.701375 258.348646,229.670326 C257.871022,229.553431 257.887522,229.03745 258.377303,229.028318 C260.699423,228.984482 263.52435,228.894985 264.890354,229.636536 C268.25543,231.463932 272,236.943379 272,236.943379 L271.511955,237 Z" id="Fill-166" fill="#2B2B51"></path>
                        <path d="M102.586126,273 C104.664296,273.36445 107.973295,273.925768 110.521434,274.354484 C111.175721,274.465121 111.152135,275.344519 110.49348,275.427496 L98,277 C98,277 100.128836,274.47407 102.586126,273" id="Fill-168" fill="#2B2B51"></path>
                        <path d="M135,354.385612 C135,354.385612 134.338623,347.514353 126.934426,349.294523 C122.519869,350.355242 120.662098,355.902853 115.631869,356.154977 C110.600743,356.4071 108.337902,355.143782 104.31318,357.924342 C100.288459,360.704 94,365 94,365 L135,354.385612 Z" id="Fill-170" fill="#E9EEFB"></path>
                        <path d="M219,238.274636 C219,238.274636 220.782,233.80784 226.03117,237.393207 C231.28034,240.977685 231.442905,243.486641 234.914517,245.62878 C237.801605,247.409444 238.46608,246.323239 241.354944,247.409444 C244.908283,248.744943 244.945593,250.4526 249.572041,253.196604 C260.40173,259.62035 276,269 276,269 L225.657181,249.601442 L219,238.274636 Z" id="Fill-172" fill="#E9EEFB"></path>
                        <path d="M178.989229,9.61554132 C172.874054,10.1075501 169.381592,7.45088207 168.862794,1 C168.791886,1.00808044 168.685972,1.01616087 168.622244,1.01975218 C169.140144,7.47063425 166.065054,10.6552242 160.001041,11.1427439 C159.993861,11.2890896 160.026173,11.3833613 160.026173,11.3833613 C166.083903,10.8985351 169.655352,13.8649533 170.148121,19.9989027 C170.224414,19.9998005 170.317762,20.0051874 170.388671,19.9800483 C169.8968,13.8460989 172.892903,10.3526567 179,9.85795443 C179,9.85795443 178.997307,9.73405439 178.989229,9.61554132" id="Fill-174" fill="#FFFFFF"></path>
                        <path d="M208.290045,42.6285193 C208.375471,42.8263388 208.380701,42.9091267 208.44695,42.9326559 C208.477459,42.9422419 209.341307,43.1034605 209.342178,42.8899548 C209.363099,40.602394 215.284508,37.5984999 215.910384,39.4912931 C216.371509,38.6102554 216.854427,37.7266034 216.966876,36.6895758 C216.958159,36.5466577 217,36.4952421 217,36.4952421 C216.260804,34.7880681 206.178805,37.6551443 208.290045,42.6285193 M217,33.8583564 L216.999132,33.8548763 C216.801289,32.8456462 216.41081,31.8833974 215.848519,31.0212016 C212.453949,27.7272831 201.291438,32.7020919 206.25053,41.6294289 C206.40325,41.903487 206.582003,42.0470413 206.654893,41.9861395 C206.72865,41.9252377 207.087891,41.8530255 207.017605,41.5772273 C205.181483,34.3699317 214.155573,31.6345699 217,33.8583564 M212.479025,29.1627621 C212.546638,29.1824622 213.122632,29.3812548 212.97628,29.2370854 C212.824792,29.0821705 212.648485,28.9577013 212.45506,28.869946 C202.721351,24.415918 196.877532,38.2588652 204.482714,43.3907579 C204.771995,43.588655 204.973978,43.7274516 205.0356,43.7229743 C205.12033,43.7211834 206.800386,44.7124598 205.463531,42.9555634 C200.389986,36.3058625 204.559741,26.1862464 212.479025,29.1627621" id="Fill-176" fill="#FFFFFF"></path>
                        <path d="M215.704162,31.5820213 C215.243358,33.5485039 208.548196,30.9152255 207.384548,29.2095497 C207.26446,29.024377 207.171368,28.9869947 207.137855,29.0035124 C207.070829,29.0304625 207.029868,29.1078351 207.008457,29.3234353 C206.726389,32.0497347 213.570498,36.2469838 217,34.6465001 C216.995345,34.5708661 216.982313,34.4952322 216.956247,34.4213369 C216.731896,33.4102763 216.307397,32.4470302 215.704162,31.5820213 M205.122016,30.4867041 C205.146112,30.1932599 205.167427,30.0710658 205.085874,30.0113066 C205.005248,29.9506555 204.860677,30.1406361 204.692011,30.4224853 C201.37522,36.0309265 210.774183,43.0566408 216.084384,40.4334815 C216.585749,39.4817947 216.896205,38.4480505 217,37.3857646 L217,37.3830888 C214.21423,39.9732468 204.719813,35.5644483 205.122016,30.4867041 M204.195417,29.4799755 C204.403645,29.2368206 204.607405,29.004594 204.521611,29.0000405 C204.457266,28.9973084 204.240102,29.1330016 203.94608,29.3497465 C198.457981,33.4150786 200.959396,43.9062581 208.780899,44.9927145 L208.781792,45 C209.006106,44.9963572 209.233102,44.9854289 209.454735,44.9608402 C210.345735,44.8633961 211.217075,44.614777 212.026751,44.2213578 C212.736334,43.8570807 213.130448,43.5929798 213.789091,43.0656888 C213.860586,43.0055831 213.93208,42.9418346 214,42.8789968 C207.581578,45.7367504 198.810985,36.0196596 204.195417,29.4799755" id="Fill-178" fill="#FFFFFF"></path>
                    </g>
                </g>
            </g>
        </g>
    </g>
</svg>