<?xml version="1.0" encoding="UTF-8"?>
<svg width="619px" height="578px" viewBox="0 0 619 578" version="1.1" xmlns="http://www.w3.org/2000/svg" xmlns:xlink="http://www.w3.org/1999/xlink">
    <!-- Generator: Sketch 51.3 (57544) - http://www.bohemiancoding.com/sketch -->
    <title>Вклад доходный</title>
    <desc>Created with Sketch.</desc>
    <defs>
        <path d="M0.524,24.105 C0.524,37.292 13.531,46.481 24.024,46.481 C33.274,46.481 36.859,38.385 37.774,25.23 C38.774,10.856 38.774,0.231 29.525,0.231 C19.031,0.231 0.524,10.919 0.524,24.105" id="path-1"></path>
        <radialGradient cx="154.577262%" cy="46.4859976%" fx="154.577262%" fy="46.4859976%" r="100.454631%" gradientTransform="translate(1.545773,0.464860),scale(1.000000,0.814782),rotate(167.799531),translate(-1.545773,-0.464860)" id="radialGradient-3">
            <stop stop-color="#FFE8E8" offset="0%"></stop>
            <stop stop-color="#FDACAC" offset="100%"></stop>
        </radialGradient>
        <polygon id="path-4" points="0.408503144 0.71950382 428.04 0.71950382 428.04 280.999857 0.408503144 280.999857"></polygon>
        <path d="M0.942,13.898 C-0.392,25.731 2.161,44.112 12.192,45.398 C21.941,46.647 30.357,35.439 33.108,18.522 C34.69,8.792 29.654,2.153 21.691,0.897 C20.263,0.672 18.8,0.549 17.343,0.549 C9.612,0.55 2.056,4 0.942,13.898" id="path-6"></path>
        <radialGradient cx="-53.5822219%" cy="-11.4624534%" fx="-53.5822219%" fy="-11.4624534%" r="139.236669%" gradientTransform="translate(-0.535822,-0.114625),scale(1.000000,0.729430),rotate(47.950780),translate(0.535822,0.114625)" id="radialGradient-8">
            <stop stop-color="#FFE8E8" offset="0%"></stop>
            <stop stop-color="#FDACAC" offset="100%"></stop>
        </radialGradient>
    </defs>
    <g id="Частным" stroke="none" stroke-width="1" fill="none" fill-rule="evenodd">
        <g id="-Мобильный-банк.png-БКС-Платинум.png-Доходный-фунт.png-Кредит-Онлайн.png-Рефенансирование.png-Цифровой-Signature.png-Цифровой-Visa-Platinum.png-More-Signature.png-more-visa-platinum.png" transform="translate(-2639.000000, -6282.000000)">
            <g id="Вклад-доходный" transform="translate(2565.000000, 6187.000000)">
                <rect id="Rectangle-8-Copy-6" fill-rule="nonzero" x="0" y="0" width="767" height="767"></rect>
                <g id="Group-181" transform="translate(74.000000, 94.000000)">
                    <polygon id="Fill-1" fill="#FFFFFF" points="228.9409 304.2168 159.2739 245.8838 292.2749 245.3838"></polygon>
                    <path d="M104.1079,249.7173 C92.1079,249.7173 64.1079,243.7173 59.1079,223.2173 C54.1079,202.7173 63.1079,190.7173 72.1079,184.2173 C81.1079,177.7173 88.6079,176.7173 97.6079,167.7173 C106.6079,158.7173 111.8449,147.0733 125.6079,138.7173 C139.6079,130.2173 148.4829,130.5493 157.1079,130.2173 C170.1079,129.7173 173.6079,126.7173 175.6079,118.7173 C177.6079,110.7173 181.0659,89.1503 208.1079,79.7173 C229.6079,72.2173 252.7739,74.8843 266.2749,96.8843 C277.3999,115.0143 275.9409,129.2173 294.9409,134.2173 C314.1909,139.2833 322.2189,123.7033 342.9409,128.8843 C358.9409,132.8843 365.6079,154.2173 365.6079,154.2173 L405.6079,249.5503 C405.6079,249.5503 116.1079,249.7173 104.1079,249.7173" id="Fill-2" fill="#FFFFFF"></path>
                    <g id="Group-6" transform="translate(204.000000, 130.153000)">
                        <mask id="mask-2" fill="white">
                            <use xlink:href="#path-1"></use>
                        </mask>
                        <g id="Clip-5"></g>
                        <path d="M0.524,24.105 C0.524,37.292 13.531,46.481 24.024,46.481 C33.274,46.481 36.859,38.385 37.774,25.23 C38.774,10.856 38.774,0.231 29.525,0.231 C19.031,0.231 0.524,10.919 0.524,24.105" id="Fill-4" fill="url(#radialGradient-3)" mask="url(#mask-2)"></path>
                    </g>
                    <g id="Group-102" transform="translate(0.000000, 11.153000)">
                        <path d="M239.7744,128.5643 C239.7744,128.5643 239.5244,136.4813 231.1074,139.5643 C226.3074,141.3223 222.7744,142.7313 222.7744,142.7313 C222.7744,142.7313 221.9414,157.0643 218.9414,156.3973 C205.4804,153.4063 196.9414,140.2313 196.9414,140.2313 C196.9414,140.2313 195.4414,137.3973 195.6074,134.8973 L239.7744,128.5643 Z" id="Fill-7" fill="#423748"></path>
                        <path d="M243.1909,129.4808 C243.1909,129.4808 235.1489,133.9808 217.7739,136.7308 C203.4149,139.0038 195.1109,137.3098 195.1109,137.3098 C194.3369,137.2898 194.0049,136.6948 193.9299,136.1018 C193.3159,131.2308 192.3889,109.2068 216.3159,106.2308 C235.5829,103.8348 243.6599,120.4878 244.2829,127.9758 C244.3439,128.7068 243.9169,129.3758 243.1909,129.4808" id="Fill-9" fill="#FF7E59"></path>
                        <polygon id="Fill-11" fill="#FF7E59" points="217.4409 135.0643 230.0339 155.0033 231.9409 165.0643 229.1079 166.3973 226.6669 156.5863 213.1079 135.8973"></polygon>
                        <path d="M228.4594,140.8182 C229.0914,143.6872 229.8574,147.7312 227.8794,148.0152 C225.8764,148.3022 222.5244,145.8942 221.6274,142.4902 C220.7314,139.0872 222.0344,136.7992 223.9934,136.2842 C225.9514,135.7682 227.7024,137.3802 228.4594,140.8182" id="Fill-13" fill="#FFAEAE"></path>
                        <polygon id="Fill-15" fill="#FF7E59" points="229.1079 131.7308 226.2749 153.8978 229.7749 157.5638 233.4409 131.2308"></polygon>
                        <path d="M276.8579,178.5223 L275.1499,181.0433 L281.7749,194.8553 C281.7749,194.8553 287.8999,196.7303 297.3999,186.8553 L294.8999,170.7303 L276.8579,178.5223 Z" id="Fill-17" fill="#E86A46"></path>
                        <path d="M207.6655,228.2493 C207.6655,228.2493 217.0095,235.8283 223.7745,235.2303 C235.1075,234.2303 254.1915,219.8113 263.3675,212.3913 C273.0615,204.5503 281.7275,197.7723 284.0245,195.7303 C286.3215,193.6893 284.9365,187.7433 283.4405,184.7303 C281.9205,181.6683 278.8575,177.9393 275.6075,178.0643 C274.2425,178.1163 268.0245,181.9803 261.2135,185.0913 C255.1615,187.8563 226.4655,199.5463 226.4655,199.5463 L207.6655,228.2493 Z" id="Fill-19" fill="#245EAD"></path>
                        <path d="M112.9409,260.7308 C112.9409,260.7308 113.6619,269.5948 118.9959,277.3528 C122.6949,282.7338 123.5239,286.7308 123.6809,290.9278 C123.8929,296.6118 124.2739,304.2308 124.9409,312.0638 C125.9169,323.5318 126.3899,328.0648 125.5499,332.6568 C125.1509,334.8358 123.6709,336.4988 122.0239,337.9808 C117.0239,342.4808 112.5899,347.3218 108.9409,358.0638 C102.9409,375.7308 97.2739,396.0638 97.2739,396.0638 L120.9409,404.7308 C120.9409,404.7308 142.6079,372.0638 150.2739,359.7308 C157.9409,347.3978 161.9409,343.0638 165.6079,325.0638 C169.3679,306.6038 174.3879,254.1768 173.9409,254.3978 L112.9409,260.7308 Z" id="Fill-21" fill="#2B2B51"></path>
                        <path d="M448.4189,221.5115 C450.8429,232.4425 443.3349,242.1585 434.4899,241.8035 C420.8159,241.2535 420.3979,237.7395 418.1429,230.3095 C415.5649,221.8205 421.5719,209.8505 430.0519,210.2705 C440.4019,210.7825 446.4339,212.5615 448.4189,221.5115" id="Fill-23" fill="#2474CD"></path>
                        <path d="M436.8056,237.494 C433.4336,234.953 432.3376,230.218 433.8346,224.882 C435.2456,219.852 439.2016,215.538 443.3756,216.444 C448.0136,217.45 448.5396,223.25 448.8656,226.115 C448.2966,211.509 439.1196,209.947 429.3756,211.299 C420.9666,212.465 415.5656,221.82 418.1426,230.309 C420.3976,237.74 422.6156,242.34 433.9526,242.14 C440.7846,242.019 444.8006,238.591 447.0976,233.539 C444.0746,238.221 439.8706,239.803 436.8056,237.494" id="Fill-25" fill="#245EAD"></path>
                        <path d="M387.4414,125.8973 C387.4414,125.8973 390.8304,124.5783 395.2744,124.7303 C401.6494,124.9493 416.2744,125.7303 424.6074,141.7303 C431.0724,154.1433 438.6074,187.0643 440.1074,196.2303 C441.6874,205.8843 441.9414,210.5643 435.7744,214.8973 C428.6074,218.8973 423.4414,216.5643 423.4414,216.5643 C423.4414,216.5643 415.4414,207.5643 405.7744,184.7303 C396.1074,161.8973 388.2744,147.7303 388.2744,147.7303 L387.4414,125.8973 Z" id="Fill-27" fill="#42426C"></path>
                        <path d="M339.2744,174.0643 C339.2744,174.0643 322.6074,167.3973 307.2744,159.3973 C297.0844,154.0813 291.9254,147.9323 288.4414,129.2313 C285.6684,114.3473 282.7114,101.2043 282.3204,98.6413 C282.2564,98.2203 282.5104,97.8243 282.9164,97.6973 L295.6254,93.7033 C296.1654,93.5353 296.7384,93.8113 296.9364,94.3403 C297.4534,95.7233 297.8094,98.2593 300.1074,102.3973 C303.1944,107.9543 305.4414,112.8973 312.1964,128.4243 C313.2174,130.7723 314.8994,132.7723 317.2744,133.7313 C322.7794,135.9533 333.4374,140.6333 336.2744,140.3973 C340.2744,140.0643 341.9414,139.0643 346.9414,140.0643 L339.2744,174.0643 Z" id="Fill-29" fill="#245EAD"></path>
                        <path d="M336.2744,140.3973 C334.7744,144.9803 334.0244,165.4803 337.1914,176.0643 L346.9414,140.0643 C341.9414,139.0643 340.2844,140.2153 336.2744,140.3973" id="Fill-31" fill="#2474CD"></path>
                        <path d="M380.1914,139.8143 L377.6494,120.2313 C377.6494,120.2313 383.0244,119.9813 385.7744,122.3973 C388.5244,124.8143 387.3274,130.0453 385.9414,132.3143 C383.1914,136.8143 380.1914,139.8143 380.1914,139.8143" id="Fill-33" fill="#42426C"></path>
                        <path d="M336.7187,160.554 C335.5287,162.569 334.9557,164.898 335.1387,167.231 C335.5247,172.162 336.3787,177.307 337.4417,182.231 C339.2747,190.731 341.8477,195.165 348.9417,202.731 C353.9417,208.064 358.5847,211.347 364.9417,215.731 C369.7747,219.064 372.6077,223.064 372.6077,223.064 L422.5247,214.356 C422.5247,214.356 419.5297,208.298 415.6497,201.231 C412.1497,194.856 408.1077,184.564 407.1077,176.897 C406.1077,169.231 403.9547,159.305 398.7747,153.564 C392.6077,146.731 381.4417,142.897 381.4417,142.897 L347.4417,142.397 L336.7187,160.554 Z" id="Fill-35" fill="#2474CD"></path>
                        <path d="M350.4414,153.2308 C350.4414,153.2308 348.6144,163.0258 353.2744,162.7308 C356.5664,162.5228 360.1494,158.6478 360.1494,158.6478 L357.4414,152.2308 L350.4414,153.2308 Z" id="Fill-37" fill="#42426C"></path>
                        <path d="M359.6494,211.7308 L375.9154,207.5848 C382.0724,206.0148 388.5164,205.9478 394.7054,207.3898 L422.2744,213.8138 L382.2744,192.0638 L359.6494,211.7308 Z" id="Fill-39" fill="#245EAD"></path>
                        <polygon id="Fill-41" fill="#245EAD" points="392.0869 187.1683 397.1489 181.2933 395.7749 189.2313"></polygon>
                        <path d="M335.1074,166.7308 C335.1074,166.7308 335.0554,171.4498 337.8994,184.1678 C337.8044,181.9518 336.9614,174.6678 338.0864,167.0428 C339.3914,158.2008 345.2744,149.0638 345.2744,149.0638 L338.6074,154.5638 L335.1074,166.7308 Z" id="Fill-43" fill="#245EAD"></path>
                        <path d="M335.1289,167.3143 C335.1289,167.3143 333.9419,161.3973 336.4409,154.0643 C338.5499,147.8773 343.7749,143.3563 343.7749,143.3563 L345.9419,148.5643 C345.9419,148.5643 342.1539,150.9253 339.2749,155.7313 C336.0579,161.1003 335.3789,165.5433 335.1289,167.3143" id="Fill-45" fill="#42426C"></path>
                        <path d="M422.4756,300.553 C422.4756,300.553 434.6956,304.439 437.0306,306.819 C439.3656,309.198 437.4006,317.664 437.4006,317.664 L419.6056,314.951 L422.4756,300.553 Z" id="Fill-47" fill="#E86A46"></path>
                        <path d="M384.2744,223.0643 C384.2744,223.0643 393.7994,217.9973 407.2744,214.7313 C418.2744,212.0643 422.2744,213.7313 422.2744,213.7313 L426.2744,220.7313 L384.2744,223.0643 Z" id="Fill-49" fill="#423748"></path>
                        <path d="M339.2744,122.3558 C339.2744,122.3558 339.9824,123.6888 339.6074,125.3138 C339.2324,126.9388 337.0374,129.2098 336.8994,132.1058 C336.7744,134.7308 337.7744,137.8558 342.3994,139.8558 L342.5244,122.2308 L339.2744,122.3558 Z" id="Fill-51" fill="#423748"></path>
                        <polygon id="Fill-53" fill="#2B2B51" points="415.2744 250.7308 396.1664 269.0638 377.7744 249.1398"></polygon>
                        <path d="M104.0244,404.2308 C105.0244,402.7308 128.7744,367.7308 142.7744,357.2308 C156.7744,346.7308 164.4404,339.8978 190.2744,315.7308 C202.2214,304.5548 208.1074,295.7308 223.6074,283.7308 C239.1074,271.7308 249.2744,266.2308 259.7744,256.7308 C270.2744,247.2308 277.6074,231.2308 293.6074,226.7308 C299.1484,225.1728 310.3004,230.3638 321.7744,232.7308 C335.0564,235.4708 344.9374,249.4708 355.0244,257.2308 C367.9954,267.2098 367.5244,271.9808 380.2744,280.9808 C389.2704,287.3308 402.2744,295.4808 409.2744,301.9808 C416.2744,308.4808 440.2744,322.7308 442.2744,332.2308 C444.2744,341.7308 445.7744,357.2308 445.7744,357.2308 L302.2744,360.7308 L387.2744,454.2308 L197.2744,529.2308 C197.2744,529.2308 188.7744,528.2308 169.7744,528.7308 C150.7744,529.2308 129.6074,523.7308 104.2744,517.0638 C83.8684,511.6938 96.4484,495.9438 85.0244,489.2308 C60.7744,474.9808 58.2744,468.2308 58.2744,468.2308 C58.2744,468.2308 68.0454,449.6748 76.5244,436.4808 C85.0034,423.2868 104.0244,404.2308 104.0244,404.2308" id="Fill-55" fill="#E9EEFB"></path>
                        <path d="M253.5239,497.2991 C253.5239,497.2991 243.1219,465.1471 237.4479,453.3251 C231.7739,441.5051 229.4099,431.5751 229.4099,420.7001 C229.4099,409.8251 237.2269,413.5111 236.9749,407.4611 C236.5029,396.1131 254.4699,406.0431 270.5459,427.7931 C276.0819,435.2821 282.8389,436.7771 296.0789,452.3801 C301.4299,458.6871 306.0079,456.6361 310.7359,452.8531 C315.4649,449.0701 318.7749,445.7601 324.9209,448.5981 C331.0669,451.4351 333.4319,455.6901 340.5249,460.4181 C352.4889,468.3951 362.2749,475.5491 362.2749,475.5491 C362.2749,475.5491 340.9969,503.9181 323.9759,504.3911 C306.9529,504.8631 253.5239,497.2991 253.5239,497.2991" id="Fill-57" fill="#D2D8EE"></path>
                        <path d="M238.4477,500.3255 C232.7737,488.5055 230.4097,478.5755 230.4097,467.7005 C230.4097,456.8255 238.2267,460.5115 237.9747,454.4615 C237.5027,443.1135 255.4697,453.0435 271.5457,474.7935 C277.0817,482.2825 244.1217,512.1465 238.4477,500.3255" id="Fill-59" fill="#D2D8EE"></path>
                        <path d="M469.2744,504.7308 C469.2744,504.7308 482.7744,507.3978 493.7744,503.8978 C504.7744,500.3978 502.7744,497.8978 518.1074,498.3978 C534.9324,498.9458 534.3644,500.0018 544.7744,504.2308 C555.4414,508.5638 562.9414,511.3978 573.2744,511.7308 C580.7544,511.9718 585.5844,510.7048 588.6604,508.7878 C590.5524,507.6078 591.2654,505.2098 590.3504,503.1768 C588.6294,499.3478 584.5444,494.5508 580.4414,486.3978 C576.5154,478.5988 569.1544,462.2118 563.7744,453.8978 C549.1074,431.2308 521.2744,389.7308 521.2744,389.7308 L468.7744,371.7308 L417.2744,415.2308 L450.7744,500.2308 L469.2744,504.7308 Z" id="Fill-61" fill="#D2D8EE"></path>
                        <path d="M83.6079,491.3978 L61.2739,472.7308 C61.2739,472.7308 65.9409,458.3978 69.9409,448.3978 C76.6079,454.3978 71.5079,462.1848 78.6079,468.3978 C89.2749,477.7308 83.6079,491.3978 83.6079,491.3978" id="Fill-63" fill="#C3CBE8"></path>
                        <path d="M409.2744,301.9808 C402.2744,295.4808 389.2704,287.3308 380.2744,280.9808 C367.5244,271.9808 368.5244,266.4808 355.0244,257.2308 C345.3394,250.5948 328.5204,252.5848 343.2744,265.2308 C352.6504,273.2678 354.2744,282.7308 362.2744,295.2308 C370.2014,307.6168 361.2744,313.7308 364.2744,320.2308 C367.2744,326.7308 359.2744,321.7308 353.7744,324.7308 C348.2744,327.7308 362.2744,346.2308 362.2744,346.2308 L445.2844,352.6168 C444.6844,347.2918 443.5874,338.4678 442.2744,332.2308 C440.2744,322.7308 416.2744,308.4808 409.2744,301.9808" id="Fill-65" fill="#D2D8EE"></path>
                        <path d="M389.2431,431.7904 C378.9971,422.2754 359.9631,410.3474 346.7961,401.0524 C328.1341,387.8794 329.5971,379.8284 309.8371,366.2894 C295.6621,356.5764 274.6681,355.9534 292.6391,377.9994 C298.9411,385.7304 290.9411,397.7304 305.6071,417.7304 C318.3371,435.0884 303.6071,456.3974 286.2741,451.0634 C300.2741,468.3974 320.4491,496.5594 320.4491,496.5594 L441.9511,505.9054 C441.0741,498.1104 439.4681,485.1964 437.5461,476.0674 C434.6181,462.1624 399.4891,441.3044 389.2431,431.7904" id="Fill-67" fill="#D2D8EE"></path>
                        <path d="M87.2744,491.2308 C89.2744,501.7308 53.7744,497.2308 43.7744,488.7308 C27.2334,474.6708 27.7744,465.7308 16.2744,460.7308 C7.5744,456.9488 -1.7256,453.2308 0.2744,445.0638 C2.1774,437.2928 10.2414,431.7308 25.2744,431.7308 C36.2744,431.7308 42.2584,426.7218 47.2744,417.7308 C54.7604,404.3108 67.5074,404.2348 80.7744,399.7308 C96.5774,394.3658 104.2744,403.7308 104.2744,403.7308 C104.2744,403.7308 100.9324,410.6998 94.2744,418.7308 C89.0884,424.9868 81.7264,432.0558 77.7744,438.2308 C69.7744,450.7308 69.3554,458.4988 65.7744,464.7308 C63.7704,468.2188 62.6074,471.7308 66.3164,474.6228 C66.3164,474.6228 86.8884,489.2058 87.2744,491.2308" id="Fill-69" fill="#FFFFFF"></path>
                        <path d="M193.1909,487.1068 C175.1419,480.9628 167.7739,494.3978 164.5239,505.0888 C164.4409,505.3608 164.3579,505.6278 164.2739,505.8938 C163.2139,509.2558 160.3669,511.7638 156.8889,512.3428 C151.5049,513.2398 148.8609,511.0918 147.6509,510.6668 C140.7419,508.2388 135.1649,512.0228 129.4509,515.2628 C124.0049,518.3518 118.8379,518.5608 112.4159,519.1958 C134.1939,524.8568 152.8489,529.1758 169.7739,528.7308 C188.7739,528.2308 197.2739,529.2308 197.2739,529.2308 L252.0909,507.5918 C242.6779,498.3938 232.9919,491.7208 221.8019,486.4788 C208.1079,480.0638 206.7739,491.7308 193.1909,487.1068" id="Fill-71" fill="#D2D8EE"></path>
                        <path d="M534.8964,404.6722 C535.1674,409.8502 529.9414,422.7312 510.2744,422.7312 C499.1884,422.7312 488.6314,416.7202 477.5574,416.2122 C471.9154,415.9532 456.8834,415.7222 455.6134,424.2212 C453.9414,435.3982 471.9414,438.7312 476.9134,444.4112 C479.6244,447.5082 481.3334,452.3092 479.9014,455.6852 C479.2344,457.2592 479.8354,459.0562 481.2494,460.0182 C483.5454,461.5802 485.3704,463.6612 485.9614,466.4002 C489.2744,481.7312 469.6074,494.0642 457.2744,497.3982 C453.2744,491.3982 403.9414,405.0642 403.9414,405.0642 L501.7774,356.3482 L534.8964,404.6722 Z" id="Fill-73" fill="#C3CBE8"></path>
                        <g id="Group-77" transform="translate(191.000000, 286.000000)">
                            <mask id="mask-5" fill="white">
                                <use xlink:href="#path-4"></use>
                            </mask>
                            <g id="Clip-76"></g>
                            <path d="M97.0244,74.4808 C95.5384,70.5628 93.7744,55.2308 116.2744,51.7308 C138.7744,48.2308 156.6114,54.5258 167.5244,56.2308 C175.5244,57.4808 177.3844,50.3278 185.2744,48.9808 C195.5244,47.2308 203.9624,47.0878 219.5244,55.9808 C233.5244,63.9808 251.0244,58.7308 251.0244,58.7308 C251.0244,58.7308 252.2744,51.2308 247.7744,43.2308 C243.2744,35.2308 229.1074,24.3978 229.1074,24.3978 C229.1074,24.3978 238.6414,26.2658 248.0244,23.2308 C256.5244,20.4808 261.5244,14.7308 270.5244,8.7308 C279.5244,2.7308 295.2744,-4.6032 312.9414,6.3978 C319.6014,10.5438 327.1764,19.0998 340.9414,22.0638 C362.6074,26.7308 368.9714,33.6418 377.7744,44.2308 C389.2744,58.0638 400.6704,55.5578 412.9414,53.7308 C428.6074,51.3978 430.0894,65.0068 426.2744,70.7308 C422.2744,76.7308 404.1464,83.7518 386.6074,78.0638 C361.9414,70.0638 355.1374,69.5938 344.2744,72.3978 C333.9414,75.0638 331.2004,82.6918 330.9414,88.3978 C330.6074,95.7308 339.4284,101.2708 346.2744,99.4808 C352.3934,97.8808 352.2744,91.4808 346.5244,90.2308 C345.9064,90.0958 345.3214,90.0768 344.7884,90.1248 C343.6564,90.2278 342.9944,88.8598 343.8324,88.0918 C345.4714,86.5888 348.3004,85.3398 353.0244,86.4808 C360.2744,88.2308 364.2744,94.7308 361.5244,101.7308 C358.7084,108.8988 348.9964,106.7348 348.5244,110.9808 C348.2744,113.2308 352.5244,114.4808 353.0244,120.9808 C353.5244,127.4808 348.2744,130.7308 348.2744,130.7308 C348.2744,130.7308 336.0784,111.4608 330.7744,106.7308 C321.5244,98.4808 318.5244,103.9808 304.0244,98.2308 C291.9304,93.4348 267.7694,93.3408 267.2744,103.4808 C266.7744,113.7308 265.7744,119.7308 261.2744,125.2308 C256.2684,131.3498 244.2744,123.4808 238.7744,128.4808 C233.2744,133.4808 236.7744,142.9808 244.2744,149.9808 C251.7744,156.9808 263.4324,166.0978 269.5244,173.9808 C273.7744,179.4808 282.2604,191.3198 276.5244,197.7308 C272.2744,202.4808 266.7744,200.9808 265.7744,204.7308 C264.8084,208.3538 270.7744,210.2308 277.7744,213.7308 C284.7744,217.2308 295.2744,216.7308 297.2744,220.7308 C298.9024,223.9878 286.1574,220.8228 270.7744,231.2308 C260.6284,238.0958 262.1284,247.1608 248.7744,253.2308 C226.7744,263.2308 218.7744,252.2308 182.2744,265.7308 C170.0014,270.2708 157.8024,253.9008 137.2744,266.7308 C109.2744,284.2308 73.5724,286.6738 49.7744,268.2308 C29.7744,252.7308 32.2744,256.7308 6.7744,248.7308 C-9.3686,243.6668 9.2744,227.7308 17.7744,215.7308 C35.9724,190.0398 55.8594,194.0438 77.2744,187.2308 C99.2744,180.2308 116.5244,192.7308 128.2744,190.4808 C137.5204,188.7098 144.0064,180.7298 149.7744,175.7308 C157.2744,169.2308 165.7244,166.9968 169.7744,165.7308 C177.7744,163.2308 176.5244,157.7308 169.0244,152.7308 C161.5244,147.7308 158.0244,142.9808 155.0244,136.4808 C152.0244,129.9808 146.3474,122.4658 138.0244,112.9808 C127.2744,100.7308 121.0244,96.7308 113.5244,92.2308 C106.0244,87.7308 99.7744,81.7308 97.0244,74.4808" id="Fill-75" fill="#FFFFFF" mask="url(#mask-5)"></path>
                        </g>
                        <path d="M575.2744,351.7308 C571.3734,346.8548 572.1854,340.4568 576.1034,336.9958 C573.6594,335.3678 571.2184,333.1708 568.7744,330.2308 C559.9714,319.6418 553.6074,312.7308 531.9414,308.0638 C518.6394,305.1998 511.1224,297.1258 504.6204,292.8428 C504.8724,294.9028 505.1134,298.7328 506.7744,300.9808 C511.0244,306.7308 518.3514,304.7978 522.0244,313.9808 C528.0244,328.9808 515.0244,343.2308 495.2744,348.7308 C475.5244,354.2308 463.2744,347.2308 445.5244,357.4808 C446.5244,365.7308 446.5244,377.2308 433.2744,384.7308 C428.8374,387.2428 417.2324,385.7368 408.2744,396.7308 C397.2744,410.2308 410.2744,428.7308 422.2744,440.7308 C432.2744,451.7308 412.2744,461.7308 399.2744,465.7308 C404.2744,480.7308 395.2744,499.7308 381.2744,504.7308 C366.2744,509.7308 351.2744,495.7308 337.2744,506.7308 C332.2744,510.7308 328.2744,514.7308 325.2744,520.7308 C320.1454,530.9878 318.2744,545.4598 322.2294,556.2028 C324.2774,555.1188 326.2964,553.9668 328.2744,552.7308 C348.8024,539.9008 361.0014,556.2698 373.2744,551.7308 C409.7744,538.2308 417.7744,549.2308 439.7744,539.2308 C453.1294,533.1608 451.6284,524.0958 461.7744,517.2308 C477.1574,506.8228 489.9024,509.9878 488.2744,506.7308 C486.2744,502.7308 475.7744,503.2308 468.7744,499.7308 C461.7744,496.2308 455.8084,494.3538 456.7744,490.7308 C457.7744,486.9808 463.2744,488.4808 467.5244,483.7308 C473.2604,477.3198 464.7744,465.4808 460.5244,459.9808 C454.4324,452.0978 442.7744,442.9808 435.2744,435.9808 C427.7744,428.9808 424.2744,419.4808 429.7744,414.4808 C435.2744,409.4808 447.2684,417.3498 452.2744,411.2308 C456.7744,405.7308 457.7744,399.7308 458.2744,389.4808 C458.7684,379.3408 481.9304,380.1848 494.0244,384.9808 C508.5244,390.7308 512.5244,384.4808 521.7744,392.7308 C527.0784,397.4608 539.2744,416.7308 539.2744,416.7308 C539.2744,416.7308 544.5244,413.4808 544.0244,406.9808 C543.5244,400.4808 539.2744,399.2308 539.5244,396.9808 C539.9964,392.7348 549.7084,394.8988 552.5244,387.7308 C555.2744,380.7308 551.2744,374.2308 544.0244,372.4808 C539.3154,371.3438 536.4894,372.5828 534.8474,374.0788 C534.0044,374.8458 534.6504,376.2288 535.7854,376.1258 C536.3194,376.0758 536.9054,376.0958 537.5244,376.2308 C543.2744,377.4808 543.3934,383.8808 537.2744,385.4808 C530.4284,387.2708 521.6074,381.7308 521.9414,374.3978 C521.9914,373.2948 522.1374,372.1208 522.4094,370.9248 C513.7174,365.7068 502.7984,366.4208 493.2604,370.3688 C491.9014,370.9298 490.4704,369.7108 490.8664,368.2948 C492.9114,360.9778 499.5114,356.3428 505.6074,353.7308 C519.7744,348.2308 532.4614,359.1078 532.5534,359.2968 C533.4024,358.9608 534.2944,358.6508 535.2744,358.3978 C546.1374,355.5938 552.9414,356.0638 577.6074,364.0638 C589.0814,367.7858 600.8054,366.0668 608.6634,362.7528 C595.5134,363.1548 583.9064,362.0888 575.2744,351.7308" id="Fill-78" fill="#E9EEFB"></path>
                        <path d="M398.2744,295.3978 C395.6074,293.7308 391.5904,286.0818 397.9414,279.3978 C404.2744,272.7308 410.7744,274.2308 412.9414,276.0648 C415.1074,277.8978 424.5374,287.3268 426.8224,289.6118 C429.1074,291.8978 429.5904,295.7548 428.9414,299.0638 C427.5514,306.1368 427.6074,317.3978 423.9414,324.0638 C420.5164,330.2908 413.4414,331.7308 408.9414,328.7308 C404.4414,325.7308 404.3754,319.2118 405.9414,313.7308 C409.2744,302.0638 405.6074,300.3978 405.6074,300.3978 C405.6074,300.3978 400.9414,297.0638 398.2744,295.3978" id="Fill-80" fill="#FF7E59"></path>
                        <path d="M284.2744,97.2308 C284.2744,97.2308 282.0244,95.7308 279.0244,91.7308 C276.1974,87.9608 275.7744,86.3638 275.7744,82.4808 C275.7744,76.9808 275.5244,72.4808 276.6494,71.1058 C277.7744,69.7308 278.6494,69.6058 280.2744,70.2308 C281.8994,70.8558 286.0244,74.2308 288.6494,76.2308 C291.6554,78.5208 292.3994,82.6058 293.2744,86.4808 C293.8414,88.9948 293.9414,93.3978 293.9414,93.3978 L284.2744,97.2308 Z" id="Fill-82" fill="#E86A46"></path>
                        <path d="M306.1494,213.3558 L293.8574,212.3978 C293.8574,212.3978 289.8574,211.8138 288.1914,208.1478 C286.8604,205.2198 289.1434,204.3558 289.9414,205.0638 C291.4414,206.3978 292.4414,206.7308 294.7744,207.3138 C297.1074,207.8978 301.4824,205.3138 305.3994,209.2308 C305.8994,211.6058 306.1494,213.3558 306.1494,213.3558" id="Fill-84" fill="#E86A46"></path>
                        <path d="M296.6128,233.2723 C295.3308,233.3873 294.1978,232.4413 294.0818,231.1603 L273.3138,3.1463 C273.1988,1.8633 274.1468,0.7293 275.4298,0.6143 C276.7138,0.5003 277.8468,1.4473 277.9618,2.7303 L298.7288,230.7363 C298.8458,232.0213 297.8978,233.1573 296.6128,233.2723" id="Fill-86" fill="#B6BAC7"></path>
                        <path d="M463.8213,58.8441 C459.8323,56.9381 452.5303,53.3341 446.5243,49.7311 C437.6923,44.4321 430.0243,38.7311 430.0243,38.7311 C430.0243,38.7311 439.4363,33.6071 445.7743,29.2311 C453.0853,24.1831 457.4863,19.6201 459.4863,17.3141 C459.9793,16.7461 459.5173,15.8741 458.7693,15.9541 C451.2003,16.7641 423.7383,19.4031 403.0243,17.4811 C393.5233,16.5991 386.7043,14.7651 380.2323,12.7361 C368.0423,8.9131 357.0883,4.3941 331.7743,4.2311 C305.9253,4.0641 279.2103,14.3251 274.4573,16.2381 C274.2093,16.3381 274.2233,16.6871 274.4753,16.7731 C277.1303,17.6871 285.9093,21.6961 288.0243,35.2311 C290.4563,50.7951 280.5743,59.2921 278.4283,60.9351 C278.3403,61.0031 278.4053,61.1411 278.5133,61.1151 C282.5703,60.1711 311.0353,53.7311 333.2743,53.7311 C355.5353,53.7311 385.0403,59.4791 405.6163,61.7611 C407.2243,61.9401 408.7843,62.0991 410.2743,62.2311 C436.6963,64.5621 456.1733,62.0621 463.5433,60.8321 C464.5583,60.6621 464.7513,59.2881 463.8213,58.8441" id="Fill-88" fill="#FF7E59"></path>
                        <path d="M283.4448,20.3372 C292.8258,28.0112 293.4168,40.8122 289.6228,52.7852 C289.3368,53.6872 290.5008,54.3382 291.1138,53.6172 C294.3118,49.8612 296.7378,45.5552 298.0248,40.7312 C300.8338,30.1942 293.7758,22.1322 284.4748,18.6132 C283.3938,18.2042 282.5498,19.6052 283.4448,20.3372" id="Fill-90" fill="#E86A46"></path>
                        <path d="M286.4829,96.6683 C286.4829,96.6683 283.8779,94.5853 283.3999,90.6063 C283.2759,89.5843 283.2139,88.6433 283.2299,87.8193 C283.2539,86.5013 282.7219,85.2373 281.6989,84.4073 C280.8329,83.7053 279.8609,82.7943 279.2749,81.8553 C277.9089,79.6703 277.5249,76.8563 278.6499,75.9813 C279.7749,75.1063 280.1499,76.3563 283.1499,78.4813 C286.1499,80.6063 288.5829,81.3813 290.7749,82.7303 C294.0249,84.7303 295.4829,93.7513 295.4829,93.7513 L286.4829,96.6683 Z" id="Fill-92" fill="#FF7E59"></path>
                        <path d="M305.6494,211.2308 C305.6494,211.2308 301.2734,210.1648 298.0174,209.7448 C297.3294,209.6558 296.6624,209.9158 296.1454,210.3778 C295.6884,210.7858 295.0814,211.0848 294.3364,211.1058 C293.5054,211.1298 292.9594,210.8578 292.5884,210.4988 C292.1524,210.0738 291.5124,209.9358 290.9294,210.1098 C287.1654,211.2358 285.1334,212.8858 285.5244,215.2308 C285.7744,216.7308 287.5244,217.2308 288.2744,218.9808 C289.0244,220.7308 289.4984,222.6918 291.2744,225.3558 C293.2744,228.3558 296.5244,229.4808 300.5244,228.7308 C304.5244,227.9808 310.5244,224.4808 310.5244,224.4808 L305.6494,211.2308 Z" id="Fill-94" fill="#FF7E59"></path>
                        <path d="M353.1074,154.2308 C353.1074,154.2308 356.2744,154.7308 357.2744,157.0638 C358.4494,159.8048 357.4414,163.7308 357.4414,163.7308 L374.2744,147.3978 L371.9414,135.7308 L353.1074,154.2308 Z" id="Fill-96" fill="#E09595"></path>
                        <path d="M357.4824,155.7308 C356.9834,155.8028 356.3024,155.5868 355.8754,155.3198 C354.8664,154.6908 354.1524,154.3208 353.3364,154.3558 C353.5244,156.4178 355.0244,155.9808 355.8994,158.1058 C356.7864,160.2588 357.3994,161.8558 358.2744,163.2308 L372.7744,148.8138 L372.5244,141.6058 C372.5244,144.4808 366.1914,154.4808 357.4824,155.7308" id="Fill-98" fill="#E86A46"></path>
                        <path d="M378.9414,125.9808 C378.8994,129.2728 385.4614,129.3828 384.1494,134.1058 C383.3164,137.1058 377.1954,146.4498 371.3374,151.9178 C370.3994,152.7928 368.4414,150.4808 368.5244,147.6678 C368.5994,145.1358 371.5554,142.2518 369.5554,141.3558 C368.4904,140.8788 365.9624,143.5018 368.0874,135.0438 C369.3834,129.8818 379.0044,120.9218 378.9414,125.9808" id="Fill-100" fill="#423748"></path>
                    </g>
                    <g id="Group-105" transform="translate(340.000000, 120.153000)">
                        <mask id="mask-7" fill="white">
                            <use xlink:href="#path-6"></use>
                        </mask>
                        <g id="Clip-104"></g>
                        <path d="M0.942,13.898 C-0.392,25.731 2.161,44.112 12.192,45.398 C21.941,46.647 30.357,35.439 33.108,18.522 C34.69,8.792 29.654,2.153 21.691,0.897 C20.263,0.672 18.8,0.549 17.343,0.549 C9.612,0.55 2.056,4 0.942,13.898" id="Fill-103" fill="url(#radialGradient-8)" mask="url(#mask-7)"></path>
                    </g>
                    <g id="Group-180" transform="translate(85.000000, 0.153000)">
                        <path d="M258.8994,133.3558 C258.8994,133.3558 259.8994,137.3558 264.5244,139.3558 C266.8644,140.3678 269.3994,140.1058 271.5244,138.4808 C272.5804,137.6738 273.7764,137.6058 274.2744,139.4808 C274.8164,141.5228 274.3994,152.4388 283.3994,153.8558 L282.6914,146.9808 L291.2744,142.3558 L288.5244,135.3558 L258.8994,133.3558 Z" id="Fill-106" fill="#423748"></path>
                        <polygon id="Fill-108" fill="#FF7E59" points="288.7119 137.3973 283.8679 148.8873 285.0239 151.7303 291.4199 137.5643"></polygon>
                        <path d="M290.3164,144.0223 C289.1824,146.9983 286.3214,149.8753 284.9364,149.3473 C283.5524,148.8193 284.0664,145.5223 284.8164,142.3553 C285.5494,139.2573 288.3484,137.9953 289.7324,138.5223 C291.1174,139.0503 291.4504,141.0463 290.3164,144.0223" id="Fill-110" fill="#FFAEAE"></path>
                        <path d="M280.5244,136.5745 L283.3574,153.8975 C283.3574,153.8975 284.0544,153.6805 284.3374,153.1365 C285.2114,151.4495 285.5554,150.3875 285.6494,149.8555 L283.6184,136.6685 L280.5244,136.5745 Z" id="Fill-112" fill="#FF7E59"></path>
                        <path d="M281.1494,183.7308 C281.1494,183.7308 280.2144,177.4118 283.7744,170.9808 C287.6494,163.9808 292.1494,161.6058 295.1494,160.2308 C298.1494,158.8558 307.7744,159.3558 307.7744,159.3558 C307.7744,159.3558 312.7744,160.9188 314.3994,165.0438 C309.8994,164.5438 300.8164,164.1478 296.1494,166.9808 C291.4824,169.8138 281.1494,183.7308 281.1494,183.7308" id="Fill-114" fill="#42426C"></path>
                        <path d="M268.3574,173.7723 C268.3574,173.7723 271.0694,173.3573 281.8994,163.8553 C295.1494,152.2303 299.1684,145.4873 300.8994,140.8553 C302.4414,136.7303 300.6604,134.3363 298.6494,133.2303 C296.9824,132.3143 292.5244,131.3553 292.5244,131.3553 L292.4414,130.0223 C292.4414,130.0223 297.1074,130.2853 300.5244,131.7303 C303.7744,133.1053 306.4884,134.7163 309.3574,137.6473 C311.7254,140.0663 314.8164,144.4393 315.6914,147.7303 C318.5764,158.5843 309.5264,160.1053 306.2744,160.1053 C300.1494,160.1053 294.7744,159.7303 291.6494,162.1053 C289.8554,163.4693 286.7744,165.9803 284.4414,169.7303 C282.9694,172.0953 280.8994,176.7303 276.8994,179.1053 C272.8994,181.4803 268.3574,173.7723 268.3574,173.7723" id="Fill-116" fill="#2474CD"></path>
                        <path d="M253.9424,133.3777 C253.9424,133.3777 260.1794,134.9497 272.2744,136.3557 C284.3694,137.7617 294.3054,137.9497 294.3054,137.9497 C294.9534,137.9197 295.2434,137.4187 295.2744,136.9187 C295.5254,132.9087 297.2074,114.0067 276.3994,111.9807 C260.2154,110.4047 253.3994,125.8557 253.0034,132.1357 C252.9644,132.7487 253.3334,133.3017 253.9424,133.3777" id="Fill-118" fill="#FF7E59"></path>
                        <path d="M297.3994,206.4808 C297.3994,206.4808 310.2744,216.3558 337.2744,224.7308 L326.6074,202.5638 C326.6074,202.5638 314.3994,200.8558 307.0244,197.7308 L297.3994,206.4808 Z" id="Fill-120" fill="#42426C"></path>
                        <path d="M220.6074,219.5643 C219.5254,220.0153 218.7314,222.8383 219.2744,226.2313 C219.9414,230.3973 223.2744,236.5643 225.4414,236.0643 C227.6074,235.5643 230.7744,233.8973 233.7744,233.2313 C236.7744,232.5643 266.2274,227.3913 277.0244,221.7313 C285.6074,217.2313 288.2744,215.5643 304.1074,201.3973 C307.8054,198.0883 320.4414,186.3973 315.5244,173.4813 C312.1714,164.6733 301.2624,163.7223 295.2744,167.0643 C288.1074,171.0643 285.7944,176.2913 281.9414,181.2313 C275.4414,189.5643 270.6074,196.4813 265.6074,200.2313 C262.0304,202.9143 253.9944,206.0433 246.7744,209.0643 C239.3814,212.1573 230.1074,216.5643 228.1074,217.3973 C226.2494,218.1723 221.7804,219.0223 220.6074,219.5643" id="Fill-122" fill="#2474CD"></path>
                        <path d="M379.5879,70.2088 C375.8319,68.4288 367.9399,64.5798 361.5249,60.7308 C352.6919,55.4318 345.0249,49.7308 345.0249,49.7308 C345.0249,49.7308 354.4369,44.6068 360.7749,40.2308 C368.6919,34.7638 373.1979,29.8658 374.9359,27.7868 C375.2559,27.4028 374.9479,26.8258 374.4509,26.8798 C368.0149,27.5858 339.4189,30.4658 318.0249,28.4808 C308.5239,27.5988 301.7039,25.7658 295.2329,23.7358 C305.5249,37.4808 313.5249,51.7308 320.6159,72.7608 C322.2249,72.9398 323.7839,73.0998 325.2749,73.2308 C352.7709,75.6568 372.7449,72.8508 379.3809,71.6888 C380.1369,71.5568 380.2799,70.5368 379.5879,70.2088" id="Fill-124" fill="#E86A46"></path>
                        <path d="M265.6074,191.8973 C265.6074,191.8973 266.6914,182.8553 266.5244,180.8553 C266.3574,178.8553 263.1214,176.9733 262.3994,174.2303 C261.7744,171.8553 262.4414,164.7303 262.4414,164.7303 C262.4414,164.7303 259.6074,172.1263 260.2744,178.7933 C260.9414,185.4603 265.6074,191.8973 265.6074,191.8973" id="Fill-126" fill="#245EAD"></path>
                        <path d="M273.5869,177.3558 C271.1489,178.3558 269.4679,177.3548 270.2739,176.3978 C271.8369,174.5428 277.5249,171.3558 279.8999,170.3218 C280.3089,170.1448 280.5869,170.3558 280.0869,170.9808 C278.0969,173.4688 274.5859,176.9458 273.5869,177.3558" id="Fill-128" fill="#245EAD"></path>
                        <path d="M341.2744,231.7308 C341.2744,231.7308 291.2744,222.7308 254.2744,246.0638 C247.4794,250.3488 246.9294,254.0428 247.2744,259.5638 C247.6074,264.8978 248.2004,268.3068 256.2744,273.3978 C271.6074,283.0638 283.9414,285.3978 311.9414,303.3978 C318.2974,307.4838 323.6074,303.7308 325.6074,302.0638 C327.6074,300.3978 330.6074,294.0638 326.9414,289.0638 C316.3754,274.6558 304.9414,265.3978 304.9414,265.3978 C304.9414,265.3978 324.3904,266.3638 331.2744,264.3978 C345.2744,260.3978 347.2744,251.3978 346.6074,244.7308 C345.9114,237.7658 341.2744,231.7308 341.2744,231.7308" id="Fill-130" fill="#42426C"></path>
                        <path d="M44.7744,266.9808 C44.7744,266.9808 46.0244,290.2308 69.2744,296.7308 C92.5244,303.2308 115.0244,306.9808 115.0244,306.9808 C115.0244,306.9808 107.4284,311.9178 104.2744,321.7308 C102.0244,328.7308 95.7744,352.2308 95.7744,352.2308 L124.7744,359.4808 C124.7744,359.4808 149.2744,324.2308 158.0244,311.2308 C163.3674,303.2928 164.5624,290.6178 154.0244,282.4808 C134.2744,267.2308 119.6074,261.2308 96.6074,254.7308 L44.7744,266.9808 Z" id="Fill-132" fill="#42426C"></path>
                        <path d="M206.6494,179.6058 C205.1554,180.8858 204.8864,183.6208 202.7684,185.2418 C200.4744,186.9988 199.6114,188.8998 199.9614,191.3808 C200.3104,193.8618 201.2634,198.3008 202.2584,199.9018 C203.3014,201.5808 204.9664,202.2948 207.5244,201.8558 C210.0824,201.4168 211.4314,199.9178 212.7594,198.2878 C214.0634,196.6878 214.2684,194.9398 214.0834,192.4238 C213.9184,190.1808 214.0854,186.6828 214.1494,184.2308 C214.2374,180.8818 213.7604,180.0818 212.1324,179.5328 C210.8094,179.0868 208.1434,178.3258 206.6494,179.6058" id="Fill-134" fill="#FF7E59"></path>
                        <path d="M191.3369,189.1058 C191.7209,187.1398 192.6999,183.9378 195.1499,181.4808 C197.6759,178.9468 200.9679,178.2518 203.7149,175.2448 C205.2769,173.5358 205.9489,171.4928 207.2659,171.5178 C208.8469,171.5488 210.2419,174.2918 208.3989,178.9808 C207.6029,181.0078 206.5129,182.5738 205.7369,183.5328 C205.2039,184.1918 204.5449,184.7318 203.8039,185.1438 L194.2919,190.4108 C194.2919,190.4108 193.6079,189.9178 192.7739,189.5638 C192.1219,189.2868 191.8109,189.2298 191.3369,189.1058" id="Fill-136" fill="#E86A46"></path>
                        <path d="M210.2744,249.8558 C210.2744,249.8558 212.3424,249.2078 214.5244,248.2308 C218.5954,246.4078 221.5244,244.3558 224.8994,244.1058 C228.7714,243.8188 235.5764,247.0278 237.7744,249.3558 C239.8994,251.6058 242.3774,256.0028 242.3164,257.5228 C242.2324,259.6058 240.8994,260.6058 237.3994,260.6888 C235.5804,260.7318 234.4414,262.1058 229.0244,264.8558 C225.3684,266.7118 221.6494,268.1058 217.8994,268.1058 C214.1494,268.1058 210.7744,267.3558 210.7744,267.3558 L210.2744,249.8558 Z" id="Fill-138" fill="#FF7E59"></path>
                        <path d="M137.5244,229.2308 C137.5244,229.2308 133.2744,235.0638 119.2744,243.0638 C116.1444,244.8528 117.7604,246.5528 118.4414,249.7308 C119.4414,254.3978 116.2744,259.2308 110.5244,259.4808 C104.7744,259.7308 95.0244,259.9808 85.5244,263.4808 C74.9814,267.3648 65.2784,273.9988 54.5244,276.4808 C48.0244,277.9808 38.5244,278.7308 30.0244,276.9808 C19.3934,274.7918 18.7744,268.9808 22.5244,260.7308 C25.5664,254.0368 70.5244,171.7308 70.5244,171.7308 C70.5244,171.7308 104.5244,158.2308 127.0244,170.4808 C149.5244,182.7308 153.2744,196.5638 153.2744,196.5638 L137.5244,229.2308 Z" id="Fill-140" fill="#2474CD"></path>
                        <path d="M22.5244,260.7308 C18.7744,268.9808 19.3934,274.7918 30.0244,276.9808 C38.5244,278.7308 48.0244,277.9808 54.5244,276.4808 C65.2784,273.9988 74.9814,267.3648 85.5244,263.4808 C95.0244,259.9808 104.7744,259.7308 110.5244,259.4808 C116.2744,259.2308 119.4404,254.3978 118.4404,249.7308 C117.7604,246.5528 116.1444,244.8528 119.2744,243.0638 C120.0864,242.6008 22.7164,260.3088 22.5244,260.7308" id="Fill-142" fill="#245EAD"></path>
                        <path d="M93.1962,352.2581 C93.7832,350.4551 95.1332,349.0151 96.8932,348.3081 C100.2962,346.9441 106.7742,346.4811 114.2742,347.9811 C120.9552,349.3171 125.2252,352.4161 127.2472,354.2741 C128.6842,355.5931 129.0762,357.7021 128.2742,359.4811 L119.0242,377.4811 C119.0242,377.4811 132.2802,378.6801 138.5242,379.4811 C148.2742,380.7311 150.1032,386.1331 149.7742,390.7311 C149.5242,394.2311 146.7742,398.9811 140.2742,400.4811 C135.1132,401.6721 100.2712,409.8031 94.7742,409.9811 C87.0242,410.2311 80.5242,403.9811 81.0242,395.7311 C81.4462,388.7751 90.3972,360.8491 93.1962,352.2581" id="Fill-144" fill="#FF7E59"></path>
                        <path d="M25.2671,406.2943 C21.0981,404.7723 13.0611,401.9953 11.7741,402.7313 C10.0241,403.7313 1.2741,432.2313 1.2741,432.2313 C1.2741,432.2313 -0.5379,436.7733 0.9621,439.1063 C13.5871,426.2933 19.0241,415.2313 19.0241,415.2313 C19.3261,414.7773 21.7111,411.2603 25.2671,406.2943" id="Fill-146" fill="#E86A46"></path>
                        <path d="M108.8994,201.6058 L105.7664,219.7258 C104.9944,224.1878 108.5144,228.2328 113.0404,228.0848 L127.7744,227.6058 L129.9414,232.4388 L86.9414,244.7728 L108.8994,201.6058 Z" id="Fill-148" fill="#245EAD"></path>
                        <path d="M91.4409,237.3973 C91.4409,237.3973 110.1079,235.0643 128.1079,228.7303 L131.9409,235.3973 C131.9409,235.3973 96.2739,258.7303 68.9409,263.8973 L91.4409,237.3973 Z" id="Fill-150" fill="#42426C"></path>
                        <path d="M77.2744,163.4808 C77.2744,163.4808 88.2414,155.5508 96.7744,151.9808 C104.9414,148.5638 111.6804,145.7668 120.6074,150.2308 C130.2744,155.0638 136.1074,164.0638 145.1074,173.7308 C154.1374,183.4298 146.0244,190.2308 146.0244,190.2308 L77.2744,163.4808 Z" id="Fill-152" fill="#2474CD"></path>
                        <polygon id="Fill-154" fill="#245EAD" points="114.9409 189.3143 136.7739 182.2313 118.5239 170.9813"></polygon>
                        <path d="M113.2744,198.2308 C113.2744,198.2308 129.9414,183.2308 142.3994,185.8558 C134.7744,178.8978 132.1074,181.3978 120.6074,181.5638 C118.9414,185.0638 113.2744,198.2308 113.2744,198.2308" id="Fill-156" fill="#42426C"></path>
                        <path d="M123.7744,221.4808 C133.1354,237.8628 140.7924,253.0578 152.2744,260.9808 C160.6074,266.7308 163.0244,265.9808 173.5244,267.2308 C184.0244,268.4808 207.7744,269.9808 212.5244,268.7308 C217.2744,267.4808 218.5244,258.7308 217.2744,254.7308 C216.0244,250.7308 212.5244,248.2308 212.5244,248.2308 C212.5244,248.2308 207.7744,246.7308 201.5244,243.7308 C195.2744,240.7308 185.5244,235.4808 176.7744,232.4808 C174.5304,231.7118 172.1424,229.6878 170.5244,225.4808 C166.7744,215.7308 163.9584,210.6278 161.2744,203.9808 C156.0244,190.9808 146.7744,183.2308 133.5244,186.4808 C125.2194,188.5178 111.7744,200.4808 123.7744,221.4808" id="Fill-158" fill="#2474CD"></path>
                        <path d="M37.2744,266.9808 C50.2894,268.0648 67.0244,269.2308 77.7744,260.7308 C77.7744,260.7308 99.2744,227.2308 116.7744,191.7308 C127.3424,170.2928 118.2744,165.7308 109.7744,161.7308 C104.1874,159.1018 95.6904,156.3138 77.9404,157.5638 C57.1694,159.0268 49.7394,171.3988 45.4404,178.5638 C39.4414,188.5638 25.6074,214.2308 18.2744,228.4808 C15.7164,233.4518 8.2744,248.7308 16.2744,258.2308 C22.3044,265.3908 28.2744,266.2308 37.2744,266.9808" id="Fill-160" fill="#42426C"></path>
                        <path d="M120.7075,181.6331 C124.0715,168.6561 116.7325,165.0051 109.7745,161.7311 C104.1875,159.1021 95.6905,156.3141 77.9405,157.5641 C57.1685,159.0271 49.7395,171.3991 45.4405,178.5641 C43.5095,181.7831 39.4765,188.9171 36.3995,194.4811 C47.6495,194.4811 70.6075,195.3971 85.7745,194.8971 C96.4305,194.5461 119.9625,184.5081 120.7075,181.6331" id="Fill-162" fill="#3C3C65"></path>
                        <path d="M48.1079,243.3143 C35.9409,241.6473 24.5649,241.5353 13.2559,241.9663 C12.1449,247.5123 12.3469,253.5663 16.2749,258.2313 C22.3039,265.3913 28.2749,266.2313 37.2749,266.9813 C49.7809,268.0223 65.7079,269.1143 76.4729,261.6573 C70.5769,250.5573 60.2749,244.9813 48.1079,243.3143" id="Fill-164" fill="#3C3C65"></path>
                        <path d="M305.3994,265.7933 C305.3994,265.7933 299.8054,259.9913 290.2414,257.7673 C289.6914,257.6393 289.7104,257.0743 290.2744,257.0643 C292.9484,257.0163 296.2014,256.9183 297.7744,257.7303 C301.6494,259.7313 305.9614,265.7313 305.9614,265.7313 L305.3994,265.7933 Z" id="Fill-166" fill="#2B2B51"></path>
                        <path d="M115.0244,306.9808 C117.4034,307.4288 121.1914,308.1188 124.1084,308.6458 C124.8574,308.7818 124.8304,309.8628 124.0764,309.9648 L109.7744,311.8978 C109.7744,311.8978 112.2114,308.7928 115.0244,306.9808" id="Fill-168" fill="#2B2B51"></path>
                        <path d="M151.0244,397.8851 C151.0244,397.8851 150.2864,390.2541 142.0244,392.2311 C137.0984,393.4091 135.0254,399.5701 129.4124,399.8501 C123.7984,400.1301 121.2734,398.7271 116.7824,401.8151 C112.2914,404.9021 105.2744,409.6731 105.2744,409.6731 L151.0244,397.8851 Z" id="Fill-170" fill="#E9EEFB"></path>
                        <path d="M245.6093,267.471 C245.6093,267.471 247.6153,262.454 253.5243,266.481 C259.4333,270.507 259.6163,273.325 263.5243,275.731 C266.7743,277.731 267.5223,276.511 270.7743,277.731 C274.7743,279.231 274.8163,281.149 280.0243,284.231 C292.2153,291.446 309.7743,301.981 309.7743,301.981 L253.1033,280.193 L245.6093,267.471 Z" id="Fill-172" fill="#E9EEFB"></path>
                        <path d="M201.2651,10.4432 C194.4521,10.9912 190.5611,8.0322 189.9831,0.8472 C189.9041,0.8562 189.7861,0.8652 189.7151,0.8692 C190.2921,8.0542 186.8661,11.6012 180.1101,12.1442 C180.1021,12.3072 180.1381,12.4122 180.1381,12.4122 C186.8871,11.8722 190.8661,15.1762 191.4151,22.0082 C191.5001,22.0092 191.6041,22.0152 191.6831,21.9872 C191.1351,15.1552 194.4731,11.2642 201.2771,10.7132 C201.2771,10.7132 201.2741,10.5752 201.2651,10.4432" id="Fill-174" fill="#FFFFFF"></path>
                        <path d="M233.8828,48.4378 C233.9808,48.6648 233.9868,48.7598 234.0628,48.7868 C234.0978,48.7978 235.0888,48.9828 235.0898,48.7378 C235.1138,46.1128 241.9068,42.6658 242.6248,44.8378 C243.1538,43.8268 243.7078,42.8128 243.8368,41.6228 C243.8268,41.4588 243.8748,41.3998 243.8748,41.3998 C243.0268,39.4408 231.4608,42.7308 233.8828,48.4378 M243.6908,38.5798 L243.6898,38.5758 C243.4618,37.4158 243.0118,36.3098 242.3638,35.3188 C238.4518,31.5328 225.5878,37.2508 231.3028,47.5118 C231.4788,47.8268 231.6848,47.9918 231.7688,47.9218 C231.8538,47.8518 232.2678,47.7688 232.1868,47.4518 C230.0708,39.1678 240.4128,36.0238 243.6908,38.5798 M239.2258,32.6568 C239.3048,32.6788 239.9778,32.9008 239.8068,32.7398 C239.6298,32.5668 239.4238,32.4278 239.1978,32.3298 C227.8248,27.3558 220.9968,42.8148 229.8828,48.5458 C230.2208,48.7668 230.4568,48.9218 230.5288,48.9168 C230.6278,48.9148 232.5908,50.0218 231.0288,48.0598 C225.1008,40.6338 229.9728,29.3328 239.2258,32.6568" id="Fill-176" fill="#FFFFFF"></path>
                        <path d="M242.33,35.3602 C241.835,37.6222 234.643,34.5932 233.393,32.6312 C233.264,32.4182 233.164,32.3752 233.128,32.3942 C233.056,32.4252 233.012,32.5142 232.989,32.7622 C232.686,35.8982 240.038,40.7262 243.722,38.8852 C243.717,38.7982 243.703,38.7112 243.675,38.6262 C243.434,37.4632 242.978,36.3552 242.33,35.3602 M231.022,33.7612 C231.048,33.4322 231.071,33.2952 230.983,33.2282 C230.896,33.1602 230.74,33.3732 230.558,33.6892 C226.979,39.9772 237.121,47.8542 242.851,44.9132 C243.392,43.8462 243.727,42.6872 243.839,41.4962 L243.839,41.4932 C240.833,44.3972 230.588,39.4542 231.022,33.7612 M229.808,32.9052 C230.041,32.6382 230.269,32.3832 230.173,32.3782 C230.101,32.3752 229.858,32.5242 229.529,32.7622 C223.388,37.2262 226.187,48.7462 234.939,49.9392 L234.94,49.9472 C235.191,49.9432 235.445,49.9312 235.693,49.9042 C236.69,49.7972 237.665,49.5242 238.571,49.0922 C239.365,48.6922 239.806,48.4022 240.543,47.8232 C240.623,47.7572 240.703,47.6872 240.779,47.6182 C233.597,50.7562 223.783,40.0862 229.808,32.9052" id="Fill-178" fill="#FFFFFF"></path>
                    </g>
                </g>
            </g>
        </g>
    </g>
</svg>