<svg xmlns="http://www.w3.org/2000/svg" xmlns:xlink="http://www.w3.org/1999/xlink" width="683" height="683" viewBox="0 0 683 683">
    <defs>
        <path id="a" d="M.126.068h68.65v117.03H.125z"/>
        <path id="c" d="M.282.132H63.38v104.327H.282z"/>
        <path id="e" d="M.62 29.315C1.142 56.582 5.067 76.77 22.6 76.77c15.608 0 31.66-12.584 32.185-45.032C55.118 11.08 44.095.116 28.487.116 12.879.116.277 11.42.619 29.316"/>
        <radialGradient id="f" cx="-144.711%" cy="98.687%" r="216.693%" fx="-144.711%" fy="98.687%" gradientTransform="scale(1 .7068) rotate(-18.236 -.172 1.192)">
            <stop offset="0%" stop-color="#FFE8E8"/>
            <stop offset="100%" stop-color="#FDACAC"/>
        </radialGradient>
        <path id="h" d="M.445.334h12.2V12.1H.445z"/>
        <path id="j" d="M14.638 2.464C9.088 5.87-.761 6.853.183 11.694c1.25 6.421 4.333 22.664 4.336 22.663L3.734 48.42c20.204-1.388 40.663-.518 60.899 2.93l.794-14.141c0 .015 4.236-13.982 5.917-19.612 1.023-3.433-6.63-12.545-16.834-14.457-3.25-.619-6.053.049-8.751.717-2.586.64-5.074 1.279-7.768.787C32.395 3.65 27.376.32 21.862.32c-2.296 0-4.68.579-7.224 2.144"/>
        <linearGradient id="k" x1="50%" x2="50%" y1="0%" y2="100%">
            <stop offset="0%" stop-color="#1D6FCB"/>
            <stop offset="100%" stop-color="#3D3D68"/>
        </linearGradient>
    </defs>
    <g fill="none" fill-rule="evenodd">
        <path fill-rule="nonzero" d="M0 1h683v683H0z"/>
        <path fill="#FFAEAE" d="M232.641 264.453l7.32 12.868s5.363 3.611 11.799.71c6.436-2.902 5.616-7.522 5.616-7.522l-5.159-9.163-19.576 3.107z"/>
        <path fill="#E86A46" d="M262.942 359.754l16.898 4.544 11.547-32.85-14.38-.875-11.125 2.23z"/>
        <path fill="#2B2B51" d="M293.897 342.937s14.101 9.577 16.754 41.162c4.12 1.524 6.127 4.701 7.054 6.876.558 1.31.724 2.256.724 2.256s3.678-34.81-16.28-53.195l-8.252 2.901z"/>
        <path fill="#42426C" d="M291.884 341.785c7.416.994 25.37 11.03 26.575 51.475l7.507-2.53s1.507-30.41-14.23-49.94c-.99-1.229-.542-2.592.874-3.014 0 0-17.228 3.406-20.726 4.009"/>
        <path fill="#E86A46" d="M278.936 344.81c0 7.811-5.566 14.63-12.431 15.229-6.865.6-12.43-5.247-12.43-13.06 0-7.812 5.565-14.63 12.43-15.229 6.865-.6 12.43 5.248 12.43 13.06"/>
        <path fill="#E86A46" d="M291.357 341.423c5.968 4.407 4.742 10.694 4.1 12.537-2.003 5.748-6.287 10.106-11.895 10.597-7.407.648-13.41-5.675-13.41-14.121 0-8.446 6.003-15.819 13.41-16.467 2.248 1.546 3.331 4.158 7.795 7.454"/>
        <path fill="#E86A46" d="M343.53 320.375l-61.338 13.212 1.598 2.637 61.419-13.706z"/>
        <path fill="#E86A46" d="M327.84 319.315l-61.757 12.475 14.32 2.041c1.7.261 3.437.179 5.105-.244l58.186-12.584-15.855-1.688z"/>
        <path fill="#2B2B51" d="M344.959 330.465l-61.125 15.071.046-9.357 61.079-13.79z"/>
        <path fill="#2B2B51" d="M296.12 350.343c0 6.27-4.407 11.658-10.853 12.508-6.633.875-12.361-4.962-12.361-12.348 0-7.386 5.215-13.284 11.637-14.445 4.536-.82 7.115 5.727 7.115 5.727s4.462 2.17 4.462 8.558"/>
        <path fill="#E86A46" d="M286.097 357.409a7.097 7.097 0 0 1-2.495-9.724 7.102 7.102 0 0 1 9.726-2.494c.131.078-1.002-1.31-1.943-1.866a7.718 7.718 0 0 0-10.573 2.71c-1.964 3.318-1.054 7.39 1.733 9.884 1.466 1.312 3.683 1.568 3.552 1.49"/>
        <g transform="translate(418.34 431.717)">
            <mask id="b" fill="#fff">
                <use xlink:href="#a"/>
            </mask>
            <path fill="#42426C" d="M.126 9.547s16.486-1.815 24.609 9.462c6.814 9.461 8.707 17.41 9.275 35.008.568 17.6-1.802 22.603-1.136 34.252.757 13.247 5.111 23.655 10.98 26.304 5.868 2.65 11.085 3.091 16.279 1.893 2.46-.568 7.382-3.596 8.14-5.488.757-1.892 1.344-9.868-3.597-13.436-3.407-2.46-9.723-.96-13.062-3.595-3.596-2.839-7.193-7.948-7.193-18.167 0-7.759 4.733-26.304 3.975-47.877-.531-15.15-1.892-27.25-1.892-27.25S36.092-1.24 21.706 1.787C7.319 4.816.126 9.547.126 9.547" mask="url(#b)"/>
        </g>
        <path fill="#2B2B51" d="M466.783 459.667c-.417-15.152-1.42-27.298-1.42-27.298s-10.93-1.892-25.318 1.136c-14.387 3.028-21.58 7.76-21.58 7.76s16.487-1.816 24.61 9.46c6.814 9.462 8.707 17.411 9.275 35.01.568 17.6-1.802 22.603-1.136 34.252.757-7.759 3.622-19.328 4.921-26.304 3.597-19.303 6.247-20.249 10.474-21.82.2-4.248.27-8.691.174-12.196"/>
        <path fill="#42426C" d="M476.642 444.638c0 2.985-1.08 6.174-2.524 8.548-2.934 4.825-7.335 7.427-7.335 7.427V444.67s-17.084-10.645-5-14.887c8.206 0 14.86 6.65 14.86 14.855"/>
        <path fill="#2B2B51" d="M472.852 448.078c0 7.82-6.146 14.16-13.727 14.16s-13.726-6.34-13.726-14.16 6.184-14.068 13.765-14.068c.88 0 1.1 1.157 1.908.9 1.484-.474 2.457-.204 3.294.15 4.988 2.104 8.486 7.145 8.486 13.018"/>
        <path fill="#FF7E59" d="M475.712 527.43c-3.36-.504-5.79-1.356-8.298-4.258a20.594 20.594 0 0 1-3.281-5.22c-.567-1.294-1.136-1.23-1.142.11-.027 6.232 3.041 11.534 9.566 12.522 4.67.568 7.43-1.135 6.814-2.035-.532-.777-3.66-1.12-3.66-1.12"/>
        <path fill="#42426C" d="M451.226 444.013a8.35 8.35 0 0 1 11.79.627 8.345 8.345 0 0 1-.627 11.787c-.133.12 1.824-.663 2.78-1.522a9.07 9.07 0 0 0 .681-12.812c-3.031-3.373-7.921-3.787-11.703-1.538-1.987 1.182-3.055 3.577-2.921 3.458"/>
        <path fill="#2B2B51" d="M480.523 538.216c-.852-2.964-1.481-3.446-1.997-3.404-.647.052-.685 1.323-.117 4.13.465 2.3.785 7.019.55 9.107.7-.22 1.538-.588 2.398-1.041.314-3.738-.3-6.932-.834-8.792M481.692 532.69c-.543.313.187 1.836.882 3.698.632 1.695 1.322 5.373.943 9.32.906-.615 1.725-1.27 2.307-1.89.07-4.335-1.086-7.508-1.578-8.535-1.136-2.365-2.011-2.905-2.554-2.592"/>
        <path fill="#42426C" d="M323.494 445.174s-16.487-1.815-24.609 9.461c-6.814 9.462-8.707 17.41-9.275 35.01-.568 17.599 1.801 22.602 1.135 34.251-.757 13.247-5.11 23.655-10.979 26.304-5.868 2.65-11.085 3.091-16.279 1.893-2.46-.568-7.383-3.596-8.14-5.488-.757-1.892-1.344-9.868 3.597-13.436 3.407-2.46 9.722-.96 13.061-3.595 3.597-2.839 7.193-7.948 7.193-18.167 0-7.759-4.732-26.304-3.975-47.877.532-15.15 1.893-27.25 1.893-27.25s10.411-1.893 24.798 1.135c14.386 3.028 21.58 7.759 21.58 7.759"/>
        <path fill="#FF7E59" d="M266.248 531.34c3.36-.505 5.79-1.356 8.297-4.258a20.598 20.598 0 0 0 3.281-5.22c.567-1.295 1.136-1.23 1.142.11.027 6.231-3.04 11.533-9.565 12.522-4.67.567-7.43-1.136-6.815-2.035.533-.777 3.66-1.12 3.66-1.12"/>
        <path fill="#2B2B51" d="M261.436 542.126c.852-2.964 1.482-3.446 1.997-3.405.646.053.685 1.323.117 4.131-.465 2.3-.784 7.018-.549 9.107-.702-.22-1.54-.588-2.4-1.042-.313-3.738.3-6.931.835-8.79M260.267 536.6c.543.313-.187 1.836-.882 3.697-.632 1.696-1.322 5.373-.944 9.32-.905-.614-1.724-1.27-2.305-1.89-.07-4.334 1.085-7.508 1.577-8.534 1.136-2.365 2.012-2.905 2.554-2.593"/>
        <path fill="#42426C" d="M386.204 572.814a2.412 2.412 0 0 1-1.977-2.198c-.388-5.616-2.223-24.415-.41-50.25 1.506-21.464 4.789-36.761 7.486-46.284 2.289-8.08-30.414-8.147-28.125-.128 2.707 9.48 6 24.78 7.483 46.411 1.77 25.839-.023 44.635-.41 50.251a2.413 2.413 0 0 1-1.978 2.198c-1.572.299-2.997.995-4.048 2.62-2.083 3.216-3.496 9.949-2.083 13.34.947 2.271 3.474 3.704 6.91 4.258 2.608.421 13.765.421 16.374 0 3.437-.554 5.963-1.987 6.909-4.257 1.414-3.392 0-10.125-2.082-13.342-1.051-1.624-2.476-2.32-4.049-2.619"/>
        <path fill="#2B2B51" d="M383.816 520.365c1.507-21.462 4.79-36.76 7.487-46.283 2.289-8.08-30.414-8.147-28.125-.128 2.707 9.48 6 24.78 7.482 46.411.581 8.462.777 16.163.767 22.898.788-39.992-1.137-46.048 6.056-46.048 7.004 0 5.332 6.308 5.549 45.93a320.71 320.71 0 0 1 .784-22.78M370.225 578.21c-1.327 0-3.042 3.134-3.07 14.397.93.312 2.841.594 4.839.641.002-.336.003-.648.003-.978 0-11.496-.435-14.06-1.772-14.06M384.04 578.21c1.326 0 3.042 3.187 3.07 14.45-.818.276-2.85.566-4.84.597-.002-.336-.002-.657-.002-.987 0-11.496.435-14.06 1.772-14.06M377.113 578.21c-1.416 0-2.564 2.564-2.564 14.06 0 .343 0 .69.003 1.041 1.626.05 3.496.05 5.12 0 .003-.35.004-.698.004-1.04 0-11.497-1.148-14.062-2.563-14.062"/>
        <path fill="#FF7E59" d="M371.007 570.616c-.075 1.1-1.65 1.993-2.733 2.198-.096.019 18.026.019 17.93 0-1.084-.205-2.658-1.097-2.734-2.198-.389-5.617-2.083-17.008-6.373-17.008-4.291 0-5.701 11.391-6.09 17.008"/>
        <path fill="#2B2B51" d="M393.387 466.494c-.736-1.088-1.829-1.62-3.382-1.62h-25.012c-1.553 0-2.646.532-3.381 1.62-3.682 5.448-.917 12.948.444 14.128 1.123.972 2.046 1.281 3.727 1.281h23.432c1.68 0 2.605-.31 3.728-1.281 1.36-1.18 4.126-8.68.444-14.128"/>
        <path fill="#42426C" d="M385.481 486.277h-16.25c-1.954 0-3.508-1.713-4.346-3.538-2.647-5.764-2.067-13.315-.179-17.875-.032-1.522-.032-4.393-.032-4.393l28.93-1.734s-3.294 3.027-3.294 6.177c1.952 4.533 2.403 11.948-.29 17.793-.79 1.714-2.585 3.57-4.539 3.57"/>
        <path fill="#2B2B51" d="M372.855 489.278c-1.445.241-3.328-1.672-4.15-10.478-.179-1.923-.027-5.29.357-7.267a1.927 1.927 0 0 1 1.883-1.548h.052a1.934 1.934 0 0 1 1.951 2.098c-.14 1.591-.242 3.891-.212 6.713.062 6.055 1.496 10.251.12 10.482M381.846 489.278c1.445.241 3.328-1.672 4.15-10.478.179-1.923.027-5.29-.357-7.267a1.928 1.928 0 0 0-1.883-1.548h-.051a1.933 1.933 0 0 0-1.951 2.098c.14 1.591.241 3.891.212 6.713-.063 6.055-1.497 10.251-.12 10.482M377.415 489.368c1.278.005 1.9-1.954 2.044-10.784.034-2.09.013-4.39-.058-6.67a2.131 2.131 0 0 0-2.124-2.059 2.127 2.127 0 0 0-2.14 2.055c-.068 2.306-.002 4.664.062 6.752.268 8.643.94 10.701 2.216 10.706"/>
        <path fill="#42426C" d="M469.2 417.338l-139.916-34.47V222.396a35.187 35.187 0 0 1 18.615-31.038l45.773-27.812 51.238 32.765c13.83 9.714 24.29 23.742 24.29 46.059v174.969z"/>
        <path fill="#E86A46" d="M461.113 415.338l-137.623-32.44V225.095a33.116 33.116 0 0 1 17.519-29.212l49.02-26.176 48.223 30.742c12.394 8.62 22.861 22.344 22.861 43.348v171.54z"/>
        <path fill="#FF7E59" d="M457.523 413.068l-134.866-31.792v-154.64c0-11.979 6.6-22.983 17.168-28.626l48.038-25.653 47.258 30.08c12.559 9.282 22.402 21.898 22.402 42.482v168.149z"/>
        <path fill="#FF7E59" d="M427.626 197.668l-39.764-25.31-33.224 17.74c10.45 6.492 21.011 12.787 31.651 18.94 13.728-3.952 27.5-7.765 41.337-11.37"/>
        <path fill="#E86A46" d="M354.638 190.1l-14.813 7.91a32.452 32.452 0 0 0-17.168 28.626v1.635c21.143-6.623 42.333-13.1 63.632-19.233-10.64-6.152-21.2-12.448-31.651-18.939M441.017 207.268a73.493 73.493 0 0 0-5.896-4.83l-7.495-4.77c-13.837 3.605-27.609 7.418-41.337 11.37a1667.793 1667.793 0 0 0 27.352 15.457 2291.35 2291.35 0 0 1 27.376-17.227M457.523 291.185c-9.053.233-18.102.515-27.15.85-1.348 10.882-2.781 21.797-4.427 32.741a9082.66 9082.66 0 0 0 31.577 3.715v-37.306z"/>
        <path fill="#FF7E59" d="M432.563 273.915c-.716 6.03-1.44 12.07-2.19 18.12 9.048-.335 18.098-.617 27.15-.85v-21.329a1913.686 1913.686 0 0 1-24.96 4.06M412.981 402.568l44.542 10.5v-43.514c-12.46-3.176-24.93-6.064-37.364-8.864a4396.446 4396.446 0 0 1-7.178 41.878"/>
        <path fill="#E86A46" d="M425.946 324.776a803.056 803.056 0 0 1-1.99 12.597 3151.84 3151.84 0 0 1-3.798 23.317c12.435 2.8 24.904 5.688 37.365 8.864V328.49a9082.63 9082.63 0 0 1-31.577-3.715"/>
        <path fill="#FF7E59" d="M457.523 248.29a5426.081 5426.081 0 0 1-20.468-11.003c-1.597 12.16-3.035 24.372-4.492 36.628a1913.689 1913.689 0 0 0 24.96-4.059V248.29z"/>
        <path fill="#FF7E59" d="M441.017 207.268a2291.35 2291.35 0 0 0-27.376 17.227c7.78 4.307 15.59 8.562 23.414 12.792 1.303-9.925 2.716-19.815 4.333-29.667-.126-.116-.245-.237-.371-.352"/>
        <path fill="#E86A46" d="M457.523 244.919c0-17-6.721-28.559-16.135-37.298-1.617 9.85-3.03 19.74-4.333 29.666a5426.081 5426.081 0 0 0 20.468 11.002v-3.37z"/>
        <path fill="#FF7E59" d="M379.282 462.9l-6.626-1.892.19-25.61 80.071-25.926 8.14 1.703-35.966 22.898z"/>
        <path fill="#E86A46" d="M348.994 460.409s12.351 3.563 16.99 4.841c2.892.797 6.151.804 9.275-.52 1.367-.58 3.455-1.61 3.976-1.845l-.845-.25a2.868 2.868 0 0 1-2.063-2.738c-.023-4.65-.074-15.371-.074-16.551 0-3.028 1.893-6.15 4.543-7.097 5.073-1.812 76.664-25.83 76.664-25.83s-.567-10.787-16.09-13.437c-15.522-2.649-32.18-5.488-32.18-5.488l-59.438 30.657-.758 38.258z"/>
        <path fill="#245EAD" d="M272.14 501.536s5.174 5.898 13.062 20.154c3.71 6.706 2.241 13.455-.433 18.289l-3.757 6.788c-1.953 3.529-5.275 7.283-9.818 9.743-4.866 2.634-9.843 5.106-9.843 9.272 0 5.299 8.332 6.745 18.172 6.434 17.983-.567 22.678-10.621 28.491-17.862a1857.548 1857.548 0 0 0 11.047-13.943c2.323-2.956 4.487-9.508 1.54-14.747-4.26-7.57-5.743-5.898-11.99-16.212-3.06-5.052-11.105-25.231-11.105-25.231s-11.84 5.277-19.497 9.367c-9.213 4.92-5.868 7.948-5.868 7.948"/>
        <g transform="translate(264.632 509.683)">
            <mask id="d" fill="#fff">
                <use xlink:href="#c"/>
            </mask>
            <path fill="#2474CD" d="M29.846 9.878s2.65 26.477 2.523 32.28c-.125 5.804-1.432 9.308-6.814 18.672-6.31 10.976-12.367 15.14-21.959 26.746-4.028 4.874-5.23 11.218 1.263 14.887 5.805 3.28 15.83 2.4 24.734-1.767 11.862-5.55 14.173-12.775 23.22-20.69 4.039-3.532 5.805-5.803 7.572-9.588 1.767-3.785.505-10.85-.504-16.148-.942-4.94-1.704-9.4-1.2-14.445.505-5.047 4.67-30.467 4.67-30.467S64.825.084 46.74.132C28.9.18 29.846 9.878 29.846 9.878" mask="url(#d)"/>
        </g>
        <path fill="#23478D" d="M200.713 478.67s6.941-1.01 18.551-2.776c11.61-1.766 23.22-5.046 43.16-2.018 19.938 3.027 47.197 6.56 47.197 6.56l10.6-87.806-111.052 14.13-8.456 71.91z"/>
        <path fill="#2B2B51" d="M223.302 442.337c4.712 6.43 9.221 8.399 16.91 18.418 13.734 17.896 31.929 38.321 32.97 39.267 1.04.946 6.53 1.609 15.617-3.88 7.344-4.435 8.896-10.407 8.896-10.407.091-.912-8.14-23.466-14.575-38.605-8.992-21.15-17.92-21.951-19.435-27.755-1.01-5.046 1.543-11.533 14.892-12.868 17.667-1.766 40.887-6.056 40.887-6.056l7.067-35.323-97.934 29.806c-10.923 3.325-17.435 14.478-15.004 25.63 1.29 5.92 5.253 15.69 9.71 21.773"/>
        <path fill="#2B2B51" d="M311.135 387.71s-12.97 12.14-18.55 17.41c-6.815 6.434-7.154 14.736-6.815 24.222.378 10.597 2.776 16.274 3.786 25.358 1.009 9.083 5.878 62.833 6.105 64.151.284 1.656 2.65 6.908 17.036 6.765 10.746-.105 13.771-4.872 14.15-7.143.398-2.391 9.275-52.167 9.275-52.167l-24.987-78.596z"/>
        <path fill="#42426C" d="M292.206 265.462l-10.98 16.085 25.366 32.55 6.626-30.09z"/>
        <path fill="#D2D8EE" d="M272.14 287.225s3.337-3.666 4.95-5.082c1.613-1.415 3.314-1.709 5.271-1.605 5.933.315 18.844 5.357 23.222 17.725 5.805 16.401-.505 23.214-4.039 26.998-3.904 4.183-4.872 4.914-9.843 5.551-7.383.946-9.528-3.658-9.528-3.658l-10.032-39.93z"/>
        <path fill="#42426C" d="M311.893 283.63s-7.099 25.262-6.531 33.778c.484 7.252 2.536 8.03 4.448 16.653a.66.66 0 0 1-.491.777c-6.953 1.582-12.201 2.918-14.463 4.238-2.178 1.27-4.589 4.7-7.242 7.406a11.602 11.602 0 0 1-4.902 2.983c-10.36 3.16-41.72 12.695-63.006 22.538-18.528 8.567-21.77 23.844-21.201 32.17.676 9.913 3.596 43.714 3.596 43.714l17.037-12.11 10.718-18.449a16.641 16.641 0 0 1 8.096-6.94c5.769-2.32 12.755-5.016 17.341-6.025 2.544-.56 14.804-3.01 27.448-5.583 4.324-.88 9.164-13.34 17.605-20.248 7.382-6.042 19.97-7.002 19.97-7.002s-10.087 7.923-11.452 12.017c-4.165 12.49-9.465 32.81-9.465 48.066 0 14.382-.379 42.01.19 42.2.567.19 54.138-4.353 54.138-4.353l7.466-27.713c1.766-6.558 5.595-11.08 11.085-15.622 5.192-4.296 12.304-9.462 20.822-14.76 12.972-8.07 18.534-12.095 22.021-21.51 5.048-13.626.811-20.178-.063-27.314-.368-3.008-1.077-5.597-.62-8.593l9.517-62.37-112.062-7.949z"/>
        <path fill="#42426C" d="M439.604 271.77c.252 12.616-4.543 44.66-4.543 44.66l-42.529-7.443 3.155-16.527 43.917-20.69z"/>
        <path fill="#D2D8EE" d="M289.968 268.16a2.022 2.022 0 0 1-1.108-2.36c1.295-4.863 5.264-19.15 9.403-27.84 5.048-10.598 6.31-14.887 20.697-20.942 14.386-6.056 31.297-14.13 31.297-14.13l44.925 2.208s18.173 11.669 23.473 14.95c5.3 3.28 17.226 7.948 20.444 22.203 2.799 12.4 2.988 23.818 2.862 28.293a3.004 3.004 0 0 1-1.873 2.698 240.33 240.33 0 0 0-19.667 9.128c-16.518 8.616-20.948 14.634-30.791 16.653-12.176 2.496-29.278 2.522-46.945-.757-20.053-3.723-29.025-11.103-31.55-13.12-2.431-1.945-7.908-10.915-21.167-16.984"/>
        <path fill="#E09595" d="M388.368 203.582c3.407 11.354-9.37 31.035-26.028 31.035-6.815 0-13.377-3.912-13.062-6.912 3.218-23.24 2.366-46.02 2.366-46.02l35.777.797s-2.46 9.745.947 21.1"/>
        <path fill="#37375F" d="M398.211 365.001L387.47 351.7l-43.611 56.1a31.293 31.293 0 0 0-4.143 29.423l3.919 10.577c.568 1.534-.547 2.803-1.833 1.791L319.97 433c-1.56-1.177-3.468.033-2.9 1.904 1.807 5.97 4.722 15.244 6.733 21.61a9.086 9.086 0 0 0 9.548 6.303l15.644-.548 5.965-19.877a35.984 35.984 0 0 1 11.476-17.339l29.252-27.376c11.61-11.608 10.633-22.633 2.524-32.676M256.114 398.686c4.164 0 37.102-2.523 37.102-2.523l6.814-25.737-44.773 22.95c-2.85 1.613-4.123 5.31.857 5.31M327.005 375.078c-.867 1.343-.631 3.264 2.05 2.05 13.487-6.107 45.305-21.967 45.305-21.967l-28.903 4.29a20.742 20.742 0 0 0-14.422 9.333l-4.03 6.294z"/>
        <path fill="#42426C" d="M354.898 241.433c-.19-.437-.601-.408-.643.044-.043.465-.02 9.643 1.471 9.927 1.52.289 4.545-6.798 5.466-8.894.213-.486-.308-.592-.534-.302-1.138 1.461-2.846 3.408-3.745 3.258-.891-.148-1.36-2.518-2.015-4.033"/>
        <path fill="#FFF" d="M361.488 229.886c-2.221 1.53-2.681 3.958-2.272 6.623.443 2.882 1.893 7.57 4.417 13.31 2.072 4.71 5.048 4.478 8.077 2.018 5.21-4.232 23.599-19.113 23.85-46.363 0 0-1.023-5.364-5.11-10.597-.834-1.068-1.861-2.492-3.786-2.366 0 0-.946 20.659-25.176 37.375"/>
        <path fill="#FFF" d="M357.513 237.77c-1.534 1.8-4.667 6.796-10.285 11.039-2.84 2.145-5.805.757-5.553-3.532.315-5.353-3.281-18.041 1.262-30.91 4.551-12.89 9.275-13.246 9.275-13.246s-1.682 8.136-.189 15.896c.947 4.92 3.59 9.411 6.12 12.49 1.593 1.937 2.272 4.857-.63 8.263"/>
        <path fill="#FF7E59" d="M371.757 384.564l17.683 4.754 12.083-34.378-15.049-.915-11.641 2.334z"/>
        <path fill="#2B2B51" d="M404.15 366.965s14.757 10.02 17.533 43.075c4.313 1.594 6.412 4.92 7.382 7.195.585 1.372.758 2.361.758 2.361s3.849-36.428-17.036-55.668l-8.637 3.037z"/>
        <path fill="#42426C" d="M402.044 365.758c7.761 1.041 26.55 11.544 27.81 53.87l7.857-2.65s1.577-31.823-14.892-52.26c-1.036-1.286-.568-2.713.915-3.155 0 0-18.03 3.565-21.69 4.195"/>
        <path fill="#FF7E59" d="M388.494 368.924c0 8.175-5.824 15.311-13.009 15.938-7.185.627-13.008-5.492-13.008-13.668 0-8.175 5.823-15.31 13.008-15.937 7.185-.627 13.01 5.491 13.01 13.667"/>
        <path fill="#FF7E59" d="M401.492 365.38c6.247 4.613 4.963 11.19 4.29 13.12-2.095 6.015-6.578 10.576-12.446 11.09-7.752.677-14.035-5.939-14.035-14.778 0-8.84 6.283-16.554 14.035-17.233 2.351 1.619 3.486 4.352 8.156 7.8"/>
        <path fill="#FF7E59" d="M455.892 341.943l-63.99 15.236 1.671 2.76 64.076-15.754z"/>
        <path fill="#E86A46" d="M433.61 340.117l-63.03 14.327 19.45 2.992c1.78.273 3.596.186 5.342-.256l60.574-14.603-22.337-2.46z"/>
        <path fill="#42426C" d="M457.587 352.638l-63.966 17.047.047-9.793 63.919-15.707z"/>
        <path fill="#42426C" d="M406.477 374.715c0 6.56-4.613 12.2-11.358 13.09-6.94.914-12.935-5.193-12.935-12.923s5.458-13.902 12.178-15.117c4.747-.857 7.446 5.993 7.446 5.993s4.67 2.271 4.67 8.957"/>
        <path fill="#FF7E59" d="M395.988 382.11a7.427 7.427 0 0 1-2.61-10.176 7.432 7.432 0 0 1 10.178-2.61c.137.08-1.05-1.372-2.034-1.955a8.078 8.078 0 0 0-11.064 2.837c-2.057 3.473-1.104 7.735 1.813 10.344 1.534 1.373 3.854 1.64 3.717 1.56"/>
        <g transform="translate(337 131)">
            <mask id="g" fill="#fff">
                <use xlink:href="#e"/>
            </mask>
            <path fill="url(#f)" d="M.62 29.315C1.142 56.582 5.067 76.77 22.6 76.77c15.608 0 31.66-12.584 32.185-45.032C55.118 11.08 44.095.116 28.487.116 12.879.116.277 11.42.619 29.316" mask="url(#g)"/>
        </g>
        <g>
            <path fill="#423748" d="M336.621 160.496h41.914a4.86 4.86 0 0 1 4.845 4.384l.233 2.413a9.042 9.042 0 0 0 2.885 5.789l8.6.016s3.13-7.744 2.669-22.447c-.472-15.017-12.456-24.943-30.644-24.221-10.269.408-31.36 4.177-32.2 32.313a1.702 1.702 0 0 0 1.698 1.753"/>
            <path fill="#FFAEAE" d="M395.328 172.705c-1.323 5.388-5.306 10.624-8.064 9.952-2.757-.672-2.222-7.584-.899-12.971 1.324-5.388 2.935-7.21 5.691-6.539 2.759.672 4.595 4.17 3.272 9.558"/>
            <path fill="#D2D8EE" d="M382.272 322.47s1.518-3.97 3.415-9.64c1.708-5.102 5.276-11.327 15.75-14.363 10.436-3.024 20.493-2.268 28.652 4.347 5.8 4.702 10.017 11.725 9.488 21.734-.38 7.182-4.554 15.12-8.919 18.144-1.9 1.317-9.677 3.402-9.677 3.402l-38.709-23.625z"/>
            <path fill="#2474CD" d="M349.635 336.392s17.457-8.568 39.468-18.9c12.603-5.916 27.071-7.81 36.432 2.268 5.547 5.973 6.578 11.34 2.783 18.648-2.649 5.1-3.522 7.89-9.614 9.323-13.915 3.276-37.444 6.804-56.372 8.598-2.52.238-4.6 1.167-7.194 1.986-1.533.484-5.503-21.923-5.503-21.923M242.046 287.128s.19 3.213 1.139 5.103c.681 1.357 7.273 20.726 14.104 28.538 3.701 4.232 17.205 12.6 25.933 11.15 6.174-1.024 11.967-7.24 11.575-17.765-.38-10.206-5.882-15.309-15.56-23.624-9.677-8.316-17.077-15.687-17.077-15.687s-4.853-3.235-11.86.473c-6.072 3.213-8.254 11.812-8.254 11.812"/>
            <path fill="#FFF" d="M262.264 274.947c-.067-.066-7.82-11.093-8.074-11.522-.474-.803-1.36-.992-1.36-.992s.364.677.554 1.055c.348.724-.016 4.362-6.025 7.056-6.323 2.833-11.06.362-11.464-.347-.257-.45-.854-1.465-.854-1.465s-.316.662-.537 1.174c-.339.782-.048 1.465.403 2.504 0 0 5.969 12.707 7.159 14.976.928 1.77 7.764 3.567 14.14.096 6.12-3.33 7.069-10.844 6.058-12.535"/>
            <path fill="#2474CD" d="M245.005 278.09c-.049.542-.952.905-2.02.81-1.066-.094-1.891-.61-1.843-1.152.049-.542.953-.905 2.02-.81 1.065.094 1.89.61 1.843 1.152M247.045 282.578c-.049.542-.952.905-2.02.81-1.066-.094-1.892-.61-1.843-1.151.049-.542.953-.905 2.019-.81 1.066.094 1.891.61 1.844 1.151"/>
            <path fill="#FFAEAE" d="M324.303 347.039s-12.998 6.236-22.675 14.741c-9.677 8.505-11.765 10.017-14.99 19.277-1.189 3.414-2.478 5.517-3.036 7.812-.507 2.079-1.508 6.907-2.277 8.63-1.012 2.269-1.898 3.78-.38 4.537 1.518.756 3.985-.694 5.313-3.15 1.328-2.457 2.277-6.111 2.277-6.111s.794 9.133.822 10.08c.064 2.142.258 3.762 1.708 3.59 3.732-.44 2.973-5.165 3.29-9.386.252 1.512.534 6.05.632 6.93.126 1.133 1.58 1.89 3.225.504 1.949-1.643 2.095-6.728 2.277-10.9.063-1.448 1.51-6.46 2.488-9.63.09-.29.521-.2.49.102l-.678 6.694c-.098.834-.02 2.6.23 3.402l2.404 8.757s.38 1.323 1.96.945c1.436-.343 1.877-1.979 1.645-4.158-.399-3.748-.454-5.652-.647-7.082a5.983 5.983 0 0 1 .078-2.053l1.897-8.063s4.554-2.206 9.108-6.552c3.436-3.28 5.901-7.206 6.904-8.935a4.372 4.372 0 0 1 1.408-1.483l3.548-1.867s1.423-3.56-1.328-9.639c-2.72-6.01-5.693-6.992-5.693-6.992"/>
            <path fill="#FFF" d="M349.635 336.392s-25.845 10.13-26.249 10.3c-.522.22-.474 1.055-.474 1.055s.593-.305 1.022-.507a.565.565 0 0 1 .545.038c1.229.766 3.252 2.572 5.042 6.753 1.933 4.515 1.964 7.652 1.751 9.296a.745.745 0 0 1-.392.568l-1.09.578s.553.362 1.186.205c.633-.158 24.162-5.733 27.281-7.424 1.672-5.916-1.838-18.815-8.622-20.862"/>
            <path fill="#2474CD" d="M340.416 357.362c.267.792-.41 1.732-1.512 2.1-1.1.368-2.21.025-2.476-.767-.267-.792.41-1.732 1.511-2.1 1.101-.368 2.21-.025 2.477.767M349.759 354.868c.267.791-.422 1.735-1.539 2.109-1.116.373-2.237.033-2.504-.758-.267-.792.421-1.736 1.539-2.11 1.116-.372 2.236-.033 2.504.759"/>
            <path fill="#D2D8EE" d="M299.13 468.026s1.296 1.543 8.507 1.67c21.501.375 46.932-4.663 46.932-4.663 2.268-.118 4.174 1.512 3.668 4.032 0 0-1.73 8.89-3.668 16.506-2.277 8.945-4.175 16.253-5.575 18.472-.836 1.324-1.358 2.575-4.2 3.387-2.213.632-9.517 2.357-20.333 2.836-17.952.794-21.741-.45-21.741-.45-3.432-.559-5.583-2.196-6.07-5.36 0 0-.904-6.16-1.41-16.113-.43-8.435-.348-15.309-.348-15.309-.147-2.324 1.903-4.887 4.238-5.008M200.775 439.929s10.184-3.812 17.3-7.403c1.618-.816 2.894-.059 2.782 1.512-.822 11.592-3.668 27.09-4.3 29.483-.329 1.243-1.139 4.977-3.922 7.056-1.958 1.462-7.97 4.945-11.227 6.899-1.373.823-2.803.145-2.56-1.433l1.434-9.28a19.68 19.68 0 0 0 .004-5.98l-1.82-16.224c-.296-1.937.507-3.844 2.31-4.63"/>
            <path fill="#B3BEE2" d="M199.637 455.072l.854 7.772s6.208-12.864 9.487-18.852c-4.672 2.504-8.95 7.74-10.341 11.08"/>
            <path fill="#2B2B51" d="M346.578 328.85c-.607 2.07-2.676 3.29-4.62 2.724-1.945-.567-3.03-2.704-2.423-4.774.607-2.07 2.676-3.29 4.622-2.725 1.944.566 3.028 2.704 2.421 4.774M350.88 309.194c-.609 2.07-2.677 3.29-4.622 2.724-1.944-.566-3.029-2.703-2.421-4.774.607-2.07 2.676-3.29 4.621-2.724 1.944.566 3.028 2.703 2.421 4.774"/>
            <path fill="#42426C" d="M367.57 260.673c-.19-.437-.602-.408-.644.044-.044.464-.02 9.63 1.474 9.913 1.524.29 4.557-6.788 5.48-8.882.213-.485-.31-.59-.536-.301-1.141 1.459-2.852 3.403-3.754 3.254-.893-.149-1.363-2.516-2.02-4.028M401.852 262.689c-.19-.437-.603-.407-.645.043-.043.465-.02 9.63 1.475 9.914 1.523.29 4.556-6.788 5.48-8.882.213-.485-.31-.59-.536-.301-1.141 1.459-2.853 3.403-3.754 3.253-.894-.148-1.364-2.515-2.02-4.027M396.915 304.295c-.08-.244-.292-.145-.34.109-.07.359-1.05 4.39-.024 4.458 1.067.07 3.557-4.63 4-5.953.055-.163-.114-.32-.285-.126-1.462 1.661-2.305 2.892-2.766 2.961-.265.04-.404-.898-.585-1.45M280.841 282.38c.058-.251-.174-.274-.348-.082-.246.272-3.172 3.222-2.328 3.808.878.609 5.446-2.14 6.51-3.047.131-.112.067-.333-.18-.254-2.113.673-3.472 1.294-3.903 1.116-.247-.102.12-.976.249-1.542M436.825 322.091c.247-.072.304.07.158.284-.206.302-1.947 3.102-2.72 2.425-.802-.704 1.044-5.07 2.025-6.426.1-.139.294-.09.22.158-.442 1.512-1.043 3.591-.916 3.875.11.243.696-.158 1.233-.316M303.051 314.028c.247-.073.304.07.158.283-.207.303-1.948 3.102-2.72 2.426-.803-.704 1.044-5.072 2.025-6.426.1-.14.293-.09.22.158-.442 1.512-1.043 3.59-.916 3.874.108.244.696-.158 1.233-.315M420.184 301.997c-.035-.287-.402-.292-.444-.034-.045.265-1.015 5.73.006 6.033 1.04.31 3.553-2.995 4.252-4.125.161-.262-.18-.354-.36-.225-1.069.768-1.807 1.26-2.423 1.089-.61-.17-.938-1.967-1.03-2.738"/>
            <path fill="#B3BEE2" d="M331.925 476.247c14.42-1.764 24.794-4.284 24.794-4.284l-6.831 22.931c-1.518 3.78-4.458 3.51-6.408.394-4.439-7.092-10.327-16.594-11.555-19.04"/>
            <path fill="#42426C" d="M296.79 291.64c.096-.273-.232-.438-.384-.225-.156.22-3.433 4.708-2.65 5.426.799.733 4.513-1.14 5.638-1.852.26-.164-.006-.396-.225-.358-1.299.222-2.178.343-2.657-.08-.474-.418.023-2.177.279-2.91M345.812 278.879c-.19-.437-.602-.407-.645.044-.042.464-.019 9.63 1.476 9.914 1.523.288 4.555-6.79 5.479-8.883.213-.485-.309-.59-.536-.301-1.14 1.459-2.852 3.403-3.754 3.254-.893-.148-1.363-2.515-2.02-4.028M306.567 479.518c-.262-.397-.664-.298-.627.154.037.464 1.638 9.491 3.16 9.514 1.55.025 3.32-7.465 3.868-9.686.127-.514-.405-.53-.58-.205-.871 1.632-2.224 3.84-3.137 3.847-.906.007-1.777-2.246-2.684-3.624M324.53 493.378c-.262-.398-.663-.298-.627.153.037.464 1.638 9.491 3.16 9.515 1.55.025 3.32-7.465 3.868-9.687.127-.513-.405-.53-.58-.204-.871 1.632-2.224 3.84-3.137 3.846-.906.007-1.776-2.245-2.684-3.623M339.963 477.502c-.262-.397-.664-.298-.627.154.037.464 1.638 9.49 3.16 9.515 1.55.024 3.32-7.466 3.868-9.687.128-.513-.406-.53-.579-.205-.872 1.632-2.225 3.84-3.138 3.847-.906.006-1.777-2.246-2.684-3.624M203.13 462.09c-.117-.326-.418-.252-.47.112-.053.376.268 6.384 1.34 6.432 1.092.05 2.346-6.372 2.642-8.264.072-.458-.328-.396-.455-.1-.753 1.752-1.539 3.717-2.068 3.747-.378.02-.583-.798-.989-1.927M209.708 444.199c-.117-.326-.418-.253-.47.112-.053.376.267 6.384 1.34 6.431 1.092.05 2.346-6.372 2.643-8.264.071-.457-.329-.395-.456-.098-.753 1.75-1.539 3.716-2.067 3.745-.379.021-.584-.798-.99-1.926M334.174 255.822c-.19-.437-.602-.407-.644.044-.043.464-.02 9.63 1.475 9.913 1.523.29 4.555-6.788 5.479-8.882.213-.485-.31-.59-.536-.301-1.14 1.459-2.852 3.403-3.754 3.254-.893-.149-1.363-2.516-2.02-4.028M304.194 244.482c-.19-.437-.603-.407-.645.044-.043.464-.02 9.63 1.475 9.914 1.523.289 4.555-6.789 5.48-8.883.212-.484-.31-.59-.537-.3-1.14 1.458-2.852 3.403-3.754 3.253-.893-.148-1.363-2.515-2.02-4.028M324.592 232.324c-.19-.437-.603-.408-.645.044-.043.464-.02 9.63 1.475 9.913 1.523.29 4.556-6.788 5.48-8.882.213-.485-.31-.59-.536-.301-1.141 1.459-2.853 3.403-3.755 3.254-.893-.149-1.363-2.515-2.02-4.028M314.124 268.422c-.19-.437-.602-.408-.645.043-.043.465-.02 9.63 1.475 9.914 1.523.289 4.556-6.788 5.48-8.882.213-.485-.31-.59-.536-.301-1.141 1.459-2.853 3.403-3.754 3.253-.893-.148-1.363-2.515-2.02-4.027M380.853 281.21c-.19-.437-.602-.407-.645.044-.043.464-.02 9.63 1.475 9.914 1.523.288 4.556-6.789 5.48-8.883.212-.485-.31-.59-.536-.301-1.142 1.46-2.852 3.403-3.754 3.254-.894-.148-1.364-2.515-2.02-4.028M387.937 242.844c-.19-.437-.603-.406-.645.044-.043.464-.02 9.63 1.475 9.914 1.524.289 4.556-6.789 5.479-8.883.214-.484-.308-.59-.535-.3-1.141 1.458-2.853 3.403-3.754 3.253-.894-.148-1.363-2.515-2.02-4.028M420.954 244.86c-.19-.437-.603-.407-.646.044-.042.464-.019 9.63 1.476 9.914 1.523.289 4.556-6.789 5.48-8.883.212-.484-.31-.59-.537-.3-1.14 1.458-2.852 3.403-3.754 3.253-.893-.148-1.363-2.515-2.02-4.028M406.058 226.276c-.19-.437-.602-.407-.645.044-.042.464-.019 9.63 1.476 9.914 1.523.288 4.555-6.789 5.479-8.883.213-.485-.31-.59-.536-.3-1.14 1.458-2.852 3.403-3.754 3.253-.893-.148-1.363-2.515-2.02-4.028M379.236 464.025l10.635-3.888a11.136 11.136 0 0 0 3.933-2.462c3.898-3.776 15.136-13.476 34.008-20.487 12.966-4.817 24.204-3.699 28.915-2.866a9.489 9.489 0 0 0 4.912-.425l7.729-2.899v-23.435l-85.794 29.154a6.839 6.839 0 0 0-4.644 6.57l.306 20.738z"/>
            <path fill="#E86A46" d="M421.37 405.734c.062.477.395.877.855 1.025l5.228 1.686c1.18.38 2.45.388 3.636.024l5.639-1.783c.448-.141.74-.568.712-1.034l-.14-2.231 6.704 2.835-4.365 9.26-17.013 5.734-8.982-13.671 7.456-4.126.27 2.28z"/>
            <path fill="#37375F" d="M308.623 325.582l3.093 5.109c1.338 2.198 1.202 3.433 4.744 3.118l12.371-1.543c.727-.093 1.323-.85.174-1.36l-19.344-6.232c-.784-.256-1.221.107-1.038.908"/>
            <path fill="#FFF" d="M262.286 231.28c0 18.231-14.838 33.011-33.143 33.011-18.304 0-33.143-14.78-33.143-33.01 0-18.232 14.839-33.012 33.143-33.012 18.305 0 33.143 14.78 33.143 33.011"/>
            <path fill="#FFAEAE" d="M223.387 254.59s8.856-1.512 14.169.504c5.313 2.015 9.613 5.292 9.613 5.292s-13.156 2.52-23.782-5.796" opacity=".6"/>
            <path fill="#E09595" d="M212.066 262.212c-4.048-2.583-6.353-4.407-9.93-4.662-2.657-.189-3.606-1.89-2.784-3.338 1.114-1.963 5.06-3.024 8.666-2.08 1.765.463 3.795 2.583 4.933 3.15 1.45.723 7.97-1.89 12.714 2.835 4.025 4.01 1.707 9.26-4.744 8.505-3.844-.45-7.022-3.24-8.855-4.41"/>
            <path fill="#2474CD" d="M222.102 240.525c-.625.002-1.222.063-1.793.15-2.131.327-3.078 1.576-3.1 2.34-.02.676.676 1.558 2.156 1.29 1.64-.296 2.394-2.064 2.737-3.78m-9.69 9.06a8.82 8.82 0 0 1-2.754-7.34c.468-4.539 4.373-8.256 9.497-9.041a19.248 19.248 0 0 1 3.296-.225c.016-.735.035-1.512.054-2.32.08-3.425.17-7.308.17-10.35 0-5.786 3.29-11.294 9.387-12.2 3.51-.521 8.72.114 11.76 6.038.955 1.86.57 4.103-1.207 5.21-1.777 1.106-4.257.307-5.313-1.496-.885-1.512-2.063-2.64-4.048-2.268-2.394.45-2.99 2.917-2.99 4.715 0 3.13-.09 7.06-.172 10.527-.033 1.447-.066 2.851-.088 4.074 2.441 1.26 4.765 3.142 6.998 5.653.841.948 3.245 2.515 5.93.483 1.58-1.197 3.732-1.197 5.123 0 1.586 1.364 1.201 3.717.316 4.976-.73 1.04-3.014 4.095-7.855 4.175-2.304.024-5.741-.733-9.198-4.623a22.356 22.356 0 0 0-2.125-2.111c-1.33 4.57-4.282 7.714-8.508 8.288-3.75.508-6.61-.624-8.274-2.164"/>
            <path fill="#2474CD" d="M213.032 230.461c-2.095-.06-3.745-1.61-3.684-3.696.06-2.087 1.82-3.486 3.902-3.423.583.017 28.687-.024 28.76-.027a3.788 3.788 0 0 1 3.925 3.645 3.786 3.786 0 0 1-3.66 3.91c-.205.007-28.586-.39-29.243-.409"/>
            <path fill="#FFAEAE" d="M210.737 248.384c3.793-.16 12.714 1.134 15.355 3.525l3.584 3.963a4.697 4.697 0 0 0 1.934 1.017l6.364 1.808c.682.174 1.399.17 2.08-.013l3.916-.644c3.752-1.004 7.295-.037 8.418 3.668a.696.696 0 0 1-.458.865s-4.981 2.319-13.963 4.616c-7.021 1.795-14.655.897-16.319.472-3.7-.945-10.887-4.15-10.887-4.15-1.14-.502-2.775-1.52-3.534-2.937 0 0-2.182-4.158-3.795-7.37-1.613-3.213.57-4.536 7.305-4.82"/>
            <path fill="#B3BEE2" d="M391.943 291.435l3.991-18.104-17.836 25.798 6.696-1.12a8.875 8.875 0 0 0 7.149-6.574"/>
            <path fill="#37375F" d="M208.412 434.785a7.163 7.163 0 0 0 2.417-9.561l-8.567-15.25c-.666-1.243-1.677-.088-1.645 1.32l.632 28.036 7.163-4.545z"/>
            <path fill="#E86A46" d="M369.26 89.967c.808-.06 3.179.128 5.716.947 4.36 1.35 17.8 5.066 16.035 15.893-.177 1.084-.577 2.37-.576 2.37 0-.001-2.917.653-5.73 2.534-2.703 1.806-4.354 4.092-4.477 4.265-.016-.185-.252-2.626-1.763-4.781-1.502-2.14-3.714-3.2-3.91-3.29l.012-.04s.272-1.07.521-2.449c1.31-7.252.69-8.757-2.427-12.029-1.534-1.61-3.11-2.503-4.368-2.903-.477-.152.042-.45.966-.517"/>
            <path fill="#E86A46" d="M332.958 106.244c-2.035-13.583 24.764-16.188 30.3-16.4 2.021-.14 6.103-.293 6.181.395.072.625-2.028.363-5.308 1.2-6.135 1.523-18 4.108-16.71 14.568.17 1.359.353 2.634.353 2.634a.89.89 0 0 1 .009.044c-.185.083-2.273 1.065-3.785 3.306-1.52 2.255-1.899 4.94-1.926 5.142-.1-.202-1.447-2.861-3.784-5.104-2.43-2.333-5.034-3.345-5.034-3.344 0 0-.133-1.363-.296-2.441"/>
            <g transform="translate(364.499 68)">
                <mask id="i" fill="#fff">
                    <use xlink:href="#h"/>
                </mask>
                <path fill="#FF7E59" d="M9.902 8.213C11.316 9.742 11.63 11.7 11.63 11.7s-1.982-.526-3.396-2.053C7.05 8.371 6.643 6.812 6.539 6.33c-.16.469-.744 1.973-2.067 3.112C2.89 10.802.86 11.107.86 11.107s.536-1.91 2.12-3.273c1.322-1.14 2.94-1.531 3.442-1.63-.488-.154-2.049-.72-3.231-1.992C1.777 2.688 1.465.732 1.465.732s1.98.519 3.395 2.042C6.042 4.048 6.449 5.607 6.553 6.09c.16-.469.745-1.973 2.067-3.111 1.582-1.362 3.61-1.663 3.61-1.663s-.536 1.912-2.118 3.273C8.79 5.726 7.172 6.118 6.67 6.217c.486.153 2.049.719 3.231 1.996M12.13.903L1.615.335a.542.542 0 0 0-.579.498C.841 4.209.643 7.586.446 10.963a.533.533 0 0 0 .516.556c3.506.182 7.012.375 10.518.58a.538.538 0 0 0 .577-.495l.587-10.143a.536.536 0 0 0-.515-.557" mask="url(#i)"/>
            </g>
        </g>
        <g transform="translate(333 95)">
            <mask id="l" fill="#fff">
                <use xlink:href="#j"/>
            </mask>
            <path fill="url(#k)" d="M14.638 2.464C9.088 5.87-.761 6.853.183 11.694c1.25 6.421 4.333 22.664 4.336 22.663L3.734 48.42c20.204-1.388 40.663-.518 60.899 2.93l.794-14.141c0 .015 4.236-13.982 5.917-19.612 1.023-3.433-6.63-12.545-16.834-14.457-3.25-.619-6.053.049-8.751.717-2.586.64-5.074 1.279-7.768.787C32.395 3.65 27.376.32 21.862.32c-2.296 0-4.68.579-7.224 2.144" mask="url(#l)"/>
        </g>
        <g>
            <path fill="#D2D8EE" d="M397.478 154.206c-20.26-3.615-40.76-4.437-60.978-2.784-1.913.158-3.373-1.264-3.267-3.206l.007-.121c.107-1.941 1.743-3.642 3.657-3.77 20.23-1.384 40.713-.514 60.975 2.93 1.916.324 3.381 2.151 3.274 4.047l-.007.12c-.107 1.896-1.744 3.126-3.66 2.784"/>
            <path fill="#E86A46" d="M369.707 143.363a958.813 958.813 0 0 0-6.564-7.028 662.6 662.6 0 0 1 7.343-6.407 869.664 869.664 0 0 1 6.564 7.2 689.463 689.463 0 0 0-7.343 6.235"/>
            <path fill="#FFF" d="M372.677 136.804c-.08 1.377-1.3 2.414-2.725 2.333-1.425-.08-2.516-1.25-2.436-2.627.08-1.377 1.3-2.439 2.726-2.357 1.425.082 2.514 1.275 2.435 2.651"/>
            <path fill="#E86A46" d="M381.774 144.32a768.097 768.097 0 0 0-6.214-7.311c2.33-2.07 4.66-4.117 6.989-6.148a718.05 718.05 0 0 1 6.208 7.47c-2.326 1.98-4.654 3.973-6.983 5.988"/>
            <path fill="#FFF" d="M384.61 137.848c-.08 1.381-1.24 2.377-2.592 2.24-1.353-.138-2.385-1.353-2.305-2.73.08-1.378 1.24-2.398 2.592-2.264 1.352.134 2.383 1.372 2.304 2.754"/>
            <path fill="#E86A46" d="M392.73 145.69a687.947 687.947 0 0 0-5.576-7.552c2.117-2.014 4.233-4.017 6.347-6.014 1.617 2.2 3.232 4.427 4.846 6.682.398.556.353 1.349-.1 1.768a2991.32 2991.32 0 0 0-5.517 5.116"/>
            <path fill="#FFF" d="M395.325 139.23c-.08 1.394-1.132 2.372-2.353 2.196-1.22-.176-2.146-1.432-2.067-2.818.079-1.387 1.133-2.384 2.354-2.215 1.22.167 2.145 1.443 2.066 2.837"/>
            <path fill="#E86A46" d="M342.35 129.526c1.76 2.238 3.522 4.474 5.287 6.713a533.72 533.72 0 0 0-6.07 7.056 3480.235 3480.235 0 0 1-4.608-5.774c-.37-.463-.326-1.253.099-1.76a520.719 520.719 0 0 1 5.291-6.235"/>
            <path fill="#FFF" d="M339.854 136.496c.08-1.416 1.086-2.603 2.249-2.644 1.163-.04 2.04 1.074 1.961 2.48-.08 1.405-1.089 2.579-2.25 2.63-1.164.05-2.04-1.05-1.96-2.466"/>
            <path fill="#FF7E59" d="M398.951 132.15c-20.43-3.094-41.051-4.054-61.467-3.207a.507.507 0 0 0-.474.47l-.035.627a.399.399 0 0 0 .423.43c20.414-.902 41.038.051 61.468 3.186a.4.4 0 0 0 .474-.375l.035-.617a.505.505 0 0 0-.424-.513M398.18 145.79c-20.426-3.453-41.077-4.336-61.474-2.977a.525.525 0 0 0-.475.483l-.035.628a.387.387 0 0 0 .424.42c20.394-1.416 41.049-.542 61.475 2.95.249.041.46-.123.475-.367l.035-.616a.515.515 0 0 0-.425-.52"/>
            <path fill="#FF7E59" d="M364.07 136.353c-.216 3.727-4.256 6.604-9.016 6.61-4.76.005-8.434-2.923-8.217-6.72.217-3.793 4.246-6.927 9.005-6.86 4.76.06 8.445 3.246 8.229 6.97"/>
            <path fill="#2474CD" d="M361.979 136.285c-.161 2.782-3.218 4.953-6.825 4.95-3.605-.002-6.392-2.211-6.23-5.032.162-2.82 3.213-5.137 6.818-5.094 3.604.04 6.399 2.396 6.237 5.176"/>
            <path fill="#FF7E59" d="M369.515 90.312c-.87-.162-3.465-.238-6.318.355-4.904.96-20.192 3.619-19.632 15.757.056 1.213.326 2.676.326 2.676.985 5.701 1.97 11.383 2.954 17.05l.039-.001c.064-.312.645-2.937 2.507-5.14 1.906-2.256 4.456-3.22 4.65-3.29-.221-.08-3.12-1.125-5.812-3.396-2.8-2.362-4.305-5.186-4.305-5.187 0-.001 3.03 1.016 5.83 3.394 2.692 2.285 4.186 4.972 4.297 5.176.04-.2.604-2.858 2.511-5.053 1.895-2.181 4.425-3.091 4.65-3.167l-.008-.044s-.16-1.201-.255-2.737c-.498-8.08.652-9.862 4.443-13.064 1.868-1.576 3.69-2.364 5.107-2.65.536-.108.01-.495-.984-.68M405.18 110.74c3.537-13.278-22.663-19.021-28.136-19.803-1.999-.364-6.046-.97-6.202-.291-.144.618 1.975.588 5.146 1.79 5.93 2.198 17.216 6.12 14.728 16.393-.324 1.333-.655 2.583-.655 2.583-.005.013-.01.027-.013.042.175.103 2.152 1.315 3.41 3.71 1.266 2.411 1.34 5.115 1.345 5.318.124-.188 1.777-2.676 4.376-4.63 2.702-2.035 5.396-2.696 5.396-2.695 0 .002-1.683 2.636-4.385 4.655-2.597 1.94-5.185 2.632-5.381 2.684.152.093 2.144 1.355 3.409 3.812 1.235 2.4 1.333 5.06 1.341 5.375l.033.006a4760.156 4760.156 0 0 0 5.017-16.563s.286-1.336.57-2.385"/>
            <path fill="#FF7E59" d="M376.666 85.827c-.179 3.103-2.919 5.45-6.12 5.271-3.2-.178-5.65-2.816-5.47-5.916.18-3.101 2.92-5.478 6.12-5.3 3.2.175 5.648 2.844 5.47 5.945"/>
            <path fill="#FF7E59" d="M371.31 92.473l-1.716-.095c-.681-.039-1.204-.603-1.165-1.262l.096-1.66c.039-.661.622-1.167 1.304-1.13l1.717.097c.681.038 1.203.605 1.165 1.265l-.096 1.66c-.039.661-.623 1.164-1.304 1.125"/>
            <path fill="#42426C" d="M372.236 76.52l-1.715-.095c-.682-.037-1.203-.601-1.164-1.261l.095-1.661c.038-.66.622-1.165 1.304-1.128l1.715.095c.68.036 1.203.603 1.164 1.263l-.095 1.661c-.038.66-.622 1.165-1.304 1.127"/>
            <path fill="#FF7E59" d="M377.607 122.652c-.719.484-1.432 1.33-1.546 3.3-.016.271-.468-1.088-.707-1.49h-.004c-1.162-2.22-.096-4.934 2.368-5.752 1.806-.6 3.895.106 4.981 1.688.628.913.85 1.934.732 2.888-.05.414-.575.54-.857.211-1.247-1.453-3.292-1.974-4.967-.845"/>
            <path fill="#FF7E59" d="M372.293 122.28c.656.58 1.266 1.518 1.152 3.488-.016.27.59-1.013.873-1.378h.003c1.41-2.04.664-4.88-1.685-6.034-1.722-.844-3.872-.431-5.13.983a4.077 4.077 0 0 0-1.057 2.757c.003.417.508.614.824.329 1.403-1.265 3.488-1.498 5.02-.145"/>
            <path fill="#FF7E59" d="M377.459 116.85c-.151 2.628-1.332 3.826-2.413 3.752-1.08-.077-2.112-1.429-1.96-4.055.104-1.794 1.313-4.1 1.957-4.903.404-.504.668-.469 1.038.07.59.86 1.482 3.34 1.378 5.136"/>
            <path fill="#FF7E59" d="M375.856 129.59c-.882-.066-1.765-.128-2.647-.187l.545-9.424c.882.058 1.765.12 2.646.184-.18 3.143-.363 6.286-.544 9.428"/>
            <path fill="#2474CD" d="M376.828 121.256c-.057.98-.923 1.712-1.936 1.64-1.013-.07-1.789-.916-1.732-1.895.056-.98.924-1.721 1.937-1.65 1.013.07 1.788.925 1.731 1.905"/>
            <path fill="#E86A46" d="M344.33 121.73c-.175-.975-.514-1.982-1.004-2.842-.593-1.04-1.299-1.612-1.893-1.606l-.726.01s-.142.59-.213.74c-.027-.602-.12-1.35-.311-2.273-.381-1.834-1.363-4.288-1.828-5.123-.159-.284-.266-.393-.345-.396-.286-.007-.71.005-.71.005s.5 3.71.88 5.547c.19.918.406 1.661.628 2.257-.13-.14-.26-.275-.397-.379-.3-.228-.59-.331-.855-.318-.218.012-.724.016-.724.016s-.37 1.002-.466 1.657c-.13.88-.308 2.153-.225 3.346.156-.006.584-.01.71-.023.064-.007.118-.043.146-.16.325-1.378 1.196-1.758 2.196-.497.382.482.814 1.258 1.2 2.84l.9 4.318c.405-.013.809-.024 1.213-.035l-.795-3.811c-.39-1.924-.28-2.824-.084-3.366.182-.5.445-.754.752-.802.486-.075 1.101 1.354 1.101 1.354s.673-.003.732-.01c.103-.012.165-.182.118-.45"/>
            <path fill="#FF7E59" d="M343.606 121.74c-.174-.976-.512-1.983-1.004-2.843-.85-1.491-1.933-2.02-2.586-1.258a1.839 1.839 0 0 0-.245.406c-.026-.602-.119-1.351-.31-2.275-.382-1.835-1.364-4.292-1.829-5.126-.292-.523-.416-.54-.475.006-.093.87-.08 3.316.3 5.156.19.919.407 1.662.63 2.259a3.22 3.22 0 0 0-.398-.378c-.964-.734-1.82-.167-2.045 1.359-.13.88-.047 1.903.185 2.883.1.427.372.594.446.283.325-1.38 1.196-1.761 2.196-.502.382.481.815 1.259 1.2 2.84l.9 4.322 1.212-.038-.796-3.813c-.389-1.924-.28-2.827-.083-3.37.469-1.292 1.489-.953 2.378.388.201.303.4.124.324-.3"/>
            <path fill="#2474CD" d="M340.23 120.303c.208.999 0 1.746-.463 1.829-.662.117-1.687-.154-1.966-1.378-.265-1.164.531-2.177 1.212-2.245.465-.047 1.01.795 1.217 1.794"/>
            <path fill="#FF7E59" d="M399.498 129.675a317.149 317.149 0 0 0-14.414-1.815c.45-.132 2.886-.89 5.33-2.726 2.603-1.955 4.256-4.436 4.38-4.627.004.207.079 2.9 1.345 5.342 1.188 2.294 3.016 3.593 3.359 3.826M391.377 116.744c1.266 2.397 3.259 3.654 3.41 3.75-.195.05-2.784.75-5.387 2.719-2.485 1.878-4.108 4.238-4.358 4.613a9577.097 9577.097 0 0 0 4.99-16.32c.012.404.134 2.948 1.345 5.238"/>
            <path fill="#2474CD" d="M396.422 115.569c-2.39-.287-4.76 1.727-5.586 4.427-.825 2.704.447 5.105 2.838 5.407 2.392.301 4.996-1.617 5.82-4.334.825-2.717-.682-5.215-3.072-5.5"/>
            <path fill="#FF7E59" d="M346.957 126.148c5.709-.062 11.428.014 17.151.236-.503-.198-3.22-1.304-5.752-3.466-2.695-2.302-4.19-4.98-4.3-5.187-.041.204-.604 2.85-2.512 5.089-1.791 2.103-4.147 3.144-4.587 3.328M358.718 114.505c-1.909 2.181-4.458 3.141-4.651 3.214.22.076 3.12 1.13 5.816 3.448 2.574 2.212 4.055 4.782 4.281 5.19-.982-5.605-1.962-11.21-2.943-16.818-.086.397-.681 2.883-2.503 4.966"/>
            <path fill="#2474CD" d="M353.024 112.635c2.845.051 5.262 2.371 5.75 5.154.485 2.784-1.428 4.97-4.274 4.933-2.846-.036-5.545-2.292-6.03-5.088-.485-2.796 1.71-5.052 4.554-4.999"/>
            <path fill="#FF7E59" d="M348.019 127.337c-.047.823-.764 1.497-1.6 1.51-.837.013-1.476-.642-1.428-1.468.046-.827.762-1.507 1.599-1.516.836-.01 1.476.651 1.429 1.474M365.87 127.642c-.047.811-.765 1.44-1.603 1.407-.839-.032-1.48-.713-1.433-1.526.047-.811.765-1.446 1.603-1.413.838.034 1.48.721 1.433 1.532M386.444 129.197c-.048.814-.764 1.4-1.601 1.312-.837-.088-1.478-.813-1.432-1.625.046-.812.763-1.406 1.6-1.32.839.086 1.479.82 1.433 1.633M400.187 130.993c-.047.825-.761 1.389-1.596 1.263-.835-.126-1.474-.89-1.428-1.713.047-.821.761-1.392 1.596-1.27.835.121 1.475.894 1.428 1.72"/>
        </g>
    </g>
</svg>
