<svg xmlns="http://www.w3.org/2000/svg" xmlns:xlink="http://www.w3.org/1999/xlink" width="683" height="683" viewBox="0 0 683 683">
    <defs>
        <path id="a" d="M0 19.652c0 10.855 10.73 18.42 19.385 18.42 7.63 0 10.588-6.665 11.343-17.494C31.553 8.746 31.553 0 23.923 0 15.267 0 0 8.798 0 19.652"/>
        <radialGradient id="b" cx="154.577%" cy="46.486%" r="100.445%" fx="154.577%" fy="46.486%" gradientTransform="matrix(-.9775 .1722 -.2109 -.79814 3.155 .57)">
            <stop offset="0%" stop-color="#FFE8E8"/>
            <stop offset="100%" stop-color="#FDACAC"/>
        </radialGradient>
        <path id="d" d="M0 .923h351.32v229.77H0z"/>
        <path id="f" d="M1.203 11.011C.102 20.772 2.21 35.934 10.492 36.995c8.049 1.03 14.997-8.215 17.268-22.17C29.066 6.8 24.91 1.324 18.334.288A23.163 23.163 0 0 0 14.744 0C8.362 0 2.124 2.847 1.204 11.011"/>
        <radialGradient id="g" cx="-53.582%" cy="-11.462%" r="139.168%" fx="-53.582%" fy="-11.462%" gradientTransform="scale(1 .73009) rotate(47.925 -.488 -.136)">
            <stop offset="0%" stop-color="#FFE8E8"/>
            <stop offset="100%" stop-color="#FDACAC"/>
        </radialGradient>
    </defs>
    <g fill="none" fill-rule="evenodd">
        <path d="M0 0h683v683H0z"/>
        <path fill="#FFF" d="M274.595 344L217.5 296.408l109-.408z"/>
        <path fill="#FFF" d="M171.667 300c-9.864 0-32.88-4.937-36.99-21.807-4.11-16.87 3.288-26.744 10.686-32.093 7.398-5.349 13.563-6.171 20.961-13.577 7.398-7.407 11.703-16.988 23.016-23.864 11.508-6.995 18.803-6.722 25.893-6.995 10.686-.412 13.563-2.88 15.207-9.463 1.644-6.584 4.487-24.33 26.715-32.093 17.673-6.172 36.716-3.977 47.813 14.126 9.145 14.92 7.946 26.607 23.564 30.722 15.823 4.168 22.422-8.652 39.456-4.389 13.152 3.292 18.632 20.846 18.632 20.846l32.88 78.45S181.531 300 171.667 300"/>
        <g transform="translate(254.5 201)">
            <mask id="c" fill="#fff">
                <use xlink:href="#a"/>
            </mask>
            <path fill="url(#b)" d="M0 19.652c0 10.855 10.73 18.42 19.385 18.42 7.63 0 10.588-6.665 11.343-17.494C31.553 8.746 31.553 0 23.923 0 15.267 0 0 8.798 0 19.652" mask="url(#c)"/>
        </g>
        <path fill="#423748" d="M283.908 209.119s-.204 6.556-7.055 9.11c-3.907 1.456-6.783 2.623-6.783 2.623s-.678 11.87-3.12 11.317c-10.957-2.477-17.908-13.388-17.908-13.388s-1.221-2.347-1.086-4.417l35.952-5.245z"/>
        <path fill="#FF7E59" d="M286.695 208.75s-6.598 3.642-20.853 5.868c-11.78 1.84-18.594.47-18.594.47-.635-.017-.907-.499-.969-.979-.504-3.943-1.264-21.77 18.367-24.18 15.807-1.939 22.434 11.541 22.945 17.603.05.591-.3 1.133-.896 1.218"/>
        <path fill="#FF7E59" d="M266.306 213.733l10.482 16.442 1.587 8.296-2.358 1.1-2.032-8.091-11.286-17.06z"/>
        <path fill="#FFAEAE" d="M275.038 218.62c.523 2.458 1.156 5.923-.479 6.166-1.655.246-4.425-1.817-5.167-4.733-.74-2.915.337-4.876 1.956-5.317 1.618-.442 3.065.94 3.69 3.885"/>
        <path fill="#FF7E59" d="M275.03 211.367l-2.188 17.866 2.703 2.955 2.83-21.224z"/>
        <path fill="#E86A46" d="M314.83 249.78l-1.415 2.109 5.491 11.555s5.077 1.568 12.95-6.693l-2.071-13.49-14.954 6.519z"/>
        <path fill="#245EAD" d="M258.089 291.011s7.663 6.236 13.211 5.744c9.295-.823 24.946-12.686 32.472-18.79 7.95-6.451 15.058-12.028 16.942-13.708 1.883-1.679.748-6.57-.48-9.05-1.246-2.519-3.758-5.587-6.424-5.484-1.119.043-6.219 3.222-11.805 5.782-4.963 2.274-28.498 11.892-28.498 11.892L258.09 291.01z"/>
        <path fill="#2B2B51" d="M180.532 317.679s.589 7.29 4.95 13.672c3.024 4.426 3.702 7.713 3.83 11.165.174 4.675.485 10.942 1.03 17.385.798 9.433 1.185 13.161.498 16.938-.326 1.792-1.536 3.16-2.882 4.379-4.088 3.701-7.713 7.683-10.697 16.519-4.905 14.53-9.538 31.255-9.538 31.255l19.35 7.129s17.713-26.87 23.98-37.013c6.269-10.144 9.54-13.71 12.537-28.514 3.074-15.184 7.178-58.306 6.813-58.124l-49.871 5.209z"/>
        <path fill="#2474CD" d="M455.961 284.772c1.997 8.951-4.188 16.907-11.475 16.616-11.265-.45-11.61-3.328-13.467-9.412-2.124-6.951 2.825-16.753 9.81-16.409 8.527.42 13.497 1.876 15.132 9.205"/>
        <path fill="#245EAD" d="M446.415 298.47c-2.776-2.101-3.678-6.018-2.446-10.432 1.162-4.161 4.418-7.73 7.853-6.98 3.817.832 4.25 5.63 4.519 8-.469-12.082-8.022-13.374-16.042-12.256-6.92.965-11.366 8.703-9.245 15.725 1.856 6.147 3.682 9.952 13.013 9.787 5.623-.1 8.928-2.936 10.818-7.115-2.488 3.873-5.948 5.181-8.47 3.271"/>
        <path fill="#42426C" d="M405.625 206.392s2.797-1.079 6.466-.954c5.262.179 17.335.818 24.213 13.903 5.337 10.151 11.557 37.075 12.795 44.571 1.304 7.896 1.514 11.723-3.577 15.267-5.916 3.27-10.18 1.363-10.18 1.363s-6.604-7.36-14.584-26.035c-7.98-18.673-14.445-30.26-14.445-30.26l-.688-17.855z"/>
        <path fill="#245EAD" d="M366.085 246.03s-13.792-5.509-26.48-12.12c-8.432-4.391-12.701-9.472-15.584-24.924-2.295-12.298-4.742-23.158-5.065-25.275a.705.705 0 0 1 .493-.78l10.516-3.3a.876.876 0 0 1 1.085.526c.428 1.143.723 3.238 2.624 6.657 2.555 4.592 4.414 8.676 10.004 21.505.845 1.94 2.237 3.593 4.202 4.385 4.555 1.836 13.375 5.703 15.722 5.508 3.31-.275 4.69-1.101 8.827-.275l-6.344 28.093z"/>
        <path fill="#2474CD" d="M363.382 218.021c-1.272 3.718-1.908 20.346.778 28.931l8.27-29.2c-4.241-.812-5.647.122-9.048.27"/>
        <path fill="#42426C" d="M399.483 217.424l-2.157-15.681s4.56-.2 6.893 1.734c2.333 1.935 1.317 6.124.141 7.941-2.332 3.603-4.877 6.006-4.877 6.006"/>
        <path fill="#2474CD" d="M363.614 235.147c-.98 1.66-1.45 3.578-1.3 5.5.317 4.06 1.02 8.298 1.895 12.353 1.508 7.001 3.625 10.653 9.461 16.885 4.114 4.392 7.934 7.096 13.164 10.707 3.976 2.745 6.307 6.04 6.307 6.04l41.07-7.172s-2.465-4.99-5.657-10.81c-2.88-5.251-6.205-13.728-7.028-20.043-.823-6.314-2.594-14.489-6.856-19.217-5.074-5.628-14.26-8.786-14.26-8.786l-27.974-.412-8.822 14.955z"/>
        <path fill="#42426C" d="M375.487 229.287s-1.507 7.743 2.337 7.51c2.715-.165 5.67-3.228 5.67-3.228l-2.233-5.072-5.774.79z"/>
        <path fill="#245EAD" d="M382.572 276.648l13.413-3.342a33.412 33.412 0 0 1 15.493-.158l22.732 5.179-32.982-17.533-18.656 15.854zM409.313 256.347l4.61-4.78-1.25 6.459zM362.286 240.125s-.042 3.846 2.28 14.21c-.078-1.806-.766-7.742.152-13.955 1.065-7.206 5.867-14.651 5.867-14.651l-5.442 4.482-2.857 9.914z"/>
        <path fill="#42426C" d="M362.52 240.493s-.986-4.786 1.09-10.717c1.754-5.004 6.096-8.661 6.096-8.661l1.801 4.212s-3.148 1.91-5.54 5.797c-2.675 4.343-3.239 7.937-3.447 9.37"/>
        <path fill="#E86A46" d="M434.789 350.303s10.316 3.143 12.288 5.069c1.97 1.924.312 8.773.312 8.773l-15.023-2.195 2.423-11.647z"/>
        <path fill="#423748" d="M402.859 286.632s7.737-4.274 18.683-7.028c8.936-2.25 12.185-.843 12.185-.843l3.25 5.903-34.118 1.968zM366.082 203.687s.58 1.117.272 2.478c-.307 1.361-2.102 3.263-2.215 5.69-.103 2.198.716 4.816 4.5 6.492l.102-14.765-2.66.105z"/>
        <path fill="#2B2B51" d="M427.755 309.182l-15.505 15.283-14.924-16.61z"/>
        <path fill="#E9EEFB" d="M173.009 435.692c.82-1.234 20.319-30.034 31.812-38.674 11.494-8.64 17.787-14.262 38.996-34.148 9.808-9.197 14.64-16.457 27.365-26.332 12.725-9.874 21.072-14.4 29.692-22.217 8.62-7.817 14.64-20.982 27.776-24.685 4.55-1.282 13.704 2.99 23.124 4.937 10.904 2.255 19.016 13.775 27.297 20.16 10.65 8.211 10.263 12.137 20.73 19.543 7.385 5.225 18.061 11.93 23.808 17.28 5.747 5.348 25.45 17.074 27.092 24.89 1.642 7.818 2.873 20.572 2.873 20.572l-117.809 2.88 69.783 76.937-155.984 61.714s-6.978-.823-22.577-.412c-15.598.412-32.976-4.114-53.773-9.6-16.753-4.419-6.425-17.379-15.804-22.903-19.908-11.725-21.96-17.28-21.96-17.28s8.021-15.268 14.982-26.125c6.96-10.857 22.577-26.537 22.577-26.537"/>
        <path fill="#D2D8EE" d="M295.357 512.374s-8.519-26.551-13.166-36.314c-4.646-9.76-6.582-17.96-6.582-26.94 0-8.981 6.401-5.937 6.195-10.933-.387-9.371 14.327-1.171 27.492 16.79 4.534 6.184 10.068 7.418 20.91 20.303 4.382 5.208 8.132 3.515 12.004.39 3.872-3.123 6.583-5.857 11.616-3.513 5.033 2.343 6.97 5.856 12.779 9.76a562.826 562.826 0 0 1 17.812 12.496s-17.426 23.426-31.365 23.817c-13.94.39-57.695-5.856-57.695-5.856"/>
        <path fill="#D2D8EE" d="M283.098 515.053c-4.636-9.816-6.567-18.062-6.567-27.093 0-9.032 6.386-5.97 6.18-10.995-.385-9.424 14.294-1.177 27.428 16.885 4.523 6.22-22.406 31.02-27.041 21.203M473.089 517.994s11.05 2.197 20.055-.686c9.005-2.883 7.368-4.943 19.92-4.53 13.772.45 13.307 1.32 21.829 4.804 8.732 3.57 14.871 5.904 23.33 6.178 6.123.199 10.077-.845 12.595-2.424 1.548-.972 2.132-2.948 1.383-4.622-1.409-3.154-4.753-7.106-8.112-13.822-3.213-6.424-9.239-19.922-13.643-26.77-12.006-18.672-34.79-52.857-34.79-52.857l-42.977-14.827-42.157 35.832 27.423 70.017 15.144 3.707z"/>
        <path fill="#C3CBE8" d="M156.358 506.251l-18.142-15.222s3.79-11.688 7.04-19.843c5.416 4.893 1.273 11.243 7.04 16.31 8.665 7.61 4.062 18.755 4.062 18.755"/>
        <path fill="#D2D8EE" d="M423.09 351.261c-5.747-5.325-16.423-12.003-23.808-17.206-10.467-7.374-9.646-11.881-20.73-19.46-7.95-5.437-21.758-3.807-9.646 6.555 7.698 6.585 9.03 14.339 15.599 24.58 6.507 10.15-.821 15.159 1.641 20.485 2.463 5.326-4.104 1.229-8.62 3.687-4.515 2.458 6.979 17.616 6.979 17.616l68.147 5.232c-.492-4.363-1.393-11.593-2.47-16.703-1.643-7.784-21.346-19.46-27.092-24.786M406.65 458.292c-8.405-7.816-24.019-17.613-34.82-25.248-15.308-10.82-14.108-17.434-30.317-28.555-11.628-7.978-28.85-8.49-14.108 9.619 5.17 6.35-1.393 16.207 10.638 32.635 10.442 14.258-1.64 31.761-15.86 27.38 11.485 14.238 28.035 37.37 28.035 37.37l99.668 7.677c-.72-6.403-2.037-17.01-3.614-24.509-2.401-11.421-31.218-28.554-39.623-36.37"/>
        <path fill="#FFF" d="M159.275 506.79c1.644 8.59-27.55 4.91-35.775-2.044-13.603-11.502-13.158-18.815-22.616-22.905-7.155-3.094-14.803-6.135-13.158-12.816 1.565-6.357 8.197-10.907 20.56-10.907 9.046 0 13.967-4.097 18.093-11.452 6.156-10.978 16.64-11.04 27.55-14.725 12.996-4.389 19.326 3.272 19.326 3.272s-2.748 5.701-8.224 12.27c-4.265 5.118-10.32 10.901-13.57 15.952-6.578 10.226-6.923 16.58-9.868 21.678-1.648 2.853-2.605 5.726.446 8.092 0 0 16.918 11.93 17.236 13.586"/>
        <path fill="#D2D8EE" d="M245.834 503.786c-14.775-5.07-20.807 6.017-23.467 14.84-.068.224-.136.444-.205.664-.868 2.774-3.198 4.844-6.045 5.322-4.408.74-6.572-1.033-7.563-1.383-5.656-2.004-10.221 1.119-14.899 3.793-4.458 2.549-8.688 2.721-13.945 3.245 17.828 4.672 33.1 8.236 46.954 7.869 15.554-.413 22.512.413 22.512.413l44.875-17.858c-7.706-7.59-15.635-13.097-24.795-17.423-11.21-5.294-12.303 4.334-23.422.518"/>
        <path fill="#C3CBE8" d="M527.334 435.353c.223 4.268-4.082 14.886-20.283 14.886-9.132 0-17.829-4.955-26.951-5.374-4.648-.213-17.031-.403-18.077 6.602-1.378 9.214 13.45 11.961 17.546 16.643 2.233 2.553 3.641 6.51 2.462 9.294-.55 1.297-.055 2.778 1.11 3.571 1.891 1.288 3.395 3.003 3.882 5.261 2.729 12.638-13.472 22.804-23.632 25.552-3.295-4.946-43.934-76.112-43.934-76.112l80.595-40.157 27.282 39.834z"/>
        <g transform="translate(244.257 338.307)">
            <mask id="e" fill="#fff">
                <use xlink:href="#d"/>
            </mask>
            <path fill="#FFF" d="M79.375 61.391c-1.221-3.212-2.67-15.78 15.815-18.65 18.484-2.87 33.138 2.291 42.104 3.69 6.572 1.024 8.1-4.84 14.582-5.944 8.421-1.435 15.354-1.552 28.139 5.738 11.501 6.559 25.878 2.255 25.878 2.255s1.027-6.149-2.67-12.707c-3.697-6.558-15.336-15.44-15.336-15.44s7.833 1.532 15.542-.956c6.983-2.254 11.09-6.968 18.485-11.887 7.394-4.918 20.333-10.93 34.847-1.912 5.472 3.399 11.695 10.413 23.004 12.843 17.8 3.826 23.028 9.491 30.26 18.172 9.448 11.34 18.81 9.286 28.891 7.788 12.87-1.913 14.088 9.244 10.954 13.936-3.286 4.919-18.18 10.675-32.589 6.012-20.264-6.559-25.854-6.944-34.778-4.645-8.49 2.185-10.741 8.439-10.954 13.116-.274 6.012 6.973 10.553 12.597 9.086 5.027-1.312 4.93-6.558.205-7.583a4.697 4.697 0 0 0-1.426-.087c-.93.085-1.474-1.037-.785-1.667 1.346-1.232 3.67-2.256 7.551-1.32 5.957 1.434 9.243 6.763 6.984 12.502-2.314 5.876-10.293 4.102-10.68 7.583-.206 1.844 3.286 2.869 3.696 8.197.411 5.33-3.902 7.993-3.902 7.993s-10.02-15.797-14.377-19.675c-7.6-6.763-10.064-2.254-21.977-6.968-9.935-3.931-29.785-4.008-30.191 4.304-.411 8.403-1.233 13.322-4.93 17.83-4.112 5.017-13.966-1.434-18.485 2.665-4.518 4.099-1.643 11.887 4.519 17.625 6.162 5.739 15.74 13.213 20.744 19.675 3.492 4.509 10.463 14.214 5.75 19.47-3.49 3.894-8.01 2.664-8.83 5.739-.794 2.97 4.107 4.508 9.858 7.378 5.75 2.869 14.377 2.46 16.02 5.738 1.338 2.67-9.133.076-21.771 8.608-8.335 5.628-7.103 13.06-18.074 18.035-18.074 8.198-24.647-.82-54.633 10.248-10.083 3.722-20.105-9.698-36.97.82-23.003 14.346-52.334 16.348-71.885 1.23-16.431-12.708-14.378-9.428-35.327-15.987-13.262-4.151 2.054-17.215 9.037-27.053 14.95-21.06 31.289-17.778 48.882-23.364 18.074-5.738 32.246 4.51 41.9 2.665 7.595-1.452 12.924-7.994 17.662-12.092 6.162-5.329 13.104-7.16 16.431-8.198 6.573-2.05 5.546-6.558-.616-10.657-6.161-4.1-9.037-7.993-11.501-13.322-2.465-5.328-7.129-11.49-13.967-19.265-8.831-10.042-13.966-13.321-20.128-17.01-6.161-3.69-11.296-8.608-13.555-14.552" mask="url(#e)"/>
        </g>
        <path fill="#E9EEFB" d="M559.858 392.332c-3.203-4.015-2.536-9.283.681-12.133-2.007-1.34-4.012-3.15-6.019-5.57-7.23-8.72-12.456-14.41-30.249-18.252-10.924-2.359-17.097-9.007-22.437-12.533.207 1.696.405 4.85 1.769 6.7 3.49 4.735 9.508 3.143 12.524 10.705 4.927 12.35-5.749 24.084-21.968 28.613-16.22 4.529-26.28-1.235-40.857 7.205.82 6.793.82 16.262-10.06 22.437-3.645 2.069-13.175.829-20.532 9.881-9.034 11.116 1.643 26.35 11.498 36.23 8.212 9.057-8.213 17.291-18.889 20.585 4.106 12.351-3.285 27.996-14.782 32.113-12.32 4.117-24.638-7.41-36.135 1.647-4.107 3.293-7.392 6.587-9.855 11.527-4.212 8.446-5.749 20.362-2.501 29.208a79.79 79.79 0 0 0 4.964-2.859c16.859-10.564 26.877 2.914 36.957-.823 29.975-11.116 36.545-2.059 54.612-10.293 10.968-4.998 9.736-12.462 18.068-18.115 12.633-8.57 23.1-5.964 21.763-8.645-1.643-3.294-10.266-2.882-16.014-5.764-5.75-2.882-10.649-4.428-9.855-7.41.82-3.089 5.338-1.853 8.828-5.765 4.71-5.278-2.258-15.027-5.749-19.555-5.003-6.491-14.577-13.998-20.736-19.762-6.16-5.764-9.034-13.586-4.517-17.703 4.517-4.117 14.367 2.362 18.478-2.676 3.696-4.53 4.517-9.47 4.928-17.91.405-8.349 19.427-7.654 29.36-3.705 11.907 4.735 15.192-.411 22.789 6.382 4.356 3.894 14.372 19.761 14.372 19.761s4.311-2.676 3.9-8.028c-.41-5.352-3.9-6.381-3.695-8.234.387-3.496 8.363-1.714 10.676-7.616 2.258-5.764-1.027-11.116-6.98-12.557-3.868-.936-6.189.084-7.537 1.316-.692.631-.162 1.77.77 1.685.439-.041.92-.025 1.428.087 4.722 1.029 4.82 6.299-.205 7.616-5.622 1.474-12.866-3.088-12.592-9.126.04-.908.16-1.875.384-2.86-7.138-4.296-16.105-3.708-23.938-.457-1.116.462-2.292-.542-1.966-1.708 1.679-6.025 7.1-9.841 12.106-11.992 11.634-4.529 22.053 4.427 22.129 4.583a18.72 18.72 0 0 1 2.235-.74c8.92-2.31 14.508-1.922 34.765 4.665 9.423 3.065 19.052 1.65 25.505-1.08-10.8.332-20.332-.546-27.42-9.075"/>
        <path fill="#FF7E59" d="M414.232 345.453c-2.2-1.38-5.512-7.713-.274-13.246 5.223-5.52 10.583-4.278 12.37-2.76 1.787 1.518 9.564 9.324 11.449 11.216 1.884 1.892 2.282 5.085 1.747 7.824-1.146 5.856-1.1 15.178-4.123 20.697-2.825 5.155-8.66 6.347-12.371 3.863-3.712-2.483-3.766-7.88-2.475-12.417 2.75-9.659-.275-11.038-.275-11.038s-3.848-2.76-6.048-4.14"/>
        <path fill="#E86A46" d="M321.25 182.358s-1.825-1.214-4.258-4.451c-2.293-3.052-2.636-4.345-2.636-7.488 0-4.452-.203-8.094.71-9.207.912-1.113 1.622-1.214 2.94-.708 1.318.506 4.663 3.237 6.792 4.856 2.439 1.854 3.042 5.16 3.752 8.297.46 2.035.54 5.599.54 5.599l-7.84 3.102zM338.312 278.327l-9.875-.83s-3.213-.505-4.551-3.68c-1.07-2.535.765-3.283 1.406-2.67 1.205 1.155 2.008 1.443 3.882 1.948 1.874.506 5.389-1.732 8.535 1.66.402 2.056.603 3.572.603 3.572"/>
        <path fill="#B6BAC7" d="M331.006 294.929c-1.069.094-2.013-.682-2.11-1.734l-17.317-187.186c-.096-1.053.694-1.984 1.764-2.079 1.07-.093 2.015.684 2.111 1.738l17.317 187.179c.097 1.055-.693 1.987-1.765 2.082"/>
        <path fill="#FF7E59" d="M467.835 151.994c-3.269-1.581-9.253-4.57-14.176-7.56-7.238-4.395-13.523-9.124-13.523-9.124s7.714-4.25 12.909-7.88c5.991-4.187 9.598-7.972 11.238-9.885.404-.471.025-1.195-.588-1.128-6.203.672-28.71 2.86-45.687 1.266-7.786-.731-13.375-2.252-18.68-3.935-9.99-3.172-18.967-6.92-39.714-7.055-21.185-.139-43.08 8.373-46.975 9.96-.203.082-.192.372.015.443 2.176.758 9.37 4.084 11.104 15.31 1.993 12.911-6.106 19.96-7.864 21.322-.072.056-.02.17.07.15 3.324-.784 26.653-6.126 44.88-6.126 18.244 0 42.425 4.768 59.289 6.661 1.317.149 2.596.28 3.817.39 21.655 1.934 37.617-.14 43.657-1.16.832-.141.99-1.281.228-1.65"/>
        <path fill="#E86A46" d="M320.182 120.187c7.772 6.404 8.262 17.086 5.119 27.077-.237.753.727 1.296 1.235.694 2.65-3.134 4.66-6.727 5.726-10.753 2.328-8.793-3.52-15.52-11.227-18.457-.896-.34-1.595.828-.853 1.439"/>
        <path fill="#FF7E59" d="M323.344 182.358s-2.197-1.741-2.6-5.068a16.84 16.84 0 0 1-.144-2.33c.02-1.102-.428-2.16-1.291-2.853-.73-.587-1.55-1.349-2.045-2.134-1.152-1.827-1.476-4.18-.527-4.911.95-.732 1.265.313 3.796 2.09 2.53 1.777 4.582 2.425 6.43 3.553 2.742 1.672 3.972 9.214 3.972 9.214l-7.591 2.44zM338.052 276.785s-3.544-.87-6.181-1.212c-.558-.073-1.098.14-1.517.516-.37.333-.861.577-1.465.594-.673.02-1.115-.202-1.415-.495a1.358 1.358 0 0 0-1.344-.318c-3.049.919-4.694 2.265-4.378 4.178.203 1.224 1.62 1.632 2.228 3.06.607 1.427.991 3.027 2.43 5.2 1.62 2.448 4.251 3.366 7.491 2.754 3.24-.612 8.099-3.467 8.099-3.467l-3.948-10.81z"/>
        <path fill="#E09595" d="M377.04 229.898s2.621.412 3.449 2.334c.972 2.258.138 5.493.138 5.493l13.933-13.457-1.931-9.613-15.59 15.243z"/>
        <path fill="#E86A46" d="M381.305 230.721c-.402.059-.951-.116-1.295-.333-.814-.51-1.39-.81-2.048-.782.152 1.672 1.361 1.318 2.067 3.04.715 1.746 1.21 3.041 1.915 4.156l11.694-11.689-.202-5.844c0 2.331-5.107 10.439-12.13 11.452"/>
        <path fill="#423748" d="M398.496 206.678c-.034 2.75 5.286 2.842 4.222 6.786-.675 2.506-5.638 10.31-10.387 14.876-.76.731-2.348-1.2-2.28-3.55.06-2.114 2.457-4.523.835-5.27-.863-.4-2.913 1.791-1.19-5.272 1.05-4.312 8.85-11.795 8.8-7.57"/>
        <g transform="translate(366.5 193)">
            <mask id="h" fill="#fff">
                <use xlink:href="#f"/>
            </mask>
            <path fill="url(#g)" d="M1.203 11.011C.102 20.772 2.21 35.934 10.492 36.995c8.049 1.03 14.997-8.215 17.268-22.17C29.066 6.8 24.91 1.324 18.334.288A23.163 23.163 0 0 0 14.744 0C8.362 0 2.124 2.847 1.204 11.011" mask="url(#h)"/>
        </g>
        <g>
            <path fill="#423748" d="M368.86 203.893s.827 3.243 4.652 4.865c1.935.82 4.032.608 5.79-.71.873-.654 1.862-.709 2.274.811.448 1.656.103 10.507 7.547 11.656l-.586-5.574 7.099-3.75-2.275-5.676-24.501-1.622z"/>
            <path fill="#FF7E59" d="M394.241 206.663l-4.145 9.624.99 2.381 5.473-11.865z"/>
            <path fill="#FFAEAE" d="M395.09 212.3c-.907 2.497-3.194 4.912-4.301 4.469-1.106-.444-.696-3.21-.096-5.868.586-2.6 2.823-3.659 3.93-3.217 1.107.443 1.373 2.118.466 4.616"/>
            <path fill="#FF7E59" d="M387.326 206.663l2.552 13.852s.628-.173.883-.608c.787-1.35 1.097-2.198 1.181-2.624l-1.829-10.545-2.787-.075z"/>
            <path fill="#42426C" d="M387.418 245.449s-.776-5.248 2.18-10.589c3.217-5.813 6.953-7.785 9.444-8.927 2.49-1.142 10.482-.727 10.482-.727s4.152 1.298 5.501 4.724c-3.736-.415-11.278-.744-15.153 1.609-3.875 2.352-12.454 13.91-12.454 13.91"/>
            <path fill="#2474CD" d="M377.17 237.008s2.248-.34 11.225-8.134c10.984-9.536 14.316-15.067 15.75-18.866 1.28-3.383-.197-5.347-1.864-6.254-1.382-.752-5.078-1.538-5.078-1.538l-.069-1.094s3.868.216 6.7 1.401c2.695 1.128 4.945 2.45 7.323 4.854 1.963 1.984 4.526 5.57 5.25 8.27 2.392 8.903-5.11 10.15-7.806 10.15-5.077 0-9.533-.307-12.123 1.641-1.487 1.12-4.041 3.179-5.975 6.255-1.22 1.94-2.937 5.741-6.252 7.69-3.316 1.947-7.081-4.375-7.081-4.375"/>
            <path fill="#FF7E59" d="M365.023 203.863s5.16 1.28 15.166 2.426c10.006 1.145 18.226 1.298 18.226 1.298.537-.025.776-.433.802-.84.208-3.266 1.6-18.659-15.615-20.309-13.39-1.283-19.029 11.3-19.356 16.414-.033.5.273.95.777 1.011"/>
            <path fill="#42426C" d="M401.176 263.713s10.434 8.106 32.315 14.98l-8.645-18.195s-9.893-1.402-15.87-3.967l-7.8 7.182z"/>
            <path fill="#2474CD" d="M337.786 274.348c-.89.37-1.544 2.69-1.097 5.478.549 3.423 3.294 8.49 5.078 8.08 1.784-.412 4.392-1.781 6.862-2.329 2.47-.548 26.725-4.798 35.616-9.448 7.068-3.698 9.264-5.067 22.302-16.707 3.045-2.72 13.45-12.325 9.402-22.937-2.761-7.237-11.745-8.018-16.676-5.273-5.902 3.287-7.806 7.582-10.98 11.64-5.352 6.847-9.332 12.53-13.45 15.612-2.945 2.204-9.563 4.775-15.509 7.257-6.088 2.541-13.725 6.162-15.371 6.847-1.53.636-5.21 1.335-6.177 1.78"/>
            <path fill="#E86A46" d="M468.211 151.67c-3.067-1.466-9.511-4.636-14.75-7.806-7.212-4.365-13.473-9.06-13.473-9.06s7.686-4.22 12.861-7.825c6.465-4.503 10.144-8.537 11.564-10.25.261-.316.01-.791-.396-.747-5.256.582-28.607 2.954-46.077 1.32-7.758-.727-13.327-2.237-18.611-3.91 8.404 11.322 14.937 23.059 20.727 40.38 1.314.148 2.587.28 3.805.388 22.452 1.998 38.763-.313 44.181-1.27.618-.11.734-.95.17-1.22"/>
            <path fill="#245EAD" d="M374.51 251.913s.943-7.376.798-9.008c-.145-1.632-2.96-3.167-3.588-5.405-.544-1.937.036-7.75.036-7.75s-2.465 6.034-1.884 11.473c.58 5.439 4.638 10.69 4.638 10.69M380.934 240.474c-1.97.861-3.327 0-2.676-.824 1.262-1.597 5.858-4.34 7.777-5.23.33-.153.555.028.15.567-1.607 2.141-4.444 5.134-5.25 5.487"/>
            <path fill="#42426C" d="M437.306 284.715s-41.285-7.403-71.835 11.79c-5.61 3.526-6.065 6.564-5.78 11.106.275 4.388.765 7.192 7.431 11.38 12.66 7.951 22.845 9.871 45.964 24.678 5.248 3.362 9.632.274 11.284-1.097 1.651-1.37 4.128-6.58 1.101-10.694-8.724-11.852-18.165-19.468-18.165-19.468s16.059.795 21.743-.822c11.56-3.29 13.21-10.694 12.66-16.179-.575-5.73-4.403-10.694-4.403-10.694M193.432 313.671s1.024 19.062 20.064 24.392c19.04 5.329 37.467 8.403 37.467 8.403s-6.22 4.048-8.803 12.094c-1.843 5.739-6.962 25.006-6.962 25.006l23.75 5.944s20.064-28.9 27.23-39.56c4.376-6.507 5.354-16.9-3.276-23.57-16.174-12.504-28.186-17.423-47.021-22.752l-42.449 10.043z"/>
            <path fill="#FF7E59" d="M326.535 241.426c-1.256 1.075-1.482 3.373-3.263 4.735-1.93 1.476-2.655 3.073-2.36 5.157.293 2.084 1.094 5.814 1.93 7.159.878 1.41 2.278 2.01 4.43 1.641 2.15-.369 3.285-1.628 4.402-2.997 1.096-1.345 1.269-2.813 1.113-4.927-.139-1.884.002-4.823.056-6.883.074-2.813-.328-3.485-1.697-3.946-1.112-.375-3.354-1.014-4.61.061"/>
            <path fill="#E86A46" d="M313.462 249.905c.316-1.633 1.122-4.294 3.14-6.335 2.08-2.106 4.79-2.684 7.053-5.182 1.286-1.42 1.84-3.118 2.924-3.097 1.302.026 2.451 2.305.933 6.201a14.611 14.611 0 0 1-2.192 3.783 5.444 5.444 0 0 1-1.592 1.338l-7.833 4.377s-.563-.41-1.25-.704c-.537-.23-.793-.278-1.183-.38"/>
            <path fill="#FF7E59" d="M329.158 299.05s1.728-.523 3.551-1.312c3.402-1.472 5.85-3.129 8.67-3.33 3.235-.232 8.922 2.359 10.758 4.238 1.776 1.817 3.847 5.367 3.796 6.595-.07 1.682-1.184 2.489-4.109 2.556-1.52.035-2.472 1.144-6.998 3.365-3.055 1.498-6.163 2.624-9.297 2.624-3.133 0-5.953-.606-5.953-.606l-.418-14.13z"/>
            <path fill="#2474CD" d="M269.152 282.123s-3.486 4.782-14.968 11.34c-2.567 1.467-1.242 2.86-.683 5.465.82 3.826-1.778 7.788-6.493 7.993-4.716.205-12.713.41-20.504 3.28-8.647 3.183-16.605 8.621-25.425 10.656-5.331 1.23-13.123 1.845-20.094.41-8.72-1.794-9.227-6.558-6.151-13.321 2.494-5.488 39.367-72.96 39.367-72.96s27.886-11.066 46.34-1.024c18.453 10.042 21.528 21.382 21.528 21.382l-12.917 26.78z"/>
            <path fill="#245EAD" d="M174.837 308.876c-3.082 6.76-2.573 11.521 6.165 13.315 6.987 1.434 14.796.82 20.14-.41 8.84-2.033 16.815-7.47 25.482-10.652 7.809-2.867 15.823-3.072 20.55-3.277 4.726-.205 7.329-4.165 6.507-7.99-.56-2.603-1.888-3.996.685-5.462.668-.38-79.37 14.13-79.529 14.476"/>
            <path fill="#FF7E59" d="M232.963 383.631a5.233 5.233 0 0 1 3.025-3.246c2.786-1.12 8.088-1.5 14.226-.268 5.469 1.097 8.964 3.644 10.619 5.17 1.176 1.084 1.497 2.817.84 4.279l-7.57 14.79s10.849.985 15.96 1.643c7.98 1.027 9.477 5.466 9.207 9.244-.204 2.876-2.455 6.779-7.775 8.011-4.224.98-32.742 7.66-37.24 7.806-6.344.206-11.664-4.93-11.255-11.708.345-5.716 7.672-28.662 9.963-35.721"/>
            <path fill="#E86A46" d="M176.813 428.602c-3.401-1.27-9.958-3.59-11.008-2.975-1.427.835-8.566 24.632-8.566 24.632s-1.478 3.793-.254 5.741c10.3-10.699 14.735-19.935 14.735-19.935.246-.38 2.192-3.316 5.093-7.463"/>
            <path fill="#245EAD" d="M245.51 260.224l-2.555 14.73c-.63 3.628 2.242 6.916 5.935 6.796l12.022-.39 1.768 3.93-35.086 10.026 17.917-35.092z"/>
            <path fill="#42426C" d="M231.288 289.443s15.32-1.9 30.093-7.055l3.146 5.427s-29.273 18.994-51.705 23.2l18.466-21.572z"/>
            <path fill="#2474CD" d="M220.208 228.803s8.988-6.577 15.982-9.538c6.694-2.834 12.217-5.154 19.533-1.452 7.923 4.009 12.704 11.474 20.08 19.492 7.401 8.044.752 13.685.752 13.685l-56.347-22.187z"/>
            <path fill="#245EAD" d="M250.677 249.143l17.543-5.709-14.664-9.067z"/>
            <path fill="#42426C" d="M249.754 256.53s13.737-12.053 24.006-9.943c-6.285-5.592-8.483-3.583-17.962-3.45-1.373 2.813-6.044 13.394-6.044 13.394"/>
            <path fill="#2474CD" d="M258.294 275.636C266 289.05 272.3 301.491 281.75 307.98c6.859 4.708 8.848 4.093 17.49 5.117 8.642 1.023 28.188 2.252 32.098 1.228 3.91-1.023 4.938-8.188 3.91-11.463-1.03-3.275-3.91-5.322-3.91-5.322s-3.91-1.228-9.054-3.685c-5.143-2.456-13.168-6.755-20.37-9.211-1.846-.63-3.812-2.287-5.143-5.732-3.087-7.983-5.404-12.161-7.613-17.604-4.321-10.644-11.934-16.99-22.84-14.329-6.835 1.668-17.9 11.463-8.024 28.658"/>
            <path fill="#42426C" d="M186.896 313.17c10.705.888 24.47 1.844 33.313-5.12 0 0 17.685-27.442 32.08-56.523 8.693-17.562 1.234-21.299-5.758-24.575-4.596-2.154-11.585-4.438-26.185-3.414-17.086 1.199-23.197 11.333-26.733 17.203-4.935 8.192-16.314 29.218-22.346 40.891-2.104 4.072-8.225 16.588-1.645 24.37 4.96 5.866 9.87 6.554 17.274 7.168"/>
            <path fill="#3C3C65" d="M255.523 243.54c2.772-10.783-3.276-13.816-9.01-16.536-4.604-2.185-11.606-4.5-26.234-3.462-17.118 1.215-23.24 11.494-26.783 17.447-1.591 2.675-4.915 8.602-7.45 13.225 9.27 0 28.19.761 40.689.346 8.781-.292 28.174-8.632 28.788-11.02M195.887 293.823c-10.036-1.363-19.42-1.454-28.749-1.102-.916 4.535-.75 9.486 2.49 13.301 4.974 5.856 9.9 6.543 17.323 7.156 10.316.851 23.454 1.744 32.334-4.354-4.864-9.077-13.362-13.637-23.398-15"/>
            <path fill="#2B2B51" d="M407.188 312.862s-4.485-4.893-12.154-6.768c-.44-.108-.425-.585.027-.593 2.144-.04 4.752-.123 6.013.561 3.107 1.688 6.565 6.748 6.565 6.748l-.451.052zM251.218 346.107c1.919.337 4.974.855 7.327 1.251a.497.497 0 0 1-.026.99l-11.535 1.453s1.965-2.333 4.234-3.694"/>
            <path fill="#E9EEFB" d="M281.146 421.264s-.61-6.345-7.447-4.701c-4.076.98-5.791 6.102-10.436 6.335-4.645.233-6.734-.934-10.45 1.634a2903.163 2903.163 0 0 1-9.522 6.534l37.855-9.802zM358.704 314.04s1.645-4.126 6.491-.815c4.847 3.31 4.997 5.627 8.202 7.606 2.666 1.644 3.28.641 5.947 1.644 3.28 1.233 3.315 2.81 7.587 5.344 9.999 5.932 24.4 14.594 24.4 14.594l-46.48-17.914-6.147-10.46z"/>
            <path fill="#FFF" d="M321.761 102.88c-5.646.454-8.87-2-9.35-7.957a4.61 4.61 0 0 1-.221.019c.478 5.957-2.361 8.898-7.96 9.348-.007.135.023.222.023.222 5.593-.448 8.89 2.292 9.345 7.956.07.001.157.006.223-.017-.455-5.665 2.312-8.89 7.95-9.347 0 0-.002-.115-.01-.224M348.815 133.366c.079.183.084.26.145.281.028.009.826.158.826-.04.02-2.112 5.487-4.886 6.065-3.138.426-.814.872-1.63.975-2.587-.008-.132.03-.18.03-.18-.682-1.576-9.99 1.071-8.041 5.664m8.042-8.099v-.003a7.395 7.395 0 0 0-1.063-2.617c-3.134-3.042-13.44 1.552-8.862 9.797.14.253.306.385.373.329.068-.056.4-.123.335-.378-1.695-6.655 6.59-9.181 9.217-7.128m-4.174-4.336c.062.018.594.202.459.069a1.596 1.596 0 0 0-.481-.34c-8.988-4.113-14.383 8.67-7.361 13.41.267.183.453.311.51.307.078-.002 1.63.914.395-.709-4.684-6.14-.834-15.486 6.478-12.737"/>
            <path fill="#FFF" d="M355.66 123.165c-.425 1.816-6.607-.616-7.681-2.19-.11-.172-.197-.206-.228-.191-.062.025-.1.096-.12.295-.26 2.518 6.06 6.394 9.226 4.916a.762.762 0 0 0-.04-.208 7.379 7.379 0 0 0-1.157-2.622m-9.77-1.011c.022-.271.042-.384-.033-.44-.075-.055-.208.12-.364.38-3.062 5.18 5.616 11.667 10.519 9.245.462-.879.75-1.833.845-2.814v-.003c-2.572 2.392-11.338-1.68-10.967-6.368m-.856-.93c.193-.225.38-.44.302-.443-.06-.003-.26.122-.532.323-5.067 3.754-2.757 13.442 4.464 14.445l.001.007a6.64 6.64 0 0 0 .621-.036 7.234 7.234 0 0 0 2.375-.683c.655-.336 1.02-.58 1.627-1.067.066-.056.132-.115.195-.173-5.926 2.64-14.024-6.334-9.053-12.373"/>
        </g>
    </g>
</svg>
