<?xml version="1.0" standalone="no"?><!-- Generator: Gravit.io --><svg xmlns="http://www.w3.org/2000/svg" xmlns:xlink="http://www.w3.org/1999/xlink" style="isolation:isolate" viewBox="0 0 2406.408 1112.816" width="2406.408" height="1112.816"><defs><clipPath id="_clipPath_Ycj5rDeKOjPgqwUsxtduyozxGwC2GnwX"><rect width="2406.408" height="1112.816"/></clipPath></defs><g clip-path="url(#_clipPath_Ycj5rDeKOjPgqwUsxtduyozxGwC2GnwX)"><path d=" M 2234.166 1060.278 C 2234.166 1060.278 2237.903 1032.437 2221.719 1001.263 C 2210.274 979.224 2221.719 956.379 2231.678 931.443 L 2241.637 906.509 C 2241.637 906.509 2246.539 896.694 2259.484 907.341 C 2271.097 916.898 2275.247 930.195 2275.247 945.158 C 2275.247 960.121 2267.779 976.329 2271.515 986.3 C 2275.247 996.276 2283.546 1013.735 2283.96 1027.032 C 2284.376 1040.328 2278.986 1074.822 2278.986 1074.822 L 2234.166 1060.275 L 2234.166 1060.278 Z " fill-rule="evenodd" fill="rgb(216,221,234)"/><path d=" M 2406.408 1084.766 C 2406.408 1088.943 2387.116 1095.694 2357.629 1101.281 C 2334.354 1105.685 2304.933 1112.816 2272.26 1112.816 C 2219.704 1112.816 2164.393 1097.206 2136.672 1088.126 C 2130.831 1086.208 2131.042 1082.831 2136.993 1081.239 C 2148.95 1078.031 2171.034 1074.623 2182.007 1071.44 C 2204.769 1064.836 2238.531 1056.751 2267.988 1057.314 C 2296.218 1057.852 2329.962 1069.694 2352.341 1073.031 C 2388.69 1078.444 2406.408 1079.794 2406.408 1084.766 Z " fill-rule="evenodd" fill="rgb(233,238,251)"/><path d=" M 2232.498 896.65 L 2389.231 896.65 L 2389.231 1092.535 L 2232.498 1092.535 L 2232.498 896.65 Z " fill="none"/><path d=" M 2260.065 1092.478 C 2260.065 1092.478 2224.686 1094.366 2234.087 1076.242 C 2245.45 1054.327 2256.816 1027.537 2262.907 1008.865 C 2265.562 1000.72 2276.108 988.482 2296.601 971.93 C 2317.707 954.882 2338.008 928.902 2347.755 913.478 C 2355.9 900.583 2357.494 893.999 2367.234 897.651 C 2376.978 901.3 2394.056 925.973 2387.943 954.882 C 2383.474 975.988 2369.505 1000.845 2346.534 1013.327 C 2327.86 1023.477 2327.454 1034.843 2328.672 1039.71 C 2329.887 1044.58 2334.757 1064.473 2314.055 1077.866 C 2293.356 1091.263 2260.065 1092.478 2260.065 1092.478 Z  M 2356.854 1101.127 L 2407.96 1100.716 C 2407.96 1100.716 2420.091 1101.054 2417.774 1092.954 C 2416.138 1087.232 2413.684 1080.29 2413.684 1080.29 C 2413.684 1080.29 2412.867 1073.751 2401.013 1074.974 C 2390.003 1076.115 2367.485 1078.242 2367.485 1078.242 L 2356.854 1101.127 L 2356.854 1101.127 Z " fill-rule="evenodd" fill="rgb(233,238,251)"/><path d=" M 219.468 127.998 C 219.468 127.998 222.361 106.213 209.831 81.82 C 200.973 64.576 209.831 46.699 217.541 27.186 L 225.251 7.678 C 225.251 7.678 229.044 -0.003 239.065 8.327 C 248.056 15.805 251.268 26.209 251.268 37.917 C 251.268 49.626 245.485 62.31 248.379 70.112 C 251.268 77.917 257.691 91.578 258.011 101.983 C 258.335 112.387 254.161 139.379 254.161 139.379 L 219.468 127.998 Z " fill-rule="evenodd" fill="rgb(216,221,234)"/><path d=" M 354.408 146.565 C 354.408 149.91 339.271 155.319 316.132 159.794 C 297.869 163.323 274.784 169.034 249.146 169.034 C 207.907 169.034 164.507 156.529 142.754 149.256 C 138.17 147.721 138.336 145.014 143.006 143.74 C 152.389 141.169 169.718 138.441 178.328 135.89 C 196.188 130.6 222.679 124.123 245.793 124.574 C 267.946 125.004 294.423 134.489 311.984 137.165 C 340.506 141.5 354.408 142.582 354.408 146.565 Z " fill-rule="evenodd" fill="rgb(233,238,251)"/><path d=" M 216.512 0 L 339.581 0 L 339.581 151.241 L 216.512 151.241 L 216.512 0 Z " fill="none"/><path d=" M 238.157 151.197 C 238.157 151.197 210.378 152.656 217.76 138.662 C 226.682 121.743 235.607 101.057 240.39 86.641 C 242.473 80.354 250.755 70.903 266.847 58.123 C 283.418 44.96 299.358 24.903 307.012 12.993 C 313.407 3.037 314.659 -2.046 322.31 0.773 C 329.961 3.59 343.368 22.639 338.568 44.96 C 335.06 61.257 324.092 80.449 306.054 90.086 C 291.39 97.923 291.074 106.699 292.027 110.455 C 292.982 114.217 296.808 129.575 280.551 139.916 C 264.297 150.26 238.159 151.198 238.159 151.198 M 314.374 160.138 L 353.987 159.813 C 353.987 159.813 363.391 160.08 361.594 153.689 C 360.326 149.174 358.425 143.694 358.425 143.694 C 358.425 143.694 357.791 138.534 348.602 139.499 C 340.067 140.399 322.614 142.079 322.614 142.079 L 314.374 160.138 Z " fill-rule="evenodd" fill="rgb(233,238,251)"/><path d=" M 51.173 430.598 L 49.419 439.236 C 45.714 449.2 41.974 453.774 37.275 460.46 C 32.747 466.899 32.583 476.108 33.573 485.412 C 35.133 500.024 37.772 514.795 42.237 515.777 C 46.704 516.759 54.915 506.95 55.911 484.432 C 56.198 477.856 58.63 474.284 62.903 470.962 C 68.013 466.982 71.524 461.357 72.783 455.059 L 77.976 429.127 L 51.173 430.598 Z " fill-rule="evenodd" fill="rgb(197,203,216)"/><path d=" M 139.408 425.222 C 139.408 426.737 113.911 433.815 75.48 433.815 C 53.846 433.815 44.499 432.3 28.274 431.796 C 15.987 431.413 0 430.867 0 426.992 C 0 424.969 10.817 418.902 23.356 416.88 C 33.559 415.235 48.431 408.034 67.613 408.034 C 89.247 408.034 100.182 413.041 110.393 415.11 C 131.252 419.341 139.408 422.187 139.408 425.222 Z " fill-rule="evenodd" fill="rgb(216,221,234)"/><path d=" M 54.89 423.796 L 116.517 423.796 L 116.517 522.874 L 54.89 522.874 L 54.89 423.796 Z " fill="none"/><path d=" M 54.89 423.796 C 54.89 423.796 62.903 429.624 64.405 437.953 C 67.678 456.096 62.4 462.606 68.912 474.932 C 77.075 490.392 97.945 522.876 107.472 522.876 C 115.986 522.876 118.491 501.87 114.981 490.457 C 111.864 480.306 103.966 477.217 104.966 468.085 C 105.97 458.953 106.522 448.426 101.964 441.149 C 93.951 428.362 89.943 423.796 89.943 423.796 L 54.888 423.796 L 54.89 423.796 Z  M 113.418 417.53 L 138.612 417.415 C 138.612 417.415 143.568 417.108 143.914 420.842 C 144.166 423.547 144.132 426.719 144.132 426.719 C 144.132 426.719 143.693 429.6 137.283 429.061 C 131.333 428.558 119.164 427.62 119.164 427.62 L 113.418 417.53 Z " fill-rule="evenodd" fill="rgb(216,221,234)"/></g></svg>