<svg xmlns="http://www.w3.org/2000/svg" xmlns:xlink="http://www.w3.org/1999/xlink" width="373" height="560" viewBox="0 0 373 560">
    <defs>
        <rect id="a" width="373" height="560" rx="4"/>
        <path id="c" d="M.524 24.105c0 13.187 13.007 22.376 23.5 22.376 9.25 0 12.835-8.096 13.75-21.251 1-14.374 1-24.999-8.249-24.999C19.031.231.524 10.919.524 24.105"/>
        <radialGradient id="d" cx="154.577%" cy="46.486%" r="100.455%" fx="154.577%" fy="46.486%" gradientTransform="scale(-1 -.81478) rotate(-12.2 -4.844 14.41)">
            <stop offset="0%" stop-color="#FFE8E8"/>
            <stop offset="100%" stop-color="#FDACAC"/>
        </radialGradient>
        <path id="f" d="M.409.72H428.04V281H.409z"/>
        <path id="h" d="M.942 13.898c-1.334 11.833 1.219 30.214 11.25 31.5 9.749 1.249 18.165-9.959 20.916-26.876C34.69 8.792 29.654 2.153 21.691.897a28.03 28.03 0 0 0-4.348-.348C9.612.55 2.056 4 .942 13.898"/>
        <radialGradient id="i" cx="-53.582%" cy="-11.462%" r="139.237%" fx="-53.582%" fy="-11.462%" gradientTransform="matrix(.66977 .54165 -.74257 .48855 -.262 .232)">
            <stop offset="0%" stop-color="#FFE8E8"/>
            <stop offset="100%" stop-color="#FDACAC"/>
        </radialGradient>
    </defs>
    <g fill="none" fill-rule="evenodd">
        <mask id="b" fill="#fff">
            <use xlink:href="#a"/>
        </mask>
        <g mask="url(#b)">
            <path fill="#FFF" d="M176.94 467.217l-69.666-58.333 133-.5z"/>
            <path fill="#FFF" d="M52.108 412.717c-12 0-40-6-45-26.5s4-32.5 13-39 16.5-7.5 25.5-16.5 14.237-20.644 28-29c14-8.5 22.875-8.168 31.5-8.5 13-.5 16.5-3.5 18.5-11.5s5.458-29.567 32.5-39c21.5-7.5 44.666-4.833 58.167 17.167 11.125 18.13 9.666 32.333 28.666 37.333 19.25 5.066 27.278-10.514 48-5.333 16 4 22.667 25.333 22.667 25.333l40 95.333s-289.5.167-301.5.167"/>
            <g transform="translate(152 293.153)">
                <mask id="e" fill="#fff">
                    <use xlink:href="#c"/>
                </mask>
                <path fill="url(#d)" d="M.524 24.105c0 13.187 13.007 22.376 23.5 22.376 9.25 0 12.835-8.096 13.75-21.251 1-14.374 1-24.999-8.249-24.999C19.031.231.524 10.919.524 24.105" mask="url(#e)"/>
            </g>
            <path fill="#423748" d="M187.774 302.717s-.25 7.917-8.667 11c-4.8 1.758-8.333 3.167-8.333 3.167s-.833 14.333-3.833 13.666c-13.46-2.99-22-16.166-22-16.166s-1.5-2.834-1.334-5.334l44.167-6.333z"/>
            <path fill="#FF7E59" d="M191.19 303.634s-8.041 4.5-25.416 7.25c-14.36 2.273-22.663.579-22.663.579-.774-.02-1.106-.615-1.181-1.208-.614-4.871-1.541-26.895 22.386-29.871 19.267-2.396 27.344 14.257 27.967 21.745.06.73-.366 1.4-1.092 1.505"/>
            <path fill="#FF7E59" d="M165.44 309.217l12.594 19.94 1.907 10.06-2.833 1.333-2.441-9.81-13.56-20.69z"/>
            <path fill="#FFAEAE" d="M176.46 314.971c.631 2.87 1.397 6.913-.58 7.197-2.004.287-5.356-2.12-6.253-5.525-.896-3.403.407-5.69 2.366-6.206 1.958-.516 3.71 1.096 4.466 4.534"/>
            <path fill="#FF7E59" d="M177.108 305.884l-2.833 22.167 3.5 3.666 3.666-26.333z"/>
            <path fill="#E86A46" d="M224.858 352.675l-1.708 2.521 6.625 13.812s6.125 1.875 15.625-8l-2.5-16.125-18.042 7.792z"/>
            <path fill="#245EAD" d="M155.666 402.402s9.344 7.58 16.108 6.981c11.333-1 30.417-15.419 39.594-22.839 9.694-7.84 18.36-14.619 20.656-16.66 2.298-2.042.913-7.988-.584-11-1.52-3.063-4.582-6.792-7.832-6.667-1.365.052-7.584 3.916-14.394 7.027-6.053 2.765-34.749 14.455-34.749 14.455l-18.8 28.703z"/>
            <path fill="#2B2B51" d="M60.94 434.884s.722 8.864 6.056 16.622c3.699 5.38 4.528 9.378 4.685 13.575.212 5.684.593 13.303 1.26 21.136.976 11.468 1.449 16 .609 20.593-.4 2.179-1.88 3.842-3.526 5.324-5 4.5-9.434 9.34-13.083 20.083-6 17.667-11.667 38-11.667 38l23.667 8.667s21.667-32.667 29.333-45c7.667-12.333 11.667-16.667 15.334-34.667 3.76-18.46 8.78-70.887 8.333-70.666l-61 6.333z"/>
            <path fill="#2474CD" d="M396.419 395.664c2.424 10.931-5.084 20.647-13.93 20.292-13.673-.55-14.091-4.064-16.346-11.494-2.578-8.489 3.429-20.459 11.909-20.039 10.35.512 16.382 2.291 18.367 11.242"/>
            <path fill="#245EAD" d="M384.806 411.647c-3.372-2.541-4.468-7.276-2.971-12.612 1.41-5.03 5.367-9.344 9.54-8.438 4.639 1.006 5.165 6.806 5.49 9.671-.568-14.606-9.745-16.168-19.49-14.816-8.408 1.166-13.81 10.521-11.232 19.01 2.255 7.431 4.473 12.031 15.81 11.831 6.832-.121 10.848-3.549 13.145-8.601-3.023 4.682-7.227 6.264-10.292 3.955"/>
            <path fill="#42426C" d="M335.441 300.05s3.39-1.319 7.833-1.167c6.375.22 21 1 29.333 17 6.465 12.413 14 45.334 15.5 54.5 1.58 9.654 1.834 14.334-4.333 18.667-7.167 4-12.333 1.667-12.333 1.667s-8-9-17.667-31.834c-9.667-22.833-17.5-37-17.5-37l-.833-21.833z"/>
            <path fill="#245EAD" d="M287.274 348.217s-16.667-6.667-32-14.667c-10.19-5.316-15.349-11.465-18.833-30.166-2.773-14.884-5.73-28.027-6.12-30.59a.853.853 0 0 1 .595-.944l12.71-3.994a1.058 1.058 0 0 1 1.31.637c.517 1.383.873 3.92 3.171 8.057 3.087 5.557 5.334 10.5 12.09 26.027 1.02 2.348 2.702 4.348 5.077 5.307 5.505 2.222 16.163 6.902 19 6.666 4-.333 5.667-1.333 10.667-.333l-7.667 34z"/>
            <path fill="#2474CD" d="M284.274 314.55c-1.5 4.583-2.25 25.083.917 35.667l9.75-36c-5-1-6.657.151-10.667.333"/>
            <path fill="#42426C" d="M328.191 313.967l-2.542-19.583s5.375-.25 8.125 2.166c2.75 2.417 1.553 7.648.167 9.917-2.75 4.5-5.75 7.5-5.75 7.5"/>
            <path fill="#2474CD" d="M284.719 334.707c-1.19 2.015-1.763 4.344-1.58 6.677.386 4.931 1.24 10.076 2.303 15 1.833 8.5 4.406 12.934 11.5 20.5 5 5.333 9.643 8.616 16 13 4.833 3.333 7.666 7.333 7.666 7.333l49.917-8.708s-2.995-6.058-6.875-13.125c-3.5-6.375-7.542-16.667-8.542-24.334-1-7.666-3.153-17.592-8.333-23.333-6.167-6.833-17.333-10.667-17.333-10.667l-34-.5-10.723 18.157z"/>
            <path fill="#42426C" d="M298.441 327.384s-1.827 9.795 2.833 9.5c3.292-.208 6.875-4.083 6.875-4.083l-2.708-6.417-7 1z"/>
            <path fill="#245EAD" d="M307.65 385.884l16.265-4.146a39.64 39.64 0 0 1 18.79-.195l27.57 6.424-40-21.75-22.626 19.667zM340.087 361.321l5.062-5.875-1.374 7.938zM283.107 340.884s-.052 4.719 2.792 17.437c-.095-2.216-.938-9.5.187-17.125 1.305-8.842 7.188-17.98 7.188-17.98l-6.667 5.5-3.5 12.168z"/>
            <path fill="#42426C" d="M283.129 341.467s-1.187-5.917 1.312-13.25c2.109-6.187 7.334-10.708 7.334-10.708l2.167 5.208s-3.788 2.361-6.667 7.167c-3.217 5.37-3.896 9.812-4.146 11.583"/>
            <path fill="#E86A46" d="M370.476 474.706s12.22 3.886 14.555 6.266c2.335 2.379.37 10.845.37 10.845l-17.795-2.713 2.87-14.398z"/>
            <path fill="#423748" d="M332.274 397.217s9.525-5.067 23-8.333c11-2.667 15-1 15-1l4 7-42 2.333zM287.274 296.509s.708 1.333.333 2.958c-.375 1.625-2.57 3.896-2.708 6.792-.125 2.625.875 5.75 5.5 7.75l.125-17.625-3.25.125z"/>
            <path fill="#2B2B51" d="M363.274 424.884l-19.108 18.333-18.392-19.924z"/>
            <path fill="#E9EEFB" d="M52.024 578.384c1-1.5 24.75-36.5 38.75-47s21.666-17.333 47.5-41.5c11.947-11.176 17.833-20 33.333-32s25.667-17.5 36.167-27 17.833-25.5 33.833-30c5.541-1.558 16.693 3.633 28.167 6 13.282 2.74 23.163 16.74 33.25 24.5 12.971 9.979 12.5 14.75 25.25 23.75 8.996 6.35 22 14.5 29 21s31 20.75 33 30.25 3.5 25 3.5 25l-143.5 3.5 85 93.5-190 75s-8.5-1-27.5-.5-40.167-5-65.5-11.667c-20.406-5.37-7.826-21.12-19.25-27.833-24.25-14.25-26.75-21-26.75-21s9.771-18.556 18.25-31.75c8.48-13.194 27.5-32.25 27.5-32.25"/>
            <path fill="#D2D8EE" d="M417.274 678.884s13.5 2.667 24.5-.833 9-6 24.333-5.5c16.825.548 16.257 1.604 26.667 5.833 10.667 4.333 18.167 7.167 28.5 7.5 7.48.24 12.31-1.026 15.386-2.943a4.452 4.452 0 0 0 1.69-5.611c-1.72-3.83-5.806-8.626-9.909-16.78-3.926-7.798-11.287-24.185-16.667-32.5-14.667-22.666-42.5-64.166-42.5-64.166l-52.5-18-51.5 43.5 33.5 85 18.5 4.5zM357.274 476.134c-7-6.5-20.004-14.65-29-21-12.75-9-11.75-14.5-25.25-23.75-9.685-6.636-26.504-4.646-11.75 8 9.376 8.037 11 17.5 19 30 7.927 12.386-1 18.5 2 25s-5 1.5-10.5 4.5 8.5 21.5 8.5 21.5l83.01 6.386c-.6-5.325-1.697-14.15-3.01-20.386-2-9.5-26-23.75-33-30.25M337.243 605.943c-10.246-9.515-29.28-21.443-42.447-30.738-18.662-13.173-17.199-21.224-36.959-34.763-14.175-9.713-35.169-10.336-17.198 11.71 6.302 7.731-1.698 19.731 12.968 39.731 12.73 17.358-2 38.667-19.333 33.333 14 17.334 34.175 45.496 34.175 45.496l121.502 9.346c-.877-7.795-2.483-20.709-4.405-29.838-2.928-13.905-38.057-34.763-48.303-44.277"/>
            <path fill="#C3CBE8" d="M482.896 578.825c.271 5.178-4.955 18.06-24.622 18.06-11.086 0-21.643-6.012-32.717-6.52-5.642-.259-20.674-.49-21.944 8.01-1.672 11.176 16.328 14.51 21.3 20.19 2.711 3.096 4.42 7.897 2.988 11.273-.667 1.574-.066 3.371 1.348 4.333 2.296 1.562 4.121 3.643 4.712 6.382 3.313 15.331-16.354 27.664-28.687 30.998-4-6-53.333-92.334-53.333-92.334l97.836-48.716 33.12 48.324z"/>
            <g transform="translate(139 460.153)">
                <mask id="g" fill="#fff">
                    <use xlink:href="#f"/>
                </mask>
                <path fill="#FFF" d="M97.024 74.48c-1.486-3.917-3.25-19.25 19.25-22.75s40.337 2.796 51.25 4.5c8 1.25 9.86-5.902 17.75-7.25 10.25-1.75 18.688-1.892 34.25 7 14 8 31.5 2.75 31.5 2.75s1.25-7.5-3.25-15.5-18.667-18.832-18.667-18.832 9.534 1.868 18.917-1.167c8.5-2.75 13.5-8.5 22.5-14.5s24.75-13.334 42.417-2.333c6.66 4.146 14.235 12.702 28 15.666 21.666 4.667 28.03 11.578 36.833 22.167 11.5 13.833 22.896 11.327 35.167 9.5 15.666-2.333 17.148 11.276 13.333 17-4 6-22.128 13.02-39.667 7.333-24.666-8-31.47-8.47-42.333-5.666-10.333 2.666-13.074 10.294-13.333 16-.334 7.333 8.487 12.873 15.333 11.083 6.12-1.6 6-8 .25-9.25a5.705 5.705 0 0 0-1.736-.106c-1.132.103-1.794-1.265-.956-2.033 1.64-1.503 4.468-2.752 9.192-1.611 7.25 1.75 11.25 8.25 8.5 15.25-2.816 7.168-12.528 5.004-13 9.25-.25 2.25 4 3.5 4.5 10s-4.75 9.75-4.75 9.75-12.196-19.27-17.5-24c-9.25-8.25-12.25-2.75-26.75-8.5-12.094-4.796-36.255-4.89-36.75 5.25-.5 10.25-1.5 16.25-6 21.75-5.006 6.119-17-1.75-22.5 3.25s-2 14.5 5.5 21.5 19.158 16.117 25.25 24c4.25 5.5 12.736 17.339 7 23.75-4.25 4.75-9.75 3.25-10.75 7-.966 3.623 5 5.5 12 9s17.5 3 19.5 7c1.628 3.257-11.117.092-26.5 10.5-10.146 6.865-8.646 15.93-22 22-22 10-30-1-66.5 12.5-12.273 4.54-24.472-11.83-45 1-28 17.5-63.702 19.943-87.5 1.5-20-15.5-17.5-11.5-43-19.5-16.143-5.064 2.5-21 11-33 18.198-25.691 38.085-21.687 59.5-28.5 22-7 39.25 5.5 51 3.25 9.246-1.771 15.732-9.751 21.5-14.75 7.5-6.5 15.95-8.734 20-10 8-2.5 6.75-8-.75-13s-11-9.75-14-16.25-8.677-14.015-17-23.5c-10.75-12.25-17-16.25-24.5-20.75s-13.75-10.5-16.5-17.75" mask="url(#g)"/>
            </g>
            <path fill="#E9EEFB" d="M523.274 525.884c-3.9-4.876-3.089-11.274.83-14.735-2.445-1.628-4.886-3.825-7.33-6.765-8.803-10.59-15.167-17.5-36.833-22.167-13.302-2.864-20.819-10.938-27.32-15.221.251 2.06.492 5.89 2.153 8.138 4.25 5.75 11.577 3.817 15.25 13 6 15-7 29.25-26.75 34.75s-32-1.5-49.75 8.75c1 8.25 1 19.75-12.25 27.25-4.437 2.512-16.042 1.006-25 12-11 13.5 2 32 14 44 10 11-10 21-23 25 5 15-4 34-18 39-15 5-30-9-44 2-5 4-9 8-12 14-5.129 10.257-7 24.729-3.045 35.472a97.223 97.223 0 0 0 6.045-3.472c20.528-12.83 32.727 3.539 45-1 36.5-13.5 44.5-2.5 66.5-12.5 13.355-6.07 11.854-15.135 22-22 15.383-10.408 28.128-7.243 26.5-10.5-2-4-12.5-3.5-19.5-7s-12.966-5.377-12-9c1-3.75 6.5-2.25 10.75-7 5.736-6.411-2.75-18.25-7-23.75-6.092-7.883-17.75-17-25.25-24s-11-16.5-5.5-21.5 17.494 2.869 22.5-3.25c4.5-5.5 5.5-11.5 6-21.75.494-10.14 23.656-9.296 35.75-4.5 14.5 5.75 18.5-.5 27.75 7.75 5.304 4.73 17.5 24 17.5 24s5.25-3.25 4.75-9.75-4.75-7.75-4.5-10c.472-4.246 10.184-2.082 13-9.25 2.75-7-1.25-13.5-8.5-15.25-4.709-1.137-7.535.102-9.177 1.598-.843.767-.197 2.15.938 2.047a5.66 5.66 0 0 1 1.74.105c5.75 1.25 5.868 7.65-.25 9.25-6.847 1.79-15.668-3.75-15.334-11.083.05-1.103.196-2.277.468-3.473-8.692-5.218-19.61-4.504-29.149-.556-1.359.56-2.79-.658-2.394-2.074 2.045-7.317 8.645-11.952 14.741-14.564 14.167-5.5 26.854 5.377 26.946 5.566a22.836 22.836 0 0 1 2.721-.9c10.863-2.803 17.667-2.333 42.333 5.667 11.474 3.722 23.198 2.003 31.056-1.311-13.15.402-24.757-.664-33.389-11.022"/>
            <path fill="#FF7E59" d="M346.274 469.55c-2.667-1.666-6.684-9.315-.333-16 6.333-6.666 12.833-5.166 15-3.332 2.166 1.833 11.596 11.262 13.881 13.547 2.285 2.286 2.768 6.143 2.12 9.452-1.39 7.073-1.335 18.334-5 25-3.426 6.227-10.5 7.667-15 4.667s-4.567-9.52-3-15c3.332-11.667-.335-13.333-.335-13.333s-4.666-3.334-7.333-5"/>
            <path fill="#E86A46" d="M232.274 271.384s-2.25-1.5-5.25-5.5c-2.827-3.77-3.25-5.367-3.25-9.25 0-5.5-.25-10 .875-11.375s2-1.5 3.625-.875 5.75 4 8.375 6c3.006 2.29 3.75 6.375 4.625 10.25.567 2.514.667 6.917.667 6.917l-9.667 3.833zM254.15 387.509l-12.293-.958s-4-.584-5.666-4.25c-1.33-2.928.952-3.792 1.75-3.084 1.5 1.334 2.5 1.667 4.833 2.25 2.333.584 6.708-2 10.625 1.917.5 2.375.75 4.125.75 4.125"/>
            <path fill="#B6BAC7" d="M244.613 407.425a2.332 2.332 0 0 1-2.531-2.112L221.314 177.3a2.334 2.334 0 0 1 4.648-.416l20.767 228.006a2.334 2.334 0 0 1-2.116 2.536"/>
            <path fill="#FF7E59" d="M411.821 232.997c-3.989-1.906-11.29-5.51-17.297-9.113-8.832-5.299-16.5-11-16.5-11s9.412-5.124 15.75-9.5c7.311-5.048 11.712-9.61 13.712-11.917.493-.568.031-1.44-.717-1.36-7.569.81-35.03 3.45-55.745 1.527-9.5-.882-16.32-2.716-22.792-4.745-12.19-3.823-23.144-8.342-48.458-8.505-25.849-.167-52.564 10.094-57.317 12.007a.285.285 0 0 0 .018.535c2.655.914 11.434 4.923 13.55 18.458 2.431 15.564-7.45 24.061-9.597 25.704-.088.068-.023.206.085.18 4.057-.944 32.522-7.384 54.761-7.384 22.261 0 51.766 5.748 72.342 8.03 1.608.18 3.168.338 4.658.47 26.422 2.331 45.9-.169 53.27-1.399 1.014-.17 1.207-1.544.277-1.988"/>
            <path fill="#E86A46" d="M231.445 194.49c9.38 7.674 9.972 20.475 6.178 32.448-.286.902.878 1.553 1.49.832 3.199-3.756 5.625-8.062 6.912-12.886 2.809-10.537-4.25-18.599-13.55-22.118-1.081-.409-1.925.992-1.03 1.724"/>
            <path fill="#FF7E59" d="M234.483 270.821s-2.605-2.083-3.083-6.062c-.124-1.022-.186-1.963-.17-2.787.024-1.318-.508-2.582-1.531-3.412-.866-.702-1.838-1.613-2.424-2.552-1.366-2.185-1.75-4.999-.625-5.874s1.5.375 4.5 2.5 5.433 2.9 7.625 4.25c3.25 2 4.708 11.02 4.708 11.02l-9 2.917zM253.65 385.384s-4.377-1.066-7.633-1.486c-.688-.09-1.355.17-1.872.633a2.799 2.799 0 0 1-1.809.728c-.83.024-1.377-.248-1.748-.607a1.685 1.685 0 0 0-1.659-.39c-3.764 1.127-5.796 2.777-5.405 5.122.25 1.5 2 2 2.75 3.75s1.224 3.71 3 6.375c2 3 5.25 4.125 9.25 3.375s10-4.25 10-4.25l-4.875-13.25z"/>
            <path fill="#E09595" d="M301.107 328.384s3.167.5 4.167 2.833c1.175 2.74.167 6.667.167 6.667l16.833-16.333-2.333-11.667-18.834 18.5z"/>
            <path fill="#E86A46" d="M305.482 329.884c-.499.072-1.18-.144-1.607-.411-1.009-.63-1.723-1-2.539-.964.188 2.062 1.688 1.625 2.563 3.75.887 2.153 1.5 3.75 2.375 5.125l14.5-14.417-.25-7.208c0 2.875-6.333 12.875-15.042 14.125"/>
            <path fill="#423748" d="M326.941 300.134c-.042 3.292 6.52 3.402 5.208 8.125-.833 3-6.954 12.344-12.812 17.812-.938.875-2.896-1.437-2.813-4.25.075-2.532 3.031-5.416 1.031-6.312-1.065-.477-3.593 2.146-1.468-6.312 1.296-5.162 10.917-14.122 10.854-9.063"/>
            <g transform="translate(288 283.153)">
                <mask id="j" fill="#fff">
                    <use xlink:href="#h"/>
                </mask>
                <path fill="url(#i)" d="M.942 13.898c-1.334 11.833 1.219 30.214 11.25 31.5 9.749 1.249 18.165-9.959 20.916-26.876C34.69 8.792 29.654 2.153 21.691.897a28.03 28.03 0 0 0-4.348-.348C9.612.55 2.056 4 .942 13.898" mask="url(#j)"/>
            </g>
            <g>
                <path fill="#423748" d="M291.9 296.509s1 4 5.624 6c2.34 1.012 4.875.75 7-.875 1.056-.807 2.252-.875 2.75 1 .542 2.042.125 12.958 9.125 14.375l-.708-6.875 8.583-4.625-2.75-7-29.625-2z"/>
                <path fill="#FF7E59" d="M321.712 300.55l-4.844 11.49 1.156 2.843 6.396-14.166z"/>
                <path fill="#FFAEAE" d="M323.316 307.175c-1.134 2.976-3.995 5.853-5.38 5.325-1.384-.528-.87-3.825-.12-6.992.733-3.098 3.532-4.36 4.916-3.833 1.385.528 1.718 2.524.584 5.5"/>
                <path fill="#FF7E59" d="M313.524 299.727l2.833 17.323s.697-.217.98-.76c.874-1.688 1.218-2.75 1.312-3.282l-2.03-13.187-3.095-.094z"/>
                <path fill="#42426C" d="M314.15 346.884s-.936-6.32 2.624-12.75c3.875-7 8.375-9.375 11.375-10.75s12.625-.875 12.625-.875 5 1.563 6.625 5.688c-4.5-.5-13.583-.896-18.25 1.937s-15 16.75-15 16.75"/>
                <path fill="#2474CD" d="M301.357 336.925s2.712-.415 13.542-9.917c13.25-11.625 17.27-18.368 19-23 1.542-4.125-.239-6.519-2.25-7.625-1.667-.916-6.125-1.875-6.125-1.875l-.083-1.333s4.666.263 8.083 1.708c3.25 1.375 5.964 2.986 8.833 5.917 2.368 2.42 5.46 6.792 6.334 10.083 2.885 10.854-6.165 12.375-9.417 12.375-6.125 0-11.5-.375-14.625 2-1.794 1.364-4.875 3.875-7.208 7.625-1.472 2.365-3.542 7-7.542 9.375s-8.542-5.333-8.542-5.333"/>
                <path fill="#FF7E59" d="M286.942 296.53s6.237 1.573 18.332 2.979c12.095 1.406 22.031 1.594 22.031 1.594.648-.03.938-.531.97-1.031.25-4.01 1.932-22.912-18.876-24.938-16.184-1.576-23 13.875-23.396 20.155-.039.613.33 1.166.94 1.242"/>
                <path fill="#42426C" d="M330.4 369.634s12.874 9.875 39.874 18.25l-10.667-22.167s-12.208-1.708-19.583-4.833l-9.625 8.75z"/>
                <path fill="#2474CD" d="M253.607 382.717c-1.082.451-1.876 3.274-1.333 6.667.667 4.166 4 10.333 6.167 9.833 2.166-.5 5.333-2.167 8.333-2.833 3-.667 32.453-5.84 43.25-11.5 8.583-4.5 11.25-6.167 27.083-20.334 3.698-3.309 16.334-15 11.417-27.916-3.353-8.808-14.262-9.759-20.25-6.417-7.167 4-9.48 9.227-13.333 14.167-6.5 8.333-11.334 15.25-16.334 19-3.577 2.683-11.613 5.812-18.833 8.833-7.393 3.093-16.667 7.5-18.667 8.333-1.858.775-6.327 1.625-7.5 2.167"/>
                <path fill="#E86A46" d="M412.588 233.362c-3.756-1.78-11.648-5.63-18.063-9.478-8.833-5.3-16.5-11-16.5-11s9.412-5.124 15.75-9.5c7.917-5.467 12.423-10.365 14.16-12.444a.554.554 0 0 0-.484-.907c-6.436.706-35.032 3.586-56.426 1.6-9.501-.881-16.321-2.714-22.792-4.744 10.292 13.745 18.292 27.995 25.383 49.025 1.609.179 3.168.339 4.659.47 27.496 2.426 47.47-.38 54.106-1.542.756-.132.899-1.152.207-1.48"/>
                <path fill="#245EAD" d="M298.607 355.05s1.084-9.042.917-11.042c-.167-2-3.403-3.882-4.125-6.625-.625-2.375.042-9.5.042-9.5s-2.834 7.396-2.167 14.063c.667 6.667 5.333 13.104 5.333 13.104M306.587 340.509c-2.438 1-4.12-.001-3.313-.958 1.563-1.855 7.25-5.042 9.626-6.076.409-.177.687.034.187.659-1.99 2.488-5.501 5.965-6.5 6.375"/>
                <path fill="#42426C" d="M374.274 394.884s-50-9-87 14.333c-6.795 4.285-7.345 7.979-7 13.5.333 5.334.926 8.743 9 13.834 15.333 9.666 27.667 12 55.667 30 6.356 4.086 11.666.333 13.666-1.334 2-1.666 5-8 1.334-13-10.566-14.408-22-23.666-22-23.666s19.45.966 26.333-1c14-4 16-13 15.333-19.667-.696-6.965-5.333-13-5.333-13M77.774 430.134s1.25 23.25 24.5 29.75 45.75 10.25 45.75 10.25-7.596 4.937-10.75 14.75c-2.25 7-8.5 30.5-8.5 30.5l29 7.25s24.5-35.25 33.25-48.25c5.343-7.938 6.538-20.613-4-28.75-19.75-15.25-34.417-21.25-57.417-27.75l-51.833 12.25z"/>
                <path fill="#FF7E59" d="M239.65 342.759c-1.495 1.28-1.764 4.015-3.882 5.636-2.294 1.757-3.157 3.658-2.807 6.139.35 2.48 1.302 6.92 2.297 8.52 1.043 1.68 2.708 2.394 5.266 1.955 2.558-.44 3.907-1.938 5.235-3.568 1.304-1.6 1.51-3.348 1.324-5.864-.165-2.243.002-5.741.066-8.193.088-3.35-.389-4.15-2.017-4.698-1.323-.446-3.989-1.207-5.483.073"/>
                <path fill="#E86A46" d="M224.337 352.259c.384-1.966 1.363-5.168 3.813-7.625 2.526-2.534 5.818-3.23 8.565-6.236 1.562-1.71 2.234-3.752 3.55-3.727 1.582.03 2.977 2.774 1.134 7.463a17.55 17.55 0 0 1-2.662 4.552 6.597 6.597 0 0 1-1.933 1.61l-9.512 5.268s-.684-.493-1.518-.847c-.652-.277-.963-.334-1.437-.458"/>
                <path fill="#FF7E59" d="M243.274 413.009s2.068-.648 4.25-1.625c4.071-1.823 7-3.875 10.375-4.125 3.872-.287 10.677 2.922 12.875 5.25 2.125 2.25 4.603 6.647 4.542 8.167-.084 2.083-1.417 3.083-4.917 3.166-1.819.043-2.958 1.417-8.375 4.167-3.656 1.856-7.375 3.25-11.125 3.25s-7.125-.75-7.125-.75l-.5-17.5z"/>
                <path fill="#2474CD" d="M170.524 392.384s-4.25 5.833-18.25 13.833c-3.13 1.789-1.514 3.489-.833 6.667 1 4.667-2.167 9.5-7.917 9.75s-15.5.5-25 4c-10.543 3.884-20.246 10.518-31 13-6.5 1.5-16 2.25-24.5.5-10.63-2.19-11.25-8-7.5-16.25 3.042-6.694 48-89 48-89s34-13.5 56.5-1.25 26.25 26.083 26.25 26.083l-15.75 32.667z"/>
                <path fill="#245EAD" d="M55.524 423.884c-3.75 8.25-3.13 14.06 7.5 16.25 8.5 1.75 18 1 24.5-.5 10.754-2.482 20.457-9.116 31-13 9.5-3.5 19.25-3.75 25-4s8.916-5.083 7.916-9.75c-.68-3.178-2.296-4.878.834-6.667.812-.463-96.558 17.245-96.75 17.667"/>
                <path fill="#FF7E59" d="M126.196 515.411a6.379 6.379 0 0 1 3.697-3.95c3.403-1.364 9.881-1.827 17.381-.327 6.681 1.336 10.951 4.435 12.973 6.293 1.437 1.32 1.83 3.428 1.027 5.207l-9.25 18s13.256 1.2 19.5 2c9.75 1.25 11.58 6.652 11.25 11.25-.25 3.5-3 8.25-9.5 9.75-5.16 1.191-40.003 9.322-45.5 9.5-7.75.25-14.25-6-13.75-14.25.422-6.956 9.373-34.882 12.172-43.473"/>
                <path fill="#245EAD" d="M141.9 364.759l-3.134 18.12c-.772 4.462 2.748 8.507 7.274 8.359l14.734-.48 2.167 4.834-43 12.334 21.958-43.167z"/>
                <path fill="#42426C" d="M124.44 400.55s18.668-2.333 36.668-8.667l3.833 6.667s-35.667 23.333-63 28.5l22.5-26.5z"/>
                <path fill="#2474CD" d="M110.274 326.634s10.967-7.93 19.5-11.5c8.167-3.417 14.906-6.214 23.833-1.75 9.667 4.833 15.5 13.833 24.5 23.5 9.03 9.699.917 16.5.917 16.5l-68.75-26.75z"/>
                <path fill="#245EAD" d="M147.94 352.467l21.834-7.083-18.25-11.25z"/>
                <path fill="#42426C" d="M146.274 361.384s16.667-15 29.125-12.375c-7.625-6.958-10.292-4.458-21.792-4.292-1.666 3.5-7.333 16.667-7.333 16.667"/>
                <path fill="#2474CD" d="M156.774 384.634c9.361 16.382 17.018 31.577 28.5 39.5 8.333 5.75 10.75 5 21.25 6.25s34.25 2.75 39 1.5 6-10 4.75-14-4.75-6.5-4.75-6.5-4.75-1.5-11-4.5-16-8.25-24.75-11.25c-2.244-.77-4.632-2.793-6.25-7-3.75-9.75-6.566-14.853-9.25-21.5-5.25-13-14.5-20.75-27.75-17.5-8.305 2.037-21.75 14-9.75 35"/>
                <path fill="#42426C" d="M70.274 430.134c13.015 1.084 29.75 2.25 40.5-6.25 0 0 21.5-33.5 39-69 10.568-21.438 1.5-26-7-30-5.587-2.63-14.084-5.417-31.834-4.167-20.77 1.463-28.2 13.835-32.5 21-5.999 10-19.833 35.667-27.166 49.917-2.558 4.97-10 20.25-2 29.75 6.03 7.16 12 8 21 8.75"/>
                <path fill="#3C3C65" d="M153.707 344.786c3.364-12.977-3.975-16.628-10.933-19.902-5.587-2.629-14.084-5.417-31.834-4.167-20.772 1.463-28.2 13.835-32.5 21-1.93 3.22-5.964 10.353-9.04 15.917 11.25 0 34.207.916 49.374.416 10.656-.35 34.188-10.389 34.933-13.264M81.108 406.467c-12.167-1.667-23.543-1.779-34.852-1.348-1.111 5.546-.91 11.6 3.019 16.265 6.029 7.16 12 8 21 8.75 12.506 1.041 28.433 2.133 39.198-5.324-5.896-11.1-16.198-16.676-28.365-18.343"/>
                <path fill="#2B2B51" d="M338.4 428.946s-5.595-5.802-15.159-8.026c-.55-.128-.53-.693.033-.703 2.674-.048 5.927-.146 7.5.666 3.875 2.001 8.187 8.001 8.187 8.001l-.562.062zM148.024 470.134c2.38.448 6.167 1.138 9.084 1.665.75.136.722 1.217-.032 1.319l-14.302 1.933s2.437-3.105 5.25-4.917"/>
                <path fill="#E9EEFB" d="M184.024 561.038s-.738-7.63-9-5.654c-4.926 1.178-6.999 7.34-12.612 7.62-5.614.28-8.139-1.124-12.63 1.964-4.49 3.087-11.508 7.858-11.508 7.858l45.75-11.788zM278.61 430.624s2.005-5.017 7.914-.99c5.91 4.026 6.092 6.844 10 9.25 3.25 2 3.998.78 7.25 2 4 1.5 4.042 3.418 9.25 6.5 12.191 7.215 29.75 17.75 29.75 17.75l-56.67-21.788-7.495-12.722z"/>
                <path fill="#FFF" d="M234.265 173.596c-6.813.548-10.704-2.41-11.282-9.596a5.566 5.566 0 0 1-.268.022c.577 7.185-2.849 10.732-9.605 11.275a.783.783 0 0 0 .028.268c6.75-.54 10.728 2.764 11.277 9.596.085.001.19.007.268-.02-.548-6.833 2.79-10.724 9.594-11.275 0 0-.003-.138-.012-.27M266.883 211.59c.098.228.104.323.18.35.035.01 1.026.196 1.027-.05.024-2.624 6.817-6.071 7.535-3.9.529-1.01 1.083-2.024 1.212-3.214-.01-.164.038-.223.038-.223-.848-1.96-12.414 1.33-9.992 7.038m9.808-9.858l-.001-.004a9.19 9.19 0 0 0-1.326-3.257c-3.912-3.786-16.776 1.932-11.061 12.193.176.315.382.48.466.41.085-.07.499-.153.418-.47-2.116-8.284 8.226-11.428 11.504-8.872m-4.465-5.923c.079.022.752.244.58.083a2.022 2.022 0 0 0-.608-.41c-11.373-4.974-18.201 10.485-9.315 16.216.338.22.574.376.646.37.099-.001 2.062 1.106.5-.856-5.928-7.426-1.056-18.727 8.197-15.403"/>
                <path fill="#FFF" d="M275.33 198.513c-.495 2.262-7.687-.767-8.937-2.729-.129-.213-.229-.256-.265-.237-.072.031-.116.12-.139.368-.303 3.136 7.049 7.964 10.733 6.123a1.009 1.009 0 0 0-.047-.259 9.527 9.527 0 0 0-1.345-3.266m-11.308-1.599c.026-.329.049-.466-.039-.533-.087-.068-.243.145-.425.461-3.579 6.288 6.563 14.165 12.293 11.224a9.528 9.528 0 0 0 .988-3.417v-.003c-3.006 2.904-13.251-2.039-12.817-7.732m-1.214-.856c.233-.267.461-.522.365-.527-.072-.003-.315.146-.644.384-6.141 4.464-3.342 15.984 5.41 17.177l.001.008c.251-.004.505-.016.753-.043a8.895 8.895 0 0 0 2.878-.812c.794-.4 1.235-.69 1.972-1.269.08-.066.16-.136.236-.205-7.182 3.138-16.996-7.532-10.971-14.713"/>
            </g>
        </g>
    </g>
</svg>
