<svg xmlns="http://www.w3.org/2000/svg" xmlns:xlink="http://www.w3.org/1999/xlink" width="373" height="560" viewBox="0 0 373 560">
    <defs>
        <rect id="a" width="373" height="560" rx="4"/>
        <path id="c" d="M0 .401h60.676v44.785H0z"/>
        <path id="e" d="M1.064 9.46c-.559.065-.99.51-1.024 1.056-.043.684.544 1.247 1.247 1.199l96.668-6.852-.191-4.319-96.7 8.915z"/>
        <linearGradient id="f" x1="0%" y1="49.999%" y2="49.999%">
            <stop offset="0%" stop-color="#A3B1DD"/>
            <stop offset="100%" stop-color="#FF7E59"/>
        </linearGradient>
        <path id="h" d="M.276.656H11.19v211.953H.276z"/>
        <path id="j" d="M.276 29.971c0 11.722 4.778 22.327 12.492 29.985l29.902-29.87L12.652.1C5.006 7.748.276 18.308.276 29.97"/>
        <linearGradient id="k" x1="61.125%" x2="27.316%" y1="74.029%" y2="26.567%">
            <stop offset="0%" stop-color="#FFF"/>
            <stop offset="100%" stop-color="#E8EDFB"/>
        </linearGradient>
        <path id="m" d="M.276 29.971c0 11.722 4.778 22.327 12.492 29.985l29.902-29.87L12.652.1C5.006 7.748.276 18.308.276 29.97"/>
        <path id="o" d="M.62.395h57.862v10.577H.62z"/>
        <path id="q" d="M.277 4.195c-.57 3.423 2.847 5.934 5.922 6.505 36.544 6.782 130.016 22.874 139.295 41.474.562 1.127.384 1.713.135 2.136-1.892 3.217-12.278 5.067-19.05 5.354-1.319.056-2.405.568-2.405 1.71 0 .798.854 1.37 1.834 1.371l.102-.001c2.163 0 6.662-.286 10.137-.903 7.226-1.284 11.158-2.863 13.094-5.489.601-.815 1.192-1.894 1.206-3.301v-.108c-.009-.849-.228-1.815-.775-2.913-5.233-10.489-31.533-22.044-78.17-34.344C37.297 6.638 7.328.721 6.996.656A9.575 9.575 0 0 0 5.16.468C2.232.467.625 2.098.277 4.195"/>
    </defs>
    <g fill="none" fill-rule="evenodd">
        <mask id="b" fill="#fff">
            <use xlink:href="#a"/>
        </mask>
        <g mask="url(#b)">
            <path fill="#B3BEE2" d="M152.383 558.147H49.523c-.803 0-1.368-.628-1.453-1.451 0 0 .7-3.972.914-10.48.173-5.222.401-7.422.715-8.763.739-3.15 1.876-4.891 4.518-5.88 2.06-.77 86.5-28.915 86.5-28.915l11.666 55.489z"/>
            <g transform="translate(48 512.96)">
                <mask id="d" fill="#fff">
                    <use xlink:href="#c"/>
                </mask>
                <path fill="#A4B1DD" d="M60.676.401C36.984 8.31 7.028 18.323 5.874 18.755c-2.642.988-3.43 2.426-4.289 5.595-.36 1.33-.83 3.538-1.23 8.077C-.21 38.85.07 43.735.07 43.735c.086.823.652 1.451 1.454 1.451h53.655c-.378-20.266.254-32.363 1.109-37.906.705-4.578 2.76-6.194 4.39-6.879" mask="url(#d)"/>
            </g>
            <g transform="translate(56 539)">
                <mask id="g" fill="#fff">
                    <use xlink:href="#e"/>
                </mask>
                <path fill="url(#f)" d="M1.064 9.46c-.559.065-.99.51-1.024 1.056-.043.684.544 1.247 1.247 1.199l96.668-6.852-.191-4.319-96.7 8.915z" mask="url(#g)"/>
            </g>
            <path fill="#B3BEE2" d="M117.507 514.365L50.41 535.22s.403-.978 1.215-1.748c.767-.728 1.663-1.092 2.167-1.277.864-.317 65.335-22.024 65.335-22.024l-1.62 4.194z"/>
            <path fill="#95A4D7" d="M133.535 513.766l-21.148 5.969a1.42 1.42 0 0 0-1.033 1.224c-.495 4.99-.523 10.705-.322 16.208a.949.949 0 0 0 1.083.904l20.909-2.995.511-21.31zM95.556 524.485l-41.338 11.647c-.318.09-.629.43-.748.74-.73 1.885-1.259 6.546-1.132 9.186a.517.517 0 0 0 .595.488l41.607-5.828c.375-.054.626-.383.63-.763.043-4.75.511-11.084.969-14.97a.462.462 0 0 0-.583-.5"/>
            <g transform="translate(122.98 243)">
                <mask id="i" fill="#fff">
                    <use xlink:href="#h"/>
                </mask>
                <path fill="#8697D1" d="M10.257 195.948l-8.652 16.284c-.345.651-1.329.405-1.329-.333V6.133C.276 3.108 2.72.656 5.733.656s5.456 2.452 5.456 5.477v186.073c0 1.305-.32 2.59-.932 3.742" mask="url(#i)"/>
            </g>
            <path fill="#B3BEE2" d="M136.316 366.9h-15.208a1.15 1.15 0 0 1-1.149-1.154v-112.72a1.15 1.15 0 0 1 1.149-1.154h15.208c.635 0 1.15.517 1.15 1.153v112.721c0 .637-.515 1.153-1.15 1.153"/>
            <path fill="#D2D8EE" d="M182.367 309.386c0 29.747-24.022 53.862-53.655 53.862-29.633 0-53.654-24.115-53.654-53.862 0-29.747 24.021-53.862 53.654-53.862 29.633 0 53.655 24.115 53.655 53.862"/>
            <path fill="#8697D1" d="M173.273 309.386c0 24.705-19.95 44.732-44.56 44.732-24.61 0-44.562-20.027-44.562-44.732 0-24.706 19.951-44.733 44.562-44.733 24.61 0 44.56 20.027 44.56 44.733"/>
            <path fill="#FFF" d="M171 309.386c0 23.445-18.933 42.45-42.288 42.45-23.355 0-42.287-19.005-42.287-42.45 0-23.445 18.932-42.45 42.287-42.45S171 285.94 171 309.385"/>
            <g transform="translate(87 279)">
                <mask id="l" fill="#fff">
                    <use xlink:href="#j"/>
                </mask>
                <path fill="url(#k)" d="M.276 29.971c0 11.722 4.778 22.327 12.492 29.985l29.902-29.87L12.652.1C5.006 7.748.276 18.308.276 29.97" mask="url(#l)"/>
            </g>
            <g transform="translate(87 279)">
                <mask id="n" fill="#fff">
                    <use xlink:href="#m"/>
                </mask>
                <path d="M.276 29.971c0 11.722 4.778 22.327 12.492 29.985l29.902-29.87L12.652.1C5.006 7.748.276 18.308.276 29.97" mask="url(#n)"/>
            </g>
            <g>
                <path fill="#8697D1" d="M128.853 283.829a.807.807 0 0 0-.806.77l-1.337 26.83h4.286l-1.337-26.83a.807.807 0 0 0-.806-.77"/>
                <path fill="#FF7E59" d="M105.766 286.544a.806.806 0 0 0-.024 1.115L126.193 310l3.032-3.031-22.344-20.45a.807.807 0 0 0-1.115.024"/>
                <path fill="#FFF" d="M132.968 309.544a4.115 4.115 0 1 1-8.23-.002 4.115 4.115 0 0 1 8.23.002"/>
                <path fill="#D2D8EE" d="M131.967 309.544a3.115 3.115 0 1 1-6.229 0 3.115 3.115 0 0 1 6.23 0"/>
                <path fill="#E9EEFB" d="M131.196 274.7a2.343 2.343 0 1 1-4.686 0 2.343 2.343 0 0 1 4.686 0M131.196 344.387a2.343 2.343 0 1 1-4.686 0 2.343 2.343 0 0 1 4.686 0M94.007 307.2a2.343 2.343 0 1 1 0 4.687 2.343 2.343 0 0 1 0-4.686M163.699 307.2a2.343 2.343 0 1 1 0 4.687 2.343 2.343 0 0 1 0-4.686M113.46 278.197a2.343 2.343 0 1 1-4.06 2.342 2.343 2.343 0 0 1 4.06-2.342M148.305 338.547a2.343 2.343 0 1 1-4.06 2.343 2.343 2.343 0 0 1 4.06-2.343M97.504 324.936a2.344 2.344 0 1 1 2.343 4.06 2.344 2.344 0 0 1-2.343-4.06M157.859 290.093a2.344 2.344 0 1 1 2.342 4.06 2.344 2.344 0 0 1-2.342-4.06M99.847 290.093a2.342 2.342 0 1 1-2.341 4.057 2.342 2.342 0 0 1 2.341-4.057M160.202 324.936a2.342 2.342 0 1 1-2.342 4.057 2.342 2.342 0 0 1 2.342-4.057M109.4 338.547a2.343 2.343 0 1 1 4.058 2.343 2.343 2.343 0 0 1-4.057-2.343M144.247 278.197a2.343 2.343 0 1 1 4.057 2.342 2.343 2.343 0 0 1-4.057-2.342M424.648 559.147c10.744-31.771 3.887-81.373-.228-97.83-3-12.003-6.925-20.647-11.43-29.714-17.83-35.886-41.146-82.516-57.604-105.602-11.632-16.316-25.145-15.543-36.575-15.543h-64.005c-22.402 0-32.917 13.257-39.318 22.4-6.4 9.143-80.463 128.46-87.32 140.802-6.859 12.343-14.402 26.058-12.116 45.715 3.01 25.884 26.287 37.944 34.746 39.772h273.85z"/>
                <path fill="#FF7E59" d="M294.184 496.518h-28.22c-9.084 0-15.74-8.548-13.515-17.355l.986-3.902h46.12l-5.371 21.257zM162.55 479.75l1.786-4.49h-37.091c-3.571 6.455-7.203 13.33-9.44 21.258h20.026a26.603 26.603 0 0 0 24.718-16.767"/>
                <path fill="#2469BD" d="M270.465 475.26v14.172h30.424l1.41-14.171z"/>
                <path fill="#D2D8EE" d="M292.924 535.833h-171.59c7.261 13.046 19.83 20.224 27.033 22.629h134.27l10.287-22.63z"/>
                <path fill="#2469BD" d="M162.55 479.75l1.786-4.49h-31.634v14.172h23.205a26.55 26.55 0 0 0 6.642-9.681"/>
                <path fill="#FFF" d="M281.792 475.26c-.623.994-1.08 2.101-1.328 3.287a10.03 10.03 0 0 0-1.328-3.286h-17.127a10.04 10.04 0 0 0-1.548 5.357c0 5.583 4.525 10.11 10.108 10.11 4.873 0 8.939-3.45 9.895-8.038.955 4.589 5.022 8.037 9.894 8.037 5.583 0 10.109-4.526 10.109-10.109 0-1.97-.573-3.803-1.548-5.357h-17.127z"/>
                <path fill="#FF7E59" d="M164.336 475.26h-.115c.024.039.044.08.068.119l.047-.118z"/>
                <path fill="#FFF" d="M162.55 479.75l1.74-4.372c-.025-.039-.045-.08-.07-.117h-17.127a10.05 10.05 0 0 0-1.328 3.286 10.036 10.036 0 0 0-1.327-3.286H127.31a10.044 10.044 0 0 0-1.548 5.358c0 5.582 4.526 10.108 10.109 10.108 4.872 0 8.938-3.448 9.894-8.037a10.11 10.11 0 0 0 8.727 7.962 26.566 26.566 0 0 0 8.057-10.901"/>
                <path fill="#D2D8EE" d="M424.648 559.147c10.744-31.771 3.887-81.373-.228-97.83-3-12.003-6.925-20.647-11.43-29.714-17.83-35.886-41.146-82.516-57.604-105.602-5.292-7.422-10.973-11.302-16.67-13.333-6.477 26.585-42.002 172.347-45.278 184.764-6.515 24.686-20.573 51.43-58.634 51.43h-102.75c7.066 6.1 14.645 9.4 18.744 10.285h273.85z"/>
                <path fill="#FFF" d="M215.53 332.858c-6.056 8.651-72.69 115.94-85.65 137.914 0 0 104.839-154.2 106.445-156.629-10.35 4.591-16.5 12.58-20.794 18.715M297.952 493.832l64.118-157.747c-2.334-3.704-4.582-7.095-6.713-10.084-5.302-7.437-10.995-11.317-16.704-13.345l-44.573 182.29 3.872-1.114zM98.944 272.284c-4.687-.014-7.177-2.259-7.161-7.201a3.31 3.31 0 0 1-.185-.001c-.016 4.943-2.56 7.17-7.208 7.155-.015.112.003.186.003.186 4.643.016 7.174 2.502 7.159 7.202.058.005.13.016.185 0 .015-4.7 2.52-7.168 7.2-7.156 0 0 .006-.094.007-.185"/>
                <path fill="#535785" d="M168.399 414.117H314.01c7.372 0 18.688-5.658 22.03-13.886 0 0 9-22.2 11.915-29.487 3.363-8.405-8.057-22.8-17.743-22.8H213.317c-3.086 0-14.63 11.315-21.659 22.629-2.41 3.88-13.98 22.471-19.03 30.572-5.63 9.029-5.03 12.972-4.23 12.972"/>
                <path fill="#4771DD" d="M336.041 400.23s9.001-22.2 11.916-29.486c3.362-8.405-8.058-22.8-17.745-22.8h-.258l-16.206 66.173h.263c7.372 0 18.687-5.658 22.03-13.886"/>
                <path fill="#FF7E59" d="M213.317 347.944c-3.086 0-14.63 11.315-21.659 22.629-2.41 3.88-13.98 22.471-19.03 30.572-5.623 9.018-5.03 12.962-4.231 12.97 15.077-22.178 31.86-46.87 44.976-66.17h-.056z"/>
                <path fill="#42426C" d="M250.877 414.117l1.344-5.377c1.052-4.206-2.13-8.281-6.466-8.281h-29.608c-3.98 0-7.45 2.71-8.416 6.571l-1.772 7.087h44.918zM313.74 414.117l1.344-5.377c1.051-4.206-2.13-8.281-6.466-8.281h-29.61c-3.98 0-7.45 2.71-8.415 6.571l-1.771 7.087h44.918z"/>
                <path fill="#B3BEE2" d="M164.336 475.26h-.115c.024.039.044.08.068.119l.047-.118z"/>
                <path fill="#D2D8EE" d="M164.22 475.26h-17.127a10.052 10.052 0 0 0-1.306 3.2h17.276l1.226-3.081c-.024-.04-.045-.08-.069-.118M144.437 475.26H127.31c-.608.97-1.06 2.048-1.314 3.2h19.747a10.052 10.052 0 0 0-1.306-3.2M279.165 475.26h-17.128c-.608.97-1.06 2.048-1.314 3.2h19.747a10.05 10.05 0 0 0-1.305-3.2M281.82 475.26a10.05 10.05 0 0 0-1.305 3.2h19.747a10.145 10.145 0 0 0-1.314-3.2H281.82z"/>
                <path fill="#E86A46" d="M293.676 496.518l5.243-21.257 2.45 1.474c2.023 1.218 2.145 3.81 1.155 5.954l-4.442 11.01a4.852 4.852 0 0 1-4.406 2.82"/>
                <path fill="#535785" d="M306.453 339.715h-63.795a.967.967 0 0 1-.836-1.453l6.998-12.036a2.52 2.52 0 0 1 2.179-1.254h60.66c.656 0 1.121.637.923 1.26l-3.728 11.727a2.519 2.519 0 0 1-2.401 1.756"/>
                <path fill="#42426C" d="M241.822 338.262a.968.968 0 0 0 .836 1.454h2.833c.115-.63 2.972-12.401 3.204-13.277l-6.873 11.823zM277.261 336.605c.042.134.039.187.08.207.02.009.564.172.58.035.172-1.472 4.194-2.998 4.467-1.735.357-.535.73-1.071.874-1.732.005-.092.035-.122.035-.122-.358-1.152-7.05-.003-6.036 3.347m6.102-4.942v-.002a5.204 5.204 0 0 0-.547-1.908c-1.969-2.363-9.536.07-6.947 6.177.08.187.185.292.236.258.053-.035.29-.056.264-.239-.688-4.778 5.308-5.92 6.994-4.286m-2.148-3.595c.042.017.407.182.32.082a1.126 1.126 0 0 0-.316-.267c-6.086-3.48-10.854 4.788-6.21 8.542.177.144.3.245.34.247.056.005 1.09.744.332-.452-2.88-4.527.539-10.577 5.534-8.152"/>
                <path fill="#42426C" d="M282.794 329.773c-.414 1.24-4.27-.894-4.853-2.072-.06-.127-.113-.157-.134-.149-.043.013-.073.06-.101.199-.359 1.742 3.477 4.896 5.657 4.086.002-.05 0-.1-.012-.149a5.339 5.339 0 0 0-.557-1.915m-6.252-1.58c.034-.183.055-.26.01-.302-.045-.044-.145.067-.266.233-2.39 3.314 2.829 8.35 6.224 7.044a5.364 5.364 0 0 0 .76-1.858v-.002c-1.862 1.449-7.316-1.946-6.728-5.115m-.63-.554c.147-.136.29-.266.237-.274-.04-.006-.186.063-.385.177-3.718 2.135-2.842 8.772 2 9.97v.005c.14.013.284.022.425.022.566 0 1.13-.096 1.665-.283a5.753 5.753 0 0 0 1.329-.695c-4.222 1.328-9.088-5.255-5.272-8.922"/>
                <path fill="#535785" d="M242.462 559.147H160.57l-6.819-7.298c-1.057-1.13-.254-2.977 1.293-2.977h75.536a8.566 8.566 0 0 1 6.906 3.497l4.976 6.778z"/>
                <g transform="translate(307.561 548.204)">
                    <mask id="p" fill="#fff">
                        <use xlink:href="#o"/>
                    </mask>
                    <path fill="#42426C" d="M52.599 4.3L10.946.426C5.38-.03.62 4.795.62 10.972h57.86c0-3.446-2.238-6.33-5.882-6.671" mask="url(#p)"/>
                </g>
            </g>
            <g transform="translate(307 478)">
                <mask id="r" fill="#fff">
                    <use xlink:href="#q"/>
                </mask>
                <path d="M.277 4.195c-.57 3.423 2.847 5.934 5.922 6.505 36.544 6.782 130.016 22.874 139.295 41.474.562 1.127.384 1.713.135 2.136-1.892 3.217-12.278 5.067-19.05 5.354-1.319.056-2.405.568-2.405 1.71 0 .798.854 1.37 1.834 1.371l.102-.001c2.163 0 6.662-.286 10.137-.903 7.226-1.284 11.158-2.863 13.094-5.489.601-.815 1.192-1.894 1.206-3.301v-.108c-.009-.849-.228-1.815-.775-2.913-5.233-10.489-31.533-22.044-78.17-34.344C37.297 6.638 7.328.721 6.996.656A9.575 9.575 0 0 0 5.16.468C2.232.467.625 2.098.277 4.195" mask="url(#r)"/>
            </g>
        </g>
    </g>
</svg>
