<svg xmlns="http://www.w3.org/2000/svg" xmlns:xlink="http://www.w3.org/1999/xlink" width="373" height="560" viewBox="0 0 373 560">
    <defs>
        <rect id="a" width="373" height="560" rx="4"/>
        <path id="c" d="M.806 26.926c0 14.163 1.849 24.934 13.217 24.934S38.578 41.09 38.578 26.926C38.578 12.762 26.004.464 14.636.464 3.27.464.806 12.762.806 26.926"/>
        <radialGradient id="d" cx="-50.001%" cy="190.808%" r="235.481%" fx="-50.001%" fy="190.808%" gradientTransform="scale(1 .73491) rotate(-60.19 .094 2.252)">
            <stop offset="0%" stop-color="#FFE8E8"/>
            <stop offset="100%" stop-color="#FDACAC"/>
        </radialGradient>
        <path id="f" d="M.736 29.574c0 16.055 9.275 29.072 24.058 29.072 10.646 0 14.783-13.017 14.783-29.072C39.577 13.517 36.31.5 25.663.5 15.017.501.736 13.517.736 29.574"/>
        <radialGradient id="g" cx="142.538%" cy="142.647%" r="180%" fx="142.538%" fy="142.647%" gradientTransform="matrix(-.50995 -.57462 .8602 -.34064 .925 2.731)">
            <stop offset="0%" stop-color="#FFE8E8"/>
            <stop offset="100%" stop-color="#FDACAC"/>
        </radialGradient>
        <path id="i" d="M.098.605h48.305v40.151H.098z"/>
        <path id="k" d="M0 .325h33.514v9.508H0z"/>
    </defs>
    <g fill="none" fill-rule="evenodd">
        <mask id="b" fill="#fff">
            <use xlink:href="#a"/>
        </mask>
        <g mask="url(#b)">
            <path fill="#D8DDEA" d="M267.247 380.736a3.619 3.619 0 1 1-7.238-.002 3.619 3.619 0 0 1 7.238.002"/>
            <path fill="#E09595" d="M243.244 395.46s12.037-1.935 15.691-6.234c3.654-4.299 10.532-16.12 10.532-16.12l-14.186-3.44-14.401 9.458 2.364 16.335z"/>
            <path fill="#D8DDEA" d="M246.03 358.4s6.188.25 17.178 17.607c1.325 2.094 2.336 5.615 2.677 7.63l7.473-7.564a3.69 3.69 0 0 0 .793-3.73c-1.502-4.276-10.139-18.305-21.048-22.014-1.31-.446-2.842-.16-3.608 1.138-1.19 2.018-3.465 6.932-3.465 6.932"/>
            <path fill="#2B2B51" d="M214.37 459.083s12.323 53.593 18.629 79.1c4.207 17.023 2.018 22.509 3.439 40.123 1.432 17.768 10.89 56.745 15.762 81.392 0 0 10.134 1.316 20.69-.844a1.714 1.714 0 0 0 1.36-1.706c-.14-11.573-.842-82.875-.842-92.886 0-8.602-.573-23.786-1.433-31.524-.86-7.738-9.028-103.174-9.028-103.174l-38.833.86-9.744 28.659z"/>
            <path fill="#42426C" d="M170.091 429.42s-3.906 83.768-4.729 95.006c-1.72 23.5-7.164 36.397-8.311 58.465-1.146 22.068-1.146 76.807-1.146 76.807s8.296 2.14 21.009 1.25a1.778 1.778 0 0 0 1.613-1.41c2.583-12.28 19.886-89.74 21.8-93.842 2.006-4.3 6.305-18.056 7.738-26.367 1.432-8.31 14.903-80.246 14.903-80.246l28.659-30.379-81.536.717zM274.841 399.22s-1.72 18.63-4.585 34.106c-3.27 17.652-33.541 75.37-39.264 103.03-5.556 26.852-1.185 34.652 12.897 37.4 17.625 3.44 32.958-.574 50.727 2.006 13.758 1.997 27.846 7.33 51.587 5.732 29.806-2.006 29.806-16.91 30.665-22.068.86-5.159-5.03-53.557-17.339-108.618-10.603-47.432-20.49-49.294-20.49-49.294l-64.198-2.293z"/>
            <path fill="#2B2B51" d="M359.53 450.808c-10.604-47.432-20.492-49.294-20.492-49.294l-64.16-2.76s-1.609 17.48-4.249 32.497c1.333.706 89.337 21.51 88.9 19.557"/>
            <path fill="#423748" d="M299.775 301.744s-8.084-2.131-7.416-9.888c.645-7.487 9.887-10.317 9.887-10.317l-3.654-14.51s-14.293.61-16.3-12c-2.771-17.417 19.059-31.167 28.086-31.812l12.61 54.166-23.213 24.36z"/>
            <path fill="#FFAEAE" d="M300.634 298.304s5.445-4.298 4.3-16.192l26.223-7.452s-1.505 10.963.644 16.121c0 0-16.765 18.056-29.662 19.345l-1.505-11.822z"/>
            <path fill="#E9EEFB" d="M176.432 347.347s-13.232 1.965-30.808-2.293a1.246 1.246 0 0 1-.947-1.3c.413-5.578 1.81-32.032 5.388-44.554 4.013-14.043 13.184-16.91 17.196-18.629 4.012-1.72 23.787-8.454 28.372-10.317l37.437-2.365s8.24 3.44 21.172 6.556c7.171 1.73 16.766 3.117 22.354 8.849 4.604 4.721 14.187 18.199 14.187 18.199l-31.74 79.672 3.94 48.291s-31.811 2.436-56.029 2.006c-24.217-.43-36.827-2.15-36.827-2.15l2.15-47.86 4.155-34.105z"/>
            <path fill="#D8DDEA" d="M279.713 299.45l-8.222 3.55a10.567 10.567 0 0 0-5.863 6.442l-5.403 16.662 19.488-26.653z"/>
            <path fill="#FFEDA6" d="M256.57 333.77c.216-1.074 10.225-22.528 14.187-27.728 3.44-4.513 6.671-7.544 15.046-7.953 5.008-.244 14.83-.136 14.83-.136l1.506 4.865s-1.612 3.547 12.071-3.717c1.896-1.007 32.717 4.262 36.506 6.082 5.374 2.579 10.963 7.523 10.748 16.335-.215 8.813-1.677 29.337-6.234 45.999-6.878 25.148-16.013 33.746-16.013 33.746s-13.649 6.233-44.386 2.15c-15.46-2.055-19.99-4.515-19.99-4.515s-1.44-.57-1.505-1.934c-.04-.821 1.075-3.224 1.72-7.953.653-4.79-.354-9.89-1.29-16.336-1.934-13.326-17.195-38.905-17.195-38.905"/>
            <path fill="#F9CC8E" d="M290.747 314.21s6.999-4.865 9.297-5.964c1.235-.592 2.397-.367 3.116.752.968 1.505 4.782 7.47 4.782 7.47l-4.62-12.79s-.534.047-.914-.107c-.38-.155-.376-.7-.376-.7l-11.285 11.34z"/>
            <path fill="#FFAEAE" d="M203.05 248.724s.52 11.046-.717 14.759c-1.147 3.439-3.296 4.442-3.296 4.442l24.36 19.06s9.601-7.882 8.169-19.49l-7.738-19.917-20.778 1.146z"/>
            <path fill="#F9CC8E" d="M272.262 324.958l3.44-9.636c.167-.467.68-.43.715.142l.144 6.484-4.3 3.01z"/>
            <g transform="translate(291 233)">
                <mask id="e" fill="#fff">
                    <use xlink:href="#c"/>
                </mask>
                <path fill="url(#d)" d="M.806 26.926c0 14.163 1.849 24.934 13.217 24.934S38.578 41.09 38.578 26.926C38.578 12.762 26.004.464 14.636.464 3.27.464.806 12.762.806 26.926" mask="url(#e)"/>
            </g>
            <g>
                <path fill="#D8DDEA" d="M170.691 422.787l5.903-2.722a8.193 8.193 0 0 0 4.15-5.944s.692-4.192 1.073-6.804c1.093-7.482 5.933-13.313 13.453-14.11l52.61-5.304a11.517 11.517 0 0 1 9.687 3.947l2.566 2.97-1.145-15.506-86.544.93-1.753 42.543z"/>
                <path fill="#FFF" d="M304.123 303.183a1.761 1.761 0 0 0-1.13 2.399s.83 2.737 2.683 6.732c2.326 5.014 3.304 6.636 3.304 6.636.7 1.5 2.85 1.708 3.852.705l20.608-22.632-4.866-6.589s-7.219 5.68-14.561 9.168c-4.222 2.005-7.912 3.016-9.89 3.581M301.312 304.937s-1.861 2.077-5.438 5.515c-2.832 2.72-5.211 4.391-5.211 4.391-.264.255-.742-.04-.566-.361.482-.88 1.204-2.223 1.733-3.637 2.434-6.482 6.662-15.37 13.06-21.342 0 0-.287 2.399-1.217 5.729-.625 2.237-1.11 4.656-1.252 7.27-.054.98-.644 1.898-1.11 2.435M219.147 283.887l5.817 33.476c.13.968.974 1.678 1.948 1.64l4.615-.474c1.096-.042 1.283-.934 1.165-2.026l-5.653-33.016-7.892.4z"/>
                <path fill="#F9CC8E" d="M277.914 381.391s7.031 2.388 13.738 9.454c8.157 8.594 9.623 13.858 9.623 13.858s6.727.68 13.417.68c5.832 0 13.845-.859 13.845-.859l-39.34-24.365-11.283 1.232z"/>
                <path fill="#E9EEFB" d="M228.42 287.717l-.737-4.302-9.265.412 1.1 6.336c2.11-4.538 5.548-4.88 8.902-2.446"/>
                <path fill="#F9CC8E" d="M302.67 379.959s-10.589-13.178-9.73-22.346c.858-9.167 15.455-27.502 15.455-27.502s-21.752 15.184-23.756 22.632c-2.003 7.449.859 16.903.859 16.903l17.173 10.313z"/>
                <path fill="#FFF" d="M224.839 281.535c1.504-1.505 5.258-5.146 5.85-12.014l3.577-1.719s3.856 6.004 3.721 13.178c-.077 4.1-.864 7.072-1.572 8.939-.475 1.254-2.018 1.695-3.072.868l-9.416-7.264c-.287-.225 0-1.075.912-1.988"/>
                <path fill="#423748" d="M242.28 236.862s2.147-2.292 1.86-9.453c-.252-6.313-.954-9.349-3.004-11.889-3.006-3.725-7.013-5.873-10.304-5.873-3.292 0 1.144 13.178 1.144 13.178l10.304 14.037z"/>
            </g>
            <g transform="translate(203 211)">
                <mask id="h" fill="#fff">
                    <use xlink:href="#f"/>
                </mask>
                <path fill="url(#g)" d="M.736 29.574c0 16.055 9.275 29.072 24.058 29.072 10.646 0 14.783-13.017 14.783-29.072C39.577 13.517 36.31.5 25.663.5 15.017.501.736 13.517.736 29.574" mask="url(#h)"/>
            </g>
            <g>
                <g transform="translate(192.105 204)">
                    <mask id="j" fill="#fff">
                        <use xlink:href="#i"/>
                    </mask>
                    <path fill="#423748" d="M6.168 38.894s-5.44-5.73-6.013-15.9C-.296 14.978 1.923 9.742 7.6 5.66c4.58-3.294 8.573-4.106 11.596-4.584 10.88-1.719 16.322 1.72 18.755 3.009 2.434 1.289 6.013 1.575 8.017 4.297 2.005 2.722 2.435 8.451 2.435 8.451s-.43 5.874-5.727 7.02c-9.413 2.037-20.044.286-21.476.286-1.432 0-3.292.573-3.436 3.008-.143 2.436-.43 9.025-.43 10.887 0 2.115-2.576 2.722-2.576 2.722l-8.59-1.862z" mask="url(#j)"/>
                </g>
                <path fill="#FFAEAE" d="M206.147 240.602c1.927 4.12 3.08 7.708.573 8.88-2.507 1.174-7.195-.845-9.12-4.965-1.927-4.12-1.262-8.902 1.245-10.075s5.376 2.04 7.302 6.16"/>
                <path fill="#FFF" d="M201.816 264.775c1.02 1.826 6.55 12.248 18.63 16.438 1.429.495 2.382 1.333 2.254 1.664-.646 1.675-3.104 6.055-6.786 9.768a2.43 2.43 0 0 1-2.911.4c-8.36-4.688-15.68-13.518-17.468-22.469-.054-.269.113-.742.483-1.074 0 0 .537-.699 2.255-2.417 1.883-1.885 2.72-2.452 2.72-2.452a.539.539 0 0 1 .823.142"/>
                <path fill="#FFC0D2" d="M272.447 372.103l1.972 7.308a2.319 2.319 0 0 0 2.238 1.717h11.093c.867 0 1.435-.716 1.27-1.663l-3.844-18.392-12.729 11.03z"/>
                <path fill="#FFCFDF" d="M288.255 351.368c0 14.419-10.638 26.107-25.878 26.107-15.241 0-29.314-9.884-29.314-26.107 0-16.653 14.073-26.107 29.314-26.107 15.24 0 25.878 11.688 25.878 26.107"/>
                <path fill="#FFCFDF" d="M238.217 339.443l-2.181-18.16c-.45-3.747 3.706-6.292 6.836-4.185l15.64 10.527-20.295 11.818z"/>
                <path fill="#D8DDEA" d="M174.39 320.64l-1.673-3.544 2.298 1.815a6.45 6.45 0 0 1 2.289 3.624l9.23 40.4-10.381-3.456.186-30.014a20.372 20.372 0 0 0-1.949-8.824"/>
                <path fill="#FFCFDF" d="M286.537 342.021l2.114-21.92c.248-3.757-3.618-5.583-6.517-3.542l-13.852 9.132 18.255 16.33z"/>
                <path fill="#2474CD" d="M256.184 339.73a1.79 1.79 0 1 1-3.58 0 1.79 1.79 0 0 1 3.58 0M279.306 338.511a1.79 1.79 0 1 1-3.58.002 1.79 1.79 0 0 1 3.58-.002"/>
                <path fill="#FFAEAE" d="M171.715 392.588s-5.37 2.363-5.226 7.019c.202 6.588.716 12.39 2.863 14.539 1.862 1.863 5.226 3.796 7.016 3.725 1.574-.064 2.577-1.29 2.577-5.802 0-3.008.215-7.95-2.577-12.462s-4.653-7.02-4.653-7.02M146.16 345.101s-.43 20.556.75 30.333c.672 5.555 2.9 6.554 6.121 7.843 3.221 1.289 6.157 1.826 14.532 2.9 7.603.975 17.821-.293 32.141-2.04 11.74-1.434 17.42-2.317 25.485-2.007 7.445.287 11.74 2.006 22.155 3.08 3.034.313 10.277-2.682 11.812-3.545 1.718-.967 7.409-6.124 7.409-6.124s-18.827-3.867-23.301-4.727c-4.475-.86.045-5.023 1.342-8.917 1.288-3.868 1.118-8.626-1.02-8.917-2.362-.322-1.933 4.19-4.295 6.446-1.652 1.576-4.795 2.65-6.872 4.19-2.9 2.149-4.395 4.555-5.906 4.405-7.91-.788-17.653-1.93-24.374-3.653-7.65-1.961-19.457-4.451-23.878-5.37a2.226 2.226 0 0 1-1.773-2.151l-.12-9.526s-7.516.215-17.252-.501c-8.24-.607-12.957-1.719-12.957-1.719"/>
                <path fill="#2B2B51" d="M285.033 523.802s-5.01 14.182-9.234 23.85c-3.574 8.182 23.408 27.433 25.985 22.276 2.577-5.157-.143-10.314-.215-15.614-.43-31.942-16.536-30.512-16.536-30.512"/>
                <path fill="#FFCFDF" d="M257.095 372.81l-2.065 7.31c-.286 1.012-1.248 1.715-2.346 1.715h-10.736c-.908 0-1.504-.716-1.33-1.663l4.027-18.392 12.45 11.03z"/>
                <path fill="#423748" d="M295.914 234.47c-2.005 4.356-4.295 11.906 4.868 20.326 9.481 8.713 13.172 6.388 15.176 13.356 2.004 6.97-2.004 19.455 8.876 31.94 6.303 7.233 23.645 11.093 31.784 4.399 12.885-10.601-6.3-23.207-8.018-40.396-.735-7.363-.217-23.59-7.73-31.947-8.877-9.872-18.613-11.905-28.921-9.872-8.803 1.736-14.03 7.84-16.035 12.195"/>
                <path fill="#23478D" d="M262.726 530.69a11.278 11.278 0 0 1-4.191-.567l-7.433-2.453a1.622 1.622 0 0 1-1.117-1.514l.294-109.969 1.861-.07 11.793 114.507-1.207.066z"/>
                <path fill="#2B2B51" d="M336.86 521.94s-2.863 7.878-2.147 22.633c.716 14.754 6.442 16.903 9.878 17.046 6.637.277 21.62-20.627 25.485-41.541l-33.216 1.862z"/>
                <path stroke="#23478D" stroke-width="3" d="M303.502 422.383l5.298-32.23"/>
                <path stroke="#2474CD" stroke-linecap="round" stroke-width="3" d="M300.782 421.38l8.018-31.227"/>
                <path stroke="#23478D" stroke-width="3" d="M340.225 422.813l-8.59-34.38"/>
                <path fill="#2474CD" d="M403.54 518.132l-140.68 12.6a2.23 2.23 0 0 1-2.417-2.043l-9.153-112.515 141.516-8.06 12.786 107.493a2.266 2.266 0 0 1-2.052 2.525"/>
                <path stroke="#E86A46" stroke-linecap="round" stroke-width="3" d="M306.58 421.595l1.933-27.002"/>
                <path fill="#FFAEAE" d="M361.172 319.2c-2.527-.54-7.644 5.9-8.363 11.439-.773 5.945-.59 8.954 2.434 12.151 3.023 3.197 6.12 2.402 7.602.101 1.484-2.3 2.549-10.228 3.08-14.985.465-4.166.142-7.659-4.753-8.706"/>
                <path stroke="#E86A46" stroke-linecap="round" stroke-width="3" d="M340.762 416.044s-7.338-23.457-10.63-28.47"/>
                <path fill="#FFAEAE" d="M258.082 363.293s-2.9 0-4.725-1.719c-2.157-2.03-1.933-4.405-.752-4.297 1.182.107 2.258 1.89 4.618 2.041 3.328.215 9.986 2.579 9.986 2.579l-9.127 1.396z"/>
                <path fill="#C5CBD8" d="M375.717 507.45c-1.468.348-2.96.59-4.463.721l-78.77 6.911a1.467 1.467 0 0 1-1.586-1.312l-9.623-92.82 12.707-.751 92.487 84.694-10.752 2.556z"/>
                <path fill="#E9EEFB" d="M386.683 504.884l-85.281 7.267a1.557 1.557 0 0 1-1.664-1.27l-16.852-91.291 85.364-5.142 19.667 88.758c.18.818-.4 1.608-1.234 1.678"/>
                <path fill="#C5CBD8" d="M348.064 424.961a2.685 2.685 0 1 1-5.37.002 2.685 2.685 0 0 1 5.37-.002M311.34 427.54a2.685 2.685 0 1 1-5.37.001 2.685 2.685 0 0 1 5.37-.001"/>
                <path stroke="#FF7E59" stroke-linecap="round" stroke-width="3" d="M308.656 427.54l1.432-30.942"/>
                <path fill="#F9CC8E" d="M307.368 376.687s9.163-1.719 12.885-7.45c3.722-5.728 10.881-23.205 10.881-23.205l-9.45 37.817-14.316-7.162z"/>
                <path fill="#FFAEAE" d="M340.87 399.034s-4.224 5.63-6.229 7.449c-2.29 2.076-5.44 3.438-10.093 1.432-2.735-1.179-19.757-11.101-36.938-25.498-4.93-4.132-8.581-6.041-10.759-6.913-1.308-.524-2.08-.79-4.081-.016-2.152.832-4.917 1.665-7.924 2.524-1.667.477-12.778-1.181-14.388-2.148a301.128 301.128 0 0 1-9.45-5.91c-2.095-1.371-.787-3.57.43-3.652l21.905-4.512s8.475.984 13.744 2.578c9.235 2.793 17.395 7.735 26.63 11.173 9.356 3.483 16.321 4.513 16.321 4.513s11.382 4.154 20.831 18.98"/>
                <path stroke="#2474CD" stroke-linecap="round" stroke-width="3" d="M345.164 412.714l-10.093-25.355"/>
                <path fill="#FFC0D2" d="M279.367 353.69c.26 5.61-4.075 10.37-9.682 10.63-5.609.261-10.366-4.076-10.626-9.687-.26-5.612 4.076-10.372 9.683-10.631 5.608-.26 10.365 4.077 10.625 9.688"/>
                <path fill="#FFCFDF" d="M266.15 354.554c.068 1.462-.357 2.67-.95 2.698-.593.027-1.128-1.136-1.195-2.598-.068-1.462.357-2.67.95-2.697.592-.027 1.127 1.136 1.195 2.597M275.583 354.147c.067 1.462-.358 2.67-.95 2.697-.593.028-1.128-1.135-1.196-2.597-.067-1.462.359-2.67.95-2.697.593-.027 1.128 1.135 1.196 2.597"/>
                <path stroke="#FF7E59" stroke-linecap="round" stroke-width="3" d="M329.13 384.422c10.165 11.89 16.25 40.54 16.25 40.54"/>
                <path fill="#FFF" d="M318.75 379.838s6.657-.43 23.408 21.989l5.873-7.842c.8-1.11.934-2.574.324-3.798-2.019-4.056-12.318-16.902-23.592-19.23-1.354-.28-2.838.194-3.436 1.576-.93 2.148-2.577 7.305-2.577 7.305"/>
                <path fill="#2B2B51" d="M237.086 566.418c1.131.168 2.426-.526 1.81-1.491-1.968-3.093-3.933-10.468-2.612-21.142 2.005-16.187 11.811-45.338 11.811-45.338s-20.115 35.598-19.328 57.156c.273 7.452 4.94 10.314 8.319 10.815"/>
                <g transform="translate(144 338.08)">
                    <mask id="l" fill="#fff">
                        <use xlink:href="#k"/>
                    </mask>
                    <path fill="#FFF" d="M1.287.337a.774.774 0 0 0-.906.731L0 5.504c-.013.805.562 1.44 1.336 1.66 2.255.645 7.033 1.343 14.71 2.042 7.844.713 14.055.662 16.384.583a1.046 1.046 0 0 0 1.011-1.067l.072-4.638a1.074 1.074 0 0 0-1.075-1.09c-2.445.006-8.913-.07-15.675-.629C9.81 1.791 3.51.727 1.287.337" mask="url(#l)"/>
                </g>
                <path fill="#E9EEFB" d="M342.587 398.174l-13.744-18.335s10.308 3.724 12.885 8.595c2.577 4.87.86 9.74.86 9.74"/>
                <path fill="#F9CC8E" d="M324.262 342.379l13.135-11.424-3.438 7.26a6.902 6.902 0 0 1-5.835 3.938l-3.862.226z"/>
                <path fill="#FFF" d="M301.768 310.23c-.265.764-.953 1.219-1.537 1.016-.585-.203-.843-.987-.579-1.752.266-.764.954-1.22 1.538-1.016.585.203.844.987.578 1.751M299.55 317.427c-.266.765-.954 1.22-1.54 1.017-.583-.203-.842-.986-.576-1.751.265-.764.953-1.22 1.537-1.017.585.203.844.987.578 1.751M297.044 324.339c-.266.765-.954 1.22-1.538 1.017-.585-.203-.843-.987-.578-1.751.265-.765.953-1.22 1.537-1.018.585.203.844.988.579 1.752"/>
            </g>
        </g>
    </g>
</svg>
