<svg xmlns="http://www.w3.org/2000/svg" xmlns:xlink="http://www.w3.org/1999/xlink" width="373" height="560" viewBox="0 0 373 560">
    <defs>
        <rect id="a" width="373" height="560" rx="4"/>
        <path id="c" d="M.25.155h88.276v39.51H.25z"/>
        <path id="e" d="M0 .36h88.911v195.26H0z"/>
        <path id="g" d="M0 .456h15.89V115.61H0z"/>
    </defs>
    <g fill="none" fill-rule="evenodd">
        <mask id="b" fill="#fff">
            <use xlink:href="#a"/>
        </mask>
        <g mask="url(#b)">
            <path fill="#F0F2F9" d="M172.777 337.414s-16.415-17.067-1.549-38.48c8.454-12.176 23.847-10.86 34.997-14.584 11.15-3.724 15.175-13.033 26.325-22.032 7.195-5.808 21.244-14.214 38.713-9 14.556 4.345 15.485-2.172 21.68-6.827 6.193-4.654 12.078-11.171 31.28-11.481 19.201-.31 30.325 6.923 38.403 19.55 7.743 12.102 5.884 18.308 10.53 23.584 4.356 4.947 24.015 7.552 32.21 18.619 7.123 9.62 8.052 17.998 4.955 30.41C407.224 339.588 392.048 343 384.615 343H182.687s-6.504-1.241-9.91-5.586"/>
            <g transform="translate(108 232)">
                <mask id="d" fill="#fff">
                    <use xlink:href="#c"/>
                </mask>
                <path fill="#F0F2F9" d="M8.173 39.665c3.866-.025 42.056-.134 42.056-.134s6.964-.23 11.392-3.16c4.428-2.931 8.597-2.792 12.314-2.976 3.717-.183 11.716-2.071 13.275-5.508 1.658-3.657 2.63-8.018-2.653-13.019-3.596-3.404-10.046-3.158-13.33-6.654C67.945 4.718 63.59.93 56.806.394 50.02-.14 41.209-.177 33.008 4.629c-4.18 2.45-9.01 5.857-12.136 11.448-2.666 4.767-4.088 6.636-8.284 7.266-4.019.603-8.578.88-11.331 5.932C-.226 31.995.235 34.816.72 36.03c.998 2.496 3.587 3.66 7.453 3.636" mask="url(#d)"/>
            </g>
            <path fill="#7784BB" d="M343 367h-4v-14l3.692 8.1c.202.445.308.934.308 1.43V367z"/>
            <path fill="#D2D8EE" d="M339 366h-10v-14h9.127a.88.88 0 0 1 .873.885V366z"/>
            <path fill="#7784BB" d="M344 373.639L398.397 366l4.153 8.274c.296.587.45 1.235.45 1.891v18.628a1.974 1.974 0 0 1-1.969 1.978h-31.048c-1.273 0-2.53.274-3.688.804L352.788 404 344 373.639z"/>
            <path fill="#D2D8EE" d="M340 366h57.027c1.09 0 1.973.894 1.973 1.998v19.324c0 1.101-.882 1.994-1.969 1.994h-31.39a8.806 8.806 0 0 0-3.719.824l-7.737 3.86L340 366z"/>
            <path fill="#FF7E59" d="M376.327 384h-5.654c-.372 0-.673-.324-.673-.724v-12.552c0-.4.301-.724.673-.724h5.654c.372 0 .673.324.673.724v12.552c0 .4-.3.724-.673.724M368.327 384h-5.654c-.372 0-.673-.324-.673-.724v-12.552c0-.4.3-.724.673-.724h5.654c.372 0 .673.324.673.724v12.552c0 .4-.301.724-.673.724M360.327 384h-5.654c-.372 0-.673-.324-.673-.724v-12.552c0-.4.3-.724.673-.724h5.654c.372 0 .673.324.673.724v12.552c0 .4-.301.724-.673.724M351.327 384h-5.654c-.372 0-.673-.324-.673-.724v-12.552c0-.4.301-.724.673-.724h5.654c.372 0 .673.324.673.724v12.552c0 .4-.301.724-.673.724"/>
            <path fill="#97BEF7" d="M87 434V311.412a2.848 2.848 0 0 1 2.754-2.854L305 302v154L87 434z"/>
            <path fill="#BCC5E5" d="M125.372 344c-12.79.384-25.581.857-38.372 1.448V381c13.004-.359 26.004-.673 39-.95-.21-12.01-.45-24.035-.628-36.05"/>
            <path fill="#D7DCF0" d="M87 433.101L126.262 437c.35-4.514.621-9.024.738-13.534 0-2.818-.014-5.642-.03-8.466-13.323.063-26.646.186-39.97.384V433.1z"/>
            <path fill="#C9D1EB" d="M87 380.95V415c13.334-.198 26.666-.32 40-.384-.062-11.509-.233-23.054-.439-34.616-13.183.278-26.37.591-39.561.95"/>
            <path fill="#D8E7FC" d="M125.75 307l-35.978 1.083A2.848 2.848 0 0 0 87 310.92V345c13-.594 26-1.07 39-1.455-.183-12.203-.299-24.394-.25-36.545"/>
            <path fill="#D8E7FC" d="M163 306l-37.989 1.169c-.048 12.246.066 24.532.246 36.831a3379.68 3379.68 0 0 1 37.456-.913c.05-12.373.137-24.738.287-37.087"/>
            <path fill="#FFEDA6" d="M163 343a3503.43 3503.43 0 0 0-38 .902c.18 12.03.424 24.072.639 36.098 12.44-.261 24.879-.493 37.314-.701-.008-12.105-.004-24.206.047-36.299"/>
            <path fill="#97BEF7" d="M126.717 415.059c.015 2.847.03 5.693.03 8.535-.12 4.546-.393 9.093-.747 13.643L164 441c-.014-8.66-.035-17.324-.054-25.988-12.41-.025-24.82-.012-37.23.047"/>
            <path fill="#C3CBE8" d="M126 379.714c.204 11.785.374 23.555.436 35.286a5220.46 5220.46 0 0 1 36.564-.047c-.026-11.984-.05-23.97-.058-35.953-12.311.212-24.625.448-36.942.714"/>
            <path fill="#D7DCF0" d="M200 305l-36.71 1.11c-.152 12.284-.24 24.582-.29 36.89 12.194-.23 24.389-.41 36.583-.565.105-12.479.243-24.957.417-37.435"/>
            <path fill="#97BEF7" d="M163.053 441.303L199 445c-.085-9.945-.138-19.89-.168-29.834-11.944-.08-23.888-.14-35.832-.166.018 8.77.039 17.538.053 26.303"/>
            <path fill="#D7DCF0" d="M198.99 379c-11.995.167-23.991.348-35.99.55.009 11.762.033 23.525.058 35.287 11.98.025 23.962.085 35.942.163-.038-12-.042-24-.01-36"/>
            <path fill="#D8E7FC" d="M200 342c-12.317.155-24.633.335-36.95.564-.05 12.138-.055 24.287-.046 36.436 12.27-.204 24.538-.386 36.804-.553.033-12.15.088-24.298.192-36.447"/>
            <path fill="#97BEF7" d="M200.17 444.421L235.727 448c.112-10.908.2-21.815.273-32.723-12-.103-24-.199-36-.277.03 9.807.084 19.614.17 29.421"/>
            <path fill="#BCC5E5" d="M199.021 378.47c-.031 12.085-.028 24.168.01 36.252 11.93.078 23.86.174 35.79.278.083-12.333.144-24.666.179-37-11.992.148-23.984.303-35.979.47"/>
            <path fill="#D7DCF0" d="M235.993 342c-11.935.132-23.87.263-35.806.417A6380.608 6380.608 0 0 0 200 379c11.988-.168 23.974-.323 35.959-.471.034-12.176.052-24.353.034-36.529"/>
            <path fill="#C9D1EB" d="M200.414 305.094c-.173 12.636-.31 25.27-.414 37.906 12-.156 24-.288 36-.422-.02-12.859-.067-25.719-.15-38.578l-35.436 1.094z"/>
            <path fill="#E4E8F5" d="M305 341c-12 .23-24 .412-36 .567.187 12.144.417 24.289.62 36.433 11.793-.14 23.586-.284 35.38-.435V341z"/>
            <path fill="#BED6FA" d="M270 452.425L305 456v-39.737c-11.613-.072-23.225-.164-34.838-.263.068 12.141.037 24.283-.162 36.425"/>
            <path fill="#D7DCF0" d="M270 377.431c.208 12.437.384 24.875.454 37.312 11.516.098 23.03.187 34.546.257v-38c-11.667.15-23.333.292-35 .431"/>
            <path fill="#FFF" d="M269 303.11c.012 12.963.16 25.927.355 38.89 11.883-.156 23.763-.338 35.645-.57V302l-36 1.11z"/>
            <path fill="#D8E7FC" d="M236 303.99c.083 12.67.131 25.34.15 38.01 10.95-.119 21.9-.241 32.85-.383-.197-12.872-.346-25.745-.358-38.617l-32.642.99z"/>
            <path fill="#C9D1EB" d="M269.372 341c-11.112.143-22.225.265-33.338.385.02 12.205.001 24.41-.034 36.615 11.334-.138 22.668-.27 34-.405-.206-12.199-.438-24.397-.628-36.595"/>
            <path fill="#AEBAE0" d="M235 447.574L269.802 451c.203-11.902.234-23.804.165-35.706-11.563-.096-23.126-.197-34.69-.294a9085.6 9085.6 0 0 1-.277 32.574"/>
            <path fill="#C3CBE8" d="M236.18 378.406a9782.416 9782.416 0 0 1-.18 37.295c11.334.098 22.667.201 34 .299-.07-12.667-.247-25.334-.456-38-11.12.134-22.243.268-33.365.406"/>
            <path fill="#7784BB" d="M399 548v-79.552a7.145 7.145 0 0 0-.941-3.544l-33.317-58.324-9.533-.03v-16.745L305 302v153.388L399 548z"/>
            <path fill="#A1AEDB" d="M314.735 318.586L305 302v41.908A1271.32 1271.32 0 0 0 315 360c-.14-13.805-.241-27.61-.265-41.414"/>
            <path fill="#93A3D6" d="M305 344v34.702c3.314 4.786 6.65 9.55 10 14.298-.14-10.947-.267-21.893-.372-32.84A1268.062 1268.062 0 0 1 305 344"/>
            <path fill="#8697D1" d="M305 379v32.735A955.478 955.478 0 0 0 316 425c-.149-10.597-.302-21.193-.446-31.79-3.535-4.72-7.056-9.454-10.554-14.21M305 412v43.137L316 466a12478.79 12478.79 0 0 0-.495-40.72A944.528 944.528 0 0 1 305 412"/>
            <path fill="#83ABF1" d="M328 341.292L315 318c.023 13.889.12 27.778.254 41.667 4.091 6.814 8.238 13.59 12.434 20.333.013-12.889.083-25.788.312-38.708"/>
            <path fill="#A1AEDB" d="M327.97 380.32A1488.808 1488.808 0 0 1 315 360c.11 10.96.241 21.918.386 32.877A2787.124 2787.124 0 0 0 328 410c-.016-9.89-.04-19.783-.03-29.68"/>
            <path fill="#7784BB" d="M315 393c.135 10.776.277 21.552.416 32.329 3.816 4.923 7.67 9.81 11.55 14.671.045-9.905.037-19.808.022-29.713A2811.303 2811.303 0 0 1 315 393"/>
            <path fill="#8697D1" d="M316.502 466.202L327.478 477c.32-12.471.463-24.93.522-37.384-4.031-4.843-8.036-9.711-12-14.616.185 13.734.363 27.468.502 41.202M327.003 380c-.01 9.827.012 19.649.028 29.467A4405.64 4405.64 0 0 0 336.825 423c.09-9.118.161-18.233.175-27.342A1788.979 1788.979 0 0 1 327.003 380"/>
            <path fill="#93A3D6" d="M336.585 358.663L327.314 342c-.23 13.041-.301 26.061-.314 39.07a1824.519 1824.519 0 0 0 9.998 15.93c.02-12.795-.074-25.578-.413-38.337"/>
            <path fill="#7E8EC6" d="M327 439.417c3.23 3.875 6.477 7.734 9.734 11.583.073-9.125.176-18.252.266-27.376A4437.248 4437.248 0 0 1 327.022 410c.017 9.807.025 19.61-.022 29.417"/>
            <path fill="#658EE7" d="M327.507 440c-.058 12.321-.195 24.646-.507 36.983L336.987 487c-.117-11.815-.078-23.64.013-35.47a1985.29 1985.29 0 0 1-9.493-11.53"/>
            <path fill="#8697D1" d="M345.434 373.45L337 358c.332 12.75.423 25.525.404 38.311 2.849 4.575 5.715 9.137 8.596 13.689-.083-12.192-.24-24.38-.566-36.55"/>
            <path fill="#6F98EA" d="M337.174 396c-.014 9.164-.085 18.335-.174 27.508 2.997 4.168 5.998 8.33 9 12.492-.014-8.817-.036-17.637-.098-26.454-2.925-4.504-5.836-9.019-8.728-13.546"/>
            <path fill="#658EE7" d="M337.279 424c-.096 9.221-.203 18.444-.279 27.667A4046.81 4046.81 0 0 0 347 463c-.037-8.783-.047-17.573-.061-26.366a9533.509 9533.509 0 0 1-9.66-12.634"/>
            <path fill="#7784BB" d="M337.088 451c-.093 11.784-.134 23.566-.013 35.337L347 496c-.224-11.273-.32-22.57-.367-33.878-3.187-3.701-6.37-7.407-9.545-11.122"/>
            <path fill="#8697D1" d="M355.338 388.843L346 373c.35 12.104.519 24.226.608 36.353 3.117 4.559 6.248 9.107 9.392 13.647-.2-11.37-.416-22.751-.662-34.157M347 410c.06 8.774.082 17.551.095 26.325 2.97 4.226 5.938 8.45 8.905 12.675-.121-8.491-.254-16.988-.394-25.488-2.881-4.494-5.75-8.998-8.606-13.512"/>
            <path fill="#658EE7" d="M347 436c.014 8.83.024 17.658.06 26.477 3.313 3.843 6.628 7.684 9.94 11.523-.113-8.354-.235-16.71-.362-25.066L347 436"/>
            <path fill="#7E8EC6" d="M347 462c.047 11.474.141 22.936.363 34.373L357 506c-.126-10.865-.26-21.72-.403-32.575-3.198-3.807-6.399-7.614-9.597-11.425"/>
            <path fill="#6F7BAF" d="M373.858 421.887L365 407c.088 10.177.138 20.354.16 30.532A5079.29 5079.29 0 0 0 374 450c-.1-9.38-.156-18.753-.142-28.113"/>
            <path fill="#6F7BAF" d="M365 437c.017 7.97.018 15.941 0 23.912 3.008 4.024 6.007 8.053 9 12.088-.134-7.84-.243-15.675-.325-23.506-2.897-4.16-5.79-8.325-8.675-12.494"/>
            <path fill="#5B84E4" d="M365.086 461c-.015 7.598-.042 15.196-.086 22.794 3.01 3.728 6.012 7.461 9 11.206-.141-7.25-.272-14.5-.387-21.748-2.836-4.09-5.678-8.173-8.527-12.252"/>
            <path fill="#517BE0" d="M365.25 484c-.06 9.995-.142 19.99-.25 29.985L375 524c-.207-9.652-.415-19.31-.609-28.967A2374.834 2374.834 0 0 0 365.25 484"/>
            <g transform="translate(77 381)">
                <mask id="f" fill="#fff">
                    <use xlink:href="#e"/>
                </mask>
                <path fill="#6871A4" d="M72.761.36C28.393 17.73.809 54.075.191 73.527-2.625 162.203 26.64 195.48 26.64 195.48l62.27.14C68.756 137.303 65.396 65.903 72.761.36" mask="url(#f)"/>
            </g>
            <path fill="#8697D1" d="M90.673 540.696c3.42 4.633 8.706 6.486 14.925 2.78 1.382-.824 6.341 35.263.932 33.459-3.901-1.302-8.393-8.868-10.364-12.458-4.353-7.926-9.535-22.237-12.644-35.517-2.654-11.335-4.759-25.326-4.5-36.96 0 0 4.039 38.386 11.651 48.696"/>
            <path fill="#37375F" d="M402.962 542.52a14261.093 14261.093 0 0 0-53.16-52.546c-22.778-22.394-45.387-46.33-73.711-66.276-51.29-36.118-92.142-40.594-108.708-43.048-8.362-1.239-12.101-.616-16.58 1.099-.339.13-.674.264-1.01.396-7.806 64.626-4.09 151.497 16.073 194.374 82.415.182 218.711.481 226.675.481C404 577 404 567.4 404 567.4v-22.38a3.52 3.52 0 0 0-1.038-2.5"/>
            <path fill="#8697D1" d="M120.116 540.312c-21.86-10.508-26.6 17.994-24.752 21.728 4.725 9.55 8.514 13.814 8.514 13.814s25.55.062 64.122.146c-2.014-3.1-24.15-24.562-47.884-35.688"/>
            <path fill="#42426C" d="M403.959 542.397a13677.237 13677.237 0 0 0-34.042-33.719c-9.353-4.717-19.918-8.447-44.156-32.068-14.335-13.97-26.31-20.513-51.169-31.702-26.003-11.703-47.207-35.282-68.778-45.17-9.943-4.56-40.603-9.117-50.961 36.882-7.95 35.302-3.63 106.917 13.258 139.904 82.996.184 217.516.476 225.392.476C405 577 405 567.365 405 567.365v-22.46c0-.942-.374-1.844-1.041-2.508"/>
            <path fill="#4A4B77" d="M267.928 551.508c10.101-11.522 14.608-29.74 15.851-48.268 1.922-28.646-7.917-69.77-60.232-50.1-41.325 15.538-67.75 75.354-55.56 119.304 6.141.426 16.028 1.103 22.564 1.556 6.48-28.592 48.586-15.177 77.377-22.492"/>
            <path fill="#646D9F" d="M163 576.573c67.082.146 147.406.328 196 .427-14.712-24.906-34.994-13.398-67.691-32.304-51.03-29.506-96.74-2.877-128.309 31.877"/>
            <path fill="#37375F" d="M198.758 431.234c-3.105 3.855-7.082 5.758-8.881 4.248-1.8-1.51-.74-5.86 2.365-9.716 3.105-3.856 7.082-5.757 8.881-4.248 1.8 1.51.74 5.86-2.365 9.716M120.736 433.108c2.78 3.287 6.495 4.784 8.298 3.344 1.802-1.44 1.01-5.273-1.77-8.56-2.78-3.287-6.496-4.784-8.298-3.344-1.802 1.44-1.01 5.273 1.77 8.56"/>
            <path fill="#FFF" d="M327.987 576.113c-3.416 0-5.28-.83-14.907-.622-2.794.06-5.279-1.555-9.316-.622-4.037.933-6.521-2.177-9.937-2.799-3.416-.622-4.037-.31-10.248.622-4.128.62-8.531.004-11.02-.48-.757-.146-1.023-1.112-.433-1.61 1.54-1.302 3.59-3.962.894-5.062-8.385-3.42-25.154 3.11-27.949 3.732-2.795.622-4.431-.674-1.553-5.287 3.106-4.975 2.4-18.772-18.632-16.792-36.334 3.42-51.55 25.188-59.936 25.188-7.246 0-15.557-13.073-34.16-20.524-14.492-5.804-21.44-1.713-24.015 3.007-2.185 4.006-.562 9.205.23 11.238.132.344-.153.662-.52.63-1.237-.104-4.187-.104-6.206 1.84-2.115 2.036-.31 5.597 1.786 6.763-6.133.545-7.065 2.488-7.065 2.488s2.766-.064 13.073-.064c5.149 0 9.596 2.023 20.36 2.697 3.668.23 15.014.107 20.291.321 5.745.234 7.531 1.944 15.295 2.177 11.8.355 22.67-1.461 30.433-1.555 25.775-.31 40.994-3.546 49.687-3.731 14.596-.311 24.223.933 31.987.933 14.288 0 26.396-1.244 43.786-1.244 17.391 0 29.088-.725 29.088-.725s-17.597-.52-21.013-.52"/>
            <g transform="translate(77 422)">
                <mask id="h" fill="#fff">
                    <use xlink:href="#g"/>
                </mask>
                <path fill="#FF7E59" d="M15.89.456C5.994 12.316.474 23.929.197 32.36c-1.204 36.786 3.304 64 8.978 83.25C1.531 77.218 2.67 36.82 15.891.456" mask="url(#h)"/>
            </g>
        </g>
    </g>
</svg>
