<svg xmlns="http://www.w3.org/2000/svg" xmlns:xlink="http://www.w3.org/1999/xlink" width="373" height="560" viewBox="0 0 373 560">
    <defs>
        <rect id="a" width="373" height="560" rx="4"/>
        <path id="c" d="M12.46.61C5.488 2.273-.7 8.436.562 18.423c1.262 9.988 10.057 18.716 17.183 17.868 7.313-.87 11.342-11.359 9.242-25.404C25.803 2.972 21.858.064 16.686.064c-1.336 0-2.753.194-4.225.545"/>
        <radialGradient id="d" cx="52.827%" cy="-129.267%" r="272.137%" fx="52.827%" fy="-129.267%" gradientTransform="scale(1 .7481) rotate(85.652 .763 -1.51)">
            <stop offset="0%" stop-color="#FFE8E8"/>
            <stop offset="100%" stop-color="#FDACAC"/>
        </radialGradient>
        <path id="f" d="M2.907 3.7C.921 8.169-.303 14.09.993 15.715c.958 1.201 11.601 5.146 17.376 10.241 8.818 7.781 14.998 13.017 18.827 15.677 3.83 2.66 8.621 5.373 11.574 3.605 2.437-1.46 4.613-8.926 5.917-19.911-7.309-4.405-27.305-14.124-34.288-17.68-2.546-1.296-9.05-6.521-9.05-6.521S9.695.046 7.734.046C6.07.046 4.186.824 2.907 3.7"/>
        <path id="h" d="M2.907 3.7C.921 8.169-.303 14.09.993 15.715c.958 1.201 11.601 5.146 17.376 10.241 8.818 7.781 14.998 13.017 18.827 15.677 3.83 2.66 8.621 5.373 11.574 3.605 2.437-1.46 4.613-8.926 5.917-19.911-7.309-4.405-27.305-14.124-34.288-17.68-2.546-1.296-9.05-6.521-9.05-6.521S9.695.046 7.734.046C6.07.046 4.186.824 2.907 3.7"/>
        <path id="j" d="M2.907 3.7C.921 8.169-.303 14.09.993 15.715c.958 1.201 11.601 5.146 17.376 10.241 8.818 7.781 14.998 13.017 18.827 15.677 3.83 2.66 8.621 5.373 11.574 3.605 2.437-1.46 4.613-8.926 5.917-19.911-7.309-4.405-27.305-14.124-34.288-17.68-2.546-1.296-9.05-6.521-9.05-6.521S9.695.046 7.734.046C6.07.046 4.186.824 2.907 3.7"/>
        <path id="l" d="M2.907 3.7C.921 8.169-.303 14.09.993 15.715c.958 1.201 11.601 5.146 17.376 10.241 8.818 7.781 14.998 13.017 18.827 15.677 3.83 2.66 8.621 5.373 11.574 3.605 2.437-1.46 4.613-8.926 5.917-19.911-7.309-4.405-27.305-14.124-34.288-17.68-2.546-1.296-9.05-6.521-9.05-6.521S9.695.046 7.734.046C6.07.046 4.186.824 2.907 3.7"/>
        <path id="n" d="M2.907 3.7C.921 8.169-.303 14.09.993 15.715c.958 1.201 11.601 5.146 17.376 10.241 8.818 7.781 14.998 13.017 18.827 15.677 3.83 2.66 8.621 5.373 11.574 3.605 2.437-1.46 4.613-8.926 5.917-19.911-7.309-4.405-27.305-14.124-34.288-17.68-2.546-1.296-9.05-6.521-9.05-6.521S9.695.046 7.734.046C6.07.046 4.186.824 2.907 3.7"/>
        <path id="p" d="M2.907 3.7C.921 8.169-.303 14.09.993 15.715c.958 1.201 11.601 5.146 17.376 10.241 8.818 7.781 14.998 13.017 18.827 15.677 3.83 2.66 8.621 5.373 11.574 3.605 2.437-1.46 4.613-8.926 5.917-19.911-7.309-4.405-27.305-14.124-34.288-17.68-2.546-1.296-9.05-6.521-9.05-6.521S9.695.046 7.734.046C6.07.046 4.186.824 2.907 3.7"/>
        <path id="r" d="M2.907 3.7C.921 8.169-.303 14.09.993 15.715c.958 1.201 11.601 5.146 17.376 10.241 8.818 7.781 14.998 13.017 18.827 15.677 3.83 2.66 8.621 5.373 11.574 3.605 2.437-1.46 4.613-8.926 5.917-19.911-7.309-4.405-27.305-14.124-34.288-17.68-2.546-1.296-9.05-6.521-9.05-6.521S9.695.046 7.734.046C6.07.046 4.186.824 2.907 3.7"/>
        <path id="t" d="M62.423.71s-2.16 8.803-20.853 14.613c-19.522 6.066-31.194 1.137-31.194 1.137C1.513 21.097 1.02 32.006.5 41.63c-.258 4.77 0 25.2 0 25.2 3.476 1.866 9.5 4.9 18.652 10.091.799-6.858.695-22.224.695-22.224-4.662-6.885-3.561-15.954-3.736-17.355-.174-1.4-.782-4.695-.782-4.695l60.041-3.063s15.727 7.7 38.319 17.938c-.521-2.976-2.52-19.688-3.041-22.838-8.516-4.988-18.333-12.95-30.237-19.6C73.326 1.128 66.522.668 63.74.668c-.843 0-1.317.042-1.317.042"/>
        <path id="v" d="M62.423.71s-2.16 8.803-20.853 14.613c-19.522 6.066-31.194 1.137-31.194 1.137C1.513 21.097 1.02 32.006.5 41.63c-.258 4.77 0 25.2 0 25.2 3.476 1.866 9.5 4.9 18.652 10.091.799-6.858.695-22.224.695-22.224-4.662-6.885-3.561-15.954-3.736-17.355-.174-1.4-.782-4.695-.782-4.695l60.041-3.063s15.727 7.7 38.319 17.938c-.521-2.976-2.52-19.688-3.041-22.838-8.516-4.988-18.333-12.95-30.237-19.6C73.326 1.128 66.522.668 63.74.668c-.843 0-1.317.042-1.317.042"/>
        <path id="x" d="M62.423.71s-2.16 8.803-20.853 14.613c-19.522 6.066-31.194 1.137-31.194 1.137C1.513 21.097 1.02 32.006.5 41.63c-.258 4.77 0 25.2 0 25.2 3.476 1.866 9.5 4.9 18.652 10.091.799-6.858.695-22.224.695-22.224-4.662-6.885-3.561-15.954-3.736-17.355-.174-1.4-.782-4.695-.782-4.695l60.041-3.063s15.727 7.7 38.319 17.938c-.521-2.976-2.52-19.688-3.041-22.838-8.516-4.988-18.333-12.95-30.237-19.6C73.326 1.128 66.522.668 63.74.668c-.843 0-1.317.042-1.317.042"/>
        <path id="z" d="M62.423.71s-2.16 8.803-20.853 14.613c-19.522 6.066-31.194 1.137-31.194 1.137C1.513 21.097 1.02 32.006.5 41.63c-.258 4.77 0 25.2 0 25.2 3.476 1.866 9.5 4.9 18.652 10.091.799-6.858.695-22.224.695-22.224-4.662-6.885-3.561-15.954-3.736-17.355-.174-1.4-.782-4.695-.782-4.695l60.041-3.063s15.727 7.7 38.319 17.938c-.521-2.976-2.52-19.688-3.041-22.838-8.516-4.988-18.333-12.95-30.237-19.6C73.326 1.128 66.522.668 63.74.668c-.843 0-1.317.042-1.317.042"/>
        <path id="B" d="M62.423.71s-2.16 8.803-20.853 14.613c-19.522 6.066-31.194 1.137-31.194 1.137C1.513 21.097 1.02 32.006.5 41.63c-.258 4.77 0 25.2 0 25.2 3.476 1.866 9.5 4.9 18.652 10.091.799-6.858.695-22.224.695-22.224-4.662-6.885-3.561-15.954-3.736-17.355-.174-1.4-.782-4.695-.782-4.695l60.041-3.063s15.727 7.7 38.319 17.938c-.521-2.976-2.52-19.688-3.041-22.838-8.516-4.988-18.333-12.95-30.237-19.6C73.326 1.128 66.522.668 63.74.668c-.843 0-1.317.042-1.317.042"/>
        <path id="D" d="M62.423.71s-2.16 8.803-20.853 14.613c-19.522 6.066-31.194 1.137-31.194 1.137C1.513 21.097 1.02 32.006.5 41.63c-.258 4.77 0 25.2 0 25.2 3.476 1.866 9.5 4.9 18.652 10.091.799-6.858.695-22.224.695-22.224-4.662-6.885-3.561-15.954-3.736-17.355-.174-1.4-.782-4.695-.782-4.695l60.041-3.063s15.727 7.7 38.319 17.938c-.521-2.976-2.52-19.688-3.041-22.838-8.516-4.988-18.333-12.95-30.237-19.6C73.326 1.128 66.522.668 63.74.668c-.843 0-1.317.042-1.317.042"/>
        <path id="F" d="M62.423.71s-2.16 8.803-20.853 14.613c-19.522 6.066-31.194 1.137-31.194 1.137C1.513 21.097 1.02 32.006.5 41.63c-.258 4.77 0 25.2 0 25.2 3.476 1.866 9.5 4.9 18.652 10.091.799-6.858.695-22.224.695-22.224-4.662-6.885-3.561-15.954-3.736-17.355-.174-1.4-.782-4.695-.782-4.695l60.041-3.063s15.727 7.7 38.319 17.938c-.521-2.976-2.52-19.688-3.041-22.838-8.516-4.988-18.333-12.95-30.237-19.6C73.326 1.128 66.522.668 63.74.668c-.843 0-1.317.042-1.317.042"/>
        <path id="H" d="M62.423.71s-2.16 8.803-20.853 14.613c-19.522 6.066-31.194 1.137-31.194 1.137C1.513 21.097 1.02 32.006.5 41.63c-.258 4.77 0 25.2 0 25.2 3.476 1.866 9.5 4.9 18.652 10.091.799-6.858.695-22.224.695-22.224-4.662-6.885-3.561-15.954-3.736-17.355-.174-1.4-.782-4.695-.782-4.695l60.041-3.063s15.727 7.7 38.319 17.938c-.521-2.976-2.52-19.688-3.041-22.838-8.516-4.988-18.333-12.95-30.237-19.6C73.326 1.128 66.522.668 63.74.668c-.843 0-1.317.042-1.317.042"/>
        <path id="J" d="M62.423.71s-2.16 8.803-20.853 14.613c-19.522 6.066-31.194 1.137-31.194 1.137C1.513 21.097 1.02 32.006.5 41.63c-.258 4.77 0 25.2 0 25.2 3.476 1.866 9.5 4.9 18.652 10.091.799-6.858.695-22.224.695-22.224-4.662-6.885-3.561-15.954-3.736-17.355-.174-1.4-.782-4.695-.782-4.695l60.041-3.063s15.727 7.7 38.319 17.938c-.521-2.976-2.52-19.688-3.041-22.838-8.516-4.988-18.333-12.95-30.237-19.6C73.326 1.128 66.522.668 63.74.668c-.843 0-1.317.042-1.317.042"/>
        <path id="L" d="M62.423.71s-2.16 8.803-20.853 14.613c-19.522 6.066-31.194 1.137-31.194 1.137C1.513 21.097 1.02 32.006.5 41.63c-.258 4.77 0 25.2 0 25.2 3.476 1.866 9.5 4.9 18.652 10.091.799-6.858.695-22.224.695-22.224-4.662-6.885-3.561-15.954-3.736-17.355-.174-1.4-.782-4.695-.782-4.695l60.041-3.063s15.727 7.7 38.319 17.938c-.521-2.976-2.52-19.688-3.041-22.838-8.516-4.988-18.333-12.95-30.237-19.6C73.326 1.128 66.522.668 63.74.668c-.843 0-1.317.042-1.317.042"/>
        <path id="N" d="M62.423.71s-2.16 8.803-20.853 14.613c-19.522 6.066-31.194 1.137-31.194 1.137C1.513 21.097 1.02 32.006.5 41.63c-.258 4.77 0 25.2 0 25.2 3.476 1.866 9.5 4.9 18.652 10.091.799-6.858.695-22.224.695-22.224-4.662-6.885-3.561-15.954-3.736-17.355-.174-1.4-.782-4.695-.782-4.695l60.041-3.063s15.727 7.7 38.319 17.938c-.521-2.976-2.52-19.688-3.041-22.838-8.516-4.988-18.333-12.95-30.237-19.6C73.326 1.128 66.522.668 63.74.668c-.843 0-1.317.042-1.317.042"/>
        <path id="P" d="M62.423.71s-2.16 8.803-20.853 14.613c-19.522 6.066-31.194 1.137-31.194 1.137C1.513 21.097 1.02 32.006.5 41.63c-.258 4.77 0 25.2 0 25.2 3.476 1.866 9.5 4.9 18.652 10.091.799-6.858.695-22.224.695-22.224-4.662-6.885-3.561-15.954-3.736-17.355-.174-1.4-.782-4.695-.782-4.695l60.041-3.063s15.727 7.7 38.319 17.938c-.521-2.976-2.52-19.688-3.041-22.838-8.516-4.988-18.333-12.95-30.237-19.6C73.326 1.128 66.522.668 63.74.668c-.843 0-1.317.042-1.317.042"/>
        <path id="R" d="M62.423.71s-2.16 8.803-20.853 14.613c-19.522 6.066-31.194 1.137-31.194 1.137C1.513 21.097 1.02 32.006.5 41.63c-.258 4.77 0 25.2 0 25.2 3.476 1.866 9.5 4.9 18.652 10.091.799-6.858.695-22.224.695-22.224-4.662-6.885-3.561-15.954-3.736-17.355-.174-1.4-.782-4.695-.782-4.695l60.041-3.063s15.727 7.7 38.319 17.938c-.521-2.976-2.52-19.688-3.041-22.838-8.516-4.988-18.333-12.95-30.237-19.6C73.326 1.128 66.522.668 63.74.668c-.843 0-1.317.042-1.317.042"/>
        <path id="T" d="M62.423.71s-2.16 8.803-20.853 14.613c-19.522 6.066-31.194 1.137-31.194 1.137C1.513 21.097 1.02 32.006.5 41.63c-.258 4.77 0 25.2 0 25.2 3.476 1.866 9.5 4.9 18.652 10.091.799-6.858.695-22.224.695-22.224-4.662-6.885-3.561-15.954-3.736-17.355-.174-1.4-.782-4.695-.782-4.695l60.041-3.063s15.727 7.7 38.319 17.938c-.521-2.976-2.52-19.688-3.041-22.838-8.516-4.988-18.333-12.95-30.237-19.6C73.326 1.128 66.522.668 63.74.668c-.843 0-1.317.042-1.317.042"/>
        <path id="V" d="M62.861.702s-2.174 8.713-21 14.463C22.203 21.168 10.45 16.29 10.45 16.29 1.524 20.88 1.028 31.676.503 41.2c3.208-5.715 15.957-10.938 15.72-1.53-.233 9.295 3.763 14.462 3.763 14.462 4.725 5.888 10.517 10.415 11.463 15.154 1.468 7.354.686 14.4-.205 22.198a962.793 962.793 0 0 0-1.69 16.222l32.957 7.043 32.725-16.28c-2.1-8.313-7.175-20.783-12.075-33.253-4.9-12.47-6.037-18.618-7-23.554-.86-4.415-.263-12.384-.263-12.384s36.05-1.731 35.525-4.848c-8.575-4.937-18.462-12.817-30.45-19.398C73.84 1.116 66.99.661 64.189.661c-.85 0-1.327.041-1.327.041"/>
        <path id="X" d="M62.861.702s-2.174 8.713-21 14.463C22.203 21.168 10.45 16.29 10.45 16.29 1.524 20.88 1.028 31.676.503 41.2c3.208-5.715 15.957-10.938 15.72-1.53-.233 9.295 3.763 14.462 3.763 14.462 4.725 5.888 10.517 10.415 11.463 15.154 1.468 7.354.686 14.4-.205 22.198a962.793 962.793 0 0 0-1.69 16.222l32.957 7.043 32.725-16.28c-2.1-8.313-7.175-20.783-12.075-33.253-4.9-12.47-6.037-18.618-7-23.554-.86-4.415-.263-12.384-.263-12.384s36.05-1.731 35.525-4.848c-8.575-4.937-18.462-12.817-30.45-19.398C73.84 1.116 66.99.661 64.189.661c-.85 0-1.327.041-1.327.041"/>
        <path id="Z" d="M62.861.702s-2.174 8.713-21 14.463C22.203 21.168 10.45 16.29 10.45 16.29 1.524 20.88 1.028 31.676.503 41.2c3.208-5.715 15.957-10.938 15.72-1.53-.233 9.295 3.763 14.462 3.763 14.462 4.725 5.888 10.517 10.415 11.463 15.154 1.468 7.354.686 14.4-.205 22.198a962.793 962.793 0 0 0-1.69 16.222l32.957 7.043 32.725-16.28c-2.1-8.313-7.175-20.783-12.075-33.253-4.9-12.47-6.037-18.618-7-23.554-.86-4.415-.263-12.384-.263-12.384s36.05-1.731 35.525-4.848c-8.575-4.937-18.462-12.817-30.45-19.398C73.84 1.116 66.99.661 64.189.661c-.85 0-1.327.041-1.327.041"/>
        <path id="ab" d="M62.861.702s-2.174 8.713-21 14.463C22.203 21.168 10.45 16.29 10.45 16.29 1.524 20.88 1.028 31.676.503 41.2c3.208-5.715 15.957-10.938 15.72-1.53-.233 9.295 3.763 14.462 3.763 14.462 4.725 5.888 10.517 10.415 11.463 15.154 1.468 7.354.686 14.4-.205 22.198a962.793 962.793 0 0 0-1.69 16.222l32.957 7.043 32.725-16.28c-2.1-8.313-7.175-20.783-12.075-33.253-4.9-12.47-6.037-18.618-7-23.554-.86-4.415-.263-12.384-.263-12.384s36.05-1.731 35.525-4.848c-8.575-4.937-18.462-12.817-30.45-19.398C73.84 1.116 66.99.661 64.189.661c-.85 0-1.327.041-1.327.041"/>
        <path id="ad" d="M62.861.702s-2.174 8.713-21 14.463C22.203 21.168 10.45 16.29 10.45 16.29 1.524 20.88 1.028 31.676.503 41.2c3.208-5.715 15.957-10.938 15.72-1.53-.233 9.295 3.763 14.462 3.763 14.462 4.725 5.888 10.517 10.415 11.463 15.154 1.468 7.354.686 14.4-.205 22.198a962.793 962.793 0 0 0-1.69 16.222l32.957 7.043 32.725-16.28c-2.1-8.313-7.175-20.783-12.075-33.253-4.9-12.47-6.037-18.618-7-23.554-.86-4.415-.263-12.384-.263-12.384s36.05-1.731 35.525-4.848c-8.575-4.937-18.462-12.817-30.45-19.398C73.84 1.116 66.99.661 64.189.661c-.85 0-1.327.041-1.327.041"/>
        <path id="af" d="M62.861.702s-2.174 8.713-21 14.463C22.203 21.168 10.45 16.29 10.45 16.29 1.524 20.88 1.028 31.676.503 41.2c3.208-5.715 15.957-10.938 15.72-1.53-.233 9.295 3.763 14.462 3.763 14.462 4.725 5.888 10.517 10.415 11.463 15.154 1.468 7.354.686 14.4-.205 22.198a962.793 962.793 0 0 0-1.69 16.222l32.957 7.043 32.725-16.28c-2.1-8.313-7.175-20.783-12.075-33.253-4.9-12.47-6.037-18.618-7-23.554-.86-4.415-.263-12.384-.263-12.384s36.05-1.731 35.525-4.848c-8.575-4.937-18.462-12.817-30.45-19.398C73.84 1.116 66.99.661 64.189.661c-.85 0-1.327.041-1.327.041"/>
        <path id="ah" d="M62.861.702s-2.174 8.713-21 14.463C22.203 21.168 10.45 16.29 10.45 16.29 1.524 20.88 1.028 31.676.503 41.2c3.208-5.715 15.957-10.938 15.72-1.53-.233 9.295 3.763 14.462 3.763 14.462 4.725 5.888 10.517 10.415 11.463 15.154 1.468 7.354.686 14.4-.205 22.198a962.793 962.793 0 0 0-1.69 16.222l32.957 7.043 32.725-16.28c-2.1-8.313-7.175-20.783-12.075-33.253-4.9-12.47-6.037-18.618-7-23.554-.86-4.415-.263-12.384-.263-12.384s36.05-1.731 35.525-4.848c-8.575-4.937-18.462-12.817-30.45-19.398C73.84 1.116 66.99.661 64.189.661c-.85 0-1.327.041-1.327.041"/>
        <path id="aj" d="M62.861.702s-2.174 8.713-21 14.463C22.203 21.168 10.45 16.29 10.45 16.29 1.524 20.88 1.028 31.676.503 41.2c3.208-5.715 15.957-10.938 15.72-1.53-.233 9.295 3.763 14.462 3.763 14.462 4.725 5.888 10.517 10.415 11.463 15.154 1.468 7.354.686 14.4-.205 22.198a962.793 962.793 0 0 0-1.69 16.222l32.957 7.043 32.725-16.28c-2.1-8.313-7.175-20.783-12.075-33.253-4.9-12.47-6.037-18.618-7-23.554-.86-4.415-.263-12.384-.263-12.384s36.05-1.731 35.525-4.848c-8.575-4.937-18.462-12.817-30.45-19.398C73.84 1.116 66.99.661 64.189.661c-.85 0-1.327.041-1.327.041"/>
        <path id="al" d="M62.861.702s-2.174 8.713-21 14.463C22.203 21.168 10.45 16.29 10.45 16.29 1.524 20.88 1.028 31.676.503 41.2c3.208-5.715 15.957-10.938 15.72-1.53-.233 9.295 3.763 14.462 3.763 14.462 4.725 5.888 10.517 10.415 11.463 15.154 1.468 7.354.686 14.4-.205 22.198a962.793 962.793 0 0 0-1.69 16.222l32.957 7.043 32.725-16.28c-2.1-8.313-7.175-20.783-12.075-33.253-4.9-12.47-6.037-18.618-7-23.554-.86-4.415-.263-12.384-.263-12.384s36.05-1.731 35.525-4.848c-8.575-4.937-18.462-12.817-30.45-19.398C73.84 1.116 66.99.661 64.189.661c-.85 0-1.327.041-1.327.041"/>
        <path id="an" d="M62.861.702s-2.174 8.713-21 14.463C22.203 21.168 10.45 16.29 10.45 16.29 1.524 20.88 1.028 31.676.503 41.2c3.208-5.715 15.957-10.938 15.72-1.53-.233 9.295 3.763 14.462 3.763 14.462 4.725 5.888 10.517 10.415 11.463 15.154 1.468 7.354.686 14.4-.205 22.198a962.793 962.793 0 0 0-1.69 16.222l32.957 7.043 32.725-16.28c-2.1-8.313-7.175-20.783-12.075-33.253-4.9-12.47-6.037-18.618-7-23.554-.86-4.415-.263-12.384-.263-12.384s36.05-1.731 35.525-4.848c-8.575-4.937-18.462-12.817-30.45-19.398C73.84 1.116 66.99.661 64.189.661c-.85 0-1.327.041-1.327.041"/>
        <path id="ap" d="M62.861.702s-2.174 8.713-21 14.463C22.203 21.168 10.45 16.29 10.45 16.29 1.524 20.88 1.028 31.676.503 41.2c3.208-5.715 15.957-10.938 15.72-1.53-.233 9.295 3.763 14.462 3.763 14.462 4.725 5.888 10.517 10.415 11.463 15.154 1.468 7.354.686 14.4-.205 22.198a962.793 962.793 0 0 0-1.69 16.222l32.957 7.043 32.725-16.28c-2.1-8.313-7.175-20.783-12.075-33.253-4.9-12.47-6.037-18.618-7-23.554-.86-4.415-.263-12.384-.263-12.384s36.05-1.731 35.525-4.848c-8.575-4.937-18.462-12.817-30.45-19.398C73.84 1.116 66.99.661 64.189.661c-.85 0-1.327.041-1.327.041"/>
        <path id="ar" d="M62.861.702s-2.174 8.713-21 14.463C22.203 21.168 10.45 16.29 10.45 16.29 1.524 20.88 1.028 31.676.503 41.2c3.208-5.715 15.957-10.938 15.72-1.53-.233 9.295 3.763 14.462 3.763 14.462 4.725 5.888 10.517 10.415 11.463 15.154 1.468 7.354.686 14.4-.205 22.198a962.793 962.793 0 0 0-1.69 16.222l32.957 7.043 32.725-16.28c-2.1-8.313-7.175-20.783-12.075-33.253-4.9-12.47-6.037-18.618-7-23.554-.86-4.415-.263-12.384-.263-12.384s36.05-1.731 35.525-4.848c-8.575-4.937-18.462-12.817-30.45-19.398C73.84 1.116 66.99.661 64.189.661c-.85 0-1.327.041-1.327.041"/>
        <path id="at" d="M62.861.702s-2.174 8.713-21 14.463C22.203 21.168 10.45 16.29 10.45 16.29 1.524 20.88 1.028 31.676.503 41.2c3.208-5.715 15.957-10.938 15.72-1.53-.233 9.295 3.763 14.462 3.763 14.462 4.725 5.888 10.517 10.415 11.463 15.154 1.468 7.354.686 14.4-.205 22.198a962.793 962.793 0 0 0-1.69 16.222l32.957 7.043 32.725-16.28c-2.1-8.313-7.175-20.783-12.075-33.253-4.9-12.47-6.037-18.618-7-23.554-.86-4.415-.263-12.384-.263-12.384s36.05-1.731 35.525-4.848c-8.575-4.937-18.462-12.817-30.45-19.398C73.84 1.116 66.99.661 64.189.661c-.85 0-1.327.041-1.327.041"/>
        <path id="av" d="M62.861.702s-2.174 8.713-21 14.463C22.203 21.168 10.45 16.29 10.45 16.29 1.524 20.88 1.028 31.676.503 41.2c3.208-5.715 15.957-10.938 15.72-1.53-.233 9.295 3.763 14.462 3.763 14.462 4.725 5.888 10.517 10.415 11.463 15.154 1.468 7.354.686 14.4-.205 22.198a962.793 962.793 0 0 0-1.69 16.222l32.957 7.043 32.725-16.28c-2.1-8.313-7.175-20.783-12.075-33.253-4.9-12.47-6.037-18.618-7-23.554-.86-4.415-.263-12.384-.263-12.384s36.05-1.731 35.525-4.848c-8.575-4.937-18.462-12.817-30.45-19.398C73.84 1.116 66.99.661 64.189.661c-.85 0-1.327.041-1.327.041"/>
        <path id="ax" d="M62.861.702s-2.174 8.713-21 14.463C22.203 21.168 10.45 16.29 10.45 16.29 1.524 20.88 1.028 31.676.503 41.2c3.208-5.715 15.957-10.938 15.72-1.53-.233 9.295 3.763 14.462 3.763 14.462 4.725 5.888 10.517 10.415 11.463 15.154 1.468 7.354.686 14.4-.205 22.198a962.793 962.793 0 0 0-1.69 16.222l32.957 7.043 32.725-16.28c-2.1-8.313-7.175-20.783-12.075-33.253-4.9-12.47-6.037-18.618-7-23.554-.86-4.415-.263-12.384-.263-12.384s36.05-1.731 35.525-4.848c-8.575-4.937-18.462-12.817-30.45-19.398C73.84 1.116 66.99.661 64.189.661c-.85 0-1.327.041-1.327.041"/>
        <path id="az" d="M62.861.702s-2.174 8.713-21 14.463C22.203 21.168 10.45 16.29 10.45 16.29 1.524 20.88 1.028 31.676.503 41.2c3.208-5.715 15.957-10.938 15.72-1.53-.233 9.295 3.763 14.462 3.763 14.462 4.725 5.888 10.517 10.415 11.463 15.154 1.468 7.354.686 14.4-.205 22.198a962.793 962.793 0 0 0-1.69 16.222l32.957 7.043 32.725-16.28c-2.1-8.313-7.175-20.783-12.075-33.253-4.9-12.47-6.037-18.618-7-23.554-.86-4.415-.263-12.384-.263-12.384s36.05-1.731 35.525-4.848c-8.575-4.937-18.462-12.817-30.45-19.398C73.84 1.116 66.99.661 64.189.661c-.85 0-1.327.041-1.327.041"/>
        <path id="aB" d="M.48.572h36.247v26.046H.48z"/>
        <path id="aD" d="M.57 13.922c-.385 11.4 3.378 26.426 13.69 27.475 10.727 1.093 17.214-14.852 17.6-26.249C32.244 3.749 24.995.386 16.555.109 16.18.097 15.806.09 15.433.09 7.491.09.938 3.034.57 13.922"/>
        <radialGradient id="aE" cx="51.72%" cy="-66.834%" r="172.072%" fx="51.72%" fy="-66.834%" gradientTransform="scale(-1 -.7575) rotate(-88.866 .79 .635)">
            <stop offset="0%" stop-color="#FFE8E8"/>
            <stop offset="100%" stop-color="#FDACAC"/>
        </radialGradient>
        <path id="aG" d="M7.036 31.401c6.3 1.391 16.333-5.797 16.333-5.797L27.336 6.59.27.33S-1.364 29.545 7.036 31.4"/>
        <radialGradient id="aH" cx="-100.774%" cy="-21.516%" r="169.095%" fx="-100.774%" fy="-21.516%" gradientTransform="scale(1 .8702) rotate(39.074 -.963 -.231)">
            <stop offset="0%" stop-color="#FFE8E8"/>
            <stop offset="100%" stop-color="#FDACAC"/>
        </radialGradient>
        <path id="aJ" d="M.661 4.05S.504 15.388 5.555 26.897c1.695 3.866 5.013 7.617 12.532 2.78L32.649 18.92 29.784.183.661 4.05z"/>
        <radialGradient id="aK" cx="-121.212%" cy="-33.079%" r="206.259%" fx="-121.212%" fy="-33.079%" gradientTransform="scale(.99358 1) rotate(33.34 -1.216 -.344)">
            <stop offset="0%" stop-color="#FFE8E8"/>
            <stop offset="100%" stop-color="#FDACAC"/>
        </radialGradient>
    </defs>
    <g fill="none" fill-rule="evenodd">
        <mask id="b" fill="#fff">
            <use xlink:href="#a"/>
        </mask>
        <g mask="url(#b)">
            <path fill="#E09595" d="M361.42 542.624c2.9 4.055 3.829 8.457 3.829 8.457s3.711 4.402 9.511.579c5.801-3.823 6.38-6.719 4.872-8.573-1.507-1.853-3.132-5.329-3.132-5.329s-17.98.811-15.08 4.866"/>
            <path fill="#2B2B51" d="M295.647 367.696s-1.273 70.38 7.656 98.47c4.64 14.596 15.776 17.609 31.32 42.168a18598.792 18598.792 0 0 0 24.526 38.652 1.5 1.5 0 0 0 2.005.5s10.775-6.391 15.26-9.325a.627.627 0 0 0 .234-.766c-10.74-25.723-13.68-46.01-26.016-61.035-9.974-12.147-13.456-25.717-13.456-25.717l-10.44-80.63-31.09-2.317z"/>
            <path fill="#42426C" d="M304 370.245l15.775 17.84s-5.568 72.984-5.8 81.556c-.217 8.006-.635 81.891-.69 91.62a1.124 1.124 0 0 0 1.054 1.128l15.995 1.25c.588.039 1.107-.38 1.192-.963l31.17-194.747L304 370.245z"/>
            <path fill="#2B2B51" d="M363.914 549.082c-.678.723-.783 3.563-5.48 8.776-3.376 3.745-10.093 7.646-12.703 8.862-2.61 1.216-2.784 4.344.87 4.344 1.914 0 10.092.174 13.92-.347 3.89-.53 16.813-8.834 21.577-12.164 5.22-3.65 7.178-5.685 5.916-7.646-1.566-2.433-2.958-3.65-4.176-4.866-1.218-1.216-3.48-4.865-4.524-4.518-1.044.348-1.053 2.992-2.118 4.345-1.275 1.621-6.235 5.213-7.975 5.213-1.74 0-4.002-3.389-5.307-1.999"/>
            <path fill="#42426C" d="M250.116 305.893s24.302-31.474 30.276-41.031c2.097-3.355 4.611.977 7.83 9.057 3.22 8.08 4.177 20.331 4.177 20.331s-12.993 15.987-23.665 25.023c-10.862 9.197-16.878 12.685-16.878 12.685l-1.74-26.065z"/>
            <path fill="#2B2B51" d="M264.605 286.843c-7.439 9.92-14.49 19.05-14.49 19.05l1.74 26.065s6.017-3.488 16.879-12.685c6.785-5.745 14.503-14.294 19.229-19.763-7.796-4.15-15.76-8.092-23.358-12.667M281.726 290.08l4.843-12.164 1.886 13.785z"/>
            <path fill="#E09595" d="M189.896 280.837c5.495-3.616 17.13-9.606 26.723-12.13 11.224-2.955 25.582-2.725 29.149-2.638 7.267.177-4.962 17.581-26.712 21.752-14.21 2.725-24.037 2.334-28.902.04-2.872-1.355-2.91-5.279-.258-7.024z"/>
            <path fill="#2474CD" d="M219.554 222.885c6.954 6.944-18.228 32.092-25.183 25.147-6.953-6.944-6.953-18.203 0-25.147 6.955-6.945 18.229-6.945 25.183 0"/>
            <path fill="#23478D" d="M240.737 223.205c5.957 8.256-3.672 21.507-19.912 32.584-16.473 11.237-33.177 15.755-37.872 8.99-5.219-7.52 3.238-22.748 19.195-34.228 15.956-11.48 33.234-14.77 38.589-7.346"/>
            <path fill="#423748" d="M198.088 249.07c-1.044 7.646-3.102 9.743-5.046 14.597-1.392 3.475-.93 9.411 4.002 10.774 5.452 1.506 9.28-3.128 19.72-5.735 10.44-2.606 9.165-1.564 11.95-2.085 4.98-.933 10.44-3.823 12.005-9.731 1.18-4.448-3.48-7.993-6.438-11.121-2.958-3.128-4.744-8.113-7.83-10.774-3.828-3.302-8.7-3.65-12.702-2.607-5.806 1.513-14.853 10.765-15.66 16.682"/>
            <path fill="#E09595" d="M206.267 261.06s1.914 7.472.348 13.554c-1.21 4.7 12.75-.25 19.157-2.743a3.782 3.782 0 0 0 2.299-4.42c-.837-3.451-2.03-9.03-2.142-13.168l-19.662 6.777z"/>
            <g transform="translate(200 233)">
                <mask id="e" fill="#fff">
                    <use xlink:href="#c"/>
                </mask>
                <path fill="url(#d)" d="M12.46.61C5.488 2.273-.7 8.436.562 18.423c1.262 9.988 10.057 18.716 17.183 17.868 7.313-.87 11.342-11.359 9.242-25.404C25.803 2.972 21.858.064 16.686.064c-1.336 0-2.753.194-4.225.545" mask="url(#e)"/>
            </g>
            <path fill="#FFAEAE" d="M215.638 238.308c5.513-.78 11.001 1.563 12.214 5.732-1.474-10.098-7.277-12.16-14.38-10.422-6.87 1.68-12.965 7.874-11.797 17.911 1.835-6.533 6.6-12.179 13.963-13.22"/>
            <path fill="#423748" d="M216.244 233.097s-1.04 8.685-12.128 23.103l-2.079 5.211s-5.544-8.685-2.426-17.197c2.797-7.634 11.53-10.102 12.648-10.422 2.83-.811 3.985-.695 3.985-.695"/>
            <path fill="#FFAEAE" d="M203.827 254.81c.997 2.621 2.603 5.19 1.444 5.849-1.16.658-3.465-.174-4.597-2.09-1.425-2.415-1.664-5.198-.658-6.074 1.328-1.159 3.213.742 3.811 2.315"/>
            <path fill="#42426C" d="M190.689 281.996s11.637 4.893 31.1-1.13c18.637-5.766 20.79-14.504 20.79-14.504s8.728-.776 17.932 4.343c11.868 6.6 21.657 14.504 30.146 19.455.52 3.127 2.513 19.716 3.032 22.67-22.523-10.163-38.203-17.806-38.203-17.806s-.592 7.992.26 12.42c.953 4.95 2.08 11.118 6.93 23.625 4.852 12.507 9.876 24.84 11.955 33.178l-32.399 16.502-32.63-7.064s.771-8.251 1.675-16.27c.882-7.822 1.657-14.888.202-22.264-.937-4.754-6.67-9.294-11.348-15.2 0 0 .103 15.253-.693 22.061-1.3 11.118-3.465 18.674-5.89 20.15-2.94 1.79-7.71-.955-11.522-3.647-3.812-2.693-9.962-7.991-18.74-15.866-5.749-5.157-16.344-9.148-17.297-10.364-1.29-1.645-.072-7.638 1.906-12.16 2.772-6.34 8.402-2.606 8.402-2.606s6.475 5.289 9.01 6.601c6.95 3.598 13.514 6.775 15.535 7.875 0 0-.258-20.28 0-25.014.52-9.554 1.01-20.382 9.847-24.985"/>
            <path fill="#C5CBD8" d="M152.19 319.688c1.6.647 1.97 4.111.584 7.559-1.384 3.448-4 5.576-5.6 4.929-1.602-.646-1.098-5.881.288-9.33 1.384-3.448 3.126-3.805 4.727-3.158"/>
            <g>
                <g transform="translate(145 315)">
                    <mask id="g" fill="#fff">
                        <use xlink:href="#f"/>
                    </mask>
                    <path stroke="#4771DD" stroke-width="4" d="M14.656 1.469s1.602 4.433-2.698 11.5c-3.132 5.149-8.673 6.465-8.673 6.465" mask="url(#g)"/>
                </g>
                <g transform="translate(145 315)">
                    <mask id="i" fill="#fff">
                        <use xlink:href="#h"/>
                    </mask>
                    <path stroke="#4771DD" stroke-width="4" d="M19.414 4.1s1.452 4.42-2.287 11.682c-2.913 5.657-8.08 7.714-8.08 7.714" mask="url(#i)"/>
                </g>
                <g transform="translate(145 315)">
                    <mask id="k" fill="#fff">
                        <use xlink:href="#j"/>
                    </mask>
                    <path stroke="#4771DD" stroke-width="4" d="M24.17 6.732s1.338 4.43-1.875 11.863c-2.672 6.183-7.484 8.963-7.484 8.963" mask="url(#k)"/>
                </g>
                <g transform="translate(145 315)">
                    <mask id="m" fill="#fff">
                        <use xlink:href="#l"/>
                    </mask>
                    <path stroke="#4771DD" stroke-width="4" d="M28.928 9.364s1.253 4.46-1.464 12.044c-2.41 6.722-6.89 10.213-6.89 10.213" mask="url(#m)"/>
                </g>
                <g transform="translate(145 315)">
                    <mask id="o" fill="#fff">
                        <use xlink:href="#n"/>
                    </mask>
                    <path stroke="#4771DD" stroke-width="4" d="M33.686 11.996s1.197 4.497-1.054 12.225c-2.119 7.27-6.295 11.462-6.295 11.462" mask="url(#o)"/>
                </g>
                <g transform="translate(145 315)">
                    <mask id="q" fill="#fff">
                        <use xlink:href="#p"/>
                    </mask>
                    <path stroke="#4771DD" stroke-width="4" d="M38.443 14.628s1.168 4.538-.643 12.406c-1.8 7.822-5.7 12.71-5.7 12.71" mask="url(#q)"/>
                </g>
                <g transform="translate(145 315)">
                    <mask id="s" fill="#fff">
                        <use xlink:href="#r"/>
                    </mask>
                    <path stroke="#4771DD" stroke-width="4" d="M43.2 17.26s1.161 4.577-.231 12.587c-1.456 8.373-5.106 13.96-5.106 13.96" mask="url(#s)"/>
                </g>
            </g>
            <g>
                <g transform="translate(180 265)">
                    <mask id="u" fill="#fff">
                        <use xlink:href="#t"/>
                    </mask>
                    <path stroke="#4771DD" stroke-width="4" d="M118.554 24.248c1.217 7.7-2.085 19.775-7.125 25.725" mask="url(#u)"/>
                </g>
                <g transform="translate(180 265)">
                    <mask id="w" fill="#fff">
                        <use xlink:href="#v"/>
                    </mask>
                    <path stroke="#4771DD" stroke-width="4" d="M113.465 21.522c.637 7.775-2.532 19-6.951 25.875" mask="url(#w)"/>
                </g>
                <g transform="translate(180 265)">
                    <mask id="y" fill="#fff">
                        <use xlink:href="#x"/>
                    </mask>
                    <path stroke="#4771DD" stroke-width="4" d="M108.375 18.798c.058 7.85-2.979 18.225-6.777 26.025" mask="url(#y)"/>
                </g>
                <g transform="translate(180 265)">
                    <mask id="A" fill="#fff">
                        <use xlink:href="#z"/>
                    </mask>
                    <path stroke="#4771DD" stroke-width="4" d="M103.286 16.072c-.521 7.926-3.426 17.45-6.603 26.176" mask="url(#A)"/>
                </g>
                <g transform="translate(180 265)">
                    <mask id="C" fill="#fff">
                        <use xlink:href="#B"/>
                    </mask>
                    <path stroke="#4771DD" stroke-width="4" d="M98.197 13.348c-1.1 8-3.872 16.674-6.43 26.325" mask="url(#C)"/>
                </g>
                <g transform="translate(180 265)">
                    <mask id="E" fill="#fff">
                        <use xlink:href="#D"/>
                    </mask>
                    <path stroke="#4771DD" stroke-width="4" d="M93.108 10.623c-1.68 8.075-4.32 15.9-6.256 26.474" mask="url(#E)"/>
                </g>
                <g transform="translate(180 265)">
                    <mask id="G" fill="#fff">
                        <use xlink:href="#F"/>
                    </mask>
                    <path stroke="#4771DD" stroke-width="4" d="M88.018 7.898c-2.259 8.15-4.766 15.125-6.082 26.625" mask="url(#G)"/>
                </g>
                <g transform="translate(180 265)">
                    <mask id="I" fill="#fff">
                        <use xlink:href="#H"/>
                    </mask>
                    <path stroke="#4771DD" stroke-width="4" d="M82.93 5.173c-2.839 8.225-5.214 14.35-5.91 26.775" mask="url(#I)"/>
                </g>
                <g transform="translate(180 265)">
                    <mask id="K" fill="#fff">
                        <use xlink:href="#J"/>
                    </mask>
                    <path stroke="#4771DD" stroke-width="4" d="M-.833 62.223c5.735 2.275 15.466 6.825 21.259 10.441" mask="url(#K)"/>
                </g>
                <g transform="translate(180 265)">
                    <mask id="M" fill="#fff">
                        <use xlink:href="#L"/>
                    </mask>
                    <path stroke="#4771DD" stroke-width="4" d="M-.633 55.686c4.588 1.82 14.945 6.52 21.143 10.673" mask="url(#M)"/>
                </g>
                <g transform="translate(180 265)">
                    <mask id="O" fill="#fff">
                        <use xlink:href="#N"/>
                    </mask>
                    <path stroke="#4771DD" stroke-width="4" d="M-.433 49.15c3.44 1.365 14.424 6.213 21.027 10.903" mask="url(#O)"/>
                </g>
                <g transform="translate(180 265)">
                    <mask id="Q" fill="#fff">
                        <use xlink:href="#P"/>
                    </mask>
                    <path stroke="#4771DD" stroke-width="4" d="M-.234 42.614c2.294.91 13.903 5.906 20.912 11.132" mask="url(#Q)"/>
                </g>
                <g transform="translate(180 265)">
                    <mask id="S" fill="#fff">
                        <use xlink:href="#R"/>
                    </mask>
                    <path stroke="#4771DD" stroke-width="4" d="M-.034 36.077c1.147.455 13.381 5.6 20.796 11.364" mask="url(#S)"/>
                </g>
                <g transform="translate(180 265)">
                    <mask id="U" fill="#fff">
                        <use xlink:href="#T"/>
                    </mask>
                    <path stroke="#4771DD" stroke-width="4" d="M.166 29.541s12.86 5.294 20.68 11.594" mask="url(#U)"/>
                </g>
            </g>
            <g>
                <path fill="#E09595" d="M291.694 566.732c-.074-.48.011-.966.202-1.413.408-.959.578-2.108-.27-3.45-.339-.538-.575-1.13-.616-1.764-1.505-23.282-1.457-49.806-4.128-63.132-2.966-14.8-25.594-7.12-23.571 1.622 1.753 7.574 4.951 15.195 7.431 23.754 2.68 9.245 8.343 24.393 9.765 37.911.056.53-.316 1.066-.49 1.718-.325 1.216.211 1.623-.153 2.514 4.063.912 8.081 1.103 11.864 2.464-.01-.075-.023-.15-.034-.224M191.32 471.713s-3.947 38.988-9.288 77.634c-.93 6.721-2.665 8.395-4.625 9.483-3.495 1.938-10.47 4.886-13.954 6.624-4.062 2.027-15.497 4.543-16.118 4.844-1.66.805-1.439 3.225.341 3.71 2.264.618 8.178.832 13.339.832 8.055 0 22.248-.23 29.317-.536a4.685 4.685 0 0 0 4.472-5.026c-.301-4.104-1.076-9.813-.349-12.514 6.619-24.565 12.424-32.908 17.301-54.23 3.454-15.098-20.436-30.821-20.436-30.821"/>
                <path fill="#2B2B51" d="M211.989 502.999c3.12-15.172 2.786-29.78 6.27-37.08 3.483-7.3 20.9-46.117 20.203-73l-1.16-17.265-29.145-3.592s-7.878 32.662-16.372 92.003c-1.961 13.701-4.086 36.72-6.737 60.93 6.258.942 13.88 1.134 20.258 1.375.522.02.993-.309 1.156-.805 2.295-6.994 3.665-13.516 5.527-22.566"/>
                <path fill="#42426C" d="M289.3 524.857c.02-9.46-.992-21.353-2.186-27.884-3.6-19.698-4.992-27.693-5.69-36.384-.696-8.69-1.974-30.706-3.483-62.572-.937-19.792-4.412-35.398-4.412-35.398-36.228 9.733-65.14 9.443-65.14 9.443l28.912 23.174s13.602 50.355 14.398 54.925c.93 5.33 2.181 12.294 3.252 16.686 2.09 8.574 6.337 23.006 8.36 31.748 1.752 7.574 3.516 14.947 5.996 23.507.312 1.075.655 2.234 1.02 3.458.11.37.425.672.81.686 5.004.188 12.58-.246 18.164-1.389"/>
            </g>
            <g>
                <g transform="translate(180 265)">
                    <mask id="W" fill="#fff">
                        <use xlink:href="#V"/>
                    </mask>
                    <path stroke="#4771DD" stroke-width="4" d="M28.386 104.185s35.875-.346 69.417-10.795" mask="url(#W)"/>
                </g>
                <g transform="translate(180 265)">
                    <mask id="Y" fill="#fff">
                        <use xlink:href="#X"/>
                    </mask>
                    <path stroke="#4771DD" stroke-width="4" d="M28.036 98.289s12.697-.146 29.947-2.627c11.217-1.608 24.36-4.2 37.187-8.375" mask="url(#Y)"/>
                </g>
                <g transform="translate(180 265)">
                    <mask id="aa" fill="#fff">
                        <use xlink:href="#Z"/>
                    </mask>
                    <path stroke="#4771DD" stroke-width="4" d="M27.686 92.392s12.276-.166 28.99-2.715c10.807-1.643 23.468-4.275 35.86-8.493" mask="url(#aa)"/>
                </g>
                <g transform="translate(180 265)">
                    <mask id="ac" fill="#fff">
                        <use xlink:href="#ab"/>
                    </mask>
                    <path stroke="#4771DD" stroke-width="4" d="M27.336 86.495s11.856-.185 28.032-2.804c10.396-1.675 22.577-4.348 34.535-8.61" mask="url(#ac)"/>
                </g>
                <g transform="translate(180 265)">
                    <mask id="ae" fill="#fff">
                        <use xlink:href="#ad"/>
                    </mask>
                    <path stroke="#4771DD" stroke-width="4" d="M26.986 80.598s11.435-.204 27.074-2.893c9.986-1.708 21.686-4.422 33.21-8.727" mask="url(#ae)"/>
                </g>
                <g transform="translate(180 265)">
                    <mask id="ag" fill="#fff">
                        <use xlink:href="#af"/>
                    </mask>
                    <path stroke="#4771DD" stroke-width="4" d="M26.636 74.701s11.015-.223 26.116-2.981c9.576-1.742 20.795-4.496 31.884-8.845" mask="url(#ag)"/>
                </g>
                <g transform="translate(180 265)">
                    <mask id="ai" fill="#fff">
                        <use xlink:href="#ah"/>
                    </mask>
                    <path stroke="#4771DD" stroke-width="4" d="M26.286 68.805s10.594-.244 25.159-3.071c9.166-1.775 19.902-4.57 30.558-8.962" mask="url(#ai)"/>
                </g>
                <g transform="translate(180 265)">
                    <mask id="ak" fill="#fff">
                        <use xlink:href="#aj"/>
                    </mask>
                    <path stroke="#4771DD" stroke-width="4" d="M25.936 62.908s10.173-.263 24.202-3.16c8.754-1.808 19.01-4.642 29.231-9.08" mask="url(#ak)"/>
                </g>
                <g transform="translate(180 265)">
                    <mask id="am" fill="#fff">
                        <use xlink:href="#al"/>
                    </mask>
                    <path stroke="#4771DD" stroke-width="4" d="M18.061 56.038c8.05 3.464 21.748-.717 27.008-1.905 9.14-2.065 16.1-1.386 32.9-9.7" mask="url(#am)"/>
                </g>
                <g transform="translate(180 265)">
                    <mask id="ao" fill="#fff">
                        <use xlink:href="#an"/>
                    </mask>
                    <path stroke="#4771DD" stroke-width="4" d="M16.749 50.929c8.72 2.684 22.63-1.458 27.33-2.512 10.062-2.24 18.49-2.424 34.24-11.084" mask="url(#ao)"/>
                </g>
                <g transform="translate(180 265)">
                    <mask id="aq" fill="#fff">
                        <use xlink:href="#ap"/>
                    </mask>
                    <path stroke="#4771DD" stroke-width="4" d="M15.436 45.82c9.392 1.905 23.511-2.198 27.65-3.118 10.987-2.418 20.883-3.464 35.583-12.47" mask="url(#aq)"/>
                </g>
                <g transform="translate(180 265)">
                    <mask id="as" fill="#fff">
                        <use xlink:href="#ar"/>
                    </mask>
                    <path stroke="#4771DD" stroke-width="4" d="M14.124 40.71c10.062 1.126 24.392-2.938 27.97-3.723 11.91-2.595 23.275-4.503 36.925-13.856" mask="url(#as)"/>
                </g>
                <g transform="translate(180 265)">
                    <mask id="au" fill="#fff">
                        <use xlink:href="#at"/>
                    </mask>
                    <path stroke="#4771DD" stroke-width="4" d="M12.811 35.601c10.733.346 25.274-3.679 28.292-4.33 12.833-2.77 25.666-5.542 38.266-15.24" mask="url(#au)"/>
                </g>
                <g transform="translate(180 265)">
                    <mask id="aw" fill="#fff">
                        <use xlink:href="#av"/>
                    </mask>
                    <path stroke="#4771DD" stroke-width="4" d="M.736 29.655c20.067 2.77 66.733-6.466 82.833-24.017" mask="url(#aw)"/>
                </g>
                <g transform="translate(180 265)">
                    <mask id="ay" fill="#fff">
                        <use xlink:href="#ax"/>
                    </mask>
                    <path stroke="#4771DD" stroke-width="4" d="M2.02 24.343c16.566 2.425 58.45-6.119 76.3-21.245" mask="url(#ay)"/>
                </g>
                <g transform="translate(180 265)">
                    <mask id="aA" fill="#fff">
                        <use xlink:href="#az"/>
                    </mask>
                    <path stroke="#4771DD" stroke-width="4" d="M3.303 19.032C16.37 21.111 53.47 13.26 73.07.558" mask="url(#aA)"/>
                </g>
            </g>
            <g>
                <path fill="#C5CBD8" d="M194.145 299.762c1.125.708 1.794 1.84 1.78 3.17-.043 4.213.014 7.412 1.144 10.829 1.166 3.529 2.519 5.298 2.519 5.298s-.035 5.964 0 7.76c-.86-2.151-3.292-8.704-5.651-15.11-2.724-7.396-5.148-15.045-5.148-15.045s3.163 1.72 5.356 3.098" style="mix-blend-mode:multiply"/>
                <path fill="#4771DD" d="M195.53 277.562a.534.534 0 0 0-.239.667c.956 2.375 3.63 12.717 19.728 38.89 7.407 12.041 19.515 28.374 26.985 39.839 6.077 9.329 16.937 37.72 20.672 47.25 3.359 8.57 11.581 22.7 23.279 21.542 14.637-1.45 18.587-19.804 12.16-36.133-5.314-13.5-13.122-24.88-20.441-34.628-5.636-7.507-14.245-21.309-14.245-21.309s14.013 33.354 11.06 37.87c-2.044 3.126-17.14-4.343-31.964-21.714-6.2-7.265-14.159-18.16-23.626-32.833-16.214-25.13-19.398-36.133-21.15-40.172-.097-.225-.378-.299-.592-.18l-1.627.911z"/>
                <path fill="#FFAEAE" d="M151.005 328.584c-.464-.536-4.06-4.472-6.08-9.077-2.896-6.6-7.448-15.5-8.02-17.791-.609-2.432-.449-8.505.26-10.35.695-1.81 1.93-4.712 3.127-6.414.543-.771 1.286-.929 1.737-.998 1.506-.232 3.08 2.052 4.95 2.822 1.97.811 3.04.652 3.968.883 1.408.353-.464 3.127-2.664 3.243l10.22 12.436s-.694 6.137-3.497 9.073c-.61.639-1.425 1.697-.788 2.68.437.677.898 1.058 1.477 1.637 1.245 2.823-4.256 11.219-4.69 11.856"/>
                <path stroke="#2B2B51" stroke-width="2" d="M143.68 293.957c2.084 5.906 22.322 21.83 41.518 10.192 15.934-9.662 21.251-31.733 21.251-31.733"/>
                <path fill="#2B2B51" d="M171.453 304.105l-21.924 4a2.679 2.679 0 0 1-3.168-2.076l-2.412-11.568c-.127-.61-.92-1.8-.92-1.8s1.693-1.093 2.996-1.368l23.864-4.975a2.679 2.679 0 0 1 3.169 2.076l2.411 11.568a2.68 2.68 0 0 1-1.085 2.74c-.289.203-2.186 1.229-2.931 1.403"/>
                <path fill="#2B2B51" d="M168.046 285.285l.845 4.05a1.059 1.059 0 0 1-.82 1.252l-3.006.626a1.057 1.057 0 0 1-1.252-.82l-.845-4.05a1.058 1.058 0 0 1 .821-1.251l3.005-.627a1.059 1.059 0 0 1 1.252.82M161.711 287.705l.844 4.05a1.058 1.058 0 0 1-.82 1.252l-1.453.303a1.057 1.057 0 0 1-1.252-.82l-.844-4.05a1.058 1.058 0 0 1 .82-1.252l1.453-.303a1.058 1.058 0 0 1 1.252.82"/>
                <path fill="#42426C" d="M171.222 304.173l-23.864 4.974a2.678 2.678 0 0 1-3.169-2.076l-2.412-11.567a2.68 2.68 0 0 1 2.077-3.17l23.864-4.973a2.678 2.678 0 0 1 3.168 2.075l2.412 11.568a2.68 2.68 0 0 1-2.076 3.169"/>
                <path fill="#73A0F9" d="M168.869 300.674a.999.999 0 1 1-1.998 0 .999.999 0 0 1 1.998 0"/>
                <path fill="#FFAEAE" d="M138.555 295.55s3.474-2.607 5.646-3.996c1.653-1.059 3.76-.242 4.256.52 1.129 1.738 4.546 6.966 4.777 8.6.2 1.416-.738 2.426-1.824 4.95a2.316 2.316 0 0 1-1.901 1.39l-1.268.124-3.345 5.696-6.341-17.285z"/>
                <path stroke="#2B2B51" stroke-width="2" d="M171.474 287.819s11.987 15.46 31.79 9.207c18.36-5.797 25.885-30.284 25.885-30.284"/>
                <path fill="#2B2B51" d="M164.613 298.155a6.993 6.993 0 1 1-13.986 0 6.993 6.993 0 0 1 13.986 0"/>
                <path fill="#42426C" d="M162.441 298.676a6.993 6.993 0 1 1-13.985 0 6.993 6.993 0 0 1 13.985 0"/>
                <path fill="#423748" d="M161.978 298.676a6.53 6.53 0 1 1-13.059 0 6.53 6.53 0 0 1 13.059 0"/>
                <path fill="#FF7E59" d="M160.964 298.59a4.907 4.907 0 1 1-9.814-.001 4.907 4.907 0 0 1 9.814 0"/>
                <path fill="#FFF" d="M160.199 298.12c.83 1.074.203 2.947-1.398 4.183-1.6 1.236-3.571 1.367-4.401.292-.83-1.074-.204-2.948 1.397-4.184 1.601-1.235 3.572-1.366 4.402-.292"/>
                <path fill="#FFAEAE" d="M211.722 339.29c-.277.216-1.23.708-2.4 1.538-1.218.866-1.592 2.113-1.585 3.407.017 2.992 1.324 10.102 2.57 11.114 1.969 1.6 6.225 1.874 7.26 1.723 1.261-.185 2.186-.824 1.938-2.985-.615-5.352-.984-7.928-2.03-9.105-1.477-1.662-4.829-3.166-5.2-3.908-.215-.43-.43-1.322-.553-1.783"/>
                <path fill="#4771DD" d="M296.03 342.192s-7.557 19.282-12.768 30.748c-5.212 11.465 4.603 15.055 6.862 15.634 2.258.579 5.501.695 5.501.695l.405-47.077z"/>
                <path fill="#2474CD" d="M340.792 357.768l-27.1-49.335-3.938-55.82s8.802-7.644 20.382-7.413c11.582.232 18.067 6.718 18.067 6.718l-7.411 105.85z"/>
                <path fill="#23478D" d="M317.869 248.833l-1.63.073-20.035 70.181-.695 50.03s18.588 5.907 48.64 2.433l.377-16.799c-21.514-30.121-30.792-68.884-26.657-105.918"/>
                <path fill="#42426C" d="M389.488 394.45l16.71-6.257c.484-.181.767-.682.67-1.19-1.985-10.386-21-109.597-21.837-113.777-1.273-6.369-3.937-14.592-12.044-17.834-6.551-2.621-8.791-1.654-16.213-3.938-6.023-1.853-11.35-6.485-11.35-6.485l-11.118 63.695s-.463 15.288 1.158 29.185c1.621 13.897 8.107 39.607 9.96 45.86 1.853 6.255 5.096 10.192 13.202 8.803 5.973-1.024 10.042-2.41 12.045-3.011a1.34 1.34 0 0 0 .946-1.47c-.731-5.346-4.911-27.765-5.115-33.273-.232-6.254-.927-30.806-.927-30.806l22.607 69.875a.996.996 0 0 0 1.306.623"/>
                <path fill="#2B2B51" d="M365.807 324.647l6.485-36.828-.926 53.968z"/>
                <path fill="#42426C" d="M317.571 246.3c-4.69 2.954-8.686 5.038-13.897 6.428-4.775 1.273-8.561 1.119-14.071 3.648-5.299 2.432-9.208 9.033-9.208 9.033l5.994 10.51 1.476 12.247s3.127 17.546 5.907 40.129c0 0 1.042 10.596-1.043 17.198-2.466 7.808-9.785 28.142-9.785 28.142s4.748-10.25 12.912-30.922c0 0 5.675-15.982 8.455-37.87 0 0-.29-20.498 3.184-31.269 3.475-10.77 6.775-20.846 10.076-27.273"/>
                <path fill="#2B2B51" d="M302.598 310.981c.01.438.642.49.725.059 1.656-8.538 6.605-30.344 9.21-39.724 2.94-10.586 6.023-19.63 6.254-20.325.232-.695 2.259-6.254 1.564-10.423 0 0-6.428 7.296-11.987 22.236-4.854 13.047-5.906 32.421-5.906 37.754 0 3.767.075 7.721.14 10.423"/>
                <path fill="#E09595" d="M320.293 238.136s-.232 5.212-1.274 11.697c-1.089 6.773 2.065 11.69 8.975 12.623 6.428.869 14.542-3.348 14.303-11.001-.116-3.707 0-5.791.232-13.435l-22.236.116z"/>
                <g transform="translate(313.887 196)">
                    <mask id="aC" fill="#fff">
                        <use xlink:href="#aB"/>
                    </mask>
                    <path fill="#423748" d="M1.252 24.33s-1.998-8.686.434-14.679c2.311-5.696 4.702-5.975 5.877-6.08 1.94-.174 2.376 1.102 4.199-.174.868-.608 1.34-1.576 3.214-1.794 1.737-.203 2.866-1.65 4.95-.724 2.085.926 2.606 1.563 4.257 1.129 1.977-.52 3.532-.869 5.732.637 2.201 1.505 1.767 3.445 3.04 4.487 1.274 1.043 3.475 1.998 3.735 6.34.216 3.602-.52 8.976-2.258 13.146L1.252 24.33z" mask="url(#aC)"/>
                </g>
                <path fill="#2B2B51" d="M335.328 313.425c-.164.568-.998.459-1.009-.133-.113-6.795.542-22.788 3.693-38.907 3.01-15.403 3.474-19.688 3.937-23.162.323-2.414.348-12.276.348-12.276s4.337 5.039 5.675 8.802c1.853 5.211 3.937 17.14-1.738 32.658-5.739 15.696-9.341 27.595-10.906 33.018"/>
                <path fill="#FFAEAE" d="M321.225 225.357c.298 3.494-2.337 6.067-4.498 6.251-2.16.184-3.029-2.092-3.326-5.586-.297-3.493.089-6.882 2.25-7.066 2.16-.184 5.277 2.907 5.574 6.4M342.02 226.834c-.827 3.407 1.383 6.354 3.49 6.866 2.107.513 3.313-1.603 4.141-5.011.829-3.407.966-6.815-1.142-7.327-2.107-.512-5.66 2.065-6.488 5.472"/>
            </g>
            <g transform="translate(316 208)">
                <mask id="aF" fill="#fff">
                    <use xlink:href="#aD"/>
                </mask>
                <path fill="url(#aE)" d="M.57 13.922c-.385 11.4 3.378 26.426 13.69 27.475 10.727 1.093 17.214-14.852 17.6-26.249C32.244 3.749 24.995.386 16.555.109 16.18.097 15.806.09 15.433.09 7.491.09.938 3.034.57 13.922" mask="url(#aF)"/>
            </g>
            <g>
                <path fill="#423748" d="M317.276 219.737c.174-.695 2.142-7.614 5.084-6.146 2.209 1.102 5.754 2.262 9.706 2.377 5.753.17 9.206-.18 11.1.174 1.59.298 3.418.338 3.835 4.494.145 1.45.785 1.363.785 1.363l1.365-3.595-4.881-9.916-25.367-1.478-1.627 12.727z"/>
                <path fill="#FF7E59" d="M351.206 286.117l.372-3.964a2.39 2.39 0 0 1 2.58-2.168l8.971.766a2.388 2.388 0 0 1 2.173 2.573l-.373 3.965-13.723-1.172z"/>
                <path fill="#FFF" d="M372.867 281.482c-4.748-.414-7.08-2.895-6.642-7.892a2.867 2.867 0 0 1-.187-.016c-.438 4.996-3.207 7.033-7.915 6.622-.025.11-.012.187-.012.187 4.704.412 7.056 3.141 6.639 7.892.058.01.13.027.187.016.417-4.75 3.165-7.033 7.908-6.622l.022-.187"/>
                <path fill="#C5CBD8" d="M255.442 294.834s.584-4.62.988-7.168c.465-2.928 1.014-5.476 1.146-6.1.133-.626.598-.48.86.591l3.566 15.852-6.56-3.175zM154.098 332.645a4.089 4.089 0 0 0-5.027-.638c-.059.036-.12.07-.18.104-1.06.579-1.948.812-1.948.812s6.945 3.45 11.042 6.001c.366.228.863.56 1.428.95.636.437 1.216.065.577-.747l-5.892-6.482z" style="mix-blend-mode:multiply"/>
                <path fill="#4771DD" d="M199.02 341.975l-7.794-4.703 7.348 8.194z"/>
                <path fill="#4771DD" d="M198.062 348.63s-.229 1.358-.386 2.107c-.156.748-.434 1.99-.434 1.99s-1.134-4.844-2.384-8.033c-1.102-2.813-3.65-7.437-3.65-7.437l.686.594s2.616 3.16 4.127 6.03a35.46 35.46 0 0 1 2.04 4.748"/>
                <path fill="#4771DD" d="M191.208 337.257s1.66 6.023 2.292 11.263c.673 5.58.484 12.769.484 12.769s.419-.393 1.075-1.76c.575-1.195.927-2.293.927-2.293s-.154-5.258-1.244-10.02c-.962-4.206-3.098-9.35-3.098-9.35l-.436-.609z"/>
                <path fill="#4771DD" d="M191.197 337.272s.342 7.187-.493 12.553c-.93 5.973-3.255 12.032-3.255 12.032s.767.352 1.395.522c.627.17 1.569.26 1.569.26s1.656-6.146 1.947-12.582c.209-4.635-.901-12.437-.901-12.437l-.262-.348z"/>
                <path fill="#82AEF4" d="M228.216 502.352s9.995 16.004 18.829 11.83c8.833-4.176 3.952-18.324-2.092-25.746-6.044-7.421-14.18-12.756-19.992-12.292l3.255 26.208zM207.76 521.14l1.86 18.786s7.206 7.422 13.482 5.335c6.276-2.088 7.1-7.14 6.044-15.308-.93-7.19-6.974-16.468-6.974-16.468l-14.412 7.654z"/>
                <path fill="#97BEF7" d="M173.937 460.72s2.673-3.595 8.02-7.306c5.347-3.71 14.528-7.19 21.038-8.35 6.508-1.16.232 14.612.232 14.612l-29.29 1.044zM169.056 502.816s-5.687 40.081 13.133 43.836c13.948 2.784 10.926-35.95 10.926-35.95l-24.06-7.886z"/>
                <path fill="#97BEF7" d="M164.058 463.155s25.732-9.637 42.074-1.856c20.457 9.742 28.128 24.586 24.408 44.996-3.157 17.327-22.882 16.847-39.052 10.438-16.97-6.727-23.478-13.22-23.478-13.22l-3.952-40.358z"/>
                <path fill="#82AEF4" d="M150.343 519.168c-2.673 9.973-10.237 11.964-16.482 9.957-5.717-1.839-9.902-9.725-5.136-18.886 3.335-6.413 8.43-7.883 14.552-5.532 6.123 2.35 8.937 7.482 7.066 14.461"/>
                <path fill="#FFCFDF" d="M144.67 518.467c-1.54 5.594-5.578 6.797-8.866 5.753-3.01-.955-5.134-5.302-2.494-10.467 1.848-3.617 4.569-4.499 7.789-3.263 3.22 1.236 4.65 4.063 3.571 7.977"/>
                <path fill="#82AEF4" d="M138.023 458.4c4.72 4.71-3.845 20.25-12.553 21.223-8.707.972-16.884-3.386-17.434-9.974-.58-6.958 5.928-12.408 15.342-13.568 8.696-1.07 13.367 1.044 14.645 2.32"/>
                <path fill="#FFCFDF" d="M132.444 462.111c2.847 2.615-2.824 11.81-8.126 12.403-5.304.592-10.255-1.807-10.554-5.497-.316-3.898 3.674-6.988 9.408-7.69 5.297-.647 8.501.076 9.272.784"/>
                <path fill="#97BEF7" d="M170.974 481.246c3.835 18.787-4.714 34.906-18.48 36.53-16.215 1.914-29.639-10.437-31.172-29.146-1.46-17.811 7.286-33.477 22.629-35.216 13.773-1.562 23.448 10.32 27.023 27.832"/>
                <path fill="#FFCFDF" d="M171.24 482.642c1.411 9.451-1.836 18.783-11.25 19.652-7.6.703-14.884-5.606-15.865-16.177-.872-9.394 3.66-18.44 12.31-18.304 7.631.118 13.393 5.377 14.805 14.829"/>
                <path fill="#423748" d="M139.766 467.649c0 1.105-.897 2-2.005 2a2.003 2.003 0 0 1-2.005-2c0-1.105.898-2 2.005-2 1.108 0 2.005.895 2.005 2M147.437 503.6c0 1.104-.897 2-2.005 2a2.003 2.003 0 0 1-2.004-2c0-1.106.897-2.001 2.004-2.001 1.108 0 2.005.895 2.005 2"/>
                <path fill="#FF7F58" d="M162.743 488.375a.697.697 0 0 1-.029-1.391c.536-.022 1.238-.408 1.707-.94.295-.332.634-.868.579-1.53-.175-2.078-2.486-2.42-2.509-2.423a.696.696 0 1 1 .19-1.378c1.19.163 3.495 1.144 3.709 3.686.075.897-.253 1.81-.923 2.567-.723.817-1.781 1.37-2.695 1.408h-.029"/>
                <path fill="#423748" d="M149.086 482.39c-.08.653-.196 2.393-.016 4.162.079.78.708 1.126 1.505.899 1.22-.348 3.542-1.467 4.243-1.914.7-.447.932-1.432.04-1.958-.633-.371-3.237-1.753-4.313-2.097-.745-.238-1.38.254-1.459.907"/>
                <path fill="#FFAEAE" d="M201.367 538.129s-.273 4.815.699 10.728c.815 4.955 1.69 11.172 2.149 17.278.523 6.958.465 8.988.251 10.705-.124 1.002-.638 1.828-1.477 2.394-3.23 2.181-7.026 4.47-11.676 5.63-1.743.435-2.526.64-2.586 1.363-.059.723.785 2.087 4.097 2.435 3.063.322 17.318.03 18.772-.087 2.179-.174 3.225-1.305 3.05-3.479-.12-1.504-.969-6.039-.552-9.22.814-6.204 2.267-13.684 2.615-17.743.477-5.549-.697-13.22-.697-13.22l-14.645-6.784zM165.162 517.138s-3.245 3.495-5.868 8.886c-2.2 4.518-5.078 10.098-8.232 15.351-3.595 5.986-4.815 7.61-5.982 8.89a3.316 3.316 0 0 1-2.59 1.106c-3.9-.077-8.325-.391-12.793-2.12-1.676-.647-2.54-1.068-3.007-.511-.466.557-.523 2.174 1.308 3.914 2.23 2.12 12.48 9.201 16.829 11.497 1.482.783 3.409.59 4.358-.87.824-1.264 2.698-5.746 4.877-8.105 4.251-4.6 9.474-10.14 12.393-12.99 4.925-4.81 6.204-11.885 6.204-11.885l-7.497-13.163z"/>
                <path fill="#D8DDEA" d="M142.25 551.364c-3.842-.085-8.175-.42-12.553-2.112-1.676-.648-2.54-1.07-3.007-.512-.466.557-.523 2.175 1.308 3.914 2.23 2.119 12.48 9.2 16.829 11.498 1.482.783 3.409.59 4.358-.87.567-.87 1.629-3.26 2.945-5.434-4.655.034-9.235-1.983-9.88-6.484"/>
                <path fill="#E09595" d="M198.461 447.964l-.348 7.073 10.112-5.102-.35-6.03z"/>
                <path fill="#FFF" d="M185.488 477.593s-.436-2.232.958-5.131c1.017-2.113 2.977-7.862 5.362-11.524.962-1.48 2.812-3.683 4.837-5.045 3.749-2.523 12.626-6.654 12.626-6.654l3.138 6.146-26.921 22.208z"/>
                <path fill="#423748" d="M185.909 417.811c-.465 0-2.03 4.152-.93 6.263 1.51 2.9 4.765 4.059 4.765 4.059l-.116-8.466-3.72-1.856z"/>
            </g>
            <g transform="translate(188 416)">
                <mask id="aI" fill="#fff">
                    <use xlink:href="#aG"/>
                </mask>
                <path fill="url(#aH)" d="M7.036 31.401c6.3 1.391 16.333-5.797 16.333-5.797L27.336 6.59.27.33S-1.364 29.545 7.036 31.4" mask="url(#aI)"/>
            </g>
            <g>
                <path fill="#FFAEAE" d="M187.972 418.777v4.241l6.888 3.602v-4.125z"/>
                <path fill="#423748" d="M190.482 419.939s-.525 5.781 2.86 8.308c2.802 2.092 5.02.116 6.421 1.162 1.065.795-.817 5.694 2.802 6.275 0 0 1.284-4.88 4.32-5.461 1.266-.243 3.16.777 2.917 3.02-.35 3.255-2.774 5.186-3.502 7.903-1.4 5.229-.7 9.18 3.97 12.259 3.886 2.564 6.654 4.532 7.53 11.155.875 6.624.35 13.596.35 13.596s9.164 1.8 13.016-7.147c2.46-5.712-.075-9.282 0-11.387.059-1.627 2.556-3.473 2.101-8.6-.35-3.95-3.035-5.229-3.385-7.087-.283-1.503.934-3.254.35-6.392-.627-3.376-5.253-5.926-5.253-5.926l-34.497-11.678z"/>
                <path fill="#FFEDA6" d="M244.825 439.17c-.936 2.163-18.912-2.844-39.623-11.722-20.711-8.88-36.314-18.267-35.378-20.43.935-2.162 18.055 3.72 38.766 12.599 20.71 8.878 37.17 17.39 36.235 19.553"/>
                <path fill="#FFEDA6" d="M189.224 411.973l36.66 15.764c4.121-9.647-.683-20.952-10.773-25.293-10.091-4.339-21.655-.073-25.887 9.529"/>
                <path fill="#FFF" d="M187.61 412.961a1.275 1.275 0 0 0 .436 1.62c1.898 1.252 7.162 4.37 18.897 9.28 9.381 3.924 15.701 5.52 18.058 6.037a1.27 1.27 0 0 0 1.457-.763c.745-1.852 2.14-6.146 1.476-11.087a1.46 1.46 0 0 0-1.022-1.22c-2.264-.68-7.02-2.094-15.066-5.343-8.28-3.343-13.528-6.667-15.221-7.806a1.204 1.204 0 0 0-1.308-.025c-1.466.899-4.922 3.499-7.707 9.307"/>
                <path fill="#EFC6A0" d="M164.396 445.539c-4.361 14.337-6.475 26.028-4.658 26.875 1.888.88 8.565-9.458 15.265-22.647.018-.034-10.596-4.266-10.607-4.228"/>
                <path fill="#FFCFDF" d="M180.748 439.58c.294 4.418-3.066 8.237-7.505 8.53-4.439.292-8.276-3.052-8.57-7.47-.294-4.419 3.066-8.238 7.505-8.53 4.44-.294 8.276 3.05 8.57 7.47"/>
                <path fill="#EFB881" d="M175.21 450.079l-11.138-4.441a.408.408 0 0 1-.227-.53l.767-1.907a.41.41 0 0 1 .532-.227l11.138 4.44c.21.084.312.322.228.53l-.768 1.908a.411.411 0 0 1-.531.227"/>
                <path fill="#FFEDA6" d="M211.32 454.044c-2.977-1.917-15.234.93-22.589 12.782-7.354 11.853-7.705 16.385-10.506 25.797-1.608 5.401-2.52 9.357-4.028 12.201-.76 1.434-2.035 2.88-3.216 3.996-2.331 2.202-6.697 6.969-11.843 15.7 0 0 9.842 6.241 29.943 14.816 15.652 6.677 24.832 8.934 27.217 9.456a.531.531 0 0 0 .649-.5c.16-4.563 1.072-32.566-.373-41.202-1.576-9.412-.35-14.641-.175-18.476.175-3.835 2.1-7.466 2.1-15.687 0-8.367-.445-14.545-7.179-18.883"/>
                <path fill="#EAD592" d="M211.087 494.715c-1.926 2.876-5.954 4.415-9.806 2.323-2.469-1.34-5.604-4.211-8.055-8.133-.936-1.497-2.335-.465-2.335-.465s1.861 11.182 4.67 15.106c1.677 2.344 20.235-2.332 20.224-3.254-.087-7.843.876-13.465 2.364-21.352 0 0-1.5 7.468-7.062 15.775"/>
                <path fill="#FF7E59" d="M220.465 519.883l-12.062 3.389c-4.772 1.34-9.73-1.423-11.077-6.172l-4.318-15.226 29.34-8.242 4.318 15.225c1.346 4.75-1.43 9.685-6.201 11.026"/>
                <path fill="#423748" d="M211.182 505.609c0 .645-.526 1.169-1.175 1.169-.65 0-1.174-.524-1.174-1.17 0-.645.525-1.169 1.174-1.169.649 0 1.175.524 1.175 1.17"/>
                <path fill="#E86A46" d="M196.05 512.59l29.234-8.607.618 2.19-29.71 6.926z"/>
                <path fill="#FF7E59" d="M193.027 501.925c-.254-.922-5.95-18.07-5.83-32.622a54.135 54.135 0 0 1 2.016-4.786c-1.732 14.307 6.452 36.435 6.516 36.67l-2.702.738zM219.679 494.463l-2.492-10.424.788-4.227 4.395 13.876z"/>
                <path fill="#FFAEAE" d="M159.006 454.886c-1.418 3.602-1.532 7.406-1.532 8.193 0 1.046.328 2.657.876 3.399 1.302 1.764 4.365 4.596 5.69 5.316 1.927 1.046 3.133.558 3.503.842l14.36 17.779s4.202 6.304 9.688 2.324c5.993-4.346 12.141-11.155 12.141-11.155l-11.323-10.807-6.07 6.159-11.84-10.792c-.393-.36-.557-.901-.427-1.416.251-.997.593-2.662.359-3.596-.35-1.394-2.62-5.33-2.62-5.33l-.963 1.59c-.64.964-2.105 1.139-3.109.56l-4.707-2.678a1.782 1.782 0 0 1-.843-1.999l.035-.132s-2.342-.48-3.218 1.743"/>
                <path fill="#FFF" d="M192.19 470.34l1.97-2.032s2.276 3.224 5.34 6.275c3.065 3.05 6.567 5.577 6.567 5.577l-2.12 2.11a.777.777 0 0 1-.955.114c-.957-.586-3.75-2.838-6.206-5.361-2.714-2.789-4.232-4.887-4.718-5.74a.79.79 0 0 1 .122-.943"/>
                <path fill="#EAD592" d="M212.254 475.541l-1.927 4.405a4.739 4.739 0 0 1-3.759 2.43l-3.07.254 8.07-7.786c.581-.562 1.076-.01.686.697M179.824 525.794l14.502-3.48c1.4-.343 2.411.63 1.737 1.578-1.235 1.737-4.31 2.878-7.034 3.217-5.412.673-9.205-1.315-9.205-1.315"/>
                <path fill="#E09595" d="M256.174 402.217s-.473 7.536-.308 10.033c.092 1.4.344 2.452 1.42 3.331 0 0 5.565 4.442 8.947 6.567.991.622 1.774.71 2.737.768l.04.001c.887.053 1.478.83 2.076 1.484 2.457 2.684 14.364 16.396 20.249 21.386 2.644 2.242 4.953 3.078 7.793 1.616 4.198-2.163 8.29-11.046 8.29-11.046l-31.728-21.32-19.516-12.82z"/>
                <path fill="#E5A977" d="M258.554 397.553c-1.39 15.216-1.082 27.328.907 27.801 2.07.492 6.6-11.203 10.564-25.752.01-.038-11.467-2.089-11.47-2.05"/>
                <path fill="#E9EEFB" d="M270.508 388.564c3.502 5.23 1.79 8.541-2.584 9.744-4.374 1.202-8.899-1.353-10.106-5.706-1.208-4.354 1.359-8.858 5.732-10.06 4.374-1.202 4.44 2.264 6.958 6.022"/>
                <path fill="#EFB881" d="M270.305 399.872s-1.821.041-6.014-.675c-4.334-.74-6.047-1.48-6.047-1.48a.408.408 0 0 1-.33-.473l.375-2.08a.41.41 0 0 1 .475-.328s1.412.57 5.965 1.397c4.545.827 6.096.758 6.096.758.221.04.37.253.33.473l-.375 2.08a.41.41 0 0 1-.475.328"/>
                <path fill="#E09595" d="M270.417 404.185c-.316-.98-1.363-1.487-2.376-1.495-3.472-.028-6.671-.763-9.55-2.24-2.473-1.27-3.108-1.244-3.523-.886-.765.657-.91 2.44 1.28 4.686 1.657 1.698 4.42 3.105 5.933 3.763.964.42 1.044 1.055 1.106 1.844.14 1.78.512 4.862 2.795 7.01 3.638 3.42 8.089 2.647 8.089 2.647s1.03-2.632 1.573-4.439c-3.315-4.36-5.327-10.89-5.327-10.89"/>
                <path fill="#E09595" d="M263.917 406.58c.072.566-.806 4.78-1.13 6.198-.274 1.192-1.311 1.9-2.345 1.866-.837-.028-3.067-.196-3.067-.196l.562-11.025 5.98 3.157z"/>
                <path stroke="#C5CBD8" stroke-linecap="round" stroke-linejoin="round" d="M258.254 467.803s-2.876 8.988.06 11.437c2.203 1.837 3.989-1.778 3.87-6.815-.102-4.272-.953-7.349-.953-7.349s-2.735 15.098.893 16c2.143.534 2.68-4.918 1.965-8.888-.772-4.29-1.608-6.578-1.608-6.578"/>
                <path fill="#FFAEAE" d="M296.416 390.053l-.595-5.215 16.893-10.385 2.872 13.23z"/>
            </g>
            <g transform="translate(279 356)">
                <mask id="aL" fill="#fff">
                    <use xlink:href="#aJ"/>
                </mask>
                <path fill="url(#aK)" d="M.661 4.05S.504 15.388 5.555 26.897c1.695 3.866 5.013 7.617 12.532 2.78L32.649 18.92 29.784.183.661 4.05z" mask="url(#aL)"/>
            </g>
            <g>
                <path fill="#423748" d="M278.766 354.882c-2.04 1.156-2.485 5.868.888 7.823 4.026 2.335 5.604-1.708 9.761 1.156 2.84 1.956.71 6.933 5.503 6.4 2.254-.25 5.524-5.286 5.68-3.378.443 5.423 3.106 8.178 6.745 9.956 2.325 1.137 4.362 1.126 4.925.756 0 0-.134-2.133 1.331-3.156 1.922-1.342.79-3.82 2.174-5.334.976-1.066 2.262-2.098 2.396-4.71.177-3.468-1.508-5.246-1.508-5.246s-34.79-3.911-37.895-4.267"/>
                <path fill="#E86A46" d="M284.218 356.275s-4.565-.375-8.854-.859c-5.742-.65-7.218-1.008-7.218-1.008-1.538-.297-2.047-1.11-2.012-1.6.037-.49.474-.355 2.308-.119 1.607.207 4.91.534 7.277.77 2.366.238 8.638.89 8.638.89l-.14 1.926z"/>
                <path fill="#FF7E59" d="M316.83 359.461a.365.365 0 0 0 .396-.409c-1.175-8.852-7.275-16.113-16.54-17.03-9.447-.935-20.352 4.504-22.11 13.726l38.254 3.713z"/>
                <path fill="#FF7E59" d="M302 343.05l-3.3-.287.11-1.285a1.02 1.02 0 0 1 1.105-.93l1.269.11c.56.05.976.545.928 1.107L302 343.05z"/>
                <path fill="#FFAEAE" d="M301.158 369.221c-.927 2.72-3.407 4.27-4.984 3.721-1.577-.549-1.192-2.825-.892-5.683.34-3.24 2.17-5.24 3.747-4.69 1.577.548 3.32 3.155 2.13 6.652"/>
                <path fill="#E9EEFB" d="M288.972 400.93s1.79-7.887 7.81-12.09c2.928-2.044 9.91-6.341 16.503-6.413.63-.007 1.601.487 2.074 1.316l2.84 4.742-29.227 12.445z"/>
                <path fill="#D8DDEA" d="M293.587 437.436l4.851 9.008 26.269-.474 2.603-50.966s-4.14-6.52-9.94-7.23c-4.022-.356-12.69.622-19.613 3.022-2.83.981-7.402 3.294-8.519 7.911-1.42 5.868-3.993 17.069-3.993 17.069l8.342 21.66z"/>
                <path fill="#C5CBD8" d="M305.479 429.555l1.124-20.328-2.485-2.37-4.852 18.253z"/>
                <path fill="#E09595" d="M333.7 532.85s19.997 25.721 22.01 29.277c2.01 3.556 1.774 5.215.946 6.4l15.974 1.541s-2.722-3.319-4.97-10.193c-2.248-6.875-6.415-22.693-9.467-28.328-3.786-6.993-6.862-9.72-6.862-9.72L333.7 532.851z"/>
                <path fill="#C5CBD8" d="M365.26 551.987a407.893 407.893 0 0 0-12.706 5.602c1.583 2.162 2.744 3.813 3.155 4.538 2.012 3.556 1.775 5.215.947 6.4l15.974 1.542s-2.722-3.32-4.97-10.194c-.66-2.019-1.487-4.811-2.4-7.888"/>
                <path fill="#D8DDEA" d="M363.304 545.491c-2.891 1.671-10.257 5.494-14.291 7.338a480.923 480.923 0 0 1 3.541 4.76c4.235-1.96 8.47-3.814 12.705-5.602a674.098 674.098 0 0 0-1.955-6.496"/>
                <path fill="#FFAEAE" d="M282.819 530.124s-2.485 33.721-3.314 37.159c-.828 3.437-1.42 4.978-3.313 5.926 0 0-.71 4.92 5.207 6.815 5.916 1.897 9.584-4.504 9.584-4.504s-.236-2.49 1.065-6.637c1.302-4.149 6.272-13.63 9.348-22.165 3.076-8.533 1.42-13.334 1.42-13.334l-19.997-3.26z"/>
                <path fill="#E9EEFB" d="M296.413 558.656c-4.157-.204-13.565-2.692-15.584-3.623-.174 1.984-.346 3.86-.508 5.531 2.172 1.355 10.248 3.4 13.591 3.652.733-1.667 1.593-3.547 2.5-5.56"/>
                <path fill="#82AEF4" d="M312.164 504.404s4.74 12.438 8.875 16.12c4.26 3.793 11.951 14.578 11.951 14.578l19.761-13.275s-8.756-14.104-10.413-18.016c-1.657-3.91-3.194-14.223-4.378-19.556-1.184-5.334-3.668-8.653-3.431-11.26.236-2.608 1.656-11.735-1.775-16.239l-23.666.593 3.076 47.055z"/>
                <path fill="#97BEF7" d="M297.492 445.97s1.183 3.32.473 5.452c-.71 2.134-6.508 22.935-6.508 22.935s-1.669.117-2.485 2.637c-1.42 4.386-3.727 14.668-3.964 16.328-.237 1.66.592 3.17 2.07 3.852-1.212 4.03-3.468 11.777-3.875 15.497-.71 6.49-2.218 18.757-2.218 18.757l23.606 5.334s6.523-20.292 12.247-35.202c2.09-5.446 3.763-10.56 5.414-13.157 6.212-9.778 8.37-14.44 8.963-18.49 1.893-12.92-4.615-24.091-4.615-24.091l-29.108.148z"/>
                <path fill="#82AEF4" d="M315.237 458.57l.451 1.766c.05.19.23.316.425.295l9.624-1.04a.396.396 0 0 0 .331-.523l-.533-1.467a.395.395 0 0 0-.408-.264l-9.543.74a.395.395 0 0 0-.347.492"/>
                <path fill="#C5CBD8" d="M308.378 445.496l-9.821-13.986 1.064-2.37 15.738 16.356z"/>
                <path fill="#82AEF4" d="M304.726 536.826l-23.762-5.403a1.477 1.477 0 0 1-1.111-1.768l.423-1.869a.896.896 0 0 1 1.072-.677l24.89 5.66c.483.109.786.59.677 1.074l-.424 1.869a1.475 1.475 0 0 1-1.765 1.114"/>
                <path fill="#73A0F9" d="M353.442 522.847l-20.318 13.473c-.68.45-1.594.264-2.044-.416l-1.057-1.599a.9.9 0 0 1 .254-1.244l21.282-14.113a.895.895 0 0 1 1.242.254l1.057 1.598a1.48 1.48 0 0 1-.416 2.047"/>
                <path fill="#C5CBD8" d="M298.438 446.326l-4.141-7.468 6.08 5.704c.29.273.612.067.443-.296l-1.9-3.835c-.143-.261.017-.474.258-.298l4.226 2.879c1.108.683 2.5.704 3.628.054l2.884 3.497-11.478-.237z"/>
                <path fill="#FFEDA6" d="M330.279 451.956h-32.21a.578.578 0 0 1-.578-.578v-5.334c0-.319.26-.578.578-.578h32.21v6.49z"/>
                <path fill="#FF7E59" d="M298.557 431.155s6.778 7.197 12.306 12.326c8.046 7.468 13.341 11.275 13.341 11.275L319.5 433.11l-5.836-.127a6.504 6.504 0 0 1-4.096-1.569l-9.414-8.082-1.597 7.823z"/>
                <path fill="#E9EEFB" d="M303.322 423.355c-.282 1.068-4.872.775-10.251-.653s-9.51-3.452-9.228-4.52c.283-1.067 4.872-.775 10.252.654 5.378 1.428 9.51 3.452 9.227 4.52"/>
                <path fill="#97BEF7" d="M307.608 453.378h-2.661v-7.883c0-.212.17-.384.383-.384h1.895c.212 0 .383.172.383.384v7.883z"/>
                <path fill="#D8DDEA" d="M303.97 418.264l1.279-5.182a10.772 10.772 0 0 1 2.593-4.78l.743-.794-5.591-2.133-7.81 10.312 8.786 2.577z"/>
                <path fill="#FFAEAE" d="M296.249 415.509c-3.887-1.817-9.94.178-9.94.178s-3.543 13.336-4.437 16.356c-1.42 4.8-4.633 5.656-10.886 12.268-4.26 4.504-7.372 6.86-9.703 8.771-1.184 1.185-6.43 1.642-8.342 2.251-1.175.375-2.75.979-3.638 5.068-1.155 5.315-.424 7.576.532 8.534 1.598 1.6 4.614 2.222 6.301 2.489 1.445.228 2.13-1.067 2.13-2.312v-2.4s3.993-.71 5.413-2.666c.35-.482.628-1.083.851-1.714a2.044 2.044 0 0 1 1.012-1.163c5.975-2.968 17.348-8.844 26.093-14.725 4.78-3.215 5.146-5.867 6.211-9.245 1.065-3.378 4.26-16 4.26-16s-.533-3.201-5.857-5.69"/>
                <path fill="#E86A46" d="M317.844 387.833s4.082 2.518 5.975 6.311l9.408 4.208s-6.064-8.415-10.354-10.045c-.57-.216-2.176-.866-3.047-.95a3.14 3.14 0 0 0-1.982.476"/>
                <path fill="#E9EEFB" d="M283.762 417.891a.605.605 0 0 0 .715.74c1.627-.356 5.176-.837 9.598.345 4.742 1.266 7.292 3.42 8.366 4.555a.52.52 0 0 0 .884-.223l1.16-4.381a1.307 1.307 0 0 0-.247-1.153c-.807-1.008-3.017-3.111-8.122-4.487-6.025-1.626-9.322-.75-10.554-.288a1.081 1.081 0 0 0-.667.754l-1.133 4.138z"/>
                <path fill="#423748" d="M311.425 354.705s-2.112-5.956.089-5.245c2.2.711 3.55 5.6 3.55 5.6l-3.64-.355z"/>
                <path fill="#FF7E59" d="M314.53 401.374c-.71 4.979.445 31.38 2.93 42.937 1.294 6.022 6.18 14.962 22.275 13.6 9.492-.801 12.698-6.165 13.312-11.289.887-7.407-3.118-12.756-3.994-14.757-1.597-3.644-5.65-18.075-9.555-25.72-3.905-7.645-7.218-12.682-14.318-12.504-7.574.19-9.939 2.755-10.65 7.733"/>
                <path fill="#FF7E59" d="M314.768 406.263s-10.828-10.43-16.448-12.385c-3.88-1.35-6.035-.06-7.1 1.126 0 0-1.006-.77-.06-1.956.948-1.186 2.072-1.837 3.728-2.667 1.657-.83 5.799-1.303 11.833 1.185 6.034 2.49 12.188 6.994 12.188 6.994l-4.141 7.703z"/>
                <path fill="#E86A46" d="M347.9 428.902s-7.498.022-10.413.297c-1.894.178-3.136.356-4.379.948-.916.437-1.432 1.377-1.183 2.074.249.699 1.115 1.148 1.952.948 1.243-.296 2.367-.415 4.201-.592 2.653-.258 10.946-.534 10.946-.534l-1.125-3.14zM323.437 396.076l1.289 1.883c.358.524.953.834 1.586.829l5.302-.045a.307.307 0 0 0 .241-.491l-1.43-1.898a1.903 1.903 0 0 0-1.52-.757h-5.216a.306.306 0 0 0-.252.479"/>
                <path fill="#82AEF4" d="M305.893 496.818l3.55-16.356a3.849 3.849 0 0 0-3.35-4.701l-14.636-1.404s-1.669.117-2.485 2.637c-1.42 4.386-3.728 14.668-3.964 16.328-.237 1.66.591 3.17 2.07 3.852-.027.09 13.54 2.945 13.54 2.945a4.404 4.404 0 0 0 5.275-3.3"/>
                <path stroke="#C5CBD8" stroke-linecap="round" stroke-linejoin="round" d="M257.437 467.66s-.584 2.2-.932 3.905"/>
                <path stroke="#D8DDEA" stroke-linecap="round" stroke-linejoin="round" d="M392.85 357.13c-28.888 27.075-94.465 74.111-132.285 96.074M378.493 377.785s-63.865 48.227-118.624 75.884c0 0 62.764-40.324 96.001-87.737"/>
                <path fill="#4771DD" d="M355.16 363.492l-2.96 2.295c-.396.46-.019 1.006.584.924.591-.082 1.141-.18 1.65-.256.972-.145 1.552.1 1.915 1.089.159.436.319.9.42 1.162.26.666 1.061.719 1.334.058l.392-3.006s-1.102-.596-1.755-1.032c-.612-.409-1.58-1.234-1.58-1.234"/>
                <path fill="#4771DD" d="M400.421 343.61c-9.365 17.65-31.036 28.946-43.1 21.509-10.88-6.706-13.269-28.885-3.903-46.535 9.366-17.65 25.598-24.011 38.578-17.1 12.98 6.91 17.791 24.475 8.425 42.126"/>
            </g>
        </g>
    </g>
</svg>
