<?xml version="1.0" encoding="UTF-8"?>
<svg width="364px" height="389px" viewBox="0 0 364 389" version="1.1" xmlns="http://www.w3.org/2000/svg" xmlns:xlink="http://www.w3.org/1999/xlink">
    <!-- Generator: Sketch 51.3 (57544) - http://www.bohemiancoding.com/sketch -->
    <title>Group 2</title>
    <desc>Created with Sketch.</desc>
    <defs>
        <rect id="path-1" x="0" y="0" width="373" height="453" rx="4"></rect>
        <polygon id="path-3" points="0.0266966569 0.527642135 128.952352 0.527642135 128.952352 92.9572557 0.0266966569 92.9572557"></polygon>
        <polygon id="path-5" points="0.641844625 0.481297218 129.702258 0.481297218 129.702258 106.433428 0.641844625 106.433428"></polygon>
        <polygon id="path-7" points="0.749456149 0.378558485 85.3874337 0.378558485 85.3874337 161.982236 0.749456149 161.982236"></polygon>
        <path d="M15.9265056,0.196478453 C14.4499405,0.196478453 12.9411294,0.377208633 11.435318,0.753667348 C2.48893832,2.98992211 -1.12485914,12.1899132 1.49981219,20.4390085 C3.1751024,25.705681 5.94675532,30.72938 9.31608339,34.4234749 C18.5061826,31.0038499 26.4949322,25.1207451 32.4821824,17.5750726 C32.2984554,15.5630433 31.9677468,13.5585131 31.495306,11.6267249 C29.7810207,4.61049438 23.2313408,0.197228371 15.9280054,0.196478453 C15.9272555,0.196478453 15.9272555,0.196478453 15.9265056,0.196478453" id="path-9"></path>
        <radialGradient cx="-31.151776%" cy="-45.8445834%" fx="-31.151776%" fy="-45.8445834%" r="167.330842%" gradientTransform="translate(-0.311518,-0.458446),scale(1.000000,0.929652),translate(0.311518,0.458446)" id="radialGradient-11">
            <stop stop-color="#FFE8E8" offset="0%"></stop>
            <stop stop-color="#FDACAC" offset="100%"></stop>
        </radialGradient>
        <path d="M0.37045361,15.7317748 C7.05361671,25.5459485 16.5721747,33.273851 27.7472753,37.7388613 C30.4881821,33.3878385 32.5241771,28.0596728 33.4953055,22.751005 C35.9145026,9.5307048 36.4791819,2.74394908 21.2470893,0.628431082 C19.4360661,0.377208633 17.7750241,0.249722614 16.2489652,0.249722614 C6.77465164,0.249722614 2.54218165,5.16243385 0.37045361,15.7317748" id="path-12"></path>
        <radialGradient cx="144.146573%" cy="-48.6652383%" fx="144.146573%" fy="-48.6652383%" r="174.2686%" gradientTransform="translate(1.441466,-0.486652),scale(1.000000,0.918274),translate(-1.441466,0.486652)" id="radialGradient-14">
            <stop stop-color="#FFE8E8" offset="0%"></stop>
            <stop stop-color="#FDACAC" offset="100%"></stop>
        </radialGradient>
    </defs>
    <g id="Частным" stroke="none" stroke-width="1" fill="none" fill-rule="evenodd">
        <g id="1440_main_01" transform="translate(-542.000000, -957.000000)">
            <g id="Group-3" transform="translate(120.000000, 786.000000)">
                <g id="Group-13-Copy-32" transform="translate(413.000000, 0.000000)">
                    <g id="Group-2" transform="translate(0.000000, 107.000000)">
                        <mask id="mask-2" fill="white">
                            <use xlink:href="#path-1"></use>
                        </mask>
                        <g id="Mask"></g>
                        <g id="Кредитная-Карта-БКС-Платинум" mask="url(#mask-2)">
                            <g transform="translate(-53.000000, 35.000000)">
                                <rect id="Rectangle-8-Copy-6" fill-rule="nonzero" x="0" y="0" width="575" height="575"></rect>
                                <g id="Group-187" stroke-width="1" fill-rule="evenodd" transform="translate(58.000000, 29.000000)">
                                    <g id="Group-115" transform="translate(0.000000, 0.354711)">
                                        <path d="M318.334686,185.295904 C318.334686,185.295904 319.647022,181.546315 319.459546,178.296922 C319.350809,176.415378 322.021975,178.359165 322.333936,180.858641 C322.646646,183.358867 318.334686,185.295904 318.334686,185.295904" id="Fill-1" fill="#E09595"></path>
                                        <path d="M270.465931,166.360481 C270.465931,166.360481 286.213959,151.362126 290.963114,147.112342 C290.963114,147.112342 276.714898,135.863575 262.716401,128.114675 L262.96687,117.615827 C262.96687,117.615827 277.215086,122.615528 289.713021,127.864953 C302.2567,133.132375 309.960485,137.863606 312.210203,140.863277 C314.160709,143.462492 313.089093,146.909114 311.710766,149.86229 C309.960485,153.611879 299.961987,169.360152 273.964993,189.107736 L252.717903,174.359854 L270.465931,166.360481 Z" id="Fill-3" fill="#E09595"></path>
                                        <path d="M260.216964,137.113688 L280.21471,158.611581 C280.21471,158.611581 263.216589,167.610594 256.217715,155.861632 C249.218092,144.112671 260.216964,137.113688 260.216964,137.113688" id="Fill-5" fill="#2B2B51"></path>
                                        <path d="M216.222598,101.617456 C229.220721,95.1179188 256.155098,94.2847601 263.96687,115.115976 C269.966118,131.113971 256.687531,140.300464 258.21734,146.112326 C259.467433,150.862305 280.214335,155.11134 281.21471,160.611236 C282.0951,165.454955 272.215837,175.859314 262.716776,177.859345 L223.221472,181.858656 C223.221472,181.858656 200.261597,168.60536 197.225227,144.612491 C194.72504,124.864907 199.67817,109.889799 216.222598,101.617456" id="Fill-7" fill="#E9EEFB"></path>
                                        <path d="M227.971002,117.365729 C233.970251,127.11466 240.719406,134.613837 249.718279,141.363097 C252.372197,143.221393 255.21584,144.603492 258.145724,145.721619 C257.272083,139.890259 269.83376,130.76151 263.966495,115.115976 C259.13185,102.22264 246.970623,97.6338929 235.323082,97.5461525 C226.994625,100.905034 221.04337,107.240339 227.971002,117.365729" id="Fill-9" fill="#E9EEFB"></path>
                                        <path d="M281.214335,160.610861 C280.21471,155.111714 259.467058,150.861931 258.216965,146.112701 C258.183219,145.984465 258.165971,145.85248 258.145724,145.721244 C255.21584,144.603117 252.372197,143.221018 249.718279,141.362722 C240.719406,134.613462 233.720532,128.364398 227.721284,118.615467 C222.72166,111.366012 226.994625,100.904659 235.323082,97.5465274 C228.15248,97.4925334 221.175353,99.1408526 216.222223,101.617081 C199.677795,109.890174 194.725415,124.864532 197.224852,144.612866 C200.261972,168.605735 223.221847,181.858281 223.221847,181.858281 L262.716401,177.85897 C272.215462,175.858939 282.095474,165.45533 281.214335,160.610861" id="Fill-11" fill="#DBDFE4"></path>
                                        <polygon id="Fill-13" fill="#EE854F" points="325.833747 178.577766 337.363554 169.110054 338.019721 170.60989 327.052345 179.233944"></polygon>
                                        <polygon id="Fill-15" fill="#2B2B51" points="341.026695 153.956016 351.005695 230.038922 430.723712 242.601545 441.44437 225.603909 420.533239 160.681279"></polygon>
                                        <polygon id="Fill-17" fill="#42426C" points="343.460965 151.756432 353.439965 227.840089 441.444445 225.603834 423.746661 144.968927"></polygon>
                                        <g id="Group-21" transform="translate(329.958681, 130.485690)">
                                            <mask id="mask-4" fill="white">
                                                <use xlink:href="#path-3"></use>
                                            </mask>
                                            <g id="Clip-20"></g>
                                            <polygon id="Fill-19" fill="#24478D" mask="url(#mask-4)" points="0.0266966569 20.8346651 29.8047177 92.9572557 123.734205 77.1204925 128.952802 55.4103733 84.0889199 0.527642135"></polygon>
                                        </g>
                                        <g id="Group-24" transform="translate(329.208775, 111.737746)">
                                            <mask id="mask-6" fill="white">
                                                <use xlink:href="#path-5"></use>
                                            </mask>
                                            <g id="Clip-23"></g>
                                            <polygon id="Fill-22" fill="#2474CD" mask="url(#mask-6)" points="0.641844625 34.3108373 30.4206156 106.433428 129.702933 74.1584673 92.4625963 0.481297218"></polygon>
                                        </g>
                                        <path d="M345.518782,169.766232 C345.518782,170.646636 344.805622,171.359808 343.925232,171.359808 C343.044842,171.359808 342.331681,170.646636 342.331681,169.766232 C342.331681,168.885829 343.044842,168.172657 343.925232,168.172657 C344.805622,168.172657 345.518782,168.885829 345.518782,169.766232" id="Fill-25" fill="#3F3848"></path>
                                        <path d="M353.392796,188.514176 C353.392796,189.39458 352.679636,190.107752 351.799246,190.107752 C350.918856,190.107752 350.205695,189.39458 350.205695,188.514176 C350.205695,187.633773 350.918856,186.920601 351.799246,186.920601 C352.679636,186.920601 353.392796,187.633773 353.392796,188.514176" id="Fill-27" fill="#3F3848"></path>
                                        <polygon id="Fill-29" fill="#2B2B51" points="338.203523 153.839629 392.558967 127.140307 421.569084 167.001436 424.63395 179.796532 366.716453 203.324452"></polygon>
                                        <path d="M336.975402,151.971434 L387.86178,115.110726 C387.86178,115.110726 394.075502,123.927509 404.574187,139.675782 C414.208981,154.128947 421.569309,167.001286 421.569309,167.001286 L365.488332,201.456257 L336.975402,151.971434 Z" id="Fill-31" fill="#42426C"></path>
                                        <polygon id="Fill-33" fill="#3F3848" points="325.646271 178.921603 343.14383 169.172672 343.893736 170.672508 326.521411 180.108723"></polygon>
                                        <polygon id="Fill-35" fill="#3F3848" points="325.646271 178.921603 339.238319 173.797415 339.70701 174.828552 326.521411 180.108723"></polygon>
                                        <path d="M350.955601,165.032377 C350.955601,165.756797 350.368425,166.344733 349.643266,166.344733 C348.918107,166.344733 348.33093,165.756797 348.33093,165.032377 C348.33093,164.307956 348.918107,163.72002 349.643266,163.72002 C350.368425,163.72002 350.955601,164.307956 350.955601,165.032377" id="Fill-37" fill="#24478D"></path>
                                        <path d="M359.579522,180.171341 C359.579522,180.895762 358.992345,181.483697 358.267186,181.483697 C357.542027,181.483697 356.95485,180.895762 356.95485,180.171341 C356.95485,179.446921 357.542027,178.858985 358.267186,178.858985 C358.992345,178.858985 359.579522,179.446921 359.579522,180.171341" id="Fill-39" fill="#24478D"></path>
                                        <path d="M349.268313,164.235589 C349.268313,164.235589 330.895613,173.422081 325.646271,177.35915 C320.396928,181.296218 319.084593,184.295889 319.084593,184.295889 L322.834123,183.733451 C322.834123,183.733451 325.285566,178.691004 328.974354,176.655727 C339.847242,170.657135 349.830742,165.735424 349.830742,165.735424 L349.268313,164.235589 Z" id="Fill-41" fill="#24478D"></path>
                                        <path d="M73.9901596,212.355187 C73.9901596,212.355187 71.4907225,214.854663 72.4903474,216.604971 C74.2136316,219.62039 78.4895961,222.854035 82.9890327,226.103429 C89.071521,230.497197 104.236122,226.353902 104.236122,226.353902 L73.9901596,212.355187 Z" id="Fill-43" fill="#E09595"></path>
                                        <path d="M86.2387507,206.230983 C85.3013681,205.668545 82.8641733,201.731477 83.0516498,198.356847 C83.2391263,194.982217 85.1761338,195.23194 86.1135164,196.356816 C87.050899,197.481693 89.0508986,200.79408 90.9256638,201.918956 C92.800429,203.043833 95.1123895,205.043864 98.4869669,204.856384 C101.861544,204.668905 104.986403,206.230983 106.486215,207.730819 C107.986027,209.230654 108.92341,211.667887 110.048269,211.855367 C111.173128,212.042846 119.859291,213.979884 123.983774,213.604925 C128.108258,213.229966 134.982647,212.168082 140.231989,212.730521 C140.231989,212.730521 142.606192,206.731179 145.230863,203.731508 C147.855535,200.731836 147.788793,198.221112 148.106003,196.107094 C148.480956,193.607618 148.855909,191.732823 149.355347,189.232598 L154.855158,189.920272 L151.480581,230.415831 L132.170499,233.415502 L86.2387507,206.230983 Z" id="Fill-45" fill="#E09595"></path>
                                        <path d="M31.4956059,431.081075 L44.4937283,447.07982 C44.4937283,447.07982 63.6590783,434.529197 85.2391259,414.582884 C92.4944673,407.87712 97.9237875,399.57403 105.803801,391.650399 C126.186248,371.156647 147.129626,347.463745 160.729173,325.092948 L166.728421,281.097523 L139.482083,273.848818 C139.482083,273.848818 130.982648,287.347338 108.735933,322.093277 C86.4884694,356.839217 79.9897832,371.087654 67.9912858,388.335763 C55.9927883,405.583871 31.4956059,431.081075 31.4956059,431.081075" id="Fill-55" fill="#2B2B51"></path>
                                        <path d="M139.482083,273.848818 C139.482083,273.848818 146.606191,295.096238 149.230863,301.09558 C151.989767,307.401638 156.729923,312.094624 156.729923,312.094624 C156.729923,312.094624 152.230487,359.589165 151.230862,378.586832 C150.230487,397.585248 150.040011,407.388923 147.980769,425.332205 C146.231238,440.580283 134.482459,493.574721 134.482459,493.574721 L152.480206,500.073509 C152.480206,500.073509 169.228608,464.577651 173.977764,450.079491 C178.663177,435.77706 178.726919,421.082421 180.726918,412.083408 C182.726918,403.084395 192.475697,375.337438 200.974383,347.090286 C209.502315,318.747144 213.222599,286.59742 213.222599,286.59742 L139.482083,273.848818 Z" id="Fill-57" fill="#42426C"></path>
                                        <path d="M179.508321,123.55255 C179.508321,123.55255 179.158865,117.665696 180.726918,109.304113 C181.570563,104.804606 182.603183,100.111621 189.069624,96.3680317 C194.412705,93.2746209 209.001378,89.9232385 215.12886,92.899662 C221.690539,96.0868125 223.565304,100.680059 222.534183,105.742004 C221.620797,110.228012 219.411574,117.764685 218.784653,119.896701 C217.84727,123.083852 216.441196,128.801975 214.753907,128.520756 C213.066619,128.239536 179.508321,123.55255 179.508321,123.55255" id="Fill-59" fill="#303030"></path>
                                        <path d="M112.730833,219.702356 C112.098662,219.152666 112.030421,218.185272 112.580852,217.553092 L118.454117,210.797833 C119.004548,210.165652 119.971177,210.098159 120.604097,210.647849 C121.236268,211.198289 121.30376,212.164933 120.754079,212.797113 L114.880064,219.552373 C114.330383,220.184553 113.363004,220.252046 112.730833,219.702356" id="Fill-61" fill="#42426C"></path>
                                        <path d="M176.789911,159.876692 C176.789911,159.876692 181.883274,150.393232 182.132992,134.519723 C182.132992,134.519723 198.162235,138.082582 209.504565,141.128748 C207.254846,147.644033 207.723538,154.908487 207.723538,154.908487 L177.211359,170.000582 L176.789911,159.876692 Z" id="Fill-63" fill="#E09595"></path>
                                        <path d="M148.980769,190.857669 L151.730674,191.107392 C151.730674,191.107392 152.230112,201.106795 152.230112,205.856025 C152.230112,210.605254 150.230862,219.854739 150.480581,230.603311 C150.7303,241.351882 148.980769,248.851059 146.481332,255.100874 C143.981145,261.349939 138.731802,274.348263 138.731802,274.348263 C138.731802,274.348263 151.300228,279.20773 164.978515,281.847441 C193.474947,287.347338 216.222598,288.097255 216.222598,288.097255 C216.222598,288.097255 225.971378,239.352601 224.721284,208.605973 C223.614423,181.380209 225.221472,158.361483 225.221472,158.361483 C225.221472,158.361483 213.222974,154.861617 206.473819,155.361812 C180.851778,165.673181 177.914396,164.798027 177.914396,164.798027 L176.977013,157.611565 C176.977013,157.611565 166.228609,158.361483 160.979266,162.111072 C156.806039,165.091995 153.99839,169.043312 152.230112,175.609592 C150.480581,182.108379 148.980769,190.857669 148.980769,190.857669" id="Fill-65" fill="#FFFFFF"></path>
                                        <path d="M160.729548,243.101815 C160.729548,243.101815 201.743412,254.216346 211.192228,258.349893 C214.191853,259.662249 217.941383,278.785152 217.941383,278.785152 C217.941383,278.785152 221.222222,259.19355 222.628296,247.757304 C213.8169,247.569825 160.729548,243.101815 160.729548,243.101815" id="Fill-67" fill="#DBDFE4"></path>
                                        <path d="M134.092508,235.933276 C132.40522,239.373149 128.209495,240.806992 124.769676,239.118927 L93.9155394,223.980337 C90.4757201,222.293022 89.0426496,218.097232 90.7299383,214.657359 C92.4179769,211.217487 96.6129516,209.783644 100.052771,211.471709 L130.906907,226.610298 C134.346726,228.298363 135.779797,232.493403 134.092508,235.933276" id="Fill-69" fill="#2B2B51"></path>
                                        <path d="M199.380832,202.200175 L197.974759,200.419121 C197.974759,200.419121 193.100369,222.166736 190.663174,222.729174 C182.687923,224.569472 168.165991,228.541037 168.165991,228.541037 L202.974382,228.103835 L199.380832,202.200175 Z" id="Fill-71" fill="#DBDFE4"></path>
                                        <path d="M177.914771,164.798027 C177.914771,164.798027 178.102247,167.04778 178.602434,169.922215 C179.101872,172.7974 179.842029,174.89792 179.842029,174.89792 C179.91477,175.313374 180.326469,175.578095 180.732918,175.463358 C183.299096,174.742687 191.638052,172.288956 193.850275,170.234931 C196.474946,167.797698 205.411577,156.299209 208.786155,155.361812 C208.786155,155.361812 208.598678,153.986463 208.473444,153.049066 C208.406702,152.54962 207.661296,152.299148 207.661296,152.299148 C207.661296,152.299148 201.599055,156.674168 192.412705,160.236277 C183.226355,163.798387 177.914771,164.798027 177.914771,164.798027" id="Fill-73" fill="#E9EEFB"></path>
                                        <path d="M215.722411,126.239881 C213.303964,139.460181 204.276594,152.804967 194.224853,150.861931 C183.8679,148.85965 179.933143,133.710561 182.35159,120.490261 C184.770787,107.269961 189.975885,102.242512 203.474195,104.117307 C218.706287,106.232825 218.141608,113.019581 215.722411,126.239881" id="Fill-75" fill="#FFAEAE"></path>
                                        <path d="M182.601684,124.489948 C183.060626,128.788476 183.582561,133.123751 182.039254,133.301481 C179.602059,133.5827 177.623807,127.944819 177.164864,123.64629 C176.705922,119.347762 177.507572,117.856175 179.052378,117.691193 C180.596435,117.526211 182.142741,120.191419 182.601684,124.489948" id="Fill-77" fill="#FFAEAE"></path>
                                        <path d="M199.287094,201.731477 C199.287094,201.731477 199.113866,208.970433 199.287094,214.855038 C199.474571,221.229339 200.786906,225.353886 200.786906,225.353886 C200.786906,225.353886 183.539066,226.853722 172.852904,227.791119 C162.166743,228.728516 152.230487,226.853722 149.418339,225.916325 C146.606191,224.978927 146.291231,223.31111 142.294231,221.979256 C138.919654,220.85438 134.982647,219.916983 133.295358,219.354544 C131.608069,218.792106 127.858539,219.542024 123.171626,218.042188 C121.477588,217.499998 117.54733,216.354873 117.359854,216.917311 C116.822921,218.527385 117.020896,220.268694 121.109384,222.166736 C126.358727,224.603969 131.420593,226.853722 131.420593,226.853722 C131.420593,226.853722 109.48584,231.540708 107.048645,231.915667 C105.465593,232.15939 105.962031,234.98658 108.173504,235.477776 C111.548081,236.227694 112.860417,236.602653 112.860417,236.602653 C112.860417,236.602653 116.609947,241.664598 119.422095,242.976954 C122.234243,244.28931 124.363227,244.493287 126.546203,245.039227 C128.795921,245.601666 130.295734,245.789145 135.170123,245.414186 C141.198618,244.950737 150.543198,242.789474 154.855158,243.164433 C159.167118,243.539392 170.212485,246.302839 179.727294,247.851419 C190.475698,249.600977 199.599805,250.840591 209.22335,251.100813 C218.471942,251.351285 221.096613,251.100813 224.471191,248.851059 C227.845768,246.601306 229.221096,243.351912 229.408572,239.227365 C229.596049,235.102817 231.158103,226.291283 230.220721,215.042517 C229.283338,203.793751 228.158479,199.294244 228.158479,199.294244 L199.287094,201.731477 Z" id="Fill-79" fill="#FFAEAE"></path>
                                        <path d="M197.412329,197.606929 L197.939513,201.294275 C198.029502,201.822967 198.512441,202.191176 199.045624,202.139432 L217.347083,200.356878 L215.347833,195.981857 L197.412329,197.606929 Z" id="Fill-81" fill="#E9EEFB"></path>
                                        <path d="M250.714229,36.5811383 L244.466762,49.1190133 C243.748352,50.5618551 241.995821,51.1482908 240.553002,50.4291196 L219.134934,39.7562901 C217.692114,39.0371189 217.105688,37.2853111 217.824848,35.8424693 L224.072315,23.3045943 C224.790725,21.8625024 226.543256,21.2753168 227.985325,21.9944879 L249.404143,32.6673175 C250.846963,33.3864886 251.433389,35.1390464 250.714229,36.5811383" id="Fill-83" fill="#EE854F"></path>
                                        <path d="M230.698186,21.0777885 C228.091512,21.0777885 225.979027,18.9645202 225.979027,16.358556 L225.544831,0.311815804 L224.99665,0.311815804 L224.562454,16.358556 C224.562454,18.9645202 222.449969,21.0777885 219.843295,21.0777885 L208.044273,21.5149905 L208.044273,22.0564312 L219.843295,22.4936332 C222.449969,22.4936332 224.562454,24.6069015 224.562454,27.2136156 L224.99365,37.1245287 L225.547831,37.1245287 L225.979027,27.2136156 C225.979027,24.6069015 228.091512,22.4936332 230.698186,22.4936332 L242.968899,22.0706796 L242.968899,21.5007421 L230.698186,21.0777885 Z" id="Fill-85" fill="#FFFFFF"></path>
                                        <path d="M93.5148646,211.106874 C92.6869682,210.980888 92.1117903,210.199473 92.2385244,209.370814 L93.5891053,200.521785 C93.7158394,199.693875 94.4972415,199.119438 95.3251379,199.246174 C96.1537841,199.372161 96.7282122,200.153575 96.601478,200.982234 L95.2508972,209.830514 C95.124163,210.659173 94.3427609,211.23361 93.5148646,211.106874" id="Fill-87" fill="#42426C"></path>
                                        <path d="M218.222223,122.365056 C218.222223,122.365056 215.222599,127.61448 216.97213,136.113298 C218.057994,141.38747 220.471941,142.862558 219.722035,144.612866 C218.972129,146.362424 215.472317,146.728384 215.472317,152.611489 C215.472317,156.111355 217.972504,158.361108 217.472317,161.111057 C216.97213,163.860255 208.832649,170.722752 209.473069,183.858312 C209.973256,194.107438 215.722786,203.856369 226.720909,206.85604 C237.719781,209.855711 237.219594,189.107736 237.219594,189.107736 L234.470438,125.614449 L245.218842,118.115272 C245.218842,118.115272 248.468185,110.366372 239.469312,108.866536 C232.794398,107.754408 226.221471,113.366043 226.221471,113.366043 L218.222223,122.365056 Z" id="Fill-89" fill="#3F3848"></path>
                                        <path d="M241.219593,114.366058 C241.219593,114.366058 249.46856,118.115647 251.218091,131.863889 C253.173846,147.234203 258.25521,149.82217 262.216964,153.611504 C267.965744,159.111401 270.461431,160.496499 268.216213,166.110383 C266.7164,169.859972 256.967621,175.359119 248.968373,174.109756 C248.968373,174.109756 240.469687,161.860599 240.969125,150.36211 C241.469312,138.863621 241.219593,114.366058 241.219593,114.366058" id="Fill-91" fill="#3F3848"></path>
                                        <path d="M234.157728,220.6669 C234.157728,220.6669 218.784653,198.544326 219.159606,166.860301 L227.783526,155.799014 L227.596049,145.862604 L246.906131,142.487974 C246.906131,142.487974 246.073735,155.268072 249.343326,161.985836 C253.100355,169.704739 267.651533,176.218525 271.465556,181.858656 L234.157728,220.6669 Z" id="Fill-93" fill="#E09595"></path>
                                        <path d="M345.955978,343.340697 C345.955978,343.340697 332.207949,341.341416 318.459921,352.590183 C307.378558,361.656688 288.713396,387.585845 285.213584,391.335434 C281.714522,395.085022 279.214335,398.335166 274.46518,399.085084 C270.729148,399.674519 264.716401,397.585248 263.466307,402.5842 C262.216964,407.583902 261.341823,426.581568 262.841636,435.580581 C264.341448,444.579595 265.84126,449.329574 268.840884,448.829379 C271.840509,448.329183 271.958994,443.429221 274.215461,434.080746 C275.964992,426.832041 277.964992,417.833028 283.464053,412.083408 C288.963114,406.333789 305.162586,385.921027 353.455038,364.588867 C363.641763,360.08936 372.330925,356.052553 374.952596,351.090347 C381.95147,337.84155 367.953723,323.34339 367.953723,323.34339 L345.955978,343.340697 Z" id="Fill-95" fill="#E09595"></path>
                                        <g id="Group-101" transform="translate(278.215160, 355.461018)">
                                            <mask id="mask-8" fill="white">
                                                <use xlink:href="#path-7"></use>
                                            </mask>
                                            <g id="Clip-100"></g>
                                            <path d="M0.749456149,7.5027772 C0.749456149,7.5027772 8.62347012,21.5637352 11.810571,28.312995 C14.5462284,34.1068596 16.6849606,44.4362268 16.3100076,50.06061 C15.9350545,55.6849932 16.7209561,65.671648 23.621592,79.1199232 C30.9331764,93.3683606 40.8694321,117.178249 42.7441973,122.052715 C44.6189626,126.92718 45.7438217,131.239207 45.7438217,134.238879 C45.7438217,137.23855 43.3066269,140.988138 43.3066269,143.987809 C43.3066269,146.98748 43.8353107,149.714931 48.9309226,151.674466 C53.8053122,153.549261 57.9297957,156.173973 63.9290445,159.173644 C69.9282932,162.173315 74.8026828,162.360794 78.5522133,161.610877 C82.3017437,160.860959 86.5087169,158.803185 85.1138916,156.361452 C83.6140794,153.73674 71.8030584,145.675124 67.1161454,141.363097 C63.3628654,137.910476 59.4123601,133.614197 57.5548427,127.11466 C55.6800774,120.552879 44.9646693,69.5277252 42.9316739,59.434582 C41.0906544,50.2938345 38.3107525,40.3754222 36.7449486,32.4375427 C35.7970673,27.6335695 35.3816193,21.6439764 33.9328008,15.3769137 C32.8056919,10.5031982 30.5582233,0.378558485 30.5582233,0.378558485 L0.749456149,7.5027772 Z" id="Fill-99" fill="#FFAEAE" mask="url(#mask-8)"></path>
                                        </g>
                                        <path d="M252.34295,171.734766 C249.718279,170.60989 237.316332,184.474369 232.845392,199.106765 C228.720908,212.605284 231.34558,216.354873 231.34558,216.354873 C231.34558,216.354873 241.844265,233.228023 244.468936,238.477447 C247.093608,243.726871 249.386071,248.859309 249.718279,253.850761 C250.468185,265.099528 245.602044,273.500106 245.218842,284.597389 C244.843889,295.471197 248.218467,306.719963 256.467434,322.468236 C264.716401,338.216509 260.152472,343.414939 260.591917,353.964782 C260.96687,362.963795 263.591542,366.713384 263.591542,366.713384 C263.591542,366.713384 283.464053,373.462644 312.335438,362.213877 C341.206822,350.965111 358.499657,345.400721 374.577643,333.342044 C383.576516,326.592784 386.576141,320.218483 386.576141,320.218483 C386.576141,320.218483 378.540897,303.871776 352.830367,287.972019 C324.333935,270.348952 294.960863,258.098295 287.96349,246.726542 C284.963865,241.852077 278.845381,223.835303 280.464429,214.10512 C282.114222,204.193457 285.815759,195.996856 280.089476,188.607916 C274.347445,181.198729 258.555922,174.397724 252.34295,171.734766" id="Fill-105" fill="#42426C"></path>
                                        <path d="M296.212457,304.095251 C303.21133,312.344346 315.710015,325.842866 343.206822,341.341416 C343.206822,341.341416 329.958231,342.091334 320.709639,349.340039 C311.510541,356.549749 309.710766,360.588806 309.710766,360.588806 C309.710766,360.588806 299.961987,313.343987 296.212457,304.095251" id="Fill-107" fill="#2B2B51"></path>
                                        <path d="M250.843138,194.794738 C251.030615,195.357176 256.092481,203.231312 264.153971,203.418792 L252.155474,209.230654 L250.843138,194.794738 Z" id="Fill-109" fill="#2B2B51"></path>
                                        <path d="M233.158103,151.112028 C227.878764,149.992401 218.72241,153.361781 218.72241,164.360825 C218.72241,172.113475 222.72166,192.8577 233.470064,210.605254 C244.219218,228.353557 245.468561,227.60364 247.218842,227.853362 C248.968373,228.103835 261.301328,225.782839 279.464804,217.104791 C296.337691,209.043175 306.6489,205.293586 312.147961,204.543668 C317.647023,203.793751 321.334311,202.668874 326.2087,197.606929 C328.916611,194.794738 329.958231,192.607227 329.958231,192.607227 C329.958231,192.607227 330.895613,191.420108 331.270567,193.85734 C331.539033,195.604649 330.538658,196.767771 331.64552,197.044491 C333.145332,197.41945 334.876115,194.832233 335.457292,190.857669 C335.969478,187.359303 336.144206,186.255424 334.270191,184.10841 C331.270567,180.671536 328.583653,179.35918 327.708513,178.984221 C326.833372,178.609263 325.021599,177.109427 321.771506,180.109098 C318.522163,183.108769 315.772257,186.420406 314.022726,189.170354 C312.273195,191.920303 310.273196,194.419779 306.210955,195.606899 C299.751264,197.495941 284.776389,199.294244 273.964993,201.356518 C267.050858,202.675623 256.342199,204.230953 253.842762,204.731148 C251.343325,205.231343 253.717528,198.857042 247.718279,183.358492 C245.902757,178.667006 244.156225,175.109396 242.906882,169.359777 C241.656788,163.610907 241.40707,152.861586 233.158103,151.112028" id="Fill-111" fill="#FFAEAE"></path>
                                        <path d="M248.218467,123.365071 C251.095107,135.13278 248.728403,149.625691 239.782023,151.861946 C230.835644,154.098201 221.895263,143.720839 218.222223,132.176605 C215.597552,123.927509 219.212099,114.727518 228.158479,112.491263 C237.104858,110.255009 246.156225,114.928496 248.218467,123.365071" id="Fill-113" fill="#FFAEAE"></path>
                                    </g>
                                    <g id="Group-118" transform="translate(216.722861, 112.092457)">
                                        <mask id="mask-10" fill="white">
                                            <use xlink:href="#path-9"></use>
                                        </mask>
                                        <g id="Clip-117"></g>
                                        <path d="M15.9265056,0.196478453 C14.4499405,0.196478453 12.9411294,0.377208633 11.435318,0.753667348 C2.48893832,2.98992211 -1.12485914,12.1899132 1.49981219,20.4390085 C3.1751024,25.705681 5.94675532,30.72938 9.31608339,34.4234749 C18.5061826,31.0038499 26.4949322,25.1207451 32.4821824,17.5750726 C32.2984554,15.5630433 31.9677468,13.5585131 31.495306,11.6267249 C29.7810207,4.61049438 23.2313408,0.197228371 15.9280054,0.196478453 C15.9272555,0.196478453 15.9272555,0.196478453 15.9265056,0.196478453" id="Fill-116" fill="url(#radialGradient-11)" mask="url(#mask-10)"></path>
                                    </g>
                                    <g id="Group-181" transform="translate(4.499437, 82.095747)">
                                        <path d="M243.71903,41.6240352 C240.719406,37.1245287 234.105234,34.3258356 225.158854,36.5620904 C216.212475,38.7983451 213.160357,46.6859801 213.722786,50.4355689 C211.098115,42.1864736 214.712663,32.9864825 223.659042,30.7502277 C232.605422,28.513973 241.656788,33.1874605 243.71903,41.6240352" id="Fill-119" fill="#FFAEAE"></path>
                                        <path d="M264.216213,101.867554 C264.216213,101.867554 267.716025,105.36742 267.215838,109.616454 C266.7164,113.866238 264.716401,116.365714 264.716401,116.365714 C264.716401,116.365714 269.215837,115.615796 270.215462,111.866207 C271.215837,108.116618 268.216213,104.867225 264.216213,101.867554" id="Fill-121" fill="#2B2B51"></path>
                                        <path d="M245.218842,176.234273 C245.218842,176.234273 274.840133,177.296907 288.900872,170.922606 L286.318946,168.264147 C285.210584,167.124272 284.240956,165.857661 283.428808,164.491311 L281.901999,161.923592 C281.901999,161.923592 279.519547,163.03947 267.903502,164.235589 C255.155098,165.547945 243.656788,165.110743 243.656788,165.110743 L244.343702,168.2349 C244.68191,169.889969 244.903132,171.767013 245.022367,173.451328 L245.218842,176.234273 Z" id="Fill-123" fill="#2B2B51"></path>
                                        <path d="M256.092481,272.223746 C256.467434,281.222759 259.092105,284.972348 259.092105,284.972348 C259.092105,284.972348 265.413813,287.117863 276.102975,286.972379 C269.455807,272.750938 262.471932,258.462005 254.014491,245.01223 C259.378569,257.528358 255.69578,262.694541 256.092481,272.223746" id="Fill-125" fill="#2B2B51"></path>
                                        <path d="M373.036136,249.217169 C379.742547,243.424805 382.077004,238.477597 382.077004,238.477597 C382.077004,238.477597 374.04176,222.13089 348.33123,206.231133 C329.96828,194.875129 311.252873,185.750879 298.387484,177.654767 C324.826174,200.028564 352.683685,221.449214 373.036136,249.217169" id="Fill-127" fill="#2B2B51"></path>
                                        <path d="M189.17506,208.294682 L190.725866,207.85598 C190.725866,207.85598 192.038202,212.823435 194.506143,219.541949 C196.193432,224.135195 199.193056,229.1034 199.974458,230.353513 L199.066322,230.911452 C197.750237,231.722113 196.026952,231.274412 195.273297,229.92456 C193.894969,227.455831 191.996207,223.741488 190.850351,220.760565 C189.505019,217.259949 188.350164,213.223142 187.715743,210.8639 C187.416531,209.751022 188.066699,208.608898 189.17506,208.294682" id="Fill-129" fill="#2B2B51"></path>
                                        <path d="M174.040381,73.7456376 C174.040381,73.7456376 173.290475,76.6830655 173.16524,78.7453393 C173.040756,80.8076131 173.415709,83.0573664 173.415709,83.0573664 C173.415709,83.0573664 170.667303,85.7315731 168.103374,87.8688387 C166.978515,88.8062359 165.73817,89.9588595 165.10375,90.1815851 C164.518823,90.3863127 164.230109,90.1313406 164.372591,89.5269069 C164.845782,87.5208769 166.666554,80.8698563 171.915897,75.2454731 C172.572065,74.5413003 173.352717,73.8078808 174.040381,73.7456376" id="Fill-131" fill="#E9EEFB"></path>
                                        <path d="M144.543949,109.397853 L147.230863,109.616829 L148.043761,106.179206 L144.731426,105.929483 L144.024265,108.624688 C143.929026,108.986148 144.172746,109.349858 144.543949,109.397853" id="Fill-133" fill="#E9EEFB"></path>
                                        <path d="M180.914395,106.679401 L180.616682,109.88155 C180.573938,110.286505 180.87015,110.647966 181.2751,110.686211 L191.317842,111.643107 C191.887021,111.697101 192.392458,111.277897 192.444201,110.707959 L192.225229,107.429319 L180.914395,106.679401 Z" id="Fill-135" fill="#E9EEFB"></path>
                                        <path d="M103.225923,141.227587 C101.537885,144.66746 97.3429102,146.101303 93.9030909,144.413238 L66.4190326,130.928217 C62.9799633,129.240902 61.5461429,125.045112 63.2334316,121.605239 C64.9214702,118.165366 69.1171948,116.731523 72.557014,118.419588 L100.040322,131.90461 C103.480142,133.591924 104.913212,137.787714 103.225923,141.227587" id="Fill-137" fill="#42426C"></path>
                                        <path d="M101.405676,140.246995 C100.056595,142.996943 96.7030153,144.142817 93.9531097,142.793715 L65.8541284,129.006477 C63.1042227,127.657375 61.9583662,124.303743 63.3074473,121.553795 C64.6565284,118.803846 68.0101084,117.657972 70.760014,119.007074 L98.8589953,132.794312 C101.608901,134.143414 102.754757,137.497046 101.405676,140.246995" id="Fill-139" fill="#E9EEFB"></path>
                                        <path d="M71.3654882,123.990127 C71.3654882,125.69844 69.9804117,127.083538 68.2721256,127.083538 C66.5638395,127.083538 65.178763,125.69844 65.178763,123.990127 C65.178763,122.281815 66.5638395,120.896717 68.2721256,120.896717 C69.9804117,120.896717 71.3654882,122.281815 71.3654882,123.990127" id="Fill-141" fill="#42426C"></path>
                                        <path d="M69.6236813,124.666778 C69.3319679,125.270462 68.5993096,125.525434 67.9963851,125.233716 L35.0545103,108.817266 C34.4508359,108.525548 34.1958678,107.793629 34.4875813,107.189945 C34.7792947,106.586261 35.5112031,106.331289 36.1148775,106.623007 L69.0567523,123.039457 C69.6596768,123.331175 69.9153948,124.063094 69.6236813,124.666778" id="Fill-143" fill="#42426C"></path>
                                        <path d="M38.9320497,109.272991 C38.6403362,109.876675 37.9084279,110.131647 37.3047535,109.839929 L35.0542853,108.817791 C34.4506109,108.525323 34.1963927,107.793404 34.4873563,107.18972 C34.7790698,106.586036 35.5109781,106.331064 36.1146525,106.622782 L38.3651207,107.64567 C38.9687951,107.937388 39.2237632,108.669308 38.9320497,109.272991" id="Fill-145" fill="#2B2B51"></path>
                                        <polygon id="Fill-147" fill="#3F3848" points="341.019346 106.991742 324.333935 112.678368 325.646271 110.616094 340.331682 105.335923"></polygon>
                                        <path d="M21.8716861,58.6220461 C21.8716861,58.6220461 27.558224,59.9966454 30.5578484,59.6216865 C33.0887814,59.3059711 34.6823319,55.8720977 34.6823319,55.8720977 L21.8716861,58.6220461 Z" id="Fill-149" fill="#E9EEFB"></path>
                                        <path d="M67.2098836,43.4988296 C67.5848367,43.5925694 95.8937917,54.091418 117.172377,56.7161302 C119.312609,56.9801012 120.734431,55.778733 120.546954,53.6227194 C120.18175,49.4194304 117.359854,41.4365558 106.954907,37.9681862 C97.224875,34.7247919 94.0190264,33.3749399 88.7696838,31.4064058 L67.2098836,43.4988296 Z" id="Fill-151" fill="#E9EEFB"></path>
                                        <path d="M0.124409421,47.7482386 C0.124409421,47.7482386 8.8735638,59.6216865 17.7472026,59.6216865 C26.6215913,59.6216865 55.6174603,51.4978274 73.2402535,41.8741328 C90.8630466,32.2496883 107.360981,18.2517234 108.860793,14.8770935 C110.360605,11.5024636 107.616699,7.80836869 102.236872,7.37791589 C92.8630462,6.62799813 83.8641731,11.7521862 74.1153939,18.8764049 C64.3666147,26.0006236 56.4926007,30.6253664 46.8690558,36.7491949 C37.4832311,42.7222898 28.3711222,48.6233927 22.8720608,48.3729201 C17.3722496,48.1231975 13.247766,45.3732491 11.1232821,44.2483724 C8.99879812,43.1234958 6.7925744,42.9975096 4.49861166,44.3736087 C1.99917465,45.8734442 0.124409421,47.7482386 0.124409421,47.7482386" id="Fill-153" fill="#FFFFFF"></path>
                                        <path d="M84.6452003,17.9078861 C87.5705839,18.8827792 97.5810804,12.3772426 104.876917,7.91073246 C104.087266,7.6422619 103.206876,7.45553238 102.236497,7.37754093 C95.8203009,6.86459719 89.5788325,9.10535145 83.1528871,12.8541903 C83.0523997,14.8302236 82.6766968,17.2517081 84.6452003,17.9078861" id="Fill-155" fill="#E9EEFB"></path>
                                        <path d="M16.9972965,55.4975138 C14.7700754,56.4019146 13.247766,56.6223904 11.3730008,55.8724727 C7.77420147,54.4326306 6.24889248,52.4978428 5.99842384,51.3729661 C5.74870512,50.2480895 5.99842384,49.2484491 8.24814212,49.2484491 C10.4978604,49.2484491 18.8720617,50.7482846 20.4971082,50.872771 C22.1214048,50.9980072 23.3909959,52.0268944 22.1214048,52.8728016 C20.2466396,54.1229145 19.3145063,54.556367 16.9972965,55.4975138" id="Fill-157" fill="#E9EEFB"></path>
                                        <path d="M53.4929763,36.3746109 C53.4929763,36.3746109 26.2466383,22.3758961 9.99842294,5.6279828 C9.99842294,5.6279828 7.21702125,2.3470926 12.9980473,1.12847624 C18.7550764,-0.0848906904 33.8079414,-0.87155442 47.9939149,7.62801346 C53.2897518,10.8009155 57.9654163,14.060808 61.9916621,16.6270266 C68.3658639,20.6885812 71.7404413,22.8138481 72.9905347,23.626009 C72.9905347,23.626009 73.4847228,24.3024348 72.6155817,25.1880877 C70.7040711,27.1356241 65.3429924,31.5158938 55.4929759,36.1871315 C54.8623048,36.4855988 54.1176481,36.811813 53.4929763,36.3746109" id="Fill-159" fill="#E9EEFB"></path>
                                        <polygon id="Fill-161" fill="#24478D" points="326.833372 112.803604 353.392796 97.4925334 353.767749 99.3673278 326.677392 114.084464"></polygon>
                                        <polygon id="Fill-163" fill="#24478D" points="326.396177 110.991428 353.533779 97.4929083 353.908732 99.3677027 326.77113 112.116305"></polygon>
                                        <polygon id="Fill-165" fill="#3F3848" points="347.393548 107.523058 324.333935 112.678743 325.646271 110.616469 347.393548 105.492281"></polygon>
                                        <polygon id="Fill-167" fill="#EE854F" points="323.458795 113.741001 347.768501 123.645915 346.65864 120.739984 324.708888 112.11593"></polygon>
                                        <polygon id="Fill-169" fill="#EE854F" points="324.05272 113.02258 342.456916 117.49059 342.144205 115.240837 325.021599 111.584988"></polygon>
                                        <path d="M288.423407,206.283703 L289.845979,192.526461 C289.884974,192.156002 290.428656,192.165751 290.454153,192.53771 L291.607508,209.580341 C291.956215,214.727027 291.890973,219.746226 293.869225,224.510454 L296.962588,228.978464 L292.650628,224.979152 L289.36004,214.977499 C288.439155,212.177306 288.120445,209.215131 288.423407,206.283703" id="Fill-171" fill="#2B2B51"></path>
                                        <path d="M320.396928,195.357176 C320.396928,195.357176 349.643266,220.6669 361.392045,257.41287 C361.392045,257.41287 363.391294,256.162758 364.922602,255.22536 C366.453911,254.287963 368.015965,253.069347 368.015965,253.069347 C368.015965,253.069347 360.704381,235.477776 350.205695,223.104133 C339.70701,210.73049 320.396928,195.357176 320.396928,195.357176" id="Fill-173" fill="#2B2B51"></path>
                                        <path d="M253.803992,241.061814 C253.803992,241.061814 260.310927,248.976446 272.59064,263.037404 C284.870352,277.098362 294.244178,284.691279 294.244178,284.691279 C294.244178,284.691279 290.901097,285.441197 288.838855,285.784659 C286.776613,286.128871 283.495774,286.50383 283.495774,286.50383 C283.495774,286.50383 277.183815,278.129499 269.216062,266.412034 C261.24831,254.694569 253.276808,241.464519 253.276808,241.464519 C253.051836,241.118807 253.531026,240.754347 253.803992,241.061814" id="Fill-175" fill="#2B2B51"></path>
                                        <path d="M297.524792,243.914351 C297.524792,243.914351 303.711518,264.16213 313.83525,272.786185 L301.212081,282.097913 L297.524792,243.914351 Z" id="Fill-177" fill="#42426C"></path>
                                        <path d="M164.228984,120.927838 C164.052007,121.544271 163.433334,121.284049 163.553319,120.64287 C164.90315,113.397914 167.728046,101.342986 168.276228,98.3725618 C168.634683,96.4370241 170.194487,94.0717835 171.282601,93.3968575 C171.577314,93.2131277 171.854779,93.6270823 171.730295,94.0590349 L164.228984,120.927838 Z" id="Fill-179" fill="#E9EEFB"></path>
                                    </g>
                                    <g id="Group-184" transform="translate(182.227181, 103.843362)">
                                        <mask id="mask-13" fill="white">
                                            <use xlink:href="#path-12"></use>
                                        </mask>
                                        <g id="Clip-183"></g>
                                        <path d="M0.37045361,15.7317748 C7.05361671,25.5459485 16.5721747,33.273851 27.7472753,37.7388613 C30.4881821,33.3878385 32.5241771,28.0596728 33.4953055,22.751005 C35.9145026,9.5307048 36.4791819,2.74394908 21.2470893,0.628431082 C19.4360661,0.377208633 17.7750241,0.249722614 16.2489652,0.249722614 C6.77465164,0.249722614 2.54218165,5.16243385 0.37045361,15.7317748" id="Fill-182" fill="url(#radialGradient-14)" mask="url(#mask-13)"></path>
                                    </g>
                                    <path d="M186.444952,109.471345 C186.444952,109.471345 185.413831,116.126865 184.570187,118.470358 C184.049752,119.916949 182.132992,122.126207 182.132992,122.126207 L181.476824,116.876783 L186.444952,109.471345 Z" id="Fill-185" fill="#303030"></path>
                                </g>
                            </g>
                        </g>
                    </g>
                </g>
            </g>
        </g>
    </g>
</svg>