<svg xmlns="http://www.w3.org/2000/svg" xmlns:xlink="http://www.w3.org/1999/xlink" width="373" height="560" viewBox="0 0 373 560">
    <defs>
        <rect id="a" width="373" height="560" rx="4"/>
        <path id="c" d="M.516 54.91l1 .975V.44C1.18.398.846.36.516.323V54.91z"/>
        <path id="e" d="M.66 58.668l1 .969V.678a34.34 34.34 0 0 0-1-.211v58.201z"/>
        <path id="g" d="M.103 61.96l.75.973V.655a13.036 13.036 0 0 0-.75-.44V61.96z"/>
        <path id="i" d="M.211 63.714l.751.97V1.281a14.762 14.762 0 0 0-.75-.923v63.356z"/>
        <path id="k" d="M.427 63.01l1 .971V1.134C1.084.814.751.485.427.15v62.86z"/>
        <path id="m" d="M.571 63.762l1 .97V.792a22.272 22.272 0 0 1-1-.575v63.545z"/>
        <path id="o" d="M.037 66.507l.75.974V.586a18.84 18.84 0 0 1-.75-.323v66.244z"/>
        <path id="q" d="M.145 69.81l.75.97V.507a12.27 12.27 0 0 1-.75-.13V69.81z"/>
        <path id="s" d="M.627.46V86.6l1 .976L1.585.012S1.244.19.627.46"/>
        <path id="u" d="M.482.409v79.447l1 .972V.15c-.32.089-.655.175-1 .258"/>
        <path id="w" d="M.323.589l.023 73.978.971.943h.03l-.025-75a25.25 25.25 0 0 1-1 .079"/>
        <path id="y" d="M.428 153.497l40.447 47.1V48.505L.428.262z"/>
        <path id="A" d="M.42 139.716l43.457.182-.035-86.635L.37.308z"/>
        <path id="C" d="M62.347.695c-11.046 1.23-23.708 9.844-39.348 10.19-11.927.266-19.33-5.16-22.94-7.984v15h101.588v-5.912s-4.57-.265-10.785-3.882C85.667 5.082 78.581.417 67.248.416c-1.552 0-3.184.087-4.901.279z"/>
        <path id="E" d="M.424 157.806h2.25V1.948L.425.046z"/>
        <linearGradient id="F" x1="50.008%" x2="50.008%" y1="100%" y2="-1.206%">
            <stop offset="0%" stop-color="#95A3D6"/>
            <stop offset="100%" stop-color="#C3CAE8"/>
        </linearGradient>
        <path id="H" d="M.547 151.773c.687.454 1.218.839 1.596 1.124h.653V2.427L.546.52v151.253z"/>
        <linearGradient id="I" x1="49.992%" x2="49.992%" y1="100%" y2="-.221%">
            <stop offset="0%" stop-color="#95A3D6"/>
            <stop offset="100%" stop-color="#C3CAE8"/>
        </linearGradient>
        <path id="K" d="M.203 40.32c.774.35 1.524.712 2.25 1.086V.642a55.978 55.978 0 0 1-2.25-.53V40.32zm0 45.706v177.271c.73.07 1.48.129 2.25.178V86.026H.203z"/>
        <linearGradient id="L" x1="49.998%" x2="49.998%" y1="100.061%" y2="-.016%">
            <stop offset="0%" stop-color="#95A3D6"/>
            <stop offset="100%" stop-color="#C3CAE8"/>
        </linearGradient>
        <path id="N" d="M.324.281v68.61a20.371 20.371 0 0 1 2.25.01V.182c-.745.043-1.495.077-2.25.1zm0 84.018v176.667a67.265 67.265 0 0 0 2.25-.376V84.299H.324z"/>
        <linearGradient id="O" x1="49.999%" x2="49.999%" y1="100.293%" y2="-.017%">
            <stop offset="0%" stop-color="#95A3D6"/>
            <stop offset="100%" stop-color="#C3CAE8"/>
        </linearGradient>
        <path id="Q" d="M.446.79v75.92c.66.023 1.4.091 2.25.249V.29C1.95.462 1.2.629.446.79zm0 86.308v171.66a59.945 59.945 0 0 0 2.25-1.059V87.098H.446z"/>
        <linearGradient id="R" x1="50.001%" x2="50.001%" y1="100.548%" y2="-.015%">
            <stop offset="0%" stop-color="#95A3D6"/>
            <stop offset="100%" stop-color="#C3CAE8"/>
        </linearGradient>
        <path id="T" d="M.567.665v250.211c.72-.649 1.46-1.282 2.25-1.898V.048a410.8 410.8 0 0 0-2.25.617"/>
        <linearGradient id="U" x1="50.002%" x2="50.002%" y1="100.737%" y2="-.055%">
            <stop offset="0%" stop-color="#95A3D6"/>
            <stop offset="100%" stop-color="#C3CAE8"/>
        </linearGradient>
        <path id="W" d="M1.268.17l-.58.054v245.499c.77-.134 1.52-.242 2.25-.333V.047c-.55.035-1.107.076-1.67.124"/>
        <linearGradient id="X" x1="50.003%" x2="50.003%" y1="100.443%" y2="-.065%">
            <stop offset="0%" stop-color="#95A3D6"/>
            <stop offset="100%" stop-color="#C3CAE8"/>
        </linearGradient>
        <path id="Z" d="M.06 241.497c.72-.407 1.466-.847 2.25-1.308V.437A63.17 63.17 0 0 0 .06.06v241.436z"/>
        <linearGradient id="aa" x1="50.004%" x2="50.004%" y1="100.166%" y2="-.044%">
            <stop offset="0%" stop-color="#95A3D6"/>
            <stop offset="100%" stop-color="#C3CAE8"/>
        </linearGradient>
        <path id="ac" d="M.181 227.771a51.07 51.07 0 0 1 2.25-.524V1.21C1.709.889.96.559.182.229V227.77z"/>
        <linearGradient id="ad" x1="50.005%" x2="50.005%" y1="100.256%" y2="-.07%">
            <stop offset="0%" stop-color="#95A3D6"/>
            <stop offset="100%" stop-color="#C3CAE8"/>
        </linearGradient>
        <path id="af" d="M.303 220.646c.763.017 1.512.043 2.25.079V51.385l-.035-.03v-51S1.715.313.303.095v220.55z"/>
        <linearGradient id="ag" x1="50.006%" x2="50.006%" y1="100.202%" y2="-.08%">
            <stop offset="0%" stop-color="#95A3D6"/>
            <stop offset="100%" stop-color="#C3CAE8"/>
        </linearGradient>
        <path id="ai" d="M0 310.166h336.801V.148H0z"/>
        <path id="ak" d="M.498.331L.47 45.625s9.815-1.37 22.599-1.736c14.897-.425 17.348-8.58 36.523-8.58 16.984 0 23.193 8.763 37.437 1.096 15.372-8.273 29.49-1.113 39.262-7.849 10.229-7.05 16.984-11.865 29.402-16.246V.33"/>
        <path id="am" d="M.498.331L.47 45.625s9.815-1.37 22.599-1.736c14.897-.425 17.348-8.58 36.523-8.58 16.984 0 23.193 8.763 37.437 1.096 15.372-8.273 29.49-1.113 39.262-7.849 10.229-7.05 16.984-11.865 29.402-16.246V.33H.498z"/>
        <path id="ao" d="M.498.331L.47 45.625s9.815-1.37 22.599-1.736c14.897-.425 17.348-8.58 36.523-8.58 16.984 0 23.193 8.763 37.437 1.096 15.372-8.273 29.49-1.113 39.262-7.849 10.229-7.05 16.984-11.865 29.402-16.246V.33H.498z"/>
        <path id="aq" d="M.498.331L.47 45.625s9.815-1.37 22.599-1.736c14.897-.425 17.348-8.58 36.523-8.58 16.984 0 23.193 8.763 37.437 1.096 15.372-8.273 29.49-1.113 39.262-7.849 10.229-7.05 16.984-11.865 29.402-16.246V.33H.498z"/>
        <path id="as" d="M.498.331L.47 45.625s9.815-1.37 22.599-1.736c14.897-.425 17.348-8.58 36.523-8.58 16.984 0 23.193 8.763 37.437 1.096 15.372-8.273 29.49-1.113 39.262-7.849 10.229-7.05 16.984-11.865 29.402-16.246V.33"/>
        <path id="au" d="M.498.331L.47 45.625s9.815-1.37 22.599-1.736c14.897-.425 17.348-8.58 36.523-8.58 16.984 0 23.193 8.763 37.437 1.096 15.372-8.273 29.49-1.113 39.262-7.849 10.229-7.05 16.984-11.865 29.402-16.246V.33H.498z"/>
        <path id="aw" d="M.498.331L.47 45.625s9.815-1.37 22.599-1.736c14.897-.425 17.348-8.58 36.523-8.58 16.984 0 23.193 8.763 37.437 1.096 15.372-8.273 29.49-1.113 39.262-7.849 10.229-7.05 16.984-11.865 29.402-16.246V.33H.498z"/>
        <path id="ay" d="M.498.331L.47 45.625s9.815-1.37 22.599-1.736c14.897-.425 17.348-8.58 36.523-8.58 16.984 0 23.193 8.763 37.437 1.096 15.372-8.273 29.49-1.113 39.262-7.849 10.229-7.05 16.984-11.865 29.402-16.246V.33H.498z"/>
        <path id="aA" d="M.498.331L.47 45.625s9.815-1.37 22.599-1.736c14.897-.425 17.348-8.58 36.523-8.58 16.984 0 23.193 8.763 37.437 1.096 15.372-8.273 29.49-1.113 39.262-7.849 10.229-7.05 16.984-11.865 29.402-16.246V.33"/>
        <path id="aC" d="M.498.331L.47 45.625s9.815-1.37 22.599-1.736c14.897-.425 17.348-8.58 36.523-8.58 16.984 0 23.193 8.763 37.437 1.096 15.372-8.273 29.49-1.113 39.262-7.849 10.229-7.05 16.984-11.865 29.402-16.246V.33H.498z"/>
        <path id="aE" d="M.498.331L.47 45.625s9.815-1.37 22.599-1.736c14.897-.425 17.348-8.58 36.523-8.58 16.984 0 23.193 8.763 37.437 1.096 15.372-8.273 29.49-1.113 39.262-7.849 10.229-7.05 16.984-11.865 29.402-16.246V.33H.498z"/>
        <path id="aG" d="M.498.331L.47 45.625s9.815-1.37 22.599-1.736c14.897-.425 17.348-8.58 36.523-8.58 16.984 0 23.193 8.763 37.437 1.096 15.372-8.273 29.49-1.113 39.262-7.849 10.229-7.05 16.984-11.865 29.402-16.246V.33H.498z"/>
        <path id="aI" d="M.498.331L.47 45.625s9.815-1.37 22.599-1.736c14.897-.425 17.348-8.58 36.523-8.58 16.984 0 23.193 8.763 37.437 1.096 15.372-8.273 29.49-1.113 39.262-7.849 10.229-7.05 16.984-11.865 29.402-16.246V.33"/>
        <path id="aK" d="M.498.331L.47 45.625s9.815-1.37 22.599-1.736c14.897-.425 17.348-8.58 36.523-8.58 16.984 0 23.193 8.763 37.437 1.096 15.372-8.273 29.49-1.113 39.262-7.849 10.229-7.05 16.984-11.865 29.402-16.246V.33H.498z"/>
    </defs>
    <g fill="none" fill-rule="evenodd">
        <mask id="b" fill="#fff">
            <use xlink:href="#a"/>
        </mask>
        <g mask="url(#b)">
            <path fill="#7582B8" d="M235 367h-44V264l44 50.052z"/>
            <g fill="#8697D1">
                <path d="M219.671 337.017c-8.963-16.508-23.992-12.106-23.992-12.106l7.062 39.62h32.774v-26.414c-3.802-1.467-7.967-1.65-11.77 0-1.953.848-3.21.49-4.074-1.1M235.662 276.97s-6.466 4.18-13.437 2.368c-6.744-1.752-10.035-5.644-12.977-10.173-4.677-7.2-11.984-6.858-17.059-7.804v6.178l43.473 50.875v-41.445z"/>
            </g>
            <g transform="translate(196 261)">
                <mask id="d" fill="#fff">
                    <use xlink:href="#c"/>
                </mask>
                <path d="M.516 54.91l1 .975V.44C1.18.398.846.36.516.323V54.91z" mask="url(#d)"/>
            </g>
            <g transform="translate(199 262)">
                <mask id="f" fill="#fff">
                    <use xlink:href="#e"/>
                </mask>
                <path d="M.66 58.668l1 .969V.678a34.34 34.34 0 0 0-1-.211v58.201z" mask="url(#f)"/>
            </g>
            <g transform="translate(203 264)">
                <mask id="h" fill="#fff">
                    <use xlink:href="#g"/>
                </mask>
                <path d="M.103 61.96l.75.973V.655a13.036 13.036 0 0 0-.75-.44V61.96z" mask="url(#h)"/>
            </g>
            <g transform="translate(207 267)">
                <mask id="j" fill="#fff">
                    <use xlink:href="#i"/>
                </mask>
                <path d="M.211 63.714l.751.97V1.281a14.762 14.762 0 0 0-.75-.923v63.356z" mask="url(#j)"/>
            </g>
            <g transform="translate(211 273)">
                <mask id="l" fill="#fff">
                    <use xlink:href="#k"/>
                </mask>
                <path d="M.427 63.01l1 .971V1.134C1.084.814.751.485.427.15v62.86z" mask="url(#l)"/>
            </g>
            <g transform="translate(215 275)">
                <mask id="n" fill="#fff">
                    <use xlink:href="#m"/>
                </mask>
                <path d="M.571 63.762l1 .97V.792a22.272 22.272 0 0 1-1-.575v63.545z" mask="url(#n)"/>
            </g>
            <g transform="translate(219 278)">
                <mask id="p" fill="#fff">
                    <use xlink:href="#o"/>
                </mask>
                <path d="M.037 66.507l.75.974V.586a18.84 18.84 0 0 1-.75-.323v66.244z" mask="url(#p)"/>
            </g>
            <g transform="translate(223 279)">
                <mask id="r" fill="#fff">
                    <use xlink:href="#q"/>
                </mask>
                <path d="M.145 69.81l.75.97V.507a12.27 12.27 0 0 1-.75-.13V69.81z" mask="url(#r)"/>
            </g>
            <g transform="translate(234 277)">
                <mask id="t" fill="#fff">
                    <use xlink:href="#s"/>
                </mask>
                <path d="M.627.46V86.6l1 .976L1.585.012S1.244.19.627.46" mask="url(#t)"/>
            </g>
            <g transform="translate(231 279)">
                <mask id="v" fill="#fff">
                    <use xlink:href="#u"/>
                </mask>
                <path d="M.482.409v79.447l1 .972V.15c-.32.089-.655.175-1 .258" mask="url(#v)"/>
            </g>
            <g transform="translate(227 279)">
                <mask id="x" fill="#fff">
                    <use xlink:href="#w"/>
                </mask>
                <path d="M.323.589l.023 73.978.971.943h.03l-.025-75a25.25 25.25 0 0 1-1 .079" mask="url(#x)"/>
            </g>
            <g transform="translate(217 341)">
                <mask id="z" fill="#fff">
                    <use xlink:href="#y"/>
                </mask>
                <path d="M.428 153.497l40.447 47.1V48.505L.428.262z" mask="url(#z)"/>
            </g>
            <path fill="#646D9F" d="M257.875 389.293l-10.51-12.026s-3.857-1.822-6.198-2.095c-9.13-1.066-12.129 6.802-11.75 24.052.367 16.764-4.774 26.968-6.61 38.63-1.902 12.076.734 23.323 4.406 38.993 2.295 9.794 3.5 21.933 2.867 32.254l27.795 32.497V389.293z"/>
            <path fill="#B3BEE2" d="M192.098 312.217v-50.838s-4.682-.318-10.833-4.008c-5.929-3.557-14.321-9.293-28.642-7.653-11.095 1.27-23.812 10.164-39.522 10.523-11.98.273-19.416-5.33-23.042-8.246v41.81c12.22 3.478 20.07 10.09 22.767 19.323 2.025 6.931.17 12.084-1.15 14.582a.83.83 0 0 0 .876 1.208c1.323-.224 3.136-.34 4.818.2 4.269 1.366 3.904 3.462 5.508 4.373 1.928 1.093 3.305-.82 7.987 1.503 2.939 1.458 4.157 3.926 4.651 5.933.439 1.778-.678 3.223-2.523 3.223H90.059v173.878s15.585 7.717 32.268-.182c15.01-7.107 14.597-15.033 23.273-20.363 7.249-4.453 11.521-2.506 16.662-5.056 5.141-2.551 10.74-11.48 26.715-11.48 19.278 0 28.689 11.206 28.689 11.206V341.644l-25.568-29.427z"/>
            <path fill="#95A4D7" d="M90.059 422.046v95.981s15.585 7.717 32.268-.182c15.01-7.106 14.597-15.032 23.273-20.362 7.249-4.453 11.521-2.505 16.662-5.057 5.141-2.55 10.74-11.48 26.715-11.48 19.278 0 28.689 11.207 28.689 11.207v-70.107H90.059z"/>
            <g transform="translate(218 342)">
                <mask id="B" fill="#fff">
                    <use xlink:href="#A"/>
                </mask>
                <path fill="#7582B8" d="M3.86 140.3h.815V3.089h-.814zM7.78 136.842h.816V8.47H7.78zM11.7 122.789h.816V12.738H11.7zM15.621 124.043h.815V17.02h-.815zM19.541 128.554h.815V20.97h-.815zM23.461 134.406h.815V25.821h-.815zM27.382 98.927h.814V30.91h-.814zM31.301 107.199h.815V35.463h-.815z" mask="url(#B)"/>
                <path fill="#8697D1" d="M43.062 136.48h.815V48.84h-.815zM39.142 126.43h.815V45.29h-.815z" mask="url(#B)"/>
                <path fill="#7582B8" d="M36.044 115.63h-.815l-.02-75.652h.815z" mask="url(#B)"/>
            </g>
            <path fill="#A4B1DD" d="M191.398 422.485h12.654v-7.67h-12.654z"/>
            <path fill="#95A4D7" d="M102.2 285.976h12.654v-7.64H102.2z"/>
            <path fill="#A4B1DD" d="M165.74 308.115h12.655v-7.668h-12.654z"/>
            <path fill="#95A4D7" d="M114.698 389.156h12.654v-7.67h-12.654z"/>
            <path fill="#A4B1DD" d="M127.44 389.156h12.654v-7.67h-12.655zM165.936 396.963h11.907v-7.67h-11.907zM165.936 365.14h11.907v-7.67h-11.907zM165.936 372.993h11.907v-7.67h-11.907zM114.99 275.104h11.907v-7.67h-11.908z"/>
            <path fill="#C3CBE8" d="M127.348 315.83h12.654v-7.667h-12.654zM203.905 357.242h12.655v-7.668h-12.655z"/>
            <path fill="#A4B1DD" d="M140.13 357.242h12.655v-7.668H140.13z"/>
            <path fill="#C3CBE8" d="M203.905 365.094h12.655v-7.667h-12.655zM153.188 422.53h12.654v-7.667h-12.654zM178.517 365.094h12.51v-7.667h-12.51z"/>
            <path fill="#A4B1DD" d="M114.669 463.577h38.41v-7.67h-38.41z"/>
            <path fill="#8697D1" d="M140.318 471.35h12.423v-7.67h-12.423z"/>
            <path fill="#A4B1DD" d="M165.661 448.099h50.89v-7.67h-50.89z"/>
            <path fill="#95A4D7" d="M101.94 422.508h25.299v-7.67h-25.3z"/>
            <path fill="#C3CBE8" d="M178.798 448.098h12.655v-7.667h-12.655zM90.079 455.838h12.654v-7.67H90.079z"/>
            <path fill="#A4B1DD" d="M90.079 486.52h75.505v-7.671H90.079zM127.83 494.51h12.614v-7.671h-12.613z"/>
            <path fill="#8697D1" d="M190.644 481.508s-6.486-.08-10.65.993c-4.163 1.074-9.072 4.018-9.072 4.018h-5.385v-7.67h25.107v2.66z"/>
            <path fill="#95A4D7" d="M191.906 267.525v-6.118s-4.581-.274-10.812-4.018c-5.922-3.558-14.295-9.314-28.59-7.67-11.073 1.273-23.766 10.187-39.446 10.547-11.958.274-19.38-5.342-23-8.264v15.523h101.848z"/>
            <g transform="translate(90 249)">
                <mask id="D" fill="#fff">
                    <use xlink:href="#C"/>
                </mask>
                <path fill="#A4B1DD" d="M63.296 18.179h12.622V-.34H63.296zM50.423 18.173h12.621V-.387H50.423z" mask="url(#D)"/>
                <path fill="#95A4D7" d="M37.914 18.173h12.622V3.13H37.914z" mask="url(#D)"/>
                <path fill="#A4B1DD" d="M76.124 18.18h12.623V-.342H76.124z" mask="url(#D)"/>
                <path fill="#95A4D7" d="M0 18.174h12.622V2.623H-.001z" mask="url(#D)"/>
                <path fill="#A4B1DD" d="M88.862 18.174h12.621V2.76H88.862zM12.394 18.166h12.622V8.989H12.394z" mask="url(#D)"/>
                <path fill="#95A4D7" d="M25.085 18.178h12.623V7.895H25.085z" mask="url(#D)"/>
            </g>
            <g transform="translate(202 326)">
                <mask id="G" fill="#fff">
                    <use xlink:href="#E"/>
                </mask>
                <path fill="url(#F)" d="M.424 157.806h2.25V1.948L.425.046z" mask="url(#G)"/>
            </g>
            <g transform="translate(215 339)">
                <mask id="J" fill="#fff">
                    <use xlink:href="#H"/>
                </mask>
                <path fill="url(#I)" d="M.547 151.773c.687.454 1.218.839 1.596 1.124h.653V2.427L.546.52v151.253z" mask="url(#J)"/>
            </g>
            <g transform="translate(100 258)">
                <mask id="M" fill="#fff">
                    <use xlink:href="#K"/>
                </mask>
                <path fill="url(#L)" d="M.203 40.32c.774.35 1.524.712 2.25 1.086V.642a55.978 55.978 0 0 1-2.25-.53V40.32zm0 45.706v177.271c.73.07 1.48.129 2.25.178V86.026H.203z" mask="url(#M)"/>
            </g>
            <g transform="translate(114 259)">
                <mask id="P" fill="#fff">
                    <use xlink:href="#N"/>
                </mask>
                <path fill="url(#O)" d="M.324.281v68.61a20.371 20.371 0 0 1 2.25.01V.182c-.745.043-1.495.077-2.25.1zm0 84.018v176.667a67.265 67.265 0 0 0 2.25-.376V84.299H.324z" mask="url(#P)"/>
            </g>
            <g transform="translate(126 258)">
                <mask id="S" fill="#fff">
                    <use xlink:href="#Q"/>
                </mask>
                <path fill="url(#R)" d="M.446.79v75.92c.66.023 1.4.091 2.25.249V.29C1.95.462 1.2.629.446.79zm0 86.308v171.66a59.945 59.945 0 0 0 2.25-1.059V87.098H.446z" mask="url(#S)"/>
            </g>
            <g transform="translate(138 254)">
                <mask id="V" fill="#fff">
                    <use xlink:href="#T"/>
                </mask>
                <path fill="url(#U)" d="M.567.665v250.211c.72-.649 1.46-1.282 2.25-1.898V.048a410.8 410.8 0 0 0-2.25.617" mask="url(#V)"/>
            </g>
            <g transform="translate(150 250)">
                <mask id="Y" fill="#fff">
                    <use xlink:href="#W"/>
                </mask>
                <path fill="url(#X)" d="M1.268.17l-.58.054v245.499c.77-.134 1.52-.242 2.25-.333V.047c-.55.035-1.107.076-1.67.124" mask="url(#Y)"/>
            </g>
            <g transform="translate(164 250)">
                <mask id="ab" fill="#fff">
                    <use xlink:href="#Z"/>
                </mask>
                <path fill="url(#aa)" d="M.06 241.497c.72-.407 1.466-.847 2.25-1.308V.437A63.17 63.17 0 0 0 .06.06v241.436z" mask="url(#ab)"/>
            </g>
            <g transform="translate(177 255)">
                <mask id="ae" fill="#fff">
                    <use xlink:href="#ac"/>
                </mask>
                <path fill="url(#ad)" d="M.181 227.771a51.07 51.07 0 0 1 2.25-.524V1.21C1.709.889.96.559.182.229V227.77z" mask="url(#ae)"/>
            </g>
            <g transform="translate(189 261)">
                <mask id="ah" fill="#fff">
                    <use xlink:href="#af"/>
                </mask>
                <path fill="url(#ag)" d="M.303 220.646c.763.017 1.512.043 2.25.079V51.385l-.035-.03v-51S1.715.313.303.095v220.55z" mask="url(#ah)"/>
            </g>
            <g transform="translate(90 249)">
                <path stroke="#8697D1" stroke-linecap="round" stroke-width="2" d="M187.113 92.072l16.493-15.317M220.099 92.072l-16.493-15.317M216.25 92.072l-12.644-14.77M203.606 77.302l-12.644 14.77"/>
                <mask id="aj" fill="#fff">
                    <use xlink:href="#ai"/>
                </mask>
                <path fill="#E86A46" d="M183.036 109.03h40.59V91.39h-40.59zM223.626 109.03l3.207 5.151V96.54l-3.207-5.152z" mask="url(#aj)"/>
                <path fill="#FF7E59" d="M183.815 108.141h5.792V92.276h-5.792zM190.44 108.141h5.792V92.276h-5.793zM197.064 108.141h5.792V92.276h-5.792zM203.688 108.141h5.793V92.276h-5.793zM210.313 108.141h5.793V92.276h-5.793zM216.937 108.141h5.793V92.276h-5.793z" mask="url(#aj)"/>
                <path fill="#E86A46" d="M223.626 109.03h-40.59l3.298 5.275h40.59z" mask="url(#aj)"/>
                <path fill="#95A4D7" d="M181.386 54.692c0 1.082-.881 1.96-1.97 1.96a1.965 1.965 0 0 1-1.97-1.96c0-1.083.883-1.96 1.97-1.96 1.089 0 1.97.877 1.97 1.96" mask="url(#aj)"/>
                <path stroke="#95A4D7" stroke-width="4" d="M276.632 49.267l5.314-32.275" mask="url(#aj)"/>
                <path stroke="#95A4D7" stroke-width="2" d="M179.325 54.236l103.17-37.244" mask="url(#aj)"/>
                <path stroke="#95A4D7" stroke-width="4" d="M284.466 48.993l-1.97-32" mask="url(#aj)"/>
                <path fill="#95A4D7" d="M273.245 62.258H157.069l-1.1-1.494h117.276z" mask="url(#aj)"/>
                <path fill="#C3CBE8" d="M273.245 54.736H171.182c-2.767 0-5.488.697-7.911 2.026l-7.301 4.002h117.275v-6.028z" mask="url(#aj)"/>
                <path fill="#FF7E59" d="M196.684 61.209h14.033v-2.666h-14.033z" mask="url(#aj)"/>
                <path fill="#E86A46" d="M196.684 62.665h14.033v-1.457h-14.033z" mask="url(#aj)"/>
                <path fill="#95A4D7" d="M188.178 147.675h5.498v-38.839h-5.498z" mask="url(#aj)"/>
                <path fill="#7582B8" d="M193.676 147.675h2.035V112.12l-2.035-3.283z" mask="url(#aj)"/>
                <path fill="#95A4D7" d="M230.6 147.675h5.498v-38.839h-5.497z" mask="url(#aj)"/>
                <path fill="#7582B8" d="M236.098 147.675h2.036V112.12l-2.036-3.283z" mask="url(#aj)"/>
                <path fill="#95A4D7" d="M273.024 147.675h5.497v-38.839h-5.497z" mask="url(#aj)"/>
                <path fill="#7582B8" d="M278.521 147.675h2.036V112.12l-2.036-3.283z" mask="url(#aj)"/>
                <path fill="#C3CBE8" d="M150.646 114.308h129.898v-2.188H150.646z" mask="url(#aj)"/>
                <path fill="#8697D1" d="M280.544 112.12l21.995 37.185v2.188l-21.995-37.185z" mask="url(#aj)"/>
                <path fill="#535785" d="M302.534 151.506H180.333l-29.687-37.198h129.898z" mask="url(#aj)"/>
                <path fill="#C3CBE8" d="M150.646 131.813h129.898v-2.188H150.646z" mask="url(#aj)"/>
                <path fill="#8697D1" d="M280.544 129.625l21.995 37.185v2.188l-21.995-37.185z" mask="url(#aj)"/>
                <path fill="#535785" d="M302.534 169.011H180.333l-29.687-37.198h129.898z" mask="url(#aj)"/>
                <path fill="#C3CBE8" d="M150.646 149.318h129.898v-2.188H150.646z" mask="url(#aj)"/>
                <path fill="#8697D1" d="M280.544 147.13l21.995 37.185v2.188l-21.995-37.185z" mask="url(#aj)"/>
                <path fill="#535785" d="M302.534 186.516H180.333l-29.687-37.198h129.898z" mask="url(#aj)"/>
                <path fill="#95A4D7" d="M150.646 257.093h130.008v-92.631H150.646z" mask="url(#aj)"/>
                <path fill="#B3BEE2" d="M150.646 165.42v25.16c38.025-7.974 48.47-16.18 61.664-25.48-2.737.186-61.664.32-61.664.32M253.794 164.462c-13.764 10.838-26.55 23.308-38.89 35.797 21.637-8.235 44.207-5.077 65.75 3.386v-39.183h-26.86z" mask="url(#aj)"/>
                <path fill="#8697D1" d="M302.516 256.41l-10.354-17.494h10.354v-1.265l-9.254-16.195h9.254v-1.31l-9.254-16.195h9.254l.03-1.197-21.892-38.292v92.631h21.891z" mask="url(#aj)"/>
                <path fill="#95A4D7" d="M294.132 52.412l-2.039-3.872-20.223 17.548 2.196 3.875h20.066z" mask="url(#aj)"/>
                <path fill="#A4B1DD" d="M150.646 166.64h129.898v-2.187H150.646zM150.646 184.146h129.898v-2.188H150.646zM150.646 201.65h129.898v-2.187H150.646z" mask="url(#aj)"/>
                <path fill="#95A4D7" d="M280.544 164.59l21.995 37.185v2.188l-21.995-37.186zM280.544 182.094l21.995 37.186v2.188l-21.995-37.186zM280.544 199.6l21.995 37.185v2.188l-21.995-37.186z" mask="url(#aj)"/>
                <path fill="#C3CBE8" d="M278.527 255.907h8.029V67.227h-8.03z" mask="url(#aj)"/>
                <path fill="#FF7E59" d="M291.014 46.7h-17.495l-1.649 1.854h20.243z" mask="url(#aj)"/>
                <path fill="#C3CBE8" d="M271.87 66.088h20.243V48.515H271.87z" mask="url(#aj)"/>
                <path fill="#8697D1" d="M162.878 217.023h-12.232v-15.271z" mask="url(#aj)"/>
                <path fill="#C3CBE8" d="M184.18 211.051h6.232v-18.599h-6.231z" mask="url(#aj)"/>
                <path fill="#A4B1DD" d="M190.412 211.051l2.41 2.872v-18.052l-2.41-3.419z" mask="url(#aj)"/>
                <path fill="#C3CBE8" d="M161.892 208.928h8.591v-7.176h-8.59z" mask="url(#aj)"/>
                <path fill="#A4B1DD" d="M170.483 208.863l5.16 5.607v-6.564l-5.16-6.154z" mask="url(#aj)"/>
                <path fill="#646D9F" d="M200.628 230.744s3.298-10.211 14.568-16.137c7.398-3.89 16.101-4.386 22.179-4.007a8.063 8.063 0 0 0 5.322-1.583c4.289-3.193 13.999-8.523 26.375-3.436 11.881 4.883 12.959 16.648 12.829 21.784-.028 1.105.549 2.012 2.042 1.802 1.414-.198 3.307-.105 5.104 1.212 1.89 1.385 2.468 3.218 2.583 4.676.117 1.48.992 2.804 2.345 3.43 4.054 1.881 11.81 6.762 14.68 17.423 2.166 8.046-.163 16.036-2.593 20.668-.843 1.608-2.893 2.144-4.435 1.178-3.56-2.231-10.78-5.924-20.529-6.94-13.125-1.367-27.583 3.51-27.583 3.51l-50.596-13.858-2.291-29.722z" mask="url(#aj)"/>
                <path fill="#D2D8EE" d="M188.396 251.805h-55.388v-25.722c0-10.341 8.425-18.724 18.818-18.724h36.57v44.446z" mask="url(#aj)"/>
                <path fill="#FFF" d="M162.42 238.13c0 3.927-3.2 7.11-7.147 7.11s-7.147-3.183-7.147-7.11c0-3.929 3.2-7.112 7.147-7.112s7.147 3.183 7.147 7.111" mask="url(#aj)"/>
                <path fill="#C3CBE8" d="M158.575 248.89h-6.467v-4.466c0-.893.92-2.124 3.234-2.124 2.267 0 3.233 1.163 3.233 2.124v4.467z" mask="url(#aj)"/>
                <path fill="#C3CBE8" d="M162.418 238.13c0-3.929-3.2-7.112-7.147-7.112a7.14 7.14 0 0 0-5.38 2.44c.807-.628 2.91-1.21 5.38-1.21 2.247 0 3.69.434 4.434.737-4.398-1.113-9.586.802-11.09 3.13.851-.755 3.515-1.426 6.667-1.426 2.557 0 4.647.398 6.038.91-5.445-1.436-11.476.547-12.99 3.282l.012.003c.85-.926 3.49-1.642 6.93-1.642 2.58 0 5.493.72 6.063.992-4.894-1.233-10.529.544-12.135 3.283.265-.254 1.863-1.524 6.071-1.524 1.883 0 3.962.313 5.07.7-6.253-1.213-9.277 2.548-9.243 2.855.825.667 2.427 1.442 4.266 1.442 1.535 0 2.658-.251 3.173-.502 2.68-1.436 3.881-3.861 3.881-6.359" mask="url(#aj)"/>
                <path fill="#FFF" d="M137.2 238.13c0 3.927-3.2 7.11-7.147 7.11s-7.147-3.183-7.147-7.11c0-3.929 3.2-7.112 7.147-7.112s7.147 3.183 7.147 7.111" mask="url(#aj)"/>
                <path fill="#C3CBE8" d="M133.355 248.89h-6.467v-4.466c0-.893.92-2.124 3.234-2.124 2.267 0 3.233 1.163 3.233 2.124v4.467z" mask="url(#aj)"/>
                <path fill="#C3CBE8" d="M137.198 238.13c0-3.929-3.2-7.112-7.147-7.112a7.14 7.14 0 0 0-5.38 2.44c.807-.628 2.91-1.21 5.38-1.21 2.247 0 3.69.434 4.434.737-4.398-1.113-9.586.802-11.09 3.13.851-.755 3.515-1.426 6.667-1.426 2.557 0 4.647.398 6.038.91-5.445-1.436-11.476.547-12.99 3.282l.012.003c.85-.926 3.49-1.642 6.93-1.642 2.58 0 5.493.72 6.063.992-4.894-1.233-10.529.544-12.135 3.283.265-.254 1.863-1.524 6.071-1.524 1.883 0 3.962.313 5.07.7-6.253-1.213-9.277 2.548-9.243 2.855.825.667 2.427 1.442 4.266 1.442 1.535 0 2.658-.251 3.173-.502 2.68-1.436 3.881-3.861 3.881-6.359" mask="url(#aj)"/>
                <path fill="#A4B1DD" d="M188.396 251.805h16.59v-24.89l-16.59-19.556z" mask="url(#aj)"/>
                <path fill="#95A4D7" d="M194.03 248.523h7.473v-17.228l-7.472-8.809z" mask="url(#aj)"/>
                <path fill="#C3CBE8" d="M273.017 270.712l-15.111-17.779-2.52 2.655 13.176 15.501a73.627 73.627 0 0 1 4.455-.377M281.071 270.773l-19.145-22.524v6.302l13.66 16.071c1.786-.029 3.62.015 5.485.151" mask="url(#aj)"/>
                <path fill="#A4B1DD" d="M275.583 270.622l-16.246-19.113-2.52 2.654L271 270.847c1.477-.122 3.012-.2 4.584-.225M268.555 271.09l-13.215-15.547-4.536 3.43 11.188 13.162a78.96 78.96 0 0 1 6.563-1.045" mask="url(#aj)"/>
                <path fill="#E1E5F3" d="M79.664 254.55h182.261v-6.301H79.665z" mask="url(#aj)"/>
                <path fill="#A4B1DD" d="M261.926 254.55H79.665l2.748 2.397h176.764z" mask="url(#aj)"/>
                <path fill="#646D9F" d="M259.177 260.021H82.413l5.47 4.79h165.796z" mask="url(#aj)"/>
                <path fill="#A4B1DD" d="M259.177 260.021H82.413l5.47 4.79h165.796z" mask="url(#aj)"/>
                <path fill="#C3CBE8" d="M253.68 274.325s3.25-1.168 8.328-2.194l-8.312-9.779-2.52 9.083 2.523 2.968-.02-.078z" mask="url(#aj)"/>
                <path fill="#E1E5F3" d="M253.68 262.359H87.91l-.029 45.244s9.85-1.369 22.678-1.733c14.95-.425 17.408-8.57 36.65-8.57 17.042 0 23.273 8.752 37.567 1.094 15.425-8.265 29.593-1.112 39.399-7.841 10.263-7.043 17.042-11.852 29.503-16.228v-11.966zM82.413 260.021h176.764v-3.074H82.413z" mask="url(#aj)"/>
            </g>
            <g transform="translate(178 511)">
                <mask id="al" fill="#fff">
                    <use xlink:href="#ak"/>
                </mask>
                <path fill="#C3CBE8" d="M102.244 21.562a23.403 23.403 0 0 0-4.157-4.484 1.204 1.204 0 0 0-.964-.255l-.908.149-.15-.911a1.207 1.207 0 0 0-.545-.829 23.152 23.152 0 0 0-12.293-3.517c-4.518 0-8.73 1.294-12.3 3.522-.293.183-.489.488-.545.829l-.15.906-.9-.148a1.204 1.204 0 0 0-.965.255 23.39 23.39 0 0 0-4.156 4.483 1.548 1.548 0 0 0 .27 2.073l18.746 11.55 18.747-11.55c.612-.517.733-1.42.27-2.073" mask="url(#al)"/>
                <mask id="an" fill="#fff">
                    <use xlink:href="#am"/>
                </mask>
                <path fill="#B3BEE2" d="M84.784 33.04l4.006-20.672a1.082 1.082 0 0 0-.845-1.264 23.17 23.17 0 0 0-9.407-.004 1.08 1.08 0 0 0-.846 1.263l4.01 20.696 1.525.953 1.557-.972z" mask="url(#an)"/>
                <mask id="ap" fill="#fff">
                    <use xlink:href="#ao"/>
                </mask>
                <path fill="#B3BEE2" d="M74.37 23.124l-4.894-6.273.754.114.127-.774 4.878 6.26z" mask="url(#ap)"/>
                <mask id="ar" fill="#fff">
                    <use xlink:href="#aq"/>
                </mask>
                <path fill="#B3BEE2" d="M92.073 23.124l4.894-6.273-.754.114-.128-.774-4.877 6.26z" mask="url(#ar)"/>
                <mask id="at" fill="#fff">
                    <use xlink:href="#as"/>
                </mask>
                <path fill="#C3CBE8" d="M151.568 21.562a23.403 23.403 0 0 0-4.157-4.484 1.204 1.204 0 0 0-.964-.255l-.908.149-.15-.911a1.207 1.207 0 0 0-.545-.829 23.152 23.152 0 0 0-12.293-3.517c-4.518 0-8.73 1.294-12.3 3.522-.292.183-.489.488-.545.829l-.15.906-.9-.148a1.204 1.204 0 0 0-.965.255 23.39 23.39 0 0 0-4.156 4.483 1.548 1.548 0 0 0 .27 2.073l18.746 11.55 18.747-11.55c.612-.517.733-1.42.27-2.073" mask="url(#at)"/>
                <mask id="av" fill="#fff">
                    <use xlink:href="#au"/>
                </mask>
                <path fill="#B3BEE2" d="M134.108 33.04l4.006-20.672a1.082 1.082 0 0 0-.845-1.264 23.17 23.17 0 0 0-9.407-.004 1.08 1.08 0 0 0-.846 1.263l4.01 20.696 1.525.953 1.557-.972z" mask="url(#av)"/>
                <mask id="ax" fill="#fff">
                    <use xlink:href="#aw"/>
                </mask>
                <path fill="#B3BEE2" d="M123.694 23.124L118.8 16.85l.754.114.128-.774 4.877 6.26z" mask="url(#ax)"/>
                <mask id="az" fill="#fff">
                    <use xlink:href="#ay"/>
                </mask>
                <path fill="#B3BEE2" d="M141.397 23.124l4.894-6.273-.754.114-.128-.774-4.877 6.26z" mask="url(#az)"/>
                <mask id="aB" fill="#fff">
                    <use xlink:href="#aA"/>
                </mask>
                <path fill="#C3CBE8" d="M52.868 21.562a23.403 23.403 0 0 0-4.156-4.484 1.204 1.204 0 0 0-.965-.255l-.907.149-.15-.911a1.205 1.205 0 0 0-.546-.829 23.148 23.148 0 0 0-12.292-3.517c-4.518 0-8.73 1.294-12.3 3.522-.293.183-.49.488-.545.829l-.15.906-.9-.148a1.204 1.204 0 0 0-.966.255 23.39 23.39 0 0 0-4.155 4.483 1.548 1.548 0 0 0 .27 2.073l18.746 11.55L52.6 23.635c.611-.517.732-1.42.27-2.073" mask="url(#aB)"/>
                <mask id="aD" fill="#fff">
                    <use xlink:href="#aC"/>
                </mask>
                <path fill="#B3BEE2" d="M35.409 33.04l4.005-20.672a1.082 1.082 0 0 0-.845-1.264 23.171 23.171 0 0 0-9.407-.004c-.58.119-.958.681-.845 1.263l4.01 20.696 1.525.953 1.557-.972z" mask="url(#aD)"/>
                <g>
                    <mask id="aF" fill="#fff">
                        <use xlink:href="#aE"/>
                    </mask>
                    <path fill="#B3BEE2" d="M24.995 23.124l-4.894-6.273.753.114.128-.774 4.878 6.26z" mask="url(#aF)"/>
                </g>
                <g>
                    <mask id="aH" fill="#fff">
                        <use xlink:href="#aG"/>
                    </mask>
                    <path fill="#B3BEE2" d="M42.697 23.124l4.894-6.273-.753.114-.128-.774-4.878 6.26z" mask="url(#aH)"/>
                </g>
                <g>
                    <mask id="aJ" fill="#fff">
                        <use xlink:href="#aI"/>
                    </mask>
                    <path fill="#A4B1DD" d="M83.254 19.623c-8.522 0-15.431 6.906-15.431 15.425v5.134h30.862v-5.134c0-8.52-6.908-15.425-15.431-15.425" mask="url(#aJ)"/>
                </g>
                <mask id="aL" fill="#fff">
                    <use xlink:href="#aK"/>
                </mask>
                <path fill="#FFF" d="M79.3 40.167h7.974v-5.028H79.3zM96.868 33.405c-.807-6.802-6.592-12.079-13.614-12.079-7.021 0-12.807 5.277-13.613 12.079h27.227zM89.009 40.167h7.959v-5.028h-7.96zM69.54 40.167h8.025v-5.028H69.54z" mask="url(#aL)"/>
                <path fill="#A4B1DD" d="M33.856 19.623c-8.523 0-15.432 6.906-15.432 15.425V48.19h30.863V35.048c0-8.52-6.909-15.425-15.431-15.425" mask="url(#aL)"/>
                <path fill="#FFF" d="M29.901 48.039h7.975v-12.9H29.9zM47.47 33.405c-.807-6.802-6.592-12.079-13.614-12.079-7.022 0-12.807 5.277-13.613 12.079h27.226zM39.611 48.039h7.958v-12.9h-7.958zM20.142 48.039h8.024v-12.9h-8.024z" mask="url(#aL)"/>
                <path fill="#A4B1DD" d="M132.561 19.623c-8.522 0-15.43 6.906-15.43 15.425V48.19h30.861V35.048c0-8.52-6.908-15.425-15.431-15.425" mask="url(#aL)"/>
                <path fill="#FFF" d="M128.607 48.039h7.974v-12.9h-7.974zM146.174 33.405c-.806-6.802-6.59-12.079-13.613-12.079-7.022 0-12.807 5.277-13.613 12.079h27.226zM138.316 48.039h7.958v-12.9h-7.958zM118.848 48.039h8.024v-12.9h-8.024z" mask="url(#aL)"/>
            </g>
            <g>
                <path fill="#95A4D7" d="M259.787 412.782h5.519v-11.494h-5.519z"/>
                <path fill="#7582B8" d="M265.306 412.782h2.042v-8.757l-2.042-2.737z"/>
                <path fill="#95A4D7" d="M302.37 412.782h5.519v-11.494h-5.518z"/>
                <path fill="#7582B8" d="M307.89 412.782h2.042v-8.757l-2.043-2.737z"/>
                <path fill="#95A4D7" d="M344.954 412.782h5.519v-11.494h-5.519z"/>
                <path fill="#7582B8" d="M350.473 412.782h2.043v-8.757l-2.043-2.737z"/>
                <path fill="#95A4D7" d="M259.787 395.443h5.519v-11.494h-5.519z"/>
                <path fill="#7582B8" d="M265.306 395.443h2.042v-8.757l-2.042-2.737z"/>
                <path fill="#95A4D7" d="M302.37 395.443h5.519v-11.494h-5.518z"/>
                <path fill="#7582B8" d="M307.89 395.443h2.042v-8.757l-2.043-2.737z"/>
                <path fill="#95A4D7" d="M344.954 395.443h5.519v-11.494h-5.519z"/>
                <path fill="#7582B8" d="M350.473 395.443h2.043v-8.757l-2.043-2.737z"/>
                <path fill="#95A4D7" d="M259.787 377.924h5.519V366.43h-5.519z"/>
                <path fill="#7582B8" d="M265.306 377.924h2.042v-8.758l-2.042-2.736z"/>
                <path fill="#95A4D7" d="M302.37 377.924h5.519V366.43h-5.518z"/>
                <path fill="#7582B8" d="M307.89 377.924h2.042v-8.758l-2.043-2.736z"/>
                <path fill="#95A4D7" d="M344.954 377.924h5.519V366.43h-5.519z"/>
                <path fill="#7582B8" d="M350.473 377.924h2.043v-8.758l-2.043-2.736z"/>
                <path fill="#95A4D7" d="M259.787 360.403h5.519v-38.86h-5.519z"/>
                <path fill="#7582B8" d="M265.306 360.403h2.042v-35.577l-2.042-3.284z"/>
                <path fill="#95A4D7" d="M302.37 360.403h5.519v-38.86h-5.518z"/>
                <path fill="#7582B8" d="M307.89 360.403h2.042v-35.577l-2.043-3.284z"/>
                <path fill="#95A4D7" d="M344.954 360.403h5.519v-38.86h-5.519z"/>
                <path fill="#7582B8" d="M350.473 360.403h2.043v-35.577l-2.043-3.284z"/>
                <path fill="#8697D1" d="M252.292 430.337h-12.279v-15.28zM252.292 447.852h-12.279v-15.28z"/>
                <path fill="#95A4D7" d="M374.34 265.178a1.97 1.97 0 0 1-1.977 1.961 1.97 1.97 0 0 1-1.978-1.961 1.97 1.97 0 0 1 1.978-1.961 1.97 1.97 0 0 1 1.977 1.96"/>
                <path stroke="#8697D1" stroke-linecap="round" stroke-width="2" d="M293.174 310.972v14.048"/>
                <path fill="#E86A46" d="M293.174 327.506a1.47 1.47 0 0 1-1.472-1.46v-1.733c0-.803.662-1.46 1.472-1.46.81 0 1.471.657 1.471 1.46v1.733a1.47 1.47 0 0 1-1.471 1.46"/>
                <path fill="#FF7E59" d="M293.174 326.753a1.47 1.47 0 0 1-1.472-1.46v-1.732c0-.803.662-1.46 1.472-1.46.81 0 1.471.657 1.471 1.46v1.733a1.47 1.47 0 0 1-1.471 1.46"/>
                <path fill="#E86A46" d="M363.418 309.033h16.761v-7.549h-16.761z"/>
                <path fill="#FF7E59" d="M344.955 360.415l23.453-8.028h8.047l1.633.798v-2.03l-1.633-.775h-8.047l-23.453 8.073zM344.955 377.93l23.453-8.028h8.047l1.633.798v-2.03l-1.633-.775h-8.047l-23.453 8.073zM344.955 395.444l23.453-8.028h8.047l1.633.799v-2.03l-1.633-.775h-8.047l-23.453 8.073zM344.955 412.822l23.453-8.027h8.047l1.633.798v-2.03l-1.633-.775h-8.047l-23.453 8.073z"/>
            </g>
        </g>
    </g>
</svg>
