<svg xmlns="http://www.w3.org/2000/svg" xmlns:xlink="http://www.w3.org/1999/xlink" width="373" height="560" viewBox="0 0 373 560">
    <defs>
        <rect id="a" width="373" height="560" rx="4"/>
        <path id="c" d="M0 .706h163.627v163.463H0z"/>
        <path id="e" d="M3.067 3.731s4.253 7.5 3.301 11.813c-.703 3.185-5.84 5.25-5.84 5.25s1.396 24.375 8.888 23.5c14.984-1.75 21.841-27.75 21.841-27.75-3.556-2-9.143-16-9.143-16L3.067 3.73z"/>
        <path id="g" d="M29.566 24.907c12.415 12.68 18.758 21.387 20.609 26.107 2.731 6.961-1.986 18.896-7.45 29.338-1.917 3.666-4.965 8.951-.992 10.194 2.997.938 10.348-.18 16.388-6.713 6.207-6.713 14.898-21.382 14.4-28.096-.495-6.713-4.22-5.22-7.448-8.95-3.228-3.73-7.346-11.065-9.435-16.41-2.234-5.719-8.69-21.134-8.69-21.134L.017.293s17.133 11.934 29.548 24.614"/>
        <path id="i" d="M.63 8.919s11.384 6.551 14.94 12.625c6.366 10.875 1.836 23 1.102 26.25-.735 3.25-1.715 7 .734 8.25 2.45 1.25 10.408.75 14.816-5.75 4.408-6.5 2.817-15.5 2.572-18.5-.245-3 .734-14.5.245-17.25-.49-2.75-1.346-5.435-3.919-6.25-1.906-.604-3.423-.415-4.799-.227-1.187.162-2.27.325-3.404-.023-2.45-.75-8.327-7.75-8.327-7.75L.63 8.919z"/>
        <path id="k" d="M4.598 2.088C-2.114 6.856-.361 20.764 8.513 33.153c8.874 12.388 21.508 18.565 28.22 13.796 6.71-4.767 4.957-18.675-3.917-31.063C25.976 6.336 16.902.476 10.03.477c-2.044 0-3.893.519-5.431 1.61"/>
        <path id="m" d="M4.598 2.088C-2.114 6.856-.361 20.764 8.513 33.153c8.874 12.388 21.508 18.565 28.22 13.796 6.71-4.767 4.957-18.675-3.917-31.063C25.976 6.336 16.902.476 10.03.477c-2.044 0-3.893.519-5.431 1.61"/>
        <path id="o" d="M4.598 2.088C-2.114 6.856-.361 20.764 8.513 33.153c8.874 12.388 21.508 18.565 28.22 13.796 6.71-4.767 4.957-18.675-3.917-31.063C25.976 6.336 16.902.476 10.03.477c-2.044 0-3.893.519-5.431 1.61"/>
        <path id="q" d="M4.598 2.088C-2.114 6.856-.361 20.764 8.513 33.153c8.874 12.388 21.508 18.565 28.22 13.796 6.71-4.767 4.957-18.675-3.917-31.063C25.976 6.336 16.902.476 10.03.477c-2.044 0-3.893.519-5.431 1.61"/>
        <path id="s" d="M4.598 2.088C-2.114 6.856-.361 20.764 8.513 33.153c8.874 12.388 21.508 18.565 28.22 13.796 6.71-4.767 4.957-18.675-3.917-31.063C25.976 6.336 16.902.476 10.03.477c-2.044 0-3.893.519-5.431 1.61"/>
        <path id="u" d="M4.598 2.088C-2.114 6.856-.361 20.764 8.513 33.153c8.874 12.388 21.508 18.565 28.22 13.796 6.71-4.767 4.957-18.675-3.917-31.063C25.976 6.336 16.902.476 10.03.477c-2.044 0-3.893.519-5.431 1.61"/>
        <path id="w" d="M4.598 2.088C-2.114 6.856-.361 20.764 8.513 33.153c8.874 12.388 21.508 18.565 28.22 13.796 6.71-4.767 4.957-18.675-3.917-31.063C25.976 6.336 16.902.476 10.03.477c-2.044 0-3.893.519-5.431 1.61"/>
        <path id="y" d="M4.598 2.088C-2.114 6.856-.361 20.764 8.513 33.153c8.874 12.388 21.508 18.565 28.22 13.796 6.71-4.767 4.957-18.675-3.917-31.063C25.976 6.336 16.902.476 10.03.477c-2.044 0-3.893.519-5.431 1.61"/>
        <path id="A" d="M4.598 2.088C-2.114 6.856-.361 20.764 8.513 33.153c8.874 12.388 21.508 18.565 28.22 13.796 6.71-4.767 4.957-18.675-3.917-31.063C25.976 6.336 16.902.476 10.03.477c-2.044 0-3.893.519-5.431 1.61"/>
        <path id="C" d="M1.12.895l-.918 6.76s1.837 28.134 14.51 30.144c12.674 2.01 20.755-23.567 20.755-23.567l-.55-13.52L1.12.896z"/>
        <radialGradient id="D" cx="-140.104%" cy="-9.004%" r="212.633%" fx="-140.104%" fy="-9.004%" gradientTransform="scale(1 .94802) rotate(16.223 -1.384 -.093)">
            <stop offset="0%" stop-color="#FFE8E8"/>
            <stop offset="100%" stop-color="#FDACAC"/>
        </radialGradient>
        <path id="F" d="M2.73 15.455c-4.613 14.78-3.862 32.394 5.99 35.949 9.852 3.554 24.634-9.372 29.688-23.075 5.053-13.704-2.68-23.526-12.531-27.08C23.601.427 21.374 0 19.24 0 12.138 0 6.075 4.737 2.73 15.455"/>
        <radialGradient id="G" cx="-97.24%" cy="31.007%" r="167.732%" fx="-97.24%" fy="31.007%" gradientTransform="scale(1 .78846) rotate(15.11 -1.286 .352)">
            <stop offset="0%" stop-color="#FFE8E8"/>
            <stop offset="100%" stop-color="#FDACAC"/>
        </radialGradient>
    </defs>
    <g fill="none" fill-rule="evenodd">
        <mask id="b" fill="#fff">
            <use xlink:href="#a"/>
        </mask>
        <g mask="url(#b)">
            <path fill="#E9EEFB" d="M133.32 287.583c0 15.864-12.873 28.724-28.752 28.724s-28.752-12.86-28.752-28.724c0-15.863 12.873-28.723 28.752-28.723s28.752 12.86 28.752 28.723"/>
            <path fill="#FFF" d="M134.635 287.202c-19.366 0-29.685-9.23-29.685-29.634v-4.631h-.764v4.63c0 20.405-10.481 29.635-29.685 29.635h-4.62v.763h4.636c19.185.008 29.672 10.234 29.672 29.634v4.631h.764V317.6c0-19.4 10.313-29.62 29.654-29.634h4.636v-.763h-4.608z"/>
            <path fill="#FF7E59" d="M113.935 274.244l6.892 12.047a2.89 2.89 0 0 1-1.077 3.944l-20.6 11.763a2.895 2.895 0 0 1-3.949-1.075l-6.892-12.047a2.89 2.89 0 0 1 1.076-3.945l20.601-11.763a2.896 2.896 0 0 1 3.949 1.076"/>
            <path fill="#E09595" d="M159.45 354.175s-3.098 2.197-1.425 3.776c1.7 1.604 5.547-.839 7.746-1.672 2.943-1.114 8.923-2.971 8.923-2.971l-11.278-1.486-3.966 2.353zM179.403 355.537l-5.39 2.6-1.147 6.84 1.72 2.801z"/>
            <path fill="#E86A46" d="M195.207 370.58a3.73 3.73 0 0 1-.892-.108l-21.272-5.234-.061.259a3.72 3.72 0 0 1-4.478 2.753 3.714 3.714 0 0 1-2.756-4.473l.93-3.9a3.717 3.717 0 0 1 4.506-2.747l24.91 6.129a3.714 3.714 0 0 1-.887 7.321"/>
            <path fill="#E09595" d="M199.604 360.303l-4.47 2.058a3.3 3.3 0 0 1-2.162.207l-8.364-2.048c-2.51-.588-4.622.53-5.71 1.57l-.361.342c-1.161 1.108-1.589 2.388-.993 3.876 0 0-.062 1.56-1.535 2.043a1.177 1.177 0 0 1-1.547-1.088 6.325 6.325 0 0 0-.202-1.388c-.248-.99-.868-2.167-.868-2.167-.566-1.131-.411-2.261.521-3.12l5.49-5.051 20.201 4.766z"/>
            <path fill="#E09595" d="M198.985 360.49s38.666-10.153 49.758-17.396l-14.314-16.528s-15.615 10.152-29.743 19.066c-7.019 4.428-20.82 11.39-20.82 11.39l15.119 3.467zM176.739 368.738l9.432 1.495c.757.136 2.024-.028 2.57-.885l1.351-2.143c.519-.815.093-1.899-.843-2.143l-7.06-1.901a3.01 3.01 0 0 0-2.784.683l-1.876 1.705a1.722 1.722 0 0 1-1.56.4l-.857-.205.046 1.369c.047.882.558 1.393 1.58 1.625"/>
            <path fill="#C5CBD8" d="M268.882 318.147s-5.825 9.347-8.613 14.176c-2.825 4.89-8.49 9.348-8.49 9.348l-12.145-14.857 20.325-23.771 8.923 15.104z"/>
            <path fill="#5581EE" d="M235.048 328.732a156 156 0 0 0 6.817 7.676c2.281 2.394 4.597 5.04 6.398 6.694a2.977 2.977 0 0 0 3.826.178c1.048-.8 1.897-2.035 3.16-3.157.754-.668 2.167-1.86 2.975-2.6a2.34 2.34 0 0 0 .092-3.362l-9.015-10.01-14.253 4.581z"/>
            <path fill="#E09595" d="M226.466 484.823l.124 7.562c0 2.204-2.077 3.597-4.245 3.178-3.005-.579-8.995-1.801-13.384-2.971-7.346-1.959-11.37-4.303-12.61-2.817-1.122 1.346-.682 3.931.805 6.16 1.487 2.228 6.377 6.46 22.959 14.021 7.467 3.405 14.047 6.534 17.288 7.707 2.891 1.047 6.194-1.216 6.506-4.271.555-5.416 1.271-16.931.528-24.978l-17.97-3.59z"/>
            <path fill="#2B2B51" d="M225.893 494.374c-.79.971-2.148 1.46-3.548 1.19-3.005-.58-8.995-1.802-13.384-2.972-7.346-1.959-11.37-4.302-12.61-2.817-1.122 1.346-.682 3.932.805 6.16 1.487 2.229 6.377 6.46 22.959 14.021 7.467 3.405 14.047 6.534 17.288 7.707 2.891 1.047 6.194-1.216 6.506-4.271.26-2.539.554-6.424.718-10.658-7.104-.962-14.02-2.98-18.734-8.36M286.852 363.708c-12.641 3.962-34.159 7.523-54.282 14.114-22.68 7.429-32.346 13.124-33.833 20.553-1.488 7.428 1.487 13.866 7.187 25.008 5.563 10.873 11.606 25.393 15.368 39.124 4.833 17.642 4.772 28.97 4.772 28.97s11.959 2.353 25.715.496c0 0-3.098-47.047-7.931-58.685-5.092-12.26-10.534-20.552-10.534-20.552l69.153-10.4s-11.897-34.666-15.615-38.628"/>
            <path stroke="#E9EEFB" stroke-linecap="round" stroke-width="2" d="M135.624 411.808s6.693-23.864 7.065-24.979c.371-1.114 1.371-2.375 3.253-1.857 2.695.743 8.458 2.229 8.458 2.229"/>
            <path stroke="#E9EEFB" stroke-linecap="round" stroke-width="3" d="M132.514 411.808h14.047"/>
            <path stroke="#E9EEFB" stroke-width="3" d="M135.953 397.508h3.42"/>
            <path fill="#23478D" d="M224.811 517.791l-11.123-5.16a4.27 4.27 0 0 1-2.077-5.674l.397-.853 18.88 8.76-.398.853a4.277 4.277 0 0 1-5.679 2.074"/>
            <path fill="#E9EEFB" d="M436.685 558.334l-64.353-42.957 44.325 63.295z"/>
            <path fill="#E9EEFB" d="M298.565 506.056l74.308 9.737-23.43-72.322-37.588 25.071z"/>
            <path fill="#D8DDEA" d="M373.108 523.046a6.872 6.872 0 0 1-6.875-6.869 6.872 6.872 0 0 1 6.875-6.868 6.872 6.872 0 0 1 6.876 6.868 6.872 6.872 0 0 1-6.876 6.869m0-18.308c-6.324 0-11.45 5.122-11.45 11.44 0 6.317 5.126 11.439 11.45 11.439 6.325 0 11.45-5.122 11.45-11.44 0-6.317-5.125-11.44-11.45-11.44"/>
            <path fill="#C5CBD8" d="M261.045 529.698a1.87 1.87 0 0 1-.645-.116l-40.865-15.098a1.856 1.856 0 1 1 1.29-3.484l40.865 15.098a1.857 1.857 0 0 1-.645 3.6"/>
            <path fill="#E9EEFB" d="M39.98 472.35l62.802 43.766-67.45 33.86s-11.314-17.921-8.525-40.392c2.788-22.471 13.173-37.235 13.173-37.235M163.044 564.091L102.9 516.055s65.164-3.758 75.975-4.318c3.293 31.369-15.83 52.354-15.83 52.354"/>
            <g transform="translate(21 433.74)">
                <mask id="d" fill="#fff">
                    <use xlink:href="#c"/>
                </mask>
                <path fill="#2B2B3D" d="M77.464 84.542a4.827 4.827 0 0 1 2.243-6.45 4.836 4.836 0 0 1 6.456 2.24 4.826 4.826 0 0 1-2.242 6.45 4.836 4.836 0 0 1-6.457-2.24m-60.561 29.313c-17.37-35.813-2.388-78.912 33.461-96.264 35.85-17.351 78.991-2.385 96.36 33.428 17.37 35.814 2.388 78.913-33.46 96.264-35.85 17.352-78.992 2.386-96.361-33.428M155.424 46.81C135.727 6.195 86.804-10.776 46.15 8.9 5.496 28.577-11.493 77.453 8.203 118.066c19.697 40.613 68.62 57.584 109.275 37.908 40.653-19.677 57.643-68.552 37.946-109.165" mask="url(#d)"/>
            </g>
            <path fill="#C5CBD8" d="M39.63 546.759c-16.906-34.86-2.324-76.812 32.572-93.702 34.894-16.89 76.888-2.321 93.795 32.539 16.907 34.86 2.324 76.812-32.571 93.702-34.895 16.889-76.889 2.321-93.796-32.54m128.764-62.322c-17.549-36.182-61.135-51.304-97.354-33.773-36.219 17.53-51.354 61.074-33.806 97.256 17.548 36.183 61.134 51.303 97.353 33.773 36.22-17.53 51.355-61.073 33.807-97.256"/>
            <path fill="#E86A46" d="M53.106 540.185c-1.985-4.095-5.627-13.733-3.118-14.948 2.51-1.215 7.865 7.698 9.87 11.835 2.007 4.136 5.525 13.731 3.1 14.906-2.427 1.173-7.886-7.74-9.852-11.793"/>
            <path fill="#2474CD" d="M103.022 430.4v-.004c-2.114-.004-8.783-.25-19.238 1.686l.008.034c.73 3.05 3.641 5.095 6.753 4.679a82.385 82.385 0 0 1 13.011-.686v-.004c44.075 1.18 79.441 37.242 79.441 81.558 0 3.356-.203 6.665-.597 9.916-.088.726.257 1.97 1.093 2.62.837.65 2.696 1.021 4.158 1.017a87.843 87.843 0 0 0 1.047-13.553c0-47.64-38.205-86.36-85.676-87.263"/>
            <path fill="#2B2B3D" d="M373.108 521.006a4.83 4.83 0 0 1-4.833-4.829 4.83 4.83 0 0 1 4.833-4.828 4.83 4.83 0 0 1 4.834 4.828 4.83 4.83 0 0 1-4.834 4.829m0 67.227c-39.834 0-72.128-32.26-72.128-72.056 0-39.795 32.294-72.056 72.128-72.056 39.835 0 72.129 32.261 72.129 72.056 0 39.795-32.294 72.056-72.129 72.056m0-153.769c-45.173 0-81.794 36.585-81.794 81.713 0 45.129 36.62 81.713 81.794 81.713s81.795-36.584 81.795-81.713c0-45.128-36.62-81.713-81.795-81.713"/>
            <path fill="#C5CBD8" d="M373.108 586.315c-38.775 0-70.208-31.401-70.208-70.138 0-38.735 31.433-70.138 70.208-70.138 38.776 0 70.209 31.403 70.209 70.138 0 38.737-31.433 70.138-70.209 70.138m0-142.937c-40.246 0-72.871 32.594-72.871 72.8 0 40.205 32.625 72.798 72.871 72.798 40.246 0 72.872-32.593 72.872-72.799 0-40.205-32.626-72.799-72.872-72.799"/>
            <path stroke="#E9EEFB" stroke-linecap="round" stroke-width="3" d="M88.685 423.693l14.097 92.423"/>
            <path stroke="#E9EEFB" stroke-linecap="round" stroke-width="2" d="M184.794 511.349l-82.012 4.828"/>
            <path fill="#2474CD" d="M298.042 488.683c11.195-30.565 40.591-52.361 75.066-52.361 34.808 0 64.31 22.263 75.385 53.245.947 2.65 4.157 2.727 6.188 2.372a.708.708 0 0 0 .56-.902c-10.757-35.118-43.457-60.658-82.133-60.658-38.69 0-71.4 25.559-82.145 60.697a.63.63 0 0 0 .51.806c2.534.346 5.801-1.1 6.57-3.199"/>
            <path fill="#23478D" d="M261.046 532.058a2.97 2.97 0 0 1-2.852-3.822l39.192-131.206a2.975 2.975 0 0 1 5.7 1.699l-39.19 131.207a2.975 2.975 0 0 1-2.85 2.122"/>
            <path fill="#23478D" d="M259.532 530.07a2.965 2.965 0 0 1-2.125-.893l-110.27-112.49a2.969 2.969 0 0 1 .044-4.202 2.975 2.975 0 0 1 4.206.044l110.27 112.49a2.969 2.969 0 0 1-.044 4.201c-.579.567-1.33.85-2.081.85M373.108 519.149a2.966 2.966 0 0 1-2.137-.905l-82.45-85.084a2.97 2.97 0 0 1 .068-4.202 2.976 2.976 0 0 1 4.206.069l82.45 85.084a2.97 2.97 0 0 1-2.137 5.038M275.822 482.6a3.03 3.03 0 0 1-.495-.042c-.2-.033-20.025-3.347-25.365-4.27-9.59-1.657-19.998-6.982-26.518-13.565l-69.497-70.924a2.968 2.968 0 0 1 .044-4.202 2.977 2.977 0 0 1 4.206.045l69.486 70.912c6.924 6.99 16.877 10.77 23.292 11.879 5.324.92 25.134 4.23 25.334 4.264a2.97 2.97 0 0 1-.487 5.903"/>
            <path fill="#D8DDEA" d="M261.045 545.489c-9.068 0-16.42-7.344-16.42-16.403 0-9.06 7.352-16.403 16.42-16.403 9.068 0 16.42 7.344 16.42 16.403 0 9.059-7.352 16.403-16.42 16.403m0-36.18c-10.934 0-19.797 8.855-19.797 19.777s8.863 19.777 19.797 19.777c10.933 0 19.797-8.855 19.797-19.777s-8.864-19.777-19.797-19.777"/>
            <path fill="#D8DDEA" d="M271.452 535.609a5.508 5.508 0 0 1-5.511-5.505 5.508 5.508 0 0 1 5.511-5.506 5.507 5.507 0 0 1 5.511 5.506 5.508 5.508 0 0 1-5.51 5.505m-8.188 9.18a5.508 5.508 0 0 1-5.511-5.505 5.508 5.508 0 0 1 5.51-5.505 5.508 5.508 0 0 1 5.512 5.505 5.508 5.508 0 0 1-5.511 5.506m-11.217-4.97a5.508 5.508 0 0 1-5.51-5.504 5.508 5.508 0 0 1 5.51-5.506 5.508 5.508 0 0 1 5.512 5.506 5.508 5.508 0 0 1-5.512 5.505m1.23-23.197a5.509 5.509 0 0 1 5.51 5.505 5.51 5.51 0 0 1-5.51 5.507 5.509 5.509 0 0 1-5.512-5.507 5.509 5.509 0 0 1 5.512-5.505m11.972-2.618a5.508 5.508 0 0 1 5.512 5.505 5.508 5.508 0 0 1-5.512 5.506 5.508 5.508 0 0 1-5.51-5.506 5.508 5.508 0 0 1 5.51-5.505m-4.205-1.323c-9.068 0-16.42 7.343-16.42 16.403 0 9.059 7.352 16.403 16.42 16.403 9.068 0 16.42-7.344 16.42-16.403 0-9.06-7.352-16.403-16.42-16.403"/>
            <path stroke="#D8DDEA" stroke-linecap="round" stroke-width="3" d="M264.637 547.402l109.783-20.984"/>
            <path fill="#4FA372" d="M44.449 366.592c2.577.026 5.886-3.696 7.54-4.009 2.483-.47 5.75-.853 8.487.272 2.159.89 6.947 5.333 6.947 5.333s-4.631-6.655-6.805-7.189c-3.152-.774-7.801-.636-9.856.271-1.004.444-2.57 2.028-3.999 3.24-.938.796-2.872 2.076-2.314 2.082"/>
            <path fill="#4F9E7C" d="M44.237 350.927c-.674.162 1.295.978 4.076 1.404 3.032.464 4.331.154 6.985 1.287 2.653 1.133 9.817 10.047 9.817 10.047l1.82-2.23s-6.456-7.476-8.342-8.442c-3.082-1.579-6.43-1.8-9.091-1.764-1.662.022-4.52-.48-5.265-.302"/>
            <path fill="#4FA372" d="M67.914 368.688s-7.91-8.19-11.004-8.717c-3.093-.527-7.773-.954-9.73.087-1.028.547-5.687 4.759-6.115 4.147-.306-.437 1.837-1.844 2.696-3.006 2.45-3.318 3.348-3.231 6.932-3.752 2.587-.376 6.647-.118 8.655.506 2.62.815 8.702 6.496 8.702 6.496l-.136 4.24z"/>
            <path fill="#42426C" d="M129.311 379.525l-7.751-3.061 10.124-23.4c.537-.946 1.398-1.364 2.313-1.002l2.935 1.158c.916.362 1.318 1.333 1.003 2.311l-8.624 23.994z"/>
            <path fill="#2B2B51" d="M136.816 358.644l1.119-3.112c.315-.98-.087-1.95-1.003-2.312l-2.934-1.158c-.916-.362-1.778.056-2.314 1.001l-1.313 3.036 6.445 2.545z"/>
            <path fill="#E5A977" d="M91.106 359.575c5.43 12.362 12.072 26.32 5.231 29.32-7.184 3.15-13.56-14.187-19.174-26.466-4.015-8.782-4.737-17.245-1.243-18.778 3.495-1.532 9.756 3.563 15.186 15.924"/>
            <path fill="#EFB881" d="M81.621 360.551c6.948 11.578 15.367 24.549 7.891 29.026-7.85 4.7-16.203-11.791-23.35-23.247-5.114-8.193-6.764-16.491-2.945-18.779 3.82-2.287 11.456 1.422 18.404 13"/>
            <path fill="#EFC6A0" d="M72.191 363.651c.88 1.543 4.683-.24 7.795-2.092a13.07 13.07 0 0 0 1.58-1.096 52.616 52.616 0 0 0-2.304-3.51c-.259.14-.527.29-.816.461-3.112 1.853-7.148 4.668-6.255 6.237"/>
            <path fill="#FFBE46" d="M110.064 374.294c0 7.692-6.243 13.928-13.943 13.928-7.7 0-13.942-6.236-13.942-13.928 0-7.692 6.242-13.929 13.942-13.929s13.943 6.237 13.943 13.929"/>
            <path fill="#E9EEFB" d="M117.004 424.993H91.412c-7.522 0-13.989-5.324-15.428-12.699l-8.677-44.5h77.52l-12.396 44.5c-2.197 7.22-7.906 12.699-15.427 12.699"/>
            <path fill="#C5CBD8" d="M144.826 370.991H67.211c-.88 0-1.6-.719-1.6-1.598 0-.88.72-1.599 1.6-1.599h77.615c.88 0 1.6.72 1.6 1.599 0 .88-.72 1.598-1.6 1.598"/>
            <path fill="#D8DDEA" d="M75.82 411.436l.146.743h56.486l.145-.743zM136.653 397.136H73.03l.145.743h63.271zM70.248 382.837l.145.742h70.037l.206-.742z"/>
            <path fill="#AFAC74" d="M101.72 364.943c-.163.377-.805.461-1.433.19-.628-.272-1.005-.797-.842-1.174.164-.376.805-.46 1.433-.19.629.272 1.006.797.842 1.174"/>
            <path fill="#23478D" d="M102.782 519.087a2.969 2.969 0 0 1-2.168-5.005l10.216-10.867a54.956 54.956 0 0 0 10.205-18.074l36.796-109.523c-.052-1.56-1.274-3.87-3.077-5.764l-4.308-4.526a14.947 14.947 0 0 1-4.114-9.755 2.972 2.972 0 0 1 2.861-3.08 2.973 2.973 0 0 1 3.083 2.858 9.017 9.017 0 0 0 2.48 5.882l4.31 4.526c1.193 1.254 5.057 5.723 4.692 10.606-.018.246-.067.49-.146.725l-36.938 109.944a60.874 60.874 0 0 1-11.357 20.084 2.768 2.768 0 0 1-.1.11l-10.266 10.922a2.97 2.97 0 0 1-2.169.937"/>
            <path fill="#FF7E59" d="M149.301 359.92a4.46 4.46 0 0 1-4.456-4.29l-.262-6.996a7.004 7.004 0 0 1 2.51-5.662 7.025 7.025 0 0 1 6.014-1.5l34.289 7.29a4.458 4.458 0 0 1 3.435 5.29 4.467 4.467 0 0 1-5.293 3.43l-31.949-6.794.174 4.607a4.46 4.46 0 0 1-4.462 4.625"/>
            <path fill="#FF9E78" d="M190.87 354.074c-.517 2.398-2.692 3.965-4.858 3.5-2.166-.467-3.504-2.788-2.987-5.187.517-2.397 2.691-3.964 4.858-3.498 2.166.465 3.504 2.787 2.987 5.185"/>
            <path fill="#2474CD" d="M159.872 388.461l-5.608-1.939a1.807 1.807 0 0 1-1.118-2.299l.58-1.673a1.81 1.81 0 0 1 2.3-1.118l5.61 1.94a1.806 1.806 0 0 1 1.117 2.298l-.58 1.675a1.809 1.809 0 0 1-2.3 1.116"/>
            <path fill="#23478D" d="M160.813 378.565a2.97 2.97 0 0 1-2.17-5.004l5.776-6.154c1.306-1.391 1.723-1.903 1.98-3.123.338-1.605 1.855-2.674 3.472-2.373a2.972 2.972 0 0 1 2.375 3.469c-.561 2.99-1.404 3.873-3.487 6.092l-5.776 6.154a2.967 2.967 0 0 1-2.17.94"/>
            <path fill="#2474CD" d="M350.547 513.597l-81.86 10.842c-1.16.153-2.36-.193-3.165-1.038a6.21 6.21 0 0 0-4.51-1.93 6.217 6.217 0 0 0-5.506 3.325c-.511.97-1.51 1.588-2.599 1.732l-5.457.723a.378.378 0 0 1-.42-.454c.532-2.346 3.406-11.772 15.315-11.905 12.116-.135 75.069-1.317 88.184-1.564.17-.004.187.247.018.269m34.852 1.293c-.644-6.149-5.85-10.943-12.175-10.943-.037 0-.073.006-.109.007l-.006-.007H259.773c-14.271 0-25.84 11.558-25.84 25.814 0 1.285.19 2.96.335 4.05a1.136 1.136 0 0 0 1.279.975l149.83-19.894v-.001h.022"/>
            <path fill="#E9EEFB" d="M301.91 544.592a1.87 1.87 0 0 1-.645-.116L260.4 529.378a1.857 1.857 0 1 1 1.29-3.484l40.864 15.098a1.857 1.857 0 0 1-.644 3.6"/>
            <path fill="#2474CD" d="M309.098 542.453l-10.4 6.494a4.278 4.278 0 0 1-5.892-1.358l-.5-.799 17.652-11.021.5.798a4.269 4.269 0 0 1-1.36 5.886"/>
            <path fill="#423748" d="M377.811 292.607c-1.16-3.769-4.177-6.686-7.634-7.757-2.385-.74-5.23-.844-6.744-3.017-.967-1.387-1.106-3.18-2.222-4.666-1.547-2.062-2.974-2.972-5.7-3.839-4.447-1.412-6.569-5.075-6.693-10.647 0 0-13.385-11.638-21.812-11.638-7.808 0-25.096 9.595-24.538 11.081.394 2.124 8.055 43.147 8.055 43.147s54.5.31 60.076 1.052c.025-.12.034-.231.056-.35a8.03 8.03 0 0 0 4.821-2.37c2.632-2.708 3.496-7.228 2.335-10.996"/>
            <g transform="translate(313 286)">
                <mask id="f" fill="#fff">
                    <use xlink:href="#e"/>
                </mask>
                <path fill="#E09595" d="M3.067 3.731s4.253 7.5 3.301 11.813c-.703 3.185-5.84 5.25-5.84 5.25s1.396 24.375 8.888 23.5c14.984-1.75 21.841-27.75 21.841-27.75-3.556-2-9.143-16-9.143-16L3.067 3.73z" mask="url(#f)"/>
            </g>
            <g transform="translate(326 446)">
                <mask id="h" fill="#fff">
                    <use xlink:href="#g"/>
                </mask>
                <path fill="#FFAEAE" d="M29.566 24.907c12.415 12.68 18.758 21.387 20.609 26.107 2.731 6.961-1.986 18.896-7.45 29.338-1.917 3.666-4.965 8.951-.992 10.194 2.997.938 10.348-.18 16.388-6.713 6.207-6.713 14.898-21.382 14.4-28.096-.495-6.713-4.22-5.22-7.448-8.95-3.228-3.73-7.346-11.065-9.435-16.41-2.234-5.719-8.69-21.134-8.69-21.134L.017.293s17.133 11.934 29.548 24.614" mask="url(#h)"/>
            </g>
            <path fill="#FFCFDF" d="M399.98 501.807c-.493-6.625-4.137-5.283-7.353-8.807-.29 3.243-.403 10.303-4.281 18.53-2.522 5.35-8.006 10.845-12.26 10.72-1.463-.043-2.489-.99-2.757-2.655a125.933 125.933 0 0 1-3.373 6.893c-1.932 3.676-5.003 8.975-1 10.222 3.02.94 10.427-.182 16.513-6.731 6.254-6.731 15.011-21.44 14.51-28.172"/>
            <g transform="translate(372 452)">
                <mask id="j" fill="#fff">
                    <use xlink:href="#i"/>
                </mask>
                <path fill="#FFAEAE" d="M.63 8.919s11.384 6.551 14.94 12.625c6.366 10.875 1.836 23 1.102 26.25-.735 3.25-1.715 7 .734 8.25 2.45 1.25 10.408.75 14.816-5.75 4.408-6.5 2.817-15.5 2.572-18.5-.245-3 .734-14.5.245-17.25-.49-2.75-1.346-5.435-3.919-6.25-1.906-.604-3.423-.415-4.799-.227-1.187.162-2.27.325-3.404-.023-2.45-.75-8.327-7.75-8.327-7.75L.63 8.919z" mask="url(#j)"/>
            </g>
            <g>
                <path fill="#638FFA" d="M318.94 303.154c-.787 1.398-1.548 3.387-1.808 5.079-.487 3.17-.247 9.68.881 13.67.958 3.385 3.366 5.543 4.698 6.212.99.497 2.905-1.243 9.272-8.699 7.507-8.79 8.945-14.833 11.745-21.124.741-.746 25.13-.667 23.736 16.154-1.484 17.894-.06 32.057 2.72 37.963 5.933 12.613 16.937 15.595 25.219 29.388 5.637 9.388 7.665 15.41 7.418 21.374-.238 5.733-2.473 10.065-2.473 10.065s4.08-2.485 12.61.125 13.847 6.71 16.319 7.953c-5.192 4.224-4.45 7.207-11.868 9.692-7.124 2.387-9.767.497-16.69 7.704-3.004 3.127-3.559 9.407-5.192 12.116-2.415 4.007-8.542 9.593-15.948 10.998-7.076 1.34-16.813 1.366-25.714-1.243-8.902-2.61-13.6-8.077-21.017-9.196-7.417-1.118-25.961-2.236-31.154-5.964 0 0-2.596-17.149 2.226-24.977 6.675-10.839 30.783-27.96 35.604-34.173 2.258-2.91 3.956-6.71-5.687-13.67-5.183-3.74-19.904-19.26-19.904-19.26l-10.755-45.605s4.081.112 8.16-.994c2.614-.71 6.166-2.283 7.602-3.588"/>
                <path fill="#5581EE" d="M342.059 328.084c-.773-1.584-1.453-4.094-1.453-6.089 0-.807.386-1.009.587-.56.278.623.549 1.056.901 1.417.284.291.525.29.614-.298.247-1.646.71-3.324 1.36-4.908.45-1.103 1.705-3.436 2.874-3.635.724 4.24-1.581 8.115-3.426 11.997l-1.457 2.076zM345.355 349.125c4.015-2.578 14.324-11.551 18.415-14.004.58-.348 2.008-.801 2.123.851.15 2.147.798 9.571-1.056 14.076a43.36 43.36 0 0 1-1.53 3.561c-2.97 6.279-5.398 10.206-6.972 12.412-.18.252.087.353.462.056 2.957-2.353 6.808-7.508 8.627-10.468.65-1.057 1.792-.932 2.133 1.087.35 2.086.887 4.472 1.36 5.964.324 1.026 1.114.846 1.205 0 .135-1.248.185-2.64.278-4.007.056-.823.525-1.11 1.298-.621.835.528 2.248 1.297 3.121 1.615-2.148-2.811-4.512-6.073-5.624-9.8-2.56-8.578-2.411-20.575-2.43-24.789-.16-.185-16.485.945-20.997 7.096-4.513 6.151-.413 16.971-.413 16.971M332.601 371.856c1.245.417 5.737 4.1 9.455 7.264a14.436 14.436 0 0 0 12.467 3.104l9.167-2.02c.257-.055.228-.433-.035-.442-3.081-.103-9.472-.413-14.612-1.32-7.047-1.242-16.442-6.586-16.442-6.586M353.37 389.75s12.917-6.302 16.69-8.947c3.33-2.334 6.63-4.813 8.685-7.378.3-.376.571-.161.475.312-.578 2.831-3.552 10.632-19.298 20.052-20.769 12.426-35.48 26.282-36.717 27.773 0 0 .028-5.286 8.16-13.793 9.086-9.506 22.006-18.019 22.006-18.019"/>
                <path fill="#C5CBD8" d="M323.7 340.666c-1.607-3.976-2.103-5.424-.31-12.55.615-2.44 2.68-6.71 4.019-8.761.17-.262-.218-.535-.428-.304-1.492 1.64-3.93 5.548-4.888 8.07-3.094 8.133-1.171 14.143-.742 15.16 1.113 2.983 3.09 7.456 12.68 4.909-2.063-.723-8.763-2.643-10.33-6.524" opacity=".5" style="mix-blend-mode:multiply"/>
                <path fill="#5581EE" d="M351.392 433.491s27.63-6.524 46.638-20.41c0 0-5.841 11.277-22.53 18.732-17.435 7.789-24.108 1.678-24.108 1.678M357.512 438.337c.556.187 11.682 4.567 18.358 23.207 0 0 5.749-1.212 9.892-5.75.964-1.056 1.017-2.65-.069-3.58l-4.754-5.427c-.692-.668-1.73-.683-1.596.642 0 0 .421 2.527.174 4.577-.194 1.605-.725 3.319-1.483 1.927-2.844-5.22-5.992-7.441-8.654-9.631-6.12-5.033-11.868-5.965-11.868-5.965"/>
                <path fill="#EFC6A0" d="M304.97 418.89c-1.653.631-5.408-.963-7.231-4.473-2.697-5.191-2.642-8.255-.755-9.46 1.475.66 8.783 6.593 8.783 6.593s-.764 5.908-.796 7.34M335.688 356.921l-19.524 45.957 2.925 4.626s11.374-3.58 22.909-4.488c13.18-1.038 21.705.07 21.705.07l-28.015-46.165z"/>
                <path fill="#EFC6A0" d="M304.97 418.92s2.597-2.391 6.433-5.774c3.587-3.163 7.7-5.62 7.7-5.62l-2.94-4.649-19.18 2.08 7.988 13.964z"/>
                <path fill="#4FA372" d="M317.674 408.336s-1.354.606-2.87-1.794c-1.517-2.4-.426-3.525-.426-3.525l2.557-1.633s-.936 1.4.473 3.627c1.408 2.228 2.93 2.144 2.93 2.144l-2.664 1.181zM373.573 400.468s-4.319 1.883-8.183.387-5.81-5.805-5.81-5.805 4.32-1.882 8.183-.387c3.864 1.497 5.81 5.805 5.81 5.805"/>
                <path fill="#5BAF93" d="M367.883 404.392s-3.929-.353-6.176-3.008c-2.248-2.657-1.964-6.61-1.964-6.61s3.929.352 6.177 3.008c2.247 2.656 1.963 6.61 1.963 6.61"/>
                <path fill="#5BB57F" d="M352.642 354.235s2.442 4.576 2.477 7.76c.034 3.184-3.54 5.803-3.54 5.803s-3.629-2.543-3.663-5.726c-.034-3.183 4.726-7.837 4.726-7.837"/>
                <path fill="#FF91BA" d="M369.38 401.068c-6.678 4.79-19.25-1.414-28.08-13.856-8.83-12.441-10.573-26.408-3.895-31.196 6.677-4.79 17.953 2.405 26.783 14.846 8.83 12.441 11.87 25.418 5.192 30.206"/>
                <path fill="#FFCFDF" d="M360.995 374.712a8.539 8.539 0 0 1-12.024-1.512c-2.906-3.755-2.232-9.166 1.503-12.086a8.539 8.539 0 0 1 12.025 1.512c2.905 3.754 2.232 9.166-1.504 12.086"/>
                <path fill="#FFDEEB" d="M357.567 359.034c-1.888-.018-5.387 2.392-4.904 6.69.483 4.299 4.456 5.09 7.05 4.102 2.595-.99-1.235-5.27-.93-6.548.251-1.05 1.855-.348 3.88.524.336.145.506-.196.4-.549-.71-2.375-3.608-4.201-5.496-4.22"/>
                <path fill="#FFC7D6" d="M360.582 363.432c1.011-1.74 2.55 2.293 1.887 2.94-.662.648-2.997-1.034-1.887-2.94"/>
                <path fill="#FFDEEB" d="M357.862 369.716c2.143-.403 5.013-1.55 5.897-4.063.138-.389.678-.429.892-.078.688 1.125 1.483 3.106.073 4.881-1.65 2.075-4.562 1.84-7.037.53-.576-.303-.463-1.15.175-1.27"/>
                <path fill="#FFC7D6" d="M352.627 366.012c-1.422-3.175-.18-5.795 1.315-6.484.703-.323 1.431-.204 2.032.036.378-.212.933-.375 1.445-.445a7.51 7.51 0 0 0-.532-.463c-1.592-1.223-3.56-.883-4.886-.468-1.663.522-4.513 2.575-4.921 6.835-.242 2.526.399 6.482 3.963 8.462 4.76 2.645 8.061-2.274 7.642-2.985-.421-.71-4.786-1.649-6.058-4.488"/>
                <path fill="#FFC7D6" d="M364.697 370.087s.262 4.667-3.133 6.475c-3.549 1.89-6.066 1.17-7.313.517a.784.784 0 0 1-.155-1.286c.948-.83 2.65-2.146 4.15-2.352 2.218-.305 4.661-.656 6.45-3.354"/>
                <path fill="#FFDCE9" d="M369.623 388.22a8.777 8.777 0 0 1-12.359-1.554c-2.986-3.859-2.294-9.42 1.546-12.423 3.84-3 9.373-2.305 12.358 1.554 2.986 3.86 2.295 9.422-1.545 12.423"/>
                <path fill="#FFDEEB" d="M366.098 372.106c-1.94-.019-5.535 2.458-5.039 6.876.496 4.419 4.579 5.232 7.246 4.216 2.667-1.016-1.268-5.417-.956-6.729.257-1.08 1.906-.359 3.988.538.345.149.519-.202.41-.565-.728-2.44-3.708-4.317-5.649-4.336"/>
                <path fill="#FFCFDF" d="M369.197 376.626c1.04-1.787 2.621 2.358 1.94 3.023-.68.665-3.08-1.064-1.94-3.023"/>
                <path fill="#FFDEEB" d="M366.402 383.085c2.203-.414 5.152-1.593 6.062-4.176.14-.4.695-.44.916-.08.707 1.156 1.525 3.193.075 5.016-1.696 2.133-4.689 1.892-7.233.546-.59-.312-.476-1.183.18-1.306"/>
                <path fill="#FFC7D6" d="M367.247 383.891c-.431-.73-4.918-1.695-6.225-4.613-1.462-3.262-.184-5.955 1.353-6.664.724-.334 1.476-.209 2.094.039.553-.207 1.228-.47 1.758-.486-.108-.107-.67-.329-.827-.449-1.637-1.257-3.66-.907-5.021-.48-1.71.535-4.64 2.646-5.058 7.023-.248 2.598.41 6.663 4.073 8.698 4.892 2.718 8.286-2.338 7.853-3.068"/>
                <path fill="#FFCFDF" d="M373.427 383.466s.27 4.797-3.22 6.655c-3.647 1.943-6.234 1.204-7.516.532a.807.807 0 0 1-.159-1.322c.973-.854 2.724-2.205 4.265-2.417 2.28-.315 4.791-.675 6.63-3.448"/>
                <path fill="#FFADD2" d="M359.835 380.982c-3.704 2.895-9.041 2.224-11.922-1.499-2.88-3.723-2.214-9.089 1.49-11.984a8.467 8.467 0 0 1 11.924 1.499c2.88 3.723 2.212 9.089-1.492 11.984"/>
                <path fill="#F9C2D9" d="M356.436 365.436c-1.871-.017-5.34 2.372-4.862 6.634.48 4.262 4.417 5.048 6.99 4.067 2.573-.981-1.224-5.226-.922-6.492.248-1.04 1.839-.346 3.847.52.334.143.5-.195.396-.545-.704-2.355-3.577-4.166-5.449-4.184"/>
                <path fill="#FFCFDF" d="M359.425 369.797c1.003-1.724 2.528 2.274 1.871 2.916-.655.642-2.971-1.026-1.871-2.916"/>
                <path fill="#FFCFDF" d="M356.729 376.028c2.124-.4 4.97-1.537 5.847-4.029.135-.385.671-.425.884-.077.682 1.115 1.471 3.08.072 4.84-1.636 2.057-4.524 1.824-6.978.526-.57-.302-.459-1.142.175-1.26"/>
                <path fill="#FFC7D6" d="M356.196 366.783s-1.747-1.596-3.353-.856c-1.483.683-2.715 3.28-1.304 6.429 1.26 2.815 5.588 3.745 6.004 4.45.418.704-2.856 5.581-7.575 2.96-3.535-1.964-4.17-5.886-3.93-8.392.405-4.222 3.23-6.26 4.88-6.777 1.313-.41 3.264-.748 4.844.465 1.579 1.212.434 1.72.434 1.72"/>
                <path fill="#F9C2D9" d="M363.505 376.396s.26 4.627-3.106 6.42c-3.518 1.875-6.014 1.16-7.25.512a.778.778 0 0 1-.154-1.275c.94-.824 2.628-2.127 4.114-2.332 2.2-.302 4.621-.65 6.396-3.325"/>
                <path fill="#4FA372" d="M343.106 372.494s-4.094 1.683-6.772-.017-2.926-6.14-2.926-6.14 4.094-1.682 6.773.018c2.677 1.7 2.925 6.139 2.925 6.139"/>
                <path fill="#5BB57F" d="M339.83 381.947s-3.424-3.438-3.213-7.442c.212-4.004 3.979-7.058 3.979-7.058s3.425 3.438 3.214 7.442c-.211 4.004-3.98 7.058-3.98 7.058"/>
                <path fill="#FFADD2" d="M348.886 371.019c-4.172 3.25-10.05 2.67-13.128-1.291-3.079-3.963-2.19-9.81 1.982-13.058 4.173-3.25 10.05-2.67 13.128 1.292 3.078 3.962 2.191 9.808-1.982 13.057"/>
                <path fill="#F9C2D9" d="M345.565 354.232c-2.067.033-5.966 2.726-5.555 7.342.41 4.616 4.738 5.357 7.608 4.219 2.869-1.138-1.206-5.64-.838-7.024.303-1.137 2.042-.428 4.234.455.365.147.56-.225.454-.602-.712-2.539-3.836-4.423-5.903-4.39"/>
                <path fill="#F9C2D9" d="M348.745 358.883c1.158-1.9 2.73 2.399 1.987 3.115-.743.716-3.255-1.03-1.987-3.115"/>
                <path fill="#F9C2D9" d="M345.593 365.726c2.358-.493 5.533-1.808 6.571-4.54.16-.422.755-.48.98-.109.721 1.192 1.538 3.304-.056 5.254-1.865 2.281-5.048 2.109-7.723.769-.621-.312-.475-1.227.228-1.374"/>
                <path fill="#FFCFDF" d="M346.472 366.548c-.442-.753-5.196-1.642-6.51-4.664-1.47-3.379-.036-6.234 1.62-7.019.721-.34 1.453-.27 2.075-.067.44-.317 1.023-.448 1.62-.524-1.734-1.428-4.274-1.297-5.783-.797-1.838.608-5.016 2.9-5.58 7.497-.335 2.728.257 6.97 4.106 9.002 5.14 2.715 8.893-2.675 8.452-3.428"/>
                <path fill="#FFCFDF" d="M353.068 365.935s.158 5.018-3.609 7.06c-3.94 2.135-6.677 1.43-8.025.762-.528-.263-.6-.977-.134-1.381 1.06-.922 2.962-2.385 4.61-2.649 2.439-.39 5.124-.837 7.158-3.792"/>
            </g>
            <g>
                <g transform="translate(333 353)">
                    <mask id="l" fill="#fff">
                        <use xlink:href="#k"/>
                    </mask>
                    <path fill="#4FA372" d="M24.361 36.844s3.315 2.287 3.536 5.383c.222 3.096-2.733 5.828-2.733 5.828s-3.315-2.287-3.537-5.383c-.222-3.096 2.734-5.828 2.734-5.828" mask="url(#l)"/>
                </g>
                <g transform="translate(333 353)">
                    <mask id="n" fill="#fff">
                        <use xlink:href="#m"/>
                    </mask>
                    <path fill="#4FA372" d="M20.654 32.436s2.693 2.99 2.189 6.053c-.505 3.063-4.015 5.038-4.015 5.038s-2.693-2.989-2.189-6.052c.505-3.062 4.015-5.039 4.015-5.039" mask="url(#n)"/>
                </g>
                <g transform="translate(333 353)">
                    <mask id="p" fill="#fff">
                        <use xlink:href="#o"/>
                    </mask>
                    <path fill="#5BB57F" d="M23.569 37.276s-3.72 3.624-8.542 2.667c-3.121-.621-6.457-4.969-6.457-4.969s4.531-3.051 7.673-2.546c4.312.692 7.326 4.848 7.326 4.848" mask="url(#p)"/>
                </g>
                <g transform="translate(333 353)">
                    <mask id="r" fill="#fff">
                        <use xlink:href="#q"/>
                    </mask>
                    <path fill="#FFCFDF" d="M35.721 45.277c-3.81 2.95-9.3 2.267-12.262-1.528a8.68 8.68 0 0 1 1.534-12.212c3.81-2.95 9.3-2.266 12.262 1.528 2.963 3.794 2.275 9.261-1.534 12.212" mask="url(#r)"/>
                </g>
                <g transform="translate(333 353)">
                    <mask id="t" fill="#fff">
                        <use xlink:href="#s"/>
                    </mask>
                    <path fill="#FFDEEB" d="M32.225 29.436c-1.925-.019-5.492 2.416-5 6.76.492 4.343 4.543 5.143 7.19 4.144 2.645-1-1.26-5.325-.95-6.615.256-1.061 1.892-.353 3.957.528.344.147.515-.197.408-.554-.724-2.4-3.68-4.245-5.605-4.263" mask="url(#t)"/>
                </g>
                <g transform="translate(333 353)">
                    <mask id="v" fill="#fff">
                        <use xlink:href="#u"/>
                    </mask>
                    <path fill="#FFC7D6" d="M35.3 33.88c1.031-1.758 2.6 2.317 1.924 2.97-.675.655-3.057-1.045-1.924-2.97" mask="url(#v)"/>
                </g>
                <g transform="translate(333 353)">
                    <mask id="x" fill="#fff">
                        <use xlink:href="#w"/>
                    </mask>
                    <path fill="#F9C2D9" d="M32.526 40.228c2.186-.406 5.112-1.565 6.014-4.104.14-.393.69-.434.91-.08.701 1.137 1.512 3.14.074 4.932-1.684 2.097-4.653 1.86-7.177.537-.586-.307-.472-1.164.18-1.285" mask="url(#x)"/>
                </g>
                <g transform="translate(333 353)">
                    <mask id="z" fill="#fff">
                        <use xlink:href="#y"/>
                    </mask>
                    <path fill="#F9C2D9" d="M33.365 41.021c-.429-.718-4.88-1.666-6.176-4.534-1.451-3.208-.184-5.856 1.341-6.552.68-.31 1.381-.216 1.974.001.466-.104.993-.282 1.544-.415a3.54 3.54 0 0 0-.516-.467c-1.625-1.236-3.63-.892-4.982-.473-1.697.527-4.603 2.602-5.019 6.906-.246 2.553.407 6.55 4.042 8.55 4.854 2.672 8.22-2.298 7.792-3.016" mask="url(#z)"/>
                </g>
                <g transform="translate(333 353)">
                    <mask id="B" fill="#fff">
                        <use xlink:href="#A"/>
                    </mask>
                    <path fill="#FFCFDF" d="M39.496 40.604s.267 4.716-3.194 6.542c-3.62 1.91-6.187 1.183-7.458.523a.789.789 0 0 1-.158-1.3c.966-.84 2.703-2.168 4.231-2.377 2.263-.309 4.754-.662 6.579-3.388" mask="url(#B)"/>
                </g>
            </g>
            <g>
                <path fill="#FFADD2" d="M353.617 388.486c-4.224 3.28-10.312 2.52-13.596-1.698-3.286-4.217-2.524-10.293 1.7-13.572 4.224-3.28 10.312-2.52 13.596 1.697 3.286 4.217 2.524 10.294-1.7 13.573"/>
                <path fill="#FFDEEB" d="M349.74 370.88c-2.134-.02-6.09 2.686-5.544 7.513.546 4.828 5.037 5.716 7.972 4.606 2.933-1.11-1.396-5.918-1.052-7.352.283-1.18 2.097-.392 4.387.588.38.163.571-.22.452-.617-.802-2.667-4.08-4.718-6.215-4.738"/>
                <path fill="#FFCFDF" d="M350.074 382.875c2.423-.452 5.669-1.74 6.669-4.562.154-.436.765-.482 1.009-.088.777 1.263 1.676 3.488.08 5.48-1.865 2.331-5.158 2.067-7.956.597-.65-.342-.524-1.292.198-1.427"/>
                <path fill="#FFCFDF" d="M351.004 383.756c-.476-.798-5.41-1.852-6.85-5.04-1.607-3.565-.201-6.507 1.49-7.281.755-.346 1.536-.238 2.196.004.45-.315.904-.598 1.375-.784a5.038 5.038 0 0 0-.244-.2c-1.8-1.373-4.025-.99-5.523-.525-1.882.585-5.104 2.893-5.565 7.675-.273 2.838.451 7.28 4.481 9.503 5.383 2.97 9.116-2.554 8.64-3.352"/>
                <path fill="#FFDEEB" d="M357.803 383.292s.296 5.24-3.542 7.271c-4.013 2.123-6.86 1.315-8.27.58a.878.878 0 0 1-.174-1.444c1.07-.932 2.996-2.409 4.691-2.64 2.509-.344 5.27-.738 7.295-3.767"/>
                <path fill="#23478D" d="M288.917 411.87s33.031-7.57 34.553-7.941c1.523-.373 4.972-1.986 3.73-6.7-1.243-4.716-2.486-9.927-2.486-9.927l-34.803 9.927-.994 14.64z"/>
                <path fill="#FFAEAE" d="M289.636 517.19s2.805 4.85 2.078 7.338c-1.027 3.516-4.41 9.01-9.136 14.33-8.763 9.865-13.225 11.861-13.577 14.098-.35 2.237 1.865 3.723 5.187 2.653 3.822-1.23 11.106-3.62 18.458-8.096 6.887-4.192 20.714-13.038 22.746-15.106 2.031-2.067 3.43-4.954.663-8.277-1.94-2.33-6.925-9.115-10.08-13.923l-16.34 6.983z"/>
                <path fill="#42426C" d="M316.055 524.13c-.89-1.07-2.425-3.082-4.127-5.407-6.402 4.513-13.228 9.281-20.48 6.61-1.267 3.517-4.49 8.595-8.87 13.526-8.763 9.864-13.226 11.86-13.577 14.097-.35 2.238 1.865 3.723 5.187 2.653 3.822-1.23 11.106-3.62 18.458-8.096 6.887-4.193 20.715-13.038 22.745-15.106 2.031-2.067 3.43-4.954.664-8.277M287.425 361.991c-7.705 12.16-37.288 30.77-56.18 59.557-10.738 16.359 4.971 28.784 11.435 36.229 6.322 7.282 28.587 35.485 42.508 63.774 9.447-3.474 23.616-10.919 23.616-10.919s-21.187-51.236-27.717-59.059c-7.458-8.933-15.04-14.144-15.04-14.144s4.068-4.648 11.186-8.933c15.661-9.43 36.528-23.311 42.509-29.282 10.192-10.175 19.639-20.348 9.944-44.17l-42.26 6.947z"/>
            </g>
            <g transform="translate(308 257)">
                <mask id="E" fill="#fff">
                    <use xlink:href="#C"/>
                </mask>
                <path fill="url(#D)" d="M1.12.895l-.918 6.76s1.837 28.134 14.51 30.144c12.674 2.01 20.755-23.567 20.755-23.567l-.55-13.52L1.12.896z" mask="url(#E)"/>
            </g>
            <g>
                <path fill="#423748" d="M347.526 257.285c-2.094-6.182-6.16-9.15-12.257-10.263-4.766-.87-6.443-3.84-11.457-2.782-7.33 1.545-8.108 5.453-12.257 6.863-2.002.68-4.608 1.24-7.145 4.266-2.957 3.524-2.217 7.42-2.217 7.42l9.608 32.459s.739-5.905-.647-12.984c-1.694-8.656-3.364-11.095-3.048-15.21.123-1.608 1.171-5.514 7.145-3.586 5.174 1.67 9.239 3.4 12.935 2.844 4.658-.702 5.974-3.833 7.267-3.091 2.182 1.251 2.957 3.833 1.848 7.914-1.108 4.08-4.065 7.512-5.174 12.613-.765 3.518-1.313 9 2.033 14.22 1.785 2.784 4.509 4.644 5.82 5.441 3.973 2.411 10.81 1.67 15.06-2.226 4.25-3.895 9.24-1.793 9.24-1.793s-5.082-12.489-8.316-19.908c-3.141-1.206-4.811-2.545-5.913-4.266-4.013-6.276-.788-12.803-2.525-17.93M270.947 209.969c-.66 6.388-4.567 11.216-8.73 10.782-4.16-.432-8.068-6.003-6.342-12.35 1.686-6.194 5.323-9.79 9.484-9.358 4.162.433 6.247 4.538 5.588 10.926"/>
                <path fill="#E09595" d="M264.25 253.7l1.232 14.59 23.96-17.373s-2.648-4.576-.923-11.5l-24.268 14.282z"/>
                <path fill="#638FFA" d="M260.801 274.102s-.37-4.637 3.141-8.717c3.715-3.73 15.224-12.39 25.116-17.68.75-.4 1.676-.185 2.155.52 1.3 1.913 4.04 6.154 5.806 8.813L260.8 274.102z"/>
                <path fill="#D8DDEA" d="M229.388 308.231s21.065-17.064 22.913-20.032c1.848-2.968 6.028-11.337 7.761-14.282 2.402-4.08 4.435-9.089 12.935-14.653 8.5-5.565 15.891-5.565 20.326-4.452 4.435 1.113 9.978 6.306 12.196 12.242 3.425 9.17 6.652 15.21 7.76 25.226 1.11 10.016 2.957 24.484 4.435 31.903 1.478 7.42 7.392 26.339 7.392 26.339l-32.522 8.903s-12.254-10.695-16.261-14.468c-4.085-3.846-6.847-17.564-8.5-20.774-2.43-4.718-4.804-8.532-4.804-8.532s-6.653 8.161-11.087 10.387c-4.435 2.226-11.826 4.451-11.826 4.451l-10.718-22.258z"/>
            </g>
            <g transform="translate(254 202)">
                <mask id="H" fill="#fff">
                    <use xlink:href="#F"/>
                </mask>
                <path fill="url(#G)" d="M8.682 51.404c9.808 3.554 24.526-9.372 29.557-23.075 7.421-15.696-1.262-23.387-12.476-27.08C23.497.427 21.28 0 19.155 0 12.085 0 6.048 4.737 2.718 15.455c-4.593 14.78-3.845 32.394 5.964 35.949z" mask="url(#H)"/>
            </g>
            <g>
                <path fill="#423748" d="M260.823 210.151c.227.115.467.187.72.207 1.337.099 2.584.953 11.276.607 4.878-.195 9.561-.495 12.79.866 4.145 1.746 5.706 3.808 5.463 8.657-.124 2.473-2.13 4.775-3.229 6.183-1.738 2.226-2.884 4.073-3.115 6.626-.102 1.137.786 2.127 1.93 2.181l.123.006a2.024 2.024 0 0 1 1.932 2.018c0 1.607 1.795 2.581 3.139 1.692 1.294-.857 2.835-2.133 4.311-3.99 3.539-4.452 3.125-7.314 4.47-10.759.87-2.226 2.856-3.957 2.608-7.42-.307-4.272-1.49-7.173-5.215-9.276-3.243-1.83-5.712-3.771-6.458-5.812-.745-2.04-1.179-4.328-6.953-7.667-5.774-3.34-10.99-1.918-13.97-.434-2.98 1.484-6.982.098-10.43 3.896-2.918 3.216-2.76 7.486-2.049 9.46.626 1.737 1.96 2.608 2.657 2.96"/>
                <path fill="#FFAEAE" d="M292.022 237.52c-2.292 2.334-5.173 3.229-6.434 2-1.261-1.23-.427-4.118 1.866-6.451 2.292-2.334 5.173-3.229 6.435-2 1.261 1.23.426 4.118-1.867 6.451M224.516 308.789s-8.693 3.463-21.855 10.141c-13.162 6.679-24.834 13.604-28.063 13.851-6.556.502-9.437-.247-13.162.742-3.725.99-8.94 5.442-8.94 5.442s-3.478 2.597-2.98 6.307c.284 2.128 1.241 3.958 2.715 6.662.775 1.423 2.51 2.043 4.129 1.89l8.832.137c1.764-.166 3.05-1.613 3.197-3.371.074-.88.633-3.313 1.863-4.205 2.732-1.979 5.215-1.36 5.215-1.36l6.085 1.236c1.91-.352 3.6-1.113 5.215-3.339 0 0 .62-1.113 1.863-1.237 3.494-.348 31.167-4.946 47.061-10.635l-11.175-22.261z"/>
                <path fill="#638FFA" d="M224.415 306.92a2.43 2.43 0 0 0-1.082 2.893c.96 2.78 2.77 8.15 4.846 12.58 1.865 3.982 4.109 7.773 5.418 9.889a3.944 3.944 0 0 0 3.43 1.859c1.34-.023 2.928-.941 4.749-1.545 1.448-.481 3.036-.304 4.209-.816a3.419 3.419 0 0 0 1.755-4.528l-11.305-25.356c-.633-1.42-2.494-1.752-3.597-.654-1.304 1.3-2.982 2.785-4.473 3.528a68.34 68.34 0 0 0-3.95 2.15"/>
                <path fill="#C5CBD8" d="M285.174 351.1l-8.01-7.189s8.378 3.736 17.26 5.071c3.29.495 3.015-.647 2.608-.927-4.466-3.077-6.923-5.164-8.226-7.019-.596-.847.278-1.638 1.893-.896 1.614.742 8.196 3.771 17.217 4.75 5.436.589 9.392-1.005 10.536-1.473 1.144-.467 1.71-1.69 1.924-2.845.724-3.894.678-6.515.56-9.274.185.927 5.4 18.225 5.4 18.225l-34.643 7.235-6.52-5.658zM263.754 314.602s18.28-16.585 27.287-25.044c.58-.546.93.371.02 1.627-8.204 11.318-22.464 31.95-22.464 31.95l-4.843-8.533zM313.774 303.218c-.706 5.81-.888 7.678-1.826 13.378-.88 5.353-.585 9.273.14 8.255 1.55-2.18 2.048-7.606 4.004-8.116 1.027-.268 2.049 4.128 2.67 5.906-.146-1.202-1.198-7.138-2.018-13.048-1.072-7.734-1.977-15.846-2.248-17.496 0 0-.015 5.31-.722 11.12"/>
                <path fill="#5581EE" d="M325.126 441.025c-4.377-3.618-5.34-7.741-5.495-10.852-.085-1.72.28-3.803.412-4.781.04-.309-.277-.164-.598.421-1.118 2.04-1.576 3.069-2.235 6.03-.294 1.319-.186 3.524.155 5.012.188.82-.326 1.582-1.149 1.395a.457.457 0 0 0-.03-.008c-9.754-2.22-12.002-4.9-14.205-7.312-.125-.138-.355-.047-.356.138-.008 2.494.219 4.763.591 6.618.301 1.5 2.024 2.735 3.725 2.504 15.74-2.133 22.103 7.606 23.469 7.791 1.298.176-.966-4.148-4.284-6.956"/>
                <path fill="#2B2B51" d="M291.63 368.522l-.642.694a.516.516 0 0 0 .155.816l16.068 7.762a3.13 3.13 0 0 0 3.493-.526l1.695-1.882-20.768-6.864z"/>
                <path fill="#638FFA" d="M343.368 322.654s4.161-6.71 12.324-2.94c7.362 3.4 5.82 11.722 5.82 11.722s1.584-3.2 2.76-3.85c6.886-3.804 3.966-7.383 5.8-9.45 2.005-2.264 3.282-2.12 3.79-6.95.456-4.342-3.122-6.188-4.169-8.873-1.143-2.934-4.501-5.197-9.684-4.536-3.51.448-6.106 3.22-7.844 5.694-2.955 4.203-2.325 7.198-3.105 9.4-.618 1.747-5.692 9.783-5.692 9.783"/>
                <path fill="#FFAEAE" d="M356.976 318.961c-5.96-3.525-9.778-1.298-10.444-.211-.943 1.544-1.947 3.157-2.873 4.756-3.264 5.629-9.447 12.243-12.666 16.14-.365.441-.982.98-1.428 1.36l.01.018c-3.294 1.829-9.144 3.476-14.973 6.041-13.146 5.786-27.007 8.72-27.007 8.72l3.477 7.172c15.521-1.236 35.823-5.132 43.646-8.1a37.146 37.146 0 0 0 1.941-.788c3.03-1.347 5.236-3.072 12.122-9.508 6.053-5.658 10.188-10.577 12.99-14.144 1.767-2.247-.085-8.67-4.795-11.456"/>
                <path fill="#FFDEEB" d="M342.96 324.642s-.23-.938.388-2.126c.824-1.584 2.367-5.169 7.078-6.06 4.393-.83 7.568.856 9.561 2.783 2.727 2.636 3.255 6.395 3.178 7.923-.098 1.94-1.078 3.944-2.324 5.387-.863 1-1.475.791-1.475.791s.962-1.2 1.497-2.286c.923-1.87.862-8.29-5.038-10.981-5.449-2.485-9.621-.648-11.173 1.825-.864 1.377-1.692 2.744-1.692 2.744"/>
                <path fill="#E09595" d="M280.75 365.003c-3.846.01-1.901-3.813-.792-8.847 1.118-5.072 2.36-6.493 4.16-6.37 2.436.168 4.222.248 7.14 3.092 1.652 1.61 3.955 3.594 4.718 5.133.952 1.916 1.056 4.76-3.516 5.635-2.889.553-7.576 1.348-11.71 1.357M320.252 304.955c.963.371 5.758 3.618 5.758 3.618s-4.718-.835-5.758-3.618M332.11 308.248s6.567-5.518 7.218-5.843c.652-.325-1.692 4.606-7.217 5.843"/>
            </g>
        </g>
    </g>
</svg>
