<svg xmlns="http://www.w3.org/2000/svg" xmlns:xlink="http://www.w3.org/1999/xlink" width="373" height="560" viewBox="0 0 373 560">
    <defs>
        <rect id="a" width="373" height="560" rx="4"/>
        <path id="c" d="M.116.063h63.205V108.03H.116z"/>
        <path id="e" d="M.563 27.03c.476 25.143 4.044 43.758 19.982 43.758 14.19 0 28.783-11.604 29.26-41.523C50.106 10.216 40.085.106 25.896.106 11.708.107.251 10.532.563 27.032"/>
        <radialGradient id="f" cx="-144.711%" cy="98.687%" r="216.998%" fx="-144.711%" fy="98.687%" gradientTransform="matrix(.94844 -.22087 .31695 .66092 -.387 .015)">
            <stop offset="0%" stop-color="#FFE8E8"/>
            <stop offset="100%" stop-color="#FDACAC"/>
        </radialGradient>
        <path id="h" d="M.41.308h11.22v10.863H.41z"/>
        <path id="j" d="M13.418 2.274C8.331 5.418-.698 6.325.168 10.794c1.146 5.928 3.971 20.921 3.974 20.92l-.719 12.982c18.52-1.28 37.275-.478 55.823 2.705.244-4.346.486-8.697.729-13.053 0 .014 3.882-12.907 5.424-18.104.937-3.169-6.078-11.58-15.431-13.345-2.98-.571-5.55.045-8.023.662-2.37.59-4.65 1.18-7.12.727C29.695 3.37 25.095.295 20.04.296c-2.105 0-4.29.533-6.622 1.978"/>
        <linearGradient id="k" x1="50%" x2="50%" y1="0%" y2="100%">
            <stop offset="0%" stop-color="#1D6FCB"/>
            <stop offset="100%" stop-color="#3D3D68"/>
        </linearGradient>
    </defs>
    <g fill="none" fill-rule="evenodd">
        <mask id="b" fill="#fff">
            <use xlink:href="#a"/>
        </mask>
        <g mask="url(#b)">
            <path fill="#FFAEAE" d="M137.894 374.597l6.739 11.872s4.938 3.332 10.863.654c5.926-2.677 5.17-6.94 5.17-6.94l-4.749-8.452-18.023 2.866z"/>
            <path fill="#E86A46" d="M165.792 462.519l15.558 4.191 10.63-30.306-13.24-.807-10.242 2.058z"/>
            <path fill="#2B2B51" d="M194.291 447.004s12.983 8.835 15.425 37.974c3.793 1.406 5.641 4.338 6.495 6.344.514 1.208.667 2.081.667 2.081s3.386-32.114-14.989-49.076l-7.598 2.677z"/>
            <path fill="#42426C" d="M192.438 445.94c6.828.918 23.357 10.177 24.467 47.49l6.912-2.334s1.388-28.056-13.101-46.073c-.912-1.133-.5-2.391.805-2.78 0 0-15.863 3.142-19.083 3.698"/>
            <path fill="#E86A46" d="M180.517 448.732c0 7.206-5.124 13.497-11.445 14.05-6.321.552-11.445-4.841-11.445-12.049 0-7.207 5.124-13.497 11.445-14.05 6.32-.553 11.445 4.842 11.445 12.049"/>
            <path fill="#E86A46" d="M191.952 445.607c5.496 4.066 4.367 9.866 3.775 11.566-1.843 5.303-5.788 9.324-10.95 9.776-6.82.598-12.348-5.235-12.348-13.027 0-7.792 5.528-14.594 12.347-15.192 2.07 1.427 3.067 3.836 7.176 6.877"/>
            <path fill="#E86A46" d="M239.987 426.189l-56.473 12.188 1.472 2.433 56.547-12.644z"/>
            <path fill="#E86A46" d="M225.542 425.211l-56.859 11.509 13.185 1.883c1.566.241 3.164.165 4.7-.225l53.57-11.61-14.596-1.557z"/>
            <path fill="#2B2B51" d="M241.303 435.498l-56.276 13.904.042-8.633 56.234-12.722z"/>
            <path fill="#2B2B51" d="M196.338 453.837c0 5.783-4.058 10.755-9.992 11.538-6.107.808-11.38-4.577-11.38-11.39 0-6.815 4.801-12.257 10.713-13.328 4.177-.756 6.55 5.284 6.55 5.284s4.109 2.002 4.109 7.896"/>
            <path fill="#E86A46" d="M187.11 460.355a6.555 6.555 0 0 1-2.297-8.97 6.531 6.531 0 0 1 8.955-2.302c.12.072-.923-1.209-1.79-1.721a7.097 7.097 0 0 0-9.734 2.5c-1.808 3.061-.97 6.818 1.596 9.119 1.35 1.21 3.39 1.446 3.27 1.374"/>
            <g transform="translate(308.864 528.91)">
                <mask id="d" fill="#fff">
                    <use xlink:href="#c"/>
                </mask>
                <path fill="#42426C" d="M.116 8.807s15.179-1.673 22.657 8.73c6.274 8.729 8.017 16.061 8.54 32.298.523 16.236-1.66 20.852-1.046 31.6.697 12.22 4.706 21.822 10.108 24.267 5.403 2.444 10.207 2.851 14.989 1.745 2.265-.523 6.797-3.317 7.494-5.062.697-1.746 1.238-9.104-3.312-12.396-3.137-2.27-8.951-.886-12.025-3.317-3.311-2.619-6.623-7.333-6.623-16.76 0-7.158 4.357-24.267 3.66-44.17-.49-13.976-1.743-25.14-1.743-25.14s-9.585-1.746-22.83 1.047C6.738 4.443.115 8.807.115 8.807" mask="url(#d)"/>
            </g>
            <path fill="#2B2B51" d="M353.466 554.695c-.384-13.979-1.307-25.184-1.307-25.184s-10.065-1.746-23.31 1.048c-13.246 2.794-19.869 7.158-19.869 7.158s15.18-1.674 22.657 8.729c6.275 8.73 8.017 16.062 8.54 32.299.523 16.236-1.659 20.852-1.045 31.6.697-7.159 3.334-17.832 4.53-24.268 3.312-17.808 5.752-18.681 9.644-20.13.184-3.92.248-8.018.16-11.252"/>
            <path fill="#42426C" d="M362.543 540.83c0 2.754-.995 5.696-2.324 7.886-2.701 4.452-6.753 6.852-6.753 6.852V540.86s-15.729-9.821-4.604-13.735c7.556 0 13.68 6.136 13.68 13.705"/>
            <path fill="#2B2B51" d="M359.053 544.003c0 7.215-5.658 13.064-12.638 13.064-6.98 0-12.638-5.85-12.638-13.064s5.694-12.978 12.674-12.978c.81 0 1.012 1.067 1.757.83 1.366-.437 2.261-.188 3.032.138 4.593 1.941 7.813 6.592 7.813 12.01"/>
            <path fill="#42426C" d="M339.142 540.253a7.677 7.677 0 0 1 10.856.578 7.71 7.71 0 0 1-.577 10.875c-.123.11 1.679-.612 2.559-1.404 3.432-3.09 3.713-8.383.627-11.82-2.791-3.112-7.293-3.494-10.775-1.42-1.83 1.091-2.813 3.3-2.69 3.191M221.54 541.324s-15.178-1.674-22.656 8.73c-6.274 8.728-8.017 16.06-8.54 32.297-.523 16.237 1.659 20.853 1.046 31.6-.697 12.22-4.706 21.823-10.109 24.267-5.402 2.444-10.206 2.851-14.988 1.746-2.265-.524-6.797-3.317-7.494-5.063-.697-1.746-1.238-9.103 3.311-12.395 3.138-2.27 8.952-.887 12.026-3.318 3.311-2.618 6.623-7.332 6.623-16.76 0-7.158-4.357-24.267-3.66-44.17.49-13.975 1.743-25.14 1.743-25.14s9.585-1.745 22.83 1.048c13.246 2.793 19.869 7.158 19.869 7.158"/>
            <path fill="#2B2B51" d="M285.89 560.993c-.677-1.003-1.683-1.494-3.113-1.494h-23.029c-1.43 0-2.435.49-3.112 1.494-3.39 5.026-.844 11.946.408 13.034 1.034.897 1.885 1.182 3.432 1.182h21.574c1.547 0 2.398-.285 3.432-1.182 1.252-1.088 3.799-8.008.409-13.034"/>
            <path fill="#42426C" d="M278.612 579.244H263.65c-1.8 0-3.23-1.58-4.002-3.263-2.437-5.318-1.903-12.285-.164-16.491-.03-1.405-.03-4.053-.03-4.053l26.636-1.6s-3.033 2.793-3.033 5.699c1.797 4.182 2.212 11.023-.268 16.415-.727 1.582-2.379 3.293-4.178 3.293M355.69 515.644l-128.818-31.8V335.795a32.472 32.472 0 0 1 17.138-28.633l42.144-25.659 47.174 30.228c12.733 8.961 22.363 21.903 22.363 42.492v161.42z"/>
            <path fill="#E86A46" d="M348.246 513.799l-126.709-29.93V338.288a30.56 30.56 0 0 1 16.13-26.95l45.132-24.148 44.399 28.361c11.41 7.952 21.048 20.614 21.048 39.992v158.257z"/>
            <path fill="#FF7E59" d="M344.94 511.704l-124.17-29.33V339.708a29.948 29.948 0 0 1 15.807-26.41l44.228-23.665 43.51 27.751c11.563 8.562 20.625 20.202 20.625 39.191v155.129z"/>
            <path fill="#FF7E59" d="M317.415 312.983l-36.61-23.35L250.214 306c9.621 5.989 19.345 11.797 29.14 17.473 12.64-3.646 25.32-7.164 38.06-10.49"/>
            <path fill="#E86A46" d="M250.215 306l-13.638 7.298a29.948 29.948 0 0 0-15.807 26.41v1.509c19.467-6.11 38.976-12.086 58.586-17.744-9.797-5.676-19.52-11.484-29.141-17.472M329.743 321.84a67.692 67.692 0 0 0-5.428-4.456l-6.9-4.4c-12.74 3.325-25.42 6.843-38.059 10.489a1534.669 1534.669 0 0 0 25.182 14.26 2108.984 2108.984 0 0 1 25.205-15.893M344.94 399.259c-8.334.215-16.667.475-24.996.785-1.241 10.039-2.561 20.109-4.077 30.206a8345.87 8345.87 0 0 0 29.073 3.426V399.26z"/>
            <path fill="#FF7E59" d="M321.96 383.327c-.66 5.562-1.326 11.135-2.016 16.716 8.33-.308 16.662-.569 24.996-.785v-19.676a1758.614 1758.614 0 0 1-22.98 3.745M303.931 502.017l41.01 9.687V471.56c-11.473-2.93-22.954-5.595-34.402-8.178a4063.584 4063.584 0 0 1-6.608 38.635"/>
            <path fill="#E86A46" d="M315.867 430.25a742.277 742.277 0 0 1-1.832 11.62 2913.293 2913.293 0 0 1-3.497 21.512c11.45 2.583 22.93 5.248 34.402 8.178v-37.884a8345.87 8345.87 0 0 1-29.073-3.426"/>
            <path fill="#FF7E59" d="M344.94 359.685a4992.436 4992.436 0 0 1-18.844-10.15c-1.47 11.218-2.794 22.484-4.136 33.792a1758.614 1758.614 0 0 0 22.98-3.745v-19.897zM329.743 321.84a2108.984 2108.984 0 0 0-25.205 15.893c7.164 3.973 14.354 7.9 21.558 11.802 1.2-9.157 2.5-18.281 3.989-27.37-.116-.107-.226-.219-.342-.325"/>
            <path fill="#E86A46" d="M344.94 356.575c0-15.684-6.188-26.347-14.855-34.41-1.489 9.089-2.79 18.213-3.99 27.37a4992.407 4992.407 0 0 0 18.845 10.15v-3.11z"/>
            <path fill="#FF7E59" d="M272.904 557.678l-6.1-1.746.174-23.627 73.722-23.918 7.494 1.571-33.114 21.125z"/>
            <path fill="#E86A46" d="M245.019 555.38s11.372 3.287 15.641 4.466c2.664.735 5.665.742 8.54-.48 1.26-.536 3.181-1.485 3.66-1.702l-.777-.23a2.645 2.645 0 0 1-1.9-2.527c-.02-4.29-.067-14.18-.067-15.27 0-2.793 1.742-5.674 4.182-6.546 4.671-1.672 70.585-23.831 70.585-23.831s-.523-9.952-14.814-12.396c-14.292-2.444-29.628-5.063-29.628-5.063l-54.725 28.283-.697 35.295z"/>
            <path fill="#23478D" d="M108.498 572.227s6.39-.932 17.08-2.561c10.689-1.63 21.378-4.656 39.736-1.863 18.357 2.794 43.454 6.053 43.454 6.053l9.76-81.007-102.245 13.036-7.785 66.342z"/>
            <path fill="#2B2B51" d="M129.296 538.707c4.337 5.932 8.49 7.748 15.569 16.992 12.643 16.51 29.395 35.353 30.354 36.226.959.873 6.013 1.484 14.378-3.579 6.762-4.092 8.192-9.602 8.192-9.602.083-.841-7.495-21.648-13.42-35.615-8.279-19.513-16.5-20.252-17.893-25.606-.93-4.655 1.42-10.64 13.71-11.872 16.266-1.629 37.645-5.586 37.645-5.586l6.506-32.589-90.167 27.499c-10.057 3.067-16.052 13.356-13.814 23.645 1.188 5.461 4.837 14.475 8.94 20.087"/>
            <path fill="#2B2B51" d="M210.163 488.31s-11.942 11.2-17.08 16.061c-6.274 5.936-6.587 13.596-6.274 22.347.348 9.777 2.556 15.014 3.485 23.394.93 8.38 5.413 57.968 5.621 59.185.262 1.527 2.44 6.372 15.686 6.24 9.893-.097 12.678-4.495 13.027-6.59.367-2.206 8.54-48.127 8.54-48.127l-23.005-72.51z"/>
            <path fill="#42426C" d="M192.734 375.528l-10.108 14.84 23.354 30.028 6.1-27.758z"/>
            <path fill="#D2D8EE" d="M174.26 395.605s3.072-3.38 4.557-4.687c1.485-1.306 3.052-1.577 4.853-1.481 5.462.29 17.35 4.941 21.38 16.352 5.345 15.131-.464 21.416-3.718 24.908-3.594 3.858-4.485 4.533-9.063 5.12-6.797.874-8.772-3.374-8.772-3.374l-9.237-36.838z"/>
            <path fill="#42426C" d="M210.86 392.288s-6.536 23.307-6.013 31.164c.445 6.69 2.335 7.408 4.096 15.363a.61.61 0 0 1-.453.717c-6.4 1.46-11.233 2.692-13.316 3.91-2.005 1.172-4.224 4.336-6.667 6.832a10.678 10.678 0 0 1-4.513 2.752c-9.538 2.915-38.412 11.713-58.01 20.793-17.058 7.904-20.042 21.998-19.52 29.68.623 9.144 3.312 40.328 3.312 40.328l15.686-11.173 9.867-17.02a15.33 15.33 0 0 1 7.455-6.403c5.31-2.139 11.743-4.627 15.965-5.558 2.342-.516 13.63-2.777 25.271-5.15 3.982-.812 8.438-12.307 16.208-18.68 6.797-5.575 18.387-6.46 18.387-6.46s-9.287 7.31-10.544 11.086c-3.834 11.522-8.714 30.27-8.714 44.344 0 13.269-.348 38.758.174 38.932.523.175 49.845-4.015 49.845-4.015l6.874-25.567c1.626-6.05 5.151-10.223 10.206-14.413 4.78-3.964 11.328-8.729 19.17-13.617 11.944-7.445 17.064-11.158 20.275-19.845 4.648-12.57.747-18.615-.058-25.198-.338-2.775-.992-5.164-.57-7.928l8.762-57.541-103.175-7.333z"/>
            <path fill="#42426C" d="M328.442 381.348c.232 11.639-4.183 41.202-4.183 41.202l-39.155-6.867 2.905-15.248 40.433-19.087z"/>
            <path fill="#D2D8EE" d="M190.674 378.017a1.867 1.867 0 0 1-1.02-2.178c1.192-4.486 4.847-17.667 8.657-25.684 4.648-9.776 5.81-13.733 19.056-19.32 13.245-5.587 28.814-13.036 28.814-13.036l41.363 2.037s16.73 10.766 21.61 13.792c4.88 3.026 15.86 7.333 18.823 20.485 2.577 11.44 2.751 21.973 2.635 26.101a2.771 2.771 0 0 1-1.724 2.49 221.056 221.056 0 0 0-18.107 8.42c-15.208 7.95-19.287 13.502-28.35 15.364-11.21 2.303-26.955 2.328-43.221-.698-18.462-3.435-26.723-10.243-29.048-12.105-2.238-1.794-7.28-10.069-19.488-15.668"/>
            <path fill="#E09595" d="M281.27 318.44c3.137 10.474-8.627 28.631-23.964 28.631-6.274 0-12.316-3.608-12.026-6.376 2.963-21.44 2.179-42.457 2.179-42.457l32.94.735s-2.266 8.991.87 19.466"/>
            <path fill="#37375F" d="M290.332 467.36l-9.89-12.273-40.152 51.757a28.918 28.918 0 0 0-3.814 27.144l3.607 9.758c.524 1.415-.503 2.586-1.687 1.653l-20.1-15.306c-1.438-1.086-3.193.03-2.67 1.757 1.663 5.507 4.347 14.063 6.199 19.936a8.365 8.365 0 0 0 8.79 5.815l14.404-.505 5.492-18.338a33.203 33.203 0 0 1 10.566-15.997l26.932-25.256c10.689-10.709 9.79-20.88 2.323-30.145M159.505 498.436c3.834 0 34.159-2.328 34.159-2.328l6.274-23.743-41.222 21.172c-2.624 1.488-3.796 4.899.789 4.899M224.774 476.656c-.798 1.239-.581 3.011 1.888 1.891 12.416-5.634 41.711-20.265 41.711-20.265l-26.61 3.958a19.094 19.094 0 0 0-13.279 8.61l-3.71 5.806z"/>
            <path fill="#42426C" d="M250.454 353.36c-.174-.404-.553-.377-.592.04-.04.43-.018 8.896 1.355 9.158 1.4.267 4.184-6.27 5.033-8.205.195-.448-.284-.546-.493-.278-1.047 1.348-2.62 3.144-3.448 3.006-.82-.137-1.252-2.324-1.855-3.721"/>
            <path fill="#FFF" d="M256.522 342.706c-2.045 1.413-2.469 3.652-2.092 6.11.408 2.66 1.743 6.984 4.067 12.28 1.907 4.346 4.647 4.132 7.436 1.862 4.797-3.904 21.727-17.633 21.96-42.773 0 0-.943-4.948-4.706-9.777-.769-.984-1.714-2.299-3.486-2.182 0 0-.871 19.06-23.18 34.48"/>
            <path fill="#FFF" d="M252.862 349.98c-1.412 1.661-4.297 6.27-9.47 10.185-2.614 1.979-5.344.698-5.112-3.259.29-4.939-3.02-16.644 1.162-28.516 4.19-11.892 8.54-12.22 8.54-12.22s-1.55 7.505-.175 14.664c.872 4.54 3.306 8.683 5.635 11.523 1.466 1.787 2.092 4.481-.58 7.624"/>
            <path fill="#FF7E59" d="M265.976 485.407l16.281 4.386 11.125-31.716-13.856-.844-10.718 2.153z"/>
            <path fill="#2B2B51" d="M295.8 469.17s13.587 9.246 16.143 39.74c3.97 1.472 5.903 4.54 6.796 6.639.539 1.265.698 2.178.698 2.178s3.544-33.608-15.685-51.357l-7.952 2.8z"/>
            <path fill="#42426C" d="M293.861 468.058c7.146.96 24.444 10.65 25.605 49.698l7.233-2.444s1.453-29.36-13.71-48.214c-.954-1.186-.523-2.502.842-2.91 0 0-16.6 3.288-19.97 3.87"/>
            <path fill="#FF7E59" d="M281.386 470.979c0 7.542-5.362 14.125-11.977 14.703-6.615.58-11.977-5.066-11.977-12.609 0-7.542 5.362-14.125 11.977-14.703 6.615-.579 11.977 5.066 11.977 12.609"/>
            <path fill="#FF7E59" d="M293.353 467.709c5.751 4.255 4.57 10.324 3.95 12.104-1.93 5.549-6.056 9.757-11.46 10.23-7.136.626-12.92-5.478-12.92-13.632 0-8.155 5.784-15.273 12.92-15.899 2.166 1.493 3.21 4.015 7.51 7.197"/>
            <path fill="#FF7E59" d="M343.439 446.087l-58.916 14.056 1.54 2.546 58.994-14.534z"/>
            <path fill="#E86A46" d="M322.923 444.402l-58.031 13.218 17.908 2.76c1.639.252 3.31.171 4.918-.236l55.77-13.473-20.565-2.27z"/>
            <path fill="#42426C" d="M344.999 455.954l-58.893 15.727.043-9.035 58.85-14.49z"/>
            <path fill="#42426C" d="M297.943 476.321c0 6.053-4.247 11.255-10.457 12.076-6.39.844-11.91-4.79-11.91-11.921 0-7.132 5.026-12.827 11.213-13.947 4.37-.791 6.855 5.529 6.855 5.529s4.299 2.095 4.299 8.263"/>
            <path fill="#FF7E59" d="M288.285 483.143a6.86 6.86 0 0 1-2.403-9.388 6.835 6.835 0 0 1 9.37-2.408c.127.075-.965-1.265-1.872-1.803a7.429 7.429 0 0 0-10.186 2.618c-1.893 3.204-1.016 7.135 1.67 9.543 1.412 1.266 3.547 1.512 3.421 1.438"/>
            <g transform="translate(234 251)">
                <mask id="g" fill="#fff">
                    <use xlink:href="#e"/>
                </mask>
                <path fill="url(#f)" d="M.563 27.03c.476 25.143 4.044 43.758 19.982 43.758 14.19 0 28.783-11.604 29.26-41.523C50.106 10.216 40.085.106 25.896.106 11.708.107.251 10.532.563 27.032" mask="url(#g)"/>
            </g>
            <g>
                <path fill="#423748" d="M234.33 278.397h38.549a4.476 4.476 0 0 1 4.456 4.048l.214 2.227a8.36 8.36 0 0 0 2.653 5.345l7.91.015s2.879-7.15 2.454-20.725c-.433-13.864-11.455-23.028-28.183-22.361-9.444.376-28.843 3.856-29.615 29.833a1.568 1.568 0 0 0 1.563 1.618"/>
                <path fill="#FFAEAE" d="M288.323 289.669c-1.216 4.974-4.88 9.808-7.416 9.188-2.536-.62-2.044-7.001-.826-11.976 1.217-4.974 2.698-6.657 5.234-6.036 2.536.62 4.226 3.85 3.008 8.824"/>
                <path fill="#D2D8EE" d="M276.316 427.94s1.396-3.665 3.141-8.9c1.57-4.711 4.852-10.459 14.485-13.26 9.598-2.793 18.847-2.095 26.352 4.012 5.334 4.34 9.212 10.825 8.725 20.066-.349 6.631-4.188 13.96-8.202 16.751-1.748 1.217-8.9 3.141-8.9 3.141l-35.601-21.81z"/>
                <path fill="#2474CD" d="M246.3 440.793s16.055-7.91 36.298-17.449c11.592-5.462 24.898-7.212 33.507 2.094 5.102 5.515 6.05 10.47 2.56 17.216-2.436 4.71-3.24 7.284-8.842 8.608-12.798 3.024-34.438 6.282-51.846 7.938-2.318.22-4.232 1.078-6.617 1.834-1.41.446-5.06-20.241-5.06-20.241M147.35 395.31s.174 2.966 1.046 4.711c.627 1.254 6.69 19.136 12.972 26.348 3.404 3.908 15.823 11.632 23.85 10.294 5.679-.945 11.006-6.684 10.646-16.401-.349-9.423-5.41-14.134-14.31-21.811-8.9-7.678-15.706-14.483-15.706-14.483s-4.463-2.986-10.908.436c-5.584 2.967-7.59 10.906-7.59 10.906"/>
                <path fill="#FFF" d="M165.944 384.064c-.062-.061-7.192-10.242-7.426-10.638-.436-.741-1.25-.916-1.25-.916s.334.625.508.974c.32.67-.014 4.028-5.54 6.515-5.816 2.616-10.173.334-10.544-.32-.236-.417-.786-1.353-.786-1.353s-.29.611-.494 1.084c-.311.722-.044 1.352.37 2.312 0 0 5.49 11.731 6.585 13.826.854 1.634 7.141 3.293 13.006.089 5.627-3.075 6.5-10.011 5.57-11.573"/>
                <path fill="#2474CD" d="M150.07 386.965c-.045.5-.875.836-1.857.749-.98-.088-1.74-.564-1.695-1.064.044-.5.876-.836 1.856-.748.981.087 1.74.563 1.696 1.063M151.946 391.11c-.045.5-.875.835-1.857.748-.98-.088-1.74-.564-1.695-1.064.044-.5.876-.835 1.856-.748.981.087 1.74.563 1.696 1.063"/>
                <path fill="#FFAEAE" d="M223.001 450.623s-11.954 5.758-20.854 13.61c-8.9 7.852-10.82 9.247-13.787 17.797-1.093 3.152-2.278 5.093-2.792 7.212-.466 1.92-1.386 6.378-2.094 7.969-.93 2.094-1.745 3.49-.35 4.188 1.397.698 3.665-.64 4.887-2.909 1.222-2.268 2.094-5.641 2.094-5.641s.73 8.432.756 9.305c.059 1.978.238 3.474 1.57 3.316 3.433-.407 2.735-4.77 3.026-8.666.233 1.396.492 5.586.582 6.397.116 1.047 1.454 1.745 2.967.466 1.791-1.517 1.926-6.211 2.094-10.062.058-1.338 1.389-5.965 2.287-8.892.083-.268.48-.184.452.095l-.624 6.18c-.09.77-.018 2.4.211 3.14l2.211 8.085s.35 1.221 1.803.873c1.321-.317 1.727-1.827 1.513-3.84-.367-3.46-.418-5.217-.596-6.538a5.545 5.545 0 0 1 .072-1.895l1.746-7.445s4.188-2.036 8.376-6.049c3.16-3.028 5.427-6.653 6.35-8.249a4.03 4.03 0 0 1 1.294-1.369l3.263-1.724s1.31-3.285-1.221-8.898c-2.502-5.55-5.236-6.456-5.236-6.456"/>
                <path fill="#FFF" d="M246.3 440.793s-23.77 9.352-24.142 9.51c-.48.203-.436.974-.436.974s.545-.282.94-.468a.518.518 0 0 1 .501.034c1.13.708 2.99 2.375 4.638 6.235 1.778 4.17 1.805 7.065 1.61 8.583a.688.688 0 0 1-.36.524l-1.003.534s.509.334 1.09.19c.582-.147 22.222-5.294 25.091-6.855 1.538-5.462-1.69-17.371-7.93-19.261"/>
                <path fill="#2474CD" d="M237.82 460.153c.246.732-.377 1.6-1.39 1.94-1.013.34-2.032.022-2.277-.709-.245-.731.377-1.599 1.39-1.938 1.012-.34 2.032-.023 2.277.707M246.413 457.85c.246.732-.388 1.603-1.415 1.948-1.027.344-2.058.03-2.303-.7-.246-.73.388-1.602 1.415-1.947 1.027-.344 2.057-.03 2.303.7"/>
                <path fill="#D2D8EE" d="M199.85 562.324s1.191 1.425 7.823 1.541c19.775.347 43.164-4.304 43.164-4.304 2.086-.109 3.84 1.396 3.374 3.723 0 0-1.591 8.206-3.374 15.238-2.094 8.26-3.84 15.006-5.127 17.055-.769 1.223-1.25 2.378-3.863 3.127-2.035.584-8.753 2.176-18.7 2.618-16.511.733-19.996-.415-19.996-.415-3.157-.516-5.134-2.028-5.582-4.95 0 0-.832-5.686-1.297-14.875-.395-7.787-.32-14.134-.32-14.134-.136-2.145 1.75-4.512 3.897-4.624M109.392 536.383s9.366-3.519 15.91-6.834c1.488-.754 2.662-.054 2.56 1.396-.757 10.702-3.374 25.01-3.956 27.22-.302 1.148-1.047 4.595-3.607 6.515-1.8 1.35-7.33 4.565-10.326 6.369-1.262.76-2.577.134-2.353-1.323l1.318-8.567a18.24 18.24 0 0 0 .004-5.523l-1.674-14.978c-.272-1.788.466-3.549 2.124-4.275"/>
                <path fill="#B3BEE2" d="M108.345 550.364l.785 7.176s5.71-11.876 8.726-17.405c-4.297 2.312-8.232 7.146-9.511 10.23"/>
                <path fill="#2B2B51" d="M243.488 433.83c-.559 1.91-2.462 3.037-4.25 2.515-1.788-.523-2.786-2.496-2.227-4.408.558-1.912 2.46-3.038 4.25-2.515 1.788.522 2.785 2.495 2.227 4.407M247.444 415.682c-.56 1.912-2.462 3.038-4.25 2.516-1.788-.523-2.786-2.496-2.228-4.408.559-1.911 2.462-3.037 4.25-2.515 1.789.523 2.786 2.496 2.228 4.407"/>
                <path fill="#42426C" d="M262.794 370.885c-.174-.403-.553-.376-.592.04-.04.43-.019 8.892 1.356 9.154 1.401.266 4.19-6.268 5.04-8.201.195-.448-.285-.545-.493-.278-1.05 1.347-2.623 3.142-3.452 3.004-.822-.137-1.255-2.322-1.859-3.719M294.324 372.746c-.175-.403-.555-.375-.593.04-.04.43-.018 8.892 1.356 9.154 1.401.266 4.19-6.268 5.04-8.201.196-.448-.285-.545-.493-.278-1.05 1.347-2.624 3.142-3.453 3.004-.822-.137-1.254-2.322-1.857-3.719M289.783 411.16c-.074-.226-.268-.134-.313.1-.064.331-.965 4.053-.022 4.116.982.065 3.272-4.275 3.68-5.496.05-.15-.106-.295-.263-.117-1.345 1.534-2.12 2.67-2.544 2.734-.244.037-.371-.829-.538-1.338M183.029 390.926c.053-.231-.16-.253-.32-.076-.226.252-2.917 2.976-2.14 3.517.806.562 5.007-1.977 5.986-2.814.12-.103.062-.307-.165-.234-1.943.62-3.194 1.195-3.59 1.03-.227-.094.11-.901.229-1.423M326.489 427.59c.227-.067.28.065.145.262-.19.279-1.79 2.864-2.501 2.239-.739-.65.96-4.682 1.862-5.933.093-.128.27-.083.203.146-.407 1.396-.96 3.315-.843 3.577.1.225.64-.146 1.134-.29M203.456 420.145c.227-.067.279.065.145.262-.19.28-1.791 2.864-2.501 2.24-.739-.65.96-4.683 1.861-5.933.093-.13.27-.083.204.145-.407 1.396-.96 3.316-.844 3.577.1.225.64-.145 1.135-.29M311.184 409.038c-.032-.265-.37-.27-.409-.032-.04.245-.933 5.29.006 5.57.956.286 3.268-2.765 3.91-3.808.149-.241-.165-.327-.33-.207-.984.708-1.662 1.162-2.229 1.005-.561-.157-.863-1.816-.948-2.528M197.698 399.476c.087-.252-.214-.405-.354-.208-.144.203-3.157 4.347-2.437 5.01.735.676 4.15-1.053 5.185-1.71.24-.151-.005-.366-.206-.33-1.195.204-2.004.316-2.444-.074-.436-.387.02-2.01.256-2.688M242.784 387.694c-.175-.403-.555-.375-.594.04-.039.43-.017 8.892 1.357 9.153 1.401.267 4.19-6.267 5.04-8.2.196-.448-.285-.546-.493-.278-1.05 1.347-2.624 3.142-3.453 3.004-.821-.137-1.254-2.322-1.857-3.719M111.558 556.844c-.108-.301-.385-.233-.433.103-.049.347.246 5.895 1.233 5.939 1.004.045 2.157-5.883 2.43-7.63.066-.423-.302-.365-.42-.092-.692 1.617-1.414 3.431-1.9 3.459-.348.018-.538-.737-.91-1.779M117.607 540.326c-.107-.301-.384-.233-.432.103-.048.348.246 5.894 1.232 5.938 1.005.046 2.158-5.883 2.431-7.63.066-.422-.302-.365-.42-.09-.692 1.615-1.414 3.43-1.9 3.457-.349.02-.537-.736-.91-1.778M232.08 366.407c-.175-.404-.554-.376-.593.04-.04.429-.018 8.891 1.357 9.153 1.4.267 4.19-6.268 5.039-8.201.196-.447-.284-.545-.493-.278-1.05 1.347-2.623 3.142-3.453 3.004-.821-.137-1.253-2.322-1.857-3.718M204.506 355.937c-.174-.403-.554-.375-.592.04-.04.43-.018 8.892 1.356 9.154 1.401.266 4.19-6.268 5.04-8.201.196-.448-.285-.545-.493-.278-1.05 1.347-2.624 3.142-3.453 3.004-.822-.137-1.254-2.322-1.858-3.719M223.267 344.712c-.175-.403-.554-.376-.593.04-.04.43-.018 8.892 1.357 9.153 1.4.267 4.19-6.267 5.039-8.2.196-.448-.284-.546-.493-.278-1.05 1.347-2.623 3.142-3.453 3.004-.821-.137-1.253-2.322-1.857-3.719M213.64 378.04c-.175-.404-.554-.377-.593.04-.04.428-.019 8.891 1.356 9.153 1.401.266 4.19-6.268 5.04-8.201.195-.448-.285-.545-.493-.278-1.05 1.347-2.624 3.142-3.452 3.004-.822-.137-1.254-2.322-1.859-3.719M275.01 389.846c-.174-.403-.553-.375-.592.04-.04.43-.018 8.892 1.356 9.154 1.401.266 4.19-6.268 5.04-8.201.196-.448-.285-.545-.493-.278-1.05 1.347-2.623 3.142-3.452 3.004-.823-.137-1.255-2.322-1.859-3.719M281.526 354.425c-.175-.403-.554-.375-.593.04-.04.43-.018 8.892 1.357 9.154 1.4.266 4.19-6.268 5.038-8.201.197-.448-.283-.546-.492-.278-1.049 1.347-2.623 3.142-3.452 3.004-.822-.137-1.254-2.322-1.858-3.719M311.892 356.286c-.175-.403-.555-.375-.594.04-.039.43-.017 8.892 1.357 9.154 1.401.266 4.19-6.268 5.04-8.201.196-.448-.284-.545-.493-.278-1.05 1.347-2.624 3.142-3.453 3.004-.821-.137-1.254-2.322-1.857-3.719M298.192 339.128c-.174-.403-.554-.376-.593.04-.04.43-.018 8.892 1.357 9.154 1.4.266 4.19-6.268 5.04-8.201.195-.447-.285-.545-.494-.278-1.049 1.347-2.623 3.142-3.452 3.004-.822-.137-1.254-2.322-1.858-3.719M273.524 558.63l9.78-3.59a10.236 10.236 0 0 0 3.618-2.272c3.585-3.486 13.92-12.442 31.277-18.915 11.925-4.447 22.26-3.415 26.594-2.646a8.695 8.695 0 0 0 4.518-.393l7.107-2.675v-21.637l-78.904 26.916a6.312 6.312 0 0 0-4.272 6.066l.282 19.147z"/>
                <path fill="#E86A46" d="M312.275 504.813c.057.44.363.81.786.947l4.808 1.556a5.558 5.558 0 0 0 3.344.022l5.186-1.646a.94.94 0 0 0 .655-.955l-.129-2.06 6.166 2.618-4.014 8.55-15.648 5.293-8.26-12.622 6.857-3.81.25 2.107z"/>
                <path fill="#37375F" d="M208.58 430.813l2.845 4.716c1.23 2.03 1.105 3.17 4.363 2.88l11.378-1.426c.669-.086 1.217-.785.16-1.255l-17.791-5.754c-.721-.236-1.123.099-.955.839"/>
                <path fill="#FFF" d="M165.964 343.749c0 16.831-13.647 30.477-30.482 30.477S105 360.58 105 343.75c0-16.832 13.647-30.478 30.482-30.478s30.482 13.646 30.482 30.478"/>
                <path fill="#FFAEAE" d="M130.188 365.269s8.145-1.396 13.031.465c4.886 1.861 8.842 4.886 8.842 4.886s-12.1 2.326-21.873-5.351" opacity=".6"/>
                <path fill="#E09595" d="M119.776 372.306c-3.723-2.385-5.842-4.069-9.133-4.304-2.443-.174-3.316-1.745-2.56-3.082 1.024-1.812 4.654-2.792 7.97-1.92 1.624.428 3.49 2.385 4.537 2.908 1.334.667 7.33-1.745 11.693 2.618 3.702 3.701 1.57 8.55-4.363 7.852-3.535-.416-6.459-2.992-8.144-4.072"/>
                <path fill="#2474CD" d="M129.007 352.284c-.576.002-1.124.058-1.65.14-1.96.3-2.83 1.453-2.852 2.16-.018.623.622 1.437 1.984 1.19 1.508-.274 2.202-1.906 2.518-3.49m-8.913 8.365c-1.845-1.715-2.792-4.249-2.533-6.778.43-4.19 4.022-7.621 8.735-8.346a17.636 17.636 0 0 1 3.032-.208c.014-.679.031-1.396.048-2.142.074-3.162.157-6.747.157-9.556 0-5.342 3.026-10.427 8.633-11.264 3.229-.48 8.02.106 10.817 5.576.877 1.716.524 3.787-1.11 4.81-1.636 1.02-3.916.283-4.887-1.381-.814-1.396-1.897-2.438-3.723-2.094-2.202.415-2.75 2.692-2.75 4.353 0 2.89-.083 6.518-.158 9.718-.03 1.337-.061 2.633-.082 3.761 2.246 1.165 4.383 2.902 6.436 5.22.775.875 2.985 2.322 5.454.446 1.454-1.105 3.433-1.105 4.712 0 1.46 1.26 1.105 3.432.291 4.594-.671.96-2.772 3.78-7.225 3.854-2.118.023-5.28-.676-8.459-4.268a20.6 20.6 0 0 0-1.954-1.949c-1.223 4.22-3.938 7.123-7.825 7.652-3.448.47-6.08-.575-7.61-1.998"/>
                <path fill="#2474CD" d="M120.664 342.992c-1.926-.055-3.444-1.486-3.388-3.412.055-1.927 1.674-3.219 3.589-3.16.536.015 26.383-.023 26.45-.025a3.49 3.49 0 1 1 .245 6.975c-.189.006-26.291-.36-26.896-.378"/>
                <path fill="#FFAEAE" d="M118.554 359.54c3.488-.147 11.693 1.047 14.122 3.254l3.296 3.659c.511.449 1.12.77 1.779.939l5.853 1.67c.628.16 1.286.156 1.913-.013l3.6-.594c3.452-.927 6.71-.034 7.743 3.386a.643.643 0 0 1-.42.799s-4.582 2.14-12.843 4.261c-6.457 1.658-13.477.829-15.008.437-3.403-.873-10.013-3.832-10.013-3.832-1.048-.464-2.552-1.403-3.25-2.712 0 0-2.007-3.838-3.49-6.805-1.484-2.966.523-4.187 6.718-4.45"/>
                <path fill="#B3BEE2" d="M285.21 399.287l3.671-16.715-16.404 23.818 6.159-1.034a8.174 8.174 0 0 0 6.574-6.07"/>
                <path fill="#37375F" d="M116.416 531.634a6.628 6.628 0 0 0 2.222-8.827l-7.879-14.08c-.613-1.146-1.542-.08-1.513 1.22l.582 25.884 6.588-4.197z"/>
                <path fill="#E86A46" d="M264.348 213.28c.744-.055 2.924.12 5.258.875 4.01 1.247 16.37 4.678 14.747 14.673-.163 1.001-.53 2.189-.53 2.188 0 0-2.682.604-5.269 2.34-2.486 1.667-4.005 3.778-4.118 3.938-.014-.17-.232-2.425-1.621-4.414-1.382-1.977-3.416-2.955-3.596-3.038l.01-.037s.251-.988.48-2.26c1.205-6.696.634-8.085-2.232-11.106-1.411-1.486-2.86-2.312-4.018-2.68-.439-.14.04-.416.889-.478"/>
                <path fill="#E86A46" d="M230.961 228.309c-1.871-12.541 22.776-14.945 27.867-15.14 1.86-.13 5.614-.272 5.686.363.065.578-1.866.335-4.883 1.108-5.642 1.406-16.555 3.793-15.367 13.45.155 1.255.324 2.432.324 2.432a.824.824 0 0 1 .008.04c-.17.077-2.09.984-3.48 3.053-1.4 2.082-1.747 4.56-1.772 4.747-.093-.186-1.33-2.642-3.48-4.712-2.235-2.154-4.63-3.089-4.63-3.088 0 0-.123-1.258-.273-2.253"/>
                <g transform="translate(259.97 193)">
                    <mask id="i" fill="#fff">
                        <use xlink:href="#h"/>
                    </mask>
                    <path fill="#FF7E59" d="M9.107 7.583c1.3 1.411 1.588 3.22 1.588 3.22s-1.823-.486-3.123-1.896C6.484 7.729 6.109 6.29 6.014 5.844c-.146.432-.685 1.821-1.9 2.872C2.656 9.973.79 10.255.79 10.255s.493-1.764 1.95-3.023C3.956 6.181 5.444 5.82 5.905 5.727c-.448-.142-1.884-.663-2.972-1.838C1.634 2.48 1.348.677 1.348.677s1.82.478 3.121 1.884c1.088 1.176 1.462 2.615 1.558 3.062.146-.433.685-1.822 1.901-2.873 1.455-1.257 3.32-1.535 3.32-1.535S10.755 2.98 9.3 4.237C8.084 5.287 6.596 5.648 6.135 5.74c.447.141 1.885.663 2.972 1.843M11.155.834L1.485.31a.5.5 0 0 0-.532.459L.41 10.122a.492.492 0 0 0 .475.513c3.224.168 6.449.346 9.673.535a.495.495 0 0 0 .531-.457l.54-9.364a.494.494 0 0 0-.474-.515" mask="url(#i)"/>
                </g>
            </g>
            <g transform="translate(230 218)">
                <mask id="l" fill="#fff">
                    <use xlink:href="#j"/>
                </mask>
                <path fill="url(#k)" d="M13.418 2.274C8.331 5.418-.698 6.325.168 10.794c1.146 5.928 3.971 20.921 3.974 20.92l-.719 12.982c18.52-1.28 37.275-.478 55.823 2.705.244-4.346.486-8.697.729-13.053 0 .014 3.882-12.907 5.424-18.104.937-3.169-6.078-11.58-15.431-13.345-2.98-.571-5.55.045-8.023.662-2.37.59-4.65 1.18-7.12.727C29.695 3.37 25.095.295 20.04.296c-2.105 0-4.29.533-6.622 1.978" mask="url(#l)"/>
            </g>
            <g>
                <path fill="#D2D8EE" d="M289.179 272.273c-18.595-3.31-37.41-4.063-55.967-2.55-1.755.145-3.096-1.156-2.998-2.935l.006-.11c.099-1.778 1.6-3.335 3.357-3.452 18.566-1.268 37.367-.472 55.963 2.682 1.758.296 3.103 1.97 3.005 3.706-.002.036-.005.073-.006.11-.099 1.736-1.6 2.862-3.36 2.549"/>
                <path fill="#E86A46" d="M263.69 262.344a878.77 878.77 0 0 0-6.025-6.435 607.721 607.721 0 0 1 6.74-5.866 796.996 796.996 0 0 1 6.025 6.592 632.417 632.417 0 0 0-6.74 5.71"/>
                <path fill="#FFF" d="M266.416 256.339c-.073 1.26-1.193 2.21-2.501 2.136-1.308-.073-2.31-1.144-2.236-2.405.074-1.261 1.194-2.234 2.502-2.158 1.308.074 2.308 1.167 2.235 2.427"/>
                <path fill="#E86A46" d="M274.765 263.22a703.746 703.746 0 0 0-5.703-6.694c2.139-1.895 4.277-3.77 6.414-5.63a657.841 657.841 0 0 1 5.698 6.841 1026.992 1026.992 0 0 0-6.409 5.483"/>
                <path fill="#FFF" d="M277.367 257.294c-.072 1.265-1.137 2.177-2.378 2.052-1.242-.127-2.189-1.24-2.115-2.5.072-1.262 1.137-2.196 2.379-2.073 1.24.122 2.187 1.257 2.114 2.521"/>
                <path fill="#E86A46" d="M284.821 264.475a630.017 630.017 0 0 0-5.118-6.915c1.943-1.844 3.885-3.678 5.826-5.507a608.027 608.027 0 0 1 4.447 6.118c.366.51.324 1.236-.092 1.62a2742.981 2742.981 0 0 0-5.063 4.684"/>
                <path fill="#FFF" d="M287.202 258.56c-.072 1.276-1.038 2.172-2.159 2.01-1.12-.16-1.97-1.31-1.897-2.58.072-1.27 1.04-2.182 2.16-2.028 1.12.153 1.969 1.322 1.896 2.598"/>
                <path fill="#E86A46" d="M238.581 249.674c1.616 2.05 3.233 4.097 4.853 6.147a489.025 489.025 0 0 0-5.571 6.461c-1.411-1.76-2.821-3.522-4.23-5.287-.34-.424-.298-1.148.091-1.612a477.091 477.091 0 0 1 4.857-5.709"/>
                <path fill="#FFF" d="M236.29 256.057c.074-1.297.998-2.384 2.065-2.421 1.067-.036 1.873.983 1.8 2.27-.074 1.287-1 2.362-2.066 2.408-1.068.047-1.872-.96-1.799-2.257"/>
                <path fill="#FF7E59" d="M290.53 252.078c-18.751-2.834-37.677-3.713-56.414-2.937a.465.465 0 0 0-.436.43l-.032.574a.365.365 0 0 0 .389.394c18.735-.826 37.664.047 56.415 2.917a.367.367 0 0 0 .436-.344l.032-.564a.463.463 0 0 0-.39-.47M289.823 264.567c-18.747-3.162-37.701-3.97-56.422-2.726a.481.481 0 0 0-.435.442l-.032.575c-.013.23.16.401.388.385 18.718-1.297 37.675-.497 56.423 2.7.228.038.423-.111.435-.335l.032-.564a.472.472 0 0 0-.389-.477"/>
                <path fill="#FF7E59" d="M258.517 255.925c-.199 3.413-3.907 6.048-8.275 6.054-4.37.004-7.742-2.678-7.542-6.155.199-3.472 3.896-6.342 8.265-6.28 4.368.055 7.75 2.972 7.552 6.381"/>
                <path fill="#2474CD" d="M256.597 255.863c-.148 2.548-2.954 4.535-6.264 4.533-3.309-.002-5.867-2.025-5.718-4.608.149-2.582 2.949-4.704 6.258-4.664 3.308.036 5.873 2.194 5.724 4.74"/>
                <path fill="#FF7E59" d="M263.514 213.767c-.799-.147-3.18-.217-5.799.326-4.5.879-18.532 3.313-18.018 14.427.05 1.112.299 2.451.299 2.451.904 5.22 1.807 10.423 2.711 15.612l.036-.001c.059-.285.592-2.69 2.3-4.706 1.75-2.066 4.09-2.95 4.268-3.013-.203-.073-2.864-1.03-5.334-3.11-2.57-2.162-3.95-4.748-3.95-4.749 0-.001 2.78.93 5.35 3.108 2.47 2.092 3.842 4.553 3.944 4.74.037-.184.554-2.618 2.305-4.627 1.739-1.998 4.061-2.831 4.267-2.9l-.007-.04s-.147-1.1-.234-2.507c-.457-7.399.598-9.03 4.078-11.962 1.714-1.444 3.387-2.164 4.687-2.427.492-.099.01-.453-.903-.622M296.247 232.474c3.247-12.16-20.8-17.418-25.823-18.134-1.834-.334-5.549-.889-5.692-.267-.132.566 1.813.54 4.723 1.64 5.443 2.012 15.8 5.604 13.517 15.01-.297 1.22-.601 2.365-.601 2.365a.616.616 0 0 0-.012.038c.161.095 1.975 1.204 3.13 3.398 1.162 2.207 1.23 4.683 1.234 4.87.114-.173 1.632-2.451 4.016-4.241 2.48-1.863 4.954-2.468 4.954-2.467-.001.001-1.546 2.414-4.025 4.262-2.384 1.777-4.76 2.41-4.94 2.458.14.085 1.969 1.24 3.13 3.49 1.133 2.197 1.223 4.634 1.23 4.922l.03.005a4351.08 4351.08 0 0 0 4.605-15.166s.263-1.223.524-2.183"/>
                <path fill="#FF7E59" d="M270.077 209.661c-.164 2.84-2.679 4.99-5.617 4.827-2.938-.164-5.186-2.579-5.02-5.418.165-2.84 2.68-5.016 5.617-4.854 2.937.162 5.183 2.605 5.02 5.445"/>
                <path fill="#FF7E59" d="M265.162 215.746c-.525-.03-1.05-.058-1.576-.087-.625-.035-1.105-.552-1.069-1.155l.088-1.521c.036-.605.57-1.068 1.197-1.033l1.576.087c.625.035 1.104.555 1.069 1.16l-.088 1.52c-.036.605-.572 1.065-1.197 1.03"/>
                <path fill="#42426C" d="M266.011 201.14l-1.574-.088c-.626-.034-1.104-.55-1.069-1.155l.088-1.52c.035-.605.57-1.068 1.196-1.033l1.575.086c.625.033 1.104.552 1.068 1.157l-.087 1.521c-.035.604-.571 1.066-1.197 1.031"/>
                <path fill="#FF7E59" d="M270.94 243.38c-.66.443-1.314 1.218-1.419 3.021-.014.25-.429-.995-.649-1.363h-.002c-1.067-2.034-.089-4.518 2.172-5.268 1.658-.55 3.575.098 4.572 1.546.577.836.78 1.771.672 2.645-.046.38-.528.493-.786.193-1.145-1.33-3.022-1.808-4.56-.774"/>
                <path fill="#FF7E59" d="M266.063 243.04c.602.53 1.162 1.39 1.058 3.193-.015.248.541-.927.801-1.261h.003c1.293-1.869.61-4.47-1.547-5.525-1.58-.774-3.553-.396-4.708.9a3.728 3.728 0 0 0-.97 2.524c.002.382.466.562.756.301 1.288-1.158 3.201-1.371 4.607-.132"/>
                <path fill="#FF7E59" d="M270.805 238.067c-.14 2.406-1.223 3.504-2.215 3.436-.991-.07-1.939-1.308-1.799-3.713.096-1.643 1.205-3.754 1.796-4.49.371-.46.613-.429.953.065.542.788 1.36 3.057 1.265 4.702"/>
                <path fill="#FF7E59" d="M269.333 249.734c-.81-.061-1.62-.118-2.43-.172l.501-8.63c.81.054 1.62.11 2.429.169l-.5 8.633"/>
                <path fill="#2474CD" d="M270.226 242.102c-.052.897-.848 1.568-1.777 1.502-.93-.065-1.642-.84-1.59-1.736.052-.897.848-1.576 1.778-1.51.93.063 1.64.847 1.59 1.744"/>
                <path fill="#E86A46" d="M240.398 242.535c-.16-.891-.47-1.814-.92-2.602-.545-.952-1.193-1.476-1.738-1.47l-.667.009s-.13.54-.195.678a13.218 13.218 0 0 0-.285-2.082c-.35-1.679-1.252-3.926-1.678-4.69-.146-.26-.244-.36-.316-.363-.263-.007-.652.004-.652.004 0 .001.458 3.397.807 5.08.175.84.373 1.52.577 2.067a2.91 2.91 0 0 0-.365-.348c-.275-.209-.542-.303-.784-.29-.2.01-.665.014-.665.014s-.34.917-.428 1.517c-.12.806-.283 1.972-.206 3.063.143-.004.535-.009.65-.02.06-.007.11-.04.135-.146.298-1.263 1.098-1.61 2.016-.455.351.44.747 1.151 1.102 2.6l.826 3.954c.37-.012.741-.023 1.113-.032a3812.21 3812.21 0 0 1-.73-3.49c-.358-1.761-.258-2.586-.077-3.083.167-.456.408-.69.69-.734.446-.068 1.01 1.24 1.01 1.24s.618-.003.673-.01c.094-.01.151-.165.107-.41"/>
                <path fill="#FF7E59" d="M239.734 242.544c-.16-.892-.47-1.815-.92-2.603-.781-1.365-1.775-1.85-2.374-1.15-.088.102-.16.232-.226.37a13.147 13.147 0 0 0-.285-2.083c-.35-1.68-1.25-3.93-1.677-4.693-.268-.48-.383-.495-.437.005-.085.797-.074 3.037.276 4.722.175.84.374 1.521.577 2.068a2.952 2.952 0 0 0-.364-.347c-.885-.671-1.672-.152-1.877 1.245-.12.807-.044 1.742.17 2.64.092.391.341.544.409.26.298-1.265 1.098-1.614 2.015-.46.35.44.748 1.152 1.102 2.6.275 1.321.55 2.64.826 3.957l1.113-.034-.731-3.492c-.357-1.762-.258-2.588-.076-3.085.43-1.183 1.366-.873 2.182.355.184.277.367.114.297-.275"/>
                <path fill="#2474CD" d="M236.636 241.23c.191.914 0 1.598-.425 1.674-.607.107-1.548-.141-1.804-1.261-.244-1.067.487-1.995 1.112-2.057.427-.042.926.728 1.117 1.643"/>
                <path fill="#FF7E59" d="M291.032 249.81a291.732 291.732 0 0 0-13.229-1.661c.413-.121 2.649-.815 4.892-2.496 2.39-1.79 3.907-4.062 4.02-4.237.004.19.072 2.655 1.234 4.892 1.091 2.1 2.768 3.29 3.083 3.503M283.579 237.97c1.162 2.195 2.99 3.347 3.13 3.434-.18.045-2.555.687-4.944 2.49-2.281 1.72-3.771 3.88-4 4.224 1.526-4.97 3.053-9.948 4.579-14.945.012.371.123 2.7 1.235 4.798"/>
                <path fill="#2474CD" d="M288.21 236.894c-2.195-.262-4.37 1.581-5.127 4.055-.757 2.475.41 4.673 2.604 4.95 2.195.276 4.585-1.48 5.342-3.968.757-2.488-.626-4.775-2.82-5.037"/>
                <path fill="#FF7E59" d="M242.81 246.581a318.8 318.8 0 0 1 15.741.216c-.462-.18-2.955-1.194-5.279-3.173-2.474-2.108-3.845-4.561-3.947-4.75-.037.187-.554 2.609-2.305 4.66-1.644 1.925-3.806 2.879-4.21 3.047M253.604 235.92c-1.752 1.997-4.09 2.877-4.269 2.943.202.07 2.864 1.034 5.338 3.158 2.363 2.024 3.722 4.378 3.93 4.751-.901-5.131-1.802-10.264-2.702-15.4-.078.364-.625 2.64-2.297 4.548"/>
                <path fill="#2474CD" d="M248.378 234.208c2.61.047 4.83 2.171 5.277 4.719.446 2.549-1.31 4.55-3.922 4.517-2.613-.033-5.09-2.098-5.534-4.659-.446-2.56 1.568-4.626 4.179-4.577"/>
                <path fill="#FF7E59" d="M243.784 247.67c-.043.753-.701 1.37-1.468 1.383-.768.012-1.355-.588-1.31-1.345.042-.757.7-1.38 1.467-1.388.768-.01 1.355.597 1.311 1.35M260.168 247.95c-.043.742-.702 1.317-1.47 1.287-.77-.029-1.36-.652-1.316-1.396.043-.743.702-1.325 1.471-1.294.77.03 1.359.66 1.315 1.403M279.05 249.373c-.042.745-.7 1.282-1.468 1.201-.769-.08-1.357-.744-1.314-1.488.042-.743.7-1.287 1.469-1.208.769.079 1.356.75 1.314 1.495M291.664 251.017c-.043.756-.698 1.272-1.464 1.157-.766-.115-1.353-.815-1.31-1.568.042-.752.698-1.275 1.465-1.164.766.112 1.353.82 1.31 1.575"/>
            </g>
        </g>
    </g>
</svg>
