<svg xmlns="http://www.w3.org/2000/svg" xmlns:xlink="http://www.w3.org/1999/xlink" width="373" height="560" viewBox="0 0 373 560">
    <defs>
        <rect id="a" width="373" height="560" rx="4"/>
        <path id="c" d="M121.14 80.489c-20.13 0-51.763 2.874-79.083 23.703-60.28 45.96-37.504 120.786-37.504 120.786 87.71-.478 121.26 50.757 121.26 50.757L295.48 260.89c39.78-58.897 124.375-56.144 124.375-56.144C448.253 125.02 388.582 87.672 362.7 79.77c-26.492-8.088-61.828-5.746-75.487-1.436C269.239 34.52 219.633.045 195.908.045c-20.13 4.31-54.638 35.912-74.768 80.444z"/>
        <path id="e" d="M121.14 80.489c-20.13 0-51.763 2.874-79.083 23.703-60.28 45.96-37.504 120.786-37.504 120.786 87.71-.478 121.26 50.757 121.26 50.757L295.48 260.89c39.78-58.897 124.375-56.144 124.375-56.144C448.253 125.02 388.582 87.672 362.7 79.77c-26.492-8.088-61.828-5.746-75.487-1.436C269.239 34.52 219.633.045 195.908.045c-20.13 4.31-54.638 35.912-74.768 80.444z"/>
        <path id="g" d="M23.049.045C15.129 8.95 7.367 19.485.476 31.285v122.826H83.58V.045H23.049z"/>
        <path id="i" d="M23.049.045C15.129 8.95 7.367 19.485.476 31.285v122.826H83.58V.045H23.049z"/>
        <path id="k" d="M23.049.045C15.129 8.95 7.367 19.485.476 31.285v122.826H83.58V.045H23.049z"/>
        <path id="m" d="M23.049.045C15.129 8.95 7.367 19.485.476 31.285v122.826H83.58V.045H23.049z"/>
        <path id="o" d="M23.049.045C15.129 8.95 7.367 19.485.476 31.285v122.826H83.58V.045H23.049z"/>
        <path id="q" d="M23.049.045C15.129 8.95 7.367 19.485.476 31.285v122.826H83.58V.045H23.049z"/>
        <path id="s" d="M23.049.045C15.129 8.95 7.367 19.485.476 31.285v122.826H83.58V.045H23.049z"/>
        <path id="u" d="M23.049.045C15.129 8.95 7.367 19.485.476 31.285v122.826H83.58V.045H23.049z"/>
        <path id="w" d="M.117 22.322v75.405H77.05V.045C57.38.067 26.882 2.863.117 22.322z"/>
        <path id="y" d="M.117 22.322v75.405H77.05V.045C57.38.067 26.882 2.863.117 22.322z"/>
        <path id="A" d="M.117 22.322v75.405H77.05V.045C57.38.067 26.882 2.863.117 22.322z"/>
        <path id="C" d="M.117 22.322v75.405H77.05V.045C57.38.067 26.882 2.863.117 22.322z"/>
        <path id="E" d="M.117 22.322v75.405H77.05V.045C57.38.067 26.882 2.863.117 22.322z"/>
        <path id="G" d="M.117 22.322v75.405H77.05V.045C57.38.067 26.882 2.863.117 22.322z"/>
        <path id="I" d="M.117 22.322v75.405H77.05V.045C57.38.067 26.882 2.863.117 22.322z"/>
        <path id="K" d="M.117 22.322v75.405H77.05V.045C57.38.067 26.882 2.863.117 22.322z"/>
        <path id="M" d="M.5 75.103h34.133V.47C9.176 23.56 1.656 52.22.5 75.103z"/>
        <path id="O" d="M.5 75.103h34.133V.47C9.176 23.56 1.656 52.22.5 75.103z"/>
        <path id="Q" d="M.5 75.103h34.133V.47C9.176 23.56 1.656 52.22.5 75.103z"/>
        <path id="S" d="M.5 75.103h34.133V.47C9.176 23.56 1.656 52.22.5 75.103z"/>
        <path id="U" d="M.5 75.103h34.133V.47C9.176 23.56 1.656 52.22.5 75.103z"/>
        <path id="W" d="M.5 75.103h34.133V.47C9.176 23.56 1.656 52.22.5 75.103z"/>
        <path id="Y" d="M.5 75.103h34.133V.47C9.176 23.56 1.656 52.22.5 75.103z"/>
        <path id="aa" d="M.5 75.103h34.133V.47C9.176 23.56 1.656 52.22.5 75.103z"/>
        <path id="ac" d="M121.14 80.489c-20.13 0-51.763 2.874-79.083 23.703-60.28 45.96-37.504 120.786-37.504 120.786 87.71-.478 121.26 50.757 121.26 50.757L295.48 260.89c39.78-58.897 124.375-56.144 124.375-56.144C448.253 125.02 388.582 87.672 362.7 79.77c-26.492-8.088-61.828-5.746-75.487-1.436C269.239 34.52 219.633.045 195.908.045c-20.13 4.31-54.638 35.912-74.768 80.444"/>
        <path id="ad" d="M121.14 80.489c-20.13 0-51.763 2.874-79.083 23.703-60.28 45.96-37.504 120.786-37.504 120.786 87.71-.478 121.26 50.757 121.26 50.757L295.48 260.89c39.78-58.897 124.375-56.144 124.375-56.144C448.253 125.02 388.582 87.672 362.7 79.77c-26.492-8.088-61.828-5.746-75.487-1.436C269.239 34.52 219.633.045 195.908.045c-20.13 4.31-54.638 35.912-74.768 80.444"/>
        <path id="ae" d="M121.14 80.489c-20.13 0-51.763 2.874-79.083 23.703-60.28 45.96-37.504 120.786-37.504 120.786 87.71-.478 121.26 50.757 121.26 50.757L295.48 260.89c39.78-58.897 124.375-56.144 124.375-56.144C448.253 125.02 388.582 87.672 362.7 79.77c-26.492-8.088-61.828-5.746-75.487-1.436C269.239 34.52 219.633.045 195.908.045c-20.13 4.31-54.638 35.912-74.768 80.444"/>
        <path id="af" d="M121.14 80.489c-20.13 0-51.763 2.874-79.083 23.703-60.28 45.96-37.504 120.786-37.504 120.786 87.71-.478 121.26 50.757 121.26 50.757L295.48 260.89c39.78-58.897 124.375-56.144 124.375-56.144C448.253 125.02 388.582 87.672 362.7 79.77c-26.492-8.088-61.828-5.746-75.487-1.436C269.239 34.52 219.633.045 195.908.045c-20.13 4.31-54.638 35.912-74.768 80.444"/>
        <path id="ag" d="M121.14 80.489c-20.13 0-51.763 2.874-79.083 23.703-60.28 45.96-37.504 120.786-37.504 120.786 87.71-.478 121.26 50.757 121.26 50.757L295.48 260.89c39.78-58.897 124.375-56.144 124.375-56.144C448.253 125.02 388.582 87.672 362.7 79.77c-26.492-8.088-61.828-5.746-75.487-1.436C269.239 34.52 219.633.045 195.908.045c-20.13 4.31-54.638 35.912-74.768 80.444"/>
        <path id="ah" d="M121.14 80.489c-20.13 0-51.763 2.874-79.083 23.703-60.28 45.96-37.504 120.786-37.504 120.786 87.71-.478 121.26 50.757 121.26 50.757L295.48 260.89c39.78-58.897 124.375-56.144 124.375-56.144C448.253 125.02 388.582 87.672 362.7 79.77c-26.492-8.088-61.828-5.746-75.487-1.436C269.239 34.52 219.633.045 195.908.045c-20.13 4.31-54.638 35.912-74.768 80.444"/>
        <path id="aj" d="M121.14 80.489c-20.13 0-51.763 2.874-79.083 23.703-60.28 45.96-37.504 120.786-37.504 120.786 87.71-.478 121.26 50.757 121.26 50.757L295.48 260.89c39.78-58.897 124.375-56.144 124.375-56.144C448.253 125.02 388.582 87.672 362.7 79.77c-26.492-8.088-61.828-5.746-75.487-1.436C269.239 34.52 219.633.045 195.908.045c-20.13 4.31-54.638 35.912-74.768 80.444"/>
        <path id="al" d="M121.14 80.489c-20.13 0-51.763 2.874-79.083 23.703-60.28 45.96-37.504 120.786-37.504 120.786 87.71-.478 121.26 50.757 121.26 50.757L295.48 260.89c39.78-58.897 124.375-56.144 124.375-56.144C448.253 125.02 388.582 87.672 362.7 79.77c-26.492-8.088-61.828-5.746-75.487-1.436C269.239 34.52 219.633.045 195.908.045c-20.13 4.31-54.638 35.912-74.768 80.444"/>
        <path id="an" d="M121.14 80.489c-20.13 0-51.763 2.874-79.083 23.703-60.28 45.96-37.504 120.786-37.504 120.786 87.71-.478 121.26 50.757 121.26 50.757L295.48 260.89c39.78-58.897 124.375-56.144 124.375-56.144C448.253 125.02 388.582 87.672 362.7 79.77c-26.492-8.088-61.828-5.746-75.487-1.436C269.239 34.52 219.633.045 195.908.045c-20.13 4.31-54.638 35.912-74.768 80.444"/>
        <path id="ap" d="M121.14 80.489c-20.13 0-51.763 2.874-79.083 23.703-60.28 45.96-37.504 120.786-37.504 120.786 87.71-.478 121.26 50.757 121.26 50.757L295.48 260.89c39.78-58.897 124.375-56.144 124.375-56.144C448.253 125.02 388.582 87.672 362.7 79.77c-26.492-8.088-61.828-5.746-75.487-1.436C269.239 34.52 219.633.045 195.908.045c-20.13 4.31-54.638 35.912-74.768 80.444z"/>
        <path id="aq" d="M121.14 80.489c-20.13 0-51.763 2.874-79.083 23.703-60.28 45.96-37.504 120.786-37.504 120.786 87.71-.478 121.26 50.757 121.26 50.757L295.48 260.89c39.78-58.897 124.375-56.144 124.375-56.144C448.253 125.02 388.582 87.672 362.7 79.77c-26.492-8.088-61.828-5.746-75.487-1.436C269.239 34.52 219.633.045 195.908.045c-20.13 4.31-54.638 35.912-74.768 80.444"/>
        <path id="ar" d="M121.14 80.489c-20.13 0-51.763 2.874-79.083 23.703-60.28 45.96-37.504 120.786-37.504 120.786 87.71-.478 121.26 50.757 121.26 50.757L295.48 260.89c39.78-58.897 124.375-56.144 124.375-56.144C448.253 125.02 388.582 87.672 362.7 79.77c-26.492-8.088-61.828-5.746-75.487-1.436C269.239 34.52 219.633.045 195.908.045c-20.13 4.31-54.638 35.912-74.768 80.444"/>
        <path id="as" d="M121.14 80.489c-20.13 0-51.763 2.874-79.083 23.703-60.28 45.96-37.504 120.786-37.504 120.786 87.71-.478 121.26 50.757 121.26 50.757L295.48 260.89c39.78-58.897 124.375-56.144 124.375-56.144C448.253 125.02 388.582 87.672 362.7 79.77c-26.492-8.088-61.828-5.746-75.487-1.436C269.239 34.52 219.633.045 195.908.045c-20.13 4.31-54.638 35.912-74.768 80.444"/>
        <path id="at" d="M121.14 80.489c-20.13 0-51.763 2.874-79.083 23.703-60.28 45.96-37.504 120.786-37.504 120.786 87.71-.478 121.26 50.757 121.26 50.757L295.48 260.89c39.78-58.897 124.375-56.144 124.375-56.144C448.253 125.02 388.582 87.672 362.7 79.77c-26.492-8.088-61.828-5.746-75.487-1.436C269.239 34.52 219.633.045 195.908.045c-20.13 4.31-54.638 35.912-74.768 80.444"/>
        <path id="au" d="M121.14 80.489c-20.13 0-51.763 2.874-79.083 23.703-60.28 45.96-37.504 120.786-37.504 120.786 87.71-.478 121.26 50.757 121.26 50.757L295.48 260.89c39.78-58.897 124.375-56.144 124.375-56.144C448.253 125.02 388.582 87.672 362.7 79.77c-26.492-8.088-61.828-5.746-75.487-1.436C269.239 34.52 219.633.045 195.908.045c-20.13 4.31-54.638 35.912-74.768 80.444"/>
        <path id="av" d="M121.14 80.489c-20.13 0-51.763 2.874-79.083 23.703-60.28 45.96-37.504 120.786-37.504 120.786 87.71-.478 121.26 50.757 121.26 50.757L295.48 260.89c39.78-58.897 124.375-56.144 124.375-56.144C448.253 125.02 388.582 87.672 362.7 79.77c-26.492-8.088-61.828-5.746-75.487-1.436C269.239 34.52 219.633.045 195.908.045c-20.13 4.31-54.638 35.912-74.768 80.444"/>
        <path id="aw" d="M121.14 80.489c-20.13 0-51.763 2.874-79.083 23.703-60.28 45.96-37.504 120.786-37.504 120.786 87.71-.478 121.26 50.757 121.26 50.757L295.48 260.89c39.78-58.897 124.375-56.144 124.375-56.144C448.253 125.02 388.582 87.672 362.7 79.77c-26.492-8.088-61.828-5.746-75.487-1.436C269.239 34.52 219.633.045 195.908.045c-20.13 4.31-54.638 35.912-74.768 80.444"/>
        <path id="ax" d="M121.14 80.489c-20.13 0-51.763 2.874-79.083 23.703-60.28 45.96-37.504 120.786-37.504 120.786 87.71-.478 121.26 50.757 121.26 50.757L295.48 260.89c39.78-58.897 124.375-56.144 124.375-56.144C448.253 125.02 388.582 87.672 362.7 79.77c-26.492-8.088-61.828-5.746-75.487-1.436C269.239 34.52 219.633.045 195.908.045c-20.13 4.31-54.638 35.912-74.768 80.444"/>
        <path id="ay" d="M121.14 80.489c-20.13 0-51.763 2.874-79.083 23.703-60.28 45.96-37.504 120.786-37.504 120.786 87.71-.478 121.26 50.757 121.26 50.757L295.48 260.89c39.78-58.897 124.375-56.144 124.375-56.144C448.253 125.02 388.582 87.672 362.7 79.77c-26.492-8.088-61.828-5.746-75.487-1.436C269.239 34.52 219.633.045 195.908.045c-20.13 4.31-54.638 35.912-74.768 80.444"/>
        <path id="az" d="M121.14 80.489c-20.13 0-51.763 2.874-79.083 23.703-60.28 45.96-37.504 120.786-37.504 120.786 87.71-.478 121.26 50.757 121.26 50.757L295.48 260.89c39.78-58.897 124.375-56.144 124.375-56.144C448.253 125.02 388.582 87.672 362.7 79.77c-26.492-8.088-61.828-5.746-75.487-1.436C269.239 34.52 219.633.045 195.908.045c-20.13 4.31-54.638 35.912-74.768 80.444"/>
        <path id="aB" d="M121.14 80.489c-20.13 0-51.763 2.874-79.083 23.703-60.28 45.96-37.504 120.786-37.504 120.786 87.71-.478 121.26 50.757 121.26 50.757L295.48 260.89c39.78-58.897 124.375-56.144 124.375-56.144C448.253 125.02 388.582 87.672 362.7 79.77c-26.492-8.088-61.828-5.746-75.487-1.436C269.239 34.52 219.633.045 195.908.045c-20.13 4.31-54.638 35.912-74.768 80.444"/>
        <path id="aC" d="M121.14 80.489c-20.13 0-51.763 2.874-79.083 23.703-60.28 45.96-37.504 120.786-37.504 120.786 87.71-.478 121.26 50.757 121.26 50.757L295.48 260.89c39.78-58.897 124.375-56.144 124.375-56.144C448.253 125.02 388.582 87.672 362.7 79.77c-26.492-8.088-61.828-5.746-75.487-1.436C269.239 34.52 219.633.045 195.908.045c-20.13 4.31-54.638 35.912-74.768 80.444"/>
        <path id="aD" d="M121.14 80.489c-20.13 0-51.763 2.874-79.083 23.703-60.28 45.96-37.504 120.786-37.504 120.786 87.71-.478 121.26 50.757 121.26 50.757L295.48 260.89c39.78-58.897 124.375-56.144 124.375-56.144C448.253 125.02 388.582 87.672 362.7 79.77c-26.492-8.088-61.828-5.746-75.487-1.436C269.239 34.52 219.633.045 195.908.045c-20.13 4.31-54.638 35.912-74.768 80.444"/>
        <path id="aE" d="M121.14 80.489c-20.13 0-51.763 2.874-79.083 23.703-60.28 45.96-37.504 120.786-37.504 120.786 87.71-.478 121.26 50.757 121.26 50.757L295.48 260.89c39.78-58.897 124.375-56.144 124.375-56.144C448.253 125.02 388.582 87.672 362.7 79.77c-26.492-8.088-61.828-5.746-75.487-1.436C269.239 34.52 219.633.045 195.908.045c-20.13 4.31-54.638 35.912-74.768 80.444"/>
        <path id="aG" d="M121.14 80.489c-20.13 0-51.763 2.874-79.083 23.703-60.28 45.96-37.504 120.786-37.504 120.786 87.71-.478 121.26 50.757 121.26 50.757L295.48 260.89c39.78-58.897 124.375-56.144 124.375-56.144C448.253 125.02 388.582 87.672 362.7 79.77c-26.492-8.088-61.828-5.746-75.487-1.436C269.239 34.52 219.633.045 195.908.045c-20.13 4.31-54.638 35.912-74.768 80.444z"/>
        <path id="aH" d="M121.14 80.489c-20.13 0-51.763 2.874-79.083 23.703-60.28 45.96-37.504 120.786-37.504 120.786 87.71-.478 121.26 50.757 121.26 50.757L295.48 260.89c39.78-58.897 124.375-56.144 124.375-56.144C448.253 125.02 388.582 87.672 362.7 79.77c-26.492-8.088-61.828-5.746-75.487-1.436C269.239 34.52 219.633.045 195.908.045c-20.13 4.31-54.638 35.912-74.768 80.444"/>
        <path id="aI" d="M121.14 80.489c-20.13 0-51.763 2.874-79.083 23.703-60.28 45.96-37.504 120.786-37.504 120.786 87.71-.478 121.26 50.757 121.26 50.757L295.48 260.89c39.78-58.897 124.375-56.144 124.375-56.144C448.253 125.02 388.582 87.672 362.7 79.77c-26.492-8.088-61.828-5.746-75.487-1.436C269.239 34.52 219.633.045 195.908.045c-20.13 4.31-54.638 35.912-74.768 80.444z"/>
        <path id="aJ" d="M121.14 80.489c-20.13 0-51.763 2.874-79.083 23.703-60.28 45.96-37.504 120.786-37.504 120.786 87.71-.478 121.26 50.757 121.26 50.757L295.48 260.89c39.78-58.897 124.375-56.144 124.375-56.144C448.253 125.02 388.582 87.672 362.7 79.77c-26.492-8.088-61.828-5.746-75.487-1.436C269.239 34.52 219.633.045 195.908.045c-20.13 4.31-54.638 35.912-74.768 80.444"/>
        <path id="aK" d="M121.14 80.489c-20.13 0-51.763 2.874-79.083 23.703-60.28 45.96-37.504 120.786-37.504 120.786 87.71-.478 121.26 50.757 121.26 50.757L295.48 260.89c39.78-58.897 124.375-56.144 124.375-56.144C448.253 125.02 388.582 87.672 362.7 79.77c-26.492-8.088-61.828-5.746-75.487-1.436C269.239 34.52 219.633.045 195.908.045c-20.13 4.31-54.638 35.912-74.768 80.444"/>
        <path id="aL" d="M121.14 80.489c-20.13 0-51.763 2.874-79.083 23.703-60.28 45.96-37.504 120.786-37.504 120.786 87.71-.478 121.26 50.757 121.26 50.757L295.48 260.89c39.78-58.897 124.375-56.144 124.375-56.144C448.253 125.02 388.582 87.672 362.7 79.77c-26.492-8.088-61.828-5.746-75.487-1.436C269.239 34.52 219.633.045 195.908.045c-20.13 4.31-54.638 35.912-74.768 80.444"/>
        <path id="aM" d="M121.14 80.489c-20.13 0-51.763 2.874-79.083 23.703-60.28 45.96-37.504 120.786-37.504 120.786 87.71-.478 121.26 50.757 121.26 50.757L295.48 260.89c39.78-58.897 124.375-56.144 124.375-56.144C448.253 125.02 388.582 87.672 362.7 79.77c-26.492-8.088-61.828-5.746-75.487-1.436C269.239 34.52 219.633.045 195.908.045c-20.13 4.31-54.638 35.912-74.768 80.444z"/>
        <path id="aN" d="M121.14 80.489c-20.13 0-51.763 2.874-79.083 23.703-60.28 45.96-37.504 120.786-37.504 120.786 87.71-.478 121.26 50.757 121.26 50.757L295.48 260.89c39.78-58.897 124.375-56.144 124.375-56.144C448.253 125.02 388.582 87.672 362.7 79.77c-26.492-8.088-61.828-5.746-75.487-1.436C269.239 34.52 219.633.045 195.908.045c-20.13 4.31-54.638 35.912-74.768 80.444z"/>
        <path id="aO" d="M121.14 80.489c-20.13 0-51.763 2.874-79.083 23.703-60.28 45.96-37.504 120.786-37.504 120.786 87.71-.478 121.26 50.757 121.26 50.757L295.48 260.89c39.78-58.897 124.375-56.144 124.375-56.144C448.253 125.02 388.582 87.672 362.7 79.77c-26.492-8.088-61.828-5.746-75.487-1.436C269.239 34.52 219.633.045 195.908.045c-20.13 4.31-54.638 35.912-74.768 80.444z"/>
        <path id="aP" d="M121.14 80.489c-20.13 0-51.763 2.874-79.083 23.703-60.28 45.96-37.504 120.786-37.504 120.786 87.71-.478 121.26 50.757 121.26 50.757L295.48 260.89c39.78-58.897 124.375-56.144 124.375-56.144C448.253 125.02 388.582 87.672 362.7 79.77c-26.492-8.088-61.828-5.746-75.487-1.436C269.239 34.52 219.633.045 195.908.045c-20.13 4.31-54.638 35.912-74.768 80.444"/>
        <path id="aQ" d="M121.14 80.489c-20.13 0-51.763 2.874-79.083 23.703-60.28 45.96-37.504 120.786-37.504 120.786 87.71-.478 121.26 50.757 121.26 50.757L295.48 260.89c39.78-58.897 124.375-56.144 124.375-56.144C448.253 125.02 388.582 87.672 362.7 79.77c-26.492-8.088-61.828-5.746-75.487-1.436C269.239 34.52 219.633.045 195.908.045c-20.13 4.31-54.638 35.912-74.768 80.444z"/>
        <path id="aR" d="M121.14 80.489c-20.13 0-51.763 2.874-79.083 23.703-60.28 45.96-37.504 120.786-37.504 120.786 87.71-.478 121.26 50.757 121.26 50.757L295.48 260.89c39.78-58.897 124.375-56.144 124.375-56.144C448.253 125.02 388.582 87.672 362.7 79.77c-26.492-8.088-61.828-5.746-75.487-1.436C269.239 34.52 219.633.045 195.908.045c-20.13 4.31-54.638 35.912-74.768 80.444z"/>
        <path id="aS" d="M121.14 80.489c-20.13 0-51.763 2.874-79.083 23.703-60.28 45.96-37.504 120.786-37.504 120.786 87.71-.478 121.26 50.757 121.26 50.757L295.48 260.89c39.78-58.897 124.375-56.144 124.375-56.144C448.253 125.02 388.582 87.672 362.7 79.77c-26.492-8.088-61.828-5.746-75.487-1.436C269.239 34.52 219.633.045 195.908.045c-20.13 4.31-54.638 35.912-74.768 80.444z"/>
        <path id="aT" d="M121.14 80.489c-20.13 0-51.763 2.874-79.083 23.703-60.28 45.96-37.504 120.786-37.504 120.786 87.71-.478 121.26 50.757 121.26 50.757L295.48 260.89c39.78-58.897 124.375-56.144 124.375-56.144C448.253 125.02 388.582 87.672 362.7 79.77c-26.492-8.088-61.828-5.746-75.487-1.436C269.239 34.52 219.633.045 195.908.045c-20.13 4.31-54.638 35.912-74.768 80.444z"/>
        <path id="aU" d="M121.14 80.489c-20.13 0-51.763 2.874-79.083 23.703-60.28 45.96-37.504 120.786-37.504 120.786 87.71-.478 121.26 50.757 121.26 50.757L295.48 260.89c39.78-58.897 124.375-56.144 124.375-56.144C448.253 125.02 388.582 87.672 362.7 79.77c-26.492-8.088-61.828-5.746-75.487-1.436C269.239 34.52 219.633.045 195.908.045c-20.13 4.31-54.638 35.912-74.768 80.444"/>
        <path id="aW" d="M121.14 80.489c-20.13 0-51.763 2.874-79.083 23.703-60.28 45.96-37.504 120.786-37.504 120.786 87.71-.478 121.26 50.757 121.26 50.757L295.48 260.89c39.78-58.897 124.375-56.144 124.375-56.144C448.253 125.02 388.582 87.672 362.7 79.77c-26.492-8.088-61.828-5.746-75.487-1.436C269.239 34.52 219.633.045 195.908.045c-20.13 4.31-54.638 35.912-74.768 80.444"/>
        <path id="aX" d="M121.14 80.489c-20.13 0-51.763 2.874-79.083 23.703-60.28 45.96-37.504 120.786-37.504 120.786 87.71-.478 121.26 50.757 121.26 50.757L295.48 260.89c39.78-58.897 124.375-56.144 124.375-56.144C448.253 125.02 388.582 87.672 362.7 79.77c-26.492-8.088-61.828-5.746-75.487-1.436C269.239 34.52 219.633.045 195.908.045c-20.13 4.31-54.638 35.912-74.768 80.444"/>
        <path id="aY" d="M121.14 80.489c-20.13 0-51.763 2.874-79.083 23.703-60.28 45.96-37.504 120.786-37.504 120.786 87.71-.478 121.26 50.757 121.26 50.757L295.48 260.89c39.78-58.897 124.375-56.144 124.375-56.144C448.253 125.02 388.582 87.672 362.7 79.77c-26.492-8.088-61.828-5.746-75.487-1.436C269.239 34.52 219.633.045 195.908.045c-20.13 4.31-54.638 35.912-74.768 80.444"/>
        <path id="aZ" d="M121.14 80.489c-20.13 0-51.763 2.874-79.083 23.703-60.28 45.96-37.504 120.786-37.504 120.786 87.71-.478 121.26 50.757 121.26 50.757L295.48 260.89c39.78-58.897 124.375-56.144 124.375-56.144C448.253 125.02 388.582 87.672 362.7 79.77c-26.492-8.088-61.828-5.746-75.487-1.436C269.239 34.52 219.633.045 195.908.045c-20.13 4.31-54.638 35.912-74.768 80.444"/>
        <path id="ba" d="M121.14 80.489c-20.13 0-51.763 2.874-79.083 23.703-60.28 45.96-37.504 120.786-37.504 120.786 87.71-.478 121.26 50.757 121.26 50.757L295.48 260.89c39.78-58.897 124.375-56.144 124.375-56.144C448.253 125.02 388.582 87.672 362.7 79.77c-26.492-8.088-61.828-5.746-75.487-1.436C269.239 34.52 219.633.045 195.908.045c-20.13 4.31-54.638 35.912-74.768 80.444"/>
        <path id="bb" d="M121.14 80.489c-20.13 0-51.763 2.874-79.083 23.703-60.28 45.96-37.504 120.786-37.504 120.786 87.71-.478 121.26 50.757 121.26 50.757L295.48 260.89c39.78-58.897 124.375-56.144 124.375-56.144C448.253 125.02 388.582 87.672 362.7 79.77c-26.492-8.088-61.828-5.746-75.487-1.436C269.239 34.52 219.633.045 195.908.045c-20.13 4.31-54.638 35.912-74.768 80.444z"/>
        <path id="bd" d="M.18.404v79.23c42.803-36.355 104.784-34.34 104.784-34.34a144.994 144.994 0 0 0 3.535-11.341V6.017c0-3.1-2.516-5.613-5.62-5.613H.18z"/>
        <linearGradient id="be" x1="0%" y1="50.766%" y2="50.766%">
            <stop offset="0%" stop-color="#E1E4F2"/>
            <stop offset="100%" stop-color="#FFF"/>
        </linearGradient>
        <path id="bg" d="M121.14 80.489c-20.13 0-51.763 2.874-79.083 23.703-60.28 45.96-37.504 120.786-37.504 120.786 87.71-.478 121.26 50.757 121.26 50.757L295.48 260.89c39.78-58.897 124.375-56.144 124.375-56.144C448.253 125.02 388.582 87.672 362.7 79.77c-26.492-8.088-61.828-5.746-75.487-1.436C269.239 34.52 219.633.045 195.908.045c-20.13 4.31-54.638 35.912-74.768 80.444z"/>
        <path id="bi" d="M121.14 80.489c-20.13 0-51.763 2.874-79.083 23.703-60.28 45.96-37.504 120.786-37.504 120.786 87.71-.478 121.26 50.757 121.26 50.757L295.48 260.89c39.78-58.897 124.375-56.144 124.375-56.144C448.253 125.02 388.582 87.672 362.7 79.77c-26.492-8.088-61.828-5.746-75.487-1.436C269.239 34.52 219.633.045 195.908.045c-20.13 4.31-54.638 35.912-74.768 80.444"/>
        <path id="bk" d="M121.14 80.489c-20.13 0-51.763 2.874-79.083 23.703-60.28 45.96-37.504 120.786-37.504 120.786 87.71-.478 121.26 50.757 121.26 50.757L295.48 260.89c39.78-58.897 124.375-56.144 124.375-56.144C448.253 125.02 388.582 87.672 362.7 79.77c-26.492-8.088-61.828-5.746-75.487-1.436C269.239 34.52 219.633.045 195.908.045c-20.13 4.31-54.638 35.912-74.768 80.444"/>
        <path id="bl" d="M121.14 80.489c-20.13 0-51.763 2.874-79.083 23.703-60.28 45.96-37.504 120.786-37.504 120.786 87.71-.478 121.26 50.757 121.26 50.757L295.48 260.89c39.78-58.897 124.375-56.144 124.375-56.144C448.253 125.02 388.582 87.672 362.7 79.77c-26.492-8.088-61.828-5.746-75.487-1.436C269.239 34.52 219.633.045 195.908.045c-20.13 4.31-54.638 35.912-74.768 80.444"/>
        <path id="bm" d="M121.14 80.489c-20.13 0-51.763 2.874-79.083 23.703-60.28 45.96-37.504 120.786-37.504 120.786 87.71-.478 121.26 50.757 121.26 50.757L295.48 260.89c39.78-58.897 124.375-56.144 124.375-56.144C448.253 125.02 388.582 87.672 362.7 79.77c-26.492-8.088-61.828-5.746-75.487-1.436C269.239 34.52 219.633.045 195.908.045c-20.13 4.31-54.638 35.912-74.768 80.444"/>
        <path id="bn" d="M121.14 80.489c-20.13 0-51.763 2.874-79.083 23.703-60.28 45.96-37.504 120.786-37.504 120.786 87.71-.478 121.26 50.757 121.26 50.757L295.48 260.89c39.78-58.897 124.375-56.144 124.375-56.144C448.253 125.02 388.582 87.672 362.7 79.77c-26.492-8.088-61.828-5.746-75.487-1.436C269.239 34.52 219.633.045 195.908.045c-20.13 4.31-54.638 35.912-74.768 80.444"/>
        <path id="bo" d="M121.14 80.489c-20.13 0-51.763 2.874-79.083 23.703-60.28 45.96-37.504 120.786-37.504 120.786 87.71-.478 121.26 50.757 121.26 50.757L295.48 260.89c39.78-58.897 124.375-56.144 124.375-56.144C448.253 125.02 388.582 87.672 362.7 79.77c-26.492-8.088-61.828-5.746-75.487-1.436C269.239 34.52 219.633.045 195.908.045c-20.13 4.31-54.638 35.912-74.768 80.444"/>
        <path id="bp" d="M121.14 80.489c-20.13 0-51.763 2.874-79.083 23.703-60.28 45.96-37.504 120.786-37.504 120.786 87.71-.478 121.26 50.757 121.26 50.757L295.48 260.89c39.78-58.897 124.375-56.144 124.375-56.144C448.253 125.02 388.582 87.672 362.7 79.77c-26.492-8.088-61.828-5.746-75.487-1.436C269.239 34.52 219.633.045 195.908.045c-20.13 4.31-54.638 35.912-74.768 80.444"/>
        <path id="bq" d="M121.14 80.489c-20.13 0-51.763 2.874-79.083 23.703-60.28 45.96-37.504 120.786-37.504 120.786 87.71-.478 121.26 50.757 121.26 50.757L295.48 260.89c39.78-58.897 124.375-56.144 124.375-56.144C448.253 125.02 388.582 87.672 362.7 79.77c-26.492-8.088-61.828-5.746-75.487-1.436C269.239 34.52 219.633.045 195.908.045c-20.13 4.31-54.638 35.912-74.768 80.444"/>
        <path id="br" d="M121.14 80.489c-20.13 0-51.763 2.874-79.083 23.703-60.28 45.96-37.504 120.786-37.504 120.786 87.71-.478 121.26 50.757 121.26 50.757L295.48 260.89c39.78-58.897 124.375-56.144 124.375-56.144C448.253 125.02 388.582 87.672 362.7 79.77c-26.492-8.088-61.828-5.746-75.487-1.436C269.239 34.52 219.633.045 195.908.045c-20.13 4.31-54.638 35.912-74.768 80.444z"/>
        <path id="bt" d="M121.14 80.489c-20.13 0-51.763 2.874-79.083 23.703-60.28 45.96-37.504 120.786-37.504 120.786 87.71-.478 121.26 50.757 121.26 50.757L295.48 260.89c39.78-58.897 124.375-56.144 124.375-56.144C448.253 125.02 388.582 87.672 362.7 79.77c-26.492-8.088-61.828-5.746-75.487-1.436C269.239 34.52 219.633.045 195.908.045c-20.13 4.31-54.638 35.912-74.768 80.444"/>
        <path id="bu" d="M121.14 80.489c-20.13 0-51.763 2.874-79.083 23.703-60.28 45.96-37.504 120.786-37.504 120.786 87.71-.478 121.26 50.757 121.26 50.757L295.48 260.89c39.78-58.897 124.375-56.144 124.375-56.144C448.253 125.02 388.582 87.672 362.7 79.77c-26.492-8.088-61.828-5.746-75.487-1.436C269.239 34.52 219.633.045 195.908.045c-20.13 4.31-54.638 35.912-74.768 80.444"/>
        <path id="bw" d="M121.14 80.489c-20.13 0-51.763 2.874-79.083 23.703-60.28 45.96-37.504 120.786-37.504 120.786 87.71-.478 121.26 50.757 121.26 50.757L295.48 260.89c39.78-58.897 124.375-56.144 124.375-56.144C448.253 125.02 388.582 87.672 362.7 79.77c-26.492-8.088-61.828-5.746-75.487-1.436C269.239 34.52 219.633.045 195.908.045c-20.13 4.31-54.638 35.912-74.768 80.444z"/>
        <path id="by" d="M6.063.404a5.616 5.616 0 0 0-5.62 5.613v93.506h90.03c5.427-7.665 11.63-14.255 18.29-19.91V.404H6.063z"/>
        <linearGradient id="bz" x1="0%" x2="99.999%" y1="50%" y2="50%">
            <stop offset="0%" stop-color="#FFF"/>
            <stop offset="100%" stop-color="#E1E4F2"/>
        </linearGradient>
        <path id="bB" d="M121.14 80.489c-20.13 0-51.763 2.874-79.083 23.703-60.28 45.96-37.504 120.786-37.504 120.786 87.71-.478 121.26 50.757 121.26 50.757L295.48 260.89c39.78-58.897 124.375-56.144 124.375-56.144C448.253 125.02 388.582 87.672 362.7 79.77c-26.492-8.088-61.828-5.746-75.487-1.436C269.239 34.52 219.633.045 195.908.045c-20.13 4.31-54.638 35.912-74.768 80.444z"/>
        <path id="bD" d="M121.14 80.489c-20.13 0-51.763 2.874-79.083 23.703-60.28 45.96-37.504 120.786-37.504 120.786 87.71-.478 121.26 50.757 121.26 50.757L295.48 260.89c39.78-58.897 124.375-56.144 124.375-56.144C448.253 125.02 388.582 87.672 362.7 79.77c-26.492-8.088-61.828-5.746-75.487-1.436C269.239 34.52 219.633.045 195.908.045c-20.13 4.31-54.638 35.912-74.768 80.444"/>
        <path id="bF" d="M121.14 80.489c-20.13 0-51.763 2.874-79.083 23.703-60.28 45.96-37.504 120.786-37.504 120.786 87.71-.478 121.26 50.757 121.26 50.757L295.48 260.89c39.78-58.897 124.375-56.144 124.375-56.144C448.253 125.02 388.582 87.672 362.7 79.77c-26.492-8.088-61.828-5.746-75.487-1.436C269.239 34.52 219.633.045 195.908.045c-20.13 4.31-54.638 35.912-74.768 80.444z"/>
        <path id="bH" d="M121.14 80.489c-20.13 0-51.763 2.874-79.083 23.703-60.28 45.96-37.504 120.786-37.504 120.786 87.71-.478 121.26 50.757 121.26 50.757L295.48 260.89c39.78-58.897 124.375-56.144 124.375-56.144C448.253 125.02 388.582 87.672 362.7 79.77c-26.492-8.088-61.828-5.746-75.487-1.436C269.239 34.52 219.633.045 195.908.045c-20.13 4.31-54.638 35.912-74.768 80.444z"/>
        <path id="bJ" d="M121.14 80.489c-20.13 0-51.763 2.874-79.083 23.703-60.28 45.96-37.504 120.786-37.504 120.786 87.71-.478 121.26 50.757 121.26 50.757L295.48 260.89c39.78-58.897 124.375-56.144 124.375-56.144C448.253 125.02 388.582 87.672 362.7 79.77c-26.492-8.088-61.828-5.746-75.487-1.436C269.239 34.52 219.633.045 195.908.045c-20.13 4.31-54.638 35.912-74.768 80.444"/>
        <path id="bL" d="M.36 18.959a84.4 84.4 0 0 0 .005 2.946 50.832 50.832 0 0 0 24.62 6.745c.114-6.059-2.434-13.868-3.537-16.395C18.572 5.67 15.098.883 12.94.405a1.74 1.74 0 0 0-.38-.04C9.092.365.51 8.925.358 18.959"/>
        <radialGradient id="bM" cx="103.135%" cy="-80.275%" r="207.16%" fx="103.135%" fy="-80.275%" gradientTransform="matrix(1 0 0 .87113 0 -.103)">
            <stop offset="0%" stop-color="#FFE8E8"/>
            <stop offset="100%" stop-color="#FDACAC"/>
        </radialGradient>
        <path id="bO" d="M5.437 9.801s.82 3.582 1.079 6.644c.314 3.74-5.977 5.327-5.977 5.327l10.245 27.713 1.02.42c.966.087 1.938.142 2.92.165L34.27 29.493l2.562-10.474C30.869 17.074 30.285.404 30.285.404L5.437 9.8z"/>
        <radialGradient id="bP" cx="42.055%" cy="10.847%" r="122.161%" fx="42.055%" fy="10.847%" gradientTransform="matrix(1 0 0 .7307 0 .03)">
            <stop offset="0%" stop-color="#DF9595"/>
            <stop offset="100%" stop-color="#FDACAC"/>
        </radialGradient>
        <path id="bR" d="M7.788 2.44S4.255 8.26 2.157 19.436C-1.078 36.675-.18 43.678 3.235 45.116c.429.18.934.342 1.501.482 11.248-7.3 18.689-19.962 18.689-34.36 0-3.545-.45-6.985-1.3-10.266-2.359-.56-4.817-.894-7.053-.894-3.199 0-5.94.683-7.284 2.361"/>
        <radialGradient id="bS" cx="-76.047%" cy="24.516%" r="176.048%" fx="-76.047%" fy="24.516%" gradientTransform="matrix(1 0 0 .51137 0 .12)">
            <stop offset="0%" stop-color="#FFE8E8"/>
            <stop offset="100%" stop-color="#FDACAC"/>
        </radialGradient>
    </defs>
    <g fill="none" fill-rule="evenodd">
        <mask id="b" fill="#fff">
            <use xlink:href="#a"/>
        </mask>
        <g mask="url(#b)">
            <g transform="translate(48.128 165.684)">
                <mask id="d" fill="#fff">
                    <use xlink:href="#c"/>
                </mask>
                <path fill="#E1E5F3" d="M-12.503 70.194v155.624H306.61V33.578L198.066-6.42z" mask="url(#d)"/>
                <mask id="f" fill="#fff">
                    <use xlink:href="#e"/>
                </mask>
                <path fill="#C3CBE8" d="M306.941 165.484h128.536V33.578H306.94z" mask="url(#f)"/>
                <path fill="#F0F2F9" d="M-11.784 148.005v77.813h121.825z" mask="url(#f)"/>
                <path fill="#FFF" d="M247.047 93.525h31.713l25.168 42.6-.045 23.762h-82.018v-25.514z" mask="url(#f)"/>
                <path fill="#D8DDEA" d="M261.331 161.772h3.115v-59.136h-3.115z" mask="url(#f)"/>
                <path fill="#C3CBE8" d="M269.256 81.327h-12.854a5.82 5.82 0 0 0-4.966 2.783l-12.422 20.319c-.443.725.08 1.654.93 1.654h45.771c.85 0 1.372-.93.93-1.654L274.221 84.11a5.82 5.82 0 0 0-4.966-2.783" mask="url(#f)"/>
                <path fill="#FFF" d="M81.24 171.585l-86.273-55.183-14.019 31.603 85.189 53.584 15.102.285z" mask="url(#f)"/>
            </g>
            <g transform="translate(178.254 196.57)">
                <mask id="h" fill="#fff">
                    <use xlink:href="#g"/>
                </mask>
                <path fill="#FFF" d="M89.507 140.566l-235.81-150.833v-9.337l235.81 150.833z" mask="url(#h)"/>
            </g>
            <g transform="translate(178.254 196.57)">
                <mask id="j" fill="#fff">
                    <use xlink:href="#i"/>
                </mask>
                <path fill="#FFF" d="M89.507 121.712L-146.303-29.12v-9.338l235.81 150.834z" mask="url(#j)"/>
            </g>
            <g transform="translate(178.254 196.57)">
                <mask id="l" fill="#fff">
                    <use xlink:href="#k"/>
                </mask>
                <path fill="#FFF" d="M89.507 159.343L-146.303 8.51V-.827l235.81 150.833z" mask="url(#l)"/>
            </g>
            <g transform="translate(178.254 196.57)">
                <mask id="n" fill="#fff">
                    <use xlink:href="#m"/>
                </mask>
                <path fill="#FFF" d="M89.507 178.12l-235.81-150.833V17.95l235.81 150.833z" mask="url(#n)"/>
            </g>
            <g transform="translate(178.254 196.57)">
                <mask id="p" fill="#fff">
                    <use xlink:href="#o"/>
                </mask>
                <path fill="#FFF" d="M89.507 196.898l-235.81-150.834v-9.337L89.508 187.56z" mask="url(#p)"/>
            </g>
            <g transform="translate(178.254 196.57)">
                <mask id="r" fill="#fff">
                    <use xlink:href="#q"/>
                </mask>
                <path fill="#FFF" d="M89.507 215.675l-235.81-150.833v-9.338l235.81 150.834z" mask="url(#r)"/>
            </g>
            <g transform="translate(178.254 196.57)">
                <mask id="t" fill="#fff">
                    <use xlink:href="#s"/>
                </mask>
                <path fill="#FFF" d="M89.507 234.452L-146.303 83.62v-9.337l235.81 150.833z" mask="url(#t)"/>
            </g>
            <g transform="translate(178.254 196.57)">
                <mask id="v" fill="#fff">
                    <use xlink:href="#u"/>
                </mask>
                <path fill="#FFF" d="M89.507 253.23l-235.81-150.834v-9.337l235.81 150.833z" mask="url(#v)"/>
            </g>
            <g transform="translate(91.982 246.129)">
                <mask id="x" fill="#fff">
                    <use xlink:href="#w"/>
                </mask>
                <path fill="#FFF" d="M89.866 36.06l-235.809-150.833v-9.337L89.867 26.723z" mask="url(#x)"/>
            </g>
            <g transform="translate(91.982 246.129)">
                <mask id="z" fill="#fff">
                    <use xlink:href="#y"/>
                </mask>
                <path fill="#FFF" d="M89.866 17.206l-235.809-150.833v-9.338L89.867 7.87z" mask="url(#z)"/>
            </g>
            <g transform="translate(91.982 246.129)">
                <mask id="B" fill="#fff">
                    <use xlink:href="#A"/>
                </mask>
                <path fill="#FFF" d="M89.866 54.837L-145.943-95.996v-9.337L89.867 45.5z" mask="url(#B)"/>
            </g>
            <g transform="translate(91.982 246.129)">
                <mask id="D" fill="#fff">
                    <use xlink:href="#C"/>
                </mask>
                <path fill="#FFF" d="M89.866 73.615L-145.943-77.22v-9.337L89.867 64.277z" mask="url(#D)"/>
            </g>
            <g transform="translate(91.982 246.129)">
                <mask id="F" fill="#fff">
                    <use xlink:href="#E"/>
                </mask>
                <path fill="#FFF" d="M89.866 92.392L-145.943-58.442v-9.337L89.867 83.054z" mask="url(#F)"/>
            </g>
            <g transform="translate(91.982 246.129)">
                <mask id="H" fill="#fff">
                    <use xlink:href="#G"/>
                </mask>
                <path fill="#FFF" d="M89.866 111.17L-145.943-39.665v-9.338l235.81 150.834z" mask="url(#H)"/>
            </g>
            <g transform="translate(91.982 246.129)">
                <mask id="J" fill="#fff">
                    <use xlink:href="#I"/>
                </mask>
                <path fill="#FFF" d="M89.866 129.946L-145.943-20.887v-9.338L89.867 120.61z" mask="url(#J)"/>
            </g>
            <g transform="translate(91.982 246.129)">
                <mask id="L" fill="#fff">
                    <use xlink:href="#K"/>
                </mask>
                <path fill="#FFF" d="M89.866 148.723L-145.943-2.11v-9.337l235.81 150.833z" mask="url(#L)"/>
            </g>
            <g>
                <g transform="translate(48.128 275.577)">
                    <mask id="N" fill="#fff">
                        <use xlink:href="#M"/>
                    </mask>
                    <path fill="#FFF" d="M47.45-67.83l-235.81-150.834V-228L47.45-77.167z" mask="url(#N)"/>
                </g>
                <g transform="translate(48.128 275.577)">
                    <mask id="P" fill="#fff">
                        <use xlink:href="#O"/>
                    </mask>
                    <path fill="#FFF" d="M47.45-49.053l-235.81-150.833v-9.337L47.45-58.39z" mask="url(#P)"/>
                </g>
                <g transform="translate(48.128 275.577)">
                    <mask id="R" fill="#fff">
                        <use xlink:href="#Q"/>
                    </mask>
                    <path fill="#FFF" d="M47.45-30.276l-235.81-150.833v-9.337L47.45-39.613z" mask="url(#R)"/>
                </g>
                <g transform="translate(48.128 275.577)">
                    <mask id="T" fill="#fff">
                        <use xlink:href="#S"/>
                    </mask>
                    <path fill="#FFF" d="M47.45-11.498l-235.81-150.834v-9.337L47.45-20.836z" mask="url(#T)"/>
                </g>
                <g transform="translate(48.128 275.577)">
                    <mask id="V" fill="#fff">
                        <use xlink:href="#U"/>
                    </mask>
                    <path fill="#FFF" d="M47.45 7.279l-235.81-150.834v-9.337L47.45-2.06z" mask="url(#V)"/>
                </g>
                <g transform="translate(48.128 275.577)">
                    <mask id="X" fill="#fff">
                        <use xlink:href="#W"/>
                    </mask>
                    <path fill="#FFF" d="M47.45 26.056l-235.81-150.833v-9.338L47.45 16.72z" mask="url(#X)"/>
                </g>
                <g transform="translate(48.128 275.577)">
                    <mask id="Z" fill="#fff">
                        <use xlink:href="#Y"/>
                    </mask>
                    <path fill="#FFF" d="M47.45 44.833L-188.36-106v-9.338L47.45 35.496z" mask="url(#Z)"/>
                </g>
                <g transform="translate(48.128 275.577)">
                    <mask id="ab" fill="#fff">
                        <use xlink:href="#aa"/>
                    </mask>
                    <path fill="#FFF" d="M47.45 63.61L-188.36-87.223v-9.337L47.45 54.273z" mask="url(#ab)"/>
                </g>
            </g>
            <g transform="translate(48.128 165.684)">
                <mask id="ai" fill="#fff">
                    <use xlink:href="#ah"/>
                </mask>
                <path fill="#E1E5F3" d="M322.412 128.944l-3.614.642a.55.55 0 0 1-.599-.32l-8.53-19.434a.484.484 0 0 1 .36-.67l3.696-.657a.549.549 0 0 1 .598.32l8.496 19.358a.548.548 0 0 1-.407.76" mask="url(#ai)"/>
                <mask id="ak" fill="#fff">
                    <use xlink:href="#aj"/>
                </mask>
                <path fill="#D2D8EE" d="M331.734 129.05l-2.087.725a.353.353 0 0 1-.418-.153l-12.993-21.746a.353.353 0 0 1 .187-.514l2.087-.724a.353.353 0 0 1 .418.152l12.993 21.747a.352.352 0 0 1-.187.513" mask="url(#ak)"/>
                <mask id="am" fill="#fff">
                    <use xlink:href="#al"/>
                </mask>
                <path fill="#F0F2F9" d="M325.239 129.01l-1.45.499a.355.355 0 0 1-.441-.193l-8.818-20.092 1.69-.583a.497.497 0 0 1 .618.27l8.61 19.62a.355.355 0 0 1-.21.479" mask="url(#am)"/>
                <mask id="ao" fill="#fff">
                    <use xlink:href="#an"/>
                </mask>
                <path fill="#E1E5F3" d="M338.676 128.7l-3.38 1.339a.567.567 0 0 1-.672-.2l-13.179-18.776a.422.422 0 0 1 .19-.637l3.55-1.406a.566.566 0 0 1 .67.2l13.075 18.627a.566.566 0 0 1-.254.852" mask="url(#ao)"/>
                <mask id="aA" fill="#fff">
                    <use xlink:href="#az"/>
                </mask>
                <path fill="#D2D8EE" d="M323.275 163.448h-4.545a.722.722 0 0 1-.723-.722v-20.583c0-.398.323-.722.723-.722h4.545c.4 0 .723.324.723.722v20.583a.722.722 0 0 1-.723.722" mask="url(#aA)"/>
                <mask id="aF" fill="#fff">
                    <use xlink:href="#aE"/>
                </mask>
                <path fill="#E1E5F3" d="M327.612 163.448h-3.179a.435.435 0 0 1-.435-.436V140.5c0-.24.195-.435.435-.435h3.179c.24 0 .435.195.435.435v22.512c0 .241-.194.436-.435.436" mask="url(#aF)"/>
                <mask id="aV" fill="#fff">
                    <use xlink:href="#aU"/>
                </mask>
                <path fill="#E1E5F3" d="M322.505 162.576l-1.649.777a.21.21 0 0 1-.272-.085l-10.897-18.938a.21.21 0 0 1 .093-.294l1.649-.778a.212.212 0 0 1 .272.085l10.897 18.938a.21.21 0 0 1-.093.295" mask="url(#aV)"/>
                <mask id="bc" fill="#fff">
                    <use xlink:href="#bb"/>
                </mask>
                <path fill="#D2D8EE" d="M303.868 170.152h5.751V37.275h-5.751z" mask="url(#bc)"/>
                <path fill="#D2D8EE" d="M307.103 135.316h133.002v-5.746H307.103zM307.103 103.713h133.002v-5.746H307.103zM306.744 71.93h133.002v-5.746H306.744z" mask="url(#bc)"/>
                <path fill="#D2D8EE" d="M329.698 97.967h-6.08a.622.622 0 0 1-.623-.622v-.835h7.325v.835a.622.622 0 0 1-.622.622" mask="url(#bc)"/>
                <path fill="#D2D8EE" d="M318.38 89.537a.38.38 0 0 0-.379.428 8.747 8.747 0 0 0 8.657 7.482 8.747 8.747 0 0 0 8.656-7.482.38.38 0 0 0-.378-.428h-16.557zM327.678 66.199h-17.53a.504.504 0 0 1-.503-.504V60.92c0-.278.225-.504.504-.504h17.53c.278 0 .504.226.504.504v4.775a.504.504 0 0 1-.505.504" mask="url(#bc)"/>
                <path fill="#D2D8EE" d="M330.167 60.438h-16.075a.517.517 0 0 1-.518-.517v-3.267c0-.285.232-.517.518-.517h16.075c.286 0 .518.232.518.517v3.267a.518.518 0 0 1-.518.517" mask="url(#bc)"/>
                <path fill="#D2D8EE" d="M329.325 56.158h-17.456a.332.332 0 0 1-.332-.331v-1.932c0-.183.149-.332.332-.332h17.456c.183 0 .332.149.332.332v1.932a.332.332 0 0 1-.332.331M312.007 97.518l-2.373-15.98a.457.457 0 0 1 .452-.523l2.95-.003a.6.6 0 0 1 .593.51l2.368 15.952a.457.457 0 0 1-.451.523l-2.979.004a.567.567 0 0 1-.56-.483M43.671 161.974c1.471 5.365-.624 10.615-4.68 11.724-4.057 1.11-8.537-2.34-10.008-7.706-1.47-5.365.625-10.615 4.682-11.725 4.055-1.11 8.536 2.341 10.006 7.707M46.73 189.305h-1.437v-84.993a.718.718 0 0 1 1.437 0v84.993zM62.883 154.808c2.785 5.077 2.052 10.83-1.636 12.85-3.687 2.017-8.935-.461-11.719-5.539-2.785-5.076-2.053-10.829 1.635-12.848 3.688-2.019 8.935.46 11.72 5.537" mask="url(#bc)"/>
                <path fill="#D2D8EE" d="M50.3 145.264c1.062 4.99-1.014 9.66-4.639 10.43-3.624.77-7.423-2.65-8.486-7.64-1.063-4.989 1.014-9.658 4.638-10.429 3.624-.77 7.424 2.65 8.487 7.64M62.452 123.047c1.77 3.975 1.304 8.041-1.042 9.084-2.345 1.043-5.681-1.334-7.451-5.309-1.77-3.974-1.304-8.042 1.041-9.084 2.346-1.043 5.682 1.334 7.452 5.309" mask="url(#bc)"/>
                <path fill="#D2D8EE" d="M54.478 131.935c1.218 4.668-.027 9.032-2.782 9.75-2.755.717-5.975-2.485-7.193-7.152-1.218-4.668.028-9.033 2.782-9.75 2.754-.718 5.975 2.484 7.193 7.152" mask="url(#bc)"/>
                <path fill="#E1E5F3" d="M24.832 130.384c-2.905 1.64-8.297 2.897-9.375 1.102-1.169-1.946.913-5.421 4.91-8.002 3.996-2.58 7.863-3.12 9.468-1.515 1.977 1.975.082 5.545-5.003 8.415M50.07 157.41c2.307 5.31 1.052 10.97-2.806 12.644-3.857 1.674-8.855-1.274-11.164-6.585-2.307-5.31-1.052-10.971 2.806-12.645 3.857-1.673 8.855 1.274 11.163 6.585" mask="url(#bc)"/>
                <path fill="#D2D8EE" d="M45.079 124.032c-1.174 4.525-4.796 7.503-8.092 6.65-3.296-.853-5.017-5.212-3.845-9.737 1.174-4.525 4.796-7.503 8.092-6.65 3.296.853 5.017 5.212 3.845 9.737M26.869 147.917c-2.838 3.268-5.474 5.707-7.252 4.165-1.778-1.54-.919-5.439 1.919-8.706 2.837-3.268 6.579-4.668 8.357-3.126 1.778 1.541-.186 4.4-3.024 7.667M52.597 134.349c2.353 3.631 4.675 6.38 6.97 4.895 2.296-1.484 2.25-5.63-.104-9.262-2.353-3.632-6.12-5.373-8.416-3.888-2.296 1.484-.803 4.623 1.55 8.255" mask="url(#bc)"/>
                <path fill="#E1E5F3" d="M32.18 114.69c-4.576 1.51-9.152 2.155-9.893-.084-.742-2.238 2.634-6.511 7.21-8.023 4.576-1.512 8.886-.923 9.627 1.316.74 2.239-2.368 5.28-6.944 6.79M32.172 163.986c-2.66 3.964-7.58 6.141-10.679 4.066-3.1-2.075-3.202-7.619-.543-11.581 2.66-3.964 7.074-4.846 10.173-2.77 3.099 2.075 3.708 6.322 1.05 10.285M37.725 128.95c-3.234 3.51-8.43 4.913-11.175 2.39-2.746-2.525-1.746-7.657 1.488-11.167 3.234-3.511 7.476-4.072 10.222-1.548 2.745 2.523 2.699 6.813-.535 10.325" mask="url(#bc)"/>
                <path fill="#D2D8EE" d="M67.559 146.476c1.868 4.282 2.052 8.368 1.05 8.804-1 .436-2.808-2.944-4.676-7.226-1.867-4.283-3.087-7.847-2.085-8.282 1-.436 3.843 2.422 5.71 6.704" mask="url(#bc)"/>
                <path fill="#E1E5F3" d="M45.652 141.48c-3.566 3.864-9.402 4.284-13.036.937-3.634-3.347-3.689-9.193-.123-13.057 3.566-3.863 9.402-4.283 13.036-.936 3.633 3.347 3.689 9.192.123 13.057M50.665 114.694c1.684 3.875 1.097 7.865-1.312 8.91s-5.727-1.25-7.412-5.126c-1.685-3.876-1.098-7.865 1.311-8.91 2.41-1.046 5.728 1.25 7.413 5.126" mask="url(#bc)"/>
                <path fill="#E1E5F3" d="M39.04 150.855c-2.911 4.339-8.103 5.96-11.596 3.62-3.493-2.339-3.965-7.753-1.053-12.092 2.911-4.339 8.103-5.96 11.597-3.62 3.492 2.339 3.964 7.753 1.052 12.092" mask="url(#bc)"/>
                <path fill="#E1E5F3" d="M23.89 146.572c-4.46 3.627-9.757 4.8-12.207 1.792-2.451-3.007-1.127-9.055 3.332-12.682 4.46-3.626 10.572-3.792 13.023-.785 2.451 3.007.31 8.048-4.149 11.675M60.47 144.15c3.286 4.926 3.115 10.808-.384 13.14-3.499 2.33-9 .227-12.287-4.699-3.288-4.924-3.116-10.807.383-13.138 3.499-2.331 9-.227 12.287 4.698" mask="url(#bc)"/>
                <path fill="#8DB4F4" d="M106.504 225.57h111.73l-.282 23.618H106.504z" mask="url(#bc)"/>
                <path fill="#7582B8" d="M106.504 225.57h111.73l-.282 23.618H106.504z" mask="url(#bc)"/>
                <path fill="#8DB4F4" d="M18.812 225.57h102.606l-7.19 23.618h-44.63z" mask="url(#bc)"/>
                <path fill="#7582B8" d="M130.348 249.153h111.73l-.281 23.617H130.348z" mask="url(#bc)"/>
                <path fill="#8DB4F4" d="M71.875 249.153h68.595l-7.19 23.617h-18.27z" mask="url(#bc)"/>
                <path fill="#D2D8EE" d="M225.864 132.323c-2.965 0-5.392 2.424-5.392 5.387v2.035H84.355v-2.035c0-2.963-2.426-5.387-5.392-5.387s-5.392 2.424-5.392 5.387v41.898h157.685V137.71c0-2.963-2.426-5.387-5.392-5.387" mask="url(#bc)"/>
                <path fill="#F0F2F9" d="M58.054 172.426s2.28-5.829 8.627-10.056c1.922-1.28 1.417-6.554 5.866-11.372a6.135 6.135 0 0 1 4.011-1.946c12.952-1.047 18.882-.149 26.968-.329 7.728-.171 17.34-1.685 36.93-.79a2.069 2.069 0 0 1 1.984 2.054c.004 1.23-.1 3.226-.451 6.458-.621 5.712-7.01 16.16-7.01 16.16l-76.925-.18z" mask="url(#bc)"/>
                <path fill="#F0F2F9" d="M134.98 165.782c2.812-2.155 4.445-6.563 6.29-9.696 2.363-4.013 5.813-7.095 7.9-8.737a5.425 5.425 0 0 1 3.813-1.15c6.444.545 26.466 2.224 31.423 2.524 5.496.333 22.414-2.726 35.306-1.748 1.775.134 3.207 1.517 3.372 3.29.313 3.357.45 9.034-1.294 14.26-2.696 8.08-6.65 12.57-6.65 12.57h-86.452s.9-7.183 6.291-11.313" mask="url(#bc)"/>
                <path fill="#D8DDEA" d="M51.226 225.577H26.679a4.468 4.468 0 0 1-4.41-3.739l-2.977-18.048h39.322l-2.978 18.048a4.468 4.468 0 0 1-4.41 3.739M109.098 225.577h-2.696l-5.033-20.291h7.729z" mask="url(#bc)"/>
                <path fill="#D2D8EE" d="M109.098 225.577h2.696l5.032-20.291h-7.728z" mask="url(#bc)"/>
                <path fill="#E1E5F3" d="M83.216 225.577H80.52l-5.032-20.291h7.728zM83.216 225.577h2.696l5.033-20.291h-7.729z" mask="url(#bc)"/>
                <path fill="#C3CBE8" d="M-11.503 201.45h221.191v-24.556h-221.19z" mask="url(#bc)"/>
                <path fill="#E1E5F3" d="M-11.503 201.45h121.396v-24.556H-11.503z" mask="url(#bc)"/>
                <path fill="#D2D8EE" d="M-11.503 206.174h221.191v-4.839h-221.19z" mask="url(#bc)"/>
                <path fill="#D8DDEA" d="M-11.503 206.234h120.561v-4.838h-120.56z" mask="url(#bc)"/>
                <path fill="#95A4D7" d="M268.74 155.18l.002-.001-.02-.014c-.332-.25-14.718-9.414-14.718-9.414a1.077 1.077 0 1 0-1.163 1.814l9.805 6.273a3.185 3.185 0 0 1 1.47 2.684v4.899s7.699-.046 7.699-.07a7.73 7.73 0 0 0-3.074-6.171M276.788 160.215h-3.595v-21.008c0-3.62 2.69-7.363 7.19-7.363 4.988 0 7.21 4.218 7.688 6.447l-3.514.753c-.083-.359-.921-3.608-4.174-3.608-2.48 0-3.595 2.205-3.595 3.77v21.01z" mask="url(#bc)"/>
                <path fill="#95A4D7" d="M289.468 142.208l-4.325 1.032a1.1 1.1 0 0 1-1.321-.81l-.543-2.27c-.14-.586.225-1.18.812-1.32l4.324-1.033a1.1 1.1 0 0 1 1.322.811l.543 2.269c.14.587-.225 1.18-.812 1.32" mask="url(#bc)"/>
                <path fill="#A4B1DD" d="M287.572 162.13s-.689-7.93 4.104-7.93h28.881c3.714 0 6.96-2.46 8.01-6.018 2.799-9.486 7.624-22.085 14.842-24.717 12.641-4.61 14.618 5.746 21.568 5.028 6.95-.719 11.742-1.677 23.245-1.916 11.503-.24 18.692 1.855 21.568 1.137 2.876-.718 9.167-7.721 17.794-5.566 6.884 1.72 8.61 7.724 9.286 11.85 4.314 26.337-8.388 72.545-8.388 72.545l-23.005-10.056-117.905-34.356z" mask="url(#bc)"/>
            </g>
            <g transform="translate(363.019 325.137)">
                <mask id="bf" fill="#fff">
                    <use xlink:href="#bd"/>
                </mask>
                <path fill="url(#be)" d="M.18.404v79.23c42.803-36.355 104.784-34.34 104.784-34.34a144.994 144.994 0 0 0 3.535-11.341V6.017c0-3.1-2.516-5.613-5.62-5.613H.18z" mask="url(#bf)"/>
            </g>
            <g>
                <g transform="translate(48.128 165.684)">
                    <mask id="bh" fill="#fff">
                        <use xlink:href="#bg"/>
                    </mask>
                    <path fill="#83ABF1" d="M423.39 213.725l-108.319 28.73v-80.444h107.163c.639 0 1.156.517 1.156 1.154v50.56z" mask="url(#bh)"/>
                </g>
                <g transform="translate(48.128 165.684)">
                    <mask id="bj" fill="#fff">
                        <use xlink:href="#bi"/>
                    </mask>
                    <path fill="#7582B8" d="M332.775 172.964a4.85 4.85 0 0 1-4.853 4.849 4.85 4.85 0 0 1-4.853-4.849 4.85 4.85 0 0 1 4.853-4.848 4.85 4.85 0 0 1 4.853 4.848" mask="url(#bj)"/>
                </g>
                <g transform="translate(48.128 165.684)">
                    <mask id="bs" fill="#fff">
                        <use xlink:href="#br"/>
                    </mask>
                    <path fill="#7582B8" d="M315.071 185.306H423.4v-.977H315.071z" mask="url(#bs)"/>
                </g>
                <g transform="translate(48.128 165.684)">
                    <mask id="bv" fill="#fff">
                        <use xlink:href="#bu"/>
                    </mask>
                    <path fill="#7582B8" d="M412.409 196.532h-87.145a.787.787 0 0 1-.787-.786v-1.645c0-.434.353-.786.787-.786h87.145c.434 0 .787.352.787.786v1.645a.787.787 0 0 1-.787.786" mask="url(#bv)"/>
                </g>
                <g transform="translate(48.128 165.684)">
                    <mask id="bx" fill="#fff">
                        <use xlink:href="#bw"/>
                    </mask>
                    <path fill="#7582B8" d="M324.477 241.345v-32.06a4.18 4.18 0 0 1 4.183-4.178h80.353a4.18 4.18 0 0 1 4.183 4.178v9.075l-88.72 22.985z" mask="url(#bx)"/>
                </g>
            </g>
            <g transform="translate(254.46 325.137)">
                <mask id="bA" fill="#fff">
                    <use xlink:href="#by"/>
                </mask>
                <path fill="url(#bz)" d="M6.063.404a5.616 5.616 0 0 0-5.62 5.613v93.506h90.03c5.427-7.665 11.63-14.255 18.29-19.91V.404H6.063z" mask="url(#bA)"/>
            </g>
            <g>
                <g transform="translate(48.128 165.684)">
                    <mask id="bC" fill="#fff">
                        <use xlink:href="#bB"/>
                    </mask>
                    <path fill="#83ABF1" d="M315.096 261.13h-108.32v-93.506c0-3.1 2.516-5.613 5.62-5.613h102.7v99.12z" mask="url(#bC)"/>
                </g>
                <g transform="translate(48.128 165.684)">
                    <mask id="bE" fill="#fff">
                        <use xlink:href="#bD"/>
                    </mask>
                    <path fill="#7582B8" d="M275.295 184.142h-28.718a.786.786 0 0 1-.787-.785v-1.646c0-.434.352-.786.787-.786h28.718c.435 0 .788.352.788.786v1.646a.787.787 0 0 1-.788.785" mask="url(#bE)"/>
                </g>
                <g transform="translate(48.128 165.684)">
                    <mask id="bG" fill="#fff">
                        <use xlink:href="#bF"/>
                    </mask>
                    <path fill="#7582B8" d="M206.767 206.146h108.328v-.819H206.767z" mask="url(#bG)"/>
                </g>
                <g transform="translate(48.128 165.684)">
                    <mask id="bI" fill="#fff">
                        <use xlink:href="#bH"/>
                    </mask>
                    <path fill="#B3BEE2" d="M-11.263 172.306h202.499c6.23 0 6.47 4.549 6.47 4.549l-82.638 29.85c-3.398.995-7.356 1.095-10.463.52l-116.348-22.948.48-11.97z" mask="url(#bI)"/>
                </g>
                <g transform="translate(48.128 165.684)">
                    <mask id="bK" fill="#fff">
                        <use xlink:href="#bJ"/>
                    </mask>
                    <path fill="#C3CBE8" d="M109.277 172.306h-120.54l-.48 11.971 116.347 22.947c1.28.237 3.023.352 4.494.345 0-2.762.18-35.263.18-35.263" mask="url(#bK)"/>
                </g>
            </g>
            <g>
                <path fill="#535785" d="M350.367 398.668c-1.645.827-3.673.596-4.007-.265-.39-1.006.603-2.173 2.248-3 1.644-.826 3.337-.94 3.829.022.491.961-.426 2.417-2.07 3.243m-18.431 6.488c-1.192 1.63-3.474.331-3.94-2.379l-1.27-6.16c-.4-2.186.903-2.727 1.855-1.893l2.678 2.344c1.915 1.66 2.078 6.168.677 8.088m42.37-11.52c.586-3.394.354-6.425.15-7.998a.924.924 0 0 0-1.237-.742c-3.121 1.139-12.234 4.22-14.439 2.253-1.947-1.738 5.762-6.854 10.081-9.498 1.258-.77 1.905-2.55 1.404-3.936-.775-2.149-2.185-4.566-4.205-5.367-2.17-.86-6.91-.816-8.757-.625a3.5 3.5 0 0 0-2.75 1.911c-1.265 2.498-3.826 7.116-5.388 6.923-1.544-.191-1.276-4.665-1.008-7.135.077-.71-.648-1.236-1.31-.95l-6.828 2.986a2.267 2.267 0 0 0-1.354 1.757c-.575 3.975-2.58 16.14-5.706 17.025-2.968.841-4.988-6.79-5.796-9.331-.198-.622-.853-.803-1.395-.438-5.903 3.975-8.161 12.226-8.161 12.226s6.23 20.47 2.875 20.351c-3.48-.124-9.249-12.923-9.249-12.923l-5.608 6.885s1.602 9.533 8.28 13.77c6.678 4.237 33.39 7.415 33.39 7.415l22.17-25.158s-10.15 2.649-9.883-.793c.216-2.784 9.51-5.74 13.063-6.77a2.338 2.338 0 0 0 1.661-1.839M260.121 399.363c-2.36-.327-4.185-1.226-4.076-2.008.108-.783 2.11-1.152 4.47-.826 2.36.327 4.184 1.226 4.076 2.009-.11.782-2.11 1.152-4.47.825m11.191-14.272a.972.972 0 0 0-1.272 1.111c.518 2.55 1.266 7.148-.123 6.974-1.484-.185-4.838-5.829-6.275-8.363a2.347 2.347 0 0 0-2.144-1.193c-1.721.078-4.738.37-7.877 1.416-2.662.886-4.32 2.32-5.199 3.288a.97.97 0 0 0 .307 1.527c2.084.992 6.34 3.19 5.611 4.283-.7 1.049-4.976 1.332-7.233 1.408a.974.974 0 0 0-.87 1.337l2.054 5.13a.983.983 0 0 0 1.091.594c12.77-2.323 16.222 1.587 16.222 1.587l14.378-2.395.959-12.21c-2.863-2.02-7.265-3.684-9.629-4.494"/>
                <path fill="#646D9F" d="M364.63 414.666c-1.253 1.91-2.947 3.015-3.784 2.467-.837-.548-.5-2.54.755-4.451 1.253-1.91 2.947-3.015 3.784-2.468.837.548.499 2.541-.754 4.452m49.204-13.143c-.876-1.751-3.98-3.585-6.515-4.85a5.978 5.978 0 0 0-6.395.668c-4.101 3.263-11.347 8.795-12.45 8.06-1.226-.818 4.653-8.41 7.176-11.564a.937.937 0 0 0-.654-1.518l-6.73-.593a.917.917 0 0 0-.574.129c-5.13 3.226-11.441 18.694-15.003 17.424-3.182-1.136.47-12.258 1.988-16.482a.937.937 0 0 0-1.095-1.228l-6.853 1.564a.936.936 0 0 0-.676.6c-.921 2.632-5.5 15.138-9.667 16.063-2.153.477-1.52-6.552-1.063-10.13.1-.79-.773-1.336-1.444-.903l-6.62 4.28a.937.937 0 0 0-.43.815c.091 3.028.37 18.14-3.123 18.606-3.004.4-4.303-6.636-4.737-9.835a.938.938 0 0 0-1.469-.639l-3.529 2.468a.938.938 0 0 0-.396.684l-.478 5.253 10.092 18.614 37.004-5.945s-8.721-6.636-5.175-9.825c2.341-2.105 19.93.656 23.263 1.203.34.055.676-.08.888-.352l2.295-2.947a.938.938 0 0 0-.57-1.5c-1.478-.283-3.431-.851-3.103-1.833.356-1.069 5.015-2.015 7.876-2.5a5.343 5.343 0 0 0 3.575-2.327c2.085-3.16 5.718-9.211 4.592-11.46"/>
                <path fill="#535785" d="M179.871 430.047s.678-11.522-6.53-24.196c-.32-.56.077-1.268.722-1.25 2.638.068 8.394 1.787 11.38 14.672l-5.572 10.774zM168.189 437.947s-5.836-19.403-16.536-30.525c-13.3-13.827-29.296-20.112-29.296-20.112s2.876-1.975 8.088-1.077c3.869.667 7.729 1.975 11.503 1.975 5.212 0 12.574.979 17.614 5.208 8.986 7.541 7.728 17.238 11.143 21.009 3.415 3.77 5.872 7.581 6.47 11.671 1.079 7.362-2.156 13.108-2.156 13.108l-6.83-1.257z"/>
                <path fill="#535785" d="M146.441 435.074s-8.208-6.943-23.665-6.584c-12.57.292-18.998 1.733-20.96 2.26a.325.325 0 0 1-.378-.457c.803-1.65 3.361-5.952 8.697-7.25 6.65-1.615 7.549-.359 9.706-1.077 2.157-.718 7.728-4.848 13.84-4.848 6.11 0 17.793 3.053 26.96 11.851 9.165 8.799 10.963 10.415 10.963 10.415l-25.163-4.31z"/>
                <path fill="#646D9F" d="M166.032 438.666s-5.79-3.177-8.987-6.225c-2.636-2.514-4.193-5.986-10.065-6.345-4.073-.249-10.544-.239-16.296-2.873-5.308-2.431-8.61-8.583-8.673-13.336-.01-.648.533-1.165 1.18-1.154 1.554.027 4.621.194 8.692.963 8.866 1.676 21.568-1.436 29.956 4.31 8.17 5.597 7.069 10.534 9.705 14.006 2.013 2.65 5.631 6.823 6.59 10.414l-12.102.24z"/>
                <path fill="#E09595" d="M231.095 400l-1.917-.839s.172 2.77.12 3.367c-.09 1.033-1.438 1.796-1.438 1.796l.27 2.02 2.965-6.344z"/>
                <path fill="#9294A5" d="M132.602 538.503s-3.283-4.33-5.752-12.69c-4.313-14.604-3.834-30.884-5.751-43.334-1.917-12.45-11.503-46.926-11.503-46.926s22.526-8.14 59.91 2.394l156.129 1.078s30.914-14.365 63.265-10.056c0 0-1.897 23.207-13.54 54.468-11.502 30.885-15.097 33.28-14.378 36.391.72 3.113 1.997 3.272 2.636 6.465.959 4.788-.24 7.421-.72 9.337-1.047 4.187 1.14 6.956 2.398 8.14 8.387 7.9 7.1 12.63 7.1 12.63l-62.398 2.214-177.396-20.111z"/>
                <path fill="#3F3848" d="M213.721 377.973s9.226.24 12.582 5.267c3.355 5.028 1.677 11.971 1.557 13.169-.215 2.146-.315 3.993 1.438 6.823 3.115 5.028 5.512 6.584 7.429 13.647.753 2.774-3.146 7.314-5.751 8.978-7.31 4.669-14.5 6.823-14.5 6.823l-2.755-54.707z"/>
                <path fill="#E09595" d="M224.625 417.971s-2.277.883-4.733 1.541c-.246.066-.374.141-.539 1.167-.3 1.856-.816 4.083-.39 4.16 1.318.24 7.639-2.035 12.792-4.788 0 0 2.575 9.278-4.254 15.502-6.83 6.225-19.172 9.697-19.172 9.697l-6.23-35.315 22.526 8.036z"/>
                <path fill="#FFAEAE" d="M283.128 418.914l6.02-1.616-1.257-7.452-12.042 4.758zM204.615 411.013s2.648 5.271 8.627 7.182c2.995.958 9.346.839 11.982-.479 6.475-3.234 1.342-19.686-.36-23.582-2.875-6.584-6.35-11.372-8.507-11.851-3.166-.703-12.425 8.13-12.581 18.554-.12 8.021.839 10.176.839 10.176M163.696 457.82s2.456-5.328 6.41-11.493 9.167-10.055 14.139-10.714c4.973-.659 11.982-.36 20.37 5.447 8.387 5.806 9.885 7.003 9.885 7.003s-8.388 15.323-28.218 16.819c-19.83 1.496-22.586-7.063-22.586-7.063M151.294 482.48s-3.938 7.99-5.871 17.237c-1.678 8.021-1.079 10.535.6 11.133 1.676.598 7.104-1.765 11.621-6.584 7.07-7.542 12.941-19.752 12.941-19.752l-19.291-2.035z"/>
                <path fill="#E09595" d="M218.873 499.897s10.765-1.659 14.739-2.694c4.133-1.077 11.502-1.795 23.005-16.879 3.777-4.952 9.346-15.622 9.346-15.622l-23.904-8.08s-8.807 14.545-12.761 21.009c-2.385 3.9-2.157 2.155-11.143 4.31-8.987 2.154-15.637 4.13-15.637 4.13l16.355 13.826z"/>
                <path fill="#E1E5F3" d="M241.4 457.58l19.411 8.14s1.918 6.704 4.553 12.689c2.636 5.986 3.355 27.293 3.355 27.293l67.82 13.408 18.691-46.207s2.397-20.83.96-31.125c-1.704-12.193-7.909-16.52-16.297-19.153-4.844-1.521-22.047-5.986-22.047-5.986s-10.724 19.154-23.245 29.448c0 0-6.71-8.858-11.503-27.293 0 0-17.734 5.267-21.807 7.661-4.075 2.394-10.114 5.994-13.9 15.323-3.595 8.859-5.991 15.801-5.991 15.801"/>
                <path fill="#FFAEAE" d="M331.326 469.61s-4.913 12.51-5.991 19.154c-1.079 6.644-2.396 7.182-5.272 7.182-2.876 0-12.402.18-21.388 1.976-8.987 1.795-14.742 1.7-19.77 1.436-3.416-.18-8.628-3.95-14.38-6.105-3.939-1.476-6.47 0-9.166 1.796-1.638 1.091-5.212 2.154-7.549 3.95-2.615 2.01-3.494 3.348-3.494 3.348l92.821 16.763s4.673.898 6.83-2.514c2.157-3.411 6.47-17.417 8.088-26.036 1.618-8.62 3.235-17.777 3.235-17.777l-11.443-2.933-12.52-.24zM263.178 426.904s8.447-4.16 19.95-7.99l-1.109-4.729s-5.93.838-9.645 1.078c-6.117.394-11.263.239-11.263.239l2.067 11.402z"/>
                <path fill="#E09595" d="M260.93 415.502l1.559 2.634 16.176-3.293z"/>
                <path fill="#D2D8EE" d="M331.46 465.402c-.134.906-.386 2.957-.498 3.872a.413.413 0 0 0 .4.466c1.514.039 6.581.213 12.066.888 5.47.673 10.273 1.93 11.719 2.329a.387.387 0 0 0 .488-.339l.396-4.051a.496.496 0 0 0-.337-.52c-1.273-.42-5.674-1.77-11.547-2.447-5.872-.677-10.755-.66-12.186-.637a.512.512 0 0 0-.5.44M260.81 465.72l-.898-5.566-16.895-7.123-1.617 4.548z"/>
                <path fill="#FFAEAE" d="M225.416 397.232s-.987-2.872 1.313-2.525c2.018.304 5.207.955 6.617 1.325 1.296.339 2.701.726 2.256 2.97-.351 1.767-1.314 5.638-1.871 7.821-.133.524.057.932.589 1.039 1.545.309 3.593.22 5.89.056 5.264-.376 9.985-2.209 18.744-4.207 8.07-1.842 15.773-2.71 21.146-3.177 10.794-.938 7.67 11.915 7.67 11.915s-4.687 2.108-12.491 2.672c-10.295.744-14.006.526-21.187.112-7.182-.415-12.301-1.002-16.185-.635-3.729.352-4.654.898-6.77.345-2.114-.554-3.395-1.03-4.413-3.047-1.02-2.017.762-8.345.762-8.345l-2.07-6.32z"/>
                <path fill="#3F3848" d="M307.661 398.892s2.247 6.69 3.146 6.914c1.95.487 3.235-.898 3.954-3.592.719-2.693.09-3.411.09-3.411l-7.19.09z"/>
                <path fill="#2B5393" d="M263.354 426.8c-.05.348-.246.661-.537.862-1.977 1.37-9.888 6.97-11.771 10.106-2.157 3.59-3.09 8.71-2.577 12.988.36 2.993 2.157 8.739-1.797 15.323-2.746 4.573-7.848 6.344-8.747 7.78-.899 1.437-1.977 6.824-6.83 11.672-3.419 3.417-5.571 3.592-7.01 8.08-1.76 5.498-.179 9.697 2.337 14.725l8.088 23.164-42.776 14.544-41.339-20.11s-3.088-11.483 14.379-25.14c4.134-3.232 15.989-6.24 17.254-11.492.779-3.232.36-7.661-.06-11.133-.152-1.26-1.258-2.813-3.235.24-1.977 3.052-3.355 5.506-7.848 7.302-4.908 1.962-14.199 3.77-20.31-.898-6.11-4.668-2.574-10.348-.719-12.27 3.235-3.352 7.929-6.853 10.185-10.175 2.276-3.352 3.292-5.565 3.764-6.245.223-.32.69-.444.988-.19 1.358 1.168 3.988 2.302 8.069 2.664 4.654.414 11.257-.685 21.927-5.567 12.821-5.866 26.109-17.367 28.578-19.752 5.153-4.976 6.585-9.352 7.8-13.02a1.47 1.47 0 0 1 .644-.8c1.39-.833 5.619-3.188 9.889-3.777 5.212-.718 19.41-.18 19.41-.18s3.44 3.094 2.244 11.298"/>
                <path fill="#19437F" d="M171.065 461.8c5.402.506 12.464.305 24.848-5.672 14.878-7.181 27.423-18.67 30.33-21.548 6.65-6.584 7.149-12.237 8.537-16.654-1.348.629-2.024.965-2.97 1.532a1.469 1.469 0 0 0-.643.799c-1.215 3.67-2.796 8.164-7.95 13.142-2.47 2.384-15.757 13.856-28.577 19.722-10.671 4.881-17.123 5.89-21.778 5.476-4.081-.363-6.71-1.496-8.07-2.663-.296-.255-.764-.132-.987.189-.373.537-.439.768-1.588 2.832 1.685 1.274 4.574 2.444 8.848 2.844M224.991 475.297a6.506 6.506 0 0 0-2.044-.24c-4.13.197-8.447 1.736-11.263 3.352-2.78 1.596-4.666 3.717-10.784 4.07-4.673.27-8.447-1.257-11.233-3.86-.643-.602-3.902-4.235-8.074-7.754-1.452-1.225-2.018-.37-2.018-.37-1.921 2.558-2.759 6.059-3.657 7.854-3.979 7.95-15.984 8.617-25.86 6.047.165.14.336.28.517.417 6.111 4.67 15.402 2.86 20.31.898 4.493-1.795 5.87-4.25 7.848-7.302 1.977-3.053 3.083-1.5 3.235-.24.03.24.824 4.22.307 9.786.562 1.572 2.45 6.286 2.45 6.286l19.275.762s.315-1.032.36-2.334c-4.847-.246-9.3-1.122-9.3-1.122s4.103.21 8.237-1.406c5.665-2.215 7.908-5.387 10.784-7.662 2.09-1.654 6.477-4.486 10.82-5.321.984-.19 1.055-1.596.09-1.861M155.188 510.401s13.36-5.656 28.338-6.374c-15.217 4.908-16.865 9.74-16.865 9.74l39.451-.223-36.665 6.464-18.872 6.823s-2.307-6.943 4.613-16.43"/>
                <path fill="#E09595" d="M176.546 493.702c1.079-3.112 2.433-6.525 3.236-8.53.719-1.795 3.108-2.263 4.822-1.017 1.319.958 2.278 1.515 3.51 2.64.498.455 1.198 1.49 1.044 3.346-.12 1.436.149 3.232-1.319 3.232-2.995 0-8.417.449-11.293.329M70.414 551.252c-3.775 1.131-6.11 3.412-8.088 5.028-1.977 1.616-2.706 4.744.36 4.489 4.313-.36 13.992-.542 23.185-.718 9.346-.18 19.77-1.976 33.97-2.155 14.199-.18 35.767 2.155 55.357.718 19.591-1.436 25.163-2.873 25.163-2.873l-.54-19.213-78.183 8.44s-7.01 1.436-10.784-.719c-3.774-2.155-4.313-5.926-10.424-4.31-6.714 1.776-8.653 5.445-15.457 8.08-8.807 3.413-10.964 2.156-14.559 3.233"/>
                <path fill="#D2D8EE" d="M110.165 543.815c-3.177-2.184-4.017-5.388-9.736-3.876-6.713 1.776-8.651 5.445-15.457 8.08-8.807 3.412-10.963 2.155-14.558 3.233-3.775 1.132-6.11 3.411-8.088 5.027-1.977 1.616-2.706 4.745.36 4.49 4.313-.36 13.993-.541 23.185-.719 3.91-.074 8.014-.433 12.498-.837.09-7.416 4.431-13.983 11.796-15.398"/>
                <path fill="#FFAEAE" d="M102.586 554.125s-4.493.539-11.862 4.848c-7.369 4.31-12.042 7.183-16.535 12.57-4.494 5.387-7.696 10.028-4.134 12.57 2.516 1.795 14.199-1.078 22.466-7.004 8.268-5.925 16.356-13.467 18.513-15.263 2.157-1.795 4.017-2.805 8.088-4.489 5.212-2.155 7.728-3.232 19.231-5.925 9.355-2.191 22.287-2.694 32.891-5.028 10.605-2.335 20.49-5.028 20.49-5.028s5.302-7.003-.72-14.186c-4.983-5.945-13.659-8.439-21.567-7.182-7.908 1.257-23.545 5.926-35.767 14.185-12.222 8.26-21.568 15.443-31.094 19.932"/>
                <path fill="#E1E5F3" d="M94.858 565.976c-2.337-3.052 2.516-7.362 7.832-11.901-.034.016-4.597.589-11.966 4.898-7.369 4.31-12.042 7.183-16.535 12.57-4.494 5.387-7.696 10.028-4.134 12.57 2.516 1.795 14.199-1.078 22.466-7.004 6.167-4.42 12.23-9.736 15.81-12.898-5.026 2.663-11.764 3.998-13.473 1.765"/>
                <path fill="#42426C" d="M143.026 570.824l11.863 16.88s12.756-7.557 20.849-11.852c11.503-6.105 26.24-12.21 34.508-16.52l99.572-.718s11.253-.14 15.817-8.619c6.83-12.69 11.053-30.975 11.053-30.975s-69.116-13.608-90.495-16.789c-16.895-2.514-23.725 6.464-35.587 16.16-33.858 27.676-67.58 52.433-67.58 52.433"/>
                <path fill="#2B2B51" d="M173.221 630.08l20.13 8.979s7.19-11.852 13.66-20.112c6.47-8.26 21.448-25.498 26.121-31.244 4.673-5.746 13.3-16.34 14.858-27.832l50.325-1.257s-16.895-8.978-25.162-14.365c-8.268-5.387-23.206-15.787-30.555-17.238-9.705-1.916-17.614-.36-23.006 10.415l-46.37 92.654z"/>
                <path fill="#FFAEAE" d="M144.704 505.822s-1.936 6.326 5.392 5.387c9.346-1.197 22.615-4.803 28.637-6.105 8.867-1.915 20.25-5.148 24.084-4.668 3.112.388 20.472 7.418 20.472 7.418l2.35-1.58s-2.34-4.357-4.728-6.677c-4.314-4.19-5.518-6.363-14.02-6.703-2.995-.12-5.631-.48-9.346-.36-.965.032-10.304.839-23.724.48-12.385-.332-17.734.718-17.734.718l-11.383 12.09z"/>
            </g>
            <g transform="translate(203.416 381.879)">
                <mask id="bN" fill="#fff">
                    <use xlink:href="#bL"/>
                </mask>
                <path fill="url(#bM)" d="M.36 18.959a84.4 84.4 0 0 0 .005 2.946 50.832 50.832 0 0 0 24.62 6.745c.114-6.059-2.434-13.868-3.537-16.395C18.572 5.67 15.098.883 12.94.405a1.74 1.74 0 0 0-.38-.04C9.092.365.51 8.925.358 18.959" mask="url(#bN)"/>
            </g>
            <g>
                <path fill="#3F3848" d="M167.23 450.996s-3.13-3.083.24-9.412c2.041-3.835 4.673-6.869 8.447-10.594 2.355-2.326 7.61-5.612 8.208-15.308.599-9.697-.58-17.976 4.314-26.815 3.115-5.626 8.627-11.372 16.055-12.69 4.978-.882 7.909.719 10.306 2.036 2.398 1.317 2.755 3.351.119 8.38-2.636 5.027-8.867 10.773-9.586 18.555-.363 3.94-.359 7.541 2.517 15.92 2.875 8.38 3.961 17.48 1.677 22.446-3.055 6.644-9.526 7.721-15.996 4.848-4.074-1.81-6.604-5.954-11.054-7.81-3.55-1.482-8.166-.016-10.694 3.38-2.56 3.442-4.553 7.064-4.553 7.064"/>
                <path fill="#19437F" d="M250.675 438.295l4.237-9.374s-3.328 1.704-4.317 4.828c-.99 3.125.08 4.546.08 4.546M213.055 473.616s11.093-4.326 16.98-6.114c.454-.138.36-.808-.115-.814-2.294-.032-5.763.192-8.865 1.497-4.274 1.8-8 5.431-8 5.431M229.415 432.71l7.729-8.66s1.62 4.56-7.73 8.66"/>
            </g>
            <g transform="translate(281.06 397.68)">
                <mask id="bQ" fill="#fff">
                    <use xlink:href="#bO"/>
                </mask>
                <path fill="url(#bP)" d="M5.437 9.801s.82 3.582 1.079 6.644c.314 3.74-5.977 5.327-5.977 5.327l10.245 27.713 1.02.42c.966.087 1.938.142 2.92.165L34.27 29.493l2.562-10.474C30.869 17.074 30.285.404 30.285.404L5.437 9.8z" mask="url(#bQ)"/>
            </g>
            <g>
                <path fill="#D2D8EE" d="M278.604 420.53s3.775 17.178 13.151 30.406l5.002.18s14.738-11.612 26.271-33.1c0 0-3.535-.958-5.182-1.377-12.521 21.443-23.246 29.448-23.246 29.448s-6.575-8.634-11.502-27.293c-1.977.718-4.494 1.736-4.494 1.736"/>
                <path fill="#3F3848" d="M281.9 381.684s-.396-3.025.719-9.337a60.855 60.855 0 0 1 3.354-11.732c2.876-7.182 10.216-9.975 17.375-5.985 11.383 6.345 19.53 6.704 22.646 17.238 2.276 7.698 1.677 14.605-7.908 25.139-1.794 1.971-2.644 2.817-3.176 4.594-.509-.195-33.01-19.917-33.01-19.917"/>
                <path fill="#FFAEAE" d="M286.408 366.93s-3.25 5.254-5.347 16.43c-3.236 17.238-2.337 24.241 1.079 25.678 3.325 1.399 11.25 1.689 17.253-.719 4.046-1.622 7.54-5.52 8.987-7.182 0 0 6.83-6.464 9.167-13.467 2.336-7.003-.129-14.006-8.088-19.393-5.572-3.771-19.456-5.836-23.051-1.347"/>
            </g>
            <g transform="translate(278.904 363.922)">
                <mask id="bT" fill="#fff">
                    <use xlink:href="#bR"/>
                </mask>
                <path fill="url(#bS)" d="M7.788 2.44S4.255 8.26 2.157 19.436C-1.078 36.675-.18 43.678 3.235 45.116c.429.18.934.342 1.501.482 11.248-7.3 18.689-19.962 18.689-34.36 0-3.545-.45-6.985-1.3-10.266-2.359-.56-4.817-.894-7.053-.894-3.199 0-5.94.683-7.284 2.361" mask="url(#bT)"/>
            </g>
            <g>
                <path fill="#3F3848" d="M286.543 366.212s.745 2.33 4.583 3.905c5.032 2.066 11.383 3.292 14.124 3.831 4.95.973 6.44 2.242 6.845 4.025.458 2.014-.155 2.978-1.199 6.105-.958 2.873-2.036 7.662-.718 8.14.78-.808 1.728-2.034 4.852-2.753 3.125-.718 3.236 1.975 3.236 1.975l3.175-7.122s3.603-13.946-10.065-19.153c-13.668-5.208-23.115-1.736-23.115-1.736l-1.718 2.783z"/>
                <path fill="#FFAEAE" d="M317.106 395.353c-5.522 6.814-7.28 2.595-8.906 3.894-1.784-1.5.565-6.212 3.168-9.304 2.603-3.09 5.362-3.555 7.146-2.055 1.784 1.5 1.137 4.324-1.408 7.465"/>
                <path fill="#FFF" d="M327.459 246.998c-4.914-.02-7.523-2.373-7.502-7.55a2.876 2.876 0 0 1-.194-.001c-.02 5.177-2.69 7.508-7.562 7.489a.57.57 0 0 0 .003.193c4.867.022 7.517 2.628 7.498 7.55.061.006.134.017.193.001.02-4.923 2.648-7.505 7.556-7.488l.008-.194M165.04 337.917c-4.914-.02-7.522-2.373-7.501-7.55a3.477 3.477 0 0 1-.194-.001c-.021 5.177-2.69 7.508-7.563 7.49a.56.56 0 0 0 .004.192c4.867.022 7.518 2.628 7.497 7.55.062.006.136.017.194.001.02-4.923 2.648-7.505 7.555-7.488 0 0 .006-.1.008-.194M370.834 327.532c-4.914-.02-7.522-2.373-7.502-7.55a2.873 2.873 0 0 1-.193-.001c-.022 5.177-2.69 7.509-7.563 7.49-.016.116.003.192.003.192 4.868.022 7.518 2.628 7.498 7.55.061.006.135.017.194.001.02-4.922 2.647-7.505 7.555-7.488 0 0 .006-.1.008-.194"/>
                <path fill="#D2D8EE" d="M277.107 224.626c0 15.074-12.231 27.294-27.32 27.294-15.088 0-27.319-12.22-27.319-27.294s12.231-27.294 27.32-27.294c15.088 0 27.319 12.22 27.319 27.294"/>
                <path fill="#E1E5F3" d="M273.282 224.626c0 12.964-10.519 23.472-23.495 23.472s-23.494-10.508-23.494-23.472c0-12.964 10.518-23.473 23.494-23.473 12.976 0 23.495 10.51 23.495 23.473"/>
                <path fill="#FFF" d="M265.341 242.342c-7.477 6.52-18.594 7.808-27.557 2.423-9.286-5.58-13.323-16.557-10.508-26.496 7.118 4.71 26.864 17.378 38.065 24.073"/>
                <path stroke="#C3CBE8" stroke-linecap="round" stroke-linejoin="round" stroke-width="3" d="M266.374 234.861l-16.645-10.415v-15.66"/>
                <path fill="#FFF" d="M271.382 212.162c-4.914-.02-7.523-2.373-7.502-7.55a2.876 2.876 0 0 1-.193 0c-.021 5.177-2.69 7.508-7.563 7.489a.57.57 0 0 0 .003.193c4.868.021 7.518 2.627 7.498 7.55.062.006.135.017.194 0 .02-4.922 2.648-7.504 7.555-7.488 0 0 .006-.099.008-.194"/>
            </g>
        </g>
    </g>
</svg>
