<svg xmlns="http://www.w3.org/2000/svg" xmlns:xlink="http://www.w3.org/1999/xlink" width="373" height="560" viewBox="0 0 373 560">
    <defs>
        <rect id="a" width="373" height="560" rx="4"/>
        <path id="c" d="M.35.552h394.5V390H.35z"/>
        <path id="e" d="M.514 4.276c.08.139 26.033 13.206 20.286 76.185-3.913 42.873-15.23 84.197-2.705 102.595 15.214 22.347 45.526-1.165 52.236-13.205.41-.738.507-1.638-.057-1.976-.324-.194-.957-.31-1.817.842-14.135 18.928-39.12 28.39-47.657 11.292-8.79-17.607-1.69-39.955 4.396-100.225C31.676 15.59 3.893 1.128 3.556.553L.515 4.276z"/>
        <linearGradient id="f" x1="-15.384%" x2="69.436%" y1="4.016%" y2="100.061%">
            <stop offset="0%" stop-color="#E1E4F2"/>
            <stop offset="100%" stop-color="#B3BDE2"/>
        </linearGradient>
    </defs>
    <g fill="none" fill-rule="evenodd">
        <mask id="b" fill="#fff">
            <use xlink:href="#a"/>
        </mask>
        <g mask="url(#b)">
            <g transform="translate(72 244)">
                <mask id="d" fill="#fff">
                    <use xlink:href="#c"/>
                </mask>
                <path fill="#F0F2F9" d="M83.53 205.258c-8.85-2.107-29.639-9.53-37.775-33.701 0 0-39.84-11.829-44.904-50.693-4.466-34.27 22.217-52.175 28.36-60.494 11.48-15.546 9.791-25.01 22.959-40.555C60.837 9.582 72.764.552 88.633.552c11.943 0 14.745 8.82 12.83 13.856-2.702 7.097-8.364 6.047-9.514 3.721-.688-1.392-2.125-2.514-5.005-2.37-6.752.338-8.44 8.111-4.726 11.829 4.726 4.731 11.479 3.042 16.543 0 4.032-2.422 32.412-22.305 60.097-18.25 27.685 4.056 39.932 12.821 56.72 36.5 14.855 20.953 36.512 23.53 49.63 19.263 13.505-4.393 27.252-20.207 16.881-29.402-6.905-6.122-13.348-4.052-17.512-1.272-2.491 1.663-5.712-.486-5.108-3.422.651-3.171 2.518-6.61 7.09-8.824 10.466-5.07 19.582.338 23.97-2.366 4.39-2.704 6.038-11.508 20.933-15.546 8.44-2.288 14.68-1.368 18.725.039 2.049.713 1.993 3.603-.075 4.257-2.494.79-5.097 2.009-6.158 3.815-3.376 5.745 5.84 6.045 10.129 8.449 8.44 4.731 23.47 16.362 22.958 50.693-.338 22.643-8.778 35.823-16.206 43.596-7.428 7.773-17.556 8.45-25.659 13.18-16.664 9.73-15.868 16.56-24.309 19.602-8.44 3.041-16.206-.676-16.206-.676s-7.765 10.139-24.308 11.49c-16.208 1.325-19.245-9.462-40.177-6.759-13.794 1.781-22.62 9.463-22.62 9.463s9.453.676 15.868 6.76c6.414 6.082 4.051 16.221 4.051 16.221s4.92 4.863 9.791 1.014c5.453-4.309 10.905-4.712 16.565-3.075 1.849.535 3.83-.135 5.068-1.61 3.633-4.328 12.062-12.86 25.071-17.282 14.457-4.915 44.618-11.59 72.926 7.21 35.113 23.319 32.975 57.34 39.052 72.547 4.323 10.82 16.575 29.205 18.569 49.567 2.25 22.98-7.203 37.85-19.807 47.764-17.316 13.618-35.418 4.668-48.393 15.884-12.379 10.702-30.385 12.504-56.382 5.745-20.577-5.35-32.496-5.541-45.917 3.042-12.154 7.773-20.557 28.107-49.967 24.333-26.335-3.38-28.023-22.981-39.164-25.685-11.142-2.704-41.77-.316-44.566-31.768-2.814-31.655 26.261-46.985 37.138-51.707 18.99-8.245 38.6-3.918 49.268-.273 2.508.857 4.79-1.798 3.565-4.15-3.47-6.666-7.23-16.727-4.553-25.655 5.064-16.898 18.906-27.036 12.83-30.754-6.078-3.717-17.059 15.195-32.75 23.32-19.582 10.138-26.672 3.717-36.8 8.448-7.273 3.397-29.374 4.731-36.801-12.504-5.555-12.89-.303-24.114 3.004-29.432a2.742 2.742 0 0 0-1.692-4.12" mask="url(#d)"/>
            </g>
            <path fill="#D2D8EE" d="M341.766 449.437s-35.918-14.275-37.279-14.842c-.485-.202-.41-.485-.197-.817.17-.265.385-.532.509-.68a.24.24 0 0 1 .247-.077l42.347 10.81-5.627 5.606zM271.288 509.001c-2.784.542-10.522 3.413-15.447 9.8-3.302 4.283-3.146 10.19.634 13.688 4.286 3.967 10.118 2.652 13.462.338 4.642-3.21 9.318-8.008 11.562-12.275 1.562-2.972 1.914-8.34-.82-10.4-2.788-2.1-6.513-1.711-9.391-1.15"/>
            <path fill="#E1E5F3" d="M271.991 526.18c-.315-5.102-5.29-9.068-10.185-9.124-5.386-.062-8.834 4.168-8.271 9.519.439 4.18 4.03 8.112 8.55 8.42 7.88.536 10.145-4.942 9.906-8.814"/>
            <path fill="#8697D1" d="M268.711 527.85c.18 3.998-2.982 7.092-7.061 6.91-4.08-.181-7.533-3.571-7.713-7.57-.18-4 2.982-7.093 7.062-6.91 4.08.18 7.533 3.57 7.712 7.57"/>
            <path fill="#E1E5F3" d="M264.834 523.835c.69.944.568 2.21-.275 2.83-.843.616-2.087.351-2.777-.593-.691-.945-.567-2.212.275-2.83.843-.617 2.086-.351 2.777.593"/>
            <path fill="#D2D8EE" d="M350.938 517.506c-2.512 1.636-6.587 4.5-9.37 11.181-2.197 5.278-.468 9.85 3.49 12.673 4.676 3.337 10.66 2.105 14.18-1.858 3.6-4.056 5.992-10.562 5.655-16.307-.197-3.35-1.182-5.463-3.658-6.759-3.267-1.71-7.862-.516-10.297 1.07"/>
            <path fill="#E1E5F3" d="M361.01 535.53c1.013-6.083-3.292-10.138-8.694-11.236-4.42-.899-8.708.859-10.381 3.886-.591 1.098-.953 2.147-1.185 3.463-.855 4.858 2.395 9.802 7.628 11.294 3.289.939 8.159-.028 10.86-3.435.888-1.121 1.49-2.27 1.772-3.971"/>
            <path fill="#8697D1" d="M358.082 537.127c-.425 4.263-4.569 6.828-9.142 5.923-4.573-.904-7.99-4.9-7.419-9.198.565-4.246 4.455-6.863 9.05-6.08 5.206.887 7.937 5.092 7.511 9.355"/>
            <path fill="#E1E5F3" d="M353.214 533.73c-.69.989-2.116 1.184-3.187.436-1.07-.747-1.38-2.154-.69-3.143.69-.989 2.116-1.185 3.186-.437 1.07.747 1.38 2.155.69 3.144"/>
            <path fill="#D2D8EE" d="M281.923 519.647c-3.208-1.606-1.604-5.323-4.896-7.013-19.99-9.398-85.519-39.846-86.853-40.47-.95-.443-1.604-1.242-1.782-2.253-.106-.602-1.702-15.131-2.175-20.153-.051-.536.328-1.195.75-1.898.2-.336.442-.285.506-.029.563 2.253 4.22 17.954 4.445 18.813.299 1.138.972 1.638 2.195 2.028 1.238.394 82.492 26.135 87.612 27.262 3.655.803 18.063 3.041 18.063 3.041s-15.587 18.39-17.865 20.672"/>
            <path fill="#C3CBE8" d="M281.923 519.647c.47-.471 1.514-1.637 2.866-3.178a153.851 153.851 0 0 0-7.742-3.822c3.262 1.694 1.676 5.398 4.876 7"/>
            <path fill="#E1E5F3" d="M265.38 569.833c-3.157-2.764-3.63-9.125-1.098-23.488 1.477-8.38 6.007-17.497 10.635-23.741 3.883-5.239 44.52-53.712 61.616-69.534 8.947-8.28 15.285-10.807 17.359-11.66 2.054-.845 3.024.197 3.404 1.605 2.532 9.379 1.35 29.149-6.246 40.808-13.886 21.314-38.807 54.004-49.461 67.507-16.6 21.038-33.509 20.869-36.21 18.503"/>
            <path fill="#F0F2F9" d="M269.346 551.583c1.582-9.176 7.274-19.33 12.228-26.168 4.157-5.737 46.906-59.012 65.208-76.34 3.344-3.166 5.008-6.012 7.595-7.833a4.524 4.524 0 0 0-.485.168c-2.074.853-8.412 3.38-17.36 11.66-17.096 15.822-57.732 64.295-61.615 69.534-4.628 6.244-9.158 15.361-10.635 23.741-2.532 14.363-2.059 20.724 1.097 23.488.273.24 1.573.153 2.11.338.208-3.348.253-9.28 1.857-18.588"/>
            <path fill="#D2D8EE" d="M316.444 532.067s-1.435-1.944 6.077-12.42c3.468-4.836 11.42-13.68 14.265-16.053.506-.423 1.011-.706 2.279-.76 7.85-.339 14.518-.085 21.27-.423 8.106-.406 118.904-14.42 119.686-14.532 1.182-.17 2.617-.93 3.461-2.45.661-1.193 6.58-14.716 7.554-17.003.183-.43.37-.17.38.084.028.704-.028 2.133-.366 3.147-.671 2.016-6.264 16.037-7.259 17.687-.984 1.633-2.165 2.293-4.107 2.675-44.228 8.702-137.496 27.205-150.241 29.74-1.396.278-2.786 3.21-6.33 5.914-3.766 2.871-6.669 4.394-6.669 4.394"/>
            <path fill="#C3CBE8" d="M316.444 532.067s2.903-1.523 6.668-4.394c3.02-2.302 4.748-5.217 6.14-5.85-3 .554-6.373 1.126-9.347 1.647-4.45 7.03-3.46 8.597-3.46 8.597"/>
            <path fill="#D2D8EE" d="M340.584 453.407c.929-1.774 2.742-5.034 4.22-10.307 1.48-5.274 8.722-49.285 8.722-49.285.258-1.991.707-2.883 1.689-3.943l1.472-1.568c.092-.1.259-.03.253.107l-2.512 53.68c-.111.735-.452 1.629-.845 2.192 0 0-5.571 6.759-9.454 10.138-.72.628-2.279 1.86-3.714 1.521-.744-.175-.587-1.089.17-2.535M356.963 445.15s-.68 3.695-.609 4.623c.03.392.172.842.605.762l52.471-9.576c.75-.188 1.336-.547 1.717-.929.434-.435.9-.873 1.166-1.2.063-.078-.03-.192-.131-.18l-54.717 6.14a.6.6 0 0 0-.502.36"/>
            <path fill="#C3CBE8" d="M269.206 551.668c1.125.62 2.78.916 4.473.76 2.757-.253 7.04-.823 10.909-1.826.699-.182 1.39-.711 1.808-1.3.56-.79 1.194-1.69 1.477-2.5.175-.498.233-1.048-.147-1.412-.463-.44-1.082-.704-1.589-1.014-.52-.319-.975-.503-1.575-.384-3.545.7-7.639 1.486-10.18 1.733-1.153.113-2.194-.027-3.179-.534-1.494-.77-4.727-2.563-5.908-3.24-.676 2.535-.97 4.131-1.35 6.366.633.464 3.544 2.406 5.26 3.35"/>
            <path fill="#E1E5F3" d="M360.504 510.353l1.857 4.88 111.583-22.073-1.787-2.484a1.33 1.33 0 0 0-1.32-.533l-110.333 20.21zM270.443 503.087l-4.22 4.499-73.411-34.197 2.34-2.151a1.59 1.59 0 0 1 1.697-.271l73.594 32.12z"/>
            <path fill="#C3CBE8" d="M352.963 521.562c-1.48-.256-.478-4.281.535-6.816 1.032-2.583 2.097-3.703 3.18-3.661 1.462.057 2.644 3.548 1.969 5.238-1.131 2.83-4.052 5.52-5.684 5.239M265.295 514.352c-.602-.184-1.028-1.34 1.688-4.844 2.532-3.267 4.44-5.151 5.683-4.956 1.8.28 1.343 5.625.507 6.533-1.35 1.465-5.853 3.886-7.878 3.267M288.153 521.97c-.615 1.025-1.98 1.491-3.048 1.04-1.067-.45-1.434-1.647-.819-2.672.616-1.026 1.98-1.491 3.048-1.04 1.068.45 1.434 1.647.82 2.672"/>
            <g transform="translate(216 353)">
                <mask id="g" fill="#fff">
                    <use xlink:href="#e"/>
                </mask>
                <path fill="url(#f)" d="M.514 4.276c.08.139 26.033 13.206 20.286 76.185-3.913 42.873-15.23 84.197-2.705 102.595 15.214 22.347 45.526-1.165 52.236-13.205.41-.738.507-1.638-.057-1.976-.324-.194-.957-.31-1.817.842-14.135 18.928-39.12 28.39-47.657 11.292-8.79-17.607-1.69-39.955 4.396-100.225C31.676 15.59 3.893 1.128 3.556.553L.515 4.276z" mask="url(#g)"/>
            </g>
            <g>
                <path fill="#D2D8EE" d="M205.29 396.417l8.26-2.53a.692.692 0 0 1 .879.852l-2.066 8.306-7.073-6.628z"/>
                <path fill="#E1E5F3" d="M211.063 397.753c5.839 5.48.21 19.245-7.932 25.899-8.14 6.654-15.63 4.458-19.957-.85-4.328-5.307-5.495-11.993 2.676-18.61 9.26-7.498 20.501-10.86 25.213-6.439"/>
                <path fill="#FFF" d="M201.508 415.121c2 6.69-1.068 12.246-7.749 12.602-5.5.294-11.014-3.512-13.313-9.39-2.298-5.879 1.524-12.07 7-12.662 6.122-.663 12.203 3.227 14.062 9.45"/>
                <path fill="#FF7E59" d="M197.265 417.478c1.882 4.813-.222 9.152-4.699 9.691-4.477.54-9.632-2.924-11.514-7.738-1.882-4.813.221-9.152 4.698-9.691 4.478-.54 9.633 2.924 11.515 7.738"/>
                <path fill="#E1E5F3" d="M194.167 415.657c.493 1.262-.058 2.4-1.233 2.542-1.174.141-2.526-.768-3.02-2.03-.493-1.262.059-2.4 1.233-2.542 1.174-.141 2.526.767 3.02 2.03M123.2 381.154c4.932 5.216-.686 15.96-10.776 23.33-8.98 6.56-15.196 2.487-18.238-1.74-3.622-5.033-3.863-11.793 4.33-17.168 10.596-6.952 20.539-8.807 24.684-4.422"/>
                <path fill="#FFF" d="M109.672 394.31c3.505 7.468.133 12.07-4.127 13.347-4.094 1.226-9.4-1.047-12.397-6.616-2.939-5.46-.949-11.878 4.267-13.367 4.884-1.394 9.978 1.78 12.257 6.636"/>
                <path fill="#FF7E59" d="M105.53 396.265c3.025 5.335 1.282 9.584-2.192 10.683-3.255 1.031-7.688-1.007-10.083-5.459-2.349-4.364-1.663-9.173 2.5-10.383 3.536-1.028 7.661 1.43 9.775 5.16"/>
                <path fill="#E1E5F3" d="M225.014 310.232l-30.293-20.909c-.464-.296-.549-.972.127-1.21l1.437-.44a.76.76 0 0 1 .52.025l35.972 15.1-7.763 7.434zM123.756 384.912s-68.602-55.25-72.23-58.46c-1.298-1.148-1.477-2.24-1.519-4.013-.07-2.97.42-18.98.478-20.88.014-.465.173-.978.535-1.324.604-.577 1.631-1.493 2.133-1.853.156-.113.374.017.391.209.241 2.703 1.66 18.336 2.482 21.215.27.945.844 1.746 1.575 2.253 2.669 1.849 67.506 34.468 75.606 38.185 3.712 1.703 17.552 5.407 17.552 5.407l-27.003 19.261z"/>
                <path fill="#F0F2F9" d="M249.485 306.43c.738-2.985-2.11-5.153-4.472-4.14-10.43 4.475-23.095 9.82-42.95 23.148-29.703 19.937-93.383 62.853-108.91 75.694-15.526 12.841-24.3 26.583-27.901 43.705-2.346 11.155 4.36 11.46 14.71 10.785 4.049-.264 15.756-1.494 31.643-12.362 13.502-9.237 104.292-76.285 117.01-92.59 15.132-19.403 18.592-35.032 20.87-44.24"/>
                <path fill="#FFF" d="M70.688 449.63c3.879-18.776 13.332-33.846 30.056-47.929 16.725-14.082 85.322-61.147 117.316-83.012 10.863-7.423 19.725-12.586 27.291-16.515-.113.035-.226.068-.338.116-10.429 4.475-23.095 9.82-42.95 23.148-29.703 19.937-93.383 62.853-108.909 75.694-15.526 12.841-24.302 26.584-27.902 43.705-1.482 7.045.65 9.76 5.027 10.637-.2-1.556-.08-3.474.41-5.844"/>
                <path fill="#E1E5F3" d="M65.005 446.138c-1.336 7.689 2.977 9.22 7.053 9.571 2.194-.172 3.98-3.226 2.082-6.986-2.7-5.35-8.382-4.562-9.135-2.585M217.026 317.666c2.458-2.739 7.814-8.797 10.351-16.22 2.925-8.561 13.947-48.513 17.89-58.46.736-1.862 1.978-3.479 3.134-4.447l4.403-2.875-8.55 65.782c-.187 1.4-.971 2.746-2.026 3.717l-16.2 11.714c-2.465 1.87-7.031 4.055-8.95 3.436-.316-.101-.77-.416-.797-.746-.043-.503-.127-.93.745-1.901M241.637 312.048l5.654-5.534 63.62-2.686a.209.209 0 0 1 .183.326c-.462.68-1.653 2.164-3.428 2.487l-65.522 6.97c-1.246.135-1.523-.83-.507-1.563M169.322 394.036c3.505-3.508 14.401-10.588 24.302-16.22 2.551-1.451 5.424-1.068 8.776-.676a1314.51 1314.51 0 0 0 18.564 2.027c5.08.525 131.045-4.646 132.985-4.73 1.687-.073 2.927-.455 4.388-1.352 2.616-1.605 6.835-9.969 12.91-20.613.335-.587-.084 2.703-1.096 4.73-.996 1.994-8.383 17.629-11.983 21.684-1.96 2.209-3.712 2.59-7.481 2.985-4.258.445-158.16 16.811-170.001 18.135-2.859.32-12.545 8.307-25.118 10.842 0 0 5.362-4.679 7.173-7.097 2.025-2.703 2.278-5.407 6.581-9.715"/>
                <path fill="#D2D8EE" d="M162.74 403.751c-1.81 2.418-7.172 7.097-7.172 7.097 12.192-2.458 21.668-10.041 24.838-10.792l-16.387 1.64c-.376.703-.772 1.379-1.278 2.055"/>
                <path fill="#FF7E59" d="M218.686 317.413s17.367-13.383 26.93-26.783l1.514-11.453c-2.93 5.782-11.99 22.094-28.444 38.236"/>
                <path fill="#2474CD" d="M247.142 279.217l2.228-17.276c-12.714 35.062-30.656 55.43-30.656 55.43 15.99-14.405 25.994-32.229 28.428-38.154M76.953 435.938c3.712.085 8.972-.253 14.425-1.173a5.059 5.059 0 0 0 2.631-1.313s1.508-1.315 2.098-2.104c.347-.462.368-1.12-.204-1.591l-1.783-1.47c-.609-.502-1.142-.716-1.923-.6-2.25.336-8.718 1.155-12.431 1.155-1.097 0-1.941-.535-2.363-1.07-.422-.535-1.514-1.818-3.375-5.238a57.285 57.285 0 0 0-3.235 5.857c1.055 2.82 3.713 6.449 3.713 6.449.506.676 1.44 1.075 2.447 1.098"/>
                <path fill="#D2D8EE" d="M206.675 397.303c-.58 1.355-10.224 7.162-13.163 6.307-2.045-.594.968-4.107 4.838-7.434 2.968-2.551 6.645-5.069 7.82-5.069 1.176 0 1.18 4.619.505 6.196M118.356 379.843c-1.181 1.521-10.8 5.914-12.264 5.07-1.315-.761.53-2.702 1.576-3.718 3.937-3.83 10.404-8.179 11.363-8.11 1.575.113.599 5.119-.675 6.758"/>
                <path fill="#FFF" d="M112.168 375.563l5.85-3.83L59.4 325.98a2.614 2.614 0 0 0-2.936-.104l-3.193 2.04 58.898 47.647zM210.838 391.333l.338 5.406 135.01-14.417-.378-2.776a1.81 1.81 0 0 0-1.934-1.477l-133.036 13.264z"/>
                <path fill="#D2D8EE" d="M121.822 420.872c.086.264.087.37.16.408.036.017 1.005.341 1.017.07.15-2.91 7.017-5.924 7.622-3.428.57-1.06 1.165-2.119 1.349-3.424-.002-.183.048-.242.048-.242-.745-2.275-12.316-.004-10.196 6.616m10.147-9.767v-.004a11.792 11.792 0 0 0-1.153-3.772c-3.682-4.67-16.65.14-11.497 12.209.16.369.355.577.441.51.088-.068.5-.111.435-.473-1.694-9.444 8.66-11.698 11.774-8.47m-4.125-7.106c.077.035.73.362.57.162a2.259 2.259 0 0 0-.581-.527c-10.99-6.876-18.462 9.461-9.964 16.881.323.286.55.485.62.49.099.008 1.983 1.47.533-.894-5.498-8.946-.153-20.904 8.822-16.112"/>
                <path fill="#D2D8EE" d="M130.78 407.37c-.596 2.45-7.55-1.769-8.691-4.096-.118-.251-.214-.31-.25-.293-.074.025-.121.119-.155.391-.447 3.444 6.58 9.678 10.303 8.076a1.314 1.314 0 0 0-.035-.293 12.146 12.146 0 0 0-1.172-3.785m-11.084-3.124c.04-.362.07-.51-.013-.596-.083-.086-.247.132-.442.46-3.83 6.55 5.804 16.501 11.6 13.922a10.9 10.9 0 0 0 1.136-3.673v-.004c-3.104 2.863-12.98-3.844-12.281-10.109m-1.16-1.094c.244-.269.481-.524.387-.541-.072-.013-.318.123-.654.35-6.273 4.218-4.056 17.334 4.525 19.703v.01c.248.025.5.042.745.042.99 0 1.965-.188 2.88-.558.802-.35 1.25-.618 2.006-1.173.082-.063.164-.131.243-.199-7.238 2.624-16.418-10.386-10.132-17.635"/>
            </g>
        </g>
    </g>
</svg>
