<svg xmlns="http://www.w3.org/2000/svg" xmlns:xlink="http://www.w3.org/1999/xlink" width="373" height="560" viewBox="0 0 373 560">
    <defs>
        <rect id="a" width="373" height="560" rx="4"/>
        <path id="c" d="M.389 18.302c0 9.88 6.867 16.86 14.378 17.292 6.649.38 8.324-5.183 8.92-16.583.737-14.163.594-18-8.92-18.382a9.44 9.44 0 0 0-.407-.008C7.004.62.389 8.6.389 18.3"/>
        <radialGradient id="d" cx="196.792%" cy="161.519%" r="238.715%" fx="196.792%" fy="161.519%" gradientTransform="scale(-1 -.67352) rotate(47.136 4.6 -4.903)">
            <stop offset="0%" stop-color="#FFE8E8"/>
            <stop offset="100%" stop-color="#FDACAC"/>
        </radialGradient>
        <path id="f" d="M.491.278h369.201v42.76H.492z"/>
        <path id="h" d="M0 383h371.648V.37H0z"/>
    </defs>
    <g fill="none" fill-rule="evenodd">
        <mask id="b" fill="#fff">
            <use xlink:href="#a"/>
        </mask>
        <g mask="url(#b)">
            <path fill="#E1E5F3" d="M107.55 351.637h200.47c4.23 0 9.763-3.263 6.183-13.051-1.558-4.26-5.767-6.441-8.98-7.517a8.358 8.358 0 0 1-5.176-5.017c-1.415-3.808-4.438-9.39-10.577-12.59-4.068-2.12-7.81-2.855-10.536-3.06-2.588-.192-4.78-1.966-5.61-4.43-1.38-4.1-4.22-9.989-9.729-13.39-2.334-1.442-4.125-3.614-4.957-6.232-1.761-5.544-4.192-11.763-15.055-17.588-13.994-7.505-27.011-8.483-38.402-4.568-8.964 3.081-15.946 9.788-19.2 14.683-4.348 6.538-9.764 10.114-17.574 7.504-7.914-2.645-15.296-3.59-25.059 0-7.357 2.705-12.621 9.583-14.793 13.024a14.832 14.832 0 0 1-3.99 4.176c-3.248 2.3-8.911 7.395-12.46 16.733a41.257 41.257 0 0 0-2.39 9.776 5.845 5.845 0 0 1-3.11 4.519c-3.002 1.563-7.175 4.648-6.54 9.523.887 6.825 7.485 7.505 7.485 7.505"/>
            <path fill="#E1E5F3" d="M394.044 280.834c-4.768-2.868-10.74-4.568-12.367-10.44-1.627-5.874.651-9.79-1.952-17.946-2.763-8.657-10.74-17.945-15.621-21.534-6.482-4.766-19.201-18.272-44.585-12.725-4.023.879-8.136 1.631-13.343-1.305-5.207-2.937-10.089-13.378-20.503-20.882-7.572-5.456-15.946-9.462-30.917-8.483-16.29 1.064-21.479 3.915-27.662 9.462-6.183 5.546-9.438 15.335-21.153 18.271-11.716 2.937-22.016 6.682-29.29 15.988-9.438 12.072-7.16 21.86-10.414 27.734-3.254 5.873-10.414 7.178-14.645 18.271-.921 2.417-1.473 4.905-1.637 7.312 6.7-1.212 12.423-.19 18.451 1.824 7.811 2.61 13.227-.966 17.574-7.504 3.255-4.895 10.237-11.602 19.201-14.683 11.39-3.915 24.409-2.937 38.402 4.568 10.863 5.825 13.293 12.044 15.055 17.588.832 2.618 2.623 4.79 4.957 6.232 3.161 1.951 5.439 4.721 7.07 7.503h121.426s7.16 0 8.136-4.895c.977-4.894-1.301-11.42-6.183-14.356"/>
            <path fill="#E09595" d="M318.596 386.603l-1.894 2.993a5.983 5.983 0 0 1-4.829 2.781l-8.892.335a4.84 4.84 0 0 1-3.917-1.76l-2.465-2.992-.132-.16 22.13-1.197z"/>
            <path fill="#A4B1DD" d="M286.866 388.723c-54.19 0-101.358-13.99-131.384-25.727-32.56-12.726-52.034-25.277-52.847-25.805l3.537-5.478c.195.127 19.853 12.783 51.845 25.27 29.47 11.503 75.746 25.215 128.85 25.215 51.837 0 98.217-13.75 127.999-25.285 32.258-12.494 52.424-25.098 52.624-25.224l3.46 5.527c-.837.527-20.9 13.065-53.739 25.784-30.297 11.735-77.504 25.723-130.345 25.723"/>
            <path fill="#FFAEAE" d="M292.29 372.519s10.497.377 12.354.57c1.857.191 3.484.626 4.895 1.604 1.41.98 4.664 3.046 4.664 3.046l-23.106 2.067 1.194-7.287zM317.485 544.277s4.23 6.308 6.427 7.613c1.52.903 12.64-13.409 9.356-13.05-1.538.167-3.023-.147-4.007-1.314l-.82-.97-10.956 7.72zM291.422 384.156c0 .326 3.038 3.915 6.618 4.676 3.58.762 4.773 0 7.594 1.415 2.82 1.413 3.037 2.175 4.447 2.175.976 0 2.278-2.284.109-4.568-1.648-1.735-3.038-1.414-4.34-2.393-1.301-.98-3.58-3.48-3.58-3.48l-10.848 2.175z"/>
            <path fill="#2474CD" d="M353.69 530.764c-3.005 1.518-6.842 3.868-11.39 5.22-2.366.703-7.181 2.484-10.137 2.83-1.574 1.318-2.694 5.607-4.997 7.448-2.302 1.84-3.844.118-6.915 1.958 1.871 2.447 5.088 6.768 5.885 7.498 1.659 1.521 4.98 1.784 7.865.17 2.885-1.616 8.312-6.08 13.397-10.66 5.423-4.883 8.425-8.732 9.383-10.386 1.605-2.77-.059-5.611-3.091-4.078"/>
            <path fill="#FFAEAE" d="M161.681 507.489s-3.146 3.48-6.21 5.472c-2.537 1.649 1.18 9.375 9.681 11.603.07-1.848.76-2.61 1.736-3.589l2.061-1.74-7.268-11.746z"/>
            <path fill="#2474CD" d="M173.83 542.292c-2.9-3.437-6.141-5.337-6.942-8.048-.868-2.937-.76-6.634-1.628-10.115-9.98-4.242-9.502-6.218-8.786-11.963-2.386 1.414-4.531 1.458-6.075 2.284-3.254 1.74-3.694 4.42-2.82 7.395.62 2.112 5.453 14.46 6.4 16.05.946 1.59 1.921 3.285 3.796 4.506 1.876 1.22 8.058 2.605 10.818 3.254 4.559 1.073 6.43-1.95 5.238-3.363"/>
            <path fill="#2B2B51" d="M228.504 406.452s-5.587 17.374-10.197 30.996c-4.122 12.181-5.803 21.086-10.143 25.07-4.612 4.232-10.86 5.91-21.75 15.932-9.926 9.136-28.222 31.73-28.81 32.832.606 2.841 3.933 7.62 8.945 11.139.627.44 1.435.392 2.075-.032 13.451-8.918 31.835-23.214 43.174-29.365 7.898-4.284 16.802-8.408 25.059-19.685 2.935-4.009 7.052-11.46 18.333-34.912l-26.686-31.975z"/>
            <path fill="#42426C" d="M225.711 388.615s-3.038 12.822 2.17 22.72c5.206 9.898 10.695 10.023 15.838 16.647 7.16 9.224 19.282 29.071 23.404 35.145 4.37 6.44 6.1 16.198 11.716 29.245 8.895 20.664 32.34 45.95 37.385 52.946a1.855 1.855 0 0 0 2.287.618c3.2-1.453 9.18-4.99 11.015-8.32 0 0-6.753-14.683-13.343-29.366-6.806-15.161-12.828-29.488-13.696-33.425-1.735-7.874-3.826-16.228-5.858-21.371-9.545-24.163-27.743-64.164-27.743-64.164l-43.175-.675z"/>
            <path fill="#FFAEAE" d="M305.28 302.042s-1.666-1.059-.759-3.371c.597-1.523 1.817-4.16 2.468-5.547.638-1.357 1.627-1.958 2.93-1.849l-4.638 10.767zM304.332 327.927c5.858-8.374 9.003-12.942 11.173-16.423.622-.997 1.193-2.175 1.41-3.589.121-.788.764-4.98.434-6.743-.325-1.74-2.994-7.641-3.363-7.94l-18.116 30.344s5.994 3.182 8.462 4.351"/>
            <path fill="#42426C" d="M302.487 315.964l2.74 1.386 11.797-25.205c.38-.924.217-1.55-.326-1.794l-1.288-.585c-.432 0-12.923 26.198-12.923 26.198"/>
            <path fill="#FF7E59" d="M299.558 315.528l4.299 1.523 11.85-25.667c.408-.925.075-1.659-.557-1.659l-3.92.066c-.432 0-.827.25-1.011.642l-11.176 24.038a.755.755 0 0 0 .515 1.057"/>
            <path fill="#FFAEAE" d="M299.07 322.353s-1.383-5.845.488-10.087c1.433-3.248 3.472-4.35 4.882-6.852 1.41-2.502 1.444-5.024 3.688-7.124 1.22-1.142 2.503-1.907 3.662-1.387.786.354.894 1.115.325 2.366-.588 1.29-1.41 2.705-1.953 5.098-.542 2.393-.31 7.34-.895 9.258-.895 2.937-1.627 5.738-4.23 7.777-1.924 1.506-1.302 3.589-1.302 3.589l-4.665-2.638z"/>
            <path fill="#42426C" d="M219.067 301.934s-6.075.217-10.631 1.848c-4.88 1.747-7.946 3.31-9.004 7.287-.868 3.263-3.037 10.985-3.037 30.67 0 21.754 3.47 35.674 5.857 38.61 2.387 2.937 8.244 7.613 21.913 8.158 0 0 5.966-15.88 4.773-30.344-1.193-14.466-1.952-48.181-1.952-48.181l-7.92-8.048z"/>
            <path fill="#23529D" d="M279.246 365.504s3.818 1.676 6.272 3.27c.642.416 1.316.77 2.026 1.053 1.762.703 3.094 1.242 4.383 1.767.666.27 1.07.94 1.013 1.659-.144 1.833-.657 5.429-2.494 8.728l-22.455-1.197 2.82-8.918 8.435-6.362z"/>
            <path fill="#23478D" d="M292.94 373.252a1.643 1.643 0 0 0-1.013-1.658 718.957 718.957 0 0 0-4.383-1.768 11.644 11.644 0 0 1-2.026-1.053c-.062-.04-.129-.08-.192-.12-.141 4.71-1.672 8.948-3.734 12.856l8.854.471c1.837-3.298 2.35-6.895 2.494-8.728"/>
            <path fill="#FFAEAE" d="M237.183 289.1c3.254 1.196 18.984 8.048 18.984 8.048s0-2.284.325-4.568c.23-1.615 3.227-1.387 5.994-1.59-.977-2.502-9.682-23.86-9.682-23.86l-10.523.87s-1.41 12.726-5.098 21.1"/>
            <path fill="#245EAD" d="M224.816 397.968s4.228 2.045 22.049 1.795c11.634-.163 20.502-1.958 24.651-3.386.278-.095.366-.693.204-1.06-.45-1.015-1.207-2.57-1.668-3.739-.322-.815-.014-1.182-.014-1.182l-45.764-.476.008.01c.378.489.619 1.08.634 1.699.007.32-.026.641-.1.956l-.57 3.752s-.162 1.06.57 1.631"/>
            <g transform="translate(247 256)">
                <mask id="e" fill="#fff">
                    <use xlink:href="#c"/>
                </mask>
                <path fill="url(#d)" d="M.389 18.302c0 9.88 6.867 16.86 14.378 17.292 6.649.38 8.324-5.183 8.92-16.583.737-14.163.594-18-8.92-18.382a9.44 9.44 0 0 0-.407-.008C7.004.62.389 8.6.389 18.3" mask="url(#e)"/>
            </g>
            <g transform="translate(100 187)">
                <path fill="#423748" d="M151.366 87.84s1.52.327 2.607-.978c1.086-1.305 1.303-3.48.76-5.11-.477-1.434-1.955-3.481-1.195-4.024.76-.544 2.607.652 3.91-1.088 1.303-1.74.326-2.392.87-2.827.542-.435 2.497.978 7.274.933a4.643 4.643 0 0 1 1.985.414c.698.32 1.71.671 2.688.61 1.413-.089 3.367-2.392 4.018-5.002.662-2.646-.434-5.002-2.172-5.655-1.118-.42-3.425.004-4.996-.87-1.955-1.087-2.607-2.718-6.19-4.023-3.198-1.165-5.866-.979-8.907-1.305-3.042-.326-4.562-.87-7.17-.11-2.425.709-4.45 2.04-5.973 5.547-1.086 2.5-.467 4.803-.543 5.872-.109 1.522-1.303 1.74-1.738 3.371-.443 1.662-.217 2.828-.652 3.915-.434 1.087-.868 2.501-.434 4.459.492 2.216 1.955 2.5 2.063 3.48.11.978-.217 1.957.652 3.37 1.096 1.782 2.627 3.347 4.888 3.046 1.63-.218 2.607-5.33 2.607-5.33l5.648 1.306z"/>
                <path fill="#FFAEAE" d="M151.366 86.536c.806 2.986.895 4.603-.869 5.11-1.765.508-4.019-1.848-5.213-4.784-1.166-2.864-.37-4.448 1.411-4.893 1.304-.327 3.584.543 4.67 4.567"/>
                <path fill="#FF7E59" d="M136.16 102.521l2.355-5.305a.527.527 0 0 1 .77-.227l17.11 11.213c.191.124.34.305.426.516l1.387 3.373-22.048-9.57z"/>
                <path fill="#2469BD" d="M123.728 100.137c-3.656 5.059-6.001 14.019-6.001 14.019-.493 1.151.127 2.122.837 3.154l6.517 10.549s-1.52 11.853-.435 23.924c1.087 12.07 2.39 16.203 2.281 20.88-.108 4.675-3.584 18.92-3.584 22.291 0 3.372-.869 7.069 1.955 8.591 2.825 1.523 10.862 3.48 24.873 2.828 14.012-.653 19.116-2.61 19.85-2.855.763-.254 1.466-1.55 1.629-8.89.206-9.256 1.44-42.301.353-50.566-1.086-8.264-3.15-13.158-6.408-19.574-.218-.327-.76-1.414-.978-3.045-.217-1.631-.131-3.356-.326-4.459-.325-1.848-1.303-2.827-3.041-3.806-.757-.426-7.602-4.52-15.424-7.612-7.759-3.067-15.098-5.356-18.681-6.307-.996-.264-2.39-.544-3.417.878"/>
                <path fill="#42426C" d="M123.017 132.644l13.034-13.702 19.55-.217s.866-.427-.325-1.632c-1.108-1.121-4.117-2.972-8.146-4.35a18.827 18.827 0 0 0-14.663 1.088c-4.2 2.149-14.12 7.938-14.12 7.938l4.67 10.875zM126.058 167.66s1.087.652 3.368-.87c2.28-1.523 14.337-12.397 14.337-12.397l4.453 9.243-25.525 29.796 3.367-25.773z"/>
                <path fill="#2474CD" d="M139.961 116.223c-3.584 1.522-10.644 6.525-6.843 19.465 4.587 15.613 20.855 39.91 28.24 48.392 7.386 8.482 14.772 1.196 14.772 1.196s7.651-6.925 15.858-19.139c8.038-11.961 11.187-16.747 12.6-20.553.623-1.681 3.8-5.655 2.932-7.068-.87-1.414-7.168-5.546-9.993-6.198-.952-.22-3.801 4.35-4.562 5.22-.76.87-2.28 1.087-9.884 9.134-7.603 8.047-9.124 9.46-9.124 9.46s-4.03-8.37-6.19-15.767c-3.367-11.528-5.678-16.355-11.188-20.988-5.43-4.568-12.324-4.977-16.618-3.154"/>
                <path fill="#2469BD" d="M207.52 138.516c-.87-1.414-7.168-5.546-9.993-6.199-.932-.215-3.672 4.144-4.503 5.148 3.092 2.139 8.305 5.183 11.625 7.974.735-1.751 3.717-5.547 2.871-6.923"/>
                <g transform="translate(1.955 338.632)">
                    <mask id="g" fill="#fff">
                        <use xlink:href="#f"/>
                    </mask>
                    <path fill="#C5CBD8" d="M185.145 43.038c-55.61 0-102.782-9.162-132.563-16.847C20.232 17.842 1.282 9.588.492 9.24L4.415.278C5.169.608 80.85 33.25 185.145 33.25 289.571 33.25 365.012.609 365.762.279l3.931 8.961c-.79.347-19.714 8.602-52.038 16.95-29.756 7.686-76.9 16.848-132.51 16.848" mask="url(#g)"/>
                </g>
                <mask id="i" fill="#fff">
                    <use xlink:href="#h"/>
                </mask>
                <path fill="#2474CD" d="M186.992 326.21h.652v-23.054h-.652zM189.08 325.478h.651v-23.054h-.652zM191.167 324.746h.651V301.69h-.651zM193.254 324.013h.652V300.96h-.652zM195.341 323.281h.652v-23.054h-.652zM197.43 322.55h.651v-23.054h-.652zM199.517 321.818h.652v-23.055h-.652zM201.605 321.086h.652V298.03h-.652zM203.692 320.354h.652v-23.055h-.652zM205.78 319.622h.651v-23.055h-.651zM207.867 318.89h.652v-23.055h-.652zM209.954 318.158h.652v-23.055h-.652zM212.042 317.425h.651v-23.054h-.651zM214.13 316.694h.651V293.64h-.651zM216.218 315.962h.651v-23.054h-.651zM218.305 315.23h.652v-23.055h-.652zM220.392 314.497h.652v-23.054h-.652zM222.48 313.765h.652v-23.054h-.652zM224.567 313.033h.652v-23.054h-.652zM226.655 312.3h.651v-23.053h-.651zM228.742 311.569h.652v-23.055h-.652zM230.83 310.837h.652v-23.054h-.652zM232.918 310.105h.652v-23.054h-.652zM235.005 309.373h.652V286.32h-.652zM237.093 308.641h.651v-23.054h-.651zM239.18 307.91h.652v-23.055h-.652zM241.267 307.177h.652v-23.054h-.652zM243.355 306.445h.652v-23.054h-.652zM245.442 305.713h.652v-23.054h-.652zM247.53 304.98h.652v-23.054h-.652zM249.618 304.249h.652v-23.055h-.652zM251.706 303.517h.651v-23.055h-.651zM253.793 302.785h.652V279.73h-.652zM255.88 302.053h.652v-23.055h-.652zM257.968 301.32h.651v-23.054h-.651zM260.055 300.588h.652v-23.054h-.652zM262.142 299.856h.652v-23.054h-.652zM264.23 299.125h.652v-23.054h-.652zM266.318 298.393h.652v-23.054h-.652zM268.406 297.66h.652v-23.054h-.652zM270.493 296.929h.652v-23.055h-.652zM272.58 296.197h.652v-23.055h-.651zM101.403 340.565h.651V317.51h-.651zM103.496 340.188h.652v-23.055h-.652zM105.588 339.811h.652v-23.054h-.652zM107.682 339.435h.651V316.38h-.651zM109.774 339.058h.652v-23.054h-.652zM111.867 338.682h.652v-23.055h-.652zM113.96 338.304h.651v-23.053h-.652zM116.053 337.928h.651v-23.054h-.651zM118.145 337.55h.652v-23.053h-.652zM120.238 337.174h.652V314.12h-.652zM122.331 336.798h.652v-23.054h-.652zM124.424 336.421h.652v-23.054h-.652zM126.517 336.045h.652v-23.054h-.652zM128.61 335.669h.651v-23.055h-.652zM130.703 335.292h.651v-23.054h-.651zM132.795 334.915h.652V311.86h-.652zM134.888 334.538h.652v-23.054h-.652zM136.981 334.161h.652v-23.053h-.652zM139.074 333.785h.651V310.73h-.651zM141.167 333.408h.652v-23.053h-.652zM143.26 333.032h.651v-23.054h-.652zM145.352 332.655h.652v-23.054h-.652zM147.445 332.278h.652v-23.054h-.652zM149.538 331.902h.652v-23.055h-.652zM151.631 331.525h.652v-23.054h-.652zM153.724 331.149h.651v-23.055h-.651zM155.816 330.772h.652v-23.054h-.652zM157.909 330.395h.652v-23.053h-.652zM160.002 330.018h.652v-23.054h-.652zM162.095 329.642h.651v-23.054h-.651zM164.188 329.265h.652v-23.054h-.652zM166.28 328.889h.652v-23.054h-.651zM168.374 328.512h.651v-23.054h-.651zM170.466 328.136h.652v-23.054h-.652zM172.559 327.76h.652v-23.054h-.652zM174.652 327.382h.652v-23.054h-.652zM176.745 327.005h.651v-23.054h-.651zM178.837 326.629h.652v-23.054h-.652zM180.93 326.252h.652v-23.054h-.651zM183.023 325.876h.652v-23.054h-.652zM185.116 325.5h.651v-23.055h-.651z" mask="url(#i)"/>
                <path fill="#2474CD" d="M187.209 325.123h.652v-23.054h-.652zM15.596 340.782h.652v-23.054h-.652zM17.673 340.77h.652v-23.053h-.652zM19.75 340.76h.652v-23.053h-.652zM21.827 340.75h.652v-23.054h-.652zM23.904 340.739h.652v-23.054h-.652zM25.981 340.73h.652v-23.055h-.652zM28.058 340.718h.652v-23.054h-.652zM30.136 340.707h.651v-23.054h-.651zM32.212 340.697h.652v-23.054h-.652zM34.29 340.686h.651v-23.054h-.652zM36.366 340.676h.652v-23.054h-.652zM38.443 340.665h.652v-23.054h-.652zM40.52 340.654h.652V317.6h-.652zM42.597 340.644h.652V317.59h-.652zM44.674 340.633h.652V317.58h-.652zM46.751 340.622h.652v-23.054h-.652zM48.828 340.612h.652v-23.054h-.652zM50.905 340.601h.652v-23.054h-.652zM52.982 340.59h.652v-23.053h-.652zM55.059 340.58h.652v-23.054h-.652zM57.136 340.57h.651v-23.055h-.651zM59.212 340.559h.652v-23.054h-.652zM61.289 340.548h.652v-23.053h-.652zM63.366 340.538h.652v-23.054h-.652zM65.443 340.527h.652v-23.054h-.652zM67.52 340.516h.652v-23.053h-.652zM69.597 340.506h.651v-23.054h-.651zM71.674 340.495h.651V317.44h-.651zM73.75 340.485h.652v-23.054h-.651zM75.828 340.474h.651V317.42h-.651zM77.905 340.463h.651v-23.054h-.651zM79.982 340.453h.651V317.4h-.651zM82.058 340.442h.652v-23.054h-.652zM84.135 340.43h.652v-23.053h-.652zM86.212 340.421h.652v-23.054h-.652zM88.29 340.41h.651v-23.054h-.652zM90.366 340.4h.652v-23.054h-.652zM92.443 340.39h.652v-23.055h-.652zM94.52 340.378h.652v-23.054h-.652zM96.597 340.368h.652v-23.054h-.652zM98.674 340.357h.652v-23.054h-.652zM100.75 340.347h.653v-23.054h-.652zM272.58 296.414h.652V273.36h-.651z" mask="url(#i)"/>
                <path fill="#FF7E59" d="M186.992 303.374h.652v-23.055h-.652zM189.08 302.642h.651v-23.055h-.652zM191.167 301.909h.651v-23.054h-.651zM193.254 301.177h.652v-23.054h-.652zM195.341 300.445h.652V277.39h-.652zM197.43 299.713h.651V276.66h-.652zM199.517 298.981h.652v-23.054h-.652zM201.605 298.25h.652v-23.055h-.652zM203.692 297.517h.652v-23.054h-.652zM205.78 296.785h.651v-23.054h-.651zM207.867 296.053h.652V273h-.652zM209.954 295.321h.652v-23.054h-.652zM212.042 294.589h.651v-23.054h-.651zM214.13 293.858h.651v-23.055h-.651zM216.218 293.125h.651v-23.054h-.651zM218.305 292.393h.652v-23.055h-.652zM220.392 291.66h.652v-23.054h-.652zM222.48 290.929h.652v-23.055h-.652zM224.567 290.197h.652v-23.055h-.652zM226.655 289.464h.651V266.41h-.651zM228.742 288.732h.652v-23.054h-.652zM230.83 288.001h.652v-23.054h-.652zM232.918 287.269h.652v-23.054h-.652zM235.005 286.537h.652v-23.055h-.652zM237.093 285.805h.651V262.75h-.651zM239.18 285.073h.652v-23.055h-.652zM241.267 284.34h.652v-23.054h-.652zM243.355 283.609h.652v-23.055h-.652zM245.442 282.876h.652v-23.054h-.652zM247.53 282.144h.652V259.09h-.652zM249.618 281.412h.652v-23.054h-.652zM251.706 280.68h.651v-23.054h-.651zM253.793 279.948h.652v-23.054h-.652zM255.88 279.216h.652v-23.054h-.652zM257.968 278.484h.651V255.43h-.651zM260.055 277.752h.652v-23.054h-.652zM262.142 277.02h.652v-23.054h-.652zM264.23 276.289h.652v-23.055h-.652zM266.318 275.556h.652v-23.054h-.652zM268.406 274.824h.652V251.77h-.652zM270.493 274.092h.652v-23.054h-.652zM272.58 273.36h.652v-23.054h-.651zM101.403 317.728h.651v-23.054h-.651zM103.496 317.351h.652v-23.054h-.652zM105.588 316.975h.652V293.92h-.652zM107.682 316.598h.651v-23.054h-.651zM109.774 316.222h.652v-23.055h-.652zM111.867 315.845h.652v-23.054h-.652zM113.96 315.468h.651v-23.054h-.652zM116.053 315.092h.651v-23.055h-.651zM118.145 314.714h.652V291.66h-.652zM120.238 314.338h.652v-23.054h-.652zM122.331 313.961h.652v-23.054h-.652zM124.424 313.585h.652v-23.054h-.652zM126.517 313.209h.652v-23.055h-.652zM128.61 312.832h.651v-23.054h-.652zM130.703 312.456h.651V289.4h-.651zM132.795 312.078h.652v-23.054h-.652zM134.888 311.701h.652v-23.053h-.652zM136.981 311.325h.652V288.27h-.652zM139.074 310.948h.651v-23.053h-.651zM141.167 310.572h.652v-23.054h-.652zM143.26 310.195h.651v-23.053h-.652zM145.352 309.819h.652v-23.054h-.652zM147.445 309.442h.652v-23.055h-.652zM149.538 309.065h.652v-23.054h-.652zM151.631 308.689h.652v-23.055h-.652zM153.724 308.312h.651v-23.054h-.651zM155.816 307.935h.652v-23.053h-.652zM157.909 307.559h.652v-23.054h-.652zM160.002 307.182h.652v-23.054h-.652zM162.095 306.805h.651v-23.054h-.651zM164.188 306.429h.652v-23.054h-.652zM166.28 306.052h.652V283h-.651zM168.374 305.676h.651v-23.054h-.651zM170.466 305.3h.652v-23.054h-.652zM172.559 304.923h.652v-23.054h-.652zM174.652 304.546h.652V281.49h-.652zM176.745 304.169h.651v-23.054h-.651zM178.837 303.792h.652v-23.054h-.652zM180.93 303.416h.652v-23.054h-.651zM183.023 303.04h.652v-23.055h-.652zM185.116 302.663h.651v-23.054h-.651z" mask="url(#i)"/>
                <path fill="#FF7E59" d="M187.209 302.286h.652v-23.054h-.652zM15.596 342.087h.652v-23.054h-.652zM17.673 341.487h.652v-23.053h-.652zM19.75 340.888h.652v-23.054h-.652zM21.827 340.289h.652v-23.054h-.652zM23.904 339.689h.652v-23.054h-.652zM25.981 339.09h.652v-23.054h-.652zM28.058 338.49h.652v-23.054h-.652zM30.136 337.89h.651v-23.053h-.651zM32.212 337.291h.652v-23.054h-.652zM34.29 336.692h.651v-23.054h-.652zM36.366 336.092h.652v-23.054h-.652zM38.443 335.493h.652v-23.054h-.652zM40.52 334.893h.652V311.84h-.652zM42.597 334.294h.652V311.24h-.652zM44.674 333.694h.652V310.64h-.652zM46.751 333.095h.652v-23.054h-.652zM48.828 332.496h.652v-23.054h-.652zM50.905 331.896h.652v-23.054h-.652zM52.982 331.296h.652v-23.053h-.652zM55.059 330.698h.652v-23.054h-.652zM57.136 330.098h.651v-23.053h-.651zM59.212 329.499h.652v-23.054h-.652zM61.289 328.9h.652v-23.055h-.652zM63.366 328.3h.652v-23.054h-.652zM65.443 327.7h.652v-23.053h-.652zM67.52 327.1h.652v-23.053h-.652zM69.597 326.501h.651v-23.053h-.651zM71.674 325.902h.651V302.85h-.651zM73.75 325.303h.652v-23.054h-.651zM75.828 324.703h.651V301.65h-.651zM77.905 324.103h.651V301.05h-.651zM79.982 323.505h.651V300.45h-.651zM82.058 322.905h.652V299.85h-.652zM84.135 322.305h.652v-23.053h-.652zM86.212 321.706h.652v-23.054h-.652zM88.29 321.107h.651v-23.054h-.652zM90.366 320.507h.652v-23.054h-.652zM92.443 319.907h.652v-23.053h-.652zM94.52 319.308h.652v-23.054h-.652zM96.597 318.709h.652v-23.054h-.652zM98.674 318.11h.652v-23.054h-.652zM100.75 317.51h.653v-23.053h-.652zM272.58 273.577h.652v-23.053h-.651z" mask="url(#i)"/>
                <path fill="#C5CBD8" d="M187.1 237.474c-55.306 0-102.22-11.248-131.837-20.684-32.115-10.232-51.438-20.624-51.63-20.728l1.552-2.868c.189.102 19.306 10.376 51.156 20.516 29.378 9.352 75.911 20.502 130.759 20.502 54.888 0 101.422-11.165 130.795-20.53 31.798-10.14 50.823-20.385 51.011-20.488l1.553 2.868c-.191.104-19.487 10.495-51.575 20.728-29.593 9.436-76.477 20.684-131.784 20.684" mask="url(#i)"/>
                <path fill="#C5CBD8" d="M187.1 197.782c-54.287 0-101.536-14.89-131.614-27.38-32.608-13.543-52.112-26.898-52.926-27.46l3.697-5.373c.196.135 19.874 13.596 51.897 26.877 29.495 12.23 75.807 26.812 128.946 26.812 51.806 0 98.167-14.586 127.937-26.823 32.331-13.289 52.635-26.758 52.837-26.893l3.618 5.426c-.839.562-20.932 13.903-53.82 27.437-30.348 12.49-77.636 27.377-130.572 27.377M187.1 259.658c-55.297 0-102.204-10.712-131.816-19.699-32.11-9.744-51.43-19.641-51.622-19.74l1.494-2.9c.19.099 19.308 9.886 51.161 19.544 29.384 8.911 75.926 19.533 130.783 19.533 54.858 0 101.37-10.621 130.728-19.532 31.827-9.66 50.918-19.446 51.108-19.544l1.494 2.9c-.19.098-19.484 9.994-51.568 19.74-29.588 8.986-76.465 19.698-131.762 19.698" mask="url(#i)"/>
                <path fill="#C5CBD8" d="M187.1 281.842c-55.287 0-102.186-10.177-131.794-18.714C23.2 253.87 3.884 244.47 3.692 244.376l1.434-2.93c.19.093 19.31 9.393 51.168 18.572 29.388 8.468 75.938 18.562 130.806 18.562 54.868 0 101.388-10.094 130.752-18.561 31.83-9.18 50.923-18.48 51.113-18.572l1.436 2.928c-.192.095-19.481 9.496-51.56 18.753-29.584 8.537-76.453 18.714-131.741 18.714" mask="url(#i)"/>
                <path fill="#C5CBD8" d="M187.1 304.026c-55.281 0-102.175-9.82-131.78-18.057-32.102-8.932-51.416-18.004-51.607-18.094l1.392-2.95c.19.09 19.313 9.066 51.173 17.924 29.392 8.173 75.947 17.915 130.822 17.915 105.079 0 181.13-35.48 181.885-35.839l1.395 2.95c-.192.09-19.478 9.162-51.554 18.094-29.58 8.237-76.445 18.057-131.726 18.057" mask="url(#i)"/>
                <path fill="#C5CBD8" d="M187.1 326.863c-55.278 0-102.169-9.641-131.772-17.73-32.101-8.77-51.413-17.675-51.605-17.764l1.373-2.96c.189.088 19.312 8.902 51.174 17.6 29.394 8.025 75.952 17.591 130.83 17.591 105.085 0 181.14-34.838 181.896-35.19l1.374 2.958c-.191.089-19.477 8.996-51.552 17.766-29.578 8.088-76.44 17.729-131.718 17.729" mask="url(#i)"/>
                <path fill="#C5CBD8" d="M187.1 350.351c-55.278 0-102.169-9.64-131.772-17.728-32.101-8.77-51.413-17.677-51.605-17.765l1.373-2.96c.189.088 19.312 8.902 51.174 17.6 29.394 8.025 75.952 17.591 130.83 17.591 105.085 0 181.14-34.839 181.896-35.19l1.374 2.958c-.191.089-19.477 8.996-51.552 17.766-29.578 8.088-76.44 17.728-131.718 17.728" mask="url(#i)"/>
                <path fill="#E1E5F3" d="M270.3 366.88h4.562V182.885H270.3zM99.556 366.228h4.562V182.232h-4.562zM184.928 372.636h4.562v-176.05h-4.562zM14.185 345.213h4.562V150.587h-4.562z" mask="url(#i)"/>
                <path fill="#C5CBD8" d="M190.534 198.924h-6.527a1.09 1.09 0 0 1-1.089-1.09v-6.792c0-.601.488-1.09 1.09-1.09h6.526a1.09 1.09 0 0 1 1.09 1.09v6.791a1.09 1.09 0 0 1-1.09 1.09M275.645 186.176l-6.038 1.698a1.1 1.1 0 0 1-1.398-1.061v-6.524c0-.78.518-1.466 1.268-1.677l5.941-1.67a1.177 1.177 0 0 1 1.495 1.135v6.423a1.74 1.74 0 0 1-1.268 1.676M98.709 186.577l6.026 1.694a1.13 1.13 0 0 0 1.435-1.089v-6.502a1.72 1.72 0 0 0-1.253-1.656l-6.016-1.69a1.13 1.13 0 0 0-1.436 1.089v6.512c0 .765.508 1.435 1.244 1.642M13.208 150.803l5.643 3.33a1.237 1.237 0 0 0 1.866-1.066v-6.505c0-.943-.498-1.815-1.308-2.294l-5.392-3.182a1.33 1.33 0 0 0-2.004 1.147v6.475c0 .86.454 1.658 1.195 2.095M190.206 383h-5.87a1.418 1.418 0 0 1-1.417-1.42v-9.8c0-.784.634-1.42 1.417-1.42h5.87c.782 0 1.417.636 1.417 1.42v9.8c0 .784-.635 1.42-1.417 1.42M275.565 375.635l-5.826.912a1.36 1.36 0 0 1-1.557-1.346v-9.834c0-.768.561-1.42 1.32-1.532l5.842-.953c.812-.12 1.542.511 1.542 1.334v9.887c0 .768-.562 1.42-1.32 1.532M98.892 375.512l5.751 1.031c.82.12 1.554-.515 1.554-1.344v-9.529c0-.99-.725-1.83-1.703-1.974l-5.488-.883a1.264 1.264 0 0 0-1.447 1.252l-.066 9.826c0 .813.595 1.503 1.399 1.62M13.415 353.722l5.82 2.175a1.164 1.164 0 0 0 1.536-1.104v-10.64c0-.852-.542-1.608-1.348-1.88l-5.91-2.252a1.097 1.097 0 0 0-1.446 1.04v10.782c0 .851.542 1.608 1.348 1.88" mask="url(#i)"/>
                <path fill="#A4B1DD" d="M189.707 235.816a2.526 2.526 0 1 1-5.05 0 2.526 2.526 0 0 1 5.05 0M189.707 258a2.526 2.526 0 1 1-5.05 0 2.526 2.526 0 0 1 5.05 0M189.707 280.183a2.526 2.526 0 1 1-5.05 0 2.526 2.526 0 0 1 5.05 0M189.707 302.694a2.526 2.526 0 1 1-5.05 0 2.526 2.526 0 0 1 5.05 0M189.707 325.204a2.526 2.526 0 1 1-5.05 0 2.526 2.526 0 0 1 5.05 0M189.707 348.639a2.526 2.526 0 1 1-5.05 0 2.526 2.526 0 1 1 5.05 0M275.2 227.333a2.526 2.526 0 1 1-5.05 0 2.526 2.526 0 0 1 5.05 0M275.16 250.13a2.526 2.526 0 1 1-5.05 0 2.526 2.526 0 0 1 5.05 0M275.2 272.395a2.526 2.526 0 1 1-5.05 0 2.526 2.526 0 0 1 5.05 0M275.16 294.823a2.526 2.526 0 1 1-5.05 0 2.526 2.526 0 0 1 5.05 0M275.2 317.945a2.526 2.526 0 1 1-5.05 0 2.526 2.526 0 0 1 5.05 0M275.2 341.271a2.526 2.526 0 1 1-5.05 0 2.526 2.526 0 0 1 5.05 0M104.458 227.333a2.527 2.527 0 0 1-2.526 2.529 2.527 2.527 0 0 1-2.525-2.529 2.527 2.527 0 0 1 2.525-2.528 2.527 2.527 0 0 1 2.526 2.528M104.417 250.13a2.527 2.527 0 0 1-2.525 2.527 2.527 2.527 0 0 1-2.526-2.528 2.527 2.527 0 0 1 2.526-2.528 2.527 2.527 0 0 1 2.525 2.528M104.458 272.395a2.527 2.527 0 0 1-2.526 2.528 2.527 2.527 0 0 1-2.525-2.528 2.527 2.527 0 0 1 2.525-2.529 2.527 2.527 0 0 1 2.526 2.529M104.417 294.823a2.527 2.527 0 0 1-2.525 2.529 2.527 2.527 0 0 1-2.526-2.529 2.527 2.527 0 0 1 2.526-2.528 2.527 2.527 0 0 1 2.525 2.528M104.458 317.945a2.527 2.527 0 0 1-2.526 2.529 2.527 2.527 0 0 1-2.525-2.529 2.527 2.527 0 0 1 2.525-2.528 2.527 2.527 0 0 1 2.526 2.528M104.403 341.217a2.527 2.527 0 0 1-2.525 2.528 2.527 2.527 0 0 1-2.525-2.528 2.526 2.526 0 1 1 5.05 0M19.018 200.419a2.527 2.527 0 0 1-2.525 2.528 2.527 2.527 0 0 1-2.526-2.528 2.527 2.527 0 0 1 2.526-2.528 2.527 2.527 0 0 1 2.525 2.528M19.018 224.288a2.526 2.526 0 1 1-5.05 0 2.527 2.527 0 0 1 2.525-2.528 2.527 2.527 0 0 1 2.525 2.528M19.018 248.103a2.526 2.526 0 1 1-5.05 0 2.527 2.527 0 0 1 2.525-2.528 2.527 2.527 0 0 1 2.525 2.528M19.072 271.592a2.526 2.526 0 1 1-5.05 0 2.527 2.527 0 0 1 2.525-2.528 2.527 2.527 0 0 1 2.525 2.528M19.072 294.973a2.527 2.527 0 0 1-2.525 2.528 2.527 2.527 0 0 1-2.525-2.528 2.526 2.526 0 1 1 5.05 0M19.018 318.08a2.526 2.526 0 1 1-5.05 0 2.527 2.527 0 0 1 2.525-2.527 2.527 2.527 0 0 1 2.525 2.528" mask="url(#i)"/>
            </g>
        </g>
    </g>
</svg>
