<svg xmlns="http://www.w3.org/2000/svg" xmlns:xlink="http://www.w3.org/1999/xlink" width="373" height="560" viewBox="0 0 373 560">
    <defs>
        <rect id="a" width="373" height="560" rx="4"/>
        <path id="c" d="M.328 12.117c0 10.704 3.749 17.34 9.56 17.34 5.812 0 10.524-9.164 10.524-17.204 0-8.04-8.448-11.91-14.26-11.91C.34.342.328 3.084.328 12.116"/>
        <radialGradient id="d" cx="-112.715%" cy="52.942%" r="166.337%" fx="-112.715%" fy="52.942%" gradientTransform="matrix(1 0 0 .68985 0 .164)">
            <stop offset="0%" stop-color="#FFE8E8"/>
            <stop offset="100%" stop-color="#FDACAC"/>
        </radialGradient>
        <path id="f" d="M4.744.432c-5.31.49-4.23 5.503-3.447 11.012.872 6.148 2.355 9.813 6.904 9.38 4.548-.434 8.853-4.98 8.292-10.827C15.96 4.424 9.903.403 5.396.403c-.221 0-.44.01-.652.03"/>
        <radialGradient id="g" cx="-153.208%" cy="56.158%" r="202.92%" fx="-153.208%" fy="56.158%" gradientTransform="matrix(1 0 0 .77735 0 .125)">
            <stop offset="0%" stop-color="#FFE8E8"/>
            <stop offset="100%" stop-color="#FDACAC"/>
        </radialGradient>
        <path id="i" d="M0 526.855h417.733V.23H0z"/>
    </defs>
    <g fill="none" fill-rule="evenodd">
        <mask id="b" fill="#fff">
            <use xlink:href="#a"/>
        </mask>
        <g mask="url(#b)">
            <path fill="#D8DDEA" d="M127.034 379.588s.49-3.738-1.632-7.925c-1.5-2.959 0-6.026 1.305-9.375l1.306-3.348s.642-1.318 2.339.111c1.522 1.284 2.066 3.07 2.066 5.078 0 2.01-.98 4.186-.49 5.525.49 1.34 1.577 3.684 1.631 5.47.055 1.785-.651 6.417-.651 6.417l-5.874-1.953z"/>
            <path fill="#E9EEFB" d="M149.875 382.928c0 .57-2.58 1.493-6.526 2.256-3.113.602-7.05 1.576-11.42 1.576-7.031 0-14.43-2.133-18.139-3.373-.782-.262-.753-.724.043-.941 1.6-.439 4.554-.904 6.022-1.34 3.045-.902 7.561-2.006 11.502-1.93 3.777.074 8.291 1.692 11.285 2.148 4.863.74 7.233.924 7.233 1.604"/>
            <path fill="#E9EEFB" d="M130.623 383.988s-4.74.253-3.48-2.175c1.522-2.935 3.045-6.523 3.861-9.024.356-1.091 1.768-2.73 4.514-4.948 2.827-2.283 5.547-5.763 6.853-7.829 1.09-1.727 1.304-2.609 2.61-2.12 1.305.49 3.592 3.794 2.773 7.666-.598 2.827-2.47 6.156-5.547 7.828-2.502 1.36-2.556 2.882-2.393 3.534.163.652.815 3.317-1.958 5.11-2.773 1.795-7.233 1.958-7.233 1.958M143.62 385.021l6.799-.055s1.613.045 1.305-1.032a34.672 34.672 0 0 0-.544-1.685s-.108-.87-1.685-.708c-1.465.152-4.46.435-4.46.435l-1.414 3.045z"/>
            <path fill="#C5CBD8" d="M96.562 428.434l-.288 1.439c-.61 1.66-1.224 2.422-1.996 3.536-.745 1.072-.772 2.607-.609 4.157.257 2.433.69 4.895 1.424 5.058.734.163 2.084-1.47 2.248-5.222.047-1.096.446-1.69 1.149-2.244a4.48 4.48 0 0 0 1.624-2.649l.853-4.32-4.405.245z"/>
            <path fill="#D8DDEA" d="M111.127 427.616c0 .245-4.23 1.386-10.605 1.386-3.59 0-5.14-.244-7.831-.325-2.039-.063-4.69-.15-4.69-.775 0-.326 1.794-1.305 3.874-1.631 1.692-.266 4.16-1.427 7.342-1.427 3.589 0 5.403.808 7.097 1.141 3.46.683 4.813 1.142 4.813 1.631"/>
            <path fill="#D8DDEA" d="M97.096 427.29s1.305.979 1.55 2.377c.533 3.047-.327 4.14.734 6.21 1.33 2.595 4.73 8.05 6.281 8.05 1.387 0 1.795-3.528 1.224-5.444-.508-1.704-1.795-2.223-1.632-3.757.163-1.533.253-3.3-.49-4.522-1.304-2.147-1.957-2.914-1.957-2.914h-5.71zM106.83 426.447l4.089-.02s.804-.056.86.619c.041.489.035 1.062.035 1.062s-.07.521-1.11.423c-.967-.09-2.941-.26-2.941-.26l-.933-1.824z"/>
            <g>
                <path fill="#23478D" d="M281.716 495.563c-17.038 0-28.548-5.15-38.702-9.69-9.061-4.056-17.62-7.884-29.317-7.884h-28.685v-20.827h28.685c30.424 0 37.27 17.573 68.02 17.573 16.114 0 26.53-4.584 36.605-9.017 9.557-4.207 33.37-8.556 33.37-8.556v20.827s-20.993 3.833-30.215 7.893c-10.312 4.537-21.997 9.681-39.76 9.681"/>
                <path fill="#D8DDEA" d="M255.476 400.591s-5.46 1.356-6.954 3.444c-1.189 1.662-1.721 5.002-1.86 5.484l-.06.078s-10.386 4.31-12.668 5.665c-2.28 1.356-3.993 3.662-5.014 6.066-.48 1.13-4.574 12.62-7.046 20.023-2.087 6.252-3.713 9.927-4.102 10.713-.389.785-.987 1.422-2.227 1.572-1.576.19-9.807.841-9.807.841l6.112 10.983s7.434 1.51 11.355 2.278c3.043.597 6.03-1.898 7.77-4.122 3.774-4.83 6.436-12.827 6.436-12.827l1.318 11.766a29.636 29.636 0 0 1-.034 6.88l-.686 5.626h43.762l.815-49.06 8.067-8.542-15.448-7.764a1.36 1.36 0 0 1-.681-.917c-.394-1.866-.347-4.134-1.432-5.19-1.576-1.533-4.631-2.291-4.631-2.291l-12.985-.706z"/>
                <path fill="#2474CD" d="M254.145 409.08s-1.59-.61-3.097-1.79c-1.761-1.379-2.119-3.336.326-4.556 1.37-.684 2.837-1.058 2.961-1.058.245 0 14.56.325 14.56.325s1.124.434 2.445 1.099c2.035 1.024 2.085 2.773.57 4.027-1.67 1.383-3.015 1.972-3.015 1.972l-14.75-.02z"/>
                <path fill="#E09595" d="M268.895 409.086s-2.631 1.522-7.277 1.482c-4.645-.041-7.5-1.482-7.5-1.482V394.42h14.777v14.666z"/>
                <path fill="#C5CBD8" d="M279.978 449.026s3.369 18.658 4.238 21.804c-16.408 5.966-29.555 4.773-29.555 4.773s6.628-4.122 16.407-13.993c4.053-4.091 8.91-12.584 8.91-12.584M238.213 474.125s.896-7.444.53-11.35c-.21-2.23-1.304-11.797-1.304-11.797l9.507 24.625-8.733-1.478zM230.553 459.711c-1.425.829-2.352 1.208-3.708-.434-.419-.492-1.413-1.518-2.065-2.007-2.998-2.245-4.726-2.657-4.726-2.657s1.413 1.248 2.608 2.603c1.033 1.173 2.037 2.913 2.602 5.178.14.556-.09 1.195-1.638 1.154a870.07 870.07 0 0 1-3.99-.117c-1.707-.053-3.066-1.38-3.243-3.074l-.001-.018a.504.504 0 0 0-.457-.447l-1.11-.046-1.426 3.946 11.164 4.069c3.545 0 8.15-5.167 11.559-13.574-1.743 2.763-3.952 4.483-5.57 5.424"/>
                <path fill="#E09595" d="M215.3 459.603c0 3.07-2.494 5.56-5.569 5.56a5.564 5.564 0 0 1-5.568-5.56c0-3.07 2.493-5.56 5.568-5.56a5.564 5.564 0 0 1 5.57 5.56"/>
            </g>
            <g transform="translate(251 377)">
                <mask id="e" fill="#fff">
                    <use xlink:href="#c"/>
                </mask>
                <path fill="url(#d)" d="M.328 12.117c0 10.704 3.749 17.34 9.56 17.34 5.812 0 10.524-9.164 10.524-17.204 0-8.04-8.448-11.91-14.26-11.91C.34.342.328 3.084.328 12.116" mask="url(#e)"/>
            </g>
            <g>
                <path fill="#423748" d="M254.466 382.059s4.102 3.709 13.069 4.01c1.054.035 1.87.858 1.91 1.957.042 1.098.042 3.01.45 4.068.752 1.955.542 3.417.868 3.309.326-.109 3.165-1.275 3.776-6.89.361-3.319.136-7.54-2.852-9.871-2.275-1.776-2.77-5.479-9.67-4.611-3.417.43-4.618.054-7.389 1.79-3.028 1.897-4.118 4.301-4.21 6.712-.135 3.594 1.345 7.5 1.345 7.5l.044-3.968a4.197 4.197 0 0 1 1.701-3.298l.958-.708z"/>
                <path fill="#FFAEAE" d="M272.456 394.505c-.658 2.271-1.868 3.917-2.703 3.675-.834-.24-.65-3.733.007-6.003.658-2.271 1.89-2.912 2.843-2.067.789.7.511 2.123-.147 4.395"/>
                <path fill="#C5CBD8" d="M245.035 449.005c-.217.016-.283-.288-.079-.361 3.175-1.15 11.675-4.074 16.898-4.422 6.519-.434 18.145 2.17 18.145 2.17l-34.964 2.613zM238.113 450.135l-3.096-17.684.665 23.596s1.047-2.332 1.359-3.118c.312-.788 1.072-2.794 1.072-2.794M247.746 411.429c3.244 3.531 5.18 5.091 11.133 8.78.739.484.34 1.053-.307.97-1.054-.134-2.956-.464-4.937-1.86-4.598-3.243-5.89-7.89-5.89-7.89M266.774 420.064c2.587-1.848 7.072-5.343 8.987-8.605 0 0 1.467 4.394-2.282 7.16-2.076 1.533-4.502 2.216-6.255 2.521-.627.11-.968-.707-.45-1.076M266.241 413.284c.67-1.182 1.966-2.61 2.914-2.475.843.12.228 1.624-.069 2.32a33.878 33.878 0 0 1-4.626 7.76s-.357-3.834 1.781-7.605"/>
                <path fill="#C5CBD8" d="M267.431 421.083c3.543-2.39 7.782-3.65 12.053-3.85 1.655-.079 1.824.842 1.158.996-2.164.499-4.178.944-6.239 1.367a450.72 450.72 0 0 0-6.972 1.487M239.146 416.45l7.993 1.71c.25.053.24.412-.013.449-1.224.176-3.24.342-5.101-.071-2.132-.474-2.88-2.089-2.88-2.089"/>
                <path fill="#23478D" d="M174.606 609.556c-.675 0-1.246-.52-1.299-1.201-.009-.11-.48-11.042-3.807-17.892-1.979-4.077-4.536-7.666-7.823-11.5-4.09-4.772-9.762-10.866-13.581-18.985-6.603-14.038-5.65-23.947-5.65-25.007 0-.895.223-3.997.306-6.142.02-.53.505-.434.57.04.082.59.542 3.248.73 3.835.187.586.405.342.649.044.244-.299.62-1.024.788-.922.258.155-.232 1.477-.222 3.41.004.59-.743 11.179 5.53 24.514 3.67 7.8 8.184 13.067 12.167 17.715 3.263 3.805 6.344 7.4 8.47 11.78 3.544 7.297 4.437 18.439 4.473 18.91a1.302 1.302 0 0 1-1.301 1.401"/>
                <path stroke="#23478D" stroke-linecap="round" stroke-width="12" d="M221.544 333.131l6.355 10.957c2.337 4.448 6.479 6.463 10.271 6.184h78.725c4.455 0 8.52-1.736 10.733-6.291l6.913-13.67M375.612 459.627l-43.026-137.453M188.949 459.627l36.072-140.165"/>
                <path stroke="#2474CD" stroke-linecap="round" stroke-width="12" d="M326.61 350.272c4.455 0 8.475-3.254 8.475-8.679v-11.282"/>
                <path stroke="#23478D" stroke-linecap="round" stroke-width="12" d="M322.377 348.8c-2.238-1.496-3.745-4.092-3.642-7.497l.012-11.28"/>
                <path stroke="#2474CD" stroke-linecap="round" stroke-width="12" d="M218.541 348.91c2.227-1.439 3.763-3.963 3.763-7.316V330.31"/>
                <path fill="#2B2B51" d="M298.578 456.86c.754.346 1.025 1.934-.876 3.886 3.694-1.41 3.98-8.024 3.918-9.2-.767.85-3.51 3.321-6.343 5.213-.226.152-.08.399.182.325 1.07-.299 2.365-.569 3.119-.223M311.019 430.282c-.218.542-1.467 8.245-.924 9.546.338.81 1.694 1.004 2.386.949.265-.02.346-.363.122-.507-.505-.324-1.117-.847-1.204-1.527-.272-2.115-.38-8.461-.38-8.461M297.98 443.517c-1.25.38-1.148-.027-.875-.233 1.395-1.048 3.141-2.632 3.429-4.16.561-2.99 1.304-9.114 1.304-9.114s1.086 8.083.652 10.252c-.295 1.47-2.452 2.63-4.51 3.255"/>
                <path fill="#E86A46" d="M306.036 418.063s6.9-2.912 14.294-2.741c4.176.096 8.22 1.292 9.778 1.818.421.142.49.704.119.944l-3.543 2.331a.738.738 0 0 0-.285.894l1.74 4.503a.51.51 0 0 1-.678.655c-1.798-.774-6.256-2.42-10.399-2.47-4.297-.053-8.846 1.23-8.846 1.23l-2.18-7.164z"/>
                <path fill="#2B2B51" d="M313.029 423.284c3.476 9.33 5.812 18.09 8.203 28.206 1.145 4.845-1.49 7.142-5.65 6.727-5.704-.569-9.615-2.224-9.615-2.224l7.062-32.709z"/>
                <path fill="#42426C" d="M277.174 425.78c-1.304 2.17-1.88 9.657-.598 18.876.815 5.858 4.563 8.788 5.052 17.466.315 5.585-2.607 13.127-2.607 13.127h29.01s-1.527-10.88-1.63-14.808c-.103-3.928 1.803-9.645 2.445-11.392 1.564-4.26 2.773-6.363 3.585-10.414.978-4.882 1.134-12.729.815-14.483-.217-1.193-.652-2.604-2.174-3.689 0 0-22-2.17-27-.054-4.997 2.116-5.595 3.2-6.898 5.37"/>
                <path fill="#2B2B51" d="M313.335 429.955c.107-2.675.066-4.954-.09-5.803-.216-1.194-.65-2.604-2.173-3.689 0 0-13.274-1.308-21.543-.9 6.168 5.41 15.342 11.439 23.806 10.392"/>
                <path fill="#E86A46" d="M289.669 416.666l-4.02 2.604s8.14 3.92 16.84 4.122c4.673.11 7.063-.542 8.802-1.627.578-.361.593-1.04.046-1.439-1.894-1.381-5.37-2.792-5.37-2.792l-16.298-.868z"/>
                <path fill="#FF7E59" d="M284.325 419.138a6.043 6.043 0 0 1 4.628-.77c2.432.59 7.482 2.004 15.167 5.35 10.438 4.545 10.745.182 20.534-4.774 7.536-3.815 13.412-7.32 30.19-4.95a.498.498 0 0 1 .22.895l-3.611 2.616c-.515.372-.94.68-.236 1.601l3.1 4.052a.522.522 0 0 1-.468.838c-2.908-.304-10.638-.742-19.525 1.783-14.124 4.014-17.057 9.113-24.772 8.354-3.622-.357-9.012-4.008-14.885-7.052-5.194-2.691-10.843-4.625-13.054-5.339a.467.467 0 0 1-.104-.84l2.816-1.764z"/>
                <path fill="#2B2B51" d="M299.828 454.637c-.38-1.085.409-1.654 1.072-2.333 1.651-1.688 3.273-3.526 4.612-8.694.484-1.866.89-6.819.997-5.789.11 1.03-.4 4.545-.489 7.16-.04 1.212-.517 3.884.69 4.012 1.049.111 3.602-3.767 4.662-6.29-1.058 2.558-3.896 10.144-4.048 10.415-1.086 1.953-6.03 7.052-10.376 8.3 3.667-3.093 3.28-5.639 2.88-6.781"/>
                <path fill="#2B2B51" d="M301.023 457.675s-2.77 3.091-7.008 5.695c-4.238 2.604-12.495 6.455-12.495 6.455l23.903-7.757-4.4-4.393z"/>
                <path fill="#FFAEAE" d="M307.922 456.698c-.741 2.665-.751 4.682-2.77 4.394-2.663-.38-4.703-2.348-4.184-5.045.543-2.82 3.97-5.379 6.41-5.207 3.097.217 1.087 3.905.544 5.858"/>
            </g>
            <g transform="translate(279 391)">
                <mask id="h" fill="#fff">
                    <use xlink:href="#f"/>
                </mask>
                <path fill="url(#g)" d="M4.744.432c-5.31.49-4.23 5.503-3.447 11.012.872 6.148 2.355 9.813 6.904 9.38 4.548-.434 8.853-4.98 8.292-10.827C15.96 4.424 9.903.403 5.396.403c-.221 0-.44.01-.652.03" mask="url(#h)"/>
            </g>
            <g transform="translate(88 170)">
                <path fill="#FFAEAE" d="M199.897 241.97l.531 3.686 13.375-.65-2.064-9.323s-4.563-1.301-9.875 3.246c-1.007.862-2.02 1.642-1.967 3.041"/>
                <path fill="#FF7E59" d="M198.437 244.555l.361.542c.286.428.397.95.307 1.458l-.05.282a.665.665 0 0 0 .647.78s5.136.787 9.972.75c6.845-.055 7.932-.543 7.932-.543s-1.413-1.843-2.065-3.903c-.651-2.06-.869-3.794-.869-3.794s-5.378.38-9.18 1.193c-3.803.813-6.77 2.06-6.77 2.06a.822.822 0 0 0-.285 1.175"/>
                <path fill="#423748" d="M197.025 228.194c.386 3.49 2.328 2.936 2.328 2.936l3.26-3.253c.814 2.684-1.873 4.84.542 8.456 1.739 2.602 5.216 2.656 8.258 3.74 4.12 1.468 3.749 4.553 7.497 4.39 2.463-.107 3.91-1.626 2.281-3.468-1.63-1.843-.396-1.95 1.141-1.41 1.847.65 3.694 1.084 4.726.976 3.146-.33 3.39-3.549 2.119-5.041-2.77-3.252-1.304-4.716-3.748-7.317-2.515-2.677-5.705-1.952-7.823-6.613-1.561-3.434-3.26-7.046-9.127-7.155-2.826-.051-4.237-1.625-7.061-1.788-2.986-.172-6.302.65-8.15 3.957-.59 1.059-2.471 1.477-3.367 4.12-1.45 4.273 1.874 7.113 1.874 7.113v-1.667c-.041-1.666 1.627-3.656 1.834-2.114.247 1.854 1.491 2.847 2.503 3.121.484.131.858.52.913 1.017"/>
                <path fill="#FFAEAE" d="M202.94 228.872c.01 3.16-1.652 5.049-2.638 4.968-.987-.082-1.113-1.796-.935-3.945.178-2.147.778-3.588 1.75-3.773 1.286-.245 1.817.594 1.823 2.75"/>
                <path fill="#2B2B51" d="M189.52 280.182l8.801-10.026-6.193 16.965z"/>
                <path stroke="#23478D" stroke-linecap="round" stroke-width="12" d="M125.616 180.36c-4.453-.135-8.372-3.508-8.207-8.926l.01-11.272"/>
                <path fill="#42426C" d="M271.76 426.69H91.527c-10.474 0-18.965-8.472-18.965-18.923V289.234H97.66c15.319 0 39.547 20.38 71.163 20.38 31.617 0 52.694-20.38 68.013-20.38h53.889v118.533c0 10.45-8.49 18.923-18.966 18.923"/>
                <path fill="#2B2B51" d="M290.752 289.288h-26.51l-.026 125.911H85.01c-7.45 0-12.448-5.42-12.448-12.42v5.204c0 10.451 8.492 18.924 18.966 18.924H271.76c10.475 0 18.966-8.473 18.966-18.924l.027-118.695z"/>
                <path stroke="#2474CD" stroke-linecap="round" stroke-width="12" d="M263.346 289.667l-36.07-140.057"/>
                <path stroke="#23478D" stroke-linecap="round" stroke-width="12" d="M267.04 290.318h25.206"/>
                <path stroke="#2474CD" stroke-linecap="round" stroke-width="12" d="M76.691 289.667l43.133-137.238M116.456 163.269l6.354 10.949c2.337 4.444 6.479 6.458 10.271 6.179h78.722c4.454 0 8.519-1.735 10.732-6.286l6.913-13.66"/>
                <path fill="#23478D" d="M305.467 326.904c-.082.106-.192.144-.3.11-.213-1.948-.449-2.265-.474-2.284-.069-.055-.163.06-.261.91-.206-.573-.224-.955-.269-1.113-.088-.317-.373-.753-.387-.428 0 16.342-4.302 22.417-10.238 28.97l-.304.335c-6.176 6.823-10.081 16.893-10.245 17.318a1.298 1.298 0 0 0 1.218 1.766c.523 0 1.018-.317 1.217-.835.039-.1 3.282-10.396 9.127-16.853l.303-.334c6.088-6.721 11.517-11.683 11.517-29.025.009-1.01-.568 1.032-.904 1.463"/>
                <path fill="#C5CBD8" d="M275.99 361.743s1.589 2.235 3.436 3.32c1.847 1.083 3.476 1.463 5.65 1.571 2.173.109 4.522.678 4.522 1.328l-4.414 3.66-7.17-3.362-2.024-6.517z"/>
                <path fill="#D8DDEA" d="M276.193 371.54c.938 4.544 2.12 6.666 1.93 8.536-.6 5.888-5.65 28.836-8.258 47.048-2.278 15.905 6.953 31.22 20.425 33.28 12.189 1.863 20.225-5.782 22.056-12.684 1.466-5.529 3.585-16.91-7.931-33.171-11.517-16.26-18.117-28.05-18.443-32.928-.144-2.147 1.127-7.664 3.503-12.927.467-1.034 0-1.166-1.249-1.057-.356.031-.542.09-.87.109-1.846.107-2.118-1.003-2.66-2.223-.197-.44-.354-1.003-.598-1.545-.368-.817-.964-1.372-1.684-.216-.313.5-.394.623-.64 1.03-.243.406-.855.731-1.466 0-2.389-2.862-3.337-3.268-4.196-3.09-1.785.37-1.06 4.308.081 9.837"/>
                <path fill="#C5CBD8" d="M278.64 385.117c.54-.347.12 6.748 1.239 8.751.307.558.878-6.84 1.759-7.06.79-.187 1.115 5.098 2.378 6.669.367.46-.501-4.893-.489-7.385.002-.312-.053-.714.244-.813.302-.1.585.316.775.57.465.622 1.222 2.113 1.407 1.687.06-.265-.114-1.01-.185-1.647-.081-.73.693-.61 1.263-.122-.326-1.138-1.094-3.853-1.1-4.837-.005-.678.285-2.643.489-3.577-.326 1.26-.827 1.25-.978.446-.122-.65-.04-1.87-.244-1.95-.38-.23-.734.69-.978 1.26-.33.766-.925 2.431-1.63.69-.774-1.91-1.267-3.76-1.629-5.406-.45-2.032-1.02-2.52-.979-.976.028 1.057.164 2.806.204 4.106.024.76-.047 2.125-1.14 1.179-1.223-1.057-1.997-2.56-2.336-3.076.706 2.872 1.626 4.808 1.358 6.247-.605 3.246-1.752 10.692-2.078 12.398 0 0 1.956-6.708 2.65-7.154"/>
                <path stroke="#23478D" stroke-linecap="round" stroke-linejoin="round" stroke-width="4" d="M278.34 379.86l7.387 1.083-7.618 1.044 8.162 1.884"/>
                <path fill="#E86A46" d="M224.282 47.711s.124 14.248-6.52 13.876c-3.872-.217-8.359-5.638-9.174-13.442-.372-3.568-.175-8.689.218-11.274 1.37-9.036-3.555-14.553-7.606-19.08-5.432-6.07-8.04-17.561-8.04-17.561s-14.173 12.248-11.082 30.136c1.632 9.448-.822 14.845-4.78 19.513-2.39 2.818-6.302 2.601-8.692-1.734-4.23-7.676-4.346-17.128.297-25.204-.064.016-.124.038-.188.054-11.408 2.927-22.816 10.082-23.794 27.318-.499 8.79-5.012 12.384-7.236 15.935-3.872 6.179-2.01 14.99 2.24 21.139 4.655 6.732 11.594 11.918 15.184 14.335 1.337.9 3.058.96 4.47.183 3.65-2.01 11.876-5.63 23.803-5.63 11.594 0 20.6 3.72 24.721 5.795a4.234 4.234 0 0 0 4.749-.648c10.672-9.745 16.754-20.996 17.135-32.247.424-12.53-5.705-21.464-5.705-21.464"/>
                <path fill="#FF7E59" d="M164.377 95.517c-5.91-5.04-13.448-7.48-16.708-16.911-1.594-4.61-.227-9.67.565-12.655.115-.436.872-.475 1.063-.056.985 2.17 3.085 6.206 5.707 7.832 3.668 2.277-2.14-8.698 0-15.934 1.294-4.378 5.502-10.733 5.502-10.733s-1.019 7.155 2.648 13.66c3.668 6.504 6.113 9.105 6.928 16.26.815 7.155 1.506 12.725.815 13.496-.509.57-3.293-2.264-5.705-2.44-3.362-.243-1.63 5.041-.815 7.481M186.424 96.384s-8.497-5.014-10.433-12.493c-1.37-5.294.51-12.033 7.437-17.074 6.928-5.04 8.456-7.805 9.068-12.195.611-4.39-.815-11.058-.204-17.399.611-6.341 3.871-10.244 3.871-10.244s-2.445 10.732.204 17.399c2.649 6.666 12.673 19.33 15.486 27.642 5.501 16.261-12.283 26.668-12.283 26.668s-3.25-1-6.735-1.599c-3.116-.536-6.459-.705-6.41-.705"/>
                <path fill="#FFF" d="M188.869 96.547s-4.116-8.347-2.282-14.852c1.283-4.551 4.853-7.133 7.538-10.081 1.63-1.79 2.28-3.904 2.514-2.927.815 3.414-.851 6.045-1.359 7.968-.815 3.089-.204 5.312 2.649 8.726 2.853 3.415 3.38 9.81.12 12.846 0 0-2.933-.705-4.508-1.003-1.418-.268-4.672-.677-4.672-.677"/>
                <path fill="#C5CBD8" d="M210.335 165.654h-18.372a3.597 3.597 0 0 1-3.6-3.593v-57.546h25.574v57.546a3.597 3.597 0 0 1-3.602 3.593"/>
                <path fill="#D8DDEA" d="M205.773 165.654H187.4a3.597 3.597 0 0 1-3.602-3.593v-57.546h25.576v57.546a3.597 3.597 0 0 1-3.601 3.593"/>
                <path fill="#2B2B51" d="M201.367 157.632c0 2.634-2.14 4.77-4.78 4.77a4.775 4.775 0 0 1-4.78-4.77c0-2.634 2.139-4.77 4.78-4.77 2.64 0 4.78 2.136 4.78 4.77"/>
                <path fill="#42426C" d="M199.194 157.632a2.605 2.605 0 0 1-2.608 2.602 2.605 2.605 0 0 1-2.608-2.602 2.605 2.605 0 0 1 2.608-2.602 2.605 2.605 0 0 1 2.608 2.602"/>
                <path fill="#42426C" d="M205.837 168.36a1.092 1.092 0 0 1-1.532-.12l-8.473-9.888a1.085 1.085 0 0 1 .12-1.528 1.092 1.092 0 0 1 1.532.12l8.472 9.886c.389.453.335 1.141-.12 1.53"/>
                <path fill="#C5CBD8" d="M180.186 165.654h-18.372a3.597 3.597 0 0 1-3.602-3.593v-57.546h25.576v57.546a3.597 3.597 0 0 1-3.602 3.593"/>
                <path fill="#D8DDEA" d="M176.112 165.654h-18.373a3.597 3.597 0 0 1-3.601-3.593v-57.546h25.575v57.546a3.597 3.597 0 0 1-3.601 3.593"/>
                <path fill="#2B2B51" d="M171.706 157.632c0 2.634-2.14 4.77-4.78 4.77a4.775 4.775 0 0 1-4.78-4.77c0-2.634 2.14-4.77 4.78-4.77s4.78 2.136 4.78 4.77"/>
                <path fill="#42426C" d="M169.533 157.632a2.605 2.605 0 0 1-2.607 2.602 2.605 2.605 0 0 1-2.608-2.602 2.605 2.605 0 0 1 2.608-2.602 2.605 2.605 0 0 1 2.607 2.602"/>
                <path fill="#42426C" d="M157.817 168.36a1.091 1.091 0 0 0 1.531-.12l8.473-9.888a1.085 1.085 0 1 0-1.651-1.408l-8.473 9.886a1.086 1.086 0 0 0 .12 1.53"/>
                <path fill="#C5CBD8" d="M246.832 149.502c0 1.626-29.138.975-65.08.975-35.942 0-65.079.434-65.079-.975 0-2.335 29.137-6.83 65.08-6.83 35.941 0 65.079 4.495 65.079 6.83"/>
                <path fill="#E9EEFB" d="M177.106 145.762h-20.36a2.605 2.605 0 0 1-2.608-2.602v-38.565h25.575v38.565a2.605 2.605 0 0 1-2.607 2.602"/>
                <path fill="#C5CBD8" d="M177.437 107.712h-21.023a.816.816 0 0 1-.814-.813c0-.447.366-.813.814-.813h21.023c.448 0 .815.366.815.813a.816.816 0 0 1-.815.813M177.437 110.68h-21.023a.816.816 0 0 1-.814-.813c0-.447.366-.813.814-.813h21.023c.448 0 .815.366.815.813a.816.816 0 0 1-.815.813M177.437 113.647h-21.023a.816.816 0 0 1-.814-.813c0-.447.366-.813.814-.813h21.023c.448 0 .815.366.815.813a.816.816 0 0 1-.815.813M177.437 116.615h-21.023a.816.816 0 0 1-.814-.813c0-.447.366-.813.814-.813h21.023c.448 0 .815.366.815.813a.816.816 0 0 1-.815.813M177.437 119.583h-21.023a.816.816 0 0 1-.814-.814c0-.447.366-.813.814-.813h21.023c.448 0 .815.366.815.813a.816.816 0 0 1-.815.814M177.437 122.55h-21.023a.816.816 0 0 1-.814-.813c0-.447.366-.813.814-.813h21.023c.448 0 .815.366.815.813a.816.816 0 0 1-.815.813M177.437 125.518h-21.023a.816.816 0 0 1-.814-.813c0-.448.366-.814.814-.814h21.023c.448 0 .815.366.815.814a.816.816 0 0 1-.815.813M177.437 128.485h-21.023a.816.816 0 0 1-.814-.813c0-.447.366-.813.814-.813h21.023c.448 0 .815.366.815.813a.816.816 0 0 1-.815.813M177.437 131.453h-21.023a.816.816 0 0 1-.814-.813c0-.448.366-.814.814-.814h21.023c.448 0 .815.366.815.814a.816.816 0 0 1-.815.813"/>
                <path fill="#E9EEFB" d="M206.766 145.762h-20.36a2.605 2.605 0 0 1-2.607-2.602v-38.565h25.575v38.565a2.605 2.605 0 0 1-2.608 2.602"/>
                <path fill="#FF7E59" d="M201.272 141.046H191.9a.693.693 0 0 1-.692-.69v-3.497c0-.38.312-.691.692-.691h9.372c.38 0 .692.31.692.69v3.498c0 .38-.311.69-.692.69"/>
                <path fill="#C5CBD8" d="M207.098 107.712h-21.023a.817.817 0 0 1-.816-.813c0-.447.368-.813.816-.813h21.023c.448 0 .814.366.814.813a.816.816 0 0 1-.814.813M207.098 110.68h-21.023a.817.817 0 0 1-.816-.813c0-.447.368-.813.816-.813h21.023c.448 0 .814.366.814.813a.816.816 0 0 1-.814.813M207.098 113.647h-21.023a.817.817 0 0 1-.816-.813c0-.447.368-.813.816-.813h21.023c.448 0 .814.366.814.813a.816.816 0 0 1-.814.813M207.098 116.615h-21.023a.817.817 0 0 1-.816-.813c0-.447.368-.813.816-.813h21.023c.448 0 .814.366.814.813a.816.816 0 0 1-.814.813M207.098 119.583h-21.023a.817.817 0 0 1-.816-.814c0-.447.368-.813.816-.813h21.023c.448 0 .814.366.814.813a.816.816 0 0 1-.814.814M207.098 122.55h-21.023a.817.817 0 0 1-.816-.813c0-.447.368-.813.816-.813h21.023c.448 0 .814.366.814.813a.816.816 0 0 1-.814.813M207.098 125.518h-21.023a.817.817 0 0 1-.816-.813c0-.448.368-.814.816-.814h21.023c.448 0 .814.366.814.814a.816.816 0 0 1-.814.813M207.098 128.485h-21.023a.817.817 0 0 1-.816-.813c0-.447.368-.813.816-.813h21.023c.448 0 .814.366.814.813a.816.816 0 0 1-.814.813M207.098 131.453h-21.023a.817.817 0 0 1-.816-.813c0-.448.368-.814.816-.814h21.023c.448 0 .814.366.814.814a.816.816 0 0 1-.814.813"/>
                <path stroke="#D8DDEA" stroke-linecap="round" stroke-width="2" d="M53.984 39.906l63.07 109.108"/>
                <path stroke="#E9EEFB" stroke-linecap="round" stroke-width="2" d="M93.097 39.906l43.513 109.108"/>
                <path fill="#FF7E59" d="M171.612 141.046h-9.372a.693.693 0 0 1-.692-.69v-3.497c0-.38.311-.691.692-.691h9.372c.38 0 .692.31.692.69v3.498c0 .38-.312.69-.692.69"/>
                <path stroke="#E9EEFB" stroke-linecap="round" stroke-width="2" d="M154.373 39.906l10.92 109.108M208.968 39.906L198.05 149.014"/>
                <path stroke="#C5CBD8" stroke-linecap="round" stroke-width="2" d="M106.134 39.906l36.995 109.108"/>
                <path stroke="#D8DDEA" stroke-linecap="round" stroke-width="2" d="M309.358 39.906l-63.07 109.108"/>
                <path stroke="#E9EEFB" stroke-linecap="round" stroke-width="2" d="M270.245 39.906l-43.513 109.108"/>
                <path stroke="#C5CBD8" stroke-linecap="round" stroke-width="2" d="M257.208 39.906l-36.995 109.108"/>
                <path fill="#2B2B51" d="M167.52 317.31c-17.038 0-28.546-5.145-38.7-9.684-9.06-4.052-17.617-7.877-29.314-7.877H72.563v-7.805h26.943c13.369 0 23.101 4.351 32.513 8.559 9.9 4.426 20.136 9.002 35.5 9.002 16.113 0 26.529-4.58 36.602-9.011 9.557-4.203 19.44-8.55 33.368-8.55h29.551v7.805H237.49c-12.282 0-20.992 3.83-30.213 7.887-10.31 4.535-21.996 9.674-39.757 9.674"/>
                <mask id="j" fill="#fff">
                    <use xlink:href="#i"/>
                </mask>
                <path fill="#2B2B51" d="M120.747 336.01h2.608V294.6h-2.608z" mask="url(#j)"/>
                <path fill="#23478D" d="M119.28 305.929h2.608v-11.491h-2.608z" mask="url(#j)"/>
                <path fill="#2474CD" d="M120.584 339.75c-.72 0-1.304-.582-1.304-1.301v-34.906l2.608 1.084v33.822c0 .719-.583 1.3-1.304 1.3" mask="url(#j)"/>
                <path fill="#2B2B51" d="M116.377 345.022c-2.273 5.001-13.958 29.596-17.59 38.201-7.483 17.734 4.766 35.553 23.15 35.553 19.972 0 30.29-20.907 23.604-36.006-4.313-9.737-15.882-31.696-18.725-37.477-.38-.774-10.245-.698-10.44-.27" mask="url(#j)"/>
                <path fill="#D8DDEA" d="M113.397 337.606a.89.89 0 0 1 .343 1.127c-2.176 4.787-13.364 28.335-16.84 36.574-7.165 16.978 4.562 34.038 22.163 34.038 19.122 0 29-20.016 22.599-34.472-4.13-9.323-15.206-30.347-17.927-35.882a2.843 2.843 0 0 1-.07-2.36c.582-1.386 1.6-3.38.722-4.036-1.304-.975-3.667.922-4.319.163-.806-.938-3.544-6.951-6.315-6.87-1.181.035-1.29 1.952-1.22 3.494.072 1.644.201 3.132-3.072 2.563-1.12-.194-2.12-.312-2.457.108-.944 1.177 4.377 4.3 6.393 5.553" mask="url(#j)"/>
                <path fill="#C5CBD8" d="M128.787 348.897l-3.87-7.561s-1.725-1.445-1.725-2.345c0-.592.186-1.794.326-2.493.054-.271-.14-.462-.435-.217l-1.54 1.12c-.307.235-.787.24-.883-.051-.14-.424-.544-1.106-.796-1.723-.218-.529-.87-.736-1.332-.397-.936.685-1.153 1.214-2.293 1.484-.905.216-1.579-.101-2.173-.162-.21-.021-.376.131-.218.272l1.94 1.748-.22 3.442c-.11.396-.236.831-.368 1.29l-3.28.755 2.158-.185a.676.676 0 0 1 .712.857c-.966 3.38-1.998 7.264-1.24 7.295.657.028 2.58-3.929 3.883-6.693.373-.79 1.067-1.562 1.89-1.417.664.116.985.64 1.316 1.959.923 3.686 2.972 11.811 4.183 11.328 1.207-.481-.179-7.057-.883-10.786-.1-.527.149-.623.53-.244.95.949 1.788 2.237 2.362 3.116 1.38 2.115 4.346 6.776 5.052 6.83.795.06-3.096-7.222-3.096-7.222" mask="url(#j)"/>
                <path fill="#2474CD" d="M111.782 344.086a1.3 1.3 0 0 1-.254-2.576l1.737-.346-.12-.005a1.302 1.302 0 0 1-.707-2.358 1.302 1.302 0 0 1 1.3-1.218h.016l9.778.107a1.302 1.302 0 0 1 1.284 1.417 1.302 1.302 0 0 1-.282 2.46l-12.495 2.494a1.3 1.3 0 0 1-.257.025" mask="url(#j)"/>
                <path stroke="#2474CD" stroke-linecap="round" stroke-width="12" d="M70.824 290.318h28.683c26.184 0 36.94 17.562 68.013 17.562 32.485 0 42.59-17.562 69.968-17.562h29.552" mask="url(#j)"/>
                <path fill="#E09595" d="M149.525 300.417s-1.697-.45-2.479-1.23c-.444-.443-.744-.92-.759-1.184a.383.383 0 0 1 .466-.396s1.126.416 1.625.583c.5.166 1.156.446 1.998.498h1.498l-2.35 1.729z" mask="url(#j)"/>
                <path fill="#FFAEAE" d="M153.761 298.494s-5.938.582-6.992.748c-1.054.166-1.863.693-2.72 1.218-1.22.748-2.153 1.283-2.718 1.882-.888.942-1.776 1.883-2.276 2.77-.446.79 2.23 2.272 3.219 2.49 1.998.444 3.219.333 4.606-.276 1.368-.6 2.22-1.218 3.33-1.495 1.46-.364 1.886-.166 4.272-.692 1.419-.313 2.553-1.052 2.553-1.052l-3.274-5.593z" mask="url(#j)"/>
                <path fill="#42426C" d="M190.739 254.847c-1.582.355-2.494 1.242-2.494 1.242l-9.471 20.423a14.327 14.327 0 0 1-4.26 5.325l-21.092 16.288a.38.38 0 0 0-.096.495l3.378 5.714c.112.19.353.258.548.158l24.466-12.421c2.088-1.079 3.729-2.404 5.738-5.492l9.833-14.69c2.121-3.212 2.801-7.415 1.985-10.903-.818-3.487-4.294-7.092-8.535-6.139" mask="url(#j)"/>
                <path fill="#2B2B51" d="M157.09 300.671c1.847-.76 18.619-6.843 18.619-6.843 1.793-.569.441.262.122.447-3.515 2.032-9.18 5.312-13.363 7.209-1.735.786-3.531 1.084-4.781.867-.945-.164-2.164-1.036-.597-1.68" mask="url(#j)"/>
                <path stroke="#23478D" stroke-linecap="round" stroke-linejoin="round" stroke-width="5" d="M112.544 287.608l-.326 8.24 3.586-7.481-.543 8.292 3.585-7.642-.544 8.564 4.13-6.775" mask="url(#j)"/>
                <path fill="#2B2B51" d="M164.586 398.602h18.253c.013 0 .026.003.04.003.007-.09.014-.181.014-.273v-10.407c0-2.146-1.76-3.903-3.911-3.903h-18.253c-2.151 0-3.911 1.757-3.911 3.903v10.407c0 2.132 1.738 3.878 3.87 3.9a3.919 3.919 0 0 1 3.898-3.63" mask="url(#j)"/>
                <path fill="#FFAEAE" d="M121.657 290.183s1.666.074 2.852-.447c1.385-.61 1.166-2.101 1.019-2.886-.245-1.301-.897-1.912-.897-1.912l-2.974 5.245z" mask="url(#j)"/>
                <path fill="#FFAEAE" d="M119.987 291.402c-.08-1.205.244-2.683.244-2.683l-7.008-5.542s2.065-.786 6.9-1.49c1.765-.258 2.675.447 3.205 1.3.156.254 1.594 2.409 1.594 2.409a2.106 2.106 0 0 1-.311 2.653l-1.283 1.24-1.769 3.861c-.844-.059-1.49-.528-1.572-1.748" mask="url(#j)"/>
                <path fill="#23478D" d="M119.987 291.808h-2.608c0-3.918 2.976-8.612 7.9-9.397l-.851.982c-.259.326-.16.39-.01.517l.957.804c.127.107.073.307-.09.344-3.388.776-5.298 4.242-5.298 6.75" mask="url(#j)"/>
                <path fill="#FFAEAE" d="M119.58 285.82l1.67-2.792s-.707-1.456-3.586-.853a192.25 192.25 0 0 0-4.261.951c-.671.156-1.21.646-1.432 1.296l-1.004 2.936c-.182.7.15 1.432.796 1.758 0 0 3.693 1.778 3.907 1.978.06.054.118.114.174.172.19.198.445.322.717.36l1.697.236a.839.839 0 0 0 .949-.928l-.334-2.595c-.081-.92.19-1.652.706-2.52" mask="url(#j)"/>
            </g>
        </g>
    </g>
</svg>
