<svg xmlns="http://www.w3.org/2000/svg" xmlns:xlink="http://www.w3.org/1999/xlink" width="373" height="560" viewBox="0 0 373 560">
    <defs>
        <rect id="a" width="373" height="560" rx="4"/>
        <path id="c" d="M22.495.754l-20.323.352S-.408 9.078.12 29.846c.457 17.933 4.561 30.579 6.387 31.499 1.824.92 6.614.92 14.14-1.84l.698 9.112 32.376-16.24-1.825-8.277.851-10.925C54.113 15.665 40.371.751 23.021.75c-.175 0-.35.002-.526.005"/>
        <linearGradient id="d" x1="47.445%" x2="76.95%" y1="51.461%" y2="79.76%">
            <stop offset="0%" stop-color="#FDACAC"/>
            <stop offset="100%" stop-color="#DF9595"/>
        </linearGradient>
        <path id="f" d="M.122 28.92C.585 46.758 4.748 59.335 6.6 60.25c1.639.81 8.49-2.9 12.39-6.085a43.913 43.913 0 0 0 3.043-4.553c2.583-7.534 4.511-23.805 4.511-23.805S20.334 9.248 11.862 3.479L2.203.337S-.414 8.267.122 28.921"/>
        <radialGradient id="g" cx="-62.691%" cy="45.633%" r="167.902%" fx="-62.691%" fy="45.633%" gradientTransform="matrix(1 0 0 .4414 0 .255)">
            <stop offset="0%" stop-color="#FFE8E8"/>
            <stop offset="100%" stop-color="#FDACAC"/>
        </radialGradient>
        <path id="i" d="M0 432h396.404V.255H0z"/>
    </defs>
    <g fill="none" fill-rule="evenodd">
        <mask id="b" fill="#fff">
            <use xlink:href="#a"/>
        </mask>
        <g mask="url(#b)">
            <path fill="#DBDFE4" d="M288.244 356.766h-39.956c-23.667 0-43.03-19.302-43.03-42.894V231.15c0-23.592 19.363-42.894 43.03-42.894h39.956c23.668 0 43.03 19.302 43.03 42.894v82.723c0 23.592-19.362 42.894-43.03 42.894"/>
            <path fill="#94BDFF" d="M290.772 335.595H245.76c-15.214 0-27.662-12.409-27.662-27.575v-85.374c0-15.167 12.448-27.574 27.662-27.574h45.01c15.216 0 27.663 12.407 27.663 27.574v85.374c0 15.166-12.447 27.575-27.662 27.575"/>
            <path fill="#C7CDD3" d="M324.023 212c-6.46-12.799-19.767-21.638-35.05-21.638h-41.024c-15.284 0-28.59 8.839-35.05 21.638h111.124z"/>
            <path fill="#DBDFE4" d="M277.041 208.17h-17.55a2.18 2.18 0 0 1-2.176-2.17c0-1.194.98-2.17 2.177-2.17h17.55a2.18 2.18 0 0 1 2.176 2.17 2.18 2.18 0 0 1-2.177 2.17"/>
            <path fill="#FFF" d="M266.321 304.7c.544-.552 6.673-6.476 3.226-14.636-3.074-7.276-10.95-7.276-16.84-5.553-2.16.632-3.754.363-4.867-2.043-3.074-6.638-10.118-11.872-17.545-12.383-9.736-.669-13.575 1.915-13.575 1.915s-4.699 21.663-1.153 40.085c2.89 15.008 13.698 27.48 16.99 27.48 13.516 0 24.873-.283 30.895-5.648 7.954-7.088 7.243-14.12 3.402-19.769-.603-.888-4.415-5.51-.533-9.448"/>
            <path fill="#FFF" d="M294.328 337.234c-3.074-6.639-10.118-11.873-17.545-12.383-9.736-.67-13.575 1.914-13.575 1.914s-4.085 7.241-4.659 17.586c-.374 6.752 36.892-4.71 35.779-7.117"/>
            <path fill="#76A4FF" d="M217.68 212.032l-.832 50.01s12.39-4.036 16.137-6.127c6.403-3.575 6.243-5.074 12.646-6.351 6.403-1.277 19.338-3.447 23.436-5.745 4.098-2.298-4.61-4.021-9.701-4.755-5.294-.764-8.878-2.065-10.245-2.809-2.818-1.532 3.884-2.031 7.94-2.808 6.66-1.277 7.171-4.085 4.866-5.362a188.32 188.32 0 0 0-8.243-4.3c-.123-.219-.936-1.94 3.857-2.657 5.123-.766 11.814-3.606 16.905-4.309 5.09-.702 10.79-.35 18.985-2.393v-2.394h-75.75z"/>
            <path fill="#FFF" d="M319.252 211.984l-39.524.032s-2.123 3.049-1.537 7.58c1.537 11.872 10.596 11.915 12.294 13.787 1.93 2.127 4.227 10.34 16.33 9.766 6.83-.324 14.143-8.19 14.143-8.19l-1.706-22.975z"/>
            <path fill="#E9EEFB" d="M316.323 211.984c1.322 3.212 2.11 6.99 2.11 10.661v85.376c0 15.166-12.446 27.574-27.661 27.574H245.76c-15.214 0-27.662-12.408-27.662-27.574v-85.376c0-3.67.95-7.434 2.271-10.645h-10.462c-2.834 5.71-4.65 12.378-4.65 19.15v82.722c0 23.592 19.363 42.894 43.03 42.894h39.956c23.668 0 43.03-19.302 43.03-42.894V231.15c0-6.771-1.696-13.408-4.53-19.117l-10.421-.048z"/>
            <path fill="#76A4FF" d="M312.897 246.723s-10.501 11.235-19.722 14.043c-9.22 2.808-20.873 5.278-24.588 10.213-2.673 3.55 1.18 7 6.403 10.212 3.71 2.284 2.817 7.405 11.014 10.469 8.195 3.064 28.686 5.361 28.686 5.361l-1.793-50.298z"/>
            <path fill="#FFAEAE" d="M167.047 368.814c-.801 0-4.178-.064-5.139-.064-2.049 0-5.955-1.915-17.737-5.298-1.448-.416-3.586-.638-5.379.638-1.17.834-5.7 4.118-8.495 6.145a7.333 7.333 0 0 0-2.859 4.367l-1.772 7.744h41.877l-.496-13.532z"/>
            <path fill="#FFF" d="M166.293 367.182h-1.857l1.746 15.164h5.379z"/>
            <path fill="#E9EEFB" d="M149.006 324.771h-17.033s-.64 21.877-.64 25.213c0 4.54 3.328 8.295 7.683 8.999V376.6h2.946v-17.618c4.355-.704 7.684-4.459 7.684-8.999 0-3.336-.64-25.213-.64-25.213M131.358 381.163c-.638.24-.467 1.183.216 1.183h8.66l-1.506-3.16-7.37 1.977z"/>
            <path fill="#EFDAB9" d="M148.583 350.08c0 4.438-3.61 7.308-8.062 7.308s-8.062-2.87-8.062-7.308h16.124z"/>
            <path fill="#FFAEAE" d="M147.116 375.388s-4.866.192-8.452 1.149c-.953.255-3.778 1.149-3.906 3.192-.105 1.676 1.921 2.68 3.33 2.68 3.265 0 9.028-.127 9.028-.127v-6.894zM76.072 527.926c6.329 3.465 12.69 2.697 15.88-1.277 2.05-2.553 3.939-6.415 5.668-8.521 1.654-2.016 3.842-4.788 3.842-4.788l-9.797-22.978s-5.123 4.34-6.084 4.787c-.96.446-3.137.957-7.171-.192-4.034-1.148-16.265-4.467-25.485-8.489-11.048-4.818 17.686 38.467 23.147 41.458"/>
            <g transform="translate(304 245)">
                <mask id="e" fill="#fff">
                    <use xlink:href="#c"/>
                </mask>
                <path fill="url(#d)" d="M22.495.754l-20.323.352S-.408 9.078.12 29.846c.457 17.933 4.561 30.579 6.387 31.499 1.824.92 6.614.92 14.14-1.84l.698 9.112 32.376-16.24-1.825-8.277.851-10.925C54.113 15.665 40.371.751 23.021.75c-.175 0-.35.002-.526.005" mask="url(#e)"/>
            </g>
            <g transform="translate(304 246)">
                <mask id="h" fill="#fff">
                    <use xlink:href="#f"/>
                </mask>
                <path fill="url(#g)" d="M.122 28.92C.585 46.758 4.748 59.335 6.6 60.25c1.639.81 8.49-2.9 12.39-6.085a43.913 43.913 0 0 0 3.043-4.553c2.583-7.534 4.511-23.805 4.511-23.805S20.334 9.248 11.862 3.479L2.203.337S-.414 8.267.122 28.921" mask="url(#h)"/>
            </g>
            <g transform="translate(32 188)">
                <path fill="#423748" d="M282.96 47.427a8.626 8.626 0 0 1-4.016.859c-1.786-.058-4.35-.027-6.005.49-2.758.861-3.553 4.018-3.366 7.289.311 5.44 4.02 8.503 4.02 8.503l4.906-1.581a.554.554 0 0 1 .546.765c-.842 2.01-2.816 7.145-1.716 8.657.57.784 1.375 1.332 2.125 1.705 1.257.627 2.064 1.893 2.158 3.296.279 4.16 1.011 12.127 2.64 14.632l4.455-.164 9.384-16.283s3.372-1.118 6.648 5.774c3.275 6.891 5.516 15.16 8.963 16.194 3.448 1.034 10.344 1.55 11.722 1.55 1.38 0 2.586-1.033 3.62-3.445 1.035-2.412 5.981-15.214 7.069-27.737.342-3.948-.06-15.044-6.206-20.846-6.067-5.729-12.584-9.304-23.1-7.926-8.22 1.078-19.37 6.119-23.846 8.268"/>
                <path fill="#FFAEAE" d="M289.742 77.233c.517-2.24 4.136-5.512 6.894-3.79 2.76 1.723 5 5.514 4.827 9.648-.208 4.992-2.93 9.992-4.482 11.371-1.551 1.378-4.463 1.667-5.86.689-1.724-1.206-2.414-3.273-2.414-3.273s.517-12.405 1.035-14.645"/>
                <path fill="#DBDFE4" d="M48.71 194.346h299.794v47.872l-122.2 133.958c-13.01 14.26-35.443 14.336-48.548.165L61.866 251.027s-13.028-11.107-13.028-27.575c0-13.02-.128-29.106-.128-29.106"/>
                <path fill="#1D57AA" d="M293.514 128.298c-16.35 6.383-24.525 14.553-31.04 18-27.615 14.611-32.204 19.674-47.006 21.192-14.945 1.532-25.292 3.063-49.05 7.148-5.091.876-17.497 3.04-22.67 3.021l-10.099.732a.623.623 0 0 0-.603.791l4.257 15.164h114.825l-1.916 9.319h7.28s26.357-48.942 36.022-75.367"/>
                <path fill="#E86A46" d="M289.043 125.49c-.766.255-6.642 1.148-8.175 4.85-.694 1.677-.602 5.28-.487 7.276a3.57 3.57 0 0 1-.807 2.482c-1.99 2.418-6.709 8.535-8.797 14.498-6.447 18.407-15.712 46.34-15.712 46.34l9.58-.383 24.653-67.276-.255-7.788z"/>
                <path fill="#FFF" d="M278.569 156.255l9.516-31.077a9.57 9.57 0 0 1 4.94-5.79l32.795-16.063a1.938 1.938 0 0 1 2.434.747l3.708 5.97-53.393 46.213z"/>
                <path fill="#DBDFE4" d="M361.533 116.426c-4.216-.197-12.838.29-17.82-5.554-4.981-5.843-10.346-19.727-4.981-35.025 5.365-15.297 15.68-21.512 24.333-21.656 10.347-.172 18.394 5.844 19.16 10.313.61 3.547.767 8.421 1.15 17.188.429 9.79 10.347 23.695 10.347 27.648 0 3.954-11.496 5.696-17.628 6.212-5.836.49-10.346 1.07-14.561.874"/>
                <path fill="#DBDFE4" d="M382.417 115.277C394.373 118.69 369.496 162 358.754 162c-10.74 0-19.447-10.073-19.447-22.5 0-12.426 11.966-22.007 22.609-23.457 8.43-1.15 19.16-1.15 20.501-.766"/>
                <path fill="#2B2B51" d="M55.544 304.596c-4.599 11.744 15.328 33.191 24.014 29.106l9.708-9.191 36.787-20.426 34.744-57.702-22.481-11.745-82.772 69.958z"/>
                <path fill="#42426C" d="M86.71 389.872l30.146 15.32s10.73-19.405 16.861-29.618c6.131-10.212 28.008-37.852 32.7-48.51 5.62-12.766 10.219-31.404 10.219-31.404l100.656 20.17-16.351-26.553-72.553-48.511s-30.656 3.574-40.364 8.17c-8.324 3.941-12.92 13.57-16.861 26.554-13.796 45.446-44.452 114.382-44.452 114.382"/>
                <path fill="#2B2B51" d="M184.684 253.149c12.39 8.553 19.543 17.234 29.762 29.49 9.758 11.702 21.076 21.957 38.831 28.085 12.218 4.216 57.226 4.085 57.226 4.085l19.415-25.788s-27.08-28.85-40.875-33.957c-13.795-5.107-95.044-36.109-107.808-38.873-11.496-2.489-19.416-1.468-28.102 5.17-8.686 6.64-16.829 14.985-16.829 14.985l20.597 9.718s15.074-1.688 27.783 7.085"/>
                <path fill="#2474CD" d="M331.706 109.276s-33.404 19.719-48.156 30.894c-11.879 9-15.52 28.532-15.52 28.532l-9.005 36.191s12.901 41.235 13.668 41.235c.766 0 63.356 44.17 63.356 44.17s12.12-129.843 12.263-130.596c1.224-6.479 2.49-21.256-2.108-29.681-3.566-6.534-14.498-20.745-14.498-20.745"/>
                <path fill="#1D57AA" d="M306.16 131.745l-20.804 22.465c-6.02 7.407-8.967 14.398-13.753 23.412-4.786 9.017-11.045 22.293-11.045 22.293l18.777 36 6.387 4.85 25.22-20.515c1.012-.822 2.353.5 1.543 1.52l-19.1 24.102 3.578 2.553 21.472-19.987c2.229-2.074 5.843-1.304 7.031 1.499l7.518 17.722 13.029-81.701-39.853-34.213z"/>
                <path fill="#FFAEAE" d="M177.275 199.723s-7.872-.143-12.95.67c-4.545.729-9.966.71-14.752 7.277a934.232 934.232 0 0 1-4.525 6.165 17.227 17.227 0 0 0-3.347 9.227c-.17 2.813-.137 5.956.639 7.54l7.153-6.368s5.926-1.602 10.793-3.51c5.046-1.98 10.283-4.852 10.283-4.852l6.706-16.149z"/>
                <path fill="#C7CDD3" d="M268.484 244.102c-.488-.974 19.106 18.229 26.758 27.865 11.117 14 21.066 32.445 21.066 32.445l14.665-19.649s-7.282-10.951-16.975-21.87c-9.693-10.918-29.618-27.03-29.618-27.03l-15.896 8.239z"/>
                <path fill="#FFF" d="M169.547 219.447h4.215l7.09-19.724h-3.577s-2.984 2.023-5.237 7.022c-3.194 7.085-2.49 12.702-2.49 12.702"/>
                <path fill="#E9EEFB" d="M333.067 245.863s-27.647-3.37-54.296-3.25c-22.225.1-47.561 1.951-50.536 2.504-2.217.412-7.23 1.41-6.331 6.514 1.015 5.754 6.86 7.788 13.171 8.22 4.662.32 21.891-.545 45.994 1.107 25.924 1.776 51.684 8.003 51.684 8.003s2.865-6.014 2.497-12.865c-.369-6.85-2.183-10.233-2.183-10.233"/>
                <path fill="#E9EEFB" d="M204.802 301.213s-6.898 8.042-5.365 20.49c1.533 12.446 8.024 22.21 23.759 25.084 17.819 3.256 56.33 6.51 99.441-1.149 21.047-3.74 38.512-20.872 44.644-37.723 4.741-13.034 15.869-49.554 23.375-115.085 6.515-56.873 5.557-71.617 3.832-73.724-1.085-1.325-18.01-8.617-29.507.383-11.496 9-24.656 47.202-29.953 85.022-3.577 25.531-2.09 46.362-2.81 57.063-1.15 17.043-11.305 29.107-11.305 29.107s-22.8-4.021-37.746 2.298c-14.945 6.319-28.357 15.702-36.979 16.468-7.473-1.34-41.386-8.234-41.386-8.234"/>
                <path fill="#1D57AA" d="M38.491 317.394c7.185-1.054 8.718-3.926 9.963-5.745.807-1.178 2.683-4.07 2.683-4.07s-1.772.383-5.173-.622c-4.013-1.186-14.77-5.561-23.887-9.51-7.664-3.32-17.18-9.575-20.693-4.851-3.038 4.085-.883 11.919 4.598 18.638 12.966 15.893 21.205 16.85 36.788 28.596 5.75 4.334 13.52 2.793 16.702-1.181 1.276-1.595 3.542-5.408 4.694-7.277-3.928 2.585-12.63-1.42-15.903-3.35-5.179-3.055-9.101-8.235-9.772-10.628"/>
                <mask id="j" fill="#fff">
                    <use xlink:href="#i"/>
                </mask>
                <path fill="#FFF" d="M99.868 162.129h16.094v-1.256H99.868z" mask="url(#j)"/>
                <path fill="#23478D" d="M156.136 190.723c-3.19 0-6.33-.784-9.147-2.28-3.535-1.876-7.14-4.23-7.14-4.23l20.693 6.51h-4.406zM177.403 194.314l24.628-2.824a15.736 15.736 0 0 0 13.57-12.214l.61-2.742c.219-.987 1.473-1.296 2.126-.523l4 4.729c.745.881 2.175.196 1.955-.936l-1.342-6.896c-.188-.965.899-1.666 1.7-1.096l9.53 6.77a7.706 7.706 0 0 0 9.105-.128 4445.03 4445.03 0 0 0 15.98-12.098c-3.257 12.591-7.09 27.99-7.09 27.99l-74.772-.032z" mask="url(#j)"/>
                <path fill="#2474CD" d="M172.595 220.368c-.11-5.772.976-15.794 7.745-20.9 0 0 23.12-.064 33.084-.064 8.446 0 33.084 0 47.134.511 0 0 17.36-27.355 28.74-43.277 5.749-8.042 17.052-38.153 39.854-32.809 20.693 4.852 21.204 24.129 13.029 43.533s-60.802 72.383-66.933 75.957c-3.447 2.01-8.175 1.787-11.496 1.532-5.374-.413-66.679-22.723-66.679-22.723h-22.789c-.962 0-1.67-.798-1.689-1.76" mask="url(#j)"/>
                <path fill="#23478D" d="M190.943 217.277l-14.051-4.852s2.043 4.341 7.408 5.618c5.365 1.276 6.643-.766 6.643-.766" mask="url(#j)"/>
                <path fill="#E09595" d="M109.384 187.883v-3.957l5.652 2.872z" mask="url(#j)"/>
            </g>
        </g>
    </g>
</svg>
