<svg xmlns="http://www.w3.org/2000/svg" xmlns:xlink="http://www.w3.org/1999/xlink" width="373" height="560" viewBox="0 0 373 560">
    <defs>
        <rect id="a" width="373" height="560" rx="4"/>
        <path id="c" d="M47.828 11.749C40.302 22.076 4.968 79.95 1.301 86.266c-2.053 3.537-.61 7.166 3.912 7.166l49.865-.881L65.762.216C60.306 1.6 52.927 4.752 47.828 11.749z"/>
        <path id="e" d="M47.828 11.749C40.302 22.076 4.968 79.95 1.301 86.266c-2.053 3.537-.61 7.166 3.912 7.166l49.865-.881L65.762.216C60.306 1.6 52.927 4.752 47.828 11.749z"/>
        <path id="g" d="M47.828 11.749C40.302 22.076 4.968 79.95 1.301 86.266c-2.053 3.537-.61 7.166 3.912 7.166l49.865-.881L65.762.216C60.306 1.6 52.927 4.752 47.828 11.749z"/>
        <path id="i" d="M47.828 11.749C40.302 22.076 4.968 79.95 1.301 86.266c-2.053 3.537-.61 7.166 3.912 7.166l49.865-.881L65.762.216C60.306 1.6 52.927 4.752 47.828 11.749z"/>
        <path id="k" d="M47.828 11.749C40.302 22.076 4.968 79.95 1.301 86.266c-2.053 3.537-.61 7.166 3.912 7.166l49.865-.881L65.762.216C60.306 1.6 52.927 4.752 47.828 11.749"/>
        <path id="m" d="M47.828 11.749C40.302 22.076 4.968 79.95 1.301 86.266c-2.053 3.537-.61 7.166 3.912 7.166l49.865-.881L65.762.216C60.306 1.6 52.927 4.752 47.828 11.749"/>
        <path id="o" d="M111.837.655C96.602 1.682 18.439 6.799 11.376 7.35L.636 101.906l115.766-2.084c1.477-.026 2.641-1.283 2.571-2.777l-4.39-93.903c-.066-1.404-1.205-2.493-2.573-2.493-.057 0-.115.001-.173.006z"/>
        <path id="q" d="M111.837.655C96.602 1.682 18.439 6.799 11.376 7.35L.636 101.906l115.766-2.084c1.477-.026 2.641-1.283 2.571-2.777l-4.39-93.903c-.066-1.404-1.205-2.493-2.573-2.493-.057 0-.115.001-.173.006z"/>
        <path id="s" d="M111.837.655C96.602 1.682 18.439 6.799 11.376 7.35L.636 101.906l115.766-2.084c1.477-.026 2.641-1.283 2.571-2.777l-4.39-93.903c-.066-1.404-1.205-2.493-2.573-2.493-.057 0-.115.001-.173.006z"/>
        <path id="u" d="M111.837.655C96.602 1.682 18.439 6.799 11.376 7.35L.636 101.906l115.766-2.084c1.477-.026 2.641-1.283 2.571-2.777l-4.39-93.903c-.066-1.404-1.205-2.493-2.573-2.493-.057 0-.115.001-.173.006z"/>
        <path id="w" d="M111.837.655C96.602 1.682 18.439 6.799 11.376 7.35L.636 101.906l115.766-2.084c1.477-.026 2.641-1.283 2.571-2.777l-4.39-93.903c-.066-1.404-1.205-2.493-2.573-2.493-.057 0-.115.001-.173.006"/>
        <path id="y" d="M111.837.655C96.602 1.682 18.439 6.799 11.376 7.35L.636 101.906l115.766-2.084c1.477-.026 2.641-1.283 2.571-2.777l-4.39-93.903c-.066-1.404-1.205-2.493-2.573-2.493-.057 0-.115.001-.173.006"/>
        <path id="A" d="M0 400.212h325.849V.58H0z"/>
        <path id="C" d="M3.796 48.548C7.729 62.534 16.175 69.93 29.933 70.714c10.42.594 13.23-25.19 15.8-38.503C49.687 11.725 32.934 1.191 18.302.436a22.819 22.819 0 0 0-1.198-.032C-6.763.404.842 39.13 3.796 48.548"/>
        <radialGradient id="D" cx="166.768%" cy="18.939%" r="151.606%" fx="166.768%" fy="18.939%" gradientTransform="matrix(-.78895 .40237 -.61445 -.51664 3.1 -.384)">
            <stop offset="0%" stop-color="#FFE8E8"/>
            <stop offset="100%" stop-color="#FDACAC"/>
        </radialGradient>
        <path id="F" d="M.626.58h72.918v54.739H.626z"/>
        <path id="H" d="M.718 10.513l16.339 65.039s29.37 1.115 51.208-8.282c15.85-6.82 35.602-19.974 40.723-31.666L98.502.526.718 10.513z"/>
        <path id="J" d="M.718 10.513l16.339 65.039s29.37 1.115 51.208-8.282c15.85-6.82 35.602-19.974 40.723-31.666L98.502.526.718 10.513z"/>
        <path id="L" d="M.718 10.513l16.339 65.039s29.37 1.115 51.208-8.282c15.85-6.82 35.602-19.974 40.723-31.666L98.502.526.718 10.513z"/>
    </defs>
    <g fill="none" fill-rule="evenodd">
        <mask id="b" fill="#fff">
            <use xlink:href="#a"/>
        </mask>
        <g mask="url(#b)">
            <path fill="#C5CBD8" d="M362.218 333.303l-4.409-93.336a4.71 4.71 0 0 0-5.012-4.487c-19.875 1.326-95.209 6.358-101.974 6.888-4.434.347-17.062 2.565-24.74 13.191-7.867 10.889-34.884 55.787-47.024 76.077-2.617 4.374.588 9.922 5.676 9.833l172.656-3.006a4.924 4.924 0 0 0 4.827-5.16"/>
            <path fill="#E9EEFB" d="M245.999 245.477c-5.441 1.393-12.799 4.562-17.884 11.6-7.504 10.387-42.736 68.595-46.392 74.946-2.048 3.556-.61 7.207 3.9 7.207l49.722-.886 10.654-92.867zM355.151 240.314a2.586 2.586 0 0 0-2.75-2.466c-15.26 1.018-93.547 6.091-100.622 6.64l-10.755 93.754 115.948-2.066a2.629 2.629 0 0 0 2.577-2.754l-4.398-93.108z"/>
            <g transform="translate(180.5 246)">
                <mask id="d" fill="#fff">
                    <use xlink:href="#c"/>
                </mask>
                <path fill="#D8E7FC" d="M21.468 51.41L-5.665 94.89l134.689-2.43 52.555-.729-2.047-47.425-20.916.032z" mask="url(#d)"/>
            </g>
            <g transform="translate(180.5 246)">
                <mask id="f" fill="#fff">
                    <use xlink:href="#e"/>
                </mask>
                <path fill="#D2D8EE" d="M18.535 53.84s9.33-.058 24.933-1.215c16.377-1.214 18.79-2.914 42.289-2.914 16.622 0 32.644-2.35 44-2.672 13.737-.39 27.789-1.72 32.796-2.229.336-.033.357-.512.025-.572-2.692-.485-7.852-1.254-12.777-1.086-5.336.183-14.91-2.914-20.044-2.428-5.133.486-5.133-1.7-10.512-1.458-3.183.144-4.644 1.944-9.777 1.944-3.092 0-5.378-2.186-9.29-1.701-3.91.486-5.866 2.186-10.754.243-4.89-1.943-2.934-4.615-12.223-5.344-9.289-.728-13.2-4.128-21.266-3.886-12.337.372-18.578 5.344-18.578 5.344L18.535 53.84z" mask="url(#f)"/>
            </g>
            <g transform="translate(180.5 246)">
                <mask id="h" fill="#fff">
                    <use xlink:href="#g"/>
                </mask>
                <path fill="#CBDFFB" d="M18.37 55.394s9.264-1.11 24.89-1.913c16.4-.843 19.01.541 42.321-2.397 16.49-2.08 32.683-1.752 43.989-2.852 13.884-1.351 28.213-1.783 33.04-1.896.3-.008.37.413.083.504-2.544.806-7.706 2.28-12.746 2.74-5.316.486-14.423 4.756-19.577 4.917-5.154.16-4.877 2.329-10.244 2.76-3.176.256-5.222-.17-10.353-.017-10.857.325-6.06 2.965-11.183 3.461-7.517.73-9.857-.167-13.383.547-5.16 1.045 6.253 5.396-8.8 5.83-16.375.472-9.947 6.004-17.98 6.772-12.285 1.174-19.107-2.978-19.107-2.978L18.37 55.394z" mask="url(#h)"/>
            </g>
            <g transform="translate(180.5 246)">
                <mask id="j" fill="#fff">
                    <use xlink:href="#i"/>
                </mask>
                <path fill="#FFEDA6" d="M98.59 93.128s-9.533-4.919-9.9-14.21c-.295-7.471 4.217-12.023 11.733-13.844 7.517-1.822 4.95-6.376 4.584-10.02-.514-5.104 2.933-12.205 9.9-12.57 6.6-.345 5.853-4.974 13.75-6.74 7.333-1.64 14.116.182 19.616 6.923 5.5 6.74 9.724 9.521 14.484 9.837 5.5.364 11.55-3.461 16.5 2.004l1.65 36.98-82.317 1.64z" mask="url(#j)"/>
            </g>
            <g transform="translate(180.5 246)">
                <mask id="l" fill="#fff">
                    <use xlink:href="#k"/>
                </mask>
                <path fill="#FFF" d="M104.538 11.698h72.61s-.55-20.039-.641-23.227c-7.262-1.181-11.957 2.126-14.016 4.07-.763.72-1.848.996-2.852.681-2.565-.805-7.834-1.831-13.749.623-4.511 1.872-6.885 4.72-8.068 6.825-.658 1.172-2.173 1.503-3.33.81-2.127-1.279-5.83-2.516-11.335-1.077-4.927 1.288-7.837 4.58-9.118 6.399-.464.657-1.301.967-2.08.75-1.837-.515-5.259-.734-7.823 3.423a.473.473 0 0 0 .402.723" mask="url(#l)"/>
            </g>
            <g transform="translate(180.5 246)">
                <mask id="n" fill="#fff">
                    <use xlink:href="#m"/>
                </mask>
                <path fill="#FFF" d="M132.154 25.452H42.558l1.714-27.808s8.566-6.243 23.987 0C75.405.537 79.081 5.117 80.899 8.407c.973 1.76 3.235 2.282 4.953 1.225 3.287-2.024 9.102-4.052 17.817-1.773 7.41 1.938 11.89 6.786 13.987 9.667.851 1.17 2.32 1.753 3.727 1.395 2.846-.725 7.794-.863 11.627 4.957.443.674-.045 1.574-.856 1.574" mask="url(#n)"/>
            </g>
            <g>
                <g transform="translate(240.5 238)">
                    <mask id="p" fill="#fff">
                        <use xlink:href="#o"/>
                    </mask>
                    <path fill="#D8E7FC" d="M-38.493 60.279l-27.012 44.101 134.088-2.464 52.32-.74-2.037-48.104-20.823.032z" mask="url(#p)"/>
                </g>
                <g transform="translate(240.5 238)">
                    <mask id="r" fill="#fff">
                        <use xlink:href="#q"/>
                    </mask>
                    <path fill="#D2D8EE" d="M-41.413 62.742s9.288-.058 24.822-1.232c16.304-1.231 18.706-2.956 42.1-2.956 16.548 0 32.499-2.383 43.804-2.71 13.676-.396 27.665-1.744 32.65-2.26.334-.035.355-.52.025-.581-2.68-.492-7.818-1.272-12.72-1.101-5.312.185-14.845-2.957-19.955-2.464-5.11.493-5.11-1.724-10.465-1.478-3.169.145-4.623 1.971-9.734 1.971-3.077 0-5.353-2.217-9.247-1.725-3.894.493-5.84 2.217-10.707.247-4.868-1.971-2.92-4.682-12.168-5.421-9.248-.74-13.141-4.188-21.172-3.942-12.281.377-18.495 5.42-18.495 5.42l-18.738 18.232z" mask="url(#r)"/>
                </g>
                <g transform="translate(240.5 238)">
                    <mask id="t" fill="#fff">
                        <use xlink:href="#s"/>
                    </mask>
                    <path fill="#CBDFFB" d="M-41.576 64.32s9.222-1.126 24.777-1.942c16.329-.855 18.926.55 42.133-2.431 16.417-2.11 32.537-1.777 43.792-2.893 13.823-1.37 28.088-1.808 32.893-1.924.3-.007.368.42.083.512-2.533.818-7.672 2.313-12.69 2.78-5.292.493-14.358 4.824-19.49 4.987-5.13.162-4.854 2.362-10.197 2.8-3.162.259-5.198-.173-10.307-.018-10.809.33-6.034 3.008-11.133 3.511-7.483.74-9.813-.17-13.324.555-5.136 1.06 6.226 5.473-8.76 5.913-16.302.479-9.903 6.09-17.9 6.87-12.23 1.19-19.022-3.022-19.022-3.022L-41.576 64.32z" mask="url(#t)"/>
                </g>
                <g transform="translate(240.5 238)">
                    <mask id="v" fill="#fff">
                        <use xlink:href="#u"/>
                    </mask>
                    <path fill="#C3CBE8" d="M35.244 102.594s-9.842-5.174-10.221-14.948c-.305-7.86 4.354-12.648 12.114-14.565 7.76-1.916 5.11-6.707 4.732-10.54-.53-5.37 3.029-12.84 10.221-13.223 6.816-.363 6.045-5.233 14.197-7.09 7.572-1.725 14.575.19 20.254 7.282 5.679 7.09 10.04 10.016 14.954 10.348 5.679.384 11.925-3.641 17.036 2.108l1.703 38.903-84.99 1.725z" mask="url(#v)"/>
                </g>
                <g transform="translate(240.5 238)">
                    <mask id="x" fill="#fff">
                        <use xlink:href="#w"/>
                    </mask>
                    <path fill="#FFF" d="M44.206 19.996h72.287s-.547-20.326-.639-23.56c-7.23-1.198-11.903 2.157-13.953 4.128-.76.731-1.84 1.01-2.839.691-2.554-.816-7.8-1.857-13.688.632-4.491 1.899-6.854 4.788-8.032 6.923-.655 1.19-2.163 1.525-3.314.821-2.119-1.296-5.806-2.551-11.286-1.092-4.904 1.307-7.801 4.647-9.077 6.49a1.9 1.9 0 0 1-2.07.762c-1.83-.523-5.236-.745-7.788 3.472-.194.318.03.733.4.733" mask="url(#x)"/>
                </g>
                <g transform="translate(240.5 238)">
                    <mask id="z" fill="#fff">
                        <use xlink:href="#y"/>
                    </mask>
                    <path fill="#FFF" d="M71.7 33.947h-89.197l1.706-28.207s8.529-6.332 23.88 0c7.115 2.935 10.775 7.58 12.584 10.918.969 1.785 3.22 2.315 4.93 1.242 3.273-2.052 9.063-4.11 17.738-1.798 7.377 1.966 11.838 6.884 13.925 9.806.847 1.186 2.31 1.778 3.71 1.415 2.834-.736 7.76-.876 11.576 5.028.44.684-.046 1.596-.852 1.596" mask="url(#z)"/>
                </g>
            </g>
            <g transform="translate(105.5 222)">
                <path fill="#C5CBD8" d="M137.642 126.072l114.887-1.776a6.377 6.377 0 0 1 6.475 6.043l2.217 44.426c.243 4.554-3.813 8.147-8.295 7.35L144.479 162.87c-9.625-1.715-16.307-10.566-15.335-20.312l1.124-9.682a7.55 7.55 0 0 1 7.374-6.805"/>
                <path fill="#D8DDEA" d="M259.207 134.4l-.203-4.061a6.377 6.377 0 0 0-6.475-6.043l-114.887 1.776a7.55 7.55 0 0 0-7.374 6.805l-.41 3.523 129.349-2zM250.82 147.79a4.165 4.165 0 0 1-4.16 4.168 4.165 4.165 0 0 1-4.162-4.169 4.165 4.165 0 0 1 4.161-4.169 4.165 4.165 0 0 1 4.161 4.17M195.654 148.457a2.865 2.865 0 0 0-2.716-2.86l-26.82-.015h-.012c-1.746-.087-3.438.805-4.234 2.365-1.886 3.697.745 7.379 4.234 7.379 1.284 0 2.45-.5 3.317-1.316.713-.67 1.652-1.044 2.626-1.129l20.889-1.565a2.866 2.866 0 0 0 2.716-2.86"/>
                <mask id="B" fill="#fff">
                    <use xlink:href="#A"/>
                </mask>
                <path fill="#E09595" d="M204.44 172.435h12.727v-4.291h-12.726z" mask="url(#B)"/>
                <path fill="#C5CBD8" d="M121.35 278.373s29.478 1.122 51.397-8.338c15.908-6.866 35.732-20.108 40.872-31.88l-10.524-35.312-93.982 22.07 12.237 53.46z" mask="url(#B)"/>
                <path stroke="#C5CBD8" stroke-width="6" d="M31.78 39.244s-8.023 5.541-5.793 14.457c2.642 10.564 8.112 29.47 8.112 29.47M63.352 39.244S55.33 44.785 57.56 53.7c2.642 10.564 8.112 29.47 8.112 29.47" mask="url(#B)"/>
                <path fill="#D8DDEA" d="M44.01 73.24h63.512l-11.38-48.923s-50.907-4.843-55.803-5.334c-2.922-.293-8.933-.49-14.194.736-3.222.75 13.78 53.248 17.866 53.52" mask="url(#B)"/>
                <path fill="#C5CBD8" d="M40.337 18.983c-2.923-.292-8.932-.49-14.193.735-3.22.752 13.781 53.249 17.867 53.521h48.826c-17.155-17.824-35.08-36.48-52.5-54.256" mask="url(#B)"/>
                <path fill="#C5CBD8" d="M51.108 62.695c-1.914-6.554-6.314-22.525-9.702-34.218-1.849-6.377-7.308-11.333-18.003-8.185-3.174.935-6.006 1.817-13.017 4.074-5.27 1.696-7.586 6.188-6.483 10.158 1.103 3.971 5.973 6.38 10.944 4.844l4.29-1.24c4.384-1.355 9.026 1.149 10.311 5.562l6.486 23.664c1.147 3.939 5.202 6.795 9.79 5.518 4.405-1.226 6.853-5.15 5.384-10.177M70.443 78.512l-46.501.859s-30.838-1.962-22.517 31.388c3.713 14.883 14.354 41.675 21.537 69.277 2.943 11.307 5.33 22.256 7.207 31.852 3.887 11.523 9.39 22.413 16.31 32.436l73.402-6.414L70.443 78.512z" mask="url(#B)"/>
                <path fill="#C5CBD8" d="M47.927 158.947c-8.991-32.337-16.98-56.573-20.803-66.58-4.406-11.525-33.53-12.506-25.699 18.393 3.769 14.868 14.354 41.674 21.538 69.277 2.943 11.307 5.329 22.255 7.206 31.851 1.91 9.776 8.335 25.593 16.322 32.454l17.833-1.527c-1.224-9.006-6.852-49.536-16.397-83.868" mask="url(#B)"/>
                <path fill="#D8DDEA" d="M118.535 93.103l-15.051 3.31 24.596 102.26 21.293-6.62z" mask="url(#B)"/>
                <path fill="#23478D" d="M155.43 158.395c-2.892-.627-4.955-1.88-5.69-4.414l-12.298-27.404s-10.646 34.761 7.71 51.682c5.705 2.018 16.805 2.447 27.176 2.318.517-5.212 1.172-12.085 2.728-17.193-6.756-1.764-12.834-3.517-19.625-4.989" mask="url(#B)"/>
                <path fill="#2474CD" d="M111.07 94.575s13.99 26.57 15.664 31.39c4.742 13.638.218 28.516 1.347 38.132.778 6.63 11.969 16.31 16.064 21.575a106.918 106.918 0 0 0 4.372 5.277l11.136-3.31-11.336-9.001c-3.961-2.77-5.435-7.32-5.674-11.476-.47-8.164 1.186-22.543.734-31.144-.979-18.637-.979-16.185-16.214-37.03-2.17-2.967-2.386-5.885-7.893-11.035-4.445-4.155-11.687-9.962-11.687-9.962l3.488 16.584z" mask="url(#B)"/>
                <path fill="#245EAD" d="M148.317 178.638c-3.961-2.77-5.19-8.056-5.43-12.212-.282-4.908.47-11.416.245-18.146-5.201 5.922-9.514 11.936-14.442 18.086 2.53 6.42 11.806 14.614 15.455 19.306a106.918 106.918 0 0 0 4.372 5.277l11.135-3.31-11.335-9.001z" mask="url(#B)"/>
                <path fill="#E09595" d="M316.182 330.5c-8.076-3.311-21.063-16.875-30.697-29.173-4.165-5.318-5.82-8.197-11.695-23.522-4.068-10.614-9.788-35.065-20.806-65.006-2.404-6.534-4.164-16.7-5.572-23.955-1.097-5.657-1.882-7.508-4.76-12.5-3.833-6.65-15.882-6.308-15.882-6.308l-.256 29.415s-10.882 18.884 3.625 48.513c9.545 19.496 23.862 28.692 37.446 54.441 2.354 4.463 1.561 9.534.612 14.224-.98 6.498 13.654 4.677 30.226 21.09 4.99 4.941 22.757-5.172 17.76-7.22" mask="url(#B)"/>
                <path fill="#FFAEAE" d="M187.43 204.192s36.586-3.323 43.118-.732c5.452 2.162 8.632 6.715 12.38 17.981 3.748 11.268 2.726 13.316 4.43 24.582 1.704 11.268 7.44 33.605 12.267 56.336 3.408 16.046 5.793 27.313 7.155 33.118 1.877 7.99 5.354 13.84 8.86 19.46 5.112 8.195 11.877 18.039 14.88 21.51 4.43 5.121 8.462 8.707 11.812 12.064 3.242 3.248-9.881 11.494-16.356 10.356-8.303-1.459-13.849-2.808-17.662-10.128-4.089-7.853-3.493-12.036-11.33-18.523-9.483-7.85-8.944-12.889-7.582-18.351 1.364-5.463 3.244-7.715 1.023-12.633-13.31-29.47-22.856-37.562-30.565-55.219-8.013-18.35-2.57-38.623-12.972-37.459-6.853.246-22.042-10.434-19.457-42.362" mask="url(#B)"/>
                <path fill="#E09595" d="M189.389 225.771c3.671-4.15 12.65-12.129 19.805-17.568 4.848-3.685 13.886-5.948 21.808-4.504 3.009.55-1.114-33.175-1.114-33.175s-3.328-1.213-16.238.68c-8.4 1.231-20.406 3.967-20.406 3.967s-4.834 2.259-6.302 27.162c-.354 6 .09 17.093 2.447 23.438" mask="url(#B)"/>
                <path fill="#423748" d="M184.556 106.346l13.749-21.844c.69-.963 1.751-1.741 2.986-1.776l9.49-.277c.337.01.59.059.852.196l.778.511c.26.184.32.43.184.706L200.8 106.058l-16.245.288z" mask="url(#B)"/>
                <path fill="#42426C" d="M84.638 205.663s30.162-15.05 108.308-31.725c.457-.098.938.013 1.305.303l.485.385-.653.148c-.417.094-.74.42-.823.838-.858 4.306-2.598 16.418-.69 37.653 1.293 14.375 8.322 21.58 14.441 33.351-18.356-1.226-20.559-4.169-38.67 1.226-28.434 8.47-50.122 9.235-67.06 4.169-24.597-7.357-16.643-46.348-16.643-46.348" mask="url(#B)"/>
                <path fill="#2474CD" d="M84.883 221.603s-2.853-18.88-3.06-36.907c-.367-32.002-13.705-27.71-31.205-72.465-3.767-9.636-4.396-25.484 13.217-33.35 10.157-4.538 17.988-8.216 17.988-8.216s3.53 11.527 15.052 25.381c11.014 13.242 22.857 22.354 26.678 37.03 4.405 16.92-2.784 28.472-2.448 39.481 0 0 7.718 12.09 11.259 17.412 5.874 8.828 2.691 17.656-7.343 20.599l-40.138 11.035z" mask="url(#B)"/>
                <path fill="#245EAD" d="M57.773 128.525c13.86 27.971 23.735 28.698 24.05 56.17.207 18.028 3.06 36.908 3.06 36.908l24.23-6.621c4.16-19.864 10.163-21.993 7.587-33.35-5.527-26.996-40.01-37.306-58.927-53.107" mask="url(#B)"/>
                <path fill="#FFF" d="M108.134 89.425c0 .162 1.903 6.56 5.473 12.469 2.814 4.659 6.764 9.417 8.967 10.889.495.33 1.43.525.516-.896-3.086-4.806-6.573-11.61-8.409-18.6-2.003-7.624-2.02-13.426-4.222-19.924-6.24 5.272-2.325 16.062-2.325 16.062" mask="url(#B)"/>
                <path fill="#245EAD" d="M100.914 124.002l11.108 18.35a9.744 9.744 0 0 0 7.215 4.636l4.805.556-12.482 12.507-10.646-36.049z" mask="url(#B)"/>
                <path fill="#2474CD" d="M109.97 91.632s1.066-3.793.856-9.687c-.183-5.15-.98-8.95-.98-8.95s-3.242 4.536-1.651 17.166c.109.86 1.774 1.47 1.774 1.47" mask="url(#B)"/>
                <path fill="#E09595" d="M161.794 115.542l7.421-6.769a18.672 18.672 0 0 0 2.334-2.596c1.417-1.887 3.13-3.726 5.848-5.41 3.365-2.085 4.973-2.28 7.574-3.884 2.95-1.818 5.152-3.044 6.437-5.312.052-.092.1-.18.143-.263.292-.562 1.025-.79 1.522-.397 1.013.8 1.525 2.6.538 5.319-.411 1.132-1.652 3.066-3.243 4.475-1.427 1.265-4.16 3.372-4.16 3.372l8.026-1.642a8.254 8.254 0 0 0 2.843-1.58l3.815-3.154c1.483-1.262 1.999-1.553 3.06-3.187l2.645-4.139a3.422 3.422 0 0 1 3.703-1.46l1.3.387-.123 12.017c0 1.961-1.002 3.663-2.59 5.183l-5.806 5.562a12.72 12.72 0 0 1-6.772 3.373l-14.336 1.71a5.01 5.01 0 0 0-2.59 1.104l-4.985 4.096-12.604-6.805zM81.887 72.022c3.501-3.007 6.014-13.663 3.975-18.156-2.833-6.242-10.483-26.223-2.68-22.394 9.023 4.427 34.385 38.844 31.51 39.965-6.753 2.63-6.029 11.663-5.654 23.314.23 7.148-34.01-16.839-27.15-22.73" mask="url(#B)"/>
            </g>
            <g transform="translate(191.5 224)">
                <mask id="E" fill="#fff">
                    <use xlink:href="#C"/>
                </mask>
                <path fill="url(#D)" d="M3.796 48.548C7.729 62.534 16.175 69.93 29.933 70.714c10.42.594 13.23-25.19 15.8-38.503C49.687 11.725 32.934 1.191 18.302.436a22.819 22.819 0 0 0-1.198-.032C-6.763.404.842 39.13 3.796 48.548" mask="url(#E)"/>
            </g>
            <g>
                <g transform="translate(165.732 222)">
                    <mask id="G" fill="#fff">
                        <use xlink:href="#F"/>
                    </mask>
                    <path fill="#423748" d="M31.047 38.681s7.382 3.782 14.55 3.415c7.072-.362 12.24-3.629 16.54-9 3.676-4.59 5.33-8.447 6.432-10.467.685-1.255 1.757-1.985 2.206.367.735 3.857.367 8.325.367 8.325s2.605-4.094 2.39-10.345c-.184-5.326-3.767-7.536-5.019-9.037-1.252-1.501-4.911-7.646-13.176-9.88C48.466.202 37.01-1.44 23.313 7.233c-.921.584-1.638.767-3.09.826-3.146.128-9.75.47-14.228 4.164C.08 17.103-.402 25.057 1.926 30.175c1.29 2.837 2.63 4.716 4.607 6.242.518.4.689 1.116.401 1.702-.877 1.786-.871 5.755 2.003 8.82 2.557 2.726 5.695 2.667 7.438 2.352.923-.167 1.927-.058 2.634.273 2.978 1.4 4.656 3.98 5.697 5.755-.306-3.673-3.92-11.632 1.084-18.64l5.257 2.002z" mask="url(#G)"/>
                </g>
                <path fill="#FFAEAE" d="M200.41 262.652c1.054 4.633.752 9.156-2.233 10.034-2.985.877-7.72-3.466-9.034-9.096-1.178-5.046 1.297-9.564 5.07-9.664 4.373-.115 5.231 4.476 6.197 8.726"/>
                <path fill="#FFF" d="M185.967 290.787c1.93-2.755 2.358-2.877 2.867-3l.594-.122s-.245.674-.429 1.225c-.09.27-.113.644-.03.918.581 1.928 2.358 5.815 8.423 11.937 6.554 6.616 13.538 9.795 17.214 11.876 0 0 .108 4.59-.03 11.51-.123 6.12 0 9.182 0 9.182-.246 1.53-1.079 2.253-2.39.796-6.555-7.285-10.985-12.493-17.214-20.019-11.731-14.171-11.502-19.585-11.351-21.315.08-.907 1.81-2.224 2.346-2.988"/>
                <path fill="#2474CD" d="M188.478 317.54c18.746 27.915 29.038 57.3 29.038 57.3s16.173-9.918 27.568-19.468c3.322-2.784 17.27-15.94 21.135-19.712.704-.688 1.122-.915 2.082-1.133l1.02-.206s-.69.642-1.15 1.124c-.285.3-.29.808.024 1.08 4.043 3.512 8.835 5.125 10.965 5.64.779.187 1.822 0 2.573-.613l1.562-1.255 4.546 3.93c.753.768.616 1.503-.717 2.468l-19.251 12.717s-11.395 12.121-18.746 21.304c-12.36 15.438-26.588 31.589-34.184 31.589-7.351 0-20.584-15.06-30.508-28.283-11.038-14.707-22.776-29.577-30.508-51.79-1.96-5.633-1.47-22.039 8.821-27.181 13.947-6.969 23.76 9.556 25.73 12.488"/>
                <path fill="#23478D" d="M276.786 342.975c3.492 1.516 7.306 2.25 8.593 2.388 1.286.138 1.423-.689 0-1.837l-2.942-2.48-.704.506c-.75.612-1.794.8-2.573.612-2.13-.514-6.922-2.127-10.966-5.64 1.01 1.447 3.22 4.12 8.592 6.451"/>
            </g>
            <g>
                <g transform="translate(208.5 425)">
                    <mask id="I" fill="#fff">
                        <use xlink:href="#H"/>
                    </mask>
                    <path fill="#D8DDEA" d="M61.193 18.43l7.388 48.552a7.33 7.33 0 0 1-4.614 7.96l-29.14 11.214-9.723-66.508 36.089-1.218z" mask="url(#I)"/>
                </g>
                <g transform="translate(208.5 425)">
                    <mask id="K" fill="#fff">
                        <use xlink:href="#J"/>
                    </mask>
                    <path fill="#C5CBD8" d="M63.022 19.892l-41.21 1.39 6.19 42.341c11.566-14.65 23.37-29.131 35.023-43.71l-.003-.021z" mask="url(#K)"/>
                </g>
                <g transform="translate(208.5 425)">
                    <mask id="M" fill="#fff">
                        <use xlink:href="#L"/>
                    </mask>
                    <path fill="#C5CBD8" d="M-4.158 26.469L4.62 85.66l29.994-.487-9.51-65.526z" mask="url(#M)"/>
                </g>
            </g>
            <g>
                <path fill="#C5CBD8" d="M205.386 440.24l65.039-8.15a4.514 4.514 0 0 1 4.932 3.886l.85 4.9c.453 2.234-1.281 4.6-3.645 5.042l-31.684 7.582c-2.319.433-4.66.736-7.013.908l-26.68 1.952-1.799-16.12zM281.715 348.321c.174.316-.154.83-.734 1.149-.578.319-1.188.322-1.363.006-.173-.315.155-.83.734-1.148.58-.319 1.19-.322 1.363-.007M277.738 350.871c.183.31-.132.833-.701 1.168-.57.335-1.18.354-1.363.044-.182-.31.132-.833.702-1.168.57-.335 1.18-.354 1.362-.044"/>
                <path fill="#FFAEAE" d="M292.503 397.44s-.051-8.603 2.306-9.22c2.357-.615 17.14-3.945 17.14-3.945a9.05 9.05 0 0 1 3.296-.046c2.905.496 8.998 1.538 13.284 2.868 2.565.796 6.035 2.916 11.947 4.526.46.125.59.745.25 1.078-.835.816-2.114 1.263-4.331.974-2.167-.283-6.892-1.128-6.892-1.128l4.125 2.456c.242.125.29.455.085.635-.695.612-2.898 1.245-5.8.157-1.542-.579-3.856-1.446-5.921-2.228-.606-.23-1.207-.463-1.84-.607l-2.993-.687a9.638 9.638 0 0 0-2.921-.213l-4.168.27s1.926.963 2.71 1.249c1.06.385 2.72.945 4.533 1.324 2.178.453 4.623 1.449 3.467 3.108-1.534 2.202-5.219 1.615-8.578.482-2.333-.787-3.759-.964-6.164-.252-2.463.73-9.294 1.39-13.535-.802"/>
                <path fill="#23478D" d="M295.358 387.134c-.623 0-9.948-.299-17.316-1.895-1.561 5.115-4.697 16.436-4.697 16.436l19.111-4.19s.104-4.5 2.409-8.711a1.698 1.698 0 0 1 1.113-.825l.554-.125s-.276-.69-1.174-.69"/>
                <path fill="#E86A46" d="M205.879 441.959h-.054c-1.017-.03-1.745-.878-1.788-1.894-.093-2.157 1.12-6.928.92-12.654-.521-14.838-6.604-22.336-14.43-22.774-11.692-.653-15.263 12.79-16.61 21.024-.942 5.755-.46 8.011-1.032 12.141a1.843 1.843 0 0 1-3.647-.526c.443-3.144 1.927-6.084 2.745-11.891 1.934-13.72 8.116-23.495 18.739-22.68 9.978.768 15.607 9.61 16.169 24.706.217 5.83 1.013 10.128.828 12.759-.07.996-.847 1.789-1.84 1.789"/>
                <path fill="#FF7E59" d="M132.101 490.576c-.334 2.007 1.005 3.247 2.21 3.868 11.854 6.103 62.942 13.674 77.461 12.706 10.132-.675 17.881-3.6 20.908-5.893 1.364-1.032 1.553-2.207 1.5-3.916-.21-6.765-3.25-34.02-6.566-44.333-2.764-8.596-8.473-17.679-20.631-21.362-8.848-2.68-29.105-3.683-37.21-2.946-9.861.896-19.543 5.129-24.685 15.837-4.421 9.208-11.605 37.752-12.987 46.04"/>
                <path fill="#E86A46" d="M233.607 489.778a3.807 3.807 0 0 1-.927.982c-3.027 2.294-10.776 5.218-20.908 5.893-14.519.968-65.606-6.602-77.46-12.706a5.422 5.422 0 0 1-.75-.475c-.672 2.966-1.184 5.445-1.46 7.104-.335 2.007 1.004 3.247 2.21 3.868 11.854 6.104 62.941 13.674 77.46 12.706 10.132-.675 17.88-3.6 20.908-5.893 1.364-1.032 1.554-2.207 1.5-3.916-.049-1.57-.251-4.254-.573-7.563M202.931 441.959h-.054c-1.016-.03-1.744-.878-1.788-1.894-.093-2.157 1.12-6.928.92-12.654-.52-14.838-5.356-22.4-13.182-22.839-11.691-.653-16.51 12.854-17.857 21.09-.942 5.754-.46 8.01-1.032 12.14a1.843 1.843 0 0 1-3.647-.526c.442-3.144 1.926-6.084 2.745-11.891 1.934-13.72 9.364-23.56 19.987-22.743 9.977.767 14.358 9.674 14.92 24.769.217 5.83 1.014 10.128.829 12.759-.07.996-.847 1.789-1.84 1.789"/>
                <path fill="#D8DDEA" d="M140.667 489.494v13.336c0 1.05.645 1.993 1.624 2.373l55.03 21.375a2.677 2.677 0 0 0 2.295-.171l28.566-16.32a2.526 2.526 0 0 0 1.274-2.193v-13.589l-57.965-19.443-30.824 14.632z"/>
                <path fill="#C5CBD8" d="M140.667 489.502v13.359c0 1.05.645 1.993 1.624 2.373l54.97 21.352c.789.306 1.675.24 2.41-.18l28.607-16.342a2.337 2.337 0 0 0 1.178-2.03V494.29l-29.575 16.191a3.41 3.41 0 0 1-2.836.201l-56.378-21.18z"/>
                <path fill="#97BEF7" d="M209.316 505.309H182.79l-14.652-5.48h51.187zM162.034 479.362h22.876l12.281 4.12H153.34z"/>
                <path fill="#6F98EA" d="M182.851 520.977l-.061-15.669-14.653-5.48.07 15.456z"/>
                <path fill="#97BEF7" d="M176.178 493.984l-14.007-.865 3.242-2.021-2.947-2.072 9.993.83z"/>
                <path fill="#6F98EA" d="M209.316 520.885l.008-15.577 9.986-5.462.015 15.315zM182.636 494.689l-13.294 2.333 1.904-2.64-5.28-1.043 10.438-1.412z"/>
                <path fill="#B1CEF9" d="M188.193 492.05s-5.465-8.287-7.675-21.608c-.215-1.291.977-2.798 2.346-2.961 1.952-.231 3.817.321 6.127.26 3.033-.08 5.404-.86 7.878-.478 1.443.222 2.326 1.314 2.377 2.565.614 15.162-7 22.222-7 22.222h-4.053z"/>
                <path fill="#6F98EA" d="M197.404 492.663s15.865-.107 15.29-11.295c-.553-3.683-3.5-7.366-3.5-7.366s2.187 5.594-2.97 11.119c-2.967 3.177-7.9 6.008-7.9 6.008l-.92 1.534z"/>
                <path fill="#A4C6F8" d="M188.193 486.893l.737-4.604s5.314-10.99 14.553-13.075c4.977-1.123 7.17.854 8.23 4.578.305 1.07.519 1.984.796 2.543 3.684 7.428-2.21 11.847-2.21 11.847s1.188-1.407 1.719-3.192c.764-2.566-.43-4.91-3.009-5.831-4.337-1.55-13.263.368-20.816 7.734"/>
                <path fill="#6F98EA" d="M174.746 474.678s-2.98 4.864.737 9.76c2.518 3.315 7.43 6.936 7.43 6.936l.49 3.193s-2.784.017-6.723-1.228c-3.806-1.204-8.72-3.615-11.452-6.753-7.318-8.408-1.27-12.238-1.27-12.238s2.974-1.581 6.92-1.205c2.578.246 3.868 1.535 3.868 1.535"/>
                <path fill="#A4C6F8" d="M186.229 493.4l1.942-5.478s.268-11.034-7.223-17.542c-3.506-3.045-7.092-3.14-11.027-.622-1.07.684-1.868 1.237-3.464 1.942-4.7 2.078-4.94 6.09-4.87 7.056.172-2.544 2.076-4.971 6.589-3.772 5.772 1.535 14.015 8.671 18.053 18.416"/>
                <path fill="#97BEF7" d="M190.281 495.733s2.43-5.51 2.026-10.558c-.245-3.07-1.584-5.366-4.967-6.283-3.998-1.084-6.661.126-9.462-.225-2.947-.368-3.255-1.166-6.523-1.072-2.255.064-5.533 2.082-5.054 5.702.557 4.225 4.379 9.002 11.615 11.426a20.483 20.483 0 0 0 6.261 1.04c2.692.034 6.104-.03 6.104-.03"/>
                <path fill="#6F98EA" d="M192.369 485.175c-.246-3.07-2.887-5.587-5.158-5.587-1.106 0-2.794.614-3.347 2.793-.683 2.696.276 5.122 2.21 8.318 2.119 3.5 4.207 5.034 4.207 5.034s2.491-5.51 2.088-10.558"/>
                <path fill="#97BEF7" d="M188.623 495.733s-2.271-4.297-1.852-7.094c.22-1.467 1.115-3.464 3.756-3.649 1.517-.106 3.874.714 6.078.491 3.283-.33 4.906-1.156 7-1.105 2.518.062 4.097 1.658 3.72 3.85-.508 2.95-3.696 4.86-7.947 6.473-1.247.473-2.616.898-3.999 1.012-1.506.125-6.756.022-6.756.022"/>
                <path fill="#6F98EA" d="M187.87 493.108s-1.765-4.543.323-6.491c.691-.645 1.75-.369 2.027.69.195.747-.049 1.87-.691 2.81-1.198 1.749-1.658 2.991-1.658 2.991"/>
            </g>
        </g>
    </g>
</svg>
