<svg xmlns="http://www.w3.org/2000/svg" xmlns:xlink="http://www.w3.org/1999/xlink" width="373" height="560" viewBox="0 0 373 560">
    <defs>
        <rect id="a" width="373" height="560" rx="4"/>
        <path id="c" d="M.027.528h128.925v92.43H.027z"/>
        <path id="e" d="M.642.481h129.06v105.952H.642z"/>
        <path id="g" d="M.75.379h84.637v161.603H.75z"/>
        <path id="i" d="M15.927.196c-1.477 0-2.986.181-4.492.558C2.49 2.99-1.125 12.19 1.5 20.439c1.675 5.267 4.447 10.29 7.816 13.984a53.368 53.368 0 0 0 23.166-16.848 40.73 40.73 0 0 0-.987-5.948C29.781 4.61 23.231.197 15.928.197h-.001"/>
        <radialGradient id="j" cx="-31.152%" cy="-45.845%" r="167.331%" fx="-31.152%" fy="-45.845%" gradientTransform="matrix(1 0 0 .92965 0 -.032)">
            <stop offset="0%" stop-color="#FFE8E8"/>
            <stop offset="100%" stop-color="#FDACAC"/>
        </radialGradient>
        <path id="l" d="M.37 15.732c6.684 9.814 16.202 17.542 27.377 22.007 2.741-4.351 4.777-9.68 5.748-14.988C35.915 9.531 36.48 2.744 21.247.628 19.437.378 17.775.25 16.25.25 6.775.25 2.542 5.162.37 15.732"/>
        <radialGradient id="m" cx="144.147%" cy="-48.665%" r="174.269%" fx="144.147%" fy="-48.665%" gradientTransform="matrix(1 0 0 .91827 0 -.04)">
            <stop offset="0%" stop-color="#FFE8E8"/>
            <stop offset="100%" stop-color="#FDACAC"/>
        </radialGradient>
    </defs>
    <g fill="none" fill-rule="evenodd" transform="translate(0 -1)">
        <mask id="b" fill="#fff">
            <use xlink:href="#a"/>
        </mask>
        <g mask="url(#b)">
            <path d="M-53 142h575v575H-53z"/>
            <path fill="#E09595" d="M323.335 356.65s1.312-3.749 1.125-6.998c-.11-1.882 2.562.062 2.874 2.561.313 2.5-4 4.438-4 4.438M275.466 337.715s15.748-14.998 20.497-19.248c0 0-14.248-11.249-28.247-18.998l.25-10.498s14.25 5 26.747 10.249c12.544 5.267 20.247 9.998 22.497 12.998 1.95 2.6.88 6.046-.5 8.999-1.75 3.75-11.748 19.498-37.745 39.245l-21.247-14.747 17.748-8z"/>
            <path fill="#2B2B51" d="M265.217 308.468l19.998 21.498s-16.998 9-23.997-2.75c-7-11.749 3.999-18.748 3.999-18.748"/>
            <path fill="#E9EEFB" d="M221.223 272.972c12.998-6.5 39.932-7.333 47.744 13.499 6 15.998-7.28 25.184-5.75 30.996 1.25 4.75 21.997 9 22.998 14.499.88 4.844-9 15.248-18.498 17.248l-39.496 4s-22.96-13.254-25.996-37.247c-2.5-19.747 2.453-34.722 18.998-42.995"/>
            <path fill="#E9EEFB" d="M232.971 288.72c6 9.75 12.748 17.249 21.747 23.998 2.654 1.858 5.498 3.24 8.428 4.358-.874-5.831 11.688-14.96 5.82-30.605-4.834-12.894-16.995-17.482-28.643-17.57-8.328 3.359-14.28 9.694-7.352 19.82"/>
            <path fill="#DBDFE4" d="M286.214 331.966c-1-5.5-21.747-9.75-22.997-14.499-.034-.128-.051-.26-.071-.391-2.93-1.118-5.774-2.5-8.428-4.359-8.999-6.749-15.997-12.998-21.997-22.747-5-7.25-.726-17.71 7.602-21.069-7.17-.054-14.148 1.595-19.1 4.07-16.545 8.274-21.498 23.248-18.998 42.997 3.037 23.992 25.997 37.245 25.997 37.245l39.494-4c9.5-2 19.38-12.403 18.498-17.247"/>
            <path fill="#EE854F" d="M330.834 349.932l11.53-9.467.656 1.5-10.968 8.624z"/>
            <path fill="#2B2B51" d="M346.027 325.31l9.979 76.084 79.718 12.562 10.72-16.997-20.91-64.923z"/>
            <path fill="#42426C" d="M348.461 323.111l9.979 76.084 88.004-2.236-17.697-80.635z"/>
            <g transform="translate(334.959 301.84)">
                <mask id="d" fill="#fff">
                    <use xlink:href="#c"/>
                </mask>
                <path fill="#24478D" d="M.027 20.835l29.778 72.122 93.93-15.837 5.218-21.71L84.089.528z" mask="url(#d)"/>
            </g>
            <g transform="translate(334.209 283.092)">
                <mask id="f" fill="#fff">
                    <use xlink:href="#e"/>
                </mask>
                <path fill="#2474CD" d="M.642 34.31l29.779 72.123 99.282-32.275L92.463.481z" mask="url(#f)"/>
            </g>
            <path fill="#3F3848" d="M350.519 341.12a1.593 1.593 0 1 1-3.187.002 1.593 1.593 0 0 1 3.187-.001M358.393 359.869a1.593 1.593 0 1 1-3.187 0 1.593 1.593 0 0 1 3.187 0"/>
            <path fill="#2B2B51" d="M343.204 325.194l54.355-26.699 29.01 39.861 3.065 12.795-57.918 23.528z"/>
            <path fill="#42426C" d="M341.975 323.326l50.887-36.86s6.214 8.816 16.712 24.564c9.635 14.454 16.995 27.326 16.995 27.326l-56.08 34.455-28.514-49.485z"/>
            <path fill="#3F3848" d="M330.646 350.276l17.498-9.749.75 1.5-17.373 9.436z"/>
            <path fill="#3F3848" d="M330.646 350.276l13.592-5.124.469 1.031-13.186 5.28z"/>
            <path fill="#24478D" d="M355.956 336.387a1.312 1.312 0 1 1-2.625 0 1.312 1.312 0 0 1 2.625 0M364.58 351.526a1.312 1.312 0 1 1-2.625 0 1.312 1.312 0 0 1 2.625 0"/>
            <path fill="#24478D" d="M354.268 335.59s-18.372 9.187-23.622 13.124c-5.25 3.937-6.561 6.937-6.561 6.937l3.75-.563s2.45-5.042 6.14-7.078c10.872-5.998 20.856-10.92 20.856-10.92l-.563-1.5z"/>
            <path fill="#E09595" d="M78.99 383.71s-2.5 2.5-1.5 4.25c1.724 3.015 6 6.249 10.499 9.498 6.083 4.394 21.247.25 21.247.25L78.99 383.71zM91.239 377.586c-.938-.563-3.375-4.5-3.187-7.874.187-3.375 2.124-3.125 3.062-2 .937 1.124 2.937 4.437 4.812 5.562 1.874 1.125 4.186 3.125 7.561 2.937 3.375-.187 6.5 1.375 8 2.875 1.499 1.5 2.436 3.937 3.561 4.124 1.125.188 9.811 2.125 13.936 1.75 4.124-.375 10.999-1.437 16.248-.875 0 0 2.374-6 4.999-8.999 2.625-3 2.558-5.51 2.875-7.624.375-2.5.75-4.374 1.25-6.875l5.5.688-3.375 40.496-19.31 3-45.932-27.185z"/>
            <path fill="#2B2B51" d="M36.496 602.436l12.998 15.999s19.165-12.551 40.745-32.497c7.255-6.706 12.685-15.01 20.565-22.933 20.382-20.494 41.326-44.187 54.925-66.557l6-43.996-27.247-7.248s-8.5 13.498-30.746 48.244C91.488 528.194 84.99 542.442 72.99 559.69c-11.998 17.249-36.495 42.746-36.495 42.746"/>
            <path fill="#42426C" d="M144.482 445.204s7.124 21.247 9.749 27.246c2.759 6.306 7.499 11 7.499 11s-4.5 47.494-5.5 66.492c-1 18.998-1.19 28.802-3.25 46.745-1.749 15.248-13.498 68.242-13.498 68.242l17.998 6.5s16.749-35.497 21.498-49.995c4.685-14.302 4.749-28.997 6.749-37.996 2-8.999 11.749-36.746 20.247-64.993 8.528-28.343 12.249-60.493 12.249-60.493l-73.74-12.748z"/>
            <path fill="#303030" d="M184.508 294.907s-.35-5.887 1.219-14.248c.844-4.5 1.876-9.193 8.343-12.936 5.343-3.094 19.931-6.445 26.059-3.469 6.562 3.188 8.436 7.78 7.405 12.843-.913 4.486-3.122 12.022-3.75 14.154-.937 3.188-2.343 8.906-4.03 8.624-1.687-.28-35.246-4.968-35.246-4.968"/>
            <path fill="#42426C" d="M117.73 391.057a1.527 1.527 0 0 1-.15-2.15l5.874-6.754c.55-.633 1.517-.7 2.15-.15.632.55.7 1.517.15 2.149l-5.874 6.755c-.55.632-1.517.7-2.15.15"/>
            <path fill="#E09595" d="M181.79 331.231s5.093-9.483 5.343-25.357c0 0 16.03 3.563 27.372 6.61-2.25 6.515-1.781 13.78-1.781 13.78l-30.513 15.091-.421-10.124z"/>
            <path fill="#FFF" d="M153.98 362.212l2.75.25s.5 10 .5 14.749c0 4.749-2 13.998-1.75 24.747s-1.5 18.248-3.999 24.498c-2.5 6.249-7.75 19.247-7.75 19.247s12.57 4.86 26.248 7.5c28.496 5.499 51.244 6.249 51.244 6.249s9.748-48.745 8.498-79.491c-1.107-27.226.5-50.245.5-50.245s-11.998-3.5-18.747-3c-25.622 10.312-28.56 9.437-28.56 9.437l-.937-7.187s-10.748.75-15.998 4.5c-4.173 2.98-6.98 6.932-8.749 13.498-1.75 6.5-3.25 15.248-3.25 15.248"/>
            <path fill="#DBDFE4" d="M165.73 414.457s41.013 11.114 50.462 15.248c3 1.312 6.75 20.435 6.75 20.435s3.28-19.592 4.686-31.028c-8.811-.187-61.898-4.655-61.898-4.655"/>
            <path fill="#2B2B51" d="M139.093 407.288c-1.688 3.44-5.884 4.874-9.323 3.186l-30.854-15.139c-3.44-1.687-4.873-5.883-3.186-9.323 1.688-3.44 5.883-4.874 9.323-3.186l30.854 15.139c3.44 1.688 4.873 5.883 3.186 9.323"/>
            <path fill="#DBDFE4" d="M204.38 373.555l-1.405-1.781s-4.875 21.747-7.312 22.31c-7.975 1.84-22.497 5.812-22.497 5.812l34.808-.437-3.593-25.904z"/>
            <path fill="#E9EEFB" d="M182.915 336.153s.187 2.25.687 5.124c.5 2.875 1.24 4.976 1.24 4.976a.71.71 0 0 0 .89.565c2.567-.72 10.906-3.174 13.118-5.228 2.625-2.438 11.562-13.936 14.936-14.873l-.313-2.313c-.066-.5-.812-.75-.812-.75s-6.062 4.375-15.248 7.937c-9.187 3.562-14.498 4.562-14.498 4.562"/>
            <path fill="#FFAEAE" d="M220.722 297.595c-2.418 13.22-11.445 26.565-21.497 24.622-10.357-2.003-14.292-17.152-11.873-30.372 2.419-13.22 7.624-18.248 21.122-16.373 15.232 2.116 14.668 8.902 12.248 22.123"/>
            <path fill="#FFAEAE" d="M187.602 295.845c.459 4.298.98 8.633-.563 8.811-2.437.281-4.415-5.356-4.874-9.655-.46-4.299.343-5.79 1.887-5.955 1.544-.165 3.09 2.5 3.55 6.799M204.287 373.086s-.173 7.24 0 13.124c.188 6.374 1.5 10.499 1.5 10.499s-17.248 1.5-27.934 2.437c-10.686.937-20.623-.938-23.435-1.875-2.812-.937-3.127-2.605-7.124-3.937-3.374-1.125-7.311-2.062-8.999-2.625-1.687-.562-5.436.188-10.123-1.312-1.694-.542-5.625-1.687-5.812-1.125-.537 1.61-.34 3.351 3.75 5.25a783.786 783.786 0 0 0 10.31 4.686s-21.934 4.687-24.371 5.062c-1.583.244-1.087 3.071 1.125 3.562 3.374.75 4.686 1.125 4.686 1.125s3.75 5.062 6.562 6.375c2.812 1.312 4.941 1.516 7.124 2.062 2.25.562 3.75.75 8.624.375 6.029-.464 15.373-2.625 19.685-2.25 4.312.375 15.357 3.139 24.872 4.687 10.749 1.75 19.873 2.99 29.496 3.25 9.249.25 11.874 0 15.248-2.25 3.375-2.25 4.75-5.5 4.938-9.624.187-4.124 1.75-12.936.812-24.185-.938-11.249-2.063-15.748-2.063-15.748l-28.87 2.437z"/>
            <path fill="#E9EEFB" d="M202.412 368.962l.528 3.687c.09.529.572.897 1.106.845l18.301-1.782-2-4.375-17.935 1.625z"/>
            <path fill="#EE854F" d="M255.714 207.936l-6.247 12.538a2.918 2.918 0 0 1-3.914 1.31l-21.418-10.673a2.918 2.918 0 0 1-1.31-3.914l6.247-12.538a2.918 2.918 0 0 1 3.913-1.31l21.42 10.673a2.918 2.918 0 0 1 1.31 3.914"/>
            <path fill="#FFF" d="M235.698 192.432a4.72 4.72 0 0 1-4.719-4.719l-.434-16.046h-.548l-.435 16.046a4.72 4.72 0 0 1-4.719 4.72l-11.799.437v.541l11.8.437a4.72 4.72 0 0 1 4.718 4.72l.432 9.911h.554l.431-9.91a4.72 4.72 0 0 1 4.72-4.72l12.27-.424v-.57l-12.27-.423z"/>
            <path fill="#42426C" d="M98.515 382.462a1.528 1.528 0 0 1-1.276-1.736l1.35-8.85a1.528 1.528 0 0 1 1.736-1.275 1.527 1.527 0 0 1 1.276 1.736l-1.35 8.848a1.528 1.528 0 0 1-1.736 1.277"/>
            <path fill="#3F3848" d="M223.222 293.72s-3 5.25-1.25 13.748c1.086 5.274 3.5 6.75 2.75 8.5s-4.25 2.115-4.25 7.998c0 3.5 2.5 5.75 2 8.5-.5 2.749-8.64 9.611-7.999 22.747.5 10.25 6.25 19.998 17.248 22.998 10.999 3 10.499-17.749 10.499-17.749l-2.75-63.493 10.749-7.499s3.25-7.749-5.75-9.249c-6.675-1.112-13.248 4.5-13.248 4.5l-7.999 8.999z"/>
            <path fill="#3F3848" d="M246.22 285.72s8.249 3.75 9.998 17.499c1.956 15.37 7.037 17.958 10.999 21.747 5.749 5.5 8.244 6.885 6 12.5-1.5 3.749-11.25 9.248-19.249 7.998 0 0-8.498-12.249-7.999-23.747.5-11.499.25-35.996.25-35.996"/>
            <path fill="#E09595" d="M239.158 392.022s-15.373-22.123-14.998-53.807l8.624-11.061-.188-9.937 19.31-3.374s-.832 12.78 2.437 19.498c3.757 7.718 18.309 14.232 22.123 19.872l-37.308 38.809zM350.956 514.695s-13.748-1.999-27.496 9.25c-11.081 9.066-29.747 34.996-33.246 38.745-3.5 3.75-6 7-10.749 7.75-3.736.59-9.749-1.5-10.999 3.499-1.249 5-2.124 23.997-.624 32.996 1.5 9 3 13.75 5.999 13.25 3-.501 3.118-5.401 5.374-14.75 1.75-7.248 3.75-16.247 9.25-21.997 5.498-5.75 21.698-26.162 69.99-47.494 10.187-4.5 18.876-8.537 21.498-13.499 6.998-13.249-7-27.747-7-27.747l-21.997 19.997z"/>
            <g transform="translate(283.215 526.816)">
                <mask id="h" fill="#fff">
                    <use xlink:href="#g"/>
                </mask>
                <path fill="#FFAEAE" d="M.75 7.503s7.873 14.06 11.06 20.81c2.736 5.794 4.875 16.123 4.5 21.748-.375 5.624.411 15.61 7.312 29.059 7.311 14.248 17.247 38.058 19.122 42.933 1.875 4.874 3 9.186 3 12.186s-2.437 6.75-2.437 9.749c0 3 .528 5.727 5.624 7.686 4.874 1.875 8.999 4.5 14.998 7.5 6 3 10.874 3.187 14.623 2.437 3.75-.75 7.957-2.808 6.562-5.25-1.5-2.624-13.31-10.686-17.998-14.998-3.753-3.453-7.704-7.749-9.561-14.248-1.875-6.562-12.59-57.587-14.623-67.68-1.841-9.141-4.621-19.06-6.187-26.997-.948-4.804-1.363-10.794-2.812-17.061C32.806 10.503 30.558.379 30.558.379L.75 7.503z" mask="url(#h)"/>
            </g>
            <path fill="#42426C" d="M257.343 343.09c-2.625-1.125-15.027 12.74-19.498 27.371-4.124 13.499-1.5 17.249-1.5 17.249s10.5 16.873 13.124 22.122c2.625 5.25 4.917 10.382 5.25 15.373.75 11.25-4.117 19.65-4.5 30.747-.375 10.874 3 22.123 11.248 37.87 8.25 15.75 3.685 20.948 4.125 31.497.375 9 3 12.75 3 12.75s19.872 6.748 48.743-4.5c28.872-11.25 46.165-16.814 62.243-28.872 8.999-6.75 11.998-13.124 11.998-13.124s-8.035-16.347-33.746-32.246c-28.496-17.623-57.87-29.874-64.867-41.246-3-4.874-9.118-22.891-7.499-32.621 1.65-9.912 5.352-18.108-.375-25.497-5.742-7.41-21.533-14.21-27.746-16.874"/>
            <path fill="#2B2B51" d="M301.212 475.45c7 8.25 19.498 21.748 46.995 37.246 0 0-13.249.75-22.497 7.999-9.2 7.21-11 11.249-11 11.249s-9.748-47.245-13.498-56.494M255.843 366.15c.188.562 5.25 8.436 13.311 8.624l-11.999 5.811-1.312-14.436z"/>
            <path fill="#FFAEAE" d="M238.158 322.467c-5.28-1.12-14.436 2.25-14.436 13.249 0 7.752 4 28.496 14.748 46.244 10.75 17.748 11.999 16.998 13.749 17.248s14.082-2.07 32.246-10.748c16.873-8.062 27.184-11.812 32.683-12.562 5.499-.75 9.186-1.874 14.06-6.936 2.709-2.813 3.75-5 3.75-5s.938-1.187 1.313 1.25c.268 1.747-.732 2.91.375 3.187 1.5.375 3.23-2.212 3.811-6.187.512-3.498.687-4.602-1.187-6.749-3-3.437-5.686-4.75-6.561-5.124-.876-.375-2.687-1.875-5.937 1.125-3.25 3-6 6.311-7.75 9.061-1.749 2.75-3.749 5.25-7.811 6.437-6.46 1.889-21.435 3.687-32.246 5.75-6.914 1.318-17.623 2.874-20.122 3.374-2.5.5-.125-5.874-6.125-21.373-1.815-4.691-3.562-8.249-4.811-13.999-1.25-5.748-1.5-16.498-9.749-18.247"/>
            <path fill="#FFAEAE" d="M253.218 294.72c2.877 11.767.51 26.26-8.436 28.497-8.946 2.236-17.887-8.141-21.56-19.686-2.624-8.249.99-17.449 9.936-19.685 8.947-2.236 17.998 2.437 20.06 10.874"/>
            <g transform="translate(221.723 283.092)">
                <mask id="k" fill="#fff">
                    <use xlink:href="#i"/>
                </mask>
                <path fill="url(#j)" d="M15.927.196c-1.477 0-2.986.181-4.492.558C2.49 2.99-1.125 12.19 1.5 20.439c1.675 5.267 4.447 10.29 7.816 13.984a53.368 53.368 0 0 0 23.166-16.848 40.73 40.73 0 0 0-.987-5.948C29.781 4.61 23.231.197 15.928.197h-.001" mask="url(#k)"/>
            </g>
            <g>
                <path fill="#FFAEAE" d="M253.218 294.72c-3-4.5-9.613-7.298-18.56-5.062-8.946 2.236-11.998 10.124-11.436 13.873-2.624-8.249.99-17.449 9.936-19.685 8.947-2.236 17.998 2.437 20.06 10.874"/>
                <path fill="#2B2B51" d="M273.716 354.963s3.5 3.5 3 7.75c-.5 4.249-2.5 6.748-2.5 6.748s4.5-.75 5.499-4.499c1-3.75-2-6.999-6-9.999M254.718 429.33s29.622 1.063 43.682-5.312l-2.582-2.658a20.262 20.262 0 0 1-2.89-3.773l-1.527-2.568s-2.382 1.116-13.998 2.312c-12.748 1.313-24.247.875-24.247.875l.687 3.125c.338 1.655.56 3.532.679 5.216l.196 2.783zM265.592 525.32c.375 8.999 3 12.748 3 12.748s6.321 2.146 17.01 2c-6.647-14.221-13.63-28.51-22.088-41.96 5.364 12.516 1.681 17.682 2.078 27.211M382.536 502.313c6.706-5.792 9.04-10.74 9.04-10.74s-8.035-16.346-33.745-32.246c-18.363-11.356-37.079-20.48-49.944-28.576 26.439 22.373 54.296 43.794 74.649 71.562M198.674 461.39l1.551-.438s1.313 4.967 3.78 11.686c1.688 4.593 4.687 9.561 5.469 10.811l-.908.558a2.712 2.712 0 0 1-3.793-.987c-1.379-2.468-3.277-6.183-4.423-9.164-1.346-3.5-2.5-7.537-3.135-9.896a2.102 2.102 0 0 1 1.46-2.57"/>
                <path fill="#E9EEFB" d="M183.54 326.841s-.75 2.938-.875 5 .25 4.312.25 4.312-2.748 2.674-5.312 4.812c-1.125.937-2.365 2.09-3 2.312-.585.205-.873-.05-.731-.654.473-2.006 2.294-8.657 7.543-14.282.657-.704 1.437-1.437 2.125-1.5M154.043 362.494l2.687.219.813-3.438-3.312-.25-.707 2.695a.62.62 0 0 0 .52.774M190.414 359.775l-.298 3.202a.731.731 0 0 0 .659.805l10.042.957a1.033 1.033 0 0 0 1.127-.935l-.22-3.279-11.31-.75z"/>
                <path fill="#42426C" d="M112.725 394.323c-1.688 3.44-5.883 4.874-9.322 3.186l-27.485-13.485c-3.439-1.687-4.872-5.883-3.185-9.323 1.688-3.44 5.884-4.874 9.323-3.186L109.54 385c3.44 1.688 4.873 5.883 3.185 9.323"/>
                <path fill="#E9EEFB" d="M110.905 393.343c-1.349 2.75-4.703 3.896-7.452 2.546l-28.1-13.787c-2.75-1.349-3.895-4.703-2.546-7.452 1.349-2.75 4.703-3.896 7.452-2.547l28.1 13.787c2.75 1.35 3.895 4.703 2.546 7.453"/>
                <path fill="#42426C" d="M80.865 377.086a3.094 3.094 0 1 1-6.187 0 3.094 3.094 0 0 1 6.187 0"/>
                <path fill="#42426C" d="M79.123 377.763a1.222 1.222 0 0 1-1.627.566l-32.942-16.416a1.222 1.222 0 0 1-.567-1.627 1.222 1.222 0 0 1 1.627-.567l32.942 16.416c.603.292.859 1.024.567 1.628"/>
                <path fill="#2B2B51" d="M48.431 362.369a1.222 1.222 0 0 1-1.627.567l-2.25-1.022a1.223 1.223 0 0 1-.567-1.629 1.222 1.222 0 0 1 1.627-.566l2.25 1.022c.604.292.86 1.024.567 1.628"/>
                <path fill="#3F3848" d="M350.519 360.087l-16.686 5.687 1.313-2.062 14.685-5.28z"/>
                <path fill="#E9EEFB" d="M31.371 311.718s5.687 1.374 8.686 1c2.531-.316 4.125-3.75 4.125-3.75l-12.81 2.75zM76.71 296.595c.374.093 28.683 10.592 49.962 13.217 2.14.264 3.562-.938 3.374-3.094-.365-4.203-3.187-12.186-13.592-15.654-9.73-3.243-12.936-4.593-18.185-6.562l-21.56 12.093z"/>
                <path fill="#FFF" d="M9.624 300.844s8.749 11.873 17.623 11.873 37.87-8.123 55.493-17.747c17.622-9.625 34.12-23.623 35.62-26.997 1.5-3.375-1.244-7.069-6.624-7.5-9.374-.75-18.372 4.375-28.121 11.5-9.749 7.123-17.623 11.748-27.247 17.872-9.385 5.973-18.497 11.874-23.997 11.624s-9.624-3-11.748-4.125c-2.125-1.125-4.331-1.25-6.625.125a25.446 25.446 0 0 0-4.374 3.375"/>
                <path fill="#E9EEFB" d="M94.145 271.004c2.925.975 12.936-5.531 20.231-9.998-.79-.268-1.67-.455-2.64-.533-6.416-.513-12.658 1.728-19.084 5.477-.1 1.976-.476 4.397 1.493 5.054M26.497 308.593c-2.227.905-3.75 1.125-5.625.375-3.598-1.44-5.124-3.374-5.374-4.5-.25-1.124 0-2.124 2.25-2.124s10.623 1.5 12.249 1.625c1.624.125 2.893 1.154 1.624 2-1.875 1.25-2.807 1.683-5.124 2.624M62.992 289.47s-27.246-13.998-43.494-30.746c0 0-2.782-3.281 3-4.5 5.757-1.213 20.81-2 34.995 6.5 5.296 3.173 9.972 6.433 13.998 8.999 6.374 4.061 9.749 6.187 10.999 6.999 0 0 .494.676-.375 1.562-1.911 1.947-7.273 6.328-17.123 10.999-.63.298-1.375.625-2 .187"/>
                <path fill="#24478D" d="M336.333 365.9l26.56-15.312.374 1.875-27.09 14.717z"/>
                <path fill="#24478D" d="M335.896 364.087l27.137-13.498.375 1.874-27.137 12.75z"/>
                <path fill="#3F3848" d="M356.893 360.619l-23.06 5.155 1.313-2.062 21.747-5.124z"/>
                <path fill="#EE854F" d="M332.958 366.837l24.31 9.905-1.11-2.906-21.95-8.624z"/>
                <path fill="#EE854F" d="M333.552 366.118l18.404 4.468-.312-2.25-17.123-3.655z"/>
                <path fill="#2B2B51" d="M297.923 459.38l1.422-13.758c.04-.37.583-.36.609.011l1.153 17.043c.349 5.147.283 10.166 2.262 14.93l3.093 4.468-4.312-4-3.29-10c-.921-2.8-1.24-5.763-.937-8.695M329.896 448.453s29.247 25.31 40.995 62.056c0 0 2-1.25 3.531-2.188 1.531-.937 3.093-2.156 3.093-2.156s-7.311-17.591-17.81-29.965c-10.499-12.374-29.809-27.747-29.809-27.747M263.303 494.158s6.507 7.914 18.787 21.975c12.28 14.061 21.654 21.654 21.654 21.654s-3.343.75-5.406 1.093c-2.062.345-5.343.72-5.343.72s-6.312-8.375-14.28-20.092c-7.967-11.718-15.939-24.948-15.939-24.948-.225-.345.254-.71.527-.402"/>
                <path fill="#42426C" d="M307.024 497.01s6.187 20.248 16.31 28.872l-12.622 9.312-3.688-38.184z"/>
                <path fill="#E9EEFB" d="M173.728 374.024c-.177.616-.795.356-.675-.285 1.35-7.245 4.174-19.3 4.723-22.27.358-1.936 1.918-4.301 3.006-4.976.295-.184.572.23.448.662l-7.502 26.869z"/>
            </g>
            <g transform="translate(187.227 274.843)">
                <mask id="n" fill="#fff">
                    <use xlink:href="#l"/>
                </mask>
                <path fill="url(#m)" d="M.37 15.732c6.684 9.814 16.202 17.542 27.377 22.007 2.741-4.351 4.777-9.68 5.748-14.988C35.915 9.531 36.48 2.744 21.247.628 19.437.378 17.775.25 16.25.25 6.775.25 2.542 5.162.37 15.732" mask="url(#n)"/>
            </g>
            <path fill="#303030" d="M191.445 280.471s-1.031 6.656-1.875 9c-.52 1.446-2.437 3.655-2.437 3.655l-.656-5.25 4.968-7.405z"/>
        </g>
    </g>
</svg>
