<svg xmlns="http://www.w3.org/2000/svg" width="111" height="109" viewBox="0 0 111 109">
    <g fill="none" fill-rule="nonzero">
        <circle cx="56.91" cy="54.2" r="53.25" fill="#537CE1"/>
        <path fill="#EEF3F9" d="M87.22 49.8v-1.06a8.36 8.36 0 0 0-5.3 1.89l.67.82 1-.37a1.07 1.07 0 0 0-1.76-.37l.76.74-.68-.82a8.47 8.47 0 0 0-1.22 1.24l.83.67-.76-.75L69 63.7a1.07 1.07 0 0 0 .76 1.82h17.49a8.39 8.39 0 1 0 0-16.78v2.13a6.26 6.26 0 0 1 0 12.52H72.29l10-10.1.07-.08a6.34 6.34 0 0 1 .91-.92l.09-.08-.76-.74-1 .37a1.07 1.07 0 0 0 1.67.46 6.22 6.22 0 0 1 4-1.41l-.05-1.09z"/>
        <path fill="#EEF3F9" d="M51.92 49.6v1.06a6.23 6.23 0 0 1 4 1.41 1.07 1.07 0 0 0 1.67-.45l-1-.37-.76.75.08.08c.334.274.64.583.91.92l.07.08 10 10.1H51.92a6.26 6.26 0 0 1 0-12.52v-2.13a8.39 8.39 0 1 0 0 16.78H69.4a1.07 1.07 0 0 0 .76-1.82L58.38 51.58l-.76.75.83-.67a8.38 8.38 0 0 0-1.22-1.24l-.67.82.76-.75a1.06 1.06 0 0 0-1.75.38l1 .37.67-.82a8.36 8.36 0 0 0-5.3-1.89l-.02 1.07z"/>
        <path fill="#EEF3F9" d="M105.18 108.6H33.12V64.45h72.07v15.37"/>
        <path fill="#ED8567" d="M62.22 64.45h14.82v44.15H62.22z"/>
        <g>
            <path fill="#ED8567" d="M26.78 35.14H45.4v73.46H26.78V35.14"/>
            <path fill="#C16049" d="M26.78 92.61v16H45.4V92.83a22.75 22.75 0 0 1-8.95 1.82h-.28a22.44 22.44 0 0 1-9.39-2"/>
            <path fill="#E7E9F2" d="M58.55 71.84c0 12.205-9.895 22.1-22.1 22.1-12.205 0-22.1-9.895-22.1-22.1 0-12.205 9.895-22.1 22.1-22.1 12.205 0 22.1 9.895 22.1 22.1"/>
            <path fill="#EEF3F9" d="M58.55 71.84h-.7a21.4 21.4 0 1 1-6.27-15.13 21.33 21.33 0 0 1 6.27 15.13h1.41c0-10.882-7.689-20.248-18.362-22.37-10.673-2.122-21.359 3.59-25.522 13.644-4.164 10.054-.646 21.65 8.403 27.694 9.048 6.046 21.107 4.857 28.801-2.838a22.74 22.74 0 0 0 6.68-16.13h-.7"/>
            <path fill="#B8B8B8" d="M13.64 72v.14a22.56 22.56 0 0 0 13.14 20.49v-.1A22.83 22.83 0 0 1 13.64 72"/>
            <path fill="#214B8C" d="M26.78 92.51v.1a22.44 22.44 0 0 0 9.39 2h.14a22.73 22.73 0 0 1-9.52-2.14"/>
            <path fill="#A9AAB0" d="M57.84 72.12h-.55c0 11.618-9.383 21.054-21 21.12h.14c11.71.001 21.247-9.41 21.4-21.12m-21.4-21.68c-11.819 0-21.4 9.581-21.4 21.4v.14c.036-11.664 9.52-21.09 21.185-21.055 11.664.036 21.09 9.52 21.055 21.185h.55v-.28c0-11.819-9.581-21.4-21.4-21.4"/>
            <path fill="#EEF3F9" d="M58.7 71.84h-.85v.28h.86v-.28M36.18 49.59c-12.396 0-22.464 10.014-22.53 22.41.066 12.493 10.177 22.604 22.67 22.67 12.388-.077 22.39-10.141 22.39-22.53h-.86c-.153 11.71-9.69 21.121-21.4 21.12h-.28c-11.664 0-21.12-9.456-21.12-21.12v-.28c0-11.819 9.581-21.4 21.4-21.4 11.819 0 21.4 9.581 21.4 21.4h.85c-.159-12.331-10.198-22.246-22.53-22.25"/>
            <path fill="#353535" d="M35.74 56.06v16.73a.7.7 0 0 0 1.11.58l10.35-7.29a.7.7 0 0 0 .18-1 .7.7 0 0 0-1-.17l-9.24 6.51V56.05a.7.7 0 0 0-1.4 0"/>
            <path fill="#A9AAB0" d="M35.74 57.13a.7.7 0 0 0-.36.61v16.73a.7.7 0 0 0 1.11.57l10.35-7.29a.7.7 0 0 0 .17-1 .7.7 0 0 0-.42-.28l-9.74 6.86a.7.7 0 0 1-1.11-.57V57.11"/>
            <path fill="#353535" d="M36.09 57a.7.7 0 0 0-.35.09v15.65a.71.71 0 0 0 .7.7.71.71 0 0 0 .41-.13l9.74-6.86h-.16a.7.7 0 0 0-.4.13l-9.24 6.51V57.71a.7.7 0 0 0-.7-.7"/>
            <path fill="#FFEDA6" d="M33.81 91.25h-1.53a14.3 14.3 0 1 1-4.19-10.11 14.25 14.25 0 0 1 4.19 10.11h3.05a17.36 17.36 0 1 0-5.08 12.27 17.31 17.31 0 0 0 5.08-12.27h-1.52z"/>
            <path fill="#FFEDA6" d="M14.35 68.93h7.67v7.67h-7.67z"/>
            <path fill="#EACE75" d="M30.25 100.9a17.35 17.35 0 0 1-29.57-11c0 .43-.05.87-.05 1.31.226 9.423 7.93 16.943 17.355 16.943s17.129-7.52 17.355-16.943h-.2a17.32 17.32 0 0 1-4.89 9.69z"/>
        </g>
    </g>
</svg>
