<svg xmlns="http://www.w3.org/2000/svg" width="107" height="108" viewBox="0 0 107 108">
    <g fill="none" fill-rule="evenodd">
        <circle cx="53.67" cy="53.33" r="53.19" fill="#537CE1" fill-rule="nonzero"/>
        <g fill-rule="nonzero" transform="translate(36 19)">
            <path fill="#CBCED8" d="M3.24 4.24h39.5v82.63H3.24z"/>
            <path fill="#E7E9F2" d="M.34.68h39.5v82.63H.34z"/>
            <path fill="#FFF" d="M.34 19.45h39.5v63.79H.34z"/>
            <g fill="#E7E9F2">
                <path d="M16.81 33.84a3.24 3.24 0 0 1 1.16-2.61l1 1a2.13 2.13 0 0 0-.8 1.62 1 1 0 0 0 .23.68.76.76 0 0 0 .61.26.71.71 0 0 0 .63-.34 1.8 1.8 0 0 0 .22-1v-.61l.94-.23 1.61 1.6v-2.63h1.26v4.52h-1.11l-1.62-1.69c-.207 1.2-.84 1.8-1.9 1.8a2.06 2.06 0 0 1-1.58-.66 2.47 2.47 0 0 1-.65-1.71zM17.8 42.44a2.83 2.83 0 0 1 0-4.29 4.11 4.11 0 0 1 4.95 0 2.82 2.82 0 0 1 0 4.29 4.11 4.11 0 0 1-4.95 0zm.94-3.2a1.24 1.24 0 0 0-.6 1.07c-.005.436.224.84.6 1.06a2.73 2.73 0 0 0 1.54.4 2.66 2.66 0 0 0 1.52-.41 1.22 1.22 0 0 0 .01-2.11 3.13 3.13 0 0 0-3.07 0v-.01zM17.8 52.29a2.83 2.83 0 0 1 0-4.29 4.11 4.11 0 0 1 4.95 0 2.82 2.82 0 0 1 0 4.29 4.11 4.11 0 0 1-4.95 0zm.94-3.2a1.24 1.24 0 0 0-.6 1.07 1.22 1.22 0 0 0 .6 1.06 2.73 2.73 0 0 0 1.54.4 2.66 2.66 0 0 0 1.52-.41 1.22 1.22 0 0 0 .01-2.11 3.14 3.14 0 0 0-3.07 0v-.01zM17.8 59.27a2.83 2.83 0 0 1 0-4.29 4.11 4.11 0 0 1 4.95 0 2.82 2.82 0 0 1 0 4.29 4.1 4.1 0 0 1-4.95 0zm.94-3.2a1.24 1.24 0 0 0-.6 1.07 1.22 1.22 0 0 0 .6 1.06 2.73 2.73 0 0 0 1.54.4 2.66 2.66 0 0 0 1.52-.41 1.22 1.22 0 0 0 .01-2.11 3.14 3.14 0 0 0-3.07 0v-.01zM17.8 66.25a2.83 2.83 0 0 1 0-4.29 4.11 4.11 0 0 1 4.95 0 2.82 2.82 0 0 1 0 4.29 4.11 4.11 0 0 1-4.95 0zm.94-3.2a1.24 1.24 0 0 0-.6 1.07 1.22 1.22 0 0 0 .6 1.06 2.73 2.73 0 0 0 1.54.4 2.66 2.66 0 0 0 1.52-.41 1.22 1.22 0 0 0 .01-2.11 3.13 3.13 0 0 0-3.07 0v-.01zM16.93 71h1.56v-.53h.63V71h.47v-.53h.63V71h3.52v1.2c0 .215-.02.43-.06.64-.11.5-.5.89-1 1a5.05 5.05 0 0 1-1 .09h-.43l-.46-.08a2.41 2.41 0 0 1-.42-.14 1.16 1.16 0 0 1-.33-.21 1.34 1.34 0 0 1-.33-.5 2.16 2.16 0 0 1-.1-.74V72h-.47v1.28h-.63V72h-1.56l-.02-1zm5.95 1h-2.43v.21a.89.89 0 0 0 .07.38.55.55 0 0 0 .2.22 1 1 0 0 0 .39.13c.173.014.347.014.52 0H22.21l.28-.06a.54.54 0 0 0 .22-.13.79.79 0 0 0 .17-.57V72z"/>
            </g>
            <path fill="#FF7E59" d="M35.77 24.57V78a1.09 1.09 0 1 1-2.18 0V24.56a1.09 1.09 0 1 1 2.18.01zM6.89 24.57V78a1.09 1.09 0 1 1-2.18 0V24.56a1.09 1.09 0 1 1 2.18.01z"/>
            <circle cx="20.03" cy="19.35" r="4.14" fill="#FF7E59"/>
        </g>
        <path fill="#EE854F" d="M63.92 107.13l-22.81.1a4.75 4.75 0 0 1-4.77-4.73l-.17-39a4.75 4.75 0 0 1 4.73-4.77l22.81-.1a4.75 4.75 0 0 1 4.77 4.73l.17 39a4.75 4.75 0 0 1-4.73 4.77"/>
        <path fill="#FFF" d="M62.9 71.52a5 5 0 0 1 5-5l17-.46v-.58l-17-.46a5 5 0 0 1-5-5l-.46-12.48h-.57l-.46 12.48a5 5 0 0 1-5 5l-10.48.46v.59l10.48.46a5 5 0 0 1 5 5l.45 13h.6l.44-13.01z"/>
    </g>
</svg>
