<svg xmlns="http://www.w3.org/2000/svg" xmlns:xlink="http://www.w3.org/1999/xlink" width="85" height="52" viewBox="0 0 85 52">
    <defs>
        <linearGradient id="b" x1="8.052%" x2="94.842%" y1="64.469%" y2="38%">
            <stop offset="0%" stop-color="#3E6CD5"/>
            <stop offset="100%" stop-color="#578AFF"/>
        </linearGradient>
        <path id="a" d="M79 .041H3.907A3.87 3.87 0 0 0 .043 3.915v42.057a3.87 3.87 0 0 0 3.865 3.874h75.091a3.87 3.87 0 0 0 3.865-3.874V3.915A3.87 3.87 0 0 0 79 .04"/>
        <path id="d" d="M0 .11h15.305v11.898H0z"/>
        <path id="f" d="M.101.11h15.305v13.645H.101z"/>
        <path id="h" d="M0 0h10.034v20.85H0z"/>
        <path id="j" d="M0 0h5.508v3.384H0z"/>
        <path id="l" d="M1.952 0c-.18 0-.362.024-.545.073C.323.367-.115 1.578.203 2.663c.203.693.539 1.354.947 1.84a6.524 6.524 0 0 0 2.808-2.217 5.778 5.778 0 0 0-.12-.782A1.91 1.91 0 0 0 1.953 0"/>
        <radialGradient id="m" cx="-31.152%" cy="-45.845%" r="167.331%" fx="-31.152%" fy="-45.845%" gradientTransform="matrix(1 0 0 .8566 0 -.066)">
            <stop offset="0%" stop-color="#FFE8E8"/>
            <stop offset="100%" stop-color="#FDACAC"/>
        </radialGradient>
        <path id="o" d="M0 1.962C.791 3.205 1.919 4.184 3.242 4.75a5.738 5.738 0 0 0 .68-1.899C4.21 1.176 4.276.316 2.472.048A4.05 4.05 0 0 0 1.88 0C.758 0 .257.622 0 1.962"/>
        <radialGradient id="p" cx="144.147%" cy="-48.665%" r="174.269%" fx="144.147%" fy="-48.665%" gradientTransform="matrix(1 0 0 .85818 0 -.069)">
            <stop offset="0%" stop-color="#FFE8E8"/>
            <stop offset="100%" stop-color="#FDACAC"/>
        </radialGradient>
        <linearGradient id="r" x1="82.996%" x2="50%" y1="16.872%" y2="92.007%">
            <stop offset="0%" stop-color="#DFE4E8"/>
            <stop offset="100%" stop-color="#D2D3D3"/>
        </linearGradient>
    </defs>
    <g fill="none" fill-rule="evenodd">
        <path fill="#ECECEC" d="M79.78 0H4.431C1.984 0 0 1.993 0 4.452v42.295c0 2.46 1.984 4.453 4.432 4.453H79.78c2.448 0 4.432-1.994 4.432-4.453V4.452C84.211 1.993 82.227 0 79.78 0"/>
        <g transform="translate(.553 .557)">
            <mask id="c" fill="#fff">
                <use xlink:href="#a"/>
            </mask>
            <use fill="url(#b)" xlink:href="#a"/>
            <g mask="url(#c)">
                <path fill-rule="nonzero" d="M11.332-14.77h82.912v83.912H11.332z"/>
                <path fill="#E09595" d="M67.185 16.751s.165-.475.142-.887c-.014-.238.323.008.362.325.04.317-.504.562-.504.562M61.59 14.38s1.872-1.924 2.436-2.47c0 0-1.693-1.442-3.356-2.436l.03-1.347s1.693.642 3.178 1.315c1.49.676 2.406 1.282 2.673 1.667.232.334.105.776-.059 1.154-.208.481-1.396 2.501-4.486 5.034l-2.524-1.891 2.109-1.026z"/>
                <path fill="#2B2B51" d="M60.338 10.638l2.387 2.745s-2.029 1.15-2.864-.35c-.835-1.501.477-2.395.477-2.395"/>
                <path fill="#E9EEFB" d="M55.116 6.03c1.54-.833 4.733-.94 5.66 1.73.71 2.05-.863 3.228-.682 3.973.148.609 2.607 1.153 2.726 1.858.104.621-1.067 1.955-2.193 2.211l-4.681.513s-2.722-1.699-3.082-4.774c-.296-2.531.291-4.45 2.252-5.511"/>
                <path fill="#E9EEFB" d="M56.501 8.067c.72 1.26 1.528 2.228 2.606 3.1.318.24.659.418 1.01.563-.105-.753 1.4-1.933.697-3.953-.58-1.666-2.036-2.258-3.432-2.27-.998.434-1.71 1.252-.88 2.56"/>
                <path fill="#DBDFE4" d="M62.82 13.591c-.119-.705-2.578-1.25-2.726-1.858l-.009-.05a4.439 4.439 0 0 1-.998-.56c-1.067-.864-1.897-1.665-2.608-2.915-.592-.93-.086-2.27.901-2.7-.85-.007-1.677.204-2.264.521-1.96 1.06-2.548 2.98-2.252 5.512.36 3.075 3.082 4.774 3.082 4.774l4.681-.513c1.126-.256 2.297-1.59 2.193-2.21"/>
                <path fill="#EE854F" d="M68.097 15.902l1.342-1.225.077.194-1.277 1.116z"/>
                <path fill="#2B2B51" d="M69.921 12.821L71.1 22.66l9.414 1.625 1.266-2.198-2.47-8.395z"/>
                <path fill="#42426C" d="M70.225 12.497l1.187 9.822 10.47-.289-2.106-10.41z"/>
                <g transform="translate(68.604 9.765)">
                    <mask id="e" fill="#fff">
                        <use xlink:href="#d"/>
                    </mask>
                    <path fill="#24478D" d="M0 2.723l3.535 9.285 11.15-2.039.62-2.794L9.979.109z" mask="url(#e)"/>
                </g>
                <g transform="translate(68.502 7.363)">
                    <mask id="g" fill="#fff">
                        <use xlink:href="#f"/>
                    </mask>
                    <path fill="#2474CD" d="M.101 4.466l3.532 9.289 11.773-4.157L10.99.11z" mask="url(#g)"/>
                </g>
                <path fill="#3F3848" d="M70.53 14.786c0 .121-.091.219-.203.219-.112 0-.203-.098-.203-.219 0-.12.09-.218.203-.218.112 0 .202.098.202.218M71.442 17.188c0 .12-.091.218-.203.218-.112 0-.203-.097-.203-.218 0-.12.09-.218.203-.218.112 0 .203.097.203.218"/>
                <path fill="#2B2B51" d="M69.617 12.771l6.438-3.443 3.436 5.14.363 1.65-6.86 3.035z"/>
                <path fill="#42426C" d="M69.414 12.553L75.45 7.8s.738 1.137 1.983 3.168c1.143 1.863 2.016 3.523 2.016 3.523l-6.652 4.444-3.383-6.382z"/>
                <path fill="#3F3848" d="M68.097 15.942l2.04-1.265.088.195-2.026 1.224z"/>
                <path fill="#3F3848" d="M68.097 15.953l1.568-.62.054.124-1.521.64z"/>
                <path fill="#24478D" d="M71.138 14.186c0 .09-.068.164-.152.164-.084 0-.153-.074-.153-.164 0-.09.069-.164.153-.164.084 0 .152.074.152.164M72.151 16.151c0 .09-.068.164-.152.164-.084 0-.152-.074-.152-.164 0-.09.068-.164.152-.164.084 0 .152.074.152.164"/>
                <path fill="#24478D" d="M70.868 14.131s-2.18 1.2-2.803 1.714c-.623.515-.779.906-.779.906l.445-.073s.29-.659.729-.924c1.29-.784 2.475-1.427 2.475-1.427l-.067-.196z"/>
                <path fill="#E09595" d="M38.299 20.245s-.293.328-.176.559c.202.396.703.822 1.231 1.25.713.577 2.492.032 2.492.032l-3.547-1.841zM39.69 19.481c-.11-.072-.4-.578-.377-1.012.022-.433.252-.401.363-.256.111.144.348.57.57.714.223.145.497.402.897.378.4-.025.77.176.948.369.178.193.29.506.422.53.134.024 1.164.273 1.653.225.489-.049 1.304-.185 1.926-.113 0 0 .281-.77.593-1.156.31-.385.303-.708.34-.98.045-.32.09-.562.149-.883l.652.089-.4 5.202-2.29.386-5.445-3.493z"/>
                <path fill="#E9EEFB" d="M29.864 46.05c-.159-.216-.617.434-.236 1.262.382.83 1.6 3.185 1.869 3.727.354.717.79.931 1.352.607.36-.208.787-.74 1.08-.999.208-.183.429-.34.619-.502l-1.345-1.732c-.236.194-.514.44-.827.194-.85-.668-2.128-2.04-2.512-2.558"/>
                <path fill="#FFAEAE" d="M33.216 48.41c-.228.19-.497.433-.796.213-.038.733 1.023 1.944 1.473 2.079.296-.253.46-.384.655-.547l-1.332-1.746z"/>
                <path fill="#E9EEFB" d="M45.476 56.488s-.246.529-1.26.785c-1.014.257-3.102.882-3.176 1.267-.111.573 1.603.906 3.153.746 1.551-.16 2.834-.23 2.997-.457.235-.326.154-.905.302-1.24.097-.216.13-.268.13-.268l-2.146-.833z"/>
                <path fill="#FFAEAE" d="M44.962 57.374c.375.44 1.605.519 2.518.322.089-.206.143-.347.143-.347l-2.159-.861s-.104.228-.452.46c-.147.103-.167.289-.05.426"/>
                <path fill="#2B2B51" d="M33.23 48.427l1.54 2.056s2.269-1.613 4.825-4.177c.859-.862 1.502-1.93 2.435-2.948 2.414-2.635 4.894-5.68 6.504-8.557l.71-5.655-3.226-.932s-1.006 1.735-3.64 6.202c-2.635 4.467-3.405 6.298-4.826 8.516-1.42 2.217-4.322 5.495-4.322 5.495"/>
                <path fill="#42426C" d="M45.985 28.214s.844 2.737 1.155 3.51c.326.813.888 1.417.888 1.417s-.533 6.12-.652 8.567c-.118 2.448-.14 3.711-.384 6.023-.208 1.965-1.599 8.793-1.599 8.793l2.131.837s1.984-4.573 2.546-6.441c.555-1.843.563-3.736.8-4.896.236-1.16 1.39-4.734 2.397-8.374 1.01-3.651 1.45-7.794 1.45-7.794l-8.732-1.642z"/>
                <path fill="#303030" d="M50.769 8.802s-.042-.751.145-1.818c.1-.574.224-1.173.996-1.65.637-.395 2.378-.823 3.109-.443.783.406 1.006.993.883 1.638-.109.573-.372 1.535-.447 1.807-.112.406-.28 1.136-.48 1.1-.202-.036-4.206-.634-4.206-.634"/>
                <path fill="#42426C" d="M42.817 21.287a.23.23 0 0 1-.017-.288l.668-.903c.062-.084.172-.093.244-.02a.23.23 0 0 1 .017.287l-.668.904c-.062.084-.172.093-.244.02"/>
                <path fill="#E09595" d="M50.46 13.587s.6-1.225.63-3.276c0 0 1.887.46 3.222.854-.264.842-.21 1.78-.21 1.78l-3.592 1.95-.05-1.308z"/>
                <path fill="#FFF" d="M47.113 17.518l.325.033s.06 1.29.06 1.903-.237 1.807-.208 3.195c.03 1.387-.177 2.355-.473 3.162-.296.806-.917 2.484-.917 2.484s1.487.627 3.106.968c3.373.71 6.066.807 6.066.807s1.154-6.292 1.006-10.26c-.131-3.515.059-6.486.059-6.486s-1.42-.452-2.22-.387c-3.032 1.33-3.38 1.218-3.38 1.218l-.11-.928s-1.273.097-1.894.581c-.494.385-.826.895-1.036 1.742-.207.84-.384 1.968-.384 1.968"/>
                <path fill="#DBDFE4" d="M48.535 24.284s4.835 1.428 5.95 1.959c.353.169.795 2.626.795 2.626s.387-2.518.553-3.987c-1.04-.024-7.298-.598-7.298-.598"/>
                <path fill="#2B2B51" d="M45.31 23.35c-.199.44-.693.622-1.098.407l-3.631-1.934c-.405-.215-.574-.75-.375-1.19.198-.44.692-.623 1.097-.407l3.632 1.933c.405.216.573.752.375 1.19"/>
                <path fill="#DBDFE4" d="M53.174 18.945l-.168-.229s-.582 2.786-.873 2.858c-.952.236-2.686.745-2.686.745l4.156-.056-.43-3.318z"/>
                <path fill="#E9EEFB" d="M50.562 14.192s.022.286.081.65c.06.366.147.633.147.633.009.053.057.087.105.072.304-.091 1.29-.403 1.55-.664.31-.31 1.367-1.772 1.766-1.89l-.037-.295c-.008-.063-.096-.095-.096-.095s-.716.556-1.802 1.009c-1.086.453-1.714.58-1.714.58"/>
                <path fill="#FFAEAE" d="M55.072 9.179c-.284 1.708-1.345 3.432-2.527 3.181-1.217-.258-1.68-2.216-1.395-3.924.284-1.708.896-2.358 2.482-2.116 1.79.274 1.724 1.15 1.44 2.859"/>
                <path fill="#FFAEAE" d="M51.115 8.983c.054.54.115 1.086-.066 1.108-.287.035-.52-.674-.573-1.214-.054-.54.04-.728.222-.749.181-.02.363.315.417.855M53.131 18.92s-.02.93 0 1.684c.022.818.178 1.348.178 1.348s-2.051.192-3.323.313c-1.27.12-2.453-.12-2.787-.241-.335-.12-.372-.334-.848-.505-.401-.145-.87-.265-1.07-.337-.201-.072-.647.024-1.205-.169-.201-.07-.669-.216-.691-.144-.064.207-.04.43.446.674.624.313 1.227.601 1.227.601s-2.61.602-2.9.65c-.188.031-.129.394.134.457.402.096.558.144.558.144s.446.65.78.819c.335.168.588.194.848.264.267.072.446.097 1.026.048.717-.06 1.828-.336 2.341-.288.513.048 1.827.402 2.96.601 1.278.225 2.363.384 3.508.417 1.1.032 1.413 0 1.814-.289.401-.288.565-.705.587-1.235.023-.529.208-1.66.097-3.104-.112-1.443-.245-2.02-.245-2.02l-3.435.312z"/>
                <path fill="#E9EEFB" d="M52.893 18.372l.062.457a.12.12 0 0 0 .13.105l2.14-.221-.234-.542-2.098.201z"/>
                <path fill="#EE854F" d="M59.243-2.305l-.737 1.602c-.085.184-.292.259-.462.167L55.517-1.9a.388.388 0 0 1-.155-.5l.737-1.602c.085-.184.292-.259.462-.167l2.527 1.364c.17.091.24.315.155.5"/>
                <path fill="#FFF" d="M56.805-4.399c-.31 0-.561-.27-.561-.602l-.052-2.046h-.065L56.075-5c0 .333-.251.602-.561.602l-1.404.056v.069l1.404.056c.31 0 .561.27.561.602l.051 1.263h.066l.052-1.263c0-.333.251-.602.561-.602l1.46-.054v-.073l-1.46-.054z"/>
                <path fill="#42426C" d="M40.576 20.133c-.096-.016-.162-.116-.147-.223l.155-1.137c.015-.106.105-.18.2-.164.096.017.162.117.147.223l-.155 1.137c-.015.107-.105.18-.2.164"/>
                <path fill="#3F3848" d="M55.366 8.682s-.36.675-.15 1.769c.13.678.42.868.33 1.093-.09.225-.51.272-.51 1.029 0 .45.3.74.24 1.093-.06.354-1.036 1.237-.96 2.927.06 1.318.75 2.573 2.069 2.959 1.318.385 1.258-2.284 1.258-2.284l-.33-8.168 1.29-.965s.389-.997-.69-1.19c-.8-.143-1.588.58-1.588.58l-.96 1.157z"/>
                <path fill="#3F3848" d="M58.095 7.69s.982.486 1.19 2.264c.234 1.988.839 2.323 1.31 2.813.685.711.982.89.715 1.616-.179.485-1.34 1.197-2.292 1.035 0 0-1.012-1.584-.953-3.072.06-1.487.03-4.655.03-4.655"/>
                <path fill="#E09595" d="M57.2 21.336s-1.816-2.842-1.772-6.912l1.02-1.42-.023-1.277 2.282-.434s-.098 1.642.288 2.505c.444.991 2.164 1.828 2.615 2.553l-4.41 4.985zM70.518 37.12s-1.626-.258-3.251 1.19c-1.31 1.167-3.518 4.504-3.932 4.987-.413.483-.709.9-1.27.997-.442.076-1.153-.193-1.301.45-.148.644-.251 3.09-.074 4.248.177 1.158.355 1.77.71 1.705.354-.064.368-.695.635-1.898.207-.933.443-2.091 1.093-2.832.65-.74 2.566-3.367 8.277-6.113 1.204-.579 2.232-1.099 2.542-1.737.827-1.706-.828-3.572-.828-3.572l-2.601 2.574z"/>
                <path fill="#E9EEFB" d="M62.176 44.261c-.506.08-1.32-.201-1.49.47-.168.67-.287 3.218-.084 4.426.203 1.207.419 1.945.825 1.877.406-.067.494-1.16.8-2.414-.068.13-.584-.159-.584-1.27 0-2.15.556-3.093.533-3.089"/>
                <g transform="translate(62.624 38.694)">
                    <mask id="i" fill="#fff">
                        <use xlink:href="#h"/>
                    </mask>
                    <path fill="#FFAEAE" d="M.203.914S1.099 2.72 1.46 3.585c.311.744.555 2.07.512 2.792-.043.721.047 2.003.832 3.73.832 1.828 1.962 4.884 2.175 5.51.214.625.342 1.179.342 1.564s-.278.866-.278 1.25c0 .386.06.736.64.987.555.241 1.024.578 1.706.963.683.385 1.237.409 1.664.313.427-.096.905-.36.746-.674-.17-.337-1.514-1.372-2.047-1.925-.427-.443-.876-.995-1.088-1.829-.213-.842-1.432-7.39-1.663-8.686-.21-1.173-.526-2.447-.704-3.465-.108-.617-.155-1.386-.32-2.19C3.85 1.299 3.594 0 3.594 0L.203.914z" mask="url(#i)"/>
                </g>
                <g transform="translate(67.252 56.16)">
                    <mask id="k" fill="#fff">
                        <use xlink:href="#j"/>
                    </mask>
                    <path fill="#E9EEFB" d="M5.365 2.622C5.222 2.344 4.303 1.61 3.647 1.03c.224.2.09.931-1.18.415C1.197.93.601-.128.6-.118.57.18.338.564.338.965c0 .402.064.767.677 1.03.586.25 1.082.602 1.803 1.004.721.401 1.307.426 1.758.326.45-.1.957-.376.789-.703" mask="url(#k)"/>
                </g>
                <path fill="#42426C" d="M59.44 15.013c-.312-.145-1.786 1.637-2.318 3.518-.49 1.735-.178 2.217-.178 2.217s1.248 2.169 1.56 2.843c.312.675.584 1.335.624 1.976.089 1.446-.49 2.526-.535 3.952-.044 1.397.357 2.843 1.337 4.867s.438 2.693.49 4.048c.045 1.157.357 1.639.357 1.639s2.362.867 5.793-.578c3.432-1.446 5.487-2.161 7.398-3.711 1.07-.868 1.427-1.687 1.427-1.687s-.956-2.1-4.011-4.144c-3.387-2.265-6.879-3.84-7.71-5.302-.357-.626-1.084-2.942-.892-4.192.196-1.274.636-2.328-.044-3.277-.683-.953-2.56-1.827-3.298-2.169"/>
                <path fill="#2B2B51" d="M64.65 32.144c.831 1.068 2.314 2.815 5.575 4.822 0 0-1.571.097-2.668 1.035-1.092.934-1.305 1.457-1.305 1.457s-1.156-6.117-1.601-7.314M59.279 18.061c.023.073.64 1.085 1.622 1.109l-1.462.747-.16-1.856z"/>
                <path fill="#FFAEAE" d="M57.14 12.411c-.627-.144-1.713.29-1.713 1.71 0 1 .475 3.678 1.75 5.97 1.274 2.29 1.422 2.193 1.63 2.225.208.033 1.67-.267 3.825-1.387 2-1.04 3.224-1.524 3.876-1.621.652-.097 1.09-.242 1.667-.896.322-.363.445-.645.445-.645s.111-.153.156.161c.032.226-.087.376.044.412.178.048.383-.286.452-.799.061-.451.082-.594-.14-.87-.356-.445-.675-.614-.779-.662-.103-.049-.318-.242-.704.145a6.142 6.142 0 0 0-.919 1.17c-.207.354-.445.677-.926.83-.766.244-2.543.476-3.825.742-.82.17-2.09.371-2.386.436-.297.065-.015-.758-.727-2.759-.215-.605-.422-1.064-.57-1.807-.149-.742-.178-2.13-1.157-2.355"/>
                <path fill="#FFAEAE" d="M58.84 8.82c.336 1.502.059 3.35-.99 3.635-1.049.285-2.097-1.038-2.527-2.51-.308-1.052.116-2.226 1.164-2.51 1.05-.286 2.11.31 2.352 1.386"/>
                <g transform="translate(55.21 7.409)">
                    <mask id="n" fill="#fff">
                        <use xlink:href="#l"/>
                    </mask>
                    <path fill="url(#m)" d="M1.952 0c-.18 0-.362.024-.545.073C.323.367-.115 1.578.203 2.663c.203.693.539 1.354.947 1.84a6.524 6.524 0 0 0 2.808-2.217 5.778 5.778 0 0 0-.12-.782A1.91 1.91 0 0 0 1.953 0" mask="url(#n)"/>
                </g>
                <g>
                    <path fill="#FFAEAE" d="M58.92 9.021c-.356-.582-1.139-.943-2.197-.654-1.06.289-1.42 1.309-1.354 1.793-.31-1.066.117-2.256 1.176-2.545 1.059-.289 2.13.315 2.374 1.406"/>
                    <path fill="#2B2B51" d="M61.352 16.704s.4.447.344.99c-.058.544-.287.863-.287.863s.516-.095.63-.575c.115-.48-.229-.895-.687-1.278M59.105 26.292s3.517.137 5.187-.685l-.307-.343a2.6 2.6 0 0 1-.343-.487l-.182-.33s-.282.143-1.662.297c-1.514.17-2.879.113-2.879.113l.082.403c.04.213.066.456.08.673l.024.359zM60.375 38.432c.045 1.169.358 1.656.358 1.656s.754.279 2.03.26c-.794-1.848-1.627-3.704-2.636-5.452.64 1.627.2 2.298.248 3.536M74.259 35.56c.796-.741 1.073-1.375 1.073-1.375s-.954-2.092-4.006-4.127c-2.18-1.454-4.4-2.622-5.928-3.658 3.138 2.864 6.445 5.606 8.86 9.16M52.507 30.392l.178-.057s.151.647.435 1.521c.194.598.54 1.245.63 1.407l-.105.073c-.151.105-.35.047-.437-.129a11.041 11.041 0 0 1-.509-1.192 15.28 15.28 0 0 1-.36-1.288c-.035-.145.04-.294.168-.335"/>
                    <path fill="#E9EEFB" d="M50.709 13.105s-.087.369-.101.627c-.014.26.029.542.029.542s-.316.335-.61.604c-.13.117-.272.262-.345.29-.068.026-.1-.006-.084-.082.054-.252.263-1.087.866-1.793.076-.088.165-.18.245-.188M47.228 17.66l.338.025.102-.407-.416-.03-.089.32c-.012.042.019.085.065.091M51.556 17.358l-.036.422c-.005.053.03.1.079.106l1.204.126c.069.007.13-.049.136-.124l-.027-.431-1.356-.1z"/>
                    <path fill="#42426C" d="M42.312 21.77c-.203.437-.706.62-1.119.405l-3.296-1.717c-.413-.215-.585-.749-.383-1.187.203-.438.706-.62 1.119-.405l3.296 1.717c.413.214.585.749.383 1.186"/>
                    <path fill="#E9EEFB" d="M42.025 21.652c-.16.35-.559.494-.886.323l-3.34-1.75c-.326-.17-.463-.596-.302-.945.16-.35.559-.495.886-.324l3.34 1.75c.326.171.462.597.302.946"/>
                    <path fill="#42426C" d="M38.443 19.593c0 .211-.159.382-.355.382-.196 0-.354-.17-.354-.382 0-.21.158-.381.354-.381.196 0 .355.17.355.381"/>
                    <path fill="#42426C" d="M38.226 19.67c-.034.076-.12.109-.19.072l-3.87-2.09a.161.161 0 0 1-.067-.207c.034-.076.12-.109.19-.072l3.87 2.09c.072.037.102.13.067.206"/>
                    <path fill="#2B2B51" d="M34.578 17.707c-.031.076-.11.109-.176.072l-.243-.13c-.065-.036-.093-.128-.062-.204.032-.077.111-.109.177-.072l.243.13c.065.036.093.128.061.204"/>
                    <path fill="#3F3848" d="M70.576 17.361l-2.027.76.16-.275 1.784-.706z"/>
                    <path fill="#E9EEFB" d="M32.665 11.208s.675.196 1.031.143c.3-.045.49-.536.49-.536l-1.52.393zM38.038 9.213c.044.012 3.379 1.367 5.885 1.706.252.034.42-.12.397-.4-.043-.542-.375-1.572-1.6-2.02-1.147-.418-1.524-.593-2.143-.847l-2.54 1.561z"/>
                    <path fill="#FFF" d="M30.03 9.826s1.04 1.534 2.095 1.534c1.055 0 4.502-1.05 6.597-2.294 2.095-1.243 4.056-3.052 4.234-3.489.179-.436-.148-.913-.787-.969-1.114-.097-2.184.566-3.343 1.486-1.16.92-2.095 1.519-3.24 2.31-1.115.772-2.198 1.535-2.852 1.502-.654-.032-1.144-.387-1.397-.533-.252-.145-.514-.161-.787.016-.297.194-.52.437-.52.437"/>
                    <path fill="#E9EEFB" d="M40.054 6.003c.353.13 1.563-.732 2.444-1.324a1.215 1.215 0 0 0-.32-.07c-.774-.069-1.528.228-2.304.725-.012.262-.058.583.18.67M32.083 10.713c-.27.111-.455.138-.682.046-.437-.178-.622-.416-.652-.555-.03-.138 0-.262.273-.262.272 0 1.288.185 1.485.2.197.016.35.143.197.247-.227.154-.34.208-.621.324M36.407 8.279s-3.246-1.813-5.182-3.983c0 0-.332-.424.357-.582.686-.158 2.48-.26 4.17.842.631.41 1.188.833 1.668 1.165.76.526 1.162.802 1.31.907 0 0 .06.087-.044.202-.228.252-.867.82-2.04 1.425-.076.038-.164.08-.239.024"/>
                    <path fill="#24478D" d="M68.872 18.171l3.18-2.013.045.247-3.244 1.934z"/>
                    <path fill="#24478D" d="M68.752 17.87l3.2-1.712.043.238-3.2 1.616z"/>
                    <path fill="#3F3848" d="M71.286 17.495l-2.737.626.156-.25 2.58-.622z"/>
                    <path fill="#EE854F" d="M68.448 18.227l2.838 1.312-.13-.385-2.562-1.142z"/>
                    <path fill="#EE854F" d="M68.549 18.198l2.23.578-.038-.291-2.075-.473z"/>
                    <path fill="#2B2B51" d="M64.305 30.164l.166-1.757a.036.036 0 0 1 .072.001l.135 2.176c.04.658.033 1.299.265 1.907l.362.57-.505-.51-.386-1.277a2.9 2.9 0 0 1-.11-1.11M67.822 28.69s3.487 3.247 4.887 7.96c0 0 .238-.16.42-.28.183-.12.37-.277.37-.277s-.872-2.256-2.123-3.844c-1.252-1.587-3.554-3.56-3.554-3.56M60.095 34.366s.772 1.023 2.228 2.84c1.456 1.818 2.568 2.8 2.568 2.8s-.396.097-.64.141c-.245.044-.635.093-.635.093s-.748-1.083-1.693-2.597c-.945-1.515-1.89-3.225-1.89-3.225-.027-.045.03-.092.062-.052"/>
                    <path fill="#42426C" d="M65.297 34.906s.73 2.602 1.926 3.71l-1.491 1.197-.435-4.907z"/>
                    <path fill="#E9EEFB" d="M49.577 19.167c-.022.079-.098.045-.083-.037.166-.934.515-2.487.582-2.87.044-.25.237-.554.37-.641.037-.024.071.03.056.085l-.925 3.463z"/>
                </g>
                <g transform="translate(51.032 6.343)">
                    <mask id="q" fill="#fff">
                        <use xlink:href="#o"/>
                    </mask>
                    <path fill="url(#p)" d="M0 1.962C.791 3.205 1.919 4.184 3.242 4.75a5.738 5.738 0 0 0 .68-1.899C4.21 1.176 4.276.316 2.472.048A4.05 4.05 0 0 0 1.88 0C.758 0 .257.622 0 1.962" mask="url(#q)"/>
                </g>
                <path fill="#303030" d="M51.581 7.054s-.137.872-.249 1.18c-.069.189-.323.478-.323.478l-.087-.688.66-.97z"/>
            </g>
            <g mask="url(#c)">
                <g fill="#FFF" fill-rule="nonzero">
                    <path d="M11.742 5.352c.027.01.256.106.202.047a.707.707 0 0 0-.2-.154c-3.819-2.016-6.812 2.774-3.897 4.95.11.083.188.141.213.143.036.002.685.431.209-.262-1.808-2.623.338-6.129 3.473-4.724M13.124 7.4v-.001a2.919 2.919 0 0 0-.346-1.128c-1.245-1.396-6.034.042-4.396 3.65.05.11.117.173.15.152.033-.02.183-.033.166-.14-.435-2.824 3.36-3.498 4.426-2.533m-3.84 2.9c.025.077.024.108.05.12.012.004.36.099.369.02.11-.854 2.67-1.738 2.842-1.006.228-.31.465-.62.557-1.004.003-.053.022-.07.022-.07-.228-.668-4.487-.002-3.84 1.94" opacity=".4"/>
                    <path d="M8.42 5.117c.094-.08.185-.154.15-.16-.025-.003-.117.037-.243.103-2.352 1.24-1.798 5.094 1.266 5.79v.002a3.44 3.44 0 0 0 1.322-.152 3.77 3.77 0 0 0 .842-.402c-2.672.771-5.751-3.052-3.336-5.181m.373.414c.022-.106.036-.15.007-.174-.029-.025-.093.038-.172.134-1.537 1.915 1.82 4.824 4.006 4.07.236-.326.403-.691.49-1.074-1.2.836-4.709-1.125-4.33-2.956m3.977.911c-.257.719-2.643-.518-3.005-1.2-.037-.075-.07-.092-.083-.087-.026.007-.045.035-.062.115-.222 1.01 2.152 2.838 3.502 2.368a2.958 2.958 0 0 0-.352-1.196"/>
                </g>
                <text font-family="OpenSans-Bold, Open Sans" font-size="2.703" font-weight="bold" transform="translate(6.634 4.626)">
                    <tspan x="9.502" y="4.933" fill="#FFF">БКС Банк</tspan>
                </text>
            </g>
        </g>
        <path fill="#DFDFDA" d="M33.464 31.793c0 .113.093.257.259.257a.261.261 0 0 0 .259-.257h1.523v.71c0 .227.01.222-.16.371l-.715.613c-.13.113-.135.129-.135.299v1.24c0 .165.072.258.259.258.186 0 .259-.093.259-.257v-1c0-.18.01-.19.145-.308l.726-.623c.145-.124.14-.145.14-.325v-1.493h-2.301a.262.262 0 0 0-.26.257v.258zm3.217 8.636h1.044v-2.041h-1.044v2.041zm1.4-2.041a.356.356 0 0 0-.356-.353h-1.044a.356.356 0 0 0-.356.353v2.041c0 .198.153.354.356.354h1.044a.349.349 0 0 0 .356-.354v-2.041zm.728 7.716l-1.094-2.515h-.594v2.789h.318v-2.515h.078l1.11 2.515h.582v-2.789h-.314v2.515h-.086zm.43-5.675h1.045v-2.041h-1.045v2.041zm1.4-2.041a.355.355 0 0 0-.355-.353h-1.045a.356.356 0 0 0-.355.353v2.041c0 .198.153.354.355.354h1.045a.349.349 0 0 0 .355-.354v-2.041zm-8.3 6.648v-1.173h.739c.4 0 .586.19.586.573 0 .35-.153.6-.582.6h-.743zm.739-1.447h-1.056v2.789h.317V45.31h.809l.516 1.068h.35l-.548-1.132c.359-.113.524-.4.524-.81 0-.588-.314-.847-.912-.847zM26.9 46.104v-2.24h.702c.594 0 .73.475.73 1.08 0 .604-.136 1.16-.73 1.16H26.9zm-.317-2.515v2.789h1.019c.841 0 1.056-.637 1.056-1.435 0-.79-.227-1.354-1.056-1.354h-1.02zm4.645 2.789v-.274H29.81v-1.007h1.172v-.27H29.81v-.964h1.42v-.274h-1.738v2.789h1.737zm9.7-2.522h.215l.433 1.527h-1.08l.432-1.527zm-1.023 2.522h.314l.206-.717h1.221l.206.717h.314l-.784-2.789h-.693l-.784 2.789zm-9.655-11.609h1.523v-.793h-1.523v.793zm2.042-.963c0-.237-.052-.345-.311-.345h-1.73v-1.668c.15 0 .258-.103.258-.258 0-.134-.109-.257-.243-.257h-.311c-.182 0-.223.139-.223.257v3.425c0 .237.093.324.337.324h1.886c.233 0 .337-.082.337-.324v-1.154zm35.265.963h1.524v-.793h-1.524v.793zm0-1.308v-1.668c.15 0 .26-.103.26-.258 0-.134-.11-.257-.244-.257h-.31c-.182 0-.224.139-.224.257v3.425c0 .237.094.324.337.324h1.886c.233 0 .337-.082.337-.324v-1.154c0-.237-.052-.345-.311-.345h-1.73zm-9.41-1.488c0-.129-.061-.258-.258-.258s-.26.129-.26.258v1.488h-1.005v-1.926c0-.129-.062-.257-.259-.257s-.259.128-.259.257v2.441h1.524v1.05c0 .165.072.258.259.258.186 0 .259-.093.259-.257v-1.05c.134 0 .259-.073.259-.258 0-.186-.125-.258-.26-.258v-1.488zm-14.71 11.616h-.573v2.789h.317V43.92h.058l.83 2.357h.354l.83-2.357h.057v2.458h.318v-2.789h-.574l-.808 2.358-.809-2.358zm-15-8.48c.108-.129.124-.242.124-.402v-1.102c0-.18-.016-.304-.16-.437-.125-.119-.25-.145-.415-.145h-.954v-1.23h1.27c.134 0 .259-.073.259-.258s-.125-.257-.26-.257h-1.787v2.26h1.529v1.231h-1.197c-.083 0-.202-.072-.275-.103l-.155-.067a.375.375 0 0 0-.166-.04c-.135 0-.249.123-.249.257 0 .18.156.226.296.288l.196.087c.13.057.208.093.342.093h1.15c.187 0 .322-.02.451-.175zm42.333-3.316c0 .113.093.257.26.257.165 0 .258-.144.258-.257h1.523v.71c0 .227.01.222-.16.371l-.715.613c-.13.113-.135.129-.135.299v1.24c0 .165.073.258.26.258.186 0 .258-.093.258-.257v-1c0-.18.01-.19.145-.308l.726-.623c.145-.124.14-.145.14-.325v-1.493h-2.3a.262.262 0 0 0-.26.257v.258zm-4.902-.258c0-.185-.124-.257-.259-.257h-1.787v2.26h1.528v1.231h-1.197c-.083 0-.202-.072-.274-.103l-.156-.067a.375.375 0 0 0-.166-.04c-.134 0-.248.123-.248.257 0 .18.155.226.295.288l.197.087c.13.057.207.093.342.093h1.15c.187 0 .321-.02.45-.175.11-.129.125-.242.125-.402v-1.102c0-.18-.015-.304-.16-.437-.125-.119-.25-.145-.415-.145h-.953v-1.23h1.27c.134 0 .258-.073.258-.258zM44.356 40.43h1.045v-2.041h-1.045v2.041zm0-2.394a.355.355 0 0 0-.355.353v2.041c0 .198.152.354.355.354h1.045a.349.349 0 0 0 .355-.354v-2.041a.355.355 0 0 0-.355-.353h-1.045zm2.558 2.394h1.045v-2.041h-1.045v2.041zm1.045.354a.349.349 0 0 0 .355-.354v-2.041a.355.355 0 0 0-.355-.353h-1.045a.356.356 0 0 0-.355.353v2.041c0 .198.153.354.355.354h1.045zm.356 5.595v-.274h-1.42v-1.007h1.172v-.27h-1.171v-.964h1.419v-.274h-1.737v2.789h1.737zm4.061-15.1c-.135 0-.259.072-.259.257s.124.258.26.258h1.782v.854c0 .289-.114.376-.26.376h-1.015c-.135 0-.259.073-.259.258s.124.257.26.257H53.9c.145 0 .259.088.259.376v.855h-1.783c-.135 0-.259.072-.259.258 0 .185.124.257.26.257h1.782a.505.505 0 0 0 .518-.515v-.989c0-.206-.041-.355-.202-.5.16-.143.202-.293.202-.499v-.988a.506.506 0 0 0-.518-.515h-1.783zm-3.73 0c-.135 0-.26.072-.26.257s.125.258.26.258h1.782v1.23h-1.456c-.389 0-.585.196-.585.582v1.68h2.3c.135 0 .26-.073.26-.258 0-.186-.125-.258-.26-.258h-1.782v-1.23h1.46c.172 0 .291-.026.42-.145.146-.134.161-.273.161-.458V31.88c0-.185-.015-.324-.16-.458-.13-.119-.249-.144-.42-.144h-1.72zm26.374 3.491h1.523v-1.23H75.02v1.23zm.518-1.746h.487v-1.23h-.487v1.23zm1.005 0v-1.488c0-.134-.083-.257-.259-.257H75.28c-.176 0-.26.123-.26.257v1.488a.535.535 0 0 0-.377.145.496.496 0 0 0-.14.376v1.225c0 .314.197.515.518.515h1.523c.321 0 .518-.2.518-.515v-1.225a.495.495 0 0 0-.14-.376.534.534 0 0 0-.378-.145zM24.36 43.59v2.789h1.572V46.1h-1.254v-2.51h-.318zm-11.384 1.447v-1.173h.739c.4 0 .586.19.586.573 0 .35-.153.6-.582.6h-.743zm.739-1.447h-1.056v2.789h.317V45.31h.809l.516 1.068h.35l-.548-1.132c.359-.113.524-.4.524-.81 0-.588-.314-.847-.912-.847zm3.655-9.809c0-.206-.042-.355-.202-.5.16-.143.202-.293.202-.499v-.988a.506.506 0 0 0-.518-.515h-1.783c-.135 0-.259.072-.259.257s.124.258.26.258h1.782v.854c0 .289-.114.376-.26.376h-1.015c-.135 0-.26.073-.26.258s.125.257.26.257h1.016c.145 0 .259.088.259.376v.855h-1.783c-.135 0-.259.072-.259.258 0 .185.124.257.26.257h1.782a.505.505 0 0 0 .518-.515v-.989zm20.343.99h1.523v-1.232h-1.523v1.231zm.518-1.747h.487v-1.23h-.487v1.23zm1.005 2.261c.321 0 .518-.2.518-.515v-1.225a.495.495 0 0 0-.14-.376.534.534 0 0 0-.378-.145v-1.488c0-.134-.083-.257-.26-.257h-1.004c-.177 0-.26.123-.26.257v1.488a.534.534 0 0 0-.378.145c-.093.087-.14.216-.14.376v1.225c0 .314.197.515.519.515h1.523zM9.172 43.9l.013-.262a4.268 4.268 0 0 0-.788-.089c-.859 0-1.044.5-1.044 1.443 0 .919.19 1.426 1.044 1.426.272 0 .585-.044.788-.084l-.013-.266a4.618 4.618 0 0 1-.734.072c-.652 0-.755-.37-.755-1.148 0-.794.111-1.165.747-1.165.222 0 .557.04.742.073zm4.208-9.13h-1.783v-1.232h1.462c.17 0 .29-.025.42-.144.144-.134.16-.273.16-.458V31.88c0-.185-.016-.324-.16-.458-.13-.119-.25-.144-.42-.144h-1.72c-.135 0-.26.072-.26.257s.125.258.26.258h1.782v1.23h-1.456c-.389 0-.586.196-.586.582v1.68h2.301c.135 0 .259-.073.259-.258 0-.186-.124-.258-.259-.258zm28.414 5.889l1.364-2.32a.273.273 0 0 0 .04-.138c0-.092-.082-.166-.174-.166-.09 0-.132.063-.174.134l-1.33 2.264c-.035.056-.078.116-.078.183 0 .092.09.167.178.167.089 0 .131-.05.174-.124zm-31.07 3.197h.214l.433 1.527h-1.08l.433-1.527zM9.7 46.378h.314l.206-.717h1.222l.206.717h.313l-.783-2.789h-.694L9.7 46.378zm11.141-14.405c0-.129-.062-.258-.259-.258s-.259.129-.259.258v1.488h-1.005v-1.926c0-.129-.062-.257-.26-.257-.196 0-.258.128-.258.257v2.441h1.523v1.05c0 .165.073.258.26.258.186 0 .258-.093.258-.257v-1.05c.135 0 .26-.073.26-.258 0-.186-.125-.258-.26-.258v-1.488zm23.815 3.054c0 .185.124.257.259.257h2.041c.135 0 .26-.072.26-.257v-1.298c0-.15-.068-.258-.26-.258-.191 0-.259.108-.259.258v1.04h-.502v-3.491h-1.28c-.135 0-.26.072-.26.257s.125.258.26.258h.762v2.976h-.762c-.135 0-.26.072-.26.258zM9.908 33.729c0-.15-.067-.258-.259-.258s-.259.108-.259.258v1.04h-.503v-3.491h-1.28c-.134 0-.258.072-.258.257s.124.258.259.258h.761v2.976h-.761c-.135 0-.26.072-.26.258 0 .185.125.257.26.257h2.041c.135 0 .26-.072.26-.257v-1.298zM21.6 44.996c0-.758.144-1.173.8-1.173.652 0 .8.42.8 1.173 0 .786-.136 1.148-.8 1.148-.66 0-.8-.387-.8-1.148zm-.326 0c0 .935.239 1.422 1.126 1.422.887 0 1.13-.463 1.13-1.422 0-.927-.247-1.447-1.13-1.447-.883 0-1.126.528-1.126 1.447zm-2.6-.157v-1.25h-.317v2.789h.317v-1.261h1.453v1.261h.313v-2.789h-.313v1.25h-1.453zm-2.909 1.265v-2.24h.702c.594 0 .73.475.73 1.08 0 .604-.136 1.16-.73 1.16h-.702zm-.317-2.515v2.789h1.019c.841 0 1.056-.637 1.056-1.435 0-.79-.227-1.354-1.056-1.354h-1.02z"/>
        <path fill="#C7C6C1" d="M22.08 46.817c-1.065 0-1.212-.738-1.212-1.536 0-.77.144-1.56 1.212-1.56 1.072 0 1.217.79 1.217 1.56 0 .922-.207 1.536-1.217 1.536zm.057-3.063c-.88 0-1.123.537-1.123 1.47 0 .95.238 1.446 1.123 1.446s1.128-.471 1.128-1.446c0-.941-.247-1.47-1.128-1.47zM8.113 46.817c-.938 0-1.077-.67-1.077-1.593 0-.96.136-1.502 1.077-1.502.307 0 .635.057.803.091l.075.016-.02.445-.1-.018a4.997 4.997 0 0 0-.725-.072c-.515 0-.657.235-.657 1.094 0 .794.101 1.077.665 1.077.226 0 .53-.038.716-.073l.1-.018.02.45-.074.015c-.209.043-.53.088-.803.088zm.056-3.063c-.856 0-1.041.508-1.041 1.466 0 .934.19 1.45 1.041 1.45.272 0 .584-.045.786-.086l-.012-.27a4.523 4.523 0 0 1-.733.073c-.65 0-.753-.376-.753-1.167 0-.806.112-1.183.745-1.183.222 0 .556.04.74.074l.013-.267a4.181 4.181 0 0 0-.786-.09zm39.85 3.022h-1.91v-3.014h1.91v.459h-1.417v.799h1.17v.454h-1.17v.844h1.416v.458zm-1.766-2.98v2.833h1.733v-.278H46.57v-1.024h1.169v-.275H46.57v-.978h1.416v-.279h-1.733zm-.914 2.98h-.494V44.55l-.733 2.124h-.48l-.734-2.124v2.226h-.494v-3.014h.724l.744 2.208.743-2.208h.724v3.014zm-.407-2.645h.058v2.498h.317v-2.834h-.573l-.806 2.396-.806-2.396h-.573v2.834h.317v-2.498h.058l.827 2.396h.354l.827-2.396zm-3.018 2.645h-.496l-.206-.73h-1.084l-.206.73h-.497l.832-3.014h.826l.831 3.014zm-1.797-.876h1.218l.206.729h.313l-.782-2.834h-.691l-.782 2.834h.312l.206-.73zm-1.182.876h-.727l-1.038-2.398v2.398h-.495v-3.014h.74l1.03 2.414v-2.414h.49v3.014zm-1.797-2.702h.078l1.107 2.555h.58v-2.834h-.313v2.556h-.086l-1.09-2.556h-.593v2.834h.317v-2.555zm-3.332 2.702h-.546l-.515-1.085h-.662v1.085h-.494v-3.014h1.142c.663 0 .998.32.998.95 0 .432-.168.73-.489.873l.566 1.191zm-1.755-1.232h.807l.514 1.085h.35l-.548-1.15c.359-.115.523-.406.523-.824 0-.598-.313-.86-.91-.86h-1.053v2.834h.317v-1.085zm-1.075 1.232h-1.91v-3.014h1.91v.459H29.56v.799h1.17v.454h-1.17v.844h1.416v.458zm-1.765-2.98v2.833h1.733v-.278h-1.416v-1.024h1.169v-.275h-1.169v-.978h1.416v-.279h-1.733zm-1.94 2.98h-1.106v-3.014h1.105c1.024 0 1.142.837 1.142 1.466 0 .383 0 1.548-1.142 1.548zm-.961-2.98v2.833h1.017c.839 0 1.053-.647 1.053-1.458 0-.802-.226-1.376-1.053-1.376H26.31zm-.618 2.98h-1.745v-3.014h.494v2.552h1.251v.462zm-1.6-2.98v2.833h1.568v-.283h-1.251v-2.55h-.317zm-3.878 2.98h-.49v-1.282h-1.271v1.282h-.494v-3.014h.494v1.27h1.271v-1.27h.49v3.014zm-1.793-1.429h1.448v1.282h.313v-2.834h-.313v1.27h-1.448v-1.27h-.317v2.834h.317v-1.282zm-2.258 1.429h-1.105v-3.014h1.105c1.023 0 1.142.837 1.142 1.466 0 .383 0 1.548-1.142 1.548zm-.96-2.98v2.833h1.016c.84 0 1.054-.647 1.054-1.458 0-.802-.227-1.376-1.054-1.376h-1.017zm-.71 2.98h-.547l-.514-1.085h-.662v1.085h-.495v-3.014h1.143c.662 0 .998.32.998.95 0 .432-.169.731-.49.873l.567 1.191zm-1.756-1.232h.807l.514 1.085h.35l-.547-1.15c.358-.115.523-.406.523-.824 0-.598-.313-.86-.91-.86h-1.053v2.834h.316v-1.085zm-.952 1.232h-.496l-.206-.73H10l-.206.73h-.496l.831-3.014h.826l.831 3.014zM9.988 45.9h1.219l.205.729h.313l-.782-2.834h-.691L9.47 46.63h.313l.205-.73zm12.149.491c-.659 0-.798-.393-.798-1.167 0-.77.143-1.191.798-1.191.65 0 .798.426.798 1.191 0 .799-.135 1.167-.798 1.167zm-.057-2.211c-.53 0-.71.278-.71 1.101 0 .826.167 1.078.71 1.078.551 0 .71-.242.71-1.078 0-.823-.179-1.101-.71-1.101zm5.247 2.17h-.7v-2.276h.7c.592 0 .728.483.728 1.097s-.136 1.18-.728 1.18zm-.668-2.13v2.098h.611c.437 0 .64-.347.64-1.09 0-.706-.191-1.007-.64-1.007h-.611zm-10.44 2.13h-.7v-2.276h.7c.593 0 .729.483.729 1.097s-.136 1.18-.73 1.18zm-.667-2.13v2.098h.61c.437 0 .64-.347.64-1.09 0-.706-.19-1.007-.64-1.007h-.61zm25.713 1.397h-1.078l.432-1.552h.214l.432 1.552zm-.635-1.405l-.382 1.373h.844l-.382-1.373h-.08zm-29.494 1.405h-1.078l.432-1.552h.214l.432 1.552zm-.635-1.405l-.382 1.373h.844l-.382-1.373h-.08zm22.29 1.053h-.74v-1.191h.737c.399 0 .584.192.584.581 0 .356-.152.61-.58.61zm-.708-1.044v1.012h.652c.336 0 .492-.166.492-.52 0-.345-.148-.492-.496-.492h-.648zm-18.605 1.044h-.74v-1.191h.736c.4 0 .584.192.584.581 0 .356-.152.61-.58.61zm-.708-1.044v1.012h.652c.335 0 .491-.166.491-.52 0-.345-.148-.492-.495-.492h-.648zm34.778-3.104h-1.043a.441.441 0 0 1-.443-.449v-2.075c0-.247.199-.448.443-.448h1.043c.022 0 .044.002.066.005h-1.025a.358.358 0 0 0-.355.359v2.074c0 .021.002.042.005.062v.023c0 .154.115.27.266.27h.023c.02.003.04.004.061.004h1.042a.351.351 0 0 0 .355-.359v-2.057a.47.47 0 0 1 .004.067v2.075a.441.441 0 0 1-.442.449zm-2.552 0h-1.043a.441.441 0 0 1-.443-.449v-2.075c0-.247.199-.448.443-.448h1.043c.022 0 .044.002.066.005h-1.025a.358.358 0 0 0-.354.359v2.074c0 .021.001.042.005.062v.023c0 .154.114.27.265.27h.023c.02.003.04.004.061.004h1.042a.351.351 0 0 0 .355-.359v-2.057a.47.47 0 0 1 .004.067v2.075a.441.441 0 0 1-.442.449zm-3.772 0a.27.27 0 0 1-.266-.259c0-.088.046-.16.082-.218l.01-.016 1.324-2.298c.04-.068.107-.181.25-.181.02 0 .04.002.059.007-.072.01-.11.07-.148.134l-1.326 2.301c-.036.057-.078.118-.078.187 0 .019.004.037.01.054a.1.1 0 0 0-.005.03c0 .043.048.08.088.08.011 0 .021-.001.03-.005a.172.172 0 0 0 .054.01c.089 0 .131-.051.174-.126l1.36-2.358a.296.296 0 0 0 .038-.111.247.247 0 0 1 .007.056c0 .08-.027.14-.05.182l-1.362 2.36c-.031.055-.096.17-.25.17zm-1.332 0H38.85a.441.441 0 0 1-.444-.449v-2.075c0-.247.2-.448.444-.448h1.042c.022 0 .044.002.066.005h-1.025a.358.358 0 0 0-.354.359v2.074c0 .021.001.042.005.062v.023c0 .154.114.27.266.27h.022c.02.003.04.004.061.004h1.042a.351.351 0 0 0 .355-.359v-2.057a.45.45 0 0 1 .005.067v2.075a.441.441 0 0 1-.443.449zm-2.552 0h-1.042a.441.441 0 0 1-.443-.449v-2.075c0-.247.198-.448.443-.448h1.042c.022 0 .044.002.066.005H36.38a.358.358 0 0 0-.354.359v2.074a.38.38 0 0 0 .005.063v.022c0 .154.114.27.266.27h.022c.02.003.04.004.061.004h1.042a.351.351 0 0 0 .355-.359v-2.057a.47.47 0 0 1 .005.067v2.075a.441.441 0 0 1-.443.449zm9.25-.534h1.041V38.51h-1.042v2.074zm.004-.005h.865v-1.895h-.865v1.895zm-2.557.005h1.042V38.51h-1.042v2.074zm.005-.005h.865v-1.895h-.865v1.895zm-5.109.005h1.042V38.51h-1.042v2.074zm.005-.005h.865v-1.895h-.865v1.895zm-2.557.005h1.042V38.51h-1.042v2.074zm.005-.005h.865v-1.895h-.865v1.895zM76.06 35.53h-1.52c-.367 0-.605-.24-.605-.613V33.67a.6.6 0 0 1 .167-.447.6.6 0 0 1 .35-.166V31.63c0-.207.142-.351.347-.351H75.8c.023 0 .044.001.065.005h-.984c-.175 0-.258.125-.258.261v1.513a.528.528 0 0 0-.377.147c-.093.088-.14.22-.14.382v1.245c0 .03.002.058.005.085 0 .271.16.433.428.434a.716.716 0 0 0 .084.004h1.52c.32 0 .516-.204.516-.523v-1.245-.008a.88.88 0 0 1 .005.092v1.246c0 .372-.237.613-.605.613zm-4.471 0c-.224 0-.347-.125-.347-.351v-1.262c0-.201.017-.24.165-.37l.714-.624c.13-.116.13-.116.13-.272l-.001-.67h-1.355a.351.351 0 0 1-.334.262.354.354 0 0 1-.348-.351v-.262c0-.17.14-.351.348-.351h2.383v1.625c0 .188-.006.237-.17.38l-.724.633c-.114.102-.114.102-.114.246v1.016c0 .226-.123.351-.347.351zm.014-.18a.443.443 0 0 0 .07.005c.186 0 .258-.094.258-.261v-1.015c0-.184.01-.194.145-.314l.723-.634c.145-.125.14-.146.14-.33v-1.517h-2.295c-.165 0-.258.146-.258.261v.262c0 .015.001.031.005.048v.037c0 .06.05.172.17.172a.18.18 0 0 0 .024-.002.251.251 0 0 0 .06.007c.165 0 .258-.147.258-.262h1.52v.722c0 .23.01.225-.16.377l-.714.623c-.13.115-.135.13-.135.303v1.262c0 .025.002.048.005.07v.015c0 .128.043.172.17.172h.014zm-2.805.18h-1.881c-.294 0-.425-.13-.425-.42v-3.48c0-.22.116-.351.311-.351h.31c.019 0 .037.001.055.005h-.281c-.18 0-.222.14-.222.261v3.48c0 .033.001.062.005.088 0 .186.05.236.24.238a.735.735 0 0 0 .09.004h1.882c.233 0 .336-.083.336-.33v-1.171-.03c.003.036.005.074.005.114v1.173c0 .286-.135.42-.425.42zm-3.959 0h-1.147a.797.797 0 0 1-.364-.096l-.21-.095-.04-.018c-.13-.056-.307-.133-.307-.357 0-.187.157-.351.337-.351.024 0 .047.001.069.005-.128.009-.234.13-.234.261 0 .023.003.043.007.062a.173.173 0 0 0-.002.023c0 .096.058.13.2.192l.042.02.21.094c.116.052.18.08.292.08h.003a.625.625 0 0 0 .08.005h1.148c.186 0 .32-.02.45-.177.108-.131.124-.246.124-.409v-1.12-.06c.004.047.005.095.005.145v1.12c0 .189-.023.32-.145.466-.16.194-.336.21-.518.21zm-7.385 0c-.224 0-.347-.125-.347-.351V34.2h-1.52v-2.57c0-.218.133-.352.347-.352.025 0 .048.001.07.005-.186.006-.245.134-.245.261v2.481h1.52v1.068c0 .025.002.048.005.07v.015c0 .128.043.172.17.172h.014a.44.44 0 0 0 .07.004c.185 0 .258-.094.258-.261v-1.068c.13 0 .251-.07.258-.247a.468.468 0 0 1 .005.07c0 .182-.099.309-.258.343v.987c0 .226-.124.351-.347.351zm-3.722 0h-1.778c-.21 0-.347-.138-.347-.351 0-.214.137-.352.347-.352h1.69v-.779c0-.292-.12-.292-.17-.292H52.46c-.211 0-.347-.138-.347-.352 0-.213.136-.351.347-.351h1.013c.05 0 .17 0 .17-.292v-.78h-1.69c-.21 0-.347-.137-.347-.35 0-.214.137-.352.347-.352h1.778c.028 0 .055.001.082.005h-1.776c-.134 0-.258.073-.258.261a.37.37 0 0 0 .005.065.29.29 0 0 0 0 .02c0 .114.057.172.17.172h.024c.02.003.04.005.06.005h1.777v.869c0 .293-.114.382-.258.382h-1.013c-.135 0-.259.073-.259.262 0 .023.002.045.006.065v.02c0 .113.056.171.169.171h.025c.019.004.039.005.059.005h.991c.114.019.252.098.28.364v.888h-1.778c-.134 0-.258.072-.258.261 0 .023.002.045.005.065v.02c0 .114.057.172.17.172h.024c.02.003.04.004.06.004h1.777a.509.509 0 0 0 .517-.523v-1.005-.039c.004.042.005.083.005.124v1.005c0 .35-.26.613-.606.613zm-3.462 0h-2.384v-1.796c0-.44.239-.681.673-.681h1.363V31.98h-1.689c-.21 0-.347-.137-.347-.35 0-.214.136-.352.347-.352h1.716c.042 0 .081.001.12.005h-1.752c-.135 0-.258.073-.258.261 0 .024.001.045.005.065v.02c0 .114.056.172.17.172h.024a.354.354 0 0 0 .059.005h1.778v1.251H48.64c-.387 0-.583.199-.583.591v1.706h2.294c.13 0 .252-.069.258-.246a.463.463 0 0 1 .006.07c0 .213-.137.351-.347.351zm-3.722 0h-2.036c-.21 0-.347-.138-.347-.351 0-.214.136-.352.347-.352h.671V31.98h-.671c-.21 0-.347-.137-.347-.35 0-.214.136-.352.347-.352h1.365v3.548h.324v-.967c0-.224.127-.352.347-.352.026 0 .05.002.073.005-.183.005-.247.113-.247.262v1.057h-.502v-3.548h-1.276c-.135 0-.259.073-.259.261 0 .024.002.046.006.066a.28.28 0 0 0 0 .02c0 .113.056.171.169.171h.025c.019.003.039.005.059.005h.76v3.025h-.76c-.135 0-.259.073-.259.262 0 .024.002.046.006.066a.27.27 0 0 0 0 .019c0 .114.056.172.169.172h.025c.019.003.039.004.059.004h2.036c.134 0 .259-.073.259-.261v-1.307a.536.536 0 0 1 .004.073v1.319c0 .213-.136.351-.347.351zm-7.7 0h-1.52c-.368 0-.606-.24-.606-.613V33.67a.6.6 0 0 1 .168-.447.601.601 0 0 1 .35-.166V31.63c0-.207.142-.351.346-.351h1.003c.022 0 .044.001.064.005h-.983c-.176 0-.258.125-.258.261v1.513a.527.527 0 0 0-.378.147c-.093.088-.14.22-.14.382v1.245c0 .03.002.058.006.085 0 .271.16.433.427.434a.716.716 0 0 0 .085.004h1.52c.32 0 .516-.204.516-.523v-1.245-.01c.003.03.005.062.005.094v1.246c0 .372-.238.613-.606.613zm-4.471 0c-.224 0-.347-.125-.347-.351v-1.262c0-.201.016-.24.164-.37l.714-.624c.13-.116.13-.116.13-.272v-.67h-1.355a.351.351 0 0 1-.335.262.354.354 0 0 1-.347-.351v-.262c0-.17.14-.351.347-.351h2.384v1.625c0 .188-.006.237-.17.38l-.724.633c-.114.102-.114.102-.114.246v1.016c0 .226-.123.351-.347.351zm.014-.18a.441.441 0 0 0 .07.005c.186 0 .258-.094.258-.261v-1.015c0-.184.01-.194.145-.314l.723-.634c.145-.125.14-.146.14-.33v-1.517H33.43c-.165 0-.258.146-.258.261v.262c0 .015.001.031.004.047v.038c0 .06.05.172.17.172a.18.18 0 0 0 .025-.002.251.251 0 0 0 .059.007c.165 0 .258-.147.258-.262h1.52v.722c0 .23.01.225-.16.377l-.714.623c-.129.115-.134.13-.134.303v1.262c0 .025.002.048.005.07v.015c0 .128.043.172.17.172h.014zm-2.805.18h-1.882c-.293 0-.424-.13-.424-.42v-3.48c0-.22.116-.351.31-.351h.311c.018 0 .037.001.054.005h-.28c-.181 0-.223.14-.223.261v3.48c0 .033.002.061.005.088 0 .186.05.236.24.238a.738.738 0 0 0 .091.004h1.882c.232 0 .335-.083.335-.33v-1.171-.029c.004.035.005.073.005.113v1.173c0 .286-.134.42-.424.42zm-3.959 0h-1.148c-.148 0-.239-.04-.364-.096l-.21-.095-.04-.018c-.13-.056-.306-.133-.306-.357 0-.187.157-.351.336-.351.025 0 .048.001.07.005-.129.009-.234.13-.234.261 0 .023.002.043.007.062a.173.173 0 0 0-.002.023c0 .096.058.13.2.192l.042.02.209.094c.117.052.181.08.292.08h.004a.627.627 0 0 0 .08.005h1.147c.186 0 .32-.02.45-.177.109-.131.124-.246.124-.409v-1.12-.06c.004.047.005.095.005.145v1.12c0 .19-.023.32-.145.466-.16.194-.335.21-.517.21zm-7.386 0c-.224 0-.347-.125-.347-.351V34.2h-1.52v-2.57c0-.218.134-.352.348-.352.024 0 .048.001.07.005-.186.006-.245.133-.245.261v2.481h1.52v1.068a.46.46 0 0 0 .004.07v.015c0 .128.043.172.17.172h.014a.441.441 0 0 0 .07.004c.186 0 .258-.094.258-.261v-1.068c.131 0 .252-.07.259-.247a.469.469 0 0 1 .005.07c0 .182-.1.309-.259.343v.987c0 .226-.123.351-.347.351zm-3.72 0H14.74c-.21 0-.347-.138-.347-.351 0-.214.136-.352.347-.352h1.69v-.779c0-.292-.12-.292-.17-.292h-1.013c-.211 0-.347-.138-.347-.352 0-.213.136-.351.347-.351h1.013c.05 0 .17 0 .17-.292v-.78h-1.69c-.21 0-.347-.137-.347-.35 0-.214.136-.352.347-.352h1.778a.64.64 0 0 1 .082.005h-1.776c-.135 0-.259.073-.259.261 0 .024.002.045.006.065v.02c0 .114.056.172.17.172h.024c.019.003.039.005.059.005h1.778v.869c0 .293-.114.382-.259.382h-1.013c-.134 0-.258.073-.258.262 0 .023.002.045.005.065v.02c0 .113.057.171.17.171h.024c.02.004.04.005.06.005h.991c.113.019.251.098.28.363v.888h-1.778c-.135 0-.259.073-.259.262 0 .023.002.045.006.065a.3.3 0 0 0 0 .02c0 .114.056.172.17.172h.024c.019.003.039.004.059.004h1.778a.509.509 0 0 0 .517-.523v-1.005l-.001-.04c.004.043.005.084.005.125v1.005c0 .35-.26.613-.605.613zm-3.464 0h-2.383v-1.796c0-.44.239-.681.672-.681h1.364V31.98h-1.69c-.21 0-.346-.137-.346-.35 0-.214.136-.352.347-.352h1.716c.041 0 .081.001.119.005h-1.752c-.134 0-.258.073-.258.261 0 .024.002.045.006.065v.02c0 .114.056.172.169.172h.025c.019.003.039.005.058.005h1.779v1.251h-1.453c-.388 0-.584.199-.584.591v1.706h2.295c.13 0 .252-.069.258-.246a.464.464 0 0 1 .005.07c0 .213-.136.351-.347.351zm-3.721 0H7.299c-.211 0-.348-.138-.348-.351 0-.214.137-.352.348-.352h.67V31.98H7.3c-.211 0-.348-.137-.348-.35 0-.214.137-.352.348-.352h1.365v3.548h.324v-.967c0-.224.126-.352.347-.352.025 0 .05.002.073.005-.183.005-.248.113-.248.262v1.057H8.66v-3.548H7.382c-.134 0-.258.073-.258.261a.37.37 0 0 0 .005.065.29.29 0 0 0 0 .02c0 .114.057.172.17.172h.024c.02.003.04.005.06.005h.76v3.025h-.76c-.135 0-.26.073-.26.262 0 .023.003.045.006.065v.02c0 .114.057.172.17.172h.024c.02.003.04.004.06.004h2.036c.134 0 .258-.073.258-.261v-1.308a.518.518 0 0 1 .005.074v1.319c0 .213-.136.351-.347.351zm65.288-.698h1.52v-1.25h-1.52v1.25zm.005-.005h1.342v-1.071h-1.342v1.071zm-7.447.005h1.52v-.806h-1.52v.806zm.005-.005h1.342V34.2h-1.342v.626zm-2.207.005h-1.194a.194.194 0 0 1-.042-.005h1.063v-1.071h-1.524v-2.477h1.871a.43.43 0 0 1 .068.005h-1.767v2.297h1.525v1.251zm-14.643 0h-1.762v-1.25h1.458c.17 0 .29-.027.418-.147.145-.136.16-.277.16-.466v-1.073-.067c.005.05.006.1.006.152v1.073c0 .194-.015.367-.189.531-.152.142-.296.171-.479.171H48.58v1.071h1.69c.023 0 .045.002.067.005zm-12.925 0h1.52v-1.25h-1.52v1.25zm.004-.005h1.343v-1.071h-1.343v1.071zm-7.447.005h1.52v-.806h-1.52v.806zm.005-.005h1.342V34.2h-1.342v.626zm-2.206.005h-1.195a.194.194 0 0 1-.041-.005h1.063v-1.071h-1.525v-2.477h1.872a.43.43 0 0 1 .067.005h-1.766v2.297h1.525v1.251zm-14.644 0h-1.761v-1.25h1.457c.171 0 .29-.027.419-.147.145-.136.16-.277.16-.466v-1.073-.066c.004.049.005.1.005.15v1.074c0 .194-.014.367-.188.531-.153.142-.297.171-.48.171h-1.368v1.071h1.69c.023 0 .045.002.066.005zm55.792-1.33h-1.734v-1.695a.247.247 0 0 0 .257-.24c.004.02.006.041.006.063a.337.337 0 0 1-.258.342v1.526h1.637c.033 0 .064.001.092.005zm-37.213 0h-1.734v-1.695a.247.247 0 0 0 .258-.24c.004.02.006.041.006.063a.337.337 0 0 1-.259.342v1.526h1.638a.76.76 0 0 1 .091.005zm-11.115 0h-.005v-1.497a.503.503 0 0 1 .005.07v1.428zm37.213 0h-.005v-1.497a.497.497 0 0 1 .005.07v1.428zm-.522 0h-1.003V31.56a.464.464 0 0 1 .005.07v1.868h.826v-1.423c0-.217.133-.352.347-.352.024 0 .047.002.07.006-.186.005-.245.133-.245.261v1.513zm-37.213 0h-1.002V31.56a.494.494 0 0 1 .005.07v1.868h.825v-1.423c0-.217.133-.352.347-.352a.46.46 0 0 1 .07.006c-.185.005-.245.133-.245.261v1.513zm-3.087-.12a.712.712 0 0 0-.06-.062c.16-.147.202-.299.202-.508v-1.003a.706.706 0 0 1 .004.083v1.005c0 .158-.02.325-.146.484zm37.212-.001a.71.71 0 0 0-.06-.061c.16-.147.202-.299.202-.508v-1.002a.7.7 0 0 1 .005.082v1.005c0 .158-.02.325-.147.484zm-26.446-.323h-.985v-1.25h1.266c.13 0 .252-.07.258-.248a.469.469 0 0 1 .005.07c0 .214-.136.351-.347.351h-1.177v1.072h.862c.04 0 .08.001.118.005zm37.213 0h-.986v-1.25h1.266c.131 0 .252-.07.258-.248a.466.466 0 0 1 .006.07c0 .214-.137.351-.348.351h-1.177v1.072h.862c.041 0 .08.001.119.005zm-26.022 0h-.005v-1.494a.443.443 0 0 1 .005.066v1.428zm37.212 0h-.004v-1.493c.003.021.004.043.004.065v1.428zm-1.007 0h.486v-1.25h-.486v1.25zm.005-.005h.309V31.98h-.31v1.072zm-37.217.005h.485v-1.25h-.485v1.25zm.004-.005h.309V31.98h-.309v1.072z"/>
        <path fill="#B4B4B0" d="M22.4 46.418c-.887 0-1.126-.487-1.126-1.422 0-.919.243-1.447 1.126-1.447.883 0 1.13.52 1.13 1.447 0 .959-.243 1.422-1.13 1.422zm-.057-2.724c-.746 0-1.037.38-1.037 1.358 0 .985.271 1.334 1.037 1.334.77 0 1.042-.35 1.042-1.334 0-.977-.292-1.358-1.042-1.358zM8.397 46.418c-.855 0-1.044-.507-1.044-1.426 0-.943.185-1.443 1.044-1.443.293 0 .606.053.788.09l-.013.261a5.191 5.191 0 0 0-.742-.073c-.636 0-.747.371-.747 1.165 0 .778.103 1.148.755 1.148.23 0 .536-.036.734-.072l.013.266c-.203.04-.516.084-.788.084zm-.057-2.724c-.723 0-.955.329-.955 1.354 0 1 .241 1.338.955 1.338.23 0 .498-.033.696-.069l-.005-.09c-.195.031-.448.058-.65.058-.782 0-.844-.536-.844-1.237 0-.71.062-1.253.836-1.253.184 0 .455.028.659.058l.004-.087a4.075 4.075 0 0 0-.696-.072zm39.975 2.684h-1.737v-2.789h1.737v.274h-1.42v.964h1.172v.27h-1.171v1.007h1.419v.274zm-1.705-2.644v2.612h1.56v-.098h-1.42v-1.183h1.172v-.094H46.75v-1.14h1.42v-.097h-1.56zm-.981 2.644h-.318V43.92h-.058l-.829 2.357h-.355l-.829-2.357h-.058v2.458h-.317v-2.789h.573l.809 2.358.808-2.358h.574v2.789zm-.495-2.49h.21v2.458h.14v-2.612h-.422l-.861 2.511h.103l.83-2.357zm-2.237-.154v2.612h.14v-2.458h.21l.829 2.357h.103l-.861-2.51h-.421zm-.73 2.644h-.314l-.206-.717h-1.22l-.207.717h-.314l.784-2.789h.693l.784 2.789zm-1.865-.75h1.356l.206.718h.13l-.735-2.612h-.558l-.734 2.612h.13l.205-.717zm-1.093.75h-.582l-1.11-2.515h-.078v2.515h-.318v-2.789h.594l1.094 2.515h.086v-2.515h.314v2.789zm-1.916-2.546h.226l1.11 2.514h.434v-2.612h-.135v2.514h-.234L37.6 43.734h-.447v2.612h.14v-2.514zm-3.279 2.546h-.35l-.516-1.068h-.809v1.068h-.317v-2.789h1.056c.598 0 .912.259.912.847 0 .41-.165.697-.524.81l.548 1.132zm-1.82-1.1h.953l.516 1.068h.153l-.531-1.097.097-.031c.311-.098.462-.335.462-.726 0-.524-.254-.758-.823-.758h-.967v2.612h.14v-1.068zm-.965 1.1h-1.737v-2.789h1.737v.274H29.81v.964h1.172v.27H29.81v1.007h1.42v.274zm-1.704-2.644v2.612h1.559v-.098h-1.42v-1.183h1.172v-.094h-1.171v-1.14h1.419v-.097h-1.56zm-1.922 2.644h-1.02v-2.789h1.02c.829 0 1.056.565 1.056 1.354 0 .798-.215 1.435-1.056 1.435zm-.987-2.644v2.612h.93c.67 0 .967-.415.967-1.346 0-.887-.289-1.266-.967-1.266h-.93zm-.684 2.644H24.36v-2.789h.318v2.51h1.254v.279zm-1.54-2.644v2.612h1.394v-.102h-1.254v-2.51h-.14zm-3.952 2.644h-.313v-1.261h-1.453v1.261h-.317v-2.789h.317v1.25h1.453v-1.25h.313v2.789zm-1.911-1.293h1.63v1.26h.136v-2.61h-.136v1.248h-1.63v-1.249h-.14v2.612h.14v-1.261zm-2.062 1.293h-1.02v-2.789h1.02c.83 0 1.056.565 1.056 1.354 0 .798-.215 1.435-1.056 1.435zm-.987-2.644v2.612h.93c.67 0 .968-.415.968-1.346 0-.887-.29-1.266-.968-1.266h-.93zm-.829 2.644h-.35l-.516-1.068h-.809v1.068h-.317v-2.789h1.056c.598 0 .912.259.912.847 0 .41-.165.697-.524.81l.548 1.132zm-1.82-1.1h.954l.515 1.068h.153l-.531-1.097.097-.031c.311-.098.462-.335.462-.726 0-.524-.254-.758-.823-.758h-.967v2.612h.14v-1.068zm-.87 1.1h-.313l-.206-.717H10.22l-.206.717H9.7l.784-2.789h.694l.783 2.789zm-1.864-.75h1.355l.206.718h.13l-.734-2.612h-.559l-.734 2.612h.13l.206-.717zm12.246.66c-.74 0-.889-.472-.889-1.236 0-.757.151-1.26.89-1.26.737 0 .889.503.889 1.26 0 .802-.142 1.237-.89 1.237zm.057-2.465c-.656 0-.8.415-.8 1.173 0 .761.14 1.148.8 1.148.664 0 .8-.362.8-1.148 0-.754-.148-1.173-.8-1.173zm5.146 2.425h-.79v-2.416h.79c.734 0 .82.666.82 1.168 0 .828-.276 1.248-.82 1.248zm-.645-2.385v2.241h.702c.594 0 .73-.556.73-1.16 0-.605-.136-1.08-.73-1.08H26.9zm-10.49 2.385h-.79v-2.416h.79c.734 0 .819.666.819 1.168 0 .828-.276 1.248-.82 1.248zm-.646-2.385v2.241h.702c.594 0 .73-.556.73-1.16 0-.605-.136-1.08-.73-1.08h-.702zm25.873 1.664h-1.316l.484-1.704h.349l.483 1.704zm-.709-1.671l-.433 1.527h1.081l-.433-1.527h-.215zm-29.497 1.671h-1.316l.484-1.704h.349l.483 1.704zm-.708-1.671l-.434 1.527h1.081l-.433-1.527h-.214zm22.301 1.325h-.831v-1.35h.827c.448 0 .675.223.675.661 0 .444-.238.689-.67.689zm-.686-1.318v1.173h.743c.429 0 .582-.25.582-.6 0-.383-.186-.573-.586-.573h-.739zm-18.677 1.318h-.831v-1.35h.827c.448 0 .675.223.675.661 0 .444-.238.689-.67.689zm-.686-1.318v1.173h.743c.43 0 .582-.25.582-.6 0-.383-.186-.573-.586-.573h-.739zm34.983-3.08h-1.045a.37.37 0 0 1-.061-.006h1.022a.26.26 0 0 0 .267-.264V38.47a.266.266 0 0 0-.267-.264h-1.044a.266.266 0 0 0-.267.264v2.02a.36.36 0 0 1-.005-.062v-2.041c0-.194.16-.353.355-.353h1.028c.191.028.344.18.372.37v2.024a.349.349 0 0 1-.355.354zm-2.558 0h-1.045a.37.37 0 0 1-.062-.006h1.023a.26.26 0 0 0 .266-.264V38.47a.266.266 0 0 0-.266-.264h-1.045a.266.266 0 0 0-.267.264v2.02a.384.384 0 0 1-.004-.062v-2.041c0-.194.16-.353.355-.353h1.027c.192.028.344.18.373.37v2.024a.349.349 0 0 1-.355.354zm-3.781 0a.175.175 0 0 1-.054-.01c.02-.006.039-.025.067-.075l1.365-2.32a.184.184 0 0 0 .027-.094c0-.041-.04-.077-.085-.077-.035 0-.054.017-.098.09l-1.34 2.282c-.02.031-.04.062-.05.091a.149.149 0 0 1-.01-.054c0-.067.043-.127.078-.183l1.33-2.264c.038-.064.076-.122.148-.132a.265.265 0 0 1 .198.192.288.288 0 0 1-.038.11l-1.364 2.32c-.043.074-.085.124-.174.124zm-1.336 0h-1.045a.37.37 0 0 1-.061-.006H40.2a.26.26 0 0 0 .266-.264V38.47a.266.266 0 0 0-.266-.264h-1.045a.266.266 0 0 0-.266.264v2.02a.36.36 0 0 1-.005-.062v-2.041c0-.194.16-.353.355-.353h1.027c.192.028.344.18.373.37v2.024a.349.349 0 0 1-.355.354zm-2.559 0h-1.044a.372.372 0 0 1-.062-.006h1.022a.26.26 0 0 0 .267-.264V38.47a.266.266 0 0 0-.267-.264h-1.044a.266.266 0 0 0-.267.264v2.02a.368.368 0 0 1-.005-.062v-2.041c0-.194.16-.353.356-.353h1.027c.192.028.344.18.373.37v2.024a.349.349 0 0 1-.356.354zm9.017-.182h1.222v-2.218h-1.222v2.218zm.172-.172h1.045v-2.041h-1.045v2.041zm-2.73.172h1.222v-2.218h-1.223v2.218zm.172-.172h1.045v-2.041h-1.045v2.041zm-5.29.172h1.223v-2.218h-1.223v2.218zm.173-.172h1.045v-2.041h-1.045v2.041zm-2.731.172h1.222v-2.218h-1.222v2.218zm.173-.172h1.044v-2.041h-1.044v2.041zm39.862-5.145H75.02a.73.73 0 0 1-.084-.005h1.523c.27 0 .43-.16.43-.426v-1.226c0-.137-.038-.242-.112-.312a.448.448 0 0 0-.318-.12h-.089v-1.577c0-.04-.012-.169-.17-.169h-1.005c-.158 0-.17.13-.17.17v1.576h-.089a.448.448 0 0 0-.317.12c-.075.07-.112.175-.112.312v1.226a.67.67 0 0 1-.005-.084v-1.225c0-.16.046-.289.14-.376a.535.535 0 0 1 .378-.145v-1.488c0-.134.083-.257.259-.257h.986c.149.023.255.128.278.276v1.47h.005a.608.608 0 0 1 .35.163.55.55 0 0 1 .163.349v1.233c0 .314-.197.515-.518.515zm-4.482 0a.452.452 0 0 1-.07-.005c.117-.003.157-.047.157-.169v-.999c0-.208.022-.24.175-.375l.726-.624c.11-.093.11-.093.109-.24V31.45h-2.212c-.12 0-.17.11-.17.17v.22a.226.226 0 0 1-.005-.046v-.258c0-.113.093-.257.26-.257h2.3v1.493c0 .18.005.2-.14.325l-.726.623c-.134.118-.145.128-.145.309v.999c0 .164-.072.257-.259.257zm-2.798 0h-1.886a.751.751 0 0 1-.09-.005h1.892c.195 0 .248-.05.248-.236V33.89c0-.216-.035-.257-.222-.257h-1.82v-1.845h.09c.103 0 .17-.067.17-.17 0-.088-.074-.169-.155-.169h-.311c-.043 0-.134 0-.134.17v3.427a.674.674 0 0 1-.005-.086v-3.425c0-.118.042-.257.223-.257h.282a.347.347 0 0 1 .272.278c-.01.143-.115.237-.259.237v1.668h1.739c.21.026.284.143.303.316v1.183c0 .242-.104.324-.337.324zm-3.969 0h-1.15a.638.638 0 0 1-.08-.005h1.146c.182 0 .28-.02.383-.143.089-.105.104-.192.104-.345v-1.102c0-.17-.014-.263-.133-.373-.106-.101-.21-.121-.354-.121h-1.042v-1.407h1.358c.113 0 .17-.057.17-.17 0-.112-.057-.169-.17-.169h-1.698v2.085h1.528v1.407H64.07a.631.631 0 0 1-.251-.083l-.058-.027-.156-.067a.291.291 0 0 0-.13-.034c-.077 0-.147.067-.159.146a.262.262 0 0 1 .228-.317.53.53 0 0 1 .133.043l.154.067.066.03c.053.026.132.065.173.065h.043a.198.198 0 0 0 .041.005h1.197v-1.23h-1.528v-2.261h1.77c.151.022.253.123.276.272-.006.174-.128.243-.259.243h-1.27v1.23h.989a.573.573 0 0 1 .357.164.526.526 0 0 1 .183.418v1.102c0 .16-.015.273-.124.402-.13.155-.264.175-.45.175zm-7.404 0a.45.45 0 0 1-.07-.005c.116-.003.156-.047.156-.169v-1.139h.089c.113 0 .17-.057.17-.169 0-.112-.057-.17-.17-.17h-.09v-1.576c0-.151-.096-.169-.17-.169-.072 0-.17.018-.17.17v1.576h-1.183v-2.015c0-.151-.097-.169-.17-.169-.073 0-.17.018-.17.17v2.352h1.524v1.124a.439.439 0 0 1-.005-.068v-1.05h-1.524v-2.442c0-.126.06-.251.246-.257.15.023.25.121.272.272v1.911h1.006v-1.488c0-.126.059-.252.245-.258.151.023.25.122.273.272v1.474h.005v.004a.31.31 0 0 1 .254.268c-.007.175-.128.243-.26.243v1.05c0 .165-.072.258-.258.258zm-3.731 0h-1.783a.344.344 0 0 1-.059-.005h1.758c.244 0 .429-.183.429-.426v-.989c0-.206-.045-.32-.173-.434l-.073-.066.073-.065c.128-.115.173-.228.173-.434v-.989a.419.419 0 0 0-.43-.427h-1.781c-.107 0-.164.05-.17.15a.358.358 0 0 1-.006-.064c0-.185.124-.257.26-.257h1.78a.587.587 0 0 1 .52.517v.986c0 .206-.041.356-.202.5.022.02.042.04.06.06a.49.49 0 0 1-.02.023.64.64 0 0 1 .162.416v.99a.505.505 0 0 1-.518.514zm-3.472 0h-2.3v-1.679c0-.386.196-.582.585-.582h1.456v-1.23h-1.782a.361.361 0 0 1-.06-.005h1.847v1.407h-1.545c-.339 0-.497.157-.497.494v1.59h2.212c.113 0 .17-.057.17-.169 0-.112-.057-.169-.17-.169h-1.871v-1.407h1.55c.15 0 .248-.02.36-.121.112-.104.132-.206.132-.394v-1.056c0-.187-.02-.289-.133-.393-.111-.102-.208-.12-.359-.12h-1.72c-.107 0-.164.05-.17.149a.354.354 0 0 1-.005-.064c0-.185.124-.257.259-.257h1.756c.13.013.242.054.36.162a.548.548 0 0 1 .184.44v1.056c0 .185-.015.324-.16.458-.13.119-.249.144-.42.144h-1.461v1.231h1.766c.15.023.252.123.275.273-.006.174-.128.242-.259.242zm-3.73 0h-2.042a.343.343 0 0 1-.059-.005h2.017c.112 0 .17-.057.17-.169v-1.298c0-.121-.048-.169-.17-.169-.123 0-.17.048-.17.17v1.128h-.68V31.45H44.83c-.106 0-.163.051-.17.15a.342.342 0 0 1-.005-.064c0-.185.124-.257.259-.257h1.28v3.491h.502v-1.04c0-.147.065-.253.248-.258a.297.297 0 0 1 .27.27v1.286c0 .185-.124.257-.259.257zm-7.721 0h-1.523a.73.73 0 0 1-.085-.005h1.524c.269 0 .43-.16.43-.426v-1.226c0-.137-.038-.242-.113-.312a.448.448 0 0 0-.317-.12h-.089v-1.577c0-.04-.012-.169-.17-.169h-1.005c-.158 0-.17.13-.17.17v1.576h-.09a.448.448 0 0 0-.317.12c-.074.07-.112.175-.112.312v1.226a.67.67 0 0 1-.005-.084v-1.225c0-.16.047-.289.14-.376a.534.534 0 0 1 .379-.145v-1.488c0-.134.082-.257.259-.257h.985a.324.324 0 0 1 .279.276v1.47h.005a.608.608 0 0 1 .35.163.55.55 0 0 1 .163.348v1.234c0 .314-.197.515-.518.515zm-4.482 0a.45.45 0 0 1-.07-.005c.116-.003.156-.047.156-.169v-.999c0-.208.022-.24.175-.375l.726-.624c.11-.093.11-.093.11-.24V31.45h-2.212c-.12 0-.17.11-.17.17v.22a.237.237 0 0 1-.005-.046v-.258c0-.113.093-.257.259-.257h2.3v1.493c0 .18.006.2-.14.325l-.725.623c-.135.118-.145.128-.145.309v.999c0 .164-.073.257-.259.257zm-2.798 0H30.07a.753.753 0 0 1-.09-.005h1.892c.195 0 .248-.05.248-.236V33.89c0-.216-.035-.257-.222-.257h-1.82v-1.845h.09c.103 0 .17-.067.17-.17 0-.088-.074-.169-.155-.169h-.311c-.044 0-.134 0-.134.17v3.427a.67.67 0 0 1-.005-.086v-3.425c0-.118.041-.257.223-.257h.281a.347.347 0 0 1 .273.278c-.01.143-.115.237-.259.237v1.668H31.99c.21.026.284.143.302.317v1.182c0 .242-.103.324-.336.324zm-3.97 0h-1.15a.64.64 0 0 1-.08-.005h1.147c.181 0 .28-.02.382-.143.09-.105.104-.192.104-.345v-1.102c0-.17-.013-.263-.132-.373-.106-.101-.21-.121-.354-.121h-1.042v-1.407h1.358c.113 0 .17-.057.17-.17 0-.112-.057-.169-.17-.169H26.52v2.085h1.529v1.407h-1.286a.631.631 0 0 1-.252-.083c-.02-.01-.04-.02-.058-.027l-.155-.067a.292.292 0 0 0-.131-.034c-.076 0-.146.067-.158.146a.262.262 0 0 1 .227-.317.525.525 0 0 1 .133.043l.154.067.067.03c.052.026.132.065.173.065h.042a.198.198 0 0 0 .042.005h1.197v-1.23h-1.529v-2.261h1.771c.15.022.252.123.276.272-.007.174-.128.243-.26.243h-1.269v1.23h.989a.573.573 0 0 1 .357.164.525.525 0 0 1 .183.418v1.102c0 .16-.016.273-.125.402-.129.155-.264.175-.45.175zm-7.404 0a.45.45 0 0 1-.07-.005c.117-.003.157-.047.157-.169v-1.139h.088c.113 0 .17-.057.17-.169 0-.112-.057-.17-.17-.17h-.088v-1.576c0-.151-.098-.169-.17-.169-.074 0-.17.018-.17.17v1.576h-1.184v-2.015c0-.151-.097-.169-.17-.169-.073 0-.17.018-.17.17v2.352h1.523v1.125a.444.444 0 0 1-.005-.07v-1.05H18.8v-2.44c0-.127.06-.253.246-.258.15.023.25.121.272.272v1.911h1.005v-1.488c0-.126.06-.252.246-.258.15.023.25.122.272.272v1.474h.005v.004a.31.31 0 0 1 .254.268c-.006.175-.128.243-.259.243v1.05c0 .165-.072.258-.259.258zm-3.73 0h-1.783a.344.344 0 0 1-.059-.005h1.758c.244 0 .43-.183.43-.426v-.989c0-.206-.046-.32-.174-.434l-.073-.066.073-.065c.128-.115.173-.228.173-.434v-.989a.419.419 0 0 0-.43-.427h-1.782c-.106 0-.163.05-.17.15a.356.356 0 0 1-.005-.064c0-.185.124-.257.26-.257h1.78a.587.587 0 0 1 .52.517v.986c0 .206-.042.356-.202.5.022.02.042.04.06.06a.621.621 0 0 1-.02.023.64.64 0 0 1 .162.416v.99a.505.505 0 0 1-.518.514zm-3.472 0h-2.3v-1.679c0-.386.196-.582.585-.582h1.456v-1.23h-1.783a.365.365 0 0 1-.059-.005h1.847v1.407H11.58c-.339 0-.497.157-.497.494v1.59h2.212c.113 0 .17-.057.17-.169 0-.112-.057-.169-.17-.169h-1.871v-1.407h1.55c.15 0 .247-.02.36-.121.112-.104.131-.206.131-.394v-1.056c0-.187-.019-.289-.132-.393-.111-.102-.208-.12-.36-.12h-1.72c-.106 0-.163.05-.169.149a.335.335 0 0 1-.006-.064c0-.185.125-.257.26-.257h1.755c.13.013.243.054.36.162a.548.548 0 0 1 .185.44v1.056c0 .185-.016.324-.16.458-.13.119-.25.144-.42.144h-1.462v1.231h1.766c.15.023.252.123.276.273-.007.174-.128.242-.259.242zm-3.73 0H7.607a.344.344 0 0 1-.06-.005h2.017c.113 0 .17-.057.17-.169v-1.298c0-.121-.047-.169-.17-.169-.122 0-.17.048-.17.17v1.128h-.68V31.45H7.524c-.107 0-.164.05-.17.15a.358.358 0 0 1-.005-.064c0-.185.124-.257.259-.257h1.28v3.491h.502v-1.04c0-.147.065-.253.248-.258a.297.297 0 0 1 .27.269v1.287c0 .185-.124.257-.259.257zm24.85-.189a.436.436 0 0 1-.005-.068v-1.241c0-.17.005-.186.135-.3l.715-.612c.17-.15.16-.144.16-.37v-.711h-1.523a.261.261 0 0 1-.319.25c.103-.013.146-.112.146-.167v-.088h1.701v.835c0 .218-.012.244-.19.4l-.716.614c-.104.09-.104.09-.104.232v1.226zm37.307 0a.438.438 0 0 1-.005-.068v-1.241c0-.17.005-.186.135-.3l.715-.612c.17-.15.16-.144.16-.37v-.711H71.29a.262.262 0 0 1-.318.25c.102-.013.145-.112.145-.167v-.088h1.702v.835c0 .218-.012.244-.191.4l-.716.614c-.104.09-.104.09-.104.232v1.226zm-27.146-.003a.346.346 0 0 1-.005-.065c0-.186.124-.258.259-.258h.762v-2.976h-.762a.365.365 0 0 1-.059-.005h.825v3.153h-.85c-.106 0-.163.05-.17.15zm-29.845-.001a.354.354 0 0 1-.006-.064c0-.186.124-.258.26-.258h1.782v-.855-.018a.957.957 0 0 1 .005.102v.943h-1.872c-.106 0-.163.05-.17.15zm37.307 0a.356.356 0 0 1-.006-.064c0-.186.124-.258.26-.258h1.782v-.855-.018a.947.947 0 0 1 .005.102v.943h-1.871c-.107 0-.164.05-.17.15zm-44.769 0a.356.356 0 0 1-.005-.064c0-.186.124-.258.259-.258h.761v-2.976h-.761a.366.366 0 0 1-.06-.005h.826v3.153h-.85c-.107 0-.164.05-.17.15zm67.493-.15h1.701v-1.407h-1.7v1.407zm.173-.172h1.523v-1.23H75.02v1.23zm-7.634.172h1.7v-.97h-1.7v.97zm.172-.172h1.524v-.793h-1.524v.793zm-30.018.172h1.701v-1.407H37.54v1.407zm.173-.172h1.523v-1.23h-1.523v1.23zm-7.635.172h1.702v-.97h-1.702v.97zm.173-.172h1.523v-.793h-1.523v.793zm23.627-1.23h-.994a.344.344 0 0 1-.059-.005h.99c.02 0 .041 0 .063.004zm-37.307 0h-.994a.344.344 0 0 1-.06-.005h.992c.019 0 .04 0 .062.004zm36.06-.194a.335.335 0 0 1-.006-.064c0-.185.124-.258.26-.258H53.9c.145 0 .259-.087.259-.376v-.854h-1.783a.366.366 0 0 1-.059-.005h1.847v.943c0 .404-.218.464-.348.464H52.8c-.106 0-.163.05-.17.15zm-37.308 0a.356.356 0 0 1-.005-.064c0-.185.124-.258.259-.258h1.016c.145 0 .259-.087.259-.376v-.854h-1.783a.366.366 0 0 1-.059-.005h1.847v.943c0 .404-.218.464-.348.464h-1.016c-.106 0-.163.05-.17.15zm60.042-.15h.665v-1.407h-.665v1.407zm.173-.172h.487v-1.23h-.487v1.23zm-37.48.172h.665v-1.407h-.665v1.407zm.173-.172h.487v-1.23h-.487v1.23z"/>
        <path fill="#C8C8C3" d="M35.027 39.281v.8c0 .179-.102.248-.283.248-.171 0-.272-.07-.272-.248v-.8h-.129v.797c0 .263.146.364.4.364.265 0 .411-.103.411-.364v-.797h-.127zm-1.278.594h-.301v-.481h.3c.163 0 .238.077.238.234 0 .144-.062.247-.237.247zm.37-.247c0-.241-.128-.347-.371-.347h-.43v1.144h.13v-.438h.328l.21.438h.142l-.222-.464c.145-.047.212-.164.212-.333zm-1.212.166h-.59v-.513h-.13v1.144h.13v-.517h.59v.517h.127v-1.144h-.127v.513zm-1.722-.399h.357v1.03h.127v-1.03h.354v-.114h-.838v.114zm3.271-1.63h.277c.234 0 .287.195.287.444 0 .248-.053.476-.287.476h-.277v-.92zm.693.444c0-.325-.09-.556-.416-.556h-.402v1.145h.402c.331 0 .416-.262.416-.59zm-1.218.589h.125v-1.145h-.125v1.145zm-.16-.114h-.494v-1.031h-.125v1.145h.62v-.114zm-1.284-.922h.084l.17.627h-.425l.17-.627zm-.199.741h.482l.08.295h.124l-.309-1.145h-.273l-.309 1.145h.124l.081-.295zm-.626.182h-.091l-.259-1.032h-.13l.294 1.145h.28l.295-1.145h-.13l-.26 1.032zM12.496 37.904v-.542H12.3v.542h-.612l.489-1.218h-.215l-.482 1.24v.158h.82v.339h.197v-.34h.215v-.179h-.215zm-1.583-.4c.05-.031.251-.123.251-.395 0-.308-.14-.453-.54-.453-.256 0-.497.074-.497.074l.018.16s.238-.052.471-.052c.251 0 .346.082.346.28 0 .2-.18.315-.307.315h-.341v.174h.34c.193.008.349.087.349.326 0 .224-.115.335-.366.338-.241 0-.517-.058-.517-.058l-.019.165s.29.071.556.071c.382 0 .548-.173.548-.523 0-.282-.12-.358-.292-.422zm-1.544.271c.238-.237.354-.39.354-.65 0-.326-.18-.466-.536-.466-.246 0-.489.071-.489.071l.015.169s.252-.058.439-.058c.243 0 .368.074.368.305 0 .206-.13.348-.34.572l-.495.534v.171h1.081v-.176h-.848l.451-.472zm-2.02-.72l.09.152.435-.295v1.511h.197v-1.737h-.185l-.537.368z"/>
        <path fill="#AEB7C8" d="M8.168 15.54c-.672 0-1.217.568-1.217 1.27v8.415c0 .702.545 1.271 1.217 1.271h9.285c.672 0 1.217-.569 1.217-1.27V16.81c0-.703-.545-1.272-1.217-1.272H8.168z"/>
        <path fill="url(#r)" d="M8.335 6.639h3.695V4.456H8.335V6.64zm2.613-6.26H8.335v1.643h3.695V1.49c0-.614-.485-1.111-1.082-1.111zM8.335 8.718h3.695V6.78H8.335v1.938zM8.198.378H4.272v8.34h3.926V4.315h3.832V2.164H8.198V.379zM.51 6.639h3.624V4.457H.51V6.64zm0-2.323h3.624V2.164H.51v2.151zm0 5.51c0 .615.484 1.112 1.081 1.112h9.357c.597 0 1.082-.497 1.082-1.111v-.967H.51v.967zM4.134.38H1.591C.994.379.511.876.511 1.49v.532h3.623V.38zM.51 8.718h3.624V6.78H.51v1.938z" transform="translate(6.839 15.36)"/>
    </g>
</svg>
