<svg xmlns="http://www.w3.org/2000/svg" width="107" height="107" viewBox="0 0 107 107">
    <g fill="none" fill-rule="evenodd">
        <circle cx="53.48" cy="53.28" r="53.13" fill="#537CE1" fill-rule="nonzero"/>
        <path fill="#E7E9F2" fill-rule="nonzero" d="M14.21 41v65.67h78.54V41H14.21zm5.62 4.84a1.6 1.6 0 0 1-1.6-1.6 1.6 1.6 0 1 1 3.2 0 1.6 1.6 0 0 1-1.6 1.6zm6.73 0a1.6 1.6 0 1 1 0-3.2 1.6 1.6 0 1 1 0 3.2zm6.73 0a1.6 1.6 0 1 1 0-3.2 1.6 1.6 0 1 1 0 3.2zm6.73 0a1.6 1.6 0 1 1 0-3.2 1.6 1.6 0 1 1 0 3.2zm6.73 0a1.6 1.6 0 0 1-1.6-1.6 1.6 1.6 0 1 1 3.2 0 1.6 1.6 0 0 1-1.6 1.6zm6.73 0a1.6 1.6 0 1 1 0-3.2 1.6 1.6 0 1 1 0 3.2zm6.73 0a1.6 1.6 0 1 1 0-3.2 1.6 1.6 0 1 1 0 3.2zm6.73 0a1.6 1.6 0 1 1 0-3.2 1.6 1.6 0 1 1 0 3.2zm6.73 0a1.6 1.6 0 0 1-1.6-1.6 1.6 1.6 0 1 1 3.2 0 1.6 1.6 0 0 1-1.6 1.6zm6.73 0a1.6 1.6 0 1 1 0-3.2 1.6 1.6 0 1 1 0 3.2zm6.73 0a1.6 1.6 0 1 1 0-3.2 1.6 1.6 0 1 1 0 3.2z"/>
        <path fill="#FFF" fill-rule="nonzero" d="M18.23 47.62h70.49v54.76H18.23z"/>
        <text fill="#537CE1" font-family="GothamPro-Black, Gotham Pro" font-size="15" font-weight="700" transform="translate(34 62)">
            <tspan x=".37" y="11.88">23-8</tspan>
        </text>
        <path fill="#FF7E59" fill-rule="nonzero" d="M35.32 82.23h36.76a.37.37 0 1 0 0-.74H35.32a.37.37 0 1 0 0 .74"/>
        <path fill="#E7E9F2" fill-rule="nonzero" d="M23.45 88.57h11.87v9.35H23.45zM39.33 88.57H51.2v9.35H39.33zM55.21 88.57h11.87v9.35H55.21zM71.08 88.57h11.87v9.35H71.08z"/>
        <path fill="#FF7E59" fill-rule="nonzero" d="M19.46 39.68v4.58a.37.37 0 1 0 .74 0v-4.58a.37.37 0 1 0-.74 0M26.19 39.68v4.58a.37.37 0 1 0 .74 0v-4.58a.37.37 0 1 0-.74 0M32.92 39.68v4.58a.37.37 0 1 0 .74 0v-4.58a.37.37 0 1 0-.74 0M39.65 39.68v4.58a.37.37 0 1 0 .74 0v-4.58a.375.375 0 1 0-.75 0M46.38 39.68v4.58a.37.37 0 1 0 .74 0v-4.58a.37.37 0 1 0-.74 0M53.11 39.68v4.58a.37.37 0 1 0 .74 0v-4.58a.375.375 0 1 0-.75 0M59.83 39.68v4.58a.37.37 0 1 0 .74 0v-4.58a.37.37 0 1 0-.74 0M66.56 39.68v4.58a.37.37 0 1 0 .74 0v-4.58a.37.37 0 1 0-.74 0M73.29 39.68v4.58a.37.37 0 1 0 .74 0v-4.58a.37.37 0 1 0-.74 0M80 39.68v4.58a.37.37 0 1 0 .74 0v-4.58a.37.37 0 1 0-.74 0M86.75 39.68v4.58a.37.37 0 1 0 .74 0v-4.58a.37.37 0 1 0-.74 0"/>
    </g>
</svg>
