<?xml version="1.0" standalone="no"?><!-- Generator: Gravit.io --><svg xmlns="http://www.w3.org/2000/svg" xmlns:xlink="http://www.w3.org/1999/xlink" style="isolation:isolate" viewBox="0 0 412.754 443.231" width="412.754" height="443.231"><defs><clipPath id="_clipPath_z0Hqj5EDRGHpN9uruzZxrfKjbaGKxWCn"><rect width="412.754" height="443.231"/></clipPath></defs><g clip-path="url(#_clipPath_z0Hqj5EDRGHpN9uruzZxrfKjbaGKxWCn)"><g><ellipse vector-effect="non-scaling-stroke" cx="203.5" cy="201" rx="203.5" ry="201" fill="rgb(216,221,234)"/><g><g><path d=" M 289.386 145.53 C 289.386 145.53 290.607 142.224 290.433 139.359 C 290.331 137.7 292.818 139.414 293.109 141.617 C 293.4 143.822 289.386 145.53 289.386 145.53 Z  M 248.12 129.03 C 248.12 129.03 261.925 115.647 266.088 111.854 C 266.088 111.854 253.598 101.818 241.326 94.902 L 241.545 85.534 C 241.545 85.534 254.037 89.995 264.993 94.68 C 275.989 99.38 282.742 103.602 284.714 106.278 C 286.424 108.597 285.485 111.673 284.276 114.308 C 282.742 117.655 273.977 131.707 251.187 149.327 L 232.561 136.168 L 248.12 129.03 L 248.12 129.03 Z " fill-rule="evenodd" fill="rgb(224,149,149)"/><path d=" M 238.882 103.001 L 256.487 122.099 C 256.487 122.099 241.522 130.093 235.36 119.656 C 229.198 109.219 238.882 103.001 238.882 103.001 Z " fill-rule="evenodd" fill="rgb(43,43,81)"/><path d=" M 200.359 70.944 C 211.724 65.149 235.275 64.406 242.106 82.981 C 247.351 97.245 235.741 105.436 237.078 110.619 C 238.172 114.854 256.313 118.642 257.187 123.547 C 257.958 127.866 249.319 137.143 241.013 138.927 L 206.479 142.493 C 206.479 142.493 186.403 130.675 183.748 109.282 C 181.562 91.673 185.893 78.321 200.359 70.943" fill-rule="evenodd" fill="rgb(233,238,251)"/><path d=" M 210.577 85.117 C 215.88 93.877 221.845 100.615 229.799 106.679 C 232.144 108.349 234.657 109.592 237.247 110.596 C 236.475 105.356 247.578 97.154 242.391 83.095 C 238.118 71.51 227.369 67.386 217.075 67.308 C 209.714 70.326 204.454 76.018 210.577 85.117" fill-rule="evenodd" fill="rgb(233,238,251)"/><path d=" M 257.187 123.545 C 256.313 118.642 238.172 114.852 237.079 110.617 C 237.049 110.502 237.034 110.385 237.016 110.268 C 234.454 109.271 231.968 108.039 229.648 106.382 C 221.779 100.363 215.659 94.79 210.413 86.097 C 206.041 79.632 209.778 70.304 217.061 67.309 C 210.791 67.261 204.69 68.731 200.36 70.939 C 185.893 78.317 181.562 91.67 183.748 109.28 C 186.403 130.675 206.479 142.493 206.479 142.493 L 241.012 138.926 C 249.318 137.143 257.957 127.866 257.187 123.545" fill-rule="evenodd" fill="rgb(219,223,228)"/><path d=" M 296.115 139.623 L 306.019 131.101 L 306.582 132.451 L 297.162 140.215 L 296.115 139.623 Z " fill-rule="evenodd" fill="rgb(238,133,79)"/><path d=" M 309.573 118.191 L 318.267 186.631 L 387.713 197.932 L 397.052 182.641 L 378.836 124.239 L 309.573 118.191 Z " fill-rule="evenodd" fill="rgb(43,43,81)"/><path d=" M 311.817 115.933 L 320.573 184.262 L 397.801 182.253 L 382.27 109.836 L 311.817 115.933 Z " fill-rule="evenodd" fill="rgb(66,66,108)"/><g><clipPath id="_clipPath_VeGc2hfAEW1YoLUsdh2CaOSKXN3PE1wY"><path d=" M 299.853 97.685 L 412.754 97.685 L 412.754 180.464 L 299.853 180.464 L 299.853 97.685 Z " fill="rgb(255,255,255)"/></clipPath><g clip-path="url(#_clipPath_VeGc2hfAEW1YoLUsdh2CaOSKXN3PE1wY)"><path d=" M 299.853 115.872 L 325.93 180.464 L 408.184 166.281 L 412.754 146.838 L 373.466 97.685 L 299.853 115.872 Z " fill-rule="evenodd" fill="rgb(36,71,141)"/></g></g><g><clipPath id="_clipPath_rZVXgO3j9jxPqX3rQJXOyB98MHD9Qs1y"><path d=" M 299.853 80.978 L 412.754 80.978 L 412.754 175.908 L 299.853 175.908 L 299.853 80.978 Z " fill="rgb(255,255,255)"/></clipPath><g clip-path="url(#_clipPath_rZVXgO3j9jxPqX3rQJXOyB98MHD9Qs1y)"><path d=" M 299.853 111.288 L 325.903 175.908 L 412.754 146.991 L 380.177 80.977 L 299.853 111.288 Z " fill-rule="evenodd" fill="rgb(36,116,205)"/></g></g><path d=" M 314.059 131.86 C 314.072 132.411 313.79 132.926 313.322 133.205 C 312.855 133.485 312.275 133.485 311.807 133.205 C 311.34 132.926 311.058 132.411 311.07 131.86 C 311.089 131.035 311.753 130.376 312.565 130.376 C 313.377 130.376 314.04 131.035 314.059 131.86 M 320.788 148.568 C 320.801 149.119 320.519 149.634 320.051 149.913 C 319.584 150.192 319.004 150.192 318.536 149.913 C 318.069 149.634 317.787 149.119 317.799 148.568 C 317.818 147.743 318.482 147.084 319.294 147.084 C 320.106 147.084 320.769 147.743 320.788 148.568 Z " fill-rule="evenodd" fill="rgb(63,56,72)"/><path d=" M 307.33 117.842 L 354.822 93.888 L 380.169 129.65 L 382.846 141.129 L 332.242 162.238 L 307.33 117.842 Z " fill-rule="evenodd" fill="rgb(43,43,81)"/><path d=" M 305.834 116.325 L 350.361 83.256 C 350.361 83.256 355.798 91.166 364.985 105.294 C 373.415 118.261 379.856 129.809 379.856 129.809 L 330.784 160.719 L 305.834 116.325 Z " fill-rule="evenodd" fill="rgb(66,66,108)"/><path d=" M 296.115 139.902 L 311.171 131.101 L 311.817 132.455 L 296.867 140.974 L 296.115 139.902 Z " fill-rule="evenodd" fill="rgb(63,56,72)"/><path d=" M 296.115 139.974 L 307.679 135.658 L 308.078 136.527 L 296.86 140.974 L 296.115 139.974 Z " fill-rule="evenodd" fill="rgb(63,56,72)"/><path d=" M 318.546 127.683 C 318.546 128.091 318.332 128.467 317.985 128.67 C 317.638 128.874 317.211 128.874 316.864 128.67 C 316.517 128.467 316.303 128.091 316.303 127.683 C 316.303 127.054 316.805 126.544 317.424 126.544 C 318.044 126.544 318.546 127.054 318.546 127.683 M 326.023 141.354 C 326.022 141.761 325.809 142.137 325.462 142.34 C 325.115 142.544 324.687 142.544 324.34 142.34 C 323.993 142.136 323.78 141.76 323.78 141.353 C 323.78 140.723 324.282 140.213 324.901 140.213 C 325.521 140.213 326.023 140.723 326.023 141.353" fill-rule="evenodd" fill="rgb(36,71,141)"/><path d=" M 316.558 127.303 C 316.558 127.303 300.473 135.65 295.878 139.228 C 291.282 142.805 290.133 145.53 290.133 145.53 L 293.416 145.019 C 293.416 145.019 295.562 140.438 298.791 138.589 C 304.81 135.154 310.897 131.846 317.05 128.667 L 316.558 127.303 Z " fill-rule="evenodd" fill="rgb(36,71,141)"/><path d=" M 76.301 169.833 C 76.301 169.833 74.139 172.12 75.003 173.722 C 76.494 176.481 80.193 179.44 84.085 182.413 C 89.346 186.434 102.464 182.642 102.464 182.642 L 76.301 169.833 L 76.301 169.833 Z  M 86.567 164.521 C 85.748 164.018 83.616 160.499 83.78 157.483 C 83.945 154.466 85.639 154.69 86.459 155.695 C 87.278 156.701 89.027 159.662 90.667 160.666 C 92.307 161.672 94.328 163.46 97.28 163.293 C 100.231 163.124 102.964 164.521 104.276 165.861 C 105.587 167.202 106.407 169.381 107.391 169.548 C 108.374 169.716 115.971 171.447 119.579 171.112 C 123.186 170.776 129.198 169.828 133.789 170.33 C 133.789 170.33 135.865 164.968 138.161 162.287 C 140.456 159.605 140.398 157.362 140.675 155.472 C 141.003 153.239 141.331 151.562 141.768 149.327 L 146.578 149.942 L 143.626 186.137 L 126.738 188.819 L 86.568 164.521 L 86.567 164.521 Z " fill-rule="evenodd" fill="rgb(224,149,149)"/><path d=" M 14.079 349.349 C 12.906 347.855 9.524 352.375 12.335 358.133 C 15.158 363.914 24.145 380.295 26.124 384.064 C 28.74 389.048 31.954 390.54 36.096 388.288 C 38.758 386.84 41.9 383.136 44.067 381.337 C 45.6 380.062 47.229 378.969 48.63 377.842 L 38.712 365.791 C 36.968 367.143 34.92 368.858 32.608 367.143 C 26.344 362.496 16.913 352.957 14.079 349.349" fill-rule="evenodd" fill="rgb(233,238,251)"/><path d=" M 38.805 365.768 C 37.123 367.094 35.136 368.786 32.936 367.252 C 32.65 372.352 40.478 380.78 43.798 381.717 C 45.985 379.958 47.199 379.049 48.63 377.914 L 38.805 365.768 L 38.805 365.768 Z " fill-rule="evenodd" fill="rgb(255,174,174)"/><path d=" M 129.243 421.967 C 129.243 421.967 127.428 425.648 119.948 427.432 C 112.469 429.217 97.07 433.568 96.52 436.245 C 95.701 440.231 108.344 442.548 119.784 441.433 C 131.223 440.317 140.686 439.829 141.893 438.253 C 143.625 435.988 143.023 431.957 144.12 429.636 C 144.832 428.128 145.082 427.767 145.082 427.767 L 129.243 421.967 Z " fill-rule="evenodd" fill="rgb(233,238,251)"/><path d=" M 125.455 428.135 C 128.219 431.191 137.291 431.743 144.03 430.371 C 144.681 428.942 145.082 427.962 145.082 427.962 L 129.16 421.967 C 129.16 421.967 128.387 423.554 125.822 425.176 C 124.736 425.886 124.59 427.179 125.455 428.135 Z " fill-rule="evenodd" fill="rgb(255,174,174)"/><path d=" M 38.91 365.889 L 50.265 380.198 C 50.265 380.198 67.007 368.973 85.859 351.134 C 92.196 345.137 96.939 337.712 103.823 330.626 C 121.629 312.297 139.924 291.108 151.805 271.101 L 157.044 231.754 L 133.244 225.272 C 133.244 225.272 125.819 237.344 106.385 268.419 C 86.95 299.492 81.273 312.235 70.792 327.661 C 60.31 343.087 38.91 365.889 38.91 365.889 Z " fill-rule="evenodd" fill="rgb(43,43,81)"/><path d=" M 133 225.272 C 133 225.272 139.224 244.316 141.517 249.694 C 143.927 255.346 148.069 259.552 148.069 259.552 C 148.069 259.552 144.138 302.123 143.264 319.151 C 142.391 336.18 142.224 344.967 140.425 361.051 C 138.896 374.718 128.633 422.217 128.633 422.217 L 144.356 428.043 C 144.356 428.043 158.987 396.227 163.136 383.232 C 167.229 370.412 167.285 357.242 169.032 349.175 C 170.779 341.109 179.295 316.238 186.72 290.92 C 194.17 265.515 197.42 236.699 197.42 236.699 L 133 225.272 L 133 225.272 Z " fill-rule="evenodd" fill="rgb(66,66,108)"/><path d=" M 168.289 90.229 C 168.289 90.229 167.982 85.003 169.362 77.581 C 170.104 73.587 171.014 69.42 176.705 66.098 C 181.408 63.351 194.248 60.377 199.641 63.018 C 205.416 65.848 207.067 69.926 206.159 74.419 C 205.355 78.401 203.41 85.091 202.859 86.983 C 202.034 89.812 200.796 94.888 199.311 94.639 C 197.826 94.389 168.289 90.229 168.289 90.229" fill-rule="evenodd" fill="rgb(48,48,48)"/><path d=" M 109.631 177.081 C 109.101 176.57 109.044 175.67 109.505 175.082 L 114.429 168.799 C 114.892 168.211 115.701 168.148 116.233 168.659 C 116.762 169.172 116.819 170.071 116.358 170.659 L 111.433 176.941 C 110.972 177.529 110.161 177.593 109.631 177.082" fill-rule="evenodd" fill="rgb(66,66,108)"/><path d=" M 166.017 123.519 C 166.017 123.519 170.441 114.993 170.658 100.724 C 170.658 100.724 184.579 103.926 194.429 106.664 C 192.475 112.522 192.883 119.052 192.883 119.052 L 166.383 132.62 L 166.018 123.519 L 166.017 123.519 Z " fill-rule="evenodd" fill="rgb(224,149,149)"/><path d=" M 141.32 150.867 L 143.721 151.091 C 143.721 151.091 144.157 160.07 144.157 164.334 C 144.157 168.599 142.412 176.905 142.629 186.556 C 142.848 196.208 141.32 202.942 139.137 208.553 C 136.955 214.165 132.372 225.837 132.372 225.837 C 132.372 225.837 143.345 230.2 155.288 232.57 C 180.169 237.509 200.03 238.182 200.03 238.182 C 200.03 238.182 208.542 194.412 207.451 166.804 C 206.484 142.357 207.888 121.687 207.888 121.687 C 207.888 121.687 197.412 118.544 191.519 118.994 C 169.147 128.253 166.583 127.467 166.583 127.467 L 165.764 121.014 C 165.764 121.014 156.379 121.687 151.797 125.054 C 148.152 127.731 145.701 131.279 144.157 137.175 C 142.629 143.011 141.32 150.867 141.32 150.867" fill-rule="evenodd" fill="rgb(255,255,255)"/><path d=" M 151.811 197.931 C 151.811 197.931 187.481 207.867 195.699 211.561 C 198.307 212.735 201.568 229.828 201.568 229.828 C 201.568 229.828 204.422 212.316 205.645 202.093 C 197.981 201.926 151.811 197.931 151.811 197.931" fill-rule="evenodd" fill="rgb(219,223,228)"/><path d=" M 128.018 191.434 C 126.553 194.491 122.91 195.764 119.923 194.265 L 93.134 180.816 C 90.148 179.316 88.902 175.589 90.368 172.532 C 91.834 169.476 95.476 168.203 98.463 169.702 L 125.252 183.152 C 128.239 184.652 129.483 188.378 128.018 191.434" fill-rule="evenodd" fill="rgb(43,43,81)"/><path d=" M 186.031 160.788 L 184.792 159.201 C 184.792 159.201 180.5 178.581 178.354 179.083 C 171.329 180.722 158.54 184.262 158.54 184.262 L 189.195 183.872 L 186.031 160.788 Z " fill-rule="evenodd" fill="rgb(219,223,228)"/><path d=" M 166.765 127.723 C 166.765 127.723 166.928 129.712 167.364 132.253 C 167.8 134.796 168.445 136.653 168.445 136.653 C 168.509 137.02 168.867 137.254 169.222 137.153 C 171.46 136.516 178.73 134.346 180.659 132.53 C 182.948 130.375 190.74 120.209 193.681 119.379 C 193.681 119.379 193.518 118.164 193.409 117.335 C 193.351 116.893 192.701 116.672 192.701 116.672 C 192.701 116.672 187.416 120.54 179.406 123.69 C 171.396 126.839 166.765 127.723 166.765 127.723 Z " fill-rule="evenodd" fill="rgb(233,238,251)"/><path d=" M 200.031 92.85 C 197.934 104.734 190.108 116.729 181.395 114.983 C 172.415 113.182 169.005 99.566 171.101 87.682 C 173.199 75.798 177.711 71.28 189.413 72.964 C 202.619 74.866 202.129 80.967 200.031 92.85" fill-rule="evenodd" fill="rgb(255,174,174)"/><path d=" M 170.843 91.488 C 171.242 95.248 171.695 99.04 170.357 99.195 C 168.242 99.442 166.527 94.51 166.129 90.75 C 165.731 86.99 166.426 85.685 167.766 85.541 C 169.104 85.397 170.446 87.728 170.843 91.488 M 185.715 160.617 C 185.715 160.617 185.563 167.08 185.715 172.334 C 185.879 178.026 187.031 181.708 187.031 181.708 C 187.031 181.708 171.895 183.048 162.517 183.885 C 153.141 184.721 144.421 183.048 141.953 182.211 C 139.484 181.374 139.209 179.884 135.7 178.696 C 132.74 177.691 129.284 176.854 127.803 176.352 C 126.323 175.849 123.032 176.519 118.92 175.18 C 117.433 174.696 113.984 173.674 113.82 174.176 C 113.349 175.613 113.522 177.168 117.11 178.863 C 120.116 180.28 123.132 181.675 126.158 183.048 C 126.158 183.048 106.91 187.233 104.771 187.568 C 103.382 187.785 103.818 190.309 105.758 190.748 C 108.719 191.417 109.871 191.752 109.871 191.752 C 109.871 191.752 113.162 196.271 115.63 197.444 C 118.097 198.615 119.965 198.797 121.881 199.285 C 123.856 199.787 125.171 199.954 129.449 199.62 C 134.739 199.206 142.94 197.276 146.724 197.611 C 150.508 197.946 160.201 200.413 168.55 201.796 C 177.982 203.358 185.99 204.465 194.434 204.697 C 202.55 204.92 204.854 204.697 207.815 202.689 C 210.776 200.68 211.984 197.778 212.148 194.095 C 212.312 190.413 213.683 182.546 212.861 172.502 C 212.038 162.458 211.051 158.441 211.051 158.441 L 185.715 160.617 L 185.715 160.617 Z " fill-rule="evenodd" fill="rgb(255,174,174)"/><path d=" M 183.962 156.805 L 184.416 159.986 C 184.494 160.442 184.911 160.759 185.371 160.715 L 201.158 159.178 L 199.434 155.403 L 183.962 156.804 L 183.962 156.805 Z " fill-rule="evenodd" fill="rgb(233,238,251)"/><path d=" M 93.096 169.058 C 92.392 168.945 91.904 168.247 92.011 167.506 L 93.159 159.596 C 93.267 158.857 93.931 158.343 94.636 158.456 C 95.339 158.569 95.828 159.267 95.72 160.009 L 94.571 167.917 C 94.464 168.657 93.8 169.171 93.096 169.058 Z " fill-rule="evenodd" fill="rgb(66,66,108)"/><path d=" M 202.199 89.392 C 202.199 89.392 199.546 94.091 201.094 101.696 C 202.054 106.417 204.189 107.737 203.525 109.304 C 202.862 110.87 199.767 111.197 199.767 116.462 C 199.767 119.595 201.978 121.608 201.535 124.07 C 201.094 126.53 193.894 132.671 194.462 144.428 C 194.903 153.6 199.988 162.326 209.715 165.01 C 219.442 167.695 219 149.126 219 149.126 L 216.569 92.3 L 226.075 85.589 C 226.075 85.589 228.949 78.654 220.99 77.311 C 215.086 76.316 209.273 81.339 209.273 81.339 L 202.199 89.392 L 202.199 89.392 Z " fill-rule="evenodd" fill="rgb(63,56,72)"/><path d=" M 222.332 82.497 C 222.332 82.497 229.579 85.871 231.117 98.241 C 232.834 112.072 237.297 114.401 240.778 117.81 C 245.828 122.759 248.021 124.005 246.049 129.057 C 244.731 132.431 236.167 137.379 229.14 136.255 C 229.14 136.255 221.674 125.233 222.112 114.886 C 222.552 104.539 222.332 82.497 222.332 82.497 Z " fill-rule="evenodd" fill="rgb(63,56,72)"/><path d=" M 215.736 177.427 C 215.736 177.427 202.333 157.656 202.66 129.34 L 210.179 119.454 L 210.015 110.574 L 226.851 107.558 C 226.851 107.558 226.125 118.98 228.976 124.984 C 232.251 131.882 244.937 137.703 248.263 142.744 L 215.736 177.427 Z  M 313.974 287.226 C 313.974 287.226 301.982 285.436 289.99 295.508 C 280.324 303.627 264.043 326.844 260.99 330.203 C 257.938 333.559 255.757 336.47 251.615 337.142 C 248.356 337.669 243.111 335.798 242.021 340.274 C 240.931 344.752 240.167 361.764 241.476 369.821 C 242.784 377.879 244.092 382.132 246.709 381.685 C 249.325 381.236 249.429 376.849 251.397 368.478 C 252.922 361.987 254.668 353.929 259.464 348.781 C 264.261 343.632 278.391 325.354 320.515 306.253 C 329.401 302.223 336.98 298.609 339.267 294.165 C 345.371 282.302 333.162 269.32 333.162 269.32 L 313.974 287.226 L 313.974 287.226 Z " fill-rule="evenodd" fill="rgb(224,149,149)"/><path d=" M 252.438 336.909 C 248.707 337.46 242.7 335.51 241.452 340.175 C 240.205 344.841 239.33 362.569 240.827 370.967 C 242.326 379.365 243.918 384.497 246.914 384.031 C 249.91 383.564 250.559 375.959 252.813 367.235 C 252.313 368.139 248.506 366.129 248.506 358.4 C 248.506 343.441 252.608 336.885 252.438 336.91" fill-rule="evenodd" fill="rgb(233,238,251)"/><g><clipPath id="_clipPath_fyJAjImC6yBSO8FmKJEaFKM2METcWegB"><path d=" M 255.74 298.178 L 329.761 298.178 L 329.761 443.231 L 255.74 443.231 L 255.74 298.178 Z " fill="rgb(255,255,255)"/></clipPath><g clip-path="url(#_clipPath_fyJAjImC6yBSO8FmKJEaFKM2METcWegB)"><path d=" M 257.236 304.54 C 257.236 304.54 263.843 317.094 266.518 323.121 C 268.814 328.294 270.609 337.517 270.294 342.539 C 269.979 347.561 270.639 356.478 276.43 368.486 C 282.566 381.208 290.905 402.467 292.478 406.819 C 294.052 411.172 294.996 415.022 294.996 417.7 C 294.996 420.379 292.951 423.727 292.951 426.405 C 292.951 429.084 293.394 431.519 297.67 433.269 C 301.761 434.942 305.222 437.286 310.258 439.965 C 315.292 442.644 319.383 442.81 322.53 442.141 C 325.676 441.471 329.207 439.634 328.036 437.454 C 326.778 435.11 316.865 427.912 312.933 424.061 C 309.782 420.978 306.467 417.143 304.908 411.34 C 303.335 405.481 294.342 359.921 292.636 350.909 C 291.091 342.747 288.758 333.891 287.444 326.803 C 286.649 322.514 286.3 317.166 285.083 311.57 C 284.138 307.219 282.252 298.178 282.252 298.178 L 257.236 304.54 Z " fill-rule="evenodd" fill="rgb(255,174,174)"/></g></g><g><clipPath id="_clipPath_td2sUOX4ytKTgcWOldl3aaOOK0DLaHdX"><path d=" M 289.88 419.689 L 330.509 419.689 L 330.509 443.231 L 289.88 443.231 L 289.88 419.689 Z " fill="rgb(255,255,255)"/></clipPath><g clip-path="url(#_clipPath_td2sUOX4ytKTgcWOldl3aaOOK0DLaHdX)"><path d=" M 329.454 437.931 C 328.402 435.997 321.624 430.891 316.781 426.854 C 318.437 428.24 317.446 433.333 308.079 429.745 C 298.713 426.157 294.312 418.797 294.305 418.866 C 294.084 420.949 292.376 423.611 292.376 426.405 C 292.376 429.199 292.846 431.74 297.365 433.565 C 301.688 435.312 305.346 437.756 310.667 440.55 C 315.987 443.345 320.31 443.52 323.635 442.821 C 326.961 442.123 330.691 440.205 329.454 437.931 Z " fill-rule="evenodd" fill="rgb(233,238,251)"/></g></g><path d=" M 232.254 133.436 C 229.952 132.431 219.079 144.828 215.159 157.911 C 211.542 169.98 213.843 173.333 213.843 173.333 C 213.843 173.333 223.048 188.42 225.35 193.113 C 227.651 197.807 229.661 202.397 229.952 206.86 C 230.61 216.918 226.343 224.429 226.007 234.351 C 225.678 244.074 228.637 254.132 235.87 268.213 C 243.103 282.294 239.101 286.942 239.486 296.375 C 239.815 304.422 242.116 307.774 242.116 307.774 C 242.116 307.774 259.54 313.809 284.855 303.752 C 310.169 293.693 325.331 288.718 339.428 277.936 C 347.318 271.901 349.948 266.201 349.948 266.201 C 349.948 266.201 342.903 251.585 320.36 237.369 C 295.375 221.611 269.621 210.657 263.485 200.489 C 260.855 196.131 255.491 180.022 256.911 171.321 C 258.357 162.459 261.602 155.13 256.581 148.524 C 251.547 141.899 237.701 135.818 232.254 133.436" fill-rule="evenodd" fill="rgb(66,66,108)"/><path d=" M 270.693 252.611 C 276.817 260.041 287.755 272.199 311.817 286.158 C 311.817 286.158 300.223 286.834 292.13 293.363 C 284.08 299.856 282.506 303.494 282.506 303.494 C 282.506 303.494 273.974 260.941 270.693 252.612 M 231.066 154.644 C 231.234 155.147 235.784 162.189 243.029 162.356 L 232.246 167.554 L 231.066 154.644 L 231.066 154.644 Z " fill-rule="evenodd" fill="rgb(43,43,81)"/><path d=" M 215.283 115.335 C 210.665 114.33 202.654 117.356 202.654 127.233 C 202.654 134.194 206.153 152.821 215.557 168.758 C 224.961 184.695 226.054 184.021 227.586 184.246 C 229.116 184.471 239.907 182.387 255.798 174.594 C 270.56 167.355 279.582 163.988 284.392 163.315 C 289.204 162.641 292.431 161.632 296.695 157.086 C 299.063 154.561 299.975 152.596 299.975 152.596 C 299.975 152.596 300.795 151.531 301.123 153.719 C 301.359 155.288 300.483 156.332 301.451 156.581 C 302.764 156.917 304.278 154.595 304.786 151.025 C 305.234 147.885 305.387 146.893 303.748 144.965 C 301.123 141.879 298.773 140.7 298.007 140.364 C 297.241 140.027 295.656 138.68 292.813 141.373 C 289.97 144.067 287.564 147.041 286.033 149.51 C 284.503 151.98 282.752 154.224 279.199 155.29 C 273.547 156.987 260.445 158.601 250.986 160.453 C 244.937 161.637 235.568 163.034 233.381 163.483 C 231.195 163.932 233.272 158.208 228.023 144.292 C 226.434 140.079 224.906 136.884 223.813 131.721 C 222.719 126.559 222.501 116.906 215.283 115.335" fill-rule="evenodd" fill="rgb(255,174,174)"/><path d=" M 227.822 90.36 C 230.31 100.8 228.263 113.657 220.527 115.641 C 212.79 117.624 205.058 108.419 201.882 98.177 C 199.612 90.858 202.739 82.696 210.475 80.713 C 218.212 78.729 226.039 82.875 227.822 90.36 Z " fill-rule="evenodd" fill="rgb(255,174,174)"/><g><clipPath id="_clipPath_9gK6LQu3mnURfUGKgPzbe1JLirludnxG"><path d=" M 215.447 80.537 C 214.127 80.537 212.777 80.702 211.431 81.048 C 203.431 83.093 200.2 91.514 202.547 99.063 C 204.044 103.882 206.523 108.48 209.536 111.861 C 217.753 108.731 224.897 103.347 230.25 96.441 C 230.088 94.607 229.793 92.788 229.368 90.998 C 227.835 84.576 221.978 80.537 215.448 80.537 L 215.446 80.537" fill="rgb(255,255,255)"/></clipPath><g clip-path="url(#_clipPath_9gK6LQu3mnURfUGKgPzbe1JLirludnxG)"><radialGradient id="_rgradient_0" fx="-0.31152" fy="-0.45844999999999997" cx="-0.31152" cy="-0.45844999999999997" r="1.6733099999999999" gradientTransform="matrix(28.452,0,0,31.324,201.799,80.537)" gradientUnits="userSpaceOnUse"><stop offset="0%" stop-opacity="1" style="stop-color:rgb(255,232,232)"/><stop offset="100%" stop-opacity="1" style="stop-color:rgb(253,172,172)"/></radialGradient><path d=" M 215.447 80.537 C 214.127 80.537 212.777 80.702 211.431 81.048 C 203.431 83.093 200.2 91.514 202.547 99.063 C 204.044 103.882 206.523 108.48 209.536 111.861 C 217.753 108.731 224.897 103.347 230.25 96.441 C 230.088 94.607 229.793 92.788 229.368 90.998 C 227.835 84.576 221.978 80.537 215.448 80.537 L 215.446 80.537" fill-rule="evenodd" fill="url(#_rgradient_0)"/></g></g><g><path d=" M 228.412 91.753 C 225.794 87.705 220.019 85.188 212.208 87.199 C 204.397 89.211 201.733 96.306 202.223 99.679 C 199.932 92.259 203.088 83.984 210.899 81.972 C 218.71 79.96 226.612 84.164 228.412 91.753" fill-rule="evenodd" fill="rgb(255,174,174)"/><path d=" M 246.359 145.197 C 246.359 145.197 249.317 148.311 248.894 152.091 C 248.472 155.871 246.782 158.095 246.782 158.095 C 246.782 158.095 250.585 157.428 251.43 154.093 C 252.275 150.757 249.739 147.867 246.359 145.198 M 229.781 211.899 C 229.781 211.899 255.727 212.853 268.044 207.135 L 265.783 204.75 C 264.811 203.727 263.961 202.591 263.25 201.366 L 261.914 199.062 C 261.914 199.062 259.827 200.063 249.652 201.136 C 238.484 202.313 228.412 201.921 228.412 201.921 L 229.014 204.724 C 229.31 206.208 229.504 207.892 229.609 209.403 L 229.781 211.899 L 229.781 211.899 Z  M 239.152 296.357 C 239.481 304.491 241.792 307.881 241.792 307.881 C 241.792 307.881 247.356 309.819 256.764 309.687 C 250.913 296.833 244.766 283.918 237.322 271.761 C 242.043 283.074 238.802 287.744 239.152 296.357 M 341.569 276.379 C 347.442 271.221 349.486 266.815 349.486 266.815 C 349.486 266.815 342.45 252.258 319.938 238.1 C 303.859 227.987 287.471 219.862 276.206 212.652 C 299.356 232.576 323.749 251.651 341.569 276.379 Z  M 181.109 240.427 L 182.425 240.03 C 182.425 240.03 183.54 244.527 185.635 250.61 C 187.067 254.77 189.614 259.268 190.277 260.4 L 189.507 260.905 C 188.389 261.639 186.926 261.234 186.286 260.012 C 185.116 257.776 183.504 254.413 182.531 251.714 C 181.389 248.545 180.409 244.889 179.87 242.753 C 179.617 241.745 180.168 240.711 181.109 240.427 Z " fill-rule="evenodd" fill="rgb(43,43,81)"/><path d=" M 167.845 120.162 C 167.845 120.162 167.209 122.728 167.102 124.529 C 166.997 126.33 167.315 128.294 167.315 128.294 C 167.315 128.294 164.985 130.629 162.812 132.497 C 161.859 133.315 160.807 134.322 160.27 134.516 C 159.773 134.695 159.529 134.472 159.649 133.944 C 160.051 132.192 161.594 126.384 166.043 121.472 C 166.6 120.857 167.261 120.217 167.844 120.162 M 142.172 151.845 L 144.659 152.026 L 145.411 149.197 L 142.346 148.991 L 141.691 151.209 C 141.604 151.507 141.829 151.806 142.172 151.845 Z  M 174.094 149.75 L 173.83 152.684 C 173.811 152.86 173.861 153.037 173.971 153.175 C 174.08 153.313 174.239 153.402 174.412 153.421 L 183.298 154.298 C 183.802 154.347 184.249 153.963 184.295 153.44 L 184.1 150.437 L 174.094 149.75 Z " fill-rule="evenodd" fill="rgb(233,238,251)"/><path d=" M 105.901 180.441 C 104.408 183.487 100.696 184.757 97.652 183.261 L 73.333 171.318 C 70.29 169.824 69.022 166.108 70.514 163.061 C 72.008 160.014 75.721 158.745 78.764 160.239 L 103.083 172.184 C 106.127 173.677 107.395 177.393 105.901 180.441" fill-rule="evenodd" fill="rgb(66,66,108)"/><path d=" M 103.788 179.624 C 102.606 182.051 99.665 183.063 97.254 181.872 L 72.617 169.699 C 70.206 168.508 69.202 165.547 70.384 163.119 C 71.567 160.691 74.507 159.68 76.919 160.871 L 101.555 173.043 C 103.967 174.234 104.971 177.195 103.788 179.624" fill-rule="evenodd" fill="rgb(233,238,251)"/><path d=" M 77.366 165.302 C 77.365 166.007 77.089 166.683 76.598 167.181 C 76.107 167.679 75.442 167.958 74.748 167.957 C 73.304 167.958 72.133 166.77 72.132 165.302 C 72.133 163.835 73.304 162.646 74.748 162.647 C 76.192 162.646 77.364 163.834 77.366 165.301" fill-rule="evenodd" fill="rgb(66,66,108)"/><path d=" M 75.765 165.831 C 75.644 166.088 75.427 166.285 75.163 166.38 C 74.898 166.474 74.607 166.457 74.355 166.333 L 45.808 151.798 C 45.283 151.536 45.064 150.894 45.317 150.358 C 45.438 150.101 45.655 149.904 45.919 149.809 C 46.184 149.715 46.475 149.732 46.727 149.856 L 75.274 164.39 C 75.796 164.648 76.019 165.296 75.765 165.831" fill-rule="evenodd" fill="rgb(66,66,108)"/><path d=" M 48.855 152.181 C 48.622 152.711 48.038 152.934 47.556 152.678 L 45.76 151.781 C 45.278 151.526 45.076 150.883 45.308 150.353 C 45.54 149.823 46.124 149.6 46.606 149.856 L 48.402 150.753 C 48.884 151.009 49.087 151.652 48.855 152.181 Z " fill-rule="evenodd" fill="rgb(43,43,81)"/><path d=" M 314.405 149.772 L 299.449 155.06 L 300.625 153.143 L 313.788 148.233 L 314.405 149.772 Z " fill-rule="evenodd" fill="rgb(63,56,72)"/><path d=" M 34.744 106.965 C 34.744 106.965 39.722 108.332 42.349 107.959 C 44.565 107.646 45.96 104.23 45.96 104.23 L 34.744 106.965 Z  M 74.374 93.088 C 74.7 93.172 99.299 102.601 117.789 104.957 C 119.648 105.194 120.884 104.116 120.721 102.179 C 120.403 98.405 117.951 91.237 108.911 88.122 C 100.455 85.209 97.67 83.998 93.109 82.23 L 74.374 93.088 Z " fill-rule="evenodd" fill="rgb(233,238,251)"/><path d=" M 15.302 97.349 C 15.302 97.349 22.975 108.024 30.756 108.024 C 38.538 108.024 63.966 100.72 79.42 92.068 C 94.875 83.414 109.343 70.83 110.658 67.795 C 111.973 64.762 109.567 61.44 104.849 61.052 C 96.628 60.379 88.737 64.986 80.188 71.391 C 71.638 77.796 64.733 81.954 56.294 87.46 C 48.063 92.83 40.072 98.135 35.25 97.91 C 30.427 97.686 26.81 95.213 24.947 94.202 C 23.084 93.19 21.149 93.077 19.137 94.315 C 17.754 95.181 16.468 96.198 15.302 97.348" fill-rule="evenodd" fill="rgb(255,255,255)"/><path d=" M 89.249 70.759 C 91.855 71.658 100.775 65.662 107.276 61.546 C 106.572 61.299 105.788 61.126 104.924 61.054 C 99.205 60.582 93.645 62.647 87.919 66.102 C 87.83 67.924 87.494 70.154 89.249 70.759 Z  M 30.445 103.521 C 28.452 104.296 27.091 104.485 25.413 103.842 C 22.195 102.607 20.83 100.949 20.606 99.984 C 20.383 99.019 20.606 98.162 22.618 98.162 C 24.63 98.162 32.122 99.448 33.575 99.555 C 35.028 99.662 36.164 100.544 35.028 101.269 C 33.352 102.342 32.518 102.714 30.445 103.521 M 62.347 86.59 C 62.347 86.59 38.398 73.976 24.115 58.885 C 24.115 58.885 21.67 55.928 26.751 54.83 C 31.812 53.737 45.044 53.028 57.513 60.686 C 62.169 63.546 66.279 66.483 69.818 68.796 C 75.421 72.456 78.387 74.371 79.486 75.102 C 79.486 75.102 79.92 75.712 79.156 76.51 C 77.476 78.266 72.763 82.212 64.106 86.421 C 63.551 86.69 62.897 86.984 62.347 86.59" fill-rule="evenodd" fill="rgb(233,238,251)"/><path d=" M 301.831 155.406 L 325.29 141.405 L 325.621 143.119 L 301.693 156.578 L 301.831 155.406 Z " fill-rule="evenodd" fill="rgb(36,71,141)"/><path d=" M 300.945 153.309 L 324.547 141.405 L 324.873 143.058 L 301.271 154.302 L 300.945 153.309 Z " fill-rule="evenodd" fill="rgb(36,71,141)"/><path d=" M 319.639 150.706 L 299.45 155.06 L 300.599 153.318 L 319.639 148.991 L 319.639 150.706 Z " fill-rule="evenodd" fill="rgb(63,56,72)"/><path d=" M 298.701 155.799 L 319.639 164.923 L 318.684 162.246 L 299.779 154.302 L 298.701 155.799 Z " fill-rule="evenodd" fill="rgb(238,133,79)"/><path d=" M 299.45 155.594 L 315.9 159.612 L 315.621 157.589 L 300.316 154.302 L 299.45 155.594 Z " fill-rule="evenodd" fill="rgb(238,133,79)"/><path d=" M 268.14 238.837 L 269.369 226.616 C 269.403 226.287 269.873 226.296 269.895 226.626 L 270.893 241.765 C 271.194 246.336 271.138 250.795 272.848 255.027 L 275.521 258.996 L 271.794 255.443 L 268.949 246.559 C 268.153 244.07 267.878 241.439 268.14 238.836 M 294.089 228.584 C 294.089 228.584 319.807 251.172 330.138 283.966 C 330.138 283.966 331.896 282.85 333.243 282.013 C 334.59 281.176 335.963 280.089 335.963 280.089 C 335.963 280.089 329.533 264.389 320.302 253.347 C 311.069 242.304 294.089 228.584 294.089 228.584 Z  M 237.087 268.072 C 237.087 268.072 242.78 275.189 253.523 287.833 C 264.266 300.478 272.467 307.305 272.467 307.305 C 272.467 307.305 269.542 307.979 267.738 308.289 C 265.933 308.598 263.064 308.936 263.064 308.936 C 263.064 308.936 257.542 301.405 250.571 290.868 C 243.6 280.331 236.626 268.434 236.626 268.434 C 236.429 268.123 236.848 267.795 237.087 268.072" fill-rule="evenodd" fill="rgb(43,43,81)"/><path d=" M 275.458 271.827 C 275.458 271.827 280.847 289.93 289.665 297.641 L 278.67 305.966 L 275.458 271.827 L 275.458 271.827 Z " fill-rule="evenodd" fill="rgb(66,66,108)"/><path d=" M 159.5 162.333 C 159.338 162.885 158.776 162.652 158.885 162.078 C 160.112 155.582 162.681 144.775 163.18 142.112 C 163.506 140.377 164.924 138.257 165.913 137.652 C 166.182 137.487 166.434 137.858 166.321 138.245 L 159.5 162.332 L 159.5 162.333 Z " fill-rule="evenodd" fill="rgb(233,238,251)"/></g><g><clipPath id="_clipPath_UlffvGjJxkMfQhrChpeGxlMzqp8gFgXg"><path d=" M 170.227 86.766 C 176.127 95.501 184.452 102.254 194.141 106.164 C 196.535 102.329 198.314 97.633 199.162 92.953 C 201.275 81.3 201.768 75.317 188.464 73.452 C 186.881 73.231 185.429 73.119 184.097 73.119 C 175.821 73.119 172.124 77.449 170.227 86.766 Z " fill="rgb(255,255,255)"/></clipPath><g clip-path="url(#_clipPath_UlffvGjJxkMfQhrChpeGxlMzqp8gFgXg)"><radialGradient id="_rgradient_1" fx="1.4414699999999998" fy="-0.48664999999999997" cx="1.4414699999999998" cy="-0.48664999999999997" r="1.74269" gradientTransform="matrix(30.071,0,0,33.046,170.227,73.119)" gradientUnits="userSpaceOnUse"><stop offset="0%" stop-opacity="1" style="stop-color:rgb(255,232,232)"/><stop offset="100%" stop-opacity="1" style="stop-color:rgb(253,172,172)"/></radialGradient><path d=" M 170.227 86.766 C 176.127 95.501 184.452 102.254 194.141 106.164 C 196.535 102.329 198.314 97.633 199.162 92.953 C 201.275 81.3 201.768 75.317 188.464 73.452 C 186.881 73.231 185.429 73.119 184.097 73.119 C 175.821 73.119 172.124 77.449 170.227 86.766 Z " fill-rule="evenodd" fill="url(#_rgradient_1)"/></g></g><path d=" M 174.283 78.064 C 174.283 78.064 173.273 84.134 172.446 86.271 C 171.936 87.59 170.058 89.605 170.058 89.605 L 169.416 84.818 L 174.283 78.064 Z " fill-rule="evenodd" fill="rgb(48,48,48)"/></g></g></g></g></svg>