<svg xmlns="http://www.w3.org/2000/svg" xmlns:xlink="http://www.w3.org/1999/xlink" viewBox="0 0 726.51 454.78"><defs><style>.cls-1{isolation:isolate;}.cls-2{fill:#c7cbd8;}.cls-3{fill:#e09595;}.cls-4{fill:#2474cd;}.cls-5{fill:#245ead;}.cls-6{fill:#2469bd;}.cls-7{fill:#ff7e59;}.cls-8{fill:#23478d;}.cls-9{fill:url(#radial-gradient);}.cls-10{fill:#ffeda6;}.cls-11{fill:#423748;}.cls-12{fill:#ffaeae;}.cls-13{fill:url(#radial-gradient-2);}.cls-14,.cls-19{fill:#42426c;}.cls-14,.cls-15,.cls-16{opacity:0.2;}.cls-14,.cls-15,.cls-16,.cls-23{mix-blend-mode:multiply;}.cls-15{fill:#7582b8;}.cls-16{fill:#2b2b50;}.cls-17{fill:url(#radial-gradient-3);}.cls-18{fill:url(#radial-gradient-4);}.cls-20{fill:#658ee7;}.cls-21{fill:#d8ddea;}.cls-22,.cls-23{fill:#2b2b51;}</style><radialGradient id="radial-gradient" cx="357.58" cy="124.13" r="175.51" gradientUnits="userSpaceOnUse"><stop offset="0" stop-color="#e09595"/><stop offset="0.44" stop-color="#ea9d9d"/><stop offset="1" stop-color="#feadad"/></radialGradient><radialGradient id="radial-gradient-2" cx="364" cy="155.79" r="129.66" gradientUnits="userSpaceOnUse"><stop offset="0" stop-color="#ffe8e8"/><stop offset="0.26" stop-color="#ffdede"/><stop offset="0.72" stop-color="#fec2c2"/><stop offset="1" stop-color="#feadad"/></radialGradient><radialGradient id="radial-gradient-3" cx="336.3" cy="207.2" r="117.82" xlink:href="#radial-gradient"/><radialGradient id="radial-gradient-4" cx="498.25" cy="189.79" r="183.9" xlink:href="#radial-gradient-2"/></defs><title>Asset 1</title><g class="cls-1"><g id="Layer_2" data-name="Layer 2"><g id="recoloured"><path id="_Path_" data-name="&lt;Path&gt;" class="cls-2" d="M575.46,262.21l15.22-89.08-9,1.41a4,4,0,0,0-3.08,3.29l-16,85.29Z"/><path id="_Path_2" data-name="&lt;Path&gt;" class="cls-3" d="M567.42,262.71s-7.33-10.17-9.33-12.5c-3-3.53-4.83-4.5-10-3.83s-10.84,2.12-15.5,2.83a10.26,10.26,0,0,1-6-.73c-6-2.27-17.79-12.61-36-21.69-3.61-1.79-4.94-3.45-6.33-7.67-8.17-24.75-12.83-41-12.83-41l-22.08,7.38-13.08,20s13,28.57,19.67,39.33c6,9.67,10.6,11.37,21.42,14.08,15.58,3.92,37.17,6.42,48.42,6.92,3.21.14,6.74-.37,11.83-.67C541.84,264.88,567.42,262.71,567.42,262.71Z"/><path id="_Path_3" data-name="&lt;Path&gt;" class="cls-4" d="M605.92,328.14c-2.67-6.17-7.33-15.79,2.67-23.63,4.94-3.87,7.85-9.69,9-11.59,2.32-3.9,7.11-9.91,14.36-9.46,10.67.67,11.33,24.67,16,24.67s16.17-24,28.67-22.67c11.48,1.22,14,9.33,18,22.67s6.67,20.67,1.33,26-10.67,6.67-9.33,9.33,19.67-1.33,22.5,5.67c2.14,5.28-.83,10.83-14.5,15l-84.67-22.67A72.09,72.09,0,0,0,605.92,328.14Z"/><path id="_Path_4" data-name="&lt;Path&gt;" class="cls-5" d="M108.58,358.13s-57.5-47.87-44.5-85.5c12.8-37.06,43,17,53,14s5.5-27.17,21.5-32.17,30,26.67,34,77.67Z"/><path id="_Path_5" data-name="&lt;Path&gt;" class="cls-6" d="M80.58,363.13c-7.25.25-28.13-12-28-24.33.13-13,18.88-.5,25-1,2.15-.18-.67-4.67-1.37-13.17-.89-10.72,1.13-22.17,7.88-25.5,12.07-6,19,7,20.5,16.5a121.26,121.26,0,0,1,1.5,17s6.5-19.5,14-19.5,0,21,0,21,3.88-2.62,7-.87a5,5,0,0,1,2.39,3.57c.14.72.93.84,1.56.47,2.18-1.29,6.05-2,8.55-.67,6.86,3.77,4,9.5,4,9.5S87.83,362.88,80.58,363.13Z"/><path id="_Path_6" data-name="&lt;Path&gt;" class="cls-7" d="M114.92,386.46c53.5.25,174-1.33,288.67-1.83,110-.48,311.83-7,317.5-7.5s6.91-3,3.67-4.17c-8.67-3-12.67-5.16-28.92-10.08-12.09-3.66-44.53-13.29-59.58-18.42-22-7.5-31-10.5-43.17-11.33s-336.5-10.5-336.5-10.5l-97.5,13s-28,9-67.75,20.75C62,365,19.08,378.63,24.08,380.88,34.87,385.73,61.42,386.21,114.92,386.46Z"/><path class="cls-8" d="M400.91,289.47c1.81-.81,29.05-6.33,48.34-9.86,24.27-4.44,53.44-5.46,63.83-6.48,61.36-6,67.75,10.75,69.5,23,3.82,26.7-15.75,33.71-15.75,33.71l-88.75,5Z"/><path id="_Path_7" data-name="&lt;Path&gt;" class="cls-5" d="M350.05,306.79s-3.67,27,8.67,39.67,32.19,12.33,65.67,11.33c22.71-.67,54.18-5.46,92.2-17.63,20-6.42,50.82-3.65,50.83-21.83,0-30.71-28.38-43.52-47.83-42.6-8.88.42-29.3,3.44-64.14,7.59-13,1.55-36.53,3.79-65.06,7.47A89.48,89.48,0,0,0,350.05,306.79Z"/><path id="_Path_8" data-name="&lt;Path&gt;" class="cls-9" d="M316.25,199.79a180.25,180.25,0,0,1,5.33,26.67c2,15.67,3.46,23.21,9.46,45.21s12,46,12,46l16.5,4.17L351,206.92l-19.87-24Z"/><path id="_Path_9" data-name="&lt;Path&gt;" class="cls-10" d="M450.25,186.79l22.4-7.57a1.27,1.27,0,0,0,.78-1.66c-2.66-6.81-13-39.05-18.85-48.1-8-12.33-15.67-15.33-24.33-17.67Z"/><path id="_Path_10" data-name="&lt;Path&gt;" class="cls-11" d="M228.5,119.79c-7.5-5.33-10.83-17-4.17-29s15.81-13.69,18.25-32.17c3-22.67,7.73-30.48,18.08-40.83,10.67-10.67,28.78-16.46,45.67-11,21.67,7,22.33,24.44,20.67,36.33-2,14.33-2.17,20.5,2,30.67,6.46,15.75,11.55,25.22,1,36a22.3,22.3,0,0,1-17.33,6.67Z"/><path id="_Path_11" data-name="&lt;Path&gt;" class="cls-12" d="M265.58,66c-4,35.42-6.5,42.58-27,50.83,0,0,11.33,41.58,64.33,44.92s45.67-13.67,45.67-13.67-.65-24.2-3.33-33c-3.67-12-14.58-13.17-25.25-10.25-6,1.63-12.08,3.58-16.17,3a4.85,4.85,0,0,1-4.17-3.83c-1-6.33.25-9,.25-9S267.53,48.85,265.58,66Z"/><path id="_Path_12" data-name="&lt;Path&gt;" class="cls-13" d="M322.33,60.46c-.67,28.67-11.56,43.44-26.33,40.67-21.33-4-27.67-14.67-31.67-41-3.41-22.48,11.4-36.33,28.33-36.33S323.17,24.46,322.33,60.46Z"/><path id="_Path_13" data-name="&lt;Path&gt;" class="cls-5" d="M166.25,258.46s23.41-36.52,29-55.67c3.33-11.42,6.42-19.63,7.67-44.83.67-13.5-1-29.83,24.58-38.58a66.29,66.29,0,0,1,12.33-3s10,14.75,39.75,26.08c30.67,11.67,55,8,55,8s10.21,25.58-3.67,46.33c-10.3,15.4-30.48,11.68-52.51,46.67-11.33,18-16.8,38.82-16.8,38.82Z"/><path class="cls-14" d="M326.21,133s.89,6.27,6.42,17.87c4.51,9.44,2.66,18.8,2.82,23.81l4.93-23.41Z"/><path id="_Path_14" data-name="&lt;Path&gt;" class="cls-11" d="M312,18.46c1.52,3-.51,19-17.33,30.67-14.16,9.8-25.33,8-25.33,8l-9.19-10.8s4.36-23.53,25.69-26.2S312,18.46,312,18.46Z"/><path class="cls-12" d="M269.67,55.79c1.6,5.67,3.21,11-.33,12s-9.48-2.85-11.08-8.52,1.21-11.81,4.75-12.82S268.06,50.13,269.67,55.79Z"/><path id="_Path_15" data-name="&lt;Path&gt;" class="cls-15" d="M449.25,187.13,464.5,182s-9.68-26.12-11.11-30.35a40,40,0,0,1-1.93-13.11c-1.5,3.75-2,10.48-2,11.63Z"/><g id="_Group_" data-name="&lt;Group&gt;"><path id="_Path_16" data-name="&lt;Path&gt;" class="cls-8" d="M313.75,196.29a29.33,29.33,0,0,1-1-4.83c-.25-2.1-1.56-2.41-2.33.33-2.5,8.83-6.5,12.33-15.63,18.35-3.5,2-7.55,2.88-10.54,5-20,14-35.17,43.88-35.17,43.88a53.31,53.31,0,0,1,16.34,28.62c6.38-22.87,17.17-45.92,38.83-67.33a95.74,95.74,0,0,1,12-9.83c4.83-3.5,9.92-7.54,12.08-10.33,12.08-15.58,11.42-32.75,13.23-39.26-2.32,8.35-8.44,28-22.56,36.18C316.25,198.63,314.36,198.43,313.75,196.29Z"/><path id="_Path_17" data-name="&lt;Path&gt;" class="cls-16" d="M341.56,160.87a16.23,16.23,0,0,1,1-1.74A14.31,14.31,0,0,0,341.56,160.87Z"/></g><path id="_Path_18" data-name="&lt;Path&gt;" class="cls-10" d="M381.25,107.13s-17.67,7-25,10.67c-8.14,4.07-17.67,10.67-21.67,27-3.41,13.91-5.75,38.57-6.18,45.55a4.39,4.39,0,0,0,1.18,3.28l20.33,20.83s-1.67,60,2.67,92c0,0,17.5-13,82.66-20.91,0-8.33,1.34-36.09,3-42.76,6.85-27.4,14.67-36,17-62.33,1.53-17.29-6.33-43.33-12-59.67-2.36-6.81-10.5-9.33-25.5-11.33C409.9,108.41,381.25,107.13,381.25,107.13Z"/><path id="_Path_19" data-name="&lt;Path&gt;" class="cls-15" d="M349.66,252.76c.2,18.08.91,38.89,2.92,53.7,0,0,5.68-3.31,22.19-8.75,16.59-18.84,36.79-34.83,61.77-39.4.07-1.12.15-2.22.23-3.3C407.53,255.72,378.4,257.26,349.66,252.76Z"/><path id="_Path_20" data-name="&lt;Path&gt;" class="cls-15" d="M379.74,164.8l.47,29.82-9,44.5,51.83,8.75-23-12.25a25.53,25.53,0,0,1-13.8-19.95l-5.63-50.93A.46.46,0,0,0,379.74,164.8Z"/><path id="_Path_21" data-name="&lt;Path&gt;" class="cls-8" d="M231.58,188.63,213.9,163.47c-1.07-1.39-2.31,1.32-.65,9.65,2.45,12.25,4.33,24.67,4.33,24.67Z"/><path id="_Path_22" data-name="&lt;Path&gt;" class="cls-17" d="M331.61,192.56a1.28,1.28,0,0,0-1.21,1.25c-.12,8.19,3.41,56.52,4.93,67.19,1.14,7.95,4.71,12.5,11.75,13.63,17.67,2.83,39,2.66,57,1.5,23.17-1.5,57-5.5,57-5.5l-3.33-19s-23.67-3.17-42.67-8c-24.73-6.29-38.5-7.5-38.5-7.5l1.17-40.79S364.41,190.74,331.61,192.56Z"/><path id="_Path_23" data-name="&lt;Path&gt;" class="cls-11" d="M369.92,59.13s-9-4.67-11.33-24.33c-2.47-20.79,16.33-31,23.67-32.67,6.53-1.48,12.79-2.5,19-2a33.79,33.79,0,0,1,19.33,7.67c5.67,5,7.95,9,8.33,18.67.33,8.33,0,18.67,0,18.67Z"/><path id="_Path_24" data-name="&lt;Path&gt;" class="cls-12" d="M372.92,67.79s9.33,27,3.67,41.33c0,0,29.33,22,42.67,18.33s3.33-15.83,3.33-15.83a66.63,66.63,0,0,1-5-22Z"/><path class="cls-18" d="M429.58,44.63c3,24,1.51,53.75-20.14,54.78-21.86,1-35.86-15.28-40.86-44.78-3.95-23.28,9.72-36.83,25.62-39.52S426.65,21.2,429.58,44.63Z"/><path id="_Path_25" data-name="&lt;Path&gt;" class="cls-11" d="M391.75,11.54c-14.2,4.67-25.42,14.83-25.42,14.83l-1.25,25.25,7.38,10.88c2-1.62,2.54-4.59,2-7.11-2.12-9.76-1.87-8.47-1.87-13a16.09,16.09,0,0,1,.33-3.17,5,5,0,0,1,7-3.54c7.35,3.23,15.75,7,23.7,6.8,16-.5,12.58-7.5,15.33-10s4.33-2.17,4.58-6.67C423.75,24.79,411.5,5,391.75,11.54Z"/><path class="cls-12" d="M370.7,57.37c2.11,5,6,14.72,3.55,15.76s-10.43-7-12.54-12-1.41-9.29.67-11C366.08,47.13,368.59,52.34,370.7,57.37Z"/><path class="cls-19" d="M572.24,270.39l-101.73,7.47a5,5,0,0,1-5.35-4.62l-.29-3,111.7-8.2.29,3A5,5,0,0,1,572.24,270.39Z"/><path class="cls-19" d="M595.72,179.16l-14.44,79.19a5,5,0,0,1-5.82,4l-1-.21,16.24-89,1,.21A5,5,0,0,1,595.72,179.16Z"/><path id="_Path_26" data-name="&lt;Path&gt;" class="cls-12" d="M254.58,209.38s33.33,35,38.33,38.92c7,5.5,11,2.88,18.67.33,16-5.33,21.43-8.1,43-19.5,17.67-9.33,32.5-16,32.5-16l-8.25-15.5s-13.25,5.5-40.75,11.5c-16.73,3.65-22.3,4.75-27.83,5.67-2.14.35-3.88-1.26-5.37-2.51l-28.55-34.74Z"/><path id="_Path_27" data-name="&lt;Path&gt;" class="cls-12" d="M500.82,361.08c-6.8-1.51-16.26-9-9.68-18.29,6.33-9,25.35-7.11,34.25-8.51,18.5-2.91,21.68-7.07,36.5-11.65,18.33-5.67,29.08-5.19,31.25,1.53,2.75,8.48-2.85,11.66-6.32,22-3,8.8-9.44,12.48-25.94,14.11-18,1.78-29.68,1.24-39,1.58C512.19,362.15,508.69,362.83,500.82,361.08Z"/><path id="_Path_28" data-name="&lt;Path&gt;" class="cls-4" d="M12.27,387.23C3.32,381.8-5,371.2,3.67,364c5.91-4.89,17.89,3.76,23.91,3.11,7-.75,7.33-16,18.22-16,12.08,0,11.78,17.09,11.78,26,0,5.28-3.48,15.88-12.67,18C36.25,397.13,24.31,394.54,12.27,387.23Z"/><path id="_Path_29" data-name="&lt;Path&gt;" class="cls-4" d="M146.08,440.13c-3.62,2-12.87,1.88-18.88-4.5-4.85-5.16-5.93-10.1-2.12-12,2.75-1.37,6.43-.16,8.88,1,2.14,1,2.57,1.13,4-.75,2.07-2.73,5.6-5.36,9.13-4.75C152.83,420.13,154.68,435.38,146.08,440.13Z"/><path id="_Path_30" data-name="&lt;Path&gt;" class="cls-20" d="M165.83,454.38c-3.12-.75-7.37-3.46-5.75-13.12,1.37-8.18,6.3-8.77,9.5-4.62,2.13,2.75,2.37,5.46,3.25,5.13s2.5-2.12,5.38-2.37c4.47-.39,5.63,4.25,3.63,7.13C176.39,454.32,170.94,455.6,165.83,454.38Z"/><path id="_Path_31" data-name="&lt;Path&gt;" class="cls-20" d="M287.46,409.13c-4.27-.45-5.75-4.5-5.62-7.12.16-3.28,3.25-3.87,4.53-2.45.88,1,1.78,3.44,2.59,2.7,1.5-1.37,4.21-4.41,6.25-1.5C297,403.25,293.46,409.75,287.46,409.13Z"/><path id="_Path_32" data-name="&lt;Path&gt;" class="cls-20" d="M365.58,434.38c-4.67,1-10-3.25-13.25-8.37-1.29-2-1.6-6.55,2.67-6.87,3.25-.25,5,2.21,6.58,3.38.75.55,1,.61,2.13-1.37,1.46-2.67,3.88-4.75,6.21-4.67,2.69.1,4.64,2,4,6C372.94,429.52,369.5,433.54,365.58,434.38Z"/><path id="_Path_33" data-name="&lt;Path&gt;" class="cls-20" d="M399.33,411.63c-.92.88-1.93,1-2.64,0-1.88-2.81-4.86-6-9.11-5.09-2,.42-4.6,3-1.68,9.91,2.18,5.14,5.64,10.56,10.43,11.72,5.5,1.33,11-2.07,14.75-7.37,5.5-7.71,2.51-12-1.5-12.62A12.4,12.4,0,0,0,399.33,411.63Z"/><path id="_Path_34" data-name="&lt;Path&gt;" class="cls-21" d="M378.54,102.79a5.27,5.27,0,0,1-.17-2.58,8,8,0,0,0-2,1.46c-1.52,1.71-2.22,3.47-4,5.83a46.93,46.93,0,0,1-3.57,4.13,2.2,2.2,0,0,0-.34,2.57c1.5,2.78,5.14,9.32,17,17.68,11.33,8,17.46,10.58,24.09,12.71,3,1,5.62.29,6.53-2.71a45.92,45.92,0,0,0,1.75-7c.75-4.62,1.08-7.42,1.08-7.42a75,75,0,0,1-24-9C384.49,112.43,379.92,105.8,378.54,102.79Z"/><path id="_Path_35" data-name="&lt;Path&gt;" class="cls-21" d="M429.14,139s-2.8-2.37-5.3-5a47.31,47.31,0,0,1-4.92-6.54,60.57,60.57,0,0,0,2.17-8.21c.75-4.48.81-10.08-1-14.71l-.25-1s1.35,1.46,3.23,3.65A46.49,46.49,0,0,1,426.4,111c4.31,6.75,5.28,20.41,5.47,26.91A1.56,1.56,0,0,1,429.14,139Z"/><path class="cls-4" d="M489.36,444.79c4.41.24,6.15-1.24,12.42-9.67a61.51,61.51,0,0,0,7.88-13.62c2.71-6.79.83-11.58-7-8.87-3.62,1.25-5.16,1.63-6.7,1.27-9-2.1-10.25,3-10.43,5-.62,7.13-2,5.25-2,5.25a9.37,9.37,0,0,0-7.25-3.75c-5-.25-8.18,3-5.62,7.13,2.71,4.38,4.25,8.57,6.54,11.54C480.86,443.79,484.78,444.54,489.36,444.79Z"/><path id="_Path_36" data-name="&lt;Path&gt;" class="cls-22" d="M392.08,200,401,169.79a3.45,3.45,0,0,1,2.63-2.4l19.54-3.94a1.51,1.51,0,0,1,1.75,1.89l-8,28.46Z"/><path class="cls-20" d="M637.58,414.12c3.51.26,6.62-2.57,9.51-6.74,5.09-7.36,1.07-9.56-.47-10.13-1.72-.64-5-.87-8.28,2.88,0,0-2.43-4.55-6.95-3.25-4.77,1.37-4.27,5.94-2.53,9.52C630.48,409.74,633.05,413.79,637.58,414.12Z"/><path class="cls-4" d="M490.08,444.79c5.35.9,11.28-1,15.45-4.17,7.13-5.42,6.21-9.46,5-10.67-2.33-2.33-5.93-1.35-8.88,2.19,0,0-.53-5.29-5.47-4.82s-7.21,3.2-6.3,6.25C491.51,439,484.73,443.9,490.08,444.79Z"/><path id="_Path_37" data-name="&lt;Path&gt;" class="cls-12" d="M375.83,198.42s26.42-11.21,32.75-13.63c3.53-1.35,5.83-4.29,8.83-7.17,3.32-3.18,5.79-5.75,5.79-5.75s3.55.94,2.63,6.25c-2.75,15.83-2.58,20.67-8.08,25.83-7,6.54-8.17,8.5-13.83,9.17-2.67.31-23.42,2.29-23.42,2.29Z"/><path id="_Path_38" data-name="&lt;Path&gt;" class="cls-12" d="M374.58,199.79s4-7.28,8-11c2.68-2.49,7.2-6.53,8.13-7.75,2.38-3.12,2.79-5.32,3.63-7.62.5-1.37,2.13-1.5,3,1a18.61,18.61,0,0,1,.63,6.13L395,190.84Z"/><path class="cls-3" d="M296.18,124.56l18.37-9.72a.84.84,0,0,0-.62-1.55,31.44,31.44,0,0,0-9.63,4.24C298.13,121.72,296.18,124.56,296.18,124.56Z"/><path class="cls-16" d="M271.93,126.22s-15-1.47-26.39-.31a1.52,1.52,0,0,1-1.16-2.67,9.67,9.67,0,0,1,6.71-2.18C257.63,121.39,271.93,126.22,271.93,126.22Z"/><path class="cls-8" d="M290.83,161a29,29,0,0,0,15.62-4.66c.44-.3.71.14.65.67a7,7,0,0,1-4.7,5.47c-3.25,1.17-8.67.59-11.6-.78C290.4,161.51,290.39,161,290.83,161Z"/><path id="_Path_39" data-name="&lt;Path&gt;" class="cls-3" d="M289.33,126.33a3.5,3.5,0,0,1-7,0c0-1.84,1.4.33,3.33.33S289.33,124.49,289.33,126.33Z"/><path id="_Path_40" data-name="&lt;Path&gt;" class="cls-19" d="M247.25,328.46l13.67-50.67s13.95,7.25,43,10.33c59.67,6.33,77.67,23.67,81.33,30.33,18.07,32.85-41-5.71-41.33-6.33Z"/><path id="_Path_41" data-name="&lt;Path&gt;" class="cls-23" d="M257.58,293.46l-12.67,30.33,56.33-15.33s-23.53,2.28-37,1C257.25,308.79,257.58,293.46,257.58,293.46Z"/><path id="_Path_42" data-name="&lt;Path&gt;" class="cls-22" d="M169.58,364.79s-42.33-20.67-25.33-68,79.12-121,96.83-133.67c10.5-7.5,19-12.89,32.83-6.33,14.86,7.05,15.67,17.83,12.33,35.67-1.87,10-28,99.67-32,118s-5.67,42-5.67,42Z"/><path id="_Path_43" data-name="&lt;Path&gt;" class="cls-23" d="M212.33,289.13s-.13,21.53-7.5,35.25c-12.58,23.42-28.25,27.75-35.25,30.42,14.84-1.67,47.73-2.69,56.89-5.22-3.57-20.12-7.28-40-11.47-60.39Z"/><path id="_Path_44" data-name="&lt;Path&gt;" class="cls-12" d="M176.58,348.46c-5-1.67-7-.17-11.33,2.17-2.54,1.37-4.11,1.36-8,1.22-7.34-1.16-13.33-5.15-20.89-3.41a16.45,16.45,0,0,0-6.08,2.77,12.86,12.86,0,0,1-5.88,2.28c-12.61,1.76-24.07,4.79-30.45,9-9.67,6.33-15.89,22.19-16.83,30.83-.83,7.67,4.08,9.69,9,10a29.28,29.28,0,0,0,13-2.67c33.82-14.52,82.17-27.83,82.17-27.83l4-21S181.58,350.13,176.58,348.46Z"/><path id="_Path_45" data-name="&lt;Path&gt;" class="cls-19" d="M182.25,350.46s38.33-19.67,65-29.67,52.47-16.21,91.17-12.5c20.83,2,42.83,2.17,47.83,11.5s6.67,26-6.67,36c-5.33,4-18,8.94-38.67,8.67-15.86-.21-38-.57-67.83-1.09-13.25-.23-16.28-3.53-31.73-2.1-15.21,1.4-24.4,5.26-29.07,6-19.88,3.19-32.36,5.85-32.36,5.85Z"/><path id="_Path_46" data-name="&lt;Path&gt;" class="cls-23" d="M214.92,300.13s-13-39.67-.33-74.33c.34-.94,5.67,21.67,4.33,27.33s-6,21-3,46.67"/><path class="cls-12" d="M223.5,368.79c-2.95-1.16-3.39-5.95,3.67-7.17,13.5-2.33,17.33-5.33,27.42-4.54,7.45.59,11.36,8.9,8,11.53C254.64,374.77,228.17,370.63,223.5,368.79Z"/><path id="_Path_47" data-name="&lt;Path&gt;" class="cls-12" d="M491.75,243.46l-12-2.9A16,16,0,0,0,468.55,242c-6.32,3.36-10.57,5.2-15.34,7.59-2.18,1.09-4.18.72-6.12.54l4.25,20.71a81.71,81.71,0,0,0,14.13,1c5.25-.12,9.07-.72,21.75-2.87,3.53-.6,14.13-1.08,18.38-1.83,0-3.12.25-5-4-14.5C499.84,248.75,496.08,244.46,491.75,243.46Z"/></g></g></g></svg>