<svg xmlns="http://www.w3.org/2000/svg" xmlns:xlink="http://www.w3.org/1999/xlink" width="683" height="683" viewBox="0 0 683 683">
    <defs>
        <path id="a" d="M.837.837H523v46.051H.837z"/>
        <path id="c" d="M0 12.292s2.474 8.012 3.958 19.424c1.483 11.411 2.566 16.905 7.019 32.93 4.451 16.025 8.934 33.476 8.934 33.476l12.243 3.035-6.338-83.675L11.07 0 0 12.292z"/>
        <radialGradient id="d" cx="95.386%" cy="-42.334%" r="399.4%" fx="95.386%" fy="-42.334%" gradientTransform="matrix(-.4969 .27584 -.8678 -.15795 1.06 -.753)">
            <stop offset="0%" stop-color="#DF9595"/>
            <stop offset="100%" stop-color="#FDACAC"/>
        </radialGradient>
        <path id="f" d="M1.195 26.198c2.95 18.989 7.621 26.68 23.355 29.564 10.898 1.998 18.931-8.653 19.423-29.324C44.59.483 34.583 0 22.093 0 9.6 0-1.324 9.99 1.195 26.198"/>
        <radialGradient id="g" cx="171.125%" cy="169.965%" r="218.629%" fx="171.125%" fy="169.965%" gradientTransform="scale(-1 -.77089) rotate(49.367 4.248 -3.976)">
            <stop offset="0%" stop-color="#FFE8E8"/>
            <stop offset="100%" stop-color="#FDACAC"/>
        </radialGradient>
        <path id="i" d="M.903.307c-.496.027-.893.42-.9.903-.09 5.91 2.535 40.775 3.668 48.47.844 5.734 3.505 9.015 8.736 9.829 13.135 2.044 29.014 1.922 42.378 1.082 17.224-1.082 42.377-3.967 42.377-3.967l-2.478-13.706s-17.595-2.284-31.721-5.772c-18.382-4.537-28.624-5.41-28.624-5.41l.868-29.425S28.29 0 11.825 0C8.564 0 4.933.09.903.307"/>
        <radialGradient id="j" cx="4.521%" cy="17.771%" r="139.624%" fx="4.521%" fy="17.771%" gradientTransform="matrix(.25204 .91634 -.57682 .4004 .136 .065)">
            <stop offset="0%" stop-color="#DF9595"/>
            <stop offset="100%" stop-color="#FDACAC"/>
        </radialGradient>
        <path id="l" d="M0 0h53.156v42.73H0z"/>
        <path id="n" d="M20.605 1.175C8.657 3.112-1.605 12.887 1.358 29.673c3.757 21.272 14.273 33.05 30.695 32.293 16.262-.749 17.38-22.198 15.127-39.504C45.234 7.517 35.285.837 24.742.838c-1.374 0-2.759.113-4.137.337"/>
        <radialGradient id="o" cx="207.388%" cy="206.503%" r="284.914%" fx="207.388%" fy="206.503%" gradientTransform="scale(-1 -.77196) rotate(53.177 4.735 -4.449)">
            <stop offset="0%" stop-color="#FFE8E8"/>
            <stop offset="100%" stop-color="#FDACAC"/>
        </radialGradient>
        <path id="q" d="M0 0h42.692v32.608H0z"/>
        <path id="s" d="M.837 0H17.58v15.05H.837z"/>
    </defs>
    <g fill="none" fill-rule="evenodd">
        <path fill-rule="nonzero" d="M0 0h683v683H0z"/>
        <path fill="#D8DDEA" d="M498.912 385.814L510.247 322l-6.713 1.01c-1.147.21-2.055 1.112-2.295 2.36l-11.912 61.101 9.585-.657z"/>
        <path fill="#E09595" d="M492.674 386.757s-5.426-7.28-6.906-8.952c-2.24-2.527-3.577-3.222-7.4-2.744-3.825.477-8.024 1.515-11.472 2.028-1.603.24-2.647.12-4.408-.521-4.472-1.627-13.168-9.027-26.674-15.532-2.667-1.284-3.658-2.473-4.686-5.49-6.044-17.723-9.498-29.36-9.498-29.36l-16.342 5.282-9.682 14.292s9.61 20.462 14.553 28.167c4.44 6.922 7.693 8.883 15.85 10.085 8.51 1.253 27.505 4.595 35.83 4.953 2.376.103 4.99-.262 8.758-.478 3.15-.18 22.077-1.73 22.077-1.73"/>
        <path fill="#8697D1" d="M513.061 431.865c-1.984-4.415-8.433-12.53-.992-18.138 3.677-2.771 7.74-3.94 10.306-4.43a5.769 5.769 0 0 0 3.818-2.642c1.728-2.792 5.289-7.094 10.681-6.77 7.938.477 8.434 17.66 11.906 17.66 3.473 0 12.031-17.183 21.333-16.228 8.542.877 10.418 6.682 13.395 16.229 2.976 9.546 4.96 14.796.991 18.615-3.968 3.818-7.937 4.773-6.945 6.682.992 1.91 14.636-.954 16.744 4.058 1.59 3.78-.62 7.756-10.79 10.74l-67.47-16.23s-.992-5.131-2.977-9.546"/>
        <path fill="#7582B8" d="M152.26 455.966s-42.706-34.628-33.05-61.842c9.508-26.802 31.936 12.296 39.363 10.126 7.428-2.17 4.085-19.65 15.969-23.266 11.883-3.617 22.282 19.288 25.252 56.176l-47.534 18.806z"/>
        <path fill="#8697D1" d="M130.978 458.475c-5.365.179-20.813-8.588-20.72-17.415.097-9.33 13.967-.357 18.5-.715 1.594-.126-.493-3.34-1.017-9.424-.661-7.67.839-15.865 5.827-18.25 8.933-4.267 14.061 5.01 15.171 11.81 1.11 6.798 1.11 12.166 1.11 12.166s4.81-13.956 10.36-13.956c5.551 0 0 15.03 0 15.03s2.869-1.88 5.181-.627c1.122.608 1.585 1.658 1.767 2.558.103.512.688.6 1.153.334 1.613-.924 4.48-1.46 6.33-.476 5.075 2.698 2.96 6.798 2.96 6.798s-41.256 11.988-46.622 12.167"/>
        <g transform="translate(88.5 429.173)">
            <mask id="b" fill="#fff">
                <use xlink:href="#a"/>
            </mask>
            <path fill="#FF7E59" d="M68.618 46.869c39.748.18 129.273-.961 214.464-1.322 81.732-.346 231.674-5.048 235.885-5.408 4.209-.361 5.135-2.195 2.723-3.005-6.438-2.164-9.414-3.721-21.483-7.271-8.985-2.643-33.085-9.58-44.267-13.281-16.345-5.409-23.032-7.572-32.07-8.173-9.04-.6-250.002-7.572-250.002-7.572l-72.436 9.375s-20.803 6.49-50.335 14.963C29.306 31.427-2.58 41.22 1.134 42.843c8.01 3.5 27.737 3.846 67.484 4.026" mask="url(#b)"/>
        </g>
        <path fill="#2B2B51" d="M375.522 408.22c1.338-.581 14.127-5.393 31.62-10.557 8.285-2.445 24.343-5.88 32.068-6.151 22.21-.779 32.544 25.101 32.544 25.101l-96.232-8.393z"/>
        <path fill="#4771DD" d="M332.387 418.45s-2.72 19.403 6.43 28.505c9.148 9.102 44.013 8.144 56.129 8.144 12.117 0 56.377-5.51 91.984-19.882 14.41-5.816 16.815-12.455 17.432-25.51.605-12.754-9.024-17.127-16.937-17.367-6.595-.2-59.716 3.593-80.981 7.665-9.561 1.831-28.98 3.054-44.138 6.947-17.337 4.452-29.919 11.498-29.919 11.498"/>
        <g transform="translate(305.5 328)">
            <mask id="e" fill="#fff">
                <use xlink:href="#c"/>
            </mask>
            <path fill="url(#d)" d="M0 12.292s2.474 8.012 3.958 19.424c1.483 11.411 2.566 16.905 7.019 32.93 4.451 16.025 8.934 33.476 8.934 33.476l12.243 3.035-6.338-83.675L11.07 0 0 12.292z" mask="url(#e)"/>
        </g>
        <g>
            <path fill="#FFEDA6" d="M406.493 331.164l16.527-5.49a.916.916 0 0 0 .576-1.208c-1.965-4.936-9.58-28.31-13.906-34.866-5.902-8.941-11.557-11.116-17.95-12.808l14.753 54.372z"/>
            <path fill="#423748" d="M242.102 282.648c-5.572-3.838-8.048-12.233-3.096-20.867 4.953-8.635 11.742-9.854 13.558-23.146 2.229-16.31 5.746-21.934 13.435-29.382 7.924-7.675 21.382-11.84 33.926-7.915 16.097 5.037 16.586 17.589 15.354 26.144-1.486 10.314-1.61 14.75 1.486 22.066 4.797 11.336 8.582 18.147.743 25.904-5.696 5.637-12.877 4.798-12.877 4.798l-62.53 2.398z"/>
            <path fill="#FFAEAE" d="M269.083 243.582c-1.865 15.704-1.12 30.628-20.143 36.562 0 0 8.455 29.908 47.994 32.306 39.54 2.397 34.069-9.83 34.069-9.83s-1.865-17.981-3.979-24.275c-2.108-6.275-9.388-8.93-17.345-6.832-4.445 1.171-9.015 2.577-12.06 2.157-2.216-.305-2.993-2.046-3.11-2.756-.745-4.555.187-6.474.187-6.474s-24.144-33.225-25.613-20.858"/>
        </g>
        <g transform="translate(267.5 214)">
            <mask id="h" fill="#fff">
                <use xlink:href="#f"/>
            </mask>
            <path fill="url(#g)" d="M1.195 26.198c2.95 18.989 7.621 26.68 23.355 29.564 10.898 1.998 18.931-8.653 19.423-29.324C44.59.483 34.583 0 22.093 0 9.6 0-1.324 9.99 1.195 26.198" mask="url(#h)"/>
        </g>
        <g>
            <path fill="#4771DD" d="M194.5 384.715s17.378-26.337 21.528-40.146c2.474-8.233 4.33-14.183 5.692-32.333.844-11.27-1.424-23.138 18.249-27.825 5.56-1.325 9.155-2.164 9.155-2.164s7.996 9.25 29.508 18.81c23.26 10.337 40.829 5.77 40.829 5.77s7.083 16.046-3.217 31.011c-7.644 11.107-18.29 12.513-34.643 37.742-8.413 12.982-12.124 25.963-12.124 25.963L194.5 384.715z"/>
            <path fill="#42426C" d="M313.458 293.926s.68 4.517 4.938 12.878c3.465 6.804 2.043 13.549 2.164 17.155l3.79-16.873-10.892-13.16z" opacity=".2" style="mix-blend-mode:multiply"/>
            <path fill="#423748" d="M303.1 211.73c1.126 2.13-.38 13.72-12.87 22.11-10.515 7.063-18.81 5.768-18.81 5.768l-9.901-11.296s3.96-17.063 19.801-18.985c15.84-1.923 21.78 2.403 21.78 2.403"/>
            <path fill="#FFAEAE" d="M271.092 238.298c1.18 4.154 2.36 8.06-.245 8.795-2.606.735-6.97-2.088-8.15-6.243-1.18-4.154.887-8.657 3.492-9.391 2.605-.735 3.723 2.686 4.903 6.84"/>
            <path fill="#2B2B50" d="M307.4 342.548c-2.332.9-4.445 1.305-6.591 1.411-1.859.093-2.985.63-4.29 1.892-.778.75-2.644 2.463-7.293 4.885-3.218 1.677-6.65 2.715-9.311 4.514-14.925 10.09-26.245 31.628-26.245 31.628 6.218 5.48 10.237 12.75 11.942 20.712 4.757-16.486 13.898-34.323 29.382-49.727 2.747-2.733 6.62-5.951 9.876-8.727 2.81-2.264 6.006-5.327 7.66-7.309 3.53-4.224 4.896-6.567 8.16-10.987-3.428 4.73-6.476 9.076-13.29 11.708" opacity=".2" style="mix-blend-mode:multiply"/>
            <path fill="#7582B8" d="M403.772 332.136l11.728-3.724s-7.445-18.817-8.545-21.868c-1.1-3.051-1.485-6.114-1.485-9.446-1.154 2.702-1.525 7.55-1.538 8.376l-.16 26.662z" opacity=".2" style="mix-blend-mode:multiply"/>
            <path fill="#FFEDA6" d="M354.519 275.573s-13.164 5.04-18.627 7.679c-6.064 2.928-13.163 7.678-16.144 19.436-2.537 10.01-4.284 27.763-4.608 32.79a3.095 3.095 0 0 0 .883 2.362l15.15 14.996s-1.242 43.19 1.987 66.226c0 0 13.41-9.837 61.84-16.556 0-5.999.745-24.475 1.987-29.274 5.104-19.722 10.928-25.914 12.666-44.87 1.142-12.45-4.719-31.193-8.94-42.95-1.762-4.905-7.824-6.72-19-8.16-5.851-.753-27.194-1.679-27.194-1.679"/>
            <path fill="#7582B8" d="M331.05 379.853c.145 12.921.678 27.791 2.164 38.375 0 0 4.208-3.082 16.431-6.967 12.288-13.46 27.24-24.173 45.74-27.437.055-.802.112-1.59.172-2.356-21.659.503-43.228 1.605-64.506-1.615M353.277 316.785l.35 21.444-6.66 31.996 38.537 6.29-17.1-8.807c-6.32-3.056-9.646-8.959-10.262-14.343l-4.189-36.622c-.046-.415-.683-.376-.676.042" opacity=".2" style="mix-blend-mode:multiply"/>
            <path fill="#2B2B50" d="M243.089 334.026l-13.156-18.16c-.798-1.002-1.72.954-.48 6.97 1.822 8.845 3.222 17.808 3.222 17.808l10.414-6.618z" opacity=".2" style="mix-blend-mode:multiply"/>
        </g>
        <g transform="translate(316.5 335)">
            <mask id="k" fill="#fff">
                <use xlink:href="#i"/>
            </mask>
            <path fill="url(#j)" d="M.903.307c-.496.027-.893.42-.9.903-.09 5.91 2.535 40.775 3.668 48.47.844 5.734 3.505 9.015 8.736 9.829 13.135 2.044 29.014 1.922 42.378 1.082 17.224-1.082 42.377-3.967 42.377-3.967l-2.478-13.706s-17.595-2.284-31.721-5.772c-18.382-4.537-28.624-5.41-28.624-5.41l.868-29.425S28.29 0 11.825 0C8.564 0 4.933.09.903.307" mask="url(#k)"/>
        </g>
        <g>
            <g transform="translate(338.5 197)">
                <mask id="m" fill="#fff">
                    <use xlink:href="#l"/>
                </mask>
                <path fill="#423748" d="M8.687 42.73S1.92 39.357.167 25.145C-1.689 10.122 12.445 2.742 17.96 1.538 22.872.465 27.577-.267 32.245.092 38.51.574 43.652 2.98 46.78 5.633c4.26 3.613 5.974 6.493 6.265 13.49.25 6.022 0 13.49 0 13.49L8.687 42.73z" mask="url(#m)"/>
            </g>
            <path fill="#FFAEAE" d="M349.469 246.432s6.949 19.58 2.73 29.974c0 0 21.838 15.954 31.764 13.295 9.927-2.659 2.482-11.482 2.482-11.482s-3.35-7.252-3.723-15.954l-33.253-15.833z"/>
        </g>
        <g transform="translate(345.5 207)">
            <mask id="p" fill="#fff">
                <use xlink:href="#n"/>
            </mask>
            <path fill="url(#o)" d="M20.605 1.175C8.657 3.112-1.605 12.887 1.358 29.673c3.757 21.272 14.273 33.05 30.695 32.293 16.262-.749 17.38-22.198 15.127-39.504C45.234 7.517 35.285.837 24.742.838c-1.374 0-2.759.113-4.137.337" mask="url(#p)"/>
        </g>
        <g>
            <path fill="#423748" d="M362.586 204.943c-10.58 3.364-18.938 10.677-18.938 10.677l-.931 18.176 5.495 7.828c1.49-1.17 1.891-3.3 1.483-5.12-1.576-7.027-1.39-6.097-1.39-9.366 0-.771.091-1.538.247-2.283.47-2.256 3.01-3.475 5.191-2.55 5.479 2.325 11.733 5.072 17.66 4.893 11.92-.36 9.375-5.399 11.424-7.198 2.049-1.8 3.23-1.56 3.415-4.8.187-.72-8.94-14.936-23.656-10.257"/>
            <path fill="#FFAEAE" d="M347.015 238.37c1.572 3.685 4.49 10.785 2.642 11.548-1.85.763-7.766-5.1-9.337-8.784-1.572-3.685-1.05-6.805.503-8.053 2.752-2.212 4.62 1.605 6.192 5.29"/>
            <path fill="#42426C" d="M496.66 392.443l-75.266 5.522a3.71 3.71 0 0 1-3.96-3.418l-.216-2.214 82.644-6.064.217 2.215a3.71 3.71 0 0 1-3.419 3.959"/>
            <path fill="#42426C" d="M514.26 326.235l-10.758 57.077c-.369 1.95-2.318 3.254-4.333 2.899l-.754-.154 12.095-64.167.754.153c2.015.355 3.363 2.242 2.995 4.192"/>
            <path fill="#FFAEAE" d="M260.682 348.255s24.844 25.299 28.577 28.144c5.218 3.978 8.218 2.083 13.915.241 11.928-3.857 15.976-5.86 32.056-14.102 13.17-6.75 24.228-11.57 24.228-11.57l-6.15-11.21s-9.877 3.977-30.378 8.316c-12.47 2.64-16.624 3.436-20.75 4.099-1.594.256-2.893-.914-4-1.817l-21.284-25.122-16.214 23.021zM461.053 453.716c-5.075-1.1-11.574-8.974-2.365-15.038 6.792-4.472 13.199-2.685 19.912-3.153 10.454-.728 13.875-8.367 27.877-11.4 17.92-3.88 25.033 3.614 25.387 9.702.374 6.428-1.99 13.582-22.4 17.463-13.221 2.514-23.397 3.153-30.366 3.396-7.23.251-12.165.303-18.045-.97"/>
            <g transform="translate(71.5 449.813)">
                <mask id="r" fill="#fff">
                    <use xlink:href="#q"/>
                </mask>
                <path fill="#8697D0" d="M9.096 26.368C2.465 22.403-3.729 14.666 2.72 9.417 7.104 5.85 15.987 12.16 20.45 11.69 25.61 11.145 25.886.01 33.96 0c8.953-.01 8.73 12.477 8.73 18.99 0 3.858-2.58 11.593-9.39 13.141-6.426 1.46-15.279-.427-24.205-5.763" mask="url(#r)"/>
            </g>
            <path fill="#8697D1" d="M180.117 514.212c-2.704 1.429-9.602 1.34-14.077-3.216-3.62-3.683-4.425-7.214-1.585-8.574 2.05-.983 4.797-.111 6.619.714 1.592.722 1.919.81 2.983-.536 1.541-1.948 4.176-3.832 6.806-3.394 4.288.715 5.669 11.615-.746 15.006"/>
            <g transform="translate(189.53 510.011)">
                <mask id="t" fill="#fff">
                    <use xlink:href="#s"/>
                </mask>
                <path fill="#8697D1" d="M5.271 14.756c-2.27-.546-5.35-2.518-4.176-9.556.993-5.953 4.575-6.383 6.9-3.367 1.543 2.002 1.718 3.973 2.36 3.731.727-.273 1.816-1.547 3.904-1.729 3.247-.283 4.085 3.094 2.633 5.187-3.951 5.694-7.909 6.627-11.62 5.734" mask="url(#t)"/>
            </g>
            <path fill="#8697D1" d="M284.862 492.423c-3.102-.324-4.175-3.274-4.085-5.184.114-2.384 2.36-2.82 3.293-1.78.637.708 1.29 2.505 1.881 1.962 1.09-1 3.059-3.21 4.539-1.092 1.27 1.82-1.271 6.549-5.628 6.094M343.124 510.739c-3.46.74-7.415-2.407-9.825-6.202-.954-1.503-1.183-4.847 1.978-5.09 2.41-.185 3.698 1.632 4.881 2.499.558.408.771.45 1.576-1.018 1.08-1.975 2.873-3.518 4.603-3.456 1.991.072 3.437 1.453 2.997 4.474-.757 5.193-3.306 8.172-6.21 8.793M367.825 493.742c-.676.63-1.426.73-1.946-.028-1.386-2.024-3.588-4.292-6.724-3.662-1.49.3-3.395 2.171-1.238 7.133 1.607 3.698 4.16 7.602 7.694 8.437 4.059.96 8.093-1.493 10.884-5.31 4.058-5.55 1.85-8.646-1.107-9.09-3.197-.48-5.95 1.017-7.563 2.52"/>
            <path fill="#D8DDEA" d="M352.9 271.096c-.34-.728-.123-1.88-.123-1.88s-.914.465-1.456 1.061c-1.13 1.244-1.652 2.528-2.987 4.247a34.359 34.359 0 0 1-2.653 3.008 1.575 1.575 0 0 0-.255 1.871c1.115 2.024 3.821 6.788 12.613 12.87 8.42 5.825 12.97 7.707 17.9 9.253 2.228.7 4.172.213 4.853-1.972 0 0 .849-2.363 1.3-5.097.557-3.367.805-5.4.805-5.4s-8.42-1.213-17.83-6.553c-7.745-4.393-11.142-9.218-12.167-11.408M390.164 297.261s-1.994-1.704-3.771-3.595c-1.778-1.89-3.496-4.713-3.496-4.713s1.096-3.211 1.54-5.913c.532-3.228.576-7.263-.74-10.596l-.178-.72s.963 1.05 2.296 2.626c1.193 1.41 1.854 1.881 2.4 2.747 3.065 4.863 3.754 14.702 3.89 19.384.03 1.052-1.251 1.568-1.94.78"/>
            <path fill="#8697D1" d="M434.956 517.52c3.237.17 4.51-.882 9.11-6.867 2.935-3.818 4.744-7.166 5.779-9.678 1.987-4.825.61-8.223-5.137-6.305-2.66.888-3.784 1.156-4.913.902-6.612-1.493-7.524 2.123-7.652 3.538-.459 5.061-1.468 3.73-1.468 3.73s-1.65-2.487-5.32-2.665c-3.668-.177-6.001 2.13-4.127 5.062 1.988 3.107 3.119 6.09 4.8 8.198 2.691 3.374 5.565 3.907 8.928 4.085"/>
            <path fill="#2B2B51" d="M362.807 341.956l6.577-22.091a2.537 2.537 0 0 1 1.938-1.76l14.424-2.882c.817-.162 1.52.588 1.293 1.384l-5.903 20.834-18.33 4.515z"/>
            <path fill="#8697D1" d="M544.97 495.786c2.539.184 4.792-1.84 6.884-4.834 3.688-5.278.777-6.854-.34-7.263-1.243-.456-3.643-.624-5.996 2.064 0 0-1.764-3.258-5.033-2.33-3.454.98-3.09 4.256-1.83 6.825 1.174 2.399 3.04 5.3 6.315 5.538M435.535 517.379c4.023.635 8.484-.708 11.617-2.95 5.36-3.834 4.671-6.694 3.76-7.552-1.754-1.651-4.456-.953-6.68 1.552 0 0-.397-3.745-4.112-3.413-3.716.331-5.425 2.267-4.74 4.426 1.226 3.867-3.867 7.301.155 7.937"/>
            <path fill="#FFAEAE" d="M351.088 340.42s19.84-8.178 24.597-9.941c2.651-.983 4.382-3.132 6.635-5.23 2.494-2.322 4.35-4.195 4.35-4.195s2.664.687 1.972 4.56c-2.066 11.554-1.94 15.08-6.071 18.85-5.23 4.773-6.134 6.203-10.39 6.689-2.005.229-17.588 1.672-17.588 1.672l-3.505-12.404z"/>
            <path fill="#FFAEAE" d="M350.25 341.12s3.011-5.352 5.987-8.053c2.014-1.828 5.415-4.798 6.113-5.696 1.787-2.296 2.096-3.907 2.727-5.603.376-1.01 1.599-1.103 2.257.735.659 1.837.47 4.501.47 4.501l-2.163 7.533-15.39 6.583z"/>
            <path fill="#E09595" d="M291.654 286.774l13.89-7.186c.675-.348.257-1.37-.471-1.143-1.373.427-4.083 1.015-7.282 3.136-4.665 3.092-6.137 5.193-6.137 5.193"/>
            <path fill="#2B2B50" d="M273.238 287.61s-11.174-.953-19.654-.199c-1.113.1-1.733-1.116-.862-1.727 1.142-.8 2.791-1.507 4.998-1.41 4.871.213 15.518 3.336 15.518 3.336M289.414 312.78c5.775.658 9.805-.72 11.854-1.715.352-.17.499.176.402.552-.449 1.75-2.179 3.081-4 3.45-2.485.503-6.37-.485-8.355-1.78-.266-.174-.217-.543.099-.507" opacity=".2" style="mix-blend-mode:multiply"/>
            <path fill="#E09595" d="M286.632 288.217c0 1.512-1.125 2.737-2.512 2.737-1.386 0-2.51-1.225-2.51-2.737 0-1.511 1.004.274 2.39.274 1.388 0 2.632-1.785 2.632-.274"/>
            <path fill="#42426C" d="M254.822 433.661l10.192-36.523s10.403 5.226 32.067 7.449c44.495 4.565 57.918 17.06 60.653 21.866 13.474 23.682-30.584 18.948-30.824 18.502l-72.088-11.294z"/>
            <path fill="#2B2B51" d="M262.559 408.844l-9.41 21.738 41.854-10.989s-17.48 1.636-27.49.717c-5.202-.477-4.954-11.466-4.954-11.466"/>
            <path fill="#2B2B51" d="M197.105 459.846s-31.442-14.909-18.816-49.053c12.627-34.146 58.763-87.295 71.923-96.424 7.798-5.41 14.13-9.295 24.386-4.568 11.035 5.086 11.637 12.864 9.16 25.729-1.39 7.231-20.796 71.896-23.767 85.12-2.97 13.226-4.209 30.298-4.209 30.298l-58.677 8.898z"/>
            <path fill="#2B2B51" d="M229.355 405.5s-.095 15.626-5.519 25.582c-9.258 16.995-20.785 20.14-25.936 22.075 10.916-1.211 35.117-1.953 41.855-3.788-2.626-14.6-5.355-29.045-8.436-43.825l-1.964-.045z"/>
            <path fill="#FFAEAE" d="M202.349 448.651c-3.711-1.203-5.196-.12-8.412 1.565-1.889.99-3.055.983-5.971.882-5.447-.838-9.894-3.717-15.506-2.46a12.382 12.382 0 0 0-4.511 1.998c-1.273.912-2.796 1.435-4.362 1.648-9.362 1.271-17.867 3.459-22.601 6.476-7.175 4.573-11.798 16.024-12.495 22.264-.618 5.535 3.029 6.998 6.68 7.22 3.96.24 7.619-1.077 9.65-1.926 25.102-10.483 60.992-20.096 60.992-20.096l2.97-15.163s-2.722-1.204-6.434-2.408"/>
            <path fill="#42426C" d="M207.164 450.147s28.42-14.218 48.19-21.447c19.772-7.23 38.903-11.723 67.592-9.038 15.445 1.446 31.756 1.566 35.463 8.315 3.707 6.747 4.942 18.797-4.943 26.026-3.954 2.892-13.338 6.465-28.667 6.266-18.535-.241-56.084-2.532-93.169 1.687-14.828 1.687-26.196 4.578-26.196 4.578l1.73-16.387z"/>
            <path fill="#2B2B51" d="M231.586 413.024s-9.705-28.544-.248-53.49c.256-.675 4.23 15.591 3.235 19.67-.996 4.077-4.48 15.11-2.24 33.58"/>
            <path fill="#FFAEAE" d="M237.924 463.458c-2.218-.845-2.547-4.335 2.757-5.225 10.148-1.7 13.03-3.888 20.613-3.309 5.601.427 8.54 6.49 6 8.402-5.962 4.491-25.862 1.469-29.37.132M437.058 372.748l-8.96-2.063c-2.805-.627-5.758-.272-8.304 1.02-4.704 2.39-7.861 3.704-11.413 5.403-1.622.776-3.113.511-4.557.385l3.162 14.74s5.024.837 10.51.712c3.906-.089 6.751-.51 16.183-2.046 2.629-.428 10.51-.771 13.672-1.305 0-2.224.186-3.589-2.977-10.321-1.296-2.76-4.092-5.813-7.316-6.525"/>
        </g>
    </g>
</svg>
