<?xml version="1.0" encoding="UTF-8"?>
<svg width="727px" height="455px" viewBox="0 0 727 455" version="1.1" xmlns="http://www.w3.org/2000/svg" xmlns:xlink="http://www.w3.org/1999/xlink">
    <!-- Generator: Sketch 51.3 (57544) - http://www.bohemiancoding.com/sketch -->
    <title>Мобильный банк</title>
    <desc>Created with Sketch.</desc>
    <defs>
        <polygon id="path-1" points="0.682809991 0.8463 703.512 0.8463 703.512 64.7058822 0.682809991 64.7058822"></polygon>
        <path d="M0.249,17.013 C0.249,17.013 3.583,28.013 5.583,43.68 C7.582,59.346 9.041,66.888 15.042,88.889 C21.041,110.888 27.083,134.846 27.083,134.846 L43.582,139.013 L35.041,24.138 L15.167,0.138 L0.249,17.013 Z" id="path-3"></path>
        <radialGradient cx="95.386483%" cy="-42.3342477%" fx="95.386483%" fy="-42.3342477%" r="405.034344%" gradientTransform="translate(0.953865,-0.423342),scale(1.000000,0.312029),rotate(119.339971),translate(-0.953865,0.423342)" id="radialGradient-5">
            <stop stop-color="#DF9595" offset="0%"></stop>
            <stop stop-color="#FDACAC" offset="100%"></stop>
        </radialGradient>
        <path d="M1.333,36.346 C5.333,62.68 11.667,73.346 32.999,77.346 C47.775,80.117 58.666,65.346 59.333,36.679 C60.169,0.683 46.603,0.013 29.667,0.013 C12.729,0.013 -2.082,13.868 1.333,36.346" id="path-6"></path>
        <radialGradient cx="171.124791%" cy="169.964833%" fx="171.124791%" fy="169.964833%" r="221.523686%" gradientTransform="translate(1.711248,1.699648),scale(1.000000,0.753649),rotate(-129.994167),translate(-1.711248,-1.699648)" id="radialGradient-8">
            <stop stop-color="#FFE8E8" offset="0%"></stop>
            <stop stop-color="#FDACAC" offset="100%"></stop>
        </radialGradient>
        <path d="M1.609,0.778 C0.942,0.815 0.408,1.36 0.398,2.029 C0.278,10.221 3.809,58.553 5.333,69.221 C6.468,77.169 10.047,81.718 17.083,82.846 C34.75,85.679 56.108,85.51 74.083,84.346 C97.25,82.846 131.083,78.846 131.083,78.846 L127.75,59.847 C127.75,59.847 104.083,56.68 85.083,51.846 C60.358,45.556 46.582,44.346 46.582,44.346 L47.75,3.555 C47.75,3.555 38.448,0.352 16.3,0.352 C11.914,0.352 7.03,0.477 1.609,0.778" id="path-9"></path>
        <radialGradient cx="4.52068548%" cy="17.7705024%" fx="4.52068548%" fy="17.7705024%" r="138.967445%" gradientTransform="translate(0.045207,0.177705),scale(0.648764,1.000000),rotate(67.024845),translate(-0.045207,-0.177705)" id="radialGradient-11">
            <stop stop-color="#DF9595" offset="0%"></stop>
            <stop stop-color="#FDACAC" offset="100%"></stop>
        </radialGradient>
        <polygon id="path-12" points="0.361472441 0.219 71.0642444 0.219 71.0642444 59.3463 0.361472441 59.3463"></polygon>
        <path d="M27.204,1.325 C11.298,4.012 -2.362,17.568 1.582,40.846 C6.583,70.347 20.583,86.68 42.445,85.63 C64.094,84.592 65.583,54.846 62.583,30.847 C59.992,10.12 46.747,0.857 32.711,0.858 C30.882,0.858 29.039,1.015 27.204,1.325" id="path-14"></path>
        <radialGradient cx="207.387678%" cy="206.502736%" fx="207.387678%" fy="206.502736%" r="292.585318%" gradientTransform="translate(2.073877,2.065027),scale(1.000000,0.741043),rotate(-125.706693),translate(-2.073877,-2.065027)" id="radialGradient-16">
            <stop stop-color="#FFE8E8" offset="0%"></stop>
            <stop stop-color="#FDACAC" offset="100%"></stop>
        </radialGradient>
        <polygon id="path-17" points="0 0.333791411 57.5830787 0.333791411 57.5830787 44.9996623 0 44.9996623"></polygon>
        <polygon id="path-19" points="0.727374714 0.328256258 23.7788407 0.328256258 23.7788407 21 0.727374714 21"></polygon>
    </defs>
    <g id="Частным" stroke="none" stroke-width="1" fill="none" fill-rule="evenodd">
        <g id="-Мобильный-банк.png-БКС-Платинум.png-Доходный-фунт.png-Кредит-Онлайн.png-Рефенансирование.png-Цифровой-Signature.png-Цифровой-Visa-Platinum.png-More-Signature.png-more-visa-platinum.png" transform="translate(-1598.000000, -8305.000000)">
            <g id="Мобильный-банк" transform="translate(1578.000000, 8148.000000)">
                <rect id="Rectangle-8-Copy-6" fill-rule="nonzero" x="0" y="0" width="767" height="767"></rect>
                <g id="Group-134" transform="translate(20.000000, 156.000000)">
                    <g id="Group-18" transform="translate(23.000000, 173.781000)">
                        <path d="M552.4578,89.4293 L567.6828,0.3513 L558.6658,1.7623 C557.1248,2.0543 555.9058,3.3133 555.5828,5.0543 L539.5828,90.3463 L552.4578,89.4293 Z" id="Fill-1" fill="#D8DDEA"></path>
                        <path d="M544.4158,89.9293 C544.4158,89.9293 537.0828,79.7633 535.0828,77.4293 C532.0568,73.8993 530.2498,72.9293 525.0828,73.5963 C519.9158,74.2633 514.2418,75.7123 509.5828,76.4293 C507.4158,76.7633 506.0058,76.5973 503.6258,75.7013 C497.5828,73.4293 485.8328,63.0963 467.5828,54.0123 C463.9778,52.2183 462.6398,50.5583 461.2498,46.3463 C453.0828,21.5963 448.4158,5.3463 448.4158,5.3463 L426.3328,12.7213 L413.2498,32.6793 C413.2498,32.6793 426.2368,61.2533 432.9158,72.0133 C438.9158,81.6793 443.3108,84.4183 454.3328,86.0963 C465.8328,87.8463 491.4998,92.5133 502.7498,93.0133 C505.9598,93.1563 509.4908,92.6473 514.5828,92.3463 C518.8398,92.0943 544.4158,89.9293 544.4158,89.9293" id="Fill-3" fill="#E09595"></path>
                        <path d="M571.9158,153.0133 C569.2498,146.8463 560.5828,135.5133 570.5828,127.6793 C575.5238,123.8093 580.9838,122.1763 584.4318,121.4933 C586.5938,121.0653 588.4328,119.6963 589.5618,117.8023 C591.8848,113.9023 596.6698,107.8933 603.9158,108.3463 C614.5828,109.0133 615.2498,133.0133 619.9158,133.0133 C624.5828,133.0133 636.0828,109.0133 648.5828,110.3463 C660.0618,111.5713 662.5828,119.6793 666.5828,133.0133 C670.5828,146.3463 673.2498,153.6793 667.9158,159.0133 C662.5828,164.3463 657.2498,165.6793 658.5828,168.3463 C659.9158,171.0133 678.2498,167.0133 681.0828,174.0133 C683.2198,179.2923 680.2498,184.8463 666.5828,189.0133 L575.9158,166.3463 C575.9158,166.3463 574.5828,159.1793 571.9158,153.0133" id="Fill-5" fill="#8697D1"></path>
                        <path d="M85.5828,185.3463 C85.5828,185.3463 28.0828,137.4713 41.0828,99.8463 C53.8858,62.7903 84.0828,116.8463 94.0828,113.8463 C104.0828,110.8463 99.5828,86.6793 115.5828,81.6793 C131.5828,76.6793 145.5828,108.3463 149.5828,159.3463 L85.5828,185.3463 Z" id="Fill-7" fill="#7582B8"></path>
                        <path d="M57.5828,190.3463 C50.3328,190.5963 29.4578,178.3463 29.5828,166.0133 C29.7148,152.9753 48.4578,165.5133 54.5828,165.0133 C56.7368,164.8373 53.9158,160.3463 53.2078,151.8463 C52.3148,141.1273 54.3418,129.6773 61.0828,126.3463 C73.1528,120.3823 80.0828,133.3463 81.5828,142.8463 C83.0828,152.3463 83.0828,159.8463 83.0828,159.8463 C83.0828,159.8463 89.5828,140.3463 97.0828,140.3463 C104.5828,140.3463 97.0828,161.3463 97.0828,161.3463 C97.0828,161.3463 100.9578,158.7213 104.0828,160.4713 C105.5988,161.3203 106.2238,162.7883 106.4698,164.0453 C106.6098,164.7613 107.3998,164.8843 108.0278,164.5123 C110.2078,163.2213 114.0828,162.4713 116.5828,163.8463 C123.4398,167.6173 120.5828,173.3463 120.5828,173.3463 C120.5828,173.3463 64.8328,190.0963 57.5828,190.3463" id="Fill-9" fill="#8697D1"></path>
                        <g id="Group-13" transform="translate(0.000000, 149.000000)">
                            <mask id="mask-2" fill="white">
                                <use xlink:href="#path-1"></use>
                            </mask>
                            <g id="Clip-12"></g>
                            <path d="M91.9163,64.6793 C145.4163,64.9293 265.9163,63.3463 380.5833,62.8463 C490.5953,62.3663 692.4163,55.8463 698.0833,55.3463 C703.7493,54.8463 704.9963,52.3033 701.7493,51.1793 C693.0833,48.1793 689.0773,46.0193 672.8333,41.0963 C660.7393,37.4313 628.3003,27.8113 613.2493,22.6793 C591.2493,15.1793 582.2493,12.1793 570.0833,11.3463 C557.9163,10.5133 233.5823,0.8463 233.5823,0.8463 L136.0833,13.8463 C136.0833,13.8463 108.0833,22.8463 68.3333,34.5963 C39.0023,43.2663 -3.9167,56.8463 1.0833,59.0963 C11.8653,63.9493 38.4163,64.4293 91.9163,64.6793" id="Fill-11" fill="#FF7E59" mask="url(#mask-2)"></path>
                        </g>
                        <path d="M386.0301,119.7467 C387.8371,118.9387 405.1191,112.2587 428.7591,105.0897 C439.9541,101.6947 461.6541,96.9257 472.0931,96.5497 C502.1051,95.4687 516.0711,131.3987 516.0711,131.3987 L386.0301,119.7467 Z" id="Fill-14" fill="#2B2B51"></path>
                        <path d="M328.2493,134.0133 C328.2493,134.0133 324.5823,161.0133 336.9163,173.6793 C349.2493,186.3463 396.2493,185.0133 412.5823,185.0133 C428.9163,185.0133 488.5823,177.3463 536.5823,157.3463 C556.0083,149.2523 559.2493,140.0133 560.0823,121.8463 C560.8973,104.0993 547.9163,98.0133 537.2493,97.6793 C528.3593,97.4023 456.7493,102.6793 428.0823,108.3463 C415.1933,110.8943 389.0153,112.5963 368.5823,118.0133 C345.2103,124.2083 328.2493,134.0133 328.2493,134.0133" id="Fill-16" fill="#4771DD"></path>
                    </g>
                    <g id="Group-21" transform="translate(316.000000, 183.781000)">
                        <mask id="mask-4" fill="white">
                            <use xlink:href="#path-3"></use>
                        </mask>
                        <g id="Clip-20"></g>
                        <path d="M0.249,17.013 C0.249,17.013 3.583,28.013 5.583,43.68 C7.582,59.346 9.041,66.888 15.042,88.889 C21.041,110.888 27.083,134.846 27.083,134.846 L43.582,139.013 L35.041,24.138 L15.167,0.138 L0.249,17.013 Z" id="Fill-19" fill="url(#radialGradient-5)" mask="url(#mask-4)"></path>
                    </g>
                    <g id="Group-28" transform="translate(220.000000, 4.781000)">
                        <path d="M230.2498,183.0128 L252.6538,175.4398 C253.3418,175.2068 253.6978,174.4518 253.4338,173.7748 C250.7708,166.9658 240.4478,134.7218 234.5828,125.6798 C226.5828,113.3458 218.9158,110.3458 210.2498,108.0128 L230.2498,183.0128 Z" id="Fill-22" fill="#FFEDA6"></path>
                        <path d="M8.4993,116.0128 C0.9993,110.6798 -2.3337,99.0128 4.3323,87.0128 C10.9993,75.0128 20.1383,73.3188 22.5823,54.8458 C25.5823,32.1798 30.3163,24.3628 40.6663,14.0128 C51.3323,3.3458 69.4473,-2.4422 86.3323,3.0128 C107.9993,10.0128 108.6583,27.4568 106.9993,39.3458 C104.9993,53.6798 104.8323,59.8458 108.9993,70.0128 C115.4563,85.7668 120.5513,95.2318 109.9993,106.0128 C102.3323,113.8458 92.6663,112.6798 92.6663,112.6798 L8.4993,116.0128 Z" id="Fill-24" fill="#423748"></path>
                        <path d="M45.5828,62.2628 C43.0828,84.0958 44.0828,104.8458 18.5828,113.0958 C18.5828,113.0958 29.9168,154.6798 82.9158,158.0128 C135.9158,161.3458 128.5828,144.3458 128.5828,144.3458 C128.5828,144.3458 126.0828,119.3458 123.2498,110.5958 C120.4238,101.8708 110.6658,98.1798 99.9998,101.0958 C94.0418,102.7248 87.9158,104.6798 83.8328,104.0958 C80.8628,103.6718 79.8218,101.2508 79.6658,100.2628 C78.6658,93.9298 79.9158,91.2628 79.9158,91.2628 C79.9158,91.2628 47.5518,45.0678 45.5828,62.2628" id="Fill-26" fill="#FFAEAE"></path>
                    </g>
                    <g id="Group-31" transform="translate(263.000000, 24.781000)">
                        <mask id="mask-7" fill="white">
                            <use xlink:href="#path-6"></use>
                        </mask>
                        <g id="Clip-30"></g>
                        <path d="M1.333,36.346 C5.333,62.68 11.667,73.346 32.999,77.346 C47.775,80.117 58.666,65.346 59.333,36.679 C60.169,0.683 46.603,0.013 29.667,0.013 C12.729,0.013 -2.082,13.868 1.333,36.346" id="Fill-29" fill="url(#radialGradient-8)" mask="url(#mask-7)"></path>
                    </g>
                    <g id="Group-52" transform="translate(166.000000, 14.781000)">
                        <path d="M0.2493,244.6793 C0.2493,244.6793 23.6593,208.1603 29.2493,189.0123 C32.5823,177.5963 35.0823,169.3463 36.9163,144.1793 C38.0543,128.5533 34.9993,112.0963 61.4993,105.5963 C68.9893,103.7593 73.8323,102.5963 73.8323,102.5963 C73.8323,102.5963 84.6033,115.4233 113.5823,128.6793 C144.9163,143.0123 168.5823,136.6793 168.5823,136.6793 C168.5823,136.6793 178.1243,158.9293 164.2493,179.6793 C153.9513,195.0803 139.6093,197.0303 117.5823,232.0133 C106.2493,250.0133 101.2493,268.0133 101.2493,268.0133 L0.2493,244.6793 Z" id="Fill-32" fill="#4771DD"></path>
                        <path d="M160.2137,119.2174 C160.2137,119.2174 161.0987,125.4844 166.6377,137.0874 C171.1447,146.5294 169.2947,155.8894 169.4527,160.8934 L174.3817,137.4794 L160.2137,119.2174 Z" id="Fill-34" fill="#42426C" style="mix-blend-mode: multiply;" opacity="0.200000003"></path>
                        <path d="M145.9993,4.6798 C147.5153,7.6338 145.4863,23.7088 128.6663,35.3468 C114.5043,45.1438 103.3323,43.3468 103.3323,43.3468 L89.9993,27.6798 C89.9993,27.6798 95.3323,4.0128 116.6663,1.3468 C137.9993,-1.3202 145.9993,4.6798 145.9993,4.6798" id="Fill-36" fill="#423748"></path>
                        <path d="M103.6663,42.0128 C105.2703,47.6808 106.8753,53.0108 103.3333,54.0128 C99.7903,55.0158 93.8563,51.1638 92.2513,45.4948 C90.6463,39.8268 93.4573,33.6818 96.9993,32.6798 C100.5423,31.6768 102.0623,36.3448 103.6663,42.0128" id="Fill-38" fill="#FFAEAE"></path>
                        <path d="M155.0828,183.7213 C151.9578,184.9713 149.1258,185.5313 146.2498,185.6793 C143.7588,185.8083 142.2498,186.5543 140.4998,188.3043 C139.4578,189.3463 136.9578,191.7213 130.7278,195.0823 C126.4148,197.4093 121.8158,198.8493 118.2498,201.3463 C98.2498,215.3463 83.0808,245.2313 83.0808,245.2313 C91.4128,252.8363 96.7988,262.9233 99.0828,273.9713 C105.4578,251.0963 117.7078,226.3463 138.4578,204.9713 C142.1388,201.1793 147.3288,196.7143 151.6918,192.8623 C155.4578,189.7213 159.7408,185.4703 161.9578,182.7213 C166.6868,176.8593 168.5178,173.6083 172.8908,167.4763 C168.2978,174.0393 164.2128,180.0693 155.0828,183.7213" id="Fill-40" fill="#2B2B50" style="mix-blend-mode: multiply;" opacity="0.200000003"></path>
                        <path d="M283.2498,173.3463 L298.4998,168.1793 C298.4998,168.1793 288.8188,142.0643 287.3888,137.8303 C285.9578,133.5963 285.4578,129.3463 285.4578,124.7213 C283.9578,128.4713 283.4748,135.1993 283.4578,136.3463 L283.2498,173.3463 Z" id="Fill-42" fill="#7582B8" style="mix-blend-mode: multiply;" opacity="0.200000003"></path>
                        <path d="M215.2498,93.3463 C215.2498,93.3463 197.5828,100.3463 190.2498,104.0133 C182.1118,108.0813 172.5828,114.6793 168.5828,131.0133 C165.1768,144.9203 162.8328,169.5823 162.3978,176.5653 C162.3228,177.7773 162.7508,178.9623 163.5828,179.8463 L183.9168,200.6793 C183.9168,200.6793 182.2498,260.6793 186.5828,292.6793 C186.5828,292.6793 204.5828,279.0133 269.5828,269.6793 C269.5828,261.3463 270.5828,235.6793 272.2498,229.0133 C279.0998,201.6153 286.9158,193.0133 289.2498,166.6793 C290.7818,149.3853 282.9158,123.3463 277.2498,107.0133 C274.8858,100.2003 266.7498,97.6793 251.7498,95.6793 C243.8958,94.6323 215.2498,93.3463 215.2498,93.3463" id="Fill-44" fill="#FFEDA6"></path>
                        <path d="M183.6619,238.9752 C183.8569,257.0582 184.5769,277.8682 186.5829,292.6792 C186.5829,292.6792 192.2659,288.3662 208.7729,282.9292 C225.3669,264.0942 245.5599,249.1002 270.5439,244.5332 C270.6169,243.4102 270.6939,242.3082 270.7749,241.2352 C241.5259,241.9392 212.3969,243.4812 183.6619,238.9752" id="Fill-46" fill="#7582B8" style="mix-blend-mode: multiply;" opacity="0.200000003"></path>
                        <path d="M213.7361,151.0216 L214.2081,180.8466 L205.2501,225.3466 L257.0831,234.0966 L234.0831,221.8466 C225.5831,217.5966 221.1081,209.3866 220.2801,201.8986 L214.6461,150.9636 C214.5831,150.3866 213.7261,150.4406 213.7361,151.0216" id="Fill-48" fill="#7582B8" style="mix-blend-mode: multiply;" opacity="0.200000003"></path>
                        <path d="M65.5828,174.8463 L47.8958,149.6923 C46.8228,148.3043 45.5828,151.0133 47.2498,159.3463 C49.6998,171.5983 51.5828,184.0133 51.5828,184.0133 L65.5828,174.8463 Z" id="Fill-50" fill="#2B2B50" style="mix-blend-mode: multiply;" opacity="0.200000003"></path>
                    </g>
                    <g id="Group-55" transform="translate(330.000000, 192.781000)">
                        <mask id="mask-10" fill="white">
                            <use xlink:href="#path-9"></use>
                        </mask>
                        <g id="Clip-54"></g>
                        <path d="M1.609,0.778 C0.942,0.815 0.408,1.36 0.398,2.029 C0.278,10.221 3.809,58.553 5.333,69.221 C6.468,77.169 10.047,81.718 17.083,82.846 C34.75,85.679 56.108,85.51 74.083,84.346 C97.25,82.846 131.083,78.846 131.083,78.846 L127.75,59.847 C127.75,59.847 104.083,56.68 85.083,51.846 C60.358,45.556 46.582,44.346 46.582,44.346 L47.75,3.555 C47.75,3.555 38.448,0.352 16.3,0.352 C11.914,0.352 7.03,0.477 1.609,0.778" id="Fill-53" fill="url(#radialGradient-11)" mask="url(#mask-10)"></path>
                    </g>
                    <g id="Group-61" transform="translate(358.000000, 0.781000)">
                        <g id="Group-58">
                            <mask id="mask-13" fill="white">
                                <use xlink:href="#path-12"></use>
                            </mask>
                            <g id="Clip-57"></g>
                            <path d="M11.9158,59.3463 C11.9158,59.3463 2.9158,54.6793 0.5828,35.0133 C-1.8832,14.2253 16.9158,4.0133 24.2498,2.3463 C30.7828,0.8613 37.0418,-0.1507 43.2498,0.3463 C51.5828,1.0133 58.4228,4.3423 62.5828,8.0133 C68.2498,13.0133 70.5288,16.9973 70.9158,26.6793 C71.2498,35.0133 70.9158,45.3463 70.9158,45.3463 L11.9158,59.3463 Z" id="Fill-56" fill="#423748" mask="url(#mask-13)"></path>
                        </g>
                        <path d="M14.9158,68.0128 C14.9158,68.0128 24.2498,95.0128 18.5828,109.3458 C18.5828,109.3458 47.9158,131.3458 61.2498,127.6798 C74.5828,124.0128 64.5828,111.8458 64.5828,111.8458 C64.5828,111.8458 60.0828,101.8458 59.5828,89.8458 L14.9158,68.0128 Z" id="Fill-59" fill="#FFAEAE"></path>
                    </g>
                    <g id="Group-64" transform="translate(367.000000, 14.781000)">
                        <mask id="mask-15" fill="white">
                            <use xlink:href="#path-14"></use>
                        </mask>
                        <g id="Clip-63"></g>
                        <path d="M27.204,1.325 C11.298,4.012 -2.362,17.568 1.582,40.846 C6.583,70.347 20.583,86.68 42.445,85.63 C64.094,84.592 65.583,54.846 62.583,30.847 C59.992,10.12 46.747,0.857 32.711,0.858 C30.882,0.858 29.039,1.015 27.204,1.325" id="Fill-62" fill="url(#radialGradient-16)" mask="url(#mask-15)"></path>
                    </g>
                    <g id="Group-133" transform="translate(0.000000, 10.781000)">
                        <path d="M391.7498,1.7628 C377.5498,6.4358 366.3328,16.5958 366.3328,16.5958 L365.0828,41.8458 L372.4578,52.7208 C374.4578,51.0958 374.9968,48.1348 374.4488,45.6078 C372.3328,35.8458 372.5828,37.1378 372.5828,32.5958 C372.5828,31.5248 372.7058,30.4598 372.9148,29.4248 C373.5458,26.2908 376.9548,24.5968 379.8818,25.8828 C387.2348,29.1128 395.6288,32.9288 403.5828,32.6798 C419.5828,32.1798 416.1658,25.1798 418.9158,22.6798 C421.6658,20.1798 423.2498,20.5128 423.4998,16.0128 C423.7498,15.0128 411.4998,-4.7372 391.7498,1.7628" id="Fill-65" fill="#423748"></path>
                        <path d="M370.7029,47.5851 C372.8129,52.6141 376.7319,62.3051 374.2499,63.3461 C371.7659,64.3881 363.8229,56.3861 361.7129,51.3571 C359.6019,46.3281 360.3019,42.0691 362.3879,40.3651 C366.0829,37.3461 368.5929,42.5561 370.7029,47.5851" id="Fill-67" fill="#FFAEAE"></path>
                        <path d="M572.2391,260.6071 L470.5121,268.0731 C467.7701,268.2741 465.3611,266.1951 465.1601,263.4521 L464.8671,260.4591 L576.5661,252.2601 L576.8601,255.2541 C577.0611,257.9971 574.9821,260.4061 572.2391,260.6071" id="Fill-69" fill="#42426C"></path>
                        <path d="M595.7166,169.3805 L581.2746,248.5745 C580.7796,251.2795 578.1626,253.0895 575.4576,252.5965 L574.4456,252.3835 L590.6826,163.3515 L591.6956,163.5645 C594.4006,164.0575 596.2096,166.6745 595.7166,169.3805" id="Fill-71" fill="#42426C"></path>
                        <path d="M254.5828,199.5963 C254.5828,199.5963 287.9088,234.5783 292.9158,238.5133 C299.9158,244.0133 303.9408,241.3933 311.5828,238.8463 C327.5828,233.5133 333.0128,230.7423 354.5828,219.3463 C372.2498,210.0133 387.0828,203.3463 387.0828,203.3463 L378.8328,187.8463 C378.8328,187.8463 365.5828,193.3463 338.0828,199.3463 C321.3568,202.9953 315.7828,204.0963 310.2488,205.0133 C308.1108,205.3673 306.3678,203.7493 304.8838,202.5013 L276.3328,167.7633 L254.5828,199.5963 Z" id="Fill-73" fill="#FFAEAE"></path>
                        <path d="M524.0828,345.3463 C517.2858,343.8353 508.5828,333.0133 520.9158,324.6793 C530.0118,318.5343 538.5918,320.9893 547.5828,320.3463 C561.5828,319.3463 566.1638,308.8473 584.9158,304.6793 C608.9158,299.3463 618.4418,309.6453 618.9158,318.0133 C619.4158,326.8463 616.2498,336.6793 588.9158,342.0133 C571.2098,345.4673 557.5828,346.3463 548.2498,346.6793 C538.5658,347.0253 531.9578,347.0963 524.0828,345.3463" id="Fill-75" fill="#FFAEAE"></path>
                        <g id="Group-79" transform="translate(0.000000, 341.000000)">
                            <mask id="mask-18" fill="white">
                                <use xlink:href="#path-17"></use>
                            </mask>
                            <g id="Clip-78"></g>
                            <path d="M12.2694,36.4518 C3.3244,31.0208 -5.0296,20.4228 3.6694,13.2328 C9.5824,8.3468 21.5634,16.9908 27.5824,16.3468 C34.5424,15.5998 34.9164,0.3468 45.8074,0.3338 C57.8834,0.3198 57.5824,17.4248 57.5824,26.3468 C57.5824,31.6308 54.1024,42.2258 44.9164,44.3468 C36.2494,46.3468 24.3084,43.7618 12.2694,36.4518" id="Fill-77" fill="#8697D0" mask="url(#mask-18)"></path>
                        </g>
                        <path d="M146.0828,430.3463 C142.4578,432.3463 133.2078,432.2213 127.2078,425.8463 C122.3548,420.6913 121.2748,415.7503 125.0828,413.8463 C127.8328,412.4713 131.5148,413.6913 133.9578,414.8463 C136.0928,415.8563 136.5308,415.9793 137.9578,414.0963 C140.0238,411.3693 143.5568,408.7333 147.0828,409.3463 C152.8328,410.3463 154.6838,425.6013 146.0828,430.3463" id="Fill-80" fill="#8697D1"></path>
                        <g id="Group-84" transform="translate(159.000000, 424.000000)">
                            <mask id="mask-20" fill="white">
                                <use xlink:href="#path-19"></use>
                            </mask>
                            <g id="Clip-83"></g>
                            <path d="M6.8328,20.5963 C3.7078,19.8463 -0.5332,17.1383 1.0828,7.4713 C2.4498,-0.7057 7.3818,-1.2967 10.5828,2.8463 C12.7078,5.5963 12.9478,8.3033 13.8328,7.9713 C14.8328,7.5963 16.3328,5.8463 19.2078,5.5963 C23.6788,5.2073 24.8328,9.8463 22.8328,12.7213 C17.3928,20.5423 11.9438,21.8233 6.8328,20.5963" id="Fill-82" fill="#8697D1" mask="url(#mask-20)"></path>
                        </g>
                        <path d="M287.4578,399.3463 C283.1858,398.9013 281.7078,394.8463 281.8328,392.2213 C281.9888,388.9443 285.0828,388.3463 286.3678,389.7743 C287.2448,390.7483 288.1438,393.2173 288.9578,392.4713 C290.4578,391.0963 293.1698,388.0603 295.2078,390.9713 C296.9578,393.4713 293.4578,399.9713 287.4578,399.3463" id="Fill-85" fill="#8697D1"></path>
                        <path d="M365.5828,424.5963 C360.9158,425.5963 355.5828,421.3463 352.3328,416.2213 C351.0458,414.1913 350.7368,409.6743 354.9998,409.3463 C358.2498,409.0963 359.9878,411.5513 361.5828,412.7213 C362.3358,413.2733 362.6228,413.3303 363.7078,411.3463 C365.1658,408.6793 367.5828,406.5963 369.9158,406.6793 C372.6018,406.7763 374.5518,408.6413 373.9578,412.7213 C372.9368,419.7353 369.4988,423.7573 365.5828,424.5963" id="Fill-87" fill="#8697D1"></path>
                        <path d="M399.3328,401.8463 C398.4168,402.7213 397.3998,402.8593 396.6958,401.8063 C394.8168,398.9963 391.8328,395.8463 387.5828,396.7213 C385.5628,397.1373 382.9818,399.7363 385.9048,406.6273 C388.0828,411.7633 391.5438,417.1853 396.3328,418.3463 C401.8328,419.6793 407.3008,416.2723 411.0828,410.9713 C416.5828,403.2633 413.5908,398.9623 409.5828,398.3463 C405.2498,397.6793 401.5188,399.7583 399.3328,401.8463" id="Fill-89" fill="#8697D1"></path>
                        <path d="M378.5408,93.0128 C378.0828,92.0128 378.3748,90.4298 378.3748,90.4298 C378.3748,90.4298 377.1448,91.0688 376.4158,91.8878 C374.8948,93.5958 374.1918,95.3598 372.3948,97.7208 C370.6548,100.0078 368.8238,101.8518 368.8238,101.8518 C368.1608,102.5438 368.0258,103.5768 368.4808,104.4208 C369.9818,107.2008 373.6238,113.7428 385.4578,122.0958 C396.7908,130.0958 402.9158,132.6798 409.5498,134.8038 C412.5488,135.7638 415.1658,135.0958 416.0828,132.0958 C416.0828,132.0958 417.2248,128.8498 417.8328,125.0958 C418.5828,120.4708 418.9158,117.6798 418.9158,117.6798 C418.9158,117.6798 407.5828,116.0128 394.9158,108.6798 C384.4928,102.6458 379.9198,96.0198 378.5408,93.0128" id="Fill-91" fill="#D8DDEA"></path>
                        <path d="M429.1375,129.2115 C429.1375,129.2115 426.3325,126.8465 423.8325,124.2215 C421.3325,121.5965 418.9155,117.6795 418.9155,117.6795 C418.9155,117.6795 420.4575,113.2215 421.0825,109.4715 C421.8295,104.9895 421.8915,99.3885 420.0405,94.7625 L419.7905,93.7625 C419.7905,93.7625 421.1455,95.2215 423.0205,97.4085 C424.6975,99.3655 425.6275,100.0195 426.3955,101.2215 C430.7075,107.9715 431.6755,121.6295 431.8665,128.1285 C431.9095,129.5895 430.1075,130.3055 429.1375,129.2115" id="Fill-93" fill="#D8DDEA"></path>
                        <path d="M489.3631,435.0133 C493.7751,435.2533 495.5091,433.7723 501.7791,425.3463 C505.7791,419.9713 508.2441,415.2583 509.6541,411.7213 C512.3631,404.9293 510.4871,400.1453 502.6541,402.8463 C499.0291,404.0963 497.4961,404.4733 495.9581,404.1153 C486.9461,402.0133 485.7041,407.1043 485.5291,409.0963 C484.9041,416.2213 483.5291,414.3463 483.5291,414.3463 C483.5291,414.3463 481.2791,410.8463 476.2791,410.5963 C471.2791,410.3463 468.0991,413.5943 470.6541,417.7213 C473.3631,422.0963 474.9041,426.2943 477.1961,429.2633 C480.8631,434.0133 484.7791,434.7633 489.3631,435.0133" id="Fill-95" fill="#8697D1"></path>
                        <path d="M392.0828,190.1798 L400.9938,160.0068 C401.3558,158.7808 402.3668,157.8548 403.6198,157.6028 L423.1618,153.6668 C424.2698,153.4448 425.2208,154.4698 424.9148,155.5568 L416.9158,184.0128 L392.0828,190.1798 Z" id="Fill-97" fill="#2B2B51"></path>
                        <path d="M637.577,404.3395 C641.083,404.5965 644.194,401.7725 647.083,397.5965 C652.176,390.2355 648.156,388.0375 646.614,387.4665 C644.897,386.8305 641.583,386.5965 638.333,390.3465 C638.333,390.3465 635.898,385.8015 631.384,387.0955 C626.614,388.4635 627.117,393.0315 628.855,396.6155 C630.477,399.9605 633.055,404.0075 637.577,404.3395" id="Fill-99" fill="#8697D1"></path>
                        <path d="M490.0828,435.0133 C495.4308,435.9103 501.3628,434.0133 505.5288,430.8463 C512.6558,425.4303 511.7398,421.3903 510.5288,420.1793 C508.1958,417.8463 504.6038,418.8323 501.6458,422.3703 C501.6458,422.3703 501.1188,417.0813 496.1788,417.5493 C491.2378,418.0173 488.9658,420.7523 489.8758,423.8013 C491.5068,429.2643 484.7348,434.1153 490.0828,435.0133" id="Fill-101" fill="#8697D1"></path>
                        <path d="M375.8328,188.6378 C375.8328,188.6378 402.2498,177.4298 408.5828,175.0128 C412.1118,173.6658 414.4158,170.7208 417.4158,167.8458 C420.7368,164.6638 423.2078,162.0958 423.2078,162.0958 C423.2078,162.0958 426.7548,163.0378 425.8328,168.3458 C423.0828,184.1798 423.2498,189.0128 417.7498,194.1798 C410.7868,200.7198 409.5828,202.6798 403.9158,203.3458 C401.2468,203.6598 380.4998,205.6378 380.4998,205.6378 L375.8328,188.6378 Z" id="Fill-103" fill="#FFAEAE"></path>
                        <path d="M374.5828,190.0128 C374.5828,190.0128 378.5848,182.7308 382.5408,179.0548 C385.2178,176.5678 389.7378,172.5258 390.6658,171.3048 C393.0408,168.1798 393.4518,165.9878 394.2908,163.6798 C394.7908,162.3048 396.4158,162.1798 397.2908,164.6798 C398.1658,167.1798 397.9158,170.8048 397.9158,170.8048 L395.0408,181.0548 L374.5828,190.0128 Z" id="Fill-105" fill="#FFAEAE"></path>
                        <path d="M296.1834,114.7828 L314.5494,105.0588 C315.4424,104.5868 314.8894,103.2048 313.9264,103.5118 C312.1114,104.0888 308.5284,104.8848 304.2974,107.7558 C298.1294,111.9398 296.1834,114.7828 296.1834,114.7828" id="Fill-107" fill="#E09595"></path>
                        <path d="M271.9271,116.4435 C271.9271,116.4435 256.9211,114.9695 245.5331,116.1365 C244.0391,116.2895 243.2071,114.4095 244.3761,113.4655 C245.9101,112.2275 248.1241,111.1345 251.0881,111.2845 C257.6291,111.6135 271.9271,116.4435 271.9271,116.4435" id="Fill-109" fill="#2B2B50" style="mix-blend-mode: multiply;" opacity="0.200000003"></path>
                        <path d="M293.3489,150.7057 C301.2069,151.6097 306.6909,149.7167 309.4789,148.3507 C309.9579,148.1157 310.1579,148.5917 310.0269,149.1087 C309.4159,151.5127 307.0619,153.3397 304.5829,153.8467 C301.2019,154.5377 295.9159,153.1797 293.2149,151.4007 C292.8529,151.1627 292.9189,150.6567 293.3489,150.7057" id="Fill-111" fill="#2B2B50" style="mix-blend-mode: multiply;" opacity="0.200000003"></path>
                        <path d="M289.3328,116.5494 C289.3328,118.3904 287.7658,119.8824 285.8328,119.8824 C283.8998,119.8824 282.3328,118.3904 282.3328,116.5494 C282.3328,114.7084 283.7328,116.8824 285.6658,116.8824 C287.5988,116.8824 289.3328,114.7084 289.3328,116.5494" id="Fill-113" fill="#E09595"></path>
                        <path d="M247.2493,318.6793 L260.9163,268.0133 C260.9163,268.0133 274.8653,275.2623 303.9163,278.3463 C363.5823,284.6793 381.5823,302.0133 385.2493,308.6793 C403.3183,341.5313 344.2373,334.9653 343.9163,334.3463 L247.2493,318.6793 Z" id="Fill-115" fill="#42426C"></path>
                        <path d="M257.5828,283.6793 L244.9168,314.0133 L301.2498,298.6793 C301.2498,298.6793 277.7248,300.9623 264.2498,299.6793 C257.2498,299.0133 257.5828,283.6793 257.5828,283.6793" id="Fill-117" fill="#2B2B51"></path>
                        <path d="M169.5828,355.0133 C169.5828,355.0133 127.2498,334.3463 144.2498,287.0133 C161.2498,239.6793 223.3658,166.0013 241.0828,153.3463 C251.5828,145.8463 260.1078,140.4603 273.9158,147.0133 C288.7728,154.0633 289.5828,164.8463 286.2488,182.6803 C284.3758,192.7043 258.2488,282.3463 254.2498,300.6793 C250.2498,319.0133 248.5828,342.6793 248.5828,342.6793 L169.5828,355.0133 Z" id="Fill-119" fill="#2B2B51"></path>
                        <path d="M212.3328,279.3463 C212.3328,279.3463 212.2038,300.8783 204.8328,314.5963 C192.2498,338.0133 176.5828,342.3463 169.5828,345.0133 C184.4188,343.3443 217.3098,342.3223 226.4678,339.7943 C222.8988,319.6763 219.1898,299.7733 215.0028,279.4083 L212.3328,279.3463 Z" id="Fill-121" fill="#2B2B51"></path>
                        <path d="M176.5828,338.6793 C171.5828,337.0133 169.5828,338.5133 165.2498,340.8463 C162.7058,342.2163 161.1348,342.2073 157.2058,342.0683 C149.8688,340.9073 143.8778,336.9203 136.3168,338.6603 C134.0198,339.1893 131.9638,340.1573 130.2398,341.4273 C128.5248,342.6913 126.4728,343.4153 124.3628,343.7103 C111.7518,345.4713 100.2938,348.5003 93.9158,352.6793 C84.2498,359.0133 78.0218,374.8713 77.0828,383.5133 C76.2498,391.1793 81.1628,393.2053 86.0828,393.5133 C91.4158,393.8463 96.3458,392.0213 99.0828,390.8463 C132.8988,376.3273 181.2498,363.0133 181.2498,363.0133 L185.2498,342.0133 C185.2498,342.0133 181.5828,340.3463 176.5828,338.6793" id="Fill-123" fill="#FFAEAE"></path>
                        <path d="M182.2493,340.6793 C182.2493,340.6793 220.5823,321.0133 247.2493,311.0133 C273.9163,301.0133 299.7213,294.7983 338.4163,298.5133 C359.2493,300.5133 381.2493,300.6793 386.2493,310.0133 C391.2493,319.3463 392.9153,336.0133 379.5823,346.0133 C374.2493,350.0133 361.5913,354.9553 340.9163,354.6793 C315.9163,354.3463 265.2693,351.1773 215.2493,357.0133 C195.2493,359.3463 179.9163,363.3463 179.9163,363.3463 L182.2493,340.6793 Z" id="Fill-125" fill="#42426C"></path>
                        <path d="M214.9163,290.3463 C214.9163,290.3463 201.9163,250.6793 214.5833,216.0133 C214.9263,215.0743 220.2493,237.6793 218.9163,243.3463 C217.5833,249.0133 212.9163,264.3463 215.9163,290.0133" id="Fill-127" fill="#2B2B51"></path>
                        <path d="M223.4993,359.0133 C220.5493,357.8543 220.1113,353.0663 227.1663,351.8463 C240.6663,349.5133 244.4993,346.5133 254.5873,347.3073 C262.0383,347.8933 265.9473,356.2083 262.5683,358.8323 C254.6373,364.9923 228.1663,360.8463 223.4993,359.0133" id="Fill-129" fill="#FFAEAE"></path>
                        <path d="M491.7498,233.6793 L479.7078,230.7813 C475.9368,229.9003 471.9678,230.3993 468.5468,232.2153 C462.2248,235.5723 457.9808,237.4173 453.2078,239.8043 C451.0268,240.8953 449.0238,240.5233 447.0828,240.3463 L451.3328,261.0543 C451.3328,261.0543 458.0848,262.2303 465.4578,262.0543 C470.7078,261.9293 474.5318,261.3373 487.2078,259.1793 C490.7408,258.5783 501.3328,258.0963 505.5828,257.3463 C505.5828,254.2213 505.8328,252.3043 501.5828,242.8463 C499.8408,238.9703 496.0828,234.6793 491.7498,233.6793" id="Fill-131" fill="#FFAEAE"></path>
                    </g>
                </g>
            </g>
        </g>
    </g>
</svg>