<?xml version="1.0" encoding="UTF-8"?>
<svg width="589px" height="672px" viewBox="0 0 589 672" version="1.1" xmlns="http://www.w3.org/2000/svg" xmlns:xlink="http://www.w3.org/1999/xlink">
    <!-- Generator: Sketch 51.3 (57544) - http://www.bohemiancoding.com/sketch -->
    <title>Карта More Signature</title>
    <desc>Created with Sketch.</desc>
    <defs>
        <polygon id="path-1" points="0 672 588.167 672 588.167 0.135 0 0.135"></polygon>
        <path d="M0.89,45.29 C0.655,70.349 11.39,90.624 27.403,91.626 C46.214,92.803 63.838,72.399 68.89,38.79 C74.64,0.54 53.924,2.575 35.127,1.205 C32.55,1.017 30.168,0.926 27.959,0.926 C-4.108,0.928 1.124,20.264 0.89,45.29" id="path-3"></path>
        <radialGradient cx="3.16064643%" cy="240.525212%" fx="3.16064643%" fy="240.525212%" r="254.136067%" gradientTransform="translate(0.031606,2.405252),scale(1.000000,0.762137),rotate(-80.671609),translate(-0.031606,-2.405252)" id="radialGradient-5">
            <stop stop-color="#FFE8E8" offset="0%"></stop>
            <stop stop-color="#FDACAC" offset="100%"></stop>
        </radialGradient>
    </defs>
    <g id="Частным" stroke="none" stroke-width="1" fill="none" fill-rule="evenodd">
        <g id="-Мобильный-банк.png-БКС-Платинум.png-Доходный-фунт.png-Кредит-Онлайн.png-Рефенансирование.png-Цифровой-Signature.png-Цифровой-Visa-Platinum.png-More-Signature.png-more-visa-platinum.png" transform="translate(-4677.000000, -9168.000000)">
            <g id="Карта-More-Signature" transform="translate(4588.000000, 9120.000000)">
                <rect id="Rectangle-8-Copy-6" fill-rule="nonzero" x="0" y="0" width="767" height="767"></rect>
                <g id="Group-116" transform="translate(89.000000, 47.000000)">
                    <polygon id="Fill-1" fill="#D8DDEA" points="107.698 118.81 110.583 118.81 110.583 34 107.698 34"></polygon>
                    <g id="Group-73" transform="translate(0.000000, 0.865000)">
                        <path d="M114.1346,106.2904 L104.1466,106.2904 C103.7286,106.2904 103.3906,105.9524 103.3906,105.5344 L103.3906,45.5464 C103.3906,45.1284 103.7286,44.7904 104.1466,44.7904 L114.1346,44.7904 C114.5516,44.7904 114.8906,45.1284 114.8906,45.5464 L114.8906,105.5344 C114.8906,105.9524 114.5516,106.2904 114.1346,106.2904" id="Fill-2" fill="#D8DDEA"></path>
                        <mask id="mask-2" fill="white">
                            <use xlink:href="#path-1"></use>
                        </mask>
                        <g id="Clip-5"></g>
                        <polygon id="Fill-4" fill="#D8DDEA" mask="url(#mask-2)" points="144.281 202.279 147.166 202.279 147.166 117.469 144.281 117.469"></polygon>
                        <path d="M150.7176,190.6239 L140.7296,190.6239 C140.3116,190.6239 139.9736,190.2859 139.9736,189.8679 L139.9736,129.8799 C139.9736,129.4619 140.3116,129.1239 140.7296,129.1239 L150.7176,129.1239 C151.1346,129.1239 151.4736,129.4619 151.4736,129.8799 L151.4736,189.8679 C151.4736,190.2859 151.1346,190.6239 150.7176,190.6239" id="Fill-6" fill="#D8DDEA" mask="url(#mask-2)"></path>
                        <polygon id="Fill-7" fill="#D8DDEA" mask="url(#mask-2)" points="180.864 132.945 183.75 132.945 183.75 48.135 180.864 48.135"></polygon>
                        <path d="M187.3011,121.2904 L177.3131,121.2904 C176.8951,121.2904 176.5571,120.9524 176.5571,120.5344 L176.5571,60.5464 C176.5571,60.1284 176.8951,59.7904 177.3131,59.7904 L187.3011,59.7904 C187.7181,59.7904 188.0571,60.1284 188.0571,60.5464 L188.0571,120.5344 C188.0571,120.9524 187.7181,121.2904 187.3011,121.2904" id="Fill-8" fill="#D8DDEA" mask="url(#mask-2)"></path>
                        <polygon id="Fill-9" fill="#D8DDEA" mask="url(#mask-2)" points="217.448 157.612 220.333 157.612 220.333 72.802 217.448 72.802"></polygon>
                        <path d="M223.8846,145.9569 L213.8966,145.9569 C213.4786,145.9569 213.1406,145.6189 213.1406,145.2009 L213.1406,85.2129 C213.1406,84.7949 213.4786,84.4569 213.8966,84.4569 L223.8846,84.4569 C224.3016,84.4569 224.6406,84.7949 224.6406,85.2129 L224.6406,145.2009 C224.6406,145.6189 224.3016,145.9569 223.8846,145.9569" id="Fill-10" fill="#D8DDEA" mask="url(#mask-2)"></path>
                        <polygon id="Fill-11" fill="#D8DDEA" mask="url(#mask-2)" points="254.031 134.279 256.916 134.279 256.916 49.469 254.031 49.469"></polygon>
                        <path d="M260.4676,122.6239 L250.4796,122.6239 C250.0616,122.6239 249.7236,122.2859 249.7236,121.8679 L249.7236,61.8799 C249.7236,61.4619 250.0616,61.1239 250.4796,61.1239 L260.4676,61.1239 C260.8846,61.1239 261.2236,61.4619 261.2236,61.8799 L261.2236,121.8679 C261.2236,122.2859 260.8846,122.6239 260.4676,122.6239" id="Fill-12" fill="#D8DDEA" mask="url(#mask-2)"></path>
                        <polygon id="Fill-13" fill="#D8DDEA" mask="url(#mask-2)" points="290.614 140.612 293.499 140.612 293.499 55.802 290.614 55.802"></polygon>
                        <path d="M297.0511,128.9569 L287.0631,128.9569 C286.6451,128.9569 286.3071,128.6189 286.3071,128.2009 L286.3071,68.2129 C286.3071,67.7949 286.6451,67.4569 287.0631,67.4569 L297.0511,67.4569 C297.4681,67.4569 297.8071,67.7949 297.8071,68.2129 L297.8071,128.2009 C297.8071,128.6189 297.4681,128.9569 297.0511,128.9569" id="Fill-14" fill="#D8DDEA" mask="url(#mask-2)"></path>
                        <polygon id="Fill-15" fill="#D8DDEA" mask="url(#mask-2)" points="327.197 102.279 330.083 102.279 330.083 17.469 327.197 17.469"></polygon>
                        <path d="M333.6341,90.6239 L323.6461,90.6239 C323.2291,90.6239 322.8901,90.2859 322.8901,89.8679 L322.8901,29.8799 C322.8901,29.4619 323.2291,29.1239 323.6461,29.1239 L333.6341,29.1239 C334.0521,29.1239 334.3901,29.4619 334.3901,29.8799 L334.3901,89.8679 C334.3901,90.2859 334.0521,90.6239 333.6341,90.6239" id="Fill-16" fill="#D8DDEA" mask="url(#mask-2)"></path>
                        <polygon id="Fill-17" fill="#D8DDEA" mask="url(#mask-2)" points="363.78 86.279 366.666 86.279 366.666 1.469 363.78 1.469"></polygon>
                        <path d="M370.2181,74.6239 L360.2301,74.6239 C359.8121,74.6239 359.4741,74.2859 359.4741,73.8679 L359.4741,13.8799 C359.4741,13.4619 359.8121,13.1239 360.2301,13.1239 L370.2181,13.1239 C370.6351,13.1239 370.9741,13.4619 370.9741,13.8799 L370.9741,73.8679 C370.9741,74.2859 370.6351,74.6239 370.2181,74.6239" id="Fill-18" fill="#D8DDEA" mask="url(#mask-2)"></path>
                        <polygon id="Fill-19" fill="#D8DDEA" mask="url(#mask-2)" points="400.364 105.279 403.249 105.279 403.249 20.469 400.364 20.469"></polygon>
                        <path d="M406.8011,93.6239 L396.8131,93.6239 C396.3951,93.6239 396.0571,93.2859 396.0571,92.8679 L396.0571,32.8799 C396.0571,32.4619 396.3951,32.1239 396.8131,32.1239 L406.8011,32.1239 C407.2181,32.1239 407.5571,32.4619 407.5571,32.8799 L407.5571,92.8679 C407.5571,93.2859 407.2181,93.6239 406.8011,93.6239" id="Fill-20" fill="#D8DDEA" mask="url(#mask-2)"></path>
                        <polygon id="Fill-21" fill="#D8DDEA" mask="url(#mask-2)" points="436.947 99.612 439.833 99.612 439.833 14.802 436.947 14.802"></polygon>
                        <path d="M443.3841,87.9569 L433.3961,87.9569 C432.9791,87.9569 432.6401,87.6189 432.6401,87.2009 L432.6401,27.2129 C432.6401,26.7949 432.9791,26.4569 433.3961,26.4569 L443.3841,26.4569 C443.8021,26.4569 444.1401,26.7949 444.1401,27.2129 L444.1401,87.2009 C444.1401,87.6189 443.8021,87.9569 443.3841,87.9569" id="Fill-22" fill="#D8DDEA" mask="url(#mask-2)"></path>
                        <polygon id="Fill-23" fill="#D8DDEA" mask="url(#mask-2)" points="473.53 85.612 476.416 85.612 476.416 0.802 473.53 0.802"></polygon>
                        <path d="M479.9681,73.9569 L469.9801,73.9569 C469.5621,73.9569 469.2241,73.6189 469.2241,73.2009 L469.2241,13.2129 C469.2241,12.7949 469.5621,12.4569 469.9801,12.4569 L479.9681,12.4569 C480.3851,12.4569 480.7241,12.7949 480.7241,13.2129 L480.7241,73.2009 C480.7241,73.6189 480.3851,73.9569 479.9681,73.9569" id="Fill-24" fill="#D8DDEA" mask="url(#mask-2)"></path>
                        <polygon id="Fill-25" fill="#D8DDEA" mask="url(#mask-2)" points="510.114 118.279 512.999 118.279 512.999 33.469 510.114 33.469"></polygon>
                        <path d="M516.5511,106.6239 L506.5631,106.6239 C506.1461,106.6239 505.8071,106.2859 505.8071,105.8679 L505.8071,45.8799 C505.8071,45.4619 506.1461,45.1239 506.5631,45.1239 L516.5511,45.1239 C516.9681,45.1239 517.3071,45.4619 517.3071,45.8799 L517.3071,105.8679 C517.3071,106.2859 516.9681,106.6239 516.5511,106.6239" id="Fill-26" fill="#D8DDEA" mask="url(#mask-2)"></path>
                        <polygon id="Fill-27" fill="#D8DDEA" mask="url(#mask-2)" points="546.697 84.945 549.583 84.945 549.583 0.135 546.697 0.135"></polygon>
                        <path d="M553.1341,73.2904 L543.1461,73.2904 C542.7291,73.2904 542.3901,72.9524 542.3901,72.5344 L542.3901,12.5464 C542.3901,12.1284 542.7291,11.7904 543.1461,11.7904 L553.1341,11.7904 C553.5521,11.7904 553.8901,12.1284 553.8901,12.5464 L553.8901,72.5344 C553.8901,72.9524 553.5521,73.2904 553.1341,73.2904" id="Fill-28" fill="#D8DDEA" mask="url(#mask-2)"></path>
                        <polyline id="Stroke-29" stroke="#E9EEFB" stroke-width="2" mask="url(#mask-2)" points="587.7239 71.9569 548.1399 91.5399 511.5569 102.2899 475.0569 92.1239 438.3899 106.1239 401.8069 111.7899 365.2239 92.7899 328.6399 108.7899 291.9739 140.9569 255.4739 140.8739 218.8909 164.1239 182.2239 177.9569 145.7239 202.2789 109.1409 195.0289 66.8909 199.6949"></polyline>
                        <polyline id="Stroke-30" stroke="#E9EEFB" stroke-width="2" mask="url(#mask-2)" points="66.8905 161.2904 109.1405 146.2904 145.7235 138.2074 182.2235 120.9574 218.8905 103.4574 255.4735 90.2074 291.9745 66.4684 328.6405 58.1244 365.2235 53.6244 401.8075 55.2904 438.3905 49.2904 475.0575 49.2904 511.5575 49.2904 548.1405 44.6244 587.7235 40.2904"></polyline>
                        <path d="M458.515,116.7904 C458.89,120.0404 453.015,118.4154 453.015,118.4154 L450.265,109.1654 L455.015,108.2904 C455.015,108.2904 458.14,113.5404 458.515,116.7904" id="Fill-31" fill="#E09595" mask="url(#mask-2)"></path>
                        <polygon id="Fill-32" fill="#E09595" mask="url(#mask-2)" points="467.057 117.8739 460.89 117.2909 459.474 107.9569 465.89 113.6239"></polygon>
                        <polygon id="Fill-33" fill="#D8DDEA" mask="url(#mask-2)" points="452.64 412.2904 510.724 279.9574 482.14 263.2904 414.89 412.2904"></polygon>
                        <path d="M117.7235,577.6234 C117.7235,577.6234 116.3905,587.6234 113.7235,589.9574 C111.0565,592.2904 90.8905,602.2904 76.7235,605.6234 C62.4695,608.9774 56.7235,610.2904 47.7235,610.6234 C38.7235,610.9574 31.4705,608.9654 30.1405,612.0404 C28.8065,615.1234 30.7235,620.9574 37.3905,622.9574 C39.4495,623.5744 44.9465,626.8634 51.3905,627.6234 C65.8075,629.3244 87.6525,628.9374 105.3905,632.6234 C131.0565,637.9574 138.6375,639.5894 146.3905,637.9574 C152.7235,636.6234 153.3905,632.2904 152.3905,626.2904 C151.5605,621.3144 156.3905,581.9574 156.3905,581.9574 L117.7235,577.6234 Z" id="Fill-34" fill="#E09595" mask="url(#mask-2)"></path>
                        <path d="M152.9061,614.3177 C136.7831,615.8287 112.9331,614.4877 100.6401,606.0407 C97.6241,603.9677 102.2971,600.0407 99.8411,597.2767 C92.6351,600.5277 83.9091,602.9327 76.7231,604.6237 C62.4691,607.9777 57.3901,608.7907 47.7231,609.6237 C38.7511,610.3967 31.4701,608.9647 30.1401,612.0407 C28.8071,615.1237 30.1941,621.1647 36.6401,623.7907 C40.4641,625.3477 45.5701,627.1957 51.3901,627.6237 C65.8681,628.6867 87.6521,628.9377 105.3901,632.6237 C131.0571,637.9577 138.6371,639.5887 146.3901,637.9577 C152.7231,636.6237 153.3901,632.2907 152.3901,626.2907 C152.1381,624.7807 152.4081,620.1007 152.9061,614.3177" id="Fill-35" fill="#2B2B51" mask="url(#mask-2)"></path>
                        <path d="M120.3905,598.9574 C120.3905,598.9574 109.4035,608.6164 104.7235,610.9574 C99.3905,613.6234 93.0575,616.2904 79.0575,620.6234 C65.0575,624.9574 57.7235,627.6234 41.7235,628.6234 C25.7235,629.6234 7.0575,628.6234 2.3905,633.9574 C-2.3075,639.3254 0.3905,648.9574 6.3905,655.6234 C14.2805,664.3914 27.6675,671.8774 49.3905,671.2904 C61.7235,670.9574 62.7235,670.9574 85.0575,666.6234 C105.1465,662.7264 111.0575,664.6234 117.7235,657.6234 C120.9915,654.1924 125.7235,638.9574 129.0575,634.6234 C132.3905,630.2904 139.7235,625.2904 139.7235,625.2904 L120.3905,598.9574 Z" id="Fill-36" fill="#FFAEAE" mask="url(#mask-2)"></path>
                        <path d="M91.3905,624.6234 C87.9415,620.7044 82.3905,621.2904 85.2655,618.5404 C84.3855,618.8184 80.0045,620.3304 79.0575,620.6234 C65.0575,624.9574 56.8905,625.7904 40.8905,626.7904 C24.8905,627.7904 7.0575,628.6234 2.3905,633.9574 C-2.3075,639.3254 0.3905,648.9574 6.3905,655.6234 C14.2805,664.3914 22.8905,670.2904 44.8905,671.7904 C57.1995,672.6294 62.7235,670.9574 85.0575,666.6234 C105.1465,662.7264 111.0575,664.6234 117.7235,657.6234 C119.7455,655.5004 123.3625,646.4474 125.8285,640.6654 C117.0485,642.3704 107.9485,643.0554 98.1405,642.0404 C90.8905,641.2904 98.7235,632.9574 91.3905,624.6234" id="Fill-37" fill="#42426C" mask="url(#mask-2)"></path>
                        <path d="M295.9984,351.0619 C295.6064,340.3549 272.1184,346.1079 228.7394,347.3169 C186.7074,348.4889 159.6424,344.3669 160.4854,356.2169 C161.2814,367.3969 191.8344,369.9199 229.2034,368.0019 C236.3674,367.6349 242.9244,367.1739 248.9094,366.7609 C252.8334,366.4899 253.1594,368.1529 252.3584,370.3539 C249.9484,376.9769 245.6994,388.2059 240.3954,399.3029 C231.5814,417.7479 226.0164,426.6059 220.9574,428.8089 C215.8984,431.0119 204.8094,429.5159 201.6564,440.1879 C198.0014,452.5589 210.5774,455.5629 215.9434,455.0209 C220.5394,454.5569 233.0404,451.4629 241.6564,440.6829 C246.5644,434.5419 261.0034,412.0409 280.5384,363.8899 C280.9274,362.9289 281.7444,362.1899 282.7424,361.9099 C291.8134,359.3629 296.1754,355.9109 295.9984,351.0619" id="Fill-38" fill="#C5CBD8" mask="url(#mask-2)"></path>
                        <path d="M376.974,158.5404 C376.974,158.5404 370.63,161.8844 357.807,169.4564 C335.163,182.8304 313.401,182.6964 299.401,195.3634 C285.401,208.0304 273.953,243.3764 268.391,252.7904 C259.724,267.4564 247.39,275.2904 236.39,293.7904 L243.401,326.6964 L278.004,323.6614 C280.266,323.4624 282.4,322.5504 284.102,321.0474 C289.505,316.2784 301.778,304.7354 309.401,292.0304 C309.401,292.0304 311.39,312.2904 312.724,327.6234 C313.361,334.9504 314.473,341.3424 313.39,343.2904 C311.796,346.1604 311.123,348.5794 311.123,348.5794 C310.076,351.0254 310.611,353.8624 312.477,355.7594 L313.401,356.6964 L449.401,359.3634 L449.833,354.5994 C450.446,347.8734 451.87,341.2504 454.085,334.8704 C456.825,326.9824 469.316,293.5464 470.89,290.7904 C473.557,286.1234 488.724,267.9564 495.39,247.2904 L556.734,289.3634 C556.734,289.3634 556.734,259.3634 539.401,227.3634 C530.88,211.6344 533.401,199.3634 523.401,183.3634 C516.048,171.5994 507.408,161.0224 483.734,161.3634 C437.401,162.0304 427.14,151.0404 427.14,151.0404 L376.974,158.5404 Z" id="Fill-39" fill="#5581EE" mask="url(#mask-2)"></path>
                        <path d="M334.5052,295.0921 C334.5052,295.0921 368.8922,294.5621 399.4252,288.6131 C412.6152,286.0421 436.8672,280.9151 436.8672,280.9151 C438.7842,281.0391 436.9522,283.1631 435.9082,283.9191 C429.7912,288.3491 417.0062,296.1141 390.3982,300.7381 C353.4222,307.1621 334.5052,295.0921 334.5052,295.0921" id="Fill-40" fill="#D8DDEA" style="mix-blend-mode: multiply;" mask="url(#mask-2)"></path>
                        <path d="M379.7328,349.4603 C380.2698,350.1363 381.2658,350.2213 381.9098,349.6443 L388.9868,343.2983 C389.8798,342.4973 390.3898,341.3553 390.3898,340.1553 L392.3898,299.0403 C392.3898,292.0363 389.1398,221.6243 389.1398,221.6243 L373.3068,341.3733 L379.7328,349.4603 Z" id="Fill-41" fill="#E86A46" mask="url(#mask-2)"></path>
                        <path d="M378.557,222.1239 C378.557,222.1239 367.47,265.9569 360.807,293.2909 C355.153,316.4859 356.226,322.4569 357.069,340.2949 C357.186,342.7889 352.89,347.2769 352.89,349.5409 C352.89,352.0409 354.39,352.7909 357.14,354.7909 L382.307,360.9569 C382.307,360.9569 378.14,354.2909 378.64,352.0409 C379.535,348.0149 381.39,344.7909 381.39,342.7909 C381.39,330.5909 380.373,314.0179 380.724,305.6239 C381.863,278.2819 388.14,243.2909 389.224,220.7909 L378.557,222.1239 Z" id="Fill-42" fill="#FF7E59" mask="url(#mask-2)"></path>
                        <path d="M378.2865,223.0194 C378.2865,223.0194 381.0605,222.2944 383.9115,222.8944 C386.8805,223.5194 388.9745,225.2904 388.9745,225.2904 L389.3905,218.1234 L378.7555,220.9884 L378.2865,223.0194 Z" id="Fill-43" fill="#E86A46" mask="url(#mask-2)"></path>
                        <path d="M380.4437,204.1029 C377.6907,204.5819 376.3067,207.1989 376.1407,208.6689 C375.5567,213.8529 375.8447,217.4809 377.3407,220.9899 C377.9677,222.4599 379.1737,221.2229 382.3387,220.7169 C387.9437,219.8209 389.9017,223.6889 390.6927,221.2969 C391.9377,217.5359 392.4607,214.8649 393.0207,211.0919 C393.6097,207.1219 391.9217,204.7199 389.4577,204.1819 C386.7767,203.5969 384.2037,203.4479 380.4437,204.1029" id="Fill-44" fill="#FF7E59" mask="url(#mask-2)"></path>
                        <path d="M263.0155,320.5404 L284.0155,333.2904 C284.0155,333.2904 290.8075,335.8734 294.5665,336.0274 C295.8525,336.0804 296.4625,337.5104 295.8075,338.5404 C294.4025,340.7474 291.1405,342.2904 287.7655,342.2904 L265.2655,342.2904 L263.0155,320.5404 Z" id="Fill-45" fill="#E09595" mask="url(#mask-2)"></path>
                        <path d="M298.057,255.6239 C297.878,254.8199 296.742,254.7909 296.557,258.2909 C296.39,261.4569 296.65,265.2909 295.89,265.2909 C294.557,265.2909 291.544,258.8629 290.194,256.3309 C289.702,255.4069 288.486,254.6109 288.224,255.6239 C287.47,258.5329 290.078,265.5859 293.39,270.7909 C296.889,276.2889 298.349,277.5409 301.099,281.0409 C302.938,283.3809 311.057,289.2909 299.224,299.9569 C292.329,306.1709 282.015,311.0409 274.265,314.7909 C274.265,314.7909 281.265,320.9989 282.474,322.2909 C286.65,319.1599 292.672,313.2159 297.89,307.3319 C306.057,298.1239 309.401,292.0299 309.401,292.0299 C308.224,289.1239 300.057,264.6239 298.057,255.6239" id="Fill-46" fill="#D8DDEA" style="mix-blend-mode: multiply;" mask="url(#mask-2)"></path>
                        <path d="M237.1405,300.2904 C232.0005,300.6754 252.1405,314.0404 252.1405,314.0404 L264.8905,310.7904 C264.8905,310.7904 247.1405,299.5404 237.1405,300.2904" id="Fill-47" fill="#D8DDEA" style="mix-blend-mode: multiply;" mask="url(#mask-2)"></path>
                        <path d="M393.39,465.7904 C393.39,480.7024 366.057,501.2904 332.64,501.7904 C299.093,502.2924 271.89,486.7024 271.89,471.7904 C271.89,456.8784 393.39,450.8784 393.39,465.7904" id="Fill-48" fill="#D8DDEA" mask="url(#mask-2)"></path>
                        <path d="M234.7235,300.2904 C234.7235,300.2904 247.0565,298.6234 254.7235,311.6234 L241.0565,325.9574 L234.7235,300.2904 Z" id="Fill-49" fill="#5581EE" mask="url(#mask-2)"></path>
                        <path d="M270.3905,477.9574 C270.3905,477.9574 293.3905,484.9574 333.0575,482.6234 C375.9415,480.1014 413.3905,467.6234 431.3905,457.9574 L456.7235,407.9574 L424.0575,405.9574 L179.3905,417.9574 L185.3905,444.9574 L270.3905,477.9574 Z" id="Fill-50" fill="#C5CBD8" mask="url(#mask-2)"></path>
                        <path d="M237.7235,315.9569 C237.7235,315.9569 256.9755,310.9649 262.3905,309.5399 C267.1405,308.2899 269.0155,309.4149 272.5155,312.7899 C273.8895,314.1149 281.7965,320.4789 282.7655,323.1649 C285.5155,330.7899 289.7515,337.6529 291.2865,340.3419 C291.7835,341.2129 291.1525,342.2899 290.1485,342.2899 L285.8995,342.2899 C282.5935,342.2899 281.1765,341.3029 278.8905,338.9149 L272.0155,329.1649 C270.9865,327.6799 269.6415,326.4389 268.0785,325.5339 L276.8905,342.2899 L247.7235,342.2899 L237.7235,315.9569 Z" id="Fill-51" fill="#FFAEAE" mask="url(#mask-2)"></path>
                        <path d="M313.39,344.2904 L333.763,346.7264 C334.588,346.8164 334.765,345.9154 334.109,345.6344 C332.411,344.9064 313.671,337.1034 313.671,337.1034 C313.671,337.1034 313.921,339.9784 313.796,341.5094 C313.671,343.0404 313.39,344.2904 313.39,344.2904" id="Fill-52" fill="#D8DDEA" style="mix-blend-mode: multiply;" mask="url(#mask-2)"></path>
                        <path d="M304.14,357.6234 C292.807,358.2904 175.057,356.6234 151.057,358.6234 C127.057,360.6234 121.723,369.2904 117.723,373.2904 C113.723,377.2904 105.057,387.9574 112.39,427.2904 C119.628,466.1104 120.047,525.0604 115.57,577.8654 C115.465,579.1134 116.216,580.2694 117.401,580.6744 C123.775,582.8454 133.077,586.9344 168.89,590.7904 C175.973,543.9764 197.39,478.7904 194.39,453.5404 C194.036,450.5594 193.89,449.0404 192.015,445.0404 C190.843,442.5404 188.89,439.2904 188.515,435.2904 C188.21,432.0334 190.602,430.4534 193.312,431.0034 C203.181,433.0034 225.963,437.1314 243.723,436.6234 C261.368,436.1194 382.64,358.6234 382.64,358.6234 C382.64,358.6234 354.64,351.5404 342.39,351.5404 C334.39,351.5404 328.89,352.7904 322.39,354.2904 C312.666,356.5344 307.734,357.7274 304.14,357.6234" id="Fill-53" fill="#2B2B51" mask="url(#mask-2)"></path>
                        <path d="M386.39,357.2904 C386.39,357.2904 291.724,378.6234 269.057,385.2904 C246.39,391.9574 233.723,395.9574 221.057,423.2904 C204.244,459.5704 173.505,533.5464 118.265,599.1934 C117.494,600.1094 117.298,601.3734 117.763,602.4774 C120.532,609.0604 132.248,631.4504 166.723,641.6234 C166.723,641.6234 175.692,625.9314 182.39,617.9574 C217.39,576.2904 253.723,555.6234 265.057,497.6234 C267.078,487.2784 281.723,464.2904 297.724,456.2904 C315.724,455.6234 353.724,455.9574 395.724,436.6234 C437.724,417.2904 445.057,365.2904 445.057,365.2904 L386.39,357.2904 Z" id="Fill-54" fill="#42426C" mask="url(#mask-2)"></path>
                        <polygon id="Fill-55" fill="#E09595" mask="url(#mask-2)" points="376.39 158.6239 367.307 172.6239 379.14 198.9569 393.474 199.2899 425.557 179.5399 427.14 151.0409 434.39 125.2909 376.89 125.5409"></polygon>
                        <path d="M433.39,165.0404 C433.889,165.0404 442.119,164.5374 449.474,163.5404 C456.87,162.5374 464.89,161.2074 464.89,161.2074 C464.89,161.2074 451.807,162.0404 444.14,160.4574 C436.169,158.8114 431.057,153.6244 431.057,153.6244 L433.39,165.0404 Z" id="Fill-56" fill="#D8DDEA" style="mix-blend-mode: multiply;" mask="url(#mask-2)"></path>
                        <path d="M297.724,456.2904 C297.724,456.2904 323.64,455.0404 334.39,451.2904 C345.14,447.5404 357.14,439.0404 375.39,431.2904 C393.64,423.5404 431.39,413.2904 431.39,413.2904 C431.39,413.2904 413.64,442.7904 386.39,453.0404 C364.912,461.1194 331.724,463.2904 297.724,456.2904" id="Fill-57" fill="#C5CBD8" mask="url(#mask-2)"></path>
                        <path d="M310.64,304.8529 C318.39,317.7279 318.953,314.7279 318.265,312.9779 C317.577,311.2279 309.401,292.0299 309.401,292.0299 L310.64,304.8529 Z" id="Fill-58" fill="#D8DDEA" style="mix-blend-mode: multiply;" mask="url(#mask-2)"></path>
                        <path d="M440.6634,189.8841 L472.4314,174.7261 C473.0894,174.4121 473.8484,174.8911 473.8394,175.6201 C473.8094,178.0841 472.6304,182.9741 464.3594,185.5751 C455.6234,188.3221 444.4584,190.5881 443.1064,190.7651 C440.5964,191.0941 439.4174,190.4571 440.6634,189.8841" id="Fill-59" fill="#D8DDEA" style="mix-blend-mode: multiply;" mask="url(#mask-2)"></path>
                        <path d="M428.89,166.7904 C433.14,166.9574 448.807,167.2074 448.807,167.2074 C450.25,167.2174 451.781,167.8914 450.724,168.8734 C450.724,168.8734 428.557,191.2074 424.89,193.2904 C421.224,195.3734 438.64,180.2904 440.057,172.2074 C440.658,168.7774 424.64,166.6234 428.89,166.7904" id="Fill-60" fill="#D8DDEA" style="mix-blend-mode: multiply;" mask="url(#mask-2)"></path>
                        <path d="M350.5003,181.1488 C349.9913,181.5718 350.6403,182.0408 352.0153,181.4158 C355.9153,179.6428 361.5393,176.6738 364.8903,173.4158 C370.7423,167.7248 376.5353,158.4598 373.5153,160.4158 C369.6403,162.7278 365.7703,164.7418 362.3903,166.7908 C353.3643,172.2618 346.2643,175.4808 346.2193,175.2918 C346.2193,175.2918 360.0593,170.1408 360.5793,171.4528 C360.9153,172.3018 354.8353,177.5488 350.5003,181.1488" id="Fill-61" fill="#D8DDEA" style="mix-blend-mode: multiply;" mask="url(#mask-2)"></path>
                        <path d="M411.7621,240.0589 L411.3351,242.0299 C410.6931,245.0049 413.0881,247.7629 416.1181,247.5369 L446.7871,245.2439 C450.9791,244.9309 454.5501,242.0759 455.7851,238.0519 L456.4051,236.0369 L411.7621,240.0589 Z" id="Fill-62" fill="#638FFA" mask="url(#mask-2)"></path>
                        <path d="M327.6732,195.8104 C326.4772,195.7674 326.2122,196.3764 327.3192,196.8294 C331.9442,198.7174 339.3402,200.4254 342.9212,200.3824 C349.3282,200.3074 350.8882,197.1534 350.8882,197.1534 L327.6732,195.8104 Z" id="Fill-63" fill="#D8DDEA" style="mix-blend-mode: multiply;" mask="url(#mask-2)"></path>
                        <path d="M386.89,198.6239 C386.143,198.9989 386.403,199.6939 386.89,200.3739 L400.869,220.8779 C401.583,221.8399 402.948,222.0299 403.89,221.2909 C409.544,216.8549 424.39,201.9569 429.557,186.2909 C434.909,170.0629 434.153,161.8759 433.312,157.4399 C432.985,155.7109 432.042,154.1649 430.677,153.0549 L428.095,150.9569 C427.717,150.6499 427.151,150.8699 427.079,151.3519 C426.471,155.4649 425.507,165.9979 415.557,176.3739 C405.976,186.3649 398.977,192.5479 386.89,198.6239" id="Fill-64" fill="#638FFA" mask="url(#mask-2)"></path>
                        <path d="M385.224,198.2904 C385.881,198.7524 385.217,199.4804 384.64,200.0404 L366.057,219.2904 C364.559,220.7074 362.092,219.6454 362.092,217.5834 L361.14,196.2904 C361.14,187.1774 363.64,173.5404 373.974,159.7074 C375.37,157.8384 376.393,156.4824 377.057,156.9574 C377.057,156.9574 374.557,165.7904 374.89,177.2904 C375.067,183.3744 377.39,192.7904 385.224,198.2904" id="Fill-65" fill="#638FFA" mask="url(#mask-2)"></path>
                        <path d="M491.8197,218.4344 C485.1717,229.6844 466.7957,260.7774 464.2557,265.0754 C462.9637,267.2614 461.8897,270.5514 464.0277,271.9234 C465.7667,273.0394 467.9987,271.6884 469.5827,270.3594 C478.9347,262.5114 487.3507,253.5464 494.5937,243.7174 L491.8197,218.4344 Z" id="Fill-66" fill="#D8DDEA" style="mix-blend-mode: multiply;" mask="url(#mask-2)"></path>
                        <path d="M549.4046,250.5013 C547.9056,246.0353 543.7236,235.3453 539.4006,227.3633 C530.8806,211.6343 533.4006,199.3633 523.4006,183.3633 C519.8936,177.7523 514.7646,170.9153 510.0146,168.1653 C510.0146,168.1653 515.2236,176.9573 514.3896,201.1243 C514.2606,204.8673 553.0986,290.2523 553.0986,290.2523 C553.0986,290.2523 551.5146,256.7903 549.4046,250.5013" id="Fill-67" fill="#D8DDEA" style="mix-blend-mode: multiply;" mask="url(#mask-2)"></path>
                        <path d="M484.724,263.2904 C470.367,277.6474 425.255,310.2884 427.14,310.7904 C429.64,311.4574 434.237,309.1534 443.14,305.7904 C454.39,301.5404 461.224,297.9574 461.14,299.7074 C461.05,301.6084 451.289,309.1804 444.307,315.3734 C439.718,319.4444 435.351,322.1734 435.64,323.0404 C435.88,323.7594 438.621,322.3794 441.39,321.3734 C454.474,316.6234 458.057,319.1234 449.224,337.1234 C442.672,350.4734 437.057,356.9574 437.057,356.9574 L449.89,353.7904 C450.307,343.6234 455.852,330.5814 460.724,316.8734 C465.64,303.0404 470.89,290.7904 470.89,290.7904 C470.89,290.7904 475.78,283.8444 480.807,276.2904 C482.594,273.6054 484.207,270.5714 485.89,268.1234 C492.307,258.7904 492.724,255.2904 484.724,263.2904" id="Fill-68" fill="#D8DDEA" style="mix-blend-mode: multiply;" mask="url(#mask-2)"></path>
                        <path d="M497.39,356.6234 C496.722,345.9314 473.39,352.2904 430.057,354.6234 C388.07,356.8844 360.907,353.4664 362.057,365.2904 C363.142,376.4454 393.75,378.1764 431.057,375.2904 C438.209,374.7364 444.752,374.1064 450.725,373.5384 C454.64,373.1654 455.008,374.8194 454.265,377.0404 C452.029,383.7244 448.071,395.0594 443.057,406.2904 C434.724,424.9574 429.39,433.9574 424.39,436.2904 C419.39,438.6234 408.265,437.4154 405.39,448.1654 C402.057,460.6274 414.706,463.3054 420.057,462.6234 C424.64,462.0404 437.057,458.6234 445.39,447.6234 C450.137,441.3574 463.989,418.4904 482.268,369.8494 C482.633,368.8784 483.429,368.1174 484.42,367.8114 C493.422,365.0304 497.693,361.4664 497.39,356.6234" id="Fill-69" fill="#D8DDEA" mask="url(#mask-2)"></path>
                        <path d="M148.557,629.5882 L202.224,596.2072 C202.224,596.2072 181.265,616.7072 172.14,632.4982 C170.177,635.8962 165.86,637.4422 162.133,636.2152 C154.57,633.7272 148.557,629.5882 148.557,629.5882" id="Fill-70" fill="#2B2B51" mask="url(#mask-2)"></path>
                        <path d="M429.0267,448.8939 C429.8077,451.1409 428.4287,453.6619 425.9487,454.5239 C423.4677,455.3859 420.8237,454.2639 420.0427,452.0169 C419.2607,449.7699 420.6397,447.2489 423.1207,446.3869 C425.6007,445.5249 428.2457,446.6469 429.0267,448.8939" id="Fill-71" fill="#C5CBD8" mask="url(#mask-2)"></path>
                        <path d="M368.057,118.6239 C368.057,118.6239 365.307,116.1239 364.807,109.3739 C363.92,97.4039 363.54,94.5909 364.14,88.2909 C364.43,85.2479 364.546,74.0749 371.89,65.2909 C377.218,58.9179 383.62,54.8929 397.39,52.7909 C430.14,47.7909 444.14,66.2909 447.14,72.7909 C450.14,79.2909 449.89,91.5409 446.64,104.2909 C443.39,117.0409 435.64,124.5409 435.64,124.5409 L368.057,118.6239 Z" id="Fill-72" fill="#423748" mask="url(#mask-2)"></path>
                    </g>
                    <g id="Group-76" transform="translate(366.000000, 76.865000)">
                        <mask id="mask-4" fill="white">
                            <use xlink:href="#path-3"></use>
                        </mask>
                        <g id="Clip-75"></g>
                        <path d="M0.89,45.29 C0.655,70.349 11.39,90.624 27.403,91.626 C46.214,92.803 63.838,72.399 68.89,38.79 C74.64,0.54 53.924,2.575 35.127,1.205 C32.55,1.017 30.168,0.926 27.959,0.926 C-4.108,0.928 1.124,20.264 0.89,45.29" id="Fill-74" fill="url(#radialGradient-5)" mask="url(#mask-4)"></path>
                    </g>
                    <g id="Group-115" transform="translate(42.000000, 62.865000)">
                        <path d="M326.14,24.2904 C326.14,24.2904 330.14,35.5404 341.14,43.2904 C348.935,48.7814 358.737,50.5074 363.788,51.0474 C364.662,51.1404 365.071,50.0024 364.338,49.5174 C362.253,48.1344 359.463,46.1444 357.64,44.2904 C352.807,39.3734 351.64,36.7904 351.64,36.7904 C351.64,36.7904 364.474,42.2904 380.925,39.9064 C381.659,39.8004 381.864,38.8344 381.231,38.4474 C379.765,37.5504 377.71,36.1654 376.015,34.5404 C373.392,32.0264 371.64,29.7904 371.64,29.7904 C374.39,28.7904 378.765,26.1654 382.057,27.2904 C382.057,27.2904 388.224,28.7904 389.224,36.7904 C389.793,41.3484 389.224,46.6234 389.224,52.9574 C389.224,56.2164 390.634,59.4154 392.557,58.6234 L401.39,14.0404 C401.39,14.0404 381.39,-3.9596 357.64,1.5404 C333.89,7.0404 326.14,24.2904 326.14,24.2904" id="Fill-77" fill="#423748"></path>
                        <path d="M399.3519,57.2972 C396.5379,66.5382 391.4589,71.5222 389.9609,70.9942 C388.4639,70.4662 388.0109,67.5782 390.3969,60.8062 C392.7829,54.0352 394.2509,44.6392 398.6019,46.4712 C400.0649,47.0882 401.4429,50.4292 399.3519,57.2972" id="Fill-79" fill="#FFAEAE"></path>
                        <path d="M396.5257,77.9628 L402.2337,84.4468 C403.2337,85.4158 404.2127,85.5818 405.0467,85.4158 C406.4577,85.1328 407.2797,84.7308 407.9737,84.3738 L410.2667,42.4238 L403.8067,26.9158 C402.9737,26.9568 401.3897,27.4158 400.3067,28.0408 C399.8247,28.3188 399.4317,28.7068 399.3457,29.2378 L394.2507,70.4018 C393.9087,73.1628 394.7437,75.9388 396.5257,77.9628" id="Fill-81" fill="#2B2B51"></path>
                        <path d="M399.6087,76.9628 L405.8097,84.0078 C406.8617,85.2038 408.7437,84.5328 408.9187,82.8998 L413.3507,41.4238 L405.0187,27.6118 C404.3067,26.4308 402.6017,26.8428 402.4297,28.2378 L397.3337,69.4018 C396.9917,72.1628 397.8277,74.9388 399.6087,76.9628" id="Fill-83" fill="#42426C"></path>
                        <path d="M408.5423,34.975 C408.5423,34.975 406.8873,32.969 405.8543,30.916 C404.8213,28.863 403.3413,24.212 406.8033,23.574 C408.8933,23.189 409.7923,24.977 411.7073,27.089 C413.6213,29.201 425.0553,39.493 425.0553,39.493 L408.5423,34.975 Z" id="Fill-85" fill="#E09595"></path>
                        <path d="M426.89,103.1654 C421.265,97.1654 413.807,96.2494 409.057,82.1244 C409.535,77.7724 410.89,62.9574 411.363,59.5204 C409.936,58.9844 408.378,58.5104 407.14,58.4154 C405.515,58.2904 403.139,59.4034 400.515,59.6654 C399.265,59.7904 397.015,59.9154 395.265,58.9154 C393.644,57.9894 394.128,55.1844 396.515,54.6654 C399.39,54.0404 402.329,52.7824 405.765,51.4154 C407.625,50.6754 410.616,50.4074 412.515,51.0404 C416.265,52.2904 420.348,53.1834 422.64,54.1654 L414.515,49.2904 C413.265,48.5404 411.709,48.3964 410.249,48.8194 C407.765,49.5404 404.216,50.5534 401.89,51.1654 C399.515,51.7904 397.616,52.2584 395.39,51.9154 C392.016,51.3954 390.824,48.1944 393.64,46.6654 C395.072,45.8884 397.179,45.6104 398.89,44.7904 C402.407,43.1044 406.14,40.7904 406.14,40.7904 C406.14,40.7904 403.488,41.4374 401.14,41.5404 C399.015,41.6344 397.131,41.1274 396.015,40.1654 C394.694,39.0254 395.007,37.1554 396.64,36.5404 L408.455,32.1464 C410.313,31.4464 412.386,31.6194 414.101,32.6174 L422.996,37.7924 C424.402,38.6104 425.573,39.7774 426.395,41.1794 L435.174,56.1444 C435.814,57.2334 436.267,58.4234 436.515,59.6624 L438.733,73.8764 C439.253,76.4804 440.001,79.0344 440.968,81.5084 L446.39,93.7904 C446.39,93.7904 432.515,109.1654 426.89,103.1654" id="Fill-87" fill="#FFAEAE"></path>
                        <path d="M423.265,89.7904 C423.265,89.7904 415.14,88.2904 412.64,69.2904 C410.39,71.1234 409.724,75.2074 409.724,75.2074 C409.724,75.2074 410.765,64.6654 411.363,59.5204 L418.96,65.1504 C420.065,65.9684 420.698,67.2764 420.654,68.6514 C420.654,68.6514 420.265,78.6654 420.346,82.2854 C420.434,86.2024 423.265,89.7904 423.265,89.7904" id="Fill-89" fill="#E09595"></path>
                        <path d="M464.39,118.5404 C459.057,103.6234 459.425,97.8564 459.252,96.1554 C459.169,95.3444 458.68,94.6424 457.947,94.2864 C456.396,93.5314 453.46,92.3054 449.89,91.7904 C445.244,91.1204 439.386,91.9044 435.89,93.2904 C421.39,99.0404 422.39,106.5404 422.39,106.5404 C422.39,106.5404 424.634,113.9564 429.883,131.0164 C440.632,124.7984 452.559,121.3494 464.917,119.9174 C464.728,119.4414 464.545,118.9744 464.39,118.5404" id="Fill-91" fill="#638FFA"></path>
                        <path d="M459.2044,105.2352 C459.5184,107.0032 459.3294,108.5142 458.7814,108.6112 C458.2324,108.7092 457.5334,107.3562 457.2194,105.5892 C456.9044,103.8212 457.0944,102.3102 457.6424,102.2122 C458.1904,102.1142 458.8904,103.4682 459.2044,105.2352" id="Fill-93" fill="#D8DDEA" style="mix-blend-mode: multiply;"></path>
                        <path d="M508.39,203.0404 C501.39,182.0404 470.974,136.3734 464.765,119.6234 C464.629,119.2564 455.124,116.7464 442.39,121.4154 C434.89,124.1654 429.362,129.2804 429.39,129.3734 C433.39,142.3734 440.89,212.0404 452.89,239.5404 C469.888,278.4934 482.39,276.0404 487.89,275.0404 C493.39,274.0404 500.797,272.2824 510.39,251.0404 C517.39,235.5404 516.264,226.6634 508.39,203.0404" id="Fill-95" fill="#5581EE"></path>
                        <path d="M470.9124,145.827 L491.6874,212.535 C491.8684,213.115 492.7284,212.971 492.7044,212.363 C492.4134,205.168 490.6394,189.283 485.9224,174.351 C482.1624,162.447 477.1334,151.767 473.0544,144.951 C471.5194,142.388 470.4694,144.44 470.9124,145.827" id="Fill-97" fill="#D8DDEA" style="mix-blend-mode: multiply;"></path>
                        <path d="M479.8275,274.7904 C479.9525,272.8534 479.2025,267.0404 476.7645,262.3524 C471.1825,251.6184 458.5385,231.1814 453.3875,224.2964 C451.2835,221.8384 464.3395,259.7664 466.1335,262.6974 C467.0225,264.1514 471.3275,271.7904 479.8275,274.7904" id="Fill-99" fill="#D8DDEA" style="mix-blend-mode: multiply;"></path>
                        <path d="M511.64,223.5404 C511.338,225.9344 510.307,246.1234 505.301,249.5434 C502.356,251.5554 498.307,232.5404 496.557,233.7904 C495.413,234.6074 495.943,245.1254 495.64,256.2074 C495.48,262.0794 494.64,270.8734 494.22,272.9624 C504.453,267.7284 512.89,245.9774 513.497,242.6014 C514.724,232.9574 511.943,221.1464 511.64,223.5404" id="Fill-101" fill="#D8DDEA" style="mix-blend-mode: multiply;"></path>
                        <path d="M429.39,129.3739 C429.39,129.3739 436.712,122.3729 446.64,120.0409 C459.057,117.1239 464.693,119.4989 464.693,119.4989 L465.974,122.6239 C465.974,122.6239 459.724,122.2069 450.39,128.1239 C447.171,130.1649 444.361,132.5589 442.557,134.5409 C441.9,135.2629 440.889,135.3319 441.633,133.7569 C442.64,131.6239 444.624,128.5059 446.64,126.1239 C449.39,122.8739 446.163,123.2829 444.224,123.7069 C441.557,124.2909 438.557,125.2909 433.905,127.6839 C432.693,128.3069 431.452,128.8889 430.125,129.2009 L429.39,129.3739 Z" id="Fill-103" fill="#D8DDEA" style="mix-blend-mode: multiply;"></path>
                        <path d="M210.7235,280.2904 L41.2315,280.2904 C36.6195,280.2904 32.5955,277.1604 31.4605,272.6904 C31.4605,272.6904 26.0565,255.2904 17.0565,220.2904 C8.1775,185.7594 0.5115,163.6414 0.5115,163.6414 C-0.5645,159.4054 2.2655,153.5404 9.0985,153.5404 L169.7655,153.5404 C179.0415,153.5404 183.9315,159.3734 185.2655,166.0404 L210.7235,280.2904 Z" id="Fill-105" fill="#C5CBD8"></path>
                        <path d="M207.7235,280.2904 L38.2315,280.2904 C33.6195,280.2904 29.5955,277.1604 28.4605,272.6904 C28.4605,272.6904 23.0565,255.2904 14.0565,220.2904 C5.1775,185.7594 0.5115,163.6414 0.5115,163.6414 C-0.5645,159.4054 2.6365,155.2904 7.0065,155.2904 L168.9475,155.2904 C175.2545,155.2904 180.7255,159.6454 182.1405,165.7924 L207.7235,280.2904 Z" id="Fill-107" fill="#E9EEFB"></path>
                        <path d="M266.057,289.6234 L47.565,289.6234 C42.411,289.6234 38.232,285.4444 38.232,280.2904 L275.39,280.2904 C275.39,285.4444 271.211,289.6234 266.057,289.6234" id="Fill-109" fill="#D8DDEA"></path>
                        <path d="M100.3314,232.2967 C100.4754,232.6617 100.4824,232.8087 100.5994,232.8617 C100.6534,232.8847 102.1844,233.3327 102.1924,232.9567 C102.3114,228.9327 112.9404,224.7627 113.9854,228.2147 C114.8354,226.7507 115.7274,225.2867 115.9624,223.4807 C115.9524,223.2277 116.0284,223.1457 116.0284,223.1457 C114.7754,219.9987 96.7554,223.1387 100.3314,232.2967 M115.8304,218.7867 L115.8294,218.7807 C115.5114,216.9617 114.8484,215.1907 113.8764,213.5637 C107.9314,207.1057 87.8274,213.7577 96.3634,230.4497 C96.6254,230.9617 96.9404,231.2497 97.0724,231.1557 C97.2064,231.0617 97.8494,231.0037 97.7344,230.5037 C94.7134,217.4397 110.8314,214.3217 115.8294,218.7867 M109.0954,208.9587 C109.2174,209.0057 110.2534,209.4587 109.9934,209.1817 C109.7254,208.8877 109.4104,208.6407 109.0634,208.4527 C91.5974,198.9417 80.5414,221.5397 94.1314,231.8027 C94.6484,232.1967 95.0094,232.4737 95.1214,232.4797 C95.2754,232.4907 98.2804,234.5147 95.9204,231.2447 C86.9664,218.8687 94.8634,202.3297 109.0954,208.9587" id="Fill-111" fill="#D8DDEA"></path>
                        <path d="M113.8221,213.6205 C112.9861,217.0105 101.9381,211.1745 100.0611,207.9555 C99.8671,207.6085 99.7141,207.5265 99.6581,207.5495 C99.5441,207.5845 99.4731,207.7145 99.4301,208.0915 C98.8661,212.8545 110.1051,221.4775 115.8691,219.2615 C115.8631,219.1255 115.8461,218.9905 115.8041,218.8545 C115.4681,217.0305 114.7961,215.2545 113.8211,213.6205 M96.3531,209.2995 C96.4021,208.7985 96.4431,208.5925 96.3101,208.4745 C96.1771,208.3565 95.9281,208.6575 95.6351,209.1115 C89.8981,218.1715 105.3661,231.9355 114.3351,228.3685 C115.2051,226.8205 115.7601,225.0965 115.9691,223.2875 L115.9691,223.2825 C111.2231,227.2425 95.5051,217.9645 96.3531,209.2995 M94.4971,207.7865 C94.8671,207.4145 95.2291,207.0605 95.0791,207.0375 C94.9681,207.0195 94.5871,207.2085 94.0711,207.5205 C84.4191,213.3565 88.4011,231.4995 101.9231,234.7755 L101.9241,234.7875 C102.3131,234.8235 102.7061,234.8475 103.0921,234.8475 C104.6401,234.8475 106.1581,234.5875 107.5751,234.0755 C108.8171,233.5915 109.5091,233.2205 110.6681,232.4535 C110.7951,232.3655 110.9211,232.2715 111.0421,232.1775 C99.8171,235.8075 84.9431,217.8115 94.4971,207.7855" id="Fill-113" fill="#C5CBD8"></path>
                    </g>
                </g>
            </g>
        </g>
    </g>
</svg>