<?xml version="1.0" encoding="UTF-8"?>
<svg width="584px" height="646px" viewBox="0 0 584 646" version="1.1" xmlns="http://www.w3.org/2000/svg" xmlns:xlink="http://www.w3.org/1999/xlink">
    <!-- Generator: Sketch 51.3 (57544) - http://www.bohemiancoding.com/sketch -->
    <title>Карта more visa platinum</title>
    <desc>Created with Sketch.</desc>
    <defs>
        <path d="M10.582,0.568 C4.807,0.568 0.125,5.25 0.125,11.025 L0.125,409.543 C0.125,415.318 4.807,420 10.582,420 L573.106,420 C578.881,420 583.563,415.318 583.563,409.543 L583.563,11.025 C583.563,5.25 578.881,0.568 573.106,0.568" id="path-1"></path>
        <path d="M10.582,0.568 C4.807,0.568 0.125,5.25 0.125,11.025 L0.125,409.543 C0.125,415.318 4.807,420 10.582,420 L573.106,420 C578.881,420 583.563,415.318 583.563,409.543 L583.563,11.025 C583.563,5.25 578.881,0.568 573.106,0.568 L10.582,0.568 Z" id="path-3"></path>
        <path d="M10.582,0.568 C4.807,0.568 0.125,5.25 0.125,11.025 L0.125,409.543 C0.125,415.318 4.807,420 10.582,420 L573.106,420 C578.881,420 583.563,415.318 583.563,409.543 L583.563,11.025 C583.563,5.25 578.881,0.568 573.106,0.568 L10.582,0.568 Z" id="path-5"></path>
        <path d="M10.582,0.568 C4.807,0.568 0.125,5.25 0.125,11.025 L0.125,409.543 C0.125,415.318 4.807,420 10.582,420 L573.106,420 C578.881,420 583.563,415.318 583.563,409.543 L583.563,11.025 C583.563,5.25 578.881,0.568 573.106,0.568 L10.582,0.568 Z" id="path-7"></path>
        <path d="M1.049,0.785 C0.955,0.787 0.862,0.789 0.769,0.792" id="path-9"></path>
        <polygon id="path-11" points="0.125 0.3333 129.792 0.3333 129.792 130 0.125 130"></polygon>
        <path d="M0.875,8.554 C0.875,8.554 -1.554,16.689 6.208,38.917 C11.523,54.137 13.721,62.189 20,61.833 C22.92,61.668 26.242,60.836 29.47,59.541 C34.315,51.984 37.125,42.988 37.125,33.333 C37.125,20.738 32.342,9.264 24.5,0.644 L0.875,8.554 Z" id="path-13"></path>
        <radialGradient cx="-31.9119872%" cy="53.4136337%" fx="-31.9119872%" fy="53.4136337%" r="131.911998%" gradientTransform="translate(-0.319120,0.534136),scale(1.000000,0.598198),scale(1.000000,1.004036),translate(0.319120,-0.534136)" id="radialGradient-15">
            <stop stop-color="#FFE8E8" offset="0%"></stop>
            <stop stop-color="#FDACAC" offset="100%"></stop>
        </radialGradient>
        <polygon id="path-16" points="0.237929452 0.114 69.9423334 0.114 69.9423334 57.2717449 0.237929452 57.2717449"></polygon>
        <polygon id="path-18" points="0.791 0.3333 130.458 0.3333 130.458 130 0.791 130"></polygon>
        <path d="M1.647,37.647 C-4.164,63.039 11.711,88.335 37.104,94.145 C62.498,99.955 87.793,84.08 93.603,58.687 C99.414,33.293 83.538,7.999 58.145,2.187 C54.604,1.377 51.069,0.989 47.583,0.989 C26.079,0.991 6.646,15.795 1.647,37.647 Z" id="path-20"></path>
        <path d="M1.647,37.647 C-4.164,63.039 11.711,88.335 37.104,94.145 C62.498,99.955 87.793,84.08 93.603,58.687 C99.414,33.293 83.538,7.999 58.145,2.187 C54.604,1.377 51.069,0.989 47.583,0.989 C26.079,0.991 6.646,15.795 1.647,37.647 Z" id="path-22"></path>
    </defs>
    <g id="Частным" stroke="none" stroke-width="1" fill="none" fill-rule="evenodd">
        <g id="-Мобильный-банк.png-БКС-Платинум.png-Доходный-фунт.png-Кредит-Онлайн.png-Рефенансирование.png-Цифровой-Signature.png-Цифровой-Visa-Platinum.png-More-Signature.png-more-visa-platinum.png" transform="translate(-1670.000000, -9181.000000)">
            <g id="Карта-more-visa-platinum" transform="translate(1578.000000, 9120.000000)">
                <rect id="Rectangle-8-Copy-6" fill-rule="nonzero" x="0" y="0" width="767" height="767"></rect>
                <g id="Group-223" transform="translate(92.000000, 60.000000)">
                    <g id="Group-86" transform="translate(0.000000, 17.886000)">
                        <g id="Group-3">
                            <mask id="mask-2" fill="white">
                                <use xlink:href="#path-1"></use>
                            </mask>
                            <g id="Clip-2"></g>
                            <path d="M573.6299,420.0003 L10.0569,420.0003 C4.5719,420.0003 0.1249,415.5533 0.1249,410.0673 L0.1249,10.5003 C0.1249,5.0143 4.5719,0.5673 10.0569,0.5673 L573.6299,0.5673 C579.1149,0.5673 583.5629,5.0143 583.5629,10.5003 L583.5629,410.0673 C583.5629,415.5533 579.1149,420.0003 573.6299,420.0003" id="Fill-1" fill="#8697D1" mask="url(#mask-2)"></path>
                        </g>
                        <g id="Group-6">
                            <mask id="mask-4" fill="white">
                                <use xlink:href="#path-3"></use>
                            </mask>
                            <g id="Clip-5"></g>
                            <path d="M0.125,214.3333 L0.125,10.4993 C0.125,5.0143 4.572,0.5673 10.057,0.5673 L573.63,0.5673 C579.115,0.5673 583.562,5.0143 583.562,10.4993 L583.562,214.3333 L0.125,214.3333 Z" id="Fill-4" fill="#8697D1" mask="url(#mask-4)"></path>
                        </g>
                        <g id="Group-9">
                            <mask id="mask-6" fill="white">
                                <use xlink:href="#path-5"></use>
                            </mask>
                            <g id="Clip-8"></g>
                            <path d="M15.7085,0.5833 L15.7085,18.5833 L30.5055,18.5833 C31.5385,18.5833 32.3755,19.4203 32.3755,20.4523 L32.3755,108.0833 L0.1255,108.0833 L0.1255,0.5833 L15.7085,0.5833 Z" id="Fill-7" fill="#B3B8C6" mask="url(#mask-6)"></path>
                        </g>
                        <mask id="mask-8" fill="white">
                            <use xlink:href="#path-7"></use>
                        </mask>
                        <g id="Clip-11"></g>
                        <polygon id="Fill-10" fill="#B3B8C6" mask="url(#mask-8)" points="39.625 222.583 163.125 222.583 163.125 81.583 39.625 81.583"></polygon>
                        <path d="M70.4956,53.3675 C69.9426,52.7265 69.1386,52.3575 68.2916,52.3575 L42.5456,52.3575 C41.6986,52.3575 40.8946,52.7265 40.3416,53.3675 L0.1246,100.0055 L0.1246,133.5355 L0.2126,133.5355 L110.6246,133.5355 L139.6246,133.5355 L70.4956,53.3675 Z" id="Fill-12" fill="#C5CBD8" mask="url(#mask-8)"></path>
                        <path d="M532.125,248.9998 L473.792,248.9998 L473.792,41.3328 L529.663,41.3328 C531.022,41.3328 532.125,42.4358 532.125,43.7958 L532.125,248.9998 Z" id="Fill-13" fill="#B3B8C6" mask="url(#mask-8)"></path>
                        <polygon id="Fill-14" fill="#B3B8C6" mask="url(#mask-8)" points="414.812 91 481.193 91 481.193 85.333 414.812 85.333"></polygon>
                        <polygon id="Fill-15" fill="#C5CBD8" mask="url(#mask-8)" points="485.458 85.9998 485.458 0.6668 450.112 0.6668 410.458 49.6668 410.458 85.9998"></polygon>
                        <polygon id="Fill-16" fill="#C5CBD8" mask="url(#mask-8)" points="410.458 89.9998 410.458 194.9998 485.458 195.3338 485.458 89.9998"></polygon>
                        <polygon id="Fill-17" fill="#B3B8C6" mask="url(#mask-8)" points="163.125 230.333 275.125 230.333 275.125 0.579 163.125 0.579"></polygon>
                        <polygon id="Fill-18" fill="#C5CBD8" mask="url(#mask-8)" points="163.125 14.469 275.125 14.469 275.125 0.584 163.125 0.584"></polygon>
                        <polygon id="Fill-19" fill="#C5CBD8" mask="url(#mask-8)" points="163.125 35.169 275.125 35.169 275.125 21.284 163.125 21.284"></polygon>
                        <polygon id="Fill-20" fill="#C5CBD8" mask="url(#mask-8)" points="163.125 55.869 275.125 55.869 275.125 41.983 163.125 41.983"></polygon>
                        <polygon id="Fill-21" fill="#C5CBD8" mask="url(#mask-8)" points="163.125 76.569 275.125 76.569 275.125 62.684 163.125 62.684"></polygon>
                        <polygon id="Fill-22" fill="#C5CBD8" mask="url(#mask-8)" points="163.125 97.269 275.125 97.269 275.125 83.383 163.125 83.383"></polygon>
                        <polygon id="Fill-23" fill="#C5CBD8" mask="url(#mask-8)" points="163.125 117.969 275.125 117.969 275.125 104.084 163.125 104.084"></polygon>
                        <polygon id="Fill-24" fill="#C5CBD8" mask="url(#mask-8)" points="163.125 138.669 275.125 138.669 275.125 124.784 163.125 124.784"></polygon>
                        <polygon id="Fill-25" fill="#C5CBD8" mask="url(#mask-8)" points="163.125 159.369 275.125 159.369 275.125 145.483 163.125 145.483"></polygon>
                        <polygon id="Fill-26" fill="#C5CBD8" mask="url(#mask-8)" points="163.125 180.069 275.125 180.069 275.125 166.184 163.125 166.184"></polygon>
                        <polygon id="Fill-27" fill="#C5CBD8" mask="url(#mask-8)" points="163.125 200.769 275.125 200.769 275.125 186.883 163.125 186.883"></polygon>
                        <polygon id="Fill-28" fill="#C5CBD8" mask="url(#mask-8)" points="163.125 221.469 275.125 221.469 275.125 207.584 163.125 207.584"></polygon>
                        <path d="M356.6504,64.3333 L330.2664,64.3333 C329.5354,64.3333 328.8354,64.6243 328.3184,65.1403 L315.3474,78.1103 C314.5644,78.8933 314.1254,79.9553 314.1254,81.0623 L314.1254,101.0003 L372.7924,101.0003 L372.7924,81.0623 C372.7924,79.9553 372.3514,78.8933 371.5694,78.1103 L358.5984,65.1403 C358.0824,64.6243 357.3804,64.3333 356.6504,64.3333" id="Fill-29" fill="#B3B8C6" mask="url(#mask-8)"></path>
                        <polygon id="Fill-30" fill="#B3B8C6" mask="url(#mask-8)" points="314.144 122.833 444.875 122.833 444.875 104.083 314.144 104.083"></polygon>
                        <polygon id="Fill-31" fill="#C5CBD8" mask="url(#mask-8)" points="314.143 220.388 461.816 220.388 461.816 122.839 314.143 122.839"></polygon>
                        <polygon id="Fill-32" fill="#C5CBD8" mask="url(#mask-8)" points="295.375 105.083 450.375 105.083 450.375 100.583 295.375 100.583"></polygon>
                        <polygon id="Fill-33" fill="#D8DDEA" mask="url(#mask-8)" points="0 420.3333 139.788 420.3333 139.455 133.3683 0.212 133.5353"></polygon>
                        <path d="M153.125,384.6663 C160.792,379.3333 176.119,374.9763 186.458,372.3333 C215.72,364.8543 265.278,355.4753 318.119,349.7593 C320.722,349.4783 323.203,348.5353 325.326,347.0043 C336.971,338.6043 377.82,309.7743 405.125,298.5833 C406.121,298.1753 407.121,297.7743 408.125,297.3803 L408.125,214.3333 L139.625,214.3333 L139.625,399.9303 C143.33,394.6733 148.675,387.7623 153.125,384.6663" id="Fill-34" fill="#D8DDEA" mask="url(#mask-8)"></path>
                        <path d="M286.125,326.3333 C273.792,318.3333 264.177,293.7713 232.125,297.3333 C224.287,298.2043 217.495,300.7763 211.614,304.5153 C206.534,268.9813 169.141,253.6543 170.34,231.8223 C171.147,217.1183 167.714,176.6543 120.795,179.9923 C91.52,182.0743 80.943,204.1733 79.798,221.6993 C78.653,239.2253 87.151,254.1903 86.558,261.0653 C86.326,263.7453 85.666,266.0203 84.68,268.0413 C71.972,254.7503 54.428,250.8703 43.855,250.8703 C31.748,250.8703 12.466,256.4193 0.125,273.2523 L0.125,357.0963 C11.39,373.0983 27.903,377.5963 36.29,378.8603 C36.152,379.3373 36.042,379.8393 36.002,380.3953 C35.434,388.3513 34.199,401.1343 31.935,411.4203 C31.561,414.3533 33.693,417.0113 36.636,417.2803 C39.58,417.5503 42.16,415.3243 42.325,412.3733 C42.571,413.7693 44.796,396.1533 44.135,379.9403 C44.124,379.6533 44.083,379.4023 44.049,379.1433 C45.516,379.0473 47.668,378.9453 50.617,378.9033 C58.767,378.7893 65.976,376.7663 72.203,373.2243 C103.41,400.3813 139.563,399.8333 139.563,399.8333 L147.961,389.3783 C149.72,387.4723 151.483,385.8093 153.125,384.6663 C158.541,380.8983 167.771,377.6233 176.372,375.0913 C178.058,374.5953 185.083,372.6853 186.458,372.3333 C213.152,365.5123 256.738,357.1073 304.296,351.3463 C302.903,343.6993 298.355,334.2663 286.125,326.3333" id="Fill-35" fill="#E9EEFB" mask="url(#mask-8)"></path>
                        <path d="M405.125,298.5833 C421.852,291.7283 439.349,286.9273 466.875,282.8333 C475.578,281.5393 484.893,280.6663 494.32,280.0983 C495.351,279.9963 496.322,279.9203 497.239,279.8673 L497.75,278.9433 L497.75,190.1953 C497.75,188.7983 496.618,187.6663 495.222,187.6663 L479.417,187.6663 L479.417,172.1953 C479.417,170.7983 478.284,169.6663 476.888,169.6663 L461.75,169.6663 L461.75,154.1953 C461.75,152.7983 460.618,151.6663 459.222,151.6663 L430.612,151.6663 C429.216,151.6663 428.083,152.7983 428.083,154.1953 L428.083,169.6663 L412.945,169.6663 C411.549,169.6663 410.417,170.7983 410.417,172.1953 L410.417,187.6663 L394.612,187.6663 C393.216,187.6663 392.083,188.7983 392.083,190.1953 L392.083,304.6773 C396.638,302.3373 401.035,300.2603 405.125,298.5833" id="Fill-36" fill="#D8DDEA" mask="url(#mask-8)"></path>
                        <path d="M431.667,289.6668 L428.167,290.6248 L428.167,187.7498 C428.167,186.7838 428.95,185.9998 429.917,185.9998 C430.883,185.9998 431.667,186.7838 431.667,187.7498 L431.667,289.6668 Z" id="Fill-37" fill="#C5CBD8" mask="url(#mask-8)"></path>
                        <path d="M446.667,286.2918 L443.167,286.9588 L443.167,187.6668 C443.167,186.7838 443.95,185.9998 444.917,185.9998 C445.883,185.9998 446.667,186.7838 446.667,187.7498 L446.667,286.2918 Z" id="Fill-38" fill="#C5CBD8" mask="url(#mask-8)"></path>
                        <path d="M461.667,283.6248 L458.167,284.2078 L458.167,187.7498 C458.167,186.7838 458.95,185.9998 459.917,185.9998 C460.883,185.9998 461.667,186.7838 461.667,187.7498 L461.667,283.6248 Z" id="Fill-39" fill="#C5CBD8" mask="url(#mask-8)"></path>
                        <path d="M517.625,133.8333 L517.625,256.1253 L529.331,256.1253 C533.56,256.1253 537.419,258.5203 539.278,262.2983 L547.809,279.4833 C551.041,279.5513 553.763,279.6263 555.438,279.7083 C558.861,279.8753 562.279,280.0603 565.496,280.2443 C572.228,280.5953 577.432,280.9523 580.477,281.1793 C582.462,281.3133 583.625,281.3953 583.625,281.3953 L583.625,177.1253 L517.625,133.8333 Z" id="Fill-40" fill="#D8DDEA" mask="url(#mask-8)"></path>
                        <polygon id="Fill-41" fill="#C5CBD8" mask="url(#mask-8)" points="555.792 133.8333 517.625 133.8333 552.125 156.5003"></polygon>
                        <path d="M548.792,154.3333 L548.792,64.9983 C548.792,63.7103 549.836,62.6663 551.124,62.6663 L566.434,62.6663 C567,62.6663 567.458,62.2073 567.458,61.6423 L567.458,0.6663 L583.458,0.6663 L583.458,177.0003 L548.792,154.3333 Z" id="Fill-42" fill="#C5CBD8" mask="url(#mask-8)"></path>
                        <path d="M213.625,263.8333 C209.1,267.6693 210.576,274.2113 220.625,274.3333 C248.125,274.6663 297.479,271.0383 310.125,268.6663 C350.125,261.6663 371.792,257.3333 410.792,245.3333 C460.734,229.6653 530.177,195.7763 536.478,164.0143 C536.669,163.0473 535.814,162.1953 534.849,162.3893 C525.623,164.2423 511.115,167.2053 492.792,170.0003 C473.777,172.9003 448.173,181.4803 434.458,182.0003 C392.798,183.5783 289.125,199.8333 213.625,263.8333" id="Fill-43" fill="#E9EEFB" mask="url(#mask-8)"></path>
                        <path d="M213.625,263.8333 C209.1,267.6693 210.576,274.2113 220.625,274.3333 C248.125,274.6663 297.479,271.0383 310.125,268.6663 C350.125,261.6663 371.792,257.3333 410.792,245.3333 C460.734,229.6653 530.177,195.7763 536.478,164.0143 C536.669,163.0473 535.814,162.1953 534.849,162.3893 C525.623,164.2423 511.115,167.2053 492.792,170.0003 C473.777,172.9003 448.173,181.4803 434.458,182.0003 C392.798,183.5783 289.125,199.8333 213.625,263.8333" id="Fill-44" fill="#E9EEFB" mask="url(#mask-8)"></path>
                        <path d="M213.625,263.8333 C209.1,267.6693 210.576,274.2113 220.625,274.3333 C248.125,274.6663 297.479,271.0383 310.125,268.6663 C350.125,261.6663 371.792,257.3333 410.792,245.3333 C460.734,229.6653 530.177,195.7763 536.478,164.0143 C536.669,163.0473 535.814,162.1953 534.849,162.3893 C525.623,164.2423 511.115,167.2053 492.792,170.0003 C473.777,172.9003 448.173,181.4803 434.458,182.0003 C392.798,183.5783 289.125,199.8333 213.625,263.8333" id="Fill-45" fill="#E9EEFB" mask="url(#mask-8)"></path>
                        <path d="M573.6299,0.5677 L504.4579,0.5677 C484.4579,17.6667 465.1729,22.0387 429.1249,36.6667 C406.1249,45.9997 392.4579,59.3337 368.1249,56.9997 C315.1469,51.9197 264.4589,76.6667 203.4589,96.6667 C186.4589,101.6667 167.1249,104.6667 150.1249,109.6667 C91.5249,125.0377 48.1249,156.9997 0.1249,192.2967 L0.1249,216.1877 C64.1249,180.9997 84.1249,168.9997 141.1249,146.9997 C157.3879,140.7227 195.5549,126.5697 215.6639,124.2677 C217.3909,124.0697 218.9419,125.3307 219.0959,127.0617 C220.6979,145.0437 220.0299,170.4987 224.1249,173.3337 C230.3869,177.6687 251.7919,178.9997 268.1249,177.6667 C284.4589,176.3337 351.4579,158.9997 400.4579,144.9997 C425.4579,137.9997 452.9299,127.4507 478.1249,122.3337 C520.7919,113.6667 548.7919,106.9997 583.5629,89.6527 L583.5629,10.4997 C583.5629,5.0147 579.1149,0.5677 573.6299,0.5677" id="Fill-46" fill="#E9EEFB" mask="url(#mask-8)"></path>
                        <path d="M573.6299,0.5677 L504.4579,0.5677 C484.4579,17.6667 465.1729,22.0387 429.1249,36.6667 C406.1249,45.9997 392.4579,59.3337 368.1249,56.9997 C315.1469,51.9197 264.4589,76.6667 203.4589,96.6667 C186.4589,101.6667 167.1249,104.6667 150.1249,109.6667 C91.5249,125.0377 48.1249,156.9997 0.1249,192.2967 L0.1249,216.1877 C64.1249,180.9997 84.1249,168.9997 141.1249,146.9997 C157.3879,140.7227 195.5549,126.5697 215.6639,124.2677 C217.3909,124.0697 218.9419,125.3307 219.0959,127.0617 C220.6979,145.0437 220.0299,170.4987 224.1249,173.3337 C230.3869,177.6687 251.7919,178.9997 268.1249,177.6667 C284.4589,176.3337 351.4579,158.9997 400.4579,144.9997 C425.4579,137.9997 452.9299,127.4507 478.1249,122.3337 C520.7919,113.6667 548.7919,106.9997 583.5629,89.6527 L583.5629,10.4997 C583.5629,5.0147 579.1149,0.5677 573.6299,0.5677" id="Fill-47" fill="#E9EEFB" mask="url(#mask-8)"></path>
                        <path d="M573.6299,0.5677 L504.4579,0.5677 C484.4579,17.6667 465.1729,22.0387 429.1249,36.6667 C406.1249,45.9997 392.4579,59.3337 368.1249,56.9997 C315.1469,51.9197 264.4589,76.6667 203.4589,96.6667 C186.4589,101.6667 167.1249,104.6667 150.1249,109.6667 C91.5249,125.0377 48.1249,156.9997 0.1249,192.2967 L0.1249,216.1877 C64.1249,180.9997 84.1249,168.9997 141.1249,146.9997 C157.3879,140.7227 195.5549,126.5697 215.6639,124.2677 C217.3909,124.0697 218.9419,125.3307 219.0959,127.0617 C220.6979,145.0437 220.0299,170.4987 224.1249,173.3337 C230.3869,177.6687 251.7919,178.9997 268.1249,177.6667 C284.4589,176.3337 351.4579,158.9997 400.4579,144.9997 C425.4579,137.9997 452.9299,127.4507 478.1249,122.3337 C520.7919,113.6667 548.7919,106.9997 583.5629,89.6527 L583.5629,10.4997 C583.5629,5.0147 579.1149,0.5677 573.6299,0.5677" id="Fill-48" fill="#E9EEFB" mask="url(#mask-8)"></path>
                        <path d="M116.125,402.0003 C116.125,402.0003 174.458,401.6663 175.875,416.5833 C176.092,418.8703 175.875,420.0003 175.875,420.0003 L115.875,420.1663 L116.125,402.0003 Z" id="Fill-49" fill="#95A0C6" mask="url(#mask-8)"></path>
                        <path d="M23.311,308.5746 C23.276,306.7366 24.618,305.1666 26.441,304.9416 C40.894,303.1576 97.278,302.4076 112.634,306.0356 C114.751,306.5356 116.585,307.9286 117.44,309.9286 C136.625,354.8336 141.125,415.0006 141.125,415.0006 L39.125,415.0006 C39.125,415.0006 23.63,325.5896 23.311,308.5746" id="Fill-50" fill="#B3BEE2" mask="url(#mask-8)"></path>
                        <polygon id="Fill-51" fill="#C3CBE8" mask="url(#mask-8)" points="112.521 414.646 131.67 414.646 131.67 355.646 112.521 355.646"></polygon>
                        <path d="M91.0894,342.9095 C96.0004,342.9095 101.0894,347.8335 101.0894,352.5105 C101.0894,354.0835 102.4924,355.6455 104.2244,355.6455 L139.9664,355.6455 C141.6974,355.6455 143.1014,354.3125 143.1014,352.5105 C143.1014,348.2085 147.2504,342.9095 153.1014,342.9095 L91.0894,342.9095 Z" id="Fill-52" fill="#C3CBE8" mask="url(#mask-8)"></path>
                        <path d="M89.625,402.9251 C89.625,402.9251 142.958,400.0001 149.375,420.0831 L89.375,420.0831 L89.625,402.9251 Z" id="Fill-53" fill="#D2D8EE" mask="url(#mask-8)"></path>
                        <path d="M209.7485,343.0003 L45.7915,343.0003 L45.7915,332.5443 L209.7485,332.5443 C212.5335,332.5443 214.7915,334.8023 214.7915,337.5873 L214.7915,337.9573 C214.7915,340.7423 212.5335,343.0003 209.7485,343.0003" id="Fill-54" fill="#C3CBE8" mask="url(#mask-8)"></path>
                        <path d="M0.125,310.8822 C0.125,310.8822 32.424,308.3882 55.991,312.8342 C57.584,313.1352 59.05,313.9002 60.169,315.0722 C66.78,322.0012 71.625,337.8332 78.125,363.3332 C83.056,382.6772 91.625,398.8332 91.75,420.0832 L0.25,420.0832 L0.125,310.8822 Z" id="Fill-55" fill="#D8DDEA" mask="url(#mask-8)"></path>
                        <path d="M0.125,310.8822 C0.125,310.8822 32.424,308.3882 55.991,312.8342 C57.584,313.1352 59.05,313.9002 60.169,315.0722 C66.78,322.0012 71.625,337.8332 78.125,363.3332 C83.056,382.6772 91.625,398.8332 91.75,420.0832 L0.25,420.0832 L0.125,310.8822 Z" id="Fill-56" fill="#D2D8EE" mask="url(#mask-8)"></path>
                        <path d="M406.835,343.0003 L570.792,343.0003 L570.792,332.5443 L406.835,332.5443 C404.05,332.5443 401.792,334.8023 401.792,337.5873 L401.792,337.9573 C401.792,340.7423 404.05,343.0003 406.835,343.0003" id="Fill-57" fill="#626470" mask="url(#mask-8)"></path>
                        <polygon id="Fill-58" fill="#626470" mask="url(#mask-8)" points="484.913 414.646 504.062 414.646 504.062 355.646 484.913 355.646"></polygon>
                        <path d="M525.4941,342.9095 C520.5831,342.9095 515.4941,347.8335 515.4941,352.5105 C515.4941,354.0835 514.0911,355.6455 512.3581,355.6455 L476.6171,355.6455 C474.8861,355.6455 473.4811,354.3125 473.4811,352.5105 C473.4811,348.2085 469.3331,342.9095 463.4811,342.9095 L525.4941,342.9095 Z" id="Fill-59" fill="#626470" mask="url(#mask-8)"></path>
                        <path d="M493.417,420.0833 L508.125,399.3333 C508.125,399.3333 465.125,394.3333 435.625,404.3333 C422.608,408.7453 413.125,414.8333 410.328,419.6453 C410.224,419.8263 410.029,419.9343 409.886,420.0833 L493.417,420.0833 Z" id="Fill-60" fill="#737581" mask="url(#mask-8)"></path>
                        <path d="M484.625,420.0003 C484.625,420.0003 485.305,410.7063 491.125,395.8333 C495.625,384.3333 499.125,376.8333 503.125,361.3333 C507.584,344.0533 509.625,335.8333 521.207,320.2073 C523.518,317.0893 526.345,315.7943 529.673,315.1583 C538.022,313.5633 559.125,311.8333 583.625,313.0003 L583.542,419.8333 L484.625,420.0003 Z" id="Fill-61" fill="#93969E" mask="url(#mask-8)"></path>
                        <path d="M484.625,420.0003 C484.625,420.0003 485.305,410.7063 491.125,395.8333 C495.625,384.3333 499.125,376.8333 503.125,361.3333 C507.584,344.0533 509.625,335.8333 521.207,320.2073 C523.518,317.0893 526.345,315.7943 529.673,315.1583 C538.022,313.5633 559.125,311.8333 583.625,313.0003 L583.542,419.8333 L484.625,420.0003 Z" id="Fill-62" fill="#737581" mask="url(#mask-8)"></path>
                        <path d="M167.3047,332.6039 L143.6957,332.6039 C141.1407,332.6039 139.0697,330.3529 139.0697,327.5759 L171.9297,327.5759 C171.9297,330.3529 169.8597,332.6039 167.3047,332.6039" id="Fill-63" fill="#C3CBE8" mask="url(#mask-8)"></path>
                        <path d="M159.7676,330.5833 L151.2326,330.5833 C146.6166,330.5833 142.8746,326.8413 142.8746,322.2263 L142.8746,312.0883 C142.8746,311.5333 143.3246,311.0833 143.8796,311.0833 L167.1206,311.0833 C167.6756,311.0833 168.1246,311.5333 168.1246,312.0883 L168.1246,322.2263 C168.1246,326.8413 164.3836,330.5833 159.7676,330.5833" id="Fill-64" fill="#C3CBE8" mask="url(#mask-8)"></path>
                        <path d="M171.7915,320.0003 C171.2075,321.8993 169.2985,323.5003 167.6655,323.5003 C166.0335,323.5003 166.7295,320.1243 166.7295,318.1363 C166.7295,316.1473 168.0525,316.4383 169.6855,316.4383 C171.9585,316.4383 172.3765,318.0983 171.7915,320.0003 M170.4165,314.9163 C168.0925,314.9163 166.2085,314.5033 166.2085,317.3333 C166.2085,320.1633 165.2175,325.1663 167.5415,325.1663 C169.8655,325.1663 172.7925,322.7473 173.6245,320.0413 C174.4585,317.3333 172.7405,314.9163 170.4165,314.9163" id="Fill-65" fill="#C3CBE8" mask="url(#mask-8)"></path>
                        <g id="Group-79" mask="url(#mask-8)">
                            <g transform="translate(129.000000, 256.000000)">
                                <path d="M454.625,164.1663 L454.486,27.3753 L454.5,25.3753 C454.5,25.3753 386.625,19.5423 337.875,26.7923 C310.349,30.8853 292.852,35.6863 276.125,42.5413 C248.82,53.7323 207.971,82.5623 196.326,90.9623 C194.203,92.4943 191.722,93.4363 189.119,93.7173 C136.278,99.4333 86.72,108.8133 57.458,116.2913 C47.119,118.9343 31.792,123.2913 24.125,128.6253 C16.458,133.9583 6.125,150.6253 6.125,150.6253 C6.125,150.6253 4.625,151.2913 3.125,153.6253 C1.851,155.6073 0.958,164.3333 0.958,164.3333 L454.625,164.1663 Z" id="Fill-66" fill="#D8DDEA"></path>
                                <path d="M418.8281,23.4813 L410.2781,6.2563 C408.4191,2.4793 404.5591,0.0833 400.3311,0.0833 L387.9271,0.0833 C383.9041,0.0833 380.1981,2.2523 378.2451,5.7503 L368.2031,23.8893 C385.9461,22.9393 403.9141,23.0403 418.8281,23.4813" id="Fill-67" fill="#D8DDEA"></path>
                                <path d="M180.4551,164.3333 C168.9931,148.2023 150.1701,137.6663 128.8751,137.6663 C107.5801,137.6663 88.7561,148.2023 77.2941,164.3333 L180.4551,164.3333 Z" id="Fill-68" fill="#C5CBD8"></path>
                                <path d="M168.9297,164.3333 C159.0097,153.4783 144.7387,146.6663 128.8747,146.6663 C113.0117,146.6663 98.7407,153.4783 88.8207,164.3333 L168.9297,164.3333 Z" id="Fill-69" fill="#B3B8C6"></path>
                                <path d="M383.125,30.6668 C383.125,30.6668 332.625,30.9168 293.125,45.6668 C261.729,57.3908 238.388,75.3878 227.657,84.6698 C223.865,87.9508 223.21,93.5858 226.125,97.6668 C226.125,97.6668 321.373,93.5628 351.75,92.5838 C382.75,91.5838 454.625,90.3338 454.625,90.3338 L454.625,32.4998 C412.125,29.8338 383.125,30.6668 383.125,30.6668" id="Fill-70" fill="#C5CBD8"></path>
                                <path d="M383.125,30.6668 C383.125,30.6668 383.071,30.6668 382.969,30.6678 L368.698,92.1058 C375.384,91.9358 382.691,91.7648 390.133,91.6008 L399.618,30.5578 C389.116,30.4958 383.125,30.6668 383.125,30.6668" id="Fill-71" fill="#B3B8C6"></path>
                                <path d="M280.958,44.1664 C281.772,43.7594 281.772,42.9074 280.958,42.5004 L278.541,41.5694 C277.733,41.8904 276.928,42.2124 276.125,42.5414 C254.08,51.5774 223.206,72.1094 206.002,84.1054 L206.458,91.1664 C231.458,70.6664 257.625,55.8334 280.958,44.1664" id="Fill-72" fill="#E9EEFB"></path>
                                <path d="M226.125,97.6664 L246.05,96.8974 C245.96,88.3164 245.752,79.7704 245.299,71.0014 C237.754,76.2654 231.797,81.0944 227.684,84.6494 C223.88,87.9374 223.202,93.5744 226.125,97.6664" id="Fill-73" fill="#B3B8C6"></path>
                                <path d="M241.627,82.2376 C245.228,78.2946 250.035,72.3416 255.375,72.3416 C255.375,72.3416 259.916,72.2236 259.916,74.4226 L259.916,90.1006 C259.916,92.2996 258.134,92.6666 255.936,92.6666 L238.632,92.6666 C233.216,92.6666 241.627,82.2376 241.627,82.2376" id="Fill-74" fill="#B3B8C6"></path>
                                <path d="M57.2812,146.973 C55.2562,143.304 52.2932,137.96 51.2912,136.291 C49.2912,132.958 46.2302,129.719 38.0412,129.416 C28.5652,129.067 23.6552,129.405 23.0312,129.452 C15.8502,135.218 6.9712,149.272 6.1872,150.525 C6.1662,150.559 6.1462,150.591 6.1252,150.625 L55.1202,150.625 C56.9962,150.625 58.1872,148.616 57.2812,146.973" id="Fill-75" fill="#FFFFFF"></path>
                                <path d="M6.125,150.6253 C6.125,150.6253 4.619,151.2923 3.125,153.6253 C1.854,155.6093 0.96,164.3333 0.96,164.3333 L4.096,164.3273 C4.721,159.9103 5.403,156.3113 6.625,154.0413 C7.5,152.4163 9.398,150.6363 9.407,150.6253 L6.125,150.6253 Z" id="Fill-76" fill="#C5CBD8"></path>
                                <path d="M337.875,26.7918 C310.349,30.8848 292.852,35.6858 276.125,42.5418 C248.82,53.7328 207.971,82.5618 196.326,90.9618 C194.203,92.4948 191.722,93.4358 189.119,93.7168 C136.278,99.4328 86.72,108.8138 57.458,116.2918 C47.119,118.9338 31.792,123.2908 24.125,128.6248 C23.766,128.8748 23.4,129.1568 23.031,129.4528 C23.654,129.4058 28.551,129.0688 37.996,129.4158 C44.591,127.0498 51.776,125.0778 57.458,123.6248 C86.624,116.1708 144.696,106.8278 197.829,101.1068 C200.8,100.7868 203.627,99.7238 206.064,97.9968 C212.598,93.3638 226.894,83.3258 241.472,73.7278 C253.951,64.6358 271.652,53.6848 293.125,45.6668 C332.625,30.9168 383.125,30.6668 383.125,30.6668 C383.125,30.6668 412.047,29.8358 454.45,32.4898 L454.5,25.3748 C454.5,25.3748 386.625,19.5418 337.875,26.7918" id="Fill-77" fill="#E9EEFB"></path>
                                <path d="M6.125,150.6253 L9.458,150.6253 C19.958,133.6253 26.625,129.2913 26.625,129.2913 L23.028,129.4553 C15.51,135.4933 6.125,150.6253 6.125,150.6253" id="Fill-78" fill="#FFFFFF"></path>
                            </g>
                        </g>
                        <path d="M466.875,282.8748 C476.467,281.4488 486.799,280.5298 497.209,279.9728 C497.207,279.9728 497.205,279.9728 497.203,279.9728 L507.245,261.8328 C509.198,258.3358 512.904,256.1668 516.927,256.1668 L529.331,256.1668 C533.56,256.1668 537.419,258.5618 539.278,262.3398 L547.828,279.5648 C560.859,279.9508 571.558,280.5958 577.735,281.0238 C575.965,265.6778 568.12,240.4998 545.125,236.6668 C524.244,233.1868 513.792,238.9998 502.125,246.9998 C490.458,254.9998 482.458,252.3328 470.125,260.3328 C458.324,267.9878 453.912,277.4478 452.517,285.2378 C456.997,284.4198 461.763,283.6348 466.875,282.8748" id="Fill-80" fill="#E9EEFB" mask="url(#mask-8)"></path>
                        <g id="Group-83" mask="url(#mask-8)">
                            <g transform="translate(510.000000, 347.000000)">
                                <mask id="mask-10" fill="white">
                                    <use xlink:href="#path-9"></use>
                                </mask>
                                <g id="Clip-82" stroke="none" fill="none"></g>
                                <path d="M1.049,0.785 C0.955,0.787 0.862,0.789 0.769,0.792 C0.862,0.789 0.955,0.787 1.049,0.785" id="Fill-81" stroke="none" fill="none" mask="url(#mask-10)"></path>
                            </g>
                        </g>
                        <path d="M175.875,416.5833 C175.077,408.1833 156.229,404.6193 139.914,403.1083 C139.799,402.1313 139.671,401.0893 139.537,400.0133 C136.907,403.7523 135.125,406.6253 135.125,406.6253 C135.125,406.6253 133.625,407.2913 132.125,409.6253 C130.96,411.4363 130.118,418.8543 129.98,420.1273 L175.875,420.0003 C175.875,420.0003 176.092,418.8703 175.875,416.5833" id="Fill-84" fill="#9598A4" mask="url(#mask-8)"></path>
                        <path d="M133.813,407.5804 C133.312,408.0434 132.72,408.6984 132.125,409.6254 C130.971,411.4204 130.134,418.7144 129.985,420.0834 L145.864,420.0834 L149.372,420.0734 C147.458,414.1004 141.391,410.1634 133.813,407.5804" id="Fill-85" fill="#E9EEFB" mask="url(#mask-8)"></path>
                    </g>
                    <g id="Group-152" transform="translate(64.000000, 16.886000)">
                        <path d="M13.0298,107.077 C11.2148,107.5 11.1338,109.615 12.3508,110.978 C13.7318,112.526 14.9558,114.353 16.6318,116.585 C17.1858,117.323 16.2528,117.469 18.5508,119.883 C21.5588,123.04 28.0688,129.535 31.7028,130.874 C37.8608,133.143 40.5618,133.342 50.1528,133.16 C57.1558,133.027 62.5598,133.713 65.0218,135.274 C67.4848,136.834 71.9508,141.695 71.9508,141.695 L83.1128,124.963 C83.1128,124.963 78.1878,121.842 76.9688,120.562 C75.7498,119.282 76.1418,115.741 72.0488,113.856 C67.2668,111.655 62.7178,110.21 59.2128,110.374 C55.7078,110.538 54.2198,110.002 51.9958,108.947 C49.7708,107.892 43.4838,105.905 41.5278,107.524 C40.3008,108.539 41.1958,110.85 42.9148,112.143 C44.3148,113.196 46.7038,113.986 49.2028,114.047 C51.7028,114.108 54.5508,116.929 54.5508,116.929 C54.5508,116.929 50.3008,116.908 46.5458,117.066 C42.7908,117.224 39.4668,118.555 37.0398,117.167 C32.9298,114.816 30.0498,113.697 28.4008,112.538 C26.6798,111.329 25.4548,110.299 23.2968,109.912 C21.3278,109.56 19.7128,109.908 19.7128,109.908 C19.7128,109.908 15.2938,106.549 13.0298,107.077" id="Fill-87" fill="#FFAEAE"></path>
                        <path d="M85.6509,82.8558 C85.6509,104.2108 68.3389,121.5228 46.9839,121.5228 C25.6299,121.5228 8.3179,104.2108 8.3179,82.8558 C8.3179,61.5008 25.6299,44.1888 46.9839,44.1888 C68.3389,44.1888 85.6509,61.5008 85.6509,82.8558" id="Fill-89" fill="#97BEF7"></path>
                        <path d="M87.4189,82.3431 C61.3749,82.3431 47.4979,69.9171 47.4979,42.4501 L47.4979,36.2161 L46.4709,36.2161 L46.4709,42.4501 C46.4709,69.9171 32.3749,82.3431 6.5499,82.3431 L0.3359,82.3431 L0.3359,83.3701 L6.5709,83.3701 C32.3709,83.3801 46.4749,97.1461 46.4749,123.2621 L46.4749,129.4971 L47.5019,129.4971 L47.5019,123.2621 C47.5019,97.1461 61.3719,83.3881 87.3819,83.3701 L93.6169,83.3701 L93.6169,82.3431 L87.4189,82.3431 Z" id="Fill-91" fill="#FFFFFF"></path>
                        <path d="M59.5811,64.8987 L68.8501,81.1157 C69.9161,82.9817 69.2691,85.3587 67.4021,86.4257 L39.6981,102.2607 C37.8311,103.3277 35.4541,102.6787 34.3881,100.8137 L25.1191,84.5957 C24.0521,82.7297 24.7001,80.3527 26.5661,79.2857 L54.2711,63.4507 C56.1371,62.3847 58.5141,63.0327 59.5811,64.8987" id="Fill-93" fill="#FF7E59"></path>
                        <path d="M139.1035,253.2108 C139.1035,253.2108 140.4565,259.3698 140.8255,265.7778 C140.8785,266.6928 141.6645,267.7978 142.9095,267.6938 C143.8015,267.6188 144.8565,266.8038 145.5935,264.7928 C146.4785,262.3768 146.1035,259.8998 146.1035,259.8998 L139.1035,253.2108 Z" id="Fill-95" fill="#FFAEAE"></path>
                        <path d="M145.5937,264.7923 C146.4297,262.3593 146.1037,259.8993 146.1037,259.8993 L140.0037,254.0703 C141.6667,257.8333 144.8437,266.3173 144.8437,266.3173 C144.8437,266.3173 145.3597,265.4743 145.5937,264.7923" id="Fill-97" fill="#E09595"></path>
                        <path d="M151.0562,250.598 C151.0562,250.598 154.1042,256.118 156.2812,262.156 C156.5922,263.018 157.6592,263.854 158.8242,263.4 C159.6582,263.075 160.4372,261.994 160.5722,259.856 C160.7332,257.288 159.6692,255.02 159.6692,255.02 L151.0562,250.598 Z" id="Fill-99" fill="#E09595"></path>
                        <path d="M148.375,234.6668 L139.125,247.7498 C137.458,249.8338 138.291,252.2008 139.458,253.8338 C144.337,260.6568 144.956,262.0538 148.167,267.7748 C149.042,269.3338 151.248,269.4528 151.875,267.0838 C152.625,264.2498 150.458,259.1668 150.458,259.1668 L148.375,234.6668 Z" id="Fill-101" fill="#FFAEAE"></path>
                        <path d="M150.4585,259.1668 L147.0005,240.0838 C142.2575,246.6208 142.8055,250.7258 144.9035,254.6198 C145.2845,255.3248 145.6665,256.0418 146.9165,257.8338 C148.1665,259.6248 149.8575,261.4248 151.7805,263.4688 C151.3365,261.2348 150.4585,259.1668 150.4585,259.1668" id="Fill-103" fill="#E09595"></path>
                        <g id="Group-107" transform="translate(189.000000, 500.000000)">
                            <mask id="mask-12" fill="white">
                                <use xlink:href="#path-11"></use>
                            </mask>
                            <g id="Clip-106"></g>
                            <path d="M129.792,65.1663 C129.792,100.9733 100.765,130.0003 64.958,130.0003 C29.152,130.0003 0.125,100.9733 0.125,65.1663 C0.125,29.3603 29.152,0.3333 64.958,0.3333 C100.765,0.3333 129.792,29.3603 129.792,65.1663" id="Fill-105" fill="#2B2B51" mask="url(#mask-12)"></path>
                        </g>
                        <path d="M258.75,496.5833 C243.858,496.5833 224.955,501.3353 213.711,509.3993 C211.134,511.2483 209.625,514.2443 209.625,517.4163 L209.625,569.3333 L322.07,569.3333 C322.153,567.9533 322.208,566.5663 322.208,565.1663 C322.208,527.2893 296.628,496.5833 258.75,496.5833" id="Fill-108" fill="#2B2B51"></path>
                        <path d="M319.542,584.5833 L303.792,584.5833 C301.042,584.5833 298.792,582.3333 298.792,579.5833 L298.792,574.3333 C298.792,571.5833 301.042,569.3333 303.792,569.3333 L321.958,569.3333 C324.542,569.3333 326.458,571.7083 325.688,574.7703 L324.292,580.4163 C323.625,583.3333 322.292,584.5833 319.542,584.5833" id="Fill-110" fill="#2B2B51"></path>
                        <path d="M312.292,584.5833 L310.875,584.5833 C310.875,584.5833 312.03,580.5393 312.75,576.3753 C313.47,572.2103 313.547,569.3173 313.547,569.3173 C313.547,569.3173 314.208,569.3333 314.708,569.3333 C317.292,569.3333 319.208,571.7083 318.438,574.7703 L317.042,580.4163 C316.375,583.3333 315.042,584.5833 312.292,584.5833" id="Fill-112" fill="#42426C"></path>
                        <polygon id="Fill-114" fill="#E09595" points="199.375 59.8333 202.125 76.0833 229.25 51.5413 220.042 21.2503"></polygon>
                        <path d="M264.042,276.8333 L288.848,539.4563 C288.848,539.4563 297.75,541.4943 319.935,538.5983 C323.875,538.0833 324.125,536.0833 323.875,532.8333 C323.625,529.5833 320.208,500.7503 319.875,495.0833 C318.875,478.0833 319.07,438.9043 305.042,403.8333 C300.375,392.1663 298.153,381.8863 298.708,367.8333 C299.708,342.5003 304.042,300.8333 299.375,276.8333 C288.042,277.1663 264.042,276.8333 264.042,276.8333" id="Fill-116" fill="#2B2B51"></path>
                        <path d="M207.1152,249.869 C207.1152,249.869 216.1252,342.666 223.1252,375.666 C228.7452,402.162 245.4582,429.666 254.2212,480.11 C259.1972,508.749 263.7942,541.834 263.7942,541.834 C263.7942,541.834 290.4282,546.822 311.1012,538.356 C312.3712,537.836 313.1812,536.582 313.1182,535.211 C312.5522,522.969 308.7252,463.676 306.7642,444.693 C302.4582,403 290.3592,385.835 288.1252,368.333 C286.6252,356.583 287.1252,343.333 290.6252,304.083 C291.0692,299.097 299.3542,287.402 301.4582,277 C305.9582,254.75 288.6252,237.333 288.6252,237.333 L207.1152,249.869 Z" id="Fill-118" fill="#42426C"></path>
                        <path d="M201.2915,85.4998 C201.2915,85.4998 198.6875,85.4578 197.1875,88.8958 C196.4475,90.5928 196.6165,92.4478 196.7945,93.4408 C196.8775,93.9048 196.7715,94.3748 196.4805,94.7458 C194.6745,97.0458 188.1875,106.3318 184.6245,124.9998 C180.4585,146.8338 180.1245,159.0838 182.6875,167.6458 L201.2915,103.3328 L204.4585,88.6668 L201.2915,85.4998 Z" id="Fill-120" fill="#E86A46"></path>
                        <path d="M181.125,163.6668 C181.125,163.6668 182.68,183.7708 191.625,208.0838 C198.125,225.7498 206.958,239.8338 206.958,239.8338 L215.375,235.5838 L193.875,164.3338 L181.125,163.6668 Z" id="Fill-122" fill="#23478D"></path>
                        <path d="M189.875,178.8333 C189.875,178.8333 201.125,215.8333 207.375,237.8333 C207.375,237.8333 238.625,231.8333 257.125,230.3333 L189.875,178.8333 Z" id="Fill-124" fill="#E9EEFB"></path>
                        <polygon id="Fill-126" fill="#C5CBD8" points="236.792 213.9998 207.375 237.8328 257.125 230.3328"></polygon>
                        <path d="M206.7988,250.056 C211.3128,249.396 253.4998,242.958 265.2498,240.958 L256.0548,229.302 C256.0318,229.014 209.0318,236.519 204.9378,237.333 C204.2768,237.465 203.8188,238.055 203.9398,238.719 L205.5408,249.088 C205.6508,249.688 206.1948,250.144 206.7988,250.056" id="Fill-128" fill="#423748"></path>
                        <path d="M256.0547,229.1771 L235.3327,232.3751 L243.5637,236.7601 C244.2237,237.1121 244.3687,237.9951 243.8567,238.5401 L237.4367,245.3571 C237.4367,245.3571 260.0197,241.8871 265.2497,240.9581 L256.0547,229.1771 Z" id="Fill-130" fill="#2B2B50"></path>
                        <path d="M250.1602,245.2747 L248.0532,245.5337 C247.5972,245.5977 247.1762,245.2797 247.1122,244.8247 L245.0472,230.6047 C244.9822,230.1497 245.3002,229.7277 245.7562,229.6637 L247.8082,229.2987 C248.2642,229.2347 248.6852,229.5517 248.7502,230.0077 L250.8682,244.3337 C250.9322,244.7897 250.6152,245.2107 250.1602,245.2747" id="Fill-132" fill="#42426C"></path>
                        <path d="M202.125,91.8333 L199.807,73.0573 C199.693,72.1373 200.049,71.2213 200.754,70.6183 L227.659,47.6893 C228.414,47.0443 229.583,47.3843 229.875,48.3333 L230.875,52.0833 L202.125,91.8333 Z" id="Fill-134" fill="#FFFFFF"></path>
                        <path d="M70.6304,142.2054 L83.3874,152.3354 L93.5244,129.1904 L81.3454,121.8784 C80.4144,121.3194 79.2104,121.5884 78.6114,122.4954 C77.4974,124.1814 76.8064,124.6144 74.0934,129.6674 C71.3814,134.7204 70.6384,137.6614 69.9354,139.9904 C69.6894,140.8034 69.9654,141.6774 70.6304,142.2054" id="Fill-136" fill="#FFFFFF"></path>
                        <path d="M323.958,259.4998 C323.958,259.4998 331.292,258.4998 339.292,261.4998 C339.292,261.4998 321.292,238.8328 311.625,240.8328 C301.958,242.8328 323.958,259.4998 323.958,259.4998" id="Fill-138" fill="#23478D"></path>
                        <path d="M231.3818,50.6912 C230.9618,50.2082 230.2408,50.1662 229.7698,50.5982 C226.1528,53.9162 211.8188,67.8612 201.6248,89.3332 C197.5958,97.8192 185.1248,131.8332 182.6248,149.3332 C180.1248,166.8332 183.9608,178.5892 200.4588,195.3332 C222.7918,218.0002 247.1248,218.3332 263.7918,240.0002 C275.4638,255.1742 301.1248,300.5832 311.1248,304.3332 C311.1248,304.3332 324.8668,302.4382 334.3608,286.1912 C334.8838,285.2942 335.0308,284.2302 334.8188,283.2142 C333.5828,277.3072 328.2108,256.5912 311.6248,243.8332 C311.6248,243.8332 331.3178,249.8372 345.7528,277.3792 C346.2188,278.2692 347.4428,278.4142 348.0678,277.6282 C350.1408,275.0202 353.1898,268.7292 348.1248,257.3332 C339.3768,237.6492 297.8748,222.5832 297.8748,222.5832 C297.8748,222.5832 302.3008,211.1842 296.3748,199.3332 C291.6248,189.8332 282.1248,180.8332 282.1248,180.8332 C282.1248,180.8332 276.6248,145.3332 273.6248,131.3332 C270.6248,117.3332 263.9528,97.5292 252.3748,78.5832 C243.1658,63.5142 233.9078,53.6012 231.3818,50.6912" id="Fill-140" fill="#2B2B51"></path>
                        <path d="M318.458,271.3333 C311.458,265.1663 308.458,263.3333 292.792,256.0003 C279.419,249.7403 267.125,240.0003 255.625,231.3333 C264.958,239.9163 272.485,252.3873 277.375,260.0833 C288.106,276.9733 301.875,299.2503 310.875,304.3333 C311.059,301.4573 313.427,293.3773 320.125,284.0003 C323.458,279.3333 322.881,275.2293 318.458,271.3333" id="Fill-142" fill="#2474CD"></path>
                        <path d="M88.0557,125.3065 C85.4647,129.3645 79.0127,140.5285 75.2297,156.3295 C75.2297,156.3295 109.6257,180.8195 144.5207,193.4815 C144.5207,193.4815 150.9407,196.6135 155.2027,198.1605 C161.8747,200.5835 166.0687,198.4145 168.6247,196.5835 C172.6257,193.7175 183.7497,180.5835 183.7497,180.5835 C183.7497,180.5835 182.1907,171.1605 181.7917,159.3335 C180.7917,129.6665 190.1177,107.5445 196.4807,94.7455 C192.2497,98.8335 184.6247,107.3335 175.1247,129.3335 C174.4727,130.8455 173.9377,131.3735 171.7917,131.4995 C168.9587,131.6665 166.2917,133.3335 164.6247,136.3335 C161.1947,142.5075 161.2907,150.0105 159.7497,150.2085 C157.4357,150.5055 155.8887,137.3515 153.6247,140.6665 C152.1357,142.8485 152.3077,151.9495 152.3747,155.5835 C152.4427,159.2175 151.8877,160.2355 149.9997,156.2085 C148.1247,152.2085 145.9587,146.1665 142.6247,145.0835 C139.2987,144.0025 137.6757,147.9825 132.9187,147.5845 C128.7717,147.2375 110.0907,134.1395 90.6687,124.5665 C89.7387,124.1075 88.6147,124.4315 88.0557,125.3065" id="Fill-144" fill="#2B2B51"></path>
                        <path d="M218.0547,250.3993 L215.9527,250.6963 C215.4987,250.7693 215.0717,250.4603 214.9987,250.0053 L212.6707,235.8263 C212.5977,235.3723 212.9077,234.9443 213.3617,234.8723 L215.4087,234.4703 C215.8627,234.3973 216.2897,234.7063 216.3627,235.1613 L218.7457,249.4453 C218.8187,249.8993 218.5087,250.3273 218.0547,250.3993" id="Fill-146" fill="#42426C"></path>
                        <path d="M167.875,12.5545 C167.875,12.5545 165.543,20.6555 173.208,42.9165 C178,56.8335 180.947,66.3485 187,65.8335 C192.875,65.3335 204.715,61.6275 209.875,53.5835 C215.625,44.6185 215.958,28.8495 215.958,28.8495 L204.375,0.3335 L167.875,12.5545 Z" id="Fill-148" fill="#FFAEAE"></path>
                        <path d="M177.125,249.4168 C177.125,253.7888 173.56,256.9048 169.208,257.3338 C167.937,257.4588 159.563,258.0208 159.563,258.0208 L158.438,242.2088 C158.438,242.2088 164.75,241.7088 169.208,241.4998 C173.576,241.2958 177.125,245.0438 177.125,249.4168" id="Fill-150" fill="#2B2B51"></path>
                    </g>
                    <g id="Group-155" transform="translate(231.000000, 20.886000)">
                        <mask id="mask-14" fill="white">
                            <use xlink:href="#path-13"></use>
                        </mask>
                        <g id="Clip-154"></g>
                        <path d="M0.875,8.554 C0.875,8.554 -1.554,16.689 6.208,38.917 C11.523,54.137 13.721,62.189 20,61.833 C22.92,61.668 26.242,60.836 29.47,59.541 C34.315,51.984 37.125,42.988 37.125,33.333 C37.125,20.738 32.342,9.264 24.5,0.644 L0.875,8.554 Z" id="Fill-153" fill="url(#radialGradient-15)" mask="url(#mask-14)"></path>
                    </g>
                    <g id="Group-180" transform="translate(225.000000, 0.886000)">
                        <g id="Group-158">
                            <mask id="mask-17" fill="white">
                                <use xlink:href="#path-16"></use>
                            </mask>
                            <g id="Clip-157"></g>
                            <path d="M7.375,3.8333 C4.845,5.9273 2.458,7.4163 1.958,12.2503 C1.458,17.0833 -1.208,20.7913 1.292,24.6253 C3.792,28.4583 6.375,32.5003 6.375,32.5003 C6.375,32.5003 9.375,31.4163 15.458,28.9163 C19.181,27.3863 25.375,25.0833 28.458,25.1663 C31.368,25.2453 29.958,28.7503 32.125,30.0833 C34.292,31.4163 36.542,30.2503 37.375,32.0833 C38.208,33.9163 36.406,36.5263 36.875,40.7503 C37.375,45.2503 39.208,50.2503 41.792,51.1663 C44.825,52.2433 48.458,48.1663 48.458,48.1663 L56.375,46.0833 C56.375,46.0833 60.292,55.3333 61.625,56.3333 C62.958,57.3333 64.125,58.0003 66.458,55.8333 C68.792,53.6663 69.5,50.9583 69.875,46.8333 C70.193,43.3283 69.375,39.5833 67.625,37.0833 C65.934,34.6673 67.095,30.9763 67.625,29.5833 C68.625,26.9583 69.063,24.3973 67.125,18.5833 C65.375,13.3333 61.875,7.0833 55.375,5.0833 C48.875,3.0833 46.75,3.9583 44.792,3.0003 C42.778,2.0143 40.375,-0.6667 36.458,0.3333 C32.195,1.4213 30.125,4.3333 27.292,3.6663 C24.458,3.0003 23.125,1.0833 17.625,1.0833 C12.125,1.0833 9.792,1.8333 7.375,3.8333" id="Fill-156" fill="#423748" mask="url(#mask-17)"></path>
                        </g>
                        <path d="M56.644,48.8001 C55.307,54.2061 51.726,57.3801 49,56.7081 C46.274,56.0361 43.852,51.5501 46,46.2081 C48.078,41.0411 51.375,37.3331 55.125,38.7081 C57.761,39.6751 57.625,44.8331 56.644,48.8001" id="Fill-159" fill="#FFAEAE"></path>
                        <path d="M130.0078,556.0374 C130.0078,556.0374 131.5218,556.6414 139.6688,555.5444 C142.0248,555.2274 147.3778,553.8394 148.8108,552.9374 C150.0798,552.1394 151.1688,551.1164 151.0698,549.6194 C150.2108,536.6454 144.1468,474.7034 141.1248,466.3334 C140.5068,464.6214 137.8478,461.9564 138.0458,467.3614 C139.1648,497.8844 132.9028,507.2584 130.0078,556.0374" id="Fill-161" fill="#2B2B51"></path>
                        <path d="M39.9175,561.263 L26.3325,554.904 C26.3875,554.786 31.8895,543.027 38.2945,528.903 C41.7555,521.27 42.4445,511.796 40.4005,499.941 C39.8135,496.537 19.2035,389.995 8.3865,334.134 L23.1135,331.283 C24.3915,337.883 54.4235,492.989 55.1825,497.392 C57.7535,512.305 56.6985,524.638 51.9555,535.098 C45.5115,549.308 39.9725,561.145 39.9175,561.263" id="Fill-163" fill="#42426C"></path>
                        <polygon id="Fill-165" fill="#C5CBD8" points="11.7935 333.4388 0.3855 273.9258 8.3995 273.2418 19.6475 331.9208"></polygon>
                        <path d="M24.8706,340.0697 L10.0466,342.9257 C9.2216,343.0857 8.4166,342.5407 8.2576,341.7157 L7.1196,335.8067 C6.9606,334.9817 7.5056,334.1767 8.3296,334.0177 L23.1546,331.1617 C23.9786,331.0027 24.7846,331.5477 24.9436,332.3727 L26.0816,338.2807 C26.2406,339.1057 25.6956,339.9107 24.8706,340.0697" id="Fill-167" fill="#2474CD"></path>
                        <path d="M60.2915,275.9168 L59.3755,277.7488 C58.6075,279.2838 59.0745,281.1488 60.4755,282.1418 L83.4585,298.4998 C85.3325,299.8288 87.9545,299.0898 88.8585,296.9788 L89.3505,295.8318 L60.2915,275.9168 Z" id="Fill-169" fill="#2B2B51"></path>
                        <path d="M85.625,512.5833 C70.733,512.5833 56.955,517.3353 45.711,525.3993 C43.134,527.2483 41.625,530.2443 41.625,533.4163 L41.625,585.3333 L154.07,585.3333 C154.153,583.9533 154.208,582.5663 154.208,581.1663 C154.208,543.2893 123.503,512.5833 85.625,512.5833" id="Fill-171" fill="#2B2B51"></path>
                        <g id="Group-175" transform="translate(20.000000, 516.000000)">
                            <mask id="mask-19" fill="white">
                                <use xlink:href="#path-18"></use>
                            </mask>
                            <g id="Clip-174"></g>
                            <path d="M130.458,65.1663 C130.458,100.9733 101.432,130.0003 65.625,130.0003 C29.818,130.0003 0.791,100.9733 0.791,65.1663 C0.791,29.3603 29.818,0.3333 65.625,0.3333 C101.432,0.3333 130.458,29.3603 130.458,65.1663" id="Fill-173" fill="#42426C" mask="url(#mask-19)"></path>
                        </g>
                        <path d="M135.458,581.1663 C135.458,608.6883 113.147,631.0003 85.625,631.0003 C58.103,631.0003 35.791,608.6883 35.791,581.1663 C35.791,553.6453 58.103,531.3333 85.625,531.3333 C113.147,531.3333 135.458,553.6453 135.458,581.1663" id="Fill-176" fill="#D8DDEA"></path>
                        <path d="M132.792,581.1663 C132.792,607.2163 111.675,628.3333 85.625,628.3333 C59.576,628.3333 38.459,607.2163 38.459,581.1663 C38.459,555.1173 59.576,534.0003 85.625,534.0003 C111.675,534.0003 132.792,555.1173 132.792,581.1663" id="Fill-178" fill="#C5CBD8"></path>
                    </g>
                    <g id="Group-187" transform="translate(263.000000, 533.886000)">
                        <g id="Group-183">
                            <mask id="mask-21" fill="white">
                                <use xlink:href="#path-20"></use>
                            </mask>
                            <g id="Clip-182"></g>
                            <polygon id="Fill-181" fill="#FFFFFF" mask="url(#mask-21)" points="44.2432 107.4935 47.5362 48.2665 102.3032 71.0555"></polygon>
                        </g>
                        <g id="Group-186">
                            <mask id="mask-23" fill="white">
                                <use xlink:href="#path-22"></use>
                            </mask>
                            <g id="Clip-185"></g>
                            <polygon id="Fill-184" fill="#FFFFFF" mask="url(#mask-23)" points="-7.1958 25.5306 50.8632 -10.9074 47.5702 48.3196"></polygon>
                        </g>
                    </g>
                    <g id="Group-222" transform="translate(208.000000, 90.886000)">
                        <path d="M112.125,491.1663 C112.125,496.4133 107.872,500.6663 102.625,500.6663 C97.378,500.6663 93.125,496.4133 93.125,491.1663 C93.125,485.9203 97.378,481.6663 102.625,481.6663 C107.872,481.6663 112.125,485.9203 112.125,491.1663" id="Fill-188" fill="#2B2B51"></path>
                        <path d="M102.75,472.9163 C101.559,472.9163 100.583,471.9413 100.583,470.7503 L100.583,453.4163 C100.583,452.2253 101.559,451.2503 102.75,451.2503 C103.941,451.2503 104.917,452.2253 104.917,453.4163 L104.917,470.7503 C104.917,471.9413 103.941,472.9163 102.75,472.9163" id="Fill-190" fill="#2B2B51"></path>
                        <path d="M102.75,531.4163 C101.559,531.4163 100.583,530.4413 100.583,529.2503 L100.583,511.9163 C100.583,510.7253 101.559,509.7503 102.75,509.7503 C103.941,509.7503 104.917,510.7253 104.917,511.9163 L104.917,529.2503 C104.917,530.4413 103.941,531.4163 102.75,531.4163" id="Fill-192" fill="#2B2B51"></path>
                        <path d="M84.333,491.3333 C84.333,492.5243 83.358,493.5003 82.167,493.5003 L64.833,493.5003 C63.642,493.5003 62.666,492.5243 62.666,491.3333 C62.666,490.1423 63.642,489.1663 64.833,489.1663 L82.167,489.1663 C83.358,489.1663 84.333,490.1423 84.333,491.3333" id="Fill-194" fill="#2B2B51"></path>
                        <path d="M142.833,491.3333 C142.833,492.5243 141.858,493.5003 140.667,493.5003 L123.333,493.5003 C122.142,493.5003 121.167,492.5243 121.167,491.3333 C121.167,490.1423 122.142,489.1663 123.333,489.1663 L140.667,489.1663 C141.858,489.1663 142.833,490.1423 142.833,491.3333" id="Fill-196" fill="#2B2B51"></path>
                        <path d="M89.7275,478.3109 C88.8845,479.1539 87.5055,479.1539 86.6635,478.3109 L74.4065,466.0539 C73.5635,465.2109 73.5635,463.8319 74.4065,462.9909 C75.2495,462.1479 76.6285,462.1479 77.4705,462.9909 L89.7275,475.2469 C90.5705,476.0889 90.5705,477.4679 89.7275,478.3109" id="Fill-198" fill="#2B2B51"></path>
                        <path d="M131.0928,519.6761 C130.2508,520.5191 128.8718,520.5191 128.0298,519.6761 L115.7728,507.4201 C114.9298,506.5771 114.9298,505.1981 115.7728,504.3561 C116.6148,503.5131 117.9938,503.5131 118.8368,504.3561 L131.0928,516.6131 C131.9358,517.4551 131.9358,518.8341 131.0928,519.6761" id="Fill-200" fill="#2B2B51"></path>
                        <path d="M89.7275,504.3558 C90.5705,505.1988 90.5705,506.5778 89.7275,507.4198 L77.4705,519.6758 C76.6285,520.5188 75.2495,520.5188 74.4065,519.6758 C73.5635,518.8348 73.5635,517.4558 74.4065,516.6128 L86.6635,504.3558 C87.5055,503.5128 88.8845,503.5128 89.7275,504.3558" id="Fill-202" fill="#2B2B51"></path>
                        <path d="M131.0928,462.9906 C131.9358,463.8326 131.9358,465.2116 131.0928,466.0536 L118.8368,478.3106 C117.9938,479.1536 116.6148,479.1536 115.7728,478.3106 C114.9298,477.4686 114.9298,476.0896 115.7728,475.2466 L128.0298,462.9906 C128.8718,462.1476 130.2508,462.1476 131.0928,462.9906" id="Fill-204" fill="#2B2B51"></path>
                        <path d="M22.75,169.5833 C22.75,169.5833 24.875,170.3333 27.75,172.3963 C29.765,173.8413 31.041,174.8913 32.813,175.1453 C37.197,175.7753 41.5,170.2083 41.5,170.2083 L37,164.2913 L22.75,169.5833 Z" id="Fill-206" fill="#E09595"></path>
                        <path d="M63.3159,177.0853 L62.2539,177.2523 C61.6189,177.3513 61.0199,176.9133 60.9199,176.2793 L58.8879,163.2783 C58.7889,162.6453 59.2269,162.0453 59.8599,161.9463 L60.9229,161.7793 L63.3159,177.0853 Z" id="Fill-208" fill="#2474CD"></path>
                        <path d="M45.4741,142.66 L30.6461,149.529 C30.0201,149.819 29.7301,150.545 29.9851,151.185 C30.8261,153.299 32.7101,157.934 34.4641,161.555 C36.1611,165.059 38.1341,169.493 39.7641,172.15 C40.3481,173.101 41.5401,173.47 42.5621,173.021 L58.3121,166.146 L45.4741,142.66 Z" id="Fill-210" fill="#FFFFFF"></path>
                        <path d="M146.792,97.9998 C136.792,65.4998 129.875,46.5828 121.375,29.5828 C111.375,9.5828 98.875,3.0828 91.875,1.0828 C85.625,-0.7022 72.125,1.5828 68.625,18.0828 C64.573,37.1838 73.625,54.3328 78.625,62.3328 C83.625,70.3328 86.292,72.8328 90.125,78.9998 C93.42,84.2998 92.958,92.3328 97.458,97.3328 C99.694,99.8168 105.606,102.8278 108.938,105.2708 C109.953,106.0158 109.696,106.8778 108.438,106.8958 C105.804,106.9338 103.792,106.6668 101.625,106.3328 C100.396,106.1448 98.917,106.8748 99.958,108.1668 C102.202,110.9498 104.125,112.4998 106.5,114.7708 C107.605,115.8278 107.566,117.6478 104.715,116.8668 C97.292,114.8328 93.458,107.3328 88.125,111.4998 C79.458,117.8328 70.375,125.7498 64.959,129.3328 C61.002,131.9508 47.125,139.9998 43.133,142.4988 C42.215,143.0728 41.692,144.0898 42.125,145.0828 L53,168.0828 C53.604,169.3538 54.5,169.5828 55.625,169.0828 C62.747,165.9178 88.199,155.2638 95.125,151.6668 C105.875,146.0828 130.042,131.4998 143.042,120.7498 C149.792,115.2498 148.771,104.4338 146.792,97.9998" id="Fill-212" fill="#42426C"></path>
                        <path d="M30.25,151.9168 C30.25,151.9168 14.75,156.3338 5.85,159.6698 C4.597,160.1398 3.845,161.0608 3.591,162.2558 L0.34,177.4288 C0.047,178.7068 0.373,180.0478 1.22,181.0488 C1.22,181.0488 5.708,185.0838 10.063,190.4588 C11.259,191.9358 13.189,191.3958 13.625,189.8338 C14.625,186.2498 11.375,182.0838 11.375,182.0838 L16.583,168.2498 L25.625,170.2088 C25.625,170.2088 29.938,170.8958 32.938,169.2708 C35.937,167.6458 37.042,166.9168 37.042,166.9168 L30.25,151.9168 Z" id="Fill-214" fill="#FFAEAE"></path>
                        <path d="M23.2915,176.0833 C23.2915,180.4553 19.7475,184.0003 15.3745,184.0003 C11.0025,184.0003 7.4585,180.4553 7.4585,176.0833 C7.4585,171.7113 11.0025,168.1663 15.3745,168.1663 C19.7475,168.1663 23.2915,171.7113 23.2915,176.0833" id="Fill-216" fill="#42426C"></path>
                        <path d="M71.2231,183.1097 L70.2961,214.4047 C69.9761,216.1657 69.5741,214.4907 69.5241,213.7017 L67.0141,176.5727 L67.0631,176.6117 C69.0181,176.6757 71.2311,179.8637 71.2231,183.1097" id="Fill-218" fill="#2B2B51"></path>
                        <path d="M101.25,368.4583 C101.25,368.4583 101.506,363.0543 101.5,359.4583 C101.498,358.1483 102.515,358.0963 103.5,358.9583 C107.5,362.4583 116.125,370.6133 122.658,378.2953 C123.216,378.9513 123.75,378.2843 123.25,377.5833 L87.875,329.7083 C87.875,329.7083 93.945,346.9443 95.375,350.4583 C98.375,357.8333 101.25,368.4583 101.25,368.4583" id="Fill-220" fill="#2B2B51"></path>
                    </g>
                </g>
            </g>
        </g>
    </g>
</svg>