<?xml version="1.0" encoding="UTF-8"?>
<svg width="683px" height="683px" viewBox="0 0 683 683" version="1.1" xmlns="http://www.w3.org/2000/svg" xmlns:xlink="http://www.w3.org/1999/xlink">
    <!-- Generator: sketchtool 51.3 (57544) - http://www.bohemiancoding.com/sketch -->
    <title>5676D7ED-D24F-4529-9F4F-296D32F78FAA</title>
    <desc>Created with sketchtool.</desc>
    <defs>
        <path d="M25.9292413,1.00528676 L2.45284951,1.40972403 C2.45284951,1.40972403 -0.528154103,10.5725631 0.082455242,34.4405296 C0.6096,55.0518509 5.3512671,69.5851587 7.45984614,70.642511 C9.5675466,71.6998633 15.1008094,71.6998633 23.7951836,68.5286875 L24.6008365,79 L62,60.3368503 L59.8922995,50.8233228 L60.8754245,38.2672639 C62.4524659,18.1432057 46.5783801,1.00176225 26.5363364,1 C26.3342642,1 26.1330706,1.00176225 25.9292413,1.00528676" id="path-1"></path>
        <linearGradient x1="47.4448589%" y1="51.4614582%" x2="76.9499522%" y2="79.7600367%" id="linearGradient-3">
            <stop stop-color="#FDACAC" offset="0%"></stop>
            <stop stop-color="#DF9595" offset="100%"></stop>
        </linearGradient>
        <path d="M0.0792457514,32.8577991 C0.58587191,53.3611639 5.1429742,67.81835 7.16947884,68.8701642 C8.96377981,69.8018963 16.4635357,65.5376663 20.7310167,61.8755998 C21.9418532,60.2084743 23.054742,58.4607097 24.0620837,56.6419477 C26.8890577,47.9811342 29,29.2772482 29,29.2772482 C29,29.2772482 22.2019213,10.2429173 12.9298183,3.61210526 L2.35737471,3.41060513e-13 C2.35737471,3.41060513e-13 -0.507596215,9.11484655 0.0792457514,32.8577991" id="path-4"></path>
        <radialGradient cx="-62.6910836%" cy="45.6334587%" fx="-62.6910836%" fy="45.6334587%" r="167.901532%" gradientTransform="translate(-0.626911,0.456335),scale(1.000000,0.420290),translate(0.626911,-0.456335)" id="radialGradient-6">
            <stop stop-color="#FFE8E8" offset="0%"></stop>
            <stop stop-color="#FDACAC" offset="100%"></stop>
        </radialGradient>
        <polygon id="path-7" points="0 493 449 493 449 -5.77482506e-13 0 -5.77482506e-13"></polygon>
    </defs>
    <g id="Symbols" stroke="none" stroke-width="1" fill="none" fill-rule="evenodd">
        <g id="Иллюстрация-/-MORE-Signature">
            <g>
                <rect id="Rectangle-8-Copy-6" fill-rule="nonzero" x="0" y="0" width="683" height="683"></rect>
                <g id="Group-94" transform="translate(116.000000, 95.000000)">
                    <g id="Group-37" transform="translate(20.000000, 1.000000)">
                        <path d="M270.170732,192 L224.829268,192 C197.973171,192 176,170.008145 176,143.127273 L176,48.8727273 C176,21.9927273 197.973171,-5.77482506e-13 224.829268,-5.77482506e-13 L270.170732,-5.77482506e-13 C297.027701,-5.77482506e-13 319,21.9927273 319,48.8727273 L319,143.127273 C319,170.008145 297.027701,192 270.170732,192" id="Fill-1" fill="#DBDFE4"></path>
                        <path d="M271.846207,168 L221.153793,168 C204.019207,168 190,153.871657 190,136.603681 L190,39.3963186 C190,22.1274712 204.019207,8 221.153793,8 L271.846207,8 C288.981658,8 303,22.1274712 303,39.3963186 L303,136.603681 C303,153.871657 288.981658,168 271.846207,168" id="Fill-3" fill="#94BDFF"></path>
                        <path d="M310,28 C302.675361,13.2123894 287.58697,3 270.257712,3 L223.74316,3 C206.41303,3 191.32551,13.2123894 184,28 L310,28 Z" id="Fill-5" fill="#C7CDD3"></path>
                        <path d="M257.515348,23 L237.484652,23 C236.118225,23 235,21.8750662 235,20.5004412 C235,19.1249338 236.118225,18 237.484652,18 L257.515348,18 C258.881775,18 260,19.1249338 260,20.5004412 C260,21.8750662 258.881775,23 257.515348,23" id="Fill-7" fill="#DBDFE4"></path>
                        <path d="M245.148151,133.42101 C245.766028,132.794083 252.726755,126.069185 248.811782,116.806147 C245.320947,108.545669 236.375681,108.545669 229.684621,110.502098 C227.231437,111.219456 225.422311,110.914253 224.157756,108.183078 C220.66692,100.646914 212.666798,94.7054572 204.231194,94.1254847 C193.173099,93.3663903 188.813045,96.2992945 188.813045,96.2992945 C188.813045,96.2992945 183.476431,120.89204 187.503982,141.80496 C190.785368,158.841542 203.061764,173 206.800449,173 C222.150526,173 235.050036,172.679146 241.889455,166.588131 C250.922865,158.542426 250.11561,150.558457 245.75381,144.146588 C245.067861,143.13794 240.739225,137.892102 245.148151,133.42101" id="Fill-9" fill="#FFFFFF"></path>
                        <path d="M276.971989,170.38503 C273.452561,162.741559 265.386912,156.715502 256.882213,156.127271 C245.733545,155.357368 241.337779,158.332034 241.337779,158.332034 C241.337779,158.332034 236.660459,166.668682 236.003206,178.579691 C235.574715,186.353684 278.246902,173.155975 276.971989,170.38503" id="Fill-11" fill="#FFFFFF"></path>
                        <path d="M189.945368,27 L189,84 C189,84 203.075763,79.3992832 207.331226,77.0159897 C214.605231,72.9416927 214.423665,71.2323562 221.69767,69.777063 C228.971675,68.3217699 243.666336,65.8485573 248.321594,63.2295534 C252.976853,60.6105495 243.084101,58.6462966 237.301035,57.8099614 C231.28752,56.9395791 227.215369,55.4563499 225.662453,54.6086657 C222.461471,52.8626631 230.075041,52.2934663 234.682289,51.40737 C242.247848,49.9529498 242.82921,46.7516541 240.210463,45.296361 C237.310638,43.6848006 234.430016,42.1683974 230.846698,40.3953317 C230.706159,40.1465264 229.782614,38.1840195 235.227861,37.3668903 C241.047589,36.493889 248.648937,33.2568002 254.432003,32.456258 C260.215068,31.6557159 266.689483,32.0564235 276,29.728129 L276,27 L189.945368,27 Z" id="Fill-13" fill="#76A4FF"></path>
                        <path d="M304.090023,27 L259.835332,27.0371266 C259.835332,27.0371266 257.458185,30.5553176 258.114632,35.7848698 C259.835332,49.4854832 269.97886,49.5349854 271.880234,51.6954022 C274.041434,54.1501801 276.61302,63.6298484 290.163535,62.9668727 C297.812048,62.5920705 306,53.5146074 306,53.5146074 L304.090023,27 Z" id="Fill-15" fill="#FFFFFF"></path>
                        <path d="M302.033573,27 C303.534201,30.6601489 304.428823,34.9662577 304.428823,39.1501579 L304.428823,136.447442 C304.428823,153.731236 290.304085,167.872522 273.038579,167.872522 L221.961421,167.872522 C204.696787,167.872522 190.571177,153.731236 190.571177,136.447442 L190.571177,39.1501579 C190.571177,34.9662577 191.648909,30.6776072 193.148665,27.0183313 L181.276177,27.0183313 C178.060421,33.5250686 176,41.1247004 176,48.8413033 L176,143.116543 C176,170.002444 197.973171,192 224.829268,192 L270.170732,192 C297.027701,192 319,170.002444 319,143.116543 L319,48.8413033 C319,41.1247004 317.075604,33.5608583 313.859848,27.054121 L302.033573,27 Z" id="Fill-17" fill="#E9EEFB"></path>
                        <path d="M296.977418,67 C296.977418,67 285.128884,79.7311892 274.725547,82.9133355 C264.322211,86.0963498 251.174994,88.894833 246.983316,94.4874595 C243.968082,98.5098451 248.31581,102.419389 254.207566,106.060715 C258.394909,108.649139 257.386653,114.451825 266.634352,117.923889 C275.881185,121.395952 299,124 299,124 L296.977418,67 Z" id="Fill-19" fill="#76A4FF"></path>
                        <path d="M132.442899,206.509929 C131.544294,206.509929 127.75411,206.437156 126.676128,206.437156 C124.376147,206.437156 119.99178,204.245206 106.768826,200.372469 C105.144092,199.896378 102.744073,199.642111 100.732128,201.102827 C99.419578,202.056763 94.3349541,205.816396 91.1975963,208.137232 C89.5625138,209.347189 88.4207156,211.126175 87.9895229,213.135755 L86,222 L133,222 L132.442899,206.509929 Z" id="Fill-21" fill="#FFAEAE"></path>
                        <polygon id="Fill-23" fill="#FFFFFF" points="131.085418 204 129 204 130.960311 221 137 221"></polygon>
                        <path d="M112.266018,156 L92.7339823,156 C92.7339823,156 92,180.902818 92,184.700888 C92,189.86874 95.8170604,194.142876 100.811312,194.944168 L100.811312,215 L104.188688,215 L104.188688,194.944168 C109.18294,194.142876 113,189.86874 113,184.700888 C113,180.902818 112.266018,156 112.266018,156" id="Fill-25" fill="#E9EEFB"></path>
                        <path d="M92.4294523,220.502788 C91.7408701,220.805333 91.9256521,222 92.6614656,222 L102,222 L100.376736,218 L92.4294523,220.502788 Z" id="Fill-27" fill="#E9EEFB"></path>
                        <path d="M111,185 C111,189.858191 106.97093,193 102,193 C97.0299276,193 93,189.858191 93,185 L111,185 Z" id="Fill-29" fill="#EFDAB9"></path>
                        <path d="M110,214 C110,214 104.48898,214.218174 100.427725,215.309043 C99.3486687,215.599651 96.1489183,216.618087 96.0044639,218.945566 C95.8852456,220.855023 98.1799809,222 99.77507,222 C103.473449,222 110,221.85426 110,221.85426 L110,214 Z" id="Fill-31" fill="#FFAEAE"></path>
                        <path d="M29.1502397,387.497661 C36.3412882,391.432239 43.5698811,390.560787 47.1950916,386.047852 C49.5228399,383.149101 51.6698516,378.764013 53.6343804,376.372305 C55.5142162,374.083223 58,370.936605 58,370.936605 L46.8676701,344.845245 C46.8676701,344.845245 41.046553,349.773903 39.9551481,350.280945 C38.8637432,350.787987 36.3901832,351.368085 31.8062826,350.063517 C27.2223821,348.758949 13.3248687,344.990487 2.84738178,340.424499 C-9.70552072,334.954011 22.944948,384.102306 29.1502397,387.497661" id="Fill-33" fill="#FFAEAE"></path>
                        <path d="M80.9681866,443 L76.1803626,453.282969 C74.1325426,457.058515 71.1661638,460.249782 67.5415573,462.543231 C63.1646903,465.31179 50.4581065,472.257642 42.4409608,475.09607 C27.6395407,480.336245 11.192551,484.681223 9.57310153,485.358079 C6.96108622,486.449782 7.26669201,490.69869 13.0557886,491.908297 C18.2798192,493 20.6741666,493 25.6805293,493 L95.5519388,493 C99.4699617,493 102.598285,490.055022 101.646641,483.611354 C100.775969,477.716157 100.122966,471.384279 100.122966,471.384279 C100.122966,471.384279 99.6876297,468.545852 100.558301,466.799127 C101.428973,465.052402 106,456.100437 106,456.100437 L80.9681866,443 Z" id="Fill-35" fill="#FFAEAE"></path>
                    </g>
                    <g id="Group-40" transform="translate(309.000000, 64.000000)">
                        <mask id="mask-2" fill="white">
                            <use xlink:href="#path-1"></use>
                        </mask>
                        <g id="Clip-39"></g>
                        <path d="M25.9292413,1.00528676 L2.45284951,1.40972403 C2.45284951,1.40972403 -0.528154103,10.5725631 0.082455242,34.4405296 C0.6096,55.0518509 5.3512671,69.5851587 7.45984614,70.642511 C9.5675466,71.6998633 15.1008094,71.6998633 23.7951836,68.5286875 L24.6008365,79 L62,60.3368503 L59.8922995,50.8233228 L60.8754245,38.2672639 C62.4524659,18.1432057 46.5783801,1.00176225 26.5363364,1 C26.3342642,1 26.1330706,1.00176225 25.9292413,1.00528676" id="Fill-38" fill="url(#linearGradient-3)" mask="url(#mask-2)"></path>
                    </g>
                    <g id="Group-43" transform="translate(309.000000, 65.000000)">
                        <mask id="mask-5" fill="white">
                            <use xlink:href="#path-4"></use>
                        </mask>
                        <g id="Clip-42"></g>
                        <path d="M0.0792457514,32.8577991 C0.58587191,53.3611639 5.1429742,67.81835 7.16947884,68.8701642 C8.96377981,69.8018963 16.4635357,65.5376663 20.7310167,61.8755998 C21.9418532,60.2084743 23.054742,58.4607097 24.0620837,56.6419477 C26.8890577,47.9811342 29,29.2772482 29,29.2772482 C29,29.2772482 22.2019213,10.2429173 12.9298183,3.61210526 L2.35737471,3.41060513e-13 C2.35737471,3.41060513e-13 -0.507596215,9.11484655 0.0792457514,32.8577991" id="Fill-41" fill="url(#radialGradient-6)" mask="url(#mask-5)"></path>
                    </g>
                    <g id="Group-93" transform="translate(0.000000, 1.000000)">
                        <path d="M321.294683,53.8070382 C319.865872,54.4965219 318.298985,54.8421409 316.714621,54.7903858 C314.678455,54.7245953 311.754417,54.7596836 309.867686,55.3517974 C306.722553,56.3386538 305.816328,59.9536184 306.029557,63.6992866 C306.384357,69.9292013 310.613989,73.438024 310.613989,73.438024 L316.206891,71.6265943 C316.674422,71.5994009 317.01087,72.068706 316.829975,72.5029228 C315.869569,74.8055877 313.6193,80.6863745 314.873333,82.4179785 C315.523508,83.3153599 316.441093,83.942562 317.295759,84.3697612 C318.729814,85.0881926 319.650021,86.5382136 319.756635,88.1443772 C320.074732,92.9093584 320.910171,102.033175 322.768063,104.902514 L327.847117,104.713915 L338.547037,86.0662769 C338.547037,86.0662769 342.392157,84.7855566 346.127167,92.6786533 C349.861302,100.570873 352.416559,110.041185 356.34732,111.224536 C360.278955,112.408763 368.141352,113 369.713481,113 C371.286485,113 372.661989,111.81665 373.841742,109.054329 C375.020621,106.292008 380.660712,91.6312697 381.900764,77.2889569 C382.291393,72.7678389 381.8326,60.0606375 374.824869,53.4149273 C367.907149,46.854306 360.475581,42.7603871 348.484924,44.3384801 C339.113318,45.5727085 326.39908,51.3455991 321.294683,53.8070382" id="Fill-44" fill="#423748"></path>
                        <path d="M328.134707,87.8792826 C328.702061,85.3215673 332.671015,81.5838389 335.696061,83.5511104 C338.721947,85.5183819 341.179639,89.8474289 340.98968,94.5683556 C340.761058,100.269857 337.776357,105.980105 336.074296,107.554622 C334.373076,109.128264 331.179926,109.458038 329.64681,108.341006 C327.756472,106.964178 327,104.603277 327,104.603277 C327,104.603277 327.567354,90.436998 328.134707,87.8792826" id="Fill-46" fill="#FFAEAE"></path>
                        <path d="M55,222 L395,222 L395,276.690235 L256.410497,429.725762 C241.657668,446.016452 216.215491,446.103081 201.352274,429.913897 L69.921453,286.753238 C69.921453,286.753238 55.1451554,274.065103 55.1451554,255.251663 C55.1451554,240.375919 55,222 55,222" id="Fill-48" fill="#DBDFE4"></path>
                        <path d="M333,146 C314.459023,153.283203 305.1881,162.606366 297.800564,166.539453 C266.484365,183.212244 261.280933,188.989512 244.494713,190.720944 C227.546837,192.468982 215.813691,194.217021 188.870914,198.878166 C183.097337,199.87717 169.02973,202.346274 163.163158,202.325298 L151.710739,203.159986 C151.240544,203.158238 150.899848,203.608358 151.02674,204.062848 L155.854712,221.365808 L286.067419,221.365808 L283.894615,232 L292.151272,232 C292.151272,232 322.039504,176.153665 333,146" id="Fill-50" fill="#1D57AA"></path>
                        <path d="M327.709248,143 C326.836121,143.290741 320.14185,144.309645 318.395594,148.52932 C317.60454,150.440528 317.709316,154.546701 317.841158,156.822863 C317.901404,157.848751 317.574854,158.858051 316.921754,159.651695 C314.655115,162.408061 309.278393,169.380609 306.89912,176.177665 C299.555242,197.159046 289,229 289,229 L299.914098,228.563452 L328,151.876772 L327.709248,143 Z" id="Fill-52" fill="#E86A46"></path>
                        <path d="M316,179 L326.871374,143.298017 C327.756599,140.392441 329.79936,137.983153 332.515452,136.645638 L369.982991,118.192325 C370.994301,117.740913 372.180731,118.10697 372.763877,119.051151 L377,125.910317 L316,179 Z" id="Fill-54" fill="#FFFFFF"></path>
                        <path d="M409.435313,132.955083 C404.64708,132.730659 394.852967,133.286042 389.194146,126.624074 C383.535326,119.962107 377.441211,104.133713 383.535326,86.6933138 C389.62944,69.2537875 401.345811,62.1674244 411.176488,62.0041281 C422.929423,61.8076485 432.070595,68.6660953 432.941183,73.7605921 C433.63243,77.8045782 433.811771,83.3618936 434.247065,93.3561542 C434.733723,104.518813 446,120.370785 446,124.877589 C446,129.384394 432.941183,131.371021 425.976481,131.958713 C419.346955,132.518461 414.223545,133.179506 409.435313,132.955083" id="Fill-56" fill="#DBDFE4"></path>
                        <path d="M433.431395,131.263431 C446.863035,135.189724 418.914891,185 406.84794,185 C394.780989,185 385,173.414924 385,159.122759 C385,144.831474 398.443694,133.812835 410.399576,132.144358 C419.870604,130.822967 431.92464,130.822967 433.431395,131.263431" id="Fill-58" fill="#DBDFE4"></path>
                        <path d="M62.7698947,348.093094 C57.5607998,361.53899 80.1335444,386.092898 89.9726565,381.416255 L100.969924,370.893152 L142.642683,347.508185 L182,281.446772 L156.533603,268 L62.7698947,348.093094 Z" id="Fill-60" fill="#2B2B51"></path>
                        <path d="M98,445.484499 L132.165884,463 C132.165884,463 144.326726,440.813991 151.275778,429.136407 C158.224831,417.459698 183.01905,385.857356 188.337681,373.670946 C194.707356,359.074404 199.919145,337.76417 199.919145,337.76417 L314,360.825954 L295.468615,330.466336 L213.238741,275 C213.238741,275 178.493479,279.087242 167.490523,284.341892 C158.056316,288.847755 152.848002,299.857123 148.38063,314.702386 C132.745262,366.664746 98,445.484499 98,445.484499" id="Fill-62" fill="#42426C"></path>
                        <path d="M209.722909,288.608988 C223.738043,298.373592 231.828798,308.283349 243.387143,322.274006 C254.424483,335.634209 267.226826,347.340891 287.310242,354.336219 C301.129457,359.149879 352.038884,358.99948 352.038884,358.99948 L374,329.560515 C374,329.560515 343.369908,296.62476 327.765752,290.795028 C312.161595,284.965297 220.259183,249.573307 205.82187,246.418414 C192.818407,243.576562 183.860754,244.742159 174.035337,252.320723 C164.210787,259.899286 155,269.426924 155,269.426924 L178.297872,280.52064 C178.297872,280.52064 195.348014,278.594301 209.722909,288.608988" id="Fill-64" fill="#2B2B51"></path>
                        <path d="M421.863414,129.943526 C421.863414,129.943526 406.787533,131.036863 401.18792,123.60217 C395.588307,116.167478 392.142392,98.0180806 398.172744,78.556679 C404.203096,59.0952773 415.79688,51.1873883 425.5247,51.0045823 C437.154665,50.7859149 446.200194,58.439275 447.061672,64.1246283 C447.745687,68.6379242 447.923151,74.8393326 448.353891,85.9913717 C448.835458,98.4475434 449,113.543468 449,118.572819 C449,123.60217 447.061672,128.412854 440.169841,129.068856 C433.609679,129.69337 421.863414,129.943526 421.863414,129.943526" id="Fill-66" fill="#E9EEFB"></path>
                        <path d="M376.785598,125 C376.785598,125 338.73668,147.54785 321.934781,160.326979 C308.403872,170.618602 304.257303,192.953612 304.257303,192.953612 L294,234.339072 C294,234.339072 308.694568,281.491345 309.56753,281.491345 C310.440492,281.491345 381.732673,332 381.732673,332 C381.732673,332 395.537693,183.522982 395.700064,182.66199 C397.094184,175.253773 398.53719,158.356243 393.299419,148.721533 C389.237527,141.249377 376.785598,125 376.785598,125" id="Fill-68" fill="#2474CD"></path>
                        <path d="M346.762332,150 L323.148269,175.607649 C316.313901,184.050403 312.969794,192.01907 307.536924,202.294434 C302.104924,212.571544 295,227.704765 295,227.704765 L316.313901,268.739866 L323.563238,274.269128 L352.191722,250.883486 C353.339193,249.946663 354.861614,251.453611 353.942942,252.617437 L332.262789,280.09 L336.32287,283 L360.696404,260.217661 C363.226233,257.853341 367.328942,258.730794 368.677372,261.92542 L377.210762,282.126913 L392,188.998188 L346.762332,150 Z" id="Fill-70" fill="#1D57AA"></path>
                        <path d="M201,228.011009 C201,228.011009 192.169644,227.848706 186.473889,228.770451 C181.37479,229.595855 175.293013,229.574157 169.923957,237.015816 C167.698099,240.101319 166.053422,242.358813 164.848071,244.000942 C162.613616,247.044784 161.322291,250.675349 161.094461,254.456934 C160.90274,257.644852 160.939708,261.205982 161.810622,263 L169.834544,255.784871 C169.834544,255.784871 176.482888,253.969155 181.942216,251.807134 C187.602723,249.564394 193.477304,246.309645 193.477304,246.309645 L201,228.011009 Z" id="Fill-72" fill="#FFAEAE"></path>
                        <path d="M304.010179,278.375339 C303.455557,277.26759 325.715299,299.117526 334.408143,310.082586 C347.037321,326.012034 358.340456,347 358.340456,347 L375,324.642818 C375,324.642818 366.727693,312.181295 355.716234,299.758121 C344.703905,287.334075 322.06803,269 322.06803,269 L304.010179,278.375339 Z" id="Fill-74" fill="#C7CDD3"></path>
                        <path d="M192.075051,251 L196.894524,251 L205,228 L200.910459,228 C200.910459,228 197.499148,230.358058 194.922921,236.188 C191.271514,244.450136 192.075051,251 192.075051,251" id="Fill-76" fill="#FFFFFF"></path>
                        <path d="M377.48178,280.702772 C377.48178,280.702772 346.055489,276.866669 315.763483,277.003579 C290.49909,277.117817 261.699425,279.224664 258.318352,279.853405 C255.798011,280.322562 250.098713,281.45883 251.121485,287.270102 C252.274935,293.820864 258.919471,296.13613 266.093687,296.628832 C271.393111,296.992473 290.977371,296.00794 318.375298,297.88893 C347.843163,299.910317 377.124594,307 377.124594,307 C377.124594,307 380.381087,300.153617 379.962918,292.353222 C379.543877,284.553699 377.48178,280.702772 377.48178,280.702772" id="Fill-78" fill="#E9EEFB"></path>
                        <path d="M232.33912,343.828663 C232.33912,343.828663 224.513046,353.02387 226.252174,367.254547 C227.991301,381.485224 235.355637,392.648206 253.208652,395.934835 C273.42601,399.656705 317.121592,403.378574 366.034556,394.621234 C389.914517,390.345901 409.730137,370.757483 416.686648,351.491336 C422.066639,336.589846 434.691836,294.83485 443.208344,219.912305 C450.599636,154.889057 449.512682,138.031178 447.556163,135.622909 C446.324861,134.107889 427.121414,125.770902 414.077956,136.060776 C401.034499,146.35065 386.103219,190.027883 380.092794,233.267248 C376.03454,262.458089 377.722363,286.27455 376.904104,298.50943 C375.599758,317.994511 364.078037,331.787321 364.078037,331.787321 C364.078037,331.787321 338.208514,327.189718 321.25202,334.414523 C304.295525,341.639328 289.078159,352.36707 279.295566,353.242804 C270.817319,351.710269 232.33912,343.828663 232.33912,343.828663" id="Fill-80" fill="#E9EEFB"></path>
                        <path d="M120.300945,471.168331 C120.300945,471.168331 96.6749848,472.27094 95.2207709,470.947809 C93.7665569,469.624677 97.207993,462.919047 94.7845939,462.347454 C92.6037092,461.833197 89.7685591,461.979624 87.6932292,462.214259 C87.6810162,462.221316 87.6696756,462.230136 87.6565903,462.238957 C83.2712673,465.035175 70.5366452,472.040715 62.5075,474.917203 C44.0423853,481.532861 31.198719,484.598115 29.5761407,485.281733 C26.9590791,486.384343 27.2652753,490.675699 33.0655563,491.89739 C38.2996796,493 40.6986528,493 45.7146877,493 L115.721087,493 C119.64668,493 122.781047,490.0256 121.827564,483.517558 C120.955211,477.563466 120.300945,471.168331 120.300945,471.168331" id="Fill-82" fill="#2474CD"></path>
                        <path d="M43.7904336,362.33403 C51.9647526,361.128486 53.7086073,357.84064 55.1254892,355.758338 C56.0427568,354.409882 58.177235,351.100117 58.177235,351.100117 C58.177235,351.100117 56.1613389,351.538497 52.2917253,350.388189 C47.7263137,349.030089 35.4896852,344.022042 25.1163655,339.501473 C16.397092,335.702476 5.57124192,328.541986 1.57432693,333.948958 C-1.8819931,338.625591 0.569866618,347.592205 6.80589105,355.283134 C21.5562861,373.475883 30.9295052,374.571831 48.6584041,388.016053 C55.200475,392.976755 64.0392026,391.213593 67.659445,386.664091 C69.111204,384.838679 71.6894932,380.473296 73,378.334881 C68.5313723,381.293942 58.6306372,376.708493 54.9075074,374.49906 C49.0158943,371.003422 44.5533701,365.073901 43.7904336,362.33403" id="Fill-84" fill="#1D57AA"></path>
                        <mask id="mask-8" fill="white">
                            <use xlink:href="#path-7"></use>
                        </mask>
                        <g id="Clip-87"></g>
                        <polygon id="Fill-86" fill="#FFFFFF" mask="url(#mask-8)" points="113 185 131 185 131 184 113 184"></polygon>
                        <path d="M177.102704,217 C173.557296,217 170.068111,216.156706 166.936704,214.548353 C163.007111,212.530706 159,210 159,210 L182,217 L177.102704,217 Z" id="Fill-88" fill="#23478D" mask="url(#mask-8)"></path>
                        <path d="M201,221.96322 L228.979319,218.734497 C236.551628,217.860544 242.740425,212.254283 244.394718,204.770511 L245.08778,201.635488 C245.336794,200.50758 246.762098,200.154671 247.503047,201.037382 L252.047129,206.443982 C252.894301,207.451918 254.51812,206.668163 254.268235,205.374747 L252.743674,197.489902 C252.530357,196.386514 253.764982,195.58612 254.675714,196.237644 L265.500885,203.977998 C268.612697,206.203163 272.798058,206.145367 275.84544,203.83088 C281.288064,199.699305 289.691002,193.311039 294,190 C290.299608,204.394833 285.946205,222 285.946205,222 L201,221.96322 Z" id="Fill-89" fill="#23478D" mask="url(#mask-8)"></path>
                        <path d="M196.008219,251.876676 C195.883007,245.291048 197.115124,233.855567 204.795641,228.029449 C204.795641,228.029449 231.026607,227.956033 242.330435,227.956033 C251.912603,227.956033 279.86523,227.956033 295.806235,228.538994 C295.806235,228.538994 315.50272,197.324778 328.41343,179.15771 C334.934869,169.980657 347.758627,135.621771 373.628741,141.720578 C397.105922,147.256526 397.685895,169.25261 388.41067,191.39378 C379.135444,213.53495 319.428626,273.987256 312.472425,278.066237 C308.5613,280.358752 303.197199,280.105291 299.429547,279.814247 C293.332436,279.342285 223.779984,253.88514 223.779984,253.88514 L197.924652,253.88514 C196.832529,253.88514 196.029087,252.974427 196.008219,251.876676" id="Fill-90" fill="#2474CD" mask="url(#mask-8)"></path>
                        <path d="M217,247.625421 L201,242 C201,242 203.326733,247.033038 209.435935,248.513552 C215.545137,249.993179 217,247.625421 217,247.625421" id="Fill-91" fill="#23478D" mask="url(#mask-8)"></path>
                        <polygon id="Fill-92" fill="#E09595" mask="url(#mask-8)" points="124 215 124 210 130 213.628798"></polygon>
                    </g>
                </g>
            </g>
        </g>
    </g>
</svg>