<svg xmlns="http://www.w3.org/2000/svg" xmlns:xlink="http://www.w3.org/1999/xlink" width="683" height="683" viewBox="0 0 683 683">
    <defs>
        <path id="a" d="M.022 26.249c0 14.048 1.803 24.733 12.89 24.733s23.949-10.685 23.949-24.733C36.86 12.199 24.598 0 13.51 0 2.424 0 .022 12.2.022 26.249"/>
        <radialGradient id="b" cx="-50.001%" cy="190.808%" r="238.51%" fx="-50.001%" fy="190.808%" gradientTransform="scale(1 .72259) rotate(-60.607 .127 2.274)">
            <stop offset="0%" stop-color="#FFE8E8"/>
            <stop offset="100%" stop-color="#FDACAC"/>
        </radialGradient>
        <path id="d" d="M.025 29.024c0 16.02 9.075 29.009 23.537 29.009 10.416 0 14.463-12.988 14.463-29.009 0-16.02-3.196-29.008-13.612-29.008C13.998.016.025 13.003.025 29.024"/>
        <radialGradient id="e" cx="142.538%" cy="142.647%" r="182.654%" fx="142.538%" fy="142.647%" gradientTransform="scale(-1 -.65498) rotate(59.832 3.132 -2.853)">
            <stop offset="0%" stop-color="#FFE8E8"/>
            <stop offset="100%" stop-color="#FDACAC"/>
        </radialGradient>
        <path id="g" d="M0 .018h46.446v40.557H0z"/>
        <path id="i" d="M0 0h32.61v8.903H0z"/>
    </defs>
    <g fill="none" fill-rule="evenodd">
        <path fill-rule="nonzero" d="M0 0h683v683H0z"/>
        <path fill="#D8DDEA" d="M333.414 274.807a3.459 3.459 0 0 1-3.454 3.463 3.458 3.458 0 0 1-3.453-3.463 3.458 3.458 0 0 1 3.453-3.463 3.459 3.459 0 0 1 3.454 3.463"/>
        <path fill="#E09595" d="M310.043 289.154s11.634-1.93 15.165-6.217c3.532-4.288 10.18-16.079 10.18-16.079l-13.711-3.43-13.92 9.433 2.286 16.293z"/>
        <path fill="#D8DDEA" d="M312.692 251.94s6.035.252 16.755 17.679c1.293 2.103 2.28 5.638 2.612 7.662l7.29-7.596a3.786 3.786 0 0 0 .773-3.745c-1.465-4.293-9.89-18.38-20.53-22.104-1.279-.447-2.773-.16-3.52 1.143-1.161 2.026-3.38 6.96-3.38 6.96"/>
        <path fill="#E09595" d="M318.823 554.61s1.009 2.986-.275 6.643c-1.241 3.534-1.172 8.835-.138 11.874l47.568-.849s-20.682-9.187-27.025-12.156c-2.47-1.156-4.136-3.11-4.136-5.795l-15.994.282z"/>
        <path fill="#2B2B51" d="M338.545 560.264c-12.277 8.848-12.725 5.834-19.774 1.381-.021.066-2.43 5.86-.198 12.471 5.118-.073 47.405-.877 47.405-.877s-26.866-12.478-27.433-12.975"/>
        <path fill="#FFAEAE" d="M225.836 555.316s.035 4.044-.52 6.455c-.555 2.412-.893 7.17-.297 11.136.196 1.304 1.958 2.446 3.261 3.76 2.384 2.403 4.226 3.563 6.992 3.905 4.58.568 12.629.568 18.457.283 5.828-.283 6.16-1.677 5.535-3.407-.97-2.696-7.222-4.237-9.42-6.669-2.953-3.267-4.638-5.924-6.523-8.795-.935-1.423-.693-5.675-.693-5.675l-16.792-.993z"/>
        <path fill="#42426C" d="M260.384 577.688c.293-2.845-7.084-6.583-9.652-8.583-3.943-3.073-5.592-4.77-7.471-7.63-.034-.052-.063-.114-.093-.171-3.114-2.435-6.05-2.83-10.285-.359-3.623 2.22-5.735 3.22-7.783.636-.584 2.63-1.598 7.286-1.073 10.773.196 1.299 1.746 2.648 3.045 3.957 2.377 2.393 5.428 4.165 8.163 4.662 6.988 1.272 13.94 1.378 19.337.424 4.499-.794 5.604-1.695 5.812-3.709"/>
        <path fill="#2B2B51" d="M282.101 353.432s11.982 53.825 18.113 79.443c4.091 17.097 1.963 22.607 3.344 40.297 1.392 17.846 10.588 56.992 15.325 81.746 0 0 9.854 1.322 20.117-.848.781-.165 1.331-.89 1.321-1.714-.134-11.623-.817-83.234-.817-93.288 0-8.64-.558-23.89-1.394-31.662-.836-7.771-8.777-103.621-8.777-103.621l-37.758.863-9.474 28.784z"/>
        <path fill="#42426C" d="M239.602 323.515s-3.785 84.145-4.583 95.434c-1.666 23.607-6.942 36.562-8.054 58.73-1.11 22.167-1.11 77.153-1.11 77.153s8.039 2.15 20.358 1.256c.768-.055 1.404-.635 1.564-1.417 2.502-12.336 19.27-90.145 21.124-94.266 1.944-4.318 6.11-18.137 7.499-26.486 1.388-8.348 14.44-80.608 14.44-80.608l27.772-30.516-79.01.72z"/>
        <path fill="#FFAEAE" d="M310.718 466.697s22.063 28.253 40.17 71.173c0 0 3.123 7.332 3.331 10.568.263 4.094-2.442 8.221-7.077 10.783-6.244 3.451-21.646 10.784-26.433 12.294-4.787 1.51-7.077-.216-8.742 1.94-1.665 2.158.83 5.608 6.452 5.608h49.745c2.914 0 6.245-1.94 6.66-6.039.417-4.097-3.099-15.925-3.954-21.351-1.665-10.568-3.538-23.94-4.787-34.94-1.07-9.427-3.538-29.547-8.325-38.174-4.788-8.627-8.118-12.293-8.118-12.293l-38.922.431z"/>
        <path fill="#D8DDEA" d="M346.263 559.245c-6.22 3.446-21.562 10.77-26.33 12.279-4.77 1.508-7.05-.216-8.708 1.938-1.659 2.155.826 5.601 6.427 5.601h49.552c2.902 0 6.22-1.938 6.634-6.031.225-2.218.286-6.702-.744-11.207-7.431 5.975-19.25 5.393-25.296-3.54-.485.34-.995.662-1.535.96z"/>
        <path fill="#FFAEAE" d="M370.2 468.245c-.21.658.833 7.453 3.541 33.536 2.708 26.084 2.917 38.578 2.708 52.388-.122 8.156-4.375 11.179-8.125 17.097-5.723 9.032-8.805 6.138-9.222 9.645-.416 3.507 2.35 2.812 6.305 2.955 6.042.22 13.543.22 18.334-.218 4.792-.439 7.5-.107 7.5-3.395s-1.041-8.33-1.458-13.152c-.344-3.983-1.217-7.416-.208-12.858 3.333-17.974 6.32-27.572 10.278-45.328 3.762-16.874 2.639-27.3 1.806-35.41l-31.46-5.26z"/>
        <path fill="#E9EEFB" d="M368.445 571.066c-5.79 9.163-9.908 6.227-10.33 9.785-.42 3.56 3.375 3.857 7.38 4.003 6.113.222 13.702.222 18.55-.222 4.849-.445 7.59-1.112 7.59-4.448 0-2.762-.72-6.745-1.208-10.811-6.685 1.06-13.12.662-19.995-1.194a50.603 50.603 0 0 0-1.987 2.887z"/>
        <path fill="#42426C" d="M340.479 293.112s-1.66 18.779-4.424 34.38c-3.155 17.794-32.362 75.977-37.884 103.86-5.36 27.068-1.144 34.93 12.444 37.7 17.006 3.468 31.8-.577 48.944 2.023 13.275 2.013 26.868 7.388 49.774 5.778 28.758-2.022 28.758-17.045 29.588-22.246.83-5.2-4.853-53.988-16.73-109.493-10.231-47.813-19.771-49.69-19.771-49.69l-61.941-2.312z"/>
        <path fill="#2B2B51" d="M422.223 345.423c-10.24-47.667-19.788-49.538-19.788-49.538l-61.958-2.773s-1.553 17.566-4.103 32.657c1.287.71 86.27 21.616 85.85 19.654"/>
        <path fill="#423748" d="M364.318 195.156s-7.794-2.148-7.15-9.967c.621-7.547 9.533-10.4 9.533-10.4l-3.523-14.625s-13.782.614-15.716-12.097c-2.673-17.557 18.375-31.417 27.08-32.067l12.158 54.6-22.382 24.556z"/>
        <path fill="#FFAEAE" d="M364.991 192.188s5.172-4.318 4.083-16.263l24.908-7.484s-1.429 11.01.613 16.191c0 0-15.925 18.134-28.175 19.43l-1.429-11.874z"/>
        <path fill="#E9EEFB" d="M245.672 241.277s-12.78 1.972-29.754-2.302c-.57-.144-.958-.698-.915-1.306.399-5.599 1.749-32.154 5.204-44.724 3.875-14.096 12.733-16.974 16.607-18.7 3.876-1.726 22.974-8.487 27.402-10.357l36.156-2.373s7.957 3.452 20.448 6.58c6.926 1.736 16.192 3.13 21.59 8.883 4.445 4.74 13.7 18.269 13.7 18.269l-30.654 79.976 3.806 48.476s-30.723 2.445-54.112 2.014c-23.39-.432-35.567-2.158-35.567-2.158l2.076-48.043 4.013-34.235z"/>
        <path fill="#D8DDEA" d="M345.256 193.177l-7.91 3.559c-2.685 1.207-4.74 3.56-5.64 6.456l-5.2 16.7 18.75-26.715z"/>
        <path fill="#FFEDA6" d="M322.56 227.368c.208-1.085 9.906-22.734 13.745-27.982 3.332-4.555 6.464-7.614 14.578-8.026 4.853-.246 14.37-.138 14.37-.138l1.458 4.91s-1.561 3.58 11.697-3.752c1.836-1.016 31.7 4.302 35.371 6.138 5.207 2.603 10.622 7.592 10.413 16.486-.208 8.893-1.624 29.605-6.04 46.42-6.664 25.379-15.515 34.055-15.515 34.055s-13.225 6.29-43.006 2.17c-14.98-2.073-19.37-4.556-19.37-4.556s-1.394-.576-1.457-1.952c-.038-.829 1.041-3.254 1.666-8.026.633-4.834-.343-9.981-1.25-16.485-1.874-13.45-16.66-39.262-16.66-39.262"/>
        <path fill="#F9CC8E" d="M356.11 207.698s6.828-4.957 9.07-6.077c1.205-.602 2.338-.374 3.04.767.944 1.533 4.665 7.61 4.665 7.61l-4.508-13.03s-.52.047-.89-.11c-.372-.158-.368-.712-.368-.712l-11.009 11.552z"/>
        <path fill="#FFAEAE" d="M271.177 141.887s.504 11.095-.692 14.824c-1.108 3.454-3.185 4.462-3.185 4.462l23.542 19.141s9.278-7.916 7.894-19.573l-7.478-20.005-20.08 1.151z"/>
        <path fill="#F9CC8E" d="M338.348 218.903l3.16-9.575c.152-.464.623-.428.655.141l.132 6.444-3.947 2.99z"/>
        <g transform="translate(358 127)">
            <mask id="c" fill="#fff">
                <use xlink:href="#a"/>
            </mask>
            <path fill="url(#b)" d="M.022 26.249c0 14.048 1.803 24.733 12.89 24.733s23.949-10.685 23.949-24.733C36.86 12.199 24.598 0 13.51 0 2.424 0 .022 12.2.022 26.249" mask="url(#c)"/>
        </g>
        <g>
            <path fill="#D8DDEA" d="M240.018 316.982l5.734-2.716c2.015-1.143 3.613-3.216 4.03-5.931 0 0 .672-4.184 1.043-6.79 1.061-7.467 5.762-13.286 13.066-14.08l51.1-5.294c3.569-.31 7.066 1.153 9.408 3.939l2.492 2.963-1.112-15.472-84.058.928-1.703 42.453z"/>
            <path fill="#FFF" d="M368.603 197.503c-.992.292-1.506 1.407-1.094 2.378 0 0 .803 2.714 2.598 6.673 2.251 4.97 3.198 6.58 3.198 6.58.677 1.486 2.759 1.692 3.729.698l19.948-22.435-4.71-6.532s-6.988 5.63-14.095 9.088c-4.087 1.988-7.66 2.99-9.574 3.55"/>
            <path fill="#FFF" d="M366.755 199.433s-1.858 2.094-5.43 5.558c-2.827 2.742-5.202 4.426-5.202 4.426-.264.257-.741-.041-.565-.364.48-.887 1.202-2.24 1.73-3.665 2.43-6.532 6.652-15.49 13.04-21.509 0 0-.287 2.418-1.215 5.774-.624 2.255-1.108 4.692-1.25 7.327-.054.987-.643 1.912-1.108 2.453M286.416 178.363l5.5 33.454c.122.968.92 1.677 1.841 1.64l4.363-.475c1.035-.042 1.212-.933 1.1-2.024l-5.343-32.994-7.46.4z"/>
            <path fill="#F9CC8E" d="M343.673 275.839s6.856 2.427 13.396 9.607c7.953 8.734 9.383 14.083 9.383 14.083s6.559.692 13.081.692c5.687 0 13.5-.873 13.5-.873l-38.358-24.761-11.002 1.252z"/>
            <path fill="#E9EEFB" d="M296.288 182.364l-.727-4.4-9.145.42 1.087 6.481c2.082-4.64 5.475-4.99 8.785-2.501"/>
            <path fill="#F9CC8E" d="M367.746 274.587s-10.254-13.293-9.423-22.541c.832-9.248 14.966-27.743 14.966-27.743s-21.063 15.317-23.003 22.83c-1.94 7.514.831 17.05.831 17.05l16.63 10.404z"/>
            <path fill="#FFF" d="M292.346 176.072c1.466-1.521 5.128-5.203 5.704-12.146l3.49-1.737s3.761 6.07 3.63 13.322c-.076 4.145-.844 7.15-1.534 9.036-.464 1.268-1.968 1.714-2.996.878l-9.184-7.344c-.28-.227 0-1.086.89-2.01"/>
            <path fill="#423748" d="M309.304 131.624s2.039-2.325 1.767-9.59c-.24-6.402-.907-9.482-2.854-12.059-2.855-3.778-6.66-5.957-9.787-5.957-3.127 0 1.087 13.368 1.087 13.368l9.787 14.238z"/>
        </g>
        <g transform="translate(272 106)">
            <mask id="f" fill="#fff">
                <use xlink:href="#d"/>
            </mask>
            <path fill="url(#e)" d="M.025 29.024c0 16.02 9.075 29.009 23.537 29.009 10.416 0 14.463-12.988 14.463-29.009 0-16.02-3.196-29.008-13.612-29.008C13.998.016.025 13.003.025 29.024" mask="url(#f)"/>
        </g>
        <g>
            <g transform="translate(261.446 99)">
                <mask id="h" fill="#fff">
                    <use xlink:href="#g"/>
                </mask>
                <path fill="#423748" d="M5.836 38.694S.606 32.906.054 22.633C-.379 14.538 1.755 9.248 7.213 5.124c4.405-3.327 8.243-4.147 11.15-4.63 10.462-1.736 15.693 1.737 18.033 3.04 2.34 1.301 5.782 1.59 7.709 4.34 1.928 2.75 2.34 8.537 2.34 8.537s-.412 5.933-5.506 7.09c-9.05 2.058-19.272.29-20.649.29-1.377 0-3.166.578-3.303 3.038-.138 2.46-.413 9.116-.413 10.997 0 2.136-2.478 2.75-2.478 2.75l-8.26-1.882z" mask="url(#h)"/>
            </g>
            <path fill="#FFAEAE" d="M274.397 135.185c1.795 4.176 2.868 7.812.534 9.001-2.334 1.19-6.7-.857-8.493-5.033-1.794-4.176-1.174-9.022 1.16-10.211 2.334-1.19 5.006 2.067 6.8 6.243"/>
            <path fill="#FFF" d="M271.573 158.642c1 1.816 6.428 12.176 18.283 16.341 1.403.493 2.339 1.326 2.213 1.655-.634 1.665-3.047 6.02-6.66 9.71a2.362 2.362 0 0 1-2.857.399c-8.206-4.662-15.388-13.44-17.144-22.337-.053-.268.112-.738.474-1.068 0 0 .527-.695 2.213-2.403 1.848-1.874 2.67-2.438 2.67-2.438a.525.525 0 0 1 .808.141"/>
            <path fill="#FFC0D2" d="M339.514 267.182l1.878 7.21c.26 1 1.135 1.693 2.132 1.693h10.565c.826 0 1.366-.707 1.21-1.64l-3.661-18.144-12.124 10.88z"/>
            <path fill="#FFCFDF" d="M354.337 245.914c0 14.478-10.285 26.214-25.02 26.214-14.736 0-28.343-9.925-28.343-26.214 0-16.72 13.607-26.214 28.343-26.214 14.735 0 25.02 11.736 25.02 26.214"/>
            <path fill="#FFCFDF" d="M306.078 233.55l-2.107-17.882c-.435-3.689 3.58-6.195 6.603-4.12l15.105 10.365-19.601 11.636z"/>
            <path fill="#D8DDEA" d="M244.345 215.383l-1.675-3.596 2.3 1.84a6.553 6.553 0 0 1 2.293 3.677l9.242 40.975-10.395-3.505.187-30.441a20.886 20.886 0 0 0-1.952-8.95"/>
            <path fill="#FFCFDF" d="M353.264 237.506l2.05-22.252c.241-3.814-3.508-5.668-6.32-3.596l-13.433 9.27 17.703 16.578z"/>
            <path fill="#2474CD" d="M324.691 234.538a1.978 1.978 0 0 1-1.976 1.979 1.978 1.978 0 0 1 0-3.957c1.091 0 1.976.885 1.976 1.978M346.432 233.55a1.977 1.977 0 1 1-1.977-1.98c1.091 0 1.977.887 1.977 1.98"/>
            <path fill="#FFAEAE" d="M241.715 287.955s-5.108 2.404-4.972 7.14c.192 6.7.681 12.603 2.725 14.788 1.77 1.895 4.972 3.862 6.675 3.79 1.498-.065 2.452-1.312 2.452-5.902 0-3.06.205-8.086-2.452-12.676-2.656-4.59-4.428-7.14-4.428-7.14M217.05 239.484s-.416 20.622.728 30.43c.649 5.572 2.806 6.574 5.923 7.867 3.118 1.293 5.959 1.832 14.065 2.91 7.359.978 17.248-.295 31.108-2.048 11.362-1.437 16.859-2.323 24.665-2.012 7.206.288 11.363 2.012 21.443 3.09 2.937.314 9.946-2.69 11.432-3.556 1.663-.97 7.17-6.144 7.17-6.144s-18.22-3.88-22.55-4.742c-4.332-.862.042-5.039 1.298-8.945 1.247-3.88 1.082-8.653-.987-8.946-2.286-.323-1.87 4.204-4.157 6.467-1.599 1.581-4.64 2.658-6.651 4.203-2.806 2.156-4.254 4.57-5.716 4.419-7.656-.79-17.086-1.937-23.591-3.664-7.405-1.968-18.831-4.466-23.11-5.387-.99-.213-1.703-1.111-1.716-2.159l-.116-9.556s-7.275.216-16.698-.502c-7.975-.609-12.54-1.725-12.54-1.725"/>
            <path fill="#2B2B51" d="M351.782 419.528s-4.876 14.327-8.987 24.095c-3.477 8.265 22.78 27.713 25.288 22.503 2.508-5.21-.14-10.419-.209-15.774-.42-32.269-16.092-30.824-16.092-30.824"/>
            <path fill="#FFCFDF" d="M324.691 267.182l-1.978 7.21a2.32 2.32 0 0 1-2.247 1.693h-10.283c-.87 0-1.44-.707-1.274-1.64l3.857-18.144 11.925 10.88z"/>
            <path fill="#423748" d="M362.032 128.84c-1.953 4.389-4.184 11.996 4.743 20.481 9.238 8.78 12.833 6.437 14.786 13.459 1.953 7.022-1.953 19.603 8.648 32.184 6.142 7.288 23.039 11.178 30.968 4.432 12.554-10.682-6.138-23.384-7.811-40.705-.717-7.42-.212-23.77-7.533-32.192-8.648-9.947-18.134-11.996-28.178-9.947-8.577 1.75-13.67 7.9-15.623 12.288"/>
            <path fill="#23478D" d="M330.41 426.426a11.087 11.087 0 0 1-4.156-.567l-7.372-2.457a1.622 1.622 0 0 1-1.108-1.516l.291-110.119 1.846-.071 11.697 114.665-1.197.065z"/>
            <path fill="#2B2B51" d="M402 417.423s-2.79 7.88-2.093 22.635c.698 14.755 6.28 16.904 9.63 17.047 6.47.277 21.077-20.628 24.845-41.543L402 417.423z"/>
            <path stroke="#23478D" stroke-width="3" d="M369.16 317.631l4.941-32.643"/>
            <path stroke="#2474CD" stroke-linecap="round" stroke-width="3" d="M367.184 316.642l7.906-31.654"/>
            <path stroke="#23478D" stroke-width="3" d="M404.736 317.631l-7.906-34.622"/>
            <path fill="#2474CD" d="M465.981 413.73L329.95 426.434c-1.191.109-2.24-.814-2.337-2.059l-8.85-113.454 136.84-8.128 12.364 108.39c.146 1.282-.753 2.435-1.985 2.547"/>
            <path stroke="#E86A46" stroke-linecap="round" stroke-width="3" d="M372.125 316.642l1.976-26.709"/>
            <path fill="#FFAEAE" d="M424.825 213.797c-2.377-.54-7.19 5.894-7.867 11.428-.726 5.94-.555 8.946 2.29 12.14 2.844 3.195 5.757 2.4 7.151.102 1.396-2.298 2.398-10.22 2.897-14.971.437-4.162.133-7.652-4.47-8.699"/>
            <path stroke="#E86A46" stroke-linecap="round" stroke-width="3" d="M405.724 311.696s-6.821-23.635-9.882-28.687"/>
            <path fill="#FFAEAE" d="M325.837 258.28s-2.774 0-4.522-1.696c-2.064-2.002-1.85-4.342-.719-4.237 1.13.106 2.16 1.863 4.42 2.013 3.185.212 9.557 2.542 9.557 2.542l-8.736 1.377z"/>
            <path fill="#C5CBD8" d="M439.79 402.971c-1.42.35-2.864.591-4.319.723l-76.217 6.916c-.772.07-1.456-.515-1.535-1.313l-9.311-92.892 12.295-.752 89.49 84.76-10.403 2.558z"/>
            <path fill="#E9EEFB" d="M449.955 400.359l-82.62 7.283c-.774.068-1.472-.482-1.612-1.272l-16.327-91.5 82.701-5.153 19.053 88.96c.174.82-.387 1.611-1.195 1.682"/>
            <path fill="#C5CBD8" d="M412.642 320.104a2.472 2.472 0 1 1-4.942 0 2.472 2.472 0 1 1 4.942 0M377.066 322.082a2.472 2.472 0 1 1-4.941 0 2.472 2.472 0 1 1 4.941 0"/>
            <path stroke="#FF7E59" stroke-linecap="round" stroke-width="3" d="M375.09 322.577l.988-30.665"/>
            <path fill="#F9CC8E" d="M373.113 270.944s8.763-1.708 12.323-7.404c3.56-5.695 10.406-23.066 10.406-23.066l-9.037 37.59-13.692-7.12z"/>
            <path fill="#FFAEAE" d="M405.724 293.84s-4.092 5.675-6.034 7.508c-2.22 2.093-5.272 3.466-9.78 1.444-2.65-1.188-19.145-11.19-35.791-25.7-4.778-4.165-8.316-6.09-10.426-6.968-1.267-.528-2.015-.796-3.954-.016-2.085.838-4.764 1.678-7.678 2.544-1.615.48-12.38-1.19-13.941-2.166a290.265 290.265 0 0 1-9.156-5.955c-2.031-1.383-.764-3.599.416-3.682l21.225-4.548s8.212.992 13.317 2.599c8.948 2.815 16.855 7.796 25.803 11.262 9.066 3.51 15.815 4.548 15.815 4.548s11.028 4.187 20.184 19.13"/>
            <path stroke="#2474CD" stroke-linecap="round" stroke-width="3" d="M409.677 307.74l-9.882-25.72"/>
            <path fill="#FFC0D2" d="M346.42 248.4c.254 5.73-3.96 10.591-9.412 10.857-5.452.266-10.077-4.164-10.33-9.894-.252-5.73 3.963-10.591 9.414-10.856 5.451-.266 10.076 4.164 10.329 9.893"/>
            <path fill="#FFCFDF" d="M333.578 248.835c.063 1.366-.327 2.494-.87 2.52-.542.025-1.032-1.061-1.093-2.427-.062-1.365.327-2.493.869-2.519.542-.025 1.032 1.06 1.094 2.426M342.472 248.835c.062 1.366-.327 2.494-.869 2.52-.542.025-1.032-1.061-1.094-2.427-.062-1.365.328-2.493.87-2.519.542-.025 1.031 1.06 1.093 2.426"/>
            <path stroke="#FF7E59" stroke-linecap="round" stroke-width="3" d="M394.854 279.052c9.89 11.895 15.811 40.557 15.811 40.557"/>
            <path fill="#FFF" d="M383.983 275.07s6.363-.426 22.372 21.788l5.613-7.77c.765-1.101.892-2.55.31-3.764-1.93-4.02-11.772-16.748-22.548-19.055-1.294-.277-2.711.192-3.284 1.561-.889 2.13-2.463 7.24-2.463 7.24"/>
            <path fill="#2B2B51" d="M305.115 462.029c1.098.168 2.354-.528 1.757-1.497-1.91-3.104-3.818-10.508-2.536-21.222 1.946-16.248 11.461-45.51 11.461-45.51s-19.517 35.732-18.754 57.373c.264 7.48 4.793 10.353 8.072 10.856"/>
            <g transform="translate(215 232.56)">
                <mask id="j" fill="#fff">
                    <use xlink:href="#i"/>
                </mask>
                <path fill="#FFF" d="M1.253.011a.747.747 0 0 0-.882.685l-.37 4.153c-.013.754.547 1.349 1.299 1.555 2.194.604 6.844 1.257 14.314 1.912 7.633.668 13.677.62 15.943.546.557-.017.993-.462.984-1l.07-4.342c.006-.563-.462-1.023-1.047-1.021-2.379.006-8.673-.065-15.253-.589C9.546 1.373 3.416.376 1.253.011" mask="url(#j)"/>
            </g>
            <path fill="#E9EEFB" d="M407.158 293.89l-13.292-18.794s9.969 3.817 12.461 8.81c2.492 4.992.83 9.984.83 9.984"/>
            <path fill="#F9CC8E" d="M389.913 237.506l12.846-11.87-3.363 7.544c-1.056 2.37-3.243 3.938-5.706 4.091l-3.777.235z"/>
            <path fill="#FFF" d="M368.083 204.748c-.225.793-.81 1.264-1.307 1.054-.498-.21-.717-1.022-.492-1.815.226-.791.811-1.263 1.308-1.053.497.21.717 1.023.491 1.814M365.119 211.673c-.226.792-.81 1.263-1.308 1.053-.497-.21-.717-1.022-.491-1.814.226-.792.81-1.264 1.307-1.054.498.21.718 1.023.492 1.815M363.142 218.597c-.225.793-.81 1.264-1.307 1.053-.498-.21-.717-1.022-.492-1.813.226-.792.811-1.264 1.308-1.054.497.21.717 1.023.491 1.814"/>
        </g>
    </g>
</svg>
