<?xml version="1.0" encoding="UTF-8"?>
<svg width="683px" height="683px" viewBox="0 0 683 683" version="1.1" xmlns="http://www.w3.org/2000/svg" xmlns:xlink="http://www.w3.org/1999/xlink">
    <!-- Generator: sketchtool 51.3 (57544) - http://www.bohemiancoding.com/sketch -->
    <title>3D223938-DF0D-4224-8918-7366E0168D27</title>
    <desc>Created with sketchtool.</desc>
    <defs>
        <path d="M1,26.7727725 C1,41.1018377 2.81082073,52 13.9465617,52 C25.0823027,52 38,41.1018377 38,26.7727725 C38,12.4428448 25.6833628,7.63833441e-14 14.5476218,7.63833441e-14 C3.41272973,7.63833441e-14 1,12.4428448 1,26.7727725" id="path-1"></path>
        <radialGradient cx="-50.000586%" cy="190.807711%" fx="-50.000586%" fy="190.807711%" r="241.327603%" gradientTransform="translate(-0.500006,1.908077),scale(1.000000,0.711538),rotate(-60.982623),translate(0.500006,-1.908077)" id="radialGradient-3">
            <stop stop-color="#FFE8E8" offset="0%"></stop>
            <stop stop-color="#FDACAC" offset="100%"></stop>
        </radialGradient>
        <path d="M1,30.5 C1,46.7918088 10.0748427,60 24.5374214,60 C34.9530302,60 39,46.7918088 39,30.5 C39,14.2073235 35.8037701,1 25.3881613,1 C14.9725524,1 1,14.2073235 1,30.5" id="path-4"></path>
        <radialGradient cx="142.537544%" cy="142.646743%" fx="142.537544%" fy="142.646743%" r="184.972637%" gradientTransform="translate(1.425375,1.426467),scale(1.000000,0.644068),rotate(-119.751386),translate(-1.425375,-1.426467)" id="radialGradient-6">
            <stop stop-color="#FFE8E8" offset="0%"></stop>
            <stop stop-color="#FDACAC" offset="100%"></stop>
        </radialGradient>
        <polygon id="path-7" points="-9.63368274e-13 1 47 1 47 42 -9.63368274e-13 42"></polygon>
        <polygon id="path-9" points="0 -1.32560629e-13 33 -1.32560629e-13 33 9 0 9"></polygon>
    </defs>
    <g id="Symbols" stroke="none" stroke-width="1" fill="none" fill-rule="evenodd">
        <g id="Иллюстрация-/-Вклад-накопительный">
            <g>
                <rect id="Rectangle-8-Copy-6" fill-rule="nonzero" x="0" y="0" width="683" height="683"></rect>
                <g id="Group-166" transform="translate(213.000000, 95.000000)">
                    <g id="Group-47" transform="translate(0.000000, 19.000000)">
                        <path d="M121,160.5 C121,162.432985 119.432339,164 117.499584,164 C115.566829,164 114,162.432985 114,160.5 C114,158.567015 115.566829,157 117.499584,157 C119.432339,157 121,158.567015 121,160.5" id="Fill-1" fill="#D8DDEA"></path>
                        <path d="M97.3157895,175 C97.3157895,175 109.105263,173.05 112.684211,168.716667 C116.263158,164.383333 123,152.466667 123,152.466667 L109.105263,149 L95,158.533333 L97.3157895,175 Z" id="Fill-3" fill="#E09595"></path>
                        <path d="M100,137.388998 C100,137.388998 106.116671,137.643764 116.979987,155.256672 C118.29052,157.382052 119.289993,160.954889 119.62655,163 L127.013809,155.323854 C127.935941,154.305661 128.245302,152.849479 127.797409,151.53813 C126.312648,147.199249 117.775486,132.962868 106.992059,129.198956 C105.696824,128.747007 104.182317,129.037546 103.425064,130.35413 C102.248814,132.401858 100,137.388998 100,137.388998" id="Fill-5" fill="#D8DDEA"></path>
                        <path d="M106.213926,443.285437 C106.213926,443.285437 107.235877,446.303528 105.934755,449.999639 C104.677227,453.571461 104.74681,458.928765 105.79475,462 L154,461.142831 C154,461.142831 133.041196,451.857124 126.61355,448.857033 C124.11023,447.688712 122.421789,445.713796 122.421789,443 L106.213926,443.285437 Z" id="Fill-7" fill="#E09595"></path>
                        <path d="M126.199749,449 C113.757936,457.942919 113.304276,454.896975 106.16101,450.396279 C106.139288,450.462726 103.698046,456.318947 105.960498,463 C111.147093,462.926465 154,462.114036 154,462.114036 C154,462.114036 126.773717,449.502341 126.199749,449" id="Fill-9" fill="#2B2B51"></path>
                        <path d="M11.9814038,444 C11.9814038,444 12.016842,448.086287 11.4540498,450.523435 C10.8912576,452.960582 9.54882525,457.770357 10.152962,461.77836 C10.3520909,463.096295 12.1375006,464.249918 13.457995,465.578176 C15.8736983,468.006721 18.7408166,470.178905 21.5438086,470.524734 C26.1845239,471.098535 34.3412138,471.098535 40.2475787,470.811205 C46.1539436,470.524734 47.4896259,468.115976 46.8568011,466.367045 C45.8729694,463.642567 38.538108,462.085476 36.3097209,459.627682 C33.3177252,456.325962 31.6107857,453.640196 29.7004985,450.738502 C28.7529489,449.300129 28.9976411,445.003076 28.9976411,445.003076 L11.9814038,444 Z" id="Fill-11" fill="#FFAEAE"></path>
                        <path d="M46.9913513,466.610353 C47.2891781,463.73496 39.8132203,459.957364 37.2110216,457.935335 C33.2147578,454.829465 31.5438989,453.114167 29.6391534,450.224208 C29.6046594,450.171944 29.5760545,450.109398 29.5449257,450.051136 C26.3899807,447.59043 23.4142365,447.192022 19.1226699,449.688713 C15.4511551,451.931794 13.3108404,452.941952 11.2353072,450.331307 C10.6438602,452.989932 9.61576875,457.694577 10.1483235,461.219419 C10.3468747,462.532024 11.9167754,463.89518 13.2334391,465.218066 C15.6421345,467.63679 18.7339806,469.427485 21.5061257,469.930422 C28.5875051,471.21561 35.633549,471.322709 41.1021205,470.358818 C45.6612264,469.556004 46.7810216,468.645234 46.9913513,466.610353" id="Fill-13" fill="#42426C"></path>
                        <path d="M69,239.963009 C69,239.963009 81.1422218,294.362107 87.3552306,320.253017 C91.5011898,337.532823 89.3443422,343.10076 90.7438364,360.980123 C92.1551908,379.015702 101.473857,418.579476 106.274664,443.596796 C106.274664,443.596796 116.260038,444.932926 126.660517,442.74066 C127.452603,442.573098 128.010029,441.840888 127.999863,441.008316 C127.863472,429.261538 127.171349,356.886205 127.171349,346.725156 C127.171349,337.993618 126.606299,322.580554 125.759148,314.726097 C124.911996,306.87164 116.864057,210 116.864057,210 L78.6007675,210.872717 L69,239.963009 Z" id="Fill-15" fill="#2B2B51"></path>
                        <path d="M25.9311794,209.7271 C25.9311794,209.7271 22.0954614,294.769836 21.287453,306.179104 C19.5988251,330.037227 14.2517852,343.130259 13.1254704,365.534183 C12,387.938107 12,443.510173 12,443.510173 C12,443.510173 20.1467849,445.683617 32.6308103,444.780197 C33.4092677,444.724334 34.0543235,444.137766 34.2155875,443.34782 C36.7519064,430.880634 53.7437238,352.241264 55.6231665,348.076807 C57.5929509,343.712463 61.8145204,329.746562 63.2219917,321.308539 C64.6286186,312.871389 77.8564846,239.841074 77.8564846,239.841074 L106,209 L25.9311794,209.7271 Z" id="Fill-17" fill="#42426C"></path>
                        <path d="M98,354.435946 C98,354.435946 120.358237,382.99044 138.708865,426.367113 C138.708865,426.367113 141.872766,433.778203 142.083693,437.047801 C142.350304,441.185805 139.6091,445.356941 134.912183,447.946463 C128.58438,451.434034 112.9758,458.845124 108.124484,460.370937 C103.273169,461.89675 100.952975,460.152964 99.2655606,462.332696 C97.5781465,464.512428 100.105893,468 105.80429,468 L156.215786,468 C159.16876,468 162.543588,466.038241 162.965442,461.89675 C163.387296,457.755258 159.824321,445.801606 158.957834,440.3174 C157.270419,429.636711 155.372079,416.122371 154.106518,405.005736 C153.022355,395.47769 150.520763,375.143403 145.669448,366.424474 C140.818132,357.705545 137.443304,354 137.443304,354 L98,354.435946 Z" id="Fill-19" fill="#FFAEAE"></path>
                        <path d="M136.576999,448 C136.085349,448.34312 135.568486,448.668823 135.021369,448.970142 C128.718166,452.453595 113.170268,459.855934 108.337813,461.379945 C103.505358,462.903956 101.194184,461.162229 99.5133302,463.339388 C97.8324763,465.516546 100.350395,469 106.026639,469 L156.242149,469 C159.183643,469 162.545351,467.040557 162.965564,462.903956 C163.19332,460.663225 162.255404,456.131252 161.211593,451.577507 C153.680528,457.616945 142.703711,457.028241 136.576999,448" id="Fill-21" fill="#D8DDEA"></path>
                        <path d="M158.277767,356 C158.066636,356.665237 159.122291,363.532366 161.866994,389.893899 C164.611697,416.256306 164.822828,428.883581 164.611697,442.840458 C164.487552,451.083457 160.177946,454.138133 156.377589,460.120026 C150.578243,469.247388 146.454433,466.322791 146.032171,469.867228 C145.609909,473.411665 149.4128,473.709363 153.421755,473.854283 C159.544553,474.076029 167.145268,474.076029 172.001281,473.633411 C176.857293,473.18992 179.601996,472.525556 179.601996,469.202864 C179.601996,465.8793 178.546341,460.784389 178.124079,455.910352 C177.77529,451.884884 176.890229,448.414653 177.912948,442.914664 C181.291043,424.74986 184.316973,415.048927 188.328461,397.104122 C192.141486,380.049792 191.003068,369.513385 190.158544,361.316656 L158.277767,356 Z" id="Fill-23" fill="#FFAEAE"></path>
                        <path d="M158.145725,457 C157.49548,457.913192 156.836112,458.8689 156.191673,459.917609 C150.495398,469.177962 146.446298,466.210752 146.031601,469.806833 C145.616904,473.403801 149.350834,473.70495 153.288796,473.852868 C159.3019,474.076959 166.766443,474.076959 171.535457,473.627891 C176.304471,473.178824 179,472.503894 179,469.132789 C179,466.340955 178.292527,462.315292 177.812308,458.20637 C171.236875,459.277223 164.907772,458.8751 158.145725,457" id="Fill-25" fill="#E9EEFB"></path>
                        <path d="M128.159433,179 C128.159433,179 126.478087,197.979077 123.676123,213.746068 C120.479043,231.730073 90.8806213,290.533942 85.2851006,318.713059 C79.8526705,346.07054 84.1258123,354.017103 97.8951983,356.81662 C115.128999,360.320396 130.120723,356.232366 147.494916,358.860197 C160.947368,360.895015 174.722639,366.327619 197.935307,364.700116 C227.078924,362.656538 227.078924,347.472926 227.919598,342.217262 C228.760271,336.961599 223.001659,287.652962 210.965741,231.556636 C200.597719,183.233437 190.929977,181.336142 190.929977,181.336142 L128.159433,179 Z" id="Fill-27" fill="#42426C"></path>
                        <path d="M210.998414,231.868712 C200.621608,183.693755 190.945675,181.802281 190.945675,181.802281 L128.157286,179 C128.157286,179 126.583895,196.75331 124,212.005613 C125.304147,212.722557 211.425838,233.851878 210.998414,231.868712" id="Fill-29" fill="#2B2B51"></path>
                        <path d="M152.317485,80 C152.317485,80 144.418929,77.8294811 145.071681,69.9269705 C145.701751,62.2994974 154.732752,59.4159833 154.732752,59.4159833 L151.162356,44.6349074 C151.162356,44.6349074 137.195808,45.2550557 135.23587,32.4088774 C132.52741,14.6645791 153.857375,0.656936704 162.678354,-3.64902553e-13 L175,55.1826831 L152.317485,80 Z" id="Fill-31" fill="#423748"></path>
                        <path d="M153,77 C153,77 158.241103,72.6363636 157.137931,60.5639273 L182.37931,53 C182.37931,53 180.931034,64.1272727 183,69.3636364 C183,69.3636364 166.862069,87.6909091 154.448276,89 L153,77 Z" id="Fill-33" fill="#FFAEAE"></path>
                        <path d="M32.082677,126.612099 C32.082677,126.612099 19.1322439,128.605224 1.92979404,124.285769 C1.35253626,124.140973 0.959563409,123.580107 1.00332056,122.966032 C1.4072327,117.30765 2.77548509,90.4689336 6.27689848,77.7652685 C10.2041026,63.518567 19.1802085,60.610436 23.1065711,58.8659063 C27.0337752,57.1213767 46.3878987,50.2889262 50.8755309,48.3987283 L87.5154112,46 C87.5154112,46 95.5793489,49.4890593 108.236946,52.6510194 C115.255761,54.405144 124.645876,55.8129794 130.11552,61.6283691 C134.620823,66.4179753 144,80.0915988 144,80.0915988 L112.934949,160.920892 L116.79231,209.913391 C116.79231,209.913391 85.6574154,212.384517 61.9553459,211.948385 C38.2532765,211.512253 25.9120775,209.767723 25.9120775,209.767723 L28.0157866,161.212229 L32.082677,126.612099 Z" id="Fill-35" fill="#E9EEFB"></path>
                        <path d="M133,78 L124.984074,81.5962258 C122.26404,82.8164516 120.181894,85.1941935 119.268231,88.1215161 L114,105 L133,78 Z" id="Fill-37" fill="#D8DDEA"></path>
                        <path d="M110,112.555275 C110.211053,111.459136 120.039392,89.5784438 123.92953,84.2748839 C127.306386,79.6710993 130.479786,76.5799868 138.703274,76.1634539 C143.62082,75.9144111 153.26512,76.024025 153.26512,76.024025 L154.743338,80.9864663 C154.743338,80.9864663 153.160437,84.6037257 166.596102,77.1947016 C168.457594,76.1678385 198.72013,81.5424281 202.441425,83.3979726 C207.717762,86.0287066 213.205153,91.0709469 212.994099,100.059288 C212.783046,109.04763 211.347882,129.980381 206.873548,146.974046 C200.119837,172.623703 191.150064,181.392816 191.150064,181.392816 C191.150064,181.392816 177.748168,187.750424 147.56752,183.585095 C132.386865,181.490154 127.939546,178.98131 127.939546,178.98131 C127.939546,178.98131 126.526332,178.399041 126.462172,177.00826 C126.423338,176.170809 127.517439,173.719842 128.150599,168.89683 C128.792202,164.011557 127.802783,158.808841 126.884279,152.235514 C124.984797,138.643388 110,112.555275 110,112.555275" id="Fill-39" fill="#FFEDA6"></path>
                        <path d="M144,92.6759628 C144,92.6759628 150.919,87.6657813 153.19105,86.5343072 C154.4125,85.9251881 155.56085,86.1562638 156.2723,87.3089863 C157.22855,88.8583444 161,95 161,95 L156.43125,81.830456 C156.43125,81.830456 155.90425,81.8791501 155.52855,81.7197875 C155.152,81.560425 155.15625,81 155.15625,81 L144,92.6759628 Z" id="Fill-41" fill="#F9CC8E"></path>
                        <path d="M57.9297462,26.1633539 C57.9297462,26.1633539 58.4400154,37.3762355 57.2283366,41.1446992 C56.1050708,44.6356337 54,45.6541138 54,45.6541138 L77.8580306,65 C77.8580306,65 87.2601189,56.9996509 85.8572997,45.217747 L78.2790448,25 L57.9297462,26.1633539 Z" id="Fill-43" fill="#FFAEAE"></path>
                        <path d="M126,104 L129.2016,94.3231105 C129.3568,93.8542472 129.8336,93.8905128 129.8664,94.4655827 L130,100.977861 L126,104 Z" id="Fill-45" fill="#F9CC8E"></path>
                    </g>
                    <g id="Group-50" transform="translate(144.000000, 29.000000)">
                        <mask id="mask-2" fill="white">
                            <use xlink:href="#path-1"></use>
                        </mask>
                        <g id="Clip-49"></g>
                        <path d="M1,26.7727725 C1,41.1018377 2.81082073,52 13.9465617,52 C25.0823027,52 38,41.1018377 38,26.7727725 C38,12.4428448 25.6833628,7.63833441e-14 14.5476218,7.63833441e-14 C3.41272973,7.63833441e-14 1,12.4428448 1,26.7727725" id="Fill-48" fill="url(#radialGradient-3)" mask="url(#mask-2)"></path>
                    </g>
                    <g id="Group-69" transform="translate(25.000000, 5.000000)">
                        <path d="M1,217 L6.80798141,214.245161 C8.84985648,213.085641 10.4684881,210.983196 10.8908867,208.229227 C10.8908867,208.229227 11.5717934,203.986063 11.9468834,201.342566 C13.0223103,193.769587 17.7835879,187.867604 25.1823226,187.062116 L76.9447426,181.692486 C80.560475,181.377597 84.1027101,182.862444 86.4757457,185.687741 L89,188.693098 L87.8730404,173 L2.72507608,173.942056 L1,217 Z" id="Fill-51" fill="#D8DDEA"></path>
                        <path d="M131.252925,95.8179937 C130.247624,96.1135144 129.727292,97.2446155 130.144905,98.2296845 C130.144905,98.2296845 130.958239,100.981829 132.776033,104.998145 C135.056905,110.039279 136.015899,111.670691 136.015899,111.670691 C136.701255,113.178538 138.810367,113.387649 139.792936,112.379249 L160,89.6250208 L155.228607,83 C155.228607,83 148.150241,88.7099435 140.950632,92.2173075 C136.81071,94.2332424 133.191961,95.2494188 131.252925,95.8179937" id="Fill-53" fill="#FFFFFF"></path>
                        <path d="M129.381186,97.7755931 C129.381186,97.7755931 127.499263,99.898859 123.881317,103.412745 C121.017182,106.193987 118.610718,107.901735 118.610718,107.901735 C118.344106,108.161763 117.860381,107.859569 118.038413,107.531899 C118.525611,106.633222 119.255974,105.260171 119.791805,103.815085 C122.252981,97.1896526 126.529209,88.1044992 133,82 C133,82 132.709939,84.4518143 131.769412,87.8558917 C131.137183,90.1425533 130.64738,92.6145724 130.503218,95.2868831 C130.448506,96.2883407 129.851883,97.2265484 129.381186,97.7755931" id="Fill-55" fill="#FFFFFF"></path>
                        <path d="M48,76.4050652 L53.5704595,110.335593 C53.6946129,111.317332 54.5028435,112.036867 55.4360496,111.998538 L59.8554178,111.517686 C60.9045553,111.475002 61.0837967,110.570792 60.970332,109.464485 L55.5577364,76 L48,76.4050652 Z" id="Fill-57" fill="#FFFFFF"></path>
                        <path d="M106,175.27028 C106,175.27028 112.944774,177.732002 119.568981,185.014412 C127.625564,193.872713 129.074053,199.298423 129.074053,199.298423 C129.074053,199.298423 135.717765,200 142.325011,200 C148.085044,200 156,199.11417 156,199.11417 L117.144374,174 L106,175.27028 Z" id="Fill-59" fill="#F9CC8E"></path>
                        <path d="M58,80.462812 L57.2634561,76 L48,76.427025 L49.1005237,83 C51.2097176,78.292919 54.6469225,77.9381049 58,80.462812" id="Fill-61" fill="#E9EEFB"></path>
                        <path d="M130.384866,174 C130.384866,174 119.997668,160.517534 120.839896,151.137931 C121.682124,141.758328 136,123 136,123 C136,123 114.663838,138.534776 112.698078,146.154879 C110.73316,153.775862 113.540306,163.448276 113.540306,163.448276 L130.384866,174 Z" id="Fill-63" fill="#F9CC8E"></path>
                        <path d="M54.0063769,74.0811346 C55.4917723,72.5381052 59.2014432,68.8043442 59.7850823,61.762455 L63.3200009,60 C63.3200009,60 67.1297727,66.1562555 66.9965876,73.5118616 C66.9202395,77.7161981 66.1423369,80.7634829 65.4433273,82.677509 C64.9733621,83.96322 63.4497927,84.4152897 62.4080648,83.5675488 L53.105469,76.1194138 C52.8221326,75.8885322 53.105469,75.0169982 54.0063769,74.0811346" id="Fill-65" fill="#FFFFFF"></path>
                        <path d="M71.1845407,29 C71.1845407,29 73.2498718,26.6418353 72.9747697,19.2737866 C72.7318867,12.7793286 72.0561104,9.65632993 70.0833062,7.04263113 C67.1918428,3.21050305 63.3362829,1 60.1697174,1 C57.0023258,1 61.2709519,14.5583415 61.2709519,14.5583415 L71.1845407,29 Z" id="Fill-67" fill="#423748"></path>
                    </g>
                    <g id="Group-72" transform="translate(58.000000, 7.000000)">
                        <mask id="mask-5" fill="white">
                            <use xlink:href="#path-4"></use>
                        </mask>
                        <g id="Clip-71"></g>
                        <path d="M1,30.5 C1,46.7918088 10.0748427,60 24.5374214,60 C34.9530302,60 39,46.7918088 39,30.5 C39,14.2073235 35.8037701,1 25.3881613,1 C14.9725524,1 1,14.2073235 1,30.5" id="Fill-70" fill="url(#radialGradient-6)" mask="url(#mask-5)"></path>
                    </g>
                    <g id="Group-165" transform="translate(0.000000, 0.000000)">
                        <g id="Group-75" transform="translate(47.000000, 0.000000)">
                            <mask id="mask-8" fill="white">
                                <use xlink:href="#path-7"></use>
                            </mask>
                            <g id="Clip-74"></g>
                            <path d="M5.90578367,40.098131 C5.90578367,40.098131 0.61260589,34.2468339 0.0551213521,23.8615934 C-0.383678322,15.6783785 1.77605188,10.3308529 7.29907711,6.16201221 C11.756446,2.79797716 15.64045,1.96947492 18.5824973,1.48150115 C29.1688529,-0.273800209 34.4628665,3.2368025 36.8307131,4.55327852 C39.1985597,5.86975454 42.6813754,6.16201221 44.6313176,8.94153191 C46.5820955,11.7210516 47,17.571471 47,17.571471 C47,17.571471 46.5820955,23.5693358 41.427662,24.7392441 C32.2688681,26.8192762 21.9257329,25.0315018 20.5324395,25.0315018 C19.139146,25.0315018 17.3287839,25.6168948 17.1892039,28.1032792 C17.0496238,30.5905412 16.7712994,37.3186113 16.7712994,39.2204803 C16.7712994,41.3803786 14.2638727,42 14.2638727,42 L5.90578367,40.098131 Z" id="Fill-73" fill="#423748" mask="url(#mask-8)"></path>
                        </g>
                        <path d="M60.1062851,37.561878 C61.9219991,41.7835938 63.0083514,45.4593221 60.6462232,46.6613751 C58.284095,47.8634281 53.8666401,45.7948402 52.0517355,41.5731244 C50.2360215,37.3514087 50.8633859,32.4524923 53.2255141,31.2504393 C55.5876423,30.0483863 58.2913805,33.3401622 60.1062851,37.561878" id="Fill-76" fill="#FFAEAE"></path>
                        <path d="M57.24781,61.2753165 C58.2604501,63.1107863 63.7527641,73.5837612 75.7491791,77.7945449 C77.168752,78.2929289 78.1157027,79.1350857 77.9885895,79.4676296 C77.3470517,81.1502156 74.9054545,85.5527519 71.2490305,89.2832903 C70.4880575,90.0606658 69.3013833,90.2221871 68.357845,89.6866618 C60.0545378,84.9740391 52.7860514,76.1007302 51.009879,67.1056324 C50.9561331,66.8352785 51.1224893,66.359352 51.4893261,66.0259443 C51.4893261,66.0259443 52.0225191,65.3237151 53.7287365,63.5970779 C55.5987509,61.702873 56.4305319,61.1327977 56.4305319,61.1327977 C56.6873176,60.9090863 57.0823069,60.9755951 57.24781,61.2753165" id="Fill-78" fill="#FFFFFF"></path>
                        <path d="M126,170.999871 L127.900113,178.288261 C128.162568,179.298847 129.048459,180 130.057713,180 L140.748847,180 C141.584235,180 142.1315,179.28599 141.972536,178.342262 L138.268352,160 L126,170.999871 Z" id="Fill-80" fill="#FFC0D2"></path>
                        <path d="M141,149.5 C141,164.135852 130.592498,176 115.680934,176 C100.76937,176 87,165.967078 87,149.5 C87,132.596708 100.76937,123 115.680934,123 C130.592498,123 141,134.864148 141,149.5" id="Fill-82" fill="#FFCFDF"></path>
                        <path d="M92.1646418,137 L90.032918,118.92371 C89.5929718,115.194496 93.6549174,112.6613 96.7143902,114.758181 L112,125.236595 L92.1646418,137 Z" id="Fill-84" fill="#FFCFDF"></path>
                        <path d="M29.6955981,118.635111 L28,115 L30.3284009,116.861177 C31.4973887,117.79529 32.3155931,119.106574 32.6480975,120.577362 L42,162 L31.481721,158.456538 L31.6706043,127.682791 C31.6897538,124.555274 31.0151704,121.463007 29.6955981,118.635111" id="Fill-86" fill="#D8DDEA"></path>
                        <path d="M139.914162,141 L141.988832,118.504759 C142.232465,114.649415 138.438878,112.775106 135.593687,114.869922 L122,124.241469 L139.914162,141 Z" id="Fill-88" fill="#FFCFDF"></path>
                        <path d="M111,138 C111,139.104177 110.104392,140 109.00048,140 C107.895608,140 107,139.104177 107,138 C107,136.894863 107.895608,136 109.00048,136 C110.104392,136 111,136.894863 111,138" id="Fill-90" fill="#2474CD"></path>
                        <path d="M133,137 C133,138.105137 132.104177,139 131,139 C129.895823,139 129,138.105137 129,137 C129,135.895823 129.895823,135 131,135 C132.104177,135 133,135.895823 133,137" id="Fill-92" fill="#2474CD"></path>
                        <path d="M27.0342434,192 C27.0342434,192 21.8645865,194.430383 22.0027197,199.217796 C22.1970988,205.991937 22.6917316,211.958307 24.7595943,214.167747 C26.5520178,216.082889 29.7911181,218.071384 31.5148885,217.998031 C33.0302183,217.932631 33.9963238,216.672367 33.9963238,212.032544 C33.9963238,208.939329 34.2031101,203.857619 31.5148885,199.217796 C28.8266669,194.577974 27.0342434,192 27.0342434,192" id="Fill-94" fill="#FFAEAE"></path>
                        <path d="M2.07457692,143 C2.07457692,143 1.65391648,163.846658 2.81073269,173.761394 C3.46780429,179.394707 5.65019064,180.407536 8.80514392,181.714973 C11.9600972,183.022411 14.8348906,183.567177 23.0377692,184.656708 C30.4843002,185.645131 40.491812,184.358612 54.516631,182.586598 C66.0149634,181.133599 71.5769357,180.237569 79.4760974,180.552225 C86.7678254,180.843348 90.9744298,182.586598 101.175445,183.67613 C104.146991,183.993401 111.240167,180.955788 112.743607,180.080676 C114.426249,179.100098 120,173.870347 120,173.870347 C120,173.870347 101.56077,169.948034 97.1791713,169.076409 C92.7967308,168.204784 97.22292,163.982632 98.4933145,160.033298 C99.7552958,156.110985 99.5887143,151.285668 97.4946666,150.990188 C95.1810342,150.663328 95.6016946,155.23936 93.2880622,157.527376 C91.6702022,159.125936 88.5918091,160.214596 86.5574952,161.776548 C83.7180373,163.955611 82.2532976,166.396162 80.7734142,166.243627 C73.0256903,165.444347 63.4834289,164.285957 56.9009344,162.53922 C49.4081307,160.550172 37.8450166,158.025074 33.5155793,157.094178 C32.5135662,156.878887 31.7917129,155.970654 31.7790931,154.911629 L31.6613081,145.251408 C31.6613081,145.251408 24.2997505,145.469314 14.7642197,144.74325 C6.69426984,144.127883 2.07457692,143 2.07457692,143" id="Fill-96" fill="#FFAEAE"></path>
                        <path d="M138.414224,325.009866 C138.414224,325.009866 133.479901,339.492991 129.320452,349.367848 C125.801374,357.723294 152.372106,377.383477 154.909903,372.116887 C157.447699,366.850296 154.768632,361.583705 154.69842,356.170528 C154.273762,323.549265 138.414224,325.009866 138.414224,325.009866" id="Fill-98" fill="#2B2B51"></path>
                        <path d="M111,170.999871 L108.998334,178.289118 C108.721065,179.298847 107.789342,180 106.724395,180 L96.3188978,180 C95.4379651,180 94.8609458,179.28599 95.029139,178.342262 L98.9325536,160 L111,170.999871 Z" id="Fill-100" fill="#FFCFDF"></path>
                        <path d="M148.786887,31.1477102 C146.810115,35.5839741 144.552156,43.2745488 153.585685,51.852026 C162.934278,60.7280558 166.572759,58.3588966 168.548685,65.4576192 C170.52461,72.5563418 166.572759,85.2750324 177.300181,97.993723 C183.515072,105.361231 200.613224,109.293194 208.637193,102.473763 C221.341387,91.6750894 202.426536,78.8347014 200.732643,61.3242855 C200.007657,53.8236988 200.518366,37.2947417 193.110127,28.7811775 C184.358631,18.7249456 174.759342,16.654339 164.595986,18.7249456 C155.916481,20.4934977 150.762813,26.7114463 148.786887,31.1477102" id="Fill-102" fill="#423748"></path>
                        <path d="M116.787782,331.983133 C115.362606,332.061439 113.934844,331.866546 112.581229,331.409765 L105.12169,328.925748 C104.462126,328.708234 104.01207,328.093102 104,327.393575 L104.294864,216.072215 L106.163197,216 L118,331.917009 L116.787782,331.983133 Z" id="Fill-104" fill="#23478D"></path>
                        <path d="M189.231877,322.882069 C189.231877,322.882069 186.407346,330.84741 187.113267,345.764068 C187.820035,360.679857 193.469098,362.852143 196.858875,362.997252 C203.406228,363.277043 218.186501,342.1433 222,321 L189.231877,322.882069 Z" id="Fill-106" fill="#2B2B51"></path>
                        <path d="M156,222 L161,189" id="Stroke-108" stroke="#23478D" stroke-width="3"></path>
                        <path d="M154,221 L162,189" id="Stroke-110" stroke="#2474CD" stroke-width="3" stroke-linecap="round"></path>
                        <path d="M192,222 L184,187" id="Stroke-112" stroke="#23478D" stroke-width="3"></path>
                        <path d="M253.976153,319.148263 L116.320496,331.991265 C115.115151,332.10078 114.053539,331.167715 113.956036,329.909611 L105,215.217104 L243.473509,207 L255.984221,316.57423 C256.132158,317.869132 255.222685,319.035244 253.976153,319.148263" id="Fill-114" fill="#2474CD"></path>
                        <path d="M159,221 L161,194" id="Stroke-116" stroke="#E86A46" stroke-width="3" stroke-linecap="round"></path>
                        <path d="M212.32914,117.032192 C209.923521,116.486175 205.05341,122.990642 204.368193,128.585369 C203.633097,134.589827 203.806445,137.628949 206.685502,140.858178 C209.562923,144.087408 212.510665,143.284441 213.921984,140.960611 C215.33412,138.637649 216.348045,130.62968 216.853372,125.825767 C217.295738,121.618219 216.988289,118.090373 212.32914,117.032192" id="Fill-118" fill="#FFAEAE"></path>
                        <path d="M193,216 C193,216 186.097374,192.106626 183,187" id="Stroke-120" stroke="#E86A46" stroke-width="3" stroke-linecap="round"></path>
                        <path d="M112.160051,162 C112.160051,162 109.352067,162 107.584077,160.286716 C105.494937,158.262471 105.712088,155.896426 106.856081,156.003506 C108.000075,156.110587 109.042565,157.886405 111.328056,158.038031 C114.552037,158.252191 121,160.607957 121,160.607957 L112.160051,162 Z" id="Fill-122" fill="#FFAEAE"></path>
                        <path d="M227.472734,308.271878 C226.035286,308.624913 224.574287,308.869255 223.102353,309.002296 L145.975575,315.994308 C145.194189,316.064741 144.50196,315.473451 144.422055,314.666513 L135,220.760852 L147.441621,220 L238,305.68585 L227.472734,308.271878 Z" id="Fill-124" fill="#C5CBD8"></path>
                        <path d="M237.758332,305.631257 L154.152333,312.994257 C153.369142,313.063054 152.663429,312.506584 152.521107,311.708018 L136,219.209399 L219.687686,214 L238.967645,303.931366 C239.144495,304.75954 238.57605,305.559847 237.758332,305.631257" id="Fill-126" fill="#E9EEFB"></path>
                        <path d="M200,224.5 C200,225.8808 198.8808,227 197.5,227 C196.1192,227 195,225.8808 195,224.5 C195,223.1192 196.1192,222 197.5,222 C198.8808,222 200,223.1192 200,224.5" id="Fill-128" fill="#C5CBD8"></path>
                        <path d="M164,226.5 C164,227.8808 162.8808,229 161.5,229 C160.1192,229 159,227.8808 159,226.5 C159,225.1192 160.1192,224 161.5,224 C162.8808,224 164,225.1192 164,226.5" id="Fill-130" fill="#C5CBD8"></path>
                        <path d="M162,227 L163,196" id="Stroke-132" stroke="#FF7E59" stroke-width="3" stroke-linecap="round"></path>
                        <path d="M160,174.803318 C160,174.803318 168.86764,173.076045 172.469729,167.318182 C176.071818,161.561182 183,144 183,144 L173.855532,182 L160,174.803318 Z" id="Fill-134" fill="#F9CC8E"></path>
                        <path d="M193,197.949407 C193,197.949407 188.859354,203.686526 186.893474,205.539639 C184.647114,207.655481 181.559317,209.042688 176.996689,206.998659 C174.314871,205.797989 157.624261,195.687313 140.77867,181.018295 C135.943986,176.80763 132.364298,174.862562 130.229119,173.974539 C128.946328,173.440324 128.189961,173.169713 126.227449,173.957899 C124.117539,174.805637 121.406242,175.654251 118.458263,176.530013 C116.823399,177.015185 105.929356,175.32584 104.350081,174.340607 C101.157842,172.349124 97.8224152,170.180737 95.0850068,168.319742 C93.0298448,166.922025 94.3126365,164.681825 95.5061466,164.597752 L116.984274,160 C116.984274,160 125.294204,161.002748 130.460746,162.627287 C139.515251,165.473514 147.516906,170.509147 156.571411,174.012197 C165.74552,177.560785 172.574722,178.609949 172.574722,178.609949 C172.574722,178.609949 183.734925,182.842508 193,197.949407" id="Fill-136" fill="#FFAEAE"></path>
                        <path d="M197,212 L187,186" id="Stroke-138" stroke="#2474CD" stroke-width="3" stroke-linecap="round"></path>
                        <path d="M132.989049,152.013308 C133.245092,157.805697 128.980233,162.719644 123.463886,162.988501 C117.946693,163.257357 113.266925,158.779081 113.010881,152.986692 C112.755682,147.193416 117.020542,142.279468 122.536889,142.011499 C128.053236,141.742643 132.733005,146.220919 132.989049,152.013308" id="Fill-140" fill="#FFC0D2"></path>
                        <path d="M119.99341,152.452931 C120.056269,153.833363 119.662406,154.973579 119.113385,154.999549 C118.564364,155.025518 118.068654,153.927502 118.006591,152.547069 C117.943732,151.166637 118.337594,150.026421 118.88582,150.000451 C119.434841,149.974482 119.930551,151.072498 119.99341,152.452931" id="Fill-142" fill="#FFCFDF"></path>
                        <path d="M128.993567,152.452931 C129.055615,153.833363 128.661848,154.973579 128.113755,154.999549 C127.564867,155.025518 127.069277,153.927502 127.006433,152.547069 C126.944385,151.166637 127.338152,150.026421 127.886245,150.000451 C128.435133,149.974482 128.930723,151.072498 128.993567,152.452931" id="Fill-144" fill="#FFCFDF"></path>
                        <path d="M182,183 C192.009198,195.02436 198,224 198,224" id="Stroke-146" stroke="#FF7E59" stroke-width="3" stroke-linecap="round"></path>
                        <path d="M171,178.97372 C171,178.97372 177.43847,178.543233 193.63849,201 L199.318467,193.14448 C200.092745,192.032102 200.221514,190.566726 199.631667,189.339839 C197.679357,185.276906 187.719252,172.408799 176.815392,170.077283 C175.506098,169.796606 174.071358,170.271002 173.492311,171.655447 C172.592587,173.80788 171,178.97372 171,178.97372" id="Fill-148" fill="#FFFFFF"></path>
                        <path d="M91.1901828,367.974595 C92.3010231,368.14467 93.5721213,367.440821 92.968202,366.461363 C91.0349857,363.323261 89.1051431,355.839086 90.4023887,345.007485 C92.3710305,328.581722 102,299 102,299 C102,299 82.2494788,335.123071 83.0220906,356.999957 C83.2894682,364.561756 87.8720008,367.466115 91.1901828,367.974595" id="Fill-150" fill="#2B2B51"></path>
                        <g id="Group-154" transform="translate(0.000000, 136.000000)">
                            <mask id="mask-10" fill="white">
                                <use xlink:href="#path-9"></use>
                            </mask>
                            <g id="Clip-153"></g>
                            <path d="M1.26812757,0.0111720076 C0.813064022,-0.065305113 0.3977551,0.260129442 0.375763182,0.703534024 L0.000208881654,4.90245338 C-0.0124787636,5.66397024 0.554236059,6.26521058 1.31549477,6.47430228 C3.5358327,7.08449207 8.24125741,7.74512422 15.8005565,8.40656995 C23.5239491,9.08184665 29.6402399,9.03303147 31.9333203,8.95899511 C32.4974976,8.94109621 32.9381819,8.49199652 32.9288776,7.94852081 L32.9999284,3.55840866 C33.0066951,2.98971178 32.533023,2.52434036 31.9409329,2.52596753 C29.5336637,2.53247623 23.1644658,2.46088062 16.5059895,1.93123588 C9.65973615,1.38776018 3.45632345,0.380540228 1.26812757,0.0111720076" id="Fill-152" fill="#FFFFFF" mask="url(#mask-10)"></path>
                        </g>
                        <path d="M194.45098,198 L181,179 C181,179 191.088235,182.859138 193.610294,187.906389 C196.132353,192.952749 194.45098,198 194.45098,198" id="Fill-155" fill="#E9EEFB"></path>
                        <path d="M177,141 L190,129 L186.596756,136.626843 C185.528088,139.021968 183.315087,140.607283 180.822379,140.762564 L177,141 Z" id="Fill-157" fill="#F9CC8E"></path>
                        <path d="M154.910234,107.884724 C154.681804,108.685731 154.08966,109.161835 153.586967,108.949433 C153.083534,108.737031 152.861758,107.916224 153.089448,107.115217 C153.317878,106.315111 153.910021,105.838107 154.412715,106.050508 C154.916148,106.26291 155.138663,107.084617 154.910234,107.884724" id="Fill-159" fill="#FFFFFF"></path>
                        <path d="M151.910249,114.884724 C151.681857,115.685731 151.089812,116.161835 150.586462,115.949433 C150.083852,115.737031 149.861374,114.916224 150.089765,114.115217 C150.318157,113.315111 150.910202,112.838107 151.412812,113.050508 C151.916162,113.26291 152.13864,114.084617 151.910249,114.884724" id="Fill-161" fill="#FFFFFF"></path>
                        <path d="M149.910234,121.884722 C149.681804,122.68573 149.08966,123.161835 148.586967,122.949433 C148.083534,122.737031 147.861758,121.916223 148.089448,121.116115 C148.317878,120.315107 148.910021,119.838103 149.412715,120.050505 C149.916148,120.262907 150.138663,121.084615 149.910234,121.884722" id="Fill-163" fill="#FFFFFF"></path>
                    </g>
                </g>
            </g>
        </g>
    </g>
</svg>