<?xml version="1.0" encoding="UTF-8"?>
<svg width="305px" height="564px" viewBox="0 0 305 564" version="1.1" xmlns="http://www.w3.org/2000/svg" xmlns:xlink="http://www.w3.org/1999/xlink">
    <!-- Generator: Sketch 51.3 (57544) - http://www.bohemiancoding.com/sketch -->
    <title>Вклад накопительный</title>
    <desc>Created with Sketch.</desc>
    <defs>
        <path d="M0.93,31.586 C0.93,48.2 3.063,60.836 16.18,60.836 C29.297,60.836 44.513,48.2 44.513,31.586 C44.513,14.971 30.005,0.544 16.888,0.544 C3.772,0.544 0.93,14.971 0.93,31.586" id="path-1"></path>
        <radialGradient cx="-50.000586%" cy="190.807711%" fx="-50.000586%" fy="190.807711%" r="238.441293%" gradientTransform="translate(-0.500006,1.908077),scale(1.000000,0.722865),rotate(-60.597179),translate(0.500006,-1.908077)" id="radialGradient-3">
            <stop stop-color="#FFE8E8" offset="0%"></stop>
            <stop stop-color="#FDACAC" offset="100%"></stop>
        </radialGradient>
        <path d="M0.846,34.586 C0.846,53.363 11.513,68.586 28.513,68.586 C40.756,68.586 45.513,53.363 45.513,34.586 C45.513,15.808 41.756,0.586 29.513,0.586 C17.27,0.586 0.846,15.808 0.846,34.586" id="path-4"></path>
        <radialGradient cx="142.537544%" cy="142.646743%" fx="142.537544%" fy="142.646743%" r="182.262432%" gradientTransform="translate(1.425375,1.426467),scale(1.000000,0.656868),rotate(-120.239553),translate(-1.425375,-1.426467)" id="radialGradient-6">
            <stop stop-color="#FFE8E8" offset="0%"></stop>
            <stop stop-color="#FDACAC" offset="100%"></stop>
        </radialGradient>
        <polygon id="path-7" points="0.113950293 0.704 56.3469 0.704 56.3469 47.4193 0.113950293 47.4193"></polygon>
        <polygon id="path-9" points="0 0.378168198 39.0138847 0.378168198 39.0138847 11.4403002 0 11.4403002"></polygon>
    </defs>
    <g id="Частным" stroke="none" stroke-width="1" fill="none" fill-rule="evenodd">
        <g id="-Мобильный-банк.png-БКС-Платинум.png-Доходный-фунт.png-Кредит-Онлайн.png-Рефенансирование.png-Цифровой-Signature.png-Цифровой-Visa-Platinum.png-More-Signature.png-more-visa-platinum.png" transform="translate(-3783.000000, -6289.000000)">
            <g id="Вклад-накопительный" transform="translate(3552.000000, 6187.000000)">
                <rect id="Rectangle-8-Copy-6" fill-rule="nonzero" x="0" y="0" width="767" height="767"></rect>
                <g id="Group-166" transform="translate(231.000000, 101.000000)">
                    <g id="Group-47" transform="translate(0.000000, 22.296000)">
                        <path d="M143.3469,183.4608 C143.3469,185.7848 141.4619,187.6688 139.1379,187.6688 C136.8139,187.6688 134.9299,185.7848 134.9299,183.4608 C134.9299,181.1368 136.8139,179.2528 139.1379,179.2528 C141.4619,179.2528 143.3469,181.1368 143.3469,183.4608" id="Fill-1" fill="#D8DDEA"></path>
                        <path d="M115.4299,200.5858 C115.4299,200.5858 129.4299,198.3358 133.6799,193.3358 C137.9299,188.3358 145.9299,174.5858 145.9299,174.5858 L129.4299,170.5858 L112.6799,181.5858 L115.4299,200.5858 Z" id="Fill-3" fill="#E09595"></path>
                        <path d="M118.6702,157.4818 C118.6702,157.4818 125.8672,157.7738 138.6492,177.9608 C140.1912,180.3968 141.3672,184.4918 141.7632,186.8358 L150.4552,178.0378 C151.5402,176.8708 151.9042,175.2018 151.3772,173.6988 C149.6302,168.7258 139.5852,152.4088 126.8972,148.0948 C125.3732,147.5768 123.5912,147.9098 122.7002,149.4188 C121.3162,151.7658 118.6702,157.4818 118.6702,157.4818" id="Fill-5" fill="#D8DDEA"></path>
                        <path d="M126.0964,506.8358 C126.0964,506.8358 127.3154,510.3568 125.7634,514.6688 C124.2634,518.8358 124.3464,525.0858 125.5964,528.6688 L183.0964,527.6688 C183.0964,527.6688 158.0964,516.8358 150.4294,513.3358 C147.4434,511.9728 145.4294,509.6688 145.4294,506.5028 L126.0964,506.8358 Z" id="Fill-7" fill="#E09595"></path>
                        <path d="M149.8215,512.867 C134.9295,522.961 134.3865,519.523 125.8365,514.443 C125.8105,514.518 122.8885,521.128 125.5965,528.669 C131.8045,528.586 183.0965,527.669 183.0965,527.669 C183.0965,527.669 150.5085,513.434 149.8215,512.867" id="Fill-9" fill="#2B2B51"></path>
                        <path d="M14.1799,507.2528 C14.1799,507.2528 14.2219,512.0028 13.5549,514.8358 C12.8879,517.6688 11.2969,523.2598 12.0129,527.9188 C12.2489,529.4508 14.3649,530.7918 15.9299,532.3358 C18.7929,535.1588 22.1909,537.6838 25.5129,538.0858 C31.0129,538.7528 40.6799,538.7528 47.6799,538.4188 C54.6799,538.0858 56.2629,535.2858 55.5129,533.2528 C54.3469,530.0858 45.6539,528.2758 43.0129,525.4188 C39.4669,521.5808 37.4439,518.4588 35.1799,515.0858 C34.0569,513.4138 34.3469,508.4188 34.3469,508.4188 L14.1799,507.2528 Z" id="Fill-11" fill="#FFAEAE"></path>
                        <path d="M55.8049,534.2108 C56.1589,530.8548 47.2729,526.4458 44.1799,524.0858 C39.4299,520.4608 37.4439,518.4588 35.1799,515.0858 C35.1389,515.0248 35.1049,514.9518 35.0679,514.8838 C31.3179,512.0118 27.7809,511.5468 22.6799,514.4608 C18.3159,517.0788 15.7719,518.2578 13.3049,515.2108 C12.6019,518.3138 11.3799,523.8048 12.0129,527.9188 C12.2489,529.4508 14.1149,531.0418 15.6799,532.5858 C18.5429,535.4088 22.2179,537.4988 25.5129,538.0858 C33.9299,539.5858 42.3049,539.7108 48.8049,538.5858 C54.2239,537.6488 55.5549,536.5858 55.8049,534.2108" id="Fill-13" fill="#42426C"></path>
                        <path d="M81.8464,274.5858 C81.8464,274.5858 96.1794,336.9188 103.5134,366.5858 C108.4074,386.3858 105.8614,392.7658 107.5134,413.2528 C109.1794,433.9188 120.1794,479.2528 125.8464,507.9188 C125.8464,507.9188 137.6334,509.4498 149.9104,506.9378 C150.8454,506.7458 151.5034,505.9068 151.4914,504.9528 C151.3304,491.4928 150.5134,408.5618 150.5134,396.9188 C150.5134,386.9138 149.8464,369.2528 148.8464,360.2528 C147.8464,351.2528 138.3464,240.2528 138.3464,240.2528 L93.1794,241.2528 L81.8464,274.5858 Z" id="Fill-15" fill="#2B2B51"></path>
                        <path d="M30.3464,240.0858 C30.3464,240.0858 25.8034,337.5148 24.8464,350.5858 C22.8464,377.9188 16.5134,392.9188 15.1794,418.5858 C13.8464,444.2528 13.8464,507.9188 13.8464,507.9188 C13.8464,507.9188 23.4954,510.4088 38.2814,509.3738 C39.2034,509.3098 39.9674,508.6378 40.1584,507.7328 C43.1624,493.4498 63.2874,403.3568 65.5134,398.5858 C67.8464,393.5858 72.8464,377.5858 74.5134,367.9188 C76.1794,358.2528 91.8464,274.5858 91.8464,274.5858 L125.1794,239.2528 L30.3464,240.0858 Z" id="Fill-17" fill="#42426C"></path>
                        <path d="M116.6799,405.5858 C116.6799,405.5858 143.1799,438.3358 164.9299,488.0858 C164.9299,488.0858 168.6799,496.5858 168.9299,500.3358 C169.2459,505.0818 165.9969,509.8658 160.4299,512.8358 C152.9299,516.8358 134.4299,525.3358 128.6799,527.0858 C122.9299,528.8358 120.1799,526.8358 118.1799,529.3358 C116.1799,531.8358 119.1759,535.8358 125.9299,535.8358 L185.6799,535.8358 C189.1799,535.8358 193.1799,533.5858 193.6799,528.8358 C194.1799,524.0858 189.9569,510.3758 188.9299,504.0858 C186.9299,491.8358 184.6799,476.3358 183.1799,463.5858 C181.8949,452.6578 178.9299,429.3358 173.1799,419.3358 C167.4299,409.3358 163.4299,405.0858 163.4299,405.0858 L116.6799,405.5858 Z" id="Fill-19" fill="#FFAEAE"></path>
                        <path d="M162.2805,511.7215 C161.6955,512.1155 161.0805,512.4895 160.4295,512.8355 C152.9295,516.8355 134.4295,525.3355 128.6795,527.0855 C122.9295,528.8355 120.1795,526.8355 118.1795,529.3355 C116.1795,531.8355 119.1755,535.8355 125.9295,535.8355 L185.6795,535.8355 C189.1795,535.8355 193.1795,533.5855 193.6795,528.8355 C193.9505,526.2625 192.8345,521.0585 191.5925,515.8295 C182.6315,522.7645 169.5705,522.0885 162.2805,511.7215" id="Fill-21" fill="#D8DDEA"></path>
                        <path d="M187.9299,406.8358 C187.6799,407.5978 188.9299,415.4638 192.1799,445.6598 C195.4299,475.8568 195.6799,490.3208 195.4299,506.3078 C195.2829,515.7498 190.1799,519.2488 185.6799,526.1008 C178.8129,536.5558 173.9299,533.2058 173.4299,537.2658 C172.9299,541.3258 177.4329,541.6668 182.1799,541.8328 C189.4299,542.0868 198.4299,542.0868 204.1799,541.5798 C209.9299,541.0718 213.1799,540.3108 213.1799,536.5048 C213.1799,532.6978 211.9299,526.8618 211.4299,521.2788 C211.0169,516.6678 209.9689,512.6928 211.1799,506.3928 C215.1799,485.5858 218.7629,474.4738 223.5129,453.9188 C228.0279,434.3838 226.6799,422.3148 225.6799,412.9258 L187.9299,406.8358 Z" id="Fill-23" fill="#FFAEAE"></path>
                        <path d="M188.0364,522.8065 C187.2524,523.8375 186.4574,524.9165 185.6804,526.1005 C178.8124,536.5555 173.9304,533.2055 173.4304,537.2655 C172.9304,541.3265 177.4324,541.6665 182.1804,541.8335 C189.4304,542.0865 198.4304,542.0865 204.1804,541.5795 C209.9304,541.0725 213.1804,540.3105 213.1804,536.5045 C213.1804,533.3525 212.3274,528.8075 211.7484,524.1685 C203.8204,525.3775 196.1894,524.9235 188.0364,522.8065" id="Fill-25" fill="#E9EEFB"></path>
                        <path d="M152.1799,204.9608 C152.1799,204.9608 150.1799,226.6278 146.8469,244.6278 C143.0439,265.1588 107.8359,332.2908 101.1799,364.4608 C94.7179,395.6928 99.8009,404.7648 116.1799,407.9608 C136.6799,411.9608 154.5129,407.2938 175.1799,410.2938 C191.1819,412.6168 207.5679,418.8188 235.1799,416.9608 C269.8469,414.6278 269.8469,397.2938 270.8469,391.2938 C271.8469,385.2938 264.9969,329.0018 250.6799,264.9608 C238.3469,209.7938 226.8469,207.6278 226.8469,207.6278 L152.1799,204.9608 Z" id="Fill-27" fill="#42426C"></path>
                        <path d="M250.6799,264.9608 C238.3469,209.7938 226.8469,207.6278 226.8469,207.6278 L152.2219,204.4188 C152.2219,204.4188 150.3519,224.7488 147.2809,242.2148 C148.8309,243.0358 251.1879,267.2318 250.6799,264.9608" id="Fill-29" fill="#2B2B51"></path>
                        <path d="M181.1799,91.5858 C181.1799,91.5858 171.7779,89.1078 172.5549,80.0858 C173.3049,71.3778 184.0549,68.0858 184.0549,68.0858 L179.8049,51.2108 C179.8049,51.2108 163.1799,51.9188 160.8469,37.2528 C157.6229,16.9948 183.0129,1.0028 193.5129,0.2528 L208.1799,63.2528 L181.1799,91.5858 Z" id="Fill-31" fill="#423748"></path>
                        <path d="M182.1799,87.5858 C182.1799,87.5858 188.5129,82.5858 187.1799,68.7528 L217.6799,60.0858 C217.6799,60.0858 215.9299,72.8358 218.4299,78.8358 C218.4299,78.8358 198.9299,99.8358 183.9299,101.3358 L182.1799,87.5858 Z" id="Fill-33" fill="#FFAEAE"></path>
                        <path d="M37.7214,144.6273 C37.7214,144.6273 22.3314,146.9123 1.8884,141.9603 C1.2024,141.7943 0.7354,141.1513 0.7874,140.4473 C1.2674,133.9603 2.8934,103.1913 7.0544,88.6273 C11.7214,72.2943 22.3884,68.9603 27.0544,66.9603 C31.7214,64.9603 54.7214,57.1273 60.0544,54.9603 L103.5964,52.2103 C103.5964,52.2103 113.1794,56.2103 128.2214,59.8353 C136.5624,61.8463 147.7214,63.4603 154.2214,70.1273 C159.5754,75.6183 170.7214,91.2943 170.7214,91.2943 L133.8044,183.9603 L138.3884,240.1273 C138.3884,240.1273 101.3884,242.9603 73.2214,242.4603 C45.0544,241.9603 30.3884,239.9603 30.3884,239.9603 L32.8884,184.2943 L37.7214,144.6273 Z" id="Fill-35" fill="#E9EEFB"></path>
                        <path d="M157.8469,88.9193 L148.2839,93.0483 C145.0389,94.4493 142.5549,97.1793 141.4649,100.5403 L135.1799,119.9193 L157.8469,88.9193 Z" id="Fill-37" fill="#D8DDEA"></path>
                        <path d="M130.9299,128.8358 C131.1799,127.5858 142.8219,102.6338 147.4299,96.5858 C151.4299,91.3358 155.1889,87.8108 164.9299,87.3358 C170.7549,87.0518 182.1789,87.1768 182.1789,87.1768 L183.9299,92.8358 C183.9299,92.8358 182.0549,96.9608 197.9699,88.5118 C200.1749,87.3408 236.0219,93.4698 240.4299,95.5858 C246.6799,98.5858 253.1799,104.3358 252.9299,114.5858 C252.6799,124.8358 250.9799,148.7068 245.6799,168.0858 C237.6799,197.3358 227.0549,207.3358 227.0549,207.3358 C227.0549,207.3358 211.1799,214.5858 175.4299,209.8358 C157.4479,207.4468 152.1799,204.5858 152.1799,204.5858 C152.1799,204.5858 150.5059,203.9218 150.4299,202.3358 C150.3839,201.3808 151.6799,198.5858 152.4299,193.0858 C153.1899,187.5148 152.0179,181.5818 150.9299,174.0858 C148.6799,158.5858 130.9299,128.8358 130.9299,128.8358" id="Fill-39" fill="#FFEDA6"></path>
                        <path d="M170.6799,106.0858 C170.6799,106.0858 178.8199,100.4268 181.4929,99.1488 C182.9299,98.4608 184.2809,98.7218 185.1179,100.0238 C186.2429,101.7738 190.6799,108.7108 190.6799,108.7108 L185.3049,93.8358 C185.3049,93.8358 184.6849,93.8908 184.2429,93.7108 C183.7999,93.5308 183.8049,92.8978 183.8049,92.8978 L170.6799,106.0858 Z" id="Fill-41" fill="#F9CC8E"></path>
                        <path d="M68.6799,29.9193 C68.6799,29.9193 69.2859,42.7673 67.8469,47.0853 C66.5129,51.0853 64.0129,52.2523 64.0129,52.2523 L92.3469,74.4193 C92.3469,74.4193 103.5129,65.2523 101.8469,51.7523 L92.8469,28.5863 L68.6799,29.9193 Z" id="Fill-43" fill="#FFAEAE"></path>
                        <path d="M149.1799,118.5858 L153.1819,107.3788 C153.3759,106.8358 153.9719,106.8778 154.0129,107.5438 L154.1799,115.0858 L149.1799,118.5858 Z" id="Fill-45" fill="#F9CC8E"></path>
                    </g>
                    <g id="Group-50" transform="translate(171.000000, 33.296000)">
                        <mask id="mask-2" fill="white">
                            <use xlink:href="#path-1"></use>
                        </mask>
                        <g id="Clip-49"></g>
                        <path d="M0.93,31.586 C0.93,48.2 3.063,60.836 16.18,60.836 C29.297,60.836 44.513,48.2 44.513,31.586 C44.513,14.971 30.005,0.544 16.888,0.544 C3.772,0.544 0.93,14.971 0.93,31.586" id="Fill-48" fill="url(#radialGradient-3)" mask="url(#mask-2)"></path>
                    </g>
                    <g id="Group-69" transform="translate(30.000000, 5.296000)">
                        <path d="M0.8049,248.7523 L7.6799,245.5853 C10.0969,244.2523 12.0129,241.8353 12.5129,238.6693 C12.5129,238.6693 13.3189,233.7913 13.7629,230.7523 C15.0359,222.0463 20.6719,215.2613 29.4299,214.3353 L90.7019,208.1623 C94.9819,207.8003 99.1749,209.5073 101.9839,212.7553 L104.9719,216.2103 L103.6379,198.1693 L2.8469,199.2523 L0.8049,248.7523 Z" id="Fill-51" fill="#D8DDEA"></path>
                        <path d="M156.2043,109.5868 C155.0103,109.9288 154.3923,111.2378 154.8883,112.3778 C154.8883,112.3778 155.8543,115.5628 158.0133,120.2108 C160.7223,126.0448 161.8613,127.9328 161.8613,127.9328 C162.6753,129.6778 165.1803,129.9198 166.3473,128.7528 L190.3473,102.4198 L184.6803,94.7528 C184.6803,94.7528 176.2733,101.3608 167.7223,105.4198 C162.8053,107.7528 158.5073,108.9288 156.2043,109.5868" id="Fill-53" fill="#FFFFFF"></path>
                        <path d="M152.9299,111.6273 C152.9299,111.6273 150.7629,114.0443 146.5969,118.0443 C143.2989,121.2103 140.5279,123.1543 140.5279,123.1543 C140.2209,123.4503 139.6639,123.1063 139.8689,122.7333 C140.4299,121.7103 141.2709,120.1473 141.8879,118.5023 C144.7219,110.9603 149.6459,100.6183 157.0969,93.6693 C157.0969,93.6693 156.7629,96.4603 155.6799,100.3353 C154.9519,102.9383 154.3879,105.7523 154.2219,108.7943 C154.1589,109.9343 153.4719,111.0023 152.9299,111.6273" id="Fill-55" fill="#FFFFFF"></path>
                        <path d="M57.238,87.1346 L64.013,126.0856 C64.164,127.2126 65.147,128.0386 66.282,127.9946 L71.657,127.4426 C72.933,127.3936 73.151,126.3556 73.013,125.0856 L66.43,86.6696 L57.238,87.1346 Z" id="Fill-57" fill="#FFFFFF"></path>
                        <path d="M125.6799,200.5858 C125.6799,200.5858 133.8689,203.3648 141.6799,211.5858 C151.1799,221.5858 152.8879,227.7108 152.8879,227.7108 C152.8879,227.7108 160.7219,228.5028 168.5129,228.5028 C175.3049,228.5028 184.6379,227.5028 184.6379,227.5028 L138.8209,199.1518 L125.6799,200.5858 Z" id="Fill-59" fill="#F9CC8E"></path>
                        <path d="M68.0378,91.5916 L67.1798,86.5856 L56.3888,87.0646 L57.6708,94.4376 C60.1278,89.1576 64.1318,88.7596 68.0378,91.5916" id="Fill-61" fill="#E9EEFB"></path>
                        <path d="M154.5129,198.9193 C154.5129,198.9193 142.1799,183.5863 143.1799,172.9193 C144.1799,162.2523 161.1799,140.9193 161.1799,140.9193 C161.1799,140.9193 135.8469,158.5863 133.5129,167.2523 C131.1799,175.9193 134.5129,186.9193 134.5129,186.9193 L154.5129,198.9193 Z" id="Fill-63" fill="#F9CC8E"></path>
                        <path d="M63.8674,84.3983 C65.6184,82.6473 69.9914,78.4103 70.6794,70.4193 L74.8464,68.4193 C74.8464,68.4193 79.3374,75.4053 79.1804,83.7523 C79.0904,88.5233 78.1734,91.9813 77.3494,94.1533 C76.7954,95.6123 74.9994,96.1253 73.7714,95.1633 L62.8054,86.7113 C62.4714,86.4493 62.8054,85.4603 63.8674,84.3983" id="Fill-65" fill="#FFFFFF"></path>
                        <path d="M84.1799,32.4193 C84.1799,32.4193 86.6799,29.7523 86.3469,21.4193 C86.0529,14.0743 85.2349,10.5423 82.8469,7.5863 C79.3469,3.2523 74.6799,0.7523 70.8469,0.7523 C67.0129,0.7523 72.1799,16.0863 72.1799,16.0863 L84.1799,32.4193 Z" id="Fill-67" fill="#423748"></path>
                    </g>
                    <g id="Group-72" transform="translate(69.000000, 8.296000)">
                        <mask id="mask-5" fill="white">
                            <use xlink:href="#path-4"></use>
                        </mask>
                        <g id="Clip-71"></g>
                        <path d="M0.846,34.586 C0.846,53.363 11.513,68.586 28.513,68.586 C40.756,68.586 45.513,53.363 45.513,34.586 C45.513,15.808 41.756,0.586 29.513,0.586 C17.27,0.586 0.846,15.808 0.846,34.586" id="Fill-70" fill="url(#radialGradient-6)" mask="url(#mask-5)"></path>
                    </g>
                    <g id="Group-165" transform="translate(0.000000, 0.296000)">
                        <g id="Group-75" transform="translate(56.000000, 0.000000)">
                            <mask id="mask-8" fill="white">
                                <use xlink:href="#path-7"></use>
                            </mask>
                            <g id="Clip-74"></g>
                            <path d="M7.1799,45.2523 C7.1799,45.2523 0.8469,38.5853 0.1799,26.7523 C-0.3451,17.4283 2.2389,11.3353 8.8469,6.5853 C14.1799,2.7523 18.8269,1.8083 22.3469,1.2523 C35.0129,-0.7477 41.3469,3.2523 44.1799,4.7523 C47.0129,6.2523 51.1799,6.5853 53.5129,9.7523 C55.8469,12.9193 56.3469,19.5853 56.3469,19.5853 C56.3469,19.5853 55.8469,26.4193 49.6799,27.7523 C38.7219,30.1223 26.3469,28.0853 24.6799,28.0853 C23.0129,28.0853 20.8469,28.7523 20.6799,31.5853 C20.5129,34.4193 20.1799,42.0853 20.1799,44.2523 C20.1799,46.7133 17.1799,47.4193 17.1799,47.4193 L7.1799,45.2523 Z" id="Fill-73" fill="#423748" mask="url(#mask-8)"></path>
                        </g>
                        <path d="M72.3464,42.5858 C74.5894,47.3798 75.9314,51.5538 73.0134,52.9188 C70.0954,54.2838 64.6384,51.9348 62.3964,47.1408 C60.1534,42.3468 60.9284,36.7838 63.8464,35.4188 C66.7644,34.0538 70.1044,37.7918 72.3464,42.5858" id="Fill-76" fill="#FFAEAE"></path>
                        <path d="M67.3049,70.7108 C68.4919,72.8358 74.9299,84.9608 88.9919,89.8358 C90.6559,90.4128 91.7659,91.3878 91.6169,91.7728 C90.8649,93.7208 88.0029,98.8178 83.7169,103.1368 C82.8249,104.0368 81.4339,104.2238 80.3279,103.6038 C70.5949,98.1478 62.0749,87.8748 59.9929,77.4608 C59.9299,77.1478 60.1249,76.5968 60.5549,76.2108 C60.5549,76.2108 61.1799,75.3978 63.1799,73.3988 C65.3719,71.2058 66.3469,70.5458 66.3469,70.5458 C66.6479,70.2868 67.1109,70.3638 67.3049,70.7108" id="Fill-78" fill="#FFFFFF"></path>
                        <path d="M149.5285,195.5858 L151.8235,204.0888 C152.1405,205.2678 153.2105,206.0858 154.4295,206.0858 L167.3425,206.0858 C168.3515,206.0858 169.0125,205.2528 168.8205,204.1518 L164.3465,182.7528 L149.5285,195.5858 Z" id="Fill-80" fill="#FFC0D2"></path>
                        <path d="M167.9299,171.4608 C167.9299,188.2368 155.5469,201.8358 137.8049,201.8358 C120.0629,201.8358 103.6799,190.3358 103.6799,171.4608 C103.6799,152.0858 120.0629,141.0858 137.8049,141.0858 C155.5469,141.0858 167.9299,154.6848 167.9299,171.4608" id="Fill-82" fill="#FFCFDF"></path>
                        <path d="M109.6799,157.5858 L107.1409,136.4568 C106.6169,132.0978 111.4549,129.1368 115.0989,131.5878 L133.3049,143.8358 L109.6799,157.5858 Z" id="Fill-84" fill="#FFCFDF"></path>
                        <path d="M35.3777,135.7103 L33.4297,131.5853 L36.1047,133.6973 C37.4477,134.7573 38.3877,136.2453 38.7697,137.9143 L49.5137,184.9193 L37.4297,180.8983 L37.6467,145.9773 C37.6687,142.4283 36.8937,138.9193 35.3777,135.7103" id="Fill-86" fill="#D8DDEA"></path>
                        <path d="M165.9299,160.5858 L168.3909,135.0818 C168.6799,130.7108 164.1799,128.5858 160.8049,130.9608 L144.6799,141.5858 L165.9299,160.5858 Z" id="Fill-88" fill="#FFCFDF"></path>
                        <path d="M130.5964,157.9193 C130.5964,159.0693 129.6634,160.0023 128.5134,160.0023 C127.3624,160.0023 126.4294,159.0693 126.4294,157.9193 C126.4294,156.7683 127.3624,155.8363 128.5134,155.8363 C129.6634,155.8363 130.5964,156.7683 130.5964,157.9193" id="Fill-90" fill="#2474CD"></path>
                        <path d="M157.5129,156.5023 C157.5129,157.6533 156.5799,158.5853 155.4299,158.5853 C154.2799,158.5853 153.3469,157.6533 153.3469,156.5023 C153.3469,155.3523 154.2799,154.4193 155.4299,154.4193 C156.5799,154.4193 157.5129,155.3523 157.5129,156.5023" id="Fill-92" fill="#2474CD"></path>
                        <path d="M32.2634,219.4193 C32.2634,219.4193 26.0134,222.1693 26.1804,227.5863 C26.4154,235.2513 27.0134,242.0023 29.5134,244.5023 C31.6804,246.6693 35.5964,248.9193 37.6804,248.8363 C39.5124,248.7623 40.6804,247.3363 40.6804,242.0863 C40.6804,238.5863 40.9304,232.8363 37.6804,227.5863 C34.4304,222.3363 32.2634,219.4193 32.2634,219.4193" id="Fill-94" fill="#FFAEAE"></path>
                        <path d="M2.5134,164.1693 C2.5134,164.1693 2.0134,188.0863 3.3884,199.4613 C4.1694,205.9243 6.7634,207.0863 10.5134,208.5863 C14.2634,210.0863 17.6804,210.7113 27.4304,211.9613 C36.2814,213.0953 48.1764,211.6193 64.8464,209.5863 C78.5134,207.9193 85.1244,206.8913 94.5134,207.2523 C103.1804,207.5863 108.1804,209.5863 120.3054,210.8363 C123.8374,211.2003 132.2684,207.7153 134.0554,206.7113 C136.0554,205.5863 142.6804,199.5863 142.6804,199.5863 C142.6804,199.5863 120.7634,195.0863 115.5554,194.0863 C110.3464,193.0863 115.6074,188.2423 117.1174,183.7113 C118.6174,179.2113 118.4194,173.6753 115.9304,173.3363 C113.1804,172.9613 113.6804,178.2113 110.9304,180.8363 C109.0074,182.6703 105.3484,183.9193 102.9304,185.7113 C99.5554,188.2113 97.8144,191.0113 96.0554,190.8363 C86.8464,189.9193 75.5044,188.5903 67.6804,186.5863 C58.7744,184.3043 45.0304,181.4073 39.8844,180.3393 C38.6934,180.0923 37.8354,179.0503 37.8204,177.8353 L37.6804,166.7523 C37.6804,166.7523 28.9304,167.0023 17.5964,166.1693 C8.0044,165.4633 2.5134,164.1693 2.5134,164.1693" id="Fill-96" fill="#FFAEAE"></path>
                        <path d="M164.1799,372.0858 C164.1799,372.0858 158.3469,388.5858 153.4299,399.8358 C149.2699,409.3548 180.6799,431.7528 183.6799,425.7528 C186.6799,419.7528 183.5129,413.7528 183.4299,407.5858 C182.9279,370.4218 164.1799,372.0858 164.1799,372.0858" id="Fill-98" fill="#2B2B51"></path>
                        <path d="M131.656,196.4085 L129.252,204.9125 C128.919,206.0905 127.8,206.9085 126.521,206.9085 L114.024,206.9085 C112.966,206.9085 112.273,206.0755 112.475,204.9745 L117.163,183.5755 L131.656,196.4085 Z" id="Fill-100" fill="#FFCFDF"></path>
                        <path d="M176.8469,35.4525 C174.5129,40.5195 171.8469,49.3035 182.5129,59.1005 C193.5509,69.2385 197.8469,66.5325 200.1799,74.6405 C202.5129,82.7485 197.8469,97.2755 210.5129,111.8025 C217.8509,120.2175 238.0389,124.7085 247.5129,116.9195 C262.5129,104.5855 240.1799,89.9195 238.1799,69.9195 C237.3239,61.3525 237.9269,42.4735 229.1799,32.7495 C218.8469,21.2635 207.5129,18.8985 195.5129,21.2635 C185.2649,23.2835 179.1799,30.3855 176.8469,35.4525" id="Fill-102" fill="#423748"></path>
                        <path d="M138.2112,380.0995 C136.5582,380.1895 134.9022,379.9655 133.3322,379.4405 L124.6802,376.5855 C123.9152,376.3355 123.3932,375.6285 123.3792,374.8245 L123.7212,246.8775 L125.8882,246.7945 L139.6172,380.0235 L138.2112,380.0995 Z" id="Fill-104" fill="#23478D"></path>
                        <path d="M224.5129,369.9188 C224.5129,369.9188 221.1799,379.0858 222.0129,396.2528 C222.8469,413.4188 229.5129,415.9188 233.5129,416.0858 C241.2389,416.4078 258.6799,392.0858 263.1799,367.7528 L224.5129,369.9188 Z" id="Fill-106" fill="#2B2B51"></path>
                        <path d="M185.6799,254.0858 L191.8469,216.5858" id="Stroke-108" stroke="#23478D" stroke-width="3"></path>
                        <path d="M182.5129,252.9193 L191.8469,216.5863" id="Stroke-110" stroke="#2474CD" stroke-width="3" stroke-linecap="round"></path>
                        <path d="M228.4299,254.5858 L218.4299,214.5858" id="Stroke-112" stroke="#23478D" stroke-width="3"></path>
                        <path d="M302.136,365.4891 L138.367,380.1481 C136.933,380.2731 135.67,379.2081 135.554,377.7721 L124.899,246.8621 L289.641,237.4831 L304.525,362.5511 C304.701,364.0291 303.619,365.3601 302.136,365.4891" id="Fill-114" fill="#2474CD"></path>
                        <path d="M189.2629,253.1693 L191.5129,221.7523" id="Stroke-116" stroke="#E86A46" stroke-width="3" stroke-linecap="round"></path>
                        <path d="M252.8147,134.0335 C249.8727,133.4045 243.9167,140.8975 243.0787,147.3425 C242.1797,154.2595 242.3917,157.7605 245.9127,161.4805 C249.4317,165.2005 253.0367,164.2755 254.7627,161.5985 C256.4897,158.9225 257.7297,149.6975 258.3477,144.1635 C258.8887,139.3165 258.5127,135.2525 252.8147,134.0335" id="Fill-118" fill="#FFAEAE"></path>
                        <path d="M229.0549,246.7108 C229.0549,246.7108 220.5129,219.4188 216.6799,213.5858" id="Stroke-120" stroke="#E86A46" stroke-width="3" stroke-linecap="round"></path>
                        <path d="M132.8049,185.3358 C132.8049,185.3358 129.4299,185.3358 127.3049,183.3358 C124.7939,180.9728 125.0549,178.2108 126.4299,178.3358 C127.8049,178.4608 129.0579,180.5338 131.8049,180.7108 C135.6799,180.9608 143.4299,183.7108 143.4299,183.7108 L132.8049,185.3358 Z" id="Fill-122" fill="#FFAEAE"></path>
                        <path d="M269.7473,353.0594 C268.0383,353.4654 266.3013,353.7464 264.5513,353.8994 L172.8543,361.9404 C171.9253,362.0214 171.1023,361.3414 171.0073,360.4134 L159.8053,252.4194 L174.5973,251.5444 L282.2633,350.0854 L269.7473,353.0594 Z" id="Fill-124" fill="#C5CBD8"></path>
                        <path d="M282.5129,350.075 L183.2349,358.53 C182.3049,358.609 181.4669,357.97 181.2979,357.053 L161.6799,250.836 L261.0549,244.854 L283.9489,348.123 C284.1589,349.074 283.4839,349.993 282.5129,350.075" id="Fill-126" fill="#E9EEFB"></path>
                        <path d="M237.5549,257.0858 C237.5549,258.8118 236.1559,260.2108 234.4299,260.2108 C232.7039,260.2108 231.3049,258.8118 231.3049,257.0858 C231.3049,255.3598 232.7039,253.9608 234.4299,253.9608 C236.1559,253.9608 237.5549,255.3598 237.5549,257.0858" id="Fill-128" fill="#C5CBD8"></path>
                        <path d="M194.8049,260.0858 C194.8049,261.8118 193.4059,263.2108 191.6799,263.2108 C189.9539,263.2108 188.5549,261.8118 188.5549,260.0858 C188.5549,258.3598 189.9539,256.9608 191.6799,256.9608 C193.4059,256.9608 194.8049,258.3598 194.8049,260.0858" id="Fill-130" fill="#C5CBD8"></path>
                        <path d="M191.6799,260.0858 L193.3469,224.0858" id="Stroke-132" stroke="#FF7E59" stroke-width="3" stroke-linecap="round"></path>
                        <path d="M190.1799,200.9193 C190.1799,200.9193 200.8469,198.9193 205.1799,192.2523 C209.5129,185.5863 217.8469,165.2523 217.8469,165.2523 L206.8469,209.2523 L190.1799,200.9193 Z" id="Fill-134" fill="#F9CC8E"></path>
                        <path d="M229.1799,226.9193 C229.1799,226.9193 224.2639,233.4703 221.9299,235.5863 C219.2629,238.0023 215.5969,239.5863 210.1799,237.2523 C206.9959,235.8813 187.1799,224.3363 167.1799,207.5863 C161.4399,202.7783 157.1899,200.5573 154.6549,199.5433 C153.1319,198.9333 152.2339,198.6243 149.9039,199.5243 C147.3989,200.4923 144.1799,201.4613 140.6799,202.4613 C138.7389,203.0153 125.8049,201.0863 123.9299,199.9613 C120.1399,197.6873 116.1799,195.2113 112.9299,193.0863 C110.4899,191.4903 112.0129,188.9323 113.4299,188.8363 L138.9299,183.5863 C138.9299,183.5863 148.7959,184.7313 154.9299,186.5863 C165.6799,189.8363 175.1799,195.5863 185.9299,199.5863 C196.8219,203.6383 204.9299,204.8363 204.9299,204.8363 C204.9299,204.8363 218.1799,209.6693 229.1799,226.9193" id="Fill-136" fill="#FFAEAE"></path>
                        <path d="M234.1799,242.8358 L222.4299,213.3358" id="Stroke-138" stroke="#2474CD" stroke-width="3" stroke-linecap="round"></path>
                        <path d="M157.5842,174.1624 C157.8872,180.6904 152.8402,186.2284 146.3122,186.5314 C139.7832,186.8344 134.2452,181.7874 133.9422,175.2594 C133.6402,168.7304 138.6872,163.1924 145.2152,162.8904 C151.7432,162.5874 157.2812,167.6344 157.5842,174.1624" id="Fill-140" fill="#FFC0D2"></path>
                        <path d="M142.1975,175.1683 C142.2765,176.8693 141.7815,178.2743 141.0915,178.3063 C140.4015,178.3383 139.7785,176.9853 139.7005,175.2843 C139.6215,173.5833 140.1165,172.1783 140.8055,172.1463 C141.4955,172.1143 142.1185,173.4673 142.1975,175.1683" id="Fill-142" fill="#FFCFDF"></path>
                        <path d="M153.1789,174.6947 C153.2569,176.3957 152.7619,177.8007 152.0729,177.8327 C151.3829,177.8647 150.7599,176.5117 150.6809,174.8107 C150.6029,173.1097 151.0979,171.7047 151.7869,171.6727 C152.4769,171.6407 153.0999,172.9937 153.1789,174.6947" id="Fill-144" fill="#FFCFDF"></path>
                        <path d="M215.5129,209.9193 C227.3469,223.7523 234.4299,257.0863 234.4299,257.0863" id="Stroke-146" stroke="#FF7E59" stroke-width="3" stroke-linecap="round"></path>
                        <path d="M203.4299,204.5858 C203.4299,204.5858 211.1799,204.0858 230.6799,230.1688 L237.5169,221.0448 C238.4489,219.7528 238.6039,218.0508 237.8939,216.6258 C235.5439,211.9068 223.5549,196.9608 210.4299,194.2528 C208.8539,193.9268 207.1269,194.4778 206.4299,196.0858 C205.3469,198.5858 203.4299,204.5858 203.4299,204.5858" id="Fill-148" fill="#FFFFFF"></path>
                        <path d="M108.3635,421.6688 C109.6805,421.8638 111.1875,421.0568 110.4715,419.9338 C108.1795,416.3358 105.8915,407.7548 107.4295,395.3358 C109.7635,376.5028 121.1795,342.5858 121.1795,342.5858 C121.1795,342.5858 97.7635,384.0028 98.6795,409.0858 C98.9965,417.7558 104.4295,421.0858 108.3635,421.6688" id="Fill-150" fill="#2B2B51"></path>
                        <g id="Group-154" transform="translate(0.000000, 156.000000)">
                            <mask id="mask-10" fill="white">
                                <use xlink:href="#path-9"></use>
                            </mask>
                            <g id="Clip-153"></g>
                            <path d="M1.4988,0.3919 C0.9608,0.2979 0.4698,0.6979 0.4438,1.2429 L-0.0002,6.4039 C-0.0152,7.3399 0.6548,8.0789 1.5548,8.3359 C4.1798,9.0859 9.7428,9.8979 18.6798,10.7109 C27.8108,11.5409 35.0418,11.4809 37.7528,11.3899 C38.4198,11.3679 38.9408,10.8159 38.9298,10.1479 L39.0138,4.7519 C39.0218,4.0529 38.4618,3.4809 37.7618,3.4829 C34.9158,3.4909 27.3858,3.4029 19.5138,2.7519 C11.4198,2.0839 4.0858,0.8459 1.4988,0.3919" id="Fill-152" fill="#FFFFFF" mask="url(#mask-10)"></path>
                        </g>
                        <path d="M231.1799,225.9193 L215.1799,204.5863 C215.1799,204.5863 227.1799,208.9193 230.1799,214.5863 C233.1799,220.2523 231.1799,225.9193 231.1799,225.9193" id="Fill-155" fill="#E9EEFB"></path>
                        <path d="M209.8469,161.0023 L225.1379,147.7103 L221.1349,156.1583 C219.8779,158.8113 217.2749,160.5673 214.3429,160.7393 L209.8469,161.0023 Z" id="Fill-157" fill="#F9CC8E"></path>
                        <path d="M183.6614,123.5965 C183.3524,124.4865 182.5514,125.0155 181.8714,124.7795 C181.1904,124.5435 180.8904,123.6315 181.1984,122.7415 C181.5074,121.8525 182.3084,121.3225 182.9884,121.5585 C183.6694,121.7945 183.9704,122.7075 183.6614,123.5965" id="Fill-159" fill="#FFFFFF"></path>
                        <path d="M181.0784,131.9715 C180.7694,132.8615 179.9684,133.3905 179.2874,133.1545 C178.6074,132.9185 178.3064,132.0065 178.6154,131.1165 C178.9244,130.2275 179.7254,129.6975 180.4054,129.9335 C181.0864,130.1695 181.3874,131.0825 181.0784,131.9715" id="Fill-161" fill="#FFFFFF"></path>
                        <path d="M178.1614,140.013 C177.8524,140.903 177.0514,141.432 176.3714,141.196 C175.6904,140.96 175.3904,140.048 175.6984,139.159 C176.0074,138.269 176.8084,137.739 177.4884,137.975 C178.1694,138.211 178.4704,139.124 178.1614,140.013" id="Fill-163" fill="#FFFFFF"></path>
                    </g>
                </g>
            </g>
        </g>
    </g>
</svg>