<svg xmlns="http://www.w3.org/2000/svg" viewBox="0 0 295 282.5">
    <defs>
        <style>
            .cls-1{fill:#2474cd;}.cls-2{fill:#2b2b51;}.cls-3{fill:#42426c;}.cls-4{fill:#34a853;}.cls-5{fill:#e5e5e5;}.cls-6{fill:#fff;}.cls-7{fill:#3056d3;}
        </style>
    </defs>
    <title>Asset 1</title>
    <g id="Layer_2" data-name="Layer 2">
        <g id="Layer_2-2" data-name="Layer 2">
            <path class="cls-1"
                  d="M58,188.33H292a3,3,0,0,1,3,3v28a3,3,0,0,1-3,3H55a0,0,0,0,1,0,0v-31A3,3,0,0,1,58,188.33Z"/>
            <path class="cls-2" d="M55,222.5V191.33a3,3,0,0,1,3-3H89.17Z"/>
            <path class="cls-2" d="M261,222.33h31a3,3,0,0,0,3-3v-28a3,3,0,0,0-.88-2.12Z"/>
            <rect class="cls-1" y="222.33" width="260.67" height="53.67" rx="3" ry="3"/>
            <path class="cls-3" d="M48,276H3a3,3,0,0,1-3-3V228Z"/>
            <path class="cls-3" d="M212.67,222.33h45a3,3,0,0,1,3,3v45Z"/>
            <path class="cls-3"
                  d="M91,77.25l-7.2-10C80.63,62.91,65,40.5,65,26a26,26,0,0,1,52.09,0c0,15.16-15.67,37.07-18.82,41.31ZM91.06,18a8.06,8.06,0,0,0-8,8c0,4.11,3.78,12.06,8.12,19.49,4.3-7.3,8-15.1,8-19.49A8.06,8.06,0,0,0,91.06,18Z"/>
            <path class="cls-3"
                  d="M71.51,81.46l7.69-14.92c1.56-3,15.53-29.84,25.56-39.62h0a26,26,0,1,1,36.36,37.3c-10.22,10-43.1,14.3-52.93,15.39Zm45.82-41.66C113.84,43.22,108.71,51,104,59c12.19-2.35,22.21-5.36,24.6-7.69a8,8,0,1,0-11.23-11.52Z"/>
            <path class="cls-3"
                  d="M110.69,81.46,94,79.61c-9.83-1.09-42.71-5.43-52.93-15.39a26,26,0,0,1,36.36-37.3c10,9.78,24,36.6,25.56,39.62ZM59.26,37.52h-.1a8,8,0,0,0-5.51,13.81c2.58,2.51,13,5.44,24.59,7.68-4.73-8-9.86-15.79-13.36-19.2h0A8,8,0,0,0,59.26,37.52Z"/>
            <rect class="cls-4" x="32" y="69.67" width="118.67" height="118.67" rx="3" ry="3"/>
            <rect class="cls-3" x="71.17" y="68" width="40.33" height="120.33"/>
            <rect x="89.83" y="89" width="112" height="190" rx="10" ry="10"/>
            <rect class="cls-5" x="92.83" y="91.67" width="106" height="184.5" rx="6.33" ry="6.33"/>
            <path class="cls-6" d="M198.83,127.33l-106,106.33V98.17a6.5,6.5,0,0,1,6.5-6.5h93a6.5,6.5,0,0,1,6.5,6.5Z"/>
            <path class="cls-7"
                  d="M168,179.73c0-14.26-6.11-21.07-21.21-21.07h-2.13c-14.31,0-21.17,6-21.21,21.07h0v2.16h0c0,14.26,6.11,21.07,21.21,21.07h2.13c14.31,0,21.17-6,21.21-21.07h0v-2.16Z"/>
            <path class="cls-6"
                  d="M135.43,175.27a4.45,4.45,0,0,0-1.41.23,2.61,2.61,0,0,0-1.33,1v-1h-2.15V188.8h2.12v-4.61a2.73,2.73,0,0,0,1.37.94,4.72,4.72,0,0,0,1.51.24,4.46,4.46,0,0,0,1.86-.38,4.8,4.8,0,0,0,1.59-1.11,4.72,4.72,0,0,0,1-1.62,5.14,5.14,0,0,0-1.08-5.52,4.77,4.77,0,0,0-3.5-1.47m1.94,7.35a2.74,2.74,0,0,1-2,.84,2.66,2.66,0,0,1-2.07-.81,3.44,3.44,0,0,1-.78-2.38,3.26,3.26,0,0,1,.8-2.3,2.71,2.71,0,0,1,2-.82,2.74,2.74,0,0,1,2,.84,3.38,3.38,0,0,1,.84,2.37,3.13,3.13,0,0,1-.86,2.25"/>
            <polygon class="cls-6"
                     points="158.03 182.33 155.07 175.49 152.8 175.49 156.97 184.6 155.15 188.8 157.38 188.8 163.05 175.49 160.77 175.49 158.03 182.33"/>
            <path class="cls-6"
                  d="M149.35,176.47a2.6,2.6,0,0,0-1.33-1,4.45,4.45,0,0,0-1.41-.23,4.77,4.77,0,0,0-3.5,1.47,5.14,5.14,0,0,0-1.08,5.52,4.72,4.72,0,0,0,1,1.62,4.82,4.82,0,0,0,1.59,1.11,4.48,4.48,0,0,0,1.86.37,4.69,4.69,0,0,0,1.51-.24,2.73,2.73,0,0,0,1.37-.94v1h2.12v-9.7h-2.15Zm-.62,6.19a2.66,2.66,0,0,1-2.07.81,2.75,2.75,0,0,1-2-.84,3.14,3.14,0,0,1-.86-2.25,3.38,3.38,0,0,1,.84-2.37,2.74,2.74,0,0,1,2-.84,2.7,2.7,0,0,1,2,.82,3.26,3.26,0,0,1,.8,2.3,3.44,3.44,0,0,1-.78,2.38"/>
            <path class="cls-4"
                  d="M87.41,239.85c2.79,2.79,4.07,11.42,4.07,11.42s-8.77-1.43-11.42-4.07a5.19,5.19,0,0,1,7.35-7.35Z"/>
            <path class="cls-4"
                  d="M95.07,239.85C92.27,242.65,91,251.28,91,251.28s8.77-1.43,11.42-4.07a5.19,5.19,0,0,0-7.35-7.35Z"/>
            <rect class="cls-3" x="75.06" y="250.07" width="32.43" height="32.43" rx="5" ry="5"/>
            <rect class="cls-4" x="85.77" y="249.7" width="11.02" height="32.8"/>
        </g>
    </g>
</svg>
