<svg xmlns="http://www.w3.org/2000/svg" viewBox="0 0 317 272.29">
    <defs>
        <style>
            .cls-1{fill:#ea4335;}.cls-2{fill:#fbbc04;}.cls-3{fill:#34a853;}.cls-4{fill:#4285f4;}.cls-5{fill:#e5e5e5;}.cls-6{fill:#fff;}
        </style>
    </defs>
    <title>Asset 3</title>
    <g id="Layer_2" data-name="Layer 2">
        <g id="Layer_2-2" data-name="Layer 2">
            <path class="cls-1" d="M296.11,130.27a4.63,4.63,0,0,0,4.28-6.41,52.39,52.39,0,0,0-98.89,6.41Z"/>
            <path class="cls-2" d="M167.85,22.58,165.41,8.68l12.79,3.49a1.55,1.55,0,0,1,.49,2.77Z"/>
            <rect class="cls-2" x="35.5" y="135.67" width="19.5" height="43.5"
                  transform="translate(-72.65 43.71) rotate(-30)"/>
            <rect class="cls-1" x="264.83" y="212.42" width="20" height="55" rx="10" ry="10"
                  transform="translate(549.67 479.83) rotate(180)"/>
            <rect class="cls-2" x="203" y="130.17" width="98" height="98" rx="5" ry="5"/>
            <path class="cls-3"
                  d="M203,130.17h93a5,5,0,0,1,5,5v44a0,0,0,0,1,0,0H203a0,0,0,0,1,0,0v-49A0,0,0,0,1,203,130.17Z"/>
            <rect class="cls-1" x="221.92" y="67.5" width="7.5" height="40.17" rx="3.75" ry="3.75"
                  transform="translate(-16.34 82.16) rotate(-19.93)"/>
            <rect class="cls-1" x="274.35" y="68.44" width="7.5" height="40.17" rx="3.75" ry="3.75"
                  transform="translate(509.39 266.52) rotate(-160.07)"/>
            <path class="cls-3"
                  d="M95.86,214.33c0,.08,0,.17,0,.25a19.33,19.33,0,1,1-38.67,0c0-.08,0-.17,0-.25H26.88c0,.08,0,.17,0,.25a49.67,49.67,0,1,0,99.33,0c0-.08,0-.17,0-.25Z"/>
            <path class="cls-1"
                  d="M57.22,214.33c0-.08,0-.17,0-.25a19.33,19.33,0,1,1,38.67,0c0,.08,0,.17,0,.25H126.2c0-.08,0-.17,0-.25a49.67,49.67,0,1,0-99.33,0c0,.08,0,.17,0,.25Z"/>
            <rect class="cls-4" x="123.75" y="59.67" width="7.67" height="19.33"/>
            <path class="cls-4"
                  d="M167.46,12.84c-2.17-8.47-10-14.21-18.54-12.55a15.83,15.83,0,0,0-12.55,18.54c.48,2.5,1,4.75,1.46,6.92L82.24,37.42a45.16,45.16,0,0,0,86.16-18A24.48,24.48,0,0,0,167.46,12.84Z"/>
            <rect x="91.08" y="77.33" width="112" height="190" rx="10" ry="10"/>
            <rect class="cls-5" x="94.08" y="93.33" width="106" height="158"/>
            <polygon class="cls-6" points="200.08 115.67 94.08 222 94.08 93.33 200.08 93.33 200.08 115.67"/>
            <circle class="cls-4" cx="24.67" cy="121.92" r="24.67"/>
            <rect class="cls-1" x="301" y="138.29" width="16" height="78" rx="8" ry="8"
                  transform="translate(618 354.58) rotate(180)"/>
            <circle class="cls-6" cx="235.63" cy="112.92" r="3.58"/>
            <circle class="cls-6" cx="268.63" cy="112.92" r="3.58"/>
            <g id="Super-G">
                <path id="Path" class="cls-4"
                      d="M170.92,170a29.83,29.83,0,0,0-.39-4.83H148.39v9.16h12.68a11,11,0,0,1-4.69,7.24v6h7.56C168.37,183.42,170.92,177.3,170.92,170Z"/>
                <path id="Path-2" data-name="Path" class="cls-3"
                      d="M148.39,193.31a22.26,22.26,0,0,0,15.55-5.75l-7.56-6a13.92,13.92,0,0,1-8,2.28,14.07,14.07,0,0,1-13.17-9.82h-7.79v6.15A23.41,23.41,0,0,0,148.39,193.31Z"/>
                <path id="Path-3" data-name="Path" class="cls-2"
                      d="M135.22,174.06a14.56,14.56,0,0,1,0-9.13v-6.12h-7.79a23.91,23.91,0,0,0,0,21.36Z"/>
                <path id="Path-4" data-name="Path" class="cls-1"
                      d="M148.39,155.12a12.53,12.53,0,0,1,9,3.57l6.71-6.81a22.48,22.48,0,0,0-15.71-6.18,23.44,23.44,0,0,0-21,13.13l7.79,6.15A14.05,14.05,0,0,1,148.39,155.12Z"/>
            </g>
            <path class="cls-4"
                  d="M202.83,250.66a21.68,21.68,0,0,1,21.4,18.25,4.07,4.07,0,0,0,4,3.38h28.88a3.1,3.1,0,0,0,2.19-5.29L205,212.68a3.1,3.1,0,0,0-4.38,0L146.32,267a3.1,3.1,0,0,0,2.19,5.29h28.88a4.07,4.07,0,0,0,4-3.38A21.68,21.68,0,0,1,202.83,250.66Z"/>
            <path class="cls-4" d="M252,179.17h49v-44a5,5,0,0,0-1.46-3.54Z"/>
        </g>
    </g>
</svg>
