<svg xmlns="http://www.w3.org/2000/svg" viewBox="0 0 332.83 286.17"><defs><style>.cls-1{fill:#474747;}.cls-2{fill:#fbbc04;}.cls-3{fill:#ea4335;}.cls-4{fill:#fff;}.cls-5{fill:#e5e5e5;}</style></defs><title>Asset 2</title><g id="Layer_2" data-name="Layer 2"><g id="Layer_2-2" data-name="Layer 2"><path class="cls-1" d="M170.33,205.67h89a0,0,0,0,1,0,0v9.4a0,0,0,0,1,0,0h-80a9,9,0,0,1-9-9v-.4A0,0,0,0,1,170.33,205.67Z" transform="translate(429.67 420.73) rotate(180)"/><path class="cls-1" d="M170.33,205.67h89a0,0,0,0,1,0,0v9.4a0,0,0,0,1,0,0h-80a9,9,0,0,1-9-9v-.4A0,0,0,0,1,170.33,205.67Z" transform="translate(429.67 420.73) rotate(180)"/><path class="cls-1" d="M163.33,276.67H177c21.18,0,36-25.41,46-47.33,5.34-11.7,17.22-14.62,25.33-14.62-15.67,0-85-1-85-1Z"/><circle class="cls-2" cx="280.08" cy="119.58" r="31.42"/><path class="cls-1" d="M230.83,184.17a2.5,2.5,0,0,1-2.14-3.79l61.75-102c6.87-10.88,18.41-13.41,30.14-6.62l11,6.51a2.5,2.5,0,0,1-2.54,4.3l-11-6.5c-9.42-5.45-17.94-3.66-23.36,4.93L233,183A2.5,2.5,0,0,1,230.83,184.17Z"/><path class="cls-3" d="M279.79,117.33H213.31c-9.3,22.19-15.09,48.31-15.09,62.26,0,27.25,22.09,39.41,49.33,39.41s49.33-12.16,49.33-39.41c0-13.56-5.47-38.63-14.32-60.4A3,3,0,0,0,279.79,117.33ZM204.87,181c-.11-1.21-.18-2.45-.18-3.74,0-12.12,5-34.82,13.11-55.34h59.51c8.08,20.53,13.11,43.23,13.11,55.34,0,1.29-.07,2.53-.18,3.74Z"/><path class="cls-3" d="M280.5,279.94c-6.08-2.36-14.33-4.31-21.28-6.27a9.38,9.38,0,0,1-6.82-9V218.33h-9.68v46.31a9.38,9.38,0,0,1-6.82,9c-6.95,2-16.06,4.24-21.28,6.27-1,.39-1.51,2-.44,2h66.76C282,281.92,281.5,280.33,280.5,279.94Z"/><path class="cls-2" d="M89,167.75c5.83,12.86-44.34,26-46.56,21.12A25.56,25.56,0,0,1,89,167.75Z"/><path class="cls-3" d="M107.83,213.14c0,21.79-78.92,8.27-78.92,0a39.46,39.46,0,1,1,78.92,0Z"/><path class="cls-3" d="M143.45,177.88c7.05,21.71-75.94,33.78-78.62,25.54a41.33,41.33,0,1,1,78.62-25.54Z"/><path class="cls-1" d="M9,205.67H89a0,0,0,0,1,0,0v9.46a0,0,0,0,1,0,0H0a0,0,0,0,1,0,0v-.46A9,9,0,0,1,9,205.67Z"/><path class="cls-1" d="M9,205.67H89a0,0,0,0,1,0,0v9.46a0,0,0,0,1,0,0H0a0,0,0,0,1,0,0v-.46A9,9,0,0,1,9,205.67Z"/><path class="cls-1" d="M96,277.17H82.33c-21.18,0-35.8-25.69-46-47.67C29.67,215.13,19.12,214.78,11,214.78c15.67,0,85-1.05,85-1.05Z"/><path class="cls-3" d="M94,84.17a2.5,2.5,0,0,1-2.39-1.78l-16-53a2.5,2.5,0,1,1,4.79-1.45l16,53A2.5,2.5,0,0,1,94,84.17Z"/><path class="cls-3" d="M87.83,63.5a2.5,2.5,0,0,1-2.23-3.63l11-21.67a2.5,2.5,0,1,1,4.46,2.26l-11,21.67A2.5,2.5,0,0,1,87.83,63.5Z"/><path class="cls-3" d="M84.83,53.67a2.5,2.5,0,0,1-.92-.18l-26-10.33a2.5,2.5,0,0,1,1.85-4.65l26,10.33a2.5,2.5,0,0,1-.92,4.82Z"/><path class="cls-4" d="M69.29,210.83h68.41a146.38,146.38,0,0,0-5.26-21.5H74.55A146.38,146.38,0,0,0,69.29,210.83Z"/><path class="cls-4" d="M75.23,257.33h56.55a108.1,108.1,0,0,0,5.84-21.5H69.38A108.1,108.1,0,0,0,75.23,257.33Z"/><path class="cls-4" d="M82.42,164.33h42.17a159.85,159.85,0,0,1-4.69-21.5H87.1A159.85,159.85,0,0,1,82.42,164.33Z"/><path class="cls-4" d="M84.27,96.33A116.09,116.09,0,0,1,88,117.83H119a116.09,116.09,0,0,1,3.76-21.5Z"/><path class="cls-1" d="M130,75.34a2.93,2.93,0,0,0-2.73-4H79.71a2.93,2.93,0,0,0-2.73,4,184.26,184.26,0,0,1,7.28,21h38.46A184.26,184.26,0,0,1,130,75.34Z"/><path class="cls-1" d="M88.33,125.67a122.29,122.29,0,0,1-1.23,17.17H119.9a122.29,122.29,0,0,1-1.23-17.17c0-2.68.11-5.29.3-7.83H88C88.22,120.38,88.33,123,88.33,125.67Z"/><path class="cls-1" d="M74.55,189.33h57.89c-2.51-8.07-5.39-16.28-7.86-25H82.42C79.94,173,77.06,181.26,74.55,189.33Z"/><path class="cls-1" d="M68.33,223a82.46,82.46,0,0,0,1,12.83h68.23a82.46,82.46,0,0,0,1-12.83,81,81,0,0,0-1-12.17H69.29A81,81,0,0,0,68.33,223Z"/><path class="cls-1" d="M93.48,282.33H119a125.91,125.91,0,0,0,12.77-25H75.23a133.85,133.85,0,0,0,9.7,20.14A9.92,9.92,0,0,0,93.48,282.33Z"/><rect x="107.17" y="92.33" width="112" height="190" rx="10" ry="10"/><rect class="cls-5" x="110.17" y="95" width="106" height="184.5" rx="6.33" ry="6.33"/><path class="cls-4" d="M216.17,130.67,110.17,237V101.5a6.5,6.5,0,0,1,6.5-6.5h93a6.5,6.5,0,0,1,6.5,6.5Z"/><path d="M139.17,94.67h48a0,0,0,0,1,0,0V99a6.33,6.33,0,0,1-6.33,6.33H145.5A6.33,6.33,0,0,1,139.17,99V94.67A0,0,0,0,1,139.17,94.67Z"/><path d="M170.37,163.89a10.6,10.6,0,0,0,2.44-7.56,10.51,10.51,0,0,0-7,3.61,9.92,9.92,0,0,0-2.5,7.26c2.67.23,5.34-1.34,7-3.31"/><path d="M172.78,167.72c-3.88-.23-7.18,2.2-9,2.2s-4.69-2.09-7.76-2a11.44,11.44,0,0,0-9.73,5.91c-4.17,7.19-1.1,17.85,3,23.7,2,2.9,4.34,6.08,7.47,6,3-.12,4.11-1.91,7.7-1.91s4.63,1.91,7.76,1.86,5.27-2.9,7.24-5.8a25.72,25.72,0,0,0,3.24-6.66,10.52,10.52,0,0,1-6.31-9.56c-.06-6,4.86-8.81,5.1-9a11.09,11.09,0,0,0-8.63-4.69"/><circle class="cls-3" cx="75.08" cy="18.08" r="18.08"/><circle class="cls-3" cx="55.92" cy="39.92" r="7.08"/><circle class="cls-3" cx="99.75" cy="37.42" r="7.08"/><circle class="cls-2" cx="141.08" cy="271.42" r="14.75"/><path class="cls-2" d="M136.83,257.83c-4.18-16.42-17.14-17.6-17.67-17.67a2.09,2.09,0,0,1-1.83-2.17,1.78,1.78,0,0,1,2.21-1.32,26.33,26.33,0,0,1,19.57,20.78C139.28,258.28,137,258.51,136.83,257.83Z"/></g></g></svg>