<svg xmlns="http://www.w3.org/2000/svg" xmlns:xlink="http://www.w3.org/1999/xlink" width="683" height="683" viewBox="0 0 683 683">
    <defs>
        <path id="a" d="M0 55.619c0 27.407 36.204 75.027 43.02 83.926A3.7 3.7 0 0 0 45.962 141h18.056a3.707 3.707 0 0 0 2.964-1.486C73.805 130.441 110 82.014 110 55.62 110 24.9 85.376 0 55 0S0 24.901 0 55.619z"/>
        <path id="c" d="M0 13.398c0 12.18 4.128 19.73 10.527 19.73 6.4 0 11.588-10.427 11.588-19.575C22.115 4.404 12.813 0 6.413 0S0 3.121 0 13.398"/>
        <radialGradient id="d" cx="-112.715%" cy="52.942%" r="166.337%" fx="-112.715%" fy="52.942%" gradientTransform="matrix(1 0 0 .66757 0 .176)">
            <stop offset="0%" stop-color="#FFE8E8"/>
            <stop offset="100%" stop-color="#FDACAC"/>
        </radialGradient>
        <path id="f" d="M.89.89h53.378v108.483H.89z"/>
        <path id="h" d="M5.542.927C-.514 1.505.718 7.412 1.61 13.905c.995 7.246 2.687 11.565 7.875 11.054 5.188-.51 10.099-5.869 9.459-12.76C18.334 5.631 11.426.893 6.285.893a7.85 7.85 0 0 0-.743.034"/>
        <radialGradient id="i" cx="-153.208%" cy="56.158%" r="202.92%" fx="-153.208%" fy="56.158%" gradientTransform="matrix(1 0 0 .75232 0 .14)">
            <stop offset="0%" stop-color="#FFE8E8"/>
            <stop offset="100%" stop-color="#FDACAC"/>
        </radialGradient>
        <path id="k" d="M0 603h470V0H0z"/>
    </defs>
    <g fill="none" fill-rule="evenodd">
        <path d="M0 0h683v683H0z"/>
        <path fill="#D8DDEA" d="M151.143 277.754s.543-4.299-1.81-9.112c-1.663-3.403 0-6.93 1.448-10.78l1.448-3.85s.712-1.515 2.594.128c1.688 1.476 2.291 3.529 2.291 5.84 0 2.31-1.085 4.813-.542 6.352.542 1.54 1.749 4.236 1.809 6.289.06 2.053-.723 7.379-.723 7.379l-6.515-2.246z"/>
        <path fill="#E9EEFB" d="M176.103 281.73c0 .667-2.87 1.746-7.256 2.639-3.461.704-7.837 1.843-12.697 1.843-7.816 0-16.043-2.495-20.166-3.945-.869-.307-.837-.847.048-1.101 1.778-.513 5.063-1.058 6.695-1.566 3.385-1.056 8.407-2.348 12.788-2.258 4.199.086 9.218 1.978 12.546 2.512 5.407.865 8.042 1.08 8.042 1.875"/>
        <path fill="#E9EEFB" d="M154.618 282.654s-5.4.29-3.965-2.501c1.734-3.376 3.47-7.503 4.399-10.38.405-1.254 2.014-3.14 5.142-5.689 3.22-2.626 6.319-6.628 7.807-9.004 1.243-1.987 1.486-3 2.973-2.438 1.487.562 4.093 4.362 3.16 8.816-.682 3.251-2.814 7.08-6.32 9.003-2.85 1.564-2.911 3.315-2.726 4.064.186.75.93 3.815-2.23 5.878-3.16 2.064-8.24 2.25-8.24 2.25M169.015 283.55l7.397-.055s1.755.045 1.42-1.048a33.5 33.5 0 0 0-.592-1.71s-.118-.882-1.834-.716c-1.593.153-4.852.44-4.852.44l-1.539 3.089z"/>
        <path fill="#C5CBD8" d="M116.415 333.536l-.312 1.68c-.658 1.937-1.322 2.827-2.157 4.127-.804 1.252-.833 3.043-.657 4.852.277 2.841.746 5.715 1.539 5.905.793.19 2.252-1.717 2.428-6.096.051-1.279.483-1.973 1.242-2.62a5.31 5.31 0 0 0 1.755-3.092l.922-5.042-4.76.286z"/>
        <path fill="#D8DDEA" d="M132.692 331.771c0 .261-4.699 1.479-11.782 1.479-3.986 0-5.709-.26-8.7-.347-2.264-.067-5.21-.16-5.21-.827 0-.349 1.993-1.393 4.304-1.741 1.88-.283 4.622-1.523 8.157-1.523 3.987 0 6.002.862 7.884 1.219 3.844.728 5.347 1.218 5.347 1.74"/>
        <path fill="#D8DDEA" d="M117.631 332.363s1.498 1.096 1.778 2.662c.612 3.414-.374 4.638.843 6.957 1.525 2.908 5.425 9.018 7.206 9.018 1.59 0 2.06-3.951 1.403-6.098-.582-1.91-2.058-2.49-1.871-4.208.187-1.718.29-3.699-.562-5.067-1.497-2.406-2.246-3.265-2.246-3.265h-6.55zM128.262 330.615l4.36-.026s.858-.07.918.778c.044.615.038 1.336.038 1.336s-.076.654-1.185.532c-1.03-.114-3.136-.328-3.136-.328l-.995-2.292z"/>
        <path fill="#FF7E59" d="M523.317 301.3h-9.604c-1.996 0-3.614-1.658-3.614-3.703v-9.61h16.833v9.61c0 2.045-1.618 3.703-3.615 3.703"/>
        <path fill="#82AEF4" d="M526.883 279.113a4.086 4.086 0 0 0 3.273-1.645c7.093-9.467 42.844-57.537 42.844-83.805C573 162.921 548.409 138 518.072 138c-30.336 0-54.928 24.921-54.928 55.663 0 27.265 35.736 74.52 42.84 83.83a4.095 4.095 0 0 0 3.255 1.62h17.644z"/>
        <path fill="#73A0F9" d="M526.7 279.113s37.44-56.223 37.44-85.45c0-30.742-20.823-55.663-46.511-55.663-25.687 0-46.511 24.921-46.511 55.663 0 30.344 37.44 85.45 37.44 85.45H526.7z"/>
        <path fill="#82AEF4" d="M524.43 279.113s27.308-56.223 27.308-85.45c0-30.742-15.073-55.663-33.667-55.663-18.592 0-33.664 24.921-33.664 55.663 0 30.344 27.307 85.45 27.307 85.45h12.716z"/>
        <path fill="#97BEF7" d="M521.596 279.113s11.537-56.223 11.537-85.45c0-30.742-6.545-55.663-14.618-55.663s-14.618 24.921-14.618 55.663c0 30.344 11.538 85.45 11.538 85.45h6.16z"/>
        <g transform="translate(463 139)">
            <mask id="b" fill="#fff">
                <use xlink:href="#a"/>
            </mask>
            <path fill="#FFF" d="M-3.548 78.925h117.096v-39.02H-3.548z" mask="url(#b)"/>
        </g>
        <g>
            <path fill="#D8DDEA" d="M514.445 208.942c.1.349.094.489.195.54.048.022 1.384.449 1.42.09.423-3.842 10.276-7.821 10.941-4.526.877-1.398 1.791-2.797 2.144-4.52.01-.242.085-.32.085-.32-.876-3.004-17.273-.006-14.785 8.736m15.67-13.056v-.006a14.387 14.387 0 0 0-1.387-5.077c-4.99-6.286-24.174.188-17.611 16.435.202.497.47.778.6.686.132-.091.733-.148.667-.635-1.743-12.714 13.458-15.748 17.731-11.404m-5.269-9.22c.109.044 1.03.476.812.212a2.926 2.926 0 0 0-.802-.696c-15.375-9.077-27.422 12.492-15.69 22.287.446.376.757.64.86.646.141.01 2.756 1.943.84-1.179-7.276-11.811 1.36-27.598 13.98-21.27"/>
            <path fill="#C5CBD8" d="M528.696 191.574c-1.033 3.236-10.64-2.337-12.094-5.41-.149-.331-.282-.41-.335-.387-.107.034-.18.157-.25.517-.895 4.548 8.664 12.782 14.097 10.665.004-.13 0-.26-.028-.388a14.487 14.487 0 0 0-1.39-4.997m-15.936-5.027c.083-.456.136-.643.026-.75-.11-.108-.356.166-.654.579-5.848 8.23 6.926 20.734 15.236 17.494a13.465 13.465 0 0 0 1.862-4.616v-.005c-4.561 3.598-17.909-4.83-16.47-12.702m-1.249-.967c.373-.343.735-.67.599-.692-.103-.017-.469.158-.97.446-9.375 5.397-7.166 22.172 5.044 25.202v.01c.356.033.716.056 1.072.056 1.429 0 2.85-.24 4.199-.715 1.185-.446 1.852-.79 2.984-1.499.125-.081.249-.168.367-.255-10.648 3.356-22.918-13.283-13.295-22.553"/>
            <path fill="#23478D" d="M324.32 410.113c-19.085 0-31.978-5.826-43.351-10.965-10.15-4.587-19.736-8.92-32.838-8.92H216v-23.564h32.13c34.08 0 41.746 19.883 76.19 19.883 18.05 0 29.717-5.186 41.002-10.203 10.705-4.76 37.377-9.68 37.377-9.68v23.565s-23.514 4.337-33.843 8.93c-11.55 5.134-24.64 10.954-44.536 10.954"/>
            <path fill="#D8DDEA" d="M294.98 301.934s-6.145 1.55-7.826 3.936c-1.338 1.9-1.937 5.718-2.094 6.27l-.067.088s-11.688 4.927-14.256 6.476c-2.567 1.55-4.493 4.186-5.643 6.934-.54 1.29-5.148 14.425-7.93 22.888-2.348 7.147-4.178 11.347-4.616 12.245-.437.897-1.11 1.626-2.506 1.798-1.774.216-11.036.961-11.036.961l6.878 12.555s8.366 1.725 12.779 2.604c3.424.682 6.786-2.17 8.743-4.713 4.248-5.52 7.244-14.662 7.244-14.662l1.482 13.45a34.406 34.406 0 0 1-.038 7.865l-.77 6.43h49.247l.918-56.079 9.078-9.765-17.385-8.874c-.395-.22-.675-.6-.767-1.049-.442-2.133-.39-4.726-1.61-5.933-1.774-1.752-5.213-2.619-5.213-2.619l-14.613-.806z"/>
            <path fill="#2474CD" d="M293.688 312.55s-1.808-.728-3.523-2.137c-2.003-1.647-2.41-3.985.371-5.442 1.558-.817 3.227-1.264 3.369-1.264.278 0 16.565.389 16.565.389s1.278.518 2.78 1.312c2.316 1.224 2.372 3.313.65 4.81-1.901 1.652-3.43 2.356-3.43 2.356l-16.782-.024z"/>
            <path fill="#E09595" d="M310.677 311.752s-2.994 1.755-8.279 1.708c-5.284-.047-8.533-1.708-8.533-1.708V294.84h16.812v16.912z"/>
            <path fill="#C5CBD8" d="M321.91 357.797s3.731 21.088 4.694 24.643c-18.175 6.743-32.739 5.395-32.739 5.395s7.343-4.659 18.175-15.816c4.489-4.623 9.87-14.222 9.87-14.222M275.264 386.241s1-8.577.591-13.077c-.233-2.57-1.456-13.594-1.456-13.594l10.618 28.375-9.753-1.704zM267.225 369.142c-1.608.92-2.655 1.34-4.186-.483-.473-.546-1.596-1.686-2.332-2.228-3.387-2.494-5.337-2.952-5.337-2.952s1.595 1.386 2.945 2.892c1.167 1.302 2.3 3.235 2.938 5.75.158.617-.101 1.327-1.85 1.281-.997-.025-2.732-.075-4.506-.13a3.797 3.797 0 0 1-3.663-3.434.564.564 0 0 0-.516-.495l-1.254-.052-1.61 4.382s11.089 3.976 12.608 4.518c4.003 0 9.202-5.738 13.052-15.074-1.968 3.069-4.462 4.979-6.289 6.025"/>
            <path fill="#E09595" d="M249.624 369.324c0 3.428-2.774 6.207-6.194 6.207-3.421 0-6.194-2.78-6.194-6.207 0-3.428 2.773-6.207 6.194-6.207 3.42 0 6.194 2.779 6.194 6.207"/>
        </g>
        <g transform="translate(289 277)">
            <mask id="e" fill="#fff">
                <use xlink:href="#c"/>
            </mask>
            <path fill="url(#d)" d="M0 13.398c0 12.18 4.128 19.73 10.527 19.73 6.4 0 11.588-10.427 11.588-19.575C22.115 4.404 12.813 0 6.413 0S0 3.121 0 13.398" mask="url(#e)"/>
        </g>
        <g>
            <path fill="#423748" d="M293.16 282.577s4.664 4.294 14.857 4.643c1.198.04 2.126.993 2.172 2.265.047 1.271.047 3.485.51 4.71.856 2.263.618 3.956.988 3.83.37-.126 3.597-1.476 4.292-7.975.41-3.843.155-8.729-3.242-11.429-2.586-2.055-3.15-6.342-10.993-5.337-3.884.498-5.25.062-8.4 2.072-3.442 2.197-4.682 4.98-4.786 7.771-.154 4.16 1.53 8.681 1.53 8.681l.05-4.592a4.887 4.887 0 0 1 1.933-3.819l1.089-.82z"/>
            <path fill="#FFAEAE" d="M313.63 296.418c-.753 2.629-2.137 4.533-3.092 4.254-.954-.28-.745-4.32.008-6.949.752-2.628 2.162-3.37 3.253-2.391.901.81.584 2.457-.17 5.086"/>
            <path fill="#C5CBD8" d="M282.55 358.497c-.246.018-.321-.318-.089-.4 3.614-1.269 13.29-4.497 19.237-4.88 7.42-.48 20.657 2.395 20.657 2.395l-39.804 2.885zM274.314 359.816l-3.558-19.992.764 26.677s1.203-2.637 1.562-3.526c.358-.89 1.232-3.159 1.232-3.159M285.88 315.816c3.753 4.183 5.994 6.03 12.884 10.4.854.574.392 1.247-.356 1.15-1.22-.16-3.421-.55-5.714-2.205-5.32-3.84-6.814-9.345-6.814-9.345M306.625 325.29c2.9-2.035 7.928-5.882 10.075-9.474 0 0 1.644 4.837-2.558 7.884-2.328 1.686-5.048 2.439-7.013 2.775-.703.12-1.085-.778-.504-1.185M306.745 317.773c.812-1.355 2.38-2.991 3.528-2.836 1.02.137.276 1.86-.084 2.657a38.436 38.436 0 0 1-5.6 8.892s-.432-4.394 2.156-8.713"/>
            <path fill="#C5CBD8" d="M307.23 327.375c3.948-2.755 8.67-4.208 13.428-4.44 1.845-.09 2.032.972 1.29 1.15a281.656 281.656 0 0 1-6.95 1.575c-4.196.89-7.767 1.715-7.767 1.715M276.094 322.04l8.698 1.945c.272.06.261.469-.015.51-1.331.2-3.524.39-5.55-.08-2.32-.539-3.133-2.375-3.133-2.375"/>
            <path fill="#23478D" d="M202.578 542.564c-.752 0-1.388-.593-1.447-1.37-.01-.126-.536-12.594-4.245-20.406-2.207-4.65-5.058-8.743-8.722-13.115-4.56-5.444-10.884-12.394-15.143-21.653-7.361-16.01-6.299-27.312-6.299-28.52 0-1.02.249-4.559.341-7.006.023-.603.563-.495.636.046.091.673.604 3.705.813 4.374.209.668.452.39.724.05.273-.34.692-1.168.878-1.052.288.178-.257 1.685-.247 3.889.004.674-.828 12.75 6.166 27.959 4.091 8.896 9.125 14.903 13.566 20.204 3.637 4.34 7.073 8.44 9.443 13.434 3.952 8.323 4.947 21.03 4.987 21.567.061.818-.537 1.53-1.338 1.594a1.36 1.36 0 0 1-.113.005"/>
            <g transform="translate(164 533.672)">
                <mask id="g" fill="#fff">
                    <use xlink:href="#f"/>
                </mask>
                <path fill="#D8DDEA" d="M40.122 6.604c.277-.931.508-2.05.925-4.1.332-1.636 2.267-3.214 4.117 1.631 1.85 4.846-.062 11.803-.062 11.803s9.834 29.113 9.13 61.379c-.494 22.612-15.288 32.056-28.127 32.056-12.584 0-26.133-9.163-25.167-28.64.925-18.637 17.95-28.328 29.607-43.424 9.068-11.741 8.39-17.892 8.39-17.892s-5.841.437-10.425-.139c-3.33-.42-6.893-1.305-8.511-2.097-2.812-1.375-.74-5.032 3.885-5.777 2.313-.373 4.029-.178 5.189-.125 1.704.078 2.117-.365 2.598-1.336 0 0 1.002-2.78 1.558-4.037.336-.762 1.432-1.415 2.636-.56.787.56 1.653 1.392 2.314 2.097.786.84 1.665.094 1.943-.839" mask="url(#g)"/>
            </g>
            <path fill="#C5CBD8" d="M201.327 557.167c-.537 3.473-1.611 6.141-2.566 9.243-.237.769.191.97.955.062.835-.992 1.492-1.985 2.566-3.847a40.17 40.17 0 0 0 1.596-3.056c.25-.546.697-.368.761.233.168 1.56.446 3.724.648 5.974.054.602.582.633.747-.03.495-2.32.829-3.957 1.157-5.106.358-1.257 1.184-1.079 1.566.046a59.35 59.35 0 0 1 1.522 5.213c.453 1.883 1.126 5.19 1.477 5.118.504-.102.232-3.334-.013-5.278-.497-3.959-1.987-10.515-3.254-14.283-2.67 1.302-7.162 5.711-7.162 5.711M202.184 552.954c-6.02.642-10.388.03-12.385-.345a70.13 70.13 0 0 0 4.462-.344c2.058-.25 3.556-.877 2.245-1.816-.562-.403-.249-1.046.999-.688 1.747.5 3.397.822 4.929.438 1.247-.314 1.595-1.803 1.808-3.005.312-1.754 1.082-2.351 1.124-.564.062 2.692 1.334 2.164 2.183.94.849-1.225 1.341-2.474 1.81-4.117.093 1.55-.328 5.775-1.545 6.761-4.025 3.263-5.63 2.74-5.63 2.74"/>
            <path stroke="#23478D" stroke-linecap="round" stroke-linejoin="round" stroke-width="4" d="M202.554 554.459l6.487-3.893-7.676 8.003 8.896-3.987"/>
            <path fill="#C5CBD8" d="M193.358 545.318s-7.25 7.962-10.359 4.273c-1.285-1.526 1.601-3.594 3.955-4.079 2.355-.485 6.404-.194 6.404-.194"/>
            <path stroke="#23478D" stroke-linecap="round" stroke-width="12" d="M255.632 226.6l7.155 12.675c2.63 5.145 7.293 7.476 11.563 7.153h88.633c5.015 0 9.591-2.008 12.083-7.277l7.783-15.813M430 370.947l-48.93-157.39M219.157 371.836l40.923-160.947"/>
            <path stroke="#2474CD" stroke-linecap="round" stroke-width="12" d="M373.953 246.458c5.144 0 9.786-3.77 9.786-10.052v-13.068"/>
            <path stroke="#23478D" stroke-linecap="round" stroke-width="12" d="M369.505 243.79c-2.73-1.7-4.568-4.651-4.442-8.52l.013-12.821"/>
            <path stroke="#2474CD" stroke-linecap="round" stroke-width="12" d="M252.963 244.68c2.632-1.652 4.448-4.548 4.448-8.396v-12.946"/>
            <path fill="#2B2B51" d="M343.016 368.22c.83.4 1.129 2.24-.965 4.505 4.069-1.636 4.385-9.306 4.316-10.67-.845.986-3.867 3.852-6.986 6.046-.25.176-.09.463.2.377 1.179-.346 2.605-.66 3.435-.259M356.63 337.157c-.279.643-1.881 9.772-1.185 11.314.434.96 2.173 1.19 3.06 1.124.34-.024.445-.43.158-.6-.65-.384-1.433-1.005-1.545-1.81-.349-2.507-.488-10.028-.488-10.028M342.19 352.98c-1.375.444-1.263-.033-.963-.273 1.534-1.228 3.456-3.083 3.772-4.874.618-3.501 1.435-10.676 1.435-10.676s1.196 9.468.717 12.01c-.324 1.723-2.697 3.08-4.96 3.813"/>
            <path fill="#E86A46" d="M350.823 323.318s7.787-3.238 16.134-3.048c4.714.107 9.279 1.437 11.037 2.022a.583.583 0 0 1 .134 1.05l-3.998 2.591a.813.813 0 0 0-.322.995l1.964 5.006c.19.47-.293.928-.766.729-2.03-.862-7.061-2.692-11.737-2.748-4.852-.058-9.986 1.368-9.986 1.368l-2.46-7.965z"/>
            <path fill="#2B2B51" d="M358.912 329.154c3.982 10.672 6.658 20.694 9.396 32.264 1.311 5.542-1.708 8.17-6.472 7.696-6.534-.652-11.013-2.545-11.013-2.545l8.089-37.415z"/>
            <path fill="#42426C" d="M318.515 331.937c-1.484 2.49-2.139 11.087-.68 21.672.927 6.725 5.19 10.088 5.747 20.051.359 6.412-2.966 15.07-2.966 15.07h33s-1.736-12.491-1.854-17c-.117-4.51 2.052-11.073 2.782-13.078 1.78-4.891 3.154-7.306 4.078-11.957 1.112-5.604 1.29-14.612.927-16.627-.247-1.37-.741-2.989-2.473-4.235 0 0-25.027-2.49-30.713-.061-5.685 2.428-6.365 3.674-7.848 6.165"/>
            <path fill="#2B2B51" d="M358.763 337.016c.12-3.144.073-5.823-.1-6.82-.243-1.404-.729-3.061-2.43-4.337 0 0-14.845-1.537-24.093-1.059 6.898 6.36 17.158 13.447 26.623 12.216"/>
            <path fill="#E86A46" d="M333.106 322.04l-4.524 3.093s9.161 4.656 18.952 4.896c5.258.13 7.948-.644 9.904-1.932.651-.43.668-1.236.052-1.71-2.13-1.64-6.043-3.316-6.043-3.316l-18.34-1.03z"/>
            <path fill="#FF7E59" d="M326.676 324.361a6.761 6.761 0 0 1 5.23-.88c2.75.674 8.458 2.292 17.145 6.12 11.799 5.2 12.146.209 23.211-5.461 8.519-4.365 15.161-8.374 34.125-5.665.5.071.659.724.25 1.025l-4.082 2.993c-.583.426-1.062.778-.266 1.832l3.503 4.636c.316.417-.012 1.012-.53.958-3.286-.348-12.023-.85-22.069 2.04-15.966 4.592-19.281 10.426-28.002 9.557-4.093-.408-10.187-4.585-16.825-8.067-5.872-3.08-12.257-5.292-14.756-6.108a.537.537 0 0 1-.118-.962l3.184-2.018z"/>
            <path fill="#2B2B51" d="M344.234 365.739c-.423-1.26.454-1.92 1.19-2.709 1.833-1.96 3.634-4.095 5.121-10.096.537-2.168.987-7.92 1.107-6.723.121 1.196-.444 5.278-.543 8.315-.045 1.407-.575 4.51.766 4.659 1.164.129 3.999-4.375 5.175-7.305-1.174 2.97-4.325 11.78-4.493 12.096-1.207 2.268-6.695 8.189-11.52 9.638 4.071-3.591 3.641-6.548 3.197-7.875"/>
            <path fill="#2B2B51" d="M345.02 369.168s-3.093 3.62-7.825 6.67c-4.731 3.048-13.95 7.557-13.95 7.557l26.688-9.082-4.913-5.145z"/>
            <path fill="#FFAEAE" d="M353.138 367.757c-.807 2.994-.817 5.26-3.014 4.937-2.897-.426-5.116-2.638-4.55-5.668.59-3.169 4.317-6.044 6.973-5.852 3.368.244 1.182 4.389.59 6.583"/>
        </g>
        <g transform="translate(322 292)">
            <mask id="j" fill="#fff">
                <use xlink:href="#h"/>
            </mask>
            <path fill="url(#i)" d="M5.542.927C-.514 1.505.718 7.412 1.61 13.905c.995 7.246 2.687 11.565 7.875 11.054 5.188-.51 10.099-5.869 9.459-12.76C18.334 5.631 11.426.893 6.285.893a7.85 7.85 0 0 0-.743.034" mask="url(#j)"/>
        </g>
        <g transform="translate(107 40)">
            <path fill="#FFAEAE" d="M224.36 277.324l.61 4.194 15.35-.74-2.368-10.608s-5.238-1.48-11.333 3.693c-1.156.981-2.319 1.869-2.258 3.461"/>
            <path fill="#FF7E59" d="M222.738 279.663l.398.642c.316.508.437 1.127.338 1.729l-.055.334c-.079.478.26.918.714.924 0 0 5.66.934 10.992.889 7.545-.065 8.743-.643 8.743-.643s-1.557-2.184-2.276-4.626a30.15 30.15 0 0 1-.958-4.498s-5.929.45-10.12 1.414c-4.19.964-7.461 2.441-7.461 2.441-.465.277-.61.92-.315 1.394"/>
            <path fill="#423748" d="M221.224 261.132c.432 3.99 2.608 3.357 2.608 3.357l3.653-3.718c.913 3.068-2.099 5.533.608 9.668 1.948 2.975 5.844 3.037 9.253 4.276 4.616 1.679 4.2 5.206 8.4 5.02 2.76-.122 4.383-1.86 2.557-3.966-1.827-2.107-.444-2.23 1.278-1.611 2.07.743 4.14 1.239 5.296 1.116 3.526-.379 3.798-4.059 2.374-5.765-3.104-3.719-1.461-5.392-4.2-8.367-2.818-3.06-6.392-2.23-8.765-7.56-1.75-3.927-3.653-8.057-10.227-8.181-3.167-.06-4.749-1.859-7.913-2.045-3.346-.197-7.062.744-9.132 4.524-.662 1.211-2.77 1.689-3.773 4.71-1.626 4.887 2.1 8.134 2.1 8.134v-1.905c-.047-1.906 1.823-4.18 2.054-2.418.278 2.12 1.671 3.256 2.806 3.569.541.15.96.595 1.023 1.162"/>
            <path fill="#FFAEAE" d="M228.792 261.623c.011 3.616-2.012 5.777-3.213 5.683-1.201-.093-1.354-2.055-1.138-4.513.217-2.457.948-4.105 2.132-4.317 1.565-.28 2.212.68 2.22 3.147"/>
            <path fill="#2B2B51" d="M212.83 320.596l9.755-11.547-6.865 19.537z"/>
            <path stroke="#23478D" stroke-linecap="round" stroke-width="12" d="M141 206.032c-4.809-.154-9.041-4.01-8.862-10.203l.01-12.886"/>
            <path fill="#42426C" d="M305.872 488.439H102.939c-11.794 0-21.354-9.689-21.354-21.64V331.25h28.258c17.249 0 44.53 23.306 80.127 23.306 35.599 0 59.331-23.306 76.58-23.306h60.676V466.8c0 11.95-9.56 21.639-21.354 21.639"/>
            <path fill="#2B2B51" d="M327.226 331.25h-29.845l-.03 143.816H95.599c-8.386 0-14.013-6.19-14.013-14.185v5.944c0 11.937 9.56 21.614 21.352 21.614h202.907c11.792 0 21.352-9.677 21.352-21.614l.03-135.575z"/>
            <path stroke="#2474CD" stroke-linecap="round" stroke-width="12" d="M296.189 332.138l-40.793-160.74"/>
            <path stroke="#23478D" stroke-linecap="round" stroke-width="12" d="M300.623 332.138H329"/>
            <path stroke="#2474CD" stroke-linecap="round" stroke-width="12" d="M86.019 331.25l48.773-157.188M131.245 187.09l7.132 12.657c2.623 5.139 7.27 7.467 11.527 7.144h88.35c4.999 0 9.56-2.005 12.044-7.268l7.759-15.792"/>
            <path fill="#23478D" d="M343.938 374.581c-.094.122-.218.166-.34.128-.242-2.248-.51-2.613-.537-2.636-.079-.063-.186.07-.297 1.05-.233-.66-.254-1.1-.304-1.284-.1-.365-.424-.868-.439-.493 0 18.85-4.877 25.857-11.606 33.416l-.345.387c-7 7.87-11.428 19.485-11.613 19.976-.293.774.089 1.64.85 1.937.175.068.354.1.53.1.594 0 1.155-.366 1.38-.964.044-.115 3.72-11.99 10.346-19.439l.343-.385c6.903-7.753 13.056-13.477 13.056-33.48.01-1.166-.643 1.19-1.024 1.687"/>
            <path fill="#C5CBD8" d="M310.377 413.84s1.76 2.613 3.807 3.881c2.046 1.266 3.851 1.71 6.258 1.837 2.409.126 5.01.791 5.01 1.552l-4.89 4.276-7.943-3.929-2.242-7.616z"/>
            <path fill="#D8DDEA" d="M310.816 425.175c1.059 5.218 2.392 7.653 2.177 9.8-.676 6.76-6.377 33.102-9.32 54.009-2.57 18.258 7.848 35.84 23.054 38.203 13.757 2.14 22.827-6.636 24.894-14.56 1.655-6.346 4.046-19.412-8.952-38.079-12.998-18.666-20.448-32.2-20.816-37.799-.162-2.465 1.272-8.799 3.954-14.84.527-1.187 0-1.338-1.41-1.213-.401.035-.612.102-.98.124-2.086.124-2.392-1.15-3.005-2.551-.221-.505-.4-1.151-.674-1.774-.416-.937-1.088-1.575-1.901-.248-.353.575-.445.715-.721 1.182-.275.466-.966.84-1.655 0-2.697-3.285-3.767-3.752-4.736-3.547-2.016.426-1.196 4.946.091 11.293"/>
            <path fill="#C5CBD8" d="M313.357 441.138c.607-.395.135 7.686 1.393 9.968.345.635.987-7.792 1.978-8.042.888-.213 1.254 5.806 2.675 7.596.412.525-.564-5.573-.55-8.411.001-.356-.06-.813.274-.927.34-.113.658.36.871.65.523.708 1.374 2.407 1.583 1.921.066-.302-.13-1.15-.209-1.875-.09-.833.78-.696 1.42-.14-.366-1.296-1.23-4.388-1.237-5.51-.005-.772.32-3.01.55-4.074-.366 1.435-.93 1.423-1.1.509-.137-.74-.044-2.13-.274-2.223-.427-.262-.825.787-1.1 1.435-.37.874-1.04 2.77-1.832.788-.87-2.176-1.425-4.284-1.832-6.159-.505-2.314-1.146-2.87-1.1-1.111.03 1.203.183 3.196.228 4.677.028.866-.052 2.42-1.282 1.342-1.374-1.203-2.245-2.916-2.626-3.503.794 3.271 1.828 5.477 1.526 7.116-.679 3.697-1.97 12.178-2.336 14.121 0 0 2.2-7.64 2.98-8.148"/>
            <path stroke="#23478D" stroke-linecap="round" stroke-linejoin="round" stroke-width="4" d="M313.288 435.155l8.027 1.199-8.277 1.155 8.868 2.086"/>
            <path fill="#E86A46" d="M252.49 54.413s.14 16.328-7.347 15.901c-4.362-.248-9.418-6.46-10.336-15.404-.42-4.089-.198-9.957.244-12.92 1.544-10.355-4.005-16.677-8.57-21.865-6.12-6.957-9.06-20.125-9.06-20.125s-15.97 14.036-12.487 34.536c1.84 10.827-.926 17.012-5.387 22.362-2.693 3.23-7.1 2.98-9.794-1.988-4.767-8.796-4.897-19.629.335-28.884-.072.02-.14.044-.212.063-12.855 3.353-25.71 11.553-26.812 31.306-.562 10.074-5.648 14.192-8.154 18.26-4.363 7.082-2.265 17.18 2.525 24.226 5.245 7.715 13.064 13.658 17.11 16.428a4.764 4.764 0 0 0 5.037.21c4.112-2.304 13.381-6.451 26.82-6.451 13.065 0 23.213 4.262 27.858 6.64a4.71 4.71 0 0 0 5.351-.743c12.026-11.167 18.879-24.061 19.309-36.955.478-14.359-6.43-24.597-6.43-24.597"/>
            <path fill="#FF7E59" d="M184.722 109.233c-6.7-5.728-15.246-8.5-18.942-19.216-1.807-5.238-.257-10.987.64-14.38.131-.495.99-.54 1.205-.063 1.118 2.466 3.499 7.051 6.47 8.9 4.159 2.587-2.425-9.885 0-18.107 1.468-4.974 6.238-12.195 6.238-12.195s-1.155 8.13 3.002 15.52c4.159 7.392 6.93 10.347 7.855 18.477.923 8.13 1.706 14.46.923 15.336-.577.647-3.733-2.573-6.467-2.772-3.812-.277-1.849 5.728-.924 8.5M209.868 110.16s-9.486-5.712-11.647-14.234c-1.53-6.032.569-13.71 8.302-19.454 7.734-5.743 9.44-8.892 10.122-13.894.683-5.002-.909-12.599-.227-19.824.683-7.225 4.322-11.672 4.322-11.672s-2.73 12.228.227 19.824c2.958 7.596 14.148 22.024 17.288 31.495 6.141 18.527-13.712 30.384-13.712 30.384s-3.628-1.14-7.519-1.821c-3.478-.61-7.21-.804-7.156-.804"/>
            <path fill="#FFF" d="M213 110.76c0 .768-5.252-10.223-3.187-17.592 1.445-5.157 5.466-8.082 8.491-11.422 1.837-2.027 2.569-4.423 2.832-3.316.917 3.869-.96 6.85-1.53 9.027-.919 3.5-.23 6.018 2.983 9.886 3.213 3.869 3.671 11.46 0 14.899 0 .628-3.162-.462-4.936-.8-1.597-.303-5.27-1.45-5.27-1.45l.617.768z"/>
            <path fill="#C5CBD8" d="M236.325 190.047h-20.386c-2.206 0-3.996-1.846-3.996-4.123V119.89h28.378v66.034c0 2.277-1.79 4.123-3.996 4.123"/>
            <path fill="#D8DDEA" d="M231.004 190.047h-20.385c-2.207 0-3.996-1.846-3.996-4.123V119.89H235v66.034c0 2.277-1.79 4.123-3.996 4.123"/>
            <path fill="#2B2B51" d="M226.132 180.278a5.325 5.325 0 0 1-5.321 5.329 5.324 5.324 0 0 1-5.32-5.329 5.324 5.324 0 0 1 5.32-5.328 5.325 5.325 0 0 1 5.321 5.328"/>
            <path fill="#42426C" d="M224.358 180.722a3.106 3.106 0 0 1-3.103 3.109 3.106 3.106 0 0 1-3.104-3.109 3.106 3.106 0 0 1 3.104-3.108 3.106 3.106 0 0 1 3.103 3.108"/>
            <path fill="#42426C" d="M231.042 193.294c-.492.457-1.238.394-1.66-.14l-9.177-11.657c-.42-.534-.362-1.345.13-1.802.493-.456 1.24-.393 1.66.141l9.177 11.656c.42.534.362 1.345-.13 1.802"/>
            <path fill="#C5CBD8" d="M202.627 190.047H182.24c-2.207 0-3.996-1.846-3.996-4.123V119.89h28.378v66.034c0 2.277-1.79 4.123-3.996 4.123"/>
            <path fill="#D8DDEA" d="M197.306 190.047H176.92c-2.207 0-3.996-1.846-3.996-4.123V119.89h28.377v66.034c0 2.277-1.79 4.123-3.996 4.123"/>
            <path fill="#2B2B51" d="M193.32 180.278a5.325 5.325 0 0 1-5.32 5.329 5.324 5.324 0 0 1-5.32-5.329 5.324 5.324 0 0 1 5.32-5.328 5.325 5.325 0 0 1 5.32 5.328"/>
            <path fill="#42426C" d="M190.66 180.722a3.106 3.106 0 0 1-3.103 3.109 3.106 3.106 0 0 1-3.104-3.109 3.106 3.106 0 0 1 3.104-3.108 3.106 3.106 0 0 1 3.103 3.108"/>
            <path fill="#42426C" d="M177.77 193.294c.49.457 1.237.394 1.658-.14l9.178-11.657c.42-.534.362-1.345-.13-1.802-.492-.456-1.238-.393-1.659.141l-9.178 11.656c-.42.534-.362 1.345.13 1.802"/>
            <path fill="#C5CBD8" d="M277.566 171.05c0 1.82-32.756 1.092-73.16 1.092-40.406 0-73.16.485-73.16-1.092 0-2.614 32.754-7.645 73.16-7.645 40.404 0 73.16 5.031 73.16 7.645"/>
            <path fill="#E9EEFB" d="M198.409 166.957h-22.591c-1.598 0-2.893-1.332-2.893-2.975V119.89h28.377v44.092c0 1.643-1.296 2.975-2.893 2.975"/>
            <path fill="#C5CBD8" d="M199.49 123.442h-23.867c-.508 0-.925-.4-.925-.889 0-.488.417-.887.925-.887h23.867c.509 0 .925.4.925.887 0 .49-.416.889-.925.889M199.49 126.994h-23.867c-.508 0-.925-.4-.925-.888s.417-.888.925-.888h23.867c.509 0 .925.4.925.888s-.416.888-.925.888M199.49 129.658h-23.867c-.508 0-.925-.4-.925-.888s.417-.888.925-.888h23.867c.509 0 .925.4.925.888 0 .489-.416.888-.925.888M199.49 133.21h-23.867c-.508 0-.925-.4-.925-.887 0-.489.417-.889.925-.889h23.867c.509 0 .925.4.925.889 0 .488-.416.888-.925.888M199.49 136.763h-23.867c-.508 0-.925-.4-.925-.889 0-.488.417-.887.925-.887h23.867c.509 0 .925.4.925.887 0 .49-.416.889-.925.889M199.49 140.315h-23.867c-.508 0-.925-.4-.925-.888s.417-.888.925-.888h23.867c.509 0 .925.4.925.888s-.416.888-.925.888M199.49 143.867h-23.867c-.508 0-.925-.4-.925-.887 0-.489.417-.889.925-.889h23.867c.509 0 .925.4.925.889 0 .488-.416.887-.925.887M199.49 146.532h-23.867c-.508 0-.925-.4-.925-.889 0-.488.417-.887.925-.887h23.867c.509 0 .925.4.925.887 0 .489-.416.889-.925.889M199.49 150.084h-23.867c-.508 0-.925-.4-.925-.888s.417-.888.925-.888h23.867c.509 0 .925.4.925.888s-.416.888-.925.888"/>
            <path fill="#E9EEFB" d="M232.107 166.957h-22.591c-1.598 0-2.893-1.332-2.893-2.975V119.89H235v44.092c0 1.643-1.295 2.975-2.893 2.975"/>
            <path fill="#FF7E59" d="M226.22 160.74h-10.817c-.44 0-.8-.339-.8-.753v-3.82c0-.415.36-.755.8-.755h10.817c.44 0 .799.34.799.755v3.82c0 .414-.36.754-.799.754"/>
            <path fill="#C5CBD8" d="M233.188 123.442h-23.866c-.509 0-.926-.4-.926-.889 0-.488.417-.887.926-.887h23.866c.509 0 .925.4.925.887 0 .49-.416.889-.925.889M233.188 126.994h-23.866c-.509 0-.926-.4-.926-.888s.417-.888.926-.888h23.866c.509 0 .925.4.925.888s-.416.888-.925.888M233.188 129.658h-23.866c-.509 0-.926-.4-.926-.888s.417-.888.926-.888h23.866c.509 0 .925.4.925.888 0 .489-.416.888-.925.888M233.188 133.21h-23.866c-.509 0-.926-.4-.926-.887 0-.489.417-.889.926-.889h23.866c.509 0 .925.4.925.889 0 .488-.416.888-.925.888M233.188 136.763h-23.866c-.509 0-.926-.4-.926-.889 0-.488.417-.887.926-.887h23.866c.509 0 .925.4.925.887 0 .49-.416.889-.925.889M233.188 140.315h-23.866c-.509 0-.926-.4-.926-.888s.417-.888.926-.888h23.866c.509 0 .925.4.925.888s-.416.888-.925.888M233.188 143.867h-23.866c-.509 0-.926-.4-.926-.887 0-.489.417-.889.926-.889h23.866c.509 0 .925.4.925.889 0 .488-.416.887-.925.887M233.188 146.532h-23.866c-.509 0-.926-.4-.926-.889 0-.488.417-.887.926-.887h23.866c.509 0 .925.4.925.887 0 .489-.416.889-.925.889M233.188 150.084h-23.866c-.509 0-.926-.4-.926-.888s.417-.888.926-.888h23.866c.509 0 .925.4.925.888s-.416.888-.925.888"/>
            <path stroke="#D8DDEA" stroke-linecap="round" stroke-width="2" d="M60.302 45.292l70.943 125.218"/>
            <path stroke="#E9EEFB" stroke-linecap="round" stroke-width="2" d="M104.642 45.292l48.773 125.218"/>
            <path fill="#FF7E59" d="M193.409 160.74H182.59c-.44 0-.799-.339-.799-.753v-3.82c0-.415.36-.755.8-.755h10.817c.44 0 .799.34.799.755v3.82c0 .414-.36.754-.8.754"/>
            <path stroke="#E9EEFB" stroke-linecap="round" stroke-width="2" d="M173.811 45.292l12.415 125.218M235 45.292L222.585 170.51"/>
            <path stroke="#C5CBD8" stroke-linecap="round" stroke-width="2" d="M119.717 45.292l41.68 125.218"/>
            <path stroke="#D8DDEA" stroke-linecap="round" stroke-width="2" d="M347.623 45.292L276.679 170.51"/>
            <path stroke="#E9EEFB" stroke-linecap="round" stroke-width="2" d="M303.283 45.292L254.509 170.51"/>
            <path stroke="#C5CBD8" stroke-linecap="round" stroke-width="2" d="M289.094 45.292L247.415 170.51"/>
            <path fill="#2B2B51" d="M188.534 363.22c-19.189 0-32.151-5.944-43.587-11.188-10.204-4.68-19.842-9.1-33.016-9.1H81.585v-9.017h30.346c15.057 0 26.018 5.026 36.619 9.888 11.15 5.113 22.679 10.4 39.984 10.4 18.148 0 29.878-5.291 41.224-10.41 10.763-4.857 21.894-9.878 37.581-9.878h33.284v9.017h-33.284c-13.833 0-23.642 4.426-34.028 9.112-11.613 5.24-24.774 11.177-44.777 11.177"/>
            <mask id="l" fill="#fff">
                <use xlink:href="#k"/>
            </mask>
            <path fill="#2B2B51" d="M135.68 384.535h2.66v-47.068h-2.66z" mask="url(#l)"/>
            <path fill="#23478D" d="M133.906 349.9h2.66v-13.321h-2.66z" mask="url(#l)"/>
            <path fill="#2474CD" d="M135.236 388.975c-.735 0-1.33-.671-1.33-1.5v-40.24l2.66 1.251v38.99c0 .828-.595 1.499-1.33 1.499" mask="url(#l)"/>
            <path fill="#2B2B51" d="M130.584 394.666c-2.568 5.695-15.77 33.709-19.874 43.51-8.455 20.198 5.385 40.494 26.156 40.494 22.566 0 34.224-23.813 26.668-41.01-4.872-11.091-17.944-36.102-21.155-42.686-.43-.882-11.575-.795-11.795-.308" mask="url(#l)"/>
            <path fill="#D8DDEA" d="M127.39 386.458c.431.273.596.823.387 1.295-2.45 5.501-15.043 32.563-18.957 42.031-8.065 19.511 5.136 39.117 24.949 39.117 21.524 0 32.644-23.003 25.437-39.615-4.647-10.715-17.115-34.876-20.179-41.236a3.33 3.33 0 0 1-.078-2.712c.655-1.593 1.8-3.884.813-4.639-1.468-1.121-4.128 1.06-4.862.187-.908-1.078-3.99-7.988-7.109-7.895-1.33.04-1.45 2.243-1.374 4.016.082 1.888.228 3.6-3.457 2.945-1.26-.223-2.386-.36-2.766.124-1.062 1.352 4.928 4.942 7.196 6.382" mask="url(#l)"/>
            <path fill="#C5CBD8" d="M144.556 399.723l-4.275-8.788s-1.905-1.679-1.905-2.725c0-.688.205-2.085.36-2.897.06-.316-.156-.537-.48-.253l-1.702 1.303c-.339.272-.868.277-.975-.06-.155-.493-.601-1.286-.88-2.003-.24-.615-.96-.855-1.471-.461-1.034.796-1.274 1.41-2.533 1.725-.999.25-1.743-.118-2.4-.189-.232-.024-.415.153-.24.316l2.143 2.032-.243 4c-.123.461-.261.967-.407 1.5l-3.623.878 2.384-.216c.523-.049.93.467.786.996-1.067 3.93-2.207 8.443-1.37 8.48.726.031 2.85-4.567 4.29-7.78.411-.918 1.178-1.815 2.087-1.647.734.134 1.088.744 1.454 2.276 1.02 4.284 3.283 13.728 4.62 13.167 1.333-.56-.197-8.202-.976-12.537-.109-.612.166-.724.586-.283 1.05 1.103 1.975 2.6 2.61 3.622 1.525 2.457 4.8 7.875 5.58 7.938.878.07-3.42-8.394-3.42-8.394" mask="url(#l)"/>
            <path fill="#2474CD" d="M125.604 393.415c-.68 0-1.286-.467-1.425-1.142-.157-.769.353-1.517 1.142-1.671l1.938-.38-.134-.005c-.768-.03-1.38-.637-1.397-1.388-.011-.486.229-.924.608-1.188.048-.745.681-1.33 1.45-1.33h.018l10.909.117c.777.009 1.41.612 1.437 1.37.003.06 0 .12-.005.177.47.209.807.654.85 1.182a1.426 1.426 0 0 1-1.164 1.507l-13.94 2.723a1.48 1.48 0 0 1-.287.028" mask="url(#l)"/>
            <path stroke="#2474CD" stroke-linecap="round" stroke-width="12" d="M79.811 332.138h32.279c29.466 0 41.57 20.426 76.538 20.426 36.558 0 47.928-20.426 78.739-20.426h33.256" mask="url(#l)"/>
            <path fill="#E09595" d="M167.654 344.571s-1.885-.566-2.753-1.55c-.494-.558-.827-1.157-.844-1.49-.016-.32.241-.57.518-.5 0 0 1.25.525 1.805.734.555.21 1.285.562 2.22.629h1.664l-2.61 2.177z" mask="url(#l)"/>
            <path fill="#FFAEAE" d="M172.768 341.907s-6.717.66-7.91.85c-1.193.188-2.107.788-3.076 1.384-1.381.85-2.437 1.458-3.076 2.14-1.005 1.07-2.009 2.139-2.574 3.146-.505.899 2.523 2.582 3.64 2.83 2.261.505 3.642.378 5.212-.314 1.547-.682 2.51-1.384 3.766-1.699 1.652-.413 2.134-.188 4.834-.786 1.605-.355 2.888-1.195 2.888-1.195l-3.704-6.356z" mask="url(#l)"/>
            <path fill="#42426C" d="M214.342 291.464c-1.785.405-2.816 1.417-2.816 1.417l-10.694 23.286a16.31 16.31 0 0 1-4.81 6.072l-23.817 18.573a.436.436 0 0 0-.108.563l3.815 6.516a.466.466 0 0 0 .619.18l27.626-14.163c2.358-1.23 4.21-2.74 6.479-6.262l11.103-16.75c2.395-3.663 3.163-8.455 2.24-12.432-.922-3.976-4.847-8.086-9.637-7" mask="url(#l)"/>
            <path fill="#2B2B51" d="M176.44 343.516c2.1-.845 21.166-7.607 21.166-7.607 2.038-.633.502.291.139.496-3.996 2.26-10.436 5.905-15.191 8.014-1.972.874-4.014 1.205-5.435.964-1.074-.183-2.46-1.152-.679-1.867" mask="url(#l)"/>
            <path stroke="#23478D" stroke-linecap="round" stroke-linejoin="round" stroke-width="5" d="M126.292 329.474l-.367 9.538 4.047-8.66-.613 9.6 4.046-8.846-.613 9.913 4.66-7.843" mask="url(#l)"/>
            <path fill="#2B2B51" d="M185.19 455.949h20.485l.045.003c.007-.102.016-.204.016-.307v-11.672c0-2.408-1.975-4.378-4.39-4.378h-20.484c-2.415 0-4.39 1.97-4.39 4.378v11.672c0 2.392 1.95 4.35 4.344 4.376a4.397 4.397 0 0 1 4.374-4.072" mask="url(#l)"/>
            <path fill="#FFAEAE" d="M136.566 332.134s1.856.088 3.177-.53c1.544-.721 1.3-2.488 1.135-3.418-.272-1.541-.998-2.264-.998-2.264l-3.314 6.212z" mask="url(#l)"/>
            <path fill="#FFAEAE" d="M135.175 333.67c-.088-1.395.27-3.104.27-3.104l-7.747-6.41s2.282-.909 7.627-1.724c1.953-.297 2.958.517 3.544 1.504.173.293 1.762 2.786 1.762 2.786a2.52 2.52 0 0 1-.343 3.07l-1.419 1.432-1.955 4.467c-.933-.068-1.648-.611-1.739-2.022" mask="url(#l)"/>
            <path fill="#23478D" d="M134.999 333.915h-2.867c0-4.443 3.272-9.766 8.685-10.657l-.936 1.114c-.284.37-.176.442-.01.586l1.052.912c.14.121.08.348-.1.39-3.724.88-5.824 4.81-5.824 7.655" mask="url(#l)"/>
            <path fill="#FFAEAE" d="M134.702 326.816l1.864-3.274s-.79-1.707-4-1.001c-1.732.38-3.585.828-4.755 1.116-.749.183-1.35.757-1.598 1.52l-1.12 3.444c-.203.822.167 1.68.888 2.063 0 0 4.12 2.085 4.36 2.32.066.064.131.133.194.201.212.233.495.378.8.423l1.893.277c.607.088 1.13-.45 1.059-1.089l-.373-3.044c-.09-1.08.212-1.938.788-2.956" mask="url(#l)"/>
        </g>
    </g>
</svg>
