<?xml version="1.0" encoding="UTF-8"?>
<svg width="683px" height="683px" viewBox="0 0 683 683" version="1.1" xmlns="http://www.w3.org/2000/svg" xmlns:xlink="http://www.w3.org/1999/xlink">
    <!-- Generator: sketchtool 51.3 (57544) - http://www.bohemiancoding.com/sketch -->
    <title>E18C72BA-28D3-4191-8BB2-CF8E46873E64</title>
    <desc>Created with sketchtool.</desc>
    <defs>
        <path d="M-1.0304535e-12,62.719042 C-1.0304535e-12,93.6247227 40.8117539,147.323966 48.4954375,157.359227 C49.2905746,158.397849 50.5127786,159 51.8115906,159 L72.1655151,159 C73.4775353,159 74.7120671,158.381815 75.5072042,157.324487 C83.1979321,147.093261 124,92.4836639 124,62.719042 C124,28.0802017 96.242407,1.46743728e-13 61.9995597,1.46743728e-13 C27.757593,1.46743728e-13 -1.0304535e-12,28.0802017 -1.0304535e-12,62.719042 Z" id="path-1"></path>
        <path d="M-3.41948692e-14,15.3678368 C-3.41948692e-14,29.3394066 4.66680608,38 11.9005298,38 C19.1351248,38 25,26.0396244 25,15.5458186 C25,5.05201283 14.4840025,6.07291994e-14 7.2494075,6.07291994e-14 C0.0156838143,6.07291994e-14 -3.41948692e-14,3.58010351 -3.41948692e-14,15.3678368" id="path-3"></path>
        <radialGradient cx="-112.714697%" cy="52.9417885%" fx="-112.714697%" fy="52.9417885%" r="166.337447%" gradientTransform="translate(-1.127147,0.529418),scale(1.000000,0.657895),translate(1.127147,-0.529418)" id="radialGradient-5">
            <stop stop-color="#FFE8E8" offset="0%"></stop>
            <stop stop-color="#FDACAC" offset="100%"></stop>
        </radialGradient>
        <polygon id="path-6" points="1 1 61 1 61 123 1 123"></polygon>
        <path d="M6.41667984,1.0384499 C-0.595579034,1.68583895 0.831480309,8.3019047 1.86427971,15.5734071 C3.0165246,23.6890191 4.97525112,28.5265533 10.9825513,27.9542757 C16.9898514,27.3828922 22.6756366,21.3811308 21.9347153,13.6634306 C21.2288194,6.3069807 13.2295635,1 7.27794473,1 C6.98606664,1 6.6977809,1.01251857 6.41667984,1.0384499" id="path-8"></path>
        <radialGradient cx="-153.207959%" cy="56.1578571%" fx="-153.207959%" fy="56.1578571%" r="202.92035%" gradientTransform="translate(-1.532080,0.561579),scale(1.000000,0.777778),translate(1.532080,-0.561579)" id="radialGradient-10">
            <stop stop-color="#FFE8E8" offset="0%"></stop>
            <stop stop-color="#FDACAC" offset="100%"></stop>
        </radialGradient>
        <polygon id="path-11" points="0 679 530 679 530 3.2018832e-13 0 3.2018832e-13"></polygon>
    </defs>
    <g id="Symbols" stroke="none" stroke-width="1" fill="none" fill-rule="evenodd">
        <g id="Иллюстрация-/-Рефинансирование">
            <g>
                <rect id="Rectangle-8-Copy-6" fill-rule="nonzero" x="0" y="0" width="683" height="683"></rect>
                <g id="Group-272" transform="translate(77.000000, 1.000000)">
                    <g id="Group-27" transform="translate(0.000000, 112.000000)">
                        <path d="M49.8266682,157.469567 C49.8266682,157.469567 50.439883,152.625853 47.7840644,147.202472 C45.9062568,143.368238 47.7840644,139.394023 49.4181474,135.055498 L51.0522304,130.71787 C51.0522304,130.71787 51.8562617,129.010277 53.9803961,130.862338 C55.8859589,132.525065 56.5668268,134.838347 56.5668268,137.441463 C56.5668268,140.044578 55.3412646,142.864844 55.9544794,144.599357 C56.5668268,146.334767 57.9285627,149.372183 57.9962158,151.685465 C58.0647362,153.998747 57.1800416,160 57.1800416,160 L49.8266682,157.469567 Z" id="Fill-1" fill="#D8DDEA"></path>
                        <path d="M78,161.94865 C78,162.700785 74.7613172,163.916614 69.8106971,164.922502 C65.9034111,165.715712 60.9640938,167 55.478765,167 C46.6556367,167 37.3699636,164.188623 32.7158243,162.553826 C31.7350903,162.208794 31.7707375,161.599966 32.7697299,161.313352 C34.7772785,160.735559 38.4845922,160.122168 40.3269462,159.548939 C44.1481572,158.359581 49.8160694,156.90369 54.7614728,157.005009 C59.5008178,157.101764 65.1661217,159.234029 68.9229937,159.835554 C75.0256285,160.810408 78,161.053208 78,161.94865" id="Fill-3" fill="#E9EEFB"></path>
                        <path d="M53.7487649,162.990266 C53.7487649,162.990266 47.6541693,163.31786 49.2738119,160.172062 C51.2311027,156.368384 53.1892844,151.718347 54.2387557,148.477413 C54.6957836,147.063823 56.5123134,144.9394 60.0429203,142.066447 C63.6786526,139.107333 67.1754056,134.598206 68.854738,131.920912 C70.2578937,129.682504 70.5322886,128.539965 72.21073,129.173612 C73.8891715,129.807259 76.8308985,134.089314 75.7778636,139.107333 C75.0081324,142.770998 72.6018318,147.085363 68.6444874,149.25197 C65.4274746,151.013796 65.3579849,152.986539 65.5673447,153.831103 C65.7767044,154.676564 66.6159251,158.129313 63.0496825,160.453883 C59.4834398,162.77935 53.7487649,162.990266 53.7487649,162.990266" id="Fill-5" fill="#E9EEFB"></path>
                        <path d="M70,164 L78.3488503,163.937467 C78.3488503,163.937467 80.3305535,163.988918 79.9519112,162.757247 C79.6847344,161.887319 79.2839692,160.831375 79.2839692,160.831375 C79.2839692,160.831375 79.1503808,159.837172 77.2137742,160.023189 C75.4150105,160.196542 71.7366494,160.520291 71.7366494,160.520291 L70,164 Z" id="Fill-7" fill="#E9EEFB"></path>
                        <path d="M10.627032,220.322481 L10.275482,222.214551 C9.53266369,224.398128 8.7830848,225.400187 7.84082947,226.865016 C6.9332221,228.276097 6.90026429,230.29388 7.09885622,232.332614 C7.41153288,235.533737 7.94054797,238.771299 8.83547926,238.985375 C9.73125562,239.200363 11.377456,237.051401 11.576893,232.117627 C11.6343579,230.676484 12.1219644,229.893967 12.9788675,229.166108 C14.0030948,228.294316 14.7070398,227.061784 14.9597163,225.681675 L16,220 L10.627032,220.322481 Z" id="Fill-9" fill="#C5CBD8"></path>
                        <path d="M29,218.333611 C29,218.627582 23.6960755,220 15.7015279,220 C11.2012283,220 9.25689035,219.706029 5.88166567,219.608594 C3.32570401,219.533644 -2.46685159e-13,219.427881 -2.46685159e-13,218.676716 C-2.46685159e-13,218.284477 2.25014979,217.107761 4.85823847,216.715523 C6.98067705,216.396569 10.0752846,215 14.0656081,215 C18.5659077,215 20.8403835,215.971019 22.9645596,216.372418 C27.3032654,217.192705 29,217.744837 29,218.333611" id="Fill-11" fill="#D8DDEA"></path>
                        <path d="M12,219 C12,219 13.690265,220.235346 14.0069654,222.0005 C14.697785,225.84642 13.5843992,227.22602 14.9579638,229.838343 C16.6796297,233.115112 21.0820345,240 23.0916914,240 C24.8878223,240 25.4162544,235.54821 24.6760906,233.129101 C24.0184663,230.977519 22.3524248,230.322689 22.5632593,228.387052 C22.774991,226.451415 22.8916229,224.220275 21.9298585,222.67806 C20.2395935,219.967818 19.394461,219 19.394461,219 L12,219 Z" id="Fill-13" fill="#D8DDEA"></path>
                        <path d="M24,217.030991 L28.9213523,217.001562 C28.9213523,217.001562 29.8896102,216.923085 29.9571631,217.878548 C30.0063682,218.571111 29.9996964,219.383353 29.9996964,219.383353 C29.9996964,219.383353 29.9137958,220.121041 28.6619826,219.982725 C27.4994059,219.854218 25.1225454,219.613881 25.1225454,219.613881 L24,217.030991 Z" id="Fill-15" fill="#D8DDEA"></path>
                        <path d="M469.920311,184 L459.079689,184 C456.82694,184 455,182.132221 455,179.827985 L455,169 L474,169 L474,179.827985 C474,182.132221 472.173956,184 469.920311,184" id="Fill-17" fill="#FF7E59"></path>
                        <path d="M473.945377,159 C475.395644,159 476.762258,158.31679 477.639287,157.147227 C485.646132,146.479529 526,92.3162017 526,62.719042 C526,28.0802017 498.242407,1.01085806e-13 463.99956,1.01085806e-13 C429.757593,1.01085806e-13 402,28.0802017 402,62.719042 C402,93.4403361 442.336257,146.684403 450.354549,157.175731 C451.2351,158.326588 452.589387,159 454.029087,159 L473.945377,159 Z" id="Fill-19" fill="#82AEF4"></path>
                        <path d="M473.739115,159 C473.739115,159 516,95.6511933 516,62.719042 C516,28.0802017 492.495017,1.01085806e-13 463.499563,1.01085806e-13 C434.504983,1.01085806e-13 411,28.0802017 411,62.719042 C411,96.9098319 453.26001,159 453.26001,159 L473.739115,159 Z" id="Fill-21" fill="#73A0F9"></path>
                        <path d="M471.176916,159 C471.176916,159 502,95.6511933 502,62.719042 C502,28.0802017 484.98668,1.01085806e-13 463.999118,1.01085806e-13 C443.01332,1.01085806e-13 426,28.0802017 426,62.719042 C426,96.9098319 456.823084,159 456.823084,159 L471.176916,159 Z" id="Fill-23" fill="#82AEF4"></path>
                        <path d="M467.977209,159 C467.977209,159 481,95.6511933 481,62.719042 C481,28.0802017 473.612761,1.01085806e-13 464.499557,1.01085806e-13 C455.387239,1.01085806e-13 448,28.0802017 448,62.719042 C448,96.9098319 461.022791,159 461.022791,159 L467.977209,159 Z" id="Fill-25" fill="#97BEF7"></path>
                    </g>
                    <g id="Group-30" transform="translate(402.000000, 112.000000)">
                        <mask id="mask-2" fill="white">
                            <use xlink:href="#path-1"></use>
                        </mask>
                        <g id="Clip-29"></g>
                        <polygon id="Fill-28" fill="#FFFFFF" mask="url(#mask-2)" points="-4 89 128 89 128 45 -4 45"></polygon>
                    </g>
                    <g id="Group-51" transform="translate(123.000000, 163.000000)">
                        <path d="M337.289971,28.1281423 C337.403812,28.5218482 337.397016,28.6798724 337.510857,28.7367611 C337.56438,28.7620449 339.0749,29.2433413 339.115679,28.8387995 C339.593982,24.5062287 350.729187,20.0183427 351.48105,23.7341678 C352.471639,22.1575383 353.504706,20.5809087 353.904,18.6367601 C353.915044,18.3640556 354,18.276465 354,18.276465 C353.009411,14.8884272 334.478771,18.2692411 337.289971,28.1281423 M355,13.4046961 L355,13.3973308 C354.832098,11.401352 354.300261,9.4569298 353.431741,7.67178083 C347.792515,0.582741606 326.112043,7.88445201 333.528746,26.2063961 C333.757304,26.7670747 334.059703,27.0837798 334.206508,26.9806665 C334.35595,26.8775532 335.03547,26.8131074 334.960749,26.2643973 C332.991635,11.926125 350.170396,8.50405245 355,13.4037754 M349.045031,3.00447039 C349.167705,3.05502954 350.208685,3.54256424 349.96246,3.24462637 C349.709225,2.92863166 349.402539,2.6631961 349.056422,2.46005665 C331.680471,-7.7772691 318.065366,16.5471008 331.323839,27.5942758 C331.82768,28.0177088 332.179931,28.3156466 332.296472,28.3219665 C332.455948,28.3346063 335.410649,30.5131641 333.24457,26.9929831 C325.02188,13.6724518 334.781504,-4.13069015 349.045031,3.00447039" id="Fill-31" fill="#D8DDEA"></path>
                        <path d="M353.396287,8.54113088 C352.228694,12.1908306 341.37206,5.9065914 339.728267,2.44113786 C339.55974,2.06722653 339.409361,1.97871612 339.349728,2.00400481 C339.228734,2.04193784 339.144903,2.18102563 339.066256,2.58745099 C338.055091,7.71563582 348.859006,17.0020036 354.998596,14.614932 C355.002917,14.4686189 354.998596,14.3223058 354.966619,14.1768958 C354.785128,12.2125066 354.251889,10.3005011 353.395423,8.54113088 M335.385495,2.87205259 C335.479718,2.35815827 335.539137,2.14675692 335.415205,2.02644721 C335.291272,1.90527815 335.012848,2.21378662 334.675854,2.67955706 C328.06753,11.9614511 342.50313,26.0626083 351.894844,22.4086306 C352.913468,20.8222611 353.627353,19.0562865 354,17.2026576 L354,17.1966421 C348.844914,21.2545167 333.759941,11.7491904 335.385495,2.87205259 M333.974886,1.78134155 C334.39553,1.39476062 334.804805,1.02567204 334.650889,1.00118276 C334.535453,0.982815788 334.121805,1.17960472 333.555117,1.50496243 C322.959442,7.59142548 325.456195,26.508527 339.255233,29.9256575 L339.255233,29.9379022 C339.657512,29.9746361 340.065038,30 340.467316,30 C342.081679,30 343.688171,29.7297432 345.212457,29.1944773 C346.551346,28.6906976 347.306056,28.3032421 348.585478,27.5038417 C348.726275,27.4120069 348.866199,27.3140497 349,27.2160926 C336.965742,31.0005624 323.099366,12.2356443 333.974886,1.78134155" id="Fill-33" fill="#C5CBD8"></path>
                        <path d="M122.418481,255 C100.849389,255 86.278994,248.429636 73.424979,242.634278 C61.9544069,237.460513 51.1207968,232.575061 36.3129645,232.575061 L-1.89291291e-13,232.575061 L-1.89291291e-13,206 L36.3129645,206 C74.826821,206 83.4919568,228.423176 122.418481,228.423176 C142.81791,228.423176 156.003986,222.574035 168.757244,216.917103 C180.856016,211.549366 211,206 211,206 L211,232.575061 C211,232.575061 184.425457,237.466685 172.751617,242.646622 C159.69784,248.436689 144.904902,255 122.418481,255" id="Fill-35" fill="#23478D"></path>
                        <path d="M89.2591675,133 C89.2591675,133 82.3146818,134.747641 80.4150494,137.439471 C78.9027378,139.581712 78.2258067,143.887571 78.0488715,144.509311 C78.0259844,144.539596 77.9960551,144.57968 77.9731679,144.609965 C77.9731679,144.609965 64.7637686,150.165539 61.8615035,151.91318 C58.9601187,153.660821 56.7831998,156.633236 55.4839146,159.733027 C54.8738844,161.188504 49.6661803,176.000696 46.52272,185.545024 C43.8678121,193.604482 41.8000473,198.341461 41.305333,199.354238 C40.8106187,200.366124 40.0500615,201.188281 38.4726096,201.381573 C36.4682245,201.625637 26,202.465609 26,202.465609 L33.7737042,216.623994 C33.7737042,216.623994 43.2287328,218.569381 48.2154879,219.560779 C52.0851747,220.330383 55.8853198,217.113013 58.0965694,214.246597 C62.8975866,208.021183 66.2840026,197.710814 66.2840026,197.710814 L67.959165,212.878413 C68.2848666,215.827669 68.2699019,218.804537 67.9160316,221.748448 L67.0445598,229 L122.702557,229 L123.73952,165.757133 L134,154.744857 L114.351393,144.736451 C113.905093,144.488824 113.589075,144.059485 113.485202,143.554433 C112.985206,141.148532 113.045065,138.224217 111.664795,136.863159 C109.66041,134.887488 105.773998,133.90945 105.773998,133.90945 L89.2591675,133 Z" id="Fill-37" fill="#D8DDEA"></path>
                        <path d="M87.8001408,144.973008 C87.8001408,144.973008 85.7569424,144.151154 83.8187515,142.56236 C81.5539693,140.70551 81.0938937,138.06869 84.237892,136.424981 C85.9981039,135.504468 87.8846808,135 88.0448619,135 C88.3589948,135 106.765579,135.438384 106.765579,135.438384 C106.765579,135.438384 108.210768,136.022897 109.908687,136.91828 C112.525868,138.298585 112.58905,140.654319 110.64196,142.342703 C108.493754,144.206069 106.765579,145 106.765579,145 L87.8001408,144.973008 Z" id="Fill-39" fill="#2474CD"></path>
                        <path d="M107,144.072395 C107,144.072395 103.616646,146.05197 97.6437169,145.998954 C91.6716781,145.945937 88,144.072395 88,144.072395 L88,125 L107,125 L107,144.072395 Z" id="Fill-41" fill="#E09595"></path>
                        <path d="M119.694604,196 C119.694604,196 123.911714,219.781801 125,223.79182 C104.459463,231.396148 88,229.875987 88,229.875987 C88,229.875987 96.2981828,224.621479 108.540537,212.039196 C113.613718,206.825202 119.694604,196 119.694604,196" id="Fill-43" fill="#C5CBD8"></path>
                        <path d="M66.977506,228.078456 C66.977506,228.078456 68.1087574,218.405185 67.6457742,213.330153 C67.3819611,210.431674 66,198 66,198 L78,230 L66.977506,228.078456 Z" id="Fill-45" fill="#C5CBD8"></path>
                        <path d="M57.8928756,208.793942 C56.0750206,209.831509 54.8913831,210.306592 53.1609759,208.249631 C52.6265724,207.633495 51.3581371,206.348435 50.5260577,205.736625 C46.6986689,202.92507 44.4939234,202.40845 44.4939234,202.40845 C44.4939234,202.40845 46.2967622,203.97129 47.8222412,205.669127 C49.1410253,207.137643 50.4218269,209.317485 51.1434924,212.153271 C51.3219214,212.849885 51.0286619,213.650344 49.0526941,213.599287 C47.9255886,213.57073 45.9646371,213.513617 43.95952,213.452176 C41.7821571,213.385543 40.0473333,211.724052 39.8220889,209.602189 C39.8220889,209.594401 39.8212056,209.586612 39.8203223,209.579689 C39.7858731,209.280275 39.5438458,209.047493 39.2364534,209.020667 L37.8196217,208.962688 L36,213.904759 C36,213.904759 48.5324236,218.38819 50.2486979,219 C54.7730194,219 60.6488075,212.528837 65,202 C62.7758216,205.460575 59.9571746,207.614457 57.8928756,208.793942" id="Fill-47" fill="#C5CBD8"></path>
                        <path d="M38,209 C38,212.865399 34.865399,216 31,216 C27.133731,216 24,212.865399 24,209 C24,205.133731 27.133731,202 31,202 C34.865399,202 38,205.133731 38,209" id="Fill-49" fill="#E09595"></path>
                    </g>
                    <g id="Group-54" transform="translate(206.000000, 268.000000)">
                        <mask id="mask-4" fill="white">
                            <use xlink:href="#path-3"></use>
                        </mask>
                        <g id="Clip-53"></g>
                        <path d="M-3.41948692e-14,15.3678368 C-3.41948692e-14,29.3394066 4.66680608,38 11.9005298,38 C19.1351248,38 25,26.0396244 25,15.5458186 C25,5.05201283 14.4840025,6.07291994e-14 7.2494075,6.07291994e-14 C0.0156838143,6.07291994e-14 -3.41948692e-14,3.58010351 -3.41948692e-14,15.3678368" id="Fill-52" fill="url(#radialGradient-5)" mask="url(#mask-4)"></path>
                    </g>
                    <g id="Group-122" transform="translate(65.000000, 193.000000)">
                        <path d="M145.183089,81.6203067 C145.183089,81.6203067 150.425705,86.4487494 161.883756,86.8409985 C163.230669,86.8868808 164.273355,87.9583686 164.325534,89.3888184 C164.377712,90.8183685 164.377712,93.3077109 164.898613,94.6850811 C165.860821,97.230202 165.592853,99.1338697 166.009397,98.9926241 C166.425941,98.8513784 170.052791,97.3327626 170.8337,90.0239741 C171.295347,85.7020366 171.007923,80.2078501 167.189162,77.1715181 C164.282199,74.8594075 163.648982,70.0390617 154.832579,71.169027 C150.466386,71.7286118 148.931984,71.2392001 145.390919,73.4991307 C141.521748,75.9695804 140.127963,79.0994764 140.011224,82.238369 C139.837885,86.9165694 141.729578,92.0014134 141.729578,92.0014134 L141.786179,86.8365002 C141.816248,85.1397529 142.619266,83.5527634 143.959989,82.542452 L145.183089,81.6203067 Z" id="Fill-55" fill="#423748"></path>
                        <path d="M168.193053,97.1851863 C167.346761,100.141739 165.791222,102.283374 164.718007,101.969459 C163.645681,101.655545 163.880614,97.1105304 164.726016,94.1548769 C165.572307,91.1992233 167.157213,90.3645165 168.382601,91.465466 C169.396193,92.3766276 169.039344,94.2286333 168.193053,97.1851863" id="Fill-57" fill="#FFAEAE"></path>
                        <path d="M133.258329,166.999254 C132.981129,167.018989 132.896109,166.641441 133.157368,166.550486 C137.21972,165.122665 148.096941,161.492189 154.780738,161.060582 C163.12242,160.521717 178,163.754908 178,163.754908 L133.258329,166.999254 Z" id="Fill-59" fill="#C5CBD8"></path>
                        <path d="M124,168.482868 L120,146 L120.859186,176 C120.859186,176 122.210997,173.034792 122.614215,172.034967 C123.017434,171.034265 124,168.482868 124,168.482868" id="Fill-61" fill="#C5CBD8"></path>
                        <path d="M137,119 C141.219525,123.704742 143.737556,125.782341 151.482505,130.69604 C152.443084,131.341319 151.923634,132.098902 151.082789,131.98936 C149.711691,131.80986 147.236873,131.369855 144.660324,129.509498 C138.678988,125.190451 137,119 137,119" id="Fill-63" fill="#C5CBD8"></path>
                        <path d="M160.319063,129.654558 C163.579138,127.366549 169.230632,123.039525 171.643855,119 C171.643855,119 173.491929,124.440225 168.768396,127.866249 C166.151963,129.763226 163.094226,130.609464 160.885957,130.987662 C160.095794,131.122854 159.665827,130.112331 160.319063,129.654558" id="Fill-65" fill="#C5CBD8"></path>
                        <path d="M160.453703,121.200777 C161.366299,119.677383 163.129331,117.837023 164.419584,118.011533 C165.565743,118.166454 164.729433,120.103862 164.325405,120.999557 C162.711176,124.578775 160.588379,127.952322 158.030476,131 C158.030476,131 157.544512,126.058542 160.453703,121.200777" id="Fill-67" fill="#C5CBD8"></path>
                        <path d="M161,132 C165.436601,128.900758 170.745094,127.26689 176.093456,127.00608 C178.166585,126.904804 178.377191,128.099508 177.543433,128.299373 C174.833284,128.945571 172.312075,129.523654 169.731064,130.071264 C165.014521,131.071482 161,132 161,132" id="Fill-69" fill="#C5CBD8"></path>
                        <path d="M126,126 L135.777125,128.18679 C136.08274,128.254824 136.070888,128.714271 135.76104,128.761099 C134.264291,128.986404 131.799057,129.198457 129.521763,128.670093 C126.914304,128.06486 126,126 126,126" id="Fill-71" fill="#C5CBD8"></path>
                        <path d="M43.3645518,374 C42.5188731,374 41.8032987,373.333487 41.7373791,372.458688 C41.7261034,372.317763 41.1345619,358.296163 36.966016,349.510949 C34.4853582,344.281654 31.2804525,339.678989 27.1613462,334.761679 C22.0352317,328.63986 14.9271931,320.82428 10.1402174,310.410894 C1.86557575,292.406168 3.05993441,279.696323 3.05993441,278.337593 C3.05993441,277.189807 3.33922525,273.211112 3.44330879,270.459085 C3.46846232,269.780163 4.07561632,269.902475 4.15801579,270.510492 C4.26036461,271.26741 4.83629355,274.677087 5.07134888,275.429574 C5.30640422,276.181174 5.57962352,275.868303 5.88580261,275.485412 C6.1919817,275.102521 6.66295973,274.17277 6.87286155,274.303059 C7.19638789,274.502482 6.58316235,276.198014 6.59530543,278.676168 C6.59964224,279.433972 5.66462508,293.01507 13.5255347,310.118408 C18.1242926,320.1232 23.7829679,326.87874 28.7746412,332.840135 C32.8633897,337.720219 36.7248891,342.331748 39.3894279,347.947478 C43.8311931,357.307915 44.9500912,371.59807 44.995194,372.202541 C45.0637157,373.122542 44.3915095,373.923776 43.4911868,373.994682 C43.448686,373.998227 43.4061853,374 43.3645518,374" id="Fill-73" fill="#23478D"></path>
                        <g id="Group-77" transform="translate(0.000000, 364.000000)">
                            <mask id="mask-7" fill="white">
                                <use xlink:href="#path-6"></use>
                            </mask>
                            <g id="Clip-76"></g>
                            <path d="M45.099374,7.42726766 C45.4111697,6.37970537 45.6708523,5.12209661 46.1389875,2.81603553 C46.5126124,0.976348821 48.6872332,-0.798365882 50.7673435,4.65038207 C52.8474539,10.10002 50.6975649,17.9242512 50.6975649,17.9242512 C50.6975649,17.9242512 61.7508563,50.6639104 60.9594428,86.9503288 C60.4047467,112.380193 43.7753462,123 29.3435315,123 C15.1987809,123 -0.031513501,112.696152 1.05491358,90.7925773 C2.09452713,69.8333212 21.2315427,58.9340453 34.3349132,41.957662 C44.5270124,28.753215 43.7647469,21.8368118 43.7647469,21.8368118 C43.7647469,21.8368118 37.1993709,22.328107 32.0472334,21.680167 C28.3030347,21.2075624 24.2991534,20.2125117 22.4796089,19.3215943 C19.3192543,17.7756166 21.6475647,13.6627999 26.847399,12.824394 C29.4468746,12.4051911 31.3759451,12.6250279 32.6796576,12.6846597 C34.595479,12.7718824 35.0591979,12.273467 35.6006449,11.1822934 C35.6006449,11.1822934 36.7268193,8.05651706 37.351294,6.64137344 C37.7293353,5.78516704 38.9615026,5.05000438 40.3146785,6.01301407 C41.1988358,6.64137344 42.1722038,7.5776823 42.9150373,8.37069674 C43.7991946,9.31412582 44.786695,8.47571998 45.099374,7.42726766" id="Fill-75" fill="#D8DDEA" mask="url(#mask-7)"></path>
                        </g>
                        <path d="M41.9574397,390.422889 C41.3540923,394.328184 40.1465431,397.329385 39.0731659,400.817747 C38.8073854,401.681837 39.288525,401.907638 40.1465431,400.887087 C41.085748,399.771416 41.8241221,398.654856 43.0316714,396.561305 C43.6486923,395.490971 44.3733928,394.118384 44.825476,393.124503 C45.1057847,392.510217 45.6082893,392.710238 45.6809302,393.385864 C45.8697968,395.141602 46.1817256,397.573854 46.4090491,400.104784 C46.4697257,400.781299 47.0628178,400.815969 47.2491206,400.071892 C47.8046103,397.460954 48.1806342,395.620763 48.5489666,394.328184 C48.951483,392.915593 49.8804328,393.115614 50.3094418,394.380634 C50.9136438,396.159485 51.5178457,398.148136 52.0203503,400.242576 C52.5296917,402.361018 53.2860123,406.078738 53.6808374,405.998729 C54.2474369,405.884051 53.9414902,402.249007 53.6663092,400.063002 C53.107401,395.610984 51.4323857,388.237774 50.0077682,384 C47.0064143,385.465041 41.9574397,390.422889 41.9574397,390.422889" id="Fill-78" fill="#C5CBD8"></path>
                        <path d="M42.9210545,385.684801 C36.153503,386.406868 31.2442362,385.719783 29,385.297306 C30.2043115,385.258736 32.8184178,385.056019 34.0146887,384.910709 C36.3286106,384.628161 38.0117877,383.924033 36.538561,382.86829 C35.9069229,382.414419 36.2589249,381.691455 37.6615725,382.094198 C39.6252792,382.6575 41.4799904,383.018086 43.201584,382.586639 C44.6042316,382.234127 44.9946501,380.559469 45.2349764,379.206826 C45.5851916,377.235269 46.4509021,376.563433 46.4973593,378.57356 C46.5679383,381.60086 47.9973882,381.007061 48.9515459,379.629303 C49.9057037,378.252442 50.4596155,376.847775 50.9858317,375 C51.0912536,376.742828 50.6177484,381.495017 49.2499436,382.603682 C44.7257349,386.273218 42.9210545,385.684801 42.9210545,385.684801" id="Fill-80" fill="#C5CBD8"></path>
                        <polyline id="Stroke-82" stroke="#23478D" stroke-width="4" stroke-linecap="round" stroke-linejoin="round" points="43.3364606 387.377373 50.6285872 383 42 392 52 387.51638"></polyline>
                        <path d="M33,377.0973 C33,377.0973 24.849714,386.051348 21.3562206,381.903087 C19.9115361,380.18647 23.156008,377.861478 25.8017494,377.316166 C28.4483898,376.769927 33,377.0973 33,377.0973" id="Fill-84" fill="#C5CBD8"></path>
                        <path d="M103,18.6693624 L111.042004,32.9225252 C113.999731,38.7088275 119.240784,41.3300575 124.040411,40.9668967 L223.668594,40.9668967 C229.306405,40.9668967 234.450239,38.7088275 237.25119,32.7831937 L246,15" id="Stroke-86" stroke="#23478D" stroke-width="12" stroke-linecap="round"></path>
                        <path d="M299,181 L244,4" id="Stroke-88" stroke="#23478D" stroke-width="12" stroke-linecap="round"></path>
                        <path d="M62,182 L108,1" id="Stroke-90" stroke="#23478D" stroke-width="12" stroke-linecap="round"></path>
                        <path d="M236,41 C241.782523,41 247,36.7614761 247,29.6957696 L247,15" id="Stroke-92" stroke="#2474CD" stroke-width="12" stroke-linecap="round"></path>
                        <path d="M231,38 C227.93159,36.088691 225.86542,32.7695139 226.006834,28.4178412 L226.02202,14" id="Stroke-94" stroke="#23478D" stroke-width="12" stroke-linecap="round"></path>
                        <path d="M100,39 C102.958433,37.1435577 105,33.886313 105,29.5590727 L105,15" id="Stroke-96" stroke="#2474CD" stroke-width="12" stroke-linecap="round"></path>
                        <path d="M201.224826,177.932853 C202.157914,178.383506 202.493791,180.453808 200.14008,183 C204.713836,181.160433 205.068564,172.534024 204.991449,171 C204.041225,172.109509 200.644753,175.332582 197.138606,177.800361 C196.858423,177.997747 197.038357,178.320415 197.363952,178.223975 C198.688611,177.83461 200.291739,177.482199 201.224826,177.932853" id="Fill-98" fill="#2B2B51"></path>
                        <path d="M216.527495,143 C216.214133,143.722994 214.412801,153.989508 215.195208,155.723773 C215.683214,156.804119 217.638234,157.062003 218.636202,156.988322 C219.018424,156.960691 219.135186,156.50387 218.812842,156.31322 C218.083328,155.881266 217.202122,155.183139 217.076378,154.277785 C216.684176,151.458569 216.527495,143 216.527495,143" id="Fill-100" fill="#2B2B51"></path>
                        <path d="M200.296667,160.794725 C198.750848,161.294536 198.87667,160.758309 199.213909,160.487919 C200.938618,159.106839 203.098998,157.020197 203.454211,155.006387 C204.148375,151.068896 205.066793,143 205.066793,143 C205.066793,143 206.410611,153.648066 205.873084,156.50673 C205.508456,158.444066 202.841362,159.970811 200.296667,160.794725" id="Fill-102" fill="#2B2B51"></path>
                        <path d="M210,127.436875 C210,127.436875 218.753834,123.795599 228.135513,124.009029 C233.43488,124.129137 238.56565,125.624878 240.542266,126.283315 C241.076154,126.460453 241.164842,127.162959 240.692422,127.463662 L236.198278,130.378239 C235.82157,130.618456 235.669658,131.085929 235.836498,131.496372 L238.044055,137.126785 C238.258313,137.655608 237.714766,138.170606 237.183512,137.945943 C234.902194,136.977297 229.246316,134.919034 223.989977,134.855956 C218.536942,134.790285 212.766032,136.394036 212.766032,136.394036 L210,127.436875 Z" id="Fill-104" fill="#E86A46"></path>
                        <path d="M219.092526,134 C223.568394,146.001858 226.576662,157.272101 229.654434,170.284707 C231.128272,176.51721 227.735059,179.472115 222.379701,178.938739 C215.035463,178.206235 210,176.077174 210,176.077174 L219.092526,134 Z" id="Fill-106" fill="#2B2B51"></path>
                        <path d="M173.683823,137.129631 C172.016576,139.93112 171.280297,149.598039 172.92011,161.501689 C173.961697,169.064816 178.75459,172.846825 179.38025,184.051887 C179.782903,191.262597 176.045756,201 176.045756,201 L213.140231,201 C213.140231,201 211.18803,186.951517 211.056173,181.881179 C210.924315,176.80995 213.362354,169.428831 214.182703,167.173365 C216.182692,161.67299 217.7287,158.957152 218.766747,153.727112 C220.017183,147.424655 220.217182,137.293795 219.808334,135.028515 C219.531345,133.487696 218.975596,131.666729 217.029589,130.265985 C217.029589,130.265985 188.897009,127.464496 182.505896,130.196393 C176.115667,132.927399 175.35107,134.328143 173.683823,137.129631" id="Fill-108" fill="#42426C"></path>
                        <path d="M218.924864,142.842029 C219.059712,139.305839 219.007513,136.293089 218.812636,135.171301 C218.540331,133.592759 217.99398,131.729203 216.080884,130.294995 C216.080884,130.294995 199.394577,128.565724 189,129.103781 C196.753304,136.256549 208.285821,144.225994 218.924864,142.842029" id="Fill-110" fill="#2B2B51"></path>
                        <path d="M190.085465,126 L185,129.478083 C185,129.478083 195.297869,134.714591 206.303098,134.984123 C212.213232,135.129967 215.237022,134.260446 217.436142,132.811245 C218.168014,132.328486 218.187274,131.422043 217.494797,130.888515 C215.099577,129.043322 210.701337,127.159361 210.701337,127.159361 L190.085465,126 Z" id="Fill-112" fill="#E86A46"></path>
                        <path d="M182.857054,128.609991 C184.607859,127.498625 186.728873,127.126984 188.73733,127.62043 C191.828279,128.378827 198.244085,130.197911 208.008492,134.502899 C221.27099,140.350463 221.661426,134.737619 234.099085,128.361045 C243.67443,123.452363 251.141071,118.943773 272.457622,121.990694 C273.018654,122.070712 273.198043,122.805103 272.739017,123.142958 L268.14964,126.509064 C267.495397,126.988285 266.95635,127.383932 267.850658,128.569093 L271.789309,133.782733 C272.143691,134.252175 271.775239,134.921661 271.193983,134.860314 C267.499794,134.469113 257.678229,133.905428 246.386374,137.155063 C228.439528,142.318915 224.712803,148.879531 214.910584,147.902418 C210.308896,147.443646 203.459566,142.745679 195.997322,138.830114 C189.397729,135.367097 182.220398,132.878526 179.411724,131.960982 C178.931594,131.803613 178.850693,131.151018 179.278941,130.879845 L182.857054,128.609991 Z" id="Fill-114" fill="#FF7E59"></path>
                        <path d="M202.593781,175.143476 C202.118756,173.727407 203.104218,172.983722 203.932489,172.097438 C205.992371,169.892558 208.016842,167.491829 209.688067,160.742712 C210.290917,158.304979 210.797035,151.836549 210.931769,153.182221 C211.068231,154.527892 210.433424,159.118158 210.32201,162.533331 C210.271052,164.115465 209.675975,167.605548 211.183101,167.772516 C212.491579,167.917823 215.677703,162.852826 217,159.55769 C215.680294,162.897953 212.138333,172.805924 211.949187,173.160618 C210.593206,175.711167 204.423924,182.370031 199,184 C203.576652,179.96118 203.09299,176.63626 202.593781,175.143476" id="Fill-116" fill="#2B2B51"></path>
                        <path d="M203.477387,179 C203.477387,179 200.000347,183.071205 194.681858,186.499972 C189.363368,189.928738 179,195 179,195 L209,184.785588 L203.477387,179 Z" id="Fill-118" fill="#2B2B51"></path>
                        <path d="M212.602004,177.413423 C211.695636,180.780546 211.683788,183.329464 209.214338,182.965333 C205.958692,182.485937 203.463853,179.999017 204.099411,176.590853 C204.762896,173.027256 208.952837,169.793736 211.937672,170.010293 C215.723937,170.284483 213.266335,174.945713 212.602004,177.413423" id="Fill-120" fill="#FFAEAE"></path>
                    </g>
                    <g id="Group-125" transform="translate(242.000000, 285.000000)">
                        <mask id="mask-9" fill="white">
                            <use xlink:href="#path-8"></use>
                        </mask>
                        <g id="Clip-124"></g>
                        <path d="M6.41667984,1.0384499 C-0.595579034,1.68583895 0.831480309,8.3019047 1.86427971,15.5734071 C3.0165246,23.6890191 4.97525112,28.5265533 10.9825513,27.9542757 C16.9898514,27.3828922 22.6756366,21.3811308 21.9347153,13.6634306 C21.2288194,6.3069807 13.2295635,1 7.27794473,1 C6.98606664,1 6.6977809,1.01251857 6.41667984,1.0384499" id="Fill-123" fill="url(#radialGradient-10)" mask="url(#mask-9)"></path>
                    </g>
                    <g id="Group-271" transform="translate(0.000000, 1.000000)">
                        <path d="M253.002541,312.276928 L253.690376,317 L271,316.166517 L268.328369,304.220809 C268.328369,304.220809 262.422659,302.553842 255.548785,308.380262 C254.245659,309.484494 252.934474,310.48432 253.002541,312.276928" id="Fill-126" fill="#FFAEAE"></path>
                        <path d="M251.172354,314.911131 L251.621397,315.633776 C251.977534,316.205256 252.114312,316.903015 252.002481,317.580495 L251.940544,317.956566 C251.85194,318.494863 252.234744,318.99076 252.745724,318.997213 C252.745724,318.997213 259.128667,320.04892 265.140848,319.998224 C273.649431,319.925407 275,319.273735 275,319.273735 C275,319.273735 273.244261,316.814528 272.433919,314.064972 C271.623578,311.315416 271.353464,309 271.353464,309 C271.353464,309 264.667719,309.506958 259.941589,310.591848 C255.215458,311.67766 251.527631,313.341404 251.527631,313.341404 C251.003748,313.652953 250.840304,314.377442 251.172354,314.911131" id="Fill-128" fill="#FF7E59"></path>
                        <path d="M249.464882,294.044376 C249.952842,298.537599 252.406635,297.824586 252.406635,297.824586 L256.52544,293.637194 C257.554704,297.092015 254.159095,299.868496 257.211033,304.524413 C259.407728,307.874326 263.80112,307.943672 267.645338,309.339469 C272.851122,311.229574 272.3824,315.201818 277.118588,314.992003 C280.230865,314.854202 282.060279,312.898308 280.000877,310.526341 C277.941475,308.153486 279.500674,308.014795 281.442896,308.711805 C283.776885,309.548394 286.11,310.106713 287.414725,309.968022 C291.390115,309.542171 291.697058,305.398342 290.091511,303.477121 C286.590964,299.289729 288.443989,297.405847 285.355323,294.055934 C282.17746,290.610004 278.146978,291.543499 275.471066,285.542459 C273.498238,281.12036 271.352262,276.469777 263.938414,276.330198 C260.367034,276.263519 258.583968,274.237391 255.015211,274.027577 C251.242701,273.806205 247.052189,274.865055 244.7182,279.121792 C243.971393,280.485584 241.594554,281.023455 240.462976,284.425822 C238.630064,289.928997 242.83107,293.584741 242.83107,293.584741 L242.83107,291.439481 C242.778601,289.293331 244.886975,286.731999 245.14757,288.717231 C245.460634,291.104311 247.032076,292.382755 248.311441,292.735705 C248.921829,292.904623 249.394923,293.405154 249.464882,294.044376" id="Fill-130" fill="#423748"></path>
                        <path d="M257.99995,294.596584 C258.012303,298.668518 255.730896,301.101714 254.376875,300.996736 C253.021904,300.891757 252.84897,298.682753 253.093169,295.915048 C253.337367,293.148232 254.162132,291.29242 255.497149,291.053103 C257.261652,290.737277 257.991398,291.819093 257.99995,294.596584" id="Fill-132" fill="#FFAEAE"></path>
                        <polygon id="Fill-134" fill="#2B2B51" points="240 361.002646 251 348 243.259259 370"></polygon>
                        <path d="M159,232 C153.577466,231.826667 148.804726,227.484444 149.006154,220.510222 L149.018796,206" id="Stroke-136" stroke="#23478D" stroke-width="12" stroke-linecap="round"></path>
                        <path d="M344.919271,550 L116.079851,550 C102.78075,550 92,539.090101 92,525.63278 L92,373 L123.865997,373 C143.315986,373 174.079216,399.242442 214.221673,399.242442 C254.365009,399.242442 281.126647,373 300.577514,373 L369,373 L369,525.63278 C369,539.090101 358.21925,550 344.919271,550" id="Fill-138" fill="#42426C"></path>
                        <path d="M369,373 L335.34485,373 L335.311464,534.942198 L107.802264,534.942198 C98.3451546,534.942198 92,527.970582 92,518.968761 L92,525.661512 C92,539.102965 102.780261,550 116.077674,550 L344.888061,550 C358.185474,550 368.965735,539.102965 368.965735,525.661512 L369,373 Z" id="Fill-140" fill="#2B2B51"></path>
                        <path d="M334,374 L288,193" id="Stroke-142" stroke="#2474CD" stroke-width="12" stroke-linecap="round"></path>
                        <path d="M339,374 L371,374" id="Stroke-144" stroke="#23478D" stroke-width="12" stroke-linecap="round"></path>
                        <path d="M97,373 L152,196" id="Stroke-146" stroke="#2474CD" stroke-width="12" stroke-linecap="round"></path>
                        <path d="M148,210.669362 L156.042004,224.922525 C158.999731,230.708828 164.240784,233.330057 169.040411,232.966897 L268.668594,232.966897 C274.306405,232.966897 279.450239,230.708828 282.25119,224.783194 L291,207" id="Stroke-148" stroke="#2474CD" stroke-width="12" stroke-linecap="round"></path>
                        <path d="M387.844515,421.792312 C387.739242,421.929533 387.599468,421.978861 387.461462,421.935811 C387.18899,419.404847 386.887325,418.993184 386.855478,418.968072 C386.767013,418.89722 386.646701,419.046997 386.52108,420.151042 C386.25834,419.406641 386.234454,418.910673 386.177837,418.704393 C386.065486,418.293627 385.700126,417.726806 385.683318,418.149231 C385.683318,439.374527 380.183455,447.265178 372.59582,455.776463 L372.206574,456.212341 C364.312851,465.074301 359.319891,478.153339 359.111114,478.70581 C358.78114,479.577566 359.21108,480.553359 360.070074,480.886995 C360.266466,480.964125 360.46905,481 360.667212,481 C361.336891,481 361.969415,480.58744 362.22331,479.914789 C362.27285,479.784743 366.418315,466.41243 373.890061,458.02581 L374.277537,457.591725 C382.06068,448.861605 388.999867,442.416706 388.999867,419.891847 C389.011367,418.579728 388.274455,421.231769 387.844515,421.792312" id="Fill-150" fill="#23478D"></path>
                        <path d="M350,466 C350,466 351.985048,468.941493 354.29258,470.369076 C356.600112,471.794841 358.635305,472.294632 361.350048,472.437299 C364.065656,472.579966 367,473.328743 367,474.184748 L361.485785,479 L352.527997,474.576402 L350,466 Z" id="Fill-152" fill="#C5CBD8"></path>
                        <path d="M350.4948,478.762773 C351.688318,484.637725 353.191887,487.380619 352.94966,489.797722 C352.187746,497.408739 345.758603,527.071802 342.439653,550.613561 C339.540858,571.173215 351.290185,590.970607 368.437209,593.632276 C383.950302,596.041346 394.178444,586.159609 396.508227,577.237394 C398.374695,570.090517 401.071782,555.378145 386.41397,534.358813 C371.756158,513.339481 363.355728,498.100487 362.94086,491.795313 C362.757648,489.019393 364.374843,481.887691 367.399597,475.084457 C367.994154,473.748267 367.399597,473.577784 365.809707,473.718812 C365.356963,473.758978 365.11914,473.833954 364.703391,473.858947 C362.352468,473.998189 362.007185,472.562923 361.315737,470.985736 C361.066464,470.418056 360.865636,469.689712 360.555585,468.989038 C360.086986,467.933118 359.328596,467.214592 358.411657,468.708768 C358.014404,469.35678 357.910467,469.514767 357.598655,470.040496 C357.288604,470.565332 356.509955,470.985736 355.732186,470.040496 C352.691578,466.34165 351.484847,465.815921 350.391743,466.046207 C348.119214,466.525521 349.0432,471.615897 350.4948,478.762773" id="Fill-154" fill="#D8DDEA"></path>
                        <path d="M353.360035,496.737716 C354.044503,496.292237 353.512724,505.392228 354.930801,507.961481 C355.320421,508.677082 356.044378,499.188293 357.161464,498.905772 C358.162718,498.666648 358.575154,505.444481 360.17751,507.459321 C360.642597,508.050931 359.541306,501.184534 359.557102,497.988245 C359.558857,497.587934 359.489532,497.072489 359.866867,496.944957 C360.249467,496.817424 360.608374,497.349696 360.848815,497.675613 C361.438511,498.473578 362.398521,500.386569 362.633697,499.840127 C362.708286,499.500039 362.488028,498.54443 362.398521,497.727866 C362.295851,496.789969 363.276921,496.944957 364,497.571107 C363.586687,496.111566 362.612636,492.629214 362.604739,491.367171 C362.599473,490.497469 362.966278,487.976926 363.225147,486.77865 C362.811834,488.39495 362.176507,488.381666 361.985207,487.351662 C361.829886,486.518271 361.934311,484.953338 361.675442,484.848832 C361.193682,484.553912 360.745268,485.735361 360.435502,486.465132 C360.017801,487.449082 359.263132,489.58437 358.368936,487.351662 C357.387865,484.901971 356.762191,482.527559 356.303247,480.41707 C355.733734,477.81062 355.010656,477.185355 355.062429,479.165655 C355.09753,480.52069 355.269525,482.764026 355.320421,484.431694 C355.351135,485.407673 355.26075,487.15682 353.874264,485.943488 C352.324558,484.588453 351.34261,482.65952 350.912624,481.99883 C351.808575,485.682223 352.974803,488.165568 352.634324,490.01125 C351.868246,494.174662 350.413313,503.724561 350,505.912987 C350,505.912987 352.47988,497.309842 353.360035,496.737716" id="Fill-156" fill="#C5CBD8"></path>
                        <polyline id="Stroke-158" stroke="#23478D" stroke-width="4" stroke-linecap="round" stroke-linejoin="round" points="353.282347 490 362.334407 491.350491 353 492.651059 363 495"></polyline>
                        <path d="M284.72361,61.271076 C284.72361,61.271076 284.88102,79.6569432 276.43805,79.1766687 C271.518773,78.8968799 265.817724,71.9021597 264.781809,61.8306536 C264.3087,57.2266129 264.559325,50.6186072 265.057936,47.2825266 C266.799117,35.6222835 260.541417,28.5037077 255.393501,22.6620025 C248.491212,14.8279158 245.177691,3.2018832e-13 245.177691,3.2018832e-13 C245.177691,3.2018832e-13 227.167898,15.8053946 231.096108,38.8888623 C233.169697,51.0801696 230.051399,58.0454853 225.02132,64.0689641 C221.983926,67.7053276 217.013645,67.4255388 213.977131,61.8306536 C208.601454,51.9257734 208.454596,39.7282288 214.354387,29.3065412 C214.273483,29.3279263 214.196098,29.3555488 214.115194,29.3769339 C199.619421,33.1531918 185.122768,42.3862225 183.881077,64.6285417 C183.247041,75.9724631 177.511696,80.6094726 174.685354,85.1912371 C169.766077,93.1652181 172.131622,104.53498 177.532801,112.469755 C183.447541,121.157465 192.265129,127.849229 196.826496,130.967894 C198.525467,132.128928 200.712496,132.208232 202.507319,131.204021 C207.144314,128.610183 217.596677,123.940205 232.751989,123.940205 C247.484317,123.940205 258.927747,128.740276 264.165361,131.417873 C266.149252,132.431884 268.560524,132.101306 270.199697,130.58118 C283.760684,118.005831 291.488715,103.487108 291.973256,88.968386 C292.512318,72.7994442 284.72361,61.271076 284.72361,61.271076" id="Fill-160" fill="#E86A46"></path>
                        <path d="M208.303195,123 C200.74857,116.550502 191.111314,113.429121 186.943398,101.362375 C184.905888,95.4641758 186.65321,88.9908231 187.66533,85.1705996 C187.813078,84.6122321 188.780962,84.5627565 189.02426,85.0990367 C190.284101,87.875855 192.969227,93.0389877 196.320546,95.120497 C201.009562,98.0333732 193.585876,83.9902531 196.320546,74.7321306 C197.974973,69.1307855 203.354071,61 203.354071,61 C203.354071,61 202.051763,70.1547538 206.739894,78.4763737 C211.428911,86.7988771 214.554627,90.126995 215.596827,99.2817487 C216.638142,108.436503 217.521093,115.56364 216.638142,116.550502 C215.987873,117.2785 212.428644,113.653528 209.345395,113.429121 C205.04654,113.117248 207.260994,119.878619 208.303195,123" id="Fill-162" fill="#FF7E59"></path>
                        <path d="M236.659291,124.044661 C236.659291,124.044661 225.962689,117.612191 223.525941,108.016196 C221.800964,101.224054 224.167145,92.5777371 232.887863,86.1107174 C241.609452,79.6436976 243.533063,76.0974675 244.302334,70.4649591 C245.072475,64.8324506 243.27693,56.2782667 244.046201,48.1431103 C244.815471,40.0070679 248.919697,35 248.919697,35 C248.919697,35 245.841745,48.7685508 249.17583,57.3218488 C252.510786,65.8751468 265.130127,82.1215407 268.670686,92.7868079 C275.59586,113.648705 253.208618,127 253.208618,127 C253.208618,127 249.11746,125.717227 244.729222,124.949157 C240.807077,124.261704 236.599178,124.043775 236.659291,124.044661" id="Fill-164" fill="#FF7E59"></path>
                        <path d="M239.496075,123.855953 C239.496075,123.855953 234.268592,113.207952 236.597973,104.910122 C238.227661,99.1034023 242.761604,95.8098155 246.173049,92.0493656 C248.244001,89.7670219 249.069393,87.0689057 249.36562,88.315342 C250.400217,92.6712625 248.284436,96.0273913 247.64012,98.4797437 C246.604644,102.420773 247.380812,105.256305 251.004099,109.612226 C254.627385,113.968146 255.297192,122.127679 251.157047,126 C251.157047,126 247.430915,125.100628 245.430284,124.720091 C243.629189,124.378312 239.496075,123.855953 239.496075,123.855953" id="Fill-166" fill="#FFFFFF"></path>
                        <path d="M266.493763,214 L243.505371,214 C241.017589,214 239,211.921123 239,209.356877 L239,135 L271,135 L271,209.356877 C271,211.921123 268.982411,214 266.493763,214" id="Fill-168" fill="#C5CBD8"></path>
                        <path d="M260.493885,214 L237.506115,214 C235.017534,214 233,211.921123 233,209.356877 L233,135 L265,135 L265,209.356877 C265,211.921123 262.982466,214 260.493885,214" id="Fill-170" fill="#D8DDEA"></path>
                        <path d="M255,203 C255,206.31355 252.313355,209 248.999566,209 C245.685776,209 243,206.31355 243,203 C243,199.68645 245.685776,197 248.999566,197 C252.313355,197 255,199.68645 255,203" id="Fill-172" fill="#2B2B51"></path>
                        <path d="M253,203.5 C253,205.432988 251.432988,207 249.5,207 C247.567012,207 246,205.432988 246,203.5 C246,201.567012 247.567012,200 249.5,200 C251.432988,200 253,201.567012 253,203.5" id="Fill-174" fill="#42426C"></path>
                        <path d="M260.537021,217.656505 C259.981669,218.170758 259.140611,218.099257 258.665561,217.49792 L248.316745,204.372091 C247.84254,203.770754 247.908472,202.857748 248.462979,202.343495 C249.018331,201.829242 249.860234,201.900743 250.334439,202.50208 L260.683255,215.626992 C261.15746,216.228329 261.091528,217.141335 260.537021,217.656505" id="Fill-176" fill="#42426C"></path>
                        <path d="M228.493885,214 L205.506115,214 C203.017534,214 201,211.921123 201,209.356877 L201,135 L233,135 L233,209.356877 C233,211.921123 230.982466,214 228.493885,214" id="Fill-178" fill="#C5CBD8"></path>
                        <path d="M222.493885,214 L199.506115,214 C197.017534,214 195,211.921123 195,209.356877 L195,135 L227,135 L227,209.356877 C227,211.921123 224.982466,214 222.493885,214" id="Fill-180" fill="#D8DDEA"></path>
                        <path d="M218,203 C218,206.31355 215.313355,209 211.999566,209 C208.685776,209 206,206.31355 206,203 C206,199.68645 208.685776,197 211.999566,197 C215.313355,197 218,199.68645 218,203" id="Fill-182" fill="#2B2B51"></path>
                        <path d="M215,203.5 C215,205.432988 213.432988,207 211.5,207 C209.567012,207 208,205.432988 208,203.5 C208,201.567012 209.567012,200 211.5,200 C213.432988,200 215,201.567012 215,203.5" id="Fill-184" fill="#42426C"></path>
                        <path d="M200.462997,217.656505 C201.017525,218.170758 201.85946,218.099257 202.333683,217.49792 L212.682897,204.372091 C213.157965,203.770754 213.091185,202.857748 212.536657,202.343495 C211.982129,201.829242 211.140194,201.900743 210.665971,202.50208 L200.316757,215.626992 C199.842534,216.228329 199.908469,217.141335 200.462997,217.656505" id="Fill-186" fill="#42426C"></path>
                        <path d="M313,192.608178 C313,194.657952 276.062831,193.838043 230.5,193.838043 C184.936292,193.838043 148,194.384649 148,192.608178 C148,189.665383 184.936292,184 230.5,184 C276.062831,184 313,189.665383 313,192.608178" id="Fill-188" fill="#C5CBD8"></path>
                        <path d="M223.737309,188 L198.262691,188 C196.460764,188 195,186.500268 195,184.650273 L195,135 L227,135 L227,184.650273 C227,186.500268 225.539236,188 223.737309,188" id="Fill-190" fill="#E9EEFB"></path>
                        <path d="M224.957198,139 L198.042802,139 C197.469571,139 197,138.549894 197,137.999575 C197,137.450106 197.469571,137 198.042802,137 L224.957198,137 C225.530429,137 226,137.450106 226,137.999575 C226,138.549894 225.530429,139 224.957198,139" id="Fill-192" fill="#C5CBD8"></path>
                        <path d="M224.957198,143 L198.042802,143 C197.469571,143 197,142.549894 197,142.000425 C197,141.450106 197.469571,141 198.042802,141 L224.957198,141 C225.530429,141 226,141.450106 226,142.000425 C226,142.549894 225.530429,143 224.957198,143" id="Fill-194" fill="#C5CBD8"></path>
                        <path d="M224.957198,146 L198.042802,146 C197.469571,146 197,145.549894 197,144.999575 C197,144.450106 197.469571,144 198.042802,144 L224.957198,144 C225.530429,144 226,144.450106 226,144.999575 C226,145.549894 225.530429,146 224.957198,146" id="Fill-196" fill="#C5CBD8"></path>
                        <path d="M224.957198,150 L198.042802,150 C197.469571,150 197,149.549894 197,149.000425 C197,148.450106 197.469571,148 198.042802,148 L224.957198,148 C225.530429,148 226,148.450106 226,149.000425 C226,149.549894 225.530429,150 224.957198,150" id="Fill-198" fill="#C5CBD8"></path>
                        <path d="M224.957198,154 L198.042802,154 C197.469571,154 197,153.549894 197,152.999575 C197,152.450106 197.469571,152 198.042802,152 L224.957198,152 C225.530429,152 226,152.450106 226,152.999575 C226,153.549894 225.530429,154 224.957198,154" id="Fill-200" fill="#C5CBD8"></path>
                        <path d="M224.957198,158 L198.042802,158 C197.469571,158 197,157.549894 197,156.999575 C197,156.450106 197.469571,156 198.042802,156 L224.957198,156 C225.530429,156 226,156.450106 226,156.999575 C226,157.549894 225.530429,158 224.957198,158" id="Fill-202" fill="#C5CBD8"></path>
                        <path d="M224.957198,162 L198.042802,162 C197.469571,162 197,161.549894 197,161.000425 C197,160.450106 197.469571,160 198.042802,160 L224.957198,160 C225.530429,160 226,160.450106 226,161.000425 C226,161.549894 225.530429,162 224.957198,162" id="Fill-204" fill="#C5CBD8"></path>
                        <path d="M224.957198,165 L198.042802,165 C197.469571,165 197,164.549894 197,163.999575 C197,163.450106 197.469571,163 198.042802,163 L224.957198,163 C225.530429,163 226,163.450106 226,163.999575 C226,164.549894 225.530429,165 224.957198,165" id="Fill-206" fill="#C5CBD8"></path>
                        <path d="M224.957198,169 L198.042802,169 C197.469571,169 197,168.549894 197,168.000425 C197,167.450106 197.469571,167 198.042802,167 L224.957198,167 C225.530429,167 226,167.450106 226,168.000425 C226,168.549894 225.530429,169 224.957198,169" id="Fill-208" fill="#C5CBD8"></path>
                        <path d="M261.737309,188 L236.262691,188 C234.460764,188 233,186.500268 233,184.650273 L233,135 L265,135 L265,184.650273 C265,186.500268 263.539236,188 261.737309,188" id="Fill-210" fill="#E9EEFB"></path>
                        <path d="M255.099215,181 L242.900785,181 C242.405353,181 242,180.617834 242,180.150743 L242,175.849257 C242,175.382166 242.405353,175 242.900785,175 L255.099215,175 C255.594647,175 256,175.382166 256,175.849257 L256,180.150743 C256,180.617834 255.594647,181 255.099215,181" id="Fill-212" fill="#FF7E59"></path>
                        <path d="M262.95723,139 L236.043656,139 C235.470443,139 235,138.549894 235,137.999575 C235,137.450106 235.470443,137 236.043656,137 L262.95723,137 C263.530443,137 264,137.450106 264,137.999575 C264,138.549894 263.530443,139 262.95723,139" id="Fill-214" fill="#C5CBD8"></path>
                        <path d="M262.95723,143 L236.043656,143 C235.470443,143 235,142.549894 235,142.000425 C235,141.450106 235.470443,141 236.043656,141 L262.95723,141 C263.530443,141 264,141.450106 264,142.000425 C264,142.549894 263.530443,143 262.95723,143" id="Fill-216" fill="#C5CBD8"></path>
                        <path d="M262.95723,146 L236.043656,146 C235.470443,146 235,145.549894 235,144.999575 C235,144.450106 235.470443,144 236.043656,144 L262.95723,144 C263.530443,144 264,144.450106 264,144.999575 C264,145.549894 263.530443,146 262.95723,146" id="Fill-218" fill="#C5CBD8"></path>
                        <path d="M262.95723,150 L236.043656,150 C235.470443,150 235,149.549894 235,149.000425 C235,148.450106 235.470443,148 236.043656,148 L262.95723,148 C263.530443,148 264,148.450106 264,149.000425 C264,149.549894 263.530443,150 262.95723,150" id="Fill-220" fill="#C5CBD8"></path>
                        <path d="M262.95723,154 L236.043656,154 C235.470443,154 235,153.549894 235,152.999575 C235,152.450106 235.470443,152 236.043656,152 L262.95723,152 C263.530443,152 264,152.450106 264,152.999575 C264,153.549894 263.530443,154 262.95723,154" id="Fill-222" fill="#C5CBD8"></path>
                        <path d="M262.95723,158 L236.043656,158 C235.470443,158 235,157.549894 235,156.999575 C235,156.450106 235.470443,156 236.043656,156 L262.95723,156 C263.530443,156 264,156.450106 264,156.999575 C264,157.549894 263.530443,158 262.95723,158" id="Fill-224" fill="#C5CBD8"></path>
                        <path d="M262.95723,162 L236.043656,162 C235.470443,162 235,161.549894 235,161.000425 C235,160.450106 235.470443,160 236.043656,160 L262.95723,160 C263.530443,160 264,160.450106 264,161.000425 C264,161.549894 263.530443,162 262.95723,162" id="Fill-226" fill="#C5CBD8"></path>
                        <path d="M262.95723,165 L236.043656,165 C235.470443,165 235,164.549894 235,163.999575 C235,163.450106 235.470443,163 236.043656,163 L262.95723,163 C263.530443,163 264,163.450106 264,163.999575 C264,164.549894 263.530443,165 262.95723,165" id="Fill-228" fill="#C5CBD8"></path>
                        <path d="M262.95723,169 L236.043656,169 C235.470443,169 235,168.549894 235,168.000425 C235,167.450106 235.470443,167 236.043656,167 L262.95723,167 C263.530443,167 264,167.450106 264,168.000425 C264,168.549894 263.530443,169 262.95723,169" id="Fill-230" fill="#C5CBD8"></path>
                        <path d="M68,51 L148,192" id="Stroke-232" stroke="#D8DDEA" stroke-width="2" stroke-linecap="round"></path>
                        <path d="M118,51 L173,192" id="Stroke-234" stroke="#E9EEFB" stroke-width="2" stroke-linecap="round"></path>
                        <path d="M218.099215,181 L205.900785,181 C205.405353,181 205,180.617834 205,180.150743 L205,175.849257 C205,175.382166 205.405353,175 205.900785,175 L218.099215,175 C218.594647,175 219,175.382166 219,175.849257 L219,180.150743 C219,180.617834 218.594647,181 218.099215,181" id="Fill-236" fill="#FF7E59"></path>
                        <path d="M196,51 L210,192" id="Stroke-238" stroke="#E9EEFB" stroke-width="2" stroke-linecap="round"></path>
                        <path d="M265,51 L251,192" id="Stroke-240" stroke="#E9EEFB" stroke-width="2" stroke-linecap="round"></path>
                        <path d="M135,51 L182,192" id="Stroke-242" stroke="#C5CBD8" stroke-width="2" stroke-linecap="round"></path>
                        <path d="M392,51 L312,192" id="Stroke-244" stroke="#D8DDEA" stroke-width="2" stroke-linecap="round"></path>
                        <path d="M342,51 L287,192" id="Stroke-246" stroke="#E9EEFB" stroke-width="2" stroke-linecap="round"></path>
                        <path d="M326,51 L279,192" id="Stroke-248" stroke="#C5CBD8" stroke-width="2" stroke-linecap="round"></path>
                        <path d="M212.60164,409 C190.963486,409 176.346437,402.305858 163.451264,396.401323 C151.943964,391.13009 141.075665,386.153501 126.220419,386.153501 L92,386.153501 L92,376 L126.220419,376 C143.199224,376 155.559991,381.660197 167.513802,387.134446 C180.086398,392.892558 193.087924,398.845601 212.60164,398.845601 C233.066388,398.845601 246.294685,392.887168 259.088778,387.122768 C271.22629,381.654807 283.777791,376 301.467673,376 L339,376 L339,386.153501 L301.467673,386.153501 C285.868829,386.153501 274.80716,391.137277 263.095941,396.413899 C250.000367,402.313943 235.159184,409 212.60164,409" id="Fill-250" fill="#2B2B51"></path>
                        <mask id="mask-12" fill="white">
                            <use xlink:href="#path-11"></use>
                        </mask>
                        <g id="Clip-253"></g>
                        <polygon id="Fill-252" fill="#2B2B51" mask="url(#mask-12)" points="153 433 156 433 156 380 153 380"></polygon>
                        <polygon id="Fill-254" fill="#23478D" mask="url(#mask-12)" points="151 394 154 394 154 379 151 379"></polygon>
                        <path d="M152.5,438 C151.671178,438 151,437.244393 151,436.311313 L151,391 L154,392.408136 L154,436.311313 C154,437.244393 153.328822,438 152.5,438" id="Fill-255" fill="#2474CD" mask="url(#mask-12)"></path>
                        <path d="M147.254095,444.408111 C144.358499,450.821571 129.470514,482.365484 124.843203,493.401736 C115.309073,516.146404 130.915667,539 154.337901,539 C179.784585,539 192.931156,512.186035 184.411014,492.820787 C178.916964,480.332164 164.176228,452.169442 160.554969,444.755263 C160.070018,443.762514 147.501861,443.859929 147.254095,444.408111" id="Fill-256" fill="#2B2B51" mask="url(#mask-12)"></path>
                        <path d="M143.652807,435.165486 C144.138591,435.473761 144.324824,436.092991 144.08852,436.62376 C141.326663,442.818744 127.125589,473.290596 122.71224,483.952438 C113.617614,505.923053 128.503882,528 150.845581,528 C175.118121,528 187.657162,502.097764 179.530591,483.391289 C174.28974,471.326573 160.230097,444.119753 156.77514,436.957948 C156.313074,435.999168 156.28145,434.889379 156.687295,433.904686 C157.426074,432.110437 158.7174,429.530758 157.603522,428.680991 C155.948516,427.418405 152.948598,429.873881 152.121095,428.891869 C151.097697,427.677534 147.622537,419.896498 144.10521,420.001044 C142.605691,420.046615 142.468652,422.52711 142.555619,424.523302 C142.647856,426.649952 142.812127,428.576446 138.657044,427.839267 C137.236585,427.588179 135.966342,427.435382 135.537656,427.979554 C134.340325,429.502164 141.094751,433.544586 143.652807,435.165486" id="Fill-257" fill="#D8DDEA" mask="url(#mask-12)"></path>
                        <path d="M163.010047,450.102699 L158.188762,440.207487 C158.188762,440.207487 156.040604,438.317004 156.040604,437.138616 C156.040604,436.364168 156.272488,434.790875 156.446616,433.876359 C156.513854,433.521215 156.271626,433.271802 155.905267,433.591702 L153.986407,435.058362 C153.604532,435.365611 153.007151,435.371033 152.88733,434.990586 C152.71234,434.436635 152.208919,433.542903 151.895144,432.735924 C151.624469,432.043711 150.811583,431.772609 150.235752,432.216312 C149.070299,433.112755 148.799625,433.804968 147.379875,434.159208 C146.253214,434.441154 145.413605,434.026368 144.673128,433.946845 C144.411074,433.918831 144.205051,434.118543 144.402454,434.301988 L146.819562,436.590087 L146.545439,441.094893 C146.406653,441.613601 146.250627,442.182915 146.085981,442.782953 L142,443.771571 L144.688645,443.528483 C145.278267,443.474262 145.736863,444.05442 145.574803,444.650844 C144.372283,449.075224 143.086147,454.157477 144.03006,454.198142 C144.848981,454.234289 147.243676,449.056246 148.867724,445.438846 C149.331492,444.405045 150.196099,443.394739 151.221043,443.583607 C152.048583,443.735424 152.448561,444.421311 152.860607,446.147325 C154.010544,450.971128 156.562989,461.605544 158.070665,460.972973 C159.57403,460.343114 157.848263,451.737442 156.970725,446.856708 C156.847456,446.167206 157.156922,446.041595 157.631034,446.537712 C158.814589,447.779357 159.858497,449.464706 160.573975,450.615985 C162.293708,453.38303 165.987469,459.483721 166.866731,459.554208 C167.856332,459.633731 163.010047,450.102699 163.010047,450.102699" id="Fill-258" fill="#C5CBD8" mask="url(#mask-12)"></path>
                        <path d="M141.638584,443 C140.872385,443 140.18803,442.474254 140.032178,441.714089 C139.854559,440.847755 140.430079,440.005202 141.319044,439.831935 L143.504453,439.404714 L143.353825,439.398768 C142.487498,439.365644 141.797048,438.68107 141.777893,437.83597 C141.765703,437.288141 142.036485,436.79552 142.463989,436.498248 C142.517971,435.659093 143.23193,435 144.099998,435 L144.119153,435 L156.421002,435.132498 C157.296907,435.141841 158.009994,435.821319 158.041339,436.674063 C158.044821,436.742011 158.042209,436.809109 158.036115,436.874509 C158.566359,437.108929 158.945976,437.610044 158.994734,438.205436 C159.060906,439.014014 158.496705,439.742754 157.681748,439.901582 L141.961606,442.968574 C141.853642,442.989808 141.745678,443 141.638584,443" id="Fill-259" fill="#2474CD" mask="url(#mask-12)"></path>
                        <path d="M90,374 L126.39884,374 C159.626417,374 173.275762,397 212.707985,397 C253.932662,397 266.754722,374 301.49899,374 L339,374" id="Stroke-260" stroke="#2474CD" stroke-width="12" stroke-linecap="round" mask="url(#mask-12)"></path>
                        <path d="M189.05658,388 C189.05658,388 186.930728,387.362157 185.9519,386.254996 C185.395294,385.625971 185.019889,384.950896 185.000815,384.575637 C184.982609,384.215075 185.272182,383.934855 185.584297,384.013238 C185.584297,384.013238 186.994885,384.604051 187.619983,384.84018 C188.245947,385.076309 189.068718,385.473124 190.122974,385.547588 L192,385.547588 L189.05658,388 Z" id="Fill-261" fill="#E09595" mask="url(#mask-12)"></path>
                        <path d="M194.823384,385 C194.823384,385 187.248799,385.743961 185.903383,385.956899 C184.55885,386.168955 183.527717,386.843997 182.434788,387.515506 C180.877495,388.472405 179.687456,389.157167 178.966193,389.9241 C177.833536,391.129281 176.70088,392.333578 176.063484,393.46719 C175.494066,394.479754 178.908809,396.374998 180.169475,396.655087 C182.718173,397.222335 184.275465,397.080081 186.045517,396.300778 C187.789967,395.532961 188.876717,394.742172 190.292758,394.387863 C192.155506,393.922225 192.699322,394.175808 195.743281,393.502532 C197.55306,393.102278 199,392.156865 199,392.156865 L194.823384,385 Z" id="Fill-262" fill="#FFAEAE" mask="url(#mask-12)"></path>
                        <path d="M241.705199,328.199339 C239.691646,328.655038 238.529338,329.794285 238.529338,329.794285 L226.470055,356.015579 C225.235487,358.700123 223.374384,361.045996 221.046241,362.852833 L194.188892,383.766212 C193.995027,383.91693 193.943036,384.189108 194.067286,384.400999 L198.368445,391.73828 C198.5112,391.982088 198.817859,392.069859 199.066359,391.940419 L230.21958,375.992737 C232.878174,374.607909 234.966628,372.906575 237.525646,368.940932 L250.045799,350.080857 C252.74669,345.955631 253.612914,340.559945 252.573093,336.081863 C251.532391,331.603781 247.106101,326.975868 241.705199,328.199339" id="Fill-263" fill="#42426C" mask="url(#mask-12)"></path>
                        <path d="M198.964606,386.811005 C201.332368,385.860248 222.832074,378.245547 222.832074,378.245547 C225.13064,377.533343 223.398066,378.57399 222.989097,378.804765 C218.483341,381.348473 211.22037,385.454015 205.858529,387.828316 C203.634482,388.812781 201.332368,389.185305 199.730203,388.913907 C198.519264,388.708198 196.956133,387.616556 198.964606,386.811005" id="Fill-264" fill="#2B2B51" mask="url(#mask-12)"></path>
                        <polyline id="Stroke-265" stroke="#23478D" stroke-width="5" stroke-linecap="round" stroke-linejoin="round" mask="url(#mask-12)" points="142.414922 371 142 381.739874 146.564139 371.989199 145.872603 382.79838 150.435861 372.837084 149.744325 384 155 375.168317"></polyline>
                        <path d="M208.831334,513.415175 L231.931684,513.415175 C231.948325,513.415175 231.964966,513.417792 231.982483,513.418664 C231.990366,513.303542 232,513.189292 232,513.073297 L232,499.929319 C232,497.218717 229.772732,495 227.049737,495 L203.950263,495 C201.227268,495 199,497.218717 199,499.929319 L199,513.073297 C199,515.766457 201.200117,517.972092 203.898588,518 C204.079012,515.448999 206.225702,513.415175 208.831334,513.415175" id="Fill-266" fill="#2B2B51" mask="url(#mask-12)"></path>
                        <path d="M154,373.995078 C154,373.995078 156.092641,374.094547 157.582788,373.399184 C159.323323,372.585931 159.047724,370.596548 158.862542,369.549358 C158.555644,367.814174 157.736672,367 157.736672,367 L154,373.995078 Z" id="Fill-267" fill="#FFAEAE" mask="url(#mask-12)"></path>
                        <path d="M152.431736,375.723871 C152.331657,374.153693 152.73629,372.22919 152.73629,372.22919 L144,365.011406 C144,365.011406 146.573608,363.988002 152.600837,363.069817 C154.802596,362.735277 155.936261,363.652563 156.597133,364.764098 C156.792117,365.094142 158.584066,367.900858 158.584066,367.900858 C159.260468,369.001601 159.09827,370.447676 158.196687,371.356869 L156.597133,372.970214 L154.391923,378 C153.340221,377.923559 152.533542,377.312035 152.431736,375.723871" id="Fill-268" fill="#FFAEAE" mask="url(#mask-12)"></path>
                        <path d="M152.232753,376 L149,376 C149,370.997208 152.689182,365.00338 158.793491,364 L157.738214,365.254666 C157.418199,365.67083 157.540027,365.752829 157.72706,365.915062 L158.912746,366.941367 C159.070609,367.078031 159.002831,367.332843 158.801213,367.380456 C154.601551,368.371492 152.232753,372.796767 152.232753,376" id="Fill-269" fill="#23478D" mask="url(#mask-12)"></path>
                        <path d="M151.898078,368.006741 L154,364.320112 C154,364.320112 153.110122,362.397446 149.488791,363.19278 C147.535763,363.621458 145.446901,364.124927 144.126887,364.449627 C143.283158,364.655758 142.604866,365.302423 142.325364,366.161602 L141.061947,370.039768 C140.833818,370.964618 141.250894,371.930511 142.064148,372.361925 C142.064148,372.361925 146.710319,374.70962 146.980242,374.974124 C147.054254,375.046178 147.128265,375.124617 147.198793,375.201232 C147.438242,375.462999 147.757797,375.627173 148.100861,375.677338 L150.23587,375.989269 C150.920258,376.088686 151.510607,375.483064 151.42963,374.763433 L151.009071,371.335835 C150.907197,370.119119 151.24852,369.153226 151.898078,368.006741" id="Fill-270" fill="#FFAEAE" mask="url(#mask-12)"></path>
                    </g>
                </g>
            </g>
        </g>
    </g>
</svg>