<?xml version="1.0" encoding="UTF-8"?>
<svg width="599px" height="763px" viewBox="0 0 599 763" version="1.1" xmlns="http://www.w3.org/2000/svg" xmlns:xlink="http://www.w3.org/1999/xlink">
    <!-- Generator: Sketch 51.3 (57544) - http://www.bohemiancoding.com/sketch -->
    <title>Рефинансирование</title>
    <desc>Created with Sketch.</desc>
    <defs>
        <path d="M0.083,70.553 C0.083,105.249 46.431,165.534 55.157,176.8 C56.06,177.966 57.448,178.642 58.923,178.642 L82.038,178.642 C83.528,178.642 84.93,177.948 85.833,176.761 C94.567,165.275 140.904,103.968 140.904,70.553 C140.904,31.666 109.381,0.142 70.493,0.142 C31.606,0.142 0.083,31.666 0.083,70.553 Z" id="path-1"></path>
        <path d="M0.468,17.771 C0.468,33.471 5.824,43.203 14.126,43.203 C22.429,43.203 29.16,29.763 29.16,17.971 C29.16,6.179 17.091,0.502 8.788,0.502 C0.486,0.502 0.468,4.525 0.468,17.771" id="path-3"></path>
        <radialGradient cx="-112.714697%" cy="52.9417885%" fx="-112.714697%" fy="52.9417885%" r="166.337447%" gradientTransform="translate(-1.127147,0.529418),scale(1.000000,0.671928),translate(1.127147,-0.529418)" id="radialGradient-5">
            <stop stop-color="#FFE8E8" offset="0%"></stop>
            <stop stop-color="#FDACAC" offset="100%"></stop>
        </radialGradient>
        <polygon id="path-6" points="0.646129513 0.92637354 68.5752169 0.92637354 68.5752169 138 0.646129513 138"></polygon>
        <path d="M6.976,0.638 C-0.832,1.362 0.757,8.761 1.907,16.893 C3.19,25.969 5.371,31.379 12.06,30.739 C18.749,30.1 25.08,23.388 24.255,14.757 C23.469,6.53 14.562,0.595 7.935,0.595 C7.61,0.595 7.289,0.609 6.976,0.638" id="path-8"></path>
        <radialGradient cx="-153.207959%" cy="56.1578571%" fx="-153.207959%" fy="56.1578571%" r="202.92035%" gradientTransform="translate(-1.532080,0.561579),scale(1.000000,0.774398),translate(1.532080,-0.561579)" id="radialGradient-10">
            <stop stop-color="#FFE8E8" offset="0%"></stop>
            <stop stop-color="#FDACAC" offset="100%"></stop>
        </radialGradient>
        <polygon id="path-11" points="0 763 603.614 763 603.614 0.333 0 0.333"></polygon>
    </defs>
    <g id="Частным" stroke="none" stroke-width="1" fill="none" fill-rule="evenodd">
        <g id="-Мобильный-банк.png-БКС-Платинум.png-Доходный-фунт.png-Кредит-Онлайн.png-Рефенансирование.png-Цифровой-Signature.png-Цифровой-Visa-Platinum.png-More-Signature.png-more-visa-platinum.png" transform="translate(-2734.000000, -7186.000000)">
            <g id="Рефинансирование" transform="translate(2652.000000, 7184.000000)">
                <rect id="Rectangle-8-Copy-6" fill-rule="nonzero" x="0" y="0" width="767" height="767"></rect>
                <g id="Group-272" transform="translate(82.000000, 1.000000)">
                    <g id="Group-27" transform="translate(0.000000, 125.667000)">
                        <path d="M56.3403,176.9989 C56.3403,176.9989 57.0473,171.6009 53.9853,165.5569 C51.8203,161.2839 53.9853,156.8549 55.8693,152.0199 L57.7533,147.1859 C57.7533,147.1859 58.6803,145.2829 61.1293,147.3469 C63.3263,149.1999 64.1113,151.7779 64.1113,154.6789 C64.1113,157.5799 62.6983,160.7229 63.4053,162.6559 C64.1113,164.5899 65.6813,167.9749 65.7593,170.5529 C65.8383,173.1309 64.8183,179.8189 64.8183,179.8189 L56.3403,176.9989 Z" id="Fill-1" fill="#D8DDEA"></path>
                        <path d="M89.3086,181.8206 C89.3086,182.6446 85.5836,183.9766 79.8896,185.0786 C75.3956,185.9476 69.7146,187.3546 63.4056,187.3546 C53.2576,187.3546 42.5776,184.2746 37.2246,182.4836 C36.0966,182.1056 36.1376,181.4386 37.2866,181.1246 C39.5956,180.4916 43.8596,179.8196 45.9786,179.1916 C50.3736,177.8886 56.8926,176.2936 62.5806,176.4046 C68.0316,176.5106 74.5476,178.8466 78.8686,179.5056 C85.8876,180.5736 89.3086,180.8396 89.3086,181.8206" id="Fill-3" fill="#E9EEFB"></path>
                        <path d="M61.521,183.3514 C61.521,183.3514 54.68,183.7164 56.498,180.2114 C58.695,175.9734 60.893,170.7924 62.071,167.1814 C62.584,165.6064 64.623,163.2394 68.586,160.0384 C72.667,156.7414 76.592,151.7174 78.477,148.7344 C80.052,146.2404 80.36,144.9674 82.244,145.6734 C84.128,146.3794 87.43,151.1504 86.248,156.7414 C85.384,160.8234 82.683,165.6304 78.241,168.0444 C74.63,170.0074 74.552,172.2054 74.787,173.1464 C75.022,174.0884 75.964,177.9354 71.961,180.5254 C67.958,183.1164 61.521,183.3514 61.521,183.3514" id="Fill-5" fill="#E9EEFB"></path>
                        <path d="M80.2818,184.8431 L90.0938,184.7641 C90.0938,184.7641 92.4228,184.8291 91.9778,183.2731 C91.6638,182.1741 91.1928,180.8401 91.1928,180.8401 C91.1928,180.8401 91.0358,179.5841 88.7598,179.8191 C86.6458,180.0381 82.3228,180.4471 82.3228,180.4471 L80.2818,184.8431 Z" id="Fill-7" fill="#E9EEFB"></path>
                        <path d="M12.3579,247.5257 L11.9419,249.6027 C11.0629,251.9997 10.1759,253.0997 9.0609,254.7077 C7.9869,256.2567 7.9479,258.4717 8.1829,260.7097 C8.5529,264.2237 9.1789,267.7777 10.2379,268.0127 C11.2979,268.2487 13.2459,265.8897 13.4819,260.4737 C13.5499,258.8917 14.1269,258.0327 15.1409,257.2337 C16.3529,256.2767 17.1859,254.9237 17.4849,253.4087 L18.7159,247.1717 L12.3579,247.5257 Z" id="Fill-9" fill="#C5CBD8"></path>
                        <path d="M33.3804,246.3446 C33.3804,246.6976 27.2754,248.3456 18.0734,248.3456 C12.8934,248.3456 10.6554,247.9926 6.7704,247.8756 C3.8284,247.7856 0.0004,247.6586 0.0004,246.7566 C0.0004,246.2856 2.5904,244.8726 5.5924,244.4016 C8.0354,244.0186 11.5974,242.3416 16.1904,242.3416 C21.3704,242.3416 23.9884,243.5076 26.4334,243.9896 C31.4274,244.9746 33.3804,245.6376 33.3804,246.3446" id="Fill-11" fill="#D8DDEA"></path>
                        <path d="M13.1284,245.8734 C13.1284,245.8734 15.0124,247.2864 15.3654,249.3054 C16.1354,253.7044 14.8944,255.2824 16.4254,258.2704 C18.3444,262.0184 23.2514,269.8934 25.4914,269.8934 C27.4934,269.8934 28.0824,264.8014 27.2574,262.0344 C26.5244,259.5734 24.6674,258.8244 24.9024,256.6104 C25.1384,254.3964 25.2684,251.8444 24.1964,250.0804 C22.3124,246.9804 21.3704,245.8734 21.3704,245.8734 L13.1284,245.8734 Z" id="Fill-13" fill="#D8DDEA"></path>
                        <path d="M27.1792,244.6566 L33.0802,244.6266 C33.0802,244.6266 34.2412,244.5466 34.3222,245.5206 C34.3812,246.2266 34.3732,247.0546 34.3732,247.0546 C34.3732,247.0546 34.2702,247.8066 32.7692,247.6656 C31.3752,247.5346 28.5252,247.2896 28.5252,247.2896 L27.1792,244.6566 Z" id="Fill-15" fill="#D8DDEA"></path>
                        <path d="M534.54,206.4876 L522.447,206.4876 C519.934,206.4876 517.896,204.4506 517.896,201.9376 L517.896,190.1286 L539.091,190.1286 L539.091,201.9376 C539.091,204.4506 537.054,206.4876 534.54,206.4876" id="Fill-17" fill="#FF7E59"></path>
                        <path d="M539.7881,178.6419 C541.4351,178.6419 542.9871,177.8749 543.9831,176.5619 C553.0761,164.5859 598.9041,103.7799 598.9041,70.5529 C598.9041,31.6659 567.3811,0.1419 528.4931,0.1419 C489.6061,0.1419 458.0831,31.6659 458.0831,70.5529 C458.0831,105.0419 503.8911,164.8159 512.9971,176.5939 C513.9971,177.8859 515.5351,178.6419 517.1701,178.6419 L539.7881,178.6419 Z" id="Fill-19" fill="#82AEF4"></path>
                        <path d="M540.2051,178.6419 C540.2051,178.6419 588.5431,107.5239 588.5431,70.5529 C588.5431,31.6659 561.6581,0.1419 528.4931,0.1419 C495.3291,0.1419 468.4441,31.6659 468.4441,70.5529 C468.4441,108.9369 516.7811,178.6419 516.7811,178.6419 L540.2051,178.6419 Z" id="Fill-21" fill="#73A0F9"></path>
                        <path d="M536.6328,178.6419 C536.6328,178.6419 571.5878,107.5239 571.5878,70.5529 C571.5878,31.6659 552.2938,0.1419 528.4928,0.1419 C504.6938,0.1419 485.3998,31.6659 485.3998,70.5529 C485.3998,108.9369 520.3548,178.6419 520.3548,178.6419 L536.6328,178.6419 Z" id="Fill-23" fill="#82AEF4"></path>
                        <path d="M532.4141,178.6419 C532.4141,178.6419 547.0971,107.5239 547.0971,70.5529 C547.0971,31.6659 538.7681,0.1419 528.4931,0.1419 C518.2191,0.1419 509.8901,31.6659 509.8901,70.5529 C509.8901,108.9369 524.5731,178.6419 524.5731,178.6419 L532.4141,178.6419 Z" id="Fill-25" fill="#97BEF7"></path>
                    </g>
                    <g id="Group-30" transform="translate(458.000000, 125.667000)">
                        <mask id="mask-2" fill="white">
                            <use xlink:href="#path-1"></use>
                        </mask>
                        <g id="Clip-29"></g>
                        <polygon id="Fill-28" fill="#FFFFFF" mask="url(#mask-2)" points="-4.157 100.46 145.614 100.46 145.614 50.537 -4.157 50.537"></polygon>
                    </g>
                    <g id="Group-51" transform="translate(140.000000, 183.667000)">
                        <path d="M385.1904,31.4437 C385.3244,31.8797 385.3164,32.0547 385.4504,32.1177 C385.5134,32.1457 387.2914,32.6787 387.3394,32.2307 C387.9024,27.4327 401.0094,22.4627 401.8944,26.5777 C403.0604,24.8317 404.2764,23.0857 404.7464,20.9327 C404.7594,20.6307 404.8594,20.5337 404.8594,20.5337 C403.6934,16.7817 381.8814,20.5257 385.1904,31.4437 M405.0774,15.3377 L405.0774,15.3297 C404.8864,13.1617 404.2814,11.0497 403.2934,9.1107 C396.8784,1.4107 372.2154,9.3417 380.6524,29.2427 C380.9124,29.8517 381.2564,30.1957 381.4234,30.0837 C381.5934,29.9717 382.3664,29.9017 382.2814,29.3057 C380.0414,13.7317 399.5834,10.0147 405.0774,15.3367 M398.0734,3.6197 C398.2134,3.6757 399.4014,4.2157 399.1204,3.8857 C398.8314,3.5357 398.4814,3.2417 398.0864,3.0167 C378.2564,-8.3223 362.7184,18.6197 377.8494,30.8557 C378.4244,31.3247 378.8264,31.6547 378.9594,31.6617 C379.1414,31.6757 382.5134,34.0887 380.0414,30.1897 C370.6574,15.4357 381.7954,-4.2833 398.0734,3.6197" id="Fill-31" fill="#D8DDEA"></path>
                        <path d="M403.2217,9.178 C401.8707,13.219 389.3087,6.261 387.4067,2.424 C387.2117,2.01 387.0377,1.912 386.9687,1.94 C386.8287,1.982 386.7317,2.136 386.6407,2.586 C385.4707,8.264 397.9717,18.546 405.0757,15.903 C405.0807,15.741 405.0757,15.579 405.0387,15.418 C404.8287,13.243 404.2117,11.126 403.2207,9.178 M382.8457,4.027 C382.9567,3.429 383.0267,3.183 382.8807,3.043 C382.7347,2.902 382.4067,3.261 382.0097,3.803 C374.2247,14.604 391.2307,31.013 402.2947,26.761 C403.4947,24.915 404.3357,22.86 404.7747,20.703 L404.7747,20.696 C398.7017,25.418 380.9307,14.357 382.8457,4.027 M380.7907,2.221 C381.2717,1.779 381.7397,1.357 381.5637,1.329 C381.4317,1.308 380.9587,1.533 380.3107,1.905 C368.1947,8.864 371.0497,30.493 386.8287,34.4 L386.8287,34.414 C387.2887,34.456 387.7547,34.485 388.2147,34.485 C390.0607,34.485 391.8977,34.176 393.6407,33.564 C395.1717,32.988 396.0347,32.545 397.4977,31.631 C397.6587,31.526 397.8187,31.414 397.9717,31.302 C384.2107,35.629 368.3547,14.174 380.7907,2.221" id="Fill-33" fill="#C5CBD8"></path>
                        <path d="M139.7397,287.3675 C115.1217,287.3675 98.4917,279.9155 83.8207,273.3425 C70.7287,267.4745 58.3637,261.9335 41.4627,261.9335 L0.0167,261.9335 L0.0167,231.7925 L41.4627,231.7925 C85.4207,231.7925 95.3107,257.2245 139.7397,257.2245 C163.0227,257.2245 178.0727,250.5905 192.6287,244.1745 C206.4377,238.0865 240.8427,231.7925 240.8427,231.7925 L240.8427,261.9335 C240.8427,261.9335 210.5117,267.4815 197.1877,273.3565 C182.2887,279.9235 165.4047,287.3675 139.7397,287.3675" id="Fill-35" fill="#23478D"></path>
                        <path d="M101.8262,149.9207 C101.8262,149.9207 93.9372,151.8827 91.7792,154.9047 C90.0612,157.3097 89.2922,162.1437 89.0912,162.8417 C89.0652,162.8757 89.0312,162.9207 89.0052,162.9547 C89.0052,162.9547 73.9992,169.1917 70.7022,171.1537 C67.4062,173.1157 64.9332,176.4527 63.4572,179.9327 C62.7642,181.5667 56.8482,198.1957 53.2772,208.9107 C50.2612,217.9587 47.9122,223.2767 47.3502,224.4137 C46.7882,225.5497 45.9242,226.4727 44.1322,226.6897 C41.8552,226.9637 29.9632,227.9067 29.9632,227.9067 L38.7942,243.8017 C38.7942,243.8017 49.5352,245.9857 55.2002,247.0987 C59.5962,247.9627 63.9132,244.3507 66.4252,241.1327 C71.8792,234.1437 75.7262,222.5687 75.7262,222.5687 L77.6292,239.5967 C77.9992,242.9077 77.9822,246.2497 77.5802,249.5547 L76.5902,257.6957 L139.8182,257.6957 L140.9962,186.6957 L152.6522,174.3327 L130.3312,163.0967 C129.8242,162.8187 129.4652,162.3367 129.3472,161.7697 C128.7792,159.0687 128.8472,155.7857 127.2792,154.2577 C125.0022,152.0397 120.5872,150.9417 120.5872,150.9417 L101.8262,149.9207 Z" id="Fill-37" fill="#D8DDEA"></path>
                        <path d="M99.9033,162.2054 C99.9033,162.2054 97.6073,161.3224 95.4293,159.6154 C92.8843,157.6204 92.3673,154.7874 95.9003,153.0214 C97.8783,152.0324 99.9983,151.4904 100.1783,151.4904 C100.5313,151.4904 121.2153,151.9614 121.2153,151.9614 C121.2153,151.9614 122.8393,152.5894 124.7473,153.5514 C127.6883,155.0344 127.7593,157.5654 125.5713,159.3794 C123.1573,161.3814 121.2153,162.2344 121.2153,162.2344 L99.9033,162.2054 Z" id="Fill-39" fill="#2474CD"></path>
                        <path d="M121.2148,162.2152 C121.2148,162.2152 117.4128,164.4182 110.7008,164.3592 C103.9898,164.3002 99.8638,162.2152 99.8638,162.2152 L99.8638,140.9902 L121.2148,140.9902 L121.2148,162.2152 Z" id="Fill-41" fill="#E09595"></path>
                        <path d="M137.228,220.0179 C137.228,220.0179 142.095,247.0199 143.351,251.5729 C119.645,260.2069 100.649,258.4809 100.649,258.4809 C100.649,258.4809 110.226,252.5149 124.355,238.2289 C130.21,232.3089 137.228,220.0179 137.228,220.0179" id="Fill-43" fill="#C5CBD8"></path>
                        <path d="M76.8843,256.3412 C76.8843,256.3412 78.1793,245.5682 77.6493,239.9162 C77.3473,236.6882 75.7653,222.8432 75.7653,222.8432 L89.5023,258.4812 L76.8843,256.3412 Z" id="Fill-45" fill="#C5CBD8"></path>
                        <path d="M65.8164,235.4818 C63.7584,236.6808 62.4184,237.2298 60.4594,234.8528 C59.8544,234.1408 58.4184,232.6558 57.4764,231.9488 C53.1434,228.6998 50.6474,228.1028 50.6474,228.1028 C50.6474,228.1028 52.6884,229.9088 54.4154,231.8708 C55.9084,233.5678 57.3584,236.0868 58.1754,239.3638 C58.3774,240.1688 58.0454,241.0938 55.8084,241.0348 C54.5324,241.0018 52.3124,240.9358 50.0424,240.8648 C47.5774,240.7878 45.6134,238.8678 45.3584,236.4158 C45.3584,236.4068 45.3574,236.3978 45.3564,236.3898 C45.3174,236.0438 45.0434,235.7748 44.6954,235.7438 L43.0914,235.6768 L41.0314,241.3878 C41.0314,241.3878 55.2194,246.5688 57.1624,247.2758 C62.2844,247.2758 68.9364,239.7978 73.8624,227.6308 C71.3444,231.6298 68.1534,234.1188 65.8164,235.4818" id="Fill-47" fill="#C5CBD8"></path>
                        <path d="M43.7788,235.3246 C43.7788,239.7676 40.1758,243.3706 35.7328,243.3706 C31.2888,243.3706 27.6868,239.7676 27.6868,235.3246 C27.6868,230.8806 31.2888,227.2786 35.7328,227.2786 C40.1758,227.2786 43.7788,230.8806 43.7788,235.3246" id="Fill-49" fill="#E09595"></path>
                    </g>
                    <g id="Group-54" transform="translate(235.000000, 300.667000)">
                        <mask id="mask-4" fill="white">
                            <use xlink:href="#path-3"></use>
                        </mask>
                        <g id="Clip-53"></g>
                        <path d="M0.468,17.771 C0.468,33.471 5.824,43.203 14.126,43.203 C22.429,43.203 29.16,29.763 29.16,17.971 C29.16,6.179 17.091,0.502 8.788,0.502 C0.486,0.502 0.468,4.525 0.468,17.771" id="Fill-52" fill="url(#radialGradient-5)" mask="url(#mask-4)"></path>
                    </g>
                    <g id="Group-122" transform="translate(74.000000, 216.667000)">
                        <path d="M165.3931,91.2523 C165.3931,91.2523 171.3211,96.6193 184.2771,97.0553 C185.8001,97.1063 186.9791,98.2973 187.0381,99.8873 C187.0971,101.4763 187.0971,104.2433 187.6861,105.7743 C188.7741,108.6033 188.4711,110.7193 188.9421,110.5623 C189.4131,110.4053 193.5141,108.7173 194.3971,100.5933 C194.9191,95.7893 194.5941,89.6823 190.2761,86.3073 C186.9891,83.7373 186.2731,78.3793 176.3041,79.6353 C171.3671,80.2573 169.6321,79.7133 165.6281,82.2253 C161.2531,84.9713 159.6771,88.4503 159.5451,91.9393 C159.3491,97.1393 161.4881,102.7913 161.4881,102.7913 L161.5521,97.0503 C161.5861,95.1643 162.4941,93.4003 164.0101,92.2773 L165.3931,91.2523 Z" id="Fill-55" fill="#423748"></path>
                        <path d="M191.3877,109.263 C190.4367,112.55 188.6887,114.931 187.4827,114.582 C186.2777,114.233 186.5417,109.18 187.4917,105.894 C188.4427,102.608 190.2237,101.68 191.6007,102.904 C192.7397,103.917 192.3387,105.976 191.3877,109.263" id="Fill-57" fill="#FFAEAE"></path>
                        <path d="M151.7666,188.1302 C151.4536,188.1532 151.3576,187.7132 151.6526,187.6072 C156.2396,185.9432 168.5216,181.7122 176.0686,181.2092 C185.4876,180.5812 202.2866,184.3492 202.2866,184.3492 L151.7666,188.1302 Z" id="Fill-59" fill="#C5CBD8"></path>
                        <path d="M141.7656,189.765 L137.2916,164.175 L138.2526,198.321 C138.2526,198.321 139.7646,194.946 140.2156,193.808 C140.6666,192.669 141.7656,189.765 141.7656,189.765" id="Fill-61" fill="#C5CBD8"></path>
                        <path d="M155.6836,133.7533 C160.3706,138.8643 163.1676,141.1213 171.7706,146.4593 C172.8376,147.1603 172.2606,147.9833 171.3266,147.8643 C169.8036,147.6693 167.0546,147.1913 164.1926,145.1703 C157.5486,140.4783 155.6836,133.7533 155.6836,133.7533" id="Fill-63" fill="#C5CBD8"></path>
                        <path d="M183.1782,146.2494 C186.9162,143.5754 193.3962,138.5184 196.1632,133.7974 C196.1632,133.7974 198.2822,140.1554 192.8662,144.1594 C189.8662,146.3764 186.3602,147.3654 183.8282,147.8074 C182.9222,147.9654 182.4292,146.7844 183.1782,146.2494" id="Fill-65" fill="#C5CBD8"></path>
                        <path d="M182.4077,136.4388 C183.3767,134.7278 185.2487,132.6608 186.6187,132.8568 C187.8357,133.0308 186.9477,135.2068 186.5187,136.2128 C184.8047,140.2328 182.5507,144.0218 179.8347,147.4448 C179.8347,147.4448 179.3187,141.8948 182.4077,136.4388" id="Fill-67" fill="#C5CBD8"></path>
                        <path d="M184.1274,147.724 C189.2464,144.266 195.3714,142.443 201.5424,142.152 C203.9344,142.039 204.1774,143.372 203.2154,143.595 C200.0884,144.316 197.1794,144.961 194.2014,145.572 C188.7594,146.688 184.1274,147.724 184.1274,147.724" id="Fill-69" fill="#C5CBD8"></path>
                        <path d="M143.2573,141.0189 L154.8063,143.4939 C155.1673,143.5709 155.1533,144.0909 154.7873,144.1439 C153.0193,144.3989 150.1073,144.6389 147.4173,144.0409 C144.3373,143.3559 143.2573,141.0189 143.2573,141.0189" id="Fill-71" fill="#C5CBD8"></path>
                        <path d="M50.0025,420.4642 C49.0275,420.4642 48.2025,419.7122 48.1265,418.7252 C48.1135,418.5662 47.4315,402.7462 42.6255,392.8342 C39.7655,386.9342 36.0705,381.7412 31.3215,376.1932 C25.4115,369.2862 17.2165,360.4682 11.6975,348.7192 C2.1575,328.4052 3.5345,314.0652 3.5345,312.5322 C3.5345,311.2372 3.8565,306.7482 3.9765,303.6432 C4.0055,302.8772 4.7055,303.0152 4.8005,303.7012 C4.9185,304.5552 5.5825,308.4022 5.8535,309.2512 C6.1245,310.0992 6.4395,309.7462 6.7925,309.3142 C7.1455,308.8822 7.6885,307.8332 7.9305,307.9802 C8.3035,308.2052 7.5965,310.1182 7.6105,312.9142 C7.6155,313.7692 6.5375,329.0922 15.6005,348.3892 C20.9025,359.6772 27.4265,367.2992 33.1815,374.0252 C37.8955,379.5312 42.3475,384.7342 45.4195,391.0702 C50.5405,401.6312 51.8305,417.7542 51.8825,418.4362 C51.9615,419.4742 51.1865,420.3782 50.1485,420.4582 C50.0995,420.4622 50.0505,420.4642 50.0025,420.4642" id="Fill-73" fill="#23478D"></path>
                        <g id="Group-77" transform="translate(0.000000, 409.000000)">
                            <mask id="mask-7" fill="white">
                                <use xlink:href="#path-6"></use>
                            </mask>
                            <g id="Clip-76"></g>
                            <path d="M50.5733,8.1478 C50.9263,6.9708 51.2203,5.5578 51.7503,2.9668 C52.1733,0.8998 54.6353,-1.0942 56.9903,5.0278 C59.3453,11.1508 56.9113,19.9418 56.9113,19.9418 C56.9113,19.9418 69.4253,56.7268 68.5293,97.4968 C67.9013,126.0688 49.0743,138.0008 32.7353,138.0008 C16.7213,138.0008 -0.5217,126.4238 0.7083,101.8138 C1.8853,78.2648 23.5513,66.0188 38.3863,46.9448 C49.9253,32.1088 49.0623,24.3378 49.0623,24.3378 C49.0623,24.3378 41.6293,24.8898 35.7963,24.1618 C31.5573,23.6308 27.0243,22.5128 24.9643,21.5118 C21.3863,19.7748 24.0223,15.1538 29.9093,14.2118 C32.8523,13.7408 35.0363,13.9878 36.5123,14.0548 C38.6813,14.1528 39.2063,13.5928 39.8193,12.3668 C39.8193,12.3668 41.0943,8.8548 41.8013,7.2648 C42.2293,6.3028 43.6243,5.4768 45.1563,6.5588 C46.1573,7.2648 47.2593,8.3168 48.1003,9.2078 C49.1013,10.2678 50.2193,9.3258 50.5733,8.1478" id="Fill-75" fill="#D8DDEA" mask="url(#mask-7)"></path>
                        </g>
                        <path d="M48.2764,438.5999 C47.5704,442.9929 46.1574,446.3689 44.9014,450.2929 C44.5904,451.2649 45.1534,451.5189 46.1574,450.3709 C47.2564,449.1159 48.1204,447.8599 49.5334,445.5049 C50.2554,444.3009 51.1034,442.7569 51.6324,441.6389 C51.9604,440.9479 52.5484,441.1729 52.6334,441.9329 C52.8544,443.9079 53.2194,446.6439 53.4854,449.4909 C53.5564,450.2519 54.2504,450.2909 54.4684,449.4539 C55.1184,446.5169 55.5584,444.4469 55.9894,442.9929 C56.4604,441.4039 57.5474,441.6289 58.0494,443.0519 C58.7564,445.0529 59.4634,447.2899 60.0514,449.6459 C60.6474,452.0289 61.5324,456.2109 61.9944,456.1209 C62.6574,455.9919 62.2994,451.9029 61.9774,449.4439 C61.3234,444.4359 59.3634,436.1419 57.6964,431.3749 C54.1844,433.0229 48.2764,438.5999 48.2764,438.5999" id="Fill-78" fill="#C5CBD8"></path>
                        <path d="M48.9053,433.181 C41.3303,433.986 35.8353,433.22 33.3233,432.749 C34.6713,432.706 37.5973,432.48 38.9363,432.318 C41.5263,432.003 43.4103,431.218 41.7613,430.041 C41.0543,429.535 41.4483,428.729 43.0183,429.178 C45.2163,429.806 47.2923,430.208 49.2193,429.727 C50.7893,429.334 51.2263,427.467 51.4953,425.959 C51.8873,423.761 52.8563,423.012 52.9083,425.253 C52.9873,428.628 54.5873,427.966 55.6553,426.43 C56.7233,424.895 57.3433,423.329 57.9323,421.269 C58.0503,423.212 57.5203,428.51 55.9893,429.746 C50.9253,433.837 48.9053,433.181 48.9053,433.181" id="Fill-80" fill="#C5CBD8"></path>
                        <polyline id="Stroke-82" stroke="#23478D" stroke-width="4" stroke-linecap="round" stroke-linejoin="round" points="49.2193 434.7503 57.1473 429.8063 47.7663 439.9713 58.6383 434.9073"></polyline>
                        <path d="M37.5625,423.8001 C37.5625,423.8001 28.4965,433.4551 24.6105,428.9821 C23.0035,427.1311 26.6125,424.6241 29.5555,424.0361 C32.4995,423.4471 37.5625,423.8001 37.5625,423.8001" id="Fill-84" fill="#C5CBD8"></path>
                        <path d="M117.8247,20.449 L127.0067,36.305 C130.3837,42.742 136.3677,45.658 141.8477,45.254 L255.5987,45.254 C262.0357,45.254 267.9087,42.742 271.1067,36.15 L281.0957,16.367" id="Stroke-86" stroke="#23478D" stroke-width="12" stroke-linecap="round"></path>
                        <path d="M340.4395,203.5013 L278.2705,4.5933" id="Stroke-88" stroke="#23478D" stroke-width="12" stroke-linecap="round"></path>
                        <path d="M70.7271,203.5013 L122.8481,0.6683" id="Stroke-90" stroke="#23478D" stroke-width="12" stroke-linecap="round"></path>
                        <path d="M269.6357,45.2538 C276.0727,45.2538 281.8807,40.5448 281.8807,32.6948 L281.8807,16.3678" id="Stroke-92" stroke="#2474CD" stroke-width="12" stroke-linecap="round"></path>
                        <path d="M263.5186,43.1234 C260.2856,40.9594 258.1086,37.2014 258.2576,32.2744 L258.2736,15.9504" id="Stroke-94" stroke="#23478D" stroke-width="12" stroke-linecap="round"></path>
                        <path d="M113.4858,43.2831 C116.7028,41.2011 118.9228,37.5481 118.9228,32.6951 L118.9228,16.3671" id="Stroke-96" stroke="#2474CD" stroke-width="12" stroke-linecap="round"></path>
                        <path d="M229.1318,199.4984 C230.2208,199.9984 230.6128,202.2954 227.8658,205.1204 C233.2038,203.0794 233.6178,193.5084 233.5278,191.8064 C232.4188,193.0374 228.4548,196.6134 224.3628,199.3514 C224.0358,199.5704 224.2458,199.9284 224.6258,199.8214 C226.1718,199.3894 228.0428,198.9984 229.1318,199.4984" id="Fill-98" fill="#2B2B51"></path>
                        <path d="M247.1074,161.0355 C246.7934,161.8205 244.9884,172.9675 245.7724,174.8505 C246.2614,176.0235 248.2204,176.3035 249.2204,176.2235 C249.6034,176.1935 249.7204,175.6975 249.3974,175.4905 C248.6664,175.0215 247.7834,174.2635 247.6574,173.2805 C247.2644,170.2195 247.1074,161.0355 247.1074,161.0355" id="Fill-100" fill="#2B2B51"></path>
                        <path d="M228.2686,180.1888 C226.4626,180.7378 226.6096,180.1488 227.0036,179.8518 C229.0186,178.3348 231.5426,176.0428 231.9576,173.8308 C232.7686,169.5058 233.8416,160.6428 233.8416,160.6428 C233.8416,160.6428 235.4116,172.3388 234.7836,175.4788 C234.3576,177.6068 231.2416,179.2838 228.2686,180.1888" id="Fill-102" fill="#2B2B51"></path>
                        <path d="M239.9082,143.3539 C239.9082,143.3539 249.8772,139.1399 260.5612,139.3869 C266.5962,139.5259 272.4392,141.2569 274.6902,142.0189 C275.2982,142.2239 275.3992,143.0369 274.8612,143.3849 L269.7432,146.7579 C269.3142,147.0359 269.1412,147.5769 269.3312,148.0519 L271.8452,154.5679 C272.0892,155.1799 271.4702,155.7759 270.8652,155.5159 C268.2672,154.3949 261.8262,152.0129 255.8402,151.9399 C249.6302,151.8639 243.0582,153.7199 243.0582,153.7199 L239.9082,143.3539 Z" id="Fill-104" fill="#E86A46"></path>
                        <path d="M250.0117,150.9095 C255.0347,164.4105 258.4107,177.0885 261.8647,191.7265 C263.5187,198.7375 259.7107,202.0615 253.7007,201.4615 C245.4587,200.6375 239.8077,198.2425 239.8077,198.2425 L250.0117,150.9095 Z" id="Fill-106" fill="#2B2B51"></path>
                        <path d="M198.2041,154.5204 C196.3201,157.6604 195.4881,168.4954 197.3411,181.8374 C198.5181,190.3144 203.9341,194.5534 204.6411,207.1124 C205.0961,215.1944 200.8731,226.1084 200.8731,226.1084 L242.7901,226.1084 C242.7901,226.1084 240.5841,210.3624 240.4351,204.6794 C240.2861,198.9954 243.0411,190.7224 243.9681,188.1944 C246.2281,182.0294 247.9751,178.9854 249.1481,173.1234 C250.5611,166.0594 250.7871,154.7044 250.3251,152.1654 C250.0121,150.4384 249.3841,148.3974 247.1851,146.8274 C247.1851,146.8274 215.3951,143.6874 208.1731,146.7494 C200.9521,149.8104 200.0881,151.3804 198.2041,154.5204" id="Fill-108" fill="#42426C"></path>
                        <path d="M250.4541,160.5628 C250.6091,156.6918 250.5491,153.3938 250.3251,152.1658 C250.0121,150.4378 249.3841,148.3978 247.1851,146.8278 C247.1851,146.8278 228.0051,144.9348 216.0571,145.5238 C224.9691,153.3538 238.2251,162.0778 250.4541,160.5628" id="Fill-110" fill="#2B2B51"></path>
                        <path d="M216.2583,141.3329 L210.4493,145.1009 C210.4493,145.1009 222.2123,150.7739 234.7833,151.0659 C241.5343,151.2239 244.9883,150.2819 247.5003,148.7119 C248.3363,148.1889 248.3583,147.2069 247.5673,146.6289 C244.8313,144.6299 239.8073,142.5889 239.8073,142.5889 L216.2583,141.3329 Z" id="Fill-112" fill="#E86A46"></path>
                        <path d="M208.5371,144.9095 C210.5281,143.6595 212.9401,143.2415 215.2241,143.7965 C218.7391,144.6495 226.0351,146.6955 237.1391,151.5375 C252.2211,158.1145 252.6651,151.8015 266.8091,144.6295 C277.6981,139.1085 286.1891,134.0375 310.4301,137.4645 C311.0681,137.5545 311.2721,138.3805 310.7501,138.7605 L305.5311,142.5465 C304.7871,143.0855 304.1741,143.5305 305.1911,144.8635 L309.6701,150.7275 C310.0731,151.2555 309.6541,152.0085 308.9931,151.9395 C304.7921,151.4995 293.6231,150.8655 280.7821,154.5205 C260.3731,160.3285 256.1351,167.7075 244.9881,166.6085 C239.7551,166.0925 231.9661,160.8085 223.4801,156.4045 C215.9751,152.5095 207.8131,149.7105 204.6191,148.6785 C204.0731,148.5015 203.9811,147.7675 204.4681,147.4625 L208.5371,144.9095 Z" id="Fill-114" fill="#FF7E59"></path>
                        <path d="M230.9375,196.2796 C230.3875,194.7106 231.5285,193.8866 232.4875,192.9046 C234.8725,190.4616 237.2165,187.8016 239.1515,180.3236 C239.8495,177.6226 240.4355,170.4556 240.5915,171.9466 C240.7495,173.4376 240.0145,178.5236 239.8855,182.3076 C239.8265,184.0606 239.1375,187.9276 240.8825,188.1126 C242.3975,188.2736 246.0865,182.6616 247.6175,179.0106 C246.0895,182.7116 241.9885,193.6896 241.7695,194.0826 C240.1995,196.9086 233.0565,204.2866 226.7765,206.0926 C232.0755,201.6176 231.5155,197.9336 230.9375,196.2796" id="Fill-116" fill="#2B2B51"></path>
                        <path d="M232.6641,200.6761 C232.6641,200.6761 228.6611,205.1501 222.5381,208.9181 C216.4151,212.6861 204.4841,218.2591 204.4841,218.2591 L239.0221,207.0341 L232.6641,200.6761 Z" id="Fill-118" fill="#2B2B51"></path>
                        <path d="M242.6328,199.263 C241.5618,203.119 241.5478,206.038 238.6298,205.621 C234.7828,205.072 231.8348,202.224 232.5858,198.321 C233.3698,194.24 238.3208,190.537 241.8478,190.785 C246.3218,191.099 243.4178,196.437 242.6328,199.263" id="Fill-120" fill="#FFAEAE"></path>
                    </g>
                    <g id="Group-125" transform="translate(276.000000, 320.667000)">
                        <mask id="mask-9" fill="white">
                            <use xlink:href="#path-8"></use>
                        </mask>
                        <g id="Clip-124"></g>
                        <path d="M6.976,0.638 C-0.832,1.362 0.757,8.761 1.907,16.893 C3.19,25.969 5.371,31.379 12.06,30.739 C18.749,30.1 25.08,23.388 24.255,14.757 C23.469,6.53 14.562,0.595 7.935,0.595 C7.61,0.595 7.289,0.609 6.976,0.638" id="Fill-123" fill="url(#radialGradient-10)" mask="url(#mask-9)"></path>
                    </g>
                    <g id="Group-271" transform="translate(0.000000, 0.667000)">
                        <path d="M288.8457,350.4251 L289.6137,355.7631 L308.9407,354.8211 L305.9577,341.3201 C305.9577,341.3201 299.3637,339.4361 291.6887,346.0211 C290.2337,347.2691 288.7697,348.3991 288.8457,350.4251" id="Fill-126" fill="#FFAEAE"></path>
                        <path d="M286.7363,354.1693 L287.2583,354.9533 C287.6723,355.5733 287.8313,356.3303 287.7013,357.0653 L287.6293,357.4733 C287.5263,358.0573 287.9713,358.5953 288.5653,358.6023 C288.5653,358.6023 295.9853,359.7433 302.9743,359.6883 C312.8653,359.6093 314.4353,358.9023 314.4353,358.9023 C314.4353,358.9023 312.3943,356.2343 311.4523,353.2513 C310.5103,350.2683 310.1963,347.7563 310.1963,347.7563 C310.1963,347.7563 302.4243,348.3063 296.9303,349.4833 C291.4363,350.6613 287.1493,352.4663 287.1493,352.4663 C286.5403,352.8043 286.3503,353.5903 286.7363,354.1693" id="Fill-128" fill="#FF7E59"></path>
                        <path d="M284.6968,330.474 C285.2548,335.528 288.0608,334.726 288.0608,334.726 L292.7708,330.016 C293.9478,333.902 290.0648,337.025 293.5548,342.262 C296.0668,346.03 301.0908,346.108 305.4868,347.678 C311.4398,349.804 310.9038,354.272 316.3198,354.036 C319.8788,353.881 321.9708,351.681 319.6158,349.013 C317.2608,346.344 319.0438,346.188 321.2648,346.972 C323.9338,347.913 326.6018,348.541 328.0938,348.385 C332.6398,347.906 332.9908,343.245 331.1548,341.084 C327.1518,336.374 329.2708,334.255 325.7388,330.487 C322.1048,326.611 317.4958,327.661 314.4358,320.911 C312.1798,315.937 309.7258,310.706 301.2478,310.549 C297.1638,310.474 295.1248,308.195 291.0438,307.959 C286.7298,307.71 281.9378,308.901 279.2688,313.689 C278.4148,315.223 275.6968,315.828 274.4028,319.655 C272.3068,325.845 277.1108,329.957 277.1108,329.957 L277.1108,327.544 C277.0508,325.13 279.4618,322.249 279.7598,324.482 C280.1178,327.167 281.9148,328.605 283.3778,329.002 C284.0758,329.192 284.6168,329.755 284.6968,330.474" id="Fill-130" fill="#423748"></path>
                        <path d="M293.2441,331.4564 C293.2571,336.0334 290.8561,338.7684 289.4311,338.6504 C288.0051,338.5324 287.8231,336.0494 288.0801,332.9384 C288.3371,329.8284 289.2051,327.7424 290.6101,327.4734 C292.4671,327.1184 293.2351,328.3344 293.2441,331.4564" id="Fill-132" fill="#FFAEAE"></path>
                        <polygon id="Fill-134" fill="#2B2B51" points="273.8525 405.765 286.5695 391.244 277.6205 415.813"></polygon>
                        <path d="M181.5117,261.2 C175.0777,261.005 169.4147,256.12 169.6537,248.274 L169.6687,231.95" id="Stroke-136" stroke="#23478D" stroke-width="12" stroke-linecap="round"></path>
                        <path d="M392.6855,617.9398 L132.2555,617.9398 C117.1205,617.9398 104.8515,605.6698 104.8515,590.5348 L104.8515,418.8738 L141.1165,418.8738 C163.2515,418.8738 198.2615,448.3878 243.9455,448.3878 C289.6305,448.3878 320.0865,418.8738 342.2225,418.8738 L420.0905,418.8738 L420.0905,590.5348 C420.0905,605.6698 407.8215,617.9398 392.6855,617.9398" id="Fill-138" fill="#42426C"></path>
                        <path d="M420.1299,418.9525 L381.8239,418.9525 L381.7859,601.2985 L122.8369,601.2985 C112.0729,601.2985 104.8509,593.4485 104.8509,583.3125 L104.8509,590.8485 C104.8509,605.9835 117.1209,618.2535 132.2559,618.2535 L392.6859,618.2535 C407.8209,618.2535 420.0909,605.9835 420.0909,590.8485 L420.1299,418.9525 Z" id="Fill-140" fill="#2B2B51"></path>
                        <path d="M380.5283,419.5013 L328.4073,216.6683" id="Stroke-142" stroke="#2474CD" stroke-width="12" stroke-linecap="round"></path>
                        <path d="M385.8662,420.4437 L422.2892,420.4437" id="Stroke-144" stroke="#23478D" stroke-width="12" stroke-linecap="round"></path>
                        <path d="M110.8169,419.5013 L173.1429,220.7503" id="Stroke-146" stroke="#2474CD" stroke-width="12" stroke-linecap="round"></path>
                        <path d="M168.2759,236.449 L177.4579,252.305 C180.8349,258.742 186.8189,261.658 192.2989,261.254 L306.0499,261.254 C312.4869,261.254 318.3599,258.742 321.5579,252.15 L331.5469,232.367" id="Stroke-148" stroke="#2474CD" stroke-width="12" stroke-linecap="round"></path>
                        <path d="M441.3926,473.4281 C441.2736,473.5811 441.1156,473.6361 440.9596,473.5881 C440.6516,470.7661 440.3106,470.3071 440.2746,470.2791 C440.1746,470.2001 440.0386,470.3671 439.8966,471.5981 C439.5996,470.7681 439.5726,470.2151 439.5086,469.9851 C439.3816,469.5271 438.9686,468.8951 438.9496,469.3661 C438.9496,493.0321 432.7326,501.8301 424.1556,511.3201 L423.7156,511.8061 C414.7926,521.6871 409.1486,536.2701 408.9126,536.8861 C408.5396,537.8581 409.0256,538.9461 409.9966,539.3181 C410.2186,539.4041 410.4476,539.4441 410.6716,539.4441 C411.4286,539.4441 412.1436,538.9841 412.4306,538.2341 C412.4866,538.0891 417.1726,523.1791 425.6186,513.8281 L426.0566,513.3441 C434.8546,503.6101 442.6986,496.4241 442.6986,471.3091 C442.7116,469.8461 441.8786,472.8031 441.3926,473.4281" id="Fill-150" fill="#23478D"></path>
                        <path d="M398.7988,523.8822 C398.7988,523.8822 401.0948,527.1192 403.7638,528.6902 C406.4328,530.2592 408.7868,530.8092 411.9268,530.9662 C415.0678,531.1232 418.4618,531.9472 418.4618,532.8892 L412.0838,538.1882 L401.7228,533.3202 L398.7988,523.8822 Z" id="Fill-152" fill="#C5CBD8"></path>
                        <path d="M399.0928,538.0697 C400.4478,544.6517 402.1548,547.7247 401.8798,550.4327 C401.0148,558.9597 393.7158,592.1927 389.9478,618.5677 C386.6568,641.6017 399.9958,663.7817 419.4628,666.7637 C437.0748,669.4627 448.6868,658.3917 451.3318,648.3957 C453.4508,640.3887 456.5128,623.9057 439.8718,600.3567 C423.2308,576.8077 413.6938,559.7347 413.2228,552.6707 C413.0148,549.5607 414.8508,541.5707 418.2848,533.9487 C418.9598,532.4517 418.2848,532.2607 416.4798,532.4187 C415.9658,532.4637 415.6958,532.5477 415.2238,532.5757 C412.5548,532.7317 412.1628,531.1237 411.3778,529.3567 C411.0948,528.7207 410.8668,527.9047 410.5148,527.1197 C409.9828,525.9367 409.1218,525.1317 408.0808,526.8057 C407.6298,527.5317 407.5118,527.7087 407.1578,528.2977 C406.8058,528.8857 405.9218,529.3567 405.0388,528.2977 C401.5868,524.1537 400.2168,523.5647 398.9758,523.8227 C396.3958,524.3597 397.4448,530.0627 399.0928,538.0697" id="Fill-154" fill="#D8DDEA"></path>
                        <path d="M402.6279,557.7337 C403.4079,557.2307 402.8019,567.5057 404.4179,570.4067 C404.8619,571.2147 405.6869,560.5007 406.9599,560.1817 C408.1009,559.9117 408.5709,567.5647 410.3969,569.8397 C410.9269,570.5077 409.6719,562.7547 409.6899,559.1457 C409.6919,558.6937 409.6129,558.1117 410.0429,557.9677 C410.4789,557.8237 410.8879,558.4247 411.1619,558.7927 C411.8339,559.6937 412.9279,561.8537 413.1959,561.2367 C413.2809,560.8527 413.0299,559.7737 412.9279,558.8517 C412.8109,557.7927 413.9289,557.9677 414.7529,558.6747 C414.2819,557.0267 413.1719,553.0947 413.1629,551.6697 C413.1569,550.6877 413.5749,547.8417 413.8699,546.4887 C413.3989,548.3137 412.6749,548.2987 412.4569,547.1357 C412.2799,546.1947 412.3989,544.4277 412.1039,544.3097 C411.5549,543.9767 411.0439,545.3107 410.6909,546.1347 C410.2149,547.2457 409.3549,549.6567 408.3359,547.1357 C407.2179,544.3697 406.5049,541.6887 405.9819,539.3057 C405.3329,536.3627 404.5089,535.6567 404.5679,537.8927 C404.6079,539.4227 404.8039,541.9557 404.8619,543.8387 C404.8969,544.9407 404.7939,546.9157 403.2139,545.5457 C401.4479,544.0157 400.3289,541.8377 399.8389,541.0917 C400.8599,545.2507 402.1889,548.0547 401.8009,550.1387 C400.9279,554.8397 399.2699,565.6227 398.7989,568.0937 C398.7989,568.0937 401.6249,558.3797 402.6279,557.7337" id="Fill-156" fill="#C5CBD8"></path>
                        <polyline id="Stroke-158" stroke="#23478D" stroke-width="4" stroke-linecap="round" stroke-linejoin="round" points="402.1934 550.1195 412.8694 551.6885 401.8604 553.1995 413.6544 555.9285"></polyline>
                        <path d="M324.082,69.096 C324.082,69.096 324.261,89.73 314.66,89.191 C309.066,88.877 302.583,81.027 301.405,69.724 C300.867,64.557 301.152,57.141 301.719,53.397 C303.699,40.311 296.583,32.322 290.729,25.766 C282.88,16.974 279.112,0.333 279.112,0.333 C279.112,0.333 258.632,18.071 263.099,43.977 C265.457,57.659 261.911,65.476 256.191,72.236 C252.737,76.317 247.085,76.003 243.632,69.724 C237.519,58.608 237.352,44.919 244.061,33.223 C243.969,33.247 243.881,33.278 243.789,33.302 C227.305,37.54 210.82,47.902 209.408,72.864 C208.687,85.595 202.165,90.799 198.951,95.941 C193.357,104.89 196.047,117.65 202.189,126.555 C208.915,136.305 218.942,143.815 224.129,147.315 C226.061,148.618 228.548,148.707 230.589,147.58 C235.862,144.669 247.748,139.428 264.982,139.428 C281.735,139.428 294.748,144.815 300.704,147.82 C302.96,148.958 305.702,148.587 307.566,146.881 C322.987,132.768 331.775,116.474 332.326,100.18 C332.939,82.034 324.082,69.096 324.082,69.096" id="Fill-160" fill="#E86A46"></path>
                        <path d="M237.521,138.3294 C228.982,131.0294 218.089,127.4964 213.378,113.8384 C211.075,107.1624 213.05,99.8354 214.194,95.5114 C214.361,94.8794 215.455,94.8234 215.73,95.4304 C217.154,98.5734 220.189,104.4174 223.977,106.7734 C229.277,110.0704 220.886,94.1754 223.977,83.6964 C225.847,77.3564 231.927,68.1534 231.927,68.1534 C231.927,68.1534 230.455,78.5154 235.754,87.9344 C241.054,97.3544 244.587,101.1214 245.765,111.4834 C246.942,121.8454 247.94,129.9124 246.942,131.0294 C246.207,131.8534 242.184,127.7504 238.699,127.4964 C233.84,127.1434 236.343,134.7964 237.521,138.3294" id="Fill-162" fill="#FF7E59"></path>
                        <path d="M269.3784,139.5853 C269.3784,139.5853 257.1004,132.3243 254.3034,121.4923 C252.3234,113.8253 255.0394,104.0653 265.0494,96.7653 C275.0604,89.4653 277.2684,85.4623 278.1514,79.1043 C279.0354,72.7463 276.9744,63.0903 277.8574,53.9073 C278.7404,44.7233 283.4514,39.0713 283.4514,39.0713 C283.4514,39.0713 279.9184,54.6133 283.7454,64.2683 C287.5734,73.9233 302.0584,92.2623 306.1224,104.3013 C314.0714,127.8503 288.3744,142.9213 288.3744,142.9213 C288.3744,142.9213 283.6784,141.4733 278.6414,140.6063 C274.1394,139.8303 269.3094,139.5843 269.3784,139.5853" id="Fill-164" fill="#FF7E59"></path>
                        <path d="M272.9106,139.8206 C272.9106,139.8206 266.9636,127.7326 269.6136,118.3126 C271.4676,111.7206 276.6256,107.9816 280.5066,103.7126 C282.8626,101.1216 283.8016,98.0586 284.1386,99.4736 C285.3156,104.4186 282.9086,108.2286 282.1756,111.0126 C280.9976,115.4866 281.8806,118.7056 286.0026,123.6506 C290.1246,128.5956 290.8866,137.8586 286.1766,142.2546 C286.1766,142.2546 281.9376,141.2336 279.6616,140.8016 C277.6126,140.4136 272.9106,139.8206 272.9106,139.8206" id="Fill-166" fill="#FFFFFF"></path>
                        <path d="M303.9297,239.9031 L277.3817,239.9031 C274.5087,239.9031 272.1787,237.5731 272.1787,234.6991 L272.1787,151.3601 L309.1337,151.3601 L309.1337,234.6991 C309.1337,237.5731 306.8037,239.9031 303.9297,239.9031" id="Fill-168" fill="#C5CBD8"></path>
                        <path d="M297.3364,239.9031 L270.7884,239.9031 C267.9144,239.9031 265.5844,237.5731 265.5844,234.6991 L265.5844,151.3601 L302.5404,151.3601 L302.5404,234.6991 C302.5404,237.5731 300.2104,239.9031 297.3364,239.9031" id="Fill-170" fill="#D8DDEA"></path>
                        <path d="M290.9702,228.2855 C290.9702,232.1005 287.8772,235.1935 284.0622,235.1935 C280.2472,235.1935 277.1552,232.1005 277.1552,228.2855 C277.1552,224.4705 280.2472,221.3775 284.0622,221.3775 C287.8772,221.3775 290.9702,224.4705 290.9702,228.2855" id="Fill-172" fill="#2B2B51"></path>
                        <path d="M287.8301,228.2855 C287.8301,230.3665 286.1431,232.0535 284.0621,232.0535 C281.9811,232.0535 280.2941,230.3665 280.2941,228.2855 C280.2941,226.2045 281.9811,224.5175 284.0621,224.5175 C286.1431,224.5175 287.8301,226.2045 287.8301,228.2855" id="Fill-174" fill="#42426C"></path>
                        <path d="M297.4292,243.8206 C296.7722,244.3816 295.7772,244.3036 295.2152,243.6476 L282.9722,229.3286 C282.4112,228.6726 282.4892,227.6766 283.1452,227.1156 C283.8022,226.5546 284.7982,226.6326 285.3592,227.2886 L297.6022,241.6066 C298.1632,242.2626 298.0852,243.2586 297.4292,243.8206" id="Fill-176" fill="#42426C"></path>
                        <path d="M260.3647,239.9031 L233.8167,239.9031 C230.9427,239.9031 228.6127,237.5731 228.6127,234.6991 L228.6127,151.3601 L265.5687,151.3601 L265.5687,234.6991 C265.5687,237.5731 263.2387,239.9031 260.3647,239.9031" id="Fill-178" fill="#C5CBD8"></path>
                        <path d="M254.4775,239.9031 L227.9295,239.9031 C225.0555,239.9031 222.7255,237.5731 222.7255,234.6991 L222.7255,151.3601 L259.6815,151.3601 L259.6815,234.6991 C259.6815,237.5731 257.3515,239.9031 254.4775,239.9031" id="Fill-180" fill="#D8DDEA"></path>
                        <path d="M248.1113,228.2855 C248.1113,232.1005 245.0183,235.1935 241.2033,235.1935 C237.3883,235.1935 234.2963,232.1005 234.2963,228.2855 C234.2963,224.4705 237.3883,221.3775 241.2033,221.3775 C245.0183,221.3775 248.1113,224.4705 248.1113,228.2855" id="Fill-182" fill="#2B2B51"></path>
                        <path d="M244.9717,228.2855 C244.9717,230.3665 243.2847,232.0535 241.2037,232.0535 C239.1227,232.0535 237.4357,230.3665 237.4357,228.2855 C237.4357,226.2045 239.1227,224.5175 241.2037,224.5175 C243.2847,224.5175 244.9717,226.2045 244.9717,228.2855" id="Fill-184" fill="#42426C"></path>
                        <path d="M228.0415,243.8206 C228.6975,244.3816 229.6935,244.3036 230.2545,243.6476 L242.4975,229.3286 C243.0595,228.6726 242.9805,227.6766 242.3245,227.1156 C241.6685,226.5546 240.6725,226.6326 240.1115,227.2886 L227.8685,241.6066 C227.3075,242.2626 227.3855,243.2586 228.0415,243.8206" id="Fill-186" fill="#42426C"></path>
                        <path d="M356.666,216.511 C356.666,218.866 314.563,217.924 262.628,217.924 C210.692,217.924 168.59,218.552 168.59,216.511 C168.59,213.13 210.692,206.621 262.628,206.621 C314.563,206.621 356.666,213.13 356.666,216.511" id="Fill-188" fill="#C5CBD8"></path>
                        <path d="M255.9136,211.095 L226.4936,211.095 C224.4126,211.095 222.7256,209.408 222.7256,207.327 L222.7256,151.477 L259.6816,151.477 L259.6816,207.327 C259.6816,209.408 257.9946,211.095 255.9136,211.095" id="Fill-190" fill="#E9EEFB"></path>
                        <path d="M256.3926,155.991 L226.0146,155.991 C225.3676,155.991 224.8376,155.461 224.8376,154.813 C224.8376,154.166 225.3676,153.636 226.0146,153.636 L256.3926,153.636 C257.0396,153.636 257.5696,154.166 257.5696,154.813 C257.5696,155.461 257.0396,155.991 256.3926,155.991" id="Fill-192" fill="#C5CBD8"></path>
                        <path d="M256.3926,160.2884 L226.0146,160.2884 C225.3676,160.2884 224.8376,159.7584 224.8376,159.1114 C224.8376,158.4634 225.3676,157.9334 226.0146,157.9334 L256.3926,157.9334 C257.0396,157.9334 257.5696,158.4634 257.5696,159.1114 C257.5696,159.7584 257.0396,160.2884 256.3926,160.2884" id="Fill-194" fill="#C5CBD8"></path>
                        <path d="M256.3926,164.5862 L226.0146,164.5862 C225.3676,164.5862 224.8376,164.0562 224.8376,163.4082 C224.8376,162.7612 225.3676,162.2312 226.0146,162.2312 L256.3926,162.2312 C257.0396,162.2312 257.5696,162.7612 257.5696,163.4082 C257.5696,164.0562 257.0396,164.5862 256.3926,164.5862" id="Fill-196" fill="#C5CBD8"></path>
                        <path d="M256.3926,168.8836 L226.0146,168.8836 C225.3676,168.8836 224.8376,168.3536 224.8376,167.7066 C224.8376,167.0586 225.3676,166.5286 226.0146,166.5286 L256.3926,166.5286 C257.0396,166.5286 257.5696,167.0586 257.5696,167.7066 C257.5696,168.3536 257.0396,168.8836 256.3926,168.8836" id="Fill-198" fill="#C5CBD8"></path>
                        <path d="M256.3926,173.1815 L226.0146,173.1815 C225.3676,173.1815 224.8376,172.6515 224.8376,172.0035 C224.8376,171.3565 225.3676,170.8265 226.0146,170.8265 L256.3926,170.8265 C257.0396,170.8265 257.5696,171.3565 257.5696,172.0035 C257.5696,172.6515 257.0396,173.1815 256.3926,173.1815" id="Fill-200" fill="#C5CBD8"></path>
                        <path d="M256.3926,177.4793 L226.0146,177.4793 C225.3676,177.4793 224.8376,176.9493 224.8376,176.3013 C224.8376,175.6543 225.3676,175.1243 226.0146,175.1243 L256.3926,175.1243 C257.0396,175.1243 257.5696,175.6543 257.5696,176.3013 C257.5696,176.9493 257.0396,177.4793 256.3926,177.4793" id="Fill-202" fill="#C5CBD8"></path>
                        <path d="M256.3926,181.7767 L226.0146,181.7767 C225.3676,181.7767 224.8376,181.2467 224.8376,180.5997 C224.8376,179.9517 225.3676,179.4217 226.0146,179.4217 L256.3926,179.4217 C257.0396,179.4217 257.5696,179.9517 257.5696,180.5997 C257.5696,181.2467 257.0396,181.7767 256.3926,181.7767" id="Fill-204" fill="#C5CBD8"></path>
                        <path d="M256.3926,186.0745 L226.0146,186.0745 C225.3676,186.0745 224.8376,185.5445 224.8376,184.8965 C224.8376,184.2495 225.3676,183.7195 226.0146,183.7195 L256.3926,183.7195 C257.0396,183.7195 257.5696,184.2495 257.5696,184.8965 C257.5696,185.5445 257.0396,186.0745 256.3926,186.0745" id="Fill-206" fill="#C5CBD8"></path>
                        <path d="M256.3926,190.3719 L226.0146,190.3719 C225.3676,190.3719 224.8376,189.8419 224.8376,189.1949 C224.8376,188.5469 225.3676,188.0169 226.0146,188.0169 L256.3926,188.0169 C257.0396,188.0169 257.5696,188.5469 257.5696,189.1949 C257.5696,189.8419 257.0396,190.3719 256.3926,190.3719" id="Fill-208" fill="#C5CBD8"></path>
                        <path d="M298.7725,211.095 L269.3525,211.095 C267.2715,211.095 265.5845,209.408 265.5845,207.327 L265.5845,151.477 L302.5405,151.477 L302.5405,207.327 C302.5405,209.408 300.8535,211.095 298.7725,211.095" id="Fill-210" fill="#E9EEFB"></path>
                        <path d="M290.8335,204.2659 L277.2915,204.2659 C276.7415,204.2659 276.2915,203.8159 276.2915,203.2659 L276.2915,198.2009 C276.2915,197.6509 276.7415,197.2009 277.2915,197.2009 L290.8335,197.2009 C291.3835,197.2009 291.8335,197.6509 291.8335,198.2009 L291.8335,203.2659 C291.8335,203.8159 291.3835,204.2659 290.8335,204.2659" id="Fill-212" fill="#FF7E59"></path>
                        <path d="M299.2515,155.991 L268.8735,155.991 C268.2265,155.991 267.6955,155.461 267.6955,154.813 C267.6955,154.166 268.2265,153.636 268.8735,153.636 L299.2515,153.636 C299.8985,153.636 300.4285,154.166 300.4285,154.813 C300.4285,155.461 299.8985,155.991 299.2515,155.991" id="Fill-214" fill="#C5CBD8"></path>
                        <path d="M299.2515,160.2884 L268.8735,160.2884 C268.2265,160.2884 267.6955,159.7584 267.6955,159.1114 C267.6955,158.4634 268.2265,157.9334 268.8735,157.9334 L299.2515,157.9334 C299.8985,157.9334 300.4285,158.4634 300.4285,159.1114 C300.4285,159.7584 299.8985,160.2884 299.2515,160.2884" id="Fill-216" fill="#C5CBD8"></path>
                        <path d="M299.2515,164.5862 L268.8735,164.5862 C268.2265,164.5862 267.6955,164.0562 267.6955,163.4082 C267.6955,162.7612 268.2265,162.2312 268.8735,162.2312 L299.2515,162.2312 C299.8985,162.2312 300.4285,162.7612 300.4285,163.4082 C300.4285,164.0562 299.8985,164.5862 299.2515,164.5862" id="Fill-218" fill="#C5CBD8"></path>
                        <path d="M299.2515,168.8836 L268.8735,168.8836 C268.2265,168.8836 267.6955,168.3536 267.6955,167.7066 C267.6955,167.0586 268.2265,166.5286 268.8735,166.5286 L299.2515,166.5286 C299.8985,166.5286 300.4285,167.0586 300.4285,167.7066 C300.4285,168.3536 299.8985,168.8836 299.2515,168.8836" id="Fill-220" fill="#C5CBD8"></path>
                        <path d="M299.2515,173.1815 L268.8735,173.1815 C268.2265,173.1815 267.6955,172.6515 267.6955,172.0035 C267.6955,171.3565 268.2265,170.8265 268.8735,170.8265 L299.2515,170.8265 C299.8985,170.8265 300.4285,171.3565 300.4285,172.0035 C300.4285,172.6515 299.8985,173.1815 299.2515,173.1815" id="Fill-222" fill="#C5CBD8"></path>
                        <path d="M299.2515,177.4793 L268.8735,177.4793 C268.2265,177.4793 267.6955,176.9493 267.6955,176.3013 C267.6955,175.6543 268.2265,175.1243 268.8735,175.1243 L299.2515,175.1243 C299.8985,175.1243 300.4285,175.6543 300.4285,176.3013 C300.4285,176.9493 299.8985,177.4793 299.2515,177.4793" id="Fill-224" fill="#C5CBD8"></path>
                        <path d="M299.2515,181.7767 L268.8735,181.7767 C268.2265,181.7767 267.6955,181.2467 267.6955,180.5997 C267.6955,179.9517 268.2265,179.4217 268.8735,179.4217 L299.2515,179.4217 C299.8985,179.4217 300.4285,179.9517 300.4285,180.5997 C300.4285,181.2467 299.8985,181.7767 299.2515,181.7767" id="Fill-226" fill="#C5CBD8"></path>
                        <path d="M299.2515,186.0745 L268.8735,186.0745 C268.2265,186.0745 267.6955,185.5445 267.6955,184.8965 C267.6955,184.2495 268.2265,183.7195 268.8735,183.7195 L299.2515,183.7195 C299.8985,183.7195 300.4285,184.2495 300.4285,184.8965 C300.4285,185.5445 299.8985,186.0745 299.2515,186.0745" id="Fill-228" fill="#C5CBD8"></path>
                        <path d="M299.2515,190.3719 L268.8735,190.3719 C268.2265,190.3719 267.6955,189.8419 267.6955,189.1949 C267.6955,188.5469 268.2265,188.0169 268.8735,188.0169 L299.2515,188.0169 C299.8985,188.0169 300.4285,188.5469 300.4285,189.1949 C300.4285,189.8419 299.8985,190.3719 299.2515,190.3719" id="Fill-230" fill="#C5CBD8"></path>
                        <path d="M78.0054,57.7923 L169.1394,215.8043" id="Stroke-232" stroke="#D8DDEA" stroke-width="2" stroke-linecap="round"></path>
                        <path d="M134.5225,57.7923 L197.3975,215.8043" id="Stroke-234" stroke="#E9EEFB" stroke-width="2" stroke-linecap="round"></path>
                        <path d="M247.9746,204.2659 L234.4326,204.2659 C233.8826,204.2659 233.4326,203.8159 233.4326,203.2659 L233.4326,198.2009 C233.4326,197.6509 233.8826,197.2009 234.4326,197.2009 L247.9746,197.2009 C248.5246,197.2009 248.9746,197.6509 248.9746,198.2009 L248.9746,203.2659 C248.9746,203.8159 248.5246,204.2659 247.9746,204.2659" id="Fill-236" fill="#FF7E59"></path>
                        <path d="M223.0659,57.7923 L238.8439,215.8043" id="Stroke-238" stroke="#E9EEFB" stroke-width="2" stroke-linecap="round"></path>
                        <path d="M301.9541,57.7923 L286.1771,215.8043" id="Stroke-240" stroke="#E9EEFB" stroke-width="2" stroke-linecap="round"></path>
                        <path d="M153.3613,57.7923 L206.8173,215.8043" id="Stroke-242" stroke="#C5CBD8" stroke-width="2" stroke-linecap="round"></path>
                        <path d="M447.0146,57.7923 L355.8806,215.8043" id="Stroke-244" stroke="#D8DDEA" stroke-width="2" stroke-linecap="round"></path>
                        <path d="M390.498,57.7923 L327.622,215.8043" id="Stroke-246" stroke="#E9EEFB" stroke-width="2" stroke-linecap="round"></path>
                        <path d="M371.6592,57.7923 L318.2032,215.8043" id="Stroke-248" stroke="#C5CBD8" stroke-width="2" stroke-linecap="round"></path>
                        <path d="M242.0615,459.5345 C217.4435,459.5345 200.8135,452.0825 186.1425,445.5095 C173.0505,439.6415 160.6855,434.1015 143.7845,434.1015 L104.8515,434.1015 L104.8515,422.7985 L143.7845,422.7985 C163.1015,422.7985 177.1645,429.0995 190.7645,435.1935 C205.0685,441.6035 219.8605,448.2305 242.0615,448.2305 C265.3445,448.2305 280.3945,441.5975 294.9505,435.1805 C308.7595,429.0935 323.0395,422.7985 343.1655,422.7985 L385.8665,422.7985 L385.8665,434.1015 L343.1655,434.1015 C325.4185,434.1015 312.8335,439.6495 299.5095,445.5235 C284.6105,452.0915 267.7255,459.5345 242.0615,459.5345" id="Fill-250" fill="#2B2B51"></path>
                        <mask id="mask-12" fill="white">
                            <use xlink:href="#path-11"></use>
                        </mask>
                        <g id="Clip-253"></g>
                        <polygon id="Fill-252" fill="#2B2B51" mask="url(#mask-12)" points="174.477 486.616 178.245 486.616 178.245 426.645 174.477 426.645"></polygon>
                        <polygon id="Fill-254" fill="#23478D" mask="url(#mask-12)" points="172.357 443.051 176.125 443.051 176.125 426.41 172.357 426.41"></polygon>
                        <path d="M174.2412,492.0316 C173.2002,492.0316 172.3572,491.1886 172.3572,490.1476 L172.3572,439.5956 L176.1252,441.1666 L176.1252,490.1476 C176.1252,491.1886 175.2822,492.0316 174.2412,492.0316" id="Fill-255" fill="#2474CD" mask="url(#mask-12)"></path>
                        <path d="M168.1616,499.6673 C164.8776,506.9093 147.9926,542.5283 142.7446,554.9903 C131.9316,580.6733 149.6316,606.4793 176.1956,606.4793 C205.0556,606.4793 219.9656,576.2013 210.3026,554.3343 C204.0716,540.2323 187.3536,508.4313 183.2466,500.0593 C182.6966,498.9383 168.4426,499.0483 168.1616,499.6673" id="Fill-256" fill="#2B2B51" mask="url(#mask-12)"></path>
                        <path d="M163.8555,488.9271 C164.4085,489.2721 164.6205,489.9651 164.3515,490.5591 C161.2075,497.4921 145.0415,531.5941 140.0175,543.5261 C129.6645,568.1141 146.6105,592.8211 172.0435,592.8211 C199.6745,592.8211 213.9485,563.8331 204.6975,542.8981 C198.7315,529.3961 182.7265,498.9481 178.7935,490.9331 C178.2675,489.8601 178.2315,488.6181 178.6935,487.5161 C179.5345,485.5081 181.0045,482.6211 179.7365,481.6701 C177.8525,480.2571 174.4375,483.0051 173.4955,481.9061 C172.3305,480.5471 168.3745,471.8391 164.3705,471.9561 C162.6635,472.0071 162.5075,474.7831 162.6065,477.0171 C162.7115,479.3971 162.8985,481.5531 158.1685,480.7281 C156.5515,480.4471 155.1055,480.2761 154.6175,480.8851 C153.2545,482.5891 160.9435,487.1131 163.8555,488.9271" id="Fill-257" fill="#D8DDEA" mask="url(#mask-12)"></path>
                        <path d="M186.0942,505.2787 L180.5012,494.3287 C180.5012,494.3287 178.0092,492.2367 178.0092,490.9327 C178.0092,490.0757 178.2782,488.3347 178.4802,487.3227 C178.5582,486.9297 178.2772,486.6537 177.8522,487.0077 L175.6262,488.6307 C175.1832,488.9707 174.4902,488.9767 174.3512,488.5557 C174.1482,487.9427 173.5642,486.9537 173.2002,486.0607 C172.8862,485.2947 171.9432,484.9947 171.2752,485.4857 C169.9232,486.4777 169.6092,487.2437 167.9622,487.6357 C166.6552,487.9477 165.6812,487.4887 164.8222,487.4007 C164.5182,487.3697 164.2792,487.5907 164.5082,487.7937 L167.3122,490.3257 L166.9942,495.3107 C166.8332,495.8847 166.6522,496.5147 166.4612,497.1787 L161.7212,498.2727 L164.8402,498.0037 C165.5242,497.9437 166.0562,498.5857 165.8682,499.2457 C164.4732,504.1417 162.9812,509.7657 164.0762,509.8107 C165.0262,509.8507 167.8042,504.1207 169.6882,500.1177 C170.2262,498.9737 171.2292,497.8557 172.4182,498.0647 C173.3782,498.2327 173.8422,498.9917 174.3202,500.9017 C175.6542,506.2397 178.6152,518.0077 180.3642,517.3077 C182.1082,516.6107 180.1062,507.0877 179.0882,501.6867 C178.9452,500.9237 179.3042,500.7847 179.8542,501.3337 C181.2272,502.7077 182.4382,504.5727 183.2682,505.8467 C185.2632,508.9087 189.5482,515.6597 190.5682,515.7377 C191.7162,515.8257 186.0942,505.2787 186.0942,505.2787" id="Fill-258" fill="#C5CBD8" mask="url(#mask-12)"></path>
                        <path d="M161.5229,498.3119 C160.6429,498.3119 159.8569,497.6929 159.6779,496.7979 C159.4739,495.7779 160.1349,494.7859 161.1559,494.5819 L163.6659,494.0789 L163.4929,494.0719 C162.4979,494.0329 161.7049,493.2269 161.6829,492.2319 C161.6689,491.5869 161.9799,491.0069 162.4709,490.6569 C162.5329,489.6689 163.3529,488.8929 164.3499,488.8929 L164.3719,488.8929 L178.5009,489.0489 C179.5069,489.0599 180.3259,489.8599 180.3619,490.8639 C180.3659,490.9439 180.3629,491.0229 180.3559,491.0999 C180.9649,491.3759 181.4009,491.9659 181.4569,492.6669 C181.5329,493.6189 180.8849,494.4769 179.9489,494.6639 L161.8939,498.2749 C161.7699,498.2999 161.6459,498.3119 161.5229,498.3119" id="Fill-259" fill="#2474CD" mask="url(#mask-12)"></path>
                        <path d="M102.3389,420.4437 L143.7849,420.4437 C181.6199,420.4437 197.1619,445.8767 242.0619,445.8767 C289.0029,445.8767 303.6029,420.4437 343.1649,420.4437 L385.8659,420.4437" id="Stroke-260" stroke="#2474CD" stroke-width="12" stroke-linecap="round" mask="url(#mask-12)"></path>
                        <path d="M216.0596,435.0687 C216.0596,435.0687 213.6076,434.4177 212.4786,433.2877 C211.8366,432.6457 211.4036,431.9567 211.3816,431.5737 C211.3606,431.2057 211.6946,430.9197 212.0546,430.9997 C212.0546,430.9997 213.6816,431.6027 214.4026,431.8437 C215.1246,432.0847 216.0736,432.4897 217.2896,432.5657 L219.4546,432.5657 L216.0596,435.0687 Z" id="Fill-261" fill="#E09595" mask="url(#mask-12)"></path>
                        <path d="M222.1812,432.2845 C222.1812,432.2845 213.6012,433.1265 212.0772,433.3675 C210.5542,433.6075 209.3862,434.3715 208.1482,435.1315 C206.3842,436.2145 205.0362,436.9895 204.2192,437.8575 C202.9362,439.2215 201.6532,440.5845 200.9312,441.8675 C200.2862,443.0135 204.1542,445.1585 205.5822,445.4755 C208.4692,446.1175 210.2332,445.9565 212.2382,445.0745 C214.2142,444.2055 215.4452,443.3105 217.0492,442.9095 C219.1592,442.3825 219.7752,442.6695 223.2232,441.9075 C225.2732,441.4545 226.9122,440.3845 226.9122,440.3845 L222.1812,432.2845 Z" id="Fill-262" fill="#FFAEAE" mask="url(#mask-12)"></path>
                        <path d="M275.6128,369.0741 C273.3278,369.5881 272.0088,370.8731 272.0088,370.8731 L258.3238,400.4491 C256.9228,403.4771 254.8108,406.1231 252.1688,408.1611 L221.6908,431.7501 C221.4708,431.9201 221.4118,432.2271 221.5528,432.4661 L226.4338,440.7421 C226.5958,441.0171 226.9438,441.1161 227.2258,440.9701 L262.5788,422.9821 C265.5958,421.4201 267.9658,419.5011 270.8698,415.0281 L285.0778,393.7551 C288.1428,389.1021 289.1258,383.0161 287.9458,377.9651 C286.7648,372.9141 281.7418,367.6941 275.6128,369.0741" id="Fill-263" fill="#42426C" mask="url(#mask-12)"></path>
                        <path d="M226.9907,435.4369 C229.6597,434.3369 253.8947,425.5269 253.8947,425.5269 C256.4857,424.7029 254.5327,425.9069 254.0717,426.1739 C248.9927,429.1169 240.8057,433.8669 234.7617,436.6139 C232.2547,437.7529 229.6597,438.1839 227.8537,437.8699 C226.4887,437.6319 224.7267,436.3689 226.9907,435.4369" id="Fill-264" fill="#2B2B51" mask="url(#mask-12)"></path>
                        <polyline id="Stroke-265" stroke="#23478D" stroke-width="5" stroke-linecap="round" stroke-linejoin="round" mask="url(#mask-12)" points="162.624 416.5189 162.153 428.4509 167.334 417.6179 166.549 429.6269 171.729 418.5599 170.944 430.9619 176.91 421.1499"></polyline>
                        <path d="M237.8232,577.263 L264.1982,577.263 C264.2172,577.263 264.2362,577.266 264.2562,577.267 C264.2652,577.135 264.2762,577.004 264.2762,576.871 L264.2762,561.8 C264.2762,558.692 261.7332,556.148 258.6242,556.148 L232.2502,556.148 C229.1412,556.148 226.5982,558.692 226.5982,561.8 L226.5982,576.871 C226.5982,579.959 229.1102,582.488 232.1912,582.52 C232.3972,579.595 234.8482,577.263 237.8232,577.263" id="Fill-266" fill="#2B2B51" mask="url(#mask-12)"></path>
                        <path d="M175.7915,420.2474 C175.7915,420.2474 178.1985,420.3554 179.9125,419.6004 C181.9145,418.7174 181.5975,416.5574 181.3845,415.4204 C181.0315,413.5364 180.0895,412.6524 180.0895,412.6524 L175.7915,420.2474 Z" id="Fill-267" fill="#FFAEAE" mask="url(#mask-12)"></path>
                        <path d="M173.3779,422.014 C173.2619,420.268 173.7309,418.128 173.7309,418.128 L163.6049,410.102 C163.6049,410.102 166.5879,408.964 173.5739,407.943 C176.1259,407.571 177.4399,408.591 178.2059,409.827 C178.4319,410.194 180.5089,413.315 180.5089,413.315 C181.2929,414.539 181.1049,416.147 180.0599,417.158 L178.2059,418.952 L175.6499,424.545 C174.4309,424.46 173.4959,423.78 173.3779,422.014" id="Fill-268" fill="#FFAEAE" mask="url(#mask-12)"></path>
                        <path d="M173.3779,422.6019 L169.6099,422.6019 C169.6099,416.9279 173.9099,410.1299 181.0249,408.9919 L179.7949,410.4149 C179.4219,410.8869 179.5639,410.9799 179.7819,411.1639 L181.1639,412.3279 C181.3479,412.4829 181.2689,412.7719 181.0339,412.8259 C176.1389,413.9499 173.3779,418.9689 173.3779,422.6019" id="Fill-269" fill="#23478D" mask="url(#mask-12)"></path>
                        <path d="M172.7891,413.9281 L175.2031,409.8861 C175.2031,409.8861 174.1811,407.7781 170.0221,408.6501 C167.7791,409.1201 165.3801,409.6721 163.8641,410.0281 C162.8951,410.2541 162.1161,410.9631 161.7951,411.9051 L160.3441,416.1571 C160.0821,417.1711 160.5611,418.2301 161.4951,418.7031 C161.4951,418.7031 166.8311,421.2771 167.1411,421.5671 C167.2261,421.6461 167.3111,421.7321 167.3921,421.8161 C167.6671,422.1031 168.0341,422.2831 168.4281,422.3381 L170.8801,422.6801 C171.6661,422.7891 172.3441,422.1251 172.2511,421.3361 L171.7681,417.5781 C171.6511,416.2441 172.0431,415.1851 172.7891,413.9281" id="Fill-270" fill="#FFAEAE" mask="url(#mask-12)"></path>
                    </g>
                </g>
            </g>
        </g>
    </g>
</svg>