<?xml version="1.0" standalone="no"?><!-- Generator: Gravit.io --><svg xmlns="http://www.w3.org/2000/svg" xmlns:xlink="http://www.w3.org/1999/xlink" style="isolation:isolate" viewBox="0 0 56.903 74.229" width="56.903px" height="74.229px"><defs><clipPath id="_clipPath_9nCzpyIvFyUxUIRqiZwjYBNTyZM1jdRx"><rect width="56.903" height="74.229"/></clipPath></defs><g clip-path="url(#_clipPath_9nCzpyIvFyUxUIRqiZwjYBNTyZM1jdRx)"><path d=" M 11.761 36.71 C 11.951 33.84 11.391 30.39 12.201 26.98 C 14.311 18.1 21.531 12.7 30.351 13.42 C 38.031 14.05 44.681 21.18 45.171 29.61 C 45.411 33.65 45.251 37.71 45.211 41.76 C 45.201 42.73 45.251 44 43.721 43.86 C 42.221 43.72 42.571 42.56 42.591 41.54 C 42.701 37.02 43.041 32.5 42.311 28 C 41.231 21.31 35.141 16 28.561 15.94 C 22.091 15.88 15.771 21.23 14.741 27.91 C 13.861 33.61 14.001 39.39 14.531 45.08 C 15.211 52.48 21.051 57.71 28.511 58.42 C 31.011 58.66 33.471 58.64 35.931 58.14 C 41.711 56.97 45.581 53.42 47.071 47.93 C 49.271 39.83 49.131 31.56 47.161 23.37 C 46.721 21.53 45.751 19.89 44.701 18.31 C 44.151 17.49 44.001 16.63 44.991 16.05 C 45.911 15.5 46.501 16.11 46.981 16.83 C 49.191 20.21 50.701 23.88 50.891 27.92 C 51.171 33.97 51.681 40.06 50.421 46.06 C 47.951 57.8 38.821 62.61 27.611 60.95 C 20.931 59.96 15.811 56.62 12.991 50.25 C 12.101 48.24 11.761 46.13 11.761 43.95 C 11.761 41.73 11.761 39.51 11.761 36.71 Z " fill="rgb(56,55,56)"/><path d=" M 20.361 37.16 C 20.361 38.58 20.531 40.02 20.331 41.41 C 19.281 48.84 27.881 54.18 34.661 52.16 C 37.201 51.4 39.331 50.1 40.731 47.79 C 41.251 46.94 41.861 46.06 42.951 46.74 C 44.181 47.5 43.491 48.51 42.951 49.37 C 39.951 54.15 33.261 56.42 27.401 54.68 C 21.341 52.88 17.601 48.13 17.661 42.13 C 17.701 37.88 17.251 33.61 17.871 29.4 C 18.761 23.34 23.501 19.42 29.141 19.79 C 34.801 20.16 39.101 24.83 39.331 30.89 C 39.381 32.24 39.351 33.59 39.321 34.94 C 39.301 35.79 38.851 36.43 38.001 36.44 C 37.041 36.45 36.651 35.79 36.611 34.83 C 36.551 32.88 36.821 30.93 36.291 29 C 35.121 24.74 31.751 22.28 27.481 22.68 C 23.581 23.05 20.541 26.43 20.381 30.7 C 20.301 32.86 20.371 35.02 20.371 37.18 L 20.361 37.18 L 20.361 37.16 Z " fill="rgb(56,55,56)"/><path d=" M 8.581 37.69 C 8.811 41.06 8.241 44.71 8.991 48.33 C 9.451 50.59 10.221 52.72 11.381 54.71 C 11.891 55.58 12.601 56.63 11.381 57.35 C 10.021 58.15 9.531 56.89 8.991 55.97 C 7.131 52.84 6.011 49.4 5.971 45.82 C 5.911 39.49 5.331 33.11 6.261 26.82 C 8.871 9.29 27.681 1.13 41.311 10.92 C 41.531 11.08 41.771 11.21 41.971 11.39 C 42.641 11.97 43.451 12.57 42.731 13.57 C 41.971 14.63 41.131 14.19 40.311 13.54 C 37.851 11.57 35.061 10.34 31.971 9.7 C 22.911 7.84 13.251 13.55 9.841 23.21 C 8.181 27.88 8.741 32.67 8.581 37.69 Z " fill="rgb(56,55,56)"/><path d=" M 56.881 35.51 C 56.791 40.75 57.361 46.05 55.631 51.15 C 55.261 52.23 54.891 53.31 54.421 54.35 C 54.061 55.14 53.471 55.69 52.501 55.18 C 51.691 54.76 51.561 54.14 51.941 53.33 C 54.171 48.49 54.431 43.33 54.331 38.11 C 54.241 33.46 54.771 28.77 53.851 24.17 C 51.411 11.95 42.701 4.07 30.181 2.58 C 29.911 2.55 29.641 2.57 29.371 2.55 C 28.511 2.48 27.941 2.08 28.001 1.15 C 28.061 0.2 28.701 -0.01 29.561 0 C 35.651 0.06 41.071 2.11 45.761 5.87 C 53.011 11.67 56.841 19.25 56.881 28.63 C 56.891 30.92 56.881 33.22 56.881 35.51 Z " fill="rgb(56,55,56)"/><path d=" M 30.641 74.21 C 15.901 74.21 4.141 65.2 0.781 51.31 C 0.371 49.61 0.051 47.88 0.121 46.11 C 0.161 45.09 -0.289 43.65 1.271 43.53 C 3.051 43.39 2.751 45.06 2.791 46.05 C 2.961 50.31 3.991 54.33 6.231 57.94 C 12.431 67.94 21.571 72.2 33.181 71.49 C 37.341 71.24 41.211 70.01 44.941 68.21 C 45.851 67.77 46.921 67.13 47.511 68.48 C 48.071 69.77 46.931 70.21 46.011 70.66 C 41.151 72.99 36.081 74.41 30.641 74.21 Z " fill="rgb(56,55,56)"/><path d=" M 23.641 36.69 C 23.641 35 23.611 33.31 23.651 31.63 C 23.711 28.78 25.721 26.79 28.481 26.78 C 31.251 26.77 33.311 28.75 33.361 31.58 C 33.411 34.41 33.361 37.25 33.381 40.09 C 33.391 41 33.201 41.75 32.121 41.76 C 31.051 41.77 30.821 41.02 30.821 40.11 C 30.831 37.95 30.821 35.79 30.821 33.63 C 30.821 33.09 30.861 32.54 30.791 32.01 C 30.611 30.65 30.101 29.39 28.521 29.39 C 26.961 29.39 26.281 30.61 26.241 31.98 C 26.151 35.15 26.071 38.33 26.251 41.49 C 26.401 44.19 28.951 46.45 31.471 46.51 C 34.071 46.57 35.941 44.87 36.511 41.93 C 36.611 41.4 36.611 40.86 36.641 40.32 C 36.681 39.43 37.081 38.93 38.011 38.95 C 38.951 38.98 39.251 39.6 39.351 40.41 C 39.691 43.17 37.851 46.83 35.451 48.16 C 32.651 49.71 28.951 49.4 26.561 47.3 C 24.671 45.63 23.451 43.62 23.621 40.95 C 23.711 39.53 23.641 38.1 23.641 36.69 Z " fill="rgb(56,55,56)"/><path d=" M 0.121 32.57 C -0.419 25.59 0.801 19 4.671 13.05 C 8.861 6.61 14.701 2.46 22.161 0.6 C 23.201 0.34 24.361 0.15 24.661 1.47 C 24.981 2.86 23.741 3.01 22.741 3.24 C 11.981 5.76 3.811 15.28 2.871 26.31 C 2.511 30.49 2.771 34.68 2.671 38.86 C 2.651 39.75 2.741 40.79 1.511 40.82 C 0.241 40.86 0.081 39.92 0.101 38.86 C 0.151 36.76 0.121 34.67 0.121 32.57 Z " fill="rgb(56,55,56)"/><path d=" M 30.151 67.86 C 25.041 67.89 19.271 66.05 14.261 61.98 C 14.051 61.81 13.841 61.64 13.641 61.46 C 12.981 60.85 12.241 60.18 13.021 59.25 C 13.821 58.29 14.671 58.7 15.451 59.4 C 20.141 63.63 25.781 65.36 31.961 65.25 C 38.361 65.13 44.111 63.17 48.541 58.23 C 49.201 57.49 50.011 56.76 50.921 57.69 C 51.771 58.55 51.171 59.4 50.481 60.14 C 45.331 65.65 38.851 67.88 30.151 67.86 Z " fill="rgb(56,55,56)"/></g></svg>