<?xml version="1.0" standalone="no"?><!-- Generator: Gravit.io --><svg xmlns="http://www.w3.org/2000/svg" xmlns:xlink="http://www.w3.org/1999/xlink" style="isolation:isolate" viewBox="0 0 81.14 82" width="81.14px" height="82px"><defs><clipPath id="_clipPath_TNpCRJDtzDnZFoA0GgoxDeM7WatoydJf"><rect width="81.14" height="82"/></clipPath></defs><g clip-path="url(#_clipPath_TNpCRJDtzDnZFoA0GgoxDeM7WatoydJf)"><path d=" M 58.31 42.79 C 58.31 45.67 57.38 48.12 55.83 49.85 C 54.28 51.58 52.11 52.6 49.58 52.6 L 32.5 52.6 C 29.84 52.6 27.42 51.5 25.67 49.73 C 23.92 47.95 22.83 45.5 22.83 42.79 L 22.83 27.84 C 22.83 27.78 22.85 27.73 22.89 27.69 C 22.93 27.65 22.98 27.63 23.04 27.63 L 58.11 27.63 C 58.16 27.63 58.21 27.65 58.25 27.69 C 58.29 27.73 58.31 27.78 58.31 27.83 L 58.31 42.79 Z  M 26.33 15.82 C 26.33 12.44 27.83 9.35 30.3 7.06 C 32.77 4.77 36.23 3.27 40.11 3.1 L 40.12 3.1 L 40.23 3.09 L 40.24 3.09 L 40.25 3.09 C 40.27 3.09 40.29 3.09 40.29 3.09 L 40.84 3.09 C 40.85 3.09 40.86 3.09 40.88 3.09 L 40.89 3.09 L 41 3.1 L 41.01 3.1 L 41.02 3.1 C 44.9 3.27 48.35 4.76 50.83 7.06 C 53.31 9.36 54.8 12.44 54.8 15.82 L 54.8 24.54 L 26.33 24.54 L 26.33 15.82 Z  M 58.11 24.54 L 57.9 24.54 L 57.9 15.82 C 57.9 11.59 56.05 7.73 53.05 4.9 C 50.05 2.06 45.88 0.23 41.22 0.02 C 41.1 0.01 40.97 0 40.85 0 L 40.3 0 C 40.17 0 40.05 0.01 39.93 0.02 C 35.27 0.24 31.11 2.07 28.1 4.9 C 25.09 7.74 23.25 11.59 23.25 15.82 L 23.25 24.54 L 23.04 24.54 C 21.22 24.54 19.74 26.02 19.74 27.84 L 19.74 42.79 C 19.74 46.34 21.17 49.57 23.48 51.91 C 25.79 54.25 28.98 55.7 32.5 55.7 L 49.58 55.7 C 53 55.7 55.97 54.34 58.07 52.03 C 60.17 49.73 61.41 46.5 61.4 42.79 L 61.4 27.84 C 61.4 26.02 59.93 24.54 58.11 24.54 Z " fill="rgb(56,55,56)"/><path d=" M 16.46 78.9 L 1.55 78.9 C 0.7 78.9 0 79.59 0 80.45 C 0 81.3 0.69 82 1.55 82 L 16.46 82 C 17.31 82 18.01 81.31 18.01 80.45 C 18.01 79.6 17.32 78.9 16.46 78.9 Z " fill="rgb(56,55,56)"/><path d=" M 1.56 73.46 C 1.56 73.85 1.71 74.25 2.01 74.55 C 2.31 74.85 2.71 75 3.1 75 C 3.49 75 3.89 74.85 4.19 74.55 L 8.99 69.75 L 13.79 74.55 C 14.09 74.85 14.49 75 14.88 75 C 15.27 75 15.67 74.85 15.97 74.55 C 16.27 74.25 16.42 73.85 16.42 73.46 C 16.42 73.07 16.27 72.67 15.97 72.37 L 11.17 67.57 L 15.97 62.77 C 16.27 62.47 16.42 62.07 16.42 61.68 C 16.42 61.29 16.27 60.89 15.97 60.59 C 15.67 60.29 15.27 60.14 14.88 60.14 C 14.49 60.14 14.09 60.29 13.79 60.59 L 8.99 65.39 L 4.19 60.59 C 3.89 60.29 3.49 60.14 3.1 60.14 C 2.71 60.14 2.31 60.29 2.01 60.59 C 1.71 60.89 1.56 61.29 1.56 61.68 C 1.56 62.07 1.71 62.47 2.01 62.77 L 6.81 67.57 L 2.01 72.37 C 1.71 72.67 1.56 73.07 1.56 73.46 Z " fill="rgb(56,55,56)"/><line x1="2.01" y1="60.58" x2="2.01" y2="60.58"/><path d=" M 37.5 78.9 L 22.59 78.9 C 21.74 78.9 21.04 79.59 21.04 80.45 C 21.04 81.3 21.73 82 22.59 82 L 37.5 82 C 38.35 82 39.05 81.31 39.05 80.45 C 39.05 79.6 38.36 78.9 37.5 78.9 Z " fill="rgb(56,55,56)"/><path d=" M 22.6 73.46 C 22.6 73.85 22.75 74.25 23.05 74.55 C 23.35 74.85 23.75 75 24.14 75 C 24.53 75 24.93 74.85 25.23 74.55 L 30.03 69.75 L 34.83 74.55 C 35.13 74.85 35.53 75 35.92 75 C 36.31 75 36.71 74.85 37.01 74.55 C 37.31 74.25 37.46 73.85 37.46 73.46 C 37.46 73.07 37.31 72.67 37.01 72.37 L 32.21 67.57 L 37.01 62.77 C 37.31 62.47 37.46 62.07 37.46 61.68 C 37.46 61.29 37.31 60.89 37.01 60.59 C 36.71 60.29 36.31 60.14 35.92 60.14 C 35.53 60.14 35.13 60.29 34.83 60.59 L 30.03 65.39 L 25.23 60.59 C 24.93 60.29 24.53 60.14 24.14 60.14 C 23.75 60.14 23.35 60.29 23.05 60.59 C 22.75 60.89 22.6 61.29 22.6 61.68 C 22.6 62.07 22.75 62.47 23.05 62.77 L 27.85 67.57 L 23.05 72.37 C 22.76 72.67 22.6 73.07 22.6 73.46 Z " fill="rgb(56,55,56)"/><path d=" M 58.55 78.9 L 43.63 78.9 C 42.78 78.9 42.08 79.59 42.08 80.45 C 42.08 81.3 42.77 82 43.63 82 L 58.54 82 C 59.39 82 60.09 81.31 60.09 80.45 C 60.09 79.6 59.4 78.9 58.55 78.9 Z " fill="rgb(56,55,56)"/><line x1="44.1" y1="60.58" x2="44.1" y2="60.58"/><path d=" M 43.65 73.46 C 43.65 73.85 43.8 74.25 44.1 74.55 C 44.4 74.85 44.8 75 45.19 75 C 45.58 75 45.98 74.85 46.28 74.55 L 51.08 69.75 L 55.88 74.55 C 56.18 74.85 56.58 75 56.97 75 C 57.36 75 57.76 74.85 58.06 74.55 C 58.36 74.25 58.51 73.85 58.51 73.46 C 58.51 73.07 58.36 72.67 58.06 72.37 L 53.26 67.57 L 58.06 62.77 C 58.36 62.47 58.51 62.07 58.51 61.68 C 58.51 61.29 58.36 60.89 58.06 60.59 C 57.76 60.29 57.36 60.14 56.97 60.14 C 56.58 60.14 56.18 60.29 55.88 60.59 L 51.08 65.39 L 46.28 60.59 C 45.98 60.29 45.58 60.14 45.19 60.14 C 44.8 60.14 44.4 60.29 44.1 60.59 C 43.8 60.89 43.65 61.29 43.65 61.68 C 43.65 62.07 43.8 62.47 44.1 62.77 L 48.9 67.57 L 44.1 72.37 C 43.8 72.67 43.65 73.07 43.65 73.46 Z " fill="rgb(56,55,56)"/><path d=" M 79.59 78.9 L 64.68 78.9 C 63.83 78.9 63.13 79.59 63.13 80.45 C 63.13 81.3 63.82 82 64.68 82 L 79.59 82 C 80.44 82 81.14 81.31 81.14 80.45 C 81.14 79.6 80.44 78.9 79.59 78.9 Z " fill="rgb(56,55,56)"/><path d=" M 64.69 73.46 C 64.69 73.85 64.84 74.25 65.14 74.55 C 65.44 74.85 65.84 75 66.23 75 C 66.62 75 67.02 74.85 67.32 74.55 L 72.12 69.75 L 76.92 74.55 C 77.22 74.85 77.62 75 78.01 75 C 78.4 75 78.8 74.85 79.1 74.55 C 79.4 74.25 79.55 73.85 79.55 73.46 C 79.55 73.07 79.4 72.67 79.1 72.37 L 74.3 67.57 L 79.1 62.77 C 79.4 62.47 79.55 62.07 79.55 61.68 C 79.55 61.29 79.4 60.89 79.1 60.59 C 78.8 60.29 78.4 60.14 78.01 60.14 C 77.62 60.14 77.22 60.29 76.92 60.59 L 72.12 65.39 L 67.32 60.59 C 67.02 60.29 66.62 60.14 66.23 60.14 C 65.84 60.14 65.44 60.29 65.14 60.59 C 64.84 60.89 64.69 61.29 64.69 61.68 C 64.69 62.07 64.84 62.47 65.14 62.77 L 69.94 67.57 L 65.14 72.37 C 64.84 72.67 64.69 73.07 64.69 73.46 Z " fill="rgb(56,55,56)"/></g></svg>