<?xml version="1.0" standalone="no"?><!-- Generator: Gravit.io --><svg xmlns="http://www.w3.org/2000/svg" xmlns:xlink="http://www.w3.org/1999/xlink" style="isolation:isolate" viewBox="0 0 105.526 50.663" width="105.526px" height="50.663px"><defs><clipPath id="_clipPath_I66ckng05Ny1bhZfR1Tc8XBEHcHlZNXW"><rect width="105.526" height="50.663"/></clipPath></defs><g clip-path="url(#_clipPath_I66ckng05Ny1bhZfR1Tc8XBEHcHlZNXW)"><path d=" M 65.98 29.87 C 67.56 29.87 69.15 29.86 70.73 29.88 C 71.05 29.88 71.15 29.78 71.16 29.46 C 71.18 28.65 71.01 27.88 70.66 27.16 C 69.79 25.37 68.31 24.44 66.38 24.18 C 65.59 24.07 64.81 24.24 64.08 24.53 C 62.26 25.25 60.71 27.12 60.79 29.39 C 60.8 29.76 60.89 29.89 61.28 29.88 C 62.84 29.86 64.41 29.87 65.98 29.87 Z  M 62.66 45.99 C 62.88 46.03 63.08 46.09 63.27 46.09 C 65.04 46.1 66.82 46.09 68.59 46.09 C 69.22 46.09 69.31 45.96 69.16 45.32 C 68.99 44.58 68.84 43.83 68.68 43.08 C 68.61 42.75 68.54 42.42 68.47 42.09 C 68.33 41.42 68.18 40.75 68.04 40.09 C 67.98 39.81 68.08 39.62 68.3 39.4 C 69.23 38.47 69.54 37.3 69.13 36.08 C 68.47 34.14 66.65 33.34 64.72 34 C 63.62 34.38 62.66 35.69 62.64 36.87 C 62.62 37.87 62.93 38.76 63.71 39.43 C 63.93 39.62 63.97 39.82 63.92 40.07 C 63.81 40.62 63.7 41.18 63.58 41.73 C 63.37 42.75 63.15 43.78 62.93 44.8 C 62.86 45.17 62.77 45.53 62.66 45.99 Z  M 65.94 50.39 C 63.41 50.39 60.89 50.35 58.36 50.4 C 56.41 50.44 54.94 49.28 54.31 47.69 C 54.18 47.36 54.11 46.98 54.11 46.62 C 54.1 42.28 54.06 37.94 54.12 33.6 C 54.14 32.06 55.04 30.95 56.4 30.24 C 56.56 30.15 56.75 30.11 56.92 30.05 C 57.22 29.95 57.36 29.78 57.35 29.43 C 57.28 26.75 58.34 24.56 60.33 22.82 C 61.32 21.95 62.46 21.36 63.74 21.03 C 64.58 20.82 65.41 20.69 66.27 20.73 C 68.09 20.82 69.72 21.4 71.19 22.5 C 72.5 23.49 73.42 24.75 74.03 26.24 C 74.44 27.25 74.67 28.33 74.57 29.44 C 74.54 29.8 74.71 29.95 75 30.04 C 76.36 30.46 77.2 31.42 77.65 32.72 C 77.79 33.13 77.83 33.6 77.83 34.04 C 77.84 38.09 77.84 42.15 77.83 46.21 C 77.83 47.41 77.42 48.46 76.53 49.28 C 75.79 49.96 74.93 50.38 73.91 50.38 C 71.27 50.4 68.6 50.39 65.94 50.39 Z " fill="rgb(56,55,56)"/><path d=" M 0.02 36.37 C 0.02 32.44 0.02 28.5 0.02 24.57 C 0.02 23.02 1.29 21.86 2.99 22.23 C 3.96 22.44 4.75 23.35 4.76 24.43 C 4.77 27.23 4.78 30.03 4.75 32.83 C 4.74 33.48 5.16 34.06 5.93 34.02 C 7.21 33.96 8.5 33.96 9.78 34.02 C 10.56 34.06 11.05 33.69 11.45 33.12 C 12.43 31.71 13.39 30.29 14.36 28.88 C 15.69 26.94 17.01 25 18.35 23.08 C 19.27 21.76 21.47 21.87 22.29 23.36 C 22.83 24.33 22.65 25.24 22.05 26.11 C 20.63 28.17 19.22 30.24 17.79 32.31 C 17.09 33.33 16.39 34.36 15.66 35.36 C 15.04 36.21 15.09 36.63 15.66 37.45 C 17.43 39.98 19.18 42.52 20.92 45.07 C 21.41 45.79 21.9 46.51 22.34 47.26 C 23.18 48.7 21.91 50.52 20.54 50.61 C 19.29 50.69 18.52 50.12 17.88 49.14 C 16.88 47.62 15.83 46.14 14.8 44.64 C 13.68 43.01 12.57 41.37 11.46 39.73 C 11.05 39.12 10.54 38.74 9.75 38.76 C 8.47 38.79 7.18 38.79 5.9 38.76 C 5.23 38.75 4.72 39.18 4.73 39.91 C 4.77 42.68 4.72 45.45 4.76 48.23 C 4.77 49.34 3.78 50.62 2.41 50.63 C 0.97 50.64 0 49.47 0 48.23 C 0.03 44.26 0.02 40.32 0.02 36.37 Z " fill="rgb(56,55,56)"/><path d=" M 81.63 48.07 C 81.59 47.64 81.86 47.14 82.2 46.69 C 83.11 45.51 84.05 44.35 84.98 43.19 C 85.75 42.22 86.52 41.25 87.27 40.26 C 87.66 39.75 87.62 39.35 87.23 38.85 C 85.96 37.23 84.68 35.62 83.41 34 C 82.95 33.42 82.48 32.85 82.05 32.25 C 81.09 30.87 81.81 29.09 83.34 28.65 C 84.21 28.4 85.12 28.55 85.76 29.34 C 86.68 30.48 87.59 31.62 88.51 32.77 C 89.38 33.86 90.25 34.96 91.13 36.04 C 91.77 36.83 92.65 37.25 93.64 37.23 C 94.68 37.21 95.54 36.7 96.19 35.86 C 97.13 34.64 98.09 33.43 99.05 32.22 C 99.76 31.32 100.47 30.42 101.18 29.51 C 101.83 28.68 102.71 28.43 103.7 28.62 C 104.5 28.78 105.07 29.32 105.36 30.07 C 105.74 31.04 105.43 31.89 104.8 32.67 C 103.22 34.64 101.65 36.63 100.07 38.61 C 99.5 39.32 99.53 39.91 100.1 40.6 C 101.57 42.39 102.98 44.22 104.4 46.04 C 104.72 46.44 105.04 46.85 105.28 47.3 C 105.99 48.64 104.99 50.39 103.56 50.59 C 102.45 50.75 101.67 50.32 101.02 49.48 C 100.07 48.25 99.1 47.03 98.14 45.81 C 97.44 44.92 96.74 44.02 96.02 43.15 C 95.48 42.51 94.81 42.1 93.94 42.02 C 92.56 41.9 91.56 42.47 90.77 43.57 C 90.09 44.51 89.33 45.39 88.61 46.3 C 87.69 47.46 86.79 48.63 85.85 49.78 C 85.48 50.23 85 50.49 84.39 50.6 C 83.71 50.73 83.12 50.57 82.59 50.19 C 81.95 49.71 81.64 49.05 81.63 48.07 Z " fill="rgb(56,55,56)"/><path d=" M 49.68 41.89 C 49.68 43.98 49.67 46.07 49.69 48.16 C 49.7 49.3 49.15 50.05 48.16 50.51 C 47.09 51 45.45 50.25 45.11 49.11 C 45.01 48.77 44.95 48.4 44.94 48.04 C 44.93 44.28 44.91 40.53 44.94 36.77 C 44.95 35.39 43.66 34.12 42.34 34.14 C 39.27 34.19 36.19 34.19 33.12 34.14 C 31.73 34.12 30.43 35.29 30.45 36.82 C 30.51 40.55 30.49 44.28 30.46 48.01 C 30.45 49.09 30.07 50.02 28.96 50.43 C 27.72 50.89 26.48 50.49 25.93 49.33 C 25.74 48.93 25.63 48.45 25.63 48 C 25.61 44.15 25.58 40.3 25.64 36.45 C 25.66 34.94 25.85 33.42 26.72 32.1 C 27.41 31.06 28.33 30.34 29.5 29.9 C 30.58 29.49 31.7 29.4 32.84 29.4 C 36.49 29.42 40.13 29.36 43.78 29.45 C 45.51 29.49 47.08 30.14 48.23 31.54 C 48.78 32.21 49.12 32.97 49.37 33.79 C 49.68 34.81 49.68 35.85 49.68 36.89 C 49.68 38.56 49.68 40.22 49.68 41.89 Z " fill="rgb(56,55,56)"/><path d=" M 85 6.03 L 85 7.9 L 86.31 7.9 L 86.31 9.75 C 86.31 9.92 86.31 10.09 86.28 10.24 C 86.23 10.59 85.9 11.17 84.97 11.17 C 84.04 11.17 83.72 10.58 83.67 10.24 C 83.65 10.1 83.64 9.92 83.64 9.75 L 83.64 3.9 C 83.64 3.69 83.65 3.47 83.7 3.3 C 83.76 2.99 84.04 2.37 84.97 2.37 C 85.95 2.37 86.19 3.02 86.25 3.3 C 86.29 3.48 86.29 3.79 86.29 3.79 L 86.29 4.5 L 89.51 4.5 L 89.51 4.08 C 89.51 4.08 89.52 3.64 89.49 3.23 C 89.25 0.83 87.27 0.07 85 0.07 C 82.73 0.07 80.79 0.84 80.51 3.23 C 80.48 3.45 80.45 3.84 80.45 4.08 L 80.45 9.46 C 80.45 9.69 80.46 9.88 80.5 10.3 C 80.71 12.63 82.73 13.46 85 13.46 C 87.28 13.46 89.29 12.63 89.5 10.3 C 89.54 9.87 89.54 9.69 89.55 9.46 L 89.55 6.03 L 85 6.03 Z  M 62.78 0.42 L 59.54 0.42 L 59.54 9.89 C 59.55 10.05 59.54 10.24 59.51 10.38 C 59.44 10.7 59.17 11.31 58.28 11.31 C 57.4 11.31 57.12 10.7 57.06 10.38 C 57.03 10.24 57.02 10.06 57.03 9.89 L 57.03 0.42 L 53.8 0.42 L 53.8 9.59 C 53.8 9.83 53.81 10.31 53.83 10.44 C 54.05 12.83 55.94 13.61 58.29 13.61 C 60.65 13.61 62.53 12.83 62.76 10.44 C 62.78 10.31 62.8 9.83 62.79 9.59 L 62.79 0.42 L 62.78 0.42 Z  M 33.04 0.42 L 31.43 10.42 L 29.82 0.42 L 24.6 0.42 L 24.32 13.21 L 27.52 13.21 L 27.61 1.37 L 29.81 13.21 L 33.05 13.21 L 35.25 1.37 L 35.34 13.21 L 38.55 13.21 L 38.26 0.42 L 33.04 0.42 Z  M 13.72 0.42 L 11.35 13.21 L 14.81 13.21 L 16.6 1.37 L 18.34 13.21 L 21.77 13.21 L 19.41 0.42 L 13.72 0.42 Z  M 74.09 10.72 L 71.08 0.42 L 66.33 0.42 L 66.33 13.08 L 69.47 13.08 L 69.29 2.45 L 72.53 13.08 L 77.08 13.08 L 77.08 0.42 L 73.92 0.42 L 74.09 10.72 Z  M 45.03 3.75 C 44.97 3.5 44.99 3.23 45.02 3.09 C 45.11 2.68 45.39 2.23 46.18 2.23 C 46.92 2.23 47.35 2.69 47.35 3.38 L 47.35 4.16 L 50.5 4.16 L 50.5 3.27 C 50.5 0.51 48.03 0.08 46.24 0.08 C 43.99 0.08 42.15 0.82 41.81 2.9 C 41.72 3.46 41.7 3.97 41.84 4.61 C 42.39 7.2 46.89 7.95 47.54 9.58 C 47.66 9.89 47.62 10.28 47.56 10.52 C 47.46 10.95 47.18 11.37 46.33 11.37 C 45.53 11.37 45.05 10.91 45.05 10.22 L 45.05 8.99 L 41.65 8.99 L 41.65 9.97 C 41.65 12.8 43.87 13.65 46.25 13.65 C 48.54 13.65 50.42 12.87 50.73 10.75 C 50.87 9.66 50.77 8.94 50.71 8.68 C 50.2 6.02 45.4 5.23 45.03 3.75 Z  M 3.42 3.71 C 3.36 3.45 3.37 3.18 3.41 3.04 C 3.5 2.63 3.77 2.18 4.58 2.18 C 5.33 2.18 5.77 2.65 5.77 3.34 L 5.77 4.13 L 8.96 4.13 L 8.96 3.23 C 8.96 0.45 6.45 0 4.64 0 C 2.37 0 0.51 0.75 0.17 2.84 C 0.08 3.41 0.06 3.92 0.2 4.57 C 0.75 7.19 5.3 7.94 5.96 9.6 C 6.08 9.91 6.05 10.3 5.98 10.54 C 5.88 10.97 5.59 11.4 4.73 11.4 C 3.93 11.4 3.45 10.93 3.45 10.23 L 3.45 9 L 0.02 9 L 0.02 9.98 C 0.02 12.84 2.27 13.7 4.67 13.7 C 6.98 13.7 8.88 12.91 9.19 10.77 C 9.34 9.67 9.23 8.95 9.18 8.68 C 8.64 6.01 3.78 5.21 3.42 3.71 Z " fill="rgb(56,55,56)"/></g></svg>