<svg xmlns="http://www.w3.org/2000/svg" xmlns:xlink="http://www.w3.org/1999/xlink" width="683" height="683" viewBox="0 0 683 683">
    <defs>
        <path id="a" d="M15.111.69C6.376 2.802-1.375 10.615.206 23.276 1.787 35.937 12.802 47.002 21.73 45.928c9.16-1.103 14.206-14.4 11.576-32.207C31.823 3.687 26.881 0 20.402 0c-1.672 0-3.447.245-5.291.69"/>
        <radialGradient id="b" cx="52.827%" cy="-129.267%" r="275.418%" fx="52.827%" fy="-129.267%" gradientTransform="matrix(.0749 .73705 -.9972 .05537 -.8 -1.61)">
            <stop offset="0%" stop-color="#FFE8E8"/>
            <stop offset="100%" stop-color="#FDACAC"/>
        </radialGradient>
        <path id="d" d="M4.07 4.711C1.58 10.474.046 18.108 1.67 20.204c1.2 1.55 14.547 6.635 21.789 13.206 11.057 10.033 18.806 16.784 23.608 20.213 4.801 3.43 10.81 6.929 14.513 4.649 3.056-1.882 5.784-11.51 7.42-25.674-9.166-5.68-34.24-18.211-42.995-22.796-3.193-1.672-11.349-8.41-11.349-8.41S12.581 0 10.123 0C8.036 0 5.674 1.003 4.07 4.711"/>
        <path id="f" d="M4.07 4.711C1.58 10.474.046 18.108 1.67 20.204c1.2 1.55 14.547 6.635 21.789 13.206 11.057 10.033 18.806 16.784 23.608 20.213 4.801 3.43 10.81 6.929 14.513 4.649 3.056-1.882 5.784-11.51 7.42-25.674-9.166-5.68-34.24-18.211-42.995-22.796-3.193-1.672-11.349-8.41-11.349-8.41S12.581 0 10.123 0C8.036 0 5.674 1.003 4.07 4.711"/>
        <path id="h" d="M4.07 4.711C1.58 10.474.046 18.108 1.67 20.204c1.2 1.55 14.547 6.635 21.789 13.206 11.057 10.033 18.806 16.784 23.608 20.213 4.801 3.43 10.81 6.929 14.513 4.649 3.056-1.882 5.784-11.51 7.42-25.674-9.166-5.68-34.24-18.211-42.995-22.796-3.193-1.672-11.349-8.41-11.349-8.41S12.581 0 10.123 0C8.036 0 5.674 1.003 4.07 4.711"/>
        <path id="j" d="M4.07 4.711C1.58 10.474.046 18.108 1.67 20.204c1.2 1.55 14.547 6.635 21.789 13.206 11.057 10.033 18.806 16.784 23.608 20.213 4.801 3.43 10.81 6.929 14.513 4.649 3.056-1.882 5.784-11.51 7.42-25.674-9.166-5.68-34.24-18.211-42.995-22.796-3.193-1.672-11.349-8.41-11.349-8.41S12.581 0 10.123 0C8.036 0 5.674 1.003 4.07 4.711"/>
        <path id="l" d="M4.07 4.711C1.58 10.474.046 18.108 1.67 20.204c1.2 1.55 14.547 6.635 21.789 13.206 11.057 10.033 18.806 16.784 23.608 20.213 4.801 3.43 10.81 6.929 14.513 4.649 3.056-1.882 5.784-11.51 7.42-25.674-9.166-5.68-34.24-18.211-42.995-22.796-3.193-1.672-11.349-8.41-11.349-8.41S12.581 0 10.123 0C8.036 0 5.674 1.003 4.07 4.711"/>
        <path id="n" d="M4.07 4.711C1.58 10.474.046 18.108 1.67 20.204c1.2 1.55 14.547 6.635 21.789 13.206 11.057 10.033 18.806 16.784 23.608 20.213 4.801 3.43 10.81 6.929 14.513 4.649 3.056-1.882 5.784-11.51 7.42-25.674-9.166-5.68-34.24-18.211-42.995-22.796-3.193-1.672-11.349-8.41-11.349-8.41S12.581 0 10.123 0C8.036 0 5.674 1.003 4.07 4.711"/>
        <path id="p" d="M3.07 4.711C.58 10.474-.954 18.108.67 20.204c1.2 1.55 14.547 6.635 21.789 13.206 11.057 10.033 18.806 16.784 23.608 20.213 4.801 3.43 10.81 6.929 14.513 4.649 3.056-1.882 5.784-11.51 7.42-25.674-9.166-5.68-34.24-18.211-42.995-22.796-3.193-1.672-11.349-8.41-11.349-8.41S11.581 0 9.123 0C7.036 0 4.674 1.003 3.07 4.711"/>
        <path id="r" d="M77.752 1.052S75.045 12.02 51.616 19.258c-24.466 7.557-39.094 1.416-39.094 1.416C1.415 26.452.797 40.042.144 52.034c-.324 5.942 0 31.394 0 31.394C4.5 85.753 12.05 89.533 23.52 96c1-8.544.871-27.688.871-27.688-5.843-8.577-4.464-19.876-4.682-21.621-.218-1.743-.98-5.85-.98-5.85l75.247-3.815s19.71 9.593 48.024 22.348c-.653-3.708-3.157-24.528-3.811-28.452-10.672-6.215-22.977-16.134-37.896-24.418C91.415 1.573 82.89 1 79.403 1c-1.057 0-1.651.052-1.651.052"/>
        <path id="t" d="M77.752 1.052S75.045 12.02 51.616 19.258c-24.466 7.557-39.094 1.416-39.094 1.416C1.415 26.452.797 40.042.144 52.034c-.324 5.942 0 31.394 0 31.394C4.5 85.753 12.05 89.533 23.52 96c1-8.544.871-27.688.871-27.688-5.843-8.577-4.464-19.876-4.682-21.621-.218-1.743-.98-5.85-.98-5.85l75.247-3.815s19.71 9.593 48.024 22.348c-.653-3.708-3.157-24.528-3.811-28.452-10.672-6.215-22.977-16.134-37.896-24.418C91.415 1.573 82.89 1 79.403 1c-1.057 0-1.651.052-1.651.052"/>
        <path id="v" d="M77.752 1.052S75.045 12.02 51.616 19.258c-24.466 7.557-39.094 1.416-39.094 1.416C1.415 26.452.797 40.042.144 52.034c-.324 5.942 0 31.394 0 31.394C4.5 85.753 12.05 89.533 23.52 96c1-8.544.871-27.688.871-27.688-5.843-8.577-4.464-19.876-4.682-21.621-.218-1.743-.98-5.85-.98-5.85l75.247-3.815s19.71 9.593 48.024 22.348c-.653-3.708-3.157-24.528-3.811-28.452-10.672-6.215-22.977-16.134-37.896-24.418C91.415 1.573 82.89 1 79.403 1c-1.057 0-1.651.052-1.651.052"/>
        <path id="x" d="M77.752 1.052S75.045 12.02 51.616 19.258c-24.466 7.557-39.094 1.416-39.094 1.416C1.415 26.452.797 40.042.144 52.034c-.324 5.942 0 31.394 0 31.394C4.5 85.753 12.05 89.533 23.52 96c1-8.544.871-27.688.871-27.688-5.843-8.577-4.464-19.876-4.682-21.621-.218-1.743-.98-5.85-.98-5.85l75.247-3.815s19.71 9.593 48.024 22.348c-.653-3.708-3.157-24.528-3.811-28.452-10.672-6.215-22.977-16.134-37.896-24.418C91.415 1.573 82.89 1 79.403 1c-1.057 0-1.651.052-1.651.052"/>
        <path id="z" d="M77.752 1.052S75.045 12.02 51.616 19.258c-24.466 7.557-39.094 1.416-39.094 1.416C1.415 26.452.797 40.042.144 52.034c-.324 5.942 0 31.394 0 31.394C4.5 85.753 12.05 89.533 23.52 96c1-8.544.871-27.688.871-27.688-5.843-8.577-4.464-19.876-4.682-21.621-.218-1.743-.98-5.85-.98-5.85l75.247-3.815s19.71 9.593 48.024 22.348c-.653-3.708-3.157-24.528-3.811-28.452-10.672-6.215-22.977-16.134-37.896-24.418C91.415 1.573 82.89 1 79.403 1c-1.057 0-1.651.052-1.651.052"/>
        <path id="B" d="M77.752 1.052S75.045 12.02 51.616 19.258c-24.466 7.557-39.094 1.416-39.094 1.416C1.415 26.452.797 40.042.144 52.034c-.324 5.942 0 31.394 0 31.394C4.5 85.753 12.05 89.533 23.52 96c1-8.544.871-27.688.871-27.688-5.843-8.577-4.464-19.876-4.682-21.621-.218-1.743-.98-5.85-.98-5.85l75.247-3.815s19.71 9.593 48.024 22.348c-.653-3.708-3.157-24.528-3.811-28.452-10.672-6.215-22.977-16.134-37.896-24.418C91.415 1.573 82.89 1 79.403 1c-1.057 0-1.651.052-1.651.052"/>
        <path id="D" d="M77.752 1.052S75.045 12.02 51.616 19.258c-24.466 7.557-39.094 1.416-39.094 1.416C1.415 26.452.797 40.042.144 52.034c-.324 5.942 0 31.394 0 31.394C4.5 85.753 12.05 89.533 23.52 96c1-8.544.871-27.688.871-27.688-5.843-8.577-4.464-19.876-4.682-21.621-.218-1.743-.98-5.85-.98-5.85l75.247-3.815s19.71 9.593 48.024 22.348c-.653-3.708-3.157-24.528-3.811-28.452-10.672-6.215-22.977-16.134-37.896-24.418C91.415 1.573 82.89 1 79.403 1c-1.057 0-1.651.052-1.651.052"/>
        <path id="F" d="M77.752 1.052S75.045 12.02 51.616 19.258c-24.466 7.557-39.094 1.416-39.094 1.416C1.415 26.452.797 40.042.144 52.034c-.324 5.942 0 31.394 0 31.394C4.5 85.753 12.05 89.533 23.52 96c1-8.544.871-27.688.871-27.688-5.843-8.577-4.464-19.876-4.682-21.621-.218-1.743-.98-5.85-.98-5.85l75.247-3.815s19.71 9.593 48.024 22.348c-.653-3.708-3.157-24.528-3.811-28.452-10.672-6.215-22.977-16.134-37.896-24.418C91.415 1.573 82.89 1 79.403 1c-1.057 0-1.651.052-1.651.052"/>
        <path id="H" d="M77.752 1.052S75.045 12.02 51.616 19.258c-24.466 7.557-39.094 1.416-39.094 1.416C1.415 26.452.797 40.042.144 52.034c-.324 5.942 0 31.394 0 31.394C4.5 85.753 12.05 89.533 23.52 96c1-8.544.871-27.688.871-27.688-5.843-8.577-4.464-19.876-4.682-21.621-.218-1.743-.98-5.85-.98-5.85l75.247-3.815s19.71 9.593 48.024 22.348c-.653-3.708-3.157-24.528-3.811-28.452-10.672-6.215-22.977-16.134-37.896-24.418C91.415 1.573 82.89 1 79.403 1c-1.057 0-1.651.052-1.651.052"/>
        <path id="J" d="M77.752 1.052S75.045 12.02 51.616 19.258c-24.466 7.557-39.094 1.416-39.094 1.416C1.415 26.452.797 40.042.144 52.034c-.324 5.942 0 31.394 0 31.394C4.5 85.753 12.05 89.533 23.52 96c1-8.544.871-27.688.871-27.688-5.843-8.577-4.464-19.876-4.682-21.621-.218-1.743-.98-5.85-.98-5.85l75.247-3.815s19.71 9.593 48.024 22.348c-.653-3.708-3.157-24.528-3.811-28.452-10.672-6.215-22.977-16.134-37.896-24.418C91.415 1.573 82.89 1 79.403 1c-1.057 0-1.651.052-1.651.052"/>
        <path id="L" d="M77.752 1.052S75.045 12.02 51.616 19.258c-24.466 7.557-39.094 1.416-39.094 1.416C1.415 26.452.797 40.042.144 52.034c-.324 5.942 0 31.394 0 31.394C4.5 85.753 12.05 89.533 23.52 96c1-8.544.871-27.688.871-27.688-5.843-8.577-4.464-19.876-4.682-21.621-.218-1.743-.98-5.85-.98-5.85l75.247-3.815s19.71 9.593 48.024 22.348c-.653-3.708-3.157-24.528-3.811-28.452-10.672-6.215-22.977-16.134-37.896-24.418C91.415 1.573 82.89 1 79.403 1c-1.057 0-1.651.052-1.651.052"/>
        <path id="N" d="M77.752 1.052S75.045 12.02 51.616 19.258c-24.466 7.557-39.094 1.416-39.094 1.416C1.415 26.452.797 40.042.144 52.034c-.324 5.942 0 31.394 0 31.394C4.5 85.753 12.05 89.533 23.52 96c1-8.544.871-27.688.871-27.688-5.843-8.577-4.464-19.876-4.682-21.621-.218-1.743-.98-5.85-.98-5.85l75.247-3.815s19.71 9.593 48.024 22.348c-.653-3.708-3.157-24.528-3.811-28.452-10.672-6.215-22.977-16.134-37.896-24.418C91.415 1.573 82.89 1 79.403 1c-1.057 0-1.651.052-1.651.052"/>
        <path id="P" d="M77.752 1.052S75.045 12.02 51.616 19.258c-24.466 7.557-39.094 1.416-39.094 1.416C1.415 26.452.797 40.042.144 52.034c-.324 5.942 0 31.394 0 31.394C4.5 85.753 12.05 89.533 23.52 96c1-8.544.871-27.688.871-27.688-5.843-8.577-4.464-19.876-4.682-21.621-.218-1.743-.98-5.85-.98-5.85l75.247-3.815s19.71 9.593 48.024 22.348c-.653-3.708-3.157-24.528-3.811-28.452-10.672-6.215-22.977-16.134-37.896-24.418C91.415 1.573 82.89 1 79.403 1c-1.057 0-1.651.052-1.651.052"/>
        <path id="R" d="M77.752 1.052S75.045 12.02 51.616 19.258c-24.466 7.557-39.094 1.416-39.094 1.416C1.415 26.452.797 40.042.144 52.034c-.324 5.942 0 31.394 0 31.394C4.5 85.753 12.05 89.533 23.52 96c1-8.544.871-27.688.871-27.688-5.843-8.577-4.464-19.876-4.682-21.621-.218-1.743-.98-5.85-.98-5.85l75.247-3.815s19.71 9.593 48.024 22.348c-.653-3.708-3.157-24.528-3.811-28.452-10.672-6.215-22.977-16.134-37.896-24.418C91.415 1.573 82.89 1 79.403 1c-1.057 0-1.651.052-1.651.052"/>
        <path id="T" d="M79.14 1.052S76.417 12.05 52.827 19.306c-24.634 7.578-39.362 1.42-39.362 1.42C2.28 26.52 1.658 40.146 1 52.17c4.02-7.214 19.996-13.806 19.7-1.932-.293 11.732 4.714 18.254 4.714 18.254 5.92 7.432 13.178 13.145 14.364 19.127 1.84 9.282.86 18.174-.256 28.017-1.144 10.092-2.119 20.476-2.119 20.476L78.701 145l41.008-20.547c-2.631-10.494-8.99-26.233-15.131-41.972-6.14-15.74-7.565-23.5-8.772-29.729-1.078-5.572-.329-15.63-.329-15.63s45.175-2.186 44.516-6.12c-10.745-6.232-23.134-16.178-38.156-24.484C92.898 1.574 84.313 1 80.803 1c-1.064 0-1.662.052-1.662.052"/>
        <path id="V" d="M79.14 1.052S76.417 12.05 52.827 19.306c-24.634 7.578-39.362 1.42-39.362 1.42C2.28 26.52 1.658 40.146 1 52.17c4.02-7.214 19.996-13.806 19.7-1.932-.293 11.732 4.714 18.254 4.714 18.254 5.92 7.432 13.178 13.145 14.364 19.127 1.84 9.282.86 18.174-.256 28.017-1.144 10.092-2.119 20.476-2.119 20.476L78.701 145l41.008-20.547c-2.631-10.494-8.99-26.233-15.131-41.972-6.14-15.74-7.565-23.5-8.772-29.729-1.078-5.572-.329-15.63-.329-15.63s45.175-2.186 44.516-6.12c-10.745-6.232-23.134-16.178-38.156-24.484C92.898 1.574 84.313 1 80.803 1c-1.064 0-1.662.052-1.662.052"/>
        <path id="X" d="M79.14 1.052S76.417 12.05 52.827 19.306c-24.634 7.578-39.362 1.42-39.362 1.42C2.28 26.52 1.658 40.146 1 52.17c4.02-7.214 19.996-13.806 19.7-1.932-.293 11.732 4.714 18.254 4.714 18.254 5.92 7.432 13.178 13.145 14.364 19.127 1.84 9.282.86 18.174-.256 28.017-1.144 10.092-2.119 20.476-2.119 20.476L78.701 145l41.008-20.547c-2.631-10.494-8.99-26.233-15.131-41.972-6.14-15.74-7.565-23.5-8.772-29.729-1.078-5.572-.329-15.63-.329-15.63s45.175-2.186 44.516-6.12c-10.745-6.232-23.134-16.178-38.156-24.484C92.898 1.574 84.313 1 80.803 1c-1.064 0-1.662.052-1.662.052"/>
        <path id="Z" d="M79.14 1.052S76.417 12.05 52.827 19.306c-24.634 7.578-39.362 1.42-39.362 1.42C2.28 26.52 1.658 40.146 1 52.17c4.02-7.214 19.996-13.806 19.7-1.932-.293 11.732 4.714 18.254 4.714 18.254 5.92 7.432 13.178 13.145 14.364 19.127 1.84 9.282.86 18.174-.256 28.017-1.144 10.092-2.119 20.476-2.119 20.476L78.701 145l41.008-20.547c-2.631-10.494-8.99-26.233-15.131-41.972-6.14-15.74-7.565-23.5-8.772-29.729-1.078-5.572-.329-15.63-.329-15.63s45.175-2.186 44.516-6.12c-10.745-6.232-23.134-16.178-38.156-24.484C92.898 1.574 84.313 1 80.803 1c-1.064 0-1.662.052-1.662.052"/>
        <path id="ab" d="M79.14 1.052S76.417 12.05 52.827 19.306c-24.634 7.578-39.362 1.42-39.362 1.42C2.28 26.52 1.658 40.146 1 52.17c4.02-7.214 19.996-13.806 19.7-1.932-.293 11.732 4.714 18.254 4.714 18.254 5.92 7.432 13.178 13.145 14.364 19.127 1.84 9.282.86 18.174-.256 28.017-1.144 10.092-2.119 20.476-2.119 20.476L78.701 145l41.008-20.547c-2.631-10.494-8.99-26.233-15.131-41.972-6.14-15.74-7.565-23.5-8.772-29.729-1.078-5.572-.329-15.63-.329-15.63s45.175-2.186 44.516-6.12c-10.745-6.232-23.134-16.178-38.156-24.484C92.898 1.574 84.313 1 80.803 1c-1.064 0-1.662.052-1.662.052"/>
        <path id="ad" d="M79.14 1.052S76.417 12.05 52.827 19.306c-24.634 7.578-39.362 1.42-39.362 1.42C2.28 26.52 1.658 40.146 1 52.17c4.02-7.214 19.996-13.806 19.7-1.932-.293 11.732 4.714 18.254 4.714 18.254 5.92 7.432 13.178 13.145 14.364 19.127 1.84 9.282.86 18.174-.256 28.017-1.144 10.092-2.119 20.476-2.119 20.476L78.701 145l41.008-20.547c-2.631-10.494-8.99-26.233-15.131-41.972-6.14-15.74-7.565-23.5-8.772-29.729-1.078-5.572-.329-15.63-.329-15.63s45.175-2.186 44.516-6.12c-10.745-6.232-23.134-16.178-38.156-24.484C92.898 1.574 84.313 1 80.803 1c-1.064 0-1.662.052-1.662.052"/>
        <path id="af" d="M79.14 1.052S76.417 12.05 52.827 19.306c-24.634 7.578-39.362 1.42-39.362 1.42C2.28 26.52 1.658 40.146 1 52.17c4.02-7.214 19.996-13.806 19.7-1.932-.293 11.732 4.714 18.254 4.714 18.254 5.92 7.432 13.178 13.145 14.364 19.127 1.84 9.282.86 18.174-.256 28.017-1.144 10.092-2.119 20.476-2.119 20.476L78.701 145l41.008-20.547c-2.631-10.494-8.99-26.233-15.131-41.972-6.14-15.74-7.565-23.5-8.772-29.729-1.078-5.572-.329-15.63-.329-15.63s45.175-2.186 44.516-6.12c-10.745-6.232-23.134-16.178-38.156-24.484C92.898 1.574 84.313 1 80.803 1c-1.064 0-1.662.052-1.662.052"/>
        <path id="ah" d="M79.14 1.052S76.417 12.05 52.827 19.306c-24.634 7.578-39.362 1.42-39.362 1.42C2.28 26.52 1.658 40.146 1 52.17c4.02-7.214 19.996-13.806 19.7-1.932-.293 11.732 4.714 18.254 4.714 18.254 5.92 7.432 13.178 13.145 14.364 19.127 1.84 9.282.86 18.174-.256 28.017-1.144 10.092-2.119 20.476-2.119 20.476L78.701 145l41.008-20.547c-2.631-10.494-8.99-26.233-15.131-41.972-6.14-15.74-7.565-23.5-8.772-29.729-1.078-5.572-.329-15.63-.329-15.63s45.175-2.186 44.516-6.12c-10.745-6.232-23.134-16.178-38.156-24.484C92.898 1.574 84.313 1 80.803 1c-1.064 0-1.662.052-1.662.052"/>
        <path id="aj" d="M79.14 1.052S76.417 12.05 52.827 19.306c-24.634 7.578-39.362 1.42-39.362 1.42C2.28 26.52 1.658 40.146 1 52.17c4.02-7.214 19.996-13.806 19.7-1.932-.293 11.732 4.714 18.254 4.714 18.254 5.92 7.432 13.178 13.145 14.364 19.127 1.84 9.282.86 18.174-.256 28.017-1.144 10.092-2.119 20.476-2.119 20.476L78.701 145l41.008-20.547c-2.631-10.494-8.99-26.233-15.131-41.972-6.14-15.74-7.565-23.5-8.772-29.729-1.078-5.572-.329-15.63-.329-15.63s45.175-2.186 44.516-6.12c-10.745-6.232-23.134-16.178-38.156-24.484C92.898 1.574 84.313 1 80.803 1c-1.064 0-1.662.052-1.662.052"/>
        <path id="al" d="M79.14 1.052S76.417 12.05 52.827 19.306c-24.634 7.578-39.362 1.42-39.362 1.42C2.28 26.52 1.658 40.146 1 52.17c4.02-7.214 19.996-13.806 19.7-1.932-.293 11.732 4.714 18.254 4.714 18.254 5.92 7.432 13.178 13.145 14.364 19.127 1.84 9.282.86 18.174-.256 28.017-1.144 10.092-2.119 20.476-2.119 20.476L78.701 145l41.008-20.547c-2.631-10.494-8.99-26.233-15.131-41.972-6.14-15.74-7.565-23.5-8.772-29.729-1.078-5.572-.329-15.63-.329-15.63s45.175-2.186 44.516-6.12c-10.745-6.232-23.134-16.178-38.156-24.484C92.898 1.574 84.313 1 80.803 1c-1.064 0-1.662.052-1.662.052"/>
        <path id="an" d="M79.14 1.052S76.417 12.05 52.827 19.306c-24.634 7.578-39.362 1.42-39.362 1.42C2.28 26.52 1.658 40.146 1 52.17c4.02-7.214 19.996-13.806 19.7-1.932-.293 11.732 4.714 18.254 4.714 18.254 5.92 7.432 13.178 13.145 14.364 19.127 1.84 9.282.86 18.174-.256 28.017-1.144 10.092-2.119 20.476-2.119 20.476L78.701 145l41.008-20.547c-2.631-10.494-8.99-26.233-15.131-41.972-6.14-15.74-7.565-23.5-8.772-29.729-1.078-5.572-.329-15.63-.329-15.63s45.175-2.186 44.516-6.12c-10.745-6.232-23.134-16.178-38.156-24.484C92.898 1.574 84.313 1 80.803 1c-1.064 0-1.662.052-1.662.052"/>
        <path id="ap" d="M79.14 1.052S76.417 12.05 52.827 19.306c-24.634 7.578-39.362 1.42-39.362 1.42C2.28 26.52 1.658 40.146 1 52.17c4.02-7.214 19.996-13.806 19.7-1.932-.293 11.732 4.714 18.254 4.714 18.254 5.92 7.432 13.178 13.145 14.364 19.127 1.84 9.282.86 18.174-.256 28.017-1.144 10.092-2.119 20.476-2.119 20.476L78.701 145l41.008-20.547c-2.631-10.494-8.99-26.233-15.131-41.972-6.14-15.74-7.565-23.5-8.772-29.729-1.078-5.572-.329-15.63-.329-15.63s45.175-2.186 44.516-6.12c-10.745-6.232-23.134-16.178-38.156-24.484C92.898 1.574 84.313 1 80.803 1c-1.064 0-1.662.052-1.662.052"/>
        <path id="ar" d="M79.14 1.052S76.417 12.05 52.827 19.306c-24.634 7.578-39.362 1.42-39.362 1.42C2.28 26.52 1.658 40.146 1 52.17c4.02-7.214 19.996-13.806 19.7-1.932-.293 11.732 4.714 18.254 4.714 18.254 5.92 7.432 13.178 13.145 14.364 19.127 1.84 9.282.86 18.174-.256 28.017-1.144 10.092-2.119 20.476-2.119 20.476L78.701 145l41.008-20.547c-2.631-10.494-8.99-26.233-15.131-41.972-6.14-15.74-7.565-23.5-8.772-29.729-1.078-5.572-.329-15.63-.329-15.63s45.175-2.186 44.516-6.12c-10.745-6.232-23.134-16.178-38.156-24.484C92.898 1.574 84.313 1 80.803 1c-1.064 0-1.662.052-1.662.052"/>
        <path id="at" d="M79.14 1.052S76.417 12.05 52.827 19.306c-24.634 7.578-39.362 1.42-39.362 1.42C2.28 26.52 1.658 40.146 1 52.17c4.02-7.214 19.996-13.806 19.7-1.932-.293 11.732 4.714 18.254 4.714 18.254 5.92 7.432 13.178 13.145 14.364 19.127 1.84 9.282.86 18.174-.256 28.017-1.144 10.092-2.119 20.476-2.119 20.476L78.701 145l41.008-20.547c-2.631-10.494-8.99-26.233-15.131-41.972-6.14-15.74-7.565-23.5-8.772-29.729-1.078-5.572-.329-15.63-.329-15.63s45.175-2.186 44.516-6.12c-10.745-6.232-23.134-16.178-38.156-24.484C92.898 1.574 84.313 1 80.803 1c-1.064 0-1.662.052-1.662.052"/>
        <path id="av" d="M79.14 1.052S76.417 12.05 52.827 19.306c-24.634 7.578-39.362 1.42-39.362 1.42C2.28 26.52 1.658 40.146 1 52.17c4.02-7.214 19.996-13.806 19.7-1.932-.293 11.732 4.714 18.254 4.714 18.254 5.92 7.432 13.178 13.145 14.364 19.127 1.84 9.282.86 18.174-.256 28.017-1.144 10.092-2.119 20.476-2.119 20.476L78.701 145l41.008-20.547c-2.631-10.494-8.99-26.233-15.131-41.972-6.14-15.74-7.565-23.5-8.772-29.729-1.078-5.572-.329-15.63-.329-15.63s45.175-2.186 44.516-6.12c-10.745-6.232-23.134-16.178-38.156-24.484C92.898 1.574 84.313 1 80.803 1c-1.064 0-1.662.052-1.662.052"/>
        <path id="ax" d="M79.14 1.052S76.417 12.05 52.827 19.306c-24.634 7.578-39.362 1.42-39.362 1.42C2.28 26.52 1.658 40.146 1 52.17c4.02-7.214 19.996-13.806 19.7-1.932-.293 11.732 4.714 18.254 4.714 18.254 5.92 7.432 13.178 13.145 14.364 19.127 1.84 9.282.86 18.174-.256 28.017-1.144 10.092-2.119 20.476-2.119 20.476L78.701 145l41.008-20.547c-2.631-10.494-8.99-26.233-15.131-41.972-6.14-15.74-7.565-23.5-8.772-29.729-1.078-5.572-.329-15.63-.329-15.63s45.175-2.186 44.516-6.12c-10.745-6.232-23.134-16.178-38.156-24.484C92.898 1.574 84.313 1 80.803 1c-1.064 0-1.662.052-1.662.052"/>
        <path id="az" d="M1 1h45v33H1z"/>
        <path id="aB" d="M1.032 17.056C.565 31.11 5.13 49.64 17.635 50.934c13.012 1.348 20.88-18.313 21.347-32.367C39.45 4.512 30.657.364 20.422.023 19.963.008 19.51 0 19.058 0 9.426 0 1.48 3.63 1.032 17.056"/>
        <radialGradient id="aC" cx="51.72%" cy="-66.834%" r="174.934%" fx="51.72%" fy="-66.834%" gradientTransform="scale(-1 -.7451) rotate(-88.885 .798 .642)">
            <stop offset="0%" stop-color="#FFE8E8"/>
            <stop offset="100%" stop-color="#FDACAC"/>
        </radialGradient>
        <path id="aE" d="M8.62 38.777c7.876 1.736 20.42-7.234 20.42-7.234L34 7.813.16 0s-2.042 36.463 8.46 38.777"/>
        <radialGradient id="aF" cx="-100.774%" cy="-21.516%" r="168.972%" fx="-100.774%" fy="-21.516%" gradientTransform="matrix(.7769 .5489 -.62962 .6773 -.36 .484)">
            <stop offset="0%" stop-color="#FFE8E8"/>
            <stop offset="100%" stop-color="#FDACAC"/>
        </radialGradient>
        <path id="aH" d="M1 4.746S.805 18.658 7.12 32.781c2.12 4.743 6.268 9.346 15.67 3.411L41 22.991 37.418 0 1 4.746z"/>
        <radialGradient id="aI" cx="-121.212%" cy="-33.079%" r="209.011%" fx="-121.212%" fy="-33.079%" gradientTransform="scale(.975 1) rotate(32.846 -1.228 -.384)">
            <stop offset="0%" stop-color="#FFE8E8"/>
            <stop offset="100%" stop-color="#FDACAC"/>
        </radialGradient>
    </defs>
    <g fill="none" fill-rule="evenodd">
        <path d="M0 0h683v683H0z"/>
        <path fill="#FFAEAE" d="M375 575.408l-.857 8.592L357 582.31l1.143-8.31z"/>
        <path fill="#E09595" d="M415.395 550.979c3.617 4.982 4.776 10.391 4.776 10.391s4.63 5.41 11.866.712 7.96-8.256 6.078-10.534c-1.88-2.278-3.907-6.548-3.907-6.548s-22.431.997-18.813 5.979"/>
        <path fill="#2B2B51" d="M333.079 331s-1.601 88.764 9.628 124.192c5.835 18.41 19.839 22.21 39.386 53.184a23466.113 23466.113 0 0 0 30.841 48.75 1.884 1.884 0 0 0 2.52.629s13.551-8.06 19.191-11.76a.792.792 0 0 0 .294-.967c-13.505-32.442-17.203-58.028-32.715-76.978-12.543-15.321-16.922-32.436-16.922-32.436l-13.128-101.692L333.079 331z"/>
        <path fill="#42426C" d="M343 333.912l19.889 22.425s-7.02 91.735-7.312 102.51c-.274 10.063-.801 102.933-.87 115.163a1.414 1.414 0 0 0 1.329 1.416l20.164 1.57a1.421 1.421 0 0 0 1.503-1.21L417 331l-74 2.912zM356.914 581.173s-2.48 2.02-6.346 4.796c-4.722 3.391-11.781 7.977-13.02 9.954-1.132 1.802-1.132 4.94 6.236 5.625 6.827.635 14.327.814 21.592-.902 4.887-1.153 9.584-5.454 10.212-8.222.204-.899.236-3.791.292-5.914.074-2.815.387-5.16-.438-5.625-.766-.433-1.947 1.33-3.501 1.586-.875.145-2.188-.433-2.772-1.586-.964-1.905-2.48-2.885-6.42-2.885-3.793 0-5.835 3.173-5.835 3.173"/>
        <path fill="#2B2B51" d="M418.258 558.48c-.853.904-.984 4.454-6.886 10.973-4.241 4.683-12.68 9.56-15.958 11.08-3.28 1.521-3.498 5.432 1.093 5.432 2.404 0 12.679.218 17.488-.434 4.887-.663 21.122-11.046 27.107-15.21 6.558-4.562 9.018-7.108 7.432-9.56-1.967-3.041-3.716-4.562-5.246-6.083-1.53-1.52-4.372-6.084-5.684-5.649-1.311.435-1.323 3.74-2.66 5.432-1.603 2.027-7.833 6.518-10.019 6.518s-5.028-4.237-6.667-2.499"/>
        <path fill="#42426C" d="M538 596h-3.732c-6.776 0-12.268-5.372-12.268-12s5.492-12 12.268-12h3.548l.184 24z"/>
        <path fill="#42426C" d="M550 584c0 6.628-5.372 12-12 12s-12-5.372-12-12 5.372-12 12-12 12 5.372 12 12"/>
        <path fill="#42426C" d="M605.347 567.017l-40.533-109.169c-1.481-3.99-5.172-6.545-9.18-6.82V451h-32.048v.01a10.404 10.404 0 0 0-3.568.639l-24.878 9.211c-4.856 1.798-7.356 7.236-5.555 12.086l40.917 109.329c1.54 4.15 5.475 6.75 9.67 6.838l31.793.887v-.012a10.417 10.417 0 0 0 3.332-.639l23.843-8.827c5.425-2.009 8.219-8.086 6.207-13.505"/>
        <path fill="#42426C" d="M571 600h-3.733c-6.775 0-12.267-5.372-12.267-12s5.492-12 12.267-12h3.548l.185 24z"/>
        <path fill="#4771DD" d="M583 588c0 6.628-5.372 12-12 12s-12-5.372-12-12 5.372-12 12-12 12 5.372 12 12"/>
        <path fill="#2B2B51" d="M511.408 473.59c-1.423-3.876-.122-8.125 2.91-10.59h-18.832c-3.031 2.465-4.333 6.714-2.91 10.59l30.223 82.366c1.333 3.636 4.763 6.047 8.602 6.044l6.374-.007c2.943-.004 4.98-2.968 3.957-5.756l-30.324-82.647z"/>
        <path fill="#4771DD" d="M564.877 457.836c-1.534-4.034-5.386-6.605-9.548-6.821l.04-.015H522.71v.01a10.874 10.874 0 0 0-3.649.638l-25.444 9.195a9.51 9.51 0 0 0-4.618 3.559h25.454c2.466 0 6.139 1.192 8.967 8.413l36.223 95.225c.977 2.568 3.49 4.272 6.3 4.272h5.753c6.544 0 12.121 3.984 14.345 9.598.656 1.657 2.54 2.506 4.248 1.889l9.693-3.504c5.55-2.005 8.407-8.072 6.349-13.48l-41.455-108.979z"/>
        <path fill="#2B2B51" d="M496.325 469c-1.24 0-1.68-.762-2.134-1.994l-34-91.892a3.052 3.052 0 0 1 5.722-2.12l34 91.892c.585 1.581-1.917 4.114-3.588 4.114"/>
        <path fill="#42426C" d="M565.597 501.252a6.498 6.498 0 1 1-12.195 4.495 6.498 6.498 0 0 1 12.195-4.495M577.597 536.252a6.498 6.498 0 1 1-12.194 4.496 6.498 6.498 0 0 1 12.194-4.496"/>
        <path fill="#5581EE" d="M574.845 540.041l-2.253.847a1.753 1.753 0 0 1-2.265-1.066l-13.218-36.553c-.336-.932.131-1.966 1.045-2.31l2.253-.848a1.756 1.756 0 0 1 2.267 1.066l13.216 36.553c.338.932-.13 1.967-1.045 2.311"/>
        <path fill="#FFAEAE" d="M452 362.147l1.969 11.742a13.235 13.235 0 0 0 2.388 5.647l3.93 5.344a4.316 4.316 0 0 0 3.312 1.758l9.349.362 4.395-2.794s2.109-4.386 4.028-9.338c1.538-3.97-.014-6.533-1.758-8.603-2.417-2.868-11.938-9.265-11.938-9.265L452 362.147z"/>
        <path fill="#42426C" d="M505.453 469c-1.24 0-1.824-.762-2.28-1.994l-33.982-91.892a3.05 3.05 0 1 1 5.72-2.12l33.983 91.892c.584 1.581-1.335 4.114-3.441 4.114"/>
        <path fill="#2B2B51" d="M471.986 371.004L472 379s-.845-.004-1.836-.004c-2.3 0-4.164-1.79-4.164-3.998 0-2.209 1.865-3.998 4.164-3.998.644 0 1.822.004 1.822.004"/>
        <path fill="#4771DD" d="M476 375a4 4 0 1 1-8 0 4 4 0 0 1 8 0"/>
        <path fill="#42426C" d="M276 253.15s30.463-39.665 37.95-51.71c2.628-4.227 5.78 1.232 9.815 11.415C327.8 223.04 329 238.478 329 238.478s-16.286 20.147-29.663 31.535C285.722 281.603 278.181 286 278.181 286L276 253.15z"/>
        <path fill="#2B2B51" d="M294.377 229C284.942 241.533 276 253.068 276 253.068L278.207 286s7.63-4.407 21.406-16.027c8.606-7.258 18.393-18.059 24.387-24.97-9.887-5.242-19.987-10.223-29.623-16.003M316 233l5.758-15L324 235z"/>
        <path fill="#E09595" d="M200.436 220.833c6.888-4.543 21.471-12.068 33.496-15.24C248 201.88 265.707 201.89 270.178 202c9.109.223-5.93 22.368-33.192 27.607-17.81 3.424-30.129 2.933-36.226.051-3.6-1.702-3.648-6.632-.324-8.825z"/>
        <path fill="#2474CD" d="M237.478 148.602c8.803 8.802-23.073 40.679-31.877 31.876-8.801-8.802-8.801-23.074 0-31.876 8.804-8.803 23.075-8.803 31.877 0"/>
        <path fill="#23478D" d="M264.762 148.97c7.507 10.338-4.628 26.927-25.094 40.796-20.76 14.069-41.81 19.725-47.728 11.255-6.577-9.415 4.082-28.48 24.191-42.853 20.109-14.374 41.882-18.492 48.63-9.198"/>
        <path fill="#423748" d="M210.198 181.672c-1.312 9.63-3.898 12.272-6.34 18.386-1.75 4.378-1.17 11.855 5.028 13.571 6.85 1.897 11.66-3.94 24.779-7.223 13.118-3.283 11.515-1.97 15.014-2.627 6.257-1.175 13.118-4.815 15.086-12.258 1.481-5.602-4.373-10.068-8.09-14.008-3.717-3.94-5.962-10.219-9.839-13.571-4.81-4.16-10.932-4.597-15.96-3.284-7.295 1.906-18.663 13.56-19.678 21.014"/>
        <path fill="#E09595" d="M221 196.516s2.446 9.39.445 17.032c-1.547 5.906 16.293-.315 24.48-3.448 2.26-.864 3.508-3.24 2.937-5.555-1.069-4.335-2.593-11.345-2.736-16.545L221 196.516z"/>
        <g transform="translate(213 160)">
            <mask id="c" fill="#fff">
                <use xlink:href="#a"/>
            </mask>
            <path fill="url(#b)" d="M15.111.69C6.376 2.802-1.375 10.615.206 23.276 1.787 35.937 12.802 47.002 21.73 45.928c9.16-1.103 14.206-14.4 11.576-32.207C31.823 3.687 26.881 0 20.402 0c-1.672 0-3.447.245-5.291.69" mask="url(#c)"/>
        </g>
        <g>
            <path fill="#FFAEAE" d="M230.687 166.53c6.912-.971 13.793 1.948 15.313 7.141-1.848-12.578-9.123-15.146-18.029-12.982-8.612 2.092-16.254 9.809-14.79 22.311 2.3-8.138 8.274-15.17 17.506-16.47"/>
            <path fill="#423748" d="M232 160.007s-1.3 11.041-15.173 29.369L214.225 196s-6.936-11.04-3.034-21.86c3.5-9.705 14.426-12.842 15.823-13.25 3.54-1.03 4.986-.883 4.986-.883"/>
            <path fill="#FFAEAE" d="M216.644 187.362c1.27 3.297 3.32 6.53 1.841 7.358-1.479.828-4.42-.219-5.863-2.63-1.817-3.037-2.122-6.54-.84-7.641 1.695-1.458 4.099.934 4.862 2.913"/>
            <path fill="#42426C" d="M200.061 221.727s14.681 6.157 39.233-1.421c23.512-7.257 26.228-18.253 26.228-18.253s11.012-.977 22.622 5.465c14.972 8.307 27.321 18.253 38.031 24.483.656 3.935 3.17 24.81 3.825 28.527-28.414-12.788-48.194-22.406-48.194-22.406s-.748 10.057.328 15.63c1.202 6.23 2.622 13.99 8.742 29.729 6.12 15.739 12.459 31.26 15.082 41.752L265.085 346l-41.163-8.89s.972-10.383 2.112-20.475c1.112-9.843 2.09-18.735.256-28.017-1.183-5.982-8.415-11.695-14.317-19.127 0 0 .13 19.194-.874 27.762-1.64 13.99-4.371 23.499-7.431 25.357-3.709 2.252-9.727-1.202-14.535-4.59-4.809-3.389-12.568-10.056-23.642-19.966-7.251-6.49-20.618-11.513-21.82-13.043-1.626-2.07-.09-9.611 2.404-15.302 3.497-7.979 10.6-3.279 10.6-3.279s8.168 6.655 11.366 8.307c8.77 4.527 17.048 8.525 19.599 9.91 0 0-.326-25.52 0-31.479.655-12.023 1.274-25.648 12.421-31.441"/>
            <path fill="#C5CBD8" d="M150.26 269.329c1.934.804 2.38 5.111.706 9.398-1.672 4.288-4.83 6.934-6.764 6.13-1.934-.804-1.325-7.313.348-11.601 1.672-4.288 3.776-4.731 5.71-3.927"/>
        </g>
        <g>
            <g transform="translate(142 265)">
                <mask id="e" fill="#fff">
                    <use xlink:href="#d"/>
                </mask>
                <path stroke="#4771DD" stroke-width="4" d="M18.624 2s2.06 5.676-3.47 14.723C11.127 23.315 4 25 4 25" mask="url(#e)"/>
            </g>
            <g transform="translate(142 265)">
                <mask id="g" fill="#fff">
                    <use xlink:href="#f"/>
                </mask>
                <path stroke="#4771DD" stroke-width="4" d="M23.661 5s1.774 5.696-2.793 15.057C17.31 27.347 11 30 11 30" mask="url(#g)"/>
            </g>
            <g transform="translate(142 265)">
                <mask id="i" fill="#fff">
                    <use xlink:href="#h"/>
                </mask>
                <path stroke="#4771DD" stroke-width="4" d="M30.657 9s1.664 5.744-2.336 15.38C24.992 32.395 19 36 19 36" mask="url(#i)"/>
            </g>
            <g transform="translate(142 265)">
                <mask id="k" fill="#fff">
                    <use xlink:href="#j"/>
                </mask>
                <path stroke="#4771DD" stroke-width="4" d="M36.633 12s1.594 5.81-1.864 15.693C31.703 36.452 26 41 26 41" mask="url(#k)"/>
            </g>
            <g transform="translate(142 265)">
                <mask id="m" fill="#fff">
                    <use xlink:href="#l"/>
                </mask>
                <path stroke="#4771DD" stroke-width="4" d="M42.585 15s1.562 5.696-1.375 15.483C38.447 39.69 33 45 33 45" mask="url(#m)"/>
            </g>
            <g transform="translate(142 265)">
                <mask id="o" fill="#fff">
                    <use xlink:href="#n"/>
                </mask>
                <path stroke="#4771DD" stroke-width="4" d="M47.558 19s1.392 5.782-.765 15.806C44.646 44.771 40 51 40 51" mask="url(#o)"/>
            </g>
            <g transform="translate(143 265)">
                <mask id="q" fill="#fff">
                    <use xlink:href="#p"/>
                </mask>
                <path stroke="#4771DD" stroke-width="4" d="M53.452 22s1.403 5.862-.28 16.12C51.412 48.844 47 56 47 56" mask="url(#q)"/>
            </g>
        </g>
        <g>
            <g transform="translate(187 201)">
                <mask id="s" fill="#fff">
                    <use xlink:href="#r"/>
                </mask>
                <path stroke="#4771DD" stroke-width="4" d="M148.692 30c1.483 9.578-2.544 24.599-8.692 32" mask="url(#s)"/>
            </g>
            <g transform="translate(187 201)">
                <mask id="u" fill="#fff">
                    <use xlink:href="#t"/>
                </mask>
                <path stroke="#4771DD" stroke-width="4" d="M142.896 27c.815 9.615-3.241 23.498-8.896 32" mask="url(#u)"/>
            </g>
            <g transform="translate(187 201)">
                <mask id="w" fill="#fff">
                    <use xlink:href="#v"/>
                </mask>
                <path stroke="#4771DD" stroke-width="4" d="M135.999 23c.077 9.652-3.956 22.41-8.999 32" mask="url(#w)"/>
            </g>
            <g transform="translate(187 201)">
                <mask id="y" fill="#fff">
                    <use xlink:href="#x"/>
                </mask>
                <path stroke="#4771DD" stroke-width="4" d="M129 20c-.632 9.992-4.15 22-8 33" mask="url(#y)"/>
            </g>
            <g transform="translate(187 201)">
                <mask id="A" fill="#fff">
                    <use xlink:href="#z"/>
                </mask>
                <path stroke="#4771DD" stroke-width="4" d="M123 17c-1.37 10.028-4.818 20.903-8 33" mask="url(#A)"/>
            </g>
            <g transform="translate(187 201)">
                <mask id="C" fill="#fff">
                    <use xlink:href="#B"/>
                </mask>
                <path stroke="#4771DD" stroke-width="4" d="M117 13c-2.148 10.066-5.524 19.819-8 33" mask="url(#C)"/>
            </g>
            <g transform="translate(187 201)">
                <mask id="E" fill="#fff">
                    <use xlink:href="#D"/>
                </mask>
                <path stroke="#4771DD" stroke-width="4" d="M111 10c-2.971 10.101-6.27 18.746-8 33" mask="url(#E)"/>
            </g>
            <g transform="translate(187 201)">
                <mask id="G" fill="#fff">
                    <use xlink:href="#F"/>
                </mask>
                <path stroke="#4771DD" stroke-width="4" d="M104 6c-3.362 10.137-6.176 17.686-7 33" mask="url(#G)"/>
            </g>
            <g transform="translate(187 201)">
                <mask id="I" fill="#fff">
                    <use xlink:href="#H"/>
                </mask>
                <path stroke="#4771DD" stroke-width="4" d="M-1 78c7.283 2.832 19.643 8.497 27 13" mask="url(#I)"/>
            </g>
            <g transform="translate(187 201)">
                <mask id="K" fill="#fff">
                    <use xlink:href="#J"/>
                </mask>
                <path stroke="#4771DD" stroke-width="4" d="M-1 69c5.859 2.217 19.085 7.941 27 13" mask="url(#K)"/>
            </g>
            <g transform="translate(187 201)">
                <mask id="M" fill="#fff">
                    <use xlink:href="#L"/>
                </mask>
                <path stroke="#4771DD" stroke-width="4" d="M-1 61c4.255 1.753 17.835 7.978 26 14" mask="url(#M)"/>
            </g>
            <g transform="translate(187 201)">
                <mask id="O" fill="#fff">
                    <use xlink:href="#N"/>
                </mask>
                <path stroke="#4771DD" stroke-width="4" d="M0 53c2.852 1.144 17.286 7.428 26 14" mask="url(#O)"/>
            </g>
            <g transform="translate(187 201)">
                <mask id="Q" fill="#fff">
                    <use xlink:href="#P"/>
                </mask>
                <path stroke="#4771DD" stroke-width="4" d="M0 45c1.434.56 16.73 6.9 26 14" mask="url(#Q)"/>
            </g>
            <g transform="translate(187 201)">
                <mask id="S" fill="#fff">
                    <use xlink:href="#R"/>
                </mask>
                <path stroke="#4771DD" stroke-width="4" d="M0 37s16.168 6.392 26 14" mask="url(#S)"/>
            </g>
        </g>
        <g>
            <path fill="#42426C" d="M314.032 579a3.148 3.148 0 0 1-.175.386c-2.462 4.46-8.445 9.863-10.857 12.366-3.392 3.52-2.306 6.579 2.018 7.476 4.81.997 12.078.823 15.563.597 4.61-.298 7.04-1.623 8.358-2.99 1.98-2.055.753-8.39-.181-14.657-4.695-1.755-9.683-2.002-14.726-3.178"/>
            <path fill="#E09595" d="M329.571 580.931c.52-1.211.736-2.664-.343-4.36-.432-.68-.733-1.428-.785-2.23-1.917-29.427-1.857-62.953-5.259-79.796-3.777-18.706-30.598-8.998-28.021 2.05 2.232 9.573 4.306 19.206 7.465 30.025 3.412 11.685 10.626 30.831 12.437 47.918.071.668-.403 1.347-.625 2.17-.413 1.537.27 2.052-.194 3.179 5.175 1.152 10.293 1.393 15.112 3.113l-.045-.282c-.094-.607.015-1.222.258-1.787zM202.828 462s-4.973 49.148-11.701 97.865c-1.171 8.472-3.356 10.582-5.826 11.953-4.402 2.444-13.19 6.16-17.577 8.35-5.117 2.555-19.521 5.727-20.303 6.107-2.09 1.015-1.813 4.065.43 4.678 2.85.778 10.3 1.047 16.801 1.047 10.148 0 28.026-.29 36.93-.676a5.905 5.905 0 0 0 5.633-6.335c-.379-5.174-1.355-12.37-.438-15.776 8.337-30.966 15.65-41.483 21.793-68.36C232.92 481.82 202.828 462 202.828 462"/>
            <path fill="#2B2B51" d="M228.78 501.616c3.912-19.074 3.494-37.44 7.861-46.618 4.368-9.177 26.207-57.979 25.334-91.776l-1.457-21.706L223.975 337s-9.877 41.063-20.529 115.668c-2.459 17.225-5.123 46.164-8.446 76.602 7.846 1.183 17.402 1.426 25.4 1.729a1.467 1.467 0 0 0 1.45-1.012c2.877-8.794 4.595-16.993 6.93-28.371M183.379 581.453c0-2.925-1.214-5.239-2.627-7.453-4.448 2.135-9.934 4.539-13.11 6.135-5.098 2.562-19.447 5.743-20.226 6.124-2.083 1.018-1.807 4.076.427 4.69 2.84.781 10.262 1.051 16.739 1.051 10.11 0 27.92-.29 36.79-.678 3.32-.145 5.854-3.021 5.612-6.353-.108-1.472-.261-3.108-.408-4.774-8.335.38-15.547.819-23.197 1.258"/>
            <path fill="#42426C" d="M327 529.199c.024-11.907-1.252-26.876-2.757-35.096-4.537-24.793-6.294-34.856-7.172-45.794-.878-10.938-2.489-38.648-4.391-78.755-1.182-24.91-5.563-44.554-5.563-44.554C261.447 337.25 225 336.886 225 336.886l36.448 29.168s17.147 63.378 18.15 69.13c1.171 6.708 2.75 15.473 4.1 21 2.634 10.793 7.988 28.958 10.538 39.96 2.21 9.532 4.432 18.813 7.559 29.587.393 1.353.826 2.811 1.286 4.352.138.465.535.846 1.02.864 6.31.236 15.86-.31 22.899-1.748"/>
        </g>
        <g>
            <g transform="translate(187 201)">
                <mask id="U" fill="#fff">
                    <use xlink:href="#T"/>
                </mask>
                <path stroke="#4771DD" stroke-width="4" d="M35 132s44.962-.45 87-14" mask="url(#U)"/>
            </g>
            <g transform="translate(187 201)">
                <mask id="W" fill="#fff">
                    <use xlink:href="#V"/>
                </mask>
                <path stroke="#4771DD" stroke-width="4" d="M35 124s15.886-.186 37.47-3.342c14.036-2.047 30.481-5.346 46.53-10.658" mask="url(#W)"/>
            </g>
            <g transform="translate(187 201)">
                <mask id="Y" fill="#fff">
                    <use xlink:href="#X"/>
                </mask>
                <path stroke="#4771DD" stroke-width="4" d="M35 116s15.333-.207 36.208-3.391c13.5-2.052 29.314-5.34 44.792-10.609" mask="url(#Y)"/>
            </g>
            <g transform="translate(187 201)">
                <mask id="aa" fill="#fff">
                    <use xlink:href="#Z"/>
                </mask>
                <path stroke="#4771DD" stroke-width="4" d="M34 109s14.78-.227 34.946-3.439C81.906 103.506 97.093 100.227 112 95" mask="url(#aa)"/>
            </g>
            <g transform="translate(187 201)">
                <mask id="ac" fill="#fff">
                    <use xlink:href="#ab"/>
                </mask>
                <path stroke="#4771DD" stroke-width="4" d="M34 102s14.227-.264 33.683-3.735C80.107 96.06 94.663 92.557 109 87" mask="url(#ac)"/>
            </g>
            <g transform="translate(187 201)">
                <mask id="ae" fill="#fff">
                    <use xlink:href="#ad"/>
                </mask>
                <path stroke="#4771DD" stroke-width="4" d="M33 94s13.673-.284 32.42-3.782C77.308 88.01 91.234 84.516 105 79" mask="url(#ae)"/>
            </g>
            <g transform="translate(187 201)">
                <mask id="ag" fill="#fff">
                    <use xlink:href="#af"/>
                </mask>
                <path stroke="#4771DD" stroke-width="4" d="M33 87s13.31-.303 31.608-3.828C76.124 80.959 89.613 77.476 103 72" mask="url(#ag)"/>
            </g>
            <g transform="translate(187 201)">
                <mask id="ai" fill="#fff">
                    <use xlink:href="#ah"/>
                </mask>
                <path stroke="#4771DD" stroke-width="4" d="M32 79s12.756-.322 30.347-3.872C73.324 72.912 86.183 69.438 99 64" mask="url(#ai)"/>
            </g>
            <g transform="translate(187 201)">
                <mask id="ak" fill="#fff">
                    <use xlink:href="#aj"/>
                </mask>
                <path stroke="#4771DD" stroke-width="4" d="M23 70.338c10.078 4.28 27.226-.886 33.812-2.354C68.255 65.434 76.968 66.272 98 56" mask="url(#ak)"/>
            </g>
            <g transform="translate(187 201)">
                <mask id="am" fill="#fff">
                    <use xlink:href="#al"/>
                </mask>
                <path stroke="#4771DD" stroke-width="4" d="M21 63.894c10.906 3.335 28.3-1.811 34.178-3.12C67.763 57.987 78.303 57.76 98 47" mask="url(#am)"/>
            </g>
            <g transform="translate(187 201)">
                <mask id="ao" fill="#fff">
                    <use xlink:href="#an"/>
                </mask>
                <path stroke="#4771DD" stroke-width="4" d="M19 57.38c11.734 2.369 29.373-2.732 34.544-3.876C67.271 50.498 79.634 49.197 98 38" mask="url(#ao)"/>
            </g>
            <g transform="translate(187 201)">
                <mask id="aq" fill="#fff">
                    <use xlink:href="#ap"/>
                </mask>
                <path stroke="#4771DD" stroke-width="4" d="M18 50.758c12.56 1.393 30.445-3.637 34.912-4.609C67.778 42.938 81.962 40.576 99 29" mask="url(#aq)"/>
            </g>
            <g transform="translate(187 201)">
                <mask id="as" fill="#fff">
                    <use xlink:href="#ar"/>
                </mask>
                <path stroke="#4771DD" stroke-width="4" d="M16 44.973c13.385.442 31.517-4.694 35.28-5.525C67.285 35.912 83.288 32.376 99 20" mask="url(#as)"/>
            </g>
            <g transform="translate(187 201)">
                <mask id="au" fill="#fff">
                    <use xlink:href="#at"/>
                </mask>
                <path stroke="#4771DD" stroke-width="4" d="M1 37.386C26.195 40.892 84.786 29.206 105 7" mask="url(#au)"/>
            </g>
            <g transform="translate(187 201)">
                <mask id="aw" fill="#fff">
                    <use xlink:href="#av"/>
                </mask>
                <path stroke="#4771DD" stroke-width="4" d="M3 30.491C23.627 33.515 75.775 22.861 98 4" mask="url(#aw)"/>
            </g>
            <g transform="translate(187 201)">
                <mask id="ay" fill="#fff">
                    <use xlink:href="#ax"/>
                </mask>
                <path stroke="#4771DD" stroke-width="4" d="M4 24.576C20.295 27.228 66.559 17.209 91 1" mask="url(#ay)"/>
            </g>
        </g>
        <g>
            <path fill="#C5CBD8" d="M204.944 244.904c1.46.892 2.326 2.32 2.309 3.994-.057 5.31.018 9.341 1.481 13.647 1.513 4.447 3.266 6.677 3.266 6.677s-.045 7.515 0 9.778c-1.114-2.71-4.267-10.968-7.326-19.04C201.143 250.64 198 241 198 241s4.102 2.166 6.944 3.904" style="mix-blend-mode:multiply"/>
            <path fill="#4771DD" d="M207.35 217.218a.673.673 0 0 0-.301.84c1.2 2.993 4.562 16.022 24.79 48.997 9.308 15.17 24.523 35.747 33.91 50.192 7.637 11.753 21.283 47.522 25.978 59.53 4.22 10.797 14.552 28.598 29.252 27.139 18.394-1.827 23.358-24.95 15.28-45.523-6.677-17.008-16.489-31.345-25.686-43.627-7.082-9.457-17.9-26.846-17.9-26.846s17.61 42.02 13.898 47.711c-2.569 3.938-21.54-5.471-40.167-27.357-7.79-9.153-17.792-22.878-29.688-41.365-20.376-31.662-24.377-45.523-26.579-50.612-.122-.283-.475-.376-.744-.225l-2.044 1.146z"/>
            <path fill="#FFAEAE" d="M151.445 281c-.59-.672-5.173-5.61-7.747-11.385-3.69-8.28-9.489-19.441-10.219-22.316-.775-3.05-.571-10.667.332-12.982.885-2.27 2.459-5.91 3.984-8.044.693-.967 1.64-1.165 2.214-1.252 1.918-.291 3.925 2.574 6.308 3.54 2.51 1.017 3.873.817 5.055 1.108 1.793.442-.591 3.922-3.395 4.067L161 249.334s-.885 7.698-4.456 11.38c-.777.801-1.816 2.129-1.004 3.363.557.848 1.144 1.326 1.881 2.052 1.587 3.54-5.423 14.072-5.976 14.871"/>
            <path stroke="#2B2B51" stroke-width="2" d="M142 237.014c2.624 7.407 28.095 27.378 52.254 12.781C214.307 237.68 221 210 221 210"/>
            <path fill="#2B2B51" d="M176.861 250.813l-27.659 5.114c-1.827.386-3.617-.802-3.997-2.653l-3.043-14.79c-.16-.781-1.162-2.302-1.162-2.302s2.136-1.397 3.781-1.75l30.108-6.36c1.826-.386 3.616.803 3.997 2.655l3.042 14.79a3.447 3.447 0 0 1-1.368 3.503c-.365.26-2.758 1.57-3.699 1.793"/>
            <path fill="#2B2B51" d="M172.838 227.116l1.132 5.366c.16.757-.333 1.5-1.1 1.659l-4.03.83a1.417 1.417 0 0 1-1.677-1.087l-1.133-5.366c-.16-.758.333-1.5 1.1-1.658l4.03-.83a1.42 1.42 0 0 1 1.678 1.086M164.822 230.042l1.147 5.008c.163.707-.337 1.4-1.114 1.547l-1.976.375c-.777.148-1.54-.306-1.7-1.014l-1.148-5.007c-.163-.708.336-1.4 1.114-1.549l1.975-.374c.778-.148 1.54.307 1.702 1.014"/>
            <path fill="#42426C" d="M176.304 250.567l-30.176 6.36c-1.83.386-3.625-.802-4.006-2.654l-3.05-14.79c-.381-1.85.793-3.665 2.625-4.051l30.176-6.36c1.83-.386 3.625.803 4.006 2.655l3.05 14.788c.38 1.853-.794 3.666-2.625 4.052"/>
            <path fill="#73A0F9" d="M174 246.5a1.5 1.5 0 1 1-3 0 1.5 1.5 0 0 1 3 0"/>
            <path fill="#FFAEAE" d="M135 239.578s4.489-3.23 7.294-4.952c2.137-1.312 4.859-.3 5.499.646 1.459 2.153 5.873 8.632 6.172 10.657.26 1.755-.954 3.007-2.357 6.136-.43.96-1.372 1.62-2.456 1.722l-1.638.154-4.322 7.059L135 239.578z"/>
            <path stroke="#2B2B51" stroke-width="2" d="M177 229.534s15.172 19.464 40.238 11.59C240.475 233.828 250 203 250 203"/>
            <path fill="#2B2B51" d="M168 243a9 9 0 1 1-18 0 9 9 0 0 1 18 0"/>
            <path fill="#42426C" d="M166 244a9 9 0 1 1-18 0 9 9 0 0 1 18 0"/>
            <path fill="#423748" d="M164 243a8 8 0 1 1-16 0 8 8 0 0 1 16 0"/>
            <path fill="#FF7E59" d="M163 243a6 6 0 1 1-12 0 6 6 0 0 1 12 0"/>
            <path fill="#FFF" d="M162.551 242.859c1.016 1.267.25 3.478-1.711 4.937-1.961 1.46-4.375 1.614-5.391.345-1.016-1.268-.25-3.479 1.711-4.938 1.961-1.458 4.375-1.612 5.391-.344"/>
            <path fill="#FFAEAE" d="M227.062 295c-.351.266-1.563.873-3.048 1.899-1.548 1.069-2.023 2.608-2.014 4.206.021 3.695 1.682 12.474 3.264 13.723 2.502 1.975 7.908 2.314 9.223 2.127 1.602-.228 2.777-1.017 2.462-3.685-.782-6.61-1.25-9.789-2.58-11.243-1.875-2.052-6.133-3.91-6.603-4.825-.274-.53-.548-1.632-.704-2.202"/>
            <path fill="#4771DD" d="M333 298s-9.53 24.166-16.102 38.535c-6.572 14.37 5.806 18.869 8.654 19.594 2.847.726 6.937.871 6.937.871l.511-59z"/>
            <path fill="#2474CD" d="M389.748 318l-33.832-62.232L351 185.356s10.988-9.641 25.446-9.35c14.458.292 22.554 8.474 22.554 8.474L389.748 318z"/>
            <path fill="#23478D" d="M361.282 181l-2.062.093-25.341 88.427-.879 63.036s23.51 7.442 61.524 3.065l.476-21.166c-27.213-37.952-38.948-86.793-33.718-133.455"/>
            <path fill="#42426C" d="M450.203 364.916l20.933-7.908a1.34 1.34 0 0 0 .84-1.505c-2.487-13.125-26.308-138.509-27.355-143.791-1.596-8.05-4.932-18.442-15.088-22.54-8.207-3.312-11.013-2.09-20.31-4.976-7.545-2.342-14.219-8.196-14.219-8.196l-13.927 80.499s-.58 19.32 1.45 36.883c2.031 17.564 10.156 50.056 12.477 57.96 2.322 7.903 6.384 12.88 16.54 11.124 7.48-1.294 12.578-3.047 15.088-3.806a1.694 1.694 0 0 0 1.185-1.858c-.916-6.756-6.153-35.088-6.408-42.05-.29-7.904-1.161-38.933-1.161-38.933l28.32 88.309c.22.688.967 1.047 1.635.788"/>
            <path fill="#2B2B51" d="M421 276.403L429 230l-1.143 68z"/>
            <path fill="#42426C" d="M361 177c-5.93 3.734-10.981 6.37-17.57 8.127-6.036 1.61-10.823 1.414-17.79 4.612-6.698 3.075-11.64 11.422-11.64 11.422l7.577 13.289 1.867 15.485s3.953 22.184 7.467 50.738c0 0 1.318 13.398-1.318 21.744-3.117 9.874-12.372 35.583-12.372 35.583s6.003-12.96 16.326-39.097c0 0 7.174-20.207 10.688-47.883 0 0-.366-25.918 4.027-39.536 4.392-13.618 8.565-26.357 12.738-34.484"/>
            <path fill="#2B2B51" d="M341.179 258.552c.013.55.818.615.924.073 2.112-10.737 8.422-38.16 11.745-49.957 3.749-13.312 7.68-24.686 7.974-25.56.295-.874 2.88-7.865 1.994-13.108 0 0-8.196 9.176-15.285 27.964-6.19 16.408-7.531 40.773-7.531 47.48 0 4.736.096 9.71.179 13.108"/>
            <path fill="#E09595" d="M363.878 167.147s-.294 6.58-1.612 14.77c-1.376 8.553 2.613 14.762 11.352 15.941 8.129 1.097 18.392-4.228 18.088-13.893-.145-4.68 0-7.313.294-16.965l-28.122.147z"/>
            <g transform="translate(356 114)">
                <mask id="aA" fill="#fff">
                    <use xlink:href="#az"/>
                </mask>
                <path fill="#423748" d="M1.958 31.102s-2.48-11.005.54-18.598C5.367 5.286 8.334 4.934 9.794 4.8c2.409-.22 2.95 1.396 5.212-.22 1.079-.77 1.665-1.998 3.99-2.274 2.157-.257 3.559-2.09 6.147-.917 2.588 1.173 3.235 1.98 5.283 1.43 2.456-.66 4.385-1.1 7.117.808 2.733 1.907 2.193 4.365 3.775 5.685 1.58 1.32 4.313 2.531 4.636 8.034.269 4.562-.647 11.372-2.803 16.654L1.958 31.102z" mask="url(#aA)"/>
            </g>
            <path fill="#2B2B51" d="M383.307 261.531c-.21.714-1.278.576-1.292-.166-.145-8.535.693-28.619 4.728-48.861 3.855-19.344 4.449-24.724 5.041-29.087.413-3.032.445-15.417.445-15.417s5.554 6.328 7.267 11.054c2.372 6.544 5.042 21.524-2.225 41.013-7.348 19.711-11.961 34.654-13.964 41.464"/>
            <path fill="#FFAEAE" d="M364.97 151.092c.376 4.412-2.945 7.662-5.668 7.895-2.723.232-3.816-2.642-4.191-7.054-.375-4.412.112-8.691 2.835-8.923 2.723-.233 6.65 3.67 7.025 8.082M391.234 153.1c-1.087 4.367 1.816 8.146 4.584 8.802 2.77.658 4.353-2.056 5.441-6.425 1.09-4.368 1.27-8.737-1.5-9.394-2.768-.656-7.437 2.648-8.525 7.016"/>
        </g>
        <g transform="translate(358 129)">
            <mask id="aD" fill="#fff">
                <use xlink:href="#aB"/>
            </mask>
            <path fill="url(#aC)" d="M1.032 17.056C.565 31.11 5.13 49.64 17.635 50.934c13.012 1.348 20.88-18.313 21.347-32.367C39.45 4.512 30.657.364 20.422.023 19.963.008 19.51 0 19.058 0 9.426 0 1.48 3.63 1.032 17.056" mask="url(#aD)"/>
        </g>
        <g>
            <path fill="#423748" d="M359 143.132c.219-.882 2.688-9.65 6.38-7.79 2.772 1.396 7.22 2.867 12.18 3.013 7.22.214 11.553-.228 13.929.22 1.996.378 4.29.43 4.813 5.697.182 1.837.985 1.727.985 1.727l1.713-4.557-6.126-12.568L361.042 127 359 143.132z"/>
            <path fill="#FF7E59" d="M402 226.558l.474-4.88c.144-1.604 1.625-2.805 3.293-2.667l11.45.943c1.667.137 2.914 1.562 2.772 3.166l-.475 4.88L402 226.558z"/>
            <path fill="#FFF" d="M428 220.67c-5.79-.507-8.634-3.54-8.1-9.65a3.488 3.488 0 0 1-.229-.02c-.534 6.109-3.91 8.6-9.652 8.097-.03.136-.015.23-.015.23 5.736.503 8.605 3.84 8.096 9.649.072.012.159.033.23.02.508-5.81 3.859-8.6 9.643-8.098 0 0 .015-.116.027-.228"/>
            <path fill="#C5CBD8" d="M282 237.036s.712-5.772 1.205-8.953c.567-3.657 1.236-6.84 1.398-7.62.161-.781.728-.6 1.047.74L290 241l-8-3.965zM155.129 284.558a5.224 5.224 0 0 0-6.414-.812c-.075.045-.153.09-.23.132-1.353.737-2.485 1.034-2.485 1.034s8.86 4.394 14.088 7.643c.466.29 1.1.713 1.822 1.209.81.557 1.551.083.736-.951l-7.517-8.255z" style="mix-blend-mode:multiply"/>
            <path fill="#4771DD" d="M211 296.74L201 291l9.427 10z"/>
            <path fill="#4771DD" d="M210 304.968s-.3 1.67-.506 2.589c-.206.92-.57 2.443-.57 2.443s-1.49-5.949-3.131-9.866C204.346 296.68 201 291 201 291l.901.73s3.434 3.882 5.419 7.407a42.053 42.053 0 0 1 2.68 5.831"/>
            <path fill="#4771DD" d="M201 291s2.084 7.519 2.878 14.06c.844 6.965.608 15.94.608 15.94s.525-.49 1.35-2.198a25.193 25.193 0 0 0 1.164-2.86s-.194-6.566-1.562-12.51c-1.209-5.25-3.89-11.672-3.89-11.672L201 291z"/>
            <path fill="#4771DD" d="M201.555 291s.416 9.067-.6 15.836c-1.13 7.533-3.955 15.177-3.955 15.177s.932.444 1.695.658c.763.215 1.907.329 1.907.329s2.013-7.753 2.366-15.872c.254-5.846-1.095-15.69-1.095-15.69l-.318-.438z"/>
            <path fill="#82AEF4" d="M248.113 498.168s12.63 20.231 23.794 14.954c11.163-5.278 4.994-23.164-2.644-32.547-7.638-9.382-17.919-16.126-25.263-15.54l4.113 33.133zM222 521.524l2.306 23.377s8.936 9.236 16.719 6.638c7.783-2.597 8.805-8.884 7.495-19.048-1.154-8.946-8.648-20.491-8.648-20.491L222 521.524z"/>
            <path fill="#97BEF7" d="M180 446s3.34-4.575 10.021-9.297c6.681-4.722 18.154-9.15 26.288-10.625 8.132-1.476.29 18.594.29 18.594L180 446zM172.995 499s-7.011 50.125 16.193 54.821c17.197 3.48 13.472-44.96 13.472-44.96L172.995 499z"/>
            <path fill="#97BEF7" d="M167 449.177s32.076-12.171 52.447-2.344c25.5 12.302 35.062 31.048 30.425 56.823-3.935 21.88-28.524 21.274-48.68 13.18-21.153-8.494-29.266-16.695-29.266-16.695L167 449.177z"/>
            <path fill="#82AEF4" d="M149.293 519.56c-3.305 12.575-12.658 15.085-20.379 12.555-7.07-2.32-12.243-12.262-6.35-23.812 4.123-8.085 10.422-9.938 17.993-6.974 7.57 2.963 11.05 9.433 8.736 18.232"/>
            <path fill="#FFCFDF" d="M142.56 518.486c-1.909 6.898-6.912 8.381-10.985 7.094-3.73-1.178-6.362-6.538-3.09-12.908 2.29-4.46 5.66-5.547 9.65-4.023 3.99 1.525 5.76 5.01 4.425 9.837"/>
            <path fill="#82AEF4" d="M134.33 443.27c5.869 5.895-4.782 25.343-15.608 26.56-10.826 1.217-20.993-4.237-21.677-12.482-.723-8.708 7.37-15.53 19.076-16.981 10.812-1.34 16.62 1.306 18.209 2.903"/>
            <path fill="#FFCFDF" d="M127.06 447.302c3.512 3.286-3.482 14.841-10.022 15.585-6.541.744-12.647-2.27-13.016-6.907-.39-4.899 4.53-8.782 11.603-9.663 6.533-.814 10.485.095 11.436.985"/>
            <path fill="#97BEF7" d="M175.84 471.02c4.839 23.52-5.947 43.702-23.315 45.736-20.455 2.396-37.391-13.068-39.326-36.492-1.842-22.3 9.193-41.914 28.549-44.092 17.377-1.955 29.582 12.922 34.092 34.847"/>
            <path fill="#FFCFDF" d="M175.61 473.465c1.743 11.768-2.266 23.386-13.89 24.469-9.384.874-18.377-6.98-19.589-20.142-1.076-11.696 4.52-22.958 15.2-22.79 9.422.147 16.536 6.695 18.28 18.463"/>
            <path fill="#423748" d="M137 454.5a2.5 2.5 0 1 1-5 0 2.5 2.5 0 0 1 5 0M146 499.5a2.5 2.5 0 1 1-5 0 2.5 2.5 0 0 1 5 0"/>
            <path fill="#FF7F58" d="M166.136 481a.919.919 0 0 1-.927-.87.915.915 0 0 1 .889-.944c.712-.029 1.645-.532 2.27-1.224.392-.434.843-1.133.77-1.995-.233-2.71-3.306-3.156-3.337-3.16a.91.91 0 0 1-.792-1.023.922.922 0 0 1 1.045-.774c1.582.213 4.648 1.492 4.932 4.806.1 1.17-.336 2.359-1.227 3.347-.962 1.066-2.37 1.787-3.584 1.836l-.04.001"/>
            <path fill="#423748" d="M148.138 473.27c-.1.858-.243 3.14-.02 5.461.097 1.024.875 1.477 1.862 1.179 1.51-.457 4.384-1.924 5.25-2.51.867-.586 1.155-1.879.05-2.569-.783-.487-4.005-2.3-5.338-2.751-.921-.312-1.706.333-1.804 1.19"/>
            <path fill="#FFAEAE" d="M213.748 543s-.34 6.08.87 13.548c1.016 6.258 2.105 14.108 2.676 21.82.652 8.787.58 11.35.314 13.518a4.185 4.185 0 0 1-1.84 3.023c-4.023 2.755-8.752 5.646-14.543 7.11-2.172.55-3.148.807-3.221 1.721-.074.914.977 2.636 5.103 3.075 3.815.406 21.571.037 23.381-.11 2.715-.22 4.018-1.647 3.8-4.393-.15-1.899-1.207-7.626-.687-11.643 1.013-7.835 2.823-17.281 3.257-22.406.594-7.008-.869-16.696-.869-16.696L213.748 543z"/>
            <path fill="#D8DDEA" d="M215.697 594c-4.234 2.962-9.21 6.07-15.304 7.645-2.285.59-3.312.867-3.39 1.85-.077.982 1.029 2.834 5.37 3.307 4.015.436 22.699.04 24.604-.119 2.856-.236 4.227-1.771 3.998-4.723-.074-.961-.359-2.837-.584-5-4.73 2.291-12.174-.354-14.694-2.96"/>
            <path fill="#FFAEAE" d="M168.598 517s-4.07 4.417-7.36 11.232c-2.758 5.71-6.369 12.764-10.325 19.405-4.509 7.566-6.04 9.62-7.503 11.237-.853.945-1.98 1.424-3.249 1.397-4.89-.096-10.44-.494-16.044-2.679-2.102-.818-3.185-1.35-3.771-.646-.585.704.344 2.748 2.64 4.947 2.798 2.68 15.653 11.631 21.107 14.534 1.859.99 2.275.745 3.466-1.1 1.033-1.598 4.384-7.264 7.117-10.245 5.332-5.815 11.883-12.819 15.543-16.42 6.178-6.082 7.781-15.024 7.781-15.024L168.598 517z"/>
            <path fill="#D8DDEA" d="M139.936 559.755c-5.079-.11-10.808-.547-16.596-2.751-2.216-.844-3.358-1.392-3.975-.666-.617.725-.692 2.831 1.728 5.097 2.95 2.76 16.502 11.983 22.25 14.974 1.96 1.02 4.508.768 5.763-1.133.749-1.131 2.153-4.244 3.894-7.077-6.154.044-12.21-2.583-13.064-8.444"/>
            <path fill="#E09595" d="M210.448 430.105L210 439l13-6.416-.448-7.584z"/>
            <path fill="#FFF" d="M194.081 467s-.549-2.834 1.208-6.515c1.281-2.683 3.75-9.981 6.755-14.632 1.213-1.878 3.544-4.675 6.095-6.405 4.723-3.203 15.907-8.448 15.907-8.448l3.954 7.803L194.081 467z"/>
            <path fill="#423748" d="M194.531 392c-.542 0-2.365 5.228-1.083 7.887C195.208 403.54 199 405 199 405l-.136-10.663-4.333-2.337z"/>
        </g>
        <g transform="translate(198 391)">
            <mask id="aG" fill="#fff">
                <use xlink:href="#aE"/>
            </mask>
            <path fill="url(#aF)" d="M8.62 38.777c7.876 1.736 20.42-7.234 20.42-7.234L34 7.813.16 0s-2.042 36.463 8.46 38.777" mask="url(#aG)"/>
        </g>
        <g>
            <path fill="#FFAEAE" d="M198 394v5.408l9 4.592v-5.259z"/>
            <path fill="#423748" d="M201.037 396s-.662 7.23 3.603 10.392c3.529 2.616 6.323.145 8.088 1.453 1.34.995-1.03 7.122 3.529 7.848 0 0 1.617-6.104 5.44-6.83 1.596-.304 3.98.972 3.676 3.778-.44 4.07-3.494 6.486-4.411 9.884-1.765 6.54-.882 11.48 5 15.332 4.896 3.207 8.382 5.669 9.485 13.953 1.103 8.284.44 17.004.44 17.004s11.544 2.253 16.396-8.938c3.1-7.145-.094-11.61 0-14.243.075-2.035 3.22-4.343 2.647-10.755-.44-4.941-3.823-6.54-4.264-8.865-.356-1.88 1.176-4.07.441-7.994-.79-4.223-6.617-7.413-6.617-7.413L201.037 396z"/>
            <path fill="#FFEDA6" d="M268.952 420.364c-1.171 2.744-23.677-3.608-49.607-14.873-25.931-11.266-45.467-23.178-44.295-25.921 1.17-2.744 22.605 4.72 48.536 15.984 25.93 11.265 46.537 22.066 45.366 24.81"/>
            <path fill="#FFEDA6" d="M199 386.141L245.142 406c5.189-12.153-.858-26.394-13.56-31.861-12.7-5.467-27.255-.093-32.582 12.002"/>
            <path fill="#FFF" d="M197.161 386.836a1.584 1.584 0 0 0 .547 2.02c2.383 1.562 8.991 5.452 23.722 11.575 11.777 4.896 19.711 6.887 22.67 7.531a1.597 1.597 0 0 0 1.829-.951c.935-2.31 2.685-7.667 1.852-13.83a1.825 1.825 0 0 0-1.282-1.522c-2.843-.847-8.813-2.612-18.914-6.665-10.393-4.17-16.982-8.316-19.107-9.738a1.52 1.52 0 0 0-1.643-.03c-1.84 1.121-6.178 4.364-9.674 11.61"/>
            <path fill="#EFC6A0" d="M168.672 428c-5.48 18.104-8.135 32.865-5.853 33.934 2.373 1.112 10.762-11.942 19.181-28.595.022-.043-13.314-5.386-13.328-5.339"/>
            <path fill="#FFCFDF" d="M188.978 420.34c.365 5.51-3.806 10.273-9.317 10.638-5.51.365-10.274-3.806-10.639-9.317-.365-5.51 3.807-10.274 9.317-10.639 5.511-.365 10.274 3.806 10.639 9.318"/>
            <path fill="#EFB881" d="M182.33 433.964l-14.007-5.58a.512.512 0 0 1-.286-.666l.965-2.396a.516.516 0 0 1 .668-.285l14.007 5.58a.511.511 0 0 1 .286.664l-.965 2.398a.517.517 0 0 1-.669.285"/>
            <path fill="#FFEDA6" d="M227.05 438.69c-3.71-2.414-18.991 1.17-28.16 16.093-9.167 14.923-9.604 20.63-13.096 32.48-2.004 6.8-3.142 11.78-5.021 15.362-.948 1.806-2.537 3.626-4.01 5.03-2.906 2.774-8.347 8.775-14.763 19.769 0 0 12.27 7.857 37.327 18.654 19.511 8.406 30.956 11.247 33.928 11.906.41.09.794-.21.81-.63.2-5.746 1.336-41.003-.466-51.876-1.965-11.85-.437-18.434-.218-23.262.218-4.829 2.619-9.4 2.619-19.752 0-10.534-.555-18.313-8.95-23.774"/>
            <path fill="#EAD592" d="M226.19 489.987c-2.402 3.643-7.426 5.594-12.23 2.944-3.08-1.698-6.99-5.337-10.048-10.306-1.166-1.896-2.912-.589-2.912-.589s2.321 14.169 5.824 19.14c2.093 2.97 25.24-2.955 25.227-4.122-.109-9.938 1.092-17.061 2.949-27.054 0 0-1.87 9.462-8.81 19.987"/>
            <path fill="#FF7E59" d="M238.727 521.276l-15.256 4.295c-6.035 1.7-12.307-1.804-14.01-7.823l-5.461-19.3L241.11 488l5.46 19.3c1.703 6.02-1.808 12.276-7.843 13.976"/>
            <path fill="#423748" d="M227 503.5a1.5 1.5 0 1 1-3 0 1.5 1.5 0 0 1 3 0"/>
            <path fill="#E86A46" d="M208 511.387L244.233 501l.767 2.643L208.177 512z"/>
            <path fill="#FF7E59" d="M204.518 499c-.328-1.158-7.67-22.703-7.516-40.986a67.087 67.087 0 0 1 2.6-6.014c-2.232 17.976 8.315 45.777 8.398 46.072l-3.482.928zM236.885 489L234 476.193l.912-5.193L240 488.048z"/>
            <path fill="#FFAEAE" d="M161.922 439.225c-1.779 4.484-1.922 9.22-1.922 10.2 0 1.303.412 3.31 1.099 4.233 1.632 2.196 5.473 5.724 7.134 6.62 2.416 1.302 3.928.694 4.392 1.049l18.004 22.138s5.27 7.85 12.149 2.894C210.29 480.947 218 472.47 218 472.47l-14.197-13.457-7.612 7.669-14.843-13.439a1.783 1.783 0 0 1-.537-1.763c.316-1.24.744-3.314.45-4.477-.44-1.737-3.285-6.638-3.285-6.638l-1.207 1.98c-.802 1.202-2.64 1.419-3.898.697l-5.902-3.334a2.212 2.212 0 0 1-1.057-2.489l.044-.164s-2.937-.597-4.034 2.17"/>
            <path fill="#FFF" d="M203.288 459.578l2.514-2.578s2.905 4.09 6.817 7.96c3.91 3.869 8.381 7.075 8.381 7.075l-2.705 2.675a.996.996 0 0 1-1.22.145c-1.222-.743-4.787-3.6-7.92-6.8-3.465-3.538-5.403-6.199-6.023-7.28a.998.998 0 0 1 .156-1.197"/>
            <path fill="#EAD592" d="M227.828 465.158l-2.384 5.495a5.857 5.857 0 0 1-4.648 3.03L217 474l9.978-9.711c.72-.701 1.332-.013.85.87M188 528.257l18.51-4.173c1.786-.41 3.078.756 2.217 1.892-1.577 2.083-5.5 3.45-8.978 3.857-6.908.807-11.749-1.576-11.749-1.576"/>
            <path fill="#E09595" d="M283.432 373s-.596 9.52-.388 12.673c.117 1.768.433 3.098 1.79 4.208 0 0 7.012 5.611 11.273 8.295 1.249.786 2.236.898 3.448.97l.05.002c1.118.066 1.863 1.05 2.616 1.874 3.096 3.391 18.1 20.712 25.514 27.015 3.332 2.833 6.242 3.889 9.82 2.041 5.29-2.732 10.445-13.952 10.445-13.952l-39.978-26.931L283.432 373z"/>
            <path fill="#E5A977" d="M286.04 368c-1.691 19.147-1.317 34.385 1.104 34.981 2.518.62 8.031-14.096 12.856-32.402.013-.048-13.956-2.628-13.96-2.578"/>
            <path fill="#E9EEFB" d="M301.603 355.684c4.477 6.414 2.288 10.476-3.302 11.952-5.592 1.474-11.376-1.66-12.92-7-1.543-5.34 1.737-10.864 7.328-12.339 5.59-1.474 5.677 2.778 8.894 7.387"/>
            <path fill="#EFB881" d="M300.902 369.992s-2.337.05-7.714-.802c-5.559-.88-7.756-1.76-7.756-1.76-.284-.046-.476-.3-.423-.56l.48-2.471c.05-.262.325-.439.61-.391 0 0 1.811.677 7.65 1.66 5.83.983 7.82.901 7.82.901.283.047.475.3.422.562l-.48 2.47c-.051.262-.325.439-.61.391"/>
            <path fill="#E09595" d="M301.243 375.972c-.401-1.211-1.73-1.837-3.013-1.848-4.405-.034-8.462-.942-12.114-2.767-3.136-1.568-3.942-1.537-4.469-1.095-.969.812-1.154 3.015 1.624 5.789 2.102 2.098 5.607 3.836 7.526 4.65 1.222.517 1.324 1.302 1.402 2.277.178 2.2.65 6.006 3.546 8.659 4.614 4.226 10.26 3.27 10.26 3.27s1.306-3.251 1.995-5.483c-4.205-5.387-6.757-13.452-6.757-13.452"/>
            <path fill="#E09595" d="M292.995 378.938c.087.706-.985 5.963-1.382 7.732-.334 1.487-1.602 2.372-2.864 2.328-1.024-.034-3.749-.244-3.749-.244l.687-13.754 7.308 3.938z"/>
            <path stroke="#C5CBD8" stroke-linecap="round" stroke-linejoin="round" d="M285.535 455.4s-3.502 11.21.072 14.263c2.682 2.292 4.856-2.217 4.711-8.498-.124-5.329-1.16-9.165-1.16-9.165s-3.329 18.829 1.088 19.955c2.608.665 3.26-6.135 2.391-11.086-.94-5.35-1.957-8.204-1.957-8.204"/>
            <path fill="#FFAEAE" d="M333.753 359l-.753-6.686L354.367 339 358 355.96z"/>
        </g>
        <g transform="translate(313 316)">
            <mask id="aJ" fill="#fff">
                <use xlink:href="#aH"/>
            </mask>
            <path fill="url(#aI)" d="M1 4.746S.805 18.658 7.12 32.781c2.12 4.743 6.268 9.346 15.67 3.411L41 22.991 37.418 0 1 4.746z" mask="url(#aJ)"/>
        </g>
        <g>
            <path fill="#423748" d="M313.016 314c-2.588 1.46-3.151 7.419 1.125 9.89 5.107 2.954 7.107-2.159 12.38 1.462 3.6 2.473.9 8.767 6.977 8.093 2.858-.317 7.005-6.684 7.202-4.271.563 6.856 3.94 10.34 8.555 12.588 2.948 1.437 5.532 1.424 6.245.956 0 0-.17-2.698 1.688-3.99 2.438-1.697 1.002-4.832 2.757-6.745 1.238-1.348 2.869-2.653 3.038-5.956.225-4.385-1.912-6.632-1.912-6.632s-44.116-4.945-48.055-5.395"/>
            <path fill="#E86A46" d="M319.824 316s-5.76-.494-11.173-1.13c-7.247-.855-9.11-1.328-9.11-1.328-1.941-.39-2.584-1.46-2.539-2.106.046-.644.598-.466 2.912-.156 2.029.273 6.198.703 9.185 1.014 2.986.312 10.901 1.17 10.901 1.17l-.176 2.536z"/>
            <path fill="#FF7E59" d="M360.494 319.998a.46.46 0 0 0 .502-.512c-1.49-11.102-9.223-20.206-20.967-21.356-11.976-1.172-25.8 5.648-28.029 17.211l48.494 4.657z"/>
            <path fill="#FF7E59" d="M341.865 299l-3.865-.343.13-1.54c.057-.672.636-1.17 1.293-1.112l1.486.132c.657.058 1.143.65 1.087 1.324l-.13 1.539z"/>
            <path fill="#FFAEAE" d="M340.518 332.29c-1.134 3.344-4.167 5.25-6.095 4.575-1.929-.675-1.458-3.473-1.091-6.986.416-3.985 2.653-6.443 4.582-5.768 1.929.675 4.061 3.88 2.604 8.18"/>
            <path fill="#E9EEFB" d="M326 372s2.266-9.804 9.886-15.028c3.708-2.541 12.546-7.883 20.894-7.972.796-.009 2.026.605 2.625 1.636L363 356.53 326 372z"/>
            <path fill="#D8DDEA" d="M331.51 417.652L337.623 429l33.097-.597 3.28-64.205s-5.217-8.213-12.524-9.109c-5.068-.447-15.989.784-24.71 3.808-3.568 1.236-9.327 4.15-10.735 9.966-1.789 7.392-5.031 21.503-5.031 21.503l10.51 27.286z"/>
            <path fill="#C5CBD8" d="M346.621 407L348 381.924 344.952 379 339 401.517z"/>
            <path fill="#E09595" d="M382 537.71s25.17 31.99 27.702 36.413c2.532 4.422 2.234 6.486 1.192 7.96L431 584s-3.426-4.128-6.256-12.678c-2.829-8.551-8.074-28.224-11.915-35.233-4.765-8.697-8.638-12.089-8.638-12.089L382 537.71z"/>
            <path fill="#C5CBD8" d="M421.454 561A533.193 533.193 0 0 0 405 568.126c2.05 2.75 3.554 4.85 4.086 5.772 2.606 4.523 2.3 6.633 1.226 8.142L431 584s-3.525-4.222-6.436-12.966c-.855-2.568-1.926-6.12-3.11-10.034"/>
            <path fill="#D8DDEA" d="M419.472 554c-3.737 2.072-13.258 6.812-18.472 9.098a598.624 598.624 0 0 1 4.577 5.902A539.01 539.01 0 0 1 422 562.053c-.8-2.584-1.653-5.33-2.528-8.053"/>
            <path fill="#82AEF4" d="M412.538 580.012c-1.215-.115-2.185.59-2.869 1.611-1.478 2.212-3.021 4.523-8.393 8.818-6.072 4.854-8.282 6.103-12.758 7.234-4.478 1.13-7.168 1.342-7.5 4.183-.223 1.92 1.568 4.294 5.82 4.746 4.253.453 13.43.679 18.355-.226 4.925-.904 21.153-5.652 24.735-6.895 3.58-1.243 6.043-4.183 4.7-7.573-.886-2.238-2.259-5.949-3.09-8.217a3.29 3.29 0 0 0-2.778-2.15l-16.222-1.53z"/>
            <path fill="#FFAEAE" d="M317.349 534s-3.119 42.276-4.158 46.586c-1.04 4.31-1.782 6.24-4.158 7.43 0 0-.89 6.167 6.534 8.544 7.424 2.377 12.026-5.647 12.026-5.647s-.296-3.121 1.336-8.321c1.634-5.201 7.871-17.089 11.73-27.788 3.86-10.699 1.783-16.717 1.783-16.717L317.349 534z"/>
            <path fill="#D8DDEA" d="M332 576.608c-5.972-1.49-11.803-3.147-17.615-4.608-.425 4.258-.801 7.448-1.056 8.477-1.074 4.338-1.84 6.283-4.295 7.48 0 0-.92 6.207 6.748 8.6 7.669 2.393 12.422-5.684 12.422-5.684s-.306-3.141 1.38-8.376c.477-1.48 1.342-3.511 2.416-5.89"/>
            <path fill="#E9EEFB" d="M335 569.734c-5.425-.266-17.702-3.518-20.337-4.734a796.857 796.857 0 0 1-.663 7.228c2.835 1.77 13.374 4.442 17.737 4.772.957-2.178 2.078-4.636 3.263-7.266"/>
            <path fill="#97BEF7" d="M279.985 590.84c-2.747-.147-5.42.072-5.903 2.85-.8 4.606 4.415 8.208 8.91 10.094 13.775 5.777 37.092 5.265 39.097 5.155 2.005-.11 6.173-.875 6.348-5.704.111-3.071.334-5.814 1.002-8.008.56-1.835 1.003-3.51-.221-4.279-1.226-.768-1.857.403-2.748 1.06-1.337.988-3.193 3.11-7.426 2.342-4.233-.768-4.567-2.742-5.16-4.644-.591-1.891-2.525-4.682-5.31-3.365-2.653 1.254-9.505 3.474-15.52 4.206-5.023.61-10.71.418-13.069.292"/>
            <path fill="#82AEF4" d="M354.875 501.6s5.97 15.56 11.179 20.164C371.42 526.51 381.108 540 381.108 540L406 523.395s-11.03-17.643-13.117-22.536c-2.087-4.892-4.024-17.79-5.514-24.462-1.492-6.672-4.62-10.823-4.323-14.085.298-3.261 2.087-14.678-2.236-20.312l-29.81.742 3.875 58.859z"/>
            <path fill="#97BEF7" d="M336.888 428.186s1.498 4.16.6 6.834c-.9 2.675-8.236 28.751-8.236 28.751s-2.112.146-3.144 3.306c-1.797 5.498-4.717 18.388-5.017 20.468-.3 2.08.749 3.974 2.62 4.829-1.535 5.051-4.388 14.763-4.904 19.427-.897 8.134-2.807 23.513-2.807 23.513L345.872 542s8.255-25.438 15.498-44.128c2.645-6.827 4.762-13.238 6.85-16.494 7.861-12.257 10.592-18.102 11.343-23.179 2.396-16.195-5.84-30.199-5.84-30.199l-36.835.186z"/>
            <path fill="#82AEF4" d="M359.016 444.496l.581 2.143c.063.231.296.384.547.358l12.4-1.26c.326-.034.535-.344.427-.636l-.687-1.78a.51.51 0 0 0-.526-.32l-12.295.898c-.312.027-.525.31-.447.597"/>
            <path fill="#C5CBD8" d="M350.275 427L338 409.899l1.33-2.899L359 427z"/>
            <path fill="#82AEF4" d="M345.229 541.955l-29.79-6.632c-.995-.222-1.619-1.193-1.393-2.17l.532-2.295c.137-.593.739-.965 1.344-.83l31.203 6.946c.604.135.984.725.847 1.32l-.531 2.293c-.226.977-1.217 1.59-2.212 1.368"/>
            <path fill="#73A0F9" d="M406.181 525.013l-25.158 16.683a1.824 1.824 0 0 1-2.53-.515l-1.309-1.98a1.113 1.113 0 0 1 .314-1.54l26.353-17.476a1.109 1.109 0 0 1 1.538.313l1.308 1.979a1.833 1.833 0 0 1-.516 2.536"/>
            <path fill="#C5CBD8" d="M337.303 429.692L332 420l7.785 7.403c.372.354.784.087.567-.384l-2.431-4.977c-.184-.34.021-.617.329-.388l5.41 3.737a4.484 4.484 0 0 0 4.647.07L352 430l-14.697-.308z"/>
            <path fill="#FFEDA6" d="M377 436h-40.278a.718.718 0 0 1-.722-.713v-6.574c0-.394.324-.713.722-.713H377v8z"/>
            <path fill="#FF7E59" d="M338 409.709s8.457 8.932 15.354 15.298C363.393 434.274 370 439 370 439l-5.87-26.864-7.281-.158a8.14 8.14 0 0 1-5.11-1.947L339.992 400 338 409.709z"/>
            <path fill="#E9EEFB" d="M343.982 400.204c-.36 1.322-6.244.96-13.138-.81-6.894-1.768-12.189-4.275-11.826-5.598.362-1.322 6.244-.96 13.138.81 6.894 1.768 12.189 4.276 11.826 5.598"/>
            <path fill="#97BEF7" d="M349 437h-3v-9.536c0-.257.193-.464.432-.464h2.136c.239 0 .432.207.432.464V437z"/>
            <path fill="#D8DDEA" d="M344.146 394l1.623-6.433a13.288 13.288 0 0 1 3.289-5.934l.942-.985-7.092-2.648L333 390.8l11.146 3.2z"/>
            <path fill="#FFAEAE" d="M334.65 389.956c-4.877-2.274-12.472.223-12.472.223s-4.446 16.698-5.568 20.48c-1.782 6.01-5.814 7.082-13.66 15.36-5.345 5.64-9.25 8.589-12.174 10.982-1.486 1.485-8.07 2.056-10.469 2.82-1.474.468-3.451 1.224-4.565 6.344-1.448 6.656-.532 9.487.668 10.685 2.005 2.004 5.79 2.784 7.906 3.117 1.814.286 2.673-1.336 2.673-2.894v-3.005s5.011-.89 6.793-3.34c.438-.602.788-1.354 1.067-2.145a2.561 2.561 0 0 1 1.27-1.455c7.498-3.717 21.769-11.075 32.741-18.438 6-4.026 6.458-7.346 7.795-11.576C337.99 412.885 342 397.08 342 397.08s-.67-4.007-7.35-7.124"/>
            <path fill="#E86A46" d="M362 355.622s5.042 3.203 7.38 8.027L381 369s-7.49-10.702-12.788-12.775c-.705-.275-2.688-1.101-3.763-1.207a3.79 3.79 0 0 0-2.449.604"/>
            <path fill="#E9EEFB" d="M319.024 392.84a.75.75 0 0 0 .894.914c2.035-.44 6.475-1.033 12.006.424 5.932 1.562 9.122 4.22 10.466 5.618a.654.654 0 0 0 1.105-.275l1.451-5.404a1.595 1.595 0 0 0-.308-1.421c-1.01-1.244-3.774-3.837-10.16-5.535-7.538-2.005-11.662-.925-13.203-.354a1.34 1.34 0 0 0-.835.93l-1.416 5.103z"/>
            <path fill="#423748" d="M354.203 313.56s-2.783-7.367.117-6.487c2.9.88 4.68 6.927 4.68 6.927l-4.797-.44z"/>
            <path fill="#FF7E59" d="M357.26 372.73c-.895 6.261.56 39.461 3.695 53.993 1.633 7.573 7.795 18.814 28.095 17.102 11.972-1.008 16.015-7.752 16.79-14.196 1.119-9.315-3.933-16.041-5.038-18.557-2.014-4.583-7.126-22.728-12.05-32.342-4.926-9.614-9.105-15.948-18.059-15.724-9.554.238-12.536 3.465-13.432 9.725"/>
            <path fill="#FF7E59" d="M357.852 379s-13.46-13.235-20.447-15.717c-4.825-1.713-7.503-.075-8.827 1.429 0 0-1.25-.978-.073-2.482 1.177-1.504 2.574-2.331 4.634-3.384 2.06-1.053 7.208-1.654 14.71 1.504 7.501 3.158 15.151 8.874 15.151 8.874L357.852 379z"/>
            <path fill="#E86A46" d="M400.559 407s-9.612.026-13.349.343c-2.428.207-4.02.413-5.613 1.1-1.174.506-1.836 1.595-1.517 2.403.319.81 1.429 1.33 2.502 1.099 1.594-.344 3.035-.48 5.387-.687 3.4-.298 14.031-.618 14.031-.618l-1.441-3.64zM369.07 365.6l1.66 2.36a2.474 2.474 0 0 0 2.045 1.04l6.833-.057c.323-.003.507-.363.312-.615l-1.843-2.379a2.478 2.478 0 0 0-1.959-.949h-6.724c-.317 0-.503.345-.325.6"/>
            <path fill="#82AEF4" d="M347.394 491.778l4.478-20.229c.662-2.792-1.322-5.52-4.226-5.813L329.185 464s-2.105.144-3.135 3.261c-1.79 5.424-4.702 18.14-5 20.193-.299 2.052.746 3.92 2.612 4.764-.034.111 17.078 3.642 17.078 3.642 2.984.674 5.96-1.153 6.654-4.082"/>
            <path stroke="#C5CBD8" stroke-linecap="round" stroke-linejoin="round" d="M286 456s-.626 2.815-1 5"/>
            <path fill="#FF5757" d="M507.555 287.574c12.483 16.383 11.848 39.453-6.757 53.575-18.604 14.122-50.582 12.84-60.615-2.434-11.305-17.214-3.196-42.769 15.409-56.89 18.604-14.123 39.48-10.632 51.963 5.75"/>
            <path stroke="#D8DDEA" stroke-linecap="round" stroke-linejoin="round" d="M456 317c-36.25 33.819-118.54 92.567-166 120M438 342.861S357.78 403.325 289 438c0 0 78.835-50.556 120.584-110"/>
            <path fill="#4771DD" d="M408.867 325l-3.665 2.798c-.491.562-.024 1.227.722 1.127.733-.1 1.414-.22 2.046-.312 1.203-.177 1.922.122 2.371 1.327.197.532.395 1.099.521 1.417.321.812 1.314.876 1.652.07l.486-3.664s-1.365-.726-2.174-1.258c-.759-.499-1.959-1.505-1.959-1.505"/>
            <path fill="#E9EEFB" d="M459 316.39l-2.17 4.082c-.344.768-1.252.663-1.359-.086-.108-.77-.117-1.016-.177-1.667-.068-.754-.448-.934-1.165-.906-.41.016-.876.062-1.492.088-.537.023-.857-.576-.46-.955l4.456-2.946 2.367 2.39z"/>
            <path fill="#FF5757" d="M439.816 338.215s-2.22-.485-4.16.002c-.965.243-.735 1.043-.144 1.234l1.312.57c.565.245.992.668.355 1.24l-1.834 1.662c-.308.34-.12.903.544.989l3.23-.05c.607 0 1.178.215 1.446.745l.557 1.044c.31.528.737.386 1.034.042.666-.772.844-3.634.844-3.634s-.265-.147-1.538-1.598c-1.13-1.286-1.646-2.246-1.646-2.246"/>
            <path fill="#E9EEFB" d="M540.827 279.634c-2.852-10.643-10.304-18.797-20.932-22.49a11.464 11.464 0 0 1-7.036-7.038c-3.693-10.629-11.848-18.082-22.489-20.933-18.413-4.935-37.278 5.764-44.006 30.875-4.793 17.89-2.128 38.263 6.458 50.288.037.053 2.862 4.02 6.85 6.849 12.05 8.55 32.393 11.253 50.282 6.46 25.11-6.73 35.807-25.597 30.873-44.011"/>
            <path fill="#4771DD" d="M465.823 300.164c-11.848 22.097-39.26 36.24-54.522 26.929-13.76-8.396-16.783-36.163-4.936-58.26 11.847-22.097 32.38-30.061 48.8-21.409 16.418 8.652 22.505 30.643 10.658 52.74"/>
        </g>
    </g>
</svg>
