<?xml version="1.0" encoding="UTF-8"?>
<svg width="571px" height="587px" viewBox="0 0 571 587" version="1.1" xmlns="http://www.w3.org/2000/svg" xmlns:xlink="http://www.w3.org/1999/xlink">
    <!-- Generator: Sketch 51.3 (57544) - http://www.bohemiancoding.com/sketch -->
    <title>Вклад универсальный</title>
    <desc>Created with Sketch.</desc>
    <defs>
        <path d="M0.599,27.961 C0.599,43.057 11.187,53.719 22.766,54.379 C33.016,54.961 35.599,46.461 36.516,29.044 C37.654,7.407 37.433,1.545 22.766,0.961 C22.555,0.952 22.347,0.948 22.138,0.948 C10.798,0.949 0.599,13.139 0.599,27.961" id="path-1"></path>
        <radialGradient cx="196.791663%" cy="161.519337%" fx="196.791663%" fy="161.519337%" r="237.562193%" gradientTransform="translate(1.967917,1.615193),scale(1.000000,0.679642),rotate(-133.122124),translate(-1.967917,-1.615193)" id="radialGradient-3">
            <stop stop-color="#FFE8E8" offset="0%"></stop>
            <stop stop-color="#FDACAC" offset="100%"></stop>
        </radialGradient>
        <polygon id="path-4" points="0.7539 0.4256 567.281 0.4256 567.281 65.9616 0.7539 65.9616"></polygon>
        <polygon id="path-6" points="0 587 570.281 587 570.281 0.568 0 0.568"></polygon>
    </defs>
    <g id="Частным" stroke="none" stroke-width="1" fill="none" fill-rule="evenodd">
        <g id="-Мобильный-банк.png-БКС-Платинум.png-Доходный-фунт.png-Кредит-Онлайн.png-Рефенансирование.png-Цифровой-Signature.png-Цифровой-Visa-Platinum.png-More-Signature.png-more-visa-platinum.png" transform="translate(-1676.000000, -6278.000000)">
            <g id="Вклад-универсальный" transform="translate(1578.000000, 6187.000000)">
                <rect id="Rectangle-8-Copy-6" fill-rule="nonzero" x="0" y="0" width="767" height="767"></rect>
                <g id="Group-460" transform="translate(98.000000, 90.000000)">
                    <g id="Group-47" transform="translate(0.000000, 0.432000)">
                        <path d="M11.5994,252.2946 L319.5994,252.2946 C326.0994,252.2946 334.5994,247.2946 329.0994,232.2946 C326.7054,225.7666 320.2384,222.4246 315.3014,220.7756 C311.6264,219.5496 308.7024,216.7186 307.3494,213.0876 C305.1764,207.2516 300.5314,198.6996 291.0994,193.7946 C284.8494,190.5446 279.0994,189.4196 274.9114,189.1066 C270.9354,188.8106 267.5684,186.0926 266.2934,182.3156 C264.1714,176.0326 259.8094,167.0096 251.3454,161.7966 C247.7594,159.5876 245.0084,156.2586 243.7294,152.2466 C241.0234,143.7516 237.2884,134.2216 220.5994,125.2946 C199.0994,113.7946 179.0994,112.2946 161.5994,118.2946 C147.8264,123.0166 137.0994,133.2946 132.0994,140.7946 C125.4194,150.8136 117.0994,156.2946 105.0994,152.2946 C92.9404,148.2416 81.5994,146.7946 66.5994,152.2946 C55.2954,156.4396 47.2084,166.9806 43.8714,172.2526 C42.2754,174.7736 40.1804,176.9316 37.7424,178.6526 C32.7514,182.1766 24.0504,189.9856 18.5994,204.2946 C16.3424,210.2196 15.3564,215.5936 14.9274,219.2756 C14.5814,222.2406 12.7974,224.8246 10.1474,226.2006 C5.5354,228.5966 -0.8756,233.3236 0.0994,240.7946 C1.4634,251.2536 11.5994,252.2946 11.5994,252.2946" id="Fill-1" fill="#E1E5F3"></path>
                        <path d="M451.7659,143.7946 C444.4399,139.3986 435.2659,136.7946 432.7659,127.7946 C430.2659,118.7946 433.7659,112.7946 429.7659,100.2946 C425.5209,87.0286 413.2659,72.7946 405.7659,67.2946 C395.8079,59.9916 376.2659,39.2946 337.2659,47.7946 C331.0859,49.1416 324.7659,50.2946 316.7659,45.7946 C308.7659,41.2946 301.2659,25.2946 285.2659,13.7946 C273.6329,5.4336 260.7659,-0.7054 237.7659,0.7946 C212.7389,2.4266 204.7659,6.7946 195.2659,15.2946 C185.7659,23.7946 180.7659,38.7946 162.7659,43.2946 C144.7659,47.7946 128.9419,53.5346 117.7659,67.7946 C103.2659,86.2946 106.7659,101.2946 101.7659,110.2946 C96.7659,119.2946 85.7659,121.2946 79.2659,138.2946 C77.8499,141.9976 77.0029,145.8116 76.7499,149.4996 C87.0429,147.6426 95.8369,149.2076 105.0989,152.2946 C117.0989,156.2946 125.4199,150.8136 132.0989,140.7946 C137.0989,133.2946 147.8259,123.0166 161.5989,118.2946 C179.0989,112.2946 199.0999,113.7946 220.5999,125.2946 C237.2889,134.2216 241.0229,143.7516 243.7299,152.2466 C245.0079,156.2586 247.7599,159.5876 251.3449,161.7966 C256.2019,164.7876 259.7019,169.0326 262.2089,173.2946 L448.7659,173.2946 C448.7659,173.2946 459.7659,173.2946 461.2659,165.7946 C462.7659,158.2946 459.2659,148.2946 451.7659,143.7946" id="Fill-3" fill="#E1E5F3"></path>
                        <path d="M335.8489,305.8776 L332.9389,310.4646 C331.3179,313.0196 328.5429,314.6126 325.5199,314.7266 L311.8579,315.2396 C309.5409,315.3266 307.3169,314.3296 305.8399,312.5426 L302.0529,307.9576 L301.8489,307.7116 L335.8489,305.8776 Z" id="Fill-5" fill="#E09595"></path>
                        <path d="M287.0989,309.1276 C203.8429,309.1276 131.3739,287.6886 85.2419,269.7026 C35.2169,250.2006 5.2969,230.9666 4.0479,230.1576 L9.4829,221.7636 C9.7829,221.9576 39.9839,241.3526 89.1359,260.4876 C134.4129,278.1156 205.5119,299.1276 287.0989,299.1276 C366.7419,299.1276 437.9999,278.0566 483.7559,260.3796 C533.3169,241.2336 564.2999,221.9196 564.6079,221.7266 L569.9239,230.1956 C568.6369,231.0036 537.8119,250.2176 487.3599,269.7086 C440.8109,287.6906 368.2829,309.1276 287.0989,309.1276" id="Fill-7" fill="#A4B1DD"></path>
                        <path d="M295.4329,284.2946 C295.4329,284.2946 311.5599,284.8736 314.4119,285.1676 C317.2659,285.4616 319.7659,286.1276 321.9329,287.6276 C324.0989,289.1276 329.0989,292.2946 329.0989,292.2946 L293.5989,295.4616 L295.4329,284.2946 Z" id="Fill-9" fill="#FFAEAE"></path>
                        <path d="M334.1409,547.5026 C334.1409,547.5026 340.6409,557.1696 344.0159,559.1696 C346.3499,560.5526 363.4349,538.6216 358.3909,539.1696 C356.0269,539.4266 353.7459,538.9456 352.2339,537.1576 L350.9739,535.6696 L334.1409,547.5026 Z" id="Fill-11" fill="#FFAEAE"></path>
                        <path d="M294.0989,302.1276 C294.0989,302.6276 298.7659,308.1276 304.2659,309.2946 C309.7659,310.4616 311.5989,309.2946 315.9329,311.4616 C320.2659,313.6276 320.5989,314.7946 322.7659,314.7946 C324.2659,314.7946 326.2659,311.2946 322.9329,307.7946 C320.4019,305.1366 318.2659,305.6276 316.2659,304.1276 C314.2659,302.6276 310.7659,298.7946 310.7659,298.7946 L294.0989,302.1276 Z" id="Fill-13" fill="#FFAEAE"></path>
                        <path d="M389.7659,526.7946 C385.1499,529.1216 379.2549,532.7226 372.2659,534.7946 C368.6319,535.8716 361.2339,538.6016 356.6919,539.1326 C354.2749,541.1516 352.5539,547.7236 349.0159,550.5446 C345.4779,553.3656 343.1099,550.7256 338.3909,553.5446 C341.2659,557.2946 346.2089,563.9166 347.4329,565.0356 C349.9809,567.3666 355.0829,567.7696 359.5159,565.2946 C363.9489,562.8196 372.2869,555.9796 380.0989,548.9616 C388.4309,541.4766 393.0439,535.5796 394.5159,533.0446 C396.9809,528.7986 394.4249,524.4456 389.7659,526.7946" id="Fill-15" fill="#2474CD"></path>
                        <path d="M94.7659,491.1276 C94.7659,491.1276 89.9329,496.4616 85.2239,499.5136 C81.3269,502.0396 87.0369,513.8796 100.0989,517.2946 C100.2059,514.4626 101.2659,513.2946 102.7659,511.7946 L105.9329,509.1276 L94.7659,491.1276 Z" id="Fill-17" fill="#FFAEAE"></path>
                        <path d="M113.4324,544.4616 C108.9754,539.1936 103.9964,536.2826 102.7654,532.1276 C101.4324,527.6276 101.5994,521.9616 100.2654,516.6276 C84.9324,510.1276 85.6664,507.0986 86.7654,498.2946 C83.0994,500.4616 79.8044,500.5296 77.4324,501.7946 C72.4324,504.4616 71.7574,508.5696 73.0994,513.1276 C74.0524,516.3646 81.4784,535.2856 82.9314,537.7236 C84.3854,540.1606 85.8844,542.7566 88.7654,544.6276 C91.6474,546.4986 101.1444,548.6196 105.3854,549.6146 C112.3894,551.2586 115.2654,546.6276 113.4324,544.4616" id="Fill-19" fill="#2474CD"></path>
                        <path d="M197.4324,336.2946 C197.4324,336.2946 188.8484,362.9206 181.7654,383.7946 C175.4324,402.4616 172.8494,416.1076 166.1824,422.2116 C159.0964,428.6986 149.4954,431.2696 132.7654,446.6276 C117.5154,460.6276 89.4054,495.2506 88.5024,496.9396 C89.4324,501.2946 94.5454,508.6176 102.2444,514.0096 C103.2084,514.6856 104.4504,514.6106 105.4324,513.9616 C126.0994,500.2946 154.3444,478.3876 171.7654,468.9616 C183.8994,462.3966 197.5794,456.0766 210.2654,438.7946 C214.7744,432.6516 221.0994,421.2346 238.4324,385.2946 L197.4324,336.2946 Z" id="Fill-21" fill="#2B2B51"></path>
                        <path d="M193.1409,308.9616 C193.1409,308.9616 188.4739,328.6106 196.4739,343.7786 C204.4739,358.9466 212.9069,359.1376 220.8079,369.2886 C231.8079,383.4236 250.4329,413.8386 256.7659,423.1466 C263.4799,433.0136 266.1369,447.9676 274.7659,467.9616 C288.4329,499.6276 324.4519,538.3786 332.2039,549.0986 C333.0199,550.2266 334.4699,550.6096 335.7179,550.0446 C340.6329,547.8186 349.8219,542.3976 352.6409,537.2946 C352.6409,537.2946 342.2659,514.7946 332.1409,492.2946 C321.6849,469.0606 312.4329,447.1056 311.0989,441.0716 C308.4329,429.0066 305.2209,416.2046 302.0989,408.3226 C287.4329,371.2946 259.4739,309.9956 259.4739,309.9956 L193.1409,308.9616 Z" id="Fill-23" fill="#42426C"></path>
                        <path d="M315.3909,176.2946 C315.3909,176.2946 312.8309,174.6716 314.2239,171.1276 C315.1409,168.7946 317.0159,164.7526 318.0159,162.6276 C318.9949,160.5486 320.5159,159.6276 322.5159,159.7946 L315.3909,176.2946 Z" id="Fill-25" fill="#FFAEAE"></path>
                        <path d="M313.9329,215.9611 C322.9329,203.1281 327.7659,196.1281 331.0989,190.7941 C332.0549,189.2661 332.9329,187.4611 333.2659,185.2941 C333.4519,184.0861 334.4389,177.6631 333.9329,174.9611 C333.4329,172.2941 329.3329,163.2511 328.7659,162.7941 L300.9329,209.2941 C300.9329,209.2941 310.1409,214.1691 313.9329,215.9611" id="Fill-27" fill="#FFAEAE"></path>
                        <path d="M311.0989,197.6281 L315.3079,199.7531 L333.4329,161.1281 C334.0159,159.7111 333.7659,158.7531 332.9329,158.3781 C332.1309,158.0171 330.9529,157.4821 330.9529,157.4821 C330.2889,157.4821 311.0989,197.6281 311.0989,197.6281" id="Fill-29" fill="#42426C"></path>
                        <path d="M306.5989,196.9611 L313.2029,199.2941 L331.4109,159.9611 C332.0359,158.5441 331.5249,157.4191 330.5539,157.4191 L324.5309,157.5201 C323.8669,157.5201 323.2609,157.9031 322.9779,158.5041 L305.8069,195.3401 C305.4919,196.0091 305.8769,196.7991 306.5989,196.9611" id="Fill-31" fill="#FF7E59"></path>
                        <path d="M305.8489,207.4196 C305.8489,207.4196 303.7239,198.4616 306.5989,191.9616 C308.7999,186.9846 311.9329,185.2946 314.0989,181.4616 C316.2659,177.6276 316.3179,173.7626 319.7659,170.5446 C321.6409,168.7946 323.6109,167.6216 325.3909,168.4196 C326.5989,168.9616 326.7659,170.1276 325.8909,172.0446 C324.9879,174.0226 323.7239,176.1906 322.8909,179.8576 C322.0579,183.5236 322.4139,191.1056 321.5159,194.0446 C320.1409,198.5446 319.0159,202.8366 315.0159,205.9616 C312.0609,208.2696 313.0159,211.4616 313.0159,211.4616 L305.8489,207.4196 Z" id="Fill-33" fill="#FFAEAE"></path>
                        <path d="M182.9324,176.1281 C182.9324,176.1281 173.5994,176.4611 166.5994,178.9611 C159.1024,181.6381 154.3914,184.0321 152.7654,190.1281 C151.4324,195.1281 148.0994,206.9611 148.0994,237.1281 C148.0994,270.4631 153.4324,291.7951 157.0994,296.2951 C160.7654,300.7951 169.7654,307.9611 190.7654,308.7951 C190.7654,308.7951 199.9324,284.4611 198.0994,262.2951 C196.2654,240.1281 195.0994,188.4611 195.0994,188.4611 L182.9324,176.1281 Z" id="Fill-35" fill="#42426C"></path>
                        <path d="M275.3909,273.5446 C275.3909,273.5446 281.2579,276.1136 285.0279,278.5556 C286.0139,279.1936 287.0499,279.7356 288.1409,280.1696 C290.8469,281.2466 292.8939,282.0736 294.8739,282.8776 C295.8969,283.2926 296.5169,284.3196 296.4309,285.4196 C296.2099,288.2286 295.4209,293.7396 292.5989,298.7946 L258.0989,296.9616 L262.4329,283.2946 L275.3909,273.5446 Z" id="Fill-37" fill="#23529D"></path>
                        <path d="M296.4309,285.4191 C296.5179,284.3201 295.8969,283.2931 294.8739,282.8771 C292.8939,282.0741 290.8469,281.2471 288.1409,280.1691 C287.0499,279.7351 286.0139,279.1931 285.0279,278.5551 C284.9319,278.4941 284.8299,278.4321 284.7329,278.3701 C284.5159,285.5881 282.1639,292.0831 278.9959,298.0721 L292.5989,298.7941 C295.4209,293.7391 296.2099,288.2281 296.4309,285.4191" id="Fill-39" fill="#23478D"></path>
                        <path d="M210.7659,156.4611 C215.7659,158.2941 239.9329,168.7941 239.9329,168.7941 C239.9329,168.7941 239.9329,165.2941 240.4329,161.7941 C240.7859,159.3191 245.3909,159.6691 249.6409,159.3571 C248.1409,155.5241 234.7659,122.7941 234.7659,122.7941 L218.5989,124.1281 C218.5989,124.1281 216.4329,143.6281 210.7659,156.4611" id="Fill-41" fill="#FFAEAE"></path>
                        <path d="M477.2659,197.7946 C469.7659,197.7946 463.2779,191.2336 464.7659,183.2946 C467.7659,167.2946 483.7659,170.7946 487.2659,163.2946 C492.9399,151.1366 499.7719,145.9566 510.2659,146.2946 C525.7659,146.7946 530.2659,157.7946 533.7659,164.7946 C536.4959,170.2536 541.2659,173.7946 547.7659,176.7946 C554.2659,179.7946 556.2659,185.7946 555.2659,189.7946 C554.0529,194.6456 550.7659,198.2946 542.2659,198.2946 C533.7659,198.2946 484.7659,197.7946 477.2659,197.7946" id="Fill-43" fill="#E1E5F3"></path>
                        <path d="M191.7659,323.2946 C191.7659,323.2946 198.2619,326.4276 225.6409,326.0446 C243.5159,325.7946 257.1409,323.0446 263.5159,320.8566 C263.9419,320.7106 264.0779,319.7946 263.8279,319.2326 C263.1369,317.6766 261.9739,315.2946 261.2659,313.5026 C260.7719,312.2536 261.2449,311.6906 261.2449,311.6906 L190.9329,310.9616 L190.9449,310.9776 C191.5259,311.7256 191.8959,312.6326 191.9189,313.5796 C191.9309,314.0696 191.8799,314.5626 191.7659,315.0446 L190.8909,320.7946 C190.8909,320.7946 190.6409,322.4196 191.7659,323.2946" id="Fill-45" fill="#245EAD"></path>
                    </g>
                    <g id="Group-50" transform="translate(225.000000, 105.432000)">
                        <mask id="mask-2" fill="white">
                            <use xlink:href="#path-1"></use>
                        </mask>
                        <g id="Clip-49"></g>
                        <path d="M0.599,27.961 C0.599,43.057 11.187,53.719 22.766,54.379 C33.016,54.961 35.599,46.461 36.516,29.044 C37.654,7.407 37.433,1.545 22.766,0.961 C22.555,0.952 22.347,0.948 22.138,0.948 C10.798,0.949 0.599,13.139 0.599,27.961" id="Fill-48" fill="url(#radialGradient-3)" mask="url(#mask-2)"></path>
                    </g>
                    <g id="Group-459" transform="translate(0.000000, 0.432000)">
                        <path d="M232.2659,134.6281 C232.2659,134.6281 234.5989,135.1281 236.2659,133.1281 C237.9329,131.1281 238.2659,127.7951 237.4329,125.2951 C236.7009,123.0981 234.4329,119.9611 235.5989,119.1281 C236.7659,118.2951 239.5989,120.1281 241.5989,117.4611 C243.5989,114.7951 242.0989,113.7951 242.9329,113.1281 C243.7659,112.4611 246.7659,114.6281 254.0959,114.5591 C255.1489,114.5491 256.1839,114.7551 257.1419,115.1931 C258.2129,115.6831 259.7659,116.2221 261.2659,116.1281 C263.4349,115.9921 266.4319,112.4611 267.4319,108.4611 C268.4469,104.4061 266.7659,100.7951 264.0989,99.7951 C262.3829,99.1511 258.8439,99.8011 256.4319,98.4611 C253.4329,96.7951 252.4329,94.2951 246.9329,92.2951 C242.0269,90.5101 237.9329,90.7951 233.2659,90.2951 C228.5989,89.7951 226.2659,88.9611 222.2659,90.1281 C218.5439,91.2131 215.4359,93.2521 213.0989,98.6281 C211.4329,102.4611 212.3829,105.9901 212.2659,107.6281 C212.0989,109.9611 210.2659,110.2951 209.5989,112.7951 C208.9199,115.3411 209.2659,117.1281 208.5989,118.7951 C207.9329,120.4611 207.2659,122.6281 207.9329,125.6281 C208.6869,129.0251 210.9329,129.4611 211.0989,130.9611 C211.2659,132.4611 210.7659,133.9611 212.0989,136.1281 C213.7799,138.8581 216.1299,141.2571 219.5989,140.7951 C222.0989,140.4611 223.5989,132.6281 223.5989,132.6281 L232.2659,134.6281 Z" id="Fill-51" fill="#423748"></path>
                        <path d="M232.2659,132.6281 C233.5029,137.2041 233.6399,139.6831 230.9329,140.4611 C228.2249,141.2391 224.7659,137.6281 222.9329,133.1281 C221.1439,128.7381 222.3669,126.3111 225.0989,125.6281 C227.0989,125.1281 230.5989,126.4611 232.2659,132.6281" id="Fill-53" fill="#FFAEAE"></path>
                        <path d="M208.9324,157.1281 L212.5464,148.9971 C212.7484,148.5411 213.3114,148.3761 213.7284,148.6491 L239.9834,165.8341 C240.2764,166.0251 240.5034,166.3011 240.6374,166.6251 L242.7654,171.7951 L208.9324,157.1281 Z" id="Fill-55" fill="#FF7E59"></path>
                        <path d="M189.8558,153.4743 C184.2458,161.2273 180.6478,174.9593 180.6478,174.9593 C179.8918,176.7243 180.8438,178.2123 181.9328,179.7943 L191.9328,195.9613 C191.9328,195.9613 189.5998,214.1283 191.2658,232.6283 C192.9328,251.1283 194.9328,257.4613 194.7658,264.6283 C194.5998,271.7943 189.2658,293.6283 189.2658,298.7943 C189.2658,303.9613 187.9328,309.6273 192.2658,311.9613 C196.5998,314.2943 208.9328,317.2943 230.4328,316.2943 C251.9328,315.2943 259.7658,312.2943 260.8908,311.9193 C262.0628,311.5293 263.1408,309.5443 263.3908,298.2943 C263.7068,284.1073 265.5998,233.4613 263.9328,220.7943 C262.2658,208.1283 259.0998,200.6283 254.0998,190.7943 C253.7658,190.2943 252.9328,188.6283 252.5998,186.1283 C252.2658,183.6283 252.3978,180.9843 252.0998,179.2943 C251.5998,176.4613 250.0998,174.9613 247.4328,173.4613 C246.2718,172.8083 235.7678,166.5343 223.7658,161.7943 C211.8598,157.0933 200.5978,153.5853 195.0998,152.1283 C193.5718,151.7233 191.4328,151.2943 189.8558,153.4743" id="Fill-57" fill="#2469BD"></path>
                        <path d="M188.7659,203.2946 L208.7659,182.2946 L238.7659,181.9616 C238.7659,181.9616 240.0939,181.3086 238.2659,179.4616 C236.5659,177.7426 231.9489,174.9056 225.7659,172.7946 C218.9329,170.4616 210.7659,170.6276 203.2659,174.4616 C196.8229,177.7546 181.5989,186.6276 181.5989,186.6276 L188.7659,203.2946 Z" id="Fill-59" fill="#42426C"></path>
                        <path d="M193.4324,256.9611 C193.4324,256.9611 195.0994,257.9611 198.5994,255.6281 C202.0994,253.2941 220.5994,236.6281 220.5994,236.6281 L227.4324,250.7941 L188.2654,296.4611 L193.4324,256.9611 Z" id="Fill-61" fill="#42426C"></path>
                        <path d="M214.7659,178.1281 C209.2659,180.4611 198.4329,188.1281 204.2659,207.9611 C211.3039,231.8891 236.2659,269.1281 247.5989,282.1281 C258.9319,295.1281 270.2659,283.9611 270.2659,283.9611 C270.2659,283.9611 282.0059,273.3481 294.5989,254.6281 C306.9329,236.2951 311.7659,228.9611 313.9329,223.1281 C314.8899,220.5511 319.7659,214.4611 318.4329,212.2951 C317.0989,210.1281 307.4329,203.7951 303.0989,202.7951 C301.6379,202.4571 297.2659,209.4611 296.0989,210.7951 C294.9329,212.1281 292.5989,212.4611 280.9319,224.7951 C269.2659,237.1281 266.9319,239.2951 266.9319,239.2951 C266.9319,239.2951 260.7479,226.4661 257.4319,215.1281 C252.2659,197.4611 248.7199,190.0621 240.2659,182.9611 C231.9329,175.9611 221.3539,175.3331 214.7659,178.1281" id="Fill-63" fill="#2474CD"></path>
                        <path d="M318.4329,212.2946 C317.0989,210.1276 307.4329,203.7946 303.0989,202.7946 C301.6689,202.4646 297.4639,209.1446 296.1889,210.6846 C300.9329,213.9616 308.9329,218.6276 314.0279,222.9056 C315.1549,220.2216 319.7309,214.4036 318.4329,212.2946" id="Fill-65" fill="#2469BD"></path>
                        <g id="Group-69" transform="translate(3.000000, 519.000000)">
                            <mask id="mask-5" fill="white">
                                <use xlink:href="#path-4"></use>
                            </mask>
                            <g id="Clip-68"></g>
                            <path d="M284.0989,65.9616 C198.7679,65.9616 126.3829,51.9196 80.6849,40.1406 C31.0449,27.3456 1.9669,14.6946 0.7539,14.1626 L6.7759,0.4256 C7.9309,0.9306 124.0619,50.9616 284.0989,50.9616 C444.3379,50.9616 560.0989,0.9336 561.2499,0.4276 L567.2819,14.1616 C566.0699,14.6936 537.0319,27.3446 487.4309,40.1406 C441.7709,51.9196 369.4309,65.9616 284.0989,65.9616" id="Fill-67" fill="#C5CBD8" mask="url(#mask-5)"></path>
                        </g>
                        <mask id="mask-7" fill="white">
                            <use xlink:href="#path-6"></use>
                        </mask>
                        <g id="Clip-71"></g>
                        <polygon id="Fill-70" fill="#2474CD" mask="url(#mask-7)" points="286.933 499.962 287.933 499.962 287.933 464.628 286.933 464.628"></polygon>
                        <polygon id="Fill-72" fill="#2474CD" mask="url(#mask-7)" points="290.136 498.84 291.136 498.84 291.136 463.506 290.136 463.506"></polygon>
                        <polygon id="Fill-73" fill="#2474CD" mask="url(#mask-7)" points="293.339 497.717 294.339 497.717 294.339 462.383 293.339 462.383"></polygon>
                        <polygon id="Fill-74" fill="#2474CD" mask="url(#mask-7)" points="296.542 496.595 297.542 496.595 297.542 461.261 296.542 461.261"></polygon>
                        <polygon id="Fill-75" fill="#2474CD" mask="url(#mask-7)" points="299.745 495.473 300.745 495.473 300.745 460.139 299.745 460.139"></polygon>
                        <polygon id="Fill-76" fill="#2474CD" mask="url(#mask-7)" points="302.949 494.352 303.949 494.352 303.949 459.018 302.949 459.018"></polygon>
                        <polygon id="Fill-77" fill="#2474CD" mask="url(#mask-7)" points="306.153 493.23 307.153 493.23 307.153 457.896 306.153 457.896"></polygon>
                        <polygon id="Fill-78" fill="#2474CD" mask="url(#mask-7)" points="309.356 492.108 310.356 492.108 310.356 456.774 309.356 456.774"></polygon>
                        <polygon id="Fill-79" fill="#2474CD" mask="url(#mask-7)" points="312.559 490.986 313.559 490.986 313.559 455.652 312.559 455.652"></polygon>
                        <polygon id="Fill-80" fill="#2474CD" mask="url(#mask-7)" points="315.762 489.864 316.762 489.864 316.762 454.53 315.762 454.53"></polygon>
                        <polygon id="Fill-81" fill="#2474CD" mask="url(#mask-7)" points="318.965 488.742 319.965 488.742 319.965 453.408 318.965 453.408"></polygon>
                        <polygon id="Fill-82" fill="#2474CD" mask="url(#mask-7)" points="322.168 487.62 323.168 487.62 323.168 452.286 322.168 452.286"></polygon>
                        <polygon id="Fill-83" fill="#2474CD" mask="url(#mask-7)" points="325.371 486.498 326.371 486.498 326.371 451.164 325.371 451.164"></polygon>
                        <polygon id="Fill-84" fill="#2474CD" mask="url(#mask-7)" points="328.575 485.377 329.575 485.377 329.575 450.043 328.575 450.043"></polygon>
                        <polygon id="Fill-85" fill="#2474CD" mask="url(#mask-7)" points="331.779 484.255 332.779 484.255 332.779 448.921 331.779 448.921"></polygon>
                        <polygon id="Fill-86" fill="#2474CD" mask="url(#mask-7)" points="334.982 483.132 335.982 483.132 335.982 447.798 334.982 447.798"></polygon>
                        <polygon id="Fill-87" fill="#2474CD" mask="url(#mask-7)" points="338.185 482.01 339.185 482.01 339.185 446.676 338.185 446.676"></polygon>
                        <polygon id="Fill-88" fill="#2474CD" mask="url(#mask-7)" points="341.388 480.888 342.388 480.888 342.388 445.554 341.388 445.554"></polygon>
                        <polygon id="Fill-89" fill="#2474CD" mask="url(#mask-7)" points="344.591 479.766 345.591 479.766 345.591 444.432 344.591 444.432"></polygon>
                        <polygon id="Fill-90" fill="#2474CD" mask="url(#mask-7)" points="347.794 478.644 348.794 478.644 348.794 443.31 347.794 443.31"></polygon>
                        <polygon id="Fill-91" fill="#2474CD" mask="url(#mask-7)" points="350.997 477.522 351.997 477.522 351.997 442.188 350.997 442.188"></polygon>
                        <polygon id="Fill-92" fill="#2474CD" mask="url(#mask-7)" points="354.201 476.401 355.201 476.401 355.201 441.067 354.201 441.067"></polygon>
                        <polygon id="Fill-93" fill="#2474CD" mask="url(#mask-7)" points="357.405 475.279 358.405 475.279 358.405 439.945 357.405 439.945"></polygon>
                        <polygon id="Fill-94" fill="#2474CD" mask="url(#mask-7)" points="360.608 474.157 361.608 474.157 361.608 438.823 360.608 438.823"></polygon>
                        <polygon id="Fill-95" fill="#2474CD" mask="url(#mask-7)" points="363.811 473.035 364.811 473.035 364.811 437.701 363.811 437.701"></polygon>
                        <polygon id="Fill-96" fill="#2474CD" mask="url(#mask-7)" points="367.014 471.913 368.014 471.913 368.014 436.579 367.014 436.579"></polygon>
                        <polygon id="Fill-97" fill="#2474CD" mask="url(#mask-7)" points="370.217 470.791 371.217 470.791 371.217 435.457 370.217 435.457"></polygon>
                        <polygon id="Fill-98" fill="#2474CD" mask="url(#mask-7)" points="373.42 469.669 374.42 469.669 374.42 434.335 373.42 434.335"></polygon>
                        <polygon id="Fill-99" fill="#2474CD" mask="url(#mask-7)" points="376.623 468.547 377.623 468.547 377.623 433.213 376.623 433.213"></polygon>
                        <polygon id="Fill-100" fill="#2474CD" mask="url(#mask-7)" points="379.827 467.425 380.827 467.425 380.827 432.091 379.827 432.091"></polygon>
                        <polygon id="Fill-101" fill="#2474CD" mask="url(#mask-7)" points="383.031 466.303 384.031 466.303 384.031 430.969 383.031 430.969"></polygon>
                        <polygon id="Fill-102" fill="#2474CD" mask="url(#mask-7)" points="386.234 465.181 387.234 465.181 387.234 429.847 386.234 429.847"></polygon>
                        <polygon id="Fill-103" fill="#2474CD" mask="url(#mask-7)" points="389.437 464.059 390.437 464.059 390.437 428.725 389.437 428.725"></polygon>
                        <polygon id="Fill-104" fill="#2474CD" mask="url(#mask-7)" points="392.64 462.937 393.64 462.937 393.64 427.603 392.64 427.603"></polygon>
                        <polygon id="Fill-105" fill="#2474CD" mask="url(#mask-7)" points="395.843 461.815 396.843 461.815 396.843 426.481 395.843 426.481"></polygon>
                        <polygon id="Fill-106" fill="#2474CD" mask="url(#mask-7)" points="399.046 460.693 400.046 460.693 400.046 425.359 399.046 425.359"></polygon>
                        <polygon id="Fill-107" fill="#2474CD" mask="url(#mask-7)" points="402.249 459.571 403.249 459.571 403.249 424.237 402.249 424.237"></polygon>
                        <polygon id="Fill-108" fill="#2474CD" mask="url(#mask-7)" points="405.453 458.45 406.453 458.45 406.453 423.116 405.453 423.116"></polygon>
                        <polygon id="Fill-109" fill="#2474CD" mask="url(#mask-7)" points="408.657 457.328 409.657 457.328 409.657 421.994 408.657 421.994"></polygon>
                        <polygon id="Fill-110" fill="#2474CD" mask="url(#mask-7)" points="411.86 456.206 412.86 456.206 412.86 420.872 411.86 420.872"></polygon>
                        <polygon id="Fill-111" fill="#2474CD" mask="url(#mask-7)" points="415.063 455.084 416.063 455.084 416.063 419.75 415.063 419.75"></polygon>
                        <polygon id="Fill-112" fill="#2474CD" mask="url(#mask-7)" points="418.266 453.962 419.266 453.962 419.266 418.628 418.266 418.628"></polygon>
                        <polygon id="Fill-113" fill="#2474CD" mask="url(#mask-7)" points="155.599 521.962 156.599 521.962 156.599 486.628 155.599 486.628"></polygon>
                        <polygon id="Fill-114" fill="#2474CD" mask="url(#mask-7)" points="158.811 521.384 159.811 521.384 159.811 486.05 158.811 486.05"></polygon>
                        <polygon id="Fill-115" fill="#2474CD" mask="url(#mask-7)" points="162.022 520.807 163.022 520.807 163.022 485.473 162.022 485.473"></polygon>
                        <polygon id="Fill-116" fill="#2474CD" mask="url(#mask-7)" points="165.234 520.23 166.234 520.23 166.234 484.896 165.234 484.896"></polygon>
                        <polygon id="Fill-117" fill="#2474CD" mask="url(#mask-7)" points="168.445 519.653 169.445 519.653 169.445 484.319 168.445 484.319"></polygon>
                        <polygon id="Fill-118" fill="#2474CD" mask="url(#mask-7)" points="171.657 519.076 172.657 519.076 172.657 483.742 171.657 483.742"></polygon>
                        <polygon id="Fill-119" fill="#2474CD" mask="url(#mask-7)" points="174.867 518.498 175.867 518.498 175.867 483.165 174.867 483.165"></polygon>
                        <polygon id="Fill-120" fill="#2474CD" mask="url(#mask-7)" points="178.079 517.921 179.079 517.921 179.079 482.587 178.079 482.587"></polygon>
                        <polygon id="Fill-121" fill="#2474CD" mask="url(#mask-7)" points="181.29 517.343 182.29 517.343 182.29 482.009 181.29 482.009"></polygon>
                        <polygon id="Fill-122" fill="#2474CD" mask="url(#mask-7)" points="184.502 516.766 185.502 516.766 185.502 481.432 184.502 481.432"></polygon>
                        <polygon id="Fill-123" fill="#2474CD" mask="url(#mask-7)" points="187.713 516.189 188.713 516.189 188.713 480.855 187.713 480.855"></polygon>
                        <polygon id="Fill-124" fill="#2474CD" mask="url(#mask-7)" points="190.925 515.612 191.925 515.612 191.925 480.278 190.925 480.278"></polygon>
                        <polygon id="Fill-125" fill="#2474CD" mask="url(#mask-7)" points="194.136 515.035 195.136 515.035 195.136 479.701 194.136 479.701"></polygon>
                        <polygon id="Fill-126" fill="#2474CD" mask="url(#mask-7)" points="197.347 514.458 198.347 514.458 198.347 479.124 197.347 479.124"></polygon>
                        <polygon id="Fill-127" fill="#2474CD" mask="url(#mask-7)" points="200.559 513.881 201.559 513.881 201.559 478.547 200.559 478.547"></polygon>
                        <polygon id="Fill-128" fill="#2474CD" mask="url(#mask-7)" points="203.77 513.303 204.77 513.303 204.77 477.969 203.77 477.969"></polygon>
                        <polygon id="Fill-129" fill="#2474CD" mask="url(#mask-7)" points="206.981 512.725 207.981 512.725 207.981 477.392 206.981 477.392"></polygon>
                        <polygon id="Fill-130" fill="#2474CD" mask="url(#mask-7)" points="210.193 512.148 211.193 512.148 211.193 476.815 210.193 476.815"></polygon>
                        <polygon id="Fill-131" fill="#2474CD" mask="url(#mask-7)" points="213.404 511.571 214.404 511.571 214.404 476.238 213.404 476.238"></polygon>
                        <polygon id="Fill-132" fill="#2474CD" mask="url(#mask-7)" points="216.616 510.994 217.616 510.994 217.616 475.661 216.616 475.661"></polygon>
                        <polygon id="Fill-133" fill="#2474CD" mask="url(#mask-7)" points="219.827 510.417 220.827 510.417 220.827 475.084 219.827 475.084"></polygon>
                        <polygon id="Fill-134" fill="#2474CD" mask="url(#mask-7)" points="223.038 509.84 224.038 509.84 224.038 474.506 223.038 474.506"></polygon>
                        <polygon id="Fill-135" fill="#2474CD" mask="url(#mask-7)" points="226.25 509.262 227.25 509.262 227.25 473.928 226.25 473.928"></polygon>
                        <polygon id="Fill-136" fill="#2474CD" mask="url(#mask-7)" points="229.461 508.685 230.461 508.685 230.461 473.351 229.461 473.351"></polygon>
                        <polygon id="Fill-137" fill="#2474CD" mask="url(#mask-7)" points="232.673 508.108 233.673 508.108 233.673 472.774 232.673 472.774"></polygon>
                        <polygon id="Fill-138" fill="#2474CD" mask="url(#mask-7)" points="235.884 507.531 236.884 507.531 236.884 472.197 235.884 472.197"></polygon>
                        <polygon id="Fill-139" fill="#2474CD" mask="url(#mask-7)" points="239.095 506.953 240.095 506.953 240.095 471.62 239.095 471.62"></polygon>
                        <polygon id="Fill-140" fill="#2474CD" mask="url(#mask-7)" points="242.306 506.376 243.306 506.376 243.306 471.043 242.306 471.043"></polygon>
                        <polygon id="Fill-141" fill="#2474CD" mask="url(#mask-7)" points="245.518 505.798 246.518 505.798 246.518 470.465 245.518 470.465"></polygon>
                        <polygon id="Fill-142" fill="#2474CD" mask="url(#mask-7)" points="248.729 505.221 249.729 505.221 249.729 469.888 248.729 469.888"></polygon>
                        <polygon id="Fill-143" fill="#2474CD" mask="url(#mask-7)" points="251.941 504.644 252.941 504.644 252.941 469.311 251.941 469.311"></polygon>
                        <polygon id="Fill-144" fill="#2474CD" mask="url(#mask-7)" points="255.152 504.067 256.152 504.067 256.152 468.734 255.152 468.734"></polygon>
                        <polygon id="Fill-145" fill="#2474CD" mask="url(#mask-7)" points="258.364 503.49 259.364 503.49 259.364 468.157 258.364 468.157"></polygon>
                        <polygon id="Fill-146" fill="#2474CD" mask="url(#mask-7)" points="261.575 502.913 262.575 502.913 262.575 467.58 261.575 467.58"></polygon>
                        <polygon id="Fill-147" fill="#2474CD" mask="url(#mask-7)" points="264.786 502.336 265.786 502.336 265.786 467.003 264.786 467.003"></polygon>
                        <polygon id="Fill-148" fill="#2474CD" mask="url(#mask-7)" points="267.998 501.758 268.998 501.758 268.998 466.424 267.998 466.424"></polygon>
                        <polygon id="Fill-149" fill="#2474CD" mask="url(#mask-7)" points="271.209 501.18 272.209 501.18 272.209 465.847 271.209 465.847"></polygon>
                        <polygon id="Fill-150" fill="#2474CD" mask="url(#mask-7)" points="274.42 500.603 275.42 500.603 275.42 465.27 274.42 465.27"></polygon>
                        <polygon id="Fill-151" fill="#2474CD" mask="url(#mask-7)" points="277.632 500.026 278.632 500.026 278.632 464.693 277.632 464.693"></polygon>
                        <polygon id="Fill-152" fill="#2474CD" mask="url(#mask-7)" points="280.843 499.449 281.843 499.449 281.843 464.116 280.843 464.116"></polygon>
                        <polygon id="Fill-153" fill="#2474CD" mask="url(#mask-7)" points="284.054 498.872 285.054 498.872 285.054 463.539 284.054 463.539"></polygon>
                        <polygon id="Fill-154" fill="#2474CD" mask="url(#mask-7)" points="287.266 498.295 288.266 498.295 288.266 462.962 287.266 462.962"></polygon>
                        <polygon id="Fill-155" fill="#2474CD" mask="url(#mask-7)" points="23.932 522.295 24.932 522.295 24.932 486.962 23.932 486.962"></polygon>
                        <polygon id="Fill-156" fill="#2474CD" mask="url(#mask-7)" points="27.119 522.278 28.119 522.278 28.119 486.945 27.119 486.945"></polygon>
                        <polygon id="Fill-157" fill="#2474CD" mask="url(#mask-7)" points="30.306 522.262 31.306 522.262 31.306 486.929 30.306 486.929"></polygon>
                        <polygon id="Fill-158" fill="#2474CD" mask="url(#mask-7)" points="33.493 522.246 34.493 522.246 34.493 486.913 33.493 486.913"></polygon>
                        <polygon id="Fill-159" fill="#2474CD" mask="url(#mask-7)" points="36.68 522.229 37.68 522.229 37.68 486.896 36.68 486.896"></polygon>
                        <polygon id="Fill-160" fill="#2474CD" mask="url(#mask-7)" points="39.867 522.214 40.867 522.214 40.867 486.881 39.867 486.881"></polygon>
                        <polygon id="Fill-161" fill="#2474CD" mask="url(#mask-7)" points="43.054 522.197 44.054 522.197 44.054 486.864 43.054 486.864"></polygon>
                        <polygon id="Fill-162" fill="#2474CD" mask="url(#mask-7)" points="46.242 522.18 47.242 522.18 47.242 486.847 46.242 486.847"></polygon>
                        <polygon id="Fill-163" fill="#2474CD" mask="url(#mask-7)" points="49.429 522.165 50.429 522.165 50.429 486.832 49.429 486.832"></polygon>
                        <polygon id="Fill-164" fill="#2474CD" mask="url(#mask-7)" points="52.616 522.148 53.616 522.148 53.616 486.815 52.616 486.815"></polygon>
                        <polygon id="Fill-165" fill="#2474CD" mask="url(#mask-7)" points="55.803 522.132 56.803 522.132 56.803 486.799 55.803 486.799"></polygon>
                        <polygon id="Fill-166" fill="#2474CD" mask="url(#mask-7)" points="58.99 522.116 59.99 522.116 59.99 486.783 58.99 486.783"></polygon>
                        <polygon id="Fill-167" fill="#2474CD" mask="url(#mask-7)" points="62.177 522.099 63.177 522.099 63.177 486.766 62.177 486.766"></polygon>
                        <polygon id="Fill-168" fill="#2474CD" mask="url(#mask-7)" points="65.364 522.083 66.364 522.083 66.364 486.75 65.364 486.75"></polygon>
                        <polygon id="Fill-169" fill="#2474CD" mask="url(#mask-7)" points="68.551 522.067 69.551 522.067 69.551 486.734 68.551 486.734"></polygon>
                        <polygon id="Fill-170" fill="#2474CD" mask="url(#mask-7)" points="71.738 522.05 72.738 522.05 72.738 486.717 71.738 486.717"></polygon>
                        <polygon id="Fill-171" fill="#2474CD" mask="url(#mask-7)" points="74.925 522.034 75.925 522.034 75.925 486.701 74.925 486.701"></polygon>
                        <polygon id="Fill-172" fill="#2474CD" mask="url(#mask-7)" points="78.112 522.018 79.112 522.018 79.112 486.685 78.112 486.685"></polygon>
                        <polygon id="Fill-173" fill="#2474CD" mask="url(#mask-7)" points="81.299 522.002 82.299 522.002 82.299 486.669 81.299 486.669"></polygon>
                        <polygon id="Fill-174" fill="#2474CD" mask="url(#mask-7)" points="84.486 521.985 85.486 521.985 85.486 486.652 84.486 486.652"></polygon>
                        <polygon id="Fill-175" fill="#2474CD" mask="url(#mask-7)" points="87.673 521.969 88.673 521.969 88.673 486.636 87.673 486.636"></polygon>
                        <polygon id="Fill-176" fill="#2474CD" mask="url(#mask-7)" points="90.859 521.953 91.859 521.953 91.859 486.62 90.859 486.62"></polygon>
                        <polygon id="Fill-177" fill="#2474CD" mask="url(#mask-7)" points="94.046 521.937 95.046 521.937 95.046 486.604 94.046 486.604"></polygon>
                        <polygon id="Fill-178" fill="#2474CD" mask="url(#mask-7)" points="97.233 521.921 98.233 521.921 98.233 486.588 97.233 486.588"></polygon>
                        <polygon id="Fill-179" fill="#2474CD" mask="url(#mask-7)" points="100.42 521.904 101.42 521.904 101.42 486.571 100.42 486.571"></polygon>
                        <polygon id="Fill-180" fill="#2474CD" mask="url(#mask-7)" points="103.607 521.888 104.607 521.888 104.607 486.555 103.607 486.555"></polygon>
                        <polygon id="Fill-181" fill="#2474CD" mask="url(#mask-7)" points="106.794 521.872 107.794 521.872 107.794 486.539 106.794 486.539"></polygon>
                        <polygon id="Fill-182" fill="#2474CD" mask="url(#mask-7)" points="109.981 521.855 110.981 521.855 110.981 486.522 109.981 486.522"></polygon>
                        <polygon id="Fill-183" fill="#2474CD" mask="url(#mask-7)" points="113.168 521.84 114.168 521.84 114.168 486.507 113.168 486.507"></polygon>
                        <polygon id="Fill-184" fill="#2474CD" mask="url(#mask-7)" points="116.355 521.823 117.355 521.823 117.355 486.49 116.355 486.49"></polygon>
                        <polygon id="Fill-185" fill="#2474CD" mask="url(#mask-7)" points="119.542 521.806 120.542 521.806 120.542 486.473 119.542 486.473"></polygon>
                        <polygon id="Fill-186" fill="#2474CD" mask="url(#mask-7)" points="122.729 521.791 123.729 521.791 123.729 486.458 122.729 486.458"></polygon>
                        <polygon id="Fill-187" fill="#2474CD" mask="url(#mask-7)" points="125.916 521.774 126.916 521.774 126.916 486.441 125.916 486.441"></polygon>
                        <polygon id="Fill-188" fill="#2474CD" mask="url(#mask-7)" points="129.103 521.757 130.103 521.757 130.103 486.424 129.103 486.424"></polygon>
                        <polygon id="Fill-189" fill="#2474CD" mask="url(#mask-7)" points="132.29 521.742 133.29 521.742 133.29 486.409 132.29 486.409"></polygon>
                        <polygon id="Fill-190" fill="#2474CD" mask="url(#mask-7)" points="135.477 521.725 136.477 521.725 136.477 486.392 135.477 486.392"></polygon>
                        <polygon id="Fill-191" fill="#2474CD" mask="url(#mask-7)" points="138.664 521.709 139.664 521.709 139.664 486.376 138.664 486.376"></polygon>
                        <polygon id="Fill-192" fill="#2474CD" mask="url(#mask-7)" points="141.851 521.693 142.851 521.693 142.851 486.36 141.851 486.36"></polygon>
                        <polygon id="Fill-193" fill="#2474CD" mask="url(#mask-7)" points="145.038 521.676 146.038 521.676 146.038 486.343 145.038 486.343"></polygon>
                        <polygon id="Fill-194" fill="#2474CD" mask="url(#mask-7)" points="148.225 521.66 149.225 521.66 149.225 486.327 148.225 486.327"></polygon>
                        <polygon id="Fill-195" fill="#2474CD" mask="url(#mask-7)" points="151.412 521.644 152.412 521.644 152.412 486.311 151.412 486.311"></polygon>
                        <polygon id="Fill-196" fill="#2474CD" mask="url(#mask-7)" points="154.599 521.628 155.599 521.628 155.599 486.295 154.599 486.295"></polygon>
                        <polygon id="Fill-197" fill="#2474CD" mask="url(#mask-7)" points="418.266 454.295 419.266 454.295 419.266 418.962 418.266 418.962"></polygon>
                        <polygon id="Fill-198" fill="#2474CD" mask="url(#mask-7)" points="421.452 452.433 422.452 452.433 422.452 417.1 421.452 417.1"></polygon>
                        <polygon id="Fill-199" fill="#2474CD" mask="url(#mask-7)" points="424.64 450.571 425.64 450.571 425.64 415.238 424.64 415.238"></polygon>
                        <polygon id="Fill-200" fill="#2474CD" mask="url(#mask-7)" points="427.826 448.71 428.826 448.71 428.826 413.377 427.826 413.377"></polygon>
                        <polygon id="Fill-201" fill="#2474CD" mask="url(#mask-7)" points="431.014 446.847 432.014 446.847 432.014 411.514 431.014 411.514"></polygon>
                        <polygon id="Fill-202" fill="#2474CD" mask="url(#mask-7)" points="434.2 444.986 435.2 444.986 435.2 409.653 434.2 409.653"></polygon>
                        <polygon id="Fill-203" fill="#2474CD" mask="url(#mask-7)" points="437.388 443.124 438.388 443.124 438.388 407.791 437.388 407.791"></polygon>
                        <polygon id="Fill-204" fill="#2474CD" mask="url(#mask-7)" points="440.574 441.262 441.574 441.262 441.574 405.929 440.574 405.929"></polygon>
                        <polygon id="Fill-205" fill="#2474CD" mask="url(#mask-7)" points="443.762 439.4 444.762 439.4 444.762 404.067 443.762 404.067"></polygon>
                        <polygon id="Fill-206" fill="#2474CD" mask="url(#mask-7)" points="446.949 437.539 447.949 437.539 447.949 402.206 446.949 402.206"></polygon>
                        <polygon id="Fill-207" fill="#2474CD" mask="url(#mask-7)" points="450.136 435.676 451.136 435.676 451.136 400.343 450.136 400.343"></polygon>
                        <polygon id="Fill-208" fill="#2474CD" mask="url(#mask-7)" points="453.323 433.815 454.323 433.815 454.323 398.482 453.323 398.482"></polygon>
                        <polygon id="Fill-209" fill="#2474CD" mask="url(#mask-7)" points="456.51 431.953 457.51 431.953 457.51 396.62 456.51 396.62"></polygon>
                        <polygon id="Fill-210" fill="#2474CD" mask="url(#mask-7)" points="459.697 430.091 460.697 430.091 460.697 394.758 459.697 394.758"></polygon>
                        <polygon id="Fill-211" fill="#2474CD" mask="url(#mask-7)" points="462.884 428.23 463.884 428.23 463.884 392.896 462.884 392.896"></polygon>
                        <polygon id="Fill-212" fill="#2474CD" mask="url(#mask-7)" points="466.071 426.368 467.071 426.368 467.071 391.035 466.071 391.035"></polygon>
                        <polygon id="Fill-213" fill="#2474CD" mask="url(#mask-7)" points="469.258 424.507 470.258 424.507 470.258 389.173 469.258 389.173"></polygon>
                        <polygon id="Fill-214" fill="#2474CD" mask="url(#mask-7)" points="472.445 422.644 473.445 422.644 473.445 387.311 472.445 387.311"></polygon>
                        <polygon id="Fill-215" fill="#2474CD" mask="url(#mask-7)" points="475.632 420.783 476.632 420.783 476.632 385.449 475.632 385.449"></polygon>
                        <polygon id="Fill-216" fill="#2474CD" mask="url(#mask-7)" points="478.819 418.921 479.819 418.921 479.819 383.588 478.819 383.588"></polygon>
                        <polygon id="Fill-217" fill="#2474CD" mask="url(#mask-7)" points="482.006 417.059 483.006 417.059 483.006 381.725 482.006 381.725"></polygon>
                        <polygon id="Fill-218" fill="#2474CD" mask="url(#mask-7)" points="485.193 415.197 486.193 415.197 486.193 379.864 485.193 379.864"></polygon>
                        <polygon id="Fill-219" fill="#2474CD" mask="url(#mask-7)" points="488.38 413.336 489.38 413.336 489.38 378.002 488.38 378.002"></polygon>
                        <polygon id="Fill-220" fill="#2474CD" mask="url(#mask-7)" points="491.567 411.473 492.567 411.473 492.567 376.14 491.567 376.14"></polygon>
                        <polygon id="Fill-221" fill="#2474CD" mask="url(#mask-7)" points="494.754 409.612 495.754 409.612 495.754 374.278 494.754 374.278"></polygon>
                        <polygon id="Fill-222" fill="#2474CD" mask="url(#mask-7)" points="497.941 407.75 498.941 407.75 498.941 372.417 497.941 372.417"></polygon>
                        <polygon id="Fill-223" fill="#2474CD" mask="url(#mask-7)" points="501.128 405.888 502.128 405.888 502.128 370.554 501.128 370.554"></polygon>
                        <polygon id="Fill-224" fill="#2474CD" mask="url(#mask-7)" points="504.315 404.026 505.315 404.026 505.315 368.693 504.315 368.693"></polygon>
                        <polygon id="Fill-225" fill="#2474CD" mask="url(#mask-7)" points="507.502 402.165 508.502 402.165 508.502 366.831 507.502 366.831"></polygon>
                        <polygon id="Fill-226" fill="#2474CD" mask="url(#mask-7)" points="510.689 400.303 511.689 400.303 511.689 364.969 510.689 364.969"></polygon>
                        <polygon id="Fill-227" fill="#2474CD" mask="url(#mask-7)" points="513.876 398.441 514.876 398.441 514.876 363.107 513.876 363.107"></polygon>
                        <polygon id="Fill-228" fill="#2474CD" mask="url(#mask-7)" points="517.063 396.58 518.063 396.58 518.063 361.246 517.063 361.246"></polygon>
                        <polygon id="Fill-229" fill="#2474CD" mask="url(#mask-7)" points="520.25 394.717 521.25 394.717 521.25 359.383 520.25 359.383"></polygon>
                        <polygon id="Fill-230" fill="#2474CD" mask="url(#mask-7)" points="523.437 392.856 524.437 392.856 524.437 357.522 523.437 357.522"></polygon>
                        <polygon id="Fill-231" fill="#2474CD" mask="url(#mask-7)" points="526.624 390.994 527.624 390.994 527.624 355.66 526.624 355.66"></polygon>
                        <polygon id="Fill-232" fill="#2474CD" mask="url(#mask-7)" points="529.811 389.132 530.811 389.132 530.811 353.798 529.811 353.798"></polygon>
                        <polygon id="Fill-233" fill="#2474CD" mask="url(#mask-7)" points="532.998 387.27 533.998 387.27 533.998 351.936 532.998 351.936"></polygon>
                        <polygon id="Fill-234" fill="#2474CD" mask="url(#mask-7)" points="536.185 385.409 537.185 385.409 537.185 350.075 536.185 350.075"></polygon>
                        <polygon id="Fill-235" fill="#2474CD" mask="url(#mask-7)" points="539.372 383.547 540.372 383.547 540.372 348.213 539.372 348.213"></polygon>
                        <polygon id="Fill-236" fill="#2474CD" mask="url(#mask-7)" points="542.559 381.685 543.559 381.685 543.559 346.351 542.559 346.351"></polygon>
                        <polygon id="Fill-237" fill="#2474CD" mask="url(#mask-7)" points="545.746 379.823 546.746 379.823 546.746 344.489 545.746 344.489"></polygon>
                        <polygon id="Fill-238" fill="#2474CD" mask="url(#mask-7)" points="548.933 377.962 549.933 377.962 549.933 342.628 548.933 342.628"></polygon>
                        <polygon id="Fill-239" fill="#FF7E59" mask="url(#mask-7)" points="286.933 464.962 287.933 464.962 287.933 429.628 286.933 429.628"></polygon>
                        <polygon id="Fill-240" fill="#FF7E59" mask="url(#mask-7)" points="290.136 463.84 291.136 463.84 291.136 428.506 290.136 428.506"></polygon>
                        <polygon id="Fill-241" fill="#FF7E59" mask="url(#mask-7)" points="293.339 462.717 294.339 462.717 294.339 427.383 293.339 427.383"></polygon>
                        <polygon id="Fill-242" fill="#FF7E59" mask="url(#mask-7)" points="296.542 461.595 297.542 461.595 297.542 426.261 296.542 426.261"></polygon>
                        <polygon id="Fill-243" fill="#FF7E59" mask="url(#mask-7)" points="299.745 460.473 300.745 460.473 300.745 425.139 299.745 425.139"></polygon>
                        <polygon id="Fill-244" fill="#FF7E59" mask="url(#mask-7)" points="302.949 459.352 303.949 459.352 303.949 424.018 302.949 424.018"></polygon>
                        <polygon id="Fill-245" fill="#FF7E59" mask="url(#mask-7)" points="306.153 458.23 307.153 458.23 307.153 422.896 306.153 422.896"></polygon>
                        <polygon id="Fill-246" fill="#FF7E59" mask="url(#mask-7)" points="309.356 457.108 310.356 457.108 310.356 421.774 309.356 421.774"></polygon>
                        <polygon id="Fill-247" fill="#FF7E59" mask="url(#mask-7)" points="312.559 455.986 313.559 455.986 313.559 420.652 312.559 420.652"></polygon>
                        <polygon id="Fill-248" fill="#FF7E59" mask="url(#mask-7)" points="315.762 454.864 316.762 454.864 316.762 419.53 315.762 419.53"></polygon>
                        <polygon id="Fill-249" fill="#FF7E59" mask="url(#mask-7)" points="318.965 453.742 319.965 453.742 319.965 418.408 318.965 418.408"></polygon>
                        <polygon id="Fill-250" fill="#FF7E59" mask="url(#mask-7)" points="322.168 452.62 323.168 452.62 323.168 417.286 322.168 417.286"></polygon>
                        <polygon id="Fill-251" fill="#FF7E59" mask="url(#mask-7)" points="325.371 451.498 326.371 451.498 326.371 416.164 325.371 416.164"></polygon>
                        <polygon id="Fill-252" fill="#FF7E59" mask="url(#mask-7)" points="328.575 450.377 329.575 450.377 329.575 415.043 328.575 415.043"></polygon>
                        <polygon id="Fill-253" fill="#FF7E59" mask="url(#mask-7)" points="331.779 449.255 332.779 449.255 332.779 413.921 331.779 413.921"></polygon>
                        <polygon id="Fill-254" fill="#FF7E59" mask="url(#mask-7)" points="334.982 448.132 335.982 448.132 335.982 412.798 334.982 412.798"></polygon>
                        <polygon id="Fill-255" fill="#FF7E59" mask="url(#mask-7)" points="338.185 447.01 339.185 447.01 339.185 411.676 338.185 411.676"></polygon>
                        <polygon id="Fill-256" fill="#FF7E59" mask="url(#mask-7)" points="341.388 445.888 342.388 445.888 342.388 410.554 341.388 410.554"></polygon>
                        <polygon id="Fill-257" fill="#FF7E59" mask="url(#mask-7)" points="344.591 444.766 345.591 444.766 345.591 409.432 344.591 409.432"></polygon>
                        <polygon id="Fill-258" fill="#FF7E59" mask="url(#mask-7)" points="347.794 443.644 348.794 443.644 348.794 408.31 347.794 408.31"></polygon>
                        <polygon id="Fill-259" fill="#FF7E59" mask="url(#mask-7)" points="350.997 442.522 351.997 442.522 351.997 407.188 350.997 407.188"></polygon>
                        <polygon id="Fill-260" fill="#FF7E59" mask="url(#mask-7)" points="354.201 441.401 355.201 441.401 355.201 406.067 354.201 406.067"></polygon>
                        <polygon id="Fill-261" fill="#FF7E59" mask="url(#mask-7)" points="357.405 440.279 358.405 440.279 358.405 404.945 357.405 404.945"></polygon>
                        <polygon id="Fill-262" fill="#FF7E59" mask="url(#mask-7)" points="360.608 439.157 361.608 439.157 361.608 403.823 360.608 403.823"></polygon>
                        <polygon id="Fill-263" fill="#FF7E59" mask="url(#mask-7)" points="363.811 438.035 364.811 438.035 364.811 402.701 363.811 402.701"></polygon>
                        <polygon id="Fill-264" fill="#FF7E59" mask="url(#mask-7)" points="367.014 436.913 368.014 436.913 368.014 401.579 367.014 401.579"></polygon>
                        <polygon id="Fill-265" fill="#FF7E59" mask="url(#mask-7)" points="370.217 435.791 371.217 435.791 371.217 400.457 370.217 400.457"></polygon>
                        <polygon id="Fill-266" fill="#FF7E59" mask="url(#mask-7)" points="373.42 434.669 374.42 434.669 374.42 399.335 373.42 399.335"></polygon>
                        <polygon id="Fill-267" fill="#FF7E59" mask="url(#mask-7)" points="376.623 433.547 377.623 433.547 377.623 398.213 376.623 398.213"></polygon>
                        <polygon id="Fill-268" fill="#FF7E59" mask="url(#mask-7)" points="379.827 432.425 380.827 432.425 380.827 397.091 379.827 397.091"></polygon>
                        <polygon id="Fill-269" fill="#FF7E59" mask="url(#mask-7)" points="383.031 431.303 384.031 431.303 384.031 395.969 383.031 395.969"></polygon>
                        <polygon id="Fill-270" fill="#FF7E59" mask="url(#mask-7)" points="386.234 430.181 387.234 430.181 387.234 394.847 386.234 394.847"></polygon>
                        <polygon id="Fill-271" fill="#FF7E59" mask="url(#mask-7)" points="389.437 429.059 390.437 429.059 390.437 393.725 389.437 393.725"></polygon>
                        <polygon id="Fill-272" fill="#FF7E59" mask="url(#mask-7)" points="392.64 427.937 393.64 427.937 393.64 392.603 392.64 392.603"></polygon>
                        <polygon id="Fill-273" fill="#FF7E59" mask="url(#mask-7)" points="395.843 426.815 396.843 426.815 396.843 391.481 395.843 391.481"></polygon>
                        <polygon id="Fill-274" fill="#FF7E59" mask="url(#mask-7)" points="399.046 425.693 400.046 425.693 400.046 390.359 399.046 390.359"></polygon>
                        <polygon id="Fill-275" fill="#FF7E59" mask="url(#mask-7)" points="402.249 424.571 403.249 424.571 403.249 389.237 402.249 389.237"></polygon>
                        <polygon id="Fill-276" fill="#FF7E59" mask="url(#mask-7)" points="405.453 423.45 406.453 423.45 406.453 388.116 405.453 388.116"></polygon>
                        <polygon id="Fill-277" fill="#FF7E59" mask="url(#mask-7)" points="408.657 422.328 409.657 422.328 409.657 386.994 408.657 386.994"></polygon>
                        <polygon id="Fill-278" fill="#FF7E59" mask="url(#mask-7)" points="411.86 421.206 412.86 421.206 412.86 385.872 411.86 385.872"></polygon>
                        <polygon id="Fill-279" fill="#FF7E59" mask="url(#mask-7)" points="415.063 420.084 416.063 420.084 416.063 384.75 415.063 384.75"></polygon>
                        <polygon id="Fill-280" fill="#FF7E59" mask="url(#mask-7)" points="418.266 418.962 419.266 418.962 419.266 383.628 418.266 383.628"></polygon>
                        <polygon id="Fill-281" fill="#FF7E59" mask="url(#mask-7)" points="155.599 486.962 156.599 486.962 156.599 451.628 155.599 451.628"></polygon>
                        <polygon id="Fill-282" fill="#FF7E59" mask="url(#mask-7)" points="158.811 486.384 159.811 486.384 159.811 451.05 158.811 451.05"></polygon>
                        <polygon id="Fill-283" fill="#FF7E59" mask="url(#mask-7)" points="162.022 485.807 163.022 485.807 163.022 450.473 162.022 450.473"></polygon>
                        <polygon id="Fill-284" fill="#FF7E59" mask="url(#mask-7)" points="165.234 485.23 166.234 485.23 166.234 449.896 165.234 449.896"></polygon>
                        <polygon id="Fill-285" fill="#FF7E59" mask="url(#mask-7)" points="168.445 484.653 169.445 484.653 169.445 449.319 168.445 449.319"></polygon>
                        <polygon id="Fill-286" fill="#FF7E59" mask="url(#mask-7)" points="171.657 484.076 172.657 484.076 172.657 448.742 171.657 448.742"></polygon>
                        <polygon id="Fill-287" fill="#FF7E59" mask="url(#mask-7)" points="174.867 483.498 175.867 483.498 175.867 448.165 174.867 448.165"></polygon>
                        <polygon id="Fill-288" fill="#FF7E59" mask="url(#mask-7)" points="178.079 482.921 179.079 482.921 179.079 447.587 178.079 447.587"></polygon>
                        <polygon id="Fill-289" fill="#FF7E59" mask="url(#mask-7)" points="181.29 482.343 182.29 482.343 182.29 447.009 181.29 447.009"></polygon>
                        <polygon id="Fill-290" fill="#FF7E59" mask="url(#mask-7)" points="184.502 481.766 185.502 481.766 185.502 446.432 184.502 446.432"></polygon>
                        <polygon id="Fill-291" fill="#FF7E59" mask="url(#mask-7)" points="187.713 481.189 188.713 481.189 188.713 445.855 187.713 445.855"></polygon>
                        <polygon id="Fill-292" fill="#FF7E59" mask="url(#mask-7)" points="190.925 480.612 191.925 480.612 191.925 445.278 190.925 445.278"></polygon>
                        <polygon id="Fill-293" fill="#FF7E59" mask="url(#mask-7)" points="194.136 480.035 195.136 480.035 195.136 444.701 194.136 444.701"></polygon>
                        <polygon id="Fill-294" fill="#FF7E59" mask="url(#mask-7)" points="197.347 479.458 198.347 479.458 198.347 444.124 197.347 444.124"></polygon>
                        <polygon id="Fill-295" fill="#FF7E59" mask="url(#mask-7)" points="200.559 478.881 201.559 478.881 201.559 443.547 200.559 443.547"></polygon>
                        <polygon id="Fill-296" fill="#FF7E59" mask="url(#mask-7)" points="203.77 478.303 204.77 478.303 204.77 442.969 203.77 442.969"></polygon>
                        <polygon id="Fill-297" fill="#FF7E59" mask="url(#mask-7)" points="206.981 477.725 207.981 477.725 207.981 442.392 206.981 442.392"></polygon>
                        <polygon id="Fill-298" fill="#FF7E59" mask="url(#mask-7)" points="210.193 477.148 211.193 477.148 211.193 441.815 210.193 441.815"></polygon>
                        <polygon id="Fill-299" fill="#FF7E59" mask="url(#mask-7)" points="213.404 476.571 214.404 476.571 214.404 441.238 213.404 441.238"></polygon>
                        <polygon id="Fill-300" fill="#FF7E59" mask="url(#mask-7)" points="216.616 475.994 217.616 475.994 217.616 440.661 216.616 440.661"></polygon>
                        <polygon id="Fill-301" fill="#FF7E59" mask="url(#mask-7)" points="219.827 475.417 220.827 475.417 220.827 440.084 219.827 440.084"></polygon>
                        <polygon id="Fill-302" fill="#FF7E59" mask="url(#mask-7)" points="223.038 474.84 224.038 474.84 224.038 439.506 223.038 439.506"></polygon>
                        <polygon id="Fill-303" fill="#FF7E59" mask="url(#mask-7)" points="226.25 474.262 227.25 474.262 227.25 438.928 226.25 438.928"></polygon>
                        <polygon id="Fill-304" fill="#FF7E59" mask="url(#mask-7)" points="229.461 473.685 230.461 473.685 230.461 438.351 229.461 438.351"></polygon>
                        <polygon id="Fill-305" fill="#FF7E59" mask="url(#mask-7)" points="232.673 473.108 233.673 473.108 233.673 437.774 232.673 437.774"></polygon>
                        <polygon id="Fill-306" fill="#FF7E59" mask="url(#mask-7)" points="235.884 472.531 236.884 472.531 236.884 437.197 235.884 437.197"></polygon>
                        <polygon id="Fill-307" fill="#FF7E59" mask="url(#mask-7)" points="239.095 471.953 240.095 471.953 240.095 436.62 239.095 436.62"></polygon>
                        <polygon id="Fill-308" fill="#FF7E59" mask="url(#mask-7)" points="242.306 471.376 243.306 471.376 243.306 436.043 242.306 436.043"></polygon>
                        <polygon id="Fill-309" fill="#FF7E59" mask="url(#mask-7)" points="245.518 470.798 246.518 470.798 246.518 435.465 245.518 435.465"></polygon>
                        <polygon id="Fill-310" fill="#FF7E59" mask="url(#mask-7)" points="248.729 470.221 249.729 470.221 249.729 434.888 248.729 434.888"></polygon>
                        <polygon id="Fill-311" fill="#FF7E59" mask="url(#mask-7)" points="251.941 469.644 252.941 469.644 252.941 434.311 251.941 434.311"></polygon>
                        <polygon id="Fill-312" fill="#FF7E59" mask="url(#mask-7)" points="255.152 469.067 256.152 469.067 256.152 433.734 255.152 433.734"></polygon>
                        <polygon id="Fill-313" fill="#FF7E59" mask="url(#mask-7)" points="258.364 468.49 259.364 468.49 259.364 433.157 258.364 433.157"></polygon>
                        <polygon id="Fill-314" fill="#FF7E59" mask="url(#mask-7)" points="261.575 467.913 262.575 467.913 262.575 432.58 261.575 432.58"></polygon>
                        <polygon id="Fill-315" fill="#FF7E59" mask="url(#mask-7)" points="264.786 467.336 265.786 467.336 265.786 432.003 264.786 432.003"></polygon>
                        <polygon id="Fill-316" fill="#FF7E59" mask="url(#mask-7)" points="267.998 466.758 268.998 466.758 268.998 431.424 267.998 431.424"></polygon>
                        <polygon id="Fill-317" fill="#FF7E59" mask="url(#mask-7)" points="271.209 466.18 272.209 466.18 272.209 430.847 271.209 430.847"></polygon>
                        <polygon id="Fill-318" fill="#FF7E59" mask="url(#mask-7)" points="274.42 465.603 275.42 465.603 275.42 430.27 274.42 430.27"></polygon>
                        <polygon id="Fill-319" fill="#FF7E59" mask="url(#mask-7)" points="277.632 465.026 278.632 465.026 278.632 429.693 277.632 429.693"></polygon>
                        <polygon id="Fill-320" fill="#FF7E59" mask="url(#mask-7)" points="280.843 464.449 281.843 464.449 281.843 429.116 280.843 429.116"></polygon>
                        <polygon id="Fill-321" fill="#FF7E59" mask="url(#mask-7)" points="284.054 463.872 285.054 463.872 285.054 428.539 284.054 428.539"></polygon>
                        <polygon id="Fill-322" fill="#FF7E59" mask="url(#mask-7)" points="287.266 463.295 288.266 463.295 288.266 427.962 287.266 427.962"></polygon>
                        <polygon id="Fill-323" fill="#FF7E59" mask="url(#mask-7)" points="23.932 524.295 24.932 524.295 24.932 488.962 23.932 488.962"></polygon>
                        <polygon id="Fill-324" fill="#FF7E59" mask="url(#mask-7)" points="27.119 523.376 28.119 523.376 28.119 488.043 27.119 488.043"></polygon>
                        <polygon id="Fill-325" fill="#FF7E59" mask="url(#mask-7)" points="30.306 522.457 31.306 522.457 31.306 487.124 30.306 487.124"></polygon>
                        <polygon id="Fill-326" fill="#FF7E59" mask="url(#mask-7)" points="33.493 521.539 34.493 521.539 34.493 486.206 33.493 486.206"></polygon>
                        <polygon id="Fill-327" fill="#FF7E59" mask="url(#mask-7)" points="36.68 520.62 37.68 520.62 37.68 485.287 36.68 485.287"></polygon>
                        <polygon id="Fill-328" fill="#FF7E59" mask="url(#mask-7)" points="39.867 519.701 40.867 519.701 40.867 484.368 39.867 484.368"></polygon>
                        <polygon id="Fill-329" fill="#FF7E59" mask="url(#mask-7)" points="43.054 518.782 44.054 518.782 44.054 483.449 43.054 483.449"></polygon>
                        <polygon id="Fill-330" fill="#FF7E59" mask="url(#mask-7)" points="46.242 517.864 47.242 517.864 47.242 482.531 46.242 482.531"></polygon>
                        <polygon id="Fill-331" fill="#FF7E59" mask="url(#mask-7)" points="49.429 516.945 50.429 516.945 50.429 481.612 49.429 481.612"></polygon>
                        <polygon id="Fill-332" fill="#FF7E59" mask="url(#mask-7)" points="52.616 516.026 53.616 516.026 53.616 480.693 52.616 480.693"></polygon>
                        <polygon id="Fill-333" fill="#FF7E59" mask="url(#mask-7)" points="55.803 515.107 56.803 515.107 56.803 479.774 55.803 479.774"></polygon>
                        <polygon id="Fill-334" fill="#FF7E59" mask="url(#mask-7)" points="58.99 514.189 59.99 514.189 59.99 478.856 58.99 478.856"></polygon>
                        <polygon id="Fill-335" fill="#FF7E59" mask="url(#mask-7)" points="62.177 513.27 63.177 513.27 63.177 477.937 62.177 477.937"></polygon>
                        <polygon id="Fill-336" fill="#FF7E59" mask="url(#mask-7)" points="65.364 512.351 66.364 512.351 66.364 477.018 65.364 477.018"></polygon>
                        <polygon id="Fill-337" fill="#FF7E59" mask="url(#mask-7)" points="68.551 511.432 69.551 511.432 69.551 476.099 68.551 476.099"></polygon>
                        <polygon id="Fill-338" fill="#FF7E59" mask="url(#mask-7)" points="71.738 510.514 72.738 510.514 72.738 475.181 71.738 475.181"></polygon>
                        <polygon id="Fill-339" fill="#FF7E59" mask="url(#mask-7)" points="74.925 509.595 75.925 509.595 75.925 474.262 74.925 474.262"></polygon>
                        <polygon id="Fill-340" fill="#FF7E59" mask="url(#mask-7)" points="78.112 508.676 79.112 508.676 79.112 473.343 78.112 473.343"></polygon>
                        <polygon id="Fill-341" fill="#FF7E59" mask="url(#mask-7)" points="81.299 507.757 82.299 507.757 82.299 472.424 81.299 472.424"></polygon>
                        <polygon id="Fill-342" fill="#FF7E59" mask="url(#mask-7)" points="84.486 506.84 85.486 506.84 85.486 471.507 84.486 471.507"></polygon>
                        <polygon id="Fill-343" fill="#FF7E59" mask="url(#mask-7)" points="87.673 505.921 88.673 505.921 88.673 470.588 87.673 470.588"></polygon>
                        <polygon id="Fill-344" fill="#FF7E59" mask="url(#mask-7)" points="90.859 505.002 91.859 505.002 91.859 469.669 90.859 469.669"></polygon>
                        <polygon id="Fill-345" fill="#FF7E59" mask="url(#mask-7)" points="94.046 504.083 95.046 504.083 95.046 468.75 94.046 468.75"></polygon>
                        <polygon id="Fill-346" fill="#FF7E59" mask="url(#mask-7)" points="97.233 503.165 98.233 503.165 98.233 467.832 97.233 467.832"></polygon>
                        <polygon id="Fill-347" fill="#FF7E59" mask="url(#mask-7)" points="100.42 502.246 101.42 502.246 101.42 466.913 100.42 466.913"></polygon>
                        <polygon id="Fill-348" fill="#FF7E59" mask="url(#mask-7)" points="103.607 501.327 104.607 501.327 104.607 465.994 103.607 465.994"></polygon>
                        <polygon id="Fill-349" fill="#FF7E59" mask="url(#mask-7)" points="106.794 500.408 107.794 500.408 107.794 465.075 106.794 465.075"></polygon>
                        <polygon id="Fill-350" fill="#FF7E59" mask="url(#mask-7)" points="109.981 499.49 110.981 499.49 110.981 464.157 109.981 464.157"></polygon>
                        <polygon id="Fill-351" fill="#FF7E59" mask="url(#mask-7)" points="113.168 498.571 114.168 498.571 114.168 463.238 113.168 463.238"></polygon>
                        <polygon id="Fill-352" fill="#FF7E59" mask="url(#mask-7)" points="116.355 497.652 117.355 497.652 117.355 462.319 116.355 462.319"></polygon>
                        <polygon id="Fill-353" fill="#FF7E59" mask="url(#mask-7)" points="119.542 496.733 120.542 496.733 120.542 461.4 119.542 461.4"></polygon>
                        <polygon id="Fill-354" fill="#FF7E59" mask="url(#mask-7)" points="122.729 495.815 123.729 495.815 123.729 460.482 122.729 460.482"></polygon>
                        <polygon id="Fill-355" fill="#FF7E59" mask="url(#mask-7)" points="125.916 494.896 126.916 494.896 126.916 459.563 125.916 459.563"></polygon>
                        <polygon id="Fill-356" fill="#FF7E59" mask="url(#mask-7)" points="129.103 493.977 130.103 493.977 130.103 458.644 129.103 458.644"></polygon>
                        <polygon id="Fill-357" fill="#FF7E59" mask="url(#mask-7)" points="132.29 493.058 133.29 493.058 133.29 457.725 132.29 457.725"></polygon>
                        <polygon id="Fill-358" fill="#FF7E59" mask="url(#mask-7)" points="135.477 492.14 136.477 492.14 136.477 456.807 135.477 456.807"></polygon>
                        <polygon id="Fill-359" fill="#FF7E59" mask="url(#mask-7)" points="138.664 491.221 139.664 491.221 139.664 455.888 138.664 455.888"></polygon>
                        <polygon id="Fill-360" fill="#FF7E59" mask="url(#mask-7)" points="141.851 490.302 142.851 490.302 142.851 454.969 141.851 454.969"></polygon>
                        <polygon id="Fill-361" fill="#FF7E59" mask="url(#mask-7)" points="145.038 489.383 146.038 489.383 146.038 454.05 145.038 454.05"></polygon>
                        <polygon id="Fill-362" fill="#FF7E59" mask="url(#mask-7)" points="148.225 488.465 149.225 488.465 149.225 453.132 148.225 453.132"></polygon>
                        <polygon id="Fill-363" fill="#FF7E59" mask="url(#mask-7)" points="151.412 487.547 152.412 487.547 152.412 452.214 151.412 452.214"></polygon>
                        <polygon id="Fill-364" fill="#FF7E59" mask="url(#mask-7)" points="154.599 486.628 155.599 486.628 155.599 451.295 154.599 451.295"></polygon>
                        <polygon id="Fill-365" fill="#FF7E59" mask="url(#mask-7)" points="418.266 419.295 419.266 419.295 419.266 383.962 418.266 383.962"></polygon>
                        <polygon id="Fill-366" fill="#FF7E59" mask="url(#mask-7)" points="421.452 417.433 422.452 417.433 422.452 380.202 421.452 380.202"></polygon>
                        <polygon id="Fill-367" fill="#FF7E59" mask="url(#mask-7)" points="424.64 415.571 425.64 415.571 425.64 376.441 424.64 376.441"></polygon>
                        <polygon id="Fill-368" fill="#FF7E59" mask="url(#mask-7)" points="427.826 413.71 428.826 413.71 428.826 372.682 427.826 372.682"></polygon>
                        <polygon id="Fill-369" fill="#FF7E59" mask="url(#mask-7)" points="431.014 411.847 432.014 411.847 432.014 368.92 431.014 368.92"></polygon>
                        <polygon id="Fill-370" fill="#FF7E59" mask="url(#mask-7)" points="434.2 409.986 435.2 409.986 435.2 365.161 434.2 365.161"></polygon>
                        <polygon id="Fill-371" fill="#FF7E59" mask="url(#mask-7)" points="437.388 408.124 438.388 408.124 438.388 361.401 437.388 361.401"></polygon>
                        <polygon id="Fill-372" fill="#FF7E59" mask="url(#mask-7)" points="440.574 406.262 441.574 406.262 441.574 357.64 440.574 357.64"></polygon>
                        <polygon id="Fill-373" fill="#FF7E59" mask="url(#mask-7)" points="443.762 404.4 444.762 404.4 444.762 353.88 443.762 353.88"></polygon>
                        <polygon id="Fill-374" fill="#FF7E59" mask="url(#mask-7)" points="446.949 402.539 447.949 402.539 447.949 350.12 446.949 350.12"></polygon>
                        <polygon id="Fill-375" fill="#FF7E59" mask="url(#mask-7)" points="450.136 400.676 451.136 400.676 451.136 346.36 450.136 346.36"></polygon>
                        <polygon id="Fill-376" fill="#FF7E59" mask="url(#mask-7)" points="453.323 398.815 454.323 398.815 454.323 342.599 453.323 342.599"></polygon>
                        <polygon id="Fill-377" fill="#FF7E59" mask="url(#mask-7)" points="456.51 396.953 457.51 396.953 457.51 338.84 456.51 338.84"></polygon>
                        <polygon id="Fill-378" fill="#FF7E59" mask="url(#mask-7)" points="459.697 395.091 460.697 395.091 460.697 335.079 459.697 335.079"></polygon>
                        <polygon id="Fill-379" fill="#FF7E59" mask="url(#mask-7)" points="462.884 393.23 463.884 393.23 463.884 331.319 462.884 331.319"></polygon>
                        <polygon id="Fill-380" fill="#FF7E59" mask="url(#mask-7)" points="466.071 391.368 467.071 391.368 467.071 327.559 466.071 327.559"></polygon>
                        <polygon id="Fill-381" fill="#FF7E59" mask="url(#mask-7)" points="469.258 389.507 470.258 389.507 470.258 323.799 469.258 323.799"></polygon>
                        <polygon id="Fill-382" fill="#FF7E59" mask="url(#mask-7)" points="472.445 387.644 473.445 387.644 473.445 320.039 472.445 320.039"></polygon>
                        <polygon id="Fill-383" fill="#FF7E59" mask="url(#mask-7)" points="475.632 385.783 476.632 385.783 476.632 316.279 475.632 316.279"></polygon>
                        <polygon id="Fill-384" fill="#FF7E59" mask="url(#mask-7)" points="478.819 383.921 479.819 383.921 479.819 312.519 478.819 312.519"></polygon>
                        <polygon id="Fill-385" fill="#FF7E59" mask="url(#mask-7)" points="482.006 382.059 483.006 382.059 483.006 308.758 482.006 308.758"></polygon>
                        <polygon id="Fill-386" fill="#FF7E59" mask="url(#mask-7)" points="485.193 380.197 486.193 380.197 486.193 304.998 485.193 304.998"></polygon>
                        <polygon id="Fill-387" fill="#FF7E59" mask="url(#mask-7)" points="488.38 378.336 489.38 378.336 489.38 301.238 488.38 301.238"></polygon>
                        <polygon id="Fill-388" fill="#FF7E59" mask="url(#mask-7)" points="491.567 376.473 492.567 376.473 492.567 297.477 491.567 297.477"></polygon>
                        <polygon id="Fill-389" fill="#FF7E59" mask="url(#mask-7)" points="494.754 374.612 495.754 374.612 495.754 293.717 494.754 293.717"></polygon>
                        <polygon id="Fill-390" fill="#FF7E59" mask="url(#mask-7)" points="497.941 372.75 498.941 372.75 498.941 289.958 497.941 289.958"></polygon>
                        <polygon id="Fill-391" fill="#FF7E59" mask="url(#mask-7)" points="501.128 370.888 502.128 370.888 502.128 286.197 501.128 286.197"></polygon>
                        <polygon id="Fill-392" fill="#FF7E59" mask="url(#mask-7)" points="504.315 369.026 505.315 369.026 505.315 282.437 504.315 282.437"></polygon>
                        <polygon id="Fill-393" fill="#FF7E59" mask="url(#mask-7)" points="507.502 367.165 508.502 367.165 508.502 278.677 507.502 278.677"></polygon>
                        <polygon id="Fill-394" fill="#FF7E59" mask="url(#mask-7)" points="510.689 365.303 511.689 365.303 511.689 274.916 510.689 274.916"></polygon>
                        <polygon id="Fill-395" fill="#FF7E59" mask="url(#mask-7)" points="513.876 363.441 514.876 363.441 514.876 271.156 513.876 271.156"></polygon>
                        <polygon id="Fill-396" fill="#FF7E59" mask="url(#mask-7)" points="517.063 361.58 518.063 361.58 518.063 267.396 517.063 267.396"></polygon>
                        <polygon id="Fill-397" fill="#FF7E59" mask="url(#mask-7)" points="520.25 359.717 521.25 359.717 521.25 263.635 520.25 263.635"></polygon>
                        <polygon id="Fill-398" fill="#FF7E59" mask="url(#mask-7)" points="523.437 357.856 524.437 357.856 524.437 259.876 523.437 259.876"></polygon>
                        <polygon id="Fill-399" fill="#FF7E59" mask="url(#mask-7)" points="526.624 355.994 527.624 355.994 527.624 256.116 526.624 256.116"></polygon>
                        <polygon id="Fill-400" fill="#FF7E59" mask="url(#mask-7)" points="529.811 354.132 530.811 354.132 530.811 252.355 529.811 252.355"></polygon>
                        <polygon id="Fill-401" fill="#FF7E59" mask="url(#mask-7)" points="532.998 352.27 533.998 352.27 533.998 248.595 532.998 248.595"></polygon>
                        <polygon id="Fill-402" fill="#FF7E59" mask="url(#mask-7)" points="536.185 350.409 537.185 350.409 537.185 244.835 536.185 244.835"></polygon>
                        <polygon id="Fill-403" fill="#FF7E59" mask="url(#mask-7)" points="539.372 348.547 540.372 348.547 540.372 241.075 539.372 241.075"></polygon>
                        <polygon id="Fill-404" fill="#FF7E59" mask="url(#mask-7)" points="542.559 346.685 543.559 346.685 543.559 237.315 542.559 237.315"></polygon>
                        <polygon id="Fill-405" fill="#FF7E59" mask="url(#mask-7)" points="545.746 344.823 546.746 344.823 546.746 233.555 545.746 233.555"></polygon>
                        <polygon id="Fill-406" fill="#FF7E59" mask="url(#mask-7)" points="548.933 342.962 549.933 342.962 549.933 229.795 548.933 229.795"></polygon>
                        <path d="M287.0989,363.9616 C202.2329,363.9616 130.2449,346.7226 84.7999,332.2606 C35.5199,316.5786 5.8699,300.6516 5.5759,300.4926 L7.9559,296.0956 C8.2459,296.2526 37.5799,311.9986 86.4529,327.5396 C131.5329,341.8736 202.9369,358.9616 287.0989,358.9616 C371.3229,358.9616 442.7279,341.8506 487.7989,327.4956 C536.5929,311.9556 565.7859,296.2536 566.0749,296.0966 L568.4569,300.4916 C568.1639,300.6506 538.5549,316.5776 489.3169,332.2606 C443.9079,346.7226 371.9649,363.9616 287.0989,363.9616" id="Fill-407" fill="#C5CBD8" mask="url(#mask-7)"></path>
                        <path d="M287.0989,303.1286 C203.7969,303.1286 131.2949,280.3076 85.1419,261.1636 C35.1049,240.4076 5.1779,219.9396 3.9289,219.0776 L9.6019,210.8436 C9.9019,211.0496 40.0969,231.6806 89.2359,252.0356 C134.4939,270.7816 205.5589,293.1286 287.0989,293.1286 C366.5929,293.1286 437.7329,270.7736 483.4139,252.0196 C533.0249,231.6526 564.1809,211.0086 564.4899,210.8026 L570.0429,219.1186 C568.7549,219.9796 537.9229,240.4256 487.4579,261.1696 C440.8899,280.3106 368.3279,303.1286 287.0989,303.1286" id="Fill-408" fill="#C5CBD8" mask="url(#mask-7)"></path>
                        <path d="M287.0989,397.9616 C202.2479,397.9616 130.2709,381.5436 84.8319,367.7706 C35.5589,352.8356 5.9139,337.6676 5.6199,337.5166 L7.9119,333.0726 C8.2019,333.2226 37.5389,348.2226 86.4169,363.0256 C131.5049,376.6826 202.9219,392.9616 287.0989,392.9616 C371.2759,392.9616 442.6469,376.6836 487.6969,363.0266 C536.5339,348.2226 565.8289,333.2236 566.1199,333.0726 L568.4129,337.5166 C568.1199,337.6676 538.5159,352.8346 489.2839,367.7706 C443.8819,381.5436 371.9509,397.9616 287.0989,397.9616" id="Fill-409" fill="#C5CBD8" mask="url(#mask-7)"></path>
                        <path d="M287.0989,431.9616 C202.2629,431.9616 130.2979,416.3646 84.8659,403.2796 C35.5999,389.0926 5.9599,374.6836 5.6659,374.5396 L7.8659,370.0496 C8.1569,370.1916 37.4959,384.4456 86.3809,398.5136 C131.4769,411.4916 202.9059,426.9616 287.0989,426.9616 C371.2919,426.9616 442.6749,411.4916 487.7329,398.5146 C536.5769,384.4456 565.8739,370.1916 566.1649,370.0506 L568.3679,374.5386 C568.0739,374.6836 538.4749,389.0916 489.2499,403.2796 C443.8559,416.3646 371.9359,431.9616 287.0989,431.9616" id="Fill-410" fill="#C5CBD8" mask="url(#mask-7)"></path>
                        <path d="M287.0989,465.9616 C202.2719,465.9616 130.3149,450.9116 84.8879,438.2866 C35.6269,424.5966 5.9909,410.6926 5.6969,410.5546 L7.8339,406.0346 C8.1249,406.1716 37.4679,419.9286 86.3569,433.5056 C131.4579,446.0306 202.8949,460.9616 287.0989,460.9616 C448.3389,460.9616 565.0369,406.5846 566.1959,406.0346 L568.3359,410.5546 C568.0419,410.6926 538.4479,424.5966 489.2279,438.2866 C443.8379,450.9116 371.9259,465.9616 287.0989,465.9616" id="Fill-411" fill="#C5CBD8" mask="url(#mask-7)"></path>
                        <path d="M287.0989,500.9616 C202.2769,500.9616 130.3239,486.1856 84.8989,473.7896 C35.6409,460.3486 6.0069,446.6986 5.7129,446.5626 L7.8189,442.0266 C8.1089,442.1616 37.4529,455.6696 86.3449,469.0016 C131.4479,481.3006 202.8899,495.9616 287.0989,495.9616 C448.3479,495.9616 565.0519,442.5666 566.2119,442.0276 L568.3199,446.5616 C568.0269,446.6976 538.4339,460.3486 489.2159,473.7896 C443.8289,486.1856 371.9209,500.9616 287.0989,500.9616" id="Fill-412" fill="#C5CBD8" mask="url(#mask-7)"></path>
                        <path d="M287.0989,536.9616 C202.2769,536.9616 130.3239,522.1856 84.8989,509.7896 C35.6409,496.3486 6.0069,482.6986 5.7129,482.5626 L7.8189,478.0266 C8.1089,478.1616 37.4529,491.6696 86.3449,505.0016 C131.4479,517.3006 202.8899,531.9616 287.0989,531.9616 C448.3479,531.9616 565.0519,478.5666 566.2119,478.0276 L568.3199,482.5616 C568.0269,482.6976 538.4339,496.3486 489.2159,509.7896 C443.8289,522.1856 371.9209,536.9616 287.0989,536.9616" id="Fill-413" fill="#C5CBD8" mask="url(#mask-7)"></path>
                        <polygon id="Fill-414" fill="#E1E5F3" mask="url(#mask-7)" points="414.766 562.295 421.766 562.295 421.766 280.295 414.766 280.295"></polygon>
                        <polygon id="Fill-415" fill="#E1E5F3" mask="url(#mask-7)" points="152.766 561.295 159.766 561.295 159.766 279.295 152.766 279.295"></polygon>
                        <polygon id="Fill-416" fill="#E1E5F3" mask="url(#mask-7)" points="283.766 571.115 290.766 571.115 290.766 301.295 283.766 301.295"></polygon>
                        <polygon id="Fill-417" fill="#E1E5F3" mask="url(#mask-7)" points="545.766 529.086 552.766 529.086 552.766 230.795 545.766 230.795"></polygon>
                        <polygon id="Fill-418" fill="#E1E5F3" mask="url(#mask-7)" points="21.766 529.086 28.766 529.086 28.766 230.795 21.766 230.795"></polygon>
                        <path d="M292.3684,304.8776 L282.3534,304.8776 C281.4304,304.8776 280.6824,304.1296 280.6824,303.2066 L280.6824,292.7986 C280.6824,291.8766 281.4304,291.1276 282.3534,291.1276 L292.3684,291.1276 C293.2914,291.1276 294.0394,291.8766 294.0394,292.7986 L294.0394,303.2066 C294.0394,304.1296 293.2914,304.8776 292.3684,304.8776" id="Fill-419" fill="#C5CBD8" mask="url(#mask-7)"></path>
                        <path d="M422.968,285.341 L413.703,287.942 C412.626,288.245 411.558,287.435 411.558,286.316 L411.558,276.317 C411.558,275.121 412.353,274.071 413.504,273.748 L422.62,271.189 C423.773,270.865 424.914,271.731 424.914,272.927 L424.914,282.772 C424.914,283.968 424.119,285.018 422.968,285.341" id="Fill-420" fill="#C5CBD8" mask="url(#mask-7)"></path>
                        <path d="M554.0931,230.7809 L545.5361,235.6649 C544.2651,236.3909 542.6831,235.4729 542.6831,234.0089 L542.6831,223.9109 C542.6831,222.5249 543.4261,221.2449 544.6291,220.5579 L552.8661,215.8559 C554.2801,215.0489 556.0391,216.0699 556.0391,217.6979 L556.0391,227.4279 C556.0391,228.8139 555.2961,230.0939 554.0931,230.7809" id="Fill-421" fill="#C5CBD8" mask="url(#mask-7)"></path>
                        <path d="M151.4651,285.9552 L160.7121,288.5512 C161.8181,288.8622 162.9151,288.0302 162.9151,286.8822 L162.9151,276.9172 C162.9151,275.7362 162.1291,274.6992 160.9911,274.3792 L151.7601,271.7882 C150.6541,271.4772 149.5571,272.3092 149.5571,273.4572 L149.5571,283.4382 C149.5571,284.6102 150.3371,285.6382 151.4651,285.9552" id="Fill-422" fill="#C5CBD8" mask="url(#mask-7)"></path>
                        <path d="M20.2669,231.1261 L28.9269,236.2311 C30.1919,236.9781 31.7899,236.0651 31.7899,234.5961 L31.7899,224.6261 C31.7899,223.1811 31.0259,221.8441 29.7819,221.1101 L21.5089,216.2331 C20.1489,215.4311 18.4329,216.4121 18.4329,217.9911 L18.4329,227.9151 C18.4329,229.2341 19.1299,230.4561 20.2669,231.1261" id="Fill-423" fill="#C5CBD8" mask="url(#mask-7)"></path>
                        <path d="M291.8645,586.9997 L282.8575,586.9997 C281.6565,586.9997 280.6825,586.0257 280.6825,584.8247 L280.6825,569.8027 C280.6825,568.6017 281.6565,567.6277 282.8575,567.6277 L291.8645,567.6277 C293.0655,567.6277 294.0395,568.6017 294.0395,569.8027 L294.0395,584.8247 C294.0395,586.0257 293.0655,586.9997 291.8645,586.9997" id="Fill-424" fill="#C5CBD8" mask="url(#mask-7)"></path>
                        <path d="M422.846,575.7116 L413.905,577.1106 C412.646,577.2956 411.516,576.3196 411.516,575.0476 L411.516,559.9746 C411.516,558.7976 412.378,557.7986 413.542,557.6276 L422.506,556.1666 C423.753,555.9826 424.873,556.9496 424.873,558.2116 L424.873,573.3646 C424.873,574.5416 424.01,575.5406 422.846,575.7116" id="Fill-425" fill="#C5CBD8" mask="url(#mask-7)"></path>
                        <path d="M554.0687,541.9216 L544.9427,545.1276 C543.7917,545.5166 542.5987,544.6596 542.5987,543.4436 L542.5987,527.4976 C542.5987,526.3076 543.3587,525.2496 544.4867,524.8696 L553.1767,521.7976 C554.5427,521.3376 555.9567,522.3536 555.9567,523.7946 L555.9567,539.2946 C555.9567,540.4846 555.1967,541.5416 554.0687,541.9216" id="Fill-426" fill="#C5CBD8" mask="url(#mask-7)"></path>
                        <path d="M151.7459,575.5231 L160.5719,577.1041 C161.8289,577.2891 162.9559,576.3151 162.9559,575.0441 L162.9559,560.4401 C162.9559,558.9221 161.8439,557.6341 160.3419,557.4141 L151.9219,556.0611 C150.7509,555.8891 149.7009,556.7961 149.7009,557.9791 L149.5999,573.0391 C149.5999,574.2851 150.5129,575.3421 151.7459,575.5231" id="Fill-427" fill="#C5CBD8" mask="url(#mask-7)"></path>
                        <path d="M20.5848,542.1276 L29.5168,545.4616 C30.6738,545.8516 31.8728,544.9896 31.8728,543.7686 L31.8728,527.4616 C31.8728,526.1566 31.0408,524.9976 29.8038,524.5806 L20.7358,521.1286 C19.6448,520.7616 18.5158,521.5716 18.5158,522.7236 L18.5158,539.2476 C18.5158,540.5526 19.3488,541.7116 20.5848,542.1276" id="Fill-428" fill="#C5CBD8" mask="url(#mask-7)"></path>
                        <path d="M291.0989,361.4196 C291.0989,363.5596 289.3649,365.2946 287.2239,365.2946 C285.0839,365.2946 283.3489,363.5596 283.3489,361.4196 C283.3489,359.2796 285.0839,357.5446 287.2239,357.5446 C289.3649,357.5446 291.0989,359.2796 291.0989,361.4196" id="Fill-429" fill="#A4B1DD" mask="url(#mask-7)"></path>
                        <path d="M291.0989,395.4196 C291.0989,397.5596 289.3649,399.2946 287.2239,399.2946 C285.0839,399.2946 283.3489,397.5596 283.3489,395.4196 C283.3489,393.2796 285.0839,391.5446 287.2239,391.5446 C289.3649,391.5446 291.0989,393.2796 291.0989,395.4196" id="Fill-430" fill="#A4B1DD" mask="url(#mask-7)"></path>
                        <path d="M291.0989,429.4196 C291.0989,431.5596 289.3649,433.2946 287.2239,433.2946 C285.0839,433.2946 283.3489,431.5596 283.3489,429.4196 C283.3489,427.2796 285.0839,425.5446 287.2239,425.5446 C289.3649,425.5446 291.0989,427.2796 291.0989,429.4196" id="Fill-431" fill="#A4B1DD" mask="url(#mask-7)"></path>
                        <path d="M291.0989,463.9196 C291.0989,466.0596 289.3649,467.7946 287.2239,467.7946 C285.0839,467.7946 283.3489,466.0596 283.3489,463.9196 C283.3489,461.7796 285.0839,460.0446 287.2239,460.0446 C289.3649,460.0446 291.0989,461.7796 291.0989,463.9196" id="Fill-432" fill="#A4B1DD" mask="url(#mask-7)"></path>
                        <path d="M291.0989,498.4196 C291.0989,500.5596 289.3649,502.2946 287.2239,502.2946 C285.0839,502.2946 283.3489,500.5596 283.3489,498.4196 C283.3489,496.2796 285.0839,494.5446 287.2239,494.5446 C289.3649,494.5446 291.0989,496.2796 291.0989,498.4196" id="Fill-433" fill="#A4B1DD" mask="url(#mask-7)"></path>
                        <path d="M291.0989,534.3366 C291.0989,536.4766 289.3649,538.2116 287.2239,538.2116 C285.0839,538.2116 283.3489,536.4766 283.3489,534.3366 C283.3489,532.1956 285.0839,530.4616 287.2239,530.4616 C289.3649,530.4616 291.0989,532.1956 291.0989,534.3366" id="Fill-434" fill="#A4B1DD" mask="url(#mask-7)"></path>
                        <path d="M422.2864,348.4196 C422.2864,350.5596 420.5524,352.2946 418.4114,352.2946 C416.2714,352.2946 414.5364,350.5596 414.5364,348.4196 C414.5364,346.2796 416.2714,344.5446 418.4114,344.5446 C420.5524,344.5446 422.2864,346.2796 422.2864,348.4196" id="Fill-435" fill="#A4B1DD" mask="url(#mask-7)"></path>
                        <path d="M422.2239,383.3571 C422.2239,385.4971 420.4899,387.2321 418.3489,387.2321 C416.2089,387.2321 414.4739,385.4971 414.4739,383.3571 C414.4739,381.2171 416.2089,379.4821 418.3489,379.4821 C420.4899,379.4821 422.2239,381.2171 422.2239,383.3571" id="Fill-436" fill="#A4B1DD" mask="url(#mask-7)"></path>
                        <path d="M422.2864,417.4821 C422.2864,419.6221 420.5524,421.3571 418.4114,421.3571 C416.2714,421.3571 414.5364,419.6221 414.5364,417.4821 C414.5364,415.3421 416.2714,413.6071 418.4114,413.6071 C420.5524,413.6071 422.2864,415.3421 422.2864,417.4821" id="Fill-437" fill="#A4B1DD" mask="url(#mask-7)"></path>
                        <path d="M422.2239,451.8571 C422.2239,453.9971 420.4899,455.7321 418.3489,455.7321 C416.2089,455.7321 414.4739,453.9971 414.4739,451.8571 C414.4739,449.7171 416.2089,447.9821 418.3489,447.9821 C420.4899,447.9821 422.2239,449.7171 422.2239,451.8571" id="Fill-438" fill="#A4B1DD" mask="url(#mask-7)"></path>
                        <path d="M422.2864,487.2946 C422.2864,489.4346 420.5524,491.1696 418.4114,491.1696 C416.2714,491.1696 414.5364,489.4346 414.5364,487.2946 C414.5364,485.1546 416.2714,483.4196 418.4114,483.4196 C420.5524,483.4196 422.2864,485.1546 422.2864,487.2946" id="Fill-439" fill="#A4B1DD" mask="url(#mask-7)"></path>
                        <path d="M422.2864,523.0446 C422.2864,525.1846 420.5524,526.9196 418.4114,526.9196 C416.2714,526.9196 414.5364,525.1846 414.5364,523.0446 C414.5364,520.9046 416.2714,519.1696 418.4114,519.1696 C420.5524,519.1696 422.2864,520.9046 422.2864,523.0446" id="Fill-440" fill="#A4B1DD" mask="url(#mask-7)"></path>
                        <path d="M160.2869,348.4196 C160.2869,350.5596 158.5519,352.2946 156.4119,352.2946 C154.2719,352.2946 152.5369,350.5596 152.5369,348.4196 C152.5369,346.2796 154.2719,344.5446 156.4119,344.5446 C158.5519,344.5446 160.2869,346.2796 160.2869,348.4196" id="Fill-441" fill="#A4B1DD" mask="url(#mask-7)"></path>
                        <path d="M160.2244,383.3571 C160.2244,385.4971 158.4894,387.2321 156.3494,387.2321 C154.2094,387.2321 152.4744,385.4971 152.4744,383.3571 C152.4744,381.2171 154.2094,379.4821 156.3494,379.4821 C158.4894,379.4821 160.2244,381.2171 160.2244,383.3571" id="Fill-442" fill="#A4B1DD" mask="url(#mask-7)"></path>
                        <path d="M160.2869,417.4821 C160.2869,419.6221 158.5519,421.3571 156.4119,421.3571 C154.2719,421.3571 152.5369,419.6221 152.5369,417.4821 C152.5369,415.3421 154.2719,413.6071 156.4119,413.6071 C158.5519,413.6071 160.2869,415.3421 160.2869,417.4821" id="Fill-443" fill="#A4B1DD" mask="url(#mask-7)"></path>
                        <path d="M160.2244,451.8571 C160.2244,453.9971 158.4894,455.7321 156.3494,455.7321 C154.2094,455.7321 152.4744,453.9971 152.4744,451.8571 C152.4744,449.7171 154.2094,447.9821 156.3494,447.9821 C158.4894,447.9821 160.2244,449.7171 160.2244,451.8571" id="Fill-444" fill="#A4B1DD" mask="url(#mask-7)"></path>
                        <path d="M160.2869,487.2946 C160.2869,489.4346 158.5519,491.1696 156.4119,491.1696 C154.2719,491.1696 152.5369,489.4346 152.5369,487.2946 C152.5369,485.1546 154.2719,483.4196 156.4119,483.4196 C158.5519,483.4196 160.2869,485.1546 160.2869,487.2946" id="Fill-445" fill="#A4B1DD" mask="url(#mask-7)"></path>
                        <path d="M160.2034,522.9616 C160.2034,525.1016 158.4684,526.8366 156.3284,526.8366 C154.1884,526.8366 152.4534,525.1016 152.4534,522.9616 C152.4534,520.8206 154.1884,519.0866 156.3284,519.0866 C158.4684,519.0866 160.2034,520.8206 160.2034,522.9616" id="Fill-446" fill="#A4B1DD" mask="url(#mask-7)"></path>
                        <path d="M29.1824,307.1696 C29.1824,309.3096 27.4474,311.0446 25.3074,311.0446 C23.1674,311.0446 21.4324,309.3096 21.4324,307.1696 C21.4324,305.0296 23.1674,303.2946 25.3074,303.2946 C27.4474,303.2946 29.1824,305.0296 29.1824,307.1696" id="Fill-447" fill="#A4B1DD" mask="url(#mask-7)"></path>
                        <path d="M29.1824,343.7526 C29.1824,345.8936 27.4474,347.6276 25.3074,347.6276 C23.1674,347.6276 21.4324,345.8936 21.4324,343.7526 C21.4324,341.6126 23.1674,339.8776 25.3074,339.8776 C27.4474,339.8776 29.1824,341.6126 29.1824,343.7526" id="Fill-448" fill="#A4B1DD" mask="url(#mask-7)"></path>
                        <path d="M29.1824,380.2526 C29.1824,382.3936 27.4474,384.1276 25.3074,384.1276 C23.1674,384.1276 21.4324,382.3936 21.4324,380.2526 C21.4324,378.1126 23.1674,376.3776 25.3074,376.3776 C27.4474,376.3776 29.1824,378.1126 29.1824,380.2526" id="Fill-449" fill="#A4B1DD" mask="url(#mask-7)"></path>
                        <path d="M29.2659,416.2526 C29.2659,418.3936 27.5309,420.1276 25.3909,420.1276 C23.2509,420.1276 21.5159,418.3936 21.5159,416.2526 C21.5159,414.1126 23.2509,412.3776 25.3909,412.3776 C27.5309,412.3776 29.2659,414.1126 29.2659,416.2526" id="Fill-450" fill="#A4B1DD" mask="url(#mask-7)"></path>
                        <path d="M29.2659,452.0866 C29.2659,454.2266 27.5309,455.9616 25.3909,455.9616 C23.2509,455.9616 21.5159,454.2266 21.5159,452.0866 C21.5159,449.9456 23.2509,448.2116 25.3909,448.2116 C27.5309,448.2116 29.2659,449.9456 29.2659,452.0866" id="Fill-451" fill="#A4B1DD" mask="url(#mask-7)"></path>
                        <path d="M29.1824,487.5026 C29.1824,489.6436 27.4474,491.3776 25.3074,491.3776 C23.1674,491.3776 21.4324,489.6436 21.4324,487.5026 C21.4324,485.3626 23.1674,483.6276 25.3074,483.6276 C27.4474,483.6276 29.1824,485.3626 29.1824,487.5026" id="Fill-452" fill="#A4B1DD" mask="url(#mask-7)"></path>
                        <path d="M553.1829,307.1696 C553.1829,309.3096 551.4479,311.0446 549.3079,311.0446 C547.1669,311.0446 545.4329,309.3096 545.4329,307.1696 C545.4329,305.0296 547.1669,303.2946 549.3079,303.2946 C551.4479,303.2946 553.1829,305.0296 553.1829,307.1696" id="Fill-453" fill="#A4B1DD" mask="url(#mask-7)"></path>
                        <path d="M553.1829,343.7526 C553.1829,345.8936 551.4479,347.6276 549.3079,347.6276 C547.1669,347.6276 545.4329,345.8936 545.4329,343.7526 C545.4329,341.6126 547.1669,339.8776 549.3079,339.8776 C551.4479,339.8776 553.1829,341.6126 553.1829,343.7526" id="Fill-454" fill="#A4B1DD" mask="url(#mask-7)"></path>
                        <path d="M553.1829,380.2526 C553.1829,382.3936 551.4479,384.1276 549.3079,384.1276 C547.1669,384.1276 545.4329,382.3936 545.4329,380.2526 C545.4329,378.1126 547.1669,376.3776 549.3079,376.3776 C551.4479,376.3776 553.1829,378.1126 553.1829,380.2526" id="Fill-455" fill="#A4B1DD" mask="url(#mask-7)"></path>
                        <path d="M553.2659,416.2526 C553.2659,418.3936 551.5309,420.1276 549.3909,420.1276 C547.2509,420.1276 545.5159,418.3936 545.5159,416.2526 C545.5159,414.1126 547.2509,412.3776 549.3909,412.3776 C551.5309,412.3776 553.2659,414.1126 553.2659,416.2526" id="Fill-456" fill="#A4B1DD" mask="url(#mask-7)"></path>
                        <path d="M553.2659,452.0866 C553.2659,454.2266 551.5309,455.9616 549.3909,455.9616 C547.2509,455.9616 545.5159,454.2266 545.5159,452.0866 C545.5159,449.9456 547.2509,448.2116 549.3909,448.2116 C551.5309,448.2116 553.2659,449.9456 553.2659,452.0866" id="Fill-457" fill="#A4B1DD" mask="url(#mask-7)"></path>
                        <path d="M553.1829,488.0026 C553.1829,490.1436 551.4479,491.8776 549.3079,491.8776 C547.1669,491.8776 545.4329,490.1436 545.4329,488.0026 C545.4329,485.8626 547.1669,484.1276 549.3079,484.1276 C551.4479,484.1276 553.1829,485.8626 553.1829,488.0026" id="Fill-458" fill="#A4B1DD" mask="url(#mask-7)"></path>
                    </g>
                </g>
            </g>
        </g>
    </g>
</svg>