<svg xmlns="http://www.w3.org/2000/svg" xmlns:xlink="http://www.w3.org/1999/xlink" width="683" height="683" viewBox="0 0 683 683">
    <defs>
        <path id="a" d="M1 25.255c0 13.554 9.325 23.127 19.523 23.72 9.028.522 11.303-7.11 12.11-22.748 1.003-19.428.808-24.691-12.11-25.215A12.687 12.687 0 0 0 19.97 1C9.983 1 1 11.946 1 25.255"/>
        <radialGradient id="b" cx="196.792%" cy="161.519%" r="240.037%" fx="196.792%" fy="161.519%" gradientTransform="scale(-1 -.66667) rotate(47.429 4.596 -4.884)">
            <stop offset="0%" stop-color="#FFE8E8"/>
            <stop offset="100%" stop-color="#FDACAC"/>
        </radialGradient>
        <path id="d" d="M1 0h504v59H1z"/>
        <path id="f" d="M0 523h507V1H0z"/>
    </defs>
    <g fill="none" fill-rule="evenodd">
        <path fill-rule="nonzero" d="M0 0h683v683H0z"/>
        <path fill="#E1E5F3" d="M97.307 304h273.68c5.776 0 13.329-4.438 8.442-17.751-2.128-5.794-7.874-8.76-12.261-10.224a11.39 11.39 0 0 1-7.066-6.824c-1.93-5.18-6.058-12.77-14.44-17.124-5.553-2.884-10.662-3.883-14.383-4.16-3.533-.263-6.525-2.676-7.658-6.028-1.886-5.577-5.762-13.585-13.282-18.212-3.187-1.96-5.631-4.916-6.768-8.476-2.404-7.54-5.723-15.999-20.553-23.922-19.104-10.207-36.875-11.539-52.425-6.213-12.239 4.19-21.77 13.313-26.213 19.97-5.936 8.893-13.329 13.757-23.992 10.207-10.804-3.597-20.881-4.881-34.21 0-10.044 3.68-17.23 13.035-20.195 17.714-1.418 2.238-3.28 4.153-5.446 5.68-4.435 3.128-12.167 10.06-17.01 22.76a55.943 55.943 0 0 0-3.263 13.296 7.95 7.95 0 0 1-4.247 6.147c-4.098 2.126-9.795 6.322-8.929 12.953C88.3 303.076 97.307 304 97.307 304"/>
        <path fill="#E1E5F3" d="M488.255 208.698c-6.51-3.92-14.663-6.24-16.884-14.265-2.222-8.024.888-13.374-2.666-24.519-3.772-11.827-14.663-24.518-21.328-29.422-8.849-6.511-26.215-24.964-60.872-17.386-5.491 1.201-11.108 2.23-18.217-1.783-7.109-4.012-13.774-18.277-27.992-28.53-10.338-7.455-21.772-12.929-42.21-11.591-22.24 1.455-29.326 5.35-37.768 12.928-8.442 7.578-12.885 20.952-28.88 24.964-15.996 4.012-30.058 9.13-39.99 21.844-12.885 16.494-9.775 29.868-14.218 37.892-4.443 8.024-14.218 9.808-19.994 24.965-1.258 3.301-2.011 6.702-2.236 9.99 9.147-1.656 16.962-.26 25.192 2.492 10.664 3.566 18.058-1.32 23.993-10.253 4.444-6.687 13.976-15.851 26.215-20.061 15.552-5.35 33.325-4.012 52.431 6.241 14.83 7.96 18.149 16.456 20.554 24.03 1.136 3.577 3.582 6.545 6.767 8.515 4.317 2.666 7.427 6.451 9.655 10.251h165.782s9.775 0 11.108-6.687c1.333-6.687-1.777-15.603-8.442-19.615"/>
        <path fill="#E09595" d="M385 352l-2.568 3.917c-1.43 2.183-3.878 3.543-6.546 3.64l-12.055.439c-2.044.074-4.006-.778-5.31-2.304l-3.341-3.916-.18-.21L385 352z"/>
        <path fill="#A4B1DD" d="M342.6 355c-74.005 0-138.422-19.133-179.428-35.184C118.706 302.41 92.11 285.246 91 284.524l4.831-7.491c.267.173 27.112 17.482 70.803 34.559 40.246 15.732 103.445 34.484 175.966 34.484 70.794 0 134.134-18.805 174.806-34.58 44.055-17.087 71.595-34.324 71.869-34.496l4.725 7.558c-1.144.721-28.544 17.868-73.39 35.263C479.233 335.869 414.764 355 342.6 355"/>
        <path fill="#FFAEAE" d="M349.653 333s14.537.518 17.108.782c2.573.263 4.826.86 6.78 2.203 1.952 1.343 6.459 4.179 6.459 4.179L348 343l1.653-10zM384 567.546s5.68 8.616 8.63 10.398c2.039 1.233 16.968-18.313 12.56-17.825-2.065.23-4.059-.2-5.38-1.793l-1.1-1.326L384 567.546zM349 348.916c0 .438 4.112 5.25 8.957 6.272 4.846 1.02 6.46 0 10.279 1.896 3.817 1.895 4.11 2.916 6.02 2.916 1.321 0 3.083-3.063.147-6.125-2.23-2.326-4.112-1.896-5.874-3.209-1.762-1.312-4.845-4.666-4.845-4.666L349 348.916z"/>
        <path fill="#2474CD" d="M433.902 549.582c-4.125 2.051-9.391 5.225-15.636 7.052-3.247.949-9.857 3.355-13.915 3.823-2.16 1.78-3.697 7.573-6.858 10.06-3.161 2.486-5.277.16-9.493 2.644 2.569 3.305 6.985 9.142 8.079 10.129 2.276 2.054 6.835 2.41 10.795.228 3.961-2.182 11.41-8.21 18.39-14.397 7.445-6.598 11.566-11.796 12.882-14.03 2.202-3.743-.082-7.58-4.244-5.51"/>
        <path fill="#FFAEAE" d="M171.318 517s-4.19 4.688-8.273 7.371c-3.379 2.22 1.572 12.627 12.897 15.629.093-2.49 1.012-3.516 2.312-4.834L181 532.82 171.318 517z"/>
        <path fill="#2474CD" d="M187.519 565.104c-3.976-4.69-8.418-7.282-9.516-10.981-1.19-4.007-1.04-9.051-2.23-13.8-13.68-5.788-13.024-8.484-12.044-16.323-3.27 1.93-6.21 1.99-8.326 3.116-4.46 2.375-5.063 6.032-3.866 10.09.85 2.882 7.475 19.728 8.772 21.899 1.297 2.17 2.634 4.481 5.204 6.147 2.571 1.666 11.044 3.554 14.827 4.44 6.248 1.464 8.814-2.66 7.179-4.588"/>
        <path fill="#2B2B51" d="M262.63 380s-7.615 23.759-13.898 42.385c-5.618 16.657-7.91 28.833-13.824 34.28-6.285 5.788-14.802 8.082-29.643 21.786-13.528 12.493-38.464 43.387-39.265 44.894.825 3.886 5.36 10.42 12.19 15.232.855.603 1.957.536 2.828-.043 18.334-12.195 43.39-31.743 58.843-40.154 10.764-5.858 22.9-11.497 34.153-26.918 4-5.482 9.61-15.67 24.986-47.739L262.63 380z"/>
        <path fill="#42426C" d="M259.203 355s-4.149 17.504 2.963 31.017c7.112 13.512 14.61 13.683 21.633 22.726 9.78 12.592 26.337 39.687 31.967 47.98 5.97 8.79 8.331 22.111 16.002 39.923 12.15 28.21 44.172 62.731 51.063 72.281a2.534 2.534 0 0 0 3.124.843c4.37-1.983 12.539-6.812 15.045-11.358 0 0-9.223-20.045-18.225-40.089-9.295-20.698-17.52-40.257-18.706-45.632-2.37-10.748-5.226-22.153-8.001-29.175-13.039-32.986-37.894-87.595-37.894-87.595L259.203 355z"/>
        <path fill="#FFAEAE" d="M367.454 237s-2.353-1.474-1.073-4.692c.843-2.118 2.566-5.789 3.484-7.718.9-1.888 2.297-2.724 4.135-2.573L367.454 237zM366.375 272c7.875-11.344 12.104-17.533 15.02-22.248.837-1.35 1.605-2.946 1.896-4.862.163-1.068 1.027-6.746.584-9.134-.437-2.358-4.025-10.352-4.521-10.756L355 266.106s8.057 4.31 11.375 5.894"/>
        <path fill="#42426C" d="M364 256.09l3.716 1.91 16.004-34.722c.514-1.274.294-2.135-.442-2.473-.708-.324-1.748-.805-1.748-.805-.586 0-17.53 36.09-17.53 36.09"/>
        <path fill="#FF7E59" d="M359.799 254.939l5.845 2.061 16.113-34.754c.554-1.252.101-2.246-.758-2.246l-5.33.09a1.52 1.52 0 0 0-1.375.869l-15.196 32.547c-.279.591.062 1.29.701 1.433"/>
        <path fill="#FFAEAE" d="M358.673 265.36s-1.891-8.07.667-13.925c1.96-4.483 4.747-6.005 6.675-9.457 1.929-3.454 1.975-6.935 5.043-9.834 1.67-1.576 3.422-2.633 5.007-1.914 1.075.488 1.223 1.538.445 3.265-.804 1.782-1.929 3.735-2.67 7.038-.742 3.302-.425 10.131-1.224 12.779-1.224 4.053-2.225 7.919-5.785 10.734-2.63 2.079-1.78 4.954-1.78 4.954l-6.378-3.64z"/>
        <path fill="#42426C" d="M250.198 237s-8.359.296-14.628 2.52c-6.715 2.38-10.935 4.51-12.39 9.932-1.195 4.447-4.18 14.972-4.18 41.804 0 29.65 4.777 48.623 8.06 52.626 3.284 4.002 11.345 10.376 30.154 11.118 0 0 8.21-21.644 6.569-41.36-1.643-19.716-2.687-65.67-2.687-65.67L250.198 237z"/>
        <path fill="#23529D" d="M332.335 324s5.202 2.238 8.546 4.366a15.984 15.984 0 0 0 2.76 1.406c2.4.939 4.215 1.66 5.971 2.36a2.19 2.19 0 0 1 1.381 2.215c-.196 2.447-.896 7.249-3.398 11.653L317 344.403l3.843-11.908L332.335 324z"/>
        <path fill="#23478D" d="M350.993 334.212c.08-.968-.49-1.873-1.429-2.24-1.816-.708-3.693-1.436-6.176-2.387-1-.382-1.95-.86-2.855-1.422-.088-.054-.182-.108-.27-.163-.2 6.361-2.357 12.085-5.263 17.364l12.478.636c2.588-4.455 3.312-9.312 3.515-11.788"/>
        <path fill="#FFAEAE" d="M274 219.008C278.502 220.64 300.26 230 300.26 230s0-3.12.45-6.24c.318-2.205 4.464-1.893 8.29-2.171-1.35-3.417-13.392-32.589-13.392-32.589l-14.556 1.189s-1.95 17.38-7.052 28.819"/>
        <path fill="#E1E5F3" d="M511.322 255.558c-6.679 0-12.456-5.802-11.131-12.823 2.671-14.15 16.92-11.055 20.037-17.687 5.052-10.752 11.136-15.333 20.482-15.034 13.803.442 17.81 10.17 20.927 16.36 2.431 4.828 6.679 7.96 12.467 10.612 5.789 2.653 7.57 7.96 6.68 11.497-1.081 4.29-4.008 7.517-11.578 7.517-7.57 0-51.205-.442-57.884-.442"/>
        <path fill="#245EAD" d="M257.8 367.607s5.777 2.694 30.127 2.365c15.897-.215 28.015-2.58 33.684-4.462.38-.125.5-.913.278-1.397-.615-1.338-1.649-3.386-2.279-4.928-.439-1.074-.018-1.558-.018-1.558L257.058 357l.011.014c.517.643.846 1.423.866 2.238.011.421-.034.845-.136 1.26l-.778 4.945s-.222 1.397.778 2.15"/>
        <g transform="translate(287 174)">
            <mask id="c" fill="#fff">
                <use xlink:href="#a"/>
            </mask>
            <path fill="url(#b)" d="M1 25.255c0 13.554 9.325 23.127 19.523 23.72 9.028.522 11.303-7.11 12.11-22.748 1.003-19.428.808-24.691-12.11-25.215A12.687 12.687 0 0 0 19.97 1C9.983 1 1 11.946 1 25.255" mask="url(#c)"/>
        </g>
        <g transform="translate(87 80)">
            <path fill="#423748" d="M206.711 120.42s2.059.449 3.53-1.344c1.47-1.793 1.764-4.78 1.029-7.022-.646-1.97-2.647-4.781-1.618-5.528 1.03-.746 3.529.897 5.293-1.494 1.765-2.39.441-3.286 1.177-3.884.735-.598 3.382 1.344 9.849 1.283a6.207 6.207 0 0 1 2.687.568c.945.44 2.315.922 3.638.838 1.914-.122 4.558-3.287 5.44-6.873.896-3.635-.588-6.872-2.94-7.768-1.514-.577-4.637.005-6.765-1.196-2.645-1.493-3.528-3.734-8.38-5.527-4.328-1.6-7.94-1.345-12.057-1.793-4.118-.448-6.176-1.196-9.705-.15-3.284.973-6.026 2.8-8.088 7.62-1.47 3.436-.631 6.6-.734 8.068-.148 2.09-1.765 2.39-2.353 4.631-.6 2.283-.294 3.884-.883 5.379-.587 1.493-1.176 3.436-.587 6.125.665 3.045 2.646 3.436 2.793 4.78.147 1.345-.294 2.69.882 4.632 1.483 2.447 3.556 4.598 6.617 4.184 2.206-.3 3.529-7.321 3.529-7.321l7.646 1.792z"/>
            <path fill="#FFAEAE" d="M207.231 118.135c1.123 3.957 1.247 6.1-1.21 6.773-2.456.673-5.594-2.45-7.258-6.34-1.623-3.796-.513-5.895 1.966-6.485 1.814-.433 4.99.72 6.502 6.052"/>
            <path fill="#FF7E59" d="M186 139.769l3.205-7.336a.711.711 0 0 1 1.048-.314l23.28 15.503c.26.173.461.422.58.714L216 153l-30-13.231z"/>
            <path fill="#2469BD" d="M168.44 136.495c-4.995 6.92-8.198 19.177-8.198 19.177-.674 1.575.174 2.903 1.144 4.316l8.903 14.43s-2.077 16.215-.593 32.728c1.484 16.512 3.265 22.165 3.116 28.562-.148 6.396-4.897 25.884-4.897 30.495 0 4.612-1.187 9.67 2.67 11.753 3.86 2.082 14.84 4.76 33.984 3.867 19.143-.892 26.117-3.57 27.119-3.905 1.043-.348 2.003-2.12 2.226-12.16.281-12.664 1.967-57.869.482-69.175-1.484-11.305-4.303-18-8.755-26.777-.297-.446-1.039-1.933-1.335-4.165-.298-2.231-.18-4.591-.445-6.1-.446-2.528-1.781-3.867-4.156-5.206-1.033-.583-10.386-6.183-21.072-10.414-10.601-4.196-20.628-7.327-25.524-8.627-1.36-.362-3.265-.745-4.669 1.201"/>
            <path fill="#42426C" d="M168.342 182l17.698-19.013 26.548-.302s1.175-.59-.443-2.263c-1.504-1.556-5.59-4.125-11.061-6.036-6.047-2.112-13.274-1.962-19.91 1.51C175.471 158.875 162 166.91 162 166.91l6.342 15.09zM171.617 229.01s1.49.887 4.618-1.18c3.127-2.067 19.659-16.83 19.659-16.83L202 223.548 167 264l4.617-34.99z"/>
            <path fill="#2474CD" d="M190.805 158.386c-4.88 2.086-14.494 8.941-9.318 26.674 6.246 21.394 28.396 54.689 38.453 66.312 10.057 11.623 20.114 1.639 20.114 1.639s10.418-9.489 21.593-26.226c10.945-16.392 15.233-22.95 17.156-28.164.85-2.304 5.177-7.75 3.994-9.686-1.184-1.938-9.762-7.6-13.607-8.494-1.297-.302-5.177 5.96-6.212 7.153-1.035 1.192-3.106 1.49-13.459 12.517-10.352 11.027-12.423 12.964-12.423 12.964s-5.488-11.47-8.43-21.607c-4.585-15.796-7.731-22.412-15.233-28.76-7.395-6.26-16.782-6.82-22.628-4.322"/>
            <path fill="#2469BD" d="M283.796 189.508c-1.188-1.938-9.79-7.603-13.647-8.497-1.272-.296-5.014 5.68-6.149 7.057 4.222 2.932 11.341 7.105 15.875 10.932 1.003-2.4 5.076-7.605 3.92-9.492"/>
            <g transform="translate(3 462)">
                <mask id="e" fill="#fff">
                    <use xlink:href="#d"/>
                </mask>
                <path fill="#C5CBD8" d="M253.072 59C177.16 59 112.763 46.358 72.11 35.754 27.948 24.235 2.079 12.846 1 12.367L6.357 0c1.028.455 104.341 45.496 246.715 45.496C395.625 45.496 498.61.457 499.634.002L505 12.366c-1.078.479-26.911 11.868-71.038 23.388C393.342 46.358 328.986 59 253.072 59" mask="url(#e)"/>
            </g>
            <mask id="g" fill="#fff">
                <use xlink:href="#f"/>
            </mask>
            <path fill="#2474CD" d="M255 445h1v-31h-1zM258 444h1v-31h-1zM261 443h1v-31h-1zM264 442h1v-31h-1zM267 441h1v-31h-1zM270 440h1v-31h-1zM272 439h1v-31h-1zM275 438h1v-31h-1zM278 437h1v-31h-1zM281 436h1v-31h-1zM284 435h1v-31h-1zM287 434h1v-31h-1zM289 433h1v-31h-1zM292 432h1v-31h-1zM295 431h1v-31h-1zM298 430h1v-31h-1zM301 429h1v-31h-1zM304 428h1v-31h-1zM307 427h1v-31h-1zM309 426h1v-31h-1zM312 425h1v-31h-1zM315 424h1v-31h-1zM318 423h1v-31h-1zM321 422h1v-31h-1zM324 421h1v-31h-1zM327 420h1v-31h-1zM329 419h1v-31h-1zM332 418h1v-31h-1zM335 417h1v-31h-1zM338 416h1v-31h-1zM341 415h1v-31h-1zM344 414h1v-31h-1zM346 413h1v-31h-1zM349 412h1v-31h-1zM352 411h1v-31h-1zM355 410h1v-31h-1zM358 409h1v-31h-1zM361 408h1v-31h-1zM364 407h1v-31h-1zM366 406h1v-31h-1zM369 405h1v-31h-1zM372 404h1v-31h-1zM138 465h1v-31h-1zM141 464h1v-31h-1zM144 464h1v-31h-1zM147 463h1v-31h-1zM150 463h1v-31h-1zM153 462h1v-31h-1zM156 461h1v-31h-1zM158 461h1v-31h-1zM161 460h1v-31h-1zM164 460h1v-31h-1zM167 459h1v-31h-1zM170 459h1v-31h-1zM173 458h1v-31h-1zM176 458h1v-31h-1zM178 457h1v-31h-1zM181 457h1v-31h-1zM184 456h1v-31h-1zM187 456h1v-31h-1zM190 455h1v-31h-1zM193 455h1v-31h-1zM196 454h1v-31h-1zM198 454h1v-31h-1zM201 453h1v-31h-1zM204 453h1v-31h-1zM207 452h1v-31h-1zM210 452h1v-31h-1zM213 451h1v-31h-1zM216 451h1v-31h-1zM218 450h1v-31h-1zM221 450h1v-31h-1zM224 449h1v-31h-1zM227 449h1v-31h-1zM230 448h1v-31h-1zM233 448h1v-31h-1zM236 447h1v-31h-1zM238 447h1v-31h-1zM241 446h1v-31h-1zM244 446h1v-31h-1zM247 445h1v-31h-1zM250 445h1v-31h-1zM253 444h1v-31h-1zM256 443h1v-31h-1zM21 465h1v-31h-1zM24 465h1v-31h-1zM27 465h1v-31h-1zM30 465h1v-31h-1zM33 465h1v-31h-1zM35 465h1v-31h-1zM38 465h1v-31h-1zM41 465h1v-31h-1zM44 465h1v-31h-1zM47 465h1v-31h-1zM50 465h1v-31h-1zM52 465h1v-31h-1zM55 465h1v-31h-1zM58 465h1v-31h-1zM61 465h1v-31h-1zM64 465h1v-31h-1zM67 465h1v-31h-1zM69 465h1v-31h-1zM72 465h1v-31h-1zM75 465h1v-31h-1zM78 465h1v-31h-1zM81 465h1v-31h-1zM84 465h1v-31h-1zM87 465h1v-31h-1zM89 465h1v-31h-1zM92 465h1v-31h-1zM95 464h1v-31h-1zM98 464h1v-31h-1zM101 464h1v-31h-1zM104 464h1v-31h-1zM106 464h1v-31h-1zM109 464h1v-31h-1zM112 464h1v-31h-1zM115 464h1v-31h-1zM118 464h1v-31h-1zM121 464h1v-31h-1zM123 464h1v-31h-1zM126 464h1v-31h-1zM129 464h1v-31h-1zM132 464h1v-31h-1zM135 464h1v-31h-1z" mask="url(#g)"/>
            <path fill="#2474CD" d="M138 464h1v-31h-1zM372 404h1v-31h-1zM375 403h1v-31h-1zM378 401h1v-31h-1zM381 399h1v-31h-1zM383 398h1v-31h-1zM386 396h1v-31h-1zM389 394h1v-31h-1zM392 393h1v-31h-1zM395 391h1v-31h-1zM398 389h1v-31h-1zM400 388h1v-31h-1zM403 386h1v-31h-1zM406 384h1v-31h-1zM409 383h1v-31h-1zM412 381h1v-31h-1zM415 379h1v-31h-1zM417 378h1v-31h-1zM420 376h1v-31h-1zM423 374h1v-31h-1zM426 373h1v-31h-1zM429 371h1v-31h-1zM432 369h1v-31h-1zM434 368h1v-31h-1zM437 366h1v-31h-1zM440 364h1v-31h-1zM443 363h1v-31h-1zM446 361h1v-31h-1zM449 359h1v-31h-1zM452 358h1v-31h-1zM454 356h1v-31h-1zM457 355h1v-31h-1zM460 353h1v-31h-1zM463 351h1v-31h-1zM466 350h1v-31h-1zM469 348h1v-31h-1zM471 346h1v-31h-1zM474 345h1v-31h-1zM477 343h1v-31h-1zM480 341h1v-31h-1zM483 340h1v-31h-1zM486 338h1v-31h-1zM488 336h1v-31h-1z" mask="url(#g)"/>
            <path fill="#FF7E59" d="M255 414h1v-31h-1zM258 413h1v-31h-1zM261 412h1v-31h-1zM264 411h1v-31h-1zM267 410h1v-31h-1zM270 409h1v-31h-1zM272 408h1v-31h-1zM275 407h1v-31h-1zM278 406h1v-31h-1zM281 405h1v-31h-1zM284 404h1v-31h-1zM287 403h1v-31h-1zM289 402h1v-31h-1zM292 401h1v-31h-1zM295 400h1v-31h-1zM298 399h1v-31h-1zM301 398h1v-31h-1zM304 397h1v-31h-1zM307 396h1v-31h-1zM309 395h1v-31h-1zM312 394h1v-31h-1zM315 393h1v-31h-1zM318 392h1v-31h-1zM321 391h1v-31h-1zM324 390h1v-31h-1zM327 389h1v-31h-1zM329 388h1v-31h-1zM332 387h1v-31h-1zM335 386h1v-31h-1zM338 385h1v-31h-1zM341 384h1v-31h-1zM344 383h1v-31h-1zM346 382h1v-31h-1zM349 381h1v-31h-1zM352 380h1v-31h-1zM355 379h1v-31h-1zM358 378h1v-31h-1zM361 377h1v-31h-1zM364 376h1v-31h-1zM366 375h1v-31h-1zM369 374h1v-31h-1zM372 373h1v-31h-1zM138 433h1v-31h-1zM141 433h1v-31h-1zM144 432h1v-31h-1zM147 432h1v-31h-1zM150 431h1v-31h-1zM153 431h1v-31h-1zM156 430h1v-31h-1zM158 430h1v-31h-1zM161 429h1v-31h-1zM164 429h1v-31h-1zM167 428h1v-31h-1zM170 428h1v-31h-1zM173 427h1v-31h-1zM176 427h1v-31h-1zM178 426h1v-31h-1zM181 426h1v-31h-1zM184 425h1v-31h-1zM187 425h1v-31h-1zM190 424h1v-31h-1zM193 424h1v-31h-1zM196 423h1v-31h-1zM198 423h1v-31h-1zM201 422h1v-31h-1zM204 422h1v-31h-1zM207 421h1v-31h-1zM210 421h1v-31h-1zM213 420h1v-31h-1zM216 420h1v-31h-1zM218 419h1v-31h-1zM221 418h1v-31h-1zM224 418h1v-31h-1zM227 417h1v-31h-1zM230 417h1v-31h-1zM233 416h1v-31h-1zM236 416h1v-31h-1zM238 415h1v-31h-1zM241 415h1v-31h-1zM244 414h1v-31h-1zM247 414h1v-31h-1zM250 413h1v-31h-1zM253 413h1v-31h-1zM256 412h1v-31h-1zM21 467h1v-31h-1zM24 466h1v-31h-1zM27 465h1v-31h-1zM30 464h1v-31h-1zM33 463h1v-31h-1zM35 463h1v-31h-1zM38 462h1v-31h-1zM41 461h1v-31h-1zM44 460h1v-31h-1zM47 459h1v-31h-1zM50 458h1v-31h-1zM52 458h1v-31h-1zM55 457h1v-31h-1zM58 456h1v-31h-1zM61 455h1v-31h-1zM64 454h1v-31h-1zM67 454h1v-31h-1zM69 453h1v-31h-1zM72 452h1v-31h-1zM75 451h1v-31h-1zM78 450h1v-31h-1zM81 449h1v-31h-1zM84 449h1v-31h-1zM87 448h1v-31h-1zM89 447h1v-31h-1zM92 446h1v-31h-1zM95 445h1v-31h-1zM98 445h1v-31h-1zM101 444h1v-31h-1zM104 443h1v-31h-1zM106 442h1v-31h-1zM109 441h1v-31h-1zM112 440h1v-31h-1zM115 440h1v-31h-1zM118 439h1v-31h-1zM121 438h1v-31h-1zM123 437h1v-31h-1zM126 436h1v-31h-1zM129 436h1v-31h-1zM132 435h1v-31h-1zM135 434h1v-31h-1z" mask="url(#g)"/>
            <path fill="#FF7E59" d="M138 433h1v-31h-1zM372 373h1v-31h-1zM375 372h1v-33h-1zM378 370h1v-35h-1zM381 369h1v-37h-1zM383 367h1v-38h-1zM386 365h1v-40h-1zM389 364h1v-42h-1zM392 362h1v-43h-1zM395 360h1v-45h-1zM398 359h1v-47h-1zM400 357h1v-48h-1zM403 355h1v-50h-1zM406 354h1v-52h-1zM409 352h1v-53h-1zM412 350h1v-55h-1zM415 349h1v-57h-1zM417 347h1v-59h-1zM420 345h1v-60h-1zM423 344h1v-62h-1zM426 342h1v-64h-1zM429 340h1v-65h-1zM432 339h1v-67h-1zM434 337h1v-69h-1zM437 335h1v-70h-1zM440 334h1v-72h-1zM443 332h1v-74h-1zM446 330h1v-75h-1zM449 329h1v-77h-1zM452 327h1v-79h-1zM454 326h1v-81h-1zM457 324h1v-82h-1zM460 322h1v-84h-1zM463 321h1v-86h-1zM466 319h1v-87h-1zM469 317h1v-89h-1zM471 316h1v-91h-1zM474 313h1v-92h-1zM477 312h1v-94h-1zM480 311h1v-96h-1zM483 308h1v-97h-1zM486 307h1v-99h-1zM488 306h1V205h-1z" mask="url(#g)"/>
            <path fill="#C5CBD8" d="M255.573 324c-75.536 0-139.61-15.24-180.059-28.027C31.652 282.11 5.262 268.028 5 267.887L7.118 264c.258.139 26.368 14.06 69.868 27.8 40.124 12.672 103.678 27.78 178.587 27.78 74.965 0 138.52-15.128 178.636-27.82 43.43-13.738 69.414-27.62 69.67-27.76l2.121 3.886c-.26.141-26.615 14.222-70.44 28.087C395.143 308.76 331.11 324 255.573 324" mask="url(#g)"/>
            <path fill="#C5CBD8" d="M255.1 270c-74.162 0-138.709-20.269-179.798-37.272C30.755 214.294 4.112 196.115 3 195.35l5.05-7.314c.268.183 27.15 18.507 70.897 36.585 40.292 16.65 103.56 36.497 176.154 36.497 70.772 0 134.106-19.854 174.775-36.51 44.168-18.09 71.905-36.425 72.18-36.608l4.944 7.386c-1.147.765-28.596 18.924-73.524 37.348-41.458 17-106.059 37.266-178.375 37.266M255.573 355c-75.534 0-139.608-14.675-180.058-26.986C31.652 314.664 5.262 301.107 5 300.972L7.04 297c.259.134 26.374 13.542 69.886 26.773 40.137 12.207 103.713 26.758 178.647 26.758 74.935 0 138.47-14.55 178.573-26.757C477.621 310.542 503.7 297.135 503.96 297l2.041 3.972c-.26.135-26.614 13.692-70.44 27.042C395.141 340.325 331.108 355 255.572 355" mask="url(#g)"/>
            <path fill="#C5CBD8" d="M255.573 385c-75.533 0-139.607-13.856-180.058-25.48C31.652 346.917 5.262 334.117 5 333.99L6.959 330c.259.126 26.38 12.789 69.905 25.286 40.151 11.53 103.748 25.272 178.709 25.272s138.517-13.743 178.634-25.27c43.488-12.5 69.572-25.162 69.832-25.287l1.961 3.987c-.262.129-26.615 12.928-70.442 25.532C395.14 371.144 331.108 385 255.573 385" mask="url(#g)"/>
            <path fill="#C5CBD8" d="M255.573 415c-75.533 0-139.607-13.31-180.058-24.476C31.651 378.416 5.262 366.12 5 365.998L6.903 362c.259.121 26.387 12.288 69.92 24.296 40.16 11.077 103.771 24.282 178.75 24.282 143.576 0 247.49-48.092 248.521-48.578l1.906 3.998c-.262.122-26.614 12.418-70.441 24.526C395.14 401.69 331.107 415 255.573 415" mask="url(#g)"/>
            <path fill="#C5CBD8" d="M255.573 447c-75.533 0-139.607-13.288-180.058-24.436C31.65 410.477 5.262 398.202 5 398.08L6.875 394c.259.121 26.39 12.27 69.928 24.259 40.164 11.06 103.783 24.245 178.77 24.245 143.592 0 247.517-48.018 248.55-48.503l1.877 4.077c-.26.123-26.613 12.399-70.442 24.486C395.141 433.712 331.108 447 255.573 447" mask="url(#g)"/>
            <path fill="#C5CBD8" d="M255.573 479c-75.533 0-139.607-13.288-180.058-24.436C31.65 442.477 5.262 430.202 5 430.08L6.875 426c.259.121 26.39 12.27 69.928 24.259 40.164 11.06 103.783 24.245 178.77 24.245 143.592 0 247.517-48.018 248.55-48.503l1.877 4.077c-.26.123-26.613 12.399-70.442 24.486C395.141 465.712 331.108 479 255.573 479" mask="url(#g)"/>
            <path fill="#E1E5F3" d="M369 501h6V250h-6zM136 500h6V249h-6zM252 508h6V268h-6zM486 472h6V206h-6zM19 472h6V206h-6z" mask="url(#g)"/>
            <path fill="#C5CBD8" d="M260.499 271H251.5c-.829 0-1.501-.653-1.501-1.458v-9.084c0-.804.672-1.458 1.501-1.458h8.998c.829 0 1.501.654 1.501 1.458v9.084c0 .805-.672 1.458-1.501 1.458M376.252 254.633l-8.325 2.31c-.967.27-1.927-.45-1.927-1.444v-8.883c0-1.062.714-1.995 1.748-2.282l8.19-2.273c1.037-.288 2.062.481 2.062 1.544v8.745a2.374 2.374 0 0 1-1.748 2.283M493.252 205.454l-7.689 4.321c-1.142.643-2.563-.17-2.563-1.465v-8.934c0-1.226.668-2.359 1.748-2.966l7.401-4.16c1.27-.714 2.851.189 2.851 1.63v8.608a3.408 3.408 0 0 1-1.748 2.966M134.714 254.637l8.307 2.305c.994.276 1.979-.463 1.979-1.482v-8.848c0-1.048-.706-1.97-1.728-2.253l-8.293-2.3c-.994-.277-1.979.462-1.979 1.481v8.862c0 1.04.7 1.953 1.714 2.235M17.648 205.295l7.78 4.472c1.136.654 2.572-.146 2.572-1.432v-8.733a3.56 3.56 0 0 0-1.804-3.08l-7.433-4.272c-1.221-.702-2.763.157-2.763 1.54v8.693a3.25 3.25 0 0 0 1.648 2.812M260.046 523h-8.092c-1.079 0-1.954-.855-1.954-1.909V507.91c0-1.054.875-1.909 1.954-1.909h8.092c1.079 0 1.954.855 1.954 1.909v13.182c0 1.054-.875 1.909-1.954 1.909M376.179 513.713l-8.033 1.267a1.879 1.879 0 0 1-2.146-1.868v-13.644c0-1.066.774-1.97 1.82-2.125l8.053-1.323a1.861 1.861 0 0 1 2.127 1.852v13.717c0 1.065-.775 1.97-1.821 2.124M493.304 483.055l-8.198 2.86c-1.034.348-2.106-.417-2.106-1.502v-14.228c0-1.061.683-2.005 1.696-2.344l7.807-2.741c1.227-.41 2.497.496 2.497 1.782v13.83a2.475 2.475 0 0 1-1.696 2.343M134.928 512.555l7.93 1.425a1.871 1.871 0 0 0 2.142-1.857v-13.158c0-1.368-1-2.529-2.349-2.727l-7.565-1.22a1.743 1.743 0 0 0-1.995 1.73L133 510.316a2.26 2.26 0 0 0 1.928 2.238M17.859 482.923l8.024 2.992a1.605 1.605 0 0 0 2.117-1.52v-14.632a2.728 2.728 0 0 0-1.859-2.585l-8.147-3.098A1.511 1.511 0 0 0 16 465.511v14.828c0 1.17.748 2.21 1.859 2.584" mask="url(#g)"/>
            <path fill="#A4B1DD" d="M259 322.5a3.5 3.5 0 1 1-7 0 3.5 3.5 0 0 1 7 0M259 352.5a3.5 3.5 0 1 1-7 0 3.5 3.5 0 0 1 7 0M259 382.5a3.5 3.5 0 1 1-7 0 3.5 3.5 0 0 1 7 0M259 413.5a3.5 3.5 0 1 1-7 0 3.5 3.5 0 0 1 7 0M259 444.5a3.5 3.5 0 1 1-7 0 3.5 3.5 0 0 1 7 0M259 476.5a3.5 3.5 0 1 1-7 0 3.5 3.5 0 0 1 7 0M376 310.5a3.5 3.5 0 1 1-7 0 3.5 3.5 0 0 1 7 0M376 341.5a3.5 3.5 0 1 1-7 0 3.5 3.5 0 0 1 7 0M376 372.5a3.5 3.5 0 1 1-7 0 3.5 3.5 0 0 1 7 0M376 402.5a3.5 3.5 0 1 1-7 0 3.5 3.5 0 0 1 7 0M376 434.5a3.5 3.5 0 1 1-7 0 3.5 3.5 0 0 1 7 0M376 466.5a3.5 3.5 0 1 1-7 0 3.5 3.5 0 0 1 7 0M143 310.5a3.5 3.5 0 1 1-7 0 3.5 3.5 0 0 1 7 0M143 341.5a3.5 3.5 0 1 1-7 0 3.5 3.5 0 0 1 7 0M143 372.5a3.5 3.5 0 1 1-7 0 3.5 3.5 0 0 1 7 0M143 402.5a3.5 3.5 0 1 1-7 0 3.5 3.5 0 0 1 7 0M143 434.5a3.5 3.5 0 1 1-7 0 3.5 3.5 0 0 1 7 0M143 465.5a3.5 3.5 0 1 1-7 0 3.5 3.5 0 0 1 7 0M26 273.5a3.5 3.5 0 1 1-7 0 3.5 3.5 0 0 1 7 0M26 306.5a3.5 3.5 0 1 1-7 0 3.5 3.5 0 0 1 7 0M26 338.5a3.5 3.5 0 1 1-7 0 3.5 3.5 0 0 1 7 0M26 370.5a3.5 3.5 0 1 1-7 0 3.5 3.5 0 0 1 7 0M26 402.5a3.5 3.5 0 1 1-7 0 3.5 3.5 0 0 1 7 0M26 434.5a3.5 3.5 0 1 1-7 0 3.5 3.5 0 0 1 7 0M492 273.5a3.5 3.5 0 1 1-7 0 3.5 3.5 0 0 1 7 0M492 306.5a3.5 3.5 0 1 1-7 0 3.5 3.5 0 0 1 7 0M492 338.5a3.5 3.5 0 1 1-7 0 3.5 3.5 0 0 1 7 0M492 370.5a3.5 3.5 0 1 1-7 0 3.5 3.5 0 0 1 7 0M492 402.5a3.5 3.5 0 1 1-7 0 3.5 3.5 0 0 1 7 0M492 434.5a3.5 3.5 0 1 1-7 0 3.5 3.5 0 0 1 7 0" mask="url(#g)"/>
        </g>
    </g>
</svg>
