<?xml version="1.0" encoding="UTF-8"?>
<svg width="683px" height="683px" viewBox="0 0 683 683" version="1.1" xmlns="http://www.w3.org/2000/svg" xmlns:xlink="http://www.w3.org/1999/xlink">
    <!-- Generator: sketchtool 51.3 (57544) - http://www.bohemiancoding.com/sketch -->
    <title>014733F0-3A58-496B-8CDD-F3CC7F03A968</title>
    <desc>Created with sketchtool.</desc>
    <defs>
        <path d="M1,25.2545604 C1,38.8090284 10.3253059,48.3822754 20.523428,48.9748794 C29.5510429,49.4974483 31.8260018,41.865428 32.633643,26.2269696 C33.6359285,6.79943751 33.4412843,1.53603719 20.523428,1.0116725 C20.3375913,1.00359154 20.1543968,1 19.9703215,1 C9.98269692,1.00089788 1,11.9461128 1,25.2545604" id="path-1"></path>
        <radialGradient cx="196.791663%" cy="161.519337%" fx="196.791663%" fy="161.519337%" r="240.036538%" gradientTransform="translate(1.967917,1.615193),scale(1.000000,0.666667),rotate(-132.571477),translate(-1.967917,-1.615193)" id="radialGradient-3">
            <stop stop-color="#FFE8E8" offset="0%"></stop>
            <stop stop-color="#FDACAC" offset="100%"></stop>
        </radialGradient>
        <polygon id="path-4" points="1 8.48210391e-14 505 8.48210391e-14 505 59 1 59"></polygon>
        <polygon id="path-6" points="0 523 507 523 507 1 0 1"></polygon>
    </defs>
    <g id="Symbols" stroke="none" stroke-width="1" fill="none" fill-rule="evenodd">
        <g id="Иллюстрация-/-Вклад-универсальный">
            <g id="Вклад-универсальный">
                <rect id="Rectangle-8-Copy-6" fill-rule="nonzero" x="0" y="0" width="683" height="683"></rect>
                <g id="Group-460" transform="translate(87.000000, 80.000000)">
                    <g id="Group-47" transform="translate(0.000000, -0.000000)">
                        <path d="M10.3068591,224 L283.987117,224 C289.762837,224 297.315701,219.562157 292.428554,206.248626 C290.301312,200.454578 284.554915,197.488323 280.168033,196.024723 C276.90253,194.936563 274.304345,192.423856 273.102107,189.201094 C271.171239,184.021244 267.043821,176.430756 258.662807,172.077232 C253.109231,169.192633 247.99994,168.194119 244.2786,167.91631 C240.745636,167.653589 237.753813,165.241178 236.620884,161.888831 C234.735333,156.312237 230.859381,148.303704 223.338506,143.676809 C220.152085,141.71617 217.707623,138.761453 216.571139,135.200528 C214.166663,127.660632 210.847845,119.202102 196.018463,111.278777 C176.914159,101.071737 159.142714,99.7403836 143.592699,105.065796 C131.354393,109.256895 121.822678,118.379326 117.379817,125.036091 C111.444154,133.928642 104.051233,138.793406 93.3883659,135.243131 C82.5842158,131.645815 72.5069177,130.361503 59.1783337,135.243131 C49.1339128,138.922103 41.9480289,148.277965 38.9828632,152.957227 C37.5647019,155.194788 35.703143,157.110161 33.5368038,158.637667 C29.1019396,161.765459 21.3704724,168.696483 16.5268649,181.396703 C14.5213573,186.655547 13.6452251,191.425342 13.2640276,194.693369 C12.9565816,197.325011 11.3713686,199.618488 9.01665214,200.839783 C4.91855685,202.966397 -0.778079949,207.161934 0.0882780102,213.79296 C1.30029058,223.076041 10.3068591,224 10.3068591,224" id="Fill-1" fill="#E1E5F3"></path>
                        <path d="M401.254917,128.698276 C394.744727,124.778873 386.592326,122.457189 384.370722,114.432934 C382.149117,106.408679 385.259363,101.059176 381.704796,89.914378 C377.932511,78.0866265 367.042205,65.3958218 360.377391,60.4921106 C351.528296,53.9808736 334.162456,35.5277624 299.505424,43.1062253 C294.013617,44.3071887 288.3974,45.3351849 281.288265,41.3230575 C274.179131,37.3109302 267.514317,23.0455884 253.296047,12.7923739 C242.958476,5.33784126 231.524321,-0.135592072 211.085558,1.20178372 C188.845518,2.65684859 181.760377,6.5512869 173.318279,14.1297497 C164.876181,21.7082126 160.432972,35.0819705 144.437418,39.0940979 C128.441865,43.1062253 114.379996,48.2239166 104.448535,60.9379025 C91.5632276,77.432204 94.6734742,90.8059619 90.2302648,98.8302167 C85.7870555,106.854471 76.011995,108.637639 70.2358229,123.794565 C68.977506,127.0961 68.2248264,130.496601 68,133.784762 C77.1467907,132.129091 84.9615072,133.52442 93.1921082,136.276739 C103.855811,139.843074 111.250199,134.956303 117.185438,126.023524 C121.628648,119.336646 131.161109,110.172947 143.400373,105.962888 C158.951606,100.613384 176.725332,101.95076 195.831132,112.203975 C210.661676,120.163144 213.979865,128.659938 216.385418,136.233943 C217.521103,139.810977 219.966645,142.77906 223.152426,144.748569 C227.46856,147.415296 230.578806,151.20007 232.806631,155 L398.588991,155 C398.588991,155 408.364052,155 409.697015,148.313121 C411.029977,141.626242 407.919731,132.710403 401.254917,128.698276" id="Fill-3" fill="#E1E5F3"></path>
                        <path d="M298,272 L295.432353,275.917476 C294.002059,278.099545 291.553529,279.460029 288.886176,279.557389 L276.831471,279.995511 C274.787059,280.069813 272.824706,279.218336 271.521471,277.692169 L268.18,273.776401 L268,273.566307 L298,272 Z" id="Fill-5" fill="#E09595"></path>
                        <path d="M255.600444,275 C181.595242,275 117.178467,255.867015 76.1723169,239.81562 C31.7057288,222.411288 5.11022026,205.24613 4,204.524147 L8.83110257,197.03302 C9.09776877,197.206153 35.9430547,214.514994 79.6336441,231.591801 C119.879795,247.323703 183.078795,266.075617 255.600444,266.075617 C326.394097,266.075617 389.734429,247.27105 430.406358,231.495418 C474.460502,214.408794 502.000898,197.172241 502.274675,197 L507,204.55806 C505.856002,205.27915 478.45605,222.42646 433.609907,239.820975 C392.233092,255.8688 327.763872,275 255.600444,275" id="Fill-7" fill="#A4B1DD"></path>
                        <path d="M262.653183,253 C262.653183,253 277.190197,253.518492 279.761014,253.781768 C282.333634,254.045043 284.587155,254.641444 286.540507,255.984687 C288.492958,257.327931 293,260.163965 293,260.163965 L261,263 L262.653183,253 Z" id="Fill-9" fill="#FFAEAE"></path>
                        <path d="M297,487.545996 C297,487.545996 302.679885,496.161576 305.629056,497.944048 C307.668572,499.176627 322.597931,479.630929 318.19034,480.119326 C316.124609,480.348374 314.131407,479.919689 312.810178,478.326159 L311.709154,477 L297,487.545996 Z" id="Fill-11" fill="#FFAEAE"></path>
                        <path d="M262,268.916375 C262,269.353875 266.111616,274.166375 270.957104,275.1875 C275.802591,276.208625 277.41746,275.1875 281.235704,277.083625 C285.053067,278.978875 285.346439,280 287.255561,280 C288.577058,280 290.339053,276.9375 287.402688,273.875 C285.172883,271.54925 283.291071,271.978875 281.529076,270.666375 C279.767081,269.353875 276.683589,266 276.683589,266 L262,268.916375 Z" id="Fill-13" fill="#FFAEAE"></path>
                        <path d="M346.901722,469.581875 C342.777491,471.633029 337.51052,474.807162 331.266099,476.633545 C328.01925,477.582876 321.409402,479.989259 317.351288,480.457313 C315.191785,482.236979 313.654133,488.029926 310.493057,490.516521 C307.331981,493.003116 305.216257,490.676065 301,493.160897 C303.568709,496.466368 307.985103,502.303388 309.078703,503.28974 C311.35525,505.344421 315.913704,505.699649 319.874431,503.518038 C323.835157,501.336428 331.284861,495.30725 338.264603,489.121172 C345.708947,482.523453 349.830497,477.32549 351.145676,475.090992 C353.348066,471.348318 351.064371,467.511328 346.901722,469.581875" id="Fill-15" fill="#2474CD"></path>
                        <path d="M84.3179728,437 C84.3179728,437 80.1276587,441.688424 76.0448553,444.37104 C72.6660732,446.591317 77.616765,456.998318 88.9417976,460 C89.0345689,457.510758 89.9536115,456.484121 91.2541435,455.165667 L94,452.821455 L84.3179728,437 Z" id="Fill-17" fill="#FFAEAE"></path>
                        <path d="M100.518719,485.104054 C96.5426112,480.413774 92.1008255,477.822011 91.0026455,474.122673 C89.8134709,470.11617 89.9624523,465.071537 88.7723856,460.322495 C75.0937553,454.535323 75.7485597,451.838501 76.7289819,444 C73.4585288,445.929354 70.5190462,445.989897 68.4029755,447.116169 C63.9424557,449.49069 63.3402855,453.148183 64.537489,457.206326 C65.3876641,460.088337 72.0124282,476.934348 73.3086553,479.104983 C74.6057745,481.274727 75.9430383,483.586034 78.5131899,485.251849 C81.0842335,486.917664 89.556545,488.806063 93.3399579,489.691945 C99.5882542,491.155655 102.153945,487.032517 100.518719,485.104054" id="Fill-19" fill="#2474CD"></path>
                        <path d="M175.629694,300 C175.629694,300 168.014994,323.75868 161.731802,342.384785 C156.11392,359.041559 153.822591,371.218038 147.908424,376.664706 C141.622571,382.453129 133.105709,384.747262 118.26485,398.451378 C104.736871,410.943736 79.8010338,441.838228 79,443.345342 C79.824985,447.231357 84.3606283,453.765753 91.1902621,458.577095 C92.0454079,459.180298 93.147162,459.113374 94.0182752,458.534264 C112.351571,446.339046 137.407163,426.791183 152.860995,418.380258 C163.624832,412.522234 175.760095,406.882827 187.0136,391.461904 C191.013446,385.980436 196.624231,375.792918 212,343.723252 L175.629694,300 Z" id="Fill-21" fill="#2B2B51"></path>
                        <path d="M172.203045,275 C172.203045,275 168.05404,292.504409 175.166113,306.016897 C182.278186,319.529384 189.7752,319.699538 196.799261,328.742606 C206.578361,341.334841 223.136156,368.430194 228.766251,376.722272 C234.735058,385.512338 237.097155,398.834183 244.768415,416.645936 C256.918502,444.855749 288.939722,479.377269 295.831321,488.927234 C296.556752,489.932119 297.845815,490.273316 298.955299,489.769983 C303.324778,487.78694 311.493883,482.957615 314,478.411582 C314,478.411582 304.77653,458.367346 295.775313,438.32311 C286.479834,417.624986 278.254721,398.066266 277.068783,392.690847 C274.698685,381.942682 271.843188,370.537957 269.067701,363.516238 C256.029493,330.529661 231.173687,275.921144 231.173687,275.921144 L172.203045,275 Z" id="Fill-23" fill="#42426C"></path>
                        <path d="M280.453574,157 C280.453574,157 278.101455,155.52626 279.381338,152.308185 C280.223875,150.18974 281.946618,146.519464 282.865415,144.58989 C283.764917,142.702086 285.162407,141.865787 287,142.017428 L280.453574,157 Z" id="Fill-25" fill="#FFAEAE"></path>
                        <path d="M279.375022,192 C287.250038,180.655538 291.478921,174.467489 294.395302,169.752196 C295.231803,168.401433 296.000055,166.805801 296.29143,164.890157 C296.454181,163.822277 297.317807,158.1443 296.875057,155.755713 C296.437556,153.398066 292.850049,145.403991 292.353923,145 L268,186.106325 C268,186.106325 276.057016,190.415859 279.375022,192" id="Fill-27" fill="#FFAEAE"></path>
                        <path d="M277,176.089707 L280.716281,178 L296.719508,143.277613 C297.23426,142.003785 297.013526,141.14258 296.27804,140.805469 C295.569924,140.480944 294.529825,140 294.529825,140 C293.943555,140 277,176.089707 277,176.089707" id="Fill-29" fill="#42426C"></path>
                        <path d="M272.799023,174.938603 L278.643517,177 L294.757471,142.246066 C295.310591,140.99403 294.85836,140 293.999032,140 L288.668719,140.089242 C288.081083,140.089242 287.544777,140.427654 287.294324,140.958687 L272.098109,173.506316 C271.819336,174.097433 272.160058,174.795463 272.799023,174.938603" id="Fill-31" fill="#FF7E59"></path>
                        <path d="M271.672881,185.359175 C271.672881,185.359175 269.781712,177.290273 272.340353,171.435409 C274.299159,166.952385 277.08741,165.43012 279.015068,161.977552 C280.943615,158.524083 280.989893,155.042691 284.058482,152.144083 C285.727161,150.567774 287.480386,149.511196 289.064519,150.229993 C290.139593,150.718199 290.288216,151.768471 289.5095,153.495206 C288.705864,155.276886 287.580952,157.229708 286.839614,160.532752 C286.098275,163.834895 286.415102,170.664368 285.615916,173.311667 C284.392218,177.365035 283.391011,181.231046 279.831163,184.045885 C277.201325,186.124812 278.051239,189 278.051239,189 L271.672881,185.359175 Z" id="Fill-33" fill="#FFAEAE"></path>
                        <path d="M163.198491,157 C163.198491,157 154.839305,157.296185 148.569692,159.519798 C141.854936,161.900842 137.635487,164.030173 136.179145,169.45223 C134.985232,173.899455 132,184.424258 132,211.256145 C132,240.905794 136.77655,259.879435 140.060931,263.881937 C143.344417,267.88444 151.405349,274.258203 170.214188,275 C170.214188,275 178.424695,253.356245 176.782952,233.640807 C175.140313,213.92448 174.095975,167.969525 174.095975,167.969525 L163.198491,157 Z" id="Fill-35" fill="#42426C"></path>
                        <path d="M245.334615,244 C245.334615,244 250.537494,246.238337 253.880745,248.36602 C254.755133,248.921901 255.673862,249.394139 256.641365,249.772277 C259.041057,250.710653 260.856345,251.431208 262.612217,252.131723 C263.519417,252.493307 264.069236,253.388119 263.992971,254.346535 C263.796987,256.79398 263.097298,261.595644 260.594738,266 L230,264.402931 L233.843408,252.49505 L245.334615,244 Z" id="Fill-37" fill="#23529D"></path>
                        <path d="M263.992579,254.212397 C264.072381,253.243831 263.502757,252.338719 262.564392,251.972092 C260.7482,251.264395 258.870551,250.535546 256.388422,249.585488 C255.387682,249.202996 254.437391,248.725323 253.532964,248.163043 C253.444907,248.109283 253.351345,248.054642 253.26237,248 C253.063323,254.36134 250.905907,260.085488 248,265.36369 L260.477605,266 C263.066138,261.544947 263.789863,256.688014 263.992579,254.212397" id="Fill-39" fill="#23478D"></path>
                        <path d="M187,139.007543 C191.501608,140.641304 213.259678,150 213.259678,150 C213.259678,150 213.259678,146.880435 213.709839,143.76087 C214.027653,141.554891 218.173633,141.866848 222,141.588761 C220.649518,138.172391 208.607717,109 208.607717,109 L194.052219,110.189 C194.052219,110.189 192.102122,127.569435 187,139.007543" id="Fill-41" fill="#FFAEAE"></path>
                        <path d="M424.322326,175.557824 C417.643396,175.557824 411.865677,169.75559 413.190776,162.73472 C415.862348,148.585088 430.110732,151.68032 433.227566,145.04768 C438.280399,134.295728 444.364459,129.714784 453.709617,130.013695 C467.512739,130.455871 471.520097,140.183743 474.636931,146.374208 C477.068061,151.201885 481.31586,154.333376 487.104266,156.986432 C492.892672,159.639488 494.67372,164.9456 493.783196,168.483008 C492.70299,172.773 489.775838,176 482.206384,176 C474.636931,176 431.001256,175.557824 424.322326,175.557824" id="Fill-43" fill="#E1E5F3"></path>
                        <path d="M170.799247,287.606957 C170.799247,287.606957 176.576584,290.301483 200.926599,289.972085 C216.824058,289.757074 228.941701,287.391945 234.611424,285.510163 C234.990295,285.384596 235.111249,284.596793 234.888907,284.113447 C234.274353,282.775214 233.240018,280.726583 232.610345,279.185379 C232.170997,278.11118 232.591668,277.626974 232.591668,277.626974 L170.058404,277 L170.069076,277.013761 C170.585799,277.657076 170.914865,278.437138 170.935321,279.251602 C170.945993,279.673025 170.900635,280.097028 170.799247,280.511571 L170.02105,285.45684 C170.02105,285.45684 169.798708,286.854416 170.799247,287.606957" id="Fill-45" fill="#245EAD"></path>
                    </g>
                    <g id="Group-50" transform="translate(200.000000, 94.000000)">
                        <mask id="mask-2" fill="white">
                            <use xlink:href="#path-1"></use>
                        </mask>
                        <g id="Clip-49"></g>
                        <path d="M1,25.2545604 C1,38.8090284 10.3253059,48.3822754 20.523428,48.9748794 C29.5510429,49.4974483 31.8260018,41.865428 32.633643,26.2269696 C33.6359285,6.79943751 33.4412843,1.53603719 20.523428,1.0116725 C20.3375913,1.00359154 20.1543968,1 19.9703215,1 C9.98269692,1.00089788 1,11.9461128 1,25.2545604" id="Fill-48" fill="url(#radialGradient-3)" mask="url(#mask-2)"></path>
                    </g>
                    <g id="Group-459" transform="translate(0.000000, -0.000000)">
                        <path d="M206.711271,120.420465 C206.711271,120.420465 208.769533,120.868666 210.240224,119.075861 C211.710916,117.283055 212.004701,114.295345 211.269797,112.054338 C210.623998,110.084941 208.623082,107.272926 209.651772,106.526222 C210.681344,105.779519 213.180725,107.422625 214.945201,105.031919 C216.709678,102.642109 215.38632,101.745706 216.122107,101.147806 C216.857012,100.549905 219.503726,102.49241 225.970533,102.430558 C226.89953,102.421594 227.812646,102.606253 228.657831,102.998877 C229.602708,103.438115 230.972824,103.921276 232.296181,103.837014 C234.209756,103.715103 236.853824,100.549905 237.736063,96.964294 C238.631534,93.3293809 237.148492,90.0924706 234.795562,89.1960678 C233.281642,88.6187844 230.1594,89.2014462 228.031442,88.0002665 C225.385609,86.5068596 224.503371,84.2658527 219.65106,82.4730472 C215.322799,80.8729683 211.710916,81.1284431 207.59351,80.6802417 C203.476104,80.2320403 201.417842,79.4844404 197.888889,80.5305424 C194.605198,81.5031394 191.863201,83.3309046 189.80141,88.1499658 C188.331601,91.5858775 189.169728,94.7492828 189.066506,96.2175905 C188.919172,98.3088981 187.302029,98.6082967 186.713576,100.849304 C186.114537,103.131545 186.419791,104.733417 185.831338,106.22772 C185.243767,107.721127 184.655314,109.663632 185.243767,112.35284 C185.908975,115.39792 187.890482,115.788752 188.036934,117.133356 C188.184268,118.47796 187.743148,119.822564 188.919172,121.765069 C190.402215,124.212248 192.475475,126.362719 195.535959,125.94858 C197.741555,125.649182 199.064912,118.627659 199.064912,118.627659 L206.711271,120.420465 Z" id="Fill-51" fill="#423748"></path>
                        <path d="M207.231247,118.135422 C208.353571,122.092127 208.47787,124.23563 206.021823,124.908339 C203.564868,125.581048 200.426535,122.458744 198.763464,118.567754 C197.140313,114.771877 198.249935,112.673337 200.728665,112.082771 C202.543254,111.650438 205.718786,112.803036 207.231247,118.135422" id="Fill-53" fill="#FFAEAE"></path>
                        <path d="M186,139.768582 L189.204564,132.433432 C189.383679,132.022064 189.882895,131.873214 190.252653,132.119493 L213.533178,147.622453 C213.792983,147.794758 213.994266,148.043744 214.113085,148.336031 L216,153 L186,139.768582 Z" id="Fill-55" fill="#FF7E59"></path>
                        <path d="M168.440135,136.495069 C163.445128,143.415171 160.241556,155.671954 160.241556,155.671954 C159.568432,157.247342 160.41607,158.575487 161.385689,159.987535 L170.289445,174.417728 C170.289445,174.417728 168.212199,190.633063 169.695564,207.145625 C171.179821,223.658186 172.960572,229.310837 172.811879,235.707893 C172.664077,242.104056 167.914813,261.592448 167.914813,266.20347 C167.914813,270.815383 166.727943,275.87269 170.58594,277.95595 C174.444828,280.038318 185.425831,282.716031 204.568906,281.82346 C223.711982,280.930889 230.686294,278.253176 231.687967,277.918462 C232.731487,277.57036 233.691312,275.798607 233.913906,265.757184 C234.195265,253.094281 235.880746,207.889136 234.39649,196.582941 C232.912233,185.277638 230.093304,178.583356 225.641426,169.805814 C225.344041,169.359529 224.602358,167.872506 224.305863,165.641078 C224.008477,163.409651 224.126007,161.049694 223.860675,159.541249 C223.415487,157.012596 222.079924,155.673739 219.705292,154.334883 C218.671566,153.752034 209.31906,148.152045 198.632772,143.921259 C188.03196,139.725283 178.00455,136.594144 173.109265,135.293669 C171.748771,134.932177 169.844257,134.549264 168.440135,136.495069" id="Fill-57" fill="#2469BD"></path>
                        <path d="M168.342155,182 L186.04037,162.986986 L212.587691,162.685494 C212.587691,162.685494 213.762853,162.094279 212.145236,160.422039 C210.640888,158.865688 206.555255,156.297121 201.083852,154.38586 C195.037257,152.273605 187.810191,152.423898 181.173361,155.895131 C175.471881,158.876553 162,166.910004 162,166.910004 L168.342155,182 Z" id="Fill-59" fill="#42426C"></path>
                        <path d="M171.61728,229.010947 C171.61728,229.010947 173.106927,229.896746 176.23456,227.830177 C179.362193,225.762723 195.893967,211 195.893967,211 L202,223.548226 L167,264 L171.61728,229.010947 Z" id="Fill-61" fill="#42426C"></path>
                        <path d="M190.80473,158.386379 C185.924146,160.472299 176.31117,167.327314 181.487251,185.05987 C187.732624,206.453739 209.883376,239.748886 219.940041,251.372101 C229.996706,262.995316 240.054259,253.010974 240.054259,253.010974 C240.054259,253.010974 250.472087,243.52196 261.646849,226.78453 C272.591781,210.393114 276.880483,203.835833 278.803433,198.620586 C279.652655,196.316507 283.979514,190.871477 282.796638,188.934871 C281.612875,186.99737 273.03547,181.335076 269.18957,180.440983 C267.893109,180.138779 264.013489,186.40101 262.977918,187.593731 C261.943234,188.785557 259.872091,189.08329 249.519042,200.111039 C239.16688,211.137894 237.095737,213.075395 237.095737,213.075395 C237.095737,213.075395 231.608186,201.60507 228.665638,191.467838 C224.081438,175.671888 220.934793,169.056491 213.432892,162.707533 C206.038363,156.448879 196.650782,155.887388 190.80473,158.386379" id="Fill-63" fill="#2474CD"></path>
                        <path d="M283.795572,189.508385 C282.608407,187.569989 274.006357,181.905075 270.149407,181.010568 C268.876809,180.715381 265.134659,186.690688 264,188.068229 C268.221821,190.999529 275.34125,195.173299 279.875436,199 C280.878386,196.599143 284.950699,191.394901 283.795572,189.508385" id="Fill-65" fill="#2469BD"></path>
                        <g id="Group-69" transform="translate(3.000000, 462.000000)">
                            <mask id="mask-5" fill="white">
                                <use xlink:href="#path-4"></use>
                            </mask>
                            <g id="Clip-68"></g>
                            <path d="M253.07206,59 C177.159088,59 112.76326,46.358429 72.1089725,35.7541656 C27.947766,24.2352295 2.07912054,12.845932 1,12.3669891 L6.35734862,8.48210391e-14 C7.38487065,0.45463562 110.69843,45.4959717 253.07206,45.4959717 C395.625395,45.4959717 498.609792,0.457336426 499.633755,0.00180053711 L505,12.3660889 C503.921769,12.8450317 478.088709,24.2343292 433.962198,35.7541656 C393.341717,46.358429 328.985921,59 253.07206,59" id="Fill-67" fill="#C5CBD8" mask="url(#mask-5)"></path>
                        </g>
                        <mask id="mask-7" fill="white">
                            <use xlink:href="#path-6"></use>
                        </mask>
                        <g id="Clip-71"></g>
                        <polygon id="Fill-70" fill="#2474CD" mask="url(#mask-7)" points="255 445 256 445 256 414 255 414"></polygon>
                        <polygon id="Fill-72" fill="#2474CD" mask="url(#mask-7)" points="258 444 259 444 259 413 258 413"></polygon>
                        <polygon id="Fill-73" fill="#2474CD" mask="url(#mask-7)" points="261 443 262 443 262 412 261 412"></polygon>
                        <polygon id="Fill-74" fill="#2474CD" mask="url(#mask-7)" points="264 442 265 442 265 411 264 411"></polygon>
                        <polygon id="Fill-75" fill="#2474CD" mask="url(#mask-7)" points="267 441 268 441 268 410 267 410"></polygon>
                        <polygon id="Fill-76" fill="#2474CD" mask="url(#mask-7)" points="270 440 271 440 271 409 270 409"></polygon>
                        <polygon id="Fill-77" fill="#2474CD" mask="url(#mask-7)" points="272 439 273 439 273 408 272 408"></polygon>
                        <polygon id="Fill-78" fill="#2474CD" mask="url(#mask-7)" points="275 438 276 438 276 407 275 407"></polygon>
                        <polygon id="Fill-79" fill="#2474CD" mask="url(#mask-7)" points="278 437 279 437 279 406 278 406"></polygon>
                        <polygon id="Fill-80" fill="#2474CD" mask="url(#mask-7)" points="281 436 282 436 282 405 281 405"></polygon>
                        <polygon id="Fill-81" fill="#2474CD" mask="url(#mask-7)" points="284 435 285 435 285 404 284 404"></polygon>
                        <polygon id="Fill-82" fill="#2474CD" mask="url(#mask-7)" points="287 434 288 434 288 403 287 403"></polygon>
                        <polygon id="Fill-83" fill="#2474CD" mask="url(#mask-7)" points="289 433 290 433 290 402 289 402"></polygon>
                        <polygon id="Fill-84" fill="#2474CD" mask="url(#mask-7)" points="292 432 293 432 293 401 292 401"></polygon>
                        <polygon id="Fill-85" fill="#2474CD" mask="url(#mask-7)" points="295 431 296 431 296 400 295 400"></polygon>
                        <polygon id="Fill-86" fill="#2474CD" mask="url(#mask-7)" points="298 430 299 430 299 399 298 399"></polygon>
                        <polygon id="Fill-87" fill="#2474CD" mask="url(#mask-7)" points="301 429 302 429 302 398 301 398"></polygon>
                        <polygon id="Fill-88" fill="#2474CD" mask="url(#mask-7)" points="304 428 305 428 305 397 304 397"></polygon>
                        <polygon id="Fill-89" fill="#2474CD" mask="url(#mask-7)" points="307 427 308 427 308 396 307 396"></polygon>
                        <polygon id="Fill-90" fill="#2474CD" mask="url(#mask-7)" points="309 426 310 426 310 395 309 395"></polygon>
                        <polygon id="Fill-91" fill="#2474CD" mask="url(#mask-7)" points="312 425 313 425 313 394 312 394"></polygon>
                        <polygon id="Fill-92" fill="#2474CD" mask="url(#mask-7)" points="315 424 316 424 316 393 315 393"></polygon>
                        <polygon id="Fill-93" fill="#2474CD" mask="url(#mask-7)" points="318 423 319 423 319 392 318 392"></polygon>
                        <polygon id="Fill-94" fill="#2474CD" mask="url(#mask-7)" points="321 422 322 422 322 391 321 391"></polygon>
                        <polygon id="Fill-95" fill="#2474CD" mask="url(#mask-7)" points="324 421 325 421 325 390 324 390"></polygon>
                        <polygon id="Fill-96" fill="#2474CD" mask="url(#mask-7)" points="327 420 328 420 328 389 327 389"></polygon>
                        <polygon id="Fill-97" fill="#2474CD" mask="url(#mask-7)" points="329 419 330 419 330 388 329 388"></polygon>
                        <polygon id="Fill-98" fill="#2474CD" mask="url(#mask-7)" points="332 418 333 418 333 387 332 387"></polygon>
                        <polygon id="Fill-99" fill="#2474CD" mask="url(#mask-7)" points="335 417 336 417 336 386 335 386"></polygon>
                        <polygon id="Fill-100" fill="#2474CD" mask="url(#mask-7)" points="338 416 339 416 339 385 338 385"></polygon>
                        <polygon id="Fill-101" fill="#2474CD" mask="url(#mask-7)" points="341 415 342 415 342 384 341 384"></polygon>
                        <polygon id="Fill-102" fill="#2474CD" mask="url(#mask-7)" points="344 414 345 414 345 383 344 383"></polygon>
                        <polygon id="Fill-103" fill="#2474CD" mask="url(#mask-7)" points="346 413 347 413 347 382 346 382"></polygon>
                        <polygon id="Fill-104" fill="#2474CD" mask="url(#mask-7)" points="349 412 350 412 350 381 349 381"></polygon>
                        <polygon id="Fill-105" fill="#2474CD" mask="url(#mask-7)" points="352 411 353 411 353 380 352 380"></polygon>
                        <polygon id="Fill-106" fill="#2474CD" mask="url(#mask-7)" points="355 410 356 410 356 379 355 379"></polygon>
                        <polygon id="Fill-107" fill="#2474CD" mask="url(#mask-7)" points="358 409 359 409 359 378 358 378"></polygon>
                        <polygon id="Fill-108" fill="#2474CD" mask="url(#mask-7)" points="361 408 362 408 362 377 361 377"></polygon>
                        <polygon id="Fill-109" fill="#2474CD" mask="url(#mask-7)" points="364 407 365 407 365 376 364 376"></polygon>
                        <polygon id="Fill-110" fill="#2474CD" mask="url(#mask-7)" points="366 406 367 406 367 375 366 375"></polygon>
                        <polygon id="Fill-111" fill="#2474CD" mask="url(#mask-7)" points="369 405 370 405 370 374 369 374"></polygon>
                        <polygon id="Fill-112" fill="#2474CD" mask="url(#mask-7)" points="372 404 373 404 373 373 372 373"></polygon>
                        <polygon id="Fill-113" fill="#2474CD" mask="url(#mask-7)" points="138 465 139 465 139 434 138 434"></polygon>
                        <polygon id="Fill-114" fill="#2474CD" mask="url(#mask-7)" points="141 464 142 464 142 433 141 433"></polygon>
                        <polygon id="Fill-115" fill="#2474CD" mask="url(#mask-7)" points="144 464 145 464 145 433 144 433"></polygon>
                        <polygon id="Fill-116" fill="#2474CD" mask="url(#mask-7)" points="147 463 148 463 148 432 147 432"></polygon>
                        <polygon id="Fill-117" fill="#2474CD" mask="url(#mask-7)" points="150 463 151 463 151 432 150 432"></polygon>
                        <polygon id="Fill-118" fill="#2474CD" mask="url(#mask-7)" points="153 462 154 462 154 431 153 431"></polygon>
                        <polygon id="Fill-119" fill="#2474CD" mask="url(#mask-7)" points="156 461 157 461 157 430 156 430"></polygon>
                        <polygon id="Fill-120" fill="#2474CD" mask="url(#mask-7)" points="158 461 159 461 159 430 158 430"></polygon>
                        <polygon id="Fill-121" fill="#2474CD" mask="url(#mask-7)" points="161 460 162 460 162 429 161 429"></polygon>
                        <polygon id="Fill-122" fill="#2474CD" mask="url(#mask-7)" points="164 460 165 460 165 429 164 429"></polygon>
                        <polygon id="Fill-123" fill="#2474CD" mask="url(#mask-7)" points="167 459 168 459 168 428 167 428"></polygon>
                        <polygon id="Fill-124" fill="#2474CD" mask="url(#mask-7)" points="170 459 171 459 171 428 170 428"></polygon>
                        <polygon id="Fill-125" fill="#2474CD" mask="url(#mask-7)" points="173 458 174 458 174 427 173 427"></polygon>
                        <polygon id="Fill-126" fill="#2474CD" mask="url(#mask-7)" points="176 458 177 458 177 427 176 427"></polygon>
                        <polygon id="Fill-127" fill="#2474CD" mask="url(#mask-7)" points="178 457 179 457 179 426 178 426"></polygon>
                        <polygon id="Fill-128" fill="#2474CD" mask="url(#mask-7)" points="181 457 182 457 182 426 181 426"></polygon>
                        <polygon id="Fill-129" fill="#2474CD" mask="url(#mask-7)" points="184 456 185 456 185 425 184 425"></polygon>
                        <polygon id="Fill-130" fill="#2474CD" mask="url(#mask-7)" points="187 456 188 456 188 425 187 425"></polygon>
                        <polygon id="Fill-131" fill="#2474CD" mask="url(#mask-7)" points="190 455 191 455 191 424 190 424"></polygon>
                        <polygon id="Fill-132" fill="#2474CD" mask="url(#mask-7)" points="193 455 194 455 194 424 193 424"></polygon>
                        <polygon id="Fill-133" fill="#2474CD" mask="url(#mask-7)" points="196 454 197 454 197 423 196 423"></polygon>
                        <polygon id="Fill-134" fill="#2474CD" mask="url(#mask-7)" points="198 454 199 454 199 423 198 423"></polygon>
                        <polygon id="Fill-135" fill="#2474CD" mask="url(#mask-7)" points="201 453 202 453 202 422 201 422"></polygon>
                        <polygon id="Fill-136" fill="#2474CD" mask="url(#mask-7)" points="204 453 205 453 205 422 204 422"></polygon>
                        <polygon id="Fill-137" fill="#2474CD" mask="url(#mask-7)" points="207 452 208 452 208 421 207 421"></polygon>
                        <polygon id="Fill-138" fill="#2474CD" mask="url(#mask-7)" points="210 452 211 452 211 421 210 421"></polygon>
                        <polygon id="Fill-139" fill="#2474CD" mask="url(#mask-7)" points="213 451 214 451 214 420 213 420"></polygon>
                        <polygon id="Fill-140" fill="#2474CD" mask="url(#mask-7)" points="216 451 217 451 217 420 216 420"></polygon>
                        <polygon id="Fill-141" fill="#2474CD" mask="url(#mask-7)" points="218 450 219 450 219 419 218 419"></polygon>
                        <polygon id="Fill-142" fill="#2474CD" mask="url(#mask-7)" points="221 450 222 450 222 419 221 419"></polygon>
                        <polygon id="Fill-143" fill="#2474CD" mask="url(#mask-7)" points="224 449 225 449 225 418 224 418"></polygon>
                        <polygon id="Fill-144" fill="#2474CD" mask="url(#mask-7)" points="227 449 228 449 228 418 227 418"></polygon>
                        <polygon id="Fill-145" fill="#2474CD" mask="url(#mask-7)" points="230 448 231 448 231 417 230 417"></polygon>
                        <polygon id="Fill-146" fill="#2474CD" mask="url(#mask-7)" points="233 448 234 448 234 417 233 417"></polygon>
                        <polygon id="Fill-147" fill="#2474CD" mask="url(#mask-7)" points="236 447 237 447 237 416 236 416"></polygon>
                        <polygon id="Fill-148" fill="#2474CD" mask="url(#mask-7)" points="238 447 239 447 239 416 238 416"></polygon>
                        <polygon id="Fill-149" fill="#2474CD" mask="url(#mask-7)" points="241 446 242 446 242 415 241 415"></polygon>
                        <polygon id="Fill-150" fill="#2474CD" mask="url(#mask-7)" points="244 446 245 446 245 415 244 415"></polygon>
                        <polygon id="Fill-151" fill="#2474CD" mask="url(#mask-7)" points="247 445 248 445 248 414 247 414"></polygon>
                        <polygon id="Fill-152" fill="#2474CD" mask="url(#mask-7)" points="250 445 251 445 251 414 250 414"></polygon>
                        <polygon id="Fill-153" fill="#2474CD" mask="url(#mask-7)" points="253 444 254 444 254 413 253 413"></polygon>
                        <polygon id="Fill-154" fill="#2474CD" mask="url(#mask-7)" points="256 443 257 443 257 412 256 412"></polygon>
                        <polygon id="Fill-155" fill="#2474CD" mask="url(#mask-7)" points="21 465 22 465 22 434 21 434"></polygon>
                        <polygon id="Fill-156" fill="#2474CD" mask="url(#mask-7)" points="24 465 25 465 25 434 24 434"></polygon>
                        <polygon id="Fill-157" fill="#2474CD" mask="url(#mask-7)" points="27 465 28 465 28 434 27 434"></polygon>
                        <polygon id="Fill-158" fill="#2474CD" mask="url(#mask-7)" points="30 465 31 465 31 434 30 434"></polygon>
                        <polygon id="Fill-159" fill="#2474CD" mask="url(#mask-7)" points="33 465 34 465 34 434 33 434"></polygon>
                        <polygon id="Fill-160" fill="#2474CD" mask="url(#mask-7)" points="35 465 36 465 36 434 35 434"></polygon>
                        <polygon id="Fill-161" fill="#2474CD" mask="url(#mask-7)" points="38 465 39 465 39 434 38 434"></polygon>
                        <polygon id="Fill-162" fill="#2474CD" mask="url(#mask-7)" points="41 465 42 465 42 434 41 434"></polygon>
                        <polygon id="Fill-163" fill="#2474CD" mask="url(#mask-7)" points="44 465 45 465 45 434 44 434"></polygon>
                        <polygon id="Fill-164" fill="#2474CD" mask="url(#mask-7)" points="47 465 48 465 48 434 47 434"></polygon>
                        <polygon id="Fill-165" fill="#2474CD" mask="url(#mask-7)" points="50 465 51 465 51 434 50 434"></polygon>
                        <polygon id="Fill-166" fill="#2474CD" mask="url(#mask-7)" points="52 465 53 465 53 434 52 434"></polygon>
                        <polygon id="Fill-167" fill="#2474CD" mask="url(#mask-7)" points="55 465 56 465 56 434 55 434"></polygon>
                        <polygon id="Fill-168" fill="#2474CD" mask="url(#mask-7)" points="58 465 59 465 59 434 58 434"></polygon>
                        <polygon id="Fill-169" fill="#2474CD" mask="url(#mask-7)" points="61 465 62 465 62 434 61 434"></polygon>
                        <polygon id="Fill-170" fill="#2474CD" mask="url(#mask-7)" points="64 465 65 465 65 434 64 434"></polygon>
                        <polygon id="Fill-171" fill="#2474CD" mask="url(#mask-7)" points="67 465 68 465 68 434 67 434"></polygon>
                        <polygon id="Fill-172" fill="#2474CD" mask="url(#mask-7)" points="69 465 70 465 70 434 69 434"></polygon>
                        <polygon id="Fill-173" fill="#2474CD" mask="url(#mask-7)" points="72 465 73 465 73 434 72 434"></polygon>
                        <polygon id="Fill-174" fill="#2474CD" mask="url(#mask-7)" points="75 465 76 465 76 434 75 434"></polygon>
                        <polygon id="Fill-175" fill="#2474CD" mask="url(#mask-7)" points="78 465 79 465 79 434 78 434"></polygon>
                        <polygon id="Fill-176" fill="#2474CD" mask="url(#mask-7)" points="81 465 82 465 82 434 81 434"></polygon>
                        <polygon id="Fill-177" fill="#2474CD" mask="url(#mask-7)" points="84 465 85 465 85 434 84 434"></polygon>
                        <polygon id="Fill-178" fill="#2474CD" mask="url(#mask-7)" points="87 465 88 465 88 434 87 434"></polygon>
                        <polygon id="Fill-179" fill="#2474CD" mask="url(#mask-7)" points="89 465 90 465 90 434 89 434"></polygon>
                        <polygon id="Fill-180" fill="#2474CD" mask="url(#mask-7)" points="92 465 93 465 93 434 92 434"></polygon>
                        <polygon id="Fill-181" fill="#2474CD" mask="url(#mask-7)" points="95 464 96 464 96 433 95 433"></polygon>
                        <polygon id="Fill-182" fill="#2474CD" mask="url(#mask-7)" points="98 464 99 464 99 433 98 433"></polygon>
                        <polygon id="Fill-183" fill="#2474CD" mask="url(#mask-7)" points="101 464 102 464 102 433 101 433"></polygon>
                        <polygon id="Fill-184" fill="#2474CD" mask="url(#mask-7)" points="104 464 105 464 105 433 104 433"></polygon>
                        <polygon id="Fill-185" fill="#2474CD" mask="url(#mask-7)" points="106 464 107 464 107 433 106 433"></polygon>
                        <polygon id="Fill-186" fill="#2474CD" mask="url(#mask-7)" points="109 464 110 464 110 433 109 433"></polygon>
                        <polygon id="Fill-187" fill="#2474CD" mask="url(#mask-7)" points="112 464 113 464 113 433 112 433"></polygon>
                        <polygon id="Fill-188" fill="#2474CD" mask="url(#mask-7)" points="115 464 116 464 116 433 115 433"></polygon>
                        <polygon id="Fill-189" fill="#2474CD" mask="url(#mask-7)" points="118 464 119 464 119 433 118 433"></polygon>
                        <polygon id="Fill-190" fill="#2474CD" mask="url(#mask-7)" points="121 464 122 464 122 433 121 433"></polygon>
                        <polygon id="Fill-191" fill="#2474CD" mask="url(#mask-7)" points="123 464 124 464 124 433 123 433"></polygon>
                        <polygon id="Fill-192" fill="#2474CD" mask="url(#mask-7)" points="126 464 127 464 127 433 126 433"></polygon>
                        <polygon id="Fill-193" fill="#2474CD" mask="url(#mask-7)" points="129 464 130 464 130 433 129 433"></polygon>
                        <polygon id="Fill-194" fill="#2474CD" mask="url(#mask-7)" points="132 464 133 464 133 433 132 433"></polygon>
                        <polygon id="Fill-195" fill="#2474CD" mask="url(#mask-7)" points="135 464 136 464 136 433 135 433"></polygon>
                        <polygon id="Fill-196" fill="#2474CD" mask="url(#mask-7)" points="138 464 139 464 139 433 138 433"></polygon>
                        <polygon id="Fill-197" fill="#2474CD" mask="url(#mask-7)" points="372 404 373 404 373 373 372 373"></polygon>
                        <polygon id="Fill-198" fill="#2474CD" mask="url(#mask-7)" points="375 403 376 403 376 372 375 372"></polygon>
                        <polygon id="Fill-199" fill="#2474CD" mask="url(#mask-7)" points="378 401 379 401 379 370 378 370"></polygon>
                        <polygon id="Fill-200" fill="#2474CD" mask="url(#mask-7)" points="381 399 382 399 382 368 381 368"></polygon>
                        <polygon id="Fill-201" fill="#2474CD" mask="url(#mask-7)" points="383 398 384 398 384 367 383 367"></polygon>
                        <polygon id="Fill-202" fill="#2474CD" mask="url(#mask-7)" points="386 396 387 396 387 365 386 365"></polygon>
                        <polygon id="Fill-203" fill="#2474CD" mask="url(#mask-7)" points="389 394 390 394 390 363 389 363"></polygon>
                        <polygon id="Fill-204" fill="#2474CD" mask="url(#mask-7)" points="392 393 393 393 393 362 392 362"></polygon>
                        <polygon id="Fill-205" fill="#2474CD" mask="url(#mask-7)" points="395 391 396 391 396 360 395 360"></polygon>
                        <polygon id="Fill-206" fill="#2474CD" mask="url(#mask-7)" points="398 389 399 389 399 358 398 358"></polygon>
                        <polygon id="Fill-207" fill="#2474CD" mask="url(#mask-7)" points="400 388 401 388 401 357 400 357"></polygon>
                        <polygon id="Fill-208" fill="#2474CD" mask="url(#mask-7)" points="403 386 404 386 404 355 403 355"></polygon>
                        <polygon id="Fill-209" fill="#2474CD" mask="url(#mask-7)" points="406 384 407 384 407 353 406 353"></polygon>
                        <polygon id="Fill-210" fill="#2474CD" mask="url(#mask-7)" points="409 383 410 383 410 352 409 352"></polygon>
                        <polygon id="Fill-211" fill="#2474CD" mask="url(#mask-7)" points="412 381 413 381 413 350 412 350"></polygon>
                        <polygon id="Fill-212" fill="#2474CD" mask="url(#mask-7)" points="415 379 416 379 416 348 415 348"></polygon>
                        <polygon id="Fill-213" fill="#2474CD" mask="url(#mask-7)" points="417 378 418 378 418 347 417 347"></polygon>
                        <polygon id="Fill-214" fill="#2474CD" mask="url(#mask-7)" points="420 376 421 376 421 345 420 345"></polygon>
                        <polygon id="Fill-215" fill="#2474CD" mask="url(#mask-7)" points="423 374 424 374 424 343 423 343"></polygon>
                        <polygon id="Fill-216" fill="#2474CD" mask="url(#mask-7)" points="426 373 427 373 427 342 426 342"></polygon>
                        <polygon id="Fill-217" fill="#2474CD" mask="url(#mask-7)" points="429 371 430 371 430 340 429 340"></polygon>
                        <polygon id="Fill-218" fill="#2474CD" mask="url(#mask-7)" points="432 369 433 369 433 338 432 338"></polygon>
                        <polygon id="Fill-219" fill="#2474CD" mask="url(#mask-7)" points="434 368 435 368 435 337 434 337"></polygon>
                        <polygon id="Fill-220" fill="#2474CD" mask="url(#mask-7)" points="437 366 438 366 438 335 437 335"></polygon>
                        <polygon id="Fill-221" fill="#2474CD" mask="url(#mask-7)" points="440 364 441 364 441 333 440 333"></polygon>
                        <polygon id="Fill-222" fill="#2474CD" mask="url(#mask-7)" points="443 363 444 363 444 332 443 332"></polygon>
                        <polygon id="Fill-223" fill="#2474CD" mask="url(#mask-7)" points="446 361 447 361 447 330 446 330"></polygon>
                        <polygon id="Fill-224" fill="#2474CD" mask="url(#mask-7)" points="449 359 450 359 450 328 449 328"></polygon>
                        <polygon id="Fill-225" fill="#2474CD" mask="url(#mask-7)" points="452 358 453 358 453 327 452 327"></polygon>
                        <polygon id="Fill-226" fill="#2474CD" mask="url(#mask-7)" points="454 356 455 356 455 325 454 325"></polygon>
                        <polygon id="Fill-227" fill="#2474CD" mask="url(#mask-7)" points="457 355 458 355 458 324 457 324"></polygon>
                        <polygon id="Fill-228" fill="#2474CD" mask="url(#mask-7)" points="460 353 461 353 461 322 460 322"></polygon>
                        <polygon id="Fill-229" fill="#2474CD" mask="url(#mask-7)" points="463 351 464 351 464 320 463 320"></polygon>
                        <polygon id="Fill-230" fill="#2474CD" mask="url(#mask-7)" points="466 350 467 350 467 319 466 319"></polygon>
                        <polygon id="Fill-231" fill="#2474CD" mask="url(#mask-7)" points="469 348 470 348 470 317 469 317"></polygon>
                        <polygon id="Fill-232" fill="#2474CD" mask="url(#mask-7)" points="471 346 472 346 472 315 471 315"></polygon>
                        <polygon id="Fill-233" fill="#2474CD" mask="url(#mask-7)" points="474 345 475 345 475 314 474 314"></polygon>
                        <polygon id="Fill-234" fill="#2474CD" mask="url(#mask-7)" points="477 343 478 343 478 312 477 312"></polygon>
                        <polygon id="Fill-235" fill="#2474CD" mask="url(#mask-7)" points="480 341 481 341 481 310 480 310"></polygon>
                        <polygon id="Fill-236" fill="#2474CD" mask="url(#mask-7)" points="483 340 484 340 484 309 483 309"></polygon>
                        <polygon id="Fill-237" fill="#2474CD" mask="url(#mask-7)" points="486 338 487 338 487 307 486 307"></polygon>
                        <polygon id="Fill-238" fill="#2474CD" mask="url(#mask-7)" points="488 336 489 336 489 305 488 305"></polygon>
                        <polygon id="Fill-239" fill="#FF7E59" mask="url(#mask-7)" points="255 414 256 414 256 383 255 383"></polygon>
                        <polygon id="Fill-240" fill="#FF7E59" mask="url(#mask-7)" points="258 413 259 413 259 382 258 382"></polygon>
                        <polygon id="Fill-241" fill="#FF7E59" mask="url(#mask-7)" points="261 412 262 412 262 381 261 381"></polygon>
                        <polygon id="Fill-242" fill="#FF7E59" mask="url(#mask-7)" points="264 411 265 411 265 380 264 380"></polygon>
                        <polygon id="Fill-243" fill="#FF7E59" mask="url(#mask-7)" points="267 410 268 410 268 379 267 379"></polygon>
                        <polygon id="Fill-244" fill="#FF7E59" mask="url(#mask-7)" points="270 409 271 409 271 378 270 378"></polygon>
                        <polygon id="Fill-245" fill="#FF7E59" mask="url(#mask-7)" points="272 408 273 408 273 377 272 377"></polygon>
                        <polygon id="Fill-246" fill="#FF7E59" mask="url(#mask-7)" points="275 407 276 407 276 376 275 376"></polygon>
                        <polygon id="Fill-247" fill="#FF7E59" mask="url(#mask-7)" points="278 406 279 406 279 375 278 375"></polygon>
                        <polygon id="Fill-248" fill="#FF7E59" mask="url(#mask-7)" points="281 405 282 405 282 374 281 374"></polygon>
                        <polygon id="Fill-249" fill="#FF7E59" mask="url(#mask-7)" points="284 404 285 404 285 373 284 373"></polygon>
                        <polygon id="Fill-250" fill="#FF7E59" mask="url(#mask-7)" points="287 403 288 403 288 372 287 372"></polygon>
                        <polygon id="Fill-251" fill="#FF7E59" mask="url(#mask-7)" points="289 402 290 402 290 371 289 371"></polygon>
                        <polygon id="Fill-252" fill="#FF7E59" mask="url(#mask-7)" points="292 401 293 401 293 370 292 370"></polygon>
                        <polygon id="Fill-253" fill="#FF7E59" mask="url(#mask-7)" points="295 400 296 400 296 369 295 369"></polygon>
                        <polygon id="Fill-254" fill="#FF7E59" mask="url(#mask-7)" points="298 399 299 399 299 368 298 368"></polygon>
                        <polygon id="Fill-255" fill="#FF7E59" mask="url(#mask-7)" points="301 398 302 398 302 367 301 367"></polygon>
                        <polygon id="Fill-256" fill="#FF7E59" mask="url(#mask-7)" points="304 397 305 397 305 366 304 366"></polygon>
                        <polygon id="Fill-257" fill="#FF7E59" mask="url(#mask-7)" points="307 396 308 396 308 365 307 365"></polygon>
                        <polygon id="Fill-258" fill="#FF7E59" mask="url(#mask-7)" points="309 395 310 395 310 364 309 364"></polygon>
                        <polygon id="Fill-259" fill="#FF7E59" mask="url(#mask-7)" points="312 394 313 394 313 363 312 363"></polygon>
                        <polygon id="Fill-260" fill="#FF7E59" mask="url(#mask-7)" points="315 393 316 393 316 362 315 362"></polygon>
                        <polygon id="Fill-261" fill="#FF7E59" mask="url(#mask-7)" points="318 392 319 392 319 361 318 361"></polygon>
                        <polygon id="Fill-262" fill="#FF7E59" mask="url(#mask-7)" points="321 391 322 391 322 360 321 360"></polygon>
                        <polygon id="Fill-263" fill="#FF7E59" mask="url(#mask-7)" points="324 390 325 390 325 359 324 359"></polygon>
                        <polygon id="Fill-264" fill="#FF7E59" mask="url(#mask-7)" points="327 389 328 389 328 358 327 358"></polygon>
                        <polygon id="Fill-265" fill="#FF7E59" mask="url(#mask-7)" points="329 388 330 388 330 357 329 357"></polygon>
                        <polygon id="Fill-266" fill="#FF7E59" mask="url(#mask-7)" points="332 387 333 387 333 356 332 356"></polygon>
                        <polygon id="Fill-267" fill="#FF7E59" mask="url(#mask-7)" points="335 386 336 386 336 355 335 355"></polygon>
                        <polygon id="Fill-268" fill="#FF7E59" mask="url(#mask-7)" points="338 385 339 385 339 354 338 354"></polygon>
                        <polygon id="Fill-269" fill="#FF7E59" mask="url(#mask-7)" points="341 384 342 384 342 353 341 353"></polygon>
                        <polygon id="Fill-270" fill="#FF7E59" mask="url(#mask-7)" points="344 383 345 383 345 352 344 352"></polygon>
                        <polygon id="Fill-271" fill="#FF7E59" mask="url(#mask-7)" points="346 382 347 382 347 351 346 351"></polygon>
                        <polygon id="Fill-272" fill="#FF7E59" mask="url(#mask-7)" points="349 381 350 381 350 350 349 350"></polygon>
                        <polygon id="Fill-273" fill="#FF7E59" mask="url(#mask-7)" points="352 380 353 380 353 349 352 349"></polygon>
                        <polygon id="Fill-274" fill="#FF7E59" mask="url(#mask-7)" points="355 379 356 379 356 348 355 348"></polygon>
                        <polygon id="Fill-275" fill="#FF7E59" mask="url(#mask-7)" points="358 378 359 378 359 347 358 347"></polygon>
                        <polygon id="Fill-276" fill="#FF7E59" mask="url(#mask-7)" points="361 377 362 377 362 346 361 346"></polygon>
                        <polygon id="Fill-277" fill="#FF7E59" mask="url(#mask-7)" points="364 376 365 376 365 345 364 345"></polygon>
                        <polygon id="Fill-278" fill="#FF7E59" mask="url(#mask-7)" points="366 375 367 375 367 344 366 344"></polygon>
                        <polygon id="Fill-279" fill="#FF7E59" mask="url(#mask-7)" points="369 374 370 374 370 343 369 343"></polygon>
                        <polygon id="Fill-280" fill="#FF7E59" mask="url(#mask-7)" points="372 373 373 373 373 342 372 342"></polygon>
                        <polygon id="Fill-281" fill="#FF7E59" mask="url(#mask-7)" points="138 433 139 433 139 402 138 402"></polygon>
                        <polygon id="Fill-282" fill="#FF7E59" mask="url(#mask-7)" points="141 433 142 433 142 402 141 402"></polygon>
                        <polygon id="Fill-283" fill="#FF7E59" mask="url(#mask-7)" points="144 432 145 432 145 401 144 401"></polygon>
                        <polygon id="Fill-284" fill="#FF7E59" mask="url(#mask-7)" points="147 432 148 432 148 401 147 401"></polygon>
                        <polygon id="Fill-285" fill="#FF7E59" mask="url(#mask-7)" points="150 431 151 431 151 400 150 400"></polygon>
                        <polygon id="Fill-286" fill="#FF7E59" mask="url(#mask-7)" points="153 431 154 431 154 400 153 400"></polygon>
                        <polygon id="Fill-287" fill="#FF7E59" mask="url(#mask-7)" points="156 430 157 430 157 399 156 399"></polygon>
                        <polygon id="Fill-288" fill="#FF7E59" mask="url(#mask-7)" points="158 430 159 430 159 399 158 399"></polygon>
                        <polygon id="Fill-289" fill="#FF7E59" mask="url(#mask-7)" points="161 429 162 429 162 398 161 398"></polygon>
                        <polygon id="Fill-290" fill="#FF7E59" mask="url(#mask-7)" points="164 429 165 429 165 398 164 398"></polygon>
                        <polygon id="Fill-291" fill="#FF7E59" mask="url(#mask-7)" points="167 428 168 428 168 397 167 397"></polygon>
                        <polygon id="Fill-292" fill="#FF7E59" mask="url(#mask-7)" points="170 428 171 428 171 397 170 397"></polygon>
                        <polygon id="Fill-293" fill="#FF7E59" mask="url(#mask-7)" points="173 427 174 427 174 396 173 396"></polygon>
                        <polygon id="Fill-294" fill="#FF7E59" mask="url(#mask-7)" points="176 427 177 427 177 396 176 396"></polygon>
                        <polygon id="Fill-295" fill="#FF7E59" mask="url(#mask-7)" points="178 426 179 426 179 395 178 395"></polygon>
                        <polygon id="Fill-296" fill="#FF7E59" mask="url(#mask-7)" points="181 426 182 426 182 395 181 395"></polygon>
                        <polygon id="Fill-297" fill="#FF7E59" mask="url(#mask-7)" points="184 425 185 425 185 394 184 394"></polygon>
                        <polygon id="Fill-298" fill="#FF7E59" mask="url(#mask-7)" points="187 425 188 425 188 394 187 394"></polygon>
                        <polygon id="Fill-299" fill="#FF7E59" mask="url(#mask-7)" points="190 424 191 424 191 393 190 393"></polygon>
                        <polygon id="Fill-300" fill="#FF7E59" mask="url(#mask-7)" points="193 424 194 424 194 393 193 393"></polygon>
                        <polygon id="Fill-301" fill="#FF7E59" mask="url(#mask-7)" points="196 423 197 423 197 392 196 392"></polygon>
                        <polygon id="Fill-302" fill="#FF7E59" mask="url(#mask-7)" points="198 423 199 423 199 392 198 392"></polygon>
                        <polygon id="Fill-303" fill="#FF7E59" mask="url(#mask-7)" points="201 422 202 422 202 391 201 391"></polygon>
                        <polygon id="Fill-304" fill="#FF7E59" mask="url(#mask-7)" points="204 422 205 422 205 391 204 391"></polygon>
                        <polygon id="Fill-305" fill="#FF7E59" mask="url(#mask-7)" points="207 421 208 421 208 390 207 390"></polygon>
                        <polygon id="Fill-306" fill="#FF7E59" mask="url(#mask-7)" points="210 421 211 421 211 390 210 390"></polygon>
                        <polygon id="Fill-307" fill="#FF7E59" mask="url(#mask-7)" points="213 420 214 420 214 389 213 389"></polygon>
                        <polygon id="Fill-308" fill="#FF7E59" mask="url(#mask-7)" points="216 420 217 420 217 389 216 389"></polygon>
                        <polygon id="Fill-309" fill="#FF7E59" mask="url(#mask-7)" points="218 419 219 419 219 388 218 388"></polygon>
                        <polygon id="Fill-310" fill="#FF7E59" mask="url(#mask-7)" points="221 418 222 418 222 387 221 387"></polygon>
                        <polygon id="Fill-311" fill="#FF7E59" mask="url(#mask-7)" points="224 418 225 418 225 387 224 387"></polygon>
                        <polygon id="Fill-312" fill="#FF7E59" mask="url(#mask-7)" points="227 417 228 417 228 386 227 386"></polygon>
                        <polygon id="Fill-313" fill="#FF7E59" mask="url(#mask-7)" points="230 417 231 417 231 386 230 386"></polygon>
                        <polygon id="Fill-314" fill="#FF7E59" mask="url(#mask-7)" points="233 416 234 416 234 385 233 385"></polygon>
                        <polygon id="Fill-315" fill="#FF7E59" mask="url(#mask-7)" points="236 416 237 416 237 385 236 385"></polygon>
                        <polygon id="Fill-316" fill="#FF7E59" mask="url(#mask-7)" points="238 415 239 415 239 384 238 384"></polygon>
                        <polygon id="Fill-317" fill="#FF7E59" mask="url(#mask-7)" points="241 415 242 415 242 384 241 384"></polygon>
                        <polygon id="Fill-318" fill="#FF7E59" mask="url(#mask-7)" points="244 414 245 414 245 383 244 383"></polygon>
                        <polygon id="Fill-319" fill="#FF7E59" mask="url(#mask-7)" points="247 414 248 414 248 383 247 383"></polygon>
                        <polygon id="Fill-320" fill="#FF7E59" mask="url(#mask-7)" points="250 413 251 413 251 382 250 382"></polygon>
                        <polygon id="Fill-321" fill="#FF7E59" mask="url(#mask-7)" points="253 413 254 413 254 382 253 382"></polygon>
                        <polygon id="Fill-322" fill="#FF7E59" mask="url(#mask-7)" points="256 412 257 412 257 381 256 381"></polygon>
                        <polygon id="Fill-323" fill="#FF7E59" mask="url(#mask-7)" points="21 467 22 467 22 436 21 436"></polygon>
                        <polygon id="Fill-324" fill="#FF7E59" mask="url(#mask-7)" points="24 466 25 466 25 435 24 435"></polygon>
                        <polygon id="Fill-325" fill="#FF7E59" mask="url(#mask-7)" points="27 465 28 465 28 434 27 434"></polygon>
                        <polygon id="Fill-326" fill="#FF7E59" mask="url(#mask-7)" points="30 464 31 464 31 433 30 433"></polygon>
                        <polygon id="Fill-327" fill="#FF7E59" mask="url(#mask-7)" points="33 463 34 463 34 432 33 432"></polygon>
                        <polygon id="Fill-328" fill="#FF7E59" mask="url(#mask-7)" points="35 463 36 463 36 432 35 432"></polygon>
                        <polygon id="Fill-329" fill="#FF7E59" mask="url(#mask-7)" points="38 462 39 462 39 431 38 431"></polygon>
                        <polygon id="Fill-330" fill="#FF7E59" mask="url(#mask-7)" points="41 461 42 461 42 430 41 430"></polygon>
                        <polygon id="Fill-331" fill="#FF7E59" mask="url(#mask-7)" points="44 460 45 460 45 429 44 429"></polygon>
                        <polygon id="Fill-332" fill="#FF7E59" mask="url(#mask-7)" points="47 459 48 459 48 428 47 428"></polygon>
                        <polygon id="Fill-333" fill="#FF7E59" mask="url(#mask-7)" points="50 458 51 458 51 427 50 427"></polygon>
                        <polygon id="Fill-334" fill="#FF7E59" mask="url(#mask-7)" points="52 458 53 458 53 427 52 427"></polygon>
                        <polygon id="Fill-335" fill="#FF7E59" mask="url(#mask-7)" points="55 457 56 457 56 426 55 426"></polygon>
                        <polygon id="Fill-336" fill="#FF7E59" mask="url(#mask-7)" points="58 456 59 456 59 425 58 425"></polygon>
                        <polygon id="Fill-337" fill="#FF7E59" mask="url(#mask-7)" points="61 455 62 455 62 424 61 424"></polygon>
                        <polygon id="Fill-338" fill="#FF7E59" mask="url(#mask-7)" points="64 454 65 454 65 423 64 423"></polygon>
                        <polygon id="Fill-339" fill="#FF7E59" mask="url(#mask-7)" points="67 454 68 454 68 423 67 423"></polygon>
                        <polygon id="Fill-340" fill="#FF7E59" mask="url(#mask-7)" points="69 453 70 453 70 422 69 422"></polygon>
                        <polygon id="Fill-341" fill="#FF7E59" mask="url(#mask-7)" points="72 452 73 452 73 421 72 421"></polygon>
                        <polygon id="Fill-342" fill="#FF7E59" mask="url(#mask-7)" points="75 451 76 451 76 420 75 420"></polygon>
                        <polygon id="Fill-343" fill="#FF7E59" mask="url(#mask-7)" points="78 450 79 450 79 419 78 419"></polygon>
                        <polygon id="Fill-344" fill="#FF7E59" mask="url(#mask-7)" points="81 449 82 449 82 418 81 418"></polygon>
                        <polygon id="Fill-345" fill="#FF7E59" mask="url(#mask-7)" points="84 449 85 449 85 418 84 418"></polygon>
                        <polygon id="Fill-346" fill="#FF7E59" mask="url(#mask-7)" points="87 448 88 448 88 417 87 417"></polygon>
                        <polygon id="Fill-347" fill="#FF7E59" mask="url(#mask-7)" points="89 447 90 447 90 416 89 416"></polygon>
                        <polygon id="Fill-348" fill="#FF7E59" mask="url(#mask-7)" points="92 446 93 446 93 415 92 415"></polygon>
                        <polygon id="Fill-349" fill="#FF7E59" mask="url(#mask-7)" points="95 445 96 445 96 414 95 414"></polygon>
                        <polygon id="Fill-350" fill="#FF7E59" mask="url(#mask-7)" points="98 445 99 445 99 414 98 414"></polygon>
                        <polygon id="Fill-351" fill="#FF7E59" mask="url(#mask-7)" points="101 444 102 444 102 413 101 413"></polygon>
                        <polygon id="Fill-352" fill="#FF7E59" mask="url(#mask-7)" points="104 443 105 443 105 412 104 412"></polygon>
                        <polygon id="Fill-353" fill="#FF7E59" mask="url(#mask-7)" points="106 442 107 442 107 411 106 411"></polygon>
                        <polygon id="Fill-354" fill="#FF7E59" mask="url(#mask-7)" points="109 441 110 441 110 410 109 410"></polygon>
                        <polygon id="Fill-355" fill="#FF7E59" mask="url(#mask-7)" points="112 440 113 440 113 409 112 409"></polygon>
                        <polygon id="Fill-356" fill="#FF7E59" mask="url(#mask-7)" points="115 440 116 440 116 409 115 409"></polygon>
                        <polygon id="Fill-357" fill="#FF7E59" mask="url(#mask-7)" points="118 439 119 439 119 408 118 408"></polygon>
                        <polygon id="Fill-358" fill="#FF7E59" mask="url(#mask-7)" points="121 438 122 438 122 407 121 407"></polygon>
                        <polygon id="Fill-359" fill="#FF7E59" mask="url(#mask-7)" points="123 437 124 437 124 406 123 406"></polygon>
                        <polygon id="Fill-360" fill="#FF7E59" mask="url(#mask-7)" points="126 436 127 436 127 405 126 405"></polygon>
                        <polygon id="Fill-361" fill="#FF7E59" mask="url(#mask-7)" points="129 436 130 436 130 405 129 405"></polygon>
                        <polygon id="Fill-362" fill="#FF7E59" mask="url(#mask-7)" points="132 435 133 435 133 404 132 404"></polygon>
                        <polygon id="Fill-363" fill="#FF7E59" mask="url(#mask-7)" points="135 434 136 434 136 403 135 403"></polygon>
                        <polygon id="Fill-364" fill="#FF7E59" mask="url(#mask-7)" points="138 433 139 433 139 402 138 402"></polygon>
                        <polygon id="Fill-365" fill="#FF7E59" mask="url(#mask-7)" points="372 373 373 373 373 342 372 342"></polygon>
                        <polygon id="Fill-366" fill="#FF7E59" mask="url(#mask-7)" points="375 372 376 372 376 339 375 339"></polygon>
                        <polygon id="Fill-367" fill="#FF7E59" mask="url(#mask-7)" points="378 370 379 370 379 335 378 335"></polygon>
                        <polygon id="Fill-368" fill="#FF7E59" mask="url(#mask-7)" points="381 369 382 369 382 332 381 332"></polygon>
                        <polygon id="Fill-369" fill="#FF7E59" mask="url(#mask-7)" points="383 367 384 367 384 329 383 329"></polygon>
                        <polygon id="Fill-370" fill="#FF7E59" mask="url(#mask-7)" points="386 365 387 365 387 325 386 325"></polygon>
                        <polygon id="Fill-371" fill="#FF7E59" mask="url(#mask-7)" points="389 364 390 364 390 322 389 322"></polygon>
                        <polygon id="Fill-372" fill="#FF7E59" mask="url(#mask-7)" points="392 362 393 362 393 319 392 319"></polygon>
                        <polygon id="Fill-373" fill="#FF7E59" mask="url(#mask-7)" points="395 360 396 360 396 315 395 315"></polygon>
                        <polygon id="Fill-374" fill="#FF7E59" mask="url(#mask-7)" points="398 359 399 359 399 312 398 312"></polygon>
                        <polygon id="Fill-375" fill="#FF7E59" mask="url(#mask-7)" points="400 357 401 357 401 309 400 309"></polygon>
                        <polygon id="Fill-376" fill="#FF7E59" mask="url(#mask-7)" points="403 355 404 355 404 305 403 305"></polygon>
                        <polygon id="Fill-377" fill="#FF7E59" mask="url(#mask-7)" points="406 354 407 354 407 302 406 302"></polygon>
                        <polygon id="Fill-378" fill="#FF7E59" mask="url(#mask-7)" points="409 352 410 352 410 299 409 299"></polygon>
                        <polygon id="Fill-379" fill="#FF7E59" mask="url(#mask-7)" points="412 350 413 350 413 295 412 295"></polygon>
                        <polygon id="Fill-380" fill="#FF7E59" mask="url(#mask-7)" points="415 349 416 349 416 292 415 292"></polygon>
                        <polygon id="Fill-381" fill="#FF7E59" mask="url(#mask-7)" points="417 347 418 347 418 288 417 288"></polygon>
                        <polygon id="Fill-382" fill="#FF7E59" mask="url(#mask-7)" points="420 345 421 345 421 285 420 285"></polygon>
                        <polygon id="Fill-383" fill="#FF7E59" mask="url(#mask-7)" points="423 344 424 344 424 282 423 282"></polygon>
                        <polygon id="Fill-384" fill="#FF7E59" mask="url(#mask-7)" points="426 342 427 342 427 278 426 278"></polygon>
                        <polygon id="Fill-385" fill="#FF7E59" mask="url(#mask-7)" points="429 340 430 340 430 275 429 275"></polygon>
                        <polygon id="Fill-386" fill="#FF7E59" mask="url(#mask-7)" points="432 339 433 339 433 272 432 272"></polygon>
                        <polygon id="Fill-387" fill="#FF7E59" mask="url(#mask-7)" points="434 337 435 337 435 268 434 268"></polygon>
                        <polygon id="Fill-388" fill="#FF7E59" mask="url(#mask-7)" points="437 335 438 335 438 265 437 265"></polygon>
                        <polygon id="Fill-389" fill="#FF7E59" mask="url(#mask-7)" points="440 334 441 334 441 262 440 262"></polygon>
                        <polygon id="Fill-390" fill="#FF7E59" mask="url(#mask-7)" points="443 332 444 332 444 258 443 258"></polygon>
                        <polygon id="Fill-391" fill="#FF7E59" mask="url(#mask-7)" points="446 330 447 330 447 255 446 255"></polygon>
                        <polygon id="Fill-392" fill="#FF7E59" mask="url(#mask-7)" points="449 329 450 329 450 252 449 252"></polygon>
                        <polygon id="Fill-393" fill="#FF7E59" mask="url(#mask-7)" points="452 327 453 327 453 248 452 248"></polygon>
                        <polygon id="Fill-394" fill="#FF7E59" mask="url(#mask-7)" points="454 326 455 326 455 245 454 245"></polygon>
                        <polygon id="Fill-395" fill="#FF7E59" mask="url(#mask-7)" points="457 324 458 324 458 242 457 242"></polygon>
                        <polygon id="Fill-396" fill="#FF7E59" mask="url(#mask-7)" points="460 322 461 322 461 238 460 238"></polygon>
                        <polygon id="Fill-397" fill="#FF7E59" mask="url(#mask-7)" points="463 321 464 321 464 235 463 235"></polygon>
                        <polygon id="Fill-398" fill="#FF7E59" mask="url(#mask-7)" points="466 319 467 319 467 232 466 232"></polygon>
                        <polygon id="Fill-399" fill="#FF7E59" mask="url(#mask-7)" points="469 317 470 317 470 228 469 228"></polygon>
                        <polygon id="Fill-400" fill="#FF7E59" mask="url(#mask-7)" points="471 316 472 316 472 225 471 225"></polygon>
                        <polygon id="Fill-401" fill="#FF7E59" mask="url(#mask-7)" points="474 313 475 313 475 221 474 221"></polygon>
                        <polygon id="Fill-402" fill="#FF7E59" mask="url(#mask-7)" points="477 312 478 312 478 218 477 218"></polygon>
                        <polygon id="Fill-403" fill="#FF7E59" mask="url(#mask-7)" points="480 311 481 311 481 215 480 215"></polygon>
                        <polygon id="Fill-404" fill="#FF7E59" mask="url(#mask-7)" points="483 308 484 308 484 211 483 211"></polygon>
                        <polygon id="Fill-405" fill="#FF7E59" mask="url(#mask-7)" points="486 307 487 307 487 208 486 208"></polygon>
                        <polygon id="Fill-406" fill="#FF7E59" mask="url(#mask-7)" points="488 306 489 306 489 205 488 205"></polygon>
                        <path d="M255.57343,324 C180.037276,324 115.963363,308.759084 75.5144142,295.9733 C31.6520703,282.108921 5.26167876,268.027937 5,267.887366 L7.11835184,264 C7.37647034,264.138803 33.4856018,278.059765 76.9856897,291.799487 C117.109766,304.472107 180.663881,319.579524 255.57343,319.579524 C330.538163,319.579524 394.093169,304.451773 434.209234,291.760587 C477.639007,278.021749 503.62264,264.139687 503.879868,264.000884 L506,267.886482 C505.739211,268.027053 479.385312,282.108036 435.560351,295.9733 C395.143444,308.759084 331.109584,324 255.57343,324" id="Fill-407" fill="#C5CBD8" mask="url(#mask-7)"></path>
                        <path d="M255.100602,270 C180.938493,270 116.391409,249.731365 75.3023137,232.728484 C30.7553708,214.293893 4.11195978,196.115092 3,195.349501 L8.05055872,188.036414 C8.31764274,188.219375 35.1996488,206.542946 78.9471202,224.621385 C119.239415,241.27078 182.507166,261.118428 255.100602,261.118428 C325.872524,261.118428 389.207047,241.263674 429.87593,224.607175 C474.043613,206.518077 501.781178,188.18296 502.056275,188 L507,195.385915 C505.853319,196.150618 478.404205,214.30988 433.476222,232.733813 C392.017661,249.734029 327.41716,270 255.100602,270" id="Fill-408" fill="#C5CBD8" mask="url(#mask-7)"></path>
                        <path d="M255.573442,355 C180.03883,355 115.96469,340.325032 75.5147576,328.014255 C31.6517867,314.664843 5.26171967,301.107168 5,300.972199 L7.04034521,297 C7.29850407,297.134075 33.4143886,310.541586 76.9257294,323.773012 C117.063201,335.980104 180.638826,350.53083 255.573442,350.53083 C330.508057,350.53083 394.042733,335.980998 434.146377,323.773906 C477.62122,310.541586 503.699716,297.134969 503.958765,297 L506,300.972199 C505.739171,301.107168 479.385602,314.663949 435.559129,328.014255 C395.142134,340.325032 331.108944,355 255.573442,355" id="Fill-409" fill="#C5CBD8" mask="url(#mask-7)"></path>
                        <path d="M255.573008,385 C180.039536,385 115.965719,371.144285 75.5154771,359.520125 C31.6516451,346.916995 5.261762,334.116649 5,333.988726 L6.95876325,330 C7.21785421,330.126147 33.3397429,342.788797 76.8643527,355.286213 C117.015438,366.815319 180.612029,380.558212 255.573008,380.558212 C330.533988,380.558212 394.089623,366.815319 434.206875,355.287101 C477.694981,342.788797 503.779475,330.126147 504.038566,330.000888 L506,333.987838 C505.738238,334.116649 479.384859,346.916107 435.557531,359.520125 C395.141123,371.144285 331.107371,385 255.573008,385" id="Fill-410" fill="#C5CBD8" mask="url(#mask-7)"></path>
                        <path d="M255.573462,415 C180.039546,415 115.965678,401.689639 75.5153589,390.523971 C31.6510676,378.416407 5.26179131,366.119579 5,365.99753 L6.90288444,362 C7.16200441,362.121164 33.2903798,374.287984 76.823425,386.29561 C116.983458,397.372837 180.594294,410.577953 255.573462,410.577953 C399.149076,410.577953 503.062417,362.486425 504.094444,362 L506,365.99753 C505.738209,366.119579 479.386331,378.416407 435.558548,390.523971 C395.141176,401.689639 331.107378,415 255.573462,415" id="Fill-411" fill="#C5CBD8" mask="url(#mask-7)"></path>
                        <path d="M255.573466,447 C180.039706,447 115.965756,433.712005 75.5149172,422.564334 C31.6508024,410.476898 5.2618062,398.20151 5,398.079206 L6.87538726,394 C7.13363147,394.121405 33.2643835,406.269093 76.8025762,418.258505 C116.966675,429.318945 180.585581,442.503521 255.573466,442.503521 C399.165261,442.503521 503.089855,394.48562 504.122832,394.000899 L506,398.078307 C505.739084,398.200611 479.386598,410.476898 435.558104,422.564334 C395.141104,433.712005 331.107226,447 255.573466,447" id="Fill-412" fill="#C5CBD8" mask="url(#mask-7)"></path>
                        <path d="M255.573466,479 C180.039706,479 115.965756,465.712005 75.5149172,454.564334 C31.6508024,442.476898 5.2618062,430.20151 5,430.079206 L6.87538726,426 C7.13363147,426.121405 33.2643835,438.269093 76.8025762,450.258505 C116.966675,461.318945 180.585581,474.503521 255.573466,474.503521 C399.165261,474.503521 503.089855,426.48562 504.122832,426.000899 L506,430.078307 C505.739084,430.200611 479.386598,442.476898 435.558104,454.564334 C395.141104,465.712005 331.107226,479 255.573466,479" id="Fill-413" fill="#C5CBD8" mask="url(#mask-7)"></path>
                        <polygon id="Fill-414" fill="#E1E5F3" mask="url(#mask-7)" points="369 501 375 501 375 250 369 250"></polygon>
                        <polygon id="Fill-415" fill="#E1E5F3" mask="url(#mask-7)" points="136 500 142 500 142 249 136 249"></polygon>
                        <polygon id="Fill-416" fill="#E1E5F3" mask="url(#mask-7)" points="252 508 258 508 258 268 252 268"></polygon>
                        <polygon id="Fill-417" fill="#E1E5F3" mask="url(#mask-7)" points="486 472 492 472 492 206 486 206"></polygon>
                        <polygon id="Fill-418" fill="#E1E5F3" mask="url(#mask-7)" points="19 472 25 472 25 206 19 206"></polygon>
                        <path d="M260.498765,271 L251.501235,271 C250.672007,271 250,270.3472 250,269.541673 L250,260.458327 C250,259.653673 250.672007,259 251.501235,259 L260.498765,259 C261.327993,259 262,259.653673 262,260.458327 L262,269.541673 C262,270.3472 261.327993,271 260.498765,271" id="Fill-419" fill="#C5CBD8" mask="url(#mask-7)"></path>
                        <path d="M376.251572,254.632541 L367.927224,256.943094 C366.959569,257.212258 366,256.492709 366,255.498665 L366,246.616228 C366,245.553782 366.714286,244.621033 367.748428,244.334102 L375.938904,242.060859 C376.974843,241.773039 378,242.542335 378,243.604781 L378,252.350414 C378,253.41286 377.285714,254.345609 376.251572,254.632541" id="Fill-420" fill="#C5CBD8" mask="url(#mask-7)"></path>
                        <path d="M493.251572,205.454346 L485.563342,209.775438 C484.421384,210.417763 483,209.605567 483,208.310301 L483,199.376151 C483,198.149895 483.667565,197.017422 484.748428,196.409603 L492.149146,192.249534 C493.419587,191.535545 495,192.438869 495,193.879233 L495,202.487798 C495,203.714053 494.332435,204.846526 493.251572,205.454346" id="Fill-421" fill="#C5CBD8" mask="url(#mask-7)"></path>
                        <path d="M134.714029,254.63675 L143.020961,256.941651 C144.014523,257.217777 145,256.479073 145,255.459802 L145,246.612215 C145,245.563645 144.293906,244.642928 143.271598,244.358811 L134.979039,242.058349 C133.985477,241.782223 133,242.520927 133,243.540198 L133,252.401991 C133,253.44257 133.700704,254.355296 134.714029,254.63675" id="Fill-422" fill="#C5CBD8" mask="url(#mask-7)"></path>
                        <path d="M17.6476754,205.295204 L25.4278655,209.766697 C26.5643483,210.420998 28,209.621297 28,208.334593 L28,199.601823 C28,198.33614 27.3136183,197.165056 26.1960021,196.522141 L18.7634948,192.250354 C17.5416635,191.547878 16,192.407141 16,193.790194 L16,202.482673 C16,203.637992 16.6261885,204.708347 17.6476754,205.295204" id="Fill-423" fill="#C5CBD8" mask="url(#mask-7)"></path>
                        <path d="M260.045968,523 L251.954032,523 C250.875047,523 250,522.145261 250,521.091317 L250,507.908683 C250,506.854739 250.875047,506 251.954032,506 L260.045968,506 C261.124953,506 262,506.854739 262,507.908683 L262,521.091317 C262,522.145261 261.124953,523 260.045968,523" id="Fill-424" fill="#C5CBD8" mask="url(#mask-7)"></path>
                        <path d="M376.178932,513.713151 L368.14629,514.979571 C367.015198,515.147039 366,514.263532 366,513.112077 L366,499.467509 C366,498.402051 366.774425,497.497724 367.820169,497.342929 L375.873475,496.020385 C376.993786,495.853822 378,496.729182 378,497.871585 L378,511.588571 C378,512.654029 377.224676,513.558356 376.178932,513.713151" id="Fill-425" fill="#C5CBD8" mask="url(#mask-7)"></path>
                        <path d="M493.303938,483.054964 L485.105704,485.915439 C484.071717,486.262515 483,485.497878 483,484.412931 L483,470.1855 C483,469.123751 483.682737,468.179777 484.696062,467.840731 L492.50262,465.099814 C493.72975,464.68939 495,465.595891 495,466.881588 L495,480.711087 C495,481.772835 494.317263,482.715918 493.303938,483.054964" id="Fill-426" fill="#C5CBD8" mask="url(#mask-7)"></path>
                        <path d="M134.928122,512.555076 L142.858041,513.979631 C143.987421,514.146324 145,513.268705 145,512.123475 L145,498.964594 C145,497.596806 144.000898,496.436258 142.651393,496.238028 L135.086253,495.018912 C134.034142,494.863932 133.090746,495.681181 133.090746,496.747119 L133,510.316877 C133,511.439581 133.820305,512.391987 134.928122,512.555076" id="Fill-427" fill="#C5CBD8" mask="url(#mask-7)"></path>
                        <path d="M17.8588006,482.923219 L25.883357,485.914928 C26.922812,486.264888 28,485.491387 28,484.395743 L28,469.76293 C28,468.59191 27.2525268,467.551901 26.1411994,467.177713 L17.9944598,464.080119 C17.0142996,463.750798 16,464.477638 16,465.511366 L16,480.3389 C16,481.509919 16.7483716,482.549929 17.8588006,482.923219" id="Fill-428" fill="#C5CBD8" mask="url(#mask-7)"></path>
                        <path d="M259,322.5 C259,324.432903 257.433806,326 255.5,326 C253.567097,326 252,324.432903 252,322.5 C252,320.567097 253.567097,319 255.5,319 C257.433806,319 259,320.567097 259,322.5" id="Fill-429" fill="#A4B1DD" mask="url(#mask-7)"></path>
                        <path d="M259,352.5 C259,354.432903 257.433806,356 255.5,356 C253.567097,356 252,354.432903 252,352.5 C252,350.567097 253.567097,349 255.5,349 C257.433806,349 259,350.567097 259,352.5" id="Fill-430" fill="#A4B1DD" mask="url(#mask-7)"></path>
                        <path d="M259,382.5 C259,384.432903 257.433806,386 255.5,386 C253.567097,386 252,384.432903 252,382.5 C252,380.567097 253.567097,379 255.5,379 C257.433806,379 259,380.567097 259,382.5" id="Fill-431" fill="#A4B1DD" mask="url(#mask-7)"></path>
                        <path d="M259,413.5 C259,415.432903 257.433806,417 255.5,417 C253.567097,417 252,415.432903 252,413.5 C252,411.567097 253.567097,410 255.5,410 C257.433806,410 259,411.567097 259,413.5" id="Fill-432" fill="#A4B1DD" mask="url(#mask-7)"></path>
                        <path d="M259,444.5 C259,446.432903 257.433806,448 255.5,448 C253.567097,448 252,446.432903 252,444.5 C252,442.567097 253.567097,441 255.5,441 C257.433806,441 259,442.567097 259,444.5" id="Fill-433" fill="#A4B1DD" mask="url(#mask-7)"></path>
                        <path d="M259,476.5 C259,478.432903 257.433806,480 255.5,480 C253.567097,480 252,478.432903 252,476.5 C252,474.566194 253.567097,473 255.5,473 C257.433806,473 259,474.566194 259,476.5" id="Fill-434" fill="#A4B1DD" mask="url(#mask-7)"></path>
                        <path d="M376,310.5 C376,312.432903 374.433806,314 372.5,314 C370.567097,314 369,312.432903 369,310.5 C369,308.567097 370.567097,307 372.5,307 C374.433806,307 376,308.567097 376,310.5" id="Fill-435" fill="#A4B1DD" mask="url(#mask-7)"></path>
                        <path d="M376,341.5 C376,343.432903 374.433806,345 372.5,345 C370.567097,345 369,343.432903 369,341.5 C369,339.567097 370.567097,338 372.5,338 C374.433806,338 376,339.567097 376,341.5" id="Fill-436" fill="#A4B1DD" mask="url(#mask-7)"></path>
                        <path d="M376,372.5 C376,374.432903 374.433806,376 372.5,376 C370.567097,376 369,374.432903 369,372.5 C369,370.567097 370.567097,369 372.5,369 C374.433806,369 376,370.567097 376,372.5" id="Fill-437" fill="#A4B1DD" mask="url(#mask-7)"></path>
                        <path d="M376,402.5 C376,404.432903 374.433806,406 372.5,406 C370.567097,406 369,404.432903 369,402.5 C369,400.567097 370.567097,399 372.5,399 C374.433806,399 376,400.567097 376,402.5" id="Fill-438" fill="#A4B1DD" mask="url(#mask-7)"></path>
                        <path d="M376,434.5 C376,436.432903 374.433806,438 372.5,438 C370.567097,438 369,436.432903 369,434.5 C369,432.567097 370.567097,431 372.5,431 C374.433806,431 376,432.567097 376,434.5" id="Fill-439" fill="#A4B1DD" mask="url(#mask-7)"></path>
                        <path d="M376,466.5 C376,468.432903 374.433806,470 372.5,470 C370.567097,470 369,468.432903 369,466.5 C369,464.567097 370.567097,463 372.5,463 C374.433806,463 376,464.567097 376,466.5" id="Fill-440" fill="#A4B1DD" mask="url(#mask-7)"></path>
                        <path d="M143,310.5 C143,312.432903 141.432903,314 139.5,314 C137.567097,314 136,312.432903 136,310.5 C136,308.567097 137.567097,307 139.5,307 C141.432903,307 143,308.567097 143,310.5" id="Fill-441" fill="#A4B1DD" mask="url(#mask-7)"></path>
                        <path d="M143,341.5 C143,343.432903 141.432903,345 139.5,345 C137.567097,345 136,343.432903 136,341.5 C136,339.567097 137.567097,338 139.5,338 C141.432903,338 143,339.567097 143,341.5" id="Fill-442" fill="#A4B1DD" mask="url(#mask-7)"></path>
                        <path d="M143,372.5 C143,374.432903 141.432903,376 139.5,376 C137.567097,376 136,374.432903 136,372.5 C136,370.567097 137.567097,369 139.5,369 C141.432903,369 143,370.567097 143,372.5" id="Fill-443" fill="#A4B1DD" mask="url(#mask-7)"></path>
                        <path d="M143,402.5 C143,404.432903 141.432903,406 139.5,406 C137.567097,406 136,404.432903 136,402.5 C136,400.567097 137.567097,399 139.5,399 C141.432903,399 143,400.567097 143,402.5" id="Fill-444" fill="#A4B1DD" mask="url(#mask-7)"></path>
                        <path d="M143,434.5 C143,436.432903 141.432903,438 139.5,438 C137.567097,438 136,436.432903 136,434.5 C136,432.567097 137.567097,431 139.5,431 C141.432903,431 143,432.567097 143,434.5" id="Fill-445" fill="#A4B1DD" mask="url(#mask-7)"></path>
                        <path d="M143,465.5 C143,467.432903 141.432903,469 139.5,469 C137.567097,469 136,467.432903 136,465.5 C136,463.566194 137.567097,462 139.5,462 C141.432903,462 143,463.566194 143,465.5" id="Fill-446" fill="#A4B1DD" mask="url(#mask-7)"></path>
                        <path d="M26,273.5 C26,275.432903 24.4329032,277 22.5,277 C20.5670968,277 19,275.432903 19,273.5 C19,271.567097 20.5670968,270 22.5,270 C24.4329032,270 26,271.567097 26,273.5" id="Fill-447" fill="#A4B1DD" mask="url(#mask-7)"></path>
                        <path d="M26,306.5 C26,308.433806 24.4329032,310 22.5,310 C20.5670968,310 19,308.433806 19,306.5 C19,304.567097 20.5670968,303 22.5,303 C24.4329032,303 26,304.567097 26,306.5" id="Fill-448" fill="#A4B1DD" mask="url(#mask-7)"></path>
                        <path d="M26,338.5 C26,340.433806 24.4329032,342 22.5,342 C20.5670968,342 19,340.433806 19,338.5 C19,336.567097 20.5670968,335 22.5,335 C24.4329032,335 26,336.567097 26,338.5" id="Fill-449" fill="#A4B1DD" mask="url(#mask-7)"></path>
                        <path d="M26,370.5 C26,372.433806 24.4329032,374 22.5,374 C20.5670968,374 19,372.433806 19,370.5 C19,368.567097 20.5670968,367 22.5,367 C24.4329032,367 26,368.567097 26,370.5" id="Fill-450" fill="#A4B1DD" mask="url(#mask-7)"></path>
                        <path d="M26,402.5 C26,404.432903 24.4329032,406 22.5,406 C20.5670968,406 19,404.432903 19,402.5 C19,400.566194 20.5670968,399 22.5,399 C24.4329032,399 26,400.566194 26,402.5" id="Fill-451" fill="#A4B1DD" mask="url(#mask-7)"></path>
                        <path d="M26,434.5 C26,436.433806 24.4329032,438 22.5,438 C20.5670968,438 19,436.433806 19,434.5 C19,432.567097 20.5670968,431 22.5,431 C24.4329032,431 26,432.567097 26,434.5" id="Fill-452" fill="#A4B1DD" mask="url(#mask-7)"></path>
                        <path d="M492,273.5 C492,275.432903 490.432903,277 488.5,277 C486.566194,277 485,275.432903 485,273.5 C485,271.567097 486.566194,270 488.5,270 C490.432903,270 492,271.567097 492,273.5" id="Fill-453" fill="#A4B1DD" mask="url(#mask-7)"></path>
                        <path d="M492,306.5 C492,308.433806 490.432903,310 488.5,310 C486.566194,310 485,308.433806 485,306.5 C485,304.567097 486.566194,303 488.5,303 C490.432903,303 492,304.567097 492,306.5" id="Fill-454" fill="#A4B1DD" mask="url(#mask-7)"></path>
                        <path d="M492,338.5 C492,340.433806 490.432903,342 488.5,342 C486.566194,342 485,340.433806 485,338.5 C485,336.567097 486.566194,335 488.5,335 C490.432903,335 492,336.567097 492,338.5" id="Fill-455" fill="#A4B1DD" mask="url(#mask-7)"></path>
                        <path d="M492,370.5 C492,372.433806 490.432903,374 488.5,374 C486.567097,374 485,372.433806 485,370.5 C485,368.567097 486.567097,367 488.5,367 C490.432903,367 492,368.567097 492,370.5" id="Fill-456" fill="#A4B1DD" mask="url(#mask-7)"></path>
                        <path d="M492,402.5 C492,404.432903 490.432903,406 488.5,406 C486.567097,406 485,404.432903 485,402.5 C485,400.566194 486.567097,399 488.5,399 C490.432903,399 492,400.566194 492,402.5" id="Fill-457" fill="#A4B1DD" mask="url(#mask-7)"></path>
                        <path d="M492,434.5 C492,436.433806 490.432903,438 488.5,438 C486.566194,438 485,436.433806 485,434.5 C485,432.567097 486.566194,431 488.5,431 C490.432903,431 492,432.567097 492,434.5" id="Fill-458" fill="#A4B1DD" mask="url(#mask-7)"></path>
                    </g>
                </g>
            </g>
        </g>
    </g>
</svg>