<?xml version="1.0" standalone="no"?>
<!DOCTYPE svg PUBLIC "-//W3C//DTD SVG 1.1//EN" "http://www.w3.org/Graphics/SVG/1.1/DTD/svg11.dtd" >
<svg xmlns="http://www.w3.org/2000/svg" xmlns:xlink="http://www.w3.org/1999/xlink" version="1.1">
<metadata>
Created by FontForge 20170910 at Sat Oct 25 15:10:05 2014
 By Jimmy Wärting
Copyright (c) 2014 by Vyacheslav Kirilenko, Gayane Bagdasaryan. All rights reserved.
</metadata>
<defs>
<font id="Formular" horiz-adv-x="630" >
  <font-face 
    font-family="Formular"
    font-weight="400"
    font-stretch="normal"
    units-per-em="1000"
    panose-1="2 0 0 0 0 0 0 0 0 0"
    ascent="778"
    descent="-222"
    x-height="504"
    cap-height="714"
    bbox="-134 -220 1396 970"
    underline-thickness="50"
    underline-position="-100"
    stemh="74"
    stemv="85"
    unicode-range="U+000D-FB02"
  />
<missing-glyph horiz-adv-x="528" 
d="M58 0v714h412v-714h-412zM126 63h276v588h-276v-588z" />
    <glyph glyph-name="fi" unicode="fi" horiz-adv-x="645" 
d="M351 430h-140v-430h-85v430h-99v74h99v58c0 116 57 165 169 165h64v-74h-60c-68 0 -88 -39 -88 -94v-55h140v-74zM567 627h-98v100h98v-100zM560 504v-504h-85v504h85z" />
    <glyph glyph-name="fl" unicode="fl" horiz-adv-x="640" 
d="M351 430h-140v-430h-85v430h-99v74h99v58c0 116 57 165 169 165h64v-74h-60c-68 0 -88 -39 -88 -94v-55h140v-74zM473 727h85v-727h-85v727z" />
    <glyph glyph-name=".notdef" horiz-adv-x="528" 
d="M58 0v714h412v-714h-412zM126 63h276v588h-276v-588z" />
    <glyph glyph-name="NULL" horiz-adv-x="0" 
 />
    <glyph glyph-name="NULL" horiz-adv-x="0" 
 />
    <glyph glyph-name="CR" unicode="&#xd;" horiz-adv-x="278" 
 />
    <glyph glyph-name="space" unicode=" " horiz-adv-x="278" 
 />
    <glyph glyph-name="exclam" unicode="!" horiz-adv-x="314" 
d="M112 714h90v-295l-17 -230h-57l-16 230v295zM209 0h-104v116h104v-116z" />
    <glyph glyph-name="quotedbl" unicode="&#x22;" horiz-adv-x="396" 
d="M78 460v254h81v-254h-81zM237 460v254h81v-254h-81z" />
    <glyph glyph-name="numbersign" unicode="#" horiz-adv-x="595" 
d="M70 506h113l31 194h71l-31 -194h136l31 194h71l-31 -194h100v-68h-111l-27 -176h101v-68h-112l-31 -194h-72l31 194h-135l-31 -194h-72l31 194h-100v68h111l28 176h-102v68zM243 438l-27 -176h135l28 176h-136z" />
    <glyph glyph-name="dollar" unicode="$" 
d="M386 392c114 -21 185 -87 185 -199c0 -104 -83 -198 -229 -206v-85h-60v86c-137 10 -218 90 -234 208h87c15 -79 73 -122 147 -130v266l-39 9c-108 23 -170 82 -170 180s77 187 209 193v84h61v-85c118 -9 194 -87 208 -188h-86c-13 61 -52 103 -122 110v-233zM365 316
l-22 5v-256c81 4 141 53 141 126c0 69 -46 109 -119 125zM160 522c0 -64 32 -87 122 -109v223c-72 -3 -122 -48 -122 -114z" />
    <glyph glyph-name="percent" unicode="%" horiz-adv-x="880" 
d="M267 0h-77l424 700h76zM209 714c107 0 161 -85 161 -189s-54 -189 -161 -189s-161 85 -161 189s54 189 161 189zM209 399c62 0 92 54 92 126s-30 126 -92 126s-92 -54 -92 -126s30 -126 92 -126zM670 365c107 0 161 -85 161 -189s-54 -189 -161 -189s-161 85 -161 189
s54 189 161 189zM670 50c62 0 92 54 92 126s-30 126 -92 126s-92 -54 -92 -126s30 -126 92 -126z" />
    <glyph glyph-name="ampersand" unicode="&#x26;" horiz-adv-x="719" 
d="M540 330h84c-9 -71 -34 -138 -72 -193l133 -137h-108l-67 69h-20c-56 -52 -126 -82 -201 -82c-132 0 -231 71 -231 199c0 82 48 145 100 180l29 19v20l-20 23c-36 41 -55 79 -55 131c0 90 66 155 168 155c101 0 178 -59 178 -153c0 -62 -37 -109 -99 -153l-41 -29
l177 -183c23 40 39 87 45 134zM288 65c64 0 118 26 159 69l-195 203l-35 -23c-48 -31 -75 -73 -75 -127c0 -78 66 -122 146 -122zM241 459l28 -30l41 30c42 30 66 60 66 101c0 51 -44 81 -94 81c-52 0 -88 -28 -88 -82c0 -41 22 -73 47 -100z" />
    <glyph glyph-name="quotesingle" unicode="'" horiz-adv-x="237" 
d="M78 460v254h81v-254h-81z" />
    <glyph glyph-name="parenleft" unicode="(" horiz-adv-x="294" 
d="M128 312c0 -201 78 -344 161 -453h-82c-87 104 -159 253 -159 453c0 196 69 344 152 447h82c-80 -108 -154 -249 -154 -447z" />
    <glyph glyph-name="parenright" unicode=")" horiz-adv-x="294" 
d="M166 312c0 198 -74 339 -154 447h82c83 -103 152 -251 152 -447c0 -200 -72 -349 -159 -453h-82c83 109 161 252 161 453z" />
    <glyph glyph-name="asterisk" unicode="*" horiz-adv-x="475" 
d="M204 714h67l-5 -169l160 58l21 -65l-162 -48l103 -133l-55 -41l-96 139l-95 -139l-55 41l103 133l-161 48l21 65l159 -58z" />
    <glyph glyph-name="plus" unicode="+" horiz-adv-x="682" 
d="M304 321v217h73v-217h218v-73h-218v-217h-73v217h-217v73h217z" />
    <glyph glyph-name="comma" unicode="," horiz-adv-x="258" 
d="M125 0h-48v116h104v-133l-56 -98h-56l56 98v17z" />
    <glyph glyph-name="hyphen" unicode="-" horiz-adv-x="371" 
d="M322 240h-273v75h273v-75z" />
    <glyph glyph-name="period" unicode="." horiz-adv-x="258" 
d="M181 0h-104v116h104v-116z" />
    <glyph glyph-name="slash" unicode="/" horiz-adv-x="406" 
d="M79 -141h-80l302 900h77z" />
    <glyph glyph-name="zero" unicode="0" horiz-adv-x="625" 
d="M312 714c148 0 258 -112 258 -364s-110 -363 -258 -363s-257 111 -257 363s109 364 257 364zM312 65c117 0 170 112 170 285c0 174 -53 286 -170 286c-116 0 -169 -112 -169 -286c0 -173 53 -285 169 -285z" />
    <glyph glyph-name="one" unicode="1" horiz-adv-x="504" 
d="M59 0v78h166v530h-18l-149 -99v92l148 99h107v-622h153v-78h-407z" />
    <glyph glyph-name="two" unicode="2" horiz-adv-x="582" 
d="M52 507c9 140 108 207 233 207c130 0 227 -73 227 -213c0 -95 -72 -185 -155 -254l-175 -149v-20h353v-78h-481v98s186 153 261 220c48 42 109 101 109 183c0 88 -56 135 -141 135c-78 0 -134 -42 -143 -129h-88z" />
    <glyph glyph-name="three" unicode="3" horiz-adv-x="569" 
d="M79 700h409v-96l-175 -154v-19c120 -3 208 -78 208 -213c0 -145 -104 -231 -247 -231c-142 0 -238 90 -245 209h88c7 -80 73 -131 157 -131c95 0 159 58 159 153c0 91 -56 149 -158 149c-23 0 -45 -2 -61 -6v91l171 152v20h-306v76z" />
    <glyph glyph-name="four" unicode="4" horiz-adv-x="612" 
d="M471 242h96v-78h-96v-164h-86v164h-346v98l311 438h121v-458zM131 242h255v359h-20l-235 -339v-20z" />
    <glyph glyph-name="five" unicode="5" horiz-adv-x="595" 
d="M316 471c141 0 226 -104 226 -234c0 -152 -98 -250 -240 -250c-154 0 -236 91 -244 209h87c10 -86 68 -131 153 -131c93 0 156 64 156 168c0 96 -59 164 -153 164c-61 0 -108 -21 -139 -66h-88l31 369h400v-76h-329l-16 -203h20c32 29 71 50 136 50z" />
    <glyph glyph-name="six" unicode="6" horiz-adv-x="593" 
d="M325 456c128 0 225 -94 225 -228s-89 -241 -238 -241s-257 92 -257 344c0 214 83 383 266 383c119 0 193 -72 210 -167h-87c-17 58 -55 89 -123 89c-111 0 -176 -96 -181 -249h20c25 30 80 69 165 69zM311 65c86 0 151 55 151 159c0 103 -67 155 -153 155
c-85 0 -152 -55 -152 -154c0 -102 68 -160 154 -160z" />
    <glyph glyph-name="seven" unicode="7" horiz-adv-x="548" 
d="M495 604l-303 -604h-92l304 604v20h-355v76h446v-96z" />
    <glyph glyph-name="eight" unicode="8" horiz-adv-x="611" 
d="M448 359c46 -17 110 -74 110 -168c0 -116 -99 -204 -253 -204s-253 88 -253 204c0 94 63 151 110 168v20c-37 17 -89 67 -89 148c0 111 96 187 232 187s232 -76 232 -187c0 -79 -53 -131 -89 -148v-20zM305 638c-79 0 -146 -40 -146 -115s67 -116 146 -116
s146 41 146 116s-67 115 -146 115zM305 65c102 0 166 53 166 134c0 82 -64 132 -166 132s-166 -50 -166 -132c0 -81 64 -134 166 -134z" />
    <glyph glyph-name="nine" unicode="9" horiz-adv-x="593" 
d="M268 245c-128 0 -225 94 -225 228s89 241 238 241s257 -92 257 -344c0 -214 -83 -383 -266 -383c-119 0 -193 72 -210 167h87c17 -58 55 -89 123 -89c111 0 176 96 181 249h-20c-25 -30 -80 -69 -165 -69zM282 636c-86 0 -151 -55 -151 -159c0 -103 67 -155 153 -155
c85 0 152 55 152 154c0 102 -68 160 -154 160z" />
    <glyph glyph-name="colon" unicode=":" horiz-adv-x="258" 
d="M181 0h-104v116h104v-116zM181 388h-104v116h104v-116z" />
    <glyph glyph-name="semicolon" unicode=";" horiz-adv-x="258" 
d="M125 0h-48v116h104v-133l-56 -98h-56l56 98v17zM181 388h-104v116h104v-116z" />
    <glyph glyph-name="less" unicode="&#x3c;" horiz-adv-x="678" 
d="M591 105v-76l-504 221v67l504 221v-76l-388 -169v-20z" />
    <glyph glyph-name="equal" unicode="=" horiz-adv-x="680" 
d="M593 221v-73h-506v73h506zM593 420v-73h-506v73h506z" />
    <glyph glyph-name="greater" unicode="&#x3e;" horiz-adv-x="678" 
d="M87 29v76l387 168v20l-387 169v76l504 -221v-67z" />
    <glyph glyph-name="question" unicode="?" horiz-adv-x="547" 
d="M267 727c130 0 215 -76 215 -193c0 -100 -51 -140 -122 -193c-48 -36 -65 -51 -65 -116v-36h-86v36c0 88 29 120 96 170c55 41 91 71 91 139c0 61 -45 119 -128 119c-82 0 -131 -39 -136 -133h-86c5 128 88 207 221 207zM304 0h-104v116h104v-116z" />
    <glyph glyph-name="at" unicode="@" horiz-adv-x="977" 
d="M668 -64l25 -52c-76 -48 -162 -74 -264 -74c-234 0 -372 155 -372 381c0 283 196 503 494 503c203 0 370 -126 370 -341c0 -163 -90 -316 -236 -316c-54 0 -81 20 -96 57h-18c-25 -26 -62 -57 -129 -57c-99 0 -161 66 -161 178c0 130 85 250 216 250c54 0 93 -26 106 -49
h18l8 35h71l-42 -254c0 -2 -5 -36 -5 -51c0 -34 12 -52 46 -52c69 0 158 88 158 252c0 171 -113 290 -318 290c-223 0 -418 -178 -418 -432c0 -174 82 -336 315 -336c86 0 162 25 232 68zM456 102c79 0 137 76 137 183c0 95 -50 115 -96 115c-82 0 -136 -94 -136 -182
c0 -66 29 -116 95 -116z" />
    <glyph glyph-name="A" unicode="A" horiz-adv-x="687" 
d="M573 0l-74 219h-313l-74 -219h-92l247 714h152l248 -714h-94zM322 622l-109 -321h258l-109 321h-40z" />
    <glyph glyph-name="B" unicode="B" horiz-adv-x="701" 
d="M551 367c60 -28 101 -93 101 -166c0 -114 -80 -201 -242 -201h-319v714h311c152 0 228 -83 228 -181c0 -64 -27 -118 -79 -146v-20zM181 634v-223h219c79 0 139 25 139 114c0 81 -69 109 -141 109h-217zM404 80c81 0 157 30 157 128c0 93 -72 124 -156 124h-224v-252h223
z" />
    <glyph glyph-name="C" unicode="C" horiz-adv-x="718" 
d="M573 203h95c-28 -127 -127 -216 -283 -216c-212 0 -330 158 -330 370s119 370 331 370c144 0 246 -78 274 -200h-95c-27 76 -81 118 -179 118c-166 0 -240 -137 -240 -288c0 -152 73 -288 239 -288c100 0 165 52 188 134z" />
    <glyph glyph-name="D" unicode="D" horiz-adv-x="743" 
d="M358 714c219 0 330 -142 330 -357c0 -214 -111 -357 -330 -357h-267v714h267zM358 82c174 0 239 126 239 275c0 150 -65 275 -239 275h-177v-550h177z" />
    <glyph glyph-name="E" unicode="E" horiz-adv-x="652" 
d="M181 82h423v-82h-513v714h497v-82h-407v-221h328v-82h-328v-247z" />
    <glyph glyph-name="F" unicode="F" horiz-adv-x="634" 
d="M590 632h-409v-232h331v-82h-331v-318h-90v714h499v-82z" />
    <glyph glyph-name="G" unicode="G" horiz-adv-x="744" 
d="M373 379h313v-72c0 -164 -83 -320 -300 -320c-216 0 -331 162 -331 370c0 210 117 370 333 370c148 0 248 -77 276 -199h-94c-22 72 -79 117 -182 117c-168 0 -242 -134 -242 -288c0 -152 72 -288 241 -288c148 0 207 102 207 217v13h-221v80z" />
    <glyph glyph-name="H" unicode="H" horiz-adv-x="761" 
d="M580 714h90v-714h-90v326h-399v-326h-90v714h90v-304h399v304z" />
    <glyph glyph-name="I" unicode="I" horiz-adv-x="284" 
d="M97 714h90v-714h-90v714z" />
    <glyph glyph-name="J" unicode="J" horiz-adv-x="582" 
d="M268 -13c-130 0 -221 81 -230 228h90c8 -98 60 -146 142 -146c80 0 133 50 133 158v487h90v-486c0 -151 -85 -241 -225 -241z" />
    <glyph glyph-name="K" unicode="K" horiz-adv-x="718" 
d="M91 0v714h90v-355l367 355h110l-224 -225l251 -489h-96l-215 412h-20l-173 -166v-246h-90z" />
    <glyph glyph-name="L" unicode="L" horiz-adv-x="623" 
d="M181 85h401v-85h-491v714h90v-629z" />
    <glyph glyph-name="M" unicode="M" horiz-adv-x="862" 
d="M91 0v714h148l183 -335h20l180 335h149v-714h-88v612h-20l-186 -339h-92l-186 339h-20v-612h-88z" />
    <glyph glyph-name="N" unicode="N" horiz-adv-x="766" 
d="M587 714h88v-714h-140l-336 597h-20v-597h-88v714h140l336 -597h20v597z" />
    <glyph glyph-name="O" unicode="O" horiz-adv-x="776" 
d="M388 727c217 0 333 -164 333 -370s-116 -370 -333 -370c-218 0 -333 164 -333 370s115 370 333 370zM388 69c170 0 242 138 242 288s-72 288 -242 288s-242 -138 -242 -288s72 -288 242 -288z" />
    <glyph glyph-name="P" unicode="P" horiz-adv-x="687" 
d="M393 714c155 0 242 -81 242 -213c0 -134 -87 -215 -242 -215h-212v-286h-90v714h302zM378 366c122 0 166 51 166 134s-44 134 -166 134h-197v-268h197z" />
    <glyph glyph-name="Q" unicode="Q" horiz-adv-x="776" 
d="M388 727c217 0 333 -164 333 -370c0 -107 -31 -203 -91 -270l97 -154h-92l-64 104c-50 -32 -111 -50 -183 -50c-218 0 -333 164 -333 370s115 370 333 370zM388 69c56 0 102 15 138 41l-126 205h87l93 -148c34 52 50 119 50 190c0 150 -72 288 -242 288
s-242 -138 -242 -288s72 -288 242 -288z" />
    <glyph glyph-name="R" unicode="R" horiz-adv-x="709" 
d="M407 714c150 0 235 -78 235 -208c0 -87 -38 -151 -109 -183l114 -323h-93l-107 302c-19 -2 -38 -3 -58 -3h-208v-299h-90v714h316zM394 379c115 0 157 49 157 127c0 80 -42 128 -157 128h-213v-255h213z" />
    <glyph glyph-name="S" unicode="S" horiz-adv-x="664" 
d="M291 427c31 -6 98 -19 135 -27c106 -24 179 -79 179 -201c0 -112 -89 -212 -270 -212c-167 0 -275 88 -287 212h91c17 -97 101 -130 200 -130s175 46 175 128c0 76 -51 107 -121 122c-35 8 -106 22 -141 29c-103 21 -173 77 -173 181c0 111 90 198 251 198
c148 0 243 -78 259 -193h-91c-17 71 -67 111 -170 111c-86 0 -158 -39 -158 -114c0 -69 60 -91 121 -104z" />
    <glyph glyph-name="T" unicode="T" horiz-adv-x="597" 
d="M578 714v-80h-234v-634h-90v634h-236v80h560z" />
    <glyph glyph-name="U" unicode="U" horiz-adv-x="740" 
d="M561 714h90v-459c0 -168 -100 -268 -281 -268s-281 100 -281 268v459h90v-458c0 -112 66 -187 191 -187s191 75 191 187v458z" />
    <glyph glyph-name="V" unicode="V" horiz-adv-x="668" 
d="M248 0l-228 714h95l195 -622h50l195 622h93l-228 -714h-172z" />
    <glyph glyph-name="W" unicode="W" horiz-adv-x="876" 
d="M377 471h124l132 -370h20l77 613h87l-91 -714h-142l-135 382h-20l-136 -382h-142l-91 714h88l77 -613h20z" />
    <glyph glyph-name="X" unicode="X" horiz-adv-x="647" 
d="M522 0l-181 324h-35l-186 -324h-98l215 377l-184 337h97l157 -285h35l159 285h96l-186 -333l214 -381h-103z" />
    <glyph glyph-name="Y" unicode="Y" horiz-adv-x="643" 
d="M307 389h28l191 325h97l-257 -441v-273h-90v273l-257 441h97z" />
    <glyph glyph-name="Z" unicode="Z" horiz-adv-x="645" 
d="M582 714v-101l-423 -511v-20h437v-82h-548v102l424 510v20h-397v82h507z" />
    <glyph glyph-name="bracketleft" unicode="[" horiz-adv-x="324" 
d="M266 -141h-189v900h189v-68h-109v-764h109v-68z" />
    <glyph glyph-name="backslash" unicode="\" horiz-adv-x="406" 
d="M407 -141h-80l-299 900h77z" />
    <glyph glyph-name="bracketright" unicode="]" horiz-adv-x="324" 
d="M247 -141h-189v68h109v764h-109v68h189v-900z" />
    <glyph glyph-name="asciicircum" unicode="^" horiz-adv-x="547" 
d="M121 294h-79l201 398h61l200 -398h-78l-145 288h-16z" />
    <glyph glyph-name="underscore" unicode="_" horiz-adv-x="505" 
d="M506 -133h-507v64h507v-64z" />
    <glyph glyph-name="grave" unicode="`" horiz-adv-x="264" 
d="M147 582l-108 145h100l86 -145h-78z" />
    <glyph glyph-name="a" unicode="a" horiz-adv-x="557" 
d="M403 0v54h-20c-31 -39 -86 -67 -158 -67c-117 0 -182 78 -182 164c0 81 52 167 193 167h164v20c0 61 -36 105 -123 105c-74 0 -113 -29 -117 -73h-85c6 93 87 147 200 147c126 0 208 -61 208 -174v-343h-80zM245 61c85 0 155 62 155 141v45h-151c-82 0 -121 -35 -121 -94
c0 -57 43 -92 117 -92z" />
    <glyph glyph-name="b" unicode="b" horiz-adv-x="615" 
d="M82 727h85v-278h20c28 36 74 68 153 68c140 0 224 -114 224 -265c0 -150 -84 -265 -224 -265c-79 0 -128 33 -156 68h-20v-55h-82v727zM324 61c102 0 155 79 155 191s-53 191 -155 191c-112 0 -158 -92 -158 -191c0 -98 46 -191 158 -191z" />
    <glyph glyph-name="c" unicode="c" horiz-adv-x="553" 
d="M423 152h85c-18 -98 -95 -165 -212 -165c-157 0 -245 115 -245 265c0 151 88 265 245 265c119 0 192 -66 209 -159h-85c-16 51 -55 85 -124 85c-114 0 -160 -88 -160 -189c0 -102 47 -193 160 -193c72 0 114 35 127 91z" />
    <glyph glyph-name="d" unicode="d" horiz-adv-x="615" 
d="M448 727h85v-727h-82v55h-20c-28 -35 -77 -68 -156 -68c-140 0 -224 115 -224 265c0 151 84 265 224 265c79 0 125 -32 153 -68h20v278zM291 61c112 0 158 93 158 191c0 99 -46 191 -158 191c-102 0 -155 -79 -155 -191s53 -191 155 -191z" />
    <glyph glyph-name="e" unicode="e" horiz-adv-x="569" 
d="M519 282v-29h-384c2 -119 57 -192 161 -192c70 0 113 30 128 78h86c-17 -86 -89 -152 -214 -152c-157 0 -245 116 -245 270c0 155 90 260 243 260c149 0 223 -111 225 -235zM292 443c-92 0 -140 -55 -152 -119h291c-6 63 -53 119 -139 119z" />
    <glyph glyph-name="f" unicode="f" horiz-adv-x="391" 
d="M351 430h-140v-430h-85v430h-99v74h99v58c0 116 57 165 169 165h64v-74h-60c-68 0 -88 -39 -88 -94v-55h140v-74z" />
    <glyph glyph-name="g" unicode="g" horiz-adv-x="615" 
d="M451 504h82v-479c0 -142 -89 -232 -235 -232c-128 0 -213 55 -228 154h84c14 -60 67 -82 143 -82c104 0 151 63 151 164v41h-20c-26 -35 -74 -68 -150 -68c-139 0 -227 110 -227 257c0 148 88 258 227 258c78 0 127 -34 153 -68h20v55zM291 76c108 0 159 87 159 183
c0 97 -51 184 -159 184c-98 0 -155 -74 -155 -184c0 -109 57 -183 155 -183z" />
    <glyph glyph-name="h" unicode="h" horiz-adv-x="604" 
d="M332 517c126 0 198 -79 198 -200v-317h-85v302c0 92 -44 139 -129 139c-90 0 -149 -79 -149 -167v-274h-85v727h85v-278h19c25 38 77 68 146 68z" />
    <glyph glyph-name="i" unicode="i" horiz-adv-x="254" 
d="M176 627h-98v100h98v-100zM169 504v-504h-85v504h85z" />
    <glyph glyph-name="j" unicode="j" horiz-adv-x="265" 
d="M19 -200h-63v74h46c69 0 94 37 94 102v528h85v-531c0 -110 -59 -173 -162 -173zM187 627h-98v100h98v-100z" />
    <glyph glyph-name="k" unicode="k" horiz-adv-x="553" 
d="M540 0h-91l-145 274h-20l-117 -129v-145h-85v727h85v-477l238 254h101l-145 -156z" />
    <glyph glyph-name="l" unicode="l" horiz-adv-x="249" 
d="M82 727h85v-727h-85v727z" />
    <glyph glyph-name="m" unicode="m" horiz-adv-x="851" 
d="M606 517c117 0 171 -75 171 -192v-325h-85v317c0 82 -32 124 -96 124c-80 0 -124 -59 -124 -144v-297h-85v315c0 82 -36 126 -98 126c-80 0 -122 -75 -122 -166v-275h-85v504h82v-49h19c24 37 66 62 128 62c58 0 104 -22 134 -68h20c32 43 78 68 141 68z" />
    <glyph glyph-name="n" unicode="n" horiz-adv-x="604" 
d="M332 517c126 0 198 -79 198 -200v-317h-85v302c0 92 -44 139 -129 139c-90 0 -149 -79 -149 -167v-274h-85v504h82v-55h19c26 38 80 68 149 68z" />
    <glyph glyph-name="o" unicode="o" horiz-adv-x="598" 
d="M299 517c157 0 248 -115 248 -265s-91 -265 -248 -265c-158 0 -248 115 -248 265s90 265 248 265zM299 61c111 0 163 92 163 191c0 98 -52 191 -163 191c-112 0 -163 -93 -163 -191c0 -99 51 -191 163 -191z" />
    <glyph glyph-name="p" unicode="p" horiz-adv-x="615" 
d="M167 -200h-85v704h82v-55h20c28 35 77 68 156 68c140 0 224 -115 224 -265c0 -151 -84 -265 -224 -265c-79 0 -125 32 -153 68h-20v-255zM324 443c-112 0 -158 -93 -158 -191c0 -99 46 -191 158 -191c102 0 155 79 155 191s-53 191 -155 191z" />
    <glyph glyph-name="q" unicode="q" horiz-adv-x="615" 
d="M533 -200h-85v255h-20c-28 -36 -74 -68 -153 -68c-140 0 -224 114 -224 265c0 150 84 265 224 265c79 0 128 -33 156 -68h20v55h82v-704zM291 443c-102 0 -155 -79 -155 -191s53 -191 155 -191c112 0 158 92 158 191c0 98 -46 191 -158 191z" />
    <glyph glyph-name="r" unicode="r" horiz-adv-x="394" 
d="M365 504v-80h-39c-99 0 -159 -62 -159 -172v-252h-85v504h82v-61h20c25 31 73 61 146 61h35z" />
    <glyph glyph-name="s" unicode="s" horiz-adv-x="514" 
d="M226 312l97 -17c92 -16 148 -59 148 -151c0 -82 -72 -157 -207 -157c-141 0 -211 62 -224 158h85c11 -57 62 -84 135 -84c75 0 126 26 126 81c0 45 -26 68 -93 80l-101 18c-77 14 -131 51 -131 128c0 83 64 149 198 149c116 0 188 -58 198 -144h-84c-6 48 -61 70 -119 70
c-61 0 -108 -23 -108 -68c0 -38 25 -53 80 -63z" />
    <glyph glyph-name="t" unicode="t" horiz-adv-x="408" 
d="M214 504h136v-74h-136v-279c0 -50 22 -75 89 -75h47v-76h-53c-110 0 -168 28 -168 134v296h-102v74h102v152h85v-152z" />
    <glyph glyph-name="u" unicode="u" horiz-adv-x="601" 
d="M270 -13c-126 0 -196 79 -196 200v317h85v-302c0 -92 42 -139 127 -139c90 0 148 79 148 167v274h85v-504h-82v55h-19c-26 -38 -79 -68 -148 -68z" />
    <glyph glyph-name="v" unicode="v" horiz-adv-x="539" 
d="M191 0l-169 504h90l141 -424h37l136 424h91l-171 -504h-155z" />
    <glyph glyph-name="w" unicode="w" horiz-adv-x="691" 
d="M293 339h110l84 -249h20l59 414h82l-74 -504h-130l-88 255h-19l-88 -255h-132l-73 504h82l61 -414h20z" />
    <glyph glyph-name="x" unicode="x" horiz-adv-x="551" 
d="M416 0l-126 211h-29l-129 -211h-96l158 258l-142 246h93l117 -200h29l119 200h92l-144 -243l157 -261h-99z" />
    <glyph glyph-name="y" unicode="y" horiz-adv-x="538" 
d="M218 -200h-87l103 245l-212 459h92l152 -332h25l140 332h91z" />
    <glyph glyph-name="z" unicode="z" horiz-adv-x="515" 
d="M467 0h-419v94l306 317v19h-289v74h399v-93l-305 -317v-20h308v-74z" />
    <glyph glyph-name="braceleft" unicode="{" horiz-adv-x="390" 
d="M174 319v-20c33 -10 55 -43 55 -105v-168c0 -72 34 -99 89 -99h33v-68h-39c-95 0 -163 55 -163 159v160c0 61 -12 96 -63 96h-14v70h14c51 0 63 35 63 96v160c0 104 68 159 163 159h39v-68h-33c-55 0 -89 -27 -89 -99v-168c0 -62 -22 -95 -55 -105z" />
    <glyph glyph-name="bar" unicode="|" horiz-adv-x="251" 
d="M87 -141v900h77v-900h-77z" />
    <glyph glyph-name="braceright" unicode="}" horiz-adv-x="390" 
d="M216 299v20c-33 10 -55 43 -55 105v168c0 72 -34 99 -89 99h-33v68h39c95 0 163 -55 163 -159v-160c0 -61 12 -96 63 -96h14v-70h-14c-51 0 -63 -35 -63 -96v-160c0 -104 -68 -159 -163 -159h-39v68h33c55 0 89 27 89 99v168c0 62 22 95 55 105z" />
    <glyph glyph-name="asciitilde" unicode="~" horiz-adv-x="670" 
d="M516 343h67c0 -104 -52 -148 -129 -148c-99 0 -165 109 -241 109c-38 0 -59 -24 -59 -80h-67c0 104 51 148 129 148c100 0 165 -109 241 -109c38 0 59 23 59 80z" />
    <glyph glyph-name="uni00A0" unicode="&#xa0;" horiz-adv-x="278" 
 />
    <glyph glyph-name="exclamdown" unicode="&#xa1;" horiz-adv-x="314" 
d="M202 -200h-90v285l16 230h57l17 -230v-285zM209 388h-104v116h104v-116z" />
    <glyph glyph-name="cent" unicode="&#xa2;" horiz-adv-x="553" 
d="M261 -80v69c-135 16 -210 124 -210 263s75 247 210 263v69h61v-68c103 -9 167 -72 183 -158h-85c-14 44 -45 76 -98 83v-379c56 8 89 41 101 90h85c-17 -91 -84 -154 -186 -164v-68h-61zM136 254c0 -91 37 -173 125 -190v376c-89 -17 -125 -96 -125 -186z" />
    <glyph glyph-name="sterling" unicode="&#xa3;" horiz-adv-x="635" 
d="M213 78h384v-78h-537v77h19c52 0 71 33 71 92v116h-90v74h90v139c0 136 80 216 210 216c125 0 200 -75 204 -201h-87c-2 73 -34 123 -116 123c-88 0 -123 -60 -123 -138v-139h216v-74h-216v-107c0 -34 -2 -58 -25 -80v-20z" />
    <glyph glyph-name="currency" unicode="&#xa4;" horiz-adv-x="724" 
d="M590 7l-68 67c-44 -34 -99 -55 -159 -55c-61 0 -116 21 -161 55l-68 -67l-47 47l67 68c-34 45 -55 101 -55 161s20 115 55 159l-67 68l47 48l68 -67c45 33 100 54 161 54c60 0 115 -21 159 -54l68 67l47 -48l-67 -68c34 -44 55 -99 55 -159s-21 -116 -55 -160l67 -69z
M363 83c107 0 190 86 190 200c0 113 -83 198 -190 198c-108 0 -193 -85 -193 -198c0 -114 85 -200 193 -200z" />
    <glyph glyph-name="yen" unicode="&#xa5;" horiz-adv-x="613" 
d="M105 302v57h97l-180 341h92l178 -341h28l179 341h92l-181 -341h98v-57h-128l-30 -58v-15h158v-57h-158v-172h-88v172h-157v57h157v15l-30 58h-127z" />
    <glyph glyph-name="brokenbar" unicode="&#xa6;" horiz-adv-x="251" 
d="M87 414v345h77v-345h-77zM87 -141v345h77v-345h-77z" />
    <glyph glyph-name="section" unicode="&#xa7;" horiz-adv-x="593" 
d="M378 149c23 13 74 42 74 99c0 55 -30 80 -89 98l-149 46c-28 -11 -74 -42 -74 -100c0 -54 30 -80 89 -98zM533 260c0 -70 -48 -122 -85 -136v-20c24 -21 47 -55 47 -111c0 -94 -83 -167 -205 -167c-121 0 -208 70 -212 198h81c2 -75 47 -126 133 -126c81 0 121 46 121 96
c0 45 -24 75 -74 90l-134 40c-106 32 -147 79 -147 157c0 70 49 122 86 136v20c-26 21 -47 54 -47 111c0 94 79 166 202 166c120 0 206 -69 211 -197h-81c-2 74 -46 126 -133 126c-80 0 -117 -47 -117 -96c0 -44 23 -74 73 -90c6 -1 128 -39 135 -41
c106 -32 146 -79 146 -156z" />
    <glyph glyph-name="dieresis" unicode="&#xa8;" horiz-adv-x="345" 
d="M128 627h-92v100h92v-100zM309 627h-92v100h92v-100z" />
    <glyph glyph-name="copyright" unicode="&#xa9;" horiz-adv-x="857" 
d="M536 296h63c-11 -77 -70 -137 -160 -137c-116 0 -181 87 -181 197c0 112 65 198 181 198c85 0 145 -52 156 -128h-63c-9 45 -38 72 -93 72c-83 0 -118 -64 -118 -142c0 -77 35 -140 118 -140c56 0 88 32 97 80zM429 727c205 0 368 -164 368 -370s-163 -370 -368 -370
s-368 164 -368 370s163 370 368 370zM429 43c174 0 308 138 308 314s-134 314 -308 314s-308 -138 -308 -314s134 -314 308 -314z" />
    <glyph glyph-name="ordfeminine" unicode="&#xaa;" horiz-adv-x="429" 
d="M303 334v41h-9c-24 -28 -66 -49 -119 -49c-90 0 -136 60 -136 124c0 60 37 123 144 123h117v18c0 42 -27 71 -86 71c-53 0 -80 -20 -84 -56h-67c4 72 65 115 149 115c93 0 154 -45 154 -131v-256h-63zM188 383c61 0 112 44 112 102v36h-103c-57 0 -92 -28 -92 -68
c0 -44 35 -70 83 -70z" />
    <glyph glyph-name="guillemotleft" unicode="&#xab;" horiz-adv-x="564" 
d="M135 294v-20l162 -173h-94l-145 151v63l145 152h94zM344 294v-20l162 -173h-94l-146 151v63l146 152h94z" />
    <glyph glyph-name="logicalnot" unicode="&#xac;" horiz-adv-x="683" 
d="M524 108v207h-437v72h509v-279h-72z" />
    <glyph glyph-name="uni00AD" unicode="&#xad;" horiz-adv-x="369" 
d="M321 240h-273v75h273v-75z" />
    <glyph glyph-name="registered" unicode="&#xae;" horiz-adv-x="857" 
d="M463 547c82 0 127 -42 127 -113c0 -46 -20 -80 -56 -98l60 -170h-64l-55 156h-123v-156h-62v381h173zM454 376c53 0 74 22 74 58c0 37 -21 57 -74 57h-102v-115h102zM429 727c205 0 368 -164 368 -370s-163 -370 -368 -370s-368 164 -368 370s163 370 368 370zM429 43
c174 0 308 138 308 314s-134 314 -308 314s-308 -138 -308 -314s134 -314 308 -314z" />
    <glyph glyph-name="macron" unicode="&#xaf;" horiz-adv-x="362" 
d="M322 639h-282v64h282v-64z" />
    <glyph glyph-name="degree" unicode="&#xb0;" horiz-adv-x="472" 
d="M431 523c0 -113 -84 -198 -196 -198s-196 85 -196 198s84 198 196 198s196 -85 196 -198zM235 383c78 0 133 61 133 140s-55 140 -133 140s-133 -61 -133 -140s55 -140 133 -140z" />
    <glyph glyph-name="plusminus" unicode="&#xb1;" horiz-adv-x="682" 
d="M87 0v73h508v-73h-508zM304 379v165h73v-165h218v-73h-218v-160h-73v160h-216v73h216z" />
    <glyph glyph-name="twosuperior" unicode="&#xb2;" horiz-adv-x="362" 
d="M139 391h184v-58h-284v71s79 56 119 85c37 27 85 63 85 110c0 39 -25 63 -66 63c-46 0 -73 -23 -74 -69h-65c2 89 64 128 140 128c75 0 130 -41 130 -119c0 -55 -32 -95 -76 -128l-93 -69v-14z" />
    <glyph glyph-name="threesuperior" unicode="&#xb3;" horiz-adv-x="368" 
d="M229 570c54 -8 99 -49 99 -116c0 -80 -62 -128 -145 -128c-85 0 -143 53 -146 126h64c4 -43 39 -67 82 -67c46 0 80 26 80 70s-31 70 -79 70c-17 0 -24 -1 -36 -3v59l76 61v14h-159v58h247v-64l-83 -66v-14z" />
    <glyph glyph-name="acute" unicode="&#xb4;" horiz-adv-x="264" 
d="M225 727l-109 -145h-77l86 145h100z" />
    <glyph glyph-name="mu" unicode="&#xb5;" horiz-adv-x="609" 
d="M278 -13c-44 0 -81 10 -111 27v-214h-85v704h85v-302c0 -92 42 -139 127 -139c90 0 148 79 148 167v274h85v-504h-82v55h-19c-26 -38 -79 -68 -148 -68z" />
    <glyph glyph-name="paragraph" unicode="&#xb6;" horiz-adv-x="655" 
d="M335 -177h-77v491c-120 0 -220 60 -220 200s90 200 220 200h349v-65h-80v-826h-77v826h-115v-826z" />
    <glyph glyph-name="periodcentered" unicode="&#xb7;" horiz-adv-x="258" 
d="M181 264h-104v116h104v-116z" />
    <glyph glyph-name="cedilla" unicode="&#xb8;" horiz-adv-x="262" 
d="M98 23h46l-32 -83h13c7 5 17 8 31 8c37 0 68 -32 68 -78c0 -41 -27 -85 -95 -85c-56 0 -86 34 -89 69h54c4 -14 16 -24 36 -24c22 0 37 15 37 38s-15 37 -36 37c-13 0 -24 -5 -31 -11h-52z" />
    <glyph glyph-name="onesuperior" unicode="&#xb9;" horiz-adv-x="331" 
d="M199 391h93v-58h-253v58h94v246h-14l-80 -45v65l97 57h63v-323z" />
    <glyph glyph-name="ordmasculine" unicode="&#xba;" horiz-adv-x="446" 
d="M223 721c117 0 184 -87 184 -197s-67 -198 -184 -198s-184 88 -184 198s67 197 184 197zM223 385c79 0 118 69 118 139s-39 137 -118 137c-80 0 -118 -67 -118 -137s38 -139 118 -139z" />
    <glyph glyph-name="guillemotright" unicode="&#xbb;" horiz-adv-x="564" 
d="M220 274v20l-162 173h94l145 -152v-63l-145 -151h-94zM428 274v20l-162 173h94l146 -152v-63l-146 -151h-94z" />
    <glyph glyph-name="onequarter" unicode="&#xbc;" horiz-adv-x="865" 
d="M267 0h-77l424 700h76zM199 391h93v-58h-253v58h94v246h-14l-80 -45v65l97 57h63v-323zM774 144h52v-58h-52v-86h-65v86h-192v62l173 233h84v-237zM590 144h120v158h-14l-106 -144v-14z" />
    <glyph glyph-name="onehalf" unicode="&#xbd;" horiz-adv-x="874" 
d="M267 0h-77l424 700h76zM199 391h93v-58h-253v58h94v246h-14l-80 -45v65l97 57h63v-323zM651 58h184v-58h-284v71s79 56 119 85c37 27 85 63 85 110c0 39 -25 63 -66 63c-46 0 -73 -23 -74 -69h-65c2 89 64 128 140 128c75 0 130 -41 130 -119c0 -55 -32 -95 -76 -128
l-93 -69v-14z" />
    <glyph glyph-name="threequarters" unicode="&#xbe;" horiz-adv-x="869" 
d="M271 0h-77l424 700h76zM778 144h52v-58h-52v-86h-65v86h-192v62l173 233h84v-237zM594 144h120v158h-14l-106 -144v-14zM227 570c54 -8 99 -49 99 -116c0 -80 -62 -128 -145 -128c-85 0 -143 53 -146 126h64c4 -43 39 -67 82 -67c46 0 80 26 80 70s-31 70 -79 70
c-17 0 -24 -1 -36 -3v59l76 61v14h-159v58h247v-64l-83 -66v-14z" />
    <glyph glyph-name="questiondown" unicode="&#xbf;" horiz-adv-x="542" 
d="M232 504h104v-116h-104v116zM269 -207c-130 0 -215 76 -215 193c0 100 51 140 122 193c48 36 65 51 65 116v20h86v-20c0 -88 -29 -120 -96 -170c-55 -41 -91 -71 -91 -139c0 -61 45 -119 128 -119c82 0 131 39 136 133h86c-5 -128 -88 -207 -221 -207z" />
    <glyph glyph-name="Agrave" unicode="&#xc0;" horiz-adv-x="687" 
d="M573 0l-74 219h-313l-74 -219h-92l247 714h152l248 -714h-94zM322 622l-109 -321h258l-109 321h-40zM303 767l-108 129h101l86 -129h-79z" />
    <glyph glyph-name="Aacute" unicode="&#xc1;" horiz-adv-x="687" 
d="M573 0l-74 219h-313l-74 -219h-92l247 714h152l248 -714h-94zM322 622l-109 -321h258l-109 321h-40zM490 896l-109 -129h-78l85 129h102z" />
    <glyph glyph-name="Acircumflex" unicode="&#xc2;" horiz-adv-x="687" 
d="M573 0l-74 219h-313l-74 -219h-92l247 714h152l248 -714h-94zM322 622l-109 -321h258l-109 321h-40zM390 896l107 -129h-84l-61 71h-18l-61 -71h-82l107 129h92z" />
    <glyph glyph-name="Atilde" unicode="&#xc3;" horiz-adv-x="687" 
d="M573 0l-74 219h-313l-74 -219h-92l247 714h152l248 -714h-94zM322 622l-109 -321h258l-109 321h-40zM451 896h55c0 -88 -34 -129 -94 -129c-66 0 -104 66 -145 66c-29 0 -34 -29 -34 -66h-55c0 87 35 129 94 129c66 0 104 -66 145 -66c29 0 34 28 34 66z" />
    <glyph glyph-name="Adieresis" unicode="&#xc4;" horiz-adv-x="687" 
d="M573 0l-74 219h-313l-74 -219h-92l247 714h152l248 -714h-94zM322 622l-109 -321h258l-109 321h-40zM300 796h-92v100h92v-100zM481 796h-92v100h92v-100z" />
    <glyph glyph-name="Aring" unicode="&#xc5;" horiz-adv-x="687" 
d="M343 877c60 0 109 -48 109 -108c0 -27 -11 -52 -28 -71l243 -698h-94l-74 219h-313l-74 -219h-92l241 698c-17 19 -27 44 -27 71c0 60 49 108 109 108zM322 622l-109 -321h258l-109 321h-40zM343 714c30 0 55 24 55 55c0 30 -25 55 -55 55s-55 -25 -55 -55
c0 -31 25 -55 55 -55z" />
    <glyph glyph-name="AE" unicode="&#xc6;" horiz-adv-x="1009" 
d="M392 714h554v-82h-357v-221h277v-82h-277v-247h372v-82h-462v219h-272l-116 -219h-103zM441 632l-174 -331h232v331h-58z" />
    <glyph glyph-name="Ccedilla" unicode="&#xc7;" horiz-adv-x="718" 
d="M573 203h95c-28 -127 -127 -216 -283 -216h-6l-18 -47h13c7 5 17 8 31 8c37 0 68 -32 68 -78c0 -41 -27 -85 -95 -85c-56 0 -86 34 -89 69h54c4 -14 16 -24 36 -24c22 0 37 15 37 38s-15 37 -36 37c-13 0 -24 -5 -31 -11h-52l37 96c-181 23 -279 172 -279 367
c0 212 119 370 331 370c144 0 246 -78 274 -200h-95c-27 76 -81 118 -179 118c-166 0 -240 -137 -240 -288c0 -152 73 -288 239 -288c100 0 165 52 188 134z" />
    <glyph glyph-name="Egrave" unicode="&#xc8;" horiz-adv-x="652" 
d="M181 82h423v-82h-513v714h497v-82h-407v-221h328v-82h-328v-247zM323 767l-108 129h101l86 -129h-79z" />
    <glyph glyph-name="Eacute" unicode="&#xc9;" horiz-adv-x="652" 
d="M181 82h423v-82h-513v714h497v-82h-407v-221h328v-82h-328v-247zM451 896l-109 -129h-78l85 129h102z" />
    <glyph glyph-name="Ecircumflex" unicode="&#xca;" horiz-adv-x="652" 
d="M181 82h423v-82h-513v714h497v-82h-407v-221h328v-82h-328v-247zM385 896l107 -129h-84l-61 71h-18l-61 -71h-82l107 129h92z" />
    <glyph glyph-name="Edieresis" unicode="&#xcb;" horiz-adv-x="652" 
d="M181 82h423v-82h-513v714h497v-82h-407v-221h328v-82h-328v-247zM290 796h-92v100h92v-100zM471 796h-92v100h92v-100z" />
    <glyph glyph-name="Igrave" unicode="&#xcc;" horiz-adv-x="284" 
d="M97 714h90v-714h-90v714zM104 767l-108 129h101l86 -129h-79z" />
    <glyph glyph-name="Iacute" unicode="&#xcd;" horiz-adv-x="284" 
d="M97 714h90v-714h-90v714zM291 896l-109 -129h-78l85 129h102z" />
    <glyph glyph-name="Icircumflex" unicode="&#xce;" horiz-adv-x="284" 
d="M97 714h90v-714h-90v714zM189 896l107 -129h-84l-61 71h-18l-61 -71h-82l107 129h92z" />
    <glyph glyph-name="Idieresis" unicode="&#xcf;" horiz-adv-x="284" 
d="M97 714h90v-714h-90v714zM98 796h-92v100h92v-100zM279 796h-92v100h92v-100z" />
    <glyph glyph-name="Eth" unicode="&#xd0;" horiz-adv-x="768" 
d="M20 332v74h96v308h267c219 0 330 -142 330 -357c0 -214 -111 -357 -330 -357h-267v332h-96zM383 82c174 0 239 126 239 275c0 150 -65 275 -239 275h-177v-226h215v-74h-215v-250h177z" />
    <glyph glyph-name="Ntilde" unicode="&#xd1;" horiz-adv-x="766" 
d="M587 714h88v-714h-140l-336 597h-20v-597h-88v714h140l336 -597h20v597zM492 896h55c0 -88 -34 -129 -94 -129c-66 0 -104 66 -145 66c-29 0 -34 -29 -34 -66h-55c0 87 35 129 94 129c66 0 104 -66 145 -66c29 0 34 28 34 66z" />
    <glyph glyph-name="Ograve" unicode="&#xd2;" horiz-adv-x="776" 
d="M388 727c217 0 333 -164 333 -370s-116 -370 -333 -370c-218 0 -333 164 -333 370s115 370 333 370zM388 69c170 0 242 138 242 288s-72 288 -242 288s-242 -138 -242 -288s72 -288 242 -288zM359 767l-108 129h101l86 -129h-79z" />
    <glyph glyph-name="Oacute" unicode="&#xd3;" horiz-adv-x="776" 
d="M388 727c217 0 333 -164 333 -370s-116 -370 -333 -370c-218 0 -333 164 -333 370s115 370 333 370zM388 69c170 0 242 138 242 288s-72 288 -242 288s-242 -138 -242 -288s72 -288 242 -288zM532 896l-109 -129h-78l85 129h102z" />
    <glyph glyph-name="Ocircumflex" unicode="&#xd4;" horiz-adv-x="776" 
d="M388 727c217 0 333 -164 333 -370s-116 -370 -333 -370c-218 0 -333 164 -333 370s115 370 333 370zM388 69c170 0 242 138 242 288s-72 288 -242 288s-242 -138 -242 -288s72 -288 242 -288zM435 896l107 -129h-84l-61 71h-18l-61 -71h-82l107 129h92z" />
    <glyph glyph-name="Otilde" unicode="&#xd5;" horiz-adv-x="776" 
d="M388 727c217 0 333 -164 333 -370s-116 -370 -333 -370c-218 0 -333 164 -333 370s115 370 333 370zM388 69c170 0 242 138 242 288s-72 288 -242 288s-242 -138 -242 -288s72 -288 242 -288zM497 896h55c0 -88 -34 -129 -94 -129c-66 0 -104 66 -145 66
c-29 0 -34 -29 -34 -66h-55c0 87 35 129 94 129c66 0 104 -66 145 -66c29 0 34 28 34 66z" />
    <glyph glyph-name="Odieresis" unicode="&#xd6;" horiz-adv-x="776" 
d="M388 727c217 0 333 -164 333 -370s-116 -370 -333 -370c-218 0 -333 164 -333 370s115 370 333 370zM388 69c170 0 242 138 242 288s-72 288 -242 288s-242 -138 -242 -288s72 -288 242 -288zM343 796h-92v100h92v-100zM524 796h-92v100h92v-100z" />
    <glyph glyph-name="multiply" unicode="&#xd7;" horiz-adv-x="639" 
d="M269 284l-182 183l50 50l183 -183l182 183l50 -50l-182 -183l182 -183l-50 -50l-182 182l-183 -182l-50 50z" />
    <glyph glyph-name="Oslash" unicode="&#xd8;" horiz-adv-x="776" 
d="M388 727c84 0 153 -26 206 -68l46 55h84l-83 -101c52 -66 80 -156 80 -256c0 -206 -116 -370 -333 -370c-85 0 -154 25 -207 67l-45 -54h-84l83 101c-53 66 -80 156 -80 256c0 206 115 370 333 370zM388 69c170 0 242 138 242 288c0 68 -15 134 -47 185l-347 -421
c37 -33 88 -52 152 -52zM146 357c0 -69 14 -134 47 -186l347 422c-38 32 -88 52 -152 52c-170 0 -242 -138 -242 -288z" />
    <glyph glyph-name="Ugrave" unicode="&#xd9;" horiz-adv-x="740" 
d="M561 714h90v-459c0 -168 -100 -268 -281 -268s-281 100 -281 268v459h90v-458c0 -112 66 -187 191 -187s191 75 191 187v458zM350 767l-108 129h101l86 -129h-79z" />
    <glyph glyph-name="Uacute" unicode="&#xda;" horiz-adv-x="740" 
d="M561 714h90v-459c0 -168 -100 -268 -281 -268s-281 100 -281 268v459h90v-458c0 -112 66 -187 191 -187s191 75 191 187v458zM497 896l-109 -129h-78l85 129h102z" />
    <glyph glyph-name="Ucircumflex" unicode="&#xdb;" horiz-adv-x="740" 
d="M561 714h90v-459c0 -168 -100 -268 -281 -268s-281 100 -281 268v459h90v-458c0 -112 66 -187 191 -187s191 75 191 187v458zM417 896l107 -129h-84l-61 71h-18l-61 -71h-82l107 129h92z" />
    <glyph glyph-name="Udieresis" unicode="&#xdc;" horiz-adv-x="740" 
d="M561 714h90v-459c0 -168 -100 -268 -281 -268s-281 100 -281 268v459h90v-458c0 -112 66 -187 191 -187s191 75 191 187v458zM326 796h-92v100h92v-100zM507 796h-92v100h92v-100z" />
    <glyph glyph-name="Yacute" unicode="&#xdd;" horiz-adv-x="643" 
d="M307 389h28l191 325h97l-257 -441v-273h-90v273l-257 441h97zM463 896l-109 -129h-78l85 129h102z" />
    <glyph glyph-name="Thorn" unicode="&#xde;" horiz-adv-x="647" 
d="M364 562c148 0 231 -77 231 -205c0 -127 -83 -204 -231 -204h-183v-153h-90v714h90v-152h183zM351 233c112 0 153 48 153 124c0 77 -41 125 -153 125h-170v-249h170z" />
    <glyph glyph-name="germandbls" unicode="&#xdf;" horiz-adv-x="618" 
d="M446 383c71 -15 129 -81 129 -173c0 -137 -91 -210 -228 -210h-62v74h50c79 0 155 27 155 136c0 87 -58 141 -171 141h-15v73h15c100 0 134 53 134 112c0 72 -47 117 -123 117c-91 0 -132 -57 -132 -156v-497h-85v430h-94v74h94c0 138 76 224 218 224
c127 0 206 -78 206 -182c0 -71 -36 -125 -91 -144v-19z" />
    <glyph glyph-name="agrave" unicode="&#xe0;" horiz-adv-x="557" 
d="M403 0v54h-20c-31 -39 -86 -67 -158 -67c-117 0 -182 78 -182 164c0 81 52 167 193 167h164v20c0 61 -36 105 -123 105c-74 0 -113 -29 -117 -73h-85c6 93 87 147 200 147c126 0 208 -61 208 -174v-343h-80zM245 61c85 0 155 62 155 141v45h-151c-82 0 -121 -35 -121 -94
c0 -57 43 -92 117 -92zM260 582l-108 145h100l86 -145h-78z" />
    <glyph glyph-name="aacute" unicode="&#xe1;" horiz-adv-x="557" 
d="M403 0v54h-20c-31 -39 -86 -67 -158 -67c-117 0 -182 78 -182 164c0 81 52 167 193 167h164v20c0 61 -36 105 -123 105c-74 0 -113 -29 -117 -73h-85c6 93 87 147 200 147c126 0 208 -61 208 -174v-343h-80zM245 61c85 0 155 62 155 141v45h-151c-82 0 -121 -35 -121 -94
c0 -57 43 -92 117 -92zM410 727l-109 -145h-77l86 145h100z" />
    <glyph glyph-name="acircumflex" unicode="&#xe2;" horiz-adv-x="557" 
d="M403 0v54h-20c-31 -39 -86 -67 -158 -67c-117 0 -182 78 -182 164c0 81 52 167 193 167h164v20c0 61 -36 105 -123 105c-74 0 -113 -29 -117 -73h-85c6 93 87 147 200 147c126 0 208 -61 208 -174v-343h-80zM245 61c85 0 155 62 155 141v45h-151c-82 0 -121 -35 -121 -94
c0 -57 43 -92 117 -92zM329 727l107 -145h-80l-65 86h-18l-64 -86h-79l108 145h91z" />
    <glyph glyph-name="atilde" unicode="&#xe3;" horiz-adv-x="557" 
d="M403 0v54h-20c-31 -39 -86 -67 -158 -67c-117 0 -182 78 -182 164c0 81 52 167 193 167h164v20c0 61 -36 105 -123 105c-74 0 -113 -29 -117 -73h-85c6 93 87 147 200 147c126 0 208 -61 208 -174v-343h-80zM245 61c85 0 155 62 155 141v45h-151c-82 0 -121 -35 -121 -94
c0 -57 43 -92 117 -92zM390 720h54c0 -90 -33 -132 -93 -132c-66 0 -104 70 -145 70c-31 0 -35 -33 -35 -70h-54c0 89 35 132 94 132c65 0 104 -71 145 -71c31 0 34 33 34 71z" />
    <glyph glyph-name="adieresis" unicode="&#xe4;" horiz-adv-x="557" 
d="M403 0v54h-20c-31 -39 -86 -67 -158 -67c-117 0 -182 78 -182 164c0 81 52 167 193 167h164v20c0 61 -36 105 -123 105c-74 0 -113 -29 -117 -73h-85c6 93 87 147 200 147c126 0 208 -61 208 -174v-343h-80zM245 61c85 0 155 62 155 141v45h-151c-82 0 -121 -35 -121 -94
c0 -57 43 -92 117 -92zM235 627h-92v100h92v-100zM416 627h-92v100h92v-100z" />
    <glyph glyph-name="aring" unicode="&#xe5;" horiz-adv-x="557" 
d="M403 0v54h-20c-31 -39 -86 -67 -158 -67c-117 0 -182 78 -182 164c0 81 52 167 193 167h164v20c0 61 -36 105 -123 105c-74 0 -113 -29 -117 -73h-85c6 93 87 147 200 147c126 0 208 -61 208 -174v-343h-80zM245 61c85 0 155 62 155 141v45h-151c-82 0 -121 -35 -121 -94
c0 -57 43 -92 117 -92zM170 687c0 60 49 108 109 108s109 -48 109 -108s-49 -108 -109 -108s-109 48 -109 108zM224 687c0 -30 25 -55 55 -55s55 25 55 55s-25 55 -55 55s-55 -25 -55 -55z" />
    <glyph glyph-name="ae" unicode="&#xe6;" horiz-adv-x="900" 
d="M850 247h-376c1 -110 56 -186 157 -186c70 0 111 29 127 78h86c-18 -87 -88 -152 -213 -152c-86 0 -148 39 -188 98h-20c-35 -52 -102 -98 -194 -98c-121 0 -186 76 -186 165c0 80 53 166 192 166h157v20c0 61 -37 105 -119 105c-69 0 -109 -29 -113 -73h-85
c7 93 85 147 197 147c76 0 135 -28 167 -75h20c39 45 97 75 171 75c144 0 219 -111 220 -236v-34zM392 198v49h-139c-82 0 -125 -35 -125 -92c0 -59 46 -94 116 -94c84 0 148 58 148 137zM627 443c-89 0 -135 -58 -148 -125h284c-7 68 -53 125 -136 125z" />
    <glyph glyph-name="ccedilla" unicode="&#xe7;" horiz-adv-x="553" 
d="M423 152h85c-18 -98 -94 -165 -211 -165l-18 -47h13c7 5 17 8 31 8c37 0 68 -32 68 -78c0 -41 -27 -85 -95 -85c-56 0 -86 34 -89 69h54c4 -14 16 -24 36 -24c22 0 37 15 37 38s-15 37 -36 37c-13 0 -24 -5 -31 -11h-52l37 96c-130 19 -201 126 -201 262
c0 151 88 265 245 265c119 0 192 -66 209 -159h-85c-16 51 -55 85 -124 85c-114 0 -160 -88 -160 -189c0 -102 47 -193 160 -193c72 0 114 35 127 91z" />
    <glyph glyph-name="egrave" unicode="&#xe8;" horiz-adv-x="569" 
d="M519 282v-29h-384c2 -119 57 -192 161 -192c70 0 113 30 128 78h86c-17 -86 -89 -152 -214 -152c-157 0 -245 116 -245 270c0 155 90 260 243 260c149 0 223 -111 225 -235zM292 443c-92 0 -140 -55 -152 -119h291c-6 63 -53 119 -139 119zM275 582l-108 145h100l86 -145
h-78z" />
    <glyph glyph-name="eacute" unicode="&#xe9;" horiz-adv-x="569" 
d="M519 282v-29h-384c2 -119 57 -192 161 -192c70 0 113 30 128 78h86c-17 -86 -89 -152 -214 -152c-157 0 -245 116 -245 270c0 155 90 260 243 260c149 0 223 -111 225 -235zM292 443c-92 0 -140 -55 -152 -119h291c-6 63 -53 119 -139 119zM431 727l-109 -145h-77l86 145
h100z" />
    <glyph glyph-name="ecircumflex" unicode="&#xea;" horiz-adv-x="569" 
d="M519 282v-29h-384c2 -119 57 -192 161 -192c70 0 113 30 128 78h86c-17 -86 -89 -152 -214 -152c-157 0 -245 116 -245 270c0 155 90 260 243 260c149 0 223 -111 225 -235zM292 443c-92 0 -140 -55 -152 -119h291c-6 63 -53 119 -139 119zM342 727l107 -145h-80l-65 86
h-18l-64 -86h-79l108 145h91z" />
    <glyph glyph-name="edieresis" unicode="&#xeb;" horiz-adv-x="569" 
d="M519 282v-29h-384c2 -119 57 -192 161 -192c70 0 113 30 128 78h86c-17 -86 -89 -152 -214 -152c-157 0 -245 116 -245 270c0 155 90 260 243 260c149 0 223 -111 225 -235zM292 443c-92 0 -140 -55 -152 -119h291c-6 63 -53 119 -139 119zM246 627h-92v100h92v-100z
M427 627h-92v100h92v-100z" />
    <glyph glyph-name="igrave" unicode="&#xec;" horiz-adv-x="254" 
d="M90 582l-108 145h100l86 -145h-78zM169 504v-504h-85v504h85z" />
    <glyph glyph-name="iacute" unicode="&#xed;" horiz-adv-x="254" 
d="M276 727l-109 -145h-77l86 145h100zM169 504v-504h-85v504h85z" />
    <glyph glyph-name="icircumflex" unicode="&#xee;" horiz-adv-x="254" 
d="M169 504v-504h-85v504h85zM173 727l107 -145h-80l-65 86h-18l-64 -86h-79l108 145h91z" />
    <glyph glyph-name="idieresis" unicode="&#xef;" horiz-adv-x="254" 
d="M82 627h-92v100h92v-100zM263 627h-92v100h92v-100zM169 504v-504h-85v504h85z" />
    <glyph glyph-name="eth" unicode="&#xf0;" horiz-adv-x="592" 
d="M142 550v59h164c-44 47 -98 87 -143 118h107c41 -29 89 -67 134 -118h122v-59h-77c55 -73 92 -171 92 -292c0 -153 -79 -271 -246 -271c-152 0 -244 112 -244 248c0 137 92 245 230 245c52 0 98 -18 125 -44h22c-16 42 -41 80 -71 114h-215zM296 61c113 0 160 80 160 173
s-47 174 -160 174s-162 -81 -162 -174s49 -173 162 -173z" />
    <glyph glyph-name="ntilde" unicode="&#xf1;" horiz-adv-x="604" 
d="M332 517c126 0 198 -79 198 -200v-317h-85v302c0 92 -44 139 -129 139c-90 0 -149 -79 -149 -167v-274h-85v504h82v-55h19c26 38 80 68 149 68zM416 720h54c0 -90 -33 -132 -93 -132c-66 0 -104 70 -145 70c-31 0 -35 -33 -35 -70h-54c0 89 35 132 94 132
c65 0 104 -71 145 -71c31 0 34 33 34 71z" />
    <glyph glyph-name="ograve" unicode="&#xf2;" horiz-adv-x="598" 
d="M299 517c157 0 248 -115 248 -265s-91 -265 -248 -265c-158 0 -248 115 -248 265s90 265 248 265zM299 61c111 0 163 92 163 191c0 98 -52 191 -163 191c-112 0 -163 -93 -163 -191c0 -99 51 -191 163 -191zM269 582l-108 145h100l86 -145h-78z" />
    <glyph glyph-name="oacute" unicode="&#xf3;" horiz-adv-x="598" 
d="M299 517c157 0 248 -115 248 -265s-91 -265 -248 -265c-158 0 -248 115 -248 265s90 265 248 265zM299 61c111 0 163 92 163 191c0 98 -52 191 -163 191c-112 0 -163 -93 -163 -191c0 -99 51 -191 163 -191zM445 727l-109 -145h-77l86 145h100z" />
    <glyph glyph-name="ocircumflex" unicode="&#xf4;" horiz-adv-x="598" 
d="M299 517c157 0 248 -115 248 -265s-91 -265 -248 -265c-158 0 -248 115 -248 265s90 265 248 265zM299 61c111 0 163 92 163 191c0 98 -52 191 -163 191c-112 0 -163 -93 -163 -191c0 -99 51 -191 163 -191zM345 727l107 -145h-80l-65 86h-18l-64 -86h-79l108 145h91z
" />
    <glyph glyph-name="otilde" unicode="&#xf5;" horiz-adv-x="598" 
d="M299 517c157 0 248 -115 248 -265s-91 -265 -248 -265c-158 0 -248 115 -248 265s90 265 248 265zM299 61c111 0 163 92 163 191c0 98 -52 191 -163 191c-112 0 -163 -93 -163 -191c0 -99 51 -191 163 -191zM408 720h54c0 -90 -33 -132 -93 -132c-66 0 -104 70 -145 70
c-31 0 -35 -33 -35 -70h-54c0 89 35 132 94 132c65 0 104 -71 145 -71c31 0 34 33 34 71z" />
    <glyph glyph-name="odieresis" unicode="&#xf6;" horiz-adv-x="598" 
d="M299 517c157 0 248 -115 248 -265s-91 -265 -248 -265c-158 0 -248 115 -248 265s90 265 248 265zM299 61c111 0 163 92 163 191c0 98 -52 191 -163 191c-112 0 -163 -93 -163 -191c0 -99 51 -191 163 -191zM255 627h-92v100h92v-100zM436 627h-92v100h92v-100z" />
    <glyph glyph-name="divide" unicode="&#xf7;" horiz-adv-x="684" 
d="M392 25h-100v111h100v-111zM392 433h-100v111h100v-111zM597 248h-510v73h510v-73z" />
    <glyph glyph-name="oslash" unicode="&#xf8;" horiz-adv-x="601" 
d="M301 517c59 0 109 -17 148 -45l27 32h78l-62 -73c37 -47 57 -109 57 -179c0 -150 -91 -265 -248 -265c-60 0 -110 16 -149 45l-27 -32h-78l62 73c-37 46 -56 109 -56 179c0 150 90 265 248 265zM301 61c111 0 163 92 163 191c0 41 -9 81 -28 113l-232 -273
c25 -19 57 -31 97 -31zM138 252c0 -41 9 -81 27 -114l232 273c-25 20 -57 32 -96 32c-112 0 -163 -93 -163 -191z" />
    <glyph glyph-name="ugrave" unicode="&#xf9;" horiz-adv-x="594" 
d="M270 -13c-126 0 -196 79 -196 200v317h85v-302c0 -92 42 -139 127 -139c90 0 148 79 148 167v274h85v-504h-82v55h-19c-26 -38 -79 -68 -148 -68zM270 582l-108 145h100l86 -145h-78z" />
    <glyph glyph-name="uacute" unicode="&#xfa;" horiz-adv-x="601" 
d="M270 -13c-126 0 -196 79 -196 200v317h85v-302c0 -92 42 -139 127 -139c90 0 148 79 148 167v274h85v-504h-82v55h-19c-26 -38 -79 -68 -148 -68zM424 727l-109 -145h-77l86 145h100z" />
    <glyph glyph-name="ucircumflex" unicode="&#xfb;" horiz-adv-x="594" 
d="M270 -13c-126 0 -196 79 -196 200v317h85v-302c0 -92 42 -139 127 -139c90 0 148 79 148 167v274h85v-504h-82v55h-19c-26 -38 -79 -68 -148 -68zM342 727l107 -145h-80l-65 86h-18l-64 -86h-79l108 145h91z" />
    <glyph glyph-name="udieresis" unicode="&#xfc;" horiz-adv-x="601" 
d="M270 -13c-126 0 -196 79 -196 200v317h85v-302c0 -92 42 -139 127 -139c90 0 148 79 148 167v274h85v-504h-82v55h-19c-26 -38 -79 -68 -148 -68zM251 627h-92v100h92v-100zM432 627h-92v100h92v-100z" />
    <glyph glyph-name="yacute" unicode="&#xfd;" horiz-adv-x="538" 
d="M218 -200h-87l103 245l-212 459h92l152 -332h25l140 332h91zM417 727l-109 -145h-77l86 145h100z" />
    <glyph glyph-name="thorn" unicode="&#xfe;" horiz-adv-x="615" 
d="M564 252c0 -151 -84 -265 -224 -265c-79 0 -125 32 -153 68h-20v-255h-85v927h85v-278h20c28 36 74 68 153 68c140 0 224 -114 224 -265zM479 252c0 112 -53 191 -155 191c-112 0 -158 -92 -158 -191s46 -191 158 -191c102 0 155 79 155 191z" />
    <glyph glyph-name="ydieresis" unicode="&#xff;" horiz-adv-x="538" 
d="M218 -200h-87l103 245l-212 459h92l152 -332h25l140 332h91zM228 627h-92v100h92v-100zM409 627h-92v100h92v-100z" />
    <glyph glyph-name="Amacron" unicode="&#x100;" horiz-adv-x="688" 
d="M573 0l-74 219h-313l-74 -219h-92l247 714h152l248 -714h-94zM322 622l-109 -321h258l-109 321h-40zM484 809h-282v64h282v-64z" />
    <glyph glyph-name="amacron" unicode="&#x101;" horiz-adv-x="558" 
d="M403 0v54h-20c-31 -39 -86 -67 -158 -67c-117 0 -182 78 -182 164c0 81 52 167 193 167h164v20c0 61 -36 105 -123 105c-74 0 -113 -29 -117 -73h-85c6 93 87 147 200 147c126 0 208 -61 208 -174v-343h-80zM245 61c85 0 155 62 155 141v45h-151c-82 0 -121 -35 -121 -94
c0 -57 43 -92 117 -92zM425 639h-282v64h282v-64z" />
    <glyph glyph-name="abreve" unicode="&#x103;" horiz-adv-x="558" 
d="M403 0v54h-20c-31 -39 -86 -67 -158 -67c-117 0 -182 78 -182 164c0 81 52 167 193 167h164v20c0 61 -36 105 -123 105c-74 0 -113 -29 -117 -73h-85c6 93 87 147 200 147c126 0 208 -61 208 -174v-343h-80zM245 61c85 0 155 62 155 141v45h-151c-82 0 -121 -35 -121 -94
c0 -57 43 -92 117 -92zM353 727h66c0 -91 -52 -145 -138 -145c-87 0 -139 54 -139 145h65c0 -51 24 -84 73 -84s73 33 73 84z" />
    <glyph glyph-name="Aogonek" unicode="&#x104;" horiz-adv-x="688" 
d="M573 0l-74 219h-313l-74 -219h-92l247 714h152l248 -714c-39 -20 -72 -55 -72 -90c0 -33 28 -52 74 -52v-58h-21c-77 0 -124 34 -124 95c0 43 33 85 73 105h-24zM322 622l-109 -321h258l-109 321h-40z" />
    <glyph glyph-name="aogonek" unicode="&#x105;" horiz-adv-x="558" 
d="M403 0v54h-20c-31 -39 -86 -67 -158 -67c-117 0 -182 78 -182 164c0 81 52 167 193 167h164v20c0 61 -36 105 -123 105c-74 0 -113 -29 -117 -73h-85c6 93 87 147 200 147c126 0 208 -61 208 -174v-343c-39 -20 -72 -55 -72 -90c0 -33 28 -52 74 -52v-58h-21
c-77 0 -124 34 -124 95c0 40 27 83 63 105zM245 61c85 0 155 63 155 143v46h-151c-82 0 -121 -36 -121 -96c0 -57 43 -93 117 -93z" />
    <glyph glyph-name="Cacute" unicode="&#x106;" horiz-adv-x="718" 
d="M573 203h95c-28 -127 -127 -216 -283 -216c-212 0 -330 158 -330 370s119 370 331 370c144 0 246 -78 274 -200h-95c-27 76 -81 118 -179 118c-166 0 -240 -137 -240 -288c0 -152 73 -288 239 -288c100 0 165 52 188 134zM521 896l-109 -129h-78l85 129h102z" />
    <glyph glyph-name="cacute" unicode="&#x107;" horiz-adv-x="553" 
d="M423 152h85c-18 -98 -95 -165 -212 -165c-157 0 -245 115 -245 265c0 151 88 265 245 265c119 0 192 -66 209 -159h-85c-16 51 -55 85 -124 85c-114 0 -160 -88 -160 -189c0 -102 47 -193 160 -193c72 0 114 35 127 91zM423 727l-109 -145h-77l86 145h100z" />
    <glyph glyph-name="Ccaron" unicode="&#x10c;" horiz-adv-x="718" 
d="M573 203h95c-28 -127 -127 -216 -283 -216c-212 0 -330 158 -330 370s119 370 331 370c144 0 246 -78 274 -200h-95c-27 76 -81 118 -179 118c-166 0 -240 -137 -240 -288c0 -152 73 -288 239 -288c100 0 165 52 188 134zM332 767l-107 129h84l61 -71h18l61 71h82
l-107 -129h-92z" />
    <glyph glyph-name="ccaron" unicode="&#x10d;" horiz-adv-x="553" 
d="M423 152h85c-18 -98 -95 -165 -212 -165c-157 0 -245 115 -245 265c0 151 88 265 245 265c119 0 192 -66 209 -159h-85c-16 51 -55 85 -124 85c-114 0 -160 -88 -160 -189c0 -102 47 -193 160 -193c72 0 114 35 127 91zM248 582l-107 145h80l65 -86h18l64 86h79
l-108 -145h-91z" />
    <glyph glyph-name="Dcaron" unicode="&#x10e;" horiz-adv-x="743" 
d="M358 714c219 0 330 -142 330 -357c0 -214 -111 -357 -330 -357h-267v714h267zM358 82c174 0 239 126 239 275c0 150 -65 275 -239 275h-177v-550h177zM292 767l-107 129h84l61 -71h18l61 71h82l-107 -129h-92z" />
    <glyph glyph-name="dcaron" unicode="&#x10f;" horiz-adv-x="698" 
d="M671 627h-46v100h102v-117l-53 -74h-56l53 74v17zM448 727h85v-727h-82v55h-20c-28 -35 -77 -68 -156 -68c-140 0 -224 115 -224 265c0 151 84 265 224 265c79 0 125 -32 153 -68h20v278zM291 61c112 0 158 93 158 191c0 99 -46 191 -158 191c-102 0 -155 -79 -155 -191
s53 -191 155 -191z" />
    <glyph glyph-name="Dcroat" unicode="&#x110;" horiz-adv-x="749" 
d="M20 332v74h77v308h267c219 0 330 -142 330 -357c0 -214 -111 -357 -330 -357h-267v332h-77zM364 82c174 0 239 126 239 275c0 150 -65 275 -239 275h-177v-226h234v-74h-234v-250h177z" />
    <glyph glyph-name="dcroat" unicode="&#x111;" horiz-adv-x="624" 
d="M533 0h-82v55h-20c-28 -35 -77 -68 -156 -68c-140 0 -224 115 -224 265c0 151 84 265 224 265c79 0 125 -32 153 -68h20v129h-162v61h162v88h85v-88h79v-61h-79v-578zM291 61c112 0 158 93 158 191c0 99 -46 191 -158 191c-102 0 -155 -79 -155 -191s53 -191 155 -191z
" />
    <glyph glyph-name="Emacron" unicode="&#x112;" horiz-adv-x="652" 
d="M181 82h423v-82h-513v714h497v-82h-407v-221h328v-82h-328v-247zM488 809h-282v64h282v-64z" />
    <glyph glyph-name="emacron" unicode="&#x113;" horiz-adv-x="569" 
d="M519 282v-29h-384c2 -119 57 -192 161 -192c70 0 113 30 128 78h86c-17 -86 -89 -152 -214 -152c-157 0 -245 116 -245 270c0 155 90 260 243 260c149 0 223 -111 225 -235zM292 443c-92 0 -140 -55 -152 -119h291c-6 63 -53 119 -139 119zM438 639h-282v64h282v-64z" />
    <glyph glyph-name="Edotaccent" unicode="&#x116;" horiz-adv-x="652" 
d="M181 82h423v-82h-513v714h497v-82h-407v-221h328v-82h-328v-247zM396 796h-98v100h98v-100z" />
    <glyph glyph-name="edotaccent" unicode="&#x117;" horiz-adv-x="569" 
d="M519 282v-29h-384c2 -119 57 -192 161 -192c70 0 113 30 128 78h86c-17 -86 -89 -152 -214 -152c-157 0 -245 116 -245 270c0 155 90 260 243 260c149 0 223 -111 225 -235zM292 443c-92 0 -140 -55 -152 -119h291c-6 63 -53 119 -139 119zM344 627h-98v100h98v-100z" />
    <glyph glyph-name="Eogonek" unicode="&#x118;" horiz-adv-x="652" 
d="M181 82h423v-82c-39 -20 -72 -55 -72 -90c0 -33 28 -52 74 -52v-58h-21c-77 0 -124 34 -124 95c0 43 33 85 73 105h-443v714h497v-82h-407v-221h328v-82h-328v-247z" />
    <glyph glyph-name="eogonek" unicode="&#x119;" horiz-adv-x="569" 
d="M519 282v-29h-384c2 -119 57 -192 161 -192c70 0 113 30 128 78h86c-11 -63 -51 -105 -112 -134c-40 -19 -76 -49 -76 -93c0 -33 28 -54 74 -54v-58h-21c-77 0 -124 34 -124 95c0 37 24 71 55 92h-10c-157 0 -245 116 -245 270c0 155 90 260 243 260
c149 0 223 -111 225 -235zM292 443c-92 0 -140 -55 -152 -119h291c-6 63 -53 119 -139 119z" />
    <glyph glyph-name="Ecaron" unicode="&#x11a;" horiz-adv-x="652" 
d="M181 82h423v-82h-513v714h497v-82h-407v-221h328v-82h-328v-247zM302 767l-107 129h84l61 -71h18l61 71h82l-107 -129h-92z" />
    <glyph glyph-name="ecaron" unicode="&#x11b;" horiz-adv-x="569" 
d="M519 282v-29h-384c2 -119 57 -192 161 -192c70 0 113 30 128 78h86c-17 -86 -89 -152 -214 -152c-157 0 -245 116 -245 270c0 155 90 260 243 260c149 0 223 -111 225 -235zM292 443c-92 0 -140 -55 -152 -119h291c-6 63 -53 119 -139 119zM240 582l-107 145h80l65 -86
h18l64 86h79l-108 -145h-91z" />
    <glyph glyph-name="uni0122" unicode="&#x122;" horiz-adv-x="746" 
d="M373 379h313v-72c0 -164 -83 -320 -300 -320c-216 0 -331 162 -331 370c0 210 117 370 333 370c148 0 248 -77 276 -199h-94c-22 72 -79 117 -182 117c-168 0 -242 -134 -242 -288c0 -152 72 -288 241 -288c148 0 207 102 207 217v13h-221v80zM387 -220h-57l55 62v17h-44
v83h100v-100z" />
    <glyph glyph-name="uni0123" unicode="&#x123;" horiz-adv-x="616" 
d="M452 504h82v-479c0 -142 -89 -232 -235 -232c-128 0 -213 55 -228 154h84c14 -60 67 -82 143 -82c104 0 151 63 151 164v41h-20c-26 -35 -74 -68 -150 -68c-139 0 -227 110 -227 257c0 148 88 258 227 258c78 0 127 -34 153 -68h20v55zM292 76c108 0 159 87 159 183
c0 97 -51 184 -159 184c-98 0 -155 -74 -155 -184c0 -109 57 -183 155 -183zM307 736h57l-55 -62v-17h44v-83h-100v100z" />
    <glyph glyph-name="Itilde" unicode="&#x128;" horiz-adv-x="284" 
d="M97 714h90v-714h-90v714zM252 896h55c0 -88 -34 -129 -94 -129c-66 0 -104 66 -145 66c-29 0 -34 -29 -34 -66h-55c0 87 35 129 94 129c66 0 104 -66 145 -66c29 0 34 28 34 66z" />
    <glyph glyph-name="itilde" unicode="&#x129;" horiz-adv-x="254" 
d="M236 720h54c0 -90 -33 -132 -93 -132c-66 0 -104 70 -145 70c-31 0 -35 -33 -35 -70h-54c0 89 35 132 94 132c65 0 104 -71 145 -71c31 0 34 33 34 71zM169 504v-504h-85v504h85z" />
    <glyph glyph-name="Imacron" unicode="&#x12a;" horiz-adv-x="284" 
d="M97 714h90v-714h-90v714zM283 809h-282v64h282v-64z" />
    <glyph glyph-name="imacron" unicode="&#x12b;" horiz-adv-x="254" 
d="M267 639h-282v64h282v-64zM169 504v-504h-85v504h85z" />
    <glyph glyph-name="Iogonek" unicode="&#x12e;" horiz-adv-x="284" 
d="M97 714h90v-714c-39 -20 -72 -55 -72 -90c0 -33 28 -52 74 -52v-58h-21c-77 0 -124 34 -124 95c0 43 33 85 73 105h-20v714z" />
    <glyph glyph-name="iogonek" unicode="&#x12f;" horiz-adv-x="254" 
d="M169 504v-504c-39 -20 -72 -55 -72 -90c0 -33 28 -52 74 -52v-58h-21c-77 0 -124 34 -124 95c0 43 33 85 73 105h-15v504h85zM176 627h-98v100h98v-100z" />
    <glyph glyph-name="dotlessi" unicode="&#x131;" horiz-adv-x="254" 
d="M169 504v-504h-85v504h85z" />
    <glyph glyph-name="uni0136" unicode="&#x136;" horiz-adv-x="718" 
d="M91 0v714h90v-355l367 355h110l-224 -225l251 -489h-96l-215 412h-20l-173 -166v-246h-90zM377 -220h-57l55 62v17h-44v83h100v-100z" />
    <glyph glyph-name="uni0137" unicode="&#x137;" horiz-adv-x="553" 
d="M540 0h-91l-145 274h-20l-117 -129v-145h-85v727h85v-477l238 254h101l-145 -156zM302 -220h-57l55 62v17h-44v83h100v-100z" />
    <glyph glyph-name="kgreenlandic" unicode="&#x138;" horiz-adv-x="553" 
d="M540 0h-91l-145 274h-20l-117 -129v-145h-85v504h85v-254l238 254h101l-145 -156z" />
    <glyph glyph-name="Lacute" unicode="&#x139;" horiz-adv-x="623" 
d="M181 85h401v-85h-491v714h90v-629zM284 896l-109 -129h-78l85 129h102z" />
    <glyph glyph-name="lacute" unicode="&#x13a;" horiz-adv-x="249" 
d="M82 727h85v-727h-85v727zM274 896l-109 -129h-78l85 129h102z" />
    <glyph glyph-name="uni013B" unicode="&#x13b;" horiz-adv-x="623" 
d="M181 85h401v-85h-491v714h90v-629zM334 -220h-57l55 62v17h-44v83h100v-100z" />
    <glyph glyph-name="uni013C" unicode="&#x13c;" horiz-adv-x="249" 
d="M82 727h85v-727h-85v727zM120 -220h-57l55 62v17h-44v83h100v-100z" />
    <glyph glyph-name="Lcaron" unicode="&#x13d;" horiz-adv-x="623" 
d="M181 85h401v-85h-491v714h90v-629zM415 614h-46v100h102v-117l-53 -74h-56l53 74v17z" />
    <glyph glyph-name="lcaron" unicode="&#x13e;" horiz-adv-x="333" 
d="M82 727h85v-727h-85v727zM306 627h-46v100h102v-117l-53 -74h-56l53 74v17z" />
    <glyph glyph-name="Lslash" unicode="&#x141;" horiz-adv-x="641" 
d="M199 85h401v-85h-491v309l-89 -36v78l89 36v327h90v-291l174 70v-77l-174 -71v-260z" />
    <glyph glyph-name="lslash" unicode="&#x142;" horiz-adv-x="337" 
d="M27 267v81l99 45v334h85v-296l99 45v-81l-99 -45v-350h-85v312z" />
    <glyph glyph-name="Nacute" unicode="&#x143;" horiz-adv-x="766" 
d="M587 714h88v-714h-140l-336 597h-20v-597h-88v714h140l336 -597h20v597zM524 896l-109 -129h-78l85 129h102z" />
    <glyph glyph-name="nacute" unicode="&#x144;" horiz-adv-x="604" 
d="M332 517c126 0 198 -79 198 -200v-317h-85v302c0 92 -44 139 -129 139c-90 0 -149 -79 -149 -167v-274h-85v504h82v-55h19c26 38 80 68 149 68zM449 727l-109 -145h-77l86 145h100z" />
    <glyph glyph-name="uni0145" unicode="&#x145;" horiz-adv-x="766" 
d="M587 714h88v-714h-140l-336 597h-20v-597h-88v714h140l336 -597h20v597zM373 -220h-57l55 62v17h-44v83h100v-100z" />
    <glyph glyph-name="uni0146" unicode="&#x146;" horiz-adv-x="604" 
d="M332 517c126 0 198 -79 198 -200v-317h-85v302c0 92 -44 139 -129 139c-90 0 -149 -79 -149 -167v-274h-85v504h82v-55h19c26 38 80 68 149 68zM302 -220h-57l55 62v17h-44v83h100v-100z" />
    <glyph glyph-name="Ncaron" unicode="&#x147;" horiz-adv-x="766" 
d="M587 714h88v-714h-140l-336 597h-20v-597h-88v714h140l336 -597h20v597zM337 767l-107 129h84l61 -71h18l61 71h82l-107 -129h-92z" />
    <glyph glyph-name="ncaron" unicode="&#x148;" horiz-adv-x="604" 
d="M332 517c126 0 198 -79 198 -200v-317h-85v302c0 92 -44 139 -129 139c-90 0 -149 -79 -149 -167v-274h-85v504h82v-55h19c26 38 80 68 149 68zM259 582l-107 145h80l65 -86h18l64 86h79l-108 -145h-91z" />
    <glyph glyph-name="Eng" unicode="&#x14a;" horiz-adv-x="766" 
d="M675 714v-685c0 -144 -82 -228 -218 -229h-50v78h48c76 0 124 37 133 122h-53l-336 597h-20v-597h-88v714h140l336 -597h20v597h88z" />
    <glyph glyph-name="eng" unicode="&#x14b;" horiz-adv-x="604" 
d="M332 517c126 0 198 -79 198 -200v-344c0 -110 -59 -173 -162 -173h-63v74h46c69 0 94 37 94 102v326c0 92 -44 139 -129 139c-90 0 -149 -79 -149 -167v-274h-85v504h82v-55h19c26 38 80 68 149 68z" />
    <glyph glyph-name="Omacron" unicode="&#x14c;" horiz-adv-x="776" 
d="M388 727c217 0 333 -164 333 -370s-116 -370 -333 -370c-218 0 -333 164 -333 370s115 370 333 370zM388 69c170 0 242 138 242 288s-72 288 -242 288s-242 -138 -242 -288s72 -288 242 -288zM529 809h-282v64h282v-64z" />
    <glyph glyph-name="omacron" unicode="&#x14d;" horiz-adv-x="598" 
d="M299 517c157 0 248 -115 248 -265s-91 -265 -248 -265c-158 0 -248 115 -248 265s90 265 248 265zM299 61c111 0 163 92 163 191c0 98 -52 191 -163 191c-112 0 -163 -93 -163 -191c0 -99 51 -191 163 -191zM440 639h-282v64h282v-64z" />
    <glyph glyph-name="Ohungarumlaut" unicode="&#x150;" horiz-adv-x="776" 
d="M388 727c217 0 333 -164 333 -370s-116 -370 -333 -370c-218 0 -333 164 -333 370s115 370 333 370zM388 69c170 0 242 138 242 288s-72 288 -242 288s-242 -138 -242 -288s72 -288 242 -288zM440 896l-99 -129h-74l77 129h96zM602 896l-100 -129h-73l77 129h96z" />
    <glyph glyph-name="ohungarumlaut" unicode="&#x151;" horiz-adv-x="598" 
d="M299 517c157 0 248 -115 248 -265s-91 -265 -248 -265c-158 0 -248 115 -248 265s90 265 248 265zM299 61c111 0 163 92 163 191c0 98 -52 191 -163 191c-112 0 -163 -93 -163 -191c0 -99 51 -191 163 -191zM346 727l-98 -145h-72l76 145h94zM504 727l-99 -145h-71
l76 145h94z" />
    <glyph glyph-name="OE" unicode="&#x152;" horiz-adv-x="1085" 
d="M665 82h372v-82h-462v51h-20c-43 -43 -111 -64 -175 -64c-207 0 -325 159 -325 370s118 370 325 370c64 0 132 -20 175 -63h20v50h447v-82h-357v-221h277v-82h-277v-247zM386 69c103 0 164 52 189 110v357c-25 58 -87 109 -189 109c-168 0 -240 -138 -240 -288
s72 -288 240 -288z" />
    <glyph glyph-name="oe" unicode="&#x153;" horiz-adv-x="966" 
d="M916 253h-376c1 -115 54 -192 156 -192c69 0 110 29 127 78h86c-17 -87 -88 -152 -213 -152c-85 0 -149 39 -188 98h-21c-39 -60 -106 -98 -192 -98c-155 0 -244 116 -244 265s89 265 244 265c84 0 150 -37 191 -95h22c38 58 103 95 189 95c143 0 219 -111 219 -235v-29z
M295 61c110 0 160 92 160 191c0 98 -50 191 -160 191c-109 0 -159 -93 -159 -191c0 -99 50 -191 159 -191zM694 443c-90 0 -137 -54 -150 -119h284c-5 64 -51 119 -134 119z" />
    <glyph glyph-name="Racute" unicode="&#x154;" horiz-adv-x="709" 
d="M407 714c150 0 235 -78 235 -208c0 -87 -38 -151 -109 -183l114 -323h-93l-107 302c-19 -2 -38 -3 -58 -3h-208v-299h-90v714h316zM394 379c115 0 157 49 157 127c0 80 -42 128 -157 128h-213v-255h213zM463 896l-109 -129h-78l85 129h102z" />
    <glyph glyph-name="racute" unicode="&#x155;" horiz-adv-x="399" 
d="M365 504v-80h-39c-99 0 -159 -62 -159 -172v-252h-85v504h82v-61h20c25 31 73 61 146 61h35zM339 727l-109 -145h-77l86 145h100z" />
    <glyph glyph-name="uni0156" unicode="&#x156;" horiz-adv-x="709" 
d="M407 714c150 0 235 -78 235 -208c0 -87 -38 -151 -109 -183l114 -323h-93l-107 302c-19 -2 -38 -3 -58 -3h-208v-299h-90v714h316zM394 379c115 0 157 49 157 127c0 80 -42 128 -157 128h-213v-255h213zM350 -220h-57l55 62v17h-44v83h100v-100z" />
    <glyph glyph-name="uni0157" unicode="&#x157;" horiz-adv-x="399" 
d="M365 504v-80h-39c-99 0 -159 -62 -159 -172v-252h-85v504h82v-61h20c25 31 73 61 146 61h35zM124 -220h-57l55 62v17h-44v83h100v-100z" />
    <glyph glyph-name="Rcaron" unicode="&#x158;" horiz-adv-x="709" 
d="M407 714c150 0 235 -78 235 -208c0 -87 -38 -151 -109 -183l114 -323h-93l-107 302c-19 -2 -38 -3 -58 -3h-208v-299h-90v714h316zM394 379c115 0 157 49 157 127c0 80 -42 128 -157 128h-213v-255h213zM302 767l-107 129h84l61 -71h18l61 71h82l-107 -129h-92z" />
    <glyph glyph-name="rcaron" unicode="&#x159;" horiz-adv-x="399" 
d="M365 504v-80h-39c-99 0 -159 -62 -159 -172v-252h-85v504h82v-61h20c25 31 73 61 146 61h35zM175 582l-107 145h80l65 -86h18l64 86h79l-108 -145h-91z" />
    <glyph glyph-name="Sacute" unicode="&#x15a;" horiz-adv-x="664" 
d="M291 427c31 -6 98 -19 135 -27c106 -24 179 -79 179 -201c0 -112 -89 -212 -270 -212c-167 0 -275 88 -287 212h91c17 -97 101 -130 200 -130s175 46 175 128c0 76 -51 107 -121 122c-35 8 -106 22 -141 29c-103 21 -173 77 -173 181c0 111 90 198 251 198
c148 0 243 -78 259 -193h-91c-17 71 -67 111 -170 111c-86 0 -158 -39 -158 -114c0 -69 60 -91 121 -104zM458 896l-109 -129h-78l85 129h102z" />
    <glyph glyph-name="sacute" unicode="&#x15b;" horiz-adv-x="514" 
d="M226 312l97 -17c92 -16 148 -59 148 -151c0 -82 -72 -157 -207 -157c-141 0 -211 62 -224 158h85c11 -57 62 -84 135 -84c75 0 126 26 126 81c0 45 -26 68 -93 80l-101 18c-77 14 -131 51 -131 128c0 83 64 149 198 149c116 0 188 -58 198 -144h-84c-6 48 -61 70 -119 70
c-61 0 -108 -23 -108 -68c0 -38 25 -53 80 -63zM387 727l-109 -145h-77l86 145h100z" />
    <glyph glyph-name="Scaron" unicode="&#x160;" horiz-adv-x="664" 
d="M291 427c31 -6 98 -19 135 -27c106 -24 179 -79 179 -201c0 -112 -89 -212 -270 -212c-167 0 -275 88 -287 212h91c17 -97 101 -130 200 -130s175 46 175 128c0 76 -51 107 -121 122c-35 8 -106 22 -141 29c-103 21 -173 77 -173 181c0 111 90 198 251 198
c148 0 243 -78 259 -193h-91c-17 71 -67 111 -170 111c-86 0 -158 -39 -158 -114c0 -69 60 -91 121 -104zM283 767l-107 129h84l61 -71h18l61 71h82l-107 -129h-92z" />
    <glyph glyph-name="scaron" unicode="&#x161;" horiz-adv-x="514" 
d="M226 312l97 -17c92 -16 148 -59 148 -151c0 -82 -72 -157 -207 -157c-141 0 -211 62 -224 158h85c11 -57 62 -84 135 -84c75 0 126 26 126 81c0 45 -26 68 -93 80l-101 18c-77 14 -131 51 -131 128c0 83 64 149 198 149c116 0 188 -58 198 -144h-84c-6 48 -61 70 -119 70
c-61 0 -108 -23 -108 -68c0 -38 25 -53 80 -63zM213 582l-107 145h80l65 -86h18l64 86h79l-108 -145h-91z" />
    <glyph glyph-name="Tcaron" unicode="&#x164;" horiz-adv-x="597" 
d="M578 714v-80h-234v-634h-90v634h-236v80h560zM252 767l-107 129h84l61 -71h18l61 71h82l-107 -129h-92z" />
    <glyph glyph-name="tcaron" unicode="&#x165;" horiz-adv-x="433" 
d="M394 645h-46v100h102v-117l-53 -74h-56l53 74v17zM214 504h136v-74h-136v-279c0 -50 22 -75 89 -75h47v-76h-53c-110 0 -168 28 -168 134v296h-102v74h102v152h85v-152z" />
    <glyph glyph-name="Tbar" unicode="&#x166;" horiz-adv-x="597" 
d="M578 714v-80h-234v-228h160v-74h-160v-332h-90v332h-162v74h162v228h-236v80h560z" />
    <glyph glyph-name="tbar" unicode="&#x167;" horiz-adv-x="408" 
d="M214 504h136v-74h-136v-106h136v-74h-136v-99c0 -50 22 -75 89 -75h47v-76h-53c-110 0 -168 28 -168 134v116h-102v74h102v106h-102v74h102v152h85v-152z" />
    <glyph glyph-name="Utilde" unicode="&#x168;" horiz-adv-x="740" 
d="M561 714h90v-459c0 -168 -100 -268 -281 -268s-281 100 -281 268v459h90v-458c0 -112 66 -187 191 -187s191 75 191 187v458zM479 896h55c0 -88 -34 -129 -94 -129c-66 0 -104 66 -145 66c-29 0 -34 -29 -34 -66h-55c0 87 35 129 94 129c66 0 104 -66 145 -66
c29 0 34 28 34 66z" />
    <glyph glyph-name="utilde" unicode="&#x169;" horiz-adv-x="601" 
d="M270 -13c-126 0 -196 79 -196 200v317h85v-302c0 -92 42 -139 127 -139c90 0 148 79 148 167v274h85v-504h-82v55h-19c-26 -38 -79 -68 -148 -68zM405 720h54c0 -90 -33 -132 -93 -132c-66 0 -104 70 -145 70c-31 0 -35 -33 -35 -70h-54c0 89 35 132 94 132
c65 0 104 -71 145 -71c31 0 34 33 34 71z" />
    <glyph glyph-name="Umacron" unicode="&#x16a;" horiz-adv-x="740" 
d="M561 714h90v-459c0 -168 -100 -268 -281 -268s-281 100 -281 268v459h90v-458c0 -112 66 -187 191 -187s191 75 191 187v458zM511 809h-282v64h282v-64z" />
    <glyph glyph-name="umacron" unicode="&#x16b;" horiz-adv-x="601" 
d="M270 -13c-126 0 -196 79 -196 200v317h85v-302c0 -92 42 -139 127 -139c90 0 148 79 148 167v274h85v-504h-82v55h-19c-26 -38 -79 -68 -148 -68zM437 639h-282v64h282v-64z" />
    <glyph glyph-name="Uring" unicode="&#x16e;" horiz-adv-x="740" 
d="M561 714h90v-459c0 -168 -100 -268 -281 -268s-281 100 -281 268v459h90v-458c0 -112 66 -187 191 -187s191 75 191 187v458zM370 970c60 0 109 -48 109 -108c0 -59 -49 -108 -109 -108s-109 49 -109 108c0 60 49 108 109 108zM370 807c30 0 55 24 55 55
c0 30 -25 55 -55 55s-55 -25 -55 -55c0 -31 25 -55 55 -55z" />
    <glyph glyph-name="uring" unicode="&#x16f;" horiz-adv-x="601" 
d="M270 -13c-126 0 -196 79 -196 200v317h85v-302c0 -92 42 -139 127 -139c90 0 148 79 148 167v274h85v-504h-82v55h-19c-26 -38 -79 -68 -148 -68zM188 687c0 60 49 108 109 108s109 -48 109 -108s-49 -108 -109 -108s-109 48 -109 108zM242 687c0 -30 25 -55 55 -55
s55 25 55 55s-25 55 -55 55s-55 -25 -55 -55z" />
    <glyph glyph-name="Uhungarumlaut" unicode="&#x170;" horiz-adv-x="740" 
d="M561 714h90v-459c0 -168 -100 -268 -281 -268s-281 100 -281 268v459h90v-458c0 -112 66 -187 191 -187s191 75 191 187v458zM410 896l-99 -129h-74l77 129h96zM572 896l-100 -129h-73l77 129h96z" />
    <glyph glyph-name="uhungarumlaut" unicode="&#x171;" horiz-adv-x="601" 
d="M270 -13c-126 0 -196 79 -196 200v317h85v-302c0 -92 42 -139 127 -139c90 0 148 79 148 167v274h85v-504h-82v55h-19c-26 -38 -79 -68 -148 -68zM326 727l-98 -145h-72l76 145h94zM484 727l-99 -145h-71l76 145h94z" />
    <glyph glyph-name="Uogonek" unicode="&#x172;" horiz-adv-x="740" 
d="M561 714h90v-459c0 -133 -58 -207 -151 -246c-74 -31 -99 -64 -99 -99c0 -33 28 -52 74 -52v-58h-21c-77 0 -124 34 -124 95c0 37 24 70 54 92h-14c-181 0 -281 100 -281 268v459h90v-458c0 -112 66 -187 191 -187s191 75 191 187v458z" />
    <glyph glyph-name="uogonek" unicode="&#x173;" horiz-adv-x="601" 
d="M437 0v55h-19c-26 -38 -79 -68 -148 -68c-126 0 -196 79 -196 200v317h85v-302c0 -92 42 -139 127 -139c90 0 148 79 148 167v274h85v-504c-39 -20 -72 -55 -72 -90c0 -33 28 -52 74 -52v-58h-21c-77 0 -124 34 -124 95c0 40 26 82 61 105z" />
    <glyph glyph-name="Ydieresis" unicode="&#x178;" horiz-adv-x="643" 
d="M307 389h28l191 325h97l-257 -441v-273h-90v273l-257 441h97zM277 796h-92v100h92v-100zM458 796h-92v100h92v-100z" />
    <glyph glyph-name="Zacute" unicode="&#x179;" horiz-adv-x="645" 
d="M582 714v-101l-423 -511v-20h437v-82h-548v102l424 510v20h-397v82h507zM464 896l-109 -129h-78l85 129h102z" />
    <glyph glyph-name="zacute" unicode="&#x17a;" horiz-adv-x="515" 
d="M467 0h-419v94l306 317v19h-289v74h399v-93l-305 -317v-20h308v-74zM391 727l-109 -145h-77l86 145h100z" />
    <glyph glyph-name="Zdotaccent" unicode="&#x17b;" horiz-adv-x="645" 
d="M582 714v-101l-423 -511v-20h437v-82h-548v102l424 510v20h-397v82h507zM372 796h-98v100h98v-100z" />
    <glyph glyph-name="zdotaccent" unicode="&#x17c;" horiz-adv-x="515" 
d="M467 0h-419v94l306 317v19h-289v74h399v-93l-305 -317v-20h308v-74zM307 627h-98v100h98v-100z" />
    <glyph glyph-name="Zcaron" unicode="&#x17d;" horiz-adv-x="645" 
d="M582 714v-101l-423 -511v-20h437v-82h-548v102l424 510v20h-397v82h507zM277 767l-107 129h84l61 -71h18l61 71h82l-107 -129h-92z" />
    <glyph glyph-name="zcaron" unicode="&#x17e;" horiz-adv-x="515" 
d="M467 0h-419v94l306 317v19h-289v74h399v-93l-305 -317v-20h308v-74zM222 582l-107 145h80l65 -86h18l64 86h79l-108 -145h-91z" />
    <glyph glyph-name="florin" unicode="&#x192;" horiz-adv-x="432" 
d="M135 -200h-85l98 555h-94v71h106l22 125c22 126 88 176 201 176h39v-74h-41c-72 0 -103 -45 -115 -114l-21 -113h121v-71h-133z" />
    <glyph glyph-name="circumflex" unicode="&#x2c6;" horiz-adv-x="378" 
d="M235 727l107 -145h-80l-65 86h-18l-64 -86h-79l108 145h91z" />
    <glyph glyph-name="caron" unicode="&#x2c7;" horiz-adv-x="378" 
d="M143 582l-107 145h80l65 -86h18l64 86h79l-108 -145h-91z" />
    <glyph glyph-name="breve" unicode="&#x2d8;" horiz-adv-x="357" 
d="M251 727h66c0 -91 -52 -145 -138 -145c-87 0 -139 54 -139 145h65c0 -51 24 -84 73 -84s73 33 73 84z" />
    <glyph glyph-name="dotaccent" unicode="&#x2d9;" horiz-adv-x="170" 
d="M134 627h-98v100h98v-100z" />
    <glyph glyph-name="ring" unicode="&#x2da;" horiz-adv-x="298" 
d="M40 687c0 60 49 108 109 108s109 -48 109 -108s-49 -108 -109 -108s-109 48 -109 108zM94 687c0 -30 25 -55 55 -55s55 25 55 55s-25 55 -55 55s-55 -25 -55 -55z" />
    <glyph glyph-name="ogonek" unicode="&#x2db;" horiz-adv-x="224" 
d="M115 7l54 -7c-39 -20 -72 -55 -72 -90c0 -33 28 -52 74 -52v-58h-21c-77 0 -124 34 -124 95c0 49 41 97 89 112z" />
    <glyph glyph-name="tilde" unicode="&#x2dc;" horiz-adv-x="407" 
d="M313 720h54c0 -90 -33 -132 -93 -132c-66 0 -104 70 -145 70c-31 0 -35 -33 -35 -70h-54c0 89 35 132 94 132c65 0 104 -71 145 -71c31 0 34 33 34 71z" />
    <glyph glyph-name="hungarumlaut" unicode="&#x2dd;" horiz-adv-x="406" 
d="M209 727l-98 -145h-72l76 145h94zM367 727l-99 -145h-71l76 145h94z" />
    <glyph glyph-name="uni03A9" unicode="&#x3a9;" horiz-adv-x="758" 
d="M569 98v-20h132v-78h-275v76c83 51 186 143 186 302c0 164 -94 267 -233 267c-140 0 -233 -103 -233 -267c0 -159 103 -251 185 -302v-76h-275v78h133v20c-59 51 -134 140 -134 284c0 201 125 345 324 345s324 -144 324 -345c0 -144 -75 -233 -134 -284z" />
    <glyph glyph-name="pi" unicode="&#x3c0;" horiz-adv-x="615" 
d="M565 0h-36c-109 0 -141 58 -141 144v286h-196v-430h-85v430h-80v74h538v-74h-92v-284c0 -45 14 -72 57 -72h35v-74z" />
    <glyph glyph-name="uni0401" unicode="&#x401;" horiz-adv-x="652" 
d="M181 82h423v-82h-513v714h497v-82h-407v-221h328v-82h-328v-247zM290 796h-92v100h92v-100zM471 796h-92v100h92v-100z" />
    <glyph glyph-name="uni0402" unicode="&#x402;" horiz-adv-x="799" 
d="M747 204c0 -135 -83 -217 -234 -217c-6 0 -40 1 -53 4v82c9 -2 24 -4 43 -4c112 0 154 57 154 136c0 82 -43 138 -189 138c-50 0 -111 -7 -162 -19v-324h-90v634h-198v80h544v-80h-256v-229c54 11 120 18 177 18c194 0 264 -98 264 -219z" />
    <glyph glyph-name="uni0403" unicode="&#x403;" horiz-adv-x="623" 
d="M453 896l-109 -129h-78l85 129h102zM579 632h-398v-632h-90v714h488v-82z" />
    <glyph glyph-name="uni0404" unicode="&#x404;" horiz-adv-x="717" 
d="M572 194h95c-26 -122 -130 -207 -283 -207c-212 0 -329 161 -329 370c0 210 117 370 329 370c142 0 245 -75 275 -194h-95c-26 71 -83 113 -181 113c-148 0 -220 -110 -233 -239h334v-80h-335c6 -139 79 -259 235 -259c98 0 166 49 188 126z" />
    <glyph glyph-name="uni0405" unicode="&#x405;" horiz-adv-x="664" 
d="M291 427c31 -6 98 -19 135 -27c106 -24 179 -79 179 -201c0 -112 -89 -212 -270 -212c-167 0 -275 88 -287 212h91c17 -97 101 -130 200 -130s175 46 175 128c0 76 -51 107 -121 122c-35 8 -106 22 -141 29c-103 21 -173 77 -173 181c0 111 90 198 251 198
c148 0 243 -78 259 -193h-91c-17 71 -67 111 -170 111c-86 0 -158 -39 -158 -114c0 -69 60 -91 121 -104z" />
    <glyph glyph-name="uni0406" unicode="&#x406;" horiz-adv-x="284" 
d="M97 714h90v-714h-90v714z" />
    <glyph glyph-name="uni0407" unicode="&#x407;" horiz-adv-x="284" 
d="M97 714h90v-714h-90v714zM98 796h-92v100h92v-100zM279 796h-92v100h92v-100z" />
    <glyph glyph-name="uni0408" unicode="&#x408;" horiz-adv-x="582" 
d="M268 -13c-130 0 -221 81 -230 228h90c8 -98 60 -146 142 -146c80 0 133 50 133 158v487h90v-486c0 -151 -85 -241 -225 -241z" />
    <glyph glyph-name="uni0409" unicode="&#x409;" horiz-adv-x="1125" 
d="M825 0h-296v632h-278v-197c0 -351 -65 -435 -218 -435h-20v89h19c91 0 134 54 134 347v278h453v-273h206c158 0 248 -83 248 -220c0 -138 -90 -221 -248 -221zM809 80c127 0 173 55 173 141s-46 140 -173 140h-190v-281h190z" />
    <glyph glyph-name="uni040A" unicode="&#x40a;" horiz-adv-x="1157" 
d="M863 0h-293v336h-389v-336h-90v714h90v-294h389v294h90v-287h203c154 0 242 -79 242 -213c0 -133 -88 -214 -242 -214zM850 80c121 0 164 51 164 134c0 81 -43 133 -164 133h-190v-267h190z" />
    <glyph glyph-name="uni040B" unicode="&#x40b;" horiz-adv-x="805" 
d="M747 0h-90v198c0 70 -1 143 -180 143c-61 0 -120 -8 -171 -20v-321h-90v634h-198v80h544v-80h-256v-230c54 12 128 19 182 19c249 0 259 -114 259 -224v-199z" />
    <glyph glyph-name="uni040C" unicode="&#x40c;" horiz-adv-x="689" 
d="M91 0v714h90v-305h211l148 305h95l-165 -347l174 -367h-95l-157 327h-211v-327h-90zM476 896l-109 -129h-78l85 129h102z" />
    <glyph glyph-name="uni040E" unicode="&#x40e;" horiz-adv-x="637" 
d="M313 339h28l179 375h94l-341 -714h-93l102 214l-264 500h97zM414 904h73c-2 -99 -76 -155 -175 -155c-97 0 -171 56 -173 155h73c1 -55 42 -90 100 -90c59 0 101 35 102 90z" />
    <glyph glyph-name="uni040F" unicode="&#x40f;" horiz-adv-x="750" 
d="M330 -175v175h-239v714h90v-632h388v632h90v-714h-239v-175h-90z" />
    <glyph glyph-name="uni0410" unicode="&#x410;" horiz-adv-x="687" 
d="M573 0l-74 219h-313l-74 -219h-92l247 714h152l248 -714h-94zM322 622l-109 -321h258l-109 321h-40z" />
    <glyph glyph-name="uni0411" unicode="&#x411;" horiz-adv-x="687" 
d="M396 424c153 0 239 -80 239 -212s-86 -212 -239 -212h-305v714h489v-82h-399v-208h215zM381 80c121 0 164 51 164 133s-43 132 -164 132h-200v-265h200z" />
    <glyph glyph-name="uni0412" unicode="&#x412;" horiz-adv-x="701" 
d="M551 367c60 -28 101 -93 101 -166c0 -114 -80 -201 -242 -201h-319v714h311c152 0 228 -83 228 -181c0 -64 -27 -118 -79 -146v-20zM181 634v-223h219c79 0 139 25 139 114c0 81 -69 109 -141 109h-217zM404 80c81 0 157 30 157 128c0 93 -72 124 -156 124h-224v-252h223
z" />
    <glyph glyph-name="uni0413" unicode="&#x413;" horiz-adv-x="623" 
d="M579 632h-398v-632h-90v714h488v-82z" />
    <glyph glyph-name="uni0414" unicode="&#x414;" horiz-adv-x="758" 
d="M628 82h103v-257h-89v175h-541v-175h-89v257h74c46 97 90 250 90 488v144h452v-632zM539 82v550h-277v-77c0 -221 -39 -379 -80 -473h357z" />
    <glyph glyph-name="uni0415" unicode="&#x415;" horiz-adv-x="652" 
d="M181 82h423v-82h-513v714h497v-82h-407v-221h328v-82h-328v-247z" />
    <glyph glyph-name="uni0416" unicode="&#x416;" horiz-adv-x="1026" 
d="M738 322h-180v-322h-89v322h-181l-137 -322h-95l155 362l-146 352h95l128 -310h181v310h89v-310h180l129 310h95l-147 -352l156 -362h-95z" />
    <glyph glyph-name="uni0417" unicode="&#x417;" horiz-adv-x="659" 
d="M491 527c0 77 -67 118 -155 118c-100 0 -151 -42 -167 -112h-92c15 119 112 194 259 194c162 0 246 -87 246 -189c0 -79 -35 -124 -76 -146v-20c57 -24 104 -72 104 -171c0 -113 -93 -214 -269 -214s-273 83 -294 209h94c22 -85 95 -127 201 -127c105 0 176 51 176 134
c0 76 -43 128 -163 128h-114v82h115c101 0 135 54 135 114z" />
    <glyph glyph-name="uni0418" unicode="&#x418;" horiz-adv-x="765" 
d="M91 714h88v-605h20l336 605h139v-714h-88v605h-20l-336 -605h-139v714z" />
    <glyph glyph-name="uni0419" unicode="&#x419;" horiz-adv-x="765" 
d="M91 714h88v-605h20l336 605h139v-714h-88v605h-20l-336 -605h-139v714zM484 904h73c-2 -99 -76 -155 -175 -155c-97 0 -171 56 -173 155h73c1 -55 42 -90 100 -90c59 0 101 35 102 90z" />
    <glyph glyph-name="uni041A" unicode="&#x41a;" horiz-adv-x="677" 
d="M91 0v714h90v-305h211l148 305h95l-165 -347l174 -367h-95l-157 327h-211v-327h-90z" />
    <glyph glyph-name="uni041B" unicode="&#x41b;" horiz-adv-x="726" 
d="M13 89h19c94 0 134 54 134 363v262h469v-714h-90v632h-294v-197c0 -351 -65 -435 -218 -435h-20v89z" />
    <glyph glyph-name="uni041C" unicode="&#x41c;" horiz-adv-x="862" 
d="M91 0v714h148l183 -335h20l180 335h149v-714h-88v612h-20l-186 -339h-92l-186 339h-20v-612h-88z" />
    <glyph glyph-name="uni041D" unicode="&#x41d;" horiz-adv-x="761" 
d="M580 714h90v-714h-90v326h-399v-326h-90v714h90v-304h399v304z" />
    <glyph glyph-name="uni041E" unicode="&#x41e;" horiz-adv-x="776" 
d="M388 727c217 0 333 -164 333 -370s-116 -370 -333 -370c-218 0 -333 164 -333 370s115 370 333 370zM388 69c170 0 242 138 242 288s-72 288 -242 288s-242 -138 -242 -288s72 -288 242 -288z" />
    <glyph glyph-name="uni041F" unicode="&#x41f;" horiz-adv-x="754" 
d="M91 714h572v-714h-90v632h-392v-632h-90v714z" />
    <glyph glyph-name="uni0420" unicode="&#x420;" horiz-adv-x="687" 
d="M393 714c155 0 242 -81 242 -213c0 -134 -87 -215 -242 -215h-212v-286h-90v714h302zM378 366c122 0 166 51 166 134s-44 134 -166 134h-197v-268h197z" />
    <glyph glyph-name="uni0421" unicode="&#x421;" horiz-adv-x="718" 
d="M573 203h95c-28 -127 -127 -216 -283 -216c-212 0 -330 158 -330 370s119 370 331 370c144 0 246 -78 274 -200h-95c-27 76 -81 118 -179 118c-166 0 -240 -137 -240 -288c0 -152 73 -288 239 -288c100 0 165 52 188 134z" />
    <glyph glyph-name="uni0422" unicode="&#x422;" horiz-adv-x="597" 
d="M578 714v-80h-234v-634h-90v634h-236v80h560z" />
    <glyph glyph-name="uni0423" unicode="&#x423;" horiz-adv-x="637" 
d="M313 339h28l179 375h94l-341 -714h-93l102 214l-264 500h97z" />
    <glyph glyph-name="uni0424" unicode="&#x424;" horiz-adv-x="852" 
d="M470 655h12c196 0 326 -97 326 -288c0 -195 -130 -288 -326 -288h-12v-92h-88v92h-12c-197 0 -326 93 -326 288c0 191 130 288 326 288h12v82h88v-82zM370 159h12v416h-12c-145 0 -237 -66 -237 -208s92 -208 237 -208zM470 159h12c144 0 237 66 237 208
s-92 208 -237 208h-12v-416z" />
    <glyph glyph-name="uni0425" unicode="&#x425;" horiz-adv-x="647" 
d="M522 0l-181 324h-35l-186 -324h-98l215 377l-184 337h97l157 -285h35l159 285h96l-186 -333l214 -381h-103z" />
    <glyph glyph-name="uni0426" unicode="&#x426;" horiz-adv-x="788" 
d="M672 -175v175h-581v714h90v-632h387v632h90v-632h103v-257h-89z" />
    <glyph glyph-name="uni0427" unicode="&#x427;" horiz-adv-x="680" 
d="M58 714h90v-204c0 -70 1 -143 180 -143c61 0 120 8 171 20v327h90v-714h-90v304c-54 -12 -128 -19 -182 -19c-249 0 -259 115 -259 225v204z" />
    <glyph glyph-name="uni0428" unicode="&#x428;" horiz-adv-x="1008" 
d="M460 82v632h88v-632h281v632h88v-714h-826v714h88v-632h281z" />
    <glyph glyph-name="uni0429" unicode="&#x429;" horiz-adv-x="1047" 
d="M931 -175v175h-840v714h88v-632h281v632h88v-632h281v632h88v-632h103v-257h-89z" />
    <glyph glyph-name="uni042A" unicode="&#x42a;" horiz-adv-x="781" 
d="M481 0h-296v632h-183v82h273v-273h206c158 0 248 -83 248 -220c0 -138 -90 -221 -248 -221zM465 80c127 0 173 55 173 141s-46 140 -173 140h-190v-281h190z" />
    <glyph glyph-name="uni042B" unicode="&#x42b;" horiz-adv-x="899" 
d="M718 714h90v-714h-90v714zM358 80c127 0 173 55 173 141s-46 140 -173 140h-177v-281h177zM374 0h-283v714h90v-273h193c158 0 248 -83 248 -220c0 -138 -90 -221 -248 -221z" />
    <glyph glyph-name="uni042C" unicode="&#x42c;" horiz-adv-x="687" 
d="M371 80c127 0 173 55 173 141s-46 140 -173 140h-190v-281h190zM387 0h-296v714h90v-273h206c158 0 248 -83 248 -220c0 -138 -90 -221 -248 -221z" />
    <glyph glyph-name="uni042D" unicode="&#x42d;" horiz-adv-x="714" 
d="M47 194h95c22 -77 90 -126 188 -126c156 0 229 120 235 259h-335v80h334c-13 129 -85 239 -233 239c-98 0 -155 -42 -181 -113h-95c30 119 133 194 275 194c212 0 329 -160 329 -370c0 -209 -117 -370 -329 -370c-153 0 -257 85 -283 207z" />
    <glyph glyph-name="uni042E" unicode="&#x42e;" horiz-adv-x="1033" 
d="M653 727c212 0 325 -164 325 -370s-113 -370 -325 -370c-202 0 -313 148 -324 339h-148v-326h-90v714h90v-304h150c18 179 129 317 322 317zM653 68c164 0 234 139 234 289s-70 289 -234 289s-234 -139 -234 -289s70 -289 234 -289z" />
    <glyph glyph-name="uni042F" unicode="&#x42f;" horiz-adv-x="713" 
d="M306 714h316v-714h-90v299h-208c-20 0 -39 1 -58 3l-107 -302h-93l114 323c-71 32 -109 96 -109 183c0 130 85 208 235 208zM319 379h213v255h-213c-115 0 -157 -48 -157 -128c0 -78 42 -127 157 -127z" />
    <glyph glyph-name="uni0430" unicode="&#x430;" horiz-adv-x="557" 
d="M403 0v54h-20c-31 -39 -86 -67 -158 -67c-117 0 -182 78 -182 164c0 81 52 167 193 167h164v20c0 61 -36 105 -123 105c-74 0 -113 -29 -117 -73h-85c6 93 87 147 200 147c126 0 208 -61 208 -174v-343h-80zM245 61c85 0 155 62 155 141v45h-151c-82 0 -121 -35 -121 -94
c0 -57 43 -92 117 -92z" />
    <glyph glyph-name="uni0431" unicode="&#x431;" horiz-adv-x="602" 
d="M314 496c151 0 237 -110 237 -254c0 -145 -92 -255 -249 -255c-156 0 -251 108 -251 303c0 171 25 343 200 376c10 2 133 21 133 21c38 6 48 12 51 40h79c-4 -58 -19 -99 -101 -115c-36 -7 -141 -22 -153 -24c-93 -16 -120 -87 -130 -166h19c42 55 96 74 165 74zM300 61
c112 0 164 87 164 181s-52 180 -164 180s-164 -86 -164 -180s52 -181 164 -181z" />
    <glyph glyph-name="uni0432" unicode="&#x432;" horiz-adv-x="569" 
d="M436 257c47 -12 83 -54 83 -119c0 -91 -64 -138 -178 -138h-259v504h250c101 0 159 -48 159 -127c0 -49 -27 -85 -55 -100v-20zM336 72c73 0 98 32 98 75c0 42 -25 76 -98 76h-170v-151h170zM166 432v-137h158c61 0 82 32 82 68c0 39 -21 69 -82 69h-158z" />
    <glyph glyph-name="uni0433" unicode="&#x433;" horiz-adv-x="491" 
d="M82 0v504h378v-74h-293v-430h-85z" />
    <glyph glyph-name="uni0434" unicode="&#x434;" horiz-adv-x="652" 
d="M531 74h93v-217h-83v143h-436v-143h-83v217h67c32 67 64 167 64 292v138h378v-430zM446 74v356h-214v-64c0 -126 -26 -225 -57 -292h271z" />
    <glyph glyph-name="uni0435" unicode="&#x435;" horiz-adv-x="569" 
d="M519 282v-29h-384c2 -119 57 -192 161 -192c70 0 113 30 128 78h86c-17 -86 -89 -152 -214 -152c-157 0 -245 116 -245 270c0 155 90 260 243 260c149 0 223 -111 225 -235zM292 443c-92 0 -140 -55 -152 -119h291c-6 63 -53 119 -139 119z" />
    <glyph glyph-name="uni0436" unicode="&#x436;" horiz-adv-x="790" 
d="M230 221l-102 -221h-89l119 259l-112 245h88l96 -209h124v209h82v-209h124l96 209h88l-112 -245l120 -259h-90l-102 221h-124v-221h-82v221h-124z" />
    <glyph glyph-name="uni0437" unicode="&#x437;" horiz-adv-x="527" 
d="M371 366c0 50 -46 77 -111 77c-72 0 -110 -24 -122 -78h-81c9 96 89 152 205 152c126 0 193 -64 193 -140c0 -56 -26 -93 -55 -103v-20c37 -11 73 -46 73 -115c0 -82 -74 -152 -209 -152c-138 0 -213 62 -227 156h82c19 -63 76 -82 145 -82c72 0 124 27 124 81
c0 49 -28 78 -111 78h-89v74h85c71 0 98 33 98 72z" />
    <glyph glyph-name="uni0438" unicode="&#x438;" horiz-adv-x="614" 
d="M200 0h-118v504h83v-390h20l225 390h122v-504h-83v390h-20z" />
    <glyph glyph-name="uni0439" unicode="&#x439;" horiz-adv-x="614" 
d="M200 0h-118v504h83v-390h20l225 390h122v-504h-83v390h-20zM392 724h69c-2 -93 -61 -146 -156 -146c-94 0 -153 53 -155 146h69c1 -51 28 -85 86 -85c61 0 85 34 87 85z" />
    <glyph glyph-name="uni043A" unicode="&#x43a;" horiz-adv-x="560" 
d="M430 0l-117 222h-146v-222h-85v504h85v-208h148l110 208h89l-128 -243l135 -261h-91z" />
    <glyph glyph-name="uni043B" unicode="&#x43b;" horiz-adv-x="608" 
d="M25 0v80h17c69 0 99 50 99 229v195h386v-504h-86v430h-221v-123c0 -232 -54 -307 -178 -307h-17z" />
    <glyph glyph-name="uni043C" unicode="&#x43c;" horiz-adv-x="702" 
d="M82 0v504h133l127 -230h20l127 230h131v-504h-83v405h-20l-120 -216h-92l-120 216h-20v-405h-83z" />
    <glyph glyph-name="uni043D" unicode="&#x43d;" horiz-adv-x="613" 
d="M531 0h-85v222h-279v-222h-85v504h85v-208h279v208h85v-504z" />
    <glyph glyph-name="uni043E" unicode="&#x43e;" horiz-adv-x="598" 
d="M299 517c157 0 248 -115 248 -265s-91 -265 -248 -265c-158 0 -248 115 -248 265s90 265 248 265zM299 61c111 0 163 92 163 191c0 98 -52 191 -163 191c-112 0 -163 -93 -163 -191c0 -99 51 -191 163 -191z" />
    <glyph glyph-name="uni043F" unicode="&#x43f;" horiz-adv-x="609" 
d="M527 0h-85v430h-275v-430h-85v504h445v-504z" />
    <glyph glyph-name="uni0440" unicode="&#x440;" horiz-adv-x="615" 
d="M167 -200h-85v704h82v-55h20c28 35 77 68 156 68c140 0 224 -115 224 -265c0 -151 -84 -265 -224 -265c-79 0 -125 32 -153 68h-20v-255zM324 443c-112 0 -158 -93 -158 -191c0 -99 46 -191 158 -191c102 0 155 79 155 191s-53 191 -155 191z" />
    <glyph glyph-name="uni0441" unicode="&#x441;" horiz-adv-x="553" 
d="M423 152h85c-18 -98 -95 -165 -212 -165c-157 0 -245 115 -245 265c0 151 88 265 245 265c119 0 192 -66 209 -159h-85c-16 51 -55 85 -124 85c-114 0 -160 -88 -160 -189c0 -102 47 -193 160 -193c72 0 114 35 127 91z" />
    <glyph glyph-name="uni0442" unicode="&#x442;" horiz-adv-x="494" 
d="M30 430v74h434v-74h-174v-430h-85v430h-175z" />
    <glyph glyph-name="uni0443" unicode="&#x443;" horiz-adv-x="538" 
d="M218 -200h-87l103 245l-212 459h92l152 -332h25l140 332h91z" />
    <glyph glyph-name="uni0444" unicode="&#x444;" horiz-adv-x="715" 
d="M400 0v-200h-84v200h-16c-160 0 -249 106 -249 252s88 251 248 252h17v223h84v-223h16c160 -1 248 -106 248 -252c0 -155 -94 -252 -264 -252zM135 252c0 -98 52 -180 165 -180h16v360h-16c-112 0 -165 -82 -165 -180zM400 72h14c113 0 166 82 166 180s-53 180 -166 180
h-14v-360z" />
    <glyph glyph-name="uni0445" unicode="&#x445;" horiz-adv-x="551" 
d="M416 0l-126 211h-29l-129 -211h-96l158 258l-142 246h93l117 -200h29l119 200h92l-144 -243l157 -261h-99z" />
    <glyph glyph-name="uni0446" unicode="&#x446;" horiz-adv-x="643" 
d="M438 504h85v-430h92v-217h-82v143h-451v504h85v-430h271v430z" />
    <glyph glyph-name="uni0447" unicode="&#x447;" horiz-adv-x="559" 
d="M53 504h85v-142c0 -49 2 -101 127 -101c47 0 89 5 126 13v230h86v-504h-86v199c-42 -9 -101 -14 -144 -14c-183 0 -194 87 -194 170v149z" />
    <glyph glyph-name="uni0448" unicode="&#x448;" horiz-adv-x="809" 
d="M644 504h83v-504h-645v504h83v-430h198v430h83v-430h198v430z" />
    <glyph glyph-name="uni0449" unicode="&#x449;" horiz-adv-x="848" 
d="M644 504h83v-430h93v-217h-83v143h-655v504h83v-430h198v430h83v-430h198v430z" />
    <glyph glyph-name="uni044A" unicode="&#x44a;" horiz-adv-x="633" 
d="M19 430v74h235v-168h149c122 0 191 -63 191 -167c0 -105 -69 -169 -191 -169h-234v430h-150zM392 74c87 0 116 37 116 95c0 59 -29 95 -116 95h-138v-190h138z" />
    <glyph glyph-name="uni044B" unicode="&#x44b;" horiz-adv-x="744" 
d="M82 504h85v-168h139c122 0 190 -63 190 -167c0 -105 -68 -169 -190 -169h-224v504zM167 264v-190h127c88 0 117 37 117 95c0 59 -29 95 -117 95h-127zM577 504h85v-504h-85v504z" />
    <glyph glyph-name="uni044C" unicode="&#x44c;" horiz-adv-x="545" 
d="M167 504v-168h149c122 0 190 -63 190 -167c0 -105 -68 -169 -190 -169h-234v504h85zM304 74c88 0 117 37 117 95c0 59 -29 95 -117 95h-137v-190h137z" />
    <glyph glyph-name="uni044D" unicode="&#x44d;" horiz-adv-x="560" 
d="M50 146h83c13 -53 60 -85 135 -85c95 0 148 68 154 159h-227v72h226c-7 87 -57 151 -153 151c-72 0 -116 -29 -131 -79h-83c18 90 98 153 213 153c153 0 242 -110 242 -265s-89 -265 -243 -265c-114 0 -198 65 -216 159z" />
    <glyph glyph-name="uni044E" unicode="&#x44e;" horiz-adv-x="818" 
d="M523 517c153 0 244 -117 244 -265s-91 -265 -244 -265c-143 0 -230 101 -242 235h-115v-222h-84v504h84v-208h118c16 127 102 221 239 221zM523 61c108 0 159 92 159 191c0 98 -51 191 -159 191c-109 0 -159 -93 -159 -191c0 -99 50 -191 159 -191z" />
    <glyph glyph-name="uni044F" unicode="&#x44f;" horiz-adv-x="577" 
d="M245 504h251v-504h-86v199h-153c-11 0 -21 0 -31 1l-76 -200h-89l85 219c-51 24 -78 70 -78 132c0 95 63 153 177 153zM410 432h-156c-76 0 -101 -31 -101 -82c0 -49 25 -79 101 -79h156v161z" />
    <glyph glyph-name="uni0451" unicode="&#x451;" horiz-adv-x="569" 
d="M519 282v-29h-384c2 -119 57 -192 161 -192c70 0 113 30 128 78h86c-17 -86 -89 -152 -214 -152c-157 0 -245 116 -245 270c0 155 90 260 243 260c149 0 223 -111 225 -235zM292 443c-92 0 -140 -55 -152 -119h291c-6 63 -53 119 -139 119zM246 623h-92v100h92v-100z
M427 623h-92v100h92v-100z" />
    <glyph glyph-name="uni0452" unicode="&#x452;" horiz-adv-x="631" 
d="M359 483c126 0 198 -79 198 -200v-310c0 -110 -59 -173 -162 -173h-63v73h47c67 0 93 38 93 103v292c0 92 -44 139 -129 139c-90 0 -149 -79 -149 -167v-240h-85v578h-82v61h82v88h85v-88h208v-61h-208v-163h19c25 38 77 68 146 68z" />
    <glyph glyph-name="uni0453" unicode="&#x453;" horiz-adv-x="491" 
d="M401 727l-109 -145h-77l86 145h100zM82 0v504h378v-74h-293v-430h-85z" />
    <glyph glyph-name="uni0454" unicode="&#x454;" horiz-adv-x="555" 
d="M427 146h83c-18 -94 -102 -159 -216 -159c-154 0 -243 110 -243 265s89 265 242 265c115 0 195 -63 213 -153h-83c-15 50 -59 79 -131 79c-96 0 -146 -64 -153 -151h226v-72h-227c6 -91 59 -159 154 -159c75 0 122 32 135 85z" />
    <glyph glyph-name="uni0455" unicode="&#x455;" horiz-adv-x="514" 
d="M226 312l97 -17c92 -16 148 -59 148 -151c0 -82 -72 -157 -207 -157c-141 0 -211 62 -224 158h85c11 -57 62 -84 135 -84c75 0 126 26 126 81c0 45 -26 68 -93 80l-101 18c-77 14 -131 51 -131 128c0 83 64 149 198 149c116 0 188 -58 198 -144h-84c-6 48 -61 70 -119 70
c-61 0 -108 -23 -108 -68c0 -38 25 -53 80 -63z" />
    <glyph glyph-name="uni0456" unicode="&#x456;" horiz-adv-x="254" 
d="M176 627h-98v100h98v-100zM169 504v-504h-85v504h85z" />
    <glyph glyph-name="uni0457" unicode="&#x457;" horiz-adv-x="254" 
d="M82 627h-92v100h92v-100zM263 627h-92v100h92v-100zM169 504v-504h-85v504h85z" />
    <glyph glyph-name="uni0458" unicode="&#x458;" horiz-adv-x="265" 
d="M19 -200h-63v74h46c69 0 94 37 94 102v528h85v-531c0 -110 -59 -173 -162 -173zM187 627h-98v100h98v-100z" />
    <glyph glyph-name="uni0459" unicode="&#x459;" horiz-adv-x="890" 
d="M650 74c87 0 116 37 116 95c0 59 -29 95 -116 95h-129v-190h129zM141 504h380v-168h139c122 0 191 -63 191 -167c0 -105 -69 -169 -191 -169h-224v430h-216v-123c0 -232 -54 -307 -178 -307h-17v80h17c69 0 99 50 99 229v195z" />
    <glyph glyph-name="uni045A" unicode="&#x45a;" horiz-adv-x="876" 
d="M647 0h-225v222h-255v-222h-85v504h85v-208h255v208h85v-168h140c122 0 190 -63 190 -167c0 -105 -68 -169 -190 -169zM635 74c88 0 117 37 117 95c0 59 -29 95 -117 95h-128v-190h128z" />
    <glyph glyph-name="uni045B" unicode="&#x45b;" horiz-adv-x="631" 
d="M557 0h-85v268c0 92 -44 139 -129 139c-90 0 -149 -79 -149 -167v-240h-85v578h-82v61h82v88h85v-88h208v-61h-208v-163h19c25 38 77 68 146 68c126 0 198 -79 198 -200v-283z" />
    <glyph glyph-name="uni045C" unicode="&#x45c;" horiz-adv-x="560" 
d="M417 727l-109 -145h-77l86 145h100zM430 0l-117 222h-146v-222h-85v504h85v-208h148l110 208h89l-128 -243l135 -261h-91z" />
    <glyph glyph-name="uni045E" unicode="&#x45e;" horiz-adv-x="538" 
d="M218 -200h-87l103 245l-212 459h92l152 -332h25l140 332h91zM353 724h69c-2 -93 -61 -146 -156 -146c-94 0 -153 53 -155 146h69c1 -51 28 -85 86 -85c61 0 85 34 87 85z" />
    <glyph glyph-name="uni045F" unicode="&#x45f;" horiz-adv-x="605" 
d="M438 504h85v-504h-179v-143h-83v143h-179v504h85v-430h271v430z" />
    <glyph glyph-name="uni0490" unicode="&#x490;" horiz-adv-x="623" 
d="M181 632v-632h-90v714h401v150h87v-232h-398z" />
    <glyph glyph-name="uni0491" unicode="&#x491;" horiz-adv-x="481" 
d="M367 625h83v-195h-283v-430h-85v504h285v121z" />
    <glyph glyph-name="uni0492" unicode="&#x492;" horiz-adv-x="655" 
d="M28 317v74h96v323h487v-82h-397v-241h245v-74h-245v-317h-90v317h-96z" />
    <glyph glyph-name="uni0493" unicode="&#x493;" horiz-adv-x="517" 
d="M24 195v70h86v239h376v-74h-291v-165h191v-70h-191v-195h-85v195h-86z" />
    <glyph glyph-name="uni049A" unicode="&#x49a;" horiz-adv-x="723" 
d="M91 0v714h90v-305h216l143 305h95l-160 -347l131 -285h90v-257h-89v175h-58l-152 327h-216v-327h-90z" />
    <glyph glyph-name="uni049B" unicode="&#x49b;" horiz-adv-x="593" 
d="M430 0l-117 222h-146v-222h-85v504h85v-208h148l110 208h89l-128 -243l99 -187h80v-217h-82v143h-53z" />
    <glyph glyph-name="uni04A2" unicode="&#x4a2;" horiz-adv-x="800" 
d="M580 714h90v-632h103v-257h-89v175h-104v326h-399v-326h-90v714h90v-304h399v304z" />
    <glyph glyph-name="uni04A3" unicode="&#x4a3;" horiz-adv-x="651" 
d="M531 504v-430h92v-217h-82v143h-95v222h-279v-222h-85v504h85v-208h279v208h85z" />
    <glyph glyph-name="uni04AE" unicode="&#x4ae;" horiz-adv-x="643" 
d="M307 389h28l191 325h97l-257 -441v-273h-90v273l-257 441h97z" />
    <glyph glyph-name="uni04AF" unicode="&#x4af;" horiz-adv-x="539" 
d="M185 -40l-163 544h88l141 -464h41l136 464h89l-165 -544h-41v-160h-85v160h-41z" />
    <glyph glyph-name="uni04B0" unicode="&#x4b0;" horiz-adv-x="643" 
d="M307 389h28l191 325h97l-228 -391h156v-74h-185v-249h-90v249h-184v74h155l-228 391h97z" />
    <glyph glyph-name="uni04B1" unicode="&#x4b1;" horiz-adv-x="539" 
d="M77 -69v69h96l-151 504h88l141 -464h41l136 464h89l-153 -504h97v-69h-150v-131h-85v131h-149z" />
    <glyph glyph-name="uni04BA" unicode="&#x4ba;" horiz-adv-x="680" 
d="M622 0h-90v204c0 70 -1 143 -180 143c-61 0 -120 -8 -171 -20v-327h-90v714h90v-304c54 12 128 19 182 19c249 0 259 -115 259 -225v-204z" />
    <glyph glyph-name="uni04BB" unicode="&#x4bb;" horiz-adv-x="604" 
d="M332 517c126 0 198 -79 198 -200v-317h-85v302c0 92 -44 139 -129 139c-90 0 -149 -79 -149 -167v-274h-85v727h85v-278h19c25 38 77 68 146 68z" />
    <glyph glyph-name="uni04D8" unicode="&#x4d8;" horiz-adv-x="757" 
d="M371 69c159 0 231 119 238 257h-464c2 -137 72 -257 226 -257zM369 727c216 0 333 -162 333 -370c0 -206 -115 -370 -330 -370c-205 0 -317 156 -317 381c0 11 0 26 1 38h552c-13 132 -89 239 -240 239c-101 0 -161 -40 -184 -112h-94c28 120 133 194 279 194z" />
    <glyph glyph-name="uni04D9" unicode="&#x4d9;" horiz-adv-x="570" 
d="M51 247c0 9 0 22 1 33h381c-10 105 -70 163 -160 163c-72 0 -112 -28 -128 -78h-84c16 88 92 152 212 152c157 0 246 -119 246 -270c0 -154 -90 -260 -242 -260c-143 0 -226 98 -226 260zM278 61c90 0 149 50 155 148h-299c1 -92 54 -148 144 -148z" />
    <glyph glyph-name="uni04E8" unicode="&#x4e8;" horiz-adv-x="776" 
d="M388 727c217 0 333 -164 333 -370s-116 -370 -333 -370c-218 0 -333 164 -333 370s115 370 333 370zM388 69c158 0 231 119 241 257h-482c9 -138 83 -257 241 -257zM388 645c-152 0 -225 -109 -240 -239h479c-14 130 -88 239 -239 239z" />
    <glyph glyph-name="uni04E9" unicode="&#x4e9;" horiz-adv-x="598" 
d="M299 517c157 0 248 -115 248 -265s-91 -265 -248 -265c-158 0 -248 115 -248 265s90 265 248 265zM299 61c98 0 151 72 161 158h-322c9 -86 61 -158 161 -158zM299 443c-97 0 -149 -70 -160 -152h320c-11 82 -64 152 -160 152z" />
    <glyph glyph-name="endash" unicode="&#x2013;" horiz-adv-x="617" 
d="M568 241h-520v72h520v-72z" />
    <glyph glyph-name="emdash" unicode="&#x2014;" horiz-adv-x="877" 
d="M828 241h-780v72h780v-72z" />
    <glyph glyph-name="quoteleft" unicode="&#x2018;" horiz-adv-x="258" 
d="M133 599h48v-116h-104v133l56 98h56l-56 -98v-17z" />
    <glyph glyph-name="quoteright" unicode="&#x2019;" horiz-adv-x="258" 
d="M125 598h-48v116h104v-133l-56 -98h-56l56 98v17z" />
    <glyph glyph-name="quotesinglbase" unicode="&#x201a;" horiz-adv-x="258" 
d="M125 0h-48v116h104v-133l-56 -98h-56l56 98v17z" />
    <glyph glyph-name="quotedblleft" unicode="&#x201c;" horiz-adv-x="433" 
d="M133 599h48v-116h-104v133l56 98h56l-56 -98v-17zM308 599h48v-116h-104v133l56 98h56l-56 -98v-17z" />
    <glyph glyph-name="quotedblright" unicode="&#x201d;" horiz-adv-x="433" 
d="M125 598h-48v116h104v-133l-56 -98h-56l56 98v17zM300 598h-48v116h104v-133l-56 -98h-56l56 98v17z" />
    <glyph glyph-name="quotedblbase" unicode="&#x201e;" horiz-adv-x="433" 
d="M125 0h-48v116h104v-133l-56 -98h-56l56 98v17zM300 0h-48v116h104v-133l-56 -98h-56l56 98v17z" />
    <glyph glyph-name="dagger" unicode="&#x2020;" horiz-adv-x="549" 
d="M234 434h-188v72h188v208h81v-208h188v-72h-188v-586h-81v586z" />
    <glyph glyph-name="daggerdbl" unicode="&#x2021;" horiz-adv-x="549" 
d="M234 434h-188v72h188v208h81v-208h188v-72h-188v-305h188v-72h-188v-209h-81v209h-188v72h188v305z" />
    <glyph glyph-name="bullet" unicode="&#x2022;" horiz-adv-x="429" 
d="M67 356c0 81 66 147 147 147s147 -66 147 -147s-66 -147 -147 -147s-147 66 -147 147z" />
    <glyph glyph-name="ellipsis" unicode="&#x2026;" horiz-adv-x="754" 
d="M181 0h-104v116h104v-116zM429 0h-104v116h104v-116zM677 0h-104v116h104v-116z" />
    <glyph glyph-name="perthousand" unicode="&#x2030;" horiz-adv-x="1252" 
d="M268 0h-78l424 700h77zM209 714c107 0 161 -85 161 -189s-54 -189 -161 -189s-161 85 -161 189s54 189 161 189zM209 399c62 0 92 54 92 126s-30 126 -92 126s-92 -54 -92 -126s30 -126 92 -126zM671 365c107 0 161 -85 161 -189s-54 -189 -161 -189s-161 85 -161 189
s54 189 161 189zM671 50c62 0 92 54 92 126s-30 126 -92 126s-92 -54 -92 -126s30 -126 92 -126zM1043 365c107 0 161 -85 161 -189s-54 -189 -161 -189s-161 85 -161 189s54 189 161 189zM1043 50c62 0 92 54 92 126s-30 126 -92 126s-92 -54 -92 -126s30 -126 92 -126z
" />
    <glyph glyph-name="guilsinglleft" unicode="&#x2039;" horiz-adv-x="355" 
d="M135 294v-20l162 -173h-94l-145 151v63l145 152h94z" />
    <glyph glyph-name="guilsinglright" unicode="&#x203a;" horiz-adv-x="355" 
d="M220 274v20l-162 173h94l145 -152v-63l-145 -151h-94z" />
    <glyph glyph-name="fraction" unicode="&#x2044;" horiz-adv-x="236" 
d="M-57 0h-77l424 700h76z" />
    <glyph glyph-name="Euro" unicode="&#x20ac;" horiz-adv-x="674" 
d="M415 319l-19 -57h-193c18 -129 81 -197 181 -197c86 0 141 49 153 135h87c-17 -133 -108 -213 -241 -213c-140 0 -243 90 -268 275h-80l19 57h56c-1 24 -1 48 1 73h-76l19 57h63c28 176 132 265 266 265c129 0 216 -75 235 -201h-88c-12 78 -60 123 -147 123
c-93 0 -157 -66 -178 -187h255l-19 -57h-242c-1 -13 -3 -47 -2 -73h218z" />
    <glyph glyph-name="uni20B4" unicode="&#x20b4;" horiz-adv-x="650" 
d="M38 261v57h574v-57h-415c-11 -19 -16 -40 -16 -66c0 -83 66 -130 157 -130c83 0 146 36 163 116h88c-18 -117 -104 -194 -250 -194c-156 0 -246 89 -246 206c0 24 5 47 13 68h-68zM38 448h413c16 18 25 40 25 72c0 74 -58 116 -135 116c-85 0 -130 -37 -145 -101h-87
c15 107 104 179 232 179c139 0 222 -89 222 -190c0 -28 -6 -54 -18 -76h67v-57h-574v57z" />
    <glyph glyph-name="uni20B8" unicode="&#x20b8;" horiz-adv-x="526" 
d="M18 513v57h489v-57h-201v-513h-87v513h-201zM18 643v57h489v-57h-489z" />
    <glyph glyph-name="uni20BD" unicode="&#x20bd;" horiz-adv-x="684" 
d="M44 288v77h97v335h258c150 0 233 -76 233 -205s-83 -207 -233 -207h-170v-73h236v-57h-236v-158h-88v158h-97v57h97v73h-97zM388 365c115 0 156 52 156 130c0 79 -41 128 -156 128h-159v-258h159z" />
    <glyph glyph-name="uni2116" unicode="&#x2116;" horiz-adv-x="1150" 
d="M576 700h86v-700h-136l-330 585h-19v-585h-86v700h136l330 -585h19v585zM1086 212h-323v60h323v-60zM924 714c107 0 161 -85 161 -189s-54 -189 -161 -189s-161 85 -161 189s54 189 161 189zM924 399c62 0 92 54 92 126s-30 126 -92 126s-92 -54 -92 -126
s30 -126 92 -126z" />
    <glyph glyph-name="trademark" unicode="&#x2122;" horiz-adv-x="852" 
d="M507 714l84 -172h12l83 172h101v-380h-60v313h-12l-86 -175h-65l-86 175h-12v-313h-61v380h102zM341 714v-56h-127v-324h-62v324h-128v56h317z" />
    <glyph glyph-name="Omega" unicode="&#x2126;" horiz-adv-x="758" 
d="M569 98v-20h132v-78h-275v76c83 51 186 143 186 302c0 164 -94 267 -233 267c-140 0 -233 -103 -233 -267c0 -159 103 -251 185 -302v-76h-275v78h133v20c-59 51 -134 140 -134 284c0 201 125 345 324 345s324 -144 324 -345c0 -144 -75 -233 -134 -284z" />
    <glyph glyph-name="arrowleft" unicode="&#x2190;" horiz-adv-x="818" 
d="M207 290h553v-76h-553v-20l193 -194h-103l-251 252l251 252h103l-193 -194v-20z" />
    <glyph glyph-name="arrowup" unicode="&#x2191;" horiz-adv-x="678" 
d="M301 0v553h-20l-194 -193v103l252 251l252 -251v-103l-194 193h-20v-553h-76z" />
    <glyph glyph-name="arrowright" unicode="&#x2192;" horiz-adv-x="818" 
d="M58 290h553v20l-193 194h103l251 -252l-251 -252h-103l193 194v20h-553v76z" />
    <glyph glyph-name="arrowdown" unicode="&#x2193;" horiz-adv-x="678" 
d="M377 714v-553h20l194 193v-103l-252 -251l-252 251v103l194 -193h20v553h76z" />
    <glyph glyph-name="uni2196" unicode="&#x2196;" horiz-adv-x="705" 
d="M565 183l-391 391l-15 -14v-274l-72 73v355h355l73 -72h-274l-14 -15l391 -391z" />
    <glyph glyph-name="uni2197" unicode="&#x2197;" horiz-adv-x="705" 
d="M531 574l-391 -391l-53 53l391 391l-14 15h-274l73 72h355v-355l-72 -73v274z" />
    <glyph glyph-name="uni2198" unicode="&#x2198;" horiz-adv-x="705" 
d="M174 140l391 391l53 -53l-391 -391l14 -15h274l-73 -72h-355v355l72 73v-274z" />
    <glyph glyph-name="uni2199" unicode="&#x2199;" horiz-adv-x="705" 
d="M140 531l391 -391l15 14v274l72 -73v-355h-355l-73 72h274l14 15l-391 391z" />
    <glyph glyph-name="partialdiff" unicode="&#x2202;" horiz-adv-x="592" 
d="M296 61c113 0 160 80 160 173s-47 173 -160 173s-162 -80 -162 -173s49 -173 162 -173zM163 727h107c104 -74 271 -222 271 -469c0 -153 -80 -271 -247 -271c-152 0 -243 112 -243 248c0 137 90 246 229 246c52 0 98 -17 125 -44h23c-53 125 -175 226 -265 290z" />
    <glyph glyph-name="Delta" unicode="&#x2206;" horiz-adv-x="639" 
d="M372 714l227 -617v-97h-559v97l228 617h104zM519 78v20l-189 520h-20l-189 -520v-20h398z" />
    <glyph glyph-name="product" unicode="&#x220f;" horiz-adv-x="597" 
d="M471 -200h-82v839h-181v-839h-83v839h-96v75h539v-75h-97v-839z" />
    <glyph glyph-name="summation" unicode="&#x2211;" horiz-adv-x="553" 
d="M143 78h382v-78h-487v97l200 250v20l-191 251v96h461v-78h-357v-19l186 -246v-29l-194 -245v-19z" />
    <glyph glyph-name="minus" unicode="&#x2212;" horiz-adv-x="682" 
d="M595 248h-508v73h508v-73z" />
    <glyph glyph-name="radical" unicode="&#x221a;" horiz-adv-x="643" 
d="M36 504h78l125 -412h19l199 622h158v-69h-103l-208 -645h-112z" />
    <glyph glyph-name="infinity" unicode="&#x221e;" horiz-adv-x="926" 
d="M453 324h20c48 52 112 120 202 120c96 0 164 -63 164 -162s-68 -162 -164 -162c-90 0 -154 68 -202 120h-20c-48 -52 -112 -120 -202 -120c-96 0 -164 63 -164 162s68 162 164 162c90 0 154 -68 202 -120zM422 282c-43 52 -96 111 -168 111c-61 0 -112 -40 -112 -111
s51 -111 112 -111c72 0 125 59 168 111zM504 282c43 -52 96 -111 168 -111c61 0 112 40 112 111s-51 111 -112 111c-72 0 -125 -59 -168 -111z" />
    <glyph glyph-name="integral" unicode="&#x222b;" horiz-adv-x="477" 
d="M426 727h39v-74h-41c-72 0 -103 -44 -115 -113l-100 -564c-22 -126 -88 -176 -200 -176h-39v74h40c72 0 104 44 116 113l99 564c22 126 88 176 201 176z" />
    <glyph glyph-name="approxequal" unicode="&#x2248;" horiz-adv-x="670" 
d="M516 460h67c0 -104 -52 -148 -129 -148c-99 0 -165 109 -241 109c-38 0 -59 -24 -59 -80h-67c0 104 51 148 129 148c100 0 165 -109 241 -109c38 0 59 23 59 80zM516 249h67c0 -104 -52 -148 -129 -148c-99 0 -165 109 -241 109c-38 0 -59 -24 -59 -80h-67
c0 104 51 148 129 148c100 0 165 -109 241 -109c38 0 59 23 59 80z" />
    <glyph glyph-name="notequal" unicode="&#x2260;" horiz-adv-x="680" 
d="M593 420v-74h-174l-80 -125h254v-74h-302l-78 -123h-79l79 123h-126v74h174l81 125h-255v74h303l81 124h75l-80 -124h127z" />
    <glyph glyph-name="lessequal" unicode="&#x2264;" horiz-adv-x="681" 
d="M87 0v74h507v-74h-507zM594 119l-507 171v82l507 171v-77l-390 -125v-20l390 -125v-77z" />
    <glyph glyph-name="greaterequal" unicode="&#x2265;" horiz-adv-x="681" 
d="M594 290l-507 -171v77l389 125v20l-389 125v77l507 -171v-82zM594 74v-74h-507v74h507z" />
    <glyph glyph-name="lozenge" unicode="&#x25ca;" horiz-adv-x="534" 
d="M310 714l166 -357l-166 -357h-86l-166 357l166 357h86zM277 96l115 261l-115 261h-20l-115 -261l115 -261h20z" />
    <glyph glyph-name="commaaccent" unicode="&#xf6c3;" horiz-adv-x="176" 
d="M90 -220h-57l55 62v17h-44v83h100v-100z" />
    <glyph glyph-name="zero.numr" horiz-adv-x="381" 
d="M342 523c0 -135 -64 -197 -152 -197s-151 62 -151 197c0 137 63 198 151 198s152 -61 152 -198zM190 385c59 0 87 55 87 138c0 84 -28 139 -87 139c-60 0 -86 -55 -86 -139c0 -83 26 -138 86 -138z" />
    <glyph glyph-name="one.numr" horiz-adv-x="331" 
d="M199 391h93v-58h-253v58h94v246h-14l-80 -45v65l97 57h63v-323z" />
    <glyph glyph-name="two.numr" horiz-adv-x="362" 
d="M139 391h184v-58h-284v71s79 56 119 85c37 27 85 63 85 110c0 39 -25 63 -66 63c-46 0 -73 -23 -74 -69h-65c2 89 64 128 140 128c75 0 130 -41 130 -119c0 -55 -32 -95 -76 -128l-93 -69v-14z" />
    <glyph glyph-name="three.numr" horiz-adv-x="364" 
d="M227 570c54 -8 99 -49 99 -116c0 -80 -62 -128 -145 -128c-85 0 -143 53 -146 126h64c4 -43 39 -67 82 -67c46 0 80 26 80 70s-31 70 -79 70c-17 0 -24 -1 -36 -3v59l76 61v14h-159v58h247v-64l-83 -66v-14z" />
    <glyph glyph-name="four.numr" horiz-adv-x="385" 
d="M294 477h52v-58h-52v-86h-65v86h-192v62l173 233h84v-237zM110 477h120v158h-14l-106 -144v-14z" />
    <glyph glyph-name="five.numr" horiz-adv-x="363" 
d="M194 594c81 0 130 -59 130 -130c0 -84 -57 -138 -141 -138c-93 0 -139 54 -144 125h65c5 -44 34 -66 77 -66c47 0 78 28 78 78c0 44 -29 75 -75 75c-32 0 -58 -11 -75 -34h-61l20 210h236v-58h-185l-7 -84h14c16 14 41 22 68 22z" />
    <glyph glyph-name="six.numr" horiz-adv-x="369" 
d="M197 587c75 0 133 -53 133 -127c0 -75 -53 -134 -140 -134c-90 0 -151 50 -151 187c0 115 47 208 156 208c68 0 114 -44 125 -102h-65c-9 30 -29 45 -62 45c-50 0 -83 -38 -90 -107h14c14 15 43 30 80 30zM188 383c43 0 77 27 77 76c0 48 -35 72 -78 72s-76 -24 -76 -72
c0 -49 34 -76 77 -76z" />
    <glyph glyph-name="seven.numr" horiz-adv-x="342" 
d="M39 714h264v-59l-169 -322h-69l163 309v14h-189v58z" />
    <glyph glyph-name="eight.numr" horiz-adv-x="375" 
d="M188 666c-40 0 -70 -20 -70 -54s30 -53 70 -53c38 0 69 19 69 53s-31 54 -69 54zM188 382c49 0 83 26 83 63c0 36 -34 61 -83 61c-50 0 -84 -25 -84 -61c0 -37 34 -63 84 -63zM97 541c-19 11 -43 35 -43 75c0 62 55 105 134 105s133 -43 133 -105c0 -38 -23 -64 -43 -75
v-13c27 -13 58 -39 58 -90c0 -63 -57 -112 -149 -112s-148 49 -148 112c0 51 31 77 58 90v13z" />
    <glyph glyph-name="nine.numr" horiz-adv-x="369" 
d="M172 460c-75 0 -133 53 -133 127c0 75 53 134 140 134c90 0 151 -50 151 -187c0 -115 -47 -208 -156 -208c-68 0 -114 44 -125 102h65c9 -30 29 -45 62 -45c50 0 83 38 90 107h-14c-14 -15 -43 -30 -80 -30zM181 664c-43 0 -77 -27 -77 -76c0 -48 35 -72 78 -72
s76 24 76 72c0 49 -34 76 -77 76z" />
    <glyph glyph-name="zero.dnom" horiz-adv-x="381" 
d="M342 190c0 -135 -64 -197 -152 -197s-151 62 -151 197c0 137 63 198 151 198s152 -61 152 -198zM190 52c59 0 87 55 87 138c0 84 -28 139 -87 139c-60 0 -86 -55 -86 -139c0 -83 26 -138 86 -138z" />
    <glyph glyph-name="one.dnom" horiz-adv-x="331" 
d="M199 58h93v-58h-253v58h94v246h-14l-80 -45v65l97 57h63v-323z" />
    <glyph glyph-name="two.dnom" horiz-adv-x="362" 
d="M139 58h184v-58h-284v71s79 56 119 85c37 27 85 63 85 110c0 39 -25 63 -66 63c-46 0 -73 -23 -74 -69h-65c2 89 64 128 140 128c75 0 130 -41 130 -119c0 -55 -32 -95 -76 -128l-93 -69v-14z" />
    <glyph glyph-name="three.dnom" horiz-adv-x="368" 
d="M229 237c54 -8 99 -49 99 -116c0 -80 -62 -128 -145 -128c-85 0 -143 53 -146 126h64c4 -43 39 -67 82 -67c46 0 80 26 80 70s-31 70 -79 70c-17 0 -24 -1 -36 -3v59l76 61v14h-159v58h247v-64l-83 -66v-14z" />
    <glyph glyph-name="four.dnom" horiz-adv-x="385" 
d="M294 144h52v-58h-52v-86h-65v86h-192v62l173 233h84v-237zM110 144h120v158h-14l-106 -144v-14z" />
    <glyph glyph-name="five.dnom" horiz-adv-x="363" 
d="M194 261c81 0 130 -59 130 -130c0 -84 -57 -138 -141 -138c-93 0 -139 54 -144 125h65c5 -44 34 -66 77 -66c47 0 78 28 78 78c0 44 -29 75 -75 75c-32 0 -58 -11 -75 -34h-61l20 210h236v-58h-185l-7 -84h14c16 14 41 22 68 22z" />
    <glyph glyph-name="six.dnom" horiz-adv-x="369" 
d="M197 254c75 0 133 -53 133 -127c0 -75 -53 -134 -140 -134c-90 0 -151 50 -151 187c0 115 47 208 156 208c68 0 114 -44 125 -102h-65c-9 30 -29 45 -62 45c-50 0 -83 -38 -90 -107h14c14 15 43 30 80 30zM188 50c43 0 77 27 77 76c0 48 -35 72 -78 72s-76 -24 -76 -72
c0 -49 34 -76 77 -76z" />
    <glyph glyph-name="seven.dnom" horiz-adv-x="342" 
d="M39 381h264v-59l-169 -322h-69l163 309v14h-189v58z" />
    <glyph glyph-name="eight.dnom" horiz-adv-x="375" 
d="M188 333c-40 0 -70 -20 -70 -54s30 -53 70 -53c38 0 69 19 69 53s-31 54 -69 54zM188 49c49 0 83 26 83 63c0 36 -34 61 -83 61c-50 0 -84 -25 -84 -61c0 -37 34 -63 84 -63zM97 208c-19 11 -43 35 -43 75c0 62 55 105 134 105s133 -43 133 -105c0 -38 -23 -64 -43 -75
v-13c27 -13 58 -39 58 -90c0 -63 -57 -112 -149 -112s-148 49 -148 112c0 51 31 77 58 90v13z" />
    <glyph glyph-name="nine.dnom" horiz-adv-x="369" 
d="M172 127c-75 0 -133 53 -133 127c0 75 53 134 140 134c90 0 151 -50 151 -187c0 -115 -47 -208 -156 -208c-68 0 -114 44 -125 102h65c9 -30 29 -45 62 -45c50 0 83 38 90 107h-14c-14 -15 -43 -30 -80 -30zM181 331c-43 0 -77 -27 -77 -76c0 -48 35 -72 78 -72
s76 24 76 72c0 49 -34 76 -77 76z" />
    <glyph glyph-name="zero.onum" horiz-adv-x="607" 
d="M304 517c144 0 253 -102 253 -265s-109 -265 -253 -265s-254 102 -254 265s110 265 254 265zM304 63c108 0 167 77 167 189c0 113 -59 189 -167 189s-168 -76 -168 -189c0 -112 60 -189 168 -189z" />
    <glyph glyph-name="one.onum" horiz-adv-x="460" 
d="M60 0v76h142v339h-19l-123 -80v90l123 79h105v-428h131v-76h-359z" />
    <glyph glyph-name="two.onum" horiz-adv-x="547" 
d="M499 76v-76h-448v96l195 94c88 43 145 80 145 152c0 58 -44 99 -123 99c-88 0 -135 -47 -135 -128h-85c0 112 78 204 221 204c142 0 207 -90 207 -172c0 -111 -89 -163 -173 -203l-97 -46v-20h293z" />
    <glyph glyph-name="three.onum" horiz-adv-x="568" 
d="M77 504h410v-94l-174 -153v-19c117 -3 205 -77 205 -211c0 -146 -103 -230 -245 -230c-143 0 -238 90 -244 208h85c7 -80 74 -132 159 -132c94 0 160 59 160 154c0 91 -58 149 -160 149c-22 0 -44 -2 -59 -6v89l171 151v20h-308v74z" />
    <glyph glyph-name="four.onum" horiz-adv-x="612" 
d="M470 76h97v-76h-97v-196h-85v196h-346v97l311 407h120v-428zM128 76h259v335h-20l-239 -315v-20z" />
    <glyph glyph-name="five.onum" horiz-adv-x="595" 
d="M316 278c141 0 225 -102 225 -232c0 -152 -97 -249 -239 -249c-154 0 -235 90 -243 208h85c10 -86 69 -132 154 -132c93 0 158 65 158 169c0 96 -61 164 -155 164c-61 0 -109 -22 -140 -67h-86l31 365h399v-74h-330l-16 -201h20c32 29 72 49 137 49z" />
    <glyph glyph-name="six.onum" horiz-adv-x="593" 
d="M324 455c128 0 223 -93 223 -227s-87 -241 -236 -241s-255 92 -255 344c0 214 81 383 264 383c119 0 192 -72 209 -167h-85c-17 58 -56 91 -124 91c-111 0 -176 -98 -181 -251h20c25 30 80 68 165 68zM310 63c87 0 152 56 152 161c0 104 -67 157 -154 157
c-86 0 -153 -56 -153 -156c0 -103 68 -162 155 -162z" />
    <glyph glyph-name="seven.onum" horiz-adv-x="548" 
d="M495 409l-303 -605h-90l302 607v19h-355v74h446v-95z" />
    <glyph glyph-name="eight.onum" horiz-adv-x="609" 
d="M446 359c47 -17 111 -74 111 -168c0 -116 -98 -204 -252 -204s-252 88 -252 204c0 94 63 151 111 168v20c-38 17 -90 68 -90 148c0 111 95 187 231 187s231 -76 231 -187c0 -80 -53 -131 -90 -148v-20zM305 640c-79 0 -147 -42 -147 -116s68 -118 147 -118
s147 44 147 118s-68 116 -147 116zM305 63c102 0 167 52 167 133c0 82 -65 133 -167 133s-167 -51 -167 -133c0 -81 65 -133 167 -133z" />
    <glyph glyph-name="nine.onum" horiz-adv-x="593" 
d="M267 49c-128 0 -223 93 -223 227s87 241 236 241s255 -92 255 -344c0 -214 -81 -377 -264 -377c-119 0 -192 72 -209 167h85c17 -58 56 -91 124 -91c111 0 176 92 181 245h-20c-25 -30 -80 -68 -165 -68zM281 441c-87 0 -152 -56 -152 -161c0 -104 67 -157 154 -157
c86 0 153 56 153 156c0 103 -68 162 -155 162z" />
    <glyph glyph-name="zero.tnum" 
d="M315 714c148 0 258 -112 258 -364s-110 -363 -258 -363s-257 111 -257 363s109 364 257 364zM146 350c0 -81 11 -149 36 -198l222 454c-24 19 -54 30 -89 30c-116 0 -169 -112 -169 -286zM315 65c117 0 170 112 170 285c0 81 -12 148 -36 197l-221 -454
c23 -18 52 -28 87 -28z" />
    <glyph glyph-name="one.tnum" 
d="M63 0v78h229v530h-18l-163 -105v92l162 105h107v-622h190v-78h-507z" />
    <glyph glyph-name="two.tnum" 
d="M74 507c9 140 108 207 233 207c130 0 227 -73 227 -213c0 -95 -72 -185 -155 -254l-175 -149v-20h353v-78h-481v98s186 153 261 220c48 42 109 101 109 183c0 88 -56 135 -141 135c-78 0 -134 -42 -143 -129h-88z" />
    <glyph glyph-name="three.tnum" 
d="M107 700h409v-96l-175 -154v-19c120 -3 208 -78 208 -213c0 -145 -104 -231 -247 -231c-142 0 -238 90 -245 209h88c7 -80 73 -131 157 -131c95 0 159 58 159 153c0 91 -56 149 -158 149c-23 0 -45 -2 -61 -6v91l171 152v20h-306v76z" />
    <glyph glyph-name="four.tnum" 
d="M484 242h96v-78h-96v-164h-86v164h-346v98l311 438h121v-458zM144 242h255v359h-20l-235 -339v-20z" />
    <glyph glyph-name="five.tnum" 
d="M334 471c141 0 226 -104 226 -234c0 -152 -98 -250 -240 -250c-154 0 -236 91 -244 209h87c10 -86 68 -131 153 -131c93 0 156 64 156 168c0 96 -59 164 -153 164c-61 0 -108 -21 -139 -66h-88l31 369h400v-76h-329l-16 -203h20c32 29 71 50 136 50z" />
    <glyph glyph-name="six.tnum" 
d="M339 456c128 0 225 -94 225 -228s-89 -241 -238 -241s-257 92 -257 344c0 214 83 383 266 383c119 0 193 -72 210 -167h-87c-17 58 -55 89 -123 89c-111 0 -176 -96 -181 -249h20c25 30 80 69 165 69zM325 65c86 0 151 55 151 159c0 103 -67 155 -153 155
c-85 0 -152 -55 -152 -154c0 -102 68 -160 154 -160z" />
    <glyph glyph-name="seven.tnum" 
d="M532 604l-303 -604h-92l304 604v20h-355v76h446v-96z" />
    <glyph glyph-name="eight.tnum" 
d="M458 359c46 -17 110 -74 110 -168c0 -116 -99 -204 -253 -204s-253 88 -253 204c0 94 63 151 110 168v20c-37 17 -89 67 -89 148c0 111 96 187 232 187s232 -76 232 -187c0 -79 -53 -131 -89 -148v-20zM315 638c-79 0 -146 -40 -146 -115s67 -116 146 -116
s146 41 146 116s-67 115 -146 115zM315 65c102 0 166 53 166 134c0 82 -64 132 -166 132s-166 -50 -166 -132c0 -81 64 -134 166 -134z" />
    <glyph glyph-name="nine.tnum" 
d="M291 245c-128 0 -225 94 -225 228s89 241 238 241s257 -92 257 -344c0 -214 -83 -383 -266 -383c-119 0 -193 72 -210 167h87c17 -58 55 -89 123 -89c111 0 176 96 181 249h-20c-25 -30 -80 -69 -165 -69zM305 636c-86 0 -151 -55 -151 -159c0 -103 67 -155 153 -155
c85 0 152 55 152 154c0 102 -68 160 -154 160z" />
    <glyph glyph-name="dollar.tnum" 
d="M284 798h61v-85c113 -11 192 -86 206 -188h-86c-13 59 -48 100 -120 110v-234l53 -12c105 -24 172 -79 172 -196c0 -107 -73 -199 -225 -206v-85h-61v87c-131 13 -209 91 -225 207h87c14 -76 68 -119 138 -130v267l-44 10c-105 25 -156 81 -156 178c0 98 68 184 200 193
v84zM345 320v-255c79 5 138 49 138 126c0 72 -44 110 -118 125zM284 636c-67 -6 -116 -41 -116 -112c0 -64 32 -95 116 -110v222z" />
    <glyph glyph-name="Euro.tnum" 
d="M386 319l-19 -57h-184c17 -129 78 -197 175 -197c85 0 134 52 147 135h87c-20 -133 -103 -213 -234 -213c-138 0 -239 90 -262 275h-73l19 57h49c-1 23 -1 49 1 73h-69l19 57h56c26 176 128 265 260 265c128 0 206 -75 228 -201h-88c-13 76 -55 123 -140 123
c-92 0 -154 -66 -173 -187h246l-19 -57h-234c-2 -24 -2 -52 0 -73h208z" />
    <glyph glyph-name="sterling.tnum" 
d="M199 78h382v-78h-533v77h19c49 0 69 33 69 92v116h-88v74h88v139c0 136 80 216 209 216c124 0 199 -75 203 -201h-87c-2 73 -33 123 -115 123c-87 0 -122 -60 -122 -137v-140h215v-74h-215v-107c0 -34 -2 -58 -25 -80v-20z" />
    <glyph glyph-name="yen.tnum" 
d="M116 302v57h95l-176 341h92l173 -341h28l174 341h92l-176 -341h94v-57h-124l-30 -58v-15h154v-57h-154v-172h-88v172h-154v57h154v15l-30 58h-124z" />
    <glyph glyph-name="uni20BD.tnum" 
d="M43 288v77h86v335h237c149 0 231 -76 231 -205c0 -128 -82 -207 -231 -207h-149v-73h222v-57h-222v-158h-88v158h-86v57h86v73h-86zM353 365c115 0 156 52 156 132c0 78 -41 126 -156 126h-136v-258h136z" />
    <glyph glyph-name="uni20B4.tnum" 
d="M44 318h542v-57h-396c-10 -19 -15 -40 -15 -66c0 -80 61 -130 145 -130c79 0 138 37 157 116h88c-20 -116 -105 -194 -244 -194c-149 0 -233 96 -233 206c0 24 4 47 12 68h-56v57zM44 448h387c18 17 26 40 26 72c0 70 -51 116 -125 116c-82 0 -122 -38 -138 -101h-87
c17 105 100 179 224 179c134 0 213 -92 213 -193c0 -27 -6 -52 -17 -73h59v-57h-542v57z" />
    <glyph glyph-name="uni20B8.tnum" 
d="M70 513v57h489v-57h-201v-513h-87v513h-201zM70 643v57h489v-57h-489z" />
    <glyph glyph-name="cent.tnum" 
d="M291 -80v69c-135 16 -210 124 -210 263s75 247 210 263v69h61v-68c103 -9 167 -72 183 -158h-85c-14 44 -45 76 -98 83v-379c56 8 89 41 101 90h85c-17 -91 -84 -154 -186 -164v-68h-61zM166 254c0 -91 37 -173 125 -190v376c-89 -17 -125 -96 -125 -186z" />
    <glyph glyph-name="circumflex.cap" horiz-adv-x="378" 
d="M235 896l107 -129h-84l-61 71h-18l-61 -71h-82l107 129h92z" />
    <glyph glyph-name="dieresis.cap" horiz-adv-x="345" 
d="M128 796h-92v100h92v-100zM309 796h-92v100h92v-100z" />
    <glyph glyph-name="acute.cap" horiz-adv-x="266" 
d="M227 896l-109 -129h-78l85 129h102z" />
    <glyph glyph-name="grave.cap" horiz-adv-x="266" 
d="M148 767l-108 129h101l86 -129h-79z" />
    <glyph glyph-name="ring.cap" horiz-adv-x="298" 
d="M149 967c60 0 109 -48 109 -108c0 -59 -49 -108 -109 -108s-109 49 -109 108c0 60 49 108 109 108zM149 804c30 0 55 24 55 55c0 30 -25 55 -55 55s-55 -25 -55 -55c0 -31 25 -55 55 -55z" />
    <glyph glyph-name="caron.cap" horiz-adv-x="378" 
d="M143 767l-107 129h84l61 -71h18l61 71h82l-107 -129h-92z" />
    <glyph glyph-name="dotaccent.cap" horiz-adv-x="170" 
d="M134 796h-98v100h98v-100z" />
    <glyph glyph-name="breve.cap" horiz-adv-x="357" 
d="M254 896h64c0 -83 -53 -130 -140 -130c-86 0 -138 47 -139 130h64c0 -43 26 -70 75 -70c50 0 76 27 76 70z" />
    <glyph glyph-name="hungarumlaut.cap" horiz-adv-x="407" 
d="M210 896l-99 -129h-74l77 129h96zM372 896l-100 -129h-73l77 129h96z" />
    <glyph glyph-name="tilde.cap" horiz-adv-x="408" 
d="M313 896h55c0 -88 -34 -129 -94 -129c-66 0 -104 66 -145 66c-29 0 -34 -29 -34 -66h-55c0 87 35 129 94 129c66 0 104 -66 145 -66c29 0 34 28 34 66z" />
    <glyph glyph-name="macron.cap" horiz-adv-x="362" 
d="M322 809h-282v64h282v-64z" />
    <glyph glyph-name="cyrbreve" horiz-adv-x="421" 
d="M297 724h69c-2 -93 -61 -146 -156 -146c-94 0 -153 53 -155 146h69c1 -51 28 -85 86 -85c61 0 85 34 87 85z" />
    <glyph glyph-name="cyrbreve.cap" horiz-adv-x="428" 
d="M315 904h73c-2 -99 -76 -155 -175 -155c-97 0 -171 56 -173 155h73c1 -55 42 -90 100 -90c59 0 101 35 102 90z" />
    <glyph glyph-name="hyphen.case" horiz-adv-x="369" 
d="M321 325h-273v75h273v-75z" />
    <glyph glyph-name="endash.case" horiz-adv-x="617" 
d="M568 326h-520v72h520v-72z" />
    <glyph glyph-name="emdash.case" horiz-adv-x="877" 
d="M828 326h-780v72h780v-72z" />
    <glyph glyph-name="emdash.ss02.case" horiz-adv-x="1445" 
d="M1396 326h-1348v72h1348v-72z" />
    <glyph glyph-name="bracketleft.case" horiz-adv-x="324" 
d="M266 -93h-189v900h189v-68h-109v-764h109v-68z" />
    <glyph glyph-name="bracketright.case" horiz-adv-x="324" 
d="M247 -93h-189v68h109v764h-109v68h189v-900z" />
    <glyph glyph-name="braceleft.case" horiz-adv-x="390" 
d="M174 367v-20c33 -10 55 -43 55 -105v-168c0 -72 34 -99 89 -99h33v-68h-39c-95 0 -163 55 -163 159v160c0 61 -12 96 -63 96h-14v70h14c51 0 63 35 63 96v160c0 104 68 159 163 159h39v-68h-33c-55 0 -89 -27 -89 -99v-168c0 -62 -22 -95 -55 -105z" />
    <glyph glyph-name="braceright.case" horiz-adv-x="390" 
d="M216 347v20c-33 10 -55 43 -55 105v168c0 72 -34 99 -89 99h-33v68h39c95 0 163 -55 163 -159v-160c0 -61 12 -96 63 -96h14v-70h-14c-51 0 -63 -35 -63 -96v-160c0 -104 -68 -159 -163 -159h-39v68h33c55 0 89 27 89 99v168c0 62 22 95 55 105z" />
    <glyph glyph-name="parenleft.case" horiz-adv-x="294" 
d="M128 360c0 -201 78 -344 161 -453h-82c-87 104 -159 253 -159 453c0 196 69 344 152 447h82c-80 -108 -154 -249 -154 -447z" />
    <glyph glyph-name="parenright.case" horiz-adv-x="294" 
d="M166 360c0 198 -74 339 -154 447h82c83 -103 152 -251 152 -447c0 -200 -72 -349 -159 -453h-82c83 109 161 252 161 453z" />
    <glyph glyph-name="guillemotright.case" horiz-adv-x="564" 
d="M220 340v20l-162 173h94l145 -152v-63l-145 -151h-94zM428 340v20l-162 173h94l146 -152v-63l-146 -151h-94z" />
    <glyph glyph-name="guillemotleft.case" horiz-adv-x="564" 
d="M135 360v-20l162 -173h-94l-145 151v63l145 152h94zM344 360v-20l162 -173h-94l-146 151v63l146 152h94z" />
    <glyph glyph-name="guilsinglright.case" horiz-adv-x="355" 
d="M220 340v20l-162 173h94l145 -152v-63l-145 -151h-94z" />
    <glyph glyph-name="guilsinglleft.case" horiz-adv-x="355" 
d="M135 360v-20l162 -173h-94l-145 151v63l145 152h94z" />
    <glyph glyph-name="exclamdown.case" horiz-adv-x="314" 
d="M202 0h-90v295l17 230h57l16 -230v-295zM105 714h104v-116h-104v116z" />
    <glyph glyph-name="questiondown.case" horiz-adv-x="547" 
d="M280 -13c-130 0 -215 76 -215 193c0 100 51 140 122 193c48 36 65 51 65 116v36h86v-36c0 -88 -29 -120 -96 -170c-55 -41 -91 -71 -91 -139c0 -61 45 -119 128 -119c82 0 131 39 136 133h86c-5 -128 -88 -207 -221 -207zM243 714h104v-116h-104v116z" />
    <glyph glyph-name="a.ss03" horiz-adv-x="615" 
d="M533 504v-504h-82v55h-20c-28 -35 -77 -68 -156 -68c-140 0 -224 115 -224 265s84 265 224 265c79 0 128 -33 156 -68h20v55h82zM449 252c0 98 -46 191 -158 191c-102 0 -155 -79 -155 -191s53 -191 155 -191c112 0 158 93 158 191z" />
    <glyph glyph-name="aacute.ss03" horiz-adv-x="615" 
d="M533 504v-504h-82v55h-20c-28 -35 -77 -68 -156 -68c-140 0 -224 115 -224 265s84 265 224 265c79 0 128 -33 156 -68h20v55h82zM449 252c0 98 -46 191 -158 191c-102 0 -155 -79 -155 -191s53 -191 155 -191c112 0 158 93 158 191zM436 727l-109 -145h-77l86 145h100z
" />
    <glyph glyph-name="agrave.ss03" horiz-adv-x="615" 
d="M533 504v-504h-82v55h-20c-28 -35 -77 -68 -156 -68c-140 0 -224 115 -224 265s84 265 224 265c79 0 128 -33 156 -68h20v55h82zM449 252c0 98 -46 191 -158 191c-102 0 -155 -79 -155 -191s53 -191 155 -191c112 0 158 93 158 191zM272 582l-108 145h100l86 -145h-78z
" />
    <glyph glyph-name="acircumflex.ss03" horiz-adv-x="615" 
d="M533 504v-504h-82v55h-20c-28 -35 -77 -68 -156 -68c-140 0 -224 115 -224 265s84 265 224 265c79 0 128 -33 156 -68h20v55h82zM449 252c0 98 -46 191 -158 191c-102 0 -155 -79 -155 -191s53 -191 155 -191c112 0 158 93 158 191zM346 727l107 -145h-80l-65 86h-18
l-64 -86h-79l108 145h91z" />
    <glyph glyph-name="adieresis.ss03" horiz-adv-x="615" 
d="M533 504v-504h-82v55h-20c-28 -35 -77 -68 -156 -68c-140 0 -224 115 -224 265s84 265 224 265c79 0 128 -33 156 -68h20v55h82zM449 252c0 98 -46 191 -158 191c-102 0 -155 -79 -155 -191s53 -191 155 -191c112 0 158 93 158 191zM254 627h-92v100h92v-100zM435 627
h-92v100h92v-100z" />
    <glyph glyph-name="atilde.ss03" horiz-adv-x="615" 
d="M533 504v-504h-82v55h-20c-28 -35 -77 -68 -156 -68c-140 0 -224 115 -224 265s84 265 224 265c79 0 128 -33 156 -68h20v55h82zM449 252c0 98 -46 191 -158 191c-102 0 -155 -79 -155 -191s53 -191 155 -191c112 0 158 93 158 191zM408 720h54c0 -90 -33 -132 -93 -132
c-66 0 -104 70 -145 70c-31 0 -35 -33 -35 -70h-54c0 89 35 132 94 132c65 0 104 -71 145 -71c31 0 34 33 34 71z" />
    <glyph glyph-name="aring.ss03" horiz-adv-x="615" 
d="M184 687c0 60 49 108 109 108s109 -48 109 -108s-49 -108 -109 -108s-109 48 -109 108zM238 687c0 -30 25 -55 55 -55s55 25 55 55s-25 55 -55 55s-55 -25 -55 -55zM533 504v-504h-82v55h-20c-28 -35 -77 -68 -156 -68c-140 0 -224 115 -224 265s84 265 224 265
c79 0 128 -33 156 -68h20v55h82zM449 252c0 98 -46 191 -158 191c-102 0 -155 -79 -155 -191s53 -191 155 -191c112 0 158 93 158 191z" />
    <glyph glyph-name="amacron.ss03" horiz-adv-x="615" 
d="M533 504v-504h-82v55h-20c-28 -35 -77 -68 -156 -68c-140 0 -224 115 -224 265s84 265 224 265c79 0 128 -33 156 -68h20v55h82zM449 252c0 98 -46 191 -158 191c-102 0 -155 -79 -155 -191s53 -191 155 -191c112 0 158 93 158 191zM445 639h-282v64h282v-64z" />
    <glyph glyph-name="abreve.ss03" horiz-adv-x="615" 
d="M533 504v-504h-82v55h-20c-28 -35 -77 -68 -156 -68c-140 0 -224 115 -224 265s84 265 224 265c79 0 128 -33 156 -68h20v55h82zM449 252c0 98 -46 191 -158 191c-102 0 -155 -79 -155 -191s53 -191 155 -191c112 0 158 93 158 191zM373 727h66c0 -91 -52 -145 -138 -145
c-87 0 -139 54 -139 145h65c0 -51 24 -84 73 -84s73 33 73 84z" />
    <glyph glyph-name="aogonek.ss03" horiz-adv-x="615" 
d="M533 504v-504c-39 -20 -72 -55 -72 -90c0 -33 28 -52 74 -52v-58h-21c-77 0 -124 34 -124 95c0 40 26 82 61 105v55h-20c-28 -35 -77 -68 -156 -68c-140 0 -224 115 -224 265s84 265 224 265c79 0 128 -33 156 -68h20v55h82zM449 252c0 98 -46 191 -158 191
c-102 0 -155 -79 -155 -191s53 -191 155 -191c112 0 158 93 158 191z" />
    <glyph glyph-name="t.ss04" horiz-adv-x="378" 
d="M214 0h-85v430h-102v74h102v152h85v-152h136v-74h-136v-430z" />
    <glyph glyph-name="tcaron.ss04" horiz-adv-x="433" 
d="M214 0h-85v430h-102v74h102v152h85v-152h136v-74h-136v-430zM394 645h-46v100h102v-117l-53 -74h-56l53 74v17z" />
    <glyph glyph-name="uni0163.ss04" horiz-adv-x="378" 
d="M168 -220h-57l55 62v17h-44v83h100v-100zM214 0h-85v430h-102v74h102v152h85v-152h136v-74h-136v-430z" />
    <glyph glyph-name="Y.ss05" horiz-adv-x="637" 
d="M313 339h28l179 375h94l-341 -714h-93l102 214l-264 500h97z" />
    <glyph glyph-name="Yacute.ss05" horiz-adv-x="637" 
d="M313 339h28l179 375h94l-341 -714h-93l102 214l-264 500h97zM453 896l-109 -129h-78l85 129h102z" />
    <glyph glyph-name="Ydieresis.ss05" horiz-adv-x="637" 
d="M313 339h28l179 375h94l-341 -714h-93l102 214l-264 500h97zM281 796h-92v100h92v-100zM462 796h-92v100h92v-100z" />
    <glyph glyph-name="ampersand.ss06" horiz-adv-x="656" 
d="M620 414v-76h-70v-123c0 -141 -102 -228 -250 -228c-150 0 -253 89 -253 211c0 101 59 154 115 172v20c-46 19 -88 64 -88 143c0 114 97 181 215 181c123 0 200 -62 214 -161h-86c-15 57 -58 85 -129 85c-80 0 -128 -46 -128 -108c0 -69 45 -116 137 -116h43v-76h-43
c-96 0 -163 -42 -163 -137c0 -86 70 -137 166 -137c109 0 164 57 164 151v199h156z" />
    <glyph glyph-name="zero.ss07" horiz-adv-x="625" 
d="M312 714c148 0 258 -112 258 -364s-110 -363 -258 -363s-257 111 -257 363s109 364 257 364zM143 350c0 -81 11 -149 36 -198l222 454c-24 19 -54 30 -89 30c-116 0 -169 -112 -169 -286zM312 65c117 0 170 112 170 285c0 81 -12 148 -36 197l-221 -454
c23 -18 52 -28 87 -28z" />
    <glyph glyph-name="emdash.ss02" horiz-adv-x="1445" 
d="M1396 241h-1348v72h1348v-72z" />
    <glyph glyph-name="uni0430.ss03" horiz-adv-x="615" 
d="M533 504v-504h-82v55h-20c-28 -35 -77 -68 -156 -68c-140 0 -224 115 -224 265s84 265 224 265c79 0 128 -33 156 -68h20v55h82zM449 252c0 98 -46 191 -158 191c-102 0 -155 -79 -155 -191s53 -191 155 -191c112 0 158 93 158 191z" />
    <glyph glyph-name="uni0423.ss08" horiz-adv-x="640" 
d="M122 0v87h27c52 0 82 15 110 73l27 55l-263 499h95l199 -375h28l179 375h93l-263 -554c-55 -114 -102 -160 -204 -160h-28z" />
    <glyph glyph-name="uni040E.ss08" horiz-adv-x="640" 
d="M122 0v87h27c52 0 82 15 110 73l27 55l-263 499h95l199 -375h28l179 375h93l-263 -554c-55 -114 -102 -160 -204 -160h-28zM428 904h73c-2 -99 -76 -155 -175 -155c-97 0 -171 56 -173 155h73c1 -55 42 -90 100 -90c59 0 101 35 102 90z" />
    <glyph glyph-name="Abreve" unicode="&#x102;" horiz-adv-x="687" 
d="M573 0l-74 219h-313l-74 -219h-92l247 714h152l248 -714h-94zM322 622l-109 -321h258l-109 321h-40zM419 896h64c0 -83 -53 -130 -140 -130c-86 0 -138 47 -139 130h64c0 -43 26 -70 75 -70c50 0 76 27 76 70z" />
    <glyph glyph-name="Scedilla" unicode="&#x15e;" horiz-adv-x="664" 
d="M291 427c31 -6 98 -19 135 -27c106 -24 179 -79 179 -201c0 -112 -89 -212 -270 -212h-5l-18 -47h13c7 5 17 8 31 8c37 0 68 -32 68 -78c0 -41 -27 -85 -95 -85c-56 0 -86 34 -89 69h54c4 -14 16 -24 36 -24c22 0 37 15 37 38s-15 37 -36 37c-13 0 -24 -5 -31 -11h-52
l37 96c-138 15 -226 97 -237 209h91c17 -97 101 -130 200 -130s175 46 175 128c0 76 -51 107 -121 122c-35 8 -106 22 -141 29c-103 21 -173 77 -173 181c0 111 90 198 251 198c148 0 243 -78 259 -193h-91c-17 71 -67 111 -170 111c-86 0 -158 -39 -158 -114
c0 -69 60 -91 121 -104z" />
    <glyph glyph-name="scedilla" unicode="&#x15f;" horiz-adv-x="514" 
d="M226 312l97 -17c92 -16 148 -59 148 -151c0 -82 -72 -157 -207 -157h-10l-18 -47h13c7 5 17 8 31 8c37 0 68 -32 68 -78c0 -41 -27 -85 -95 -85c-56 0 -86 34 -89 69h54c4 -14 16 -24 36 -24c22 0 37 15 37 38s-15 37 -36 37c-13 0 -24 -5 -31 -11h-52l38 97
c-105 13 -159 71 -170 154h85c11 -57 62 -84 135 -84c75 0 126 26 126 81c0 45 -26 68 -93 80l-101 18c-77 14 -131 51 -131 128c0 83 64 149 198 149c116 0 188 -58 198 -144h-84c-6 48 -61 70 -119 70c-61 0 -108 -23 -108 -68c0 -38 25 -52 80 -63z" />
    <glyph glyph-name="uni0162" unicode="&#x162;" horiz-adv-x="597" 
d="M578 714v-80h-234v-634h-90v634h-236v80h560zM295 -220h-57l55 62v17h-44v83h100v-100z" />
    <glyph glyph-name="uni0163" unicode="&#x163;" horiz-adv-x="408" 
d="M214 504h136v-74h-136v-279c0 -50 22 -75 89 -75h47v-76h-53c-110 0 -168 28 -168 134v296h-102v74h102v152h85v-152zM230 -220h-57l55 62v17h-44v83h100v-100z" />
    <glyph glyph-name="quotedbl.ss01" horiz-adv-x="317" 
d="M80 473v241h34v-241h-34zM203 473v241h34v-241h-34z" />
    <glyph glyph-name="numbersign.ss01" horiz-adv-x="551" 
d="M300 0l32 208h-159l-32 -208h-34l32 208h-104v31h110l34 222h-102v31h107l33 208h34l-34 -208h161l33 208h34l-33 -208h104v-31h-109l-35 -222h103v-31h-108l-32 -208h-35zM213 461l-35 -222h160l35 222h-160z" />
    <glyph glyph-name="quotesingle.ss01" horiz-adv-x="194" 
d="M80 473v241h34v-241h-34z" />
    <glyph glyph-name="parenleft.ss01" horiz-adv-x="238" 
d="M232 759c-107 -136 -148 -288 -148 -450s41 -313 148 -450h-43c-101 137 -139 288 -139 450c0 163 39 314 140 450h42z" />
    <glyph glyph-name="parenright.ss01" horiz-adv-x="240" 
d="M6 759h42c101 -136 140 -287 140 -450c0 -162 -38 -313 -139 -450h-43c107 137 148 288 148 450s-41 314 -148 450z" />
    <glyph glyph-name="bracketleft.ss01" horiz-adv-x="258" 
d="M198 -141h-118v900h118v-31h-84v-838h84v-31z" />
    <glyph glyph-name="bracketright.ss01" horiz-adv-x="258" 
d="M178 -141h-118v31h84v838h-84v31h118v-900z" />
    <glyph glyph-name="braceleft.ss01" horiz-adv-x="337" 
d="M137 318v-18c23 -9 36 -31 36 -91v-215c0 -72 25 -104 94 -104h30v-31h-30c-80 0 -128 35 -128 136v204c0 61 -5 95 -46 95h-13v30h13c41 0 46 34 46 95v204c0 101 48 136 128 136h30v-31h-30c-69 0 -94 -32 -94 -104v-215c0 -60 -13 -82 -36 -91z" />
    <glyph glyph-name="braceright.ss01" horiz-adv-x="337" 
d="M200 300v18c-23 9 -36 31 -36 91v215c0 72 -25 104 -94 104h-30v31h30c80 0 128 -35 128 -136v-204c0 -61 5 -95 46 -95h13v-30h-13c-41 0 -46 -34 -46 -95v-204c0 -101 -48 -136 -128 -136h-30v31h30c69 0 94 32 94 104v215c0 60 13 82 36 91z" />
    <glyph glyph-name="asterisk.ss01" horiz-adv-x="452" 
d="M209 714h34l-1 -180l170 60l10 -35l-170 -55l107 -141l-28 -23l-105 147l-105 -147l-28 23l108 142l-171 54l11 35l169 -60z" />
    <glyph glyph-name="plus.ss01" horiz-adv-x="682" 
d="M325 300v238h33v-238h237v-31h-237v-238h-33v238h-238v31h238z" />
    <glyph glyph-name="minus.ss01" horiz-adv-x="682" 
d="M595 269h-508v31h508v-31z" />
    <glyph glyph-name="less.ss01" horiz-adv-x="678" 
d="M591 78v-33l-504 216v44l504 216v-33l-454 -196v-18z" />
    <glyph glyph-name="equal.ss01" horiz-adv-x="680" 
d="M593 203v-31h-506v31h506zM593 395v-31h-506v31h506z" />
    <glyph glyph-name="greater.ss01" horiz-adv-x="678" 
d="M87 45v33l454 196v18l-454 196v33l504 -216v-44z" />
    <glyph glyph-name="hyphen.ss01" horiz-adv-x="371" 
d="M322 262h-273v31h273v-31z" />
    <glyph glyph-name="endash.ss01" horiz-adv-x="617" 
d="M568 262h-520v31h520v-31z" />
    <glyph glyph-name="emdash.ss01" horiz-adv-x="877" 
d="M828 262h-780v31h780v-31z" />
    <glyph glyph-name="emdash.ss01.ss02" horiz-adv-x="1445" 
d="M1396 262h-1348v31h1348v-31z" />
    <glyph glyph-name="underscore.ss01" horiz-adv-x="505" 
d="M506 -117h-507v31h507v-31z" />
    <glyph glyph-name="slash.ss01" horiz-adv-x="365" 
d="M36 -141h-36l302 900h33z" />
    <glyph glyph-name="bar.ss01" horiz-adv-x="214" 
d="M90 -141v900h34v-900h-34z" />
    <glyph glyph-name="backslash.ss01" horiz-adv-x="365" 
d="M365 -141h-36l-299 900h33z" />
    <glyph glyph-name="degree.ss01" horiz-adv-x="461" 
d="M40 523c0 114 83 198 190 198c108 0 191 -84 191 -198c0 -113 -83 -197 -191 -197c-107 0 -190 84 -190 197zM74 523c0 -94 65 -166 156 -166c92 0 157 72 157 166c0 95 -65 167 -157 167c-91 0 -156 -72 -156 -167z" />
    <glyph glyph-name="guillemotleft.ss01" horiz-adv-x="484" 
d="M94 293v-18l166 -174h-42l-160 163v39l159 164h42zM260 293v-18l166 -174h-42l-160 163v39l159 164h42z" />
    <glyph glyph-name="guillemotright.ss01" horiz-adv-x="484" 
d="M390 275v18l-166 174h42l160 -163v-39l-159 -164h-42zM224 275v18l-166 174h42l160 -163v-39l-159 -164h-42z" />
    <glyph glyph-name="guilsinglleft.ss01" horiz-adv-x="318" 
d="M94 293v-18l166 -174h-42l-160 163v39l159 164h42z" />
    <glyph glyph-name="guilsinglright.ss01" horiz-adv-x="318" 
d="M224 275v18l-165 174h42l159 -164v-39l-160 -163h-42z" />
    <glyph glyph-name="quoteleft.ss01" horiz-adv-x="234" 
d="M106 610h33v-102h-64v119l48 87h31l-48 -87v-17z" />
    <glyph glyph-name="quoteright.ss01" horiz-adv-x="234" 
d="M123 612h-33v102h64v-119l-48 -87h-31l48 87v17z" />
    <glyph glyph-name="quotesinglbase.ss01" horiz-adv-x="234" 
d="M123 0h-33v102h64v-119l-48 -87h-31l48 87v17z" />
    <glyph glyph-name="quotedblleft.ss01" horiz-adv-x="371" 
d="M243 610h33v-102h-64v119l48 87h31l-48 -87v-17zM106 610h33v-102h-64v119l48 87h31l-48 -87v-17z" />
    <glyph glyph-name="quotedblright.ss01" horiz-adv-x="371" 
d="M123 612h-33v102h64v-119l-48 -87h-31l48 87v17zM260 612h-33v102h64v-119l-48 -87h-31l48 87v17z" />
    <glyph glyph-name="quotedblbase.ss01" horiz-adv-x="371" 
d="M123 0h-33v102h64v-119l-48 -87h-31l48 87v17zM260 0h-33v102h64v-119l-48 -87h-31l48 87v17z" />
    <glyph glyph-name="arrowleft.ss01" horiz-adv-x="818" 
d="M297 504h46l-214 -216v-20h631v-31h-631v-21l214 -216h-46l-251 252z" />
    <glyph glyph-name="arrowup.ss01" horiz-adv-x="678" 
d="M591 463v-46l-216 216h-19v-633h-34v633h-19l-216 -216v46l252 251z" />
    <glyph glyph-name="arrowright.ss01" horiz-adv-x="818" 
d="M475 504h46l251 -252l-251 -252h-46l214 216v21h-631v31h631v20z" />
    <glyph glyph-name="arrowdown.ss01" horiz-adv-x="678" 
d="M591 297v-46l-252 -251l-252 251v46l216 -216h19v633h34v-633h19z" />
    <glyph glyph-name="uni2196.ss01" horiz-adv-x="690" 
d="M442 714l32 -32h-303l-13 -14l445 -447l-23 -23l-447 446l-13 -14v-304l-33 33v355h355z" />
    <glyph glyph-name="uni2197.ss01" horiz-adv-x="690" 
d="M216 682l32 32h355v-355l-33 -33v304l-13 14l-447 -446l-23 23l445 447l-13 14h-303z" />
    <glyph glyph-name="uni2198.ss01" horiz-adv-x="690" 
d="M474 32l-32 -32h-355v355l33 33v-304l13 -14l447 446l23 -23l-445 -447l13 -14h303z" />
    <glyph glyph-name="uni2199.ss01" horiz-adv-x="690" 
d="M248 0l-32 32h303l13 14l-445 447l23 23l447 -446l13 14v304l33 -33v-355h-355z" />
    <glyph glyph-name="parenleft.ss01.case" horiz-adv-x="238" 
d="M232 807c-107 -136 -148 -288 -148 -450s41 -313 148 -450h-43c-101 137 -139 288 -139 450c0 163 39 314 140 450h42z" />
    <glyph glyph-name="parenright.ss01.case" horiz-adv-x="238" 
d="M6 807h42c101 -136 140 -287 140 -450c0 -162 -38 -313 -139 -450h-43c107 137 148 288 148 450s-41 314 -148 450z" />
    <glyph glyph-name="bracketleft.ss01.case" horiz-adv-x="258" 
d="M198 -93h-118v900h118v-31h-84v-838h84v-31z" />
    <glyph glyph-name="bracketright.ss01.case" horiz-adv-x="258" 
d="M178 -93h-118v31h84v838h-84v31h118v-900z" />
    <glyph glyph-name="braceleft.ss01.case" horiz-adv-x="337" 
d="M137 366v-18c23 -9 36 -31 36 -91v-215c0 -72 25 -104 94 -104h30v-31h-30c-80 0 -128 35 -128 136v204c0 61 -5 95 -46 95h-13v30h13c41 0 46 34 46 95v204c0 101 48 136 128 136h30v-31h-30c-69 0 -94 -32 -94 -104v-215c0 -60 -13 -82 -36 -91z" />
    <glyph glyph-name="braceright.ss01.case" horiz-adv-x="337" 
d="M200 348v18c-23 9 -36 31 -36 91v215c0 72 -25 104 -94 104h-30v31h30c80 0 128 -35 128 -136v-204c0 -61 5 -95 46 -95h13v-30h-13c-41 0 -46 -34 -46 -95v-204c0 -101 -48 -136 -128 -136h-30v31h30c69 0 94 32 94 104v215c0 60 13 82 36 91z" />
    <glyph glyph-name="guillemotleft.ss01.case" horiz-adv-x="484" 
d="M94 359v-18l166 -174h-42l-160 163v39l159 164h42zM260 359v-18l166 -174h-42l-160 163v39l159 164h42z" />
    <glyph glyph-name="guillemotright.ss01.case" horiz-adv-x="484" 
d="M390 341v18l-166 174h42l160 -163v-39l-159 -164h-42zM224 341v18l-166 174h42l160 -163v-39l-159 -164h-42z" />
    <glyph glyph-name="guilsinglleft.ss01.case" horiz-adv-x="318" 
d="M94 359v-18l166 -174h-42l-160 163v39l159 164h42z" />
    <glyph glyph-name="guilsinglright.ss01.case" horiz-adv-x="318" 
d="M224 341v18l-165 174h42l159 -164v-39l-160 -163h-42z" />
    <glyph glyph-name="hyphen.ss01.case" horiz-adv-x="371" 
d="M322 347h-273v31h273v-31z" />
    <glyph glyph-name="endash.ss01.case" horiz-adv-x="617" 
d="M568 347h-520v31h520v-31z" />
    <glyph glyph-name="emdash.ss01.case" horiz-adv-x="877" 
d="M828 347h-780v31h780v-31z" />
    <glyph glyph-name="emdash.ss01.ss02.case" horiz-adv-x="1445" 
d="M1396 347h-1348v31h1348v-31z" />
    <glyph glyph-name="tbar.ss04" horiz-adv-x="378" 
d="M214 0h-85v250h-102v74h102v106h-102v74h102v152h85v-152h136v-74h-136v-106h136v-74h-136v-250z" />
    <glyph glyph-name="at.case" horiz-adv-x="977" 
d="M668 41l25 -52c-76 -48 -162 -74 -264 -74c-234 0 -372 155 -372 381c0 283 196 503 494 503c203 0 370 -126 370 -341c0 -163 -90 -316 -236 -316c-54 0 -81 20 -96 57h-18c-25 -26 -62 -57 -129 -57c-99 0 -161 66 -161 178c0 130 85 250 216 250c54 0 93 -26 106 -49
h18l8 35h71l-42 -254c0 -2 -5 -36 -5 -51c0 -34 12 -52 46 -52c69 0 158 88 158 252c0 171 -113 290 -318 290c-223 0 -418 -178 -418 -432c0 -174 82 -336 315 -336c86 0 162 25 232 68zM456 207c79 0 137 76 137 183c0 95 -50 115 -96 115c-82 0 -136 -94 -136 -182
c0 -66 29 -116 95 -116z" />
    <glyph glyph-name="uni2215" unicode="&#x2215;" horiz-adv-x="500" 
d="M77 0h-77l424 700h76z" />
    </font>
</defs>
</svg>
