<?xml version="1.0" encoding="UTF-8"?>
<svg width="94px" height="102px" viewBox="0 0 94 102" version="1.1" xmlns="http://www.w3.org/2000/svg" xmlns:xlink="http://www.w3.org/1999/xlink">
    <!-- Generator: Sketch 51.3 (57544) - http://www.bohemiancoding.com/sketch -->
    <title>Group 26 Copy 11</title>
    <desc>Created with Sketch.</desc>
    <defs>
        <linearGradient x1="8.05150067%" y1="90.0095889%" x2="94.8419426%" y2="16.8162884%" id="linearGradient-1">
            <stop stop-color="#3E6CD5" offset="0%"></stop>
            <stop stop-color="#578AFF" offset="100%"></stop>
        </linearGradient>
        <path d="M4.2371394,22.7052309 L11.5502486,28.8087119 C13.1607601,30.152836 15.5360543,30.0244684 16.9923284,28.5146066 L29.4352533,15.6138089 C30.2020659,14.8187792 31.4681892,14.7959048 32.2632189,15.5627174 C32.2978916,15.5961595 32.3313448,15.6308434 32.3635129,15.6667012 L43.811116,28.4273389 C45.2103178,29.9870285 47.57601,30.2026354 49.2341141,28.9215858 L57.7310548,22.3568574 C58.6051383,21.6815413 59.8611748,21.8426741 60.5364909,22.7167576 C60.8817097,23.1635856 61.0219652,23.7355208 60.9226315,24.2913662 L53.0043506,68.6000151 L8.85127438,68.6000151 L0.986819242,24.5925612 C0.792503047,23.5052182 1.51644438,22.466228 2.60378747,22.2719118 C3.18551793,22.1679523 3.78344317,22.3265785 4.2371394,22.7052309 Z" id="path-2"></path>
        <filter x="-14.2%" y="-12.1%" width="128.3%" height="131.7%" filterUnits="objectBoundingBox" id="filter-3">
            <feOffset dx="0" dy="2" in="SourceAlpha" result="shadowOffsetOuter1"></feOffset>
            <feGaussianBlur stdDeviation="2.5" in="shadowOffsetOuter1" result="shadowBlurOuter1"></feGaussianBlur>
            <feColorMatrix values="0 0 0 0 0   0 0 0 0 0.116224869   0 0 0 0 0.481584821  0 0 0 0.0923629982 0" type="matrix" in="shadowBlurOuter1"></feColorMatrix>
        </filter>
    </defs>
    <g id="Symbols" stroke="none" stroke-width="1" fill="none" fill-rule="evenodd">
        <g id="графика-/-иконка-/-большая-/-корона">
            <g id="Group-26-Copy-11">
                <circle id="Oval-Copy" fill="url(#linearGradient-1)" cx="47" cy="47" r="47"></circle>
                <g id="Group-25" transform="translate(16.000000, 26.000000)">
                    <g id="Rectangle-23">
                        <use fill="black" fill-opacity="1" filter="url(#filter-3)" xlink:href="#path-2"></use>
                        <use fill="#FFFFFF" fill-rule="evenodd" xlink:href="#path-2"></use>
                    </g>
                    <ellipse id="Oval-6" fill="#FE7F5F" cx="31" cy="45" rx="6" ry="7"></ellipse>
                    <rect id="Rectangle" fill="#EDF3FA" fill-rule="nonzero" x="6" y="67" width="50" height="8" rx="4"></rect>
                    <circle id="Oval" fill="#FFFFFF" fill-rule="nonzero" cx="31" cy="5" r="5"></circle>
                </g>
            </g>
        </g>
    </g>
</svg>