<svg xmlns="http://www.w3.org/2000/svg" width="132" height="37" viewBox="0 0 132 37">
    <g fill="none" fill-rule="evenodd">
        <path fill="#D8D8D8" fill-opacity="0" d="M0-4h135v44H0z"/>
        <text fill="#FFF" font-family="Formular-Bold, Formular" font-size="16" font-weight="bold" transform="translate(0 -4)">
            <tspan x="52" y="28">БКС Банк</tspan>
        </text>
        <g fill="#FFF" fill-rule="nonzero">
            <path d="M27.92 3.933c.149.06 1.41.633 1.111.283a3.955 3.955 0 0 0-1.096-.923C6.882-8.745-9.613 19.857 6.45 32.847c.611.499 1.037.849 1.178.856.194.015 3.774 2.576 1.149-1.563C-1.186 16.477 10.64-4.457 27.92 3.933m7.435 12.44v-.008a17.982 17.982 0 0 0-1.894-6.603C26.652 1.588.469 10.008 9.425 31.135c.276.647.642 1.012.82.893.18-.119 1-.193.91-.826-2.378-16.534 18.368-20.48 24.2-14.83m-21.112 17.1c.142.462.134.648.276.715.067.03 1.954.596 2.006.12.597-5.093 14.512-10.37 15.452-6.001 1.238-1.854 2.528-3.707 3.027-5.993.015-.32.12-.424.12-.424-1.238-3.983-24.393-.008-20.881 11.583" opacity=".4"/>
            <path d="M9.573 2.449c.51-.47 1.006-.918.82-.948-.14-.022-.642.217-1.33.612C-3.8 9.5-.769 32.463 15.983 36.61v.015c.488.045.983.075 1.471.075 1.96 0 3.91-.328 5.76-.977 1.626-.612 2.542-1.082 4.095-2.052.17-.112.34-.231.503-.35C13.203 37.915-3.63 15.138 9.573 2.448m2.181 1.917c.118-.634.192-.895.037-1.044-.155-.15-.503.231-.924.806C2.602 15.594 20.655 33.015 32.402 28.5a18.6 18.6 0 0 0 2.632-6.431v-.007c-6.446 5.013-25.313-6.73-23.28-17.697m21.632 5.469c-1.434 4.29-14.771-3.096-16.79-7.17-.207-.44-.391-.544-.465-.514-.148.044-.252.208-.348.686-1.242 6.028 12.029 16.943 19.57 14.137.007-.171 0-.343-.038-.514a18.535 18.535 0 0 0-1.93-6.625"/>
        </g>
    </g>
</svg>
