<?xml version="1.0" encoding="UTF-8"?>
<svg width="137px" height="37px" viewBox="0 0 137 37" version="1.1" xmlns="http://www.w3.org/2000/svg" xmlns:xlink="http://www.w3.org/1999/xlink">
    <!-- Generator: sketchtool 50.2 (55047) - http://www.bohemiancoding.com/sketch -->
    <title>135A7C11-0AD4-4EFF-936D-1870847A37C5</title>
    <desc>Created with sketchtool.</desc>
    <defs></defs>
    <g id="Symbols" stroke="none" stroke-width="1" fill="none" fill-rule="evenodd">
        <g id="атомы-/-графика-/-логотип_основной_темный" transform="translate(0.000000, -4.000000)">
            <g id="Group-22">
                <rect id="Rectangle-6" fill-opacity="0" fill="#D8D8D8" x="0" y="0" width="134.790323" height="44"></rect>
                <g id="Лого-Copy" transform="translate(0.000000, 4.400000)" fill="#30445A">
                    <g id="Group-12" fill-rule="nonzero">
                        <path d="M27.9198146,3.5329269 C28.0689626,3.59248222 29.3292625,4.16570219 29.0309667,3.81581468 C28.7252134,3.44359392 28.3523436,3.13092848 27.9347294,2.89270719 C6.8824998,-9.14491218 -9.61326071,19.456531 6.44997082,32.4470355 C7.06147731,32.9458113 7.4865489,33.2956989 7.62823943,33.3031433 C7.82213173,33.3180321 11.4016819,35.8789109 8.77667845,31.7398161 C-1.18640294,16.0767665 10.6410275,-4.85692903 27.9198146,3.5329269 M35.3548387,15.9725447 L35.3548387,15.9651003 C35.153489,13.664776 34.5121529,11.424007 33.4606601,9.361904 C26.6520573,1.18793611 0.469139024,9.6075697 9.42547193,30.73482 C9.70139559,31.3824841 10.066808,31.7472605 10.2457855,31.6281498 C10.424763,31.5090392 11.2450766,31.4345951 11.1555879,30.8018198 C8.77667845,14.2677736 29.5231548,10.3222336 35.3548387,15.9725447 M14.2429499,33.0723664 C14.3846404,33.5339201 14.377183,33.7200305 14.5188736,33.7870303 C14.5859901,33.8168079 16.4727114,34.3825835 16.5249132,33.9061409 C17.1215049,28.8141609 31.0370063,23.5360705 31.9766382,27.9059423 C33.214566,26.0522829 34.5046955,24.1986235 35.0043411,21.913188 C35.0192559,21.5930782 35.1236594,21.4888564 35.1236594,21.4888564 C33.8857316,17.5060942 10.7305163,21.4814119 14.2429499,33.0723664" id="Shape" opacity="0.4"></path>
                        <path d="M9.57322535,2.04892832 C10.0833353,1.57891797 10.5786596,1.13128906 10.3938371,1.10144714 C10.253372,1.07906569 9.75065492,1.31780111 9.06311535,1.71320664 C-3.80052808,9.09908357 -0.769439687,32.0624464 15.9828684,36.2104742 L15.9828684,36.2253952 C16.4707997,36.2701581 16.9661239,36.3 17.4540552,36.3 C19.4131733,36.3 21.3648985,35.9717388 23.2131231,35.3226769 C24.8395608,34.7109174 25.7562802,34.240907 27.3087889,33.2710444 C27.4788256,33.1591372 27.6488622,33.0397695 27.811506,32.9204018 C13.2031385,37.5160585 -3.63049142,14.7392078 9.57322535,2.04892832 M11.7541304,3.96627213 C11.8724168,3.33213118 11.9463458,3.07101432 11.7910949,2.92180468 C11.635844,2.77259505 11.2883778,3.15307962 10.8669826,3.72753671 C2.60172204,15.1942971 20.6551802,32.614522 32.402496,28.1009306 C33.6740745,26.1462843 34.5686153,23.9603632 35.0343679,21.6699953 L35.0343679,21.6625348 C28.5877604,26.6759786 9.72108332,14.9331803 11.7541304,3.96627213 M33.3857515,9.43480524 C31.9515292,13.7245822 18.6147402,6.33870532 16.596479,2.26528229 C16.3894778,1.82511387 16.2046553,1.72066712 16.1307263,1.75050905 C15.9828684,1.79527194 15.8793678,1.95940254 15.7832601,2.43687337 C14.5412532,8.46494262 27.811506,19.3796274 35.3522625,16.5744863 C35.3596554,16.4028952 35.3522625,16.2313041 35.315298,16.059713 C35.0935111,13.7469637 34.4355431,11.5013587 33.3857515,9.43480524" id="Shape"></path>
                    </g>
                    <path d="M57.296245,16.4570312 L58.3492944,16.4570312 C59.9950519,16.4570312 61.2667546,16.7893196 62.1644405,17.4539062 C63.0621265,18.1184929 63.5109627,19.0580668 63.5109627,20.2726562 C63.5109627,22.8908985 61.7731609,24.2 58.297505,24.2 L54.6204637,24.2 L54.6204637,11.6359375 L62.5960181,11.6359375 L62.5960181,13.8359375 L57.296245,13.8359375 L57.296245,16.4570312 Z M57.296245,22.0171875 L58.1939264,22.0171875 C59.0973667,22.0171875 59.7591125,21.8725275 60.1791835,21.5832031 C60.5992545,21.2938788 60.8092868,20.8570342 60.8092868,20.2726562 C60.8092868,19.6940075 60.5963773,19.2772148 60.1705519,19.0222656 C59.7447265,18.7673164 59.0139291,18.6398437 57.9781376,18.6398437 L57.296245,18.6398437 L57.296245,22.0171875 Z M76.1907132,24.2 L73.1524068,24.2 L68.577684,17.8320312 L68.577684,24.2 L65.9019027,24.2 L65.9019027,11.6359375 L68.577684,11.6359375 L68.577684,17.7203125 L73.1006174,11.6359375 L75.9490297,11.6359375 L71.3484123,17.66875 L76.1907132,24.2 Z M83.1391129,13.6726562 C82.1320934,13.6726562 81.3523843,14.0493452 80.7999622,14.8027344 C80.2475401,15.5561236 79.9713332,16.6059829 79.9713332,17.9523437 C79.9713332,20.7539203 81.0272492,22.1546875 83.1391129,22.1546875 C84.02529,22.1546875 85.098469,21.9341168 86.358682,21.4929687 L86.358682,23.7273437 C85.3228905,24.1570334 84.166274,24.371875 82.8887979,24.371875 C81.0531452,24.371875 79.6490934,23.8175837 78.6766003,22.7089844 C77.7041072,21.6003851 77.2178679,20.009125 77.2178679,17.9351562 C77.2178679,16.6288997 77.4566718,15.4845101 77.9342868,14.5019531 C78.4119017,13.5193961 79.0981033,12.7660182 79.992912,12.2417969 C80.8877208,11.7175755 81.9364439,11.4554687 83.1391129,11.4554687 C84.3647995,11.4554687 85.596222,11.7505179 86.8334173,12.340625 L85.9702621,14.50625 C85.4984015,14.2828114 85.0236709,14.0880217 84.5460559,13.921875 C84.068441,13.7557283 83.5994647,13.6726562 83.1391129,13.6726562 Z M92.8409778,18.4421875 C92.8409778,16.2364473 93.2624811,14.5621151 94.1055003,13.4191406 C94.9485194,12.2761662 96.264818,11.5528661 98.0544355,11.2492187 C98.9233494,11.1002597 100.220947,10.9111991 101.947266,10.6820312 L102.24937,12.9679687 C101.501298,13.0539067 100.17493,13.2372382 98.2702243,13.5179687 C97.5451703,13.6325527 97.0042651,13.8044259 96.6474924,14.0335937 C96.2907198,14.2627616 96.024583,14.5893208 95.8490738,15.0132812 C95.6735647,15.4372417 95.5656714,16.001559 95.5253906,16.70625 L95.6548639,16.70625 C95.959847,16.236456 96.3626487,15.8755221 96.8632813,15.6234375 C97.3639138,15.3713529 97.9019418,15.2453125 98.4773816,15.2453125 C99.6685417,15.2453125 100.594986,15.6076787 101.256741,16.3324219 C101.918497,17.0571651 102.24937,18.0955662 102.24937,19.4476562 C102.24937,21.0059974 101.830744,22.2162717 100.993479,23.0785156 C100.156214,23.9407595 99.0010364,24.371875 97.5279108,24.371875 C96.0547851,24.371875 94.9053616,23.8462292 94.0796056,22.7949219 C93.2538496,21.7436145 92.8409778,20.2927176 92.8409778,18.4421875 Z M97.6832787,22.2492187 C98.9319829,22.2492187 99.5563256,21.3927169 99.5563256,19.6796875 C99.5563256,18.0124917 98.9924032,17.1789062 97.8645413,17.1789062 C97.5538039,17.1789062 97.2445097,17.2505201 96.9366494,17.39375 C96.6287892,17.5369799 96.346828,17.7246082 96.0907573,17.9566406 C95.8346866,18.188673 95.646233,18.4221342 95.5253906,18.6570312 C95.5253906,19.8200579 95.7124057,20.7095021 96.0864415,21.3253906 C96.4604773,21.9412791 96.9927511,22.2492187 97.6832787,22.2492187 Z M110.552923,24.2 L110.043662,22.89375 L109.974609,22.89375 C109.531521,23.4494819 109.075492,23.8347646 108.606508,24.0496094 C108.137525,24.2644542 107.526129,24.371875 106.772303,24.371875 C105.845846,24.371875 105.116487,24.108336 104.584205,23.58125 C104.051923,23.054164 103.785786,22.3036507 103.785786,21.3296875 C103.785786,20.3098907 104.143992,19.5579451 104.860415,19.0738281 C105.576837,18.5897111 106.657209,18.3218753 108.101563,18.2703125 L109.776084,18.21875 L109.776084,17.7976562 C109.776084,16.823693 109.275459,16.3367187 108.274194,16.3367187 C107.503104,16.3367187 106.5968,16.5687477 105.555255,17.0328125 L104.683468,15.2625 C105.794066,14.6838513 107.025489,14.3945312 108.377772,14.3945312 C109.672512,14.3945312 110.66513,14.6752576 111.355658,15.2367187 C112.046185,15.7981799 112.391444,16.6518172 112.391444,17.7976562 L112.391444,24.2 L110.552923,24.2 Z M109.776084,19.7484375 L108.75756,19.7828125 C107.992226,19.8057293 107.422549,19.9432279 107.048513,20.1953125 C106.674477,20.4473971 106.487462,20.8312474 106.487462,21.346875 C106.487462,22.0859412 106.913281,22.4554687 107.764932,22.4554687 C108.374898,22.4554687 108.862576,22.2807309 109.22798,21.93125 C109.593384,21.5817691 109.776084,21.1177112 109.776084,20.5390625 L109.776084,19.7484375 Z M117.734375,14.5921875 L117.734375,18.2875 L121.411416,18.2875 L121.411416,14.5921875 L124.04404,14.5921875 L124.04404,24.2 L121.411416,24.2 L121.411416,20.2382812 L117.734375,20.2382812 L117.734375,24.2 L115.101752,24.2 L115.101752,14.5921875 L117.734375,14.5921875 Z M133.133065,14.5921875 L136.033266,14.5921875 L132.209488,19.1984375 L136.369897,24.2 L133.38338,24.2 L129.43876,19.3273437 L129.43876,24.2 L126.806137,24.2 L126.806137,14.5921875 L129.43876,14.5921875 L129.43876,19.2585937 L133.133065,14.5921875 Z" id="БКС-банк"></path>
                </g>
            </g>
        </g>
    </g>
</svg>