<svg xmlns="http://www.w3.org/2000/svg" width="132" height="37" viewBox="0 0 132 37">
    <g fill="none" fill-rule="evenodd">
        <path fill="#D8D8D8" fill-opacity="0" d="M0-4h135v44H0z"/>
        <path fill="#FFF" d="M58.72 16.88c2.528 0 3.984 1.344 3.984 3.552S61.248 24 58.72 24h-5.392V12.576h8.368v2.128h-5.984v2.176h3.008zm-.448 5.024c1.456 0 1.984-.512 1.984-1.504 0-.976-.528-1.52-1.984-1.52h-2.56v3.024h2.56zM64.8 24V12.576h2.384v4.464h2.64l2.16-4.464h2.464l-2.624 5.552L74.592 24h-2.464l-2.288-4.8h-2.656V24H64.8zm18.672-3.648h2.48c-.352 2.272-2.096 3.856-4.768 3.856-3.488 0-5.472-2.432-5.472-5.92s2-5.92 5.472-5.92c2.544 0 4.256 1.44 4.656 3.536h-2.496c-.272-.912-1.024-1.408-2.16-1.408-2.048 0-3.024 1.664-3.024 3.792 0 2.112.976 3.792 3.024 3.792 1.232 0 2.064-.64 2.288-1.728zm14.416-3.472c2.528 0 3.984 1.344 3.984 3.552S100.416 24 97.888 24h-5.392V12.576h8.368v2.128H94.88v2.176h3.008zm-.448 5.024c1.456 0 1.984-.512 1.984-1.504 0-.976-.528-1.52-1.984-1.52h-2.56v3.024h2.56zM108.864 24v-.704h-.32c-.48.56-1.232.912-2.304.912-1.904 0-2.992-1.232-2.992-2.736 0-1.296.912-2.736 3.344-2.736h2.192v-.208c0-.848-.48-1.28-1.456-1.28-.896 0-1.328.336-1.392.88h-2.224c.064-1.568 1.488-2.56 3.504-2.56 2.224 0 3.728.88 3.728 3.088V24h-2.08zm-1.92-1.568c1.072 0 1.84-.72 1.84-1.728v-.48h-1.76c-.96 0-1.536.352-1.536 1.072 0 .752.544 1.136 1.456 1.136zM121.104 24h-2.24v-3.28h-3.424V24h-2.24v-8.224h2.24v3.072h3.424v-3.072h2.24V24zm8.064 0l-1.712-3.28h-1.744V24h-2.24v-8.224h2.24v3.072h1.776l1.616-3.072h2.288l-2.064 3.968L131.52 24h-2.352z"/>
        <g fill="#FFF" fill-rule="nonzero">
            <path d="M27.92 3.933c.149.06 1.41.633 1.111.283a3.955 3.955 0 0 0-1.096-.923C6.882-8.745-9.613 19.857 6.45 32.847c.611.499 1.037.849 1.178.856.194.015 3.774 2.576 1.149-1.563C-1.186 16.477 10.64-4.457 27.92 3.933m7.435 12.44v-.008a17.982 17.982 0 0 0-1.894-6.603C26.652 1.588.469 10.008 9.425 31.135c.276.647.642 1.012.82.893.18-.119 1-.193.91-.826-2.378-16.534 18.368-20.48 24.2-14.83m-21.112 17.1c.142.462.134.648.276.715.067.03 1.954.596 2.006.12.597-5.093 14.512-10.37 15.452-6.001 1.238-1.854 2.528-3.707 3.027-5.993.015-.32.12-.424.12-.424-1.238-3.983-24.393-.008-20.881 11.583" opacity=".4"/>
            <path d="M9.573 2.449c.51-.47 1.006-.918.82-.948-.14-.022-.642.217-1.33.612C-3.8 9.5-.769 32.463 15.983 36.61v.015c.488.045.983.075 1.471.075 1.96 0 3.91-.328 5.76-.977 1.626-.612 2.542-1.082 4.095-2.052.17-.112.34-.231.503-.35C13.203 37.915-3.63 15.138 9.573 2.448m2.181 1.917c.118-.634.192-.895.037-1.044-.155-.15-.503.231-.924.806C2.602 15.594 20.655 33.015 32.402 28.5a18.6 18.6 0 0 0 2.632-6.431v-.007c-6.446 5.013-25.313-6.73-23.28-17.697m21.632 5.469c-1.434 4.29-14.771-3.096-16.79-7.17-.207-.44-.391-.544-.465-.514-.148.044-.252.208-.348.686-1.242 6.028 12.029 16.943 19.57 14.137.007-.171 0-.343-.038-.514a18.535 18.535 0 0 0-1.93-6.625"/>
        </g>
    </g>
</svg>
