<?xml version="1.0" encoding="UTF-8"?>
<svg width="94px" height="108px" viewBox="0 0 94 108" version="1.1" xmlns="http://www.w3.org/2000/svg" xmlns:xlink="http://www.w3.org/1999/xlink">
    <!-- Generator: Sketch 51.3 (57544) - http://www.bohemiancoding.com/sketch -->
    <title>Group 2</title>
    <desc>Created with Sketch.</desc>
    <defs>
        <linearGradient x1="8.05150067%" y1="90.0095889%" x2="94.8419426%" y2="16.8162884%" id="linearGradient-1">
            <stop stop-color="#3E6CD5" offset="0%"></stop>
            <stop stop-color="#578AFF" offset="100%"></stop>
        </linearGradient>
        <rect id="path-2" x="5" y="29" width="50" height="43" rx="3"></rect>
        <filter x="-17.0%" y="-15.1%" width="134.0%" height="139.5%" filterUnits="objectBoundingBox" id="filter-3">
            <feOffset dx="0" dy="2" in="SourceAlpha" result="shadowOffsetOuter1"></feOffset>
            <feGaussianBlur stdDeviation="2.5" in="shadowOffsetOuter1" result="shadowBlurOuter1"></feGaussianBlur>
            <feColorMatrix values="0 0 0 0 0   0 0 0 0 0.116224869   0 0 0 0 0.481584821  0 0 0 0.0923629982 0" type="matrix" in="shadowBlurOuter1"></feColorMatrix>
        </filter>
    </defs>
    <g id="Symbols" stroke="none" stroke-width="1" fill="none" fill-rule="evenodd">
        <g id="графика-/-иконка-/-большая-/-подарок">
            <g id="Group-2">
                <g id="Group" fill="url(#linearGradient-1)">
                    <circle id="Oval-Copy" cx="47" cy="47" r="47"></circle>
                </g>
                <g id="Group-25" transform="translate(17.000000, 29.000000)">
                    <g id="Rectangle-23">
                        <use fill="black" fill-opacity="1" filter="url(#filter-3)" xlink:href="#path-2"></use>
                        <use fill="#FFFFFF" fill-rule="evenodd" xlink:href="#path-2"></use>
                    </g>
                    <path d="M8,29 L52,29 C53.6568542,29 55,30.3431458 55,32 L55,36 L5,36 L5,32 C5,30.3431458 6.34314575,29 8,29 Z" id="Rectangle-23" fill="#EDF3FA"></path>
                    <rect id="Rectangle" fill="#FE7F5F" x="27" y="31" width="6" height="41"></rect>
                    <rect id="Rectangle" fill="#FF6640" x="27" y="31" width="6" height="5"></rect>
                    <path d="M49.758861,13 L57,13 C58.6568542,13 60,14.3431458 60,16 L60,28 C60,29.6568542 58.6568542,31 57,31 L3,31 C1.34314575,31 2.02906125e-16,29.6568542 0,28 L0,16 C-2.02906125e-16,14.3431458 1.34314575,13 3,13 L10.2411403,13 C8.67636553,10.432349 8.531526,7.09119449 10.1484655,4.28142622 C12.493319,0.206755998 17.6553506,-1.20751624 21.6780759,1.12259083 C22.1023155,1.36832562 22.4949491,1.64757834 22.8587494,1.95223783 C23.7205645,2.67408875 24.4090991,3.54845733 24.9087024,4.51301333 C24.8645434,4.42757193 24.8189637,4.34274715 24.7717191,4.25875747 C24.7719234,4.25874333 26.4249686,7.17249085 29.7308547,13 L30.2688466,13 L35.2271561,4.25844929 C35.1810363,4.34274715 35.1354566,4.42757193 35.0912976,4.51301333 C35.5909009,3.54845733 36.2794355,2.67408875 37.1412506,1.95223783 C37.5050509,1.64757834 37.8976845,1.36832562 38.3219241,1.12259083 C42.3446494,-1.20751624 47.506681,0.206755998 49.8515345,4.28142622 C51.4684737,7.09119392 51.3236345,10.4323476 49.758861,13 Z M15.1842842,12.4062069 C15.4056265,12.5363018 15.6338193,12.6429862 15.8659327,12.7296824 C16.3370645,12.905609 16.8254053,12.9925726 17.3113347,13 L25,13 C22.485944,8.50308184 21.2288517,6.25462727 21.228723,6.25463631 C21.2533724,6.29910143 21.2771531,6.34400867 21.3001925,6.38924235 C21.03953,5.87859506 20.6802945,5.41569404 20.2306519,5.03353767 C20.040843,4.87224736 19.8359907,4.72440768 19.6146483,4.59431279 C17.5158351,3.3607267 14.8226012,4.10945906 13.5991994,6.26663741 C12.3757975,8.42381576 13.0854709,11.1726208 15.1842842,12.4062069 Z M44.8157158,12.4062069 C46.9145291,11.1726208 47.6242025,8.42381576 46.4008006,6.26663741 C45.1773988,4.10945906 42.4841649,3.3607267 40.3853517,4.59431279 C40.1640093,4.72440768 39.959157,4.87224736 39.7693481,5.03353767 C39.3197055,5.41569404 38.96047,5.87859506 38.6998075,6.38924235 C38.7228469,6.34400867 38.7466276,6.29910143 38.771277,6.25463631 C38.7711483,6.25462727 37.514056,8.50308184 35,13 L42.6886653,13 C43.1745947,12.9925726 43.6629355,12.905609 44.1340673,12.7296824 C44.3661807,12.6429862 44.5943735,12.5363018 44.8157158,12.4062069 Z" id="Combined-Shape" fill="#FFFFFF"></path>
                </g>
            </g>
        </g>
    </g>
</svg>