<svg width="40px" height="41px" viewBox="0 0 40 41" version="1.1" xmlns="http://www.w3.org/2000/svg" xmlns:xlink="http://www.w3.org/1999/xlink">
    <path d="M31.5881115,4.04059088 C31.7568555,4.10870401 33.1827423,4.76429283 32.8452543,4.36412822 C32.4993291,3.9384212 32.0774691,3.58082729 31.6049859,3.3083748 C7.78676985,-10.4589905 -10.8763169,22.2523375 7.29741224,37.1095128 C7.98926266,37.6799602 8.47018306,38.0801248 8.63048987,38.0886389 C8.84985707,38.1056672 12.8997131,41.0345316 9.92981869,36.3006694 C-1.3422807,18.3869177 12.0391187,-5.55484551 31.5881115,4.04059088 M40,18.2677197 L40,18.2592056 C39.7721956,15.6283362 39.0465964,13.0655799 37.8569512,10.7071629 C30.1537874,1.35863661 0.530777728,10.9881296 10.6638551,35.1512604 C10.9760315,35.8919907 11.3894543,36.3091836 11.5919471,36.1729573 C11.7944399,36.0367311 12.7225319,35.9515896 12.6212855,35.2278877 C9.92981869,16.3179816 33.4021095,11.8054871 40,18.2677197 M16.1142864,37.8247006 C16.2745932,38.3525773 16.266156,38.5654308 16.4264628,38.6420581 C16.5023976,38.6761146 18.6370092,39.3231893 18.6960696,38.7782843 C19.3710456,32.9546122 35.1148611,26.9180865 36.1779483,31.915887 C37.5785236,29.795866 39.0381592,27.675845 39.6034516,25.0620039 C39.620326,24.6958958 39.7384468,24.5766979 39.7384468,24.5766979 C38.3378716,20.0216327 12.1403651,24.5681837 16.1142864,37.8247006" id="Shape" fill="#001A34" opacity="0.4"></path>
    <path d="M10.6428344,2.07832763 C11.2236896,1.54422496 11.7877084,1.03555575 11.5772536,1.00164447 C11.417308,0.976211013 10.844871,1.24750126 10.0619792,1.69682573 C-4.58567314,10.0898677 -1.13421482,36.1845981 17.941406,40.8982662 L17.941406,40.9152218 C18.4970066,40.9660887 19.0610254,41 19.6166261,41 C21.8474467,41 24.0698491,40.6269759 26.1743969,39.8894056 C28.0263989,39.1942243 29.0702546,38.6601216 30.8380747,37.558005 C31.0316931,37.4308377 31.2253115,37.2951926 31.4105117,37.1595475 C14.7761662,42.3818847 -4.39205474,16.4990997 10.6428344,2.07832763 M13.1262008,4.25712742 C13.2608918,3.5365127 13.3450737,3.239789 13.1682917,3.07023259 C12.9915097,2.90067619 12.5958547,3.33304502 12.1160179,3.98583717 C2.70448029,17.0162468 23.2617028,36.8119568 36.6382083,31.6828756 C38.0861372,29.4616868 39.1047383,26.9776855 39.6350843,24.3749947 L39.6350843,24.3665168 C32.2944217,30.063612 10.8111982,16.7195231 13.1262008,4.25712742 M37.7578277,10.4713696 C36.1246986,15.3461162 20.938282,6.95307423 18.6401159,2.32418442 C18.4044065,1.82399303 18.1939518,1.70530355 18.1097699,1.73921483 C17.941406,1.79008175 17.8235514,1.97659379 17.7141149,2.51917428 C16.2998588,9.36925297 31.4105117,21.7723039 39.9970665,18.5846435 C40.0054847,18.3896536 39.9970665,18.1946638 39.9549756,17.9996739 C39.7024298,15.3715496 38.9532108,12.8197258 37.7578277,10.4713696" id="Shape" fill="#001934"></path>
</svg>