<svg xmlns="http://www.w3.org/2000/svg" xmlns:xlink="http://www.w3.org/1999/xlink" width="48" height="48" viewBox="0 0 48 48">
    <defs>
        <path id="a" d="M15.569 8.528l-4.953-2.86L1.059.15C.529-.156 0 .03 0 .668v22.479c0 .48.38.689.839.422l9.777-5.646 4.953-2.86 4.763-2.749c.558-.322.505-.764.033-1.019-.472-.254-4.796-2.767-4.796-2.767z"/>
        <path id="c" d="M15.569 8.528l-4.953-2.86L1.059.15C.529-.156 0 .03 0 .668v22.479c0 .48.38.689.839.422l9.777-5.646 4.953-2.86 4.763-2.749c.558-.322.505-.764.033-1.019-.472-.254-4.796-2.767-4.796-2.767z"/>
        <path id="e" d="M15.569 8.528l-4.953-2.86L1.059.15C.529-.156 0 .03 0 .668v22.479c0 .48.38.689.839.422l9.777-5.646 4.953-2.86 4.763-2.749c.558-.322.505-.764.033-1.019-.472-.254-4.796-2.767-4.796-2.767z"/>
        <path id="g" d="M15.569 8.528l-4.953-2.86L1.059.15C.529-.156 0 .03 0 .668v22.479c0 .48.38.689.839.422l9.777-5.646 4.953-2.86 4.763-2.749c.558-.322.505-.764.033-1.019-.472-.254-4.796-2.767-4.796-2.767z"/>
    </defs>
    <g fill="none" fill-rule="evenodd">
        <g transform="translate(16 12)">
            <mask id="b" fill="#fff">
                <use xlink:href="#a"/>
            </mask>
            <path fill="#D8D8D8" fill-rule="nonzero" d="M0-.373v24.337l12.273-12.168z" mask="url(#b)"/>
        </g>
        <g transform="translate(16 12)">
            <mask id="d" fill="#fff">
                <use xlink:href="#c"/>
            </mask>
            <path fill="#D8D8D8" fill-rule="nonzero" d="M16.31 7.787l-4.954-2.86L.74-1.203v.09l12.274 12.168z" mask="url(#d)"/>
        </g>
        <g transform="translate(16 12)">
            <mask id="f" fill="#fff">
                <use xlink:href="#e"/>
            </mask>
            <path fill="#D8D8D8" fill-rule="nonzero" d="M.74 24.704v.09l10.616-6.13 4.953-2.859-3.295-3.269z" mask="url(#f)"/>
        </g>
        <g transform="translate(16 12)">
            <mask id="h" fill="#fff">
                <use xlink:href="#g"/>
            </mask>
            <path fill="#D8D8D8" fill-rule="nonzero" d="M17.05 8.528l-3.296 3.268 3.296 3.269 5.662-3.27z" mask="url(#h)"/>
        </g>
    </g>
</svg>
