<svg xmlns="http://www.w3.org/2000/svg" xmlns:xlink="http://www.w3.org/1999/xlink" style="isolation:isolate" viewBox="0 0 231 231" width="231px" height="231px"><path d=" M 50 164.5 L 231 164.5 L 231 197.5 L 50 197.5 L 50 164.5 L 50 164.5 L 50 164.5 L 50 164.5 L 50 164.5 Z  M 50 99.5 L 231 99.5 L 231 132.5 L 50 132.5 L 50 99.5 L 50 99.5 L 50 99.5 L 50 99.5 L 50 99.5 Z  M 50 32.5 L 231 32.5 L 231 65.5 L 50 65.5 L 50 32.5 L 50 32.5 L 50 32.5 L 50 32.5 Z  M 0 165.5 L 33 165.5 L 33 198.5 L 0 198.5 L 0 165.5 L 0 165.5 L 0 165.5 Z  M 0 99.5 L 33 99.5 L 33 132.5 L 0 132.5 L 0 99.5 L 0 99.5 Z  M 0 32.5 L 33 32.5 L 33 65.5 L 0 65.5 L 0 32.5 Z " fill-rule="evenodd" fill="rgb(0,0,0)"/></svg>
