<?xml version="1.0" encoding="UTF-8"?>
<svg width="44px" height="44px" viewBox="0 0 44 44" version="1.1" xmlns="http://www.w3.org/2000/svg" xmlns:xlink="http://www.w3.org/1999/xlink">
    <!-- Generator: sketchtool 50.2 (55047) - http://www.bohemiancoding.com/sketch -->
    <title>9D4A1482-0854-4606-869F-6BC1CBB243C3</title>
    <desc>Created with sketchtool.</desc>
    <defs></defs>
    <g id="Symbols" stroke="none" stroke-width="1" fill="none" fill-rule="evenodd">
        <g id="атомы-/-графика-/-эмблема-бпремьер-темная" transform="translate(-6.000000, -6.000000)">
            <g id="Group-6">
                <rect id="Rectangle-2" fill-opacity="0" fill="#D8D8D8" x="0" y="0" width="56" height="56"></rect>
                <g id="152x152" transform="translate(4.000000, 4.000000)" fill-rule="nonzero">
                    <g id="Group" transform="translate(3.918367, 0.000000)">
                        <g id="Group-2" transform="translate(26.849887, 11.426538) rotate(1.000000) translate(-26.849887, -11.426538) translate(20.482540, 3.426538)">
                            <polygon id="Fill-29" fill="#001934" points="0.0263187931 8.11434349 1.95388853 15.7624208 8.8763661 11.7216203 12.3740116 2.94594072"></polygon>
                            <path d="M12.3748142,2.94674345 L0.0268691042,8.11448848 L2.74327355,1.51388245 C3.24190644,0.309797576 4.62343056,-0.263146142 5.82937971,0.235545675 L12.3748142,2.94674345 Z" id="Fill-31" fill="#30445A"></path>
                        </g>
                        <g id="Group-2" transform="translate(33.832486, 19.627575) rotate(46.000000) translate(-33.832486, -19.627575) translate(27.465140, 11.627575)">
                            <polygon id="Fill-29" fill="#30445A" points="0.028291313 8.11557261 1.95586105 15.7636499 8.87833862 11.7228494 12.3759841 2.94716984"></polygon>
                            <path d="M12.3767867,2.94797257 L0.0288416242,8.1157176 L2.74524607,1.51511157 C3.24387896,0.311026699 4.62540308,-0.26191702 5.83135223,0.236774798 L12.3767867,2.94797257 Z" id="Fill-31" fill="#001934"></path>
                        </g>
                        <g id="Group-2" transform="translate(16.143938, 10.469182) rotate(-45.000000) translate(-16.143938, -10.469182) translate(9.776591, 2.469182)">
                            <polygon id="Fill-29" fill="#001934" points="0.0306456189 8.05702033 1.95193733 15.7611567 8.78503958 11.8110949 12.3720604 2.94467664"></polygon>
                            <path d="M12.372863,2.94547937 L0.0304449614,8.05882648 L2.74132234,1.51261837 C3.23995524,0.308533498 4.62147935,-0.264410221 5.8274285,0.234281597 L12.372863,2.94547937 Z" id="Fill-31" fill="#30445A"></path>
                        </g>
                        <g id="Group-2" transform="translate(7.943609, 17.468326) rotate(-90.000000) translate(-7.943609, -17.468326) translate(1.576262, 9.468326)">
                            <polygon id="Fill-29" fill="#001934" points="0.032596825 8.05828441 1.95388853 15.7624208 8.78699079 11.812359 12.3740116 2.94594072"></polygon>
                            <path d="M12.3748142,2.94674345 L0.0323961676,8.06009056 L2.74327355,1.51388245 C3.24190644,0.309797576 4.62343056,-0.263146142 5.82937971,0.235545675 L12.3748142,2.94674345 Z" id="Fill-31" fill="#30445A"></path>
                        </g>
                    </g>
                    <g id="Group" transform="translate(22.040816, 33.000000) scale(-1, 1) rotate(-180.000000) translate(-22.040816, -33.000000) translate(0.000000, 18.000000)">
                        <g id="Group-2" transform="translate(27.843629, 10.481564) scale(-1, 1) rotate(-45.000000) translate(-27.843629, -10.481564) translate(21.476282, 2.481564)">
                            <polygon id="Fill-29" fill="#30445A" points="0.0953553589 8.07973215 2.00197325 15.7278094 8.97639125 11.5609441 12.3088341 2.91132935"></polygon>
                            <path d="M12.309628,2.91213208 L0.0957833374,8.0798792 L2.782778,1.47927108 C3.27599097,0.275186206 4.64249852,-0.297757512 5.83533952,0.200934306 L12.309628,2.91213208 Z" id="Fill-31" fill="#001934"></path>
                        </g>
                        <g id="Group-2" transform="translate(36.043155, 17.259540) scale(-1, 1) rotate(-91.000000) translate(-36.043155, -17.259540) translate(29.675808, 9.259540)">
                            <polygon id="Fill-29" fill="#30445A" points="0.0240919384 8.11185991 1.93070983 15.7599372 8.77794308 11.7191367 12.2375707 2.94345714"></polygon>
                            <path d="M12.2383646,2.94425987 L0.0246362679,8.1120049 L2.71151458,1.51139887 C3.20472755,0.307313998 4.5712351,-0.265629721 5.76407611,0.233062097 L12.2383646,2.94425987 Z" id="Fill-31" fill="#001934"></path>
                        </g>
                        <g id="Group-2" transform="translate(17.249803, 10.891672) scale(-1, 1) rotate(-2.000000) translate(-17.249803, -10.891672) translate(10.882456, 2.891672)">
                            <polygon id="Fill-29" fill="#30445A" points="0.045689303 8.04935683 1.9460974 15.7534932 8.79333064 11.8941701 12.2529583 2.93701312"></polygon>
                            <path d="M12.2537521,2.93781585 L0.0454908267,8.05116293 L2.72690215,1.50495485 C3.22011512,0.300869976 4.58662267,-0.272073743 5.77946366,0.226618075 L12.2537521,2.93781585 Z" id="Fill-31" fill="#001934"></path>
                        </g>
                        <g id="Group-2" transform="translate(10.255436, 19.366622) scale(-1, 1) rotate(45.000000) translate(-10.255436, -19.366622) translate(3.888089, 11.366622)">
                            <polygon id="Fill-29" fill="#001934" points="0.0317667657 8.04710026 1.93217487 15.7512366 8.69754742 11.9293229 12.2390357 2.93475656"></polygon>
                            <path d="M12.2398296,2.93555928 L0.0315682893,8.04890636 L2.71297961,1.50269828 C3.20619258,0.29861341 4.57270013,-0.274330308 5.76554114,0.224361509 L12.2398296,2.93555928 Z" id="Fill-31" fill="#30445A"></path>
                        </g>
                    </g>
                </g>
            </g>
        </g>
    </g>
</svg>