<?xml version="1.0" encoding="UTF-8"?>
<svg width="14px" height="10px" viewBox="0 0 14 10" version="1.1" xmlns="http://www.w3.org/2000/svg" xmlns:xlink="http://www.w3.org/1999/xlink">
    <!-- Generator: sketchtool 51 (57462) - http://www.bohemiancoding.com/sketch -->
    <title>7A46AECF-B61F-422C-B669-4F1A27F21CB2</title>
    <desc>Created with sketchtool.</desc>
    <defs></defs>
    <g id="Page-1" stroke="none" stroke-width="1" fill="none" fill-rule="evenodd">
        <g id="1440_sample_page" transform="translate(-331.000000, -1119.000000)">
            <rect fill="transparent" x="0" y="0" width="1440" height="7555"></rect>
            <g id="1" transform="translate(223.000000, 700.000000)">
                <g id="Group-8" transform="translate(103.000000, 412.000000)">
                    <g id="Group-42">
                        <rect id="Rectangle-9" fill-opacity="0" fill="#D8D8D8" x="0" y="0" width="24" height="24"></rect>
                        <g id="Group-26" transform="translate(5.000000, 7.000000)" fill="#FFFFFF">
                            <path d="M14,7.3877551 C14,8.17687469 13.7142886,8.80952143 13.1428571,9.28571429 C12.5714257,9.76190714 11.8608101,10 11.010989,10 C9.92673451,10 9.07692615,9.68027531 8.46153846,9.04081633 C7.84615077,8.40135735 7.53846154,7.55102571 7.53846154,6.48979592 C7.53846154,5.4013551 7.72160989,4.47619429 8.08791209,3.71428571 C8.45421429,2.95237714 8.89377033,2.31973041 9.40659341,1.81632653 C9.91941648,1.31292265 10.4542097,0.918368776 11.010989,0.632653061 C11.5677684,0.346937347 12.05128,0.136055102 12.4615385,0 L13.8681319,2.20408163 C13.2820484,2.4217698 12.7838848,2.7687051 12.3736264,3.24489796 C11.9633679,3.72109082 11.728938,4.2312898 11.6703297,4.7755102 C12.2564132,4.7755102 12.7912064,5.01360306 13.2747253,5.48979592 C13.7582442,5.96598878 14,6.59863551 14,7.3877551 Z M6.46153846,7.3877551 C6.46153846,8.17687469 6.17582703,8.80952143 5.6043956,9.28571429 C5.03296418,9.76190714 4.32234857,10 3.47252747,10 C2.38827297,10 1.53846462,9.68027531 0.923076923,9.04081633 C0.307689231,8.40135735 0,7.55102571 0,6.48979592 C0,5.4013551 0.183148352,4.47619429 0.549450549,3.71428571 C0.915752747,2.95237714 1.35530879,2.31973041 1.86813187,1.81632653 C2.38095495,1.31292265 2.91574813,0.918368776 3.47252747,0.632653061 C4.02930681,0.346937347 4.51281846,0.136055102 4.92307692,0 L6.32967033,2.20408163 C5.74358681,2.4217698 5.2454233,2.7687051 4.83516484,3.24489796 C4.42490637,3.72109082 4.19047648,4.2312898 4.13186813,4.7755102 C4.71795165,4.7755102 5.25274484,5.01360306 5.73626374,5.48979592 C6.21978264,5.96598878 6.46153846,6.59863551 6.46153846,7.3877551 Z" id="“" transform="translate(7.000000, 5.000000) scale(-1, -1) translate(-7.000000, -5.000000) "></path>
                        </g>
                    </g>
                </g>
            </g>
        </g>
    </g>
</svg>
