<?xml version="1.0" encoding="UTF-8"?>
<svg width="50px" height="34px" viewBox="0 0 50 34" version="1.1" xmlns="http://www.w3.org/2000/svg" xmlns:xlink="http://www.w3.org/1999/xlink">
    <!-- Generator: sketchtool 50.2 (55047) - http://www.bohemiancoding.com/sketch -->
    <title>63A40D72-859D-42CE-AE75-9FA5972F8DE3</title>
    <desc>Created with sketchtool.</desc>
    <defs>
        <polygon id="path-1" points="0 34 0 0 50 0 50 34"></polygon>
    </defs>
    <g id="Symbols" stroke="none" stroke-width="1" fill="none" fill-rule="evenodd">
        <g id="атомы-/-графика-/-эмблема-ультима-темная" transform="translate(-4.000000, -11.000000)">
            <g id="Group-6">
                <rect id="Rectangle-2" fill-opacity="0" fill="#D8D8D8" x="0" y="0" width="56" height="56"></rect>
                <g id="Ultima_logo" transform="translate(4.000000, 11.000000)">
                    <mask id="mask-2" fill="white">
                        <use xlink:href="#path-1"></use>
                    </mask>
                    <g id="path-1"></g>
                    <path d="M0.899025961,5.85885939 C0.606954224,6.3873394 0.414591358,7.06647099 0.394132227,7.68922819 C0.370851147,8.37987456 0.816248783,8.53508409 0.818365246,9.02086344 C0.82071687,9.54934347 0.309708916,10.1109284 0,10.5691204 C0.31394184,10.7701491 0.619417832,10.9481483 0.616125558,11.2698422 C0.615184909,11.3600412 0.589552204,11.4615151 0.533818709,11.5776224 C0.845173762,11.8393436 0.709249879,11.9302622 0.709249879,12.159838 C0.709249879,12.2900988 0.968869195,12.355829 1.0483541,12.8915058 C1.09679756,13.2182374 1.2073239,13.3029189 1.47235196,13.3117949 C2.3645582,13.342501 3.06698837,12.822657 4.08406586,12.8219374 C6.89637333,12.820498 8.9295877,14.4109757 9.71808729,17.1030332 C10.0983449,18.3984449 10.1510214,22.1776887 11.2259488,23.5649788 C12.635042,23.8123064 13.9869908,23.3761845 15.381504,23.4128878 C15.8814594,23.4258419 16.3924673,23.5136421 16.704763,23.8713196 C22.475649,30.4803183 26.0023799,34 36.6681717,34 C29.3353369,32.6402974 23.0092325,29.5313093 19.251572,21.8029789 C18.526096,20.3182931 17.1454574,19.4215803 15.7257818,18.735252 C14.0013357,17.8915551 11.6666432,17.2572832 10.5148176,15.5722884 C10.1347951,15.0135821 9.89610523,14.3075827 9.89869208,13.6224538 C9.90221951,13.0313622 10.0882329,12.459462 10.4205174,11.968165 C9.88011422,11.4180949 9.39121156,10.7958174 8.95686651,10.0931765 C8.36966594,9.14440737 7.66229735,8.42905222 6.57655243,8.15389717 C5.78570119,7.95070945 4.94523067,8.01763905 4.16402109,7.79022232 C3.13071739,7.48100275 1.75337106,6.82010287 0.899025961,5.85885939 M4.34368518,7.15283178 C5.11713441,7.37880915 5.9496094,7.30996042 6.73246512,7.50859022 C7.98329407,7.82644588 8.82282395,8.64039624 9.49797522,9.73669843 C9.89939756,10.382725 10.3494984,10.9563046 10.8445153,11.4641539 C11.3639891,10.9301564 12.112276,10.6317319 12.8480991,10.6497238 C13.2869123,10.6600391 13.6438889,10.8620273 14.136319,10.7430414 C13.6709325,10.0687076 13.3179537,9.37110439 12.9456916,8.66078698 C11.1342354,5.21355244 8.6208194,2.10000635 4.46855643,2.06066422 C3.22854496,2.05130846 0.739585833,2.34613458 0.750873629,4.13476234 C0.767805323,5.72787887 3.14035905,6.82969852 4.34368518,7.15283178 M26.6836454,18.8911812 C26.2337797,17.7255505 25.7869711,16.555122 25.3434547,15.3820547 C23.3121217,15.6404174 21.1194673,15.7553252 18.982076,15.5569353 C21.1194673,17.398579 23.6653357,18.6517699 26.6836454,18.8911812 M10.897662,12.4201198 C10.6815478,12.7758783 10.5369229,13.2031242 10.5404503,13.6277314 C10.5432723,14.1744431 10.7382219,14.7463434 11.0425221,15.1906217 C12.0988717,16.7415174 14.414281,17.3628352 16.0018625,18.1336052 C17.5760398,18.8995774 19.0222887,19.8557832 19.8284255,21.5069533 C23.5987847,29.5068404 32.0018437,33.3201487 40.0011289,33.7044542 C33.3352147,31.6334747 29.5429853,26.1946645 26.9489087,19.5707925 C23.3074185,19.3668852 20.3147414,17.7692107 17.8591753,15.423316 C15.278738,15.0421291 12.826229,14.1449366 10.897662,12.4201198 M14.5210447,11.3439685 C13.791806,11.5915361 13.3257141,11.2847154 12.6954787,11.3113433 C12.186117,11.3334133 11.7157921,11.5615497 11.3169566,11.9144295 C12.9261731,13.3556949 14.9259944,14.1857181 17.0612692,14.6175219 C16.132848,13.6190954 15.2881445,12.5129577 14.5210447,11.3439685 M33.896077,13.5044274 C34.7995711,14.5628267 35.8093585,15.6363393 37.1123936,16.1710564 C40.7783406,14.1259852 44.2194724,11.2664837 47.1079725,8.18124476 C43.2447241,10.6348506 38.4314196,12.2841016 33.896077,13.5044274 M48.7465843,6.43339848 C46.4452848,7.34762332 43.9071767,7.7935808 41.4725401,8.12774905 C37.7659099,8.63679784 33.9861443,8.84958128 30.2494133,8.77521502 C31.3408021,10.1425941 32.3374205,11.5881776 33.4368048,12.9495593 C37.7637935,11.5761831 44.4017233,9.74437489 48.7465843,6.43339848 M50,5.07033748 C48.2193502,5.63408147 46.2000104,5.64607602 44.353515,5.63120277 C39.784309,5.59401966 36.300848,4.32523584 33.0610153,3.00127707 C29.471496,1.53482301 26.1813385,0 22.045772,0 C19.0625015,0 14.9121198,1.74952551 14.9259944,5.40378605 C14.9259944,6.25731844 15.0398131,7.10077542 15.4635757,7.83532184 C15.7507091,8.3330958 16.0333743,8.8359075 16.0260842,9.46322259 C16.0183239,10.131799 15.6961514,10.7552758 15.1329374,11.0908834 C16.0274952,12.4433892 17.0295223,13.7028173 18.1514823,14.7983998 C20.4720651,15.1162554 22.8935326,15.0143018 25.100532,14.7444243 C24.8571388,14.1154299 24.5954031,13.4953116 24.2421891,12.9207724 C23.6900278,13.2551806 23.0405091,13.4319803 22.4011024,13.4499722 C19.7693998,13.5236187 17.7495897,11.4087391 17.6943265,8.70108872 C17.6395336,5.99367816 19.9993886,3.89798985 22.5480789,3.89798985 C25.5080684,3.89798985 27.8453478,5.90875673 29.69443,8.10160092 C33.5816649,8.20787266 37.5201652,8.00084668 41.376829,7.47356613 C43.7416224,7.15115254 48.2205259,6.71503059 50,5.07033748 M22.1539468,12.7785171 C20.2749989,12.7593258 18.392994,11.3300548 18.3398473,8.83278885 C18.2874062,6.38230168 20.2051557,4.54065801 22.6809457,4.54761485 C25.8584605,4.55673071 28.5480131,7.5277815 30.5546541,10.2503052 C32.3174317,12.6410595 34.0193022,15.3758176 36.5552938,16.6282888 L35.9424605,17.0169123 C33.2623143,15.6291426 31.8447552,13.0018557 30.0450571,10.6466052 C28.0668708,8.05770086 25.687027,5.03675272 22.6950555,5.115437 C20.8379778,5.16413488 18.9557377,6.41588644 18.9381006,8.78601012 C18.9251666,10.5662417 20.2681792,12.1252937 22.1174966,12.2099753 C22.5372615,12.2289267 22.9215169,12.1044232 23.2700276,11.8854026 C22.3171495,11.7882467 21.5709791,10.9966062 21.5709791,9.95739821 C21.5709791,8.9181901 22.2999826,8.00708385 23.4583927,8.01763905 C24.939916,8.03107295 25.3467471,9.34231747 25.3467471,9.95739821 C25.3467471,11.772414 23.8372394,12.7957893 22.1539468,12.7785171" id="Fill-1" fill="#001934" fill-rule="nonzero" mask="url(#mask-2)"></path>
                </g>
            </g>
        </g>
    </g>
</svg>