<svg xmlns="http://www.w3.org/2000/svg" viewBox="0 0 24 24">
  <defs>
    <style>.cls-1{fill:currentColor;}</style>
  </defs>
  <title>Asset 1</title>
  <g id="Layer_2" data-name="Layer 2">
    <g id="Layer_1-2" data-name="Layer 1">
      <path class="cls-1" d="M12,0A12,12,0,1,0,24,12,12,12,0,0,0,12,0Zm0,23A11,11,0,1,1,23,12,11,11,0,0,1,12,23Z"/>
      <path class="cls-1"
            d="M12.88,6.35A.37.37,0,0,0,12.5,6H10.87a.37.37,0,0,0-.38.35V6.8h2.39Zm-2.39,11.3a.37.37,0,0,0,.38.35H12.5a.37.37,0,0,0,.38-.35V13.43H10.49Zm6-10,2.45,2.26a.33.33,0,0,1,0,.5l-2.45,2.26a.4.4,0,0,1-.27.1H6.38A.37.37,0,0,1,6,12.38V7.86a.37.37,0,0,1,.38-.35h9.79A.4.4,0,0,1,16.44,7.61Z"/>
    </g>
  </g>
</svg>
