<svg width="52px" height="27px" viewBox="0 0 52 27" version="1.1" xmlns="http://www.w3.org/2000/svg"
     xmlns:xlink="http://www.w3.org/1999/xlink">
    <g stroke="none" stroke-width="1" fill-rule="evenodd">
        <path d="M48.3168567,27 L48.0600038,27 C46.6354787,26.9485615 45.4814815,26.0168933 45.4814815,24.3770314 C45.4814815,22.3518627 47.037037,20.3266939 49.3333333,20.3266939 C51.1481481,20.3266939 52,21.4892908 52,23.0269189 C52,25.0486186 50.4700484,26.9262062 48.3168567,27 Z M18.8518519,21.9393283 L19.7037037,22.764397 C18.1111111,25.0895908 15.3703704,26.9647471 12.9259259,26.9647471 C11.1111111,26.9647471 10.8148148,25.7646471 10.8148148,24.6395533 C10.8148148,22.7268939 12.4444444,18.8265689 12.4444444,18.8265689 L12.3333333,18.7890658 C10.1111111,24.4520377 6.81481481,26.9647471 4,26.9647471 C1.18518519,26.9647471 0,24.4520377 0,21.6768064 C0,19.464122 0.888888889,15.7138095 3.77777778,12.3760313 C6.55555556,9.18826569 9.7037037,8.21318443 12.962963,8.21318443 C15.8518519,8.21318443 18.2222222,8.96324694 18.5555556,9.22576881 L15.8148148,22.0518377 C15.6296296,22.8769064 15.8888889,23.3269439 16.4074074,23.3269439 C17.6666667,23.3269439 18.8518519,21.9393283 18.8518519,21.9393283 Z M44.3703704,22.6518877 C43.8518519,23.664472 41.3333333,26.9647471 37,26.9647471 C32.8518519,26.9647471 30.7777778,23.964497 30.7777778,20.064172 C30.7777778,16.7263939 32.3703704,13.0510876 34.8518519,10.8759063 C37.2222222,8.77573131 39.3703704,8.21318443 41.5555556,8.21318443 C44.8518519,8.21318443 46.1851852,10.0508376 46.1851852,11.8884907 C46.1851852,13.3511126 45.1851852,15.1512626 43.1851852,15.1512626 C42.0740741,15.1512626 41.1851852,14.5512126 40.7777778,13.3511126 C41.2962963,12.9010751 41.4814815,12.1885157 41.4814815,11.5509626 C41.4814815,10.9884157 41.037037,10.2758563 40.1481481,10.2758563 C37.8148148,10.2758563 35.4444444,13.2011001 35.4444444,18.1515126 C35.4444444,20.8142345 36.8148148,23.1019252 39.4814815,23.1019252 C40.8518519,23.1019252 42.2962963,22.8394033 43.6666667,21.7518127 L44.3703704,22.6518877 Z M24.3333333,2.85023752 C24.4814815,1.23760313 25.8148148,0 27.4074074,0 C28.962963,0 30.1481481,1.46262189 30,3.07525627 C29.8518519,4.65038753 28.5925926,5.88799067 26.9259259,5.88799067 C25.3703704,5.88799067 24.1851852,4.53787816 24.3333333,2.85023752 Z M21.5925926,11.1384282 L21.4444444,10.9134095 C22.7407407,9.00075006 24.3333333,8.21318443 26,8.21318443 C28.1481481,8.21318443 28.3703704,9.93832819 28.3703704,10.6133844 C28.3703704,11.3259438 28.1481481,12.0760063 27.8888889,13.2386032 L25.8518519,22.0893408 C25.6296296,22.9894158 25.9259259,23.2519377 26.4074074,23.2519377 C27.5555556,23.2519377 28.8518519,21.9393283 28.8518519,21.9393283 L29.7037037,22.764397 C28.1111111,25.0895908 25.8518519,26.9647471 23.2592593,26.9647471 C21.6666667,26.9647471 20.8518519,25.8021502 20.8518519,24.564547 C20.8518519,24.0770064 20.8888889,23.5144595 21.037037,22.8394033 L23.1111111,13.0510876 C23.3703704,11.8884907 23.3703704,11.2509376 22.962963,11.0259188 C22.5555556,10.8009001 22.1111111,10.9509126 21.5925926,11.1384282 Z M12.7037037,13.9136595 L13.4074074,10.6883907 C13.0740741,10.2758563 12.5185185,10.0883407 11.6296296,10.0883407 C8.18518519,10.0883407 4.74074074,15.9013251 4.74074074,19.8016501 C4.74074074,21.5267939 5.22222222,22.764397 6.92592593,22.764397 C8.74074074,22.764397 10.1851852,20.7017251 11.037037,19.0140845 C11.8888889,17.2889407 12.1851852,16.3138595 12.7037037,13.9136595 Z"></path>
    </g>
</svg>