<?xml version="1.0" encoding="UTF-8"?>
<svg width="24px" height="24px" viewBox="0 0 24 24" version="1.1" xmlns="http://www.w3.org/2000/svg" xmlns:xlink="http://www.w3.org/1999/xlink">
    <!-- Generator: sketchtool 50.2 (55047) - http://www.bohemiancoding.com/sketch -->
    <title>D70A70F1-D067-40B6-9797-01CCE51528B5</title>
    <desc>Created with sketchtool.</desc>
    <defs></defs>
    <g id="Symbols" stroke="none" stroke-width="1" fill="none" fill-rule="evenodd">
        <g id="графика-/-кнопки-/-андроид-синий">
            <g id="Group-25">

                <g id="if_36-android_104471" transform="translate(4.000000, 2.000000)" fill="#4573D9" fill-rule="nonzero">
                    <path d="M10.4585513,1.8111819 L10.660084,1.45750747 L10.8579324,1.10858324 L11.3033675,0.325662907 C11.3578955,0.229363274 11.3357896,0.0998121991 11.2543659,0.0354684984 C11.1714686,-0.0288752023 11.0609388,-0.00296498721 11.0060423,0.0937664823 L10.528922,0.933257449 L10.3281262,1.28606821 L10.1243829,1.64362918 C9.47888881,1.35041191 8.75933977,1.18588205 7.99926313,1.18588205 C7.23992337,1.18588205 6.52037433,1.35041191 5.87488026,1.64362918 L5.67224228,1.28606821 L5.47144647,0.933257449 L4.99358927,0.0933346453 C4.93906123,-0.00296498721 4.82816299,-0.0288752023 4.74563407,0.0350366615 C4.66384202,0.0989485253 4.64173605,0.228931437 4.69626409,0.32523107 L5.14133078,1.1081514 L5.339916,1.45707563 L5.54144868,1.81075007 C4.02534817,2.6381496 3,4.20571761 3,6 L13,6 C13,4.20614945 11.9746518,2.63858144 10.4585513,1.8111819 Z M5.85719549,4.32576827 C5.56060718,4.32576827 5.32112593,4.04464244 5.32112593,3.69787739 C5.32112593,3.35111235 5.56060718,3.07041835 5.85719549,3.07041835 C6.15304694,3.07041835 6.39252819,3.35111235 6.39252819,3.69787739 C6.39252819,4.04464244 6.15304694,4.32576827 5.85719549,4.32576827 Z M10.1424361,4.32576827 C9.84658463,4.32576827 9.60710338,4.04464244 9.60710338,3.69787739 C9.60710338,3.35111235 9.84658463,3.07041835 10.1424361,3.07041835 C10.4390244,3.07041835 10.6785056,3.35111235 10.6785056,3.69787739 C10.6785056,4.04464244 10.4390244,4.32576827 10.1424361,4.32576827 Z" id="Shape"></path>
                    <path d="M3.07700243,7 L3,7 L3,7.91770064 L3,8.66651096 L3,15.0942107 C3,15.736753 3.50696338,16.2593641 4.13071992,16.2593641 L4.94716675,16.2593641 C4.91990273,16.3565235 4.90442856,16.4593758 4.90442856,16.5656439 L4.90442856,16.6271276 L4.90442856,16.994891 L4.90442856,18.8963302 C4.90442856,19.505474 5.38449635,20 5.97619925,20 C6.56790214,20 7.0476015,19.505474 7.0476015,18.8963302 L7.0476015,16.994891 L7.0476015,16.6271276 L7.0476015,16.5656439 C7.0476015,16.4597553 7.0317589,16.3565235 7.00523174,16.2593641 L8.99476826,16.2593641 C8.96750424,16.3565235 8.9523985,16.4593758 8.9523985,16.5656439 L8.9523985,16.6271276 L8.9523985,16.994891 L8.9523985,18.8963302 C8.9523985,19.505474 9.43246629,20 10.0238008,20 C10.6151352,20 11.095203,19.505474 11.095203,18.8963302 L11.095203,16.994891 L11.095203,16.6271276 L11.095203,16.5656439 C11.095203,16.4597553 11.0800973,16.3565235 11.0528332,16.2593641 L11.8689116,16.2593641 C12.4926682,16.2593641 13,15.736753 13,15.0942107 L13,8.66651096 L13,7.91770064 L13,7 L12.9229976,7 L3.07700243,7 Z" id="Shape"></path>
                    <path d="M1,7 C0.447730399,7 0,7.57011394 0,8.27475898 L0,13.7256792 C0,14.4290096 0.447730399,15 1,15 C1.55192572,15 2,14.4290096 2,13.7256792 L2,8.27432077 C2,7.57011394 1.5522696,7 1,7 Z" id="Shape"></path>
                    <path d="M15.000344,7 C14.4475404,7 14,7.57011394 14,8.27475898 L14,13.7256792 C14,14.4290096 14.4475404,15 15.000344,15 C15.5524596,15 16,14.4290096 16,13.7256792 L16,8.27432077 C16,7.57011394 15.5524596,7 15.000344,7 Z" id="Shape"></path>
                </g>
            </g>
        </g>
    </g>
</svg>
