<?xml version="1.0" encoding="UTF-8"?>
<svg width="24px" height="24px" viewBox="0 0 24 24" version="1.1" xmlns="http://www.w3.org/2000/svg" xmlns:xlink="http://www.w3.org/1999/xlink">
    <!-- Generator: sketchtool 50.2 (55047) - http://www.bohemiancoding.com/sketch -->
    <title>A31BE3C2-23D8-4146-A59E-52DEA2C2C523</title>
    <desc>Created with sketchtool.</desc>
    <defs></defs>
    <g id="Symbols" stroke="none" stroke-width="1" fill="none" fill-rule="evenodd">
        <g id="графика-/-кнопки-/-айос-белый">
            <g id="if_apple_294700">

                <path d="M16.6933553,12.5649378 C16.6714958,10.2847494 18.4692438,9.19107261 18.54947,9.13606798 C17.5393741,7.58936588 15.9654525,7.3771325 15.4050645,7.35322935 C14.0669639,7.21063199 12.7923867,8.17853357 12.1132474,8.17853357 C11.435827,8.17853357 10.386795,7.37396367 9.27704222,7.39430678 C7.81675264,7.41719278 6.47117874,8.28357442 5.71969758,9.6520396 C4.20347009,12.4056748 5.33201835,16.4869324 6.8093845,18.7221313 C7.53183175,19.8143997 8.39317093,21.0438276 9.52310176,20.9987989 C10.612415,20.9537702 11.0236726,20.2610092 12.3402126,20.2610092 C13.65679,20.2610092 14.0267574,20.9987989 15.178884,20.9755999 C16.3500677,20.9534181 17.0926555,19.8622451 17.809311,18.7653996 C18.6382906,17.4963026 18.9798594,16.267579 19,16.205063 C18.9746654,16.1928572 16.7168215,15.2871194 16.6933553,12.5649378 Z M14.5283676,5.8740116 C15.1276169,5.1122796 15.5336806,4.05365559 15.4234863,3 C14.5584104,3.03677408 13.5113962,3.60203861 12.8906237,4.36306643 C12.334346,5.03834023 11.8477572,6.11339521 11.9780922,7.14807694 C12.9427876,7.22635878 13.9270257,6.63433524 14.5283676,5.8740116 Z" id="Shape" fill="#FFFFFF"></path>
            </g>
        </g>
    </g>
</svg>
