<?xml version="1.0" encoding="UTF-8"?>
<svg width="14px" height="18px" viewBox="0 0 14 18" version="1.1" xmlns="http://www.w3.org/2000/svg" xmlns:xlink="http://www.w3.org/1999/xlink">
    <!-- Generator: Sketch 51.3 (57544) - http://www.bohemiancoding.com/sketch -->
    <title>1</title>
    <desc>Created with Sketch.</desc>
    <defs></defs>
    <g id="Symbols" stroke="none" stroke-width="1" fill="none" fill-rule="evenodd">
        <g id="графика-/-кнопки-/-айос-синий-" transform="translate(-5.000000, -3.000000)" fill="#4573D9" fill-rule="nonzero">
            <g id="if_apple_294700">
                <g id="1" transform="translate(5.000000, 3.000000)">
                    <path d="M11.6933553,9.56493783 C11.6714958,7.28474935 13.4692438,6.19107261 13.54947,6.13606798 C12.5393741,4.58936588 10.9654525,4.3771325 10.4050645,4.35322935 C9.06696393,4.21063199 7.79238671,5.17853357 7.11324743,5.17853357 C6.43582702,5.17853357 5.38679504,4.37396367 4.27704222,4.39430678 C2.81675264,4.41719278 1.47117874,5.28357442 0.71969758,6.6520396 C-0.79652991,9.40567477 0.332018348,13.4869324 1.8093845,15.7221313 C2.53183175,16.8143997 3.39317093,18.0438276 4.52310176,17.9987989 C5.61241501,17.9537702 6.02367261,17.2610092 7.3402126,17.2610092 C8.65678996,17.2610092 9.02675739,17.9987989 10.178884,17.9755999 C11.3500677,17.9534181 12.0926555,16.8622451 12.809311,15.7653996 C13.6382906,14.4963026 13.9798594,13.267579 14,13.205063 C13.9746654,13.1928572 11.7168215,12.2871194 11.6933553,9.56493783 Z M9.52836761,2.8740116 C10.1276169,2.1122796 10.5336806,1.05365559 10.4234863,0 C9.55841041,0.0367740786 8.51139624,0.602038611 7.8906237,1.36306643 C7.33434604,2.03834023 6.84775722,3.11339521 6.97809218,4.14807694 C7.94278757,4.22635878 8.92702574,3.63433524 9.52836761,2.8740116 Z"></path>
                </g>
            </g>
        </g>
    </g>
</svg>