<?xml version="1.0" encoding="UTF-8"?>
<svg width="19px" height="22px" viewBox="0 0 19 22" version="1.1" xmlns="http://www.w3.org/2000/svg" xmlns:xlink="http://www.w3.org/1999/xlink">
    <!-- Generator: Sketch 51.3 (57544) - http://www.bohemiancoding.com/sketch -->
    <title>Group 16</title>
    <desc>Created with Sketch.</desc>
    <defs></defs>
    <g id="Частным" stroke="none" stroke-width="1" fill="none" fill-rule="evenodd">
        <g id="Footer" transform="translate(-206.000000, -384.000000)" fill="#D8D8D8">
            <g id="Group-5">
                <g id="Group-14">
                    <g id="Group-13" transform="translate(0.000000, 80.000000)">
                        <g id="Group-12" transform="translate(120.000000, 0.000000)">
                            <g id="Group-4" transform="translate(0.000000, 257.000000)">
                                <g id="Group-54" transform="translate(72.000000, 34.000000)">
                                    <g id="if_apple_294700" transform="translate(14.000000, 13.000000)">
                                        <g id="Group-16">
                                            <path d="M15.4948244,11.3982176 C15.4658585,8.68099298 17.8480481,7.37769486 17.9543556,7.31214767 C16.6158811,5.46899434 14.530283,5.2160829 13.7877148,5.18759831 C12.0146024,5.01766979 10.3256646,6.17108583 9.42573945,6.17108583 C8.52809202,6.17108583 7.13802339,5.21230671 5.66749378,5.23654891 C3.73246913,5.26382139 1.94945384,6.29625951 0.953668763,7.92701385 C-1.05547902,11.2084291 0.439956359,16.0719278 2.39760911,18.7355398 C3.35492146,20.0371597 4.49627901,21.5022279 5.99354642,21.4485687 C7.43699163,21.3949095 7.98194765,20.5693693 9.72649021,20.5693693 C11.4710823,20.5693693 11.9613248,21.4485687 13.4880038,21.4209233 C15.0399352,21.3944899 16.0239358,20.0941755 16.9735734,18.7871012 C18.0720515,17.2747606 18.5246631,15.8105316 18.5513514,15.7360334 C18.5177806,15.7214881 15.5259195,14.6421507 15.4948244,11.3982176 Z M12.6260068,3.42486383 C13.42007,2.51713319 13.9581435,1.25560625 13.8121254,0 C12.6658164,0.0438224436 11.2784216,0.717429345 10.455838,1.62432083 C9.71871645,2.42902211 9.0739393,3.71012929 9.24664569,4.94312502 C10.5249602,5.03641088 11.8291708,4.33091616 12.6260068,3.42486383 Z" id="Shape"></path>
                                        </g>
                                    </g>
                                </g>
                            </g>
                        </g>
                    </g>
                </g>
            </g>
        </g>
    </g>
</svg>