<?xml version="1.0" encoding="UTF-8" standalone="no"?>
<svg width="17px" height="12px" viewBox="0 0 17 12" version="1.1" xmlns="http://www.w3.org/2000/svg" xmlns:xlink="http://www.w3.org/1999/xlink">
    <!-- Generator: Sketch 49.2 (51160) - http://www.bohemiancoding.com/sketch -->
    <title>Combined Shape</title>
    <desc>Created with Sketch.</desc>
    <defs></defs>
    <g id="Symbols" stroke="none" stroke-width="1" fill="none" fill-rule="evenodd">
        <path d="M13.6568542,7 L1,7 C0.44771525,7 6.76353751e-17,6.55228475 0,6 C-6.76353751e-17,5.44771525 0.44771525,5 1,5 L13.4867963,5 L10.6946584,2.10865654 C10.3110091,1.71137614 10.3220594,1.07830759 10.7193398,0.69465837 C11.1166202,0.311009146 11.7496887,0.322059399 12.133338,0.7193398 L16.3012882,5.0353786 C16.5491297,5.29202605 16.6322514,5.64707495 16.5529364,5.96971354 C16.7385227,6.34373403 16.6755309,6.80975049 16.363961,7.12132034 L12.1213203,11.363961 C11.7307961,11.7544853 11.0976311,11.7544853 10.7071068,11.363961 C10.3165825,10.9734367 10.3165825,10.3402718 10.7071068,9.94974747 L13.6568542,7 Z" id="Combined-Shape" fill="#FFFFFF"></path>
    </g>
</svg>