<?xml version="1.0" encoding="UTF-8"?>
<svg width="10px" height="15px" viewBox="0 0 10 15" version="1.1" xmlns="http://www.w3.org/2000/svg" xmlns:xlink="http://www.w3.org/1999/xlink">
    <!-- Generator: Sketch 51.3 (57544) - http://www.bohemiancoding.com/sketch -->
    <title>$</title>
    <desc>Created with Sketch.</desc>
    <defs></defs>
    <g id="Symbols" stroke="none" stroke-width="1" fill="none" fill-rule="evenodd">
        <g id="графика-/-инпут-/-валюта-/-доллар-/-дефолт" transform="translate(-3.000000, -1.000000)" fill="#B2BAC2">
            <path d="M9.176,7.728 C11,8.064 12.136,9.12 12.136,10.912 C12.136,12.576 10.808,14.08 8.472,14.208 L8.472,15.568 L7.512,15.568 L7.512,14.192 C5.32,14.032 4.024,12.752 3.768,10.864 L5.16,10.864 C5.4,12.128 6.328,12.816 7.512,12.944 L7.512,8.688 L6.888,8.544 C5.16,8.176 4.168,7.232 4.168,5.664 C4.168,4.096 5.4,2.672 7.512,2.576 L7.512,1.232 L8.488,1.232 L8.488,2.592 C10.376,2.736 11.592,3.984 11.816,5.6 L10.44,5.6 C10.232,4.624 9.608,3.952 8.488,3.84 L8.488,7.568 L9.176,7.728 Z M8.84,8.944 L8.488,8.864 L8.488,12.96 C9.784,12.896 10.744,12.112 10.744,10.944 C10.744,9.84 10.008,9.2 8.84,8.944 Z M5.56,5.648 C5.56,6.672 6.072,7.04 7.512,7.392 L7.512,3.824 C6.36,3.872 5.56,4.592 5.56,5.648 Z" id="$"></path>
        </g>
    </g>
</svg>