<svg width="30" height="22" viewBox="0 0 30 22" fill="none" xmlns="http://www.w3.org/2000/svg">
<path d="M9.60476 7.85571L8.27296 8.30662C7.61293 8.53058 6.90156 8.16776 6.68301 7.49736C6.63901 7.36746 6.61848 7.22861 6.61848 7.09423V6.24316C6.61848 5.6728 6.67715 5.46675 6.78569 5.25772C6.89569 5.04869 7.05703 4.88445 7.26091 4.77396C7.46625 4.66048 7.66866 4.60076 8.22896 4.60076H11.8562C12.4356 4.60076 12.9035 5.07855 12.9035 5.66832V5.67579C12.9035 5.92215 12.8712 6.12969 12.8008 6.30886C12.7275 6.48803 12.6218 6.63734 12.4781 6.76276C12.3314 6.88818 12.151 6.98673 11.9207 7.06586L11.6333 7.16291L14.8161 12.7949L19.451 4.92924L18.6399 2.86877C18.546 2.6239 18.3172 2.46563 18.0576 2.46563H16.0482C15.4717 2.46563 15.0024 1.98784 15.0024 1.39807C15.0024 0.811286 15.4717 0.333496 16.0496 0.333496H18.0591C19.1738 0.333496 20.1741 1.02331 20.5877 2.07743L24.0976 11.0091C24.2091 11.0017 24.3206 10.9987 24.435 10.9987C27.32 11.0017 29.6668 13.3906 29.6668 16.332C29.6668 19.2794 27.32 21.6668 24.4306 21.6668C21.5352 21.6668 19.1899 19.2779 19.1899 16.3335C19.1899 14.2581 20.3574 12.4589 22.0588 11.578L20.4264 7.42122L16.12 14.7284C16.3547 15.0241 16.5263 15.3749 16.6143 15.7691C16.6583 15.9543 16.6774 16.1424 16.6774 16.3335C16.6774 17.7475 15.5524 18.8912 14.1663 18.8912C13.9815 18.8912 13.7952 18.8703 13.6134 18.8285L6.18432 17.1174C5.82497 17.0338 5.56829 16.7098 5.56829 16.335C5.56829 15.9617 5.82497 15.6392 6.18432 15.5556L13.0575 13.9729L9.60476 7.85869V7.85571ZM9.93038 13.3772L7.62173 13.9102C7.07023 13.4279 6.35447 13.1368 5.56829 13.1368C3.83461 13.1368 2.42947 14.5672 2.42947 16.332C2.42947 18.1013 3.83461 19.5332 5.56829 19.5332C6.35447 19.5332 7.07023 19.242 7.62173 18.7568L9.93038 19.2913C8.99166 20.7247 7.38852 21.6653 5.56976 21.6653C2.68028 21.6653 0.333497 19.2794 0.333497 16.335C0.33203 13.3876 2.67881 11.0017 5.56829 11.0017C7.38705 11.0017 8.99166 11.9453 9.93038 13.3757V13.3772ZM24.4291 19.5347C26.1628 19.5347 27.5679 18.1013 27.5679 16.335C27.5679 14.5702 26.1628 13.1398 24.4291 13.1398C22.691 13.1398 21.2844 14.5702 21.2844 16.335C21.2844 18.1043 22.6925 19.5362 24.4276 19.5362L24.4291 19.5347Z" fill="currentColor"/>
</svg>
