<svg width="22" height="22" viewBox="0 0 22 22" fill="none" xmlns="http://www.w3.org/2000/svg">
<path fill-rule="evenodd" clip-rule="evenodd" d="M20.3335 9.66683V21.0002C20.3335 21.3682 20.0348 21.6668 19.6668 21.6668H16.8535C16.5468 21.6668 16.2802 21.4588 16.2068 21.1602L15.6668 19.0002H6.3335L5.7935 21.1602C5.71883 21.4588 5.45216 21.6668 5.14683 21.6668H2.3335C1.9655 21.6668 1.66683 21.3682 1.66683 21.0002V9.66683L0.701496 9.18416C0.474829 9.07216 0.333496 8.84016 0.333496 8.58683V5.66683C0.333496 4.93083 0.930829 4.3335 1.66683 4.3335V3.5175C1.66683 2.3615 2.41083 1.3375 3.5095 0.981496C4.88283 0.536163 7.34016 0.333496 11.0002 0.333496C14.6602 0.333496 17.1202 0.536163 18.4908 0.981496C19.5895 1.3375 20.3335 2.36016 20.3335 3.5175V4.3335C21.0695 4.3335 21.6668 4.93083 21.6668 5.66683V8.58683C21.6668 8.84016 21.5242 9.07216 21.2988 9.18416L20.3335 9.66683ZM11.0002 3.00016C7.99483 3.00016 5.72016 3.3175 4.1735 3.9535C3.70283 4.14683 3.38283 4.5935 3.35083 5.10016L3.00016 10.4908C3.00016 10.8188 3.24016 11.0988 3.5655 11.1495C4.64816 11.3162 7.1255 11.4002 11.0002 11.4002C14.8735 11.4002 17.3522 11.3162 18.4348 11.1495C18.7602 11.0988 19.0002 10.8188 19.0002 10.4908L18.6495 5.10016C18.6175 4.5935 18.2975 4.14683 17.8268 3.9535C16.2802 3.3175 14.0055 3.00016 11.0002 3.00016ZM17.0002 17.6668C18.1042 17.6668 19.0002 16.7708 19.0002 15.6668C19.0002 14.5628 18.1042 13.6668 17.0002 13.6668C15.8962 13.6668 15.0002 14.5628 15.0002 15.6668C15.0002 16.7708 15.8962 17.6668 17.0002 17.6668ZM5.00016 17.6668C6.10416 17.6668 7.00016 16.7708 7.00016 15.6668C7.00016 14.5628 6.10416 13.6668 5.00016 13.6668C3.89616 13.6668 3.00016 14.5628 3.00016 15.6668C3.00016 16.7708 3.89616 17.6668 5.00016 17.6668Z" fill="#78818F"/>
</svg>
