<svg width="28" height="20" viewBox="0 0 28 20" fill="none" xmlns="http://www.w3.org/2000/svg">
<path fill-rule="evenodd" clip-rule="evenodd" d="M24.6665 11.9812V18.6665C24.6665 19.0345 24.3678 19.3332 23.9998 19.3332H21.1865C20.8798 19.3332 20.6132 19.1252 20.5412 18.8265L19.9998 16.6665H7.99984L7.45984 18.8265C7.38517 19.1252 7.1185 19.3332 6.81317 19.3332H3.99984C3.63184 19.3332 3.33317 19.0345 3.33317 18.6665V11.9812C3.33317 11.5052 3.41317 11.0452 3.55717 10.6145L5.4265 3.5065C5.7865 2.14117 6.95184 1.13717 8.35584 0.983837C10.2798 0.770504 11.2732 0.666504 13.9998 0.666504C16.7265 0.666504 17.7198 0.77317 19.6452 0.983837C21.0492 1.13717 22.2132 2.14117 22.5718 3.5065L24.4412 10.6132C24.5878 11.0452 24.6652 11.5065 24.6652 11.9812H24.6665ZM22.4318 8.21317L21.2825 3.8465C21.0638 3.0145 20.3545 2.4025 19.4985 2.30917C17.6265 2.10384 16.6798 1.99984 13.9998 1.99984C11.3198 1.99984 10.3732 2.10384 8.50117 2.30917C7.64517 2.4025 6.93584 3.01584 6.71717 3.8465L5.56784 8.21317C5.99184 7.9865 6.46117 7.83184 6.96117 7.7625C9.01717 7.47584 11.3598 7.33317 13.9998 7.33317C16.6398 7.33317 18.9865 7.47584 21.0398 7.7625C21.5385 7.83184 22.0078 7.98917 22.4318 8.21317ZM21.3332 13.9998C22.4398 13.9998 23.3332 13.1038 23.3332 11.9998C23.3332 10.8958 22.4398 9.99984 21.3332 9.99984C20.2292 9.99984 19.3332 10.8958 19.3332 11.9998C19.3332 13.1038 20.2292 13.9998 21.3332 13.9998ZM6.6665 13.9998C7.7705 13.9998 8.6665 13.1038 8.6665 11.9998C8.6665 10.8958 7.7705 9.99984 6.6665 9.99984C5.5625 9.99984 4.6665 10.8958 4.6665 11.9998C4.6665 13.1038 5.5625 13.9998 6.6665 13.9998ZM25.9998 5.99984H26.6665C27.0345 5.99984 27.3332 6.2985 27.3332 6.6665V7.2265C27.3332 7.89317 26.8318 8.45717 26.1665 8.53317L25.5798 8.59984C25.2492 8.63984 24.9398 8.42384 24.8598 8.09984L24.5398 6.82784C24.4518 6.47184 24.6678 6.1105 25.0252 6.02117C25.0785 6.00784 25.1318 6.00117 25.1852 6.00117H25.9998V5.99984ZM1.33317 5.99984H2.81317C3.18117 5.99984 3.47984 6.2985 3.47984 6.6665C3.47984 6.71984 3.47317 6.77584 3.45984 6.8265L3.13984 8.09984C3.05984 8.42384 2.75317 8.6385 2.41984 8.59984L1.83317 8.53317C1.1665 8.45717 0.666504 7.89317 0.666504 7.2265V6.6665C0.666504 6.2985 0.965171 5.99984 1.33317 5.99984Z" fill="currentColor"/>
</svg>
