<svg width="26" height="23" viewBox="0 0 26 23" fill="none" xmlns="http://www.w3.org/2000/svg">
<path d="M0 1C0 0.447715 0.447715 0 1 0H25C25.5523 0 26 0.447715 26 1V15C26 15.5523 25.5523 16 25 16H24C23.4477 16 23 16.4477 23 17V20.399C23 21.2411 22.0229 21.7061 21.3694 21.1751L15.2756 16.2239C15.0973 16.0791 14.8746 16 14.645 16H1C0.447715 16 0 15.5523 0 15V1Z" fill="white"/>
<circle cx="8" cy="8" r="1" fill="#4573D9"/>
<circle cx="13" cy="8" r="1" fill="#4573D9"/>
<circle cx="18" cy="8" r="1" fill="#4573D9"/>
</svg>
