
<svg width="24px" height="20px" viewBox="0 0 24 20" version="1.1" xmlns="http://www.w3.org/2000/svg" xmlns:xlink="http://www.w3.org/1999/xlink">
  <g id="Page-1" stroke="none" stroke-width="1" fill="none" fill-rule="evenodd">
    <path d="M1,0 L23,0 C23.5523,0 24,0.45522 24,1.01677 L24,14.0001 C24,14.5617 23.5523,15.0169 23,15.0169 L22.2308,15.0169 C21.6785,15.0169 21.2308,15.4721 21.2308,16.0337 L21.2308,18.9813 C21.2308,19.8375 20.2537,20.3103 19.6002,19.7704 L14.1217,15.2445 C13.9435,15.0973 13.7208,15.0169 13.4911,15.0169 L0.999999,15.0169 C0.447715,15.0169 0,14.5617 0,14.0001 L0,1.01677 C0,0.45522 0.447715,0 1,0 Z M2,2.03354 L2,12.9834 L13.4911,12.9834 C14.1801,12.9834 14.8481,13.2245 15.3829,13.6663 L19.2308,16.8451 L19.2308,16.0337 C19.2308,14.428 20.451,13.1121 22,12.9922 L22,2.03354 L2,2.03354 Z" id="Combined-Shape" fill="#001934"></path>
    <path d="M8.76923,7.40783 C8.76923,8.1854 8.14932,8.8157 7.38462,8.8157 C6.61991,8.8157 6,8.1854 6,7.40783 C6,6.63031 6.61991,6 7.38462,6 C8.14932,6 8.76923,6.63031 8.76923,7.40783 Z" id="Path" fill="#001934" fill-rule="nonzero"></path>
    <path d="M13.385,7.40783 C13.385,8.1854 12.765,8.8157 12.0003,8.8157 C11.2356,8.8157 10.6157,8.1854 10.6157,7.40783 C10.6157,6.63031 11.2356,6 12.0003,6 C12.765,6 13.385,6.63031 13.385,7.40783 Z" id="Path" fill="#001934" fill-rule="nonzero"></path>
    <path d="M18.0002,7.40783 C18.0002,8.1854 17.3803,8.8157 16.6156,8.8157 C15.8509,8.8157 15.231,8.1854 15.231,7.40783 C15.231,6.63031 15.8509,6 16.6156,6 C17.3803,6 18.0002,6.63031 18.0002,7.40783 Z" id="Path" fill="#001934" fill-rule="nonzero"></path>
  </g>
</svg>

