<svg width="24" height="24" viewBox="0 0 24 24" fill="none" xmlns="http://www.w3.org/2000/svg">
<path d="M0 2C0 1.44772 0.447715 1 1 1H23C23.5523 1 24 1.44772 24 2V15.6444C24 16.1967 23.5523 16.6444 23 16.6444H22.2308C21.6785 16.6444 21.2308 17.0922 21.2308 17.6444V20.82C21.2308 21.6753 20.2267 22.1359 19.5784 21.5779L14.1274 16.8865C13.9459 16.7303 13.7145 16.6444 13.4751 16.6444H0.999999C0.447715 16.6444 0 16.1967 0 15.6444V2Z" fill="#001934"/>
<circle cx="7" cy="9" r="1" fill="white"/>
<circle cx="12" cy="9" r="1" fill="white"/>
<circle cx="17" cy="9" r="1" fill="white"/>
</svg>
