<svg width="24" height="24" viewBox="0 0 24 24" fill="none" xmlns="http://www.w3.org/2000/svg">
<path fill-rule="evenodd" clip-rule="evenodd" d="M2 4.03354V14.9834H13.4911C14.1801 14.9834 14.8481 15.2245 15.3829 15.6663L19.2308 18.8451V18.0337C19.2308 16.428 20.451 15.1121 22 14.9922V4.03354H2ZM1 2C0.447715 2 0 2.45522 0 3.01677V16.0001C0 16.5617 0.447715 17.0169 0.999999 17.0169H13.4911C13.7208 17.0169 13.9435 17.0973 14.1217 17.2445L19.6002 21.7704C20.2537 22.3103 21.2308 21.8375 21.2308 20.9813V18.0337C21.2308 17.4721 21.6785 17.0169 22.2308 17.0169H23C23.5523 17.0169 24 16.5617 24 16.0001V3.01677C24 2.45522 23.5523 2 23 2H1Z" fill="#001934"/>
<rect width="12.0001" height="2.81628" transform="translate(6 8)" fill="white"/>
<path d="M8.76923 9.40783C8.76923 10.1854 8.14932 10.8157 7.38462 10.8157C6.61991 10.8157 6 10.1854 6 9.40783C6 8.63031 6.61991 8 7.38462 8C8.14932 8 8.76923 8.63031 8.76923 9.40783Z" fill="#001934"/>
<path d="M13.385 9.40783C13.385 10.1854 12.765 10.8157 12.0003 10.8157C11.2356 10.8157 10.6157 10.1854 10.6157 9.40783C10.6157 8.63031 11.2356 8 12.0003 8C12.765 8 13.385 8.63031 13.385 9.40783Z" fill="#001934"/>
<path d="M18.0002 9.40783C18.0002 10.1854 17.3803 10.8157 16.6156 10.8157C15.8509 10.8157 15.231 10.1854 15.231 9.40783C15.231 8.63031 15.8509 8 16.6156 8C17.3803 8 18.0002 8.63031 18.0002 9.40783Z" fill="#001934"/>
</svg>
