<?xml version="1.0" encoding="UTF-8"?>
<svg width="10px" height="13px" viewBox="0 0 10 13" version="1.1" xmlns="http://www.w3.org/2000/svg" xmlns:xlink="http://www.w3.org/1999/xlink">
    <!-- Generator: Sketch 51.3 (57544) - http://www.bohemiancoding.com/sketch -->
    <title>€</title>
    <desc>Created with Sketch.</desc>
    <defs></defs>
    <g id="Symbols" stroke="none" stroke-width="1" fill="none" fill-rule="evenodd">
        <g id="графика-/-инпут-/-валюта-/-доллар-/-дефолт-copy" transform="translate(-3.000000, -2.000000)" fill="#B2BAC2">
            <path d="M9.2109375,3.5859375 C7.54947086,3.5859375 6.51302289,4.63540617 6.1015625,6.734375 L10.0859375,6.734375 L10.0859375,7.7421875 L5.9921875,7.7421875 L5.9765625,8.1875 L5.9765625,8.6875 L5.9921875,9.0390625 L9.609375,9.0390625 L9.609375,10.046875 L6.1171875,10.046875 C6.3098968,10.9843797 6.67057027,11.7096329 7.19921875,12.2226562 C7.72786723,12.7356796 8.43489141,12.9921875 9.3203125,12.9921875 C10.1328166,12.9921875 10.937496,12.8203142 11.734375,12.4765625 L11.734375,13.6484375 C10.9739545,13.9869809 10.148442,14.15625 9.2578125,14.15625 C8.02343133,14.15625 7.02995168,13.8059931 6.27734375,13.1054688 C5.52473582,12.4049444 5.02864703,11.3854234 4.7890625,10.046875 L3.4921875,10.046875 L3.4921875,9.0390625 L4.6796875,9.0390625 L4.6640625,8.7109375 L4.6640625,8.3671875 L4.6796875,7.7421875 L3.4921875,7.7421875 L3.4921875,6.734375 L4.7734375,6.734375 C4.97656352,5.3749932 5.45832953,4.31510797 6.21875,3.5546875 C6.97917047,2.79426703 7.97655633,2.4140625 9.2109375,2.4140625 C10.2578177,2.4140625 11.2109332,2.66666414 12.0703125,3.171875 L11.515625,4.2578125 C10.6510373,3.80989359 9.88281586,3.5859375 9.2109375,3.5859375 Z" id="€"></path>
        </g>
    </g>
</svg>