<svg width="14" height="24" viewBox="0 0 14 24" fill="none" xmlns="http://www.w3.org/2000/svg">
<path fill-rule="evenodd" clip-rule="evenodd" d="M13.3498 11.3733C13.7098 11.6467 13.7724 12.1493 13.4884 12.496C13.2084 12.8347 12.7018 12.8987 12.3418 12.648L9.5071 10.672C9.52977 10.544 9.55243 10.4227 9.57377 10.2893C9.6191 10.0493 9.6631 9.804 9.7071 9.55333L9.74177 9.364L9.76443 9.05733L9.79777 8.67067L9.82443 8.33733L13.3498 11.372V11.3733ZM10.9284 16.4667L12.7951 22.7787C12.9471 23.288 12.6378 23.8187 12.1071 23.9653C11.6004 24.1013 11.0738 23.836 10.8938 23.368L8.6671 17.484L4.91377 13.8747C4.5751 13.5493 4.4431 13.1013 4.5271 12.6347L5.3271 8.24533L3.5231 8.75867L1.93643 12.3093C1.7551 12.7173 1.26577 12.9067 0.8431 12.736C0.429767 12.5667 0.229767 12.1147 0.3871 11.7147L1.9911 7.704C2.06843 7.504 2.21777 7.35067 2.40177 7.26L2.50577 7.21067L6.51643 5.24C6.53243 5.232 6.54977 5.22933 6.56443 5.22267C6.80177 5.10267 7.0791 5.04933 7.36443 5.10267C7.72443 5.16933 8.0311 5.36933 8.18443 5.66933C8.33643 5.97067 8.38977 6.52267 8.38977 6.52267C8.4791 7.016 8.4831 7.5 8.5271 7.98667C8.5591 8.472 8.55777 8.952 8.5471 9.432C8.52043 10.3893 8.45377 11.3427 8.32043 12.2853L8.24977 12.8427L10.6938 16.052L10.7844 16.172C10.8538 16.2627 10.9044 16.3627 10.9311 16.4627L10.9284 16.4667ZM9.6671 2C9.6671 3.10667 8.77377 4 7.6671 4C6.56043 4 5.6671 3.10667 5.6671 2C5.6671 0.893333 6.56043 0 7.6671 0C8.77377 0 9.6671 0.893333 9.6671 2ZM5.4511 16.0107C5.94443 16.4453 6.4511 16.864 6.89777 17.2027C6.70843 17.5867 6.3911 18.216 6.3911 18.216L3.0071 23.54C2.7191 23.9933 2.1031 24.1347 1.63377 23.86C1.1831 23.596 1.02843 23.0467 1.26043 22.6027L4.08443 17.2827C4.12977 16.8587 4.1671 16.4333 4.22577 16.0133L4.37243 15.032L4.5511 15.1987C4.8311 15.4653 5.13777 15.7373 5.44977 16.0093L5.4511 16.0107Z" fill="currentColor"/>
</svg>
