<svg width="144" height="36" viewBox="0 0 144 36" fill="none" xmlns="http://www.w3.org/2000/svg">
<path opacity="0.4" d="M27.7204 3.40364C27.8177 3.50091 29.0822 3.98726 28.7904 3.69545C28.4986 3.30637 28.1095 3.01455 27.7204 2.82001C6.8072 -9.04702 -9.5343 19.3561 6.32085 32.0985C6.90447 32.5849 7.29356 32.8767 7.4881 32.974C7.68264 32.974 11.2817 35.6003 8.55808 31.4176C-1.16901 15.9516 10.5035 -4.86438 27.7204 3.40364ZM35.113 15.8543C34.9185 13.6171 34.3349 11.3798 33.2649 9.33716C26.4559 1.16641 0.484596 9.5317 9.43352 30.5422C9.72533 31.1258 10.0171 31.5149 10.2117 31.4176C10.4062 31.3204 11.1844 31.2231 11.0871 30.6395C8.75262 14.2007 29.2768 10.2126 35.113 15.8543ZM14.1025 32.7794C14.1998 33.2658 14.1998 33.363 14.3943 33.4603C14.4916 33.4603 16.3397 34.0439 16.3397 33.5576C16.9234 28.4995 30.7358 23.2469 31.7085 27.6241C32.8758 25.7759 34.1403 23.9278 34.7239 21.6905C34.7239 21.3987 34.8212 21.3015 34.8212 21.3015C33.654 17.3134 10.6008 21.3015 14.1025 32.7794Z" fill="#30445A"/>
<path d="M33.169 9.43513C31.7099 13.6178 18.1893 6.32247 16.1466 2.33436C15.952 1.94528 15.7575 1.84801 15.6602 1.84801C15.563 1.94528 15.3684 2.04255 15.2711 2.52891C14.0066 8.46242 27.43 19.2595 35.1144 16.5359C35.1144 16.5359 35.1144 16.3414 35.1144 16.0495C34.9199 13.6178 34.239 11.3805 33.169 9.43513ZM11.283 3.98797C11.3803 3.40434 11.4776 3.11253 11.283 2.91799C11.0885 2.82072 10.7967 3.11253 10.3103 3.69616C1.94504 15.0768 20.3292 32.391 32.1963 27.9166C33.4608 25.9712 34.3362 23.8312 34.8226 21.594C28.3054 26.4575 9.24035 14.8823 11.283 3.98797ZM9.04581 2.13982C9.53216 1.65347 10.1158 1.26439 9.92125 1.16711C9.82398 1.16711 9.24035 1.36166 8.55945 1.75074C-4.47484 9.04605 -1.45944 31.8074 15.563 35.8928C16.0493 35.8928 16.5357 35.9901 17.022 35.9901C19.0647 35.9901 21.0101 35.601 22.8583 35.0174C24.5119 34.4337 25.3873 33.9474 27.0409 32.9747C27.2355 32.8774 27.43 32.7801 27.5273 32.5856C12.7421 37.1573 -4.37757 14.6878 9.04581 2.13982Z" fill="#30445A"/>
<path fill-rule="evenodd" clip-rule="evenodd" d="M60.5026 12.1589C63.3234 12.1589 65.0743 13.618 65.0743 16.2443C65.0743 18.8706 63.3234 20.3297 60.5026 20.3297H54.3745V7.29539H63.9071V9.72716H57.0981V12.2562C57.0008 12.1589 60.5026 12.1589 60.5026 12.1589ZM60.0162 17.8979C61.7671 17.8979 62.2534 17.3143 62.2534 16.147C62.2534 14.9798 61.6698 14.3962 60.0162 14.3962H57.0981V17.8006H60.0162V17.8979ZM67.4088 20.2324V7.29539H70.1324V12.4507H73.0505L75.5796 7.29539H78.4004L75.4823 13.618L78.6922 20.3297H75.8714L73.2451 14.8825H70.1324V20.3297L67.4088 20.2324ZM88.6138 16.147H91.4347C90.9484 18.7733 89.0029 20.6215 85.9875 20.6215C81.9994 20.6215 79.7622 17.8979 79.7622 13.9098C79.7622 9.9217 81.9994 7.19812 85.9875 7.19812C88.8084 7.19812 90.8511 8.75445 91.3374 11.1862H88.5166C88.1275 10.1162 87.3493 9.62989 85.9875 9.62989C83.7503 9.62989 82.5831 11.5753 82.5831 13.9098C82.5831 16.2443 83.7503 18.1897 85.9875 18.1897C87.4466 18.0925 88.322 17.3143 88.6138 16.147ZM105.053 12.1589C107.873 12.1589 109.624 13.618 109.624 16.2443C109.624 18.8706 107.873 20.3297 105.053 20.3297H98.9246V7.29539H108.457V9.72716H101.648V12.2562C101.648 12.1589 105.053 12.1589 105.053 12.1589ZM104.469 17.8979C106.22 17.8979 106.706 17.3143 106.706 16.147C106.706 14.9798 106.123 14.3962 104.469 14.3962H101.551V17.8006H104.469V17.8979ZM117.503 20.2324V19.4542H117.114C116.531 20.1351 115.752 20.5242 114.488 20.5242C112.348 20.5242 111.083 19.1624 111.083 17.4116C111.083 15.9525 112.153 14.2989 114.877 14.2989H117.406V14.1043C117.406 13.2289 116.822 12.6453 115.655 12.6453C114.585 12.6453 114.196 13.0344 114.099 13.7153H111.57C111.667 11.8671 113.321 10.7971 115.558 10.7971C118.087 10.7971 119.741 11.8671 119.741 14.2989V20.3297H117.503V20.2324ZM115.266 18.3843C116.531 18.3843 117.309 17.6061 117.309 16.4388V15.8552H115.363C114.196 15.8552 113.612 16.3416 113.612 17.1197C113.612 17.9952 114.196 18.3843 115.266 18.3843ZM131.413 20.2324H128.884V16.4388H124.993V20.2324H122.561V10.8944H125.09V14.3962H128.981V10.8944H131.51V20.2324H131.413ZM140.556 20.2324L138.611 16.4388H136.666V20.2324H134.234V10.8944H136.763V14.3962H138.806L140.654 10.8944H143.28L140.848 15.4661L143.377 20.3297L140.556 20.2324Z" fill="#30445A"/>
<path d="M59.534 32.002V30.8348H55.0596V24.9985H56.2268V29.7648H58.6586V24.9985H59.8259V29.7648H60.604V32.002H59.534Z" fill="#30445A"/>
<path d="M66.8252 30.8349V24.9987H67.9924V28.7922L70.8133 24.9987H71.8832V30.8349H70.716V27.0413L67.8952 30.8349H66.8252Z" fill="#30445A"/>
<path d="M81.1236 31.0294V30.3485C79.1782 30.2512 78.3027 29.084 78.3027 27.8195C78.3027 27.1386 78.4973 26.555 79.0809 26.0686C79.6645 25.5822 80.2482 25.2904 81.1236 25.2904V24.8041H82.2909V25.2904C83.1663 25.2904 83.8472 25.5822 84.3336 26.0686C84.8199 26.555 85.1117 27.1386 85.1117 27.8195C85.1117 29.084 84.2363 30.3485 82.2909 30.3485V31.0294H81.1236ZM81.1236 26.3604C80.1509 26.3604 79.5673 26.944 79.5673 27.8195C79.5673 28.6949 80.1509 29.2785 81.1236 29.2785V26.3604ZM82.3881 29.3758C83.3608 29.3758 83.9445 28.7922 83.9445 27.9167C83.9445 27.0413 83.3608 26.4577 82.3881 26.4577V29.3758Z" fill="#30445A"/>
<path d="M91.6294 30.8349V24.9987H94.1584C94.7421 24.9987 95.3257 25.1932 95.6175 25.485C96.0066 25.7768 96.2011 26.2632 96.2011 26.7495C96.2011 27.2359 96.0066 27.7222 95.6175 28.0141C95.2284 28.3059 94.7421 28.5004 94.1584 28.5004H92.7966V30.8349H91.6294ZM92.7966 27.5277H94.0612C94.6448 27.5277 94.9366 27.2359 94.9366 26.8468C94.9366 26.3604 94.5475 26.1659 94.0612 26.1659H92.7966V27.5277Z" fill="#30445A"/>
<path d="M103.107 25.7768C103.691 25.1932 104.371 24.9014 105.247 24.9014C106.122 24.9014 106.803 25.1932 107.387 25.7768C107.97 26.3604 108.262 27.0413 108.262 27.9168C108.262 28.7922 107.97 29.4731 107.387 30.0567C106.803 30.6403 106.122 30.9322 105.247 30.9322C104.371 30.9322 103.691 30.6403 103.107 30.0567C102.523 29.4731 102.231 28.7922 102.231 27.9168C102.231 27.0413 102.523 26.3604 103.107 25.7768ZM105.247 29.8622C105.733 29.8622 106.22 29.6676 106.511 29.2786C106.9 28.8895 106.998 28.5004 106.998 27.9168C106.998 27.3331 106.803 26.9441 106.511 26.555C106.22 26.1659 105.733 25.9713 105.247 25.9713C104.76 25.9713 104.274 26.1659 103.982 26.555C103.691 26.9441 103.496 27.3331 103.496 27.9168C103.496 28.5004 103.691 28.8895 103.982 29.2786C104.274 29.6676 104.76 29.8622 105.247 29.8622Z" fill="#30445A"/>
<path d="M114.682 30.8349V24.9987H117.406C118.476 24.9987 119.157 25.485 119.157 26.4577C119.157 27.0413 118.865 27.4304 118.378 27.625C118.67 27.7222 118.962 27.8195 119.254 28.1113C119.448 28.4031 119.643 28.6949 119.643 29.1813C119.643 29.6677 119.448 30.0567 119.059 30.3486C118.67 30.6404 118.184 30.8349 117.6 30.8349H114.682ZM115.947 27.3332H117.308C117.795 27.3332 118.087 27.1386 118.087 26.6523C118.087 26.2632 117.795 25.9714 117.308 25.9714H115.947V27.3332ZM115.947 29.7649H117.503C118.087 29.7649 118.476 29.4731 118.476 28.9868C118.476 28.5004 118.087 28.2086 117.503 28.2086H115.947V29.7649Z" fill="#30445A"/>
<path d="M126.549 25.7768C127.133 25.1932 127.814 24.9014 128.689 24.9014C129.565 24.9014 130.246 25.1932 130.829 25.7768C131.413 26.3604 131.705 27.0413 131.705 27.9168C131.705 28.7922 131.413 29.4731 130.829 30.0567C130.246 30.6403 129.565 30.9322 128.689 30.9322C127.814 30.9322 127.133 30.6403 126.549 30.0567C125.966 29.4731 125.674 28.7922 125.674 27.9168C125.674 27.0413 125.966 26.3604 126.549 25.7768ZM128.689 29.8622C129.176 29.8622 129.662 29.6676 129.954 29.2786C130.343 28.8895 130.44 28.5004 130.44 27.9168C130.44 27.3331 130.246 26.9441 129.954 26.555C129.662 26.1659 129.176 25.9713 128.689 25.9713C128.203 25.9713 127.717 26.1659 127.425 26.555C127.133 26.9441 126.938 27.3331 126.938 27.9168C126.938 28.5004 127.133 28.8895 127.425 29.2786C127.814 29.6676 128.203 29.8622 128.689 29.8622Z" fill="#30445A"/>
<path d="M138.125 30.8349V24.9987H139.292V28.7922L142.113 24.9987H143.183V30.8349H142.015V27.0414L139.194 30.8349H138.125ZM140.07 23.2478C140.07 23.6369 140.264 23.8314 140.751 23.8314C141.237 23.8314 141.432 23.6369 141.432 23.2478H142.307C142.307 24.1232 141.626 24.7069 140.751 24.7069C139.875 24.7069 139.194 24.1232 139.194 23.2478H140.07Z" fill="#30445A"/>
</svg>
