<svg width="24px" height="24px" viewBox="0 0 24 24" fill="none" xmlns="http://www.w3.org/2000/svg">
<path d="M13.7578 13.8848V14.9207H18V13.8848H17.1747L14.3666 7L11.9988 11.0198L9.63345 7L6.82294 13.8848H6V14.9207H10.2422V13.8848H9.60698L10.2254 12.1677L11.9988 15L13.7746 12.1677L14.393 13.8848H13.7578Z" fill="currentColor"/>
<path fill-rule="evenodd" clip-rule="evenodd" d="M12 23C18.0751 23 23 18.0751 23 12C23 5.92487 18.0751 1 12 1C5.92487 1 1 5.92487 1 12C1 18.0751 5.92487 23 12 23ZM24 12C24 18.6274 18.6274 24 12 24C5.37258 24 0 18.6274 0 12C0 8.92658 1.15541 6.12302 3.05557 4C3.3962 3.61942 3.76076 3.26071 4.14689 2.92623C6.25155 1.10311 8.99695 0 12 0C18.6274 0 24 5.37258 24 12Z" fill="currentColor"/>
</svg>
