<?xml version="1.0" encoding="UTF-8"?>
<svg width="9px" height="12px" viewBox="0 0 9 12" version="1.1" xmlns="http://www.w3.org/2000/svg" xmlns:xlink="http://www.w3.org/1999/xlink">
    <!-- Generator: Sketch 51.3 (57544) - http://www.bohemiancoding.com/sketch -->
    <title>₽</title>
    <desc>Created with Sketch.</desc>
    <defs></defs>
    <g id="Symbols" stroke="none" stroke-width="1" fill="none" fill-rule="evenodd">
        <g id="графика-/-инпут-/-валюта-/-рубль-/-дефолт" transform="translate(-4.000000, -2.000000)" fill="#B2BAC2">
            <path d="M4.56097561,7.85365854 L5.71544715,7.85365854 L5.71544715,2.66666667 L8.69105691,2.66666667 C9.2439052,2.66666667 9.7479652,2.72899667 10.203252,2.85365854 C10.6585389,2.97832041 11.0487789,3.16802041 11.3739837,3.42276423 C11.6991886,3.67750805 11.9539286,3.99999805 12.1382114,4.3902439 C12.3224941,4.78048976 12.4146341,5.24660976 12.4146341,5.78861789 C12.4146341,6.33062602 12.3170741,6.80216602 12.1219512,7.20325203 C11.9268283,7.60433805 11.6612483,7.93766805 11.3252033,8.20325203 C10.9891582,8.46883602 10.5934982,8.66666602 10.1382114,8.79674797 C9.68292455,8.92682992 9.18970455,8.99186992 8.65853659,8.99186992 L7.01626016,8.99186992 L7.01626016,10.6341463 L9.63414634,10.6341463 L9.63414634,11.7073171 L7.01626016,11.7073171 L7.01626016,14 L5.71544715,14 L5.71544715,11.7073171 L4.56097561,11.7073171 L4.56097561,10.6341463 L5.71544715,10.6341463 L5.71544715,8.99186992 L4.56097561,8.99186992 L4.56097561,7.85365854 Z M8.69105691,7.85365854 C9.43902813,7.85365854 10.0270981,7.68292854 10.4552846,7.34146341 C10.883471,6.99999829 11.097561,6.48238829 11.097561,5.78861789 C11.097561,5.09484748 10.883471,4.59078748 10.4552846,4.27642276 C10.0270981,3.96205805 9.43902813,3.80487805 8.69105691,3.80487805 L7.01626016,3.80487805 L7.01626016,7.85365854 L8.69105691,7.85365854 Z" id="₽"></path>
        </g>
    </g>
</svg>