<svg width="18px" height="18px" viewBox="0 0 18 18" version="1.1" xmlns="http://www.w3.org/2000/svg"
     xmlns:xlink="http://www.w3.org/1999/xlink">
    <g transform="translate(-3.000000, -3.000000)">
        <path d="M15.864494,14.3207547 L15.051458,14.3207547 L14.7632933,14.0428816 C15.7718696,12.8696398 16.3790738,11.3464837 16.3790738,9.68953688 C16.3790738,5.9948542 13.3842196,3 9.68953688,3 C5.9948542,3 3,5.9948542 3,9.68953688 C3,13.3842196 5.9948542,16.3790738 9.68953688,16.3790738 C11.3464837,16.3790738 12.8696398,15.7718696 14.0428816,14.7632933 L14.3207547,15.051458 L14.3207547,15.864494 L19.4665523,21 L21,19.4665523 L15.864494,14.3207547 Z M9.68953688,14.3207547 C7.12692967,14.3207547 5.05831904,12.2521441 5.05831904,9.68953688 C5.05831904,7.12692967 7.12692967,5.05831904 9.68953688,5.05831904 C12.2521441,5.05831904 14.3207547,7.12692967 14.3207547,9.68953688 C14.3207547,12.2521441 12.2521441,14.3207547 9.68953688,14.3207547 Z"></path>
    </g>
</svg>