<svg width="24" height="24" viewBox="0 0 24 24" fill="none" xmlns="http://www.w3.org/2000/svg">
<path fill-rule="evenodd" clip-rule="evenodd" d="M12 23C18.0751 23 23 18.0751 23 12C23 5.92487 18.0751 1 12 1C5.92487 1 1 5.92487 1 12C1 18.0751 5.92487 23 12 23ZM12 24C18.6274 24 24 18.6274 24 12C24 5.37258 18.6274 0 12 0C5.37258 0 0 5.37258 0 12C0 18.6274 5.37258 24 12 24Z" fill="currentColor"/>
<path d="M15.811 8.98669C15.7697 8.8266 15.6857 8.65602 15.6236 8.50667C14.8806 6.66133 13.2569 6 11.946 6C10.191 6 8.25806 7.21603 8 9.72257V10.2347C8 10.256 8.00713 10.448 8.01725 10.544C8.16192 11.7386 9.07409 13.0081 9.75534 14.2027C10.4883 15.4825 11.2488 16.7415 12.0023 18C12.4669 17.1787 12.9298 16.3467 13.3838 15.5467C13.5076 15.3119 13.6512 15.0773 13.7751 14.8532C13.8576 14.704 14.0154 14.5548 14.0874 14.416C14.8203 13.0294 16 11.6321 16 10.256V9.6907C16 9.54153 15.8211 9.01885 15.811 8.98669ZM11.9781 11.5574C11.4622 11.5574 10.8975 11.2909 10.6188 10.5547C10.5773 10.4376 10.5807 10.2027 10.5807 10.1812V9.85054C10.5807 8.91211 11.3518 8.48536 12.0226 8.48536C12.8484 8.48536 13.4872 9.16812 13.4872 10.0215C13.4872 10.8749 12.8039 11.5574 11.9781 11.5574Z" fill="currentColor"/>
</svg>
