<svg xmlns="http://www.w3.org/2000/svg" viewBox="0 0 24 24">
  <defs>
    <style>.cls-1{fill:#b2bac2;}</style>
  </defs>
  <title>Asset 1</title>
  <g id="Layer_2" data-name="Layer 2">
    <g id="Layer_1-2" data-name="Layer 1">
      <path class="cls-1" d="M12,0A12,12,0,1,0,24,12,12,12,0,0,0,12,0Zm0,23A11,11,0,1,1,23,12,11,11,0,0,1,12,23Z"/>
      <path class="cls-1"
            d="M16,10a4,4,0,0,0-4-4h0a4,4,0,0,0-4,4c0,1.13.7,2.23,1.43,3.55.28.61,2.48,4.31,2.56,4.44h0c.08-.13,2.29-3.83,2.56-4.44C15.29,12.23,16,11.13,16,10Zm-4,1.5A1.52,1.52,0,1,1,13.51,10,1.52,1.52,0,0,1,12,11.5Z"/>
    </g>
  </g>
</svg>
