<svg width="24" height="24" viewBox="0 0 24 24" fill="none" xmlns="http://www.w3.org/2000/svg">
<path d="M13.7578 13.8848V14.9207H18V13.8848H17.1747L14.3666 7L11.9988 11.0198L9.63345 7L6.82294 13.8848H6V14.9207H10.2422V13.8848H9.60698L10.2254 12.1677L11.9988 15L13.7746 12.1677L14.393 13.8848H13.7578Z" fill="currentColor"/>
<path fill-rule="evenodd" clip-rule="evenodd" d="M12 24C18.6274 24 24 18.6274 24 12C24 5.37259 18.6274 0 12 0C5.37258 0 0 5.37259 0 12C0 18.6274 5.37258 24 12 24ZM12 23C18.0751 23 23 18.0751 23 12C23 5.92487 18.0751 1 12 1C5.92487 1 1 5.92487 1 12C1 18.0751 5.92487 23 12 23Z" fill="currentColor"/>
</svg>
