<svg width="32" height="32" viewBox="0 0 32 32" fill="none" xmlns="http://www.w3.org/2000/svg">
<path d="M2.3407 17.8609L2.33554 17.8558C2.10302 17.6266 1.99366 17.2847 2.06268 16.9276C2.13162 16.5911 2.34381 16.3308 2.67748 16.1928C2.67768 16.1927 2.67787 16.1926 2.67806 16.1925L22.6694 7.96978L22.6698 7.96963C23.062 7.80813 23.4763 7.8908 23.7783 8.19272C24.0802 8.49465 24.1629 8.909 24.0014 9.30122L24.0012 9.30157L15.7785 29.2929C15.7783 29.2933 15.7782 29.2936 15.778 29.294C15.6388 29.6301 15.3738 29.8429 15.0443 29.9081L15.0404 29.9089C14.6924 29.9792 14.3436 29.8708 14.1101 29.6372C13.9981 29.5253 13.916 29.3944 13.8659 29.244L13.8659 29.2439L13.8635 29.2369L11.1883 21.4057L11.0298 20.9414L10.5656 20.7827L2.74813 18.1099C2.57299 18.0468 2.44227 17.9625 2.3407 17.8609Z" stroke="currentColor" stroke-width="2"/>
</svg>
