<svg xmlns="http://www.w3.org/2000/svg" width="657" height="253" viewBox="0 0 657 253">
    <path fill="#F7F7F7" fill-rule="evenodd" d="M172.693 145.814h28.898v52.897h-28.898v49.765h-59.537V198.71H0v-59.857L108.63 4.872h64.063v140.942zm-116.637 0h59.537v-71.34h-6.963l-52.574 64.38v6.96zM328.674 0c55.708 0 98.88 37.237 98.88 126.326 0 89.09-43.172 126.674-98.88 126.674-55.707 0-98.88-37.585-98.88-126.674C229.793 37.236 272.966 0 328.673 0zm0 198.363c34.12 0 36.558-45.937 36.558-72.037 0-26.1-2.437-71.69-36.558-71.69-34.12 0-36.558 45.59-36.558 71.69 0 26.1 2.437 72.037 36.558 72.037zm299.428-52.549H657v52.897h-28.898v49.765h-59.538V198.71H455.41v-59.857L564.039 4.872h64.063v140.942zm-116.638 0h59.538v-71.34h-6.964l-52.574 64.38v6.96z"/>
</svg>
