<svg width="1440" height="781" viewBox="0 0 1440 781" fill="none" xmlns="http://www.w3.org/2000/svg">
<path d="M1608.8 362.515C1783.67 309.013 1947.36 263.474 2085 227.021V0H1077.62C1220.22 113.286 1393.35 236.667 1592.67 353.093C1598.13 356.234 1603.46 359.374 1608.8 362.515Z" fill="url(#paint0_linear)"/>
<path d="M293.638 656.834C172.385 538.389 67.3902 415.569 0 332.455V781H429.163C387.462 745.22 341.915 703.831 293.638 656.834Z" fill="url(#paint1_linear)"/>
<path d="M1608.8 362.515C1603.46 359.374 1598.13 356.346 1592.79 353.205C1393.35 236.667 1220.22 113.286 1077.62 0H0V332.455C67.3902 415.569 172.385 538.389 293.637 656.834C341.791 703.831 387.462 745.22 429.162 781H517.651C644.116 715.72 883.395 605.014 1267.01 473.109C1382.8 433.291 1498.1 396.389 1608.8 362.515Z" fill="url(#paint2_linear)"/>
<path d="M1267.01 473.109C883.271 605.014 644.116 715.72 517.651 781H2085V621.951C1957.79 558.13 1799.55 473.446 1608.8 362.515C1498.1 396.389 1382.8 433.291 1267.01 473.109Z" fill="url(#paint3_linear)"/>
<defs>
<linearGradient id="paint0_linear" x1="1648.9" y1="-512.958" x2="1552.27" y2="583.615" gradientUnits="userSpaceOnUse">
<stop stop-color="#3E6CD5"/>
<stop offset="1" stop-color="#578AFF"/>
</linearGradient>
<linearGradient id="paint1_linear" x1="766.598" y1="-199.699" x2="-254.781" y2="1513.9" gradientUnits="userSpaceOnUse">
<stop stop-color="#3E6CD5"/>
<stop offset="1" stop-color="#578AFF"/>
</linearGradient>
<linearGradient id="paint2_linear" x1="-168.405" y1="431.942" x2="1771.21" y2="201.566" gradientUnits="userSpaceOnUse">
<stop stop-color="#3E6CD5"/>
<stop offset="1" stop-color="#578AFF"/>
</linearGradient>
<linearGradient id="paint3_linear" x1="1136.55" y1="1512.86" x2="1507.16" y2="-502.531" gradientUnits="userSpaceOnUse">
<stop stop-color="#3E6CD5"/>
<stop offset="1" stop-color="#578AFF"/>
</linearGradient>
</defs>
</svg>
