<svg width="37" height="40" viewBox="0 0 37 40" fill="none" xmlns="http://www.w3.org/2000/svg">
<g clip-path="url(#clip0)">
<path d="M15.358 20.7346H11.5653C11.5185 20.7346 11.5185 20.7831 11.5185 20.7831C11.4249 22.578 11.0971 24.4698 10.6289 26.0707V26.1192L10.6757 26.1677H11.9867C12.0336 26.1677 12.0336 26.1677 12.0336 26.1192C12.4081 24.9064 12.6891 23.3541 12.7827 21.9958H14.047V26.0707C14.047 26.1192 14.0938 26.1192 14.0938 26.1192H15.358C15.4048 26.1192 15.4048 26.0707 15.4048 26.0707L15.358 20.7346C15.4516 20.7346 15.4048 20.7346 15.358 20.7346ZM31.4652 20.7346H30.201C30.1541 20.7346 30.1541 20.7831 30.1541 20.7831V24.8579C29.8732 24.9549 29.5922 24.9549 29.3113 24.9549C28.4685 24.9549 28.2812 24.7124 28.2812 23.5482V20.7346C28.2812 20.6861 28.2344 20.6861 28.2344 20.6861H26.9701C26.9233 20.6861 26.9233 20.7346 26.9233 20.7346V23.7422C26.9233 25.5856 27.532 26.3132 29.0772 26.3132C29.9668 26.3132 30.9501 26.0707 31.512 25.8281C31.5588 25.8281 31.5588 25.7796 31.5588 25.7796V20.7831C31.5588 20.7346 31.512 20.7346 31.4652 20.7346ZM5.15055 20.7346H3.88632C3.8395 20.7346 3.8395 20.7346 3.8395 20.7831C3.65221 21.6077 3.2308 22.966 2.71574 24.3728L1.4047 20.7831C1.4047 20.7346 1.35787 20.7346 1.35787 20.7346H0.0468232C0.0468232 20.7346 0 20.7346 0 20.7831V20.8316L1.91975 26.2162C1.73246 26.6528 1.54516 26.9924 1.35787 27.2834C1.2174 27.526 1.12376 27.7685 0.983287 28.0111V28.0596L1.03011 28.1081H2.43481C2.48163 28.1081 2.48163 28.1081 2.48163 28.0596C2.71574 27.5745 2.99668 26.9439 3.27762 26.2647C4.07362 24.2758 4.72914 22.4324 5.15055 20.7346C5.19737 20.7346 5.15055 20.7346 5.15055 20.7346ZM9.6924 24.8579C9.64558 24.8579 9.64558 24.8579 9.6924 24.8579C9.64558 24.8094 9.59875 24.8094 9.59875 24.8094C9.31781 24.9064 8.70911 25.0035 8.33453 25.0035C7.49171 25.0035 7.0703 24.7609 7.0703 23.4026C7.0703 22.2869 7.21077 21.8018 8.33453 21.8018C8.66229 21.8018 8.94323 21.8503 9.36464 21.9473C9.41146 21.9473 9.41146 21.9473 9.45828 21.8988C9.59875 21.6077 9.78604 21.2682 9.97334 20.8801V20.8316L9.92651 20.7831C9.41146 20.6375 8.80276 20.5405 8.2877 20.5405C6.4616 20.5405 5.6656 21.4137 5.6656 23.4026C5.6656 25.44 6.4616 26.3132 8.2877 26.3132C8.75593 26.3132 9.64557 26.2162 10.067 26.0222C10.1138 26.0222 10.1138 25.9737 10.1138 25.9251L9.6924 24.8579ZM21.4918 20.7346H20.2276C20.1808 20.7346 20.1808 20.7346 20.1808 20.7831C19.9935 21.6077 19.5721 22.966 19.057 24.3728L17.7928 20.7831C17.7928 20.7346 17.746 20.7346 17.746 20.7346H16.3881C16.3881 20.7346 16.3413 20.7346 16.3413 20.7831V20.8316L18.261 26.2162C18.0737 26.6528 17.8865 26.9924 17.6992 27.2834C17.5587 27.526 17.465 27.7685 17.3246 28.0111V28.0596L17.3714 28.1081H18.7761C18.8229 28.1081 18.8229 28.1081 18.8229 28.0596C19.057 27.5745 19.338 26.9439 19.6189 26.2647C20.4149 24.3243 21.0704 22.4324 21.4918 20.7346C21.5387 20.7346 21.4918 20.7346 21.4918 20.7346ZM26.1273 20.7346H22.4751C22.4283 20.7346 22.4283 20.7831 22.4283 20.7831V26.0707C22.4283 26.1192 22.4751 26.1192 22.4751 26.1192H23.7394C23.7862 26.1192 23.7862 26.0707 23.7862 26.0707V21.9958H25.7059C25.7527 21.9958 25.7527 21.9958 25.7527 21.9473C25.8932 21.6077 26.0337 21.2197 26.221 20.8316V20.7831C26.1742 20.7346 26.1742 20.7346 26.1273 20.7346Z" fill="#EF3E58"/>
<path d="M6.43463 12.973C4.70047 12.973 4.01594 13.6998 4.01594 15.653C4.01594 17.6062 4.70047 18.333 6.43463 18.333C8.21442 18.333 8.89896 17.5608 8.89896 15.653C8.89896 13.6998 8.21442 12.973 6.43463 12.973ZM6.43463 17.1974C5.65882 17.1974 5.38501 16.9703 5.38501 15.653C5.38501 14.1995 5.65882 14.1086 6.43463 14.1086C7.21044 14.1086 7.48425 14.2449 7.48425 15.653C7.52989 17.0157 7.25607 17.1974 6.43463 17.1974ZM13.7363 17.0157C13.7363 17.0157 13.6907 16.9703 13.7363 17.0157C13.6907 16.9703 13.6451 16.9703 13.6451 16.9703C13.3713 17.0611 12.778 17.152 12.4129 17.152C11.5915 17.152 11.1807 16.9249 11.1807 15.653C11.1807 14.6083 11.3176 14.154 12.4129 14.154C12.7324 14.154 13.0062 14.1995 13.4169 14.2903C13.4625 14.2903 13.4625 14.2903 13.5082 14.2449C13.6451 13.9723 13.8276 13.6544 14.0102 13.291V13.2456L13.9645 13.2001C13.4625 13.0639 12.8693 12.973 12.3673 12.973C10.5875 12.973 9.81167 13.7906 9.81167 15.653C9.81167 17.5608 10.5875 18.3784 12.3673 18.3784C12.8236 18.3784 13.6907 18.2876 14.1014 18.1059C14.1471 18.1059 14.1471 18.0605 14.1471 18.015L13.7363 17.0157ZM3.65085 13.1093H0.0456357C0 13.1093 0 13.1547 0 13.1547V18.1059C0 18.1513 0.0456357 18.1513 0.0456357 18.1513H1.2778C1.32343 18.1513 1.32343 18.1059 1.32343 18.1059V14.2903H3.1945C3.24013 14.2903 3.24013 14.2903 3.24013 14.2449C3.37704 13.9269 3.51395 13.5635 3.69649 13.2001V13.1547C3.69649 13.1093 3.65085 13.1093 3.65085 13.1093Z" fill="#0F67B1"/>
<path d="M36.8143 24.9374V24.7099C36.8608 24.0273 36.9072 23.1627 36.9536 22.2071V22.116C36.9536 21.4334 37 20.7509 37 20.0228C37 19.2947 37 18.5666 36.9536 17.9295V17.8385C36.9072 16.8828 36.8608 16.0182 36.8143 15.3356V14.7895C36.7679 14.0614 36.7215 13.6064 36.7215 13.5609C36.7215 13.4699 36.7215 13.4243 36.6751 13.3333V13.2878C36.6751 13.1513 36.6287 13.0148 36.6287 12.9238V12.8783C36.3037 11.3311 35.4218 9.64733 34.3541 8.41866C33.9363 7.91809 33.4721 7.50853 33.0079 7.14448C32.9615 7.09898 32.4509 6.73493 31.5689 6.14334C30.5477 5.46075 29.1551 4.55063 27.5304 3.6405C24.6988 1.95677 22.1457 0.819113 21.8208 0.682594H21.7743C21.0316 0.36405 20.1032 0.136519 19.1284 0.0455063C18.9427 0.0455063 18.7571 0 18.5714 0H17.7822C16.4825 0.0455063 15.2756 0.273038 14.3008 0.682594C14.1615 0.7281 11.6084 1.86576 8.68397 3.54949C8.68397 3.54949 8.63755 3.59499 8.59113 3.59499C5.62027 5.32423 3.25286 7.00796 3.16002 7.09898C2.41731 7.64505 1.76743 8.32764 1.16397 9.19226C1.02471 9.37429 1.02471 9.87486 1.62817 9.87486H3.1136C3.76348 9.87486 3.90274 9.51081 4.59903 9.01024C5.38817 8.46416 6.92002 7.32651 9.79805 5.64278C11.8405 4.45961 13.7901 3.50398 14.7185 3.09443C14.7185 3.09443 14.765 3.09443 14.765 3.04892H14.9042C15.1363 2.95791 15.2756 2.86689 15.2756 2.86689C15.9255 2.59386 16.8538 2.41183 17.8287 2.36633H18.2C18.4785 2.36633 18.7571 2.41183 19.0356 2.41183C19.639 2.50284 20.1497 2.59386 20.6139 2.77588C20.6603 2.77588 20.7067 2.82139 20.7531 2.82139C20.7531 2.82139 20.7995 2.82139 20.8459 2.86689C21.2637 3.04892 23.6776 4.14107 26.2771 5.64278C27.8089 6.50739 29.2015 7.41752 30.1299 8.05461C30.9655 8.60068 31.4761 8.96473 31.4761 9.01024C31.8474 9.28328 32.2188 9.64733 32.5437 10.0569C33.4257 11.149 34.122 12.6507 34.2148 13.7884C34.2148 13.7884 34.2613 14.289 34.3077 15.0171V16.5643C34.3541 17.5654 34.4005 18.7031 34.4005 19.9317C34.4005 21.1604 34.3541 22.3436 34.3077 23.2992V24.8464C34.2613 25.62 34.2148 26.0751 34.2148 26.0751C34.0756 27.2127 33.3793 28.7144 32.5437 29.8066C32.2188 30.2162 31.8474 30.6257 31.4761 30.8532C31.4761 30.8532 30.9655 31.2173 30.1299 31.8089C29.2015 32.446 27.8089 33.3561 26.2771 34.2207C23.6776 35.7224 21.2637 36.8146 20.8459 36.9966C20.7995 36.9966 20.7995 37.0421 20.7531 37.0421C20.7067 37.0421 20.6603 37.0876 20.6139 37.0876C20.1961 37.2696 19.639 37.4061 19.0356 37.4516C18.7571 37.4972 18.4785 37.4972 18.2 37.4972H17.8287C16.8538 37.4972 15.9255 37.3151 15.2756 36.9966C15.2756 36.9966 15.1363 36.9511 14.9042 36.8146C14.8578 36.8146 14.8578 36.7691 14.8114 36.7691C14.8114 36.7691 14.765 36.7691 14.765 36.7235H14.7185C14.7185 36.7235 14.6721 36.7235 14.6721 36.678C14.6257 36.678 14.6257 36.678 14.5793 36.6325C13.6045 36.1775 11.7477 35.2673 9.79805 34.1297C6.92002 32.4915 5.38817 31.3538 4.59903 30.7622C3.90274 30.4437 3.76348 30.0796 3.1136 30.0796H1.67459C1.07113 30.0796 1.11755 30.5802 1.21039 30.7622C1.81385 31.6268 2.46373 32.3094 3.20644 32.8555C3.29928 32.9465 5.66669 34.6303 8.63755 36.3595C8.77681 36.4505 8.96249 36.5415 9.10175 36.6325C11.8405 38.1797 14.2079 39.2264 14.3472 39.3174C15.2756 39.727 16.5289 40 17.8287 40H18.6178C18.8035 40 18.9892 40 19.1748 39.9545C20.1497 39.8635 21.078 39.6359 21.8208 39.3174H21.8672C22.1921 39.1809 24.7452 38.0432 27.5768 36.405C29.1551 35.4949 30.5941 34.5848 31.5689 33.9022C32.4045 33.3106 32.9615 32.9465 33.0079 32.901C33.4721 32.5825 33.9363 32.1274 34.3541 31.6268C35.4218 30.3527 36.3037 28.6689 36.6287 27.1672V27.1217C36.6751 26.9852 36.6751 26.8487 36.6751 26.7577V26.7122C36.6751 26.6212 36.6751 26.5757 36.7215 26.4846C36.7215 26.4391 36.7679 25.9841 36.8143 25.256V24.9374Z" fill="url(#paint0_linear)"/>
</g>
<defs>
<linearGradient id="paint0_linear" x1="19.0629" y1="-0.15504" x2="19.0629" y2="39.936" gradientUnits="userSpaceOnUse">
<stop stop-color="#1466AC"/>
<stop offset="0.4" stop-color="#1466AC"/>
<stop offset="0.66" stop-color="#EF4058"/>
<stop offset="1" stop-color="#EF4058"/>
</linearGradient>
<clipPath id="clip0">
<rect width="37" height="40" fill="white"/>
</clipPath>
</defs>
</svg>
