<?xml version="1.0" encoding="UTF-8"?>
<svg width="1920px" height="1080px" viewBox="0 0 1920 1080" version="1.1" xmlns="http://www.w3.org/2000/svg" xmlns:xlink="http://www.w3.org/1999/xlink">
    <!-- Generator: Sketch 54.1 (76490) - https://sketchapp.com -->
    <title>атомы / фоны / паттерн</title>
    <desc>Created with Sketch.</desc>
    <defs>
        <polygon id="path-1" points="0 0 1920 0 1920 1080 0 1080"></polygon>
    </defs>
    <g id="Page-1" stroke="none" stroke-width="1" fill="none" fill-rule="evenodd">
        <g id="Artboard">
            <g id="атомы-/-фоны-/-паттерн">
                <g id="Bitmap">
                    <mask id="mask-2" fill="white">
                        <use xlink:href="#path-1"></use>
                    </mask>
                    <g id="Mask"></g>
                    <polygon id="Mask-Copy" fill="#F7F7F7" mask="url(#mask-2)" points="0 0 1920 0 1920 1080 0 1080"></polygon>
                    <g id="Group-12" opacity="0.02" mask="url(#mask-2)" fill="#000000" fill-rule="nonzero">
                        <g transform="translate(-1288.000000, -1055.000000)" id="Shape">
                            <path d="M2729.21283,348.42326 C2743.79231,354.296707 2866.98893,410.828636 2837.82997,376.322134 C2807.94203,339.613089 2771.49333,308.777492 2730.67078,285.283704 C672.776915,-901.886793 -939.713777,1918.83618 630.496418,3199.98183 C690.272293,3249.17195 731.823817,3283.67845 745.674324,3284.41263 C764.627651,3285.881 1114.53522,3538.43922 857.936335,3130.23465 C-115.973053,1585.51806 1040.17986,-478.998602 2729.21283,348.42326 M3456,1575.23952 L3456,1574.50534 C3436.3177,1347.64345 3373.62593,1126.655 3270.84058,923.286896 C2605.28723,117.15628 45.8591957,947.514865 921.357081,3031.12023 C948.329122,3094.99396 984.048853,3130.96883 1001.54423,3119.22193 C1019.03961,3107.47504 1099.22676,3100.13323 1090.47907,3037.72786 C857.936335,1407.1121 2885.94226,1017.99623 3456,1575.23952 M1392.27434,3261.65303 C1406.12485,3307.17224 1405.39588,3325.52676 1419.24639,3332.13439 C1425.80715,3335.07111 1610.2376,3390.86886 1615.34042,3343.88129 C1673.65834,2841.70156 3033.924,2321.16731 3125.77474,2752.13149 C3246.78444,2569.32045 3372.89695,2386.50941 3421.73822,2161.11587 C3423.19617,2129.5461 3433.4018,2119.26756 3433.4018,2119.26756 C3312.3921,1726.48079 1048.92755,2118.53338 1392.27434,3261.65303" opacity="0.4"></path>
                            <path d="M942.563392,211.167508 C992.232597,165.021037 1040.46211,121.072017 1022.46603,118.142082 C1008.789,115.944632 959.839637,139.384109 892.894187,178.205743 C-359.633586,903.364568 -64.4977316,3157.94928 1566.66775,3565.2102 L1566.66775,3566.67516 C1614.17742,3571.07007 1662.40694,3574 1709.91661,3574 C1900.67515,3574 2090.71385,3541.77072 2270.67474,3478.04464 C2429.04032,3417.98098 2518.30092,3371.83451 2669.46806,3276.61163 C2686.02447,3265.62438 2702.58087,3253.90464 2718.41743,3242.1849 C1296.00657,3693.39484 -343.077185,1457.12222 942.563392,211.167508 M1157.48187,398.779241 C1169.02145,336.488507 1176.23369,310.839382 1161.08799,296.182739 C1145.94229,281.526095 1112.04477,318.900536 1070.93502,375.328612 C264.606865,1501.69164 2025.83527,3212.85473 3171.85981,2769.49128 C3295.91029,2577.48925 3383.17837,2362.76943 3428.61546,2137.78996 L3428.61546,2137.05712 C2799.70835,2629.52034 959.145338,1476.04252 1157.48187,398.779241 M1625.68215,234.557692 C1605.4851,191.398809 1587.45201,181.157718 1580.23878,184.083744 C1565.81231,188.472783 1555.71379,204.565926 1546.33658,251.382341 C1425.15427,842.43958 2719.92963,1912.63357 3455.67941,1637.58713 C3456.40074,1620.76248 3455.67941,1608.23834 3455.67941,1583.36788 C3434.04922,1352.56995 3373.36014,1129.41486 3270.93222,926.787565 C3130.9955,1347.40379 1822.60342,633.960232 1625.68215,234.557692 Z"></path>
                        </g>
                    </g>
                </g>
            </g>
        </g>
    </g>
</svg>