<svg width="327" height="401" viewBox="0 0 327 401" fill="none" xmlns="http://www.w3.org/2000/svg">
<g id="&#208;&#147;&#208;&#187;&#208;&#176;&#208;&#178;&#208;&#189;&#208;&#176;&#209;&#143; / &#208;&#154;&#208;&#176;&#209;&#128;&#209;&#130;&#208;&#176; / &#208;&#166;&#208;&#184;&#209;&#132;&#209;&#128;&#208;&#190;&#208;&#178;&#208;&#190;&#208;&#185; Signature">
<g id="Group 28">
<g id="Group 163">
<g id="Group 7">
<path id="Fill 1" fill-rule="evenodd" clip-rule="evenodd" d="M257.218 111.303L252.809 17.9667C252.685 15.3276 250.427 13.3049 247.797 13.4801C227.922 14.8066 152.588 19.8385 145.823 20.3676C141.389 20.715 128.761 22.9327 121.083 33.5594C113.216 44.4478 86.1986 89.346 74.0595 109.636C71.4425 114.01 74.6467 119.558 79.7346 119.469L252.391 116.463C255.164 116.415 257.348 114.079 257.218 111.303Z" fill="#C5CBD8"/>
<path id="Fill 3" fill-rule="evenodd" clip-rule="evenodd" d="M140.999 23.4773C135.558 24.8698 128.2 28.0395 123.115 35.0765C115.611 45.4636 80.3788 103.672 76.7226 110.023C74.6752 113.579 76.1128 117.23 80.6223 117.23L130.345 116.344L140.999 23.4773Z" fill="#E9EEFB"/>
<path id="Fill 5" fill-rule="evenodd" clip-rule="evenodd" d="M250.151 18.314C250.082 16.8636 248.846 15.7518 247.4 15.8478C232.141 16.8658 153.854 21.9395 146.779 22.4877L136.024 116.242L251.972 114.176C253.452 114.151 254.618 112.903 254.549 111.422L250.151 18.314Z" fill="#E9EEFB"/>
</g>
<g id="Group 26">
<g id="Group 10">
<mask id="mask0" mask-type="alpha" maskUnits="userSpaceOnUse" x="75" y="24" width="67" height="94">
<path id="Clip 9" fill-rule="evenodd" clip-rule="evenodd" d="M123.328 35.7484C115.802 46.076 80.4683 103.951 76.8009 110.266C74.7483 113.803 76.19 117.432 80.7125 117.432L130.578 116.551L141.262 24.2156C135.806 25.6001 128.427 28.7516 123.328 35.7484Z" fill="white"/>
</mask>
<g mask="url(#mask0)">
<path id="Fill 8" fill-rule="evenodd" clip-rule="evenodd" d="M96.9679 75.4108L69.8345 118.889L204.524 116.46L257.079 115.731L255.032 68.3062L234.116 68.3375L96.9679 75.4108Z" fill="#D8E7FC"/>
</g>
</g>
<g id="Group 13">
<mask id="mask1" mask-type="alpha" maskUnits="userSpaceOnUse" x="75" y="24" width="67" height="94">
<path id="Clip 12" fill-rule="evenodd" clip-rule="evenodd" d="M123.328 35.7484C115.802 46.076 80.4683 103.951 76.8009 110.266C74.7483 113.803 76.19 117.432 80.7125 117.432L130.578 116.551L141.262 24.2156C135.806 25.6001 128.427 28.7516 123.328 35.7484Z" fill="white"/>
</mask>
<g mask="url(#mask1)">
<path id="Fill 11" fill-rule="evenodd" clip-rule="evenodd" d="M94.0345 77.84C94.0345 77.84 103.365 77.7824 118.968 76.6252C135.345 75.4113 137.758 73.7105 161.257 73.7105C177.879 73.7105 193.901 71.3612 205.257 71.0392C218.994 70.6486 233.046 69.3195 238.053 68.8101C238.389 68.7766 238.41 68.2979 238.078 68.2381C235.386 67.7528 230.226 66.9841 225.301 67.1524C219.965 67.3353 210.39 64.2377 205.257 64.7237C200.124 65.2097 200.124 63.0237 194.745 63.2663C191.562 63.4099 190.101 65.2097 184.968 65.2097C181.876 65.2097 179.59 63.0237 175.679 63.509C171.768 63.995 169.812 65.695 164.924 63.7523C160.035 61.809 161.99 59.1369 152.701 58.4082C143.412 57.6795 139.501 54.2795 131.435 54.5221C119.098 54.8938 112.857 59.8656 112.857 59.8656L94.0345 77.84Z" fill="#D2D8EE"/>
</g>
</g>
<g id="Group 16">
<mask id="mask2" mask-type="alpha" maskUnits="userSpaceOnUse" x="75" y="24" width="67" height="94">
<path id="Clip 15" fill-rule="evenodd" clip-rule="evenodd" d="M123.328 35.7484C115.802 46.076 80.4683 103.951 76.8009 110.266C74.7483 113.803 76.19 117.432 80.7125 117.432L130.578 116.551L141.262 24.2156C135.806 25.6001 128.427 28.7516 123.328 35.7484Z" fill="white"/>
</mask>
<g mask="url(#mask2)">
<path id="Fill 14" fill-rule="evenodd" clip-rule="evenodd" d="M93.8705 79.3943C93.8705 79.3943 103.134 78.2845 118.759 77.4808C135.161 76.6377 137.769 78.0222 161.081 75.0834C177.571 73.0045 193.764 73.3316 205.07 72.2313C218.954 70.8804 233.283 70.449 238.11 70.3353C238.411 70.328 238.479 70.7492 238.193 70.8395C235.649 71.6462 230.487 73.1196 225.447 73.5801C220.131 74.0662 211.023 78.3362 205.87 78.4965C200.716 78.6568 200.993 80.8254 195.626 81.2568C192.45 81.5126 190.404 81.087 185.273 81.24C174.415 81.5643 179.212 84.205 174.09 84.7013C166.573 85.4299 164.233 84.5337 160.707 85.2478C155.547 86.2927 166.96 90.6437 151.907 91.0772C135.532 91.5494 141.96 97.0816 133.927 97.8496C121.642 99.0235 114.82 94.8715 114.82 94.8715L93.8705 79.3943Z" fill="#CBDFFB"/>
</g>
</g>
<g id="Group 25">
<mask id="mask3" mask-type="alpha" maskUnits="userSpaceOnUse" x="75" y="24" width="67" height="94">
<path id="Clip 24" fill-rule="evenodd" clip-rule="evenodd" d="M123.328 35.7484C115.802 46.076 80.4683 103.951 76.8009 110.266C74.7483 113.803 76.19 117.432 80.7125 117.432L130.578 116.551L141.262 24.2156C135.806 25.6001 128.427 28.7516 123.328 35.7484Z" fill="white"/>
</mask>
<g mask="url(#mask3)">
<path id="Fill 23" fill-rule="evenodd" clip-rule="evenodd" d="M207.654 49.4516H118.058L119.772 21.6436C119.772 21.6436 128.338 15.401 143.759 21.6436C150.905 24.5372 154.581 29.117 156.399 32.407C157.372 34.1668 159.634 34.6892 161.352 33.6319C164.639 31.6084 170.454 29.5804 179.169 31.859C186.579 33.7966 191.06 38.6453 193.156 41.5265C194.007 42.6953 195.477 43.2789 196.883 42.9212C199.729 42.1961 204.677 42.0577 208.51 47.8784C208.953 48.5524 208.465 49.4516 207.654 49.4516Z" fill="white"/>
</g>
</g>
</g>
<g id="Group 45">
<g id="Group 29">
<mask id="mask4" mask-type="alpha" maskUnits="userSpaceOnUse" x="136" y="16" width="119" height="102">
<path id="Clip 28" fill-rule="evenodd" clip-rule="evenodd" d="M247.337 16.6548C232.102 17.6815 153.939 22.7985 146.876 23.3514L136.137 117.906L251.902 115.822C253.379 115.796 254.543 114.539 254.473 113.045L250.083 19.142C250.017 17.7384 248.878 16.6489 247.51 16.6489C247.453 16.6489 247.395 16.6504 247.337 16.6548Z" fill="white"/>
</mask>
<g mask="url(#mask4)">
<path id="Fill 27" fill-rule="evenodd" clip-rule="evenodd" d="M97.0071 76.2785L69.9948 120.38L204.083 117.916L256.404 117.177L254.366 69.072L233.543 69.1038L97.0071 76.2785Z" fill="#D8E7FC"/>
</g>
</g>
<g id="Group 32">
<mask id="mask5" mask-type="alpha" maskUnits="userSpaceOnUse" x="136" y="16" width="119" height="102">
<path id="Clip 31" fill-rule="evenodd" clip-rule="evenodd" d="M247.337 16.6548C232.102 17.6815 153.939 22.7985 146.876 23.3514L136.137 117.906L251.902 115.822C253.379 115.796 254.543 114.539 254.473 113.045L250.083 19.142C250.017 17.7384 248.878 16.6489 247.51 16.6489C247.453 16.6489 247.395 16.6504 247.337 16.6548Z" fill="white"/>
</mask>
<g mask="url(#mask5)">
<path id="Fill 30" fill-rule="evenodd" clip-rule="evenodd" d="M94.0868 78.7424C94.0868 78.7424 103.375 78.684 118.909 77.5102C135.213 76.2788 137.615 74.5537 161.009 74.5537C177.557 74.5537 193.508 72.1707 204.813 71.8441C218.489 71.4479 232.478 70.0997 237.463 69.5831C237.797 69.5491 237.818 69.0634 237.488 69.0028C234.808 68.5106 229.67 67.7308 224.768 67.9015C219.456 68.0871 209.923 64.945 204.813 65.438C199.703 65.931 199.703 63.7136 194.348 63.9597C191.179 64.1054 189.725 65.931 184.614 65.931C181.536 65.931 179.261 63.7136 175.367 64.2059C171.473 64.6989 169.526 66.4233 164.66 64.4527C159.792 62.4815 161.739 59.7711 152.492 59.032C143.244 58.2928 139.351 54.8441 131.32 55.0902C119.039 55.4671 112.825 60.5102 112.825 60.5102L94.0868 78.7424Z" fill="#D2D8EE"/>
</g>
</g>
<g id="Group 35">
<mask id="mask6" mask-type="alpha" maskUnits="userSpaceOnUse" x="136" y="16" width="119" height="102">
<path id="Clip 34" fill-rule="evenodd" clip-rule="evenodd" d="M247.337 16.6548C232.102 17.6815 153.939 22.7985 146.876 23.3514L136.137 117.906L251.902 115.822C253.379 115.796 254.543 114.539 254.473 113.045L250.083 19.142C250.017 17.7384 248.878 16.6489 247.51 16.6489C247.453 16.6489 247.395 16.6504 247.337 16.6548Z" fill="white"/>
</mask>
<g mask="url(#mask6)">
<path id="Fill 33" fill-rule="evenodd" clip-rule="evenodd" d="M93.9236 80.3191C93.9236 80.3191 103.146 79.1934 118.701 78.3781C135.03 77.523 137.627 78.9273 160.834 75.9464C177.251 73.8377 193.371 74.1695 204.626 73.0534C218.449 71.6831 232.714 71.2455 237.519 71.1302C237.819 71.1228 237.887 71.55 237.602 71.6417C235.069 72.4599 229.93 73.9544 224.913 74.4216C219.62 74.9146 210.554 79.2459 205.423 79.4085C200.292 79.5711 200.568 81.7707 195.225 82.2083C192.063 82.4677 190.027 82.0361 184.918 82.1913C174.109 82.5202 178.884 85.1988 173.785 85.7022C166.302 86.4413 163.972 85.5322 160.461 86.2565C155.325 87.3164 166.687 91.7298 151.701 92.1696C135.399 92.6485 141.798 98.26 133.801 99.039C121.571 100.23 114.779 96.0182 114.779 96.0182L93.9236 80.3191Z" fill="#CBDFFB"/>
</g>
</g>
<g id="Group 38">
<mask id="mask7" mask-type="alpha" maskUnits="userSpaceOnUse" x="136" y="16" width="119" height="102">
<path id="Clip 37" fill-rule="evenodd" clip-rule="evenodd" d="M247.337 16.6548C232.102 17.6815 153.939 22.7985 146.876 23.3514L136.137 117.906L251.902 115.822C253.379 115.796 254.543 114.539 254.473 113.045L250.083 19.142C250.017 17.7384 248.878 16.6489 247.51 16.6489C247.453 16.6489 247.395 16.6504 247.337 16.6548Z" fill="white"/>
</mask>
<g mask="url(#mask7)">
<path id="Fill 36" fill-rule="evenodd" clip-rule="evenodd" d="M170.744 118.594C170.744 118.594 160.902 113.42 160.523 103.646C160.218 95.7856 164.877 90.9975 172.637 89.0809C180.398 87.1651 177.748 82.3741 177.369 78.5409C176.84 73.1712 180.398 65.7015 187.59 65.3179C194.406 64.955 193.635 60.0849 201.787 58.2274C209.359 56.503 216.362 58.4189 222.041 65.5101C227.72 72.6006 232.081 75.526 236.995 75.8579C242.674 76.2415 248.92 72.2169 254.031 77.9659L255.734 116.869L170.744 118.594Z" fill="#C3CBE8"/>
</g>
</g>
<g id="Group 41">
<mask id="mask8" mask-type="alpha" maskUnits="userSpaceOnUse" x="136" y="16" width="119" height="102">
<path id="Clip 40" fill-rule="evenodd" clip-rule="evenodd" d="M247.337 16.6548C232.102 17.6815 153.939 22.7985 146.876 23.3514L136.137 117.906L251.902 115.822C253.379 115.796 254.543 114.539 254.473 113.045L250.083 19.142C250.017 17.7384 248.878 16.6489 247.51 16.6489C247.453 16.6489 247.395 16.6504 247.337 16.6548Z" fill="white"/>
</mask>
<g mask="url(#mask8)">
<path id="Fill 39" fill-rule="evenodd" clip-rule="evenodd" d="M179.706 35.996H251.993C251.993 35.996 251.446 15.6699 251.354 12.4362C244.125 11.2381 239.451 14.593 237.401 16.5642C236.641 17.2952 235.562 17.5746 234.562 17.2553C232.008 16.4386 226.762 15.3979 220.874 17.8873C216.383 19.7861 214.02 22.6746 212.842 24.81C212.187 25.9992 210.679 26.3348 209.528 25.6311C207.409 24.3347 203.722 23.0797 198.242 24.5394C193.338 25.8462 190.441 29.1856 189.165 31.0298C188.703 31.6964 187.87 32.0113 187.095 31.7911C185.266 31.2685 181.859 31.046 179.307 35.2628C179.113 35.5813 179.337 35.996 179.706 35.996Z" fill="white"/>
</g>
</g>
<g id="Group 44">
<mask id="mask9" mask-type="alpha" maskUnits="userSpaceOnUse" x="136" y="16" width="119" height="102">
<path id="Clip 43" fill-rule="evenodd" clip-rule="evenodd" d="M247.337 16.6548C232.102 17.6815 153.939 22.7985 146.876 23.3514L136.137 117.906L251.902 115.822C253.379 115.796 254.543 114.539 254.473 113.045L250.083 19.142C250.017 17.7384 248.878 16.6489 247.51 16.6489C247.453 16.6489 247.395 16.6504 247.337 16.6548Z" fill="white"/>
</mask>
<g mask="url(#mask9)">
<path id="Fill 42" fill-rule="evenodd" clip-rule="evenodd" d="M207.2 49.947H118.003L119.709 21.7403C119.709 21.7403 128.238 15.4082 143.589 21.7403C150.704 24.6754 154.364 29.3208 156.173 32.658C157.141 34.443 159.394 34.973 161.104 33.9005C164.376 31.8479 170.166 29.7909 178.841 32.1022C186.218 34.0675 190.679 38.9857 192.766 41.9082C193.613 43.0938 195.076 43.6858 196.476 43.3229C199.31 42.5875 204.236 42.447 208.052 48.3512C208.493 49.0349 208.006 49.947 207.2 49.947Z" fill="white"/>
</g>
</g>
</g>
<g id="Group 84">
<path id="Fill 46" fill-rule="evenodd" clip-rule="evenodd" d="M138.142 126.072L253.029 124.296C256.46 124.235 259.321 126.907 259.504 130.339L261.721 174.764C261.964 179.319 257.908 182.912 253.426 182.114L144.979 162.871C135.354 161.156 128.672 152.305 129.644 142.559L130.768 132.877C131.148 129.063 134.318 126.139 138.142 126.072Z" fill="#C5CBD8"/>
<path id="Fill 48" fill-rule="evenodd" clip-rule="evenodd" d="M259.707 134.401L259.504 130.339C259.321 126.907 256.46 124.236 253.029 124.296L138.142 126.072C134.318 126.139 131.148 129.063 130.768 132.877L130.359 136.4L259.707 134.401Z" fill="#D8DDEA"/>
<path id="Fill 50" fill-rule="evenodd" clip-rule="evenodd" d="M251.32 147.789C251.32 150.091 249.457 151.958 247.159 151.958C244.861 151.958 242.998 150.091 242.998 147.789C242.998 145.486 244.861 143.62 247.159 143.62C249.457 143.62 251.32 145.486 251.32 147.789Z" fill="#D8DDEA"/>
<path id="Fill 52" fill-rule="evenodd" clip-rule="evenodd" d="M196.154 148.457C196.154 146.921 194.95 145.679 193.438 145.597L166.618 145.582L166.606 145.581C164.86 145.495 163.168 146.387 162.372 147.947C160.486 151.644 163.117 155.326 166.606 155.326C167.89 155.326 169.055 154.825 169.923 154.009C170.636 153.34 171.575 152.966 172.549 152.881L193.438 151.316C194.95 151.234 196.154 149.991 196.154 148.457Z" fill="#D8DDEA"/>
<mask id="mask10" mask-type="alpha" maskUnits="userSpaceOnUse" x="0" y="0" width="327" height="401">
<path id="Clip 55" fill-rule="evenodd" clip-rule="evenodd" d="M0.5 400.212H326.349V0.580322H0.5V400.212Z" fill="white"/>
</mask>
<g mask="url(#mask10)">
<path id="Fill 54" fill-rule="evenodd" clip-rule="evenodd" d="M204.941 172.435H217.667V168.143H204.941V172.435Z" fill="#E09595"/>
<path id="Fill 56" fill-rule="evenodd" clip-rule="evenodd" d="M121.85 278.373C121.85 278.373 151.328 279.495 173.247 270.035C189.155 263.169 208.98 249.927 214.119 238.156L203.595 202.843L109.613 224.914L121.85 278.373Z" fill="#C5CBD8"/>
<path id="Stroke 57" d="M32.28 39.2437C32.28 39.2437 24.257 44.7848 26.4869 53.7006C29.1287 64.2643 34.5987 83.1714 34.5987 83.1714" stroke="#C5CBD8" stroke-width="6"/>
<path id="Stroke 58" d="M63.8521 39.2437C63.8521 39.2437 55.8291 44.7848 58.059 53.7006C60.7008 64.2643 66.1708 83.1714 66.1708 83.1714" stroke="#C5CBD8" stroke-width="6"/>
<path id="Fill 59" fill-rule="evenodd" clip-rule="evenodd" d="M44.5107 73.2397H108.022L96.6413 24.3167C96.6413 24.3167 45.7347 19.4737 40.8395 18.983C37.9173 18.6902 31.9061 18.4923 26.6446 19.7186C23.4235 20.469 40.4254 72.9667 44.5107 73.2397Z" fill="#D8DDEA"/>
<path id="Fill 60" fill-rule="evenodd" clip-rule="evenodd" d="M40.8367 18.9827C37.9137 18.6906 31.9047 18.4927 26.6439 19.7184C23.4236 20.4695 40.4255 72.9664 44.5108 73.2394H93.3373C76.182 55.4145 58.2578 36.7597 40.8367 18.9827Z" fill="#C5CBD8"/>
<path id="Fill 61" fill-rule="evenodd" clip-rule="evenodd" d="M51.6081 62.6947C49.694 56.1412 45.2944 40.1695 41.9059 28.4773C40.0571 22.0997 34.5981 17.1433 23.9025 20.2921C20.7292 21.2264 17.8972 22.1092 10.886 24.3656C5.61642 26.062 3.29991 30.5534 4.40273 34.5239C5.50628 38.4951 10.3757 40.9037 15.3465 39.3676L19.6366 38.128C24.0207 36.7729 28.6633 39.2764 29.9482 43.6898L36.4337 67.3538C37.5813 71.2926 41.6357 74.1486 46.224 72.8714C50.6294 71.6458 53.0766 67.7216 51.6081 62.6947Z" fill="#C5CBD8"/>
<path id="Fill 62" fill-rule="evenodd" clip-rule="evenodd" d="M70.9431 78.512L24.4418 79.3705C24.4418 79.3705 -6.39602 77.4084 1.92505 110.759C5.63808 125.642 16.2786 152.434 23.4623 180.036C26.4052 191.343 28.7914 202.292 30.6689 211.888C34.5559 223.411 40.0597 234.3 46.9784 244.324L120.381 237.91L70.9431 78.512Z" fill="#C5CBD8"/>
<path id="Fill 63" fill-rule="evenodd" clip-rule="evenodd" d="M48.4267 158.947C39.436 126.61 31.4475 102.373 27.6236 92.3674C23.2182 80.8414 -5.90665 79.8608 1.92543 110.759C5.69352 125.628 16.279 152.434 23.4627 180.037C26.4055 191.343 28.7918 202.292 30.6685 211.888C32.5797 221.664 39.0043 237.481 46.9905 244.342L64.8243 242.815C63.6004 233.809 57.9717 193.279 48.4267 158.947Z" fill="#C5CBD8"/>
<path id="Fill 64" fill-rule="evenodd" clip-rule="evenodd" d="M119.035 93.103L103.984 96.4136L128.58 198.674L149.873 192.053L119.035 93.103Z" fill="#D8DDEA"/>
<path id="Fill 65" fill-rule="evenodd" clip-rule="evenodd" d="M155.931 158.395C153.038 157.768 150.975 156.514 150.24 153.981L137.942 126.577C137.942 126.577 127.296 161.338 145.651 178.258C151.357 180.276 162.457 180.705 172.828 180.577C173.345 175.364 174 168.492 175.556 163.384C168.8 161.62 162.722 159.866 155.931 158.395Z" fill="#23478D"/>
<path id="Fill 66" fill-rule="evenodd" clip-rule="evenodd" d="M111.571 94.5745C111.571 94.5745 125.559 121.144 127.234 125.964C131.976 139.603 127.452 154.481 128.581 164.097C129.359 170.727 140.55 180.406 144.645 185.672C147.031 188.741 149.017 190.949 149.017 190.949L160.153 187.639L148.817 178.637C144.856 175.868 143.382 171.317 143.143 167.162C142.672 158.998 144.329 144.619 143.877 136.018C142.898 117.381 142.898 119.833 127.663 98.9886C125.493 96.0209 125.277 93.1031 119.77 87.9534C115.325 83.7975 108.083 77.9907 108.083 77.9907L111.571 94.5745Z" fill="#2474CD"/>
<path id="Fill 67" fill-rule="evenodd" clip-rule="evenodd" d="M148.817 178.638C144.856 175.868 143.627 170.582 143.387 166.426C143.105 161.517 143.857 155.01 143.632 148.28C138.431 154.202 134.118 160.216 129.19 166.366C131.72 172.786 140.996 180.98 144.645 185.672C147.031 188.741 149.017 190.949 149.017 190.949L160.152 187.639L148.817 178.638Z" fill="#245EAD"/>
<path id="Fill 68" fill-rule="evenodd" clip-rule="evenodd" d="M271.879 324.415C271.879 324.415 275.794 326.821 279.145 332.66C281.55 336.854 282.872 341.35 282.934 341.504C282.996 341.658 283.139 342.064 283.702 341.962C284.182 341.874 284.24 341.474 284.204 341.276C284.179 341.135 283.516 337.328 283.353 333.632C283.304 332.515 283.311 331.469 283.345 330.553C283.423 328.439 286.992 330.361 286.992 330.361L271.879 324.415Z" fill="#42426C"/>
<path id="Fill 69" fill-rule="evenodd" clip-rule="evenodd" d="M316.682 330.499C308.606 327.189 295.619 313.625 285.985 301.326C281.82 296.009 280.165 293.13 274.29 277.805C270.222 267.191 264.502 242.74 253.484 212.799C251.08 206.265 249.32 196.099 247.912 188.844C246.815 183.187 246.03 181.336 243.152 176.344C239.319 169.694 227.27 170.036 227.27 170.036L227.014 199.451C227.014 199.451 216.132 218.335 230.639 247.964C240.184 267.46 254.501 276.656 268.085 302.405C270.439 306.868 269.646 311.939 268.697 316.629C267.718 323.127 282.351 321.306 298.923 337.718C303.913 342.66 321.68 332.547 316.682 330.499Z" fill="#E09595"/>
<path id="Fill 70" fill-rule="evenodd" clip-rule="evenodd" d="M326.209 333.557C325.237 331.444 318.599 331.135 316.713 330.449C309.033 330.097 303.206 328.659 285.331 318.74C272.947 311.868 271.19 311.595 269.366 312.09C268.185 316.997 268.228 320.615 270.385 323.001C274.865 327.958 288.492 327.93 294.439 336.564C296.606 339.708 299.767 341.329 304.906 341.183C307.777 341.102 313.039 340.616 317.262 339.783C322.683 338.715 327.209 335.732 326.209 333.557Z" fill="#42426C"/>
<path id="Fill 71" fill-rule="evenodd" clip-rule="evenodd" d="M187.931 204.191C187.931 204.191 224.516 200.869 231.048 203.46C236.5 205.622 239.68 210.175 243.429 221.441C247.176 232.709 246.154 234.757 247.858 246.023C249.562 257.291 255.298 279.628 260.125 302.359C263.533 318.405 265.918 329.672 267.28 335.476C269.157 343.466 272.634 349.316 276.14 354.937C281.252 363.132 288.017 372.976 291.02 376.447C295.45 381.568 299.482 385.153 302.832 388.51C306.074 391.758 292.951 400.005 286.476 398.867C278.173 397.408 272.627 396.059 268.814 388.738C264.725 380.886 265.321 376.703 257.484 370.216C248.001 362.366 248.54 357.327 249.902 351.865C251.266 346.402 253.146 344.15 250.925 339.232C237.614 309.762 228.069 301.67 220.36 284.013C212.347 265.662 217.79 245.39 207.388 246.554C200.535 246.8 185.346 236.119 187.931 204.191Z" fill="#FFAEAE"/>
<path id="Fill 72" fill-rule="evenodd" clip-rule="evenodd" d="M303.968 388.51C301.261 386.359 296.585 382.735 293.519 379.236C295.563 381.796 298.446 386.042 296.585 387.372C294.2 389.079 278.526 387.031 271.029 379.178C257.157 364.646 251.947 359.035 250.763 348.793C250.488 349.709 250.191 350.71 249.902 351.865C248.54 357.327 248.079 363.549 257.825 371.07C265.236 376.788 265.49 382.834 268.871 389.079C272.505 395.794 274.48 397.354 282.728 399.095C289.202 400.46 296.471 400.573 302.605 399.436C310.055 398.054 310.556 393.746 303.968 388.51Z" fill="#535785"/>
<path id="Fill 73" fill-rule="evenodd" clip-rule="evenodd" d="M189.889 225.771C193.56 221.621 202.538 213.642 209.694 208.203C214.542 204.518 223.58 202.254 231.502 203.699C234.511 204.248 230.388 170.524 230.388 170.524C230.388 170.524 227.06 169.311 214.15 171.203C205.75 172.435 193.744 175.171 193.744 175.171C193.744 175.171 188.91 177.429 187.442 202.333C187.088 208.333 187.532 219.426 189.889 225.771Z" fill="#E09595"/>
<path id="Fill 74" fill-rule="evenodd" clip-rule="evenodd" d="M252.458 365.863C252.458 365.863 255.767 369.319 257.924 374.868C259.182 378.102 260.991 384.911 260.991 384.911C260.991 384.911 261.111 385.601 261.85 385.516C262.404 385.452 262.596 385.025 262.532 384.491C262.491 384.15 261.923 379.225 262.013 376.404C262.104 373.583 262.34 371.838 262.34 371.838L252.458 365.863Z" fill="#535785"/>
<path id="Fill 75" fill-rule="evenodd" clip-rule="evenodd" d="M185.056 106.345L198.805 84.5023C199.495 83.5393 200.556 82.7609 201.791 82.7256L211.282 82.449C211.618 82.4585 211.871 82.5078 212.133 82.6447L212.911 83.156C213.17 83.3399 213.232 83.5856 213.095 83.8615L201.301 106.058L185.056 106.345Z" fill="#423748"/>
<path id="Fill 76" fill-rule="evenodd" clip-rule="evenodd" d="M85.1384 205.663C85.1384 205.663 115.3 190.613 193.446 173.938C193.903 173.84 194.384 173.951 194.751 174.241L195.236 174.626C195.236 174.626 194.925 174.696 194.583 174.774C194.166 174.868 193.843 175.193 193.76 175.612C192.902 179.918 191.162 192.03 193.071 213.265C194.363 227.64 201.392 234.845 207.511 246.616C189.155 245.39 186.952 242.447 168.841 247.842C140.407 256.312 118.719 257.077 101.781 252.011C77.1845 244.654 85.1384 205.663 85.1384 205.663Z" fill="#42426C"/>
<path id="Fill 77" fill-rule="evenodd" clip-rule="evenodd" d="M85.3829 221.603C85.3829 221.603 82.5304 202.723 82.3233 184.696C81.9562 152.694 68.6181 156.986 51.1184 112.231C47.351 102.595 46.7218 86.7469 64.3346 78.8802C74.492 74.3432 82.3233 70.6648 82.3233 70.6648C82.3233 70.6648 85.8535 82.1915 97.3752 96.0459C108.389 109.288 120.232 118.4 124.053 133.076C128.458 149.997 121.269 161.548 121.605 172.557C121.605 172.557 129.323 184.647 132.864 189.968C138.738 198.797 135.555 207.625 125.521 210.568L85.3829 221.603Z" fill="#2474CD"/>
<path id="Fill 78" fill-rule="evenodd" clip-rule="evenodd" d="M58.2728 128.525C72.133 156.496 82.0084 157.222 82.3234 184.696C82.5305 202.723 85.383 221.603 85.383 221.603L109.613 214.982C113.774 195.118 119.776 192.988 117.2 181.631C111.673 154.636 77.1896 144.326 58.2728 128.525Z" fill="#245EAD"/>
<path id="Fill 79" fill-rule="evenodd" clip-rule="evenodd" d="M108.634 89.4247C108.634 89.5866 110.537 95.9848 114.107 101.894C116.921 106.553 120.871 111.311 123.074 112.783C123.569 113.114 124.504 113.308 123.59 111.887C120.504 107.081 117.017 100.276 115.181 93.2871C113.178 85.6632 113.162 79.8608 110.959 73.3625C104.718 78.6345 108.634 89.4247 108.634 89.4247Z" fill="white"/>
<path id="Fill 80" fill-rule="evenodd" clip-rule="evenodd" d="M101.414 124.002L112.522 142.352C114.084 144.931 116.747 146.643 119.737 146.988L124.542 147.544L112.06 160.05L101.414 124.002Z" fill="#245EAD"/>
<path id="Fill 81" fill-rule="evenodd" clip-rule="evenodd" d="M110.469 91.6317C110.469 91.6317 111.536 87.8393 111.326 81.945C111.143 76.7952 110.347 72.9946 110.347 72.9946C110.347 72.9946 107.104 77.5309 108.695 90.1603C108.804 91.0204 110.469 91.6317 110.469 91.6317Z" fill="#2474CD"/>
<path id="Fill 82" fill-rule="evenodd" clip-rule="evenodd" d="M162.294 115.542L169.715 108.773C170.577 107.987 171.348 107.11 172.049 106.177C173.466 104.29 175.179 102.451 177.897 100.767C181.262 98.6819 182.87 98.4869 185.471 96.8832C188.421 95.0653 190.623 93.8389 191.908 91.5708C191.96 91.4788 192.008 91.3913 192.051 91.3081C192.343 90.7461 193.076 90.5187 193.573 90.9109C194.586 91.7106 195.098 93.5115 194.111 96.2299C193.7 97.3621 192.459 99.2955 190.868 100.705C189.441 101.97 186.708 104.077 186.708 104.077L194.734 102.435C195.777 102.103 196.743 101.566 197.577 100.856L201.392 97.7012C202.875 96.4388 203.391 96.1482 204.451 94.5135L207.097 90.3753C207.893 89.1467 209.381 88.5596 210.8 88.9157L212.1 89.3019L211.977 101.319C211.977 103.28 210.975 104.982 209.387 106.502L203.581 112.064C201.717 113.85 199.356 115.026 196.809 115.437L182.473 117.146C181.522 117.259 180.624 117.643 179.884 118.251L174.898 122.347L162.294 115.542Z" fill="#E09595"/>
<path id="Fill 83" fill-rule="evenodd" clip-rule="evenodd" d="M82.3871 72.0216C85.888 69.0148 88.4013 58.3592 86.3623 53.8664C83.5289 47.6241 75.8789 27.6429 83.6823 31.4714C92.7053 35.8987 118.067 70.3162 115.191 71.4367C108.439 74.0675 109.163 83.1002 109.538 94.7513C109.768 101.898 75.5279 77.9122 82.3871 72.0216Z" fill="#E09595"/>
</g>
</g>
<g id="Group 87">
<mask id="mask11" mask-type="alpha" maskUnits="userSpaceOnUse" x="86" y="2" width="47" height="71">
<path id="Clip 86" fill-rule="evenodd" clip-rule="evenodd" d="M90.296 50.5477C94.2285 64.534 102.675 71.9298 116.433 72.7138C126.853 73.3077 129.662 47.5236 132.232 34.2111C136.188 13.7253 119.434 3.19073 104.803 2.43561C104.394 2.41416 103.996 2.40381 103.605 2.40381C79.7371 2.40455 87.3423 41.1299 90.296 50.5477Z" fill="white"/>
</mask>
<g mask="url(#mask11)">
<path id="Fill 85" fill-rule="evenodd" clip-rule="evenodd" d="M90.296 50.5477C94.2285 64.534 102.675 71.9298 116.433 72.7138C126.853 73.3077 129.662 47.5236 132.232 34.2111C136.188 13.7253 119.434 3.19073 104.803 2.43561C104.394 2.41416 103.996 2.40381 103.605 2.40381C79.7371 2.40455 87.3423 41.1299 90.296 50.5477Z" fill="url(#paint0_radial)"/>
</g>
</g>
<g id="Group 99">
<g id="Group 90">
<mask id="mask12" mask-type="alpha" maskUnits="userSpaceOnUse" x="61" y="0" width="74" height="56">
<path id="Clip 89" fill-rule="evenodd" clip-rule="evenodd" d="M61.3589 0.57959H134.277V55.319H61.3589V0.57959Z" fill="white"/>
</mask>
<g mask="url(#mask12)">
<path id="Fill 88" fill-rule="evenodd" clip-rule="evenodd" d="M91.7796 38.6815C91.7796 38.6815 99.1611 42.4633 106.329 42.096C113.401 41.7338 118.57 38.467 122.869 33.097C126.545 28.5056 128.199 24.6489 129.302 22.6287C129.986 21.374 131.059 20.6438 131.507 22.996C132.242 26.8527 131.875 31.3214 131.875 31.3214C131.875 31.3214 134.479 27.2274 134.264 20.9758C134.08 15.6498 130.497 13.4401 129.246 11.9393C127.994 10.4377 124.334 4.29269 116.069 2.05946C109.198 0.202352 97.7423 -1.44098 84.0453 7.23336C83.1242 7.81664 82.4074 8.00029 80.9548 8.05906C77.8091 8.18689 71.2047 8.52995 66.727 12.2229C60.8121 17.1022 60.3306 25.0566 62.6587 30.1747C63.9489 33.0117 65.2876 34.8909 67.2658 36.4174C67.7834 36.8163 67.9539 37.5326 67.6665 38.1188C66.7895 39.9054 66.7953 43.8745 69.669 46.9386C72.2265 49.6647 75.3648 49.606 77.1071 49.2908C78.0304 49.1241 79.0346 49.2328 79.7411 49.5641C82.7191 50.9635 84.3974 53.5435 85.4384 55.3191C85.1326 51.646 81.5179 43.6872 86.522 36.6797L91.7796 38.6815Z" fill="#423748"/>
</g>
</g>
<path id="Fill 91" fill-rule="evenodd" clip-rule="evenodd" d="M95.4101 40.6522C96.4643 45.2847 96.1621 49.8085 93.1767 50.6856C90.1921 51.5627 85.4578 47.2197 84.1434 41.5903C82.965 36.5442 85.4402 32.0256 89.2136 31.9264C93.5862 31.8111 94.4441 36.4025 95.4101 40.6522Z" fill="#FFAEAE"/>
<path id="Fill 93" fill-rule="evenodd" clip-rule="evenodd" d="M80.9666 68.7869C82.8963 66.0321 83.3249 65.9094 83.8336 65.786L84.4276 65.6648C84.4276 65.6648 84.1828 66.3384 83.999 66.8894C83.9086 67.1597 83.8858 67.5337 83.9682 67.8077C84.5504 69.736 86.3272 73.6229 92.3921 79.7452C98.9458 86.3604 105.93 89.5398 109.606 91.621C109.606 91.621 109.714 96.2116 109.576 103.13C109.453 109.252 109.576 112.313 109.576 112.313C109.33 113.843 108.497 114.566 107.187 113.108C100.631 105.824 96.2008 100.616 89.972 93.0902C78.2407 78.9187 78.4701 73.5053 78.6208 71.7746C78.7002 70.8681 80.4314 69.5509 80.9666 68.7869Z" fill="white"/>
<path id="Fill 95" fill-rule="evenodd" clip-rule="evenodd" d="M83.4782 95.5392C102.224 123.455 112.516 152.839 112.516 152.839C112.516 152.839 128.689 142.922 140.084 133.372C143.406 130.588 157.354 117.433 161.219 113.66C161.923 112.972 162.341 112.745 163.301 112.527L164.32 112.321C164.32 112.321 163.631 112.964 163.171 113.445C162.886 113.745 162.882 114.253 163.195 114.525C167.238 118.037 172.03 119.65 174.16 120.164C174.939 120.352 175.982 120.164 176.733 119.552L178.295 118.297L182.84 122.228C183.594 122.995 183.457 123.73 182.124 124.695L162.873 137.412C162.873 137.412 151.478 149.533 144.127 158.716C131.768 174.154 117.539 190.305 109.943 190.305C102.592 190.305 89.3592 175.245 79.4349 162.022C68.3969 147.315 56.659 132.446 48.9268 110.232C46.9662 104.599 47.4565 88.1931 57.7484 83.0508C71.6954 76.0822 81.5087 92.6066 83.4782 95.5392Z" fill="#2474CD"/>
<path id="Fill 97" fill-rule="evenodd" clip-rule="evenodd" d="M171.786 120.975C175.278 122.491 179.092 123.225 180.379 123.363C181.665 123.501 181.802 122.674 180.379 121.526L177.437 119.047L176.733 119.552C175.982 120.164 174.939 120.351 174.16 120.164C172.03 119.65 167.238 118.037 163.194 114.524C164.205 115.971 166.414 118.644 171.786 120.975Z" fill="#23478D"/>
</g>
<g id="Group 109">
<g id="Group 102">
<mask id="mask13" mask-type="alpha" maskUnits="userSpaceOnUse" x="104" y="203" width="109" height="76">
<path id="Clip 101" fill-rule="evenodd" clip-rule="evenodd" d="M104.218 213.513L120.557 278.552C120.557 278.552 149.927 279.667 171.765 270.27C187.615 263.45 207.367 250.296 212.488 238.604L202.002 203.526L104.218 213.513Z" fill="white"/>
</mask>
<g mask="url(#mask13)">
<path id="Fill 100" fill-rule="evenodd" clip-rule="evenodd" d="M164.693 221.43L172.081 269.982C172.608 273.39 170.687 276.703 167.467 277.943L138.327 289.156L128.604 222.648L164.693 221.43Z" fill="#D8DDEA"/>
</g>
</g>
<g id="Group 105">
<mask id="mask14" mask-type="alpha" maskUnits="userSpaceOnUse" x="104" y="203" width="109" height="76">
<path id="Clip 104" fill-rule="evenodd" clip-rule="evenodd" d="M104.218 213.513L120.557 278.552C120.557 278.552 149.927 279.667 171.765 270.27C187.615 263.45 207.367 250.296 212.488 238.604L202.002 203.526L104.218 213.513Z" fill="white"/>
</mask>
<g mask="url(#mask14)">
<path id="Fill 103" fill-rule="evenodd" clip-rule="evenodd" d="M166.522 222.892L125.312 224.282L131.502 266.623C143.068 251.974 154.871 237.492 166.525 222.912L166.522 222.892Z" fill="#C5CBD8"/>
</g>
</g>
<g id="Group 108">
<mask id="mask15" mask-type="alpha" maskUnits="userSpaceOnUse" x="104" y="203" width="109" height="76">
<path id="Clip 107" fill-rule="evenodd" clip-rule="evenodd" d="M104.218 213.513L120.557 278.552C120.557 278.552 149.927 279.667 171.765 270.27C187.615 263.45 207.367 250.296 212.488 238.604L202.002 203.526L104.218 213.513Z" fill="white"/>
</mask>
<g mask="url(#mask15)">
<path id="Fill 106" fill-rule="evenodd" clip-rule="evenodd" d="M99.3419 229.469L108.12 288.661L138.114 288.174L128.604 222.648L99.3419 229.469Z" fill="#C5CBD8"/>
</g>
</g>
</g>
<g id="Group 162">
<path id="Fill 110" fill-rule="evenodd" clip-rule="evenodd" d="M100.386 218.24L165.424 210.09C167.848 209.843 170.031 211.563 170.357 213.976L171.206 218.877C171.66 221.11 169.926 223.476 167.562 223.918L135.878 231.5C133.559 231.933 131.217 232.236 128.865 232.408L102.186 234.36L100.386 218.24Z" fill="#C5CBD8"/>
<path id="Fill 112" fill-rule="evenodd" clip-rule="evenodd" d="M176.715 126.321C176.888 126.636 176.561 127.151 175.981 127.47C175.403 127.789 174.793 127.792 174.618 127.475C174.445 127.161 174.773 126.647 175.352 126.328C175.931 126.009 176.541 126.006 176.715 126.321Z" fill="#C5CBD8"/>
<path id="Fill 114" fill-rule="evenodd" clip-rule="evenodd" d="M172.738 128.871C172.921 129.181 172.606 129.704 172.037 130.038C171.467 130.374 170.856 130.393 170.674 130.083C170.492 129.772 170.806 129.249 171.376 128.915C171.946 128.58 172.556 128.561 172.738 128.871Z" fill="#C5CBD8"/>
<path id="Fill 116" fill-rule="evenodd" clip-rule="evenodd" d="M187.502 175.439C187.502 175.439 187.452 166.837 189.809 166.22C192.166 165.605 206.948 162.275 206.948 162.275C208.037 162.058 209.152 162.042 210.245 162.229C213.15 162.725 219.243 163.767 223.529 165.097C226.094 165.893 229.564 168.013 235.476 169.623C235.936 169.748 236.066 170.368 235.725 170.701C234.891 171.517 233.612 171.964 231.395 171.675C229.228 171.392 224.503 170.547 224.503 170.547L228.628 173.003C228.87 173.128 228.918 173.458 228.713 173.638C228.018 174.25 225.815 174.883 222.913 173.795C221.371 173.216 219.057 172.349 216.992 171.567C216.386 171.337 215.785 171.104 215.152 170.96L212.159 170.273C211.202 170.054 210.216 169.982 209.238 170.06L205.07 170.33C205.07 170.33 206.996 171.293 207.78 171.579C208.841 171.964 210.5 172.524 212.313 172.903C214.491 173.356 216.936 174.352 215.78 176.011C214.246 178.213 210.561 177.626 207.202 176.493C204.869 175.706 203.443 175.529 201.038 176.241C198.575 176.971 191.744 177.631 187.502 175.439Z" fill="#FFAEAE"/>
<path id="Fill 118" fill-rule="evenodd" clip-rule="evenodd" d="M190.358 165.134C189.735 165.134 180.41 164.835 173.042 163.239C171.481 168.354 168.345 179.675 168.345 179.675L187.456 175.485C187.456 175.485 187.56 170.986 189.865 166.774C190.096 166.352 190.509 166.058 190.978 165.949C191.274 165.882 191.532 165.824 191.532 165.824C191.532 165.824 191.256 165.134 190.358 165.134Z" fill="#23478D"/>
<path id="Fill 120" fill-rule="evenodd" clip-rule="evenodd" d="M100.879 219.959C100.861 219.959 100.843 219.959 100.825 219.958C99.808 219.929 99.08 219.081 99.0365 218.065C98.9437 215.907 100.157 211.137 99.9568 205.41C99.4359 190.573 93.3532 183.075 85.5265 182.637C73.835 181.984 70.2643 195.426 68.9173 203.661C67.9749 209.415 68.4568 211.672 67.885 215.802C67.7391 216.809 66.8063 217.51 65.7983 217.362C64.791 217.216 64.0932 216.282 64.2384 215.276C64.6805 212.132 66.1645 209.192 66.9831 203.385C68.9173 189.665 75.0995 179.889 85.7218 180.706C95.7001 181.473 101.329 190.316 101.891 205.41C102.108 211.24 102.904 215.539 102.719 218.17C102.649 219.166 101.872 219.959 100.879 219.959Z" fill="#E86A46"/>
<path id="Fill 122" fill-rule="evenodd" clip-rule="evenodd" d="M27.1012 268.576C26.7666 270.583 28.1062 271.823 29.3117 272.443C41.1653 278.547 92.2527 286.117 106.772 285.15C116.904 284.475 124.653 281.55 127.68 279.257C129.044 278.225 129.233 277.05 129.18 275.341C128.97 268.576 125.93 241.321 122.614 231.008C119.85 222.412 114.141 213.329 101.983 209.646C93.1348 206.966 72.8775 205.963 64.7722 206.7C54.9118 207.596 45.2297 211.829 40.088 222.537C35.667 231.745 28.4828 260.289 27.1012 268.576Z" fill="#FF7E59"/>
<path id="Fill 124" fill-rule="evenodd" clip-rule="evenodd" d="M128.607 267.778C128.383 268.124 128.09 268.45 127.68 268.76C124.653 271.053 116.904 273.978 106.772 274.653C92.253 275.621 41.1655 268.051 29.3119 261.947C29.0614 261.818 28.8086 261.656 28.5625 261.472C27.8898 264.438 27.3777 266.917 27.1014 268.576C26.7669 270.583 28.1057 271.822 29.3119 272.443C41.1655 278.548 92.253 286.117 106.772 285.15C116.904 284.475 124.653 281.55 127.68 279.257C129.043 278.225 129.234 277.05 129.181 275.341C129.131 273.771 128.929 271.087 128.607 267.778Z" fill="#E86A46"/>
<path id="Fill 126" fill-rule="evenodd" clip-rule="evenodd" d="M97.9312 219.959C97.9135 219.959 97.8959 219.959 97.8774 219.958C96.8606 219.93 96.1326 219.081 96.0891 218.065C95.9963 215.908 97.2099 211.137 97.0094 205.411C96.4885 190.573 91.6533 183.011 83.8266 182.572C72.1359 181.919 67.3169 195.426 65.97 203.661C65.0275 209.416 65.5094 211.672 64.9376 215.802C64.7918 216.809 63.8589 217.51 62.8509 217.362C61.8436 217.216 61.1459 216.282 61.291 215.276C61.7331 212.132 63.2171 209.192 64.0358 203.385C65.97 189.665 73.3995 179.825 84.0226 180.642C94.0002 181.409 98.3814 190.316 98.9436 205.411C99.1603 211.24 99.9568 215.539 99.7719 218.17C99.7011 219.166 98.9245 219.959 97.9312 219.959Z" fill="#E86A46"/>
<path id="Fill 128" fill-rule="evenodd" clip-rule="evenodd" d="M35.667 267.494V280.83C35.667 281.88 36.3117 282.823 37.291 283.203L92.3213 304.578C93.0729 304.869 93.9158 304.807 94.6158 304.407L123.182 288.087C123.97 287.638 124.456 286.801 124.456 285.894V272.305L66.4913 252.862L35.667 267.494Z" fill="#D8DDEA"/>
<path id="Fill 130" fill-rule="evenodd" clip-rule="evenodd" d="M35.667 267.502V280.861C35.667 281.911 36.3117 282.853 37.291 283.234L92.2609 304.585C93.05 304.892 93.9365 304.826 94.6718 304.406L123.278 288.064C124.007 287.648 124.456 286.873 124.456 286.033V272.29L94.8811 288.481C94.0101 288.958 92.9741 289.032 92.045 288.682L35.667 267.502Z" fill="#C5CBD8"/>
<path id="Fill 132" fill-rule="evenodd" clip-rule="evenodd" d="M104.316 283.309H77.7897L63.1376 277.828H114.325L104.316 283.309Z" fill="#97BEF7"/>
<path id="Fill 134" fill-rule="evenodd" clip-rule="evenodd" d="M57.0343 257.362H79.9103L92.1912 261.482H48.3388L57.0343 257.362Z" fill="#97BEF7"/>
<path id="Fill 136" fill-rule="evenodd" clip-rule="evenodd" d="M77.8511 298.977L77.79 283.308L63.1371 277.828L63.2064 293.284L77.8511 298.977Z" fill="#6F98EA"/>
<path id="Fill 138" fill-rule="evenodd" clip-rule="evenodd" d="M71.1775 271.984L57.1709 271.119L60.413 269.098L57.4656 267.026L67.4587 267.855L71.1775 271.984Z" fill="#97BEF7"/>
<path id="Fill 140" fill-rule="evenodd" clip-rule="evenodd" d="M104.316 298.885L104.324 283.308L114.31 277.845L114.325 293.161L104.316 298.885Z" fill="#6F98EA"/>
<path id="Fill 142" fill-rule="evenodd" clip-rule="evenodd" d="M77.6364 272.689L64.3423 275.022L66.2463 272.382L60.9653 271.339L71.4042 269.927L77.6364 272.689Z" fill="#6F98EA"/>
<path id="Fill 144" fill-rule="evenodd" clip-rule="evenodd" d="M83.1933 270.049C83.1933 270.049 77.7281 261.762 75.5176 248.442C75.3032 247.151 76.4954 245.644 77.8644 245.481C79.8163 245.249 81.6805 245.802 83.9913 245.741C87.0241 245.661 89.3953 244.881 91.8688 245.263C93.3116 245.484 94.1951 246.577 94.2459 247.828C94.8597 262.99 87.2459 270.049 87.2459 270.049H83.1933Z" fill="#B1CEF9"/>
<path id="Fill 146" fill-rule="evenodd" clip-rule="evenodd" d="M92.4038 270.663C92.4038 270.663 108.269 270.556 107.693 259.368C107.141 255.685 104.193 252.002 104.193 252.002C104.193 252.002 106.381 257.596 101.223 263.121C98.2565 266.298 93.3249 269.129 93.3249 269.129L92.4038 270.663Z" fill="#6F98EA"/>
<path id="Fill 148" fill-rule="evenodd" clip-rule="evenodd" d="M83.1933 264.893L83.9301 260.289C83.9301 260.289 89.2435 249.299 98.4828 247.214C103.46 246.091 105.652 248.068 106.713 251.792C107.018 252.862 107.232 253.776 107.509 254.335C111.193 261.762 105.299 266.182 105.299 266.182C105.299 266.182 106.487 264.774 107.018 262.99C107.782 260.424 106.588 258.079 104.009 257.158C99.672 255.609 90.7459 257.527 83.1933 264.893Z" fill="#A4C6F8"/>
<path id="Fill 150" fill-rule="evenodd" clip-rule="evenodd" d="M69.7459 252.678C69.7459 252.678 66.7654 257.542 70.4827 262.438C73.0005 265.753 77.9123 269.374 77.9123 269.374L78.4038 272.566C78.4038 272.566 75.6185 272.583 71.6801 271.339C67.8736 270.135 62.9596 267.724 60.2281 264.586C52.9098 256.178 58.9578 252.348 58.9578 252.348C58.9578 252.348 61.9324 250.767 65.8775 251.142C68.4564 251.388 69.7459 252.678 69.7459 252.678Z" fill="#6F98EA"/>
<path id="Fill 152" fill-rule="evenodd" clip-rule="evenodd" d="M81.2285 271.4L83.1708 265.922C83.1708 265.922 83.439 254.887 75.9475 248.38C72.4424 245.335 68.8562 245.241 64.9207 247.758C63.8515 248.442 63.0528 248.994 61.4568 249.7C56.7565 251.778 56.517 255.789 56.5863 256.756C56.7594 254.212 58.6634 251.785 63.1758 252.984C68.9475 254.519 77.1906 261.655 81.2285 271.4Z" fill="#A4C6F8"/>
<path id="Fill 154" fill-rule="evenodd" clip-rule="evenodd" d="M85.2811 273.733C85.2811 273.733 87.7112 268.223 87.3074 263.175C87.0621 260.105 85.7232 257.809 82.3404 256.892C78.3423 255.808 75.6786 257.018 72.8778 256.667C69.9305 256.299 69.6232 255.501 66.3553 255.595C64.0998 255.659 60.8224 257.677 61.3006 261.297C61.8584 265.522 65.6796 270.299 72.9162 272.723C74.9344 273.399 77.0498 273.738 79.1771 273.764C81.8688 273.797 85.2811 273.733 85.2811 273.733Z" fill="#97BEF7"/>
<path id="Fill 156" fill-rule="evenodd" clip-rule="evenodd" d="M87.3686 263.174C87.1232 260.105 84.4824 257.588 82.2107 257.588C81.1054 257.588 79.4166 258.202 78.8639 260.381C78.1809 263.077 79.1403 265.503 81.0745 268.699C83.1929 272.198 85.2811 273.733 85.2811 273.733C85.2811 273.733 87.7724 268.223 87.3686 263.174Z" fill="#6F98EA"/>
<path id="Fill 158" fill-rule="evenodd" clip-rule="evenodd" d="M83.6232 273.733C83.6232 273.733 81.3515 269.436 81.7708 266.639C81.9911 265.172 82.8864 263.175 85.5265 262.99C87.0444 262.884 89.4008 263.703 91.6054 263.481C94.8881 263.15 96.5106 262.325 98.6054 262.376C101.123 262.438 102.702 264.033 102.324 266.226C101.817 269.175 98.629 271.086 94.3782 272.699C93.1314 273.172 91.7624 273.597 90.3793 273.711C88.8732 273.836 83.6232 273.733 83.6232 273.733Z" fill="#97BEF7"/>
<path id="Fill 160" fill-rule="evenodd" clip-rule="evenodd" d="M82.8709 271.108C82.8709 271.108 81.1055 266.565 83.1929 264.617C83.8841 263.972 84.9437 264.248 85.22 265.307C85.4145 266.054 85.1714 267.177 84.5288 268.116C83.3315 269.866 82.8709 271.108 82.8709 271.108Z" fill="#6F98EA"/>
</g>
</g>
</g>
</g>
<defs>
<radialGradient id="paint0_radial" cx="0" cy="0" r="1" gradientUnits="userSpaceOnUse" gradientTransform="translate(163.566 15.7217) rotate(142.088) scale(69.8115 83.6186)">
<stop stop-color="#FFE8E8"/>
<stop offset="1" stop-color="#FDACAC"/>
</radialGradient>
</defs>
</svg>
