<?xml version="1.0" encoding="UTF-8"?>
<svg width="34px" height="37px" viewBox="0 0 34 37" version="1.1" xmlns="http://www.w3.org/2000/svg" xmlns:xlink="http://www.w3.org/1999/xlink">
    <!-- Generator: sketchtool 51.2 (57519) - http://www.bohemiancoding.com/sketch -->
    <title>5641C378-05B2-4525-89E0-CD184E745972</title>
    <desc>Created with sketchtool.</desc>
    <defs>
        <linearGradient x1="50.052163%" y1="-0.387599545%" x2="50.052163%" y2="99.8399317%" id="linearGradient-1">
            <stop stop-color="#1466AC" offset="0%"></stop>
            <stop stop-color="#1466AC" offset="40%"></stop>
            <stop stop-color="#EF4058" offset="66%"></stop>
            <stop stop-color="#EF4058" offset="100%"></stop>
        </linearGradient>
    </defs>
    <g id="Symbols" stroke="none" stroke-width="1" fill="none" fill-rule="evenodd">
        <g id="Элементы-/-кнопка-/-большая-/-ГУ" transform="translate(-4.000000, -1.000000)">
            <g id="Group-24">
                <rect id="Rectangle-2" fill-opacity="0" fill="#D8D8D8" x="0" y="0" width="40" height="40"></rect>
                <g id="Group-59" transform="translate(4.000000, 1.000000)" fill-rule="nonzero">
                    <path d="M14.1127596,19.1794872 L10.6275964,19.1794872 C10.5845697,19.1794872 10.5845697,19.224359 10.5845697,19.224359 C10.4985163,20.8846154 10.1973294,22.6346154 9.76706231,24.1153846 L9.76706231,24.1602564 L9.81008902,24.2051282 L11.0148368,24.2051282 C11.0578635,24.2051282 11.0578635,24.2051282 11.0578635,24.1602564 C11.4020772,23.0384615 11.6602374,21.6025641 11.7462908,20.3461538 L12.9080119,20.3461538 L12.9080119,24.1153846 C12.9080119,24.1602564 12.9510386,24.1602564 12.9510386,24.1602564 L14.1127596,24.1602564 C14.1557864,24.1602564 14.1557864,24.1153846 14.1557864,24.1153846 L14.1127596,19.1794872 C14.1988131,19.1794872 14.1557864,19.1794872 14.1127596,19.1794872 M28.9139466,19.1794872 L27.7522255,19.1794872 C27.7091988,19.1794872 27.7091988,19.224359 27.7091988,19.224359 L27.7091988,22.9935897 C27.4510386,23.0833333 27.1928783,23.0833333 26.9347181,23.0833333 C26.1602374,23.0833333 25.9881306,22.8589744 25.9881306,21.7820513 L25.9881306,19.1794872 C25.9881306,19.1346154 25.9451039,19.1346154 25.9451039,19.1346154 L24.7833828,19.1346154 C24.7403561,19.1346154 24.7403561,19.1794872 24.7403561,19.1794872 L24.7403561,21.9615385 C24.7403561,23.6666667 25.2997033,24.3397436 26.7195846,24.3397436 C27.537092,24.3397436 28.4406528,24.1153846 28.9569733,23.8910256 C29,23.8910256 29,23.8461538 29,23.8461538 L29,19.224359 C29,19.1794872 28.9569733,19.1794872 28.9139466,19.1794872 M4.73293769,19.1794872 L3.57121662,19.1794872 C3.52818991,19.1794872 3.52818991,19.1794872 3.52818991,19.224359 C3.35608309,19.9871795 2.96884273,21.2435897 2.49554896,22.5448718 L1.29080119,19.224359 C1.29080119,19.1794872 1.24777448,19.1794872 1.24777448,19.1794872 L0.0430267062,19.1794872 C0.0430267062,19.1794872 0,19.1794872 0,19.224359 L0,19.2692308 L1.76409496,24.25 C1.59198813,24.6538462 1.41988131,24.9679487 1.24777448,25.2371795 C1.11869436,25.4615385 1.03264095,25.6858974 0.903560831,25.9102564 L0.903560831,25.9551282 L0.946587537,26 L2.23738872,26 C2.28041543,26 2.28041543,26 2.28041543,25.9551282 C2.49554896,25.5064103 2.7537092,24.9230769 3.01186944,24.2948718 C3.74332344,22.4551282 4.34569733,20.75 4.73293769,19.1794872 C4.77596439,19.1794872 4.73293769,19.1794872 4.73293769,19.1794872 M8.90652819,22.9935897 C8.86350148,22.9935897 8.86350148,22.9935897 8.90652819,22.9935897 C8.86350148,22.9487179 8.82047478,22.9487179 8.82047478,22.9487179 C8.56231454,23.0384615 8.00296736,23.1282051 7.65875371,23.1282051 C6.884273,23.1282051 6.49703264,22.9038462 6.49703264,21.6474359 C6.49703264,20.6153846 6.62611276,20.1666667 7.65875371,20.1666667 C7.95994065,20.1666667 8.21810089,20.2115385 8.60534125,20.3012821 C8.64836795,20.3012821 8.64836795,20.3012821 8.69139466,20.2564103 C8.82047478,19.9871795 8.9925816,19.6730769 9.16468843,19.3141026 L9.16468843,19.2692308 L9.12166172,19.224359 C8.64836795,19.0897436 8.08902077,19 7.615727,19 C5.93768546,19 5.20623145,19.8076923 5.20623145,21.6474359 C5.20623145,23.5320513 5.93768546,24.3397436 7.615727,24.3397436 C8.04599407,24.3397436 8.86350148,24.25 9.25074184,24.0705128 C9.29376855,24.0705128 9.29376855,24.025641 9.29376855,23.9807692 L8.90652819,22.9935897 M19.7492582,19.1794872 L18.5875371,19.1794872 C18.5445104,19.1794872 18.5445104,19.1794872 18.5445104,19.224359 C18.3724036,19.9871795 17.9851632,21.2435897 17.5118694,22.5448718 L16.3501484,19.224359 C16.3501484,19.1794872 16.3071217,19.1794872 16.3071217,19.1794872 L15.0593472,19.1794872 C15.0593472,19.1794872 15.0163205,19.1794872 15.0163205,19.224359 L15.0163205,19.2692308 L16.7804154,24.25 C16.6083086,24.6538462 16.4362018,24.9679487 16.264095,25.2371795 C16.1350148,25.4615385 16.0489614,25.6858974 15.9198813,25.9102564 L15.9198813,25.9551282 L15.962908,26 L17.2537092,26 C17.2967359,26 17.2967359,26 17.2967359,25.9551282 C17.5118694,25.5064103 17.7700297,24.9230769 18.0281899,24.2948718 C18.7596439,22.5 19.3620178,20.75 19.7492582,19.1794872 C19.7922849,19.1794872 19.7492582,19.1794872 19.7492582,19.1794872 M24.0089021,19.1794872 L20.652819,19.1794872 C20.6097923,19.1794872 20.6097923,19.224359 20.6097923,19.224359 L20.6097923,24.1153846 C20.6097923,24.1602564 20.652819,24.1602564 20.652819,24.1602564 L21.8145401,24.1602564 C21.8575668,24.1602564 21.8575668,24.1153846 21.8575668,24.1153846 L21.8575668,20.3461538 L23.6216617,20.3461538 C23.6646884,20.3461538 23.6646884,20.3461538 23.6646884,20.3012821 C23.7937685,19.9871795 23.9228487,19.6282051 24.0949555,19.2692308 L24.0949555,19.224359 C24.0519288,19.1794872 24.0519288,19.1794872 24.0089021,19.1794872" id="Shape" fill="#EF3E58"></path>
                    <path d="M5.91290323,12 C4.31935484,12 3.69032258,12.6722689 3.69032258,14.4789916 C3.69032258,16.2857143 4.31935484,16.9579832 5.91290323,16.9579832 C7.5483871,16.9579832 8.17741935,16.2436975 8.17741935,14.4789916 C8.17741935,12.6722689 7.5483871,12 5.91290323,12 M5.91290323,15.907563 C5.2,15.907563 4.9483871,15.697479 4.9483871,14.4789916 C4.9483871,13.1344538 5.2,13.0504202 5.91290323,13.0504202 C6.62580645,13.0504202 6.87741935,13.1764706 6.87741935,14.4789916 C6.91935484,15.7394958 6.66774194,15.907563 5.91290323,15.907563 M12.6225806,15.7394958 C12.6225806,15.7394958 12.5806452,15.697479 12.6225806,15.7394958 C12.5806452,15.697479 12.5387097,15.697479 12.5387097,15.697479 C12.2870968,15.7815126 11.7419355,15.8655462 11.4064516,15.8655462 C10.6516129,15.8655462 10.2741935,15.6554622 10.2741935,14.4789916 C10.2741935,13.512605 10.4,13.092437 11.4064516,13.092437 C11.7,13.092437 11.9516129,13.1344538 12.3290323,13.2184874 C12.3709677,13.2184874 12.3709677,13.2184874 12.4129032,13.1764706 C12.5387097,12.9243697 12.7064516,12.6302521 12.8741935,12.2941176 L12.8741935,12.2521008 L12.8322581,12.210084 C12.3709677,12.0840336 11.8258065,12 11.3645161,12 C9.72903226,12 9.01612903,12.7563025 9.01612903,14.4789916 C9.01612903,16.2436975 9.72903226,17 11.3645161,17 C11.783871,17 12.5806452,16.9159664 12.9580645,16.7478992 C13,16.7478992 13,16.7058824 13,16.6638655 L12.6225806,15.7394958 M3.35483871,12.1260504 L0.0419354839,12.1260504 C0,12.1260504 0,12.1680672 0,12.1680672 L0,16.7478992 C0,16.789916 0.0419354839,16.789916 0.0419354839,16.789916 L1.17419355,16.789916 C1.21612903,16.789916 1.21612903,16.7478992 1.21612903,16.7478992 L1.21612903,13.2184874 L2.93548387,13.2184874 C2.97741935,13.2184874 2.97741935,13.2184874 2.97741935,13.1764706 C3.10322581,12.8823529 3.22903226,12.5462185 3.39677419,12.210084 L3.39677419,12.1680672 C3.39677419,12.1260504 3.35483871,12.1260504 3.35483871,12.1260504" id="Shape" fill="#0F67B1"></path>
                    <path d="M33.829376,23.0671217 L33.829376,22.8566553 C33.872032,22.225256 33.914688,21.4254835 33.957344,20.5415245 L33.957344,20.4573379 C33.957344,19.8259386 34,19.1945392 34,18.5210466 C34,17.847554 34,17.1740614 33.957344,16.5847554 L33.957344,16.5005688 C33.914688,15.6166098 33.872032,14.8168373 33.829376,14.185438 L33.829376,13.6803185 C33.7867201,13.0068259 33.7440641,12.5858931 33.7440641,12.5437998 C33.7440641,12.4596132 33.7440641,12.4175199 33.7014081,12.3333333 L33.7014081,12.29124 C33.7014081,12.1649602 33.6587521,12.0386803 33.6587521,11.9544937 L33.6587521,11.9124005 C33.3601602,10.4812287 32.5496964,8.92377702 31.5686086,7.78725825 C31.1847047,7.32423208 30.7581448,6.94539249 30.3315849,6.60864619 C30.2889289,6.5665529 29.819713,6.2298066 29.0092492,5.68259386 C28.0708175,5.05119454 26.7911378,4.20932878 25.2981781,3.36746303 C22.6961628,1.81001138 20.3500834,0.757679181 20.0514914,0.631399317 L20.0088354,0.631399317 C19.3263396,0.336746303 18.4732198,0.126279863 17.577444,0.0420932878 C17.4068201,0.0420932878 17.2361961,0 17.0655722,0 L16.3404204,0 C15.1460526,0.0420932878 14.0369969,0.252559727 13.1412211,0.631399317 C13.0132532,0.673492605 10.6671738,1.7258248 7.97984641,3.28327645 C7.97984641,3.28327645 7.93719042,3.32536974 7.89453444,3.32536974 C5.16455111,4.92491468 2.98909564,6.48236633 2.90378367,6.5665529 C2.22128783,7.07167235 1.62410398,7.70307167 1.06957612,8.50284414 C0.941608149,8.67121729 0.941608149,9.13424346 1.49613601,9.13424346 L2.86112768,9.13424346 C3.45831153,9.13424346 3.5862795,8.79749716 4.22611934,8.33447099 C4.95127116,7.82935154 6.35891881,6.77701934 9.00359016,5.21956769 C10.8804537,4.12514221 12.6720053,3.24118316 13.525125,2.86234357 C13.525125,2.86234357 13.567781,2.86234357 13.567781,2.82025028 L13.695749,2.82025028 C13.909029,2.73606371 14.0369969,2.65187713 14.0369969,2.65187713 C14.6341808,2.39931741 15.4873006,2.23094425 16.3830763,2.18885097 L16.7243243,2.18885097 C16.9802602,2.18885097 17.2361961,2.23094425 17.4921321,2.23094425 C18.0466599,2.31513083 18.5158758,2.39931741 18.9424357,2.56769056 C18.9850917,2.56769056 19.0277477,2.60978385 19.0704037,2.60978385 C19.0704037,2.60978385 19.1130597,2.60978385 19.1557157,2.65187713 C19.5396196,2.82025028 21.757731,3.83048919 24.1464664,5.21956769 C25.5541141,6.01934016 26.8337938,6.86120592 27.6869136,7.45051195 C28.4547214,7.9556314 28.9239373,8.2923777 28.9239373,8.33447099 C29.2651852,8.58703072 29.6064331,8.92377702 29.905025,9.30261661 C30.7154888,10.3128555 31.3553287,11.701934 31.4406406,12.7542662 C31.4406406,12.7542662 31.4832966,13.2172924 31.5259526,13.890785 L31.5259526,15.3219568 C31.5686086,16.2480091 31.6112646,17.3003413 31.6112646,18.4368601 C31.6112646,19.5733788 31.5686086,20.6678043 31.5259526,21.5517634 L31.5259526,22.9829352 C31.4832966,23.698521 31.4406406,24.1194539 31.4406406,24.1194539 C31.3126727,25.1717861 30.6728328,26.5608646 29.905025,27.5711035 C29.6064331,27.9499431 29.2651852,28.3287827 28.9239373,28.5392491 C28.9239373,28.5392491 28.4547214,28.8759954 27.6869136,29.4232082 C26.8337938,30.0125142 25.5541141,30.85438 24.1464664,31.6541524 C21.757731,33.0432309 19.5396196,34.0534699 19.1557157,34.221843 C19.1130597,34.221843 19.1130597,34.2639363 19.0704037,34.2639363 C19.0277477,34.2639363 18.9850917,34.3060296 18.9424357,34.3060296 C18.5585318,34.4744027 18.0466599,34.6006826 17.4921321,34.6427759 C17.2361961,34.6848692 16.9802602,34.6848692 16.7243243,34.6848692 L16.3830763,34.6848692 C15.4873006,34.6848692 14.6341808,34.516496 14.0369969,34.221843 C14.0369969,34.221843 13.909029,34.1797497 13.695749,34.0534699 C13.653093,34.0534699 13.653093,34.0113766 13.610437,34.0113766 C13.610437,34.0113766 13.567781,34.0113766 13.567781,33.9692833 L13.525125,33.9692833 C13.525125,33.9692833 13.4824691,33.9692833 13.4824691,33.92719 C13.4398131,33.92719 13.4398131,33.92719 13.3971571,33.8850967 C12.5013813,33.4641638 10.7951417,32.6222981 9.00359016,31.5699659 C6.35891881,30.0546075 4.95127116,29.0022753 4.22611934,28.4550626 C3.5862795,28.1604096 3.45831153,27.8236633 2.86112768,27.8236633 L1.538792,27.8236633 C0.984264139,27.8236633 1.02692013,28.2866894 1.11223211,28.4550626 C1.66675997,29.254835 2.26394382,29.8862344 2.94643966,30.3913538 C3.03175163,30.4755404 5.2072071,32.032992 7.93719042,33.632537 C8.06515839,33.7167235 8.23578235,33.8009101 8.36375032,33.8850967 C10.8804537,35.3162685 13.0559092,36.2844141 13.1838771,36.3686007 C14.0369969,36.7474403 15.1887086,37 16.3830763,37 L17.1082282,37 C17.2788521,37 17.4494761,37 17.6201,36.9579067 C18.5158758,36.8737201 19.3689956,36.6632537 20.0514914,36.3686007 L20.0941474,36.3686007 C20.3927394,36.2423208 22.7388188,35.1899886 25.3408341,33.6746303 C26.7911378,32.8327645 28.1134735,31.9908987 29.0092492,31.3594994 C29.777057,30.8122867 30.2889289,30.4755404 30.3315849,30.4334471 C30.7581448,30.1387941 31.1847047,29.7178612 31.5686086,29.254835 C32.5496964,28.076223 33.3601602,26.5187713 33.6587521,25.1296928 L33.6587521,25.0875995 C33.7014081,24.9613197 33.7014081,24.8350398 33.7014081,24.7508532 L33.7014081,24.70876 C33.7014081,24.6245734 33.7014081,24.5824801 33.7440641,24.4982935 C33.7440641,24.4562002 33.7867201,24.0352673 33.829376,23.3617747 L33.829376,23.0671217" id="Shape" fill="url(#linearGradient-1)"></path>
                </g>
            </g>
        </g>
    </g>
</svg>