<?xml version="1.0" standalone="no"?><!-- Generator: Gravit.io --><svg xmlns="http://www.w3.org/2000/svg" xmlns:xlink="http://www.w3.org/1999/xlink" style="isolation:isolate" viewBox="0 0 34 37" width="34" height="37"><defs><clipPath id="_clipPath_v0VUBGZwI6Q9s8ET1j9Iymu7ae8Ecyuy"><rect width="34" height="37"/></clipPath></defs><g clip-path="url(#_clipPath_v0VUBGZwI6Q9s8ET1j9Iymu7ae8Ecyuy)"><path d=" M 14.113 19.179 L 10.628 19.179 C 10.585 19.179 10.585 19.224 10.585 19.224 C 10.499 20.885 10.197 22.635 9.767 24.115 L 9.767 24.16 L 9.81 24.205 L 11.015 24.205 C 11.058 24.205 11.058 24.205 11.058 24.16 C 11.402 23.038 11.66 21.603 11.746 20.346 L 12.908 20.346 L 12.908 24.115 C 12.908 24.16 12.951 24.16 12.951 24.16 L 14.113 24.16 C 14.156 24.16 14.156 24.115 14.156 24.115 L 14.113 19.179 C 14.199 19.179 14.156 19.179 14.113 19.179 Z  M 28.914 19.179 L 27.752 19.179 C 27.709 19.179 27.709 19.224 27.709 19.224 L 27.709 22.994 C 27.451 23.083 27.193 23.083 26.935 23.083 C 26.16 23.083 25.988 22.859 25.988 21.782 L 25.988 19.179 C 25.988 19.135 25.945 19.135 25.945 19.135 L 24.783 19.135 C 24.74 19.135 24.74 19.179 24.74 19.179 L 24.74 21.962 C 24.74 23.667 25.3 24.34 26.72 24.34 C 27.537 24.34 28.441 24.115 28.957 23.891 C 29 23.891 29 23.846 29 23.846 L 29 19.224 C 29 19.179 28.957 19.179 28.914 19.179 Z  M 4.733 19.179 L 3.571 19.179 C 3.528 19.179 3.528 19.179 3.528 19.224 C 3.356 19.987 2.969 21.244 2.496 22.545 L 1.291 19.224 C 1.291 19.179 1.248 19.179 1.248 19.179 L 0.043 19.179 C 0.043 19.179 0 19.179 0 19.224 L 0 19.269 L 1.764 24.25 C 1.592 24.654 1.42 24.968 1.248 25.237 C 1.119 25.462 1.033 25.686 0.904 25.91 L 0.904 25.955 L 0.947 26 L 2.237 26 C 2.28 26 2.28 26 2.28 25.955 C 2.496 25.506 2.754 24.923 3.012 24.295 C 3.743 22.455 4.346 20.75 4.733 19.179 C 4.776 19.179 4.733 19.179 4.733 19.179 Z  M 8.907 22.994 C 8.864 22.994 8.864 22.994 8.907 22.994 C 8.864 22.949 8.82 22.949 8.82 22.949 C 8.562 23.038 8.003 23.128 7.659 23.128 C 6.884 23.128 6.497 22.904 6.497 21.647 C 6.497 20.615 6.626 20.167 7.659 20.167 C 7.96 20.167 8.218 20.212 8.605 20.301 C 8.648 20.301 8.648 20.301 8.691 20.256 C 8.82 19.987 8.993 19.673 9.165 19.314 L 9.165 19.269 L 9.122 19.224 C 8.648 19.09 8.089 19 7.616 19 C 5.938 19 5.206 19.808 5.206 21.647 C 5.206 23.532 5.938 24.34 7.616 24.34 C 8.046 24.34 8.864 24.25 9.251 24.071 C 9.294 24.071 9.294 24.026 9.294 23.981 L 8.907 22.994 Z  M 19.749 19.179 L 18.588 19.179 C 18.545 19.179 18.545 19.179 18.545 19.224 C 18.372 19.987 17.985 21.244 17.512 22.545 L 16.35 19.224 C 16.35 19.179 16.307 19.179 16.307 19.179 L 15.059 19.179 C 15.059 19.179 15.016 19.179 15.016 19.224 L 15.016 19.269 L 16.78 24.25 C 16.608 24.654 16.436 24.968 16.264 25.237 C 16.135 25.462 16.049 25.686 15.92 25.91 L 15.92 25.955 L 15.963 26 L 17.254 26 C 17.297 26 17.297 26 17.297 25.955 C 17.512 25.506 17.77 24.923 18.028 24.295 C 18.76 22.5 19.362 20.75 19.749 19.179 C 19.792 19.179 19.749 19.179 19.749 19.179 Z  M 24.009 19.179 L 20.653 19.179 C 20.61 19.179 20.61 19.224 20.61 19.224 L 20.61 24.115 C 20.61 24.16 20.653 24.16 20.653 24.16 L 21.815 24.16 C 21.858 24.16 21.858 24.115 21.858 24.115 L 21.858 20.346 L 23.622 20.346 C 23.665 20.346 23.665 20.346 23.665 20.301 C 23.794 19.987 23.923 19.628 24.095 19.269 L 24.095 19.224 C 24.052 19.179 24.052 19.179 24.009 19.179 Z " fill="rgb(255,255,255)"/><path d=" M 5.913 12 C 4.319 12 3.69 12.672 3.69 14.479 C 3.69 16.286 4.319 16.958 5.913 16.958 C 7.548 16.958 8.177 16.244 8.177 14.479 C 8.177 12.672 7.548 12 5.913 12 Z  M 5.913 15.908 C 5.2 15.908 4.948 15.697 4.948 14.479 C 4.948 13.134 5.2 13.05 5.913 13.05 C 6.626 13.05 6.877 13.176 6.877 14.479 C 6.919 15.739 6.668 15.908 5.913 15.908 Z  M 12.623 15.739 C 12.623 15.739 12.581 15.697 12.623 15.739 C 12.581 15.697 12.539 15.697 12.539 15.697 C 12.287 15.782 11.742 15.866 11.406 15.866 C 10.652 15.866 10.274 15.655 10.274 14.479 C 10.274 13.513 10.4 13.092 11.406 13.092 C 11.7 13.092 11.952 13.134 12.329 13.218 C 12.371 13.218 12.371 13.218 12.413 13.176 C 12.539 12.924 12.706 12.63 12.874 12.294 L 12.874 12.252 L 12.832 12.21 C 12.371 12.084 11.826 12 11.365 12 C 9.729 12 9.016 12.756 9.016 14.479 C 9.016 16.244 9.729 17 11.365 17 C 11.784 17 12.581 16.916 12.958 16.748 C 13 16.748 13 16.706 13 16.664 L 12.623 15.739 Z  M 3.355 12.126 L 0.042 12.126 C 0 12.126 0 12.168 0 12.168 L 0 16.748 C 0 16.79 0.042 16.79 0.042 16.79 L 1.174 16.79 C 1.216 16.79 1.216 16.748 1.216 16.748 L 1.216 13.218 L 2.935 13.218 C 2.977 13.218 2.977 13.218 2.977 13.176 C 3.103 12.882 3.229 12.546 3.397 12.21 L 3.397 12.168 C 3.397 12.126 3.355 12.126 3.355 12.126 Z " fill="rgb(255,255,255)"/><path d=" M 33.829 23.067 L 33.829 22.857 C 33.872 22.225 33.915 21.425 33.957 20.542 L 33.957 20.457 C 33.957 19.826 34 19.195 34 18.521 C 34 17.848 34 17.174 33.957 16.585 L 33.957 16.501 C 33.915 15.617 33.872 14.817 33.829 14.185 L 33.829 13.68 C 33.787 13.007 33.744 12.586 33.744 12.544 C 33.744 12.46 33.744 12.418 33.701 12.333 L 33.701 12.291 C 33.701 12.165 33.659 12.039 33.659 11.954 L 33.659 11.912 C 33.36 10.481 32.55 8.924 31.569 7.787 C 31.185 7.324 30.758 6.945 30.332 6.609 C 30.289 6.567 29.82 6.23 29.009 5.683 C 28.071 5.051 26.791 4.209 25.298 3.367 C 22.696 1.81 20.35 0.758 20.051 0.631 L 20.009 0.631 C 19.326 0.337 18.473 0.126 17.577 0.042 C 17.407 0.042 17.236 0 17.066 0 L 16.34 0 C 15.146 0.042 14.037 0.253 13.141 0.631 C 13.013 0.673 10.667 1.726 7.98 3.283 C 7.98 3.283 7.937 3.325 7.895 3.325 C 5.165 4.925 2.989 6.482 2.904 6.567 C 2.221 7.072 1.624 7.703 1.07 8.503 C 0.942 8.671 0.942 9.134 1.496 9.134 L 2.861 9.134 C 3.458 9.134 3.586 8.797 4.226 8.334 C 4.951 7.829 6.359 6.777 9.004 5.22 C 10.88 4.125 12.672 3.241 13.525 2.862 C 13.525 2.862 13.568 2.862 13.568 2.82 L 13.696 2.82 C 13.909 2.736 14.037 2.652 14.037 2.652 C 14.634 2.399 15.487 2.231 16.383 2.189 L 16.724 2.189 C 16.98 2.189 17.236 2.231 17.492 2.231 C 18.047 2.315 18.516 2.399 18.942 2.568 C 18.985 2.568 19.028 2.61 19.07 2.61 C 19.07 2.61 19.113 2.61 19.156 2.652 C 19.54 2.82 21.758 3.83 24.146 5.22 C 25.554 6.019 26.834 6.861 27.687 7.451 C 28.455 7.956 28.924 8.292 28.924 8.334 C 29.265 8.587 29.606 8.924 29.905 9.303 C 30.715 10.313 31.355 11.702 31.441 12.754 C 31.441 12.754 31.483 13.217 31.526 13.891 L 31.526 15.322 C 31.569 16.248 31.611 17.3 31.611 18.437 C 31.611 19.573 31.569 20.668 31.526 21.552 L 31.526 22.983 C 31.483 23.699 31.441 24.119 31.441 24.119 C 31.313 25.172 30.673 26.561 29.905 27.571 C 29.606 27.95 29.265 28.329 28.924 28.539 C 28.924 28.539 28.455 28.876 27.687 29.423 C 26.834 30.013 25.554 30.854 24.146 31.654 C 21.758 33.043 19.54 34.053 19.156 34.222 C 19.113 34.222 19.113 34.264 19.07 34.264 C 19.028 34.264 18.985 34.306 18.942 34.306 C 18.559 34.474 18.047 34.601 17.492 34.643 C 17.236 34.685 16.98 34.685 16.724 34.685 L 16.383 34.685 C 15.487 34.685 14.634 34.516 14.037 34.222 C 14.037 34.222 13.909 34.18 13.696 34.053 C 13.653 34.053 13.653 34.011 13.61 34.011 C 13.61 34.011 13.568 34.011 13.568 33.969 L 13.525 33.969 C 13.525 33.969 13.482 33.969 13.482 33.927 C 13.44 33.927 13.44 33.927 13.397 33.885 C 12.501 33.464 10.795 32.622 9.004 31.57 C 6.359 30.055 4.951 29.002 4.226 28.455 C 3.586 28.16 3.458 27.824 2.861 27.824 L 1.539 27.824 C 0.984 27.824 1.027 28.287 1.112 28.455 C 1.667 29.255 2.264 29.886 2.946 30.391 C 3.032 30.476 5.207 32.033 7.937 33.633 C 8.065 33.717 8.236 33.801 8.364 33.885 C 10.88 35.316 13.056 36.284 13.184 36.369 C 14.037 36.747 15.189 37 16.383 37 L 17.108 37 C 17.279 37 17.449 37 17.62 36.958 C 18.516 36.874 19.369 36.663 20.051 36.369 L 20.094 36.369 C 20.393 36.242 22.739 35.19 25.341 33.675 C 26.791 32.833 28.113 31.991 29.009 31.359 C 29.777 30.812 30.289 30.476 30.332 30.433 C 30.758 30.139 31.185 29.718 31.569 29.255 C 32.55 28.076 33.36 26.519 33.659 25.13 L 33.659 25.088 C 33.701 24.961 33.701 24.835 33.701 24.751 L 33.701 24.709 C 33.701 24.625 33.701 24.582 33.744 24.498 C 33.744 24.456 33.787 24.035 33.829 23.362 L 33.829 23.067 Z " fill="rgb(255,255,255)"/></g></svg>