<?xml version="1.0" standalone="no"?><!-- Generator: Gravit.io --><svg xmlns="http://www.w3.org/2000/svg" xmlns:xlink="http://www.w3.org/1999/xlink" style="isolation:isolate" viewBox="0 0 25.711 26.34" width="25.711" height="26.34"><defs><clipPath id="_clipPath_qcX2CiWAEzPHRvbjtVYz3ExTrcDuCGyQ"><rect width="25.711" height="26.34"/></clipPath></defs><g clip-path="url(#_clipPath_qcX2CiWAEzPHRvbjtVYz3ExTrcDuCGyQ)"><path d=" M 4.695 8.72 L 2.2 8.72 L 2.2 8.72 C 1.62 8.72 1.06 8.95 0.65 9.37 C 0.23 9.78 0 10.34 0 10.92 C 0 11.5 0.23 12.06 0.65 12.48 C 1.06 12.89 1.62 13.12 2.2 13.12 L 3.93 13.12 C 3.93 13.137 3.93 13.153 3.93 13.17 C 3.929 13.374 3.934 13.577 3.942 13.78 L 2.2 13.78 L 2.2 13.78 C 1.62 13.78 1.06 14.01 0.65 14.43 C 0.23 14.84 0 15.4 0 15.98 C 0 16.57 0.23 17.13 0.65 17.54 C 1.06 17.95 1.62 18.18 2.2 18.18 L 4.91 18.18 C 5.56 19.768 6.52 21.23 7.75 22.47 C 10.21 24.93 13.55 26.33 17.03 26.34 C 17.03 26.34 17.03 26.34 17.04 26.34 L 17.05 26.34 C 17.05 26.34 17.05 26.34 17.05 26.34 C 19.85 26.34 22.58 25.43 24.82 23.76 C 25.29 23.42 25.6 22.9 25.69 22.32 C 25.77 21.74 25.62 21.15 25.28 20.69 C 24.93 20.22 24.41 19.91 23.83 19.82 C 23.25 19.74 22.67 19.89 22.2 20.23 C 20.71 21.34 18.91 21.94 17.05 21.94 L 17.04 21.94 C 14.72 21.93 12.5 21 10.87 19.36 C 10.504 18.994 10.175 18.599 9.884 18.18 L 15.1 18.18 C 15.68 18.18 16.24 17.95 16.66 17.54 C 17.07 17.13 17.3 16.57 17.3 15.98 C 17.3 15.4 17.07 14.84 16.66 14.43 C 16.24 14.01 15.68 13.78 15.1 13.78 L 8.349 13.78 C 8.335 13.578 8.329 13.374 8.33 13.17 C 8.33 13.153 8.33 13.137 8.33 13.12 L 15.1 13.12 C 15.68 13.12 16.24 12.89 16.66 12.48 C 17.07 12.06 17.3 11.5 17.3 10.92 C 17.3 10.34 17.07 9.78 16.66 9.37 C 16.24 8.95 15.68 8.72 15.1 8.72 L 9.528 8.72 C 9.897 8.092 10.346 7.507 10.87 6.98 C 12.5 5.34 14.72 4.41 17.04 4.4 C 18.9 4.4 20.71 5 22.2 6.11 C 22.67 6.46 23.26 6.61 23.83 6.52 C 24.41 6.44 24.93 6.12 25.28 5.66 C 25.62 5.19 25.77 4.6 25.69 4.02 C 25.6 3.45 25.29 2.93 24.82 2.58 C 22.57 0.91 19.84 0 17.03 0 C 13.55 0.01 10.21 1.41 7.75 3.87 C 6.377 5.254 5.34 6.915 4.695 8.72 Z " fill="rgb(36,116,205)"/></g></svg>