<?xml version="1.0" standalone="no"?><!-- Generator: Gravit.io --><svg xmlns="http://www.w3.org/2000/svg" xmlns:xlink="http://www.w3.org/1999/xlink" style="isolation:isolate" viewBox="0 0 24.831 27.449" width="24.831" height="27.449"><defs><clipPath id="_clipPath_WXkJfDCPjca7clJOC1BVsU3maajZ085J"><rect width="24.831" height="27.449"/></clipPath></defs><g clip-path="url(#_clipPath_WXkJfDCPjca7clJOC1BVsU3maajZ085J)"><path d=" M 8.211 14.15 C 8.211 14.163 8.21 14.175 8.21 14.187 L 8.177 15.637 C 7.505 15.624 6.82 15.671 6.12 15.779 C 2.924 16.269 0.486 18.593 0.194 21.429 C 0.019 23.143 0.654 24.841 1.912 26.019 L 1.912 26.019 L 1.912 26.019 C 2.95 26.982 4.736 27.689 7.074 27.372 C 9.712 27.013 11.554 25.048 12.384 22.19 C 12.81 22.558 13.252 22.994 13.71 23.51 C 15.867 25.942 18.012 26.415 19.449 26.4 C 22.471 26.35 23.895 24.44 24.351 23.79 C 24.904 23.003 25.144 21.533 24.154 20.68 C 23.286 19.932 21.943 19.932 20.956 20.68 C 19.281 21.95 17.782 20.97 17.256 20.378 C 15.863 18.808 14.413 17.632 12.89 16.844 C 12.903 16.08 12.925 15.202 12.945 14.297 C 12.946 14.272 12.946 14.246 12.947 14.217 C 17.292 14.277 20.493 14.321 20.547 14.319 C 21.852 14.275 22.875 13.181 22.831 11.876 C 22.809 11.249 22.538 10.656 22.079 10.228 C 21.619 9.8 21.008 9.573 20.381 9.596 C 20.362 9.597 17.306 9.602 13.036 9.608 C 13.048 8.923 13.053 8.298 13.053 7.717 C 13.053 6.593 13.424 5.051 14.918 4.769 C 16.157 4.537 16.892 5.242 17.444 6.187 C 18.103 7.314 19.65 7.813 20.759 7.122 C 21.868 6.43 22.108 5.027 21.513 3.865 C 19.614 0.161 16.364 -0.235 14.174 0.091 C 10.37 0.657 8.317 4.1 8.317 7.717 C 8.317 8.295 8.312 8.922 8.3 9.612 C 4.44 9.617 2.552 9.617 2.435 9.614 C 1.136 9.574 0.038 10.448 0.001 11.754 C -0.037 13.057 0.992 14.026 2.299 14.064 L 2.299 14.064 C 2.43 14.067 4.322 14.095 8.211 14.15 Z  M 7.959 20.355 C 7.584 20.358 7.21 20.39 6.84 20.449 C 5.51 20.653 4.92 21.433 4.906 21.912 C 4.893 22.334 5.328 22.885 6.252 22.718 C 7.275 22.533 7.745 21.428 7.959 20.354 L 7.959 20.355 L 7.959 20.355 Z " fill-rule="evenodd" fill="rgb(36,116,205)"/></g></svg>