<?xml version="1.0" standalone="no"?><!-- Generator: Gravit.io --><svg xmlns="http://www.w3.org/2000/svg" xmlns:xlink="http://www.w3.org/1999/xlink" style="isolation:isolate" viewBox="0 0 23.47 26.33" width="23.47" height="26.33"><defs><clipPath id="_clipPath_E9dyEbalmk2s8q7whjf9dF2VIeKF2ssa"><rect width="23.47" height="26.33"/></clipPath></defs><g clip-path="url(#_clipPath_E9dyEbalmk2s8q7whjf9dF2VIeKF2ssa)"><path d=" M 5.61 20.42 L 5.61 24.13 C 5.61 24.71 5.84 25.27 6.25 25.69 C 6.67 26.1 7.23 26.33 7.81 26.33 C 8.39 26.33 8.95 26.1 9.37 25.69 C 9.78 25.27 10.01 24.71 10.01 24.13 L 10.01 24.13 L 10.01 20.42 L 13.98 20.42 C 14.56 20.42 15.12 20.19 15.53 19.78 C 15.95 19.37 16.18 18.81 16.18 18.22 C 16.18 17.64 15.95 17.08 15.53 16.67 C 15.12 16.26 14.56 16.02 13.98 16.02 L 10.01 16.02 L 10.01 14.31 L 16.22 14.31 C 16.22 14.31 16.22 14.31 16.22 14.31 C 18.06 14.31 19.84 13.62 21.19 12.37 C 22.65 11 23.48 9.08 23.47 7.07 C 23.47 6.03 23.25 5 22.81 4.06 C 22.39 3.18 21.79 2.41 21.05 1.78 C 19.64 0.61 17.87 -0.02 16.04 0 L 5.61 0 L 5.61 16.02 L 2.2 16.02 C 1.62 16.02 1.06 16.26 0.65 16.67 C 0.23 17.08 0 17.64 0 18.22 C 0 18.81 0.23 19.37 0.65 19.78 C 1.06 20.19 1.62 20.42 2.2 20.42 L 5.61 20.42 Z  M 10.01 14.31 M 10.01 9.91 L 16.22 9.91 C 16.95 9.91 17.65 9.64 18.19 9.15 C 18.76 8.61 19.08 7.86 19.07 7.07 C 19.07 6.68 18.99 6.29 18.83 5.93 C 18.68 5.63 18.48 5.37 18.23 5.16 C 17.62 4.66 16.86 4.39 16.08 4.4 C 16.07 4.4 16.06 4.4 16.05 4.4 L 10.01 4.4 L 10.01 9.91 L 10.01 9.91 Z " fill-rule="evenodd" fill="rgb(36,116,205)"/></g></svg>