<?xml version="1.0" standalone="no"?><!-- Generator: Gravit.io --><svg xmlns="http://www.w3.org/2000/svg" xmlns:xlink="http://www.w3.org/1999/xlink" style="isolation:isolate" viewBox="0 0 20.103 25.772" width="20.103" height="25.772"><defs><clipPath id="_clipPath_ROpxS5FA4PDlA3FyYstP0X07Z4Miq4It"><rect width="20.103" height="25.772"/></clipPath></defs><g clip-path="url(#_clipPath_ROpxS5FA4PDlA3FyYstP0X07Z4Miq4It)"><path d=" M 7.851 14.802 L 7.851 16.022 L 4.441 16.022 C 3.861 16.022 3.301 16.262 2.891 16.672 C 2.471 17.082 2.241 17.642 2.241 18.222 C 2.241 18.812 2.471 19.372 2.891 19.782 C 3.301 20.192 3.861 20.422 4.441 20.422 L 7.851 20.422 L 7.851 23.572 C 7.851 24.152 8.081 24.712 8.491 25.122 C 8.911 25.542 9.471 25.772 10.051 25.772 C 10.631 25.772 11.191 25.542 11.611 25.122 C 12.021 24.712 12.251 24.152 12.251 23.572 L 12.251 20.422 L 16.221 20.422 C 16.801 20.422 17.361 20.192 17.771 19.782 C 18.191 19.372 18.421 18.812 18.421 18.222 C 18.421 17.642 18.191 17.082 17.771 16.672 C 17.361 16.262 16.801 16.022 16.221 16.022 L 12.251 16.022 L 12.251 14.802 L 16.221 14.802 C 16.801 14.802 17.361 14.572 17.771 14.162 C 18.191 13.742 18.421 13.182 18.421 12.602 C 18.421 12.022 18.191 11.462 17.771 11.042 C 17.361 10.632 16.801 10.402 16.221 10.402 L 14.089 10.402 L 19.611 3.582 C 19.981 3.132 20.151 2.552 20.091 1.972 C 20.031 1.392 19.741 0.852 19.281 0.492 C 18.831 0.122 18.251 -0.048 17.671 0.012 C 17.091 0.072 16.561 0.362 16.191 0.812 L 10.096 8.346 L 3.901 0.802 C 3.531 0.352 2.991 0.062 2.411 0.012 C 1.831 -0.048 1.251 0.132 0.801 0.502 C 0.351 0.872 0.071 1.402 0.011 1.982 C -0.049 2.562 0.131 3.142 0.501 3.592 L 6.093 10.402 L 4.441 10.402 C 3.861 10.402 3.301 10.632 2.891 11.042 C 2.471 11.462 2.241 12.022 2.241 12.602 C 2.241 13.182 2.471 13.742 2.891 14.162 C 3.301 14.572 3.861 14.802 4.441 14.802 L 7.851 14.802 Z " fill="rgb(36,116,205)"/></g></svg>